<svg width="7300" height="2300" viewBox="0 0 7300 2300" version="1.1" id="svg1" xml:space="preserve"
  xmlns="http://www.w3.org/2000/svg">
  <g id="floor_0" transform="matrix(40.994169,0,0,40.994169,1.00188,-9610.757)" style="display:inline">
    <path
      style="font-variation-settings:'wdth' 70,'wght' 600;display:inline;fill:#4c5a5f;fill-opacity:1;stroke:none;stroke-width:.487874"
      d="m 1.02449,264.33654 h 60.628317 v -19.14906 l 15.581338,-0.0488 v 19.19785 H 139.0441 l 1e-5,8.48901 H 1.02449 Z"
      id="path455" />
    <g id="rooms_0" style="display:inline" transform="matrix(0.02439371,0,0,0.02439371,-0.02443957,255.98706)">
      <rect
        style="font-variation-settings:'wdth' 70,'wght' 600;fill:#1b2022;fill-opacity:1;stroke:none;stroke-width:10.0166;stroke-linecap:butt;stroke-linejoin:miter;stroke-dasharray:none;stroke-opacity:1"
        id="rect2" width="205.00011" height="292.49988" x="2629.9058" y="690.28015" />
      <rect
        style="font-variation-settings:'wdth' 70,'wght' 600;display:inline;fill:#454c7f;fill-opacity:1;stroke-width:975.496;stroke-dasharray:none"
        id="GU001" width="1547.3518" height="787.00006" x="3167.1523" y="-444.71991" />
      <rect
        style="font-variation-settings:'wdth' 70,'wght' 600;display:inline;fill:#454c7f;fill-opacity:1;stroke-width:584.643;stroke-dasharray:none"
        id="GU002" width="639.96375" height="683.5" x="4714.5039" y="-341.21991" />
      <rect
        style="font-variation-settings:'wdth' 70,'wght' 600;display:inline;fill:#454c7f;fill-opacity:1;stroke-width:227.443;stroke-dasharray:none"
        id="GU003" width="319.03265" height="207.50009" x="5354.4678" y="134.78" />
      <rect
        style="font-variation-settings:'wdth' 70,'wght' 600;display:inline;fill:#454c7f;fill-opacity:1;stroke-width:334.38;stroke-dasharray:none"
        id="GU003_A" width="319.03265" height="448.496" x="5354.4678" y="-313.716" />
      <rect
        style="font-variation-settings:'wdth' 70,'wght' 600;display:inline;fill:#454c7f;fill-opacity:1;stroke-width:241.377;stroke-dasharray:none"
        id="GU005" width="262.69073" height="283.83566" x="5191.1035" y="690.28015" />
      <path
        style="font-variation-settings:'wdth' 70,'wght' 600;display:inline;fill:#454c7f;fill-opacity:1;stroke:none;stroke-width:0;stroke-linecap:butt;stroke-dasharray:none;stroke-opacity:1"
        d="m 4716.8663,690.28003 h 281.9916 v 283.83581 h 26.5278 v 393.47796 h -308.5194 z" id="GU007" />
      <rect
        style="font-variation-settings:'wdth' 70,'wght' 600;display:inline;fill:#454c7f;fill-opacity:1;stroke-width:705.248;stroke-dasharray:none"
        id="GU008" width="939.74493" height="677.31378" x="3777.1213" y="690.28003" />
      <rect
        style="font-variation-settings:'wdth' 70,'wght' 600;display:inline;fill:#454c7f;fill-opacity:1;stroke-width:701.333;stroke-dasharray:none"
        id="GU009" width="929.34119" height="677.31384" x="2847.7803" y="690.28003" />
      <rect
        style="font-variation-settings:'wdth' 70,'wght' 600;display:inline;fill:#454c7f;fill-opacity:1;stroke-width:562.134;stroke-dasharray:none"
        id="GU010" width="595.12146" height="679.50006" x="1924.2843" y="690.28009" />
      <rect
        style="font-variation-settings:'wdth' 70,'wght' 600;display:inline;fill:#454c7f;fill-opacity:1;stroke-width:294.618;stroke-dasharray:none"
        id="GU010_A" width="310.87445" height="357.31458" x="2519.4058" y="982.78003" />
      <rect
        style="font-variation-settings:'wdth' 70,'wght' 600;display:inline;fill:#454c7f;fill-opacity:1;stroke-width:705.763;stroke-dasharray:none"
        id="GU011" width="938.09326" height="679.5" x="986.19104" y="690.28009" />
      <rect
        style="font-variation-settings:'wdth' 70,'wght' 600;display:inline;fill:#454c7f;fill-opacity:1;stroke-width:707.679;stroke-dasharray:none"
        id="GU012" width="943.19104" height="679.5" x="42.999996" y="690.28009" />
      <rect
        style="font-variation-settings:'wdth' 70,'wght' 600;display:inline;fill:#454c7f;fill-opacity:1;stroke-width:710.07;stroke-dasharray:none"
        id="GU013" width="943.99963" height="683.50006" x="43" y="-341.21991" />
      <rect
        style="font-variation-settings:'wdth' 70,'wght' 600;display:inline;opacity:1;fill:#454c7f;fill-opacity:1;stroke-width:972.385;stroke-dasharray:none"
        id="GU014" width="1541.4084" height="785.00018" x="986.99963" y="-442.72003" />
      <rect
        style="font-variation-settings:'wdth' 70,'wght' 600;display:inline;opacity:1;fill:#454c7f;fill-opacity:1;stroke-width:409.135;stroke-dasharray:none"
        id="GU015" width="319.37213" height="670.72937" x="2528.4082" y="-328.44928" />
      <rect
        style="font-variation-settings:'wdth' 70,'wght' 600;display:inline;fill:#454c7f;fill-opacity:1;stroke-width:298.435;stroke-dasharray:none"
        id="GU_outside_1_A" width="252.99983" height="450.50006" x="6488.8071" y="690.28009" />
      <rect
        style="font-variation-settings:'wdth' 70,'wght' 600;display:inline;fill:#454c7f;fill-opacity:1;stroke-width:327.031;stroke-dasharray:none"
        id="GU_outside_1" width="303.80615" height="450.49988" x="6185.001" y="690.28009" />
      <rect
        style="font-variation-settings:'wdth' 70,'wght' 600;display:inline;fill:#454c7f;fill-opacity:1;stroke-width:389.12;stroke-dasharray:none"
        id="GU_outside_2" width="556.80609" height="348" x="6185.001" y="342.28009" />
      <rect
        style="font-variation-settings:'wdth' 70,'wght' 600;display:inline;fill:#454c7f;fill-opacity:1;stroke-width:206.492;stroke-dasharray:none"
        id="GU006" width="192.24576" height="283.83566" x="4998.8579" y="690.28015" />
      <rect
        style="font-variation-settings:'wdth' 70,'wght' 600;display:inline;fill:#454c7f;fill-opacity:1;stroke-width:220.747;stroke-dasharray:none"
        id="GU004" width="219.7052" height="283.83566" x="5453.7939" y="690.28015" />
      <rect
        style="font-variation-settings:'wdth' 70,'wght' 600;display:inline;fill:#454c7f;fill-opacity:1;stroke-width:308.334;stroke-dasharray:none"
        id="GU004_A" width="332.43655" height="365.97827" x="5341.062" y="974.11584" />
      <rect
        style="font-variation-settings:'wdth' 70,'wght' 600;display:inline;fill:#454c7f;fill-opacity:1;stroke-width:300.461;stroke-dasharray:none"
        id="GU006_A" width="315.67584" height="365.97827" x="5025.3857" y="974.11584" />
    </g>
    <g id="staires_0" transform="matrix(-0.02439371,0,0,-0.02439371,133.40036,264.73227)" style="display:inline">
      <path
        style="font-variation-settings:'wdth' 70,'wght' 600;display:inline;fill:#60767b;fill-opacity:1;stroke:none;stroke-width:0;stroke-linecap:butt;stroke-dasharray:none;stroke-opacity:1"
        d="m 2941.2314,709.45196 c -60.9027,234.25144 -60.752,234.04548 -218.372,337.29574 h -200 C 2351.8998,929.8753 2351.903,929.8753 2302.4873,709.45193 Z"
        id="path147" transform="translate(-4.1749921e-4,-8.386638e-5)" />
      <rect
        style="font-variation-settings:'wdth' 70,'wght' 600;display:inline;fill:#4c5a5f;fill-opacity:1;stroke-width:8.08545;stroke-dasharray:none"
        id="rect147" width="274.37241" height="29.06435" x="-2599.3596" y="-331.61542" transform="scale(-1)" />
      <rect
        style="font-variation-settings:'wdth' 70,'wght' 600;display:inline;fill:#4f5e63;fill-opacity:1;stroke-width:8.08545;stroke-dasharray:none"
        id="rect148" width="274.37241" height="29.06435" x="-2599.3596" y="-360.67978" transform="scale(-1)" />
      <rect
        style="font-variation-settings:'wdth' 70,'wght' 600;display:inline;fill:#516166;fill-opacity:1;stroke-width:8.08545;stroke-dasharray:none"
        id="rect149" width="274.37241" height="29.06435" x="-2599.3596" y="-389.74414" transform="scale(-1)" />
      <rect
        style="font-variation-settings:'wdth' 70,'wght' 600;display:inline;fill:#546469;fill-opacity:1;stroke-width:8.08545;stroke-dasharray:none"
        id="rect150" width="274.37241" height="29.06435" x="-2599.3596" y="-418.8085" transform="scale(-1)" />
      <rect
        style="font-variation-settings:'wdth' 70,'wght' 600;display:inline;fill:#56676c;fill-opacity:1;stroke-width:8.08545;stroke-dasharray:none"
        id="rect151" width="274.37241" height="29.06435" x="-2599.3596" y="-447.87286" transform="scale(-1)" />
      <rect
        style="font-variation-settings:'wdth' 70,'wght' 600;display:inline;fill:#586a6f;fill-opacity:1;stroke-width:8.08545;stroke-dasharray:none"
        id="rect152" width="274.37241" height="29.06435" x="-2599.3596" y="-476.93723" transform="scale(-1)" />
      <rect
        style="font-variation-settings:'wdth' 70,'wght' 600;display:inline;fill:#5a6d72;fill-opacity:1;stroke-width:8.08545;stroke-dasharray:none"
        id="rect153" width="274.37241" height="29.06435" x="-2599.3596" y="-506.00159" transform="scale(-1)" />
      <rect
        style="font-variation-settings:'wdth' 70,'wght' 600;display:inline;fill:#5c7075;fill-opacity:1;stroke-width:8.08545;stroke-dasharray:none"
        id="rect154" width="274.37241" height="29.06435" x="-2599.3596" y="-535.06592" transform="scale(-1)" />
      <rect
        style="font-variation-settings:'wdth' 70,'wght' 600;display:inline;fill:#5e7378;fill-opacity:1;stroke-width:8.08545;stroke-dasharray:none"
        id="rect155" width="274.37241" height="29.06435" x="-2599.3596" y="-564.13025" transform="scale(-1)" />
      <rect
        style="font-variation-settings:'wdth' 70,'wght' 600;display:inline;fill:#60767b;fill-opacity:1;stroke-width:8.08545;stroke-dasharray:none"
        id="rect156" width="274.37241" height="29.06435" x="-2599.3596" y="-593.19458" transform="scale(-1)" />
      <rect
        style="font-variation-settings:'wdth' 70,'wght' 600;display:inline;fill:#62797e;fill-opacity:1;stroke-width:8.08545;stroke-dasharray:none"
        id="rect157" width="274.37241" height="29.06435" x="-2599.3596" y="-622.25891" transform="scale(-1)" />
      <rect
        style="font-variation-settings:'wdth' 70,'wght' 600;display:inline;fill:#60767b;fill-opacity:1;stroke-width:14.0051;stroke-dasharray:none"
        id="rect158" width="274.37241" height="87.202682" x="-2599.3596" y="-709.46161" transform="scale(-1)" />
      <rect
        style="font-variation-settings:'wdth' 70,'wght' 600;display:inline;fill:#000;fill-opacity:1;stroke-width:1.49976;stroke-dasharray:none"
        id="rect663" width="274.37241" height="1.0000001" x="-2599.3596" y="621.25891" transform="scale(-1,1)" />
      <rect
        style="font-variation-settings:'wdth' 70,'wght' 600;display:inline;fill:#000;fill-opacity:1;stroke-width:1.49976;stroke-dasharray:none"
        id="rect664" width="274.37241" height="1.0000001" x="-2599.3596" y="592.19458" transform="scale(-1,1)" />
      <rect
        style="font-variation-settings:'wdth' 70,'wght' 600;display:inline;fill:#000;fill-opacity:1;stroke-width:1.49976;stroke-dasharray:none"
        id="rect665" width="274.37241" height="1.0000001" x="-2599.3596" y="563.13025" transform="scale(-1,1)" />
      <rect
        style="font-variation-settings:'wdth' 70,'wght' 600;display:inline;fill:#000;fill-opacity:1;stroke-width:1.49976;stroke-dasharray:none"
        id="rect666" width="274.37241" height="1.0000001" x="-2599.3596" y="534.06592" transform="scale(-1,1)" />
      <rect
        style="font-variation-settings:'wdth' 70,'wght' 600;display:inline;fill:#000;fill-opacity:1;stroke-width:1.49976;stroke-dasharray:none"
        id="rect667" width="274.37241" height="1.0000001" x="-2599.3596" y="505.00156" transform="scale(-1,1)" />
      <rect
        style="font-variation-settings:'wdth' 70,'wght' 600;display:inline;fill:#000;fill-opacity:1;stroke-width:1.49976;stroke-dasharray:none"
        id="rect668" width="274.37241" height="1.0000001" x="-2599.3596" y="475.93723" transform="scale(-1,1)" />
      <rect
        style="font-variation-settings:'wdth' 70,'wght' 600;display:inline;fill:#000;fill-opacity:1;stroke-width:1.49976;stroke-dasharray:none"
        id="rect669" width="274.37241" height="1.0000001" x="-2599.3596" y="446.87286" transform="scale(-1,1)" />
      <rect
        style="font-variation-settings:'wdth' 70,'wght' 600;display:inline;fill:#000;fill-opacity:1;stroke-width:1.49976;stroke-dasharray:none"
        id="rect670" width="274.37241" height="1.0000001" x="-2599.3596" y="417.8085" transform="scale(-1,1)" />
      <rect
        style="font-variation-settings:'wdth' 70,'wght' 600;display:inline;fill:#000;fill-opacity:1;stroke-width:1.49976;stroke-dasharray:none"
        id="rect671" width="274.37241" height="1.0000001" x="-2599.3596" y="388.74414" transform="scale(-1,1)" />
      <rect
        style="font-variation-settings:'wdth' 70,'wght' 600;display:inline;fill:#000;fill-opacity:1;stroke-width:1.49976;stroke-dasharray:none"
        id="rect672" width="274.37241" height="1.0000001" x="-2599.3596" y="359.67978" transform="scale(-1,1)" />
      <rect
        style="font-variation-settings:'wdth' 70,'wght' 600;display:inline;fill:#000;fill-opacity:1;stroke-width:1.49976;stroke-dasharray:none"
        id="rect673" width="274.37241" height="1.0000001" x="-2599.3596" y="330.61542" transform="scale(-1,1)" />
      <path
        style="font-variation-settings:'wdth' 70,'wght' 600;display:inline;opacity:1;fill:none;fill-opacity:1;stroke:#bec3c6;stroke-width:5;stroke-dasharray:none;stroke-opacity:1;marker-end:url(#Triangle)"
        d="M 2462.1733,317.08324 V 622.25891" id="path161" transform="translate(-4.1749921e-4,-8.386638e-5)" />
    </g>
    <g id="walls_0" transform="matrix(0.02439371,0,0,0.02439371,-0.02443957,244.19953)" style="display:inline">
      <path
        style="font-variation-settings:'wdth' 70,'wght' 600;fill:none;stroke:#bec3c6;stroke-width:55;stroke-linecap:butt;stroke-dasharray:none;stroke-opacity:1"
        d="M 2746.7802,-205.02502 C 2665.2875,-205.13333 2553.0213,-97.648566 2528,38.50014 H 976.99999 v 103.5 H 43 v 757.49997"
        id="path173" />
      <path
        style="font-variation-settings:'wdth' 70,'wght' 600;fill:none;stroke:#bec3c6;stroke-width:55;stroke-dasharray:none;stroke-opacity:1"
        d="M 5701,949.50012 V 142.00014 h -976.5 v -103.5 H 3167 c -28.9609,-139.18442 -144.55,-243.52516 -220.2198,-243.52516"
        id="path203" />
      <path
        style="font-variation-settings:'wdth' 70,'wght' 600;fill:none;stroke:#bec3c6;stroke-width:55;stroke-linecap:butt;stroke-dasharray:none;stroke-opacity:1"
        d="m 43,1099.5001 v 751.3138 h 5658 v -801.3138" id="path204" />
      <path
        style="font-variation-settings:'wdth' 70,'wght' 600;fill:none;stroke:#bec3c6;stroke-width:45;stroke-linecap:butt;stroke-dasharray:none;stroke-opacity:1"
        d="M 397.41757,1225.5 H 42.999995" id="path205" transform="translate(-1.3713269e-7,-399.99985)" />
      <path
        style="font-variation-settings:'wdth' 70,'wght' 600;fill:none;stroke:#bec3c6;stroke-width:45;stroke-linecap:butt;stroke-dasharray:none;stroke-opacity:1"
        d="M 1153.012,825.50015 H 597.4176" id="path206" />
      <path
        style="font-variation-settings:'wdth' 70,'wght' 600;fill:none;stroke:#bec3c6;stroke-width:45;stroke-linecap:butt;stroke-dasharray:none;stroke-opacity:1"
        d="M 2293.9549,1225.5 H 1253.012" id="path207" transform="translate(-1.3713269e-7,-399.99985)" />
      <path
        style="font-variation-settings:'wdth' 70,'wght' 600;fill:none;stroke:#bec3c6;stroke-width:45;stroke-linecap:butt;stroke-dasharray:none;stroke-opacity:1"
        d="m 2393.9549,825.50015 h 521.0802" id="path208" />
      <path
        style="font-variation-settings:'wdth' 70,'wght' 600;fill:none;stroke:#bec3c6;stroke-width:45;stroke-linecap:butt;stroke-dasharray:none;stroke-opacity:1"
        d="M 3316.6619,1225.5 H 3115.0351" id="path209" transform="translate(-1.3713269e-7,-399.99985)" />
      <path
        style="font-variation-settings:'wdth' 70,'wght' 600;fill:none;stroke:#bec3c6;stroke-width:45;stroke-linecap:butt;stroke-dasharray:none;stroke-opacity:1"
        d="M 4440.2548,825.50015 H 3416.6619" id="path210" />
      <path
        style="font-variation-settings:'wdth' 70,'wght' 600;fill:none;stroke:#bec3c6;stroke-width:45;stroke-linecap:butt;stroke-dasharray:none;stroke-opacity:1"
        d="M 5141.6039,825.50015 H 4540.2548" id="path211" />
      <path
        style="font-variation-settings:'wdth' 70,'wght' 600;fill:none;stroke:#bec3c6;stroke-width:45;stroke-linecap:butt;stroke-dasharray:none;stroke-opacity:1"
        d="M 5700.9993,1225.5 H 5567.3315" id="path212" transform="translate(-1.3713269e-7,-399.99985)" />
      <path
        style="font-variation-settings:'wdth' 70,'wght' 600;fill:none;stroke:#bec3c6;stroke-width:45;stroke-linecap:butt;stroke-dasharray:none;stroke-opacity:1"
        d="M 397.41757,1573.5 H 42.999995" id="path213" transform="translate(-1.3713269e-7,-399.99985)" />
      <path
        style="font-variation-settings:'wdth' 70,'wght' 600;fill:none;stroke:#bec3c6;stroke-width:45;stroke-linecap:butt;stroke-dasharray:none;stroke-opacity:1"
        d="M 1153.0119,1573.5 H 597.4176" id="path214" transform="translate(-1.3713269e-7,-399.99985)" />
      <path
        style="font-variation-settings:'wdth' 70,'wght' 600;fill:none;stroke:#bec3c6;stroke-width:45;stroke-linecap:butt;stroke-dasharray:none;stroke-opacity:1"
        d="M 2293.9549,1573.5 H 1253.012" id="path215" transform="translate(-1.3713269e-7,-399.99985)" />
      <path
        style="font-variation-settings:'wdth' 70,'wght' 600;fill:none;stroke:#bec3c6;stroke-width:45;stroke-linecap:butt;stroke-dasharray:none;stroke-opacity:1"
        d="M 3316.6619,1573.5 H 2747.2701" id="path216" transform="translate(-1.3713269e-7,-399.99985)" />
      <path
        style="font-variation-settings:'wdth' 70,'wght' 600;fill:none;stroke:#bec3c6;stroke-width:45;stroke-linecap:butt;stroke-dasharray:none;stroke-opacity:1"
        d="M 4440.2548,1573.5 H 3416.6619" id="path217" transform="translate(-1.3713269e-7,-399.99985)" />
      <path
        style="font-variation-settings:'wdth' 70,'wght' 600;fill:none;stroke:#bec3c6;stroke-width:45;stroke-linecap:butt;stroke-dasharray:none;stroke-opacity:1"
        d="M 4830.7283,1573.5 H 4540.2548" id="path218" transform="translate(-1.3713269e-7,-399.99985)" />
      <path
        style="font-variation-settings:'wdth' 70,'wght' 600;fill:none;stroke:#bec3c6;stroke-width:45;stroke-linecap:butt;stroke-dasharray:none;stroke-opacity:1"
        d="M 5496.3806,1573.5 H 5341.7689" id="path219" transform="translate(-1.3713269e-7,-399.99985)" />
      <path
        style="font-variation-settings:'wdth' 70,'wght' 600;fill:none;stroke:#bec3c6;stroke-width:45;stroke-linecap:butt;stroke-dasharray:none;stroke-opacity:1"
        d="M 5701,1573.5 H 5596.3806" id="path220" transform="translate(-1.3713269e-7,-399.99985)" />
      <path
        style="font-variation-settings:'wdth' 70,'wght' 600;fill:none;stroke:#bec3c6;stroke-width:45;stroke-linecap:butt;stroke-dasharray:none;stroke-opacity:1"
        d="m 5241.7689,1573.5 h -82.7693" id="path221" transform="translate(-1.3713269e-7,-399.99985)" />
      <path
        style="font-variation-settings:'wdth' 70,'wght' 600;fill:none;stroke:#bec3c6;stroke-width:45;stroke-linecap:butt;stroke-dasharray:none;stroke-opacity:1"
        d="M 5058.9996,1573.5 H 4930.7283" id="path222" transform="translate(-1.3713269e-7,-399.99985)" />
      <path
        style="font-variation-settings:'wdth' 70,'wght' 600;fill:none;stroke:#bec3c6;stroke-width:45;stroke-linecap:butt;stroke-dasharray:none;stroke-opacity:1"
        d="M 2647.2701,1573.5 H 2393.9549" id="path223" transform="translate(-1.3713269e-7,-399.99985)" />
      <path
        style="font-variation-settings:'wdth' 70,'wght' 600;fill:none;stroke:#bec3c6;stroke-width:45;stroke-linecap:butt;stroke-dasharray:none;stroke-opacity:1"
        d="m 6284.9621,1573.5 h -151.601" id="path224" transform="translate(-1.3713269e-7,-399.99985)" />
      <path
        style="font-variation-settings:'wdth' 70,'wght' 600;fill:none;stroke:#bec3c6;stroke-width:45;stroke-linecap:butt;stroke-dasharray:none;stroke-opacity:1"
        d="m 6741.8071,1173.5001 h -128.125" id="path225" />
      <path
        style="font-variation-settings:'wdth' 70,'wght' 600;fill:none;stroke:#bec3c6;stroke-width:35;stroke-linecap:butt;stroke-dasharray:none;stroke-opacity:1"
        d="M 986.99966,146.00014 V 825.50015" id="path227" />
      <path
        style="font-variation-settings:'wdth' 70,'wght' 600;fill:none;stroke:#bec3c6;stroke-width:35;stroke-linecap:butt;stroke-dasharray:none;stroke-opacity:1"
        d="M 4714.5041,142.00015 V 821.50016" id="path228" />
      <path
        style="font-variation-settings:'wdth' 70,'wght' 600;fill:none;stroke:#bec3c6;stroke-width:35;stroke-linecap:butt;stroke-dasharray:none;stroke-opacity:1"
        d="m 986.19107,1420.0985 v 432.9017" id="path229" />
      <path
        style="font-variation-settings:'wdth' 70,'wght' 600;fill:none;stroke:#bec3c6;stroke-width:35;stroke-linecap:butt;stroke-dasharray:none;stroke-opacity:1"
        d="m 1924.2843,1396.0985 v 456.9017" id="path230" />
      <path
        style="font-variation-settings:'wdth' 70,'wght' 600;fill:none;stroke:#bec3c6;stroke-width:35;stroke-linecap:butt;stroke-dasharray:none;stroke-opacity:1"
        d="m 2847.7802,1171.3138 v 679.5001" id="path231" />
      <path
        style="font-variation-settings:'wdth' 70,'wght' 600;fill:none;stroke:#bec3c6;stroke-width:35;stroke-linecap:butt;stroke-dasharray:none;stroke-opacity:1"
        d="m 3777.1213,1173.5001 v 679.5001" id="path232" />
      <path
        style="font-variation-settings:'wdth' 70,'wght' 600;fill:none;stroke:#bec3c6;stroke-width:35;stroke-linecap:butt;stroke-dasharray:none;stroke-opacity:1"
        d="m 4716.8663,1173.5001 v 679.5001" id="path233" />
      <path
        style="font-variation-settings:'wdth' 70,'wght' 600;fill:none;stroke:#bec3c6;stroke-width:35;stroke-linecap:butt;stroke-dasharray:none;stroke-opacity:1"
        d="m 6179.0008,1341.118 v 282.8822 h 562.8063 V 825.50015 H 6185.0008 V 1241.118" id="path235" />
      <path
        style="font-variation-settings:'wdth' 70,'wght' 600;fill:none;stroke:#bec3c6;stroke-width:35;stroke-linecap:butt;stroke-dasharray:none;stroke-opacity:1"
        d="m 6488.8071,1173.5001 v 113.5798" id="path236" />
      <path
        style="font-variation-settings:'wdth' 70,'wght' 600;fill:none;stroke:#bec3c6;stroke-width:10;stroke-linecap:butt;stroke-dasharray:none;stroke-opacity:1"
        d="m 2519.4057,1173.5001 v 292.5 h 333" id="path237" />
      <path
        style="font-variation-settings:'wdth' 70,'wght' 600;fill:none;stroke:#bec3c6;stroke-width:10;stroke-linecap:butt;stroke-dasharray:none;stroke-opacity:1"
        d="m 2624.9057,1173.5002 v 292.4999" id="path238" />
      <path
        style="font-variation-settings:'wdth' 70,'wght' 600;fill:none;stroke:#bec3c6;stroke-width:10;stroke-linecap:butt;stroke-dasharray:none;stroke-opacity:1"
        d="m 2519.4057,1466.0001 v 233.1278" id="path239" />
      <path
        style="font-variation-settings:'wdth' 70,'wght' 600;fill:none;stroke:#bec3c6;stroke-width:10;stroke-linecap:butt;stroke-dasharray:none;stroke-opacity:1"
        d="m 2519.4057,1799.1279 v 51.686" id="path240" />
      <path
        style="font-variation-settings:'wdth' 70,'wght' 600;fill:none;stroke:#bec3c6;stroke-width:45;stroke-linecap:butt;stroke-dasharray:none;stroke-opacity:1"
        d="M 2528.4081,40.500034 V 825.50015" id="path242" />
      <path
        style="font-variation-settings:'wdth' 70,'wght' 600;fill:none;stroke:#bec3c6;stroke-width:45;stroke-linecap:butt;stroke-dasharray:none;stroke-opacity:1"
        d="M 3167.1524,40.500034 V 825.50015" id="path244" />
      <path
        style="font-variation-settings:'wdth' 70,'wght' 600;fill:none;stroke:#bec3c6;stroke-width:10;stroke-linecap:butt;stroke-dasharray:none;stroke-opacity:1"
        d="m 5052.3512,1457.3359 h -53.4935 v -283.8357" id="path245" />
      <path
        style="font-variation-settings:'wdth' 70,'wght' 600;fill:none;stroke:#bec3c6;stroke-width:10;stroke-linecap:butt;stroke-dasharray:none;stroke-opacity:1"
        d="M 5545.212,1457.3359 H 5152.3512" id="path246" />
      <path
        style="font-variation-settings:'wdth' 70,'wght' 600;fill:none;stroke:#bec3c6;stroke-width:10;stroke-linecap:butt;stroke-dasharray:none;stroke-opacity:1"
        d="m 5690,1457.3359 h -44.788" id="path247" />
      <path
        style="font-variation-settings:'wdth' 70,'wght' 600;fill:none;stroke:#bec3c6;stroke-width:10;stroke-linecap:butt;stroke-dasharray:none;stroke-opacity:1"
        d="M 5191.1039,1457.3359 V 1173.5002" id="path248" />
      <path
        style="font-variation-settings:'wdth' 70,'wght' 600;fill:none;stroke:#bec3c6;stroke-width:10;stroke-linecap:butt;stroke-dasharray:none;stroke-opacity:1"
        d="M 5453.7941,1457.3359 V 1173.5002" id="path249" />
      <path
        style="font-variation-settings:'wdth' 70,'wght' 600;fill:none;stroke:#bec3c6;stroke-width:10;stroke-linecap:butt;stroke-dasharray:none;stroke-opacity:1"
        d="m 5341.0618,1850.8139 v -393.478" id="path250" />
      <path
        style="font-variation-settings:'wdth' 70,'wght' 600;fill:none;stroke:#bec3c6;stroke-width:10;stroke-linecap:butt;stroke-dasharray:none;stroke-opacity:1"
        d="m 5341.0618,1850.8139 v -393.478" id="path251" />
      <path
        style="font-variation-settings:'wdth' 70,'wght' 600;fill:none;stroke:#bec3c6;stroke-width:10;stroke-linecap:butt;stroke-dasharray:none;stroke-opacity:1"
        d="m 5025.6045,1850.8139 v -393.478" id="path252" />
      <path
        style="font-variation-settings:'wdth' 70,'wght' 600;fill:none;stroke:#bec3c6;stroke-width:45;stroke-linecap:butt;stroke-dasharray:none;stroke-opacity:1"
        d="M 2847.7802,642.46648 V 154.77078 H 2528.4085" id="path256" />
      <rect
        style="font-variation-settings:'wdth' 70,'wght' 600;fill:#bec3c6;fill-opacity:1;stroke:none;stroke-width:0;stroke-linecap:butt;stroke-dasharray:none;stroke-opacity:1"
        id="rect259" width="105.50003" height="292.49976" x="2519.4058" y="1173.5002" />
      <path
        style="font-variation-settings:'wdth' 70,'wght' 600;fill:none;stroke:#bec3c6;stroke-width:35;stroke-linecap:butt;stroke-dasharray:none;stroke-opacity:1"
        d="m 1924.2843,1173.5002 v 122.5983" id="path266" />
      <path
        style="font-variation-settings:'wdth' 70,'wght' 600;fill:none;stroke:#bec3c6;stroke-width:35;stroke-linecap:butt;stroke-dasharray:none;stroke-opacity:1"
        d="m 986.19107,1173.5002 v 46.5983" id="path267" />
      <path
        style="font-variation-settings:'wdth' 70,'wght' 600;fill:none;stroke:#bec3c6;stroke-width:45;stroke-linecap:butt;stroke-dasharray:none;stroke-opacity:1"
        d="M 5467.3315,825.50015 H 5241.6039" id="path268" />
      <path
        style="font-variation-settings:'wdth' 70,'wght' 600;fill:none;stroke:#bec3c6;stroke-width:45;stroke-linecap:butt;stroke-dasharray:none;stroke-opacity:1"
        d="m 6536.5631,1173.5001 h -151.601" id="path269" />
      <path
        style="font-variation-settings:'wdth' 70,'wght' 600;fill:none;stroke:#bec3c6;stroke-width:35;stroke-linecap:butt;stroke-dasharray:none;stroke-opacity:1"
        d="m 6488.8071,1387.0799 v 236.9203" id="path270" />
      <path
        style="font-variation-settings:'wdth' 70,'wght' 600;fill:none;stroke:#bec3c6;stroke-width:10;stroke-linecap:butt;stroke-dasharray:none;stroke-opacity:1"
        d="M 5354.4677,825.50015 V 347.91857" id="path271" />
      <path
        style="font-variation-settings:'wdth' 70,'wght' 600;fill:none;stroke:#bec3c6;stroke-width:10;stroke-linecap:butt;stroke-dasharray:none;stroke-opacity:1"
        d="M 5354.4677,247.91856 V 142.00014" id="path272" />
      <path
        style="font-variation-settings:'wdth' 70,'wght' 600;fill:none;stroke:#bec3c6;stroke-width:10;stroke-linecap:butt;stroke-dasharray:none;stroke-opacity:1"
        d="M 5701,618.00005 H 5574.3762" id="path273" />
      <path
        style="font-variation-settings:'wdth' 70,'wght' 600;fill:none;stroke:#bec3c6;stroke-width:10;stroke-linecap:butt;stroke-dasharray:none;stroke-opacity:1"
        d="M 5474.3762,618.00005 H 5354.4677" id="path274" />
      <path
        style="font-variation-settings:'wdth' 70,'wght' 600;fill:none;stroke:#bec3c6;stroke-width:45;stroke-linecap:butt;stroke-dasharray:none;stroke-opacity:1"
        d="m 2847.7802,742.46649 v 83.03366" id="path275" />
    </g>
    <g id="icons_0" transform="matrix(0.02439371,0,0,0.02439371,-0.02443957,244.19953)" style="display:inline">
      <path
        d="m 5498.731,1690.325 v -31.8652 h -10.1036 v -32.2539 q 0,-3.5622 2.5583,-6.1205 2.5583,-2.5583 6.1205,-2.5583 h 19.9482 q 3.5621,0 6.1204,2.5583 2.5583,2.5583 2.5583,6.1205 v 32.2539 h -10.1036 v 31.8652 z m 8.5596,-82.6425 q -3.6891,0 -6.1891,-2.5544 -2.5,-2.5545 -2.5,-6.1139 0,-3.6892 2.4896,-6.1892 2.4899,-2.5 6.1788,-2.5 3.6891,0 6.1891,2.4897 2.5,2.4897 2.5,6.1787 0,3.5596 -2.4896,6.1244 -2.4897,2.5647 -6.1788,2.5647 z"
        id="path260" style="fill:#fff;fill-opacity:.798742;stroke-width:.129534;filter:url(#filter17)" />
      <path
        d="m 5174.1563,1690.325 v -30.0518 h -14.7668 l 14.2098,-39.4458 q 1.121,-2.8983 3.8366,-4.5889 2.7155,-1.6907 5.7878,-1.6907 3.0723,0 5.7878,1.6907 2.7156,1.6906 3.8542,4.5779 l 14.1922,39.4568 h -14.7668 v 30.0518 z m 9.0778,-82.6424 q -3.6892,0 -6.1892,-2.5504 -2.5,-2.5504 -2.5,-6.118 0,-3.6892 2.4897,-6.1892 2.4899,-2.5 6.1787,-2.5 3.6892,0 6.1892,2.4897 2.5,2.4897 2.5,6.114 0,3.6243 -2.4897,6.1891 -2.4896,2.5648 -6.1787,2.5648 z"
        id="path261" style="fill:#fff;fill-opacity:.803459;stroke-width:.129534;filter:url(#filter15)" />
      <g id="g264" style="filter:url(#filter65)" transform="translate(279.7331,292.3392)">
        <rect
          style="font-variation-settings:'wdth' 70,'wght' 600;fill:none;fill-opacity:1;stroke:#d6d7de;stroke-width:4.78791;stroke-linejoin:miter;stroke-dasharray:none;stroke-opacity:1"
          id="rect263" width="95.212135" height="95.212151" x="2405.0667" y="979.80487" ry="9.1410179" />
        <path
          d="m 2427.7505,1062.6135 h 12.6169 v -23.8318 h 6.2306 v -17.757 c 0,-2.6337 -0.8992,-4.8497 -2.6976,-6.6481 -1.7985,-1.7985 -4.0665,-2.6977 -6.804,-2.6977 h -6.2306 c -2.7375,0 -4.9794,0.8992 -6.7258,2.6977 -1.7466,1.7984 -2.6199,4.0144 -2.6199,6.6481 v 17.757 h 6.2304 z m 6.1958,-54.9845 c 2.1478,0 3.9626,-0.7033 5.4445,-2.1098 1.4819,-1.4064 2.2228,-3.2356 2.2228,-5.4875 0,-2.148 -0.7292,-3.93697 -2.1877,-5.3669 -1.4583,-1.42987 -3.2615,-2.1448 -5.4096,-2.1448 -2.1481,0 -3.937,0.70327 -5.3669,2.1098 -1.4299,1.4064 -2.1449,3.18367 -2.1449,5.3318 0,2.2518 0.7033,4.0926 2.11,5.5225 1.4064,1.4299 3.1837,2.1449 5.3318,2.1449 z m 28.3838,9.9689 h 20.0934 l -9.9688,-16.1994 z m 10.1246,35.6697 9.9688,-16.1993 h -20.0934 z"
          id="path264" style="fill:#d5d6dd;fill-opacity:1;stroke-width:0;stroke-dasharray:none" />
      </g>
    </g>
    <path id="roomNames_0"
      d="m 357.46869,87.866644 q -6.528,0 -10.56,-5.44 -3.968,-5.44 -3.968,-15.808 0,-10.432 3.968,-15.68 4.032,-5.248 10.56,-5.248 6.528,0 10.496,5.312 4.032,5.248 4.032,15.616 0,10.368 -4.032,15.808 -3.968,5.44 -10.496,5.44 z m 0,-7.296 q 1.6,0 2.88,-1.152 1.28,-1.216 1.984,-4.224 0.768,-3.072 0.768,-8.576 0,-5.568 -0.768,-8.512 -0.704,-2.944 -1.984,-4.032 -1.28,-1.088 -2.88,-1.088 -1.6,0 -2.88,1.088 -1.28,1.088 -2.048,4.032 -0.704,2.944 -0.704,8.512 0,5.504 0.704,8.576 0.768,3.008 2.048,4.224 1.28,1.152 2.88,1.152 z m 21.376,6.528 v -7.616 h 8.832 v -23.488 h -7.616 v -5.824 q 3.328,-0.64 5.632,-1.536 2.368,-0.896 4.48,-2.176 h 6.912 v 33.024 h 7.616 v 7.616 z m 46.20799,0.768 q -6.528,0 -10.56,-5.44 -3.968,-5.44 -3.968,-15.808 0,-10.432 3.968,-15.68 4.032,-5.248 10.56,-5.248 6.528,0 10.496,5.312 4.032,5.248 4.032,15.616 0,10.368 -4.032,15.808 -3.968,5.44 -10.496,5.44 z m 0,-7.296 q 1.6,0 2.88,-1.152 1.28,-1.216 1.984,-4.224 0.768,-3.072 0.768,-8.576 0,-5.568 -0.768,-8.512 -0.704,-2.944 -1.984,-4.032 -1.28,-1.088 -2.88,-1.088 -1.6,0 -2.88,1.088 -1.28,1.088 -2.048,4.032 -0.704,2.944 -0.704,8.512 0,5.504 0.704,8.576 0.768,3.008 2.048,4.224 1.28,1.152 2.88,1.152 z m 17.66399,15.488 v -5.312 h 30.464 v 5.312 z m 30.848,-8.96 13.056,-41.728 h 11.264 l 13.12,41.728 h -9.984 l -5.44,-21.12 q -0.896,-3.136 -1.728,-6.656 -0.832,-3.52 -1.664,-6.784 h -0.256 q -0.704,3.264 -1.536,6.784 -0.832,3.52 -1.728,6.656 l -5.504,21.12 z m 8.576,-9.92 v -7.36 h 20.096 v 7.36 z M 407.26063,7.8666438 q -5.696,0 -10.368,-2.368 -4.608,-2.432 -7.36,-7.168 -2.688,-4.8 -2.688,-11.8399998 0,-5.184 1.6,-9.216 1.6,-4.096 4.416,-6.912 2.816,-2.816 6.464,-4.288 3.712,-1.472 7.872,-1.472 4.544,0 7.808,1.6 3.264,1.6 5.312,3.84 l -4.928,5.696 q -1.536,-1.408 -3.392,-2.176 -1.792,-0.832 -4.48,-0.832 -3.2,0 -5.696,1.664 -2.496,1.6 -3.904,4.608 -1.408,3.008 -1.408,7.168 0,4.2879998 1.28,7.3599998 1.344,3.008 3.904,4.608 2.624,1.59999999 6.528,1.59999999 1.28,0 2.496,-0.32 1.216,-0.32 1.984,-0.95999999 v -7.168 h -6.912 v -7.6799998 h 15.232 V 2.8106438 q -2.112,2.112 -5.76,3.584 -3.584,1.472 -8,1.472 z m 38.84804,0 q -4.096,0 -7.232,-1.088 -3.072,-1.152 -5.184,-3.52 -2.112,-2.43200001 -3.2,-6.144 -1.088,-3.712 -1.088,-8.8319998 v -22.912 h 9.472 v 23.872 q 0,3.9039998 0.832,6.2079998 0.832,2.24 2.432,3.264 1.6,1.02399999 3.968,1.02399999 2.304,0 3.968,-1.02399999 1.664,-1.024 2.496,-3.264 0.896,-2.304 0.896,-6.2079998 v -23.872 h 9.088 v 22.912 q 0,5.1199998 -1.088,8.8319998 -1.024,3.71199999 -3.136,6.144 -2.048,2.368 -5.12,3.52 -3.072,1.088 -7.104,1.088 z M -1833.0945,-945.68053 q -19.584,0 -31.68,-16.32 -11.904,-16.32 -11.904,-47.42397 0,-31.296 11.904,-47.04 12.096,-15.744 31.68,-15.744 19.584,0 31.488,15.936 12.096,15.744 12.096,46.848 0,31.10397 -12.096,47.42397 -11.904,16.32 -31.488,16.32 z m 0,-21.888 q 4.8,0 8.64,-3.456 3.84,-3.648 5.952,-12.672 2.304,-9.216 2.304,-25.72797 0,-16.704 -2.304,-25.536 -2.112,-8.832 -5.952,-12.096 -3.84,-3.264 -8.64,-3.264 -4.8,0 -8.64,3.264 -3.84,3.264 -6.144,12.096 -2.112,8.832 -2.112,25.536 0,16.51197 2.112,25.72797 2.304,9.024 6.144,12.672 3.84,3.456 8.64,3.456 z m 64.128,19.584 v -22.848 h 26.496 v -70.46397 h -22.848 v -17.472 q 9.984,-1.92 16.896,-4.608 7.104,-2.688 13.44,-6.528 h 20.736 v 99.07197 h 22.848 v 22.848 z m 134.592,2.304 q -9.792,0 -17.856,-2.304 -7.872,-2.112 -14.016,-5.952 -6.144,-3.84 -10.56,-9.024 l 13.056,-17.856 q 5.568,5.376 12.288,8.832 6.72,3.456 14.4,3.456 8.832,0 14.208,-3.648 5.568,-3.84 5.568,-10.752 0,-5.376 -2.688,-9.216 -2.688,-4.032 -9.792,-6.144 -6.912,-2.11197 -20.352,-2.11197 v -19.968 q 10.944,0 17.28,-2.112 6.336,-2.112 8.832,-5.76 2.688,-3.648 2.688,-8.448 0,-6.528 -4.032,-9.984 -3.84,-3.456 -10.944,-3.456 -6.528,0 -11.904,2.88 -5.184,2.688 -10.944,7.872 l -14.208,-17.28 q 8.448,-7.296 17.856,-11.328 9.408,-4.224 20.544,-4.224 12.48,0 21.888,4.032 9.6,3.84 14.784,11.328 5.376,7.296 5.376,18.048 0,9.408 -5.376,16.128 -5.184,6.72 -14.976,10.944 v 0.768 q 6.912,2.112 12.48,6.144 5.568,3.84 8.64,9.79197 3.072,5.952 3.072,13.824 0,11.328 -6.336,19.392 -6.144,7.872 -16.512,12.096 -10.176,4.032 -22.464,4.032 z m -152.3521,-239.99997 q -17.088,0 -31.104,-7.104 -13.824,-7.296 -22.08,-21.504 -8.064,-14.4 -8.064,-35.52 0,-15.552 4.8,-27.648 4.8,-12.288 13.248,-20.736 8.448,-8.448 19.392,-12.864 11.136,-4.416 23.616,-4.416 13.632,0 23.424,4.8 9.792,4.8 15.936,11.52 l -14.784,17.088 q -4.608,-4.224 -10.176,-6.528 -5.376,-2.496 -13.44,-2.496 -9.6,0 -17.088,4.992 -7.488,4.8 -11.712,13.824 -4.224,9.024 -4.224,21.504 0,12.864 3.84,22.08 4.032,9.024 11.712,13.824 7.872,4.8 19.584,4.8 3.84,0 7.488,-0.96 3.648,-0.96 5.952,-2.88 v -21.504 h -20.736 v -23.04 h 45.696 v 57.6 q -6.336,6.336 -17.28,10.752 -10.752,4.416 -24,4.416 z m 116.5441,0 q -12.288,0 -21.696,-3.264 -9.216,-3.456 -15.552,-10.56 -6.336,-7.296 -9.6,-18.432 -3.264,-11.136 -3.264,-26.496 v -68.736 h 28.416 v 71.616 q 0,11.712 2.496,18.624 2.496,6.72 7.296,9.792 4.8,3.072 11.904,3.072 6.912,0 11.904,-3.072 4.992,-3.072 7.488,-9.792 2.688,-6.912 2.688,-18.624 v -71.616 h 27.264 v 68.736 q 0,15.36 -3.264,26.496 -3.072,11.136 -9.408,18.432 -6.144,7.104 -15.36,10.56 -9.216,3.264 -21.312,3.264 z M -1833.9787,83.81944 q -19.584,0 -31.68,-16.32 -11.904,-16.32 -11.904,-47.424 0,-31.296 11.904,-47.04 12.096,-15.744 31.68,-15.744 19.5839,0 31.4879,15.936 12.096,15.744 12.096,46.848 0,31.104 -12.096,47.424 -11.904,16.32 -31.4879,16.32 z m 0,-21.888 q 4.8,0 8.64,-3.456 3.84,-3.648 5.952,-12.672 2.304,-9.216 2.304,-25.728 0,-16.704 -2.304,-25.536 -2.112,-8.832 -5.952,-12.096 -3.84,-3.264 -8.64,-3.264 -4.8001,0 -8.64,3.264 -3.84,3.264 -6.144,12.096 -2.1121,8.832 -2.1121,25.536 0,16.512 2.1121,25.728 2.304,9.024 6.144,12.672 3.8399,3.456 8.64,3.456 z m 64.1279,19.584 v -22.848 h 26.496 v -70.464 h -22.848 v -17.472 q 9.984,-1.92 16.896,-4.608 7.104,-2.688 13.44,-6.528 h 20.736 v 99.072 h 22.848 v 22.848 z m 95.04,0 v -17.472 q 15.36,-13.632 27.264,-25.536 12.096,-11.904 18.816,-22.08 6.912,-10.176 6.912,-18.624 0,-9.024 -4.608,-13.632 -4.608,-4.8 -12.672,-4.8 -6.528,0 -11.904,3.84 -5.184,3.648 -9.792,8.64 l -14.784,-14.592 q 8.832,-9.984 18.048,-14.976 9.408,-4.992 22.272,-4.992 11.904,0 20.928,4.8 9.216,4.8 14.208,13.44 5.184,8.64 5.184,20.352 0,10.944 -5.952,21.504 -5.76,10.368 -15.36,20.736 -9.6,10.368 -20.352,21.12 4.608,-0.576 10.368,-0.96 5.76,-0.576 9.984,-0.576 h 27.264 v 23.808 z m -112.8001,-237.696 q -17.088,0 -31.104,-7.104 -13.824,-7.296 -22.08,-21.504 -8.064,-14.4 -8.064,-35.52 0,-15.552 4.8,-27.648 4.8,-12.288 13.248,-20.736 8.448,-8.448 19.392,-12.864 11.136,-4.416 23.616,-4.416 13.632,0 23.424,4.8 9.792,4.8 15.936,11.52 l -14.784,17.088 q -4.608,-4.224 -10.176,-6.528 -5.376,-2.496 -13.44,-2.496 -9.6,0 -17.088,4.992 -7.488,4.8 -11.712,13.824 -4.224,9.024 -4.224,21.504 0,12.864 3.84,22.08 4.032,9.024 11.712,13.824 7.872,4.8 19.584,4.8 3.84,0 7.488,-0.96 3.648,-0.96 5.952,-2.88 v -21.504 h -20.736 v -23.04 h 45.696 v 57.6 q -6.336,6.336 -17.28,10.752 -10.752,4.416 -24,4.416 z m 116.5441,0 q -12.288,0 -21.696,-3.264 -9.216,-3.456 -15.552,-10.56 -6.336,-7.296 -9.6,-18.432 -3.264,-11.136 -3.264,-26.496 v -68.736 h 28.416 v 71.616 q 0,11.712 2.496,18.624 2.496,6.72 7.296,9.792 4.8,3.072 11.904,3.072 6.912,0 11.904,-3.072 4.992,-3.072 7.488,-9.792 2.688,-6.912 2.688,-18.624 v -71.616 h 27.264 v 68.736 q 0,15.36 -3.264,26.496 -3.072,11.136 -9.408,18.432 -6.144,7.104 -15.36,10.56 -9.216,3.264 -21.312,3.264 z m 778.69021,240 q -19.584,0 -31.68,-16.32 -11.904,-16.32 -11.904,-47.424 0,-31.296 11.904,-47.04 12.096,-15.744 31.68,-15.744 19.584,0 31.488,15.936 12.096,15.744 12.096,46.848 0,31.104 -12.096,47.424 -11.904,16.32 -31.488,16.32 z m 0,-21.888 q 4.8,0 8.64,-3.456 3.84,-3.648 5.952,-12.672 2.304,-9.216 2.304,-25.728 0,-16.704 -2.304,-25.536 -2.112,-8.832 -5.952,-12.096 -3.84,-3.264 -8.64,-3.264 -4.8,0 -8.64,3.264 -3.84,3.264 -6.144,12.096 -2.112,8.832 -2.112,25.536 0,16.512 2.112,25.728 2.304,9.024 6.144,12.672 3.84,3.456 8.64,3.456 z m 64.12798,19.584 v -22.848 h 26.496 v -70.464 h -22.848 v -17.472 q 9.984,-1.92 16.896,-4.608 7.104,-2.688 13.44,-6.528 h 20.736 v 99.072 h 22.848 v 22.848 z m 101.37598,0 v -22.848 h 26.496 v -70.464 h -22.848 v -17.472 q 9.984,-1.92 16.896,-4.608 7.104,-2.688 13.44,-6.528 h 20.736 v 99.072 h 22.848 v 22.848 z m -119.13613,-237.696 q -17.088,0 -31.104,-7.104 -13.824,-7.296 -22.08,-21.504 -8.064,-14.4 -8.064,-35.52 0,-15.552 4.8,-27.648 4.8,-12.288 13.248,-20.736 8.448,-8.448 19.392,-12.864 11.136,-4.416 23.616,-4.416 13.632,0 23.424,4.8 9.792,4.8 15.936,11.52 l -14.784,17.088 q -4.608,-4.224 -10.176,-6.528 -5.376,-2.496 -13.44,-2.496 -9.6,0 -17.088,4.992 -7.488,4.8 -11.712,13.824 -4.224,9.024 -4.224,21.504 0,12.864 3.84,22.08 4.032,9.024 11.712,13.824 7.872,4.8 19.584,4.8 3.84,0 7.488,-0.96 3.648,-0.96 5.952,-2.88 v -21.504 h -20.736 v -23.04 h 45.696 v 57.6 q -6.336,6.336 -17.28,10.752 -10.752,4.416 -24,4.416 z m 116.5441,0 q -12.288,0 -21.696,-3.264 -9.216,-3.456 -15.552,-10.56 -6.336,-7.296 -9.6,-18.432 -3.264,-11.136 -3.264,-26.496 v -68.736 h 28.416 v 71.616 q 0,11.712 2.496,18.624 2.496,6.72 7.296,9.792 4.8,3.072 11.904,3.072 6.912,0 11.904,-3.072 4.992,-3.072 7.488,-9.792 2.688,-6.912 2.688,-18.624 v -71.616 h 27.264 v 68.736 q 0,15.36 -3.264,26.496 -3.072,11.136 -9.408,18.432 -6.144,7.104 -15.36,10.56 -9.216,3.264 -21.312,3.264 z m 602.06347,240.00003 q -19.584,0 -31.68,-16.32 -11.904,-16.32 -11.904,-47.424 0,-31.296 11.904,-47.04 12.096,-15.744 31.68,-15.744 19.584,0 31.488,15.936 12.096,15.744 12.096,46.848 0,31.104 -12.096,47.424 -11.904,16.32 -31.488,16.32 z m 0,-21.888 q 4.8,0 8.64,-3.456 3.84,-3.648 5.952,-12.672 2.304,-9.216 2.304,-25.728 0,-16.704 -2.304,-25.536 -2.112,-8.832 -5.952,-12.096 -3.84,-3.264 -8.64,-3.264 -4.8,0 -8.64,3.264 -3.84,3.264 -6.144,12.096 -2.112,8.832 -2.112,25.536 0,16.512 2.112,25.728 2.304,9.024 6.144,12.672 3.84,3.456 8.64,3.456 z m 64.12798,19.584 v -22.848 h 26.496 v -70.464 h -22.848 v -17.472 q 9.984,-1.92 16.896,-4.608 7.104,-2.688 13.44,-6.528 h 20.736 v 99.072 h 22.848 v 22.848 z m 138.62398,2.304 q -19.584,0 -31.68,-16.32 -11.904,-16.32 -11.904,-47.424 0,-31.296 11.904,-47.04 12.096,-15.744 31.68,-15.744 19.584,0 31.488,15.936 12.096,15.744 12.096,46.848 0,31.104 -12.096,47.424 -11.904,16.32 -31.488,16.32 z m 0,-21.888 q 4.8,0 8.64,-3.456 3.84,-3.648 5.952,-12.672 2.304,-9.216 2.304,-25.728 0,-16.704 -2.304,-25.536 -2.112,-8.832 -5.952,-12.096 -3.84,-3.264 -8.64,-3.264 -4.8,0 -8.64,3.264 -3.84,3.264 -6.144,12.096 -2.112,8.832 -2.112,25.536 0,16.512 2.112,25.728 2.304,9.024 6.144,12.672 3.84,3.456 8.64,3.456 z m -156.38413,-218.112 q -17.088,0 -31.104,-7.104 -13.824,-7.296 -22.08,-21.504 -8.064,-14.4 -8.064,-35.52 0,-15.552 4.8,-27.648 4.8,-12.288 13.248,-20.736 8.448,-8.448 19.392,-12.864 11.136,-4.416 23.616,-4.416 13.632,0 23.424,4.8 9.792,4.8 15.936,11.52 l -14.784,17.088 q -4.608,-4.224 -10.176,-6.528 -5.376,-2.496 -13.44,-2.496 -9.6,0 -17.088,4.992 -7.488,4.8 -11.712,13.824 -4.224,9.024 -4.224,21.504 0,12.864 3.84,22.08 4.032,9.024 11.712,13.824 7.872,4.8 19.584,4.8 3.84,0 7.488,-0.96 3.648,-0.96 5.952,-2.88 v -21.504 h -20.736 v -23.04 h 45.696 v 57.6 q -6.336,6.336 -17.28,10.752 -10.752,4.416 -24,4.416 z m 116.5441,0 q -12.288,0 -21.696,-3.264 -9.216,-3.456 -15.552,-10.56 -6.336,-7.296 -9.6,-18.432 -3.264,-11.136 -3.264,-26.496 v -68.736 h 28.416 v 71.616 q 0,11.712 2.496,18.624 2.496,6.72 7.296,9.792 4.8,3.072 11.904,3.072 6.912,0 11.904,-3.072 4.992,-3.072 7.488,-9.792 2.688,-6.912 2.688,-18.624 v -71.616 h 27.264 v 68.736 q 0,15.36 -3.264,26.496 -3.072,11.136 -9.408,18.432 -6.144,7.104 -15.36,10.56 -9.216,3.264 -21.312,3.264 z M 963.68461,82.7263 q -19.584,0 -31.68,-16.32 -11.904,-16.32 -11.904,-47.424 0,-31.296 11.904,-47.04 12.096,-15.744 31.68,-15.744 19.584,0 31.488,15.936 12.09599,15.744 12.09599,46.848 0,31.104 -12.09599,47.424 -11.904,16.32 -31.488,16.32 z m 0,-21.888 q 4.8,0 8.64,-3.456 3.84,-3.648 5.952,-12.672 2.304,-9.216 2.304,-25.728 0,-16.704 -2.304,-25.536 -2.112,-8.832 -5.952,-12.096 -3.84,-3.264 -8.64,-3.264 -4.8,0 -8.64,3.264 -3.84,3.264 -6.144,12.096 -2.112,8.832 -2.112,25.536 0,16.512 2.112,25.728 2.304,9.024 6.144,12.672 3.84,3.456 8.64,3.456 z m 101.37599,21.888 q -19.584,0 -31.68,-16.32 -11.904,-16.32 -11.904,-47.424 0,-31.296 11.904,-47.04 12.096,-15.744 31.68,-15.744 19.584,0 31.488,15.936 12.096,15.744 12.096,46.848 0,31.104 -12.096,47.424 -11.904,16.32 -31.488,16.32 z m 0,-21.888 q 4.8,0 8.64,-3.456 3.84,-3.648 5.952,-12.672 2.304,-9.216 2.304,-25.728 0,-16.704 -2.304,-25.536 -2.112,-8.832 -5.952,-12.096 -3.84,-3.264 -8.64,-3.264 -4.8,0 -8.64,3.264 -3.84,3.264 -6.144,12.096 -2.112,8.832 -2.112,25.536 0,16.512 2.112,25.728 2.304,9.024 6.144,12.672 3.84,3.456 8.64,3.456 z m 94.656,21.888 q -12.096,0 -20.928,-4.416 -8.832,-4.416 -14.784,-10.176 l 14.976,-16.896 q 3.072,3.456 8.256,6.144 5.376,2.496 10.56,2.496 7.296,0 12.864,-4.032 5.76,-4.032 9.024,-13.44 3.456,-9.6 3.456,-25.728 0,-15.168 -2.88,-23.616 -2.688,-8.64 -7.296,-12.096 -4.416,-3.648 -9.6,-3.648 -4.032,0 -7.68,2.112 -3.456,2.112 -5.568,6.336 -2.112,4.224 -2.112,11.328 0,6.336 2.112,10.368 2.112,3.84 5.76,5.568 3.648,1.728 8.256,1.728 4.8,0 9.792,-2.88 4.992,-3.072 9.024,-10.176 l 1.344,18.432 q -4.608,6.72 -12.096,10.752 -7.488,3.84 -13.632,3.84 -10.368,0 -18.624,-4.032 -8.256,-4.032 -13.056,-12.288 -4.608,-8.448 -4.608,-21.312 0,-12.672 5.568,-21.888 5.568,-9.216 14.784,-14.016 9.216,-4.992 20.16,-4.992 9.024,0 17.28,3.456 8.256,3.456 14.592,10.752 6.528,7.296 10.368,18.816 4.032,11.328 4.032,27.456 0,17.088 -4.224,29.568 -4.032,12.48 -10.944,20.544 -6.912,8.064 -15.744,12.096 -8.832,3.84 -18.432,3.84 z m -149.6642,-240 q -17.08796,0 -31.10396,-7.104 -13.824,-7.296 -22.08,-21.504 -8.064,-14.4 -8.064,-35.52 0,-15.552 4.8,-27.648 4.8,-12.288 13.248,-20.736 8.448,-8.448 19.392,-12.864 11.136,-4.416 23.61596,-4.416 13.632,0 23.424,4.8 9.792,4.8 15.936,11.52 l -14.784,17.088 q -4.608,-4.224 -10.176,-6.528 -5.376,-2.496 -13.44,-2.496 -9.6,0 -17.08796,4.992 -7.488,4.8 -11.712,13.824 -4.224,9.024 -4.224,21.504 0,12.864 3.84,22.08 4.032,9.024 11.712,13.824 7.87196,4.8 19.58396,4.8 3.84,0 7.488,-0.96 3.648,-0.96 5.952,-2.88 v -21.504 h -20.736 v -23.04 h 45.696 v 57.6 q -6.336,6.336 -17.28,10.752 -10.752,4.416 -24,4.416 z m 116.5441,0 q -12.288,0 -21.696,-3.264 -9.216,-3.456 -15.552,-10.56 -6.336,-7.296 -9.6,-18.432 -3.264,-11.136 -3.264,-26.496 v -68.736 h 28.416 v 71.616 q 0,11.712 2.496,18.624 2.496,6.72 7.296,9.792 4.8,3.072 11.904,3.072 6.912,0 11.904,-3.072 4.992,-3.072 7.488,-9.792 2.688,-6.912 2.688,-18.624 v -71.616 h 27.264 v 68.736 q 0,15.36 -3.264,26.496 -3.072,11.136 -9.408,18.432 -6.144,7.104 -15.36,10.56 -9.216,3.264 -21.312,3.264 z m 771.439,239.99997 q -19.584,0 -31.68,-16.32 -11.904,-16.32 -11.904,-47.424 0,-31.296 11.904,-47.04 12.096,-15.744 31.68,-15.744 19.584,0 31.488,15.936 12.096,15.744 12.096,46.848 0,31.104 -12.096,47.424 -11.904,16.32 -31.488,16.32 z m 0,-21.888 q 4.8,0 8.64,-3.456 3.84,-3.648 5.952,-12.672 2.304,-9.216 2.304,-25.728 0,-16.704 -2.304,-25.536 -2.112,-8.832 -5.952,-12.096 -3.84,-3.264 -8.64,-3.264 -4.8,0 -8.64,3.264 -3.84,3.264 -6.144,12.096 -2.112,8.832 -2.112,25.536 0,16.512 2.112,25.728 2.304,9.024 6.144,12.672 3.84,3.456 8.64,3.456 z m 101.376,21.888 q -19.584,0 -31.68,-16.32 -11.904,-16.32 -11.904,-47.424 0,-31.296 11.904,-47.04 12.096,-15.744 31.68,-15.744 19.584,0 31.488,15.936 12.096,15.744 12.096,46.848 0,31.104 -12.096,47.424 -11.904,16.32 -31.488,16.32 z m 0,-21.888 q 4.8,0 8.64,-3.456 3.84,-3.648 5.952,-12.672 2.304,-9.216 2.304,-25.728 0,-16.704 -2.304,-25.536 -2.112,-8.832 -5.952,-12.096 -3.84,-3.264 -8.64,-3.264 -4.8,0 -8.64,3.264 -3.84,3.264 -6.144,12.096 -2.112,8.832 -2.112,25.536 0,16.512 2.112,25.728 2.304,9.024 6.144,12.672 3.84,3.456 8.64,3.456 z m 101.184,21.888 q -12.096,0 -21.888,-4.224 -9.6,-4.224 -15.168,-11.712 -5.376,-7.68 -5.376,-17.472 0,-7.488 2.688,-12.864 2.88,-5.568 7.488,-9.792 4.8,-4.224 10.56,-7.296 v -0.768 q -6.912,-5.376 -11.712,-12.288 -4.608,-6.912 -4.608,-16.512 0,-10.368 4.992,-17.856 4.992,-7.68 13.824,-11.712 8.832,-4.032 20.16,-4.032 16.896,0 26.88,9.216 10.176,9.024 10.176,24.192 0,5.76 -2.304,10.944 -2.112,4.992 -5.76,9.024 -3.648,3.84 -7.872,6.72 v 0.768 q 5.76,3.072 10.56,7.488 4.8,4.224 7.68,10.368 2.88,5.952 2.88,14.016 0,9.6 -5.376,17.28 -5.376,7.488 -15.168,12.096 -9.6,4.416 -22.656,4.416 z m 7.68,-73.344 q 3.648,-4.224 5.568,-8.64 1.92,-4.416 1.92,-9.216 0,-4.8 -1.728,-8.256 -1.728,-3.456 -5.184,-5.376 -3.264,-2.112 -7.872,-2.112 -5.568,0 -9.6,3.648 -4.032,3.456 -4.032,10.368 0,4.992 2.688,8.448 2.688,3.456 7.296,6.144 4.8,2.688 10.944,4.992 z m -7.104,53.76 q 4.608,0 8.256,-1.536 3.84,-1.728 5.952,-4.992 2.112,-3.456 2.112,-8.64 0,-5.376 -3.264,-8.832 -3.072,-3.648 -9.024,-6.336 -5.76,-2.88 -13.44,-6.144 -4.032,3.648 -6.72,8.832 -2.688,4.992 -2.688,10.56 0,5.376 2.496,9.216 2.688,3.84 6.912,5.952 4.416,1.92 9.408,1.92 z m -156.7682,-220.416 q -17.088,0 -31.104,-7.104 -13.824,-7.296 -22.08,-21.504 -8.064,-14.4 -8.064,-35.52 0,-15.552 4.8,-27.648 4.8,-12.288 13.248,-20.736 8.448,-8.448 19.392,-12.864 11.136,-4.416 23.616,-4.416 13.632,0 23.424,4.8 9.792,4.8 15.936,11.52 l -14.784,17.088 q -4.608,-4.224 -10.176,-6.528 -5.376,-2.496 -13.44,-2.496 -9.6,0 -17.088,4.992 -7.488,4.8 -11.712,13.824 -4.224,9.024 -4.224,21.504 0,12.864 3.84,22.08 4.032,9.024 11.712,13.824 7.872,4.8 19.584,4.8 3.84,0 7.488,-0.96 3.648,-0.96 5.952,-2.88 v -21.504 h -20.736 v -23.04 h 45.696 v 57.6 q -6.336,6.336 -17.28,10.752 -10.752,4.416 -24,4.416 z m 116.5441,0 q -12.288,0 -21.696,-3.264 -9.216,-3.456 -15.552,-10.56 -6.336,-7.296 -9.6,-18.432 -3.264,-11.136 -3.264,-26.496 v -68.736 h 28.416 v 71.616 q 0,11.712 2.496,18.624 2.496,6.72 7.296,9.792 4.8,3.072 11.904,3.072 6.912,0 11.904,-3.072 4.992,-3.072 7.488,-9.792 2.688,-6.912 2.688,-18.624 v -71.616 h 27.264 v 68.736 q 0,15.36 -3.264,26.496 -3.072,11.136 -9.408,18.432 -6.144,7.104 -15.36,10.56 -9.216,3.264 -21.312,3.264 z m 963.4712,-49.18694 q -9.792,0 -15.84,-8.16 -5.952,-8.16 -5.952,-23.712 0,-15.648 5.952,-23.52 6.048,-7.872 15.84,-7.872 9.792,0 15.744,7.968 6.048,7.872 6.048,23.424 0,15.552 -6.048,23.712 -5.952,8.16 -15.744,8.16 z m 0,-10.944 q 2.4,0 4.32,-1.728 1.92,-1.824 2.976,-6.336 1.152,-4.608 1.152,-12.864 0,-8.352 -1.152,-12.768 -1.056,-4.416 -2.976,-6.048 -1.92,-1.632 -4.32,-1.632 -2.4,0 -4.32,1.632 -1.92,1.632 -3.072,6.048 -1.056,4.416 -1.056,12.768 0,8.256 1.056,12.864 1.152,4.512 3.072,6.336 1.92,1.728 4.32,1.728 z m 50.688,10.944 q -9.792,0 -15.84,-8.16 -5.952,-8.16 -5.952,-23.712 0,-15.648 5.952,-23.52 6.048,-7.872 15.84,-7.872 9.792,0 15.744,7.968 6.048,7.872 6.048,23.424 0,15.552 -6.048,23.712 -5.952,8.16 -15.744,8.16 z m 0,-10.944 q 2.4,0 4.32,-1.728 1.92,-1.824 2.976,-6.336 1.152,-4.608 1.152,-12.864 0,-8.352 -1.152,-12.768 -1.056,-4.416 -2.976,-6.048 -1.92,-1.632 -4.32,-1.632 -2.4,0 -4.32,1.632 -1.92,1.632 -3.072,6.048 -1.056,4.416 -1.056,12.768 0,8.256 1.056,12.864 1.152,4.512 3.072,6.336 1.92,1.728 4.32,1.728 z m 49.056,10.944 q -4.992,0 -9.024,-1.152 -3.936,-1.152 -7.008,-3.072 -3.072,-1.92 -5.472,-4.32 l 6.336,-8.928 q 2.784,2.496 6.048,4.32 3.264,1.728 7.104,1.728 3.072,0 5.376,-1.056 2.304,-1.152 3.552,-3.264 1.344,-2.112 1.344,-5.184 0,-4.608 -2.688,-7.008 -2.688,-2.4 -6.912,-2.4 -2.592,0 -4.416,0.672 -1.824,0.672 -4.608,2.4 l -6.336,-4.032 1.728,-30.816 h 34.56 v 11.904 h -22.368 l -1.056,11.424 q 1.824,-0.768 3.36,-1.056 1.536,-0.384 3.456,-0.384 5.28,0 9.696,2.016 4.416,2.016 7.008,6.24 2.688,4.224 2.688,10.656 0,6.816 -3.168,11.616 -3.072,4.704 -8.16,7.2 -5.088,2.496 -11.04,2.496 z m -76.5601,-120 q -8.544,0 -15.552,-3.552 -6.912,-3.648 -11.04,-10.752 -4.032,-7.2 -4.032,-17.76 0,-7.776 2.4,-13.824 2.4,-6.144 6.624,-10.368 4.224,-4.224 9.696,-6.432 5.568,-2.208 11.808,-2.208 6.816,0 11.712,2.4 4.896,2.4 7.968,5.76 l -7.392,8.544 q -2.304,-2.112 -5.088,-3.264 -2.688,-1.248 -6.72,-1.248 -4.8,0 -8.544,2.496 -3.744,2.4 -5.856,6.912 -2.112,4.512 -2.112,10.752 0,6.432 1.92,11.04 2.016,4.512 5.856,6.912 3.936,2.4 9.792,2.4 1.92,0 3.744,-0.48 1.824,-0.48 2.976,-1.44 v -10.752 h -10.368 v -11.52 h 22.848 v 28.8 q -3.168,3.168 -8.64,5.376 -5.376,2.208 -12,2.208 z m 58.2721,0 q -6.144,0 -10.848,-1.632 -4.608,-1.728 -7.776,-5.28 -3.168,-3.648 -4.8,-9.216 -1.632,-5.568 -1.632,-13.248 v -34.368 h 14.208 v 35.808 q 0,5.856 1.248,9.312 1.248,3.36 3.648,4.896 2.4,1.536 5.952,1.536 3.456,0 5.952,-1.536 2.496,-1.536 3.744,-4.896 1.344,-3.456 1.344,-9.312 v -35.808 h 13.632 v 34.368 q 0,7.68 -1.632,13.248 -1.536,5.568 -4.704,9.216 -3.072,3.552 -7.68,5.28 -4.608,1.632 -10.656,1.632 z M 2572.8077,-9.72172 q -9.792,0 -15.84,-8.16 -5.952,-8.16 -5.952,-23.712 0,-15.648 5.952,-23.52 6.048,-7.872 15.84,-7.872 9.792,0 15.744,7.968 6.048,7.872 6.048,23.424 0,15.552 -6.048,23.712 -5.952,8.16 -15.744,8.16 z m 0,-10.944 q 2.4,0 4.32,-1.728 1.92,-1.824 2.976,-6.336 1.152,-4.608 1.152,-12.864 0,-8.352 -1.152,-12.768 -1.056,-4.416 -2.976,-6.048 -1.92,-1.632 -4.32,-1.632 -2.4,0 -4.32,1.632 -1.92,1.632 -3.072,6.048 -1.056,4.416 -1.056,12.768 0,8.256 1.056,12.864 1.152,4.512 3.072,6.336 1.92,1.728 4.32,1.728 z m 50.688,10.944 q -9.792,0 -15.84,-8.16 -5.952,-8.16 -5.952,-23.712 0,-15.648 5.952,-23.52 6.048,-7.872 15.84,-7.872 9.792,0 15.744,7.968 6.048,7.872 6.048,23.424 0,15.552 -6.048,23.712 -5.952,8.16 -15.744,8.16 z m 0,-10.944 q 2.4,0 4.32,-1.728 1.92,-1.824 2.976,-6.336 1.152,-4.608 1.152,-12.864 0,-8.352 -1.152,-12.768 -1.056,-4.416 -2.976,-6.048 -1.92,-1.632 -4.32,-1.632 -2.4,0 -4.32,1.632 -1.92,1.632 -3.072,6.048 -1.056,4.416 -1.056,12.768 0,8.256 1.056,12.864 1.152,4.512 3.072,6.336 1.92,1.728 4.32,1.728 z m 39.744,9.792 q 0.48,-7.584 1.536,-13.92 1.056,-6.432 2.976,-12.192 2.016,-5.76 5.088,-11.328 3.072,-5.568 7.584,-11.616 h -27.36 v -11.904 h 42.432 v 8.64 q -5.376,6.528 -8.832,12.192 -3.36,5.664 -5.184,11.52 -1.824,5.856 -2.688,12.768 -0.864,6.912 -1.344,15.84 z m -67.2481,-118.848 q -8.544,0 -15.552,-3.552 -6.912,-3.648 -11.04,-10.752 -4.032,-7.2 -4.032,-17.76 0,-7.776 2.4,-13.824 2.4,-6.144 6.624,-10.368 4.224,-4.224 9.696,-6.432 5.568,-2.208 11.808,-2.208 6.816,0 11.712,2.4 4.896,2.4 7.968,5.76 l -7.392,8.544 q -2.304,-2.112 -5.088,-3.264 -2.688,-1.248 -6.72,-1.248 -4.8,0 -8.544,2.496 -3.744,2.4 -5.856,6.912 -2.112,4.512 -2.112,10.752 0,6.432 1.92,11.04 2.016,4.512 5.856,6.912 3.936,2.4 9.792,2.4 1.92,0 3.744,-0.48 1.824,-0.48 2.976,-1.44 v -10.752 h -10.368 v -11.52 h 22.848 v 28.8 q -3.168,3.168 -8.64,5.376 -5.376,2.208 -12,2.208 z m 58.2721,0 q -6.144,0 -10.848,-1.632 -4.608,-1.728 -7.776,-5.28 -3.168,-3.648 -4.8,-9.216 -1.632,-5.568 -1.632,-13.248 v -34.368 h 14.208 v 35.808 q 0,5.856 1.248,9.312 1.248,3.36 3.648,4.896 2.4,1.536 5.952,1.536 3.456,0 5.952,-1.536 2.496,-1.536 3.744,-4.896 1.344,-3.456 1.344,-9.312 v -35.808 h 13.632 v 34.368 q 0,7.68 -1.632,13.248 -1.536,5.568 -4.704,9.216 -3.072,3.552 -7.68,5.28 -4.608,1.632 -10.656,1.632 z m 578.4421,-709.9729 q -6.528,0 -10.56,-5.44 -3.968,-5.44 -3.968,-15.808 0,-10.432 3.968,-15.68 4.032,-5.248 10.56,-5.248 6.528,0 10.496,5.312 4.032,5.248 4.032,15.616 0,10.368 -4.032,15.808 -3.968,5.44 -10.496,5.44 z m 0,-7.296 q 1.6,0 2.88,-1.152 1.28,-1.216 1.984,-4.224 0.768,-3.072 0.768,-8.576 0,-5.568 -0.768,-8.512 -0.704,-2.944 -1.984,-4.032 -1.28,-1.088 -2.88,-1.088 -1.6,0 -2.88,1.088 -1.28,1.088 -2.048,4.032 -0.704,2.944 -0.704,8.512 0,5.504 0.704,8.576 0.768,3.008 2.048,4.224 1.28,1.152 2.88,1.152 z m 33.792,7.296 q -6.528,0 -10.56,-5.44 -3.968,-5.44 -3.968,-15.808 0,-10.432 3.968,-15.68 4.032,-5.248 10.56,-5.248 6.528,0 10.496,5.312 4.032,5.248 4.032,15.616 0,10.368 -4.032,15.808 -3.968,5.44 -10.496,5.44 z m 0,-7.296 q 1.6,0 2.88,-1.152 1.28,-1.216 1.984,-4.224 0.768,-3.072 0.768,-8.576 0,-5.568 -0.768,-8.512 -0.704,-2.944 -1.984,-4.032 -1.28,-1.088 -2.88,-1.088 -1.6,0 -2.88,1.088 -1.28,1.088 -2.048,4.032 -0.704,2.944 -0.704,8.512 0,5.504 0.704,8.576 0.768,3.008 2.048,4.224 1.28,1.152 2.88,1.152 z m 32.448,7.296 q -3.264,0 -5.952,-0.768 -2.624,-0.704 -4.672,-1.984 -2.048,-1.28 -3.52,-3.008 l 4.352,-5.952 q 1.856,1.792 4.096,2.944 2.24,1.152 4.8,1.152 2.944,0 4.736,-1.216 1.856,-1.28 1.856,-3.584 0,-1.792 -0.896,-3.072 -0.896,-1.344 -3.264,-2.048 -2.304,-0.704 -6.784,-0.704 v -6.656 q 3.648,0 5.76,-0.704 2.112,-0.704 2.944,-1.92 0.896,-1.216 0.896,-2.816 0,-2.176 -1.344,-3.328 -1.28,-1.152 -3.648,-1.152 -2.176,0 -3.968,0.96 -1.728,0.896 -3.648,2.624 l -4.736,-5.76 q 2.816,-2.432 5.952,-3.776 3.136,-1.408 6.848,-1.408 4.16,0 7.296,1.344 3.2,1.28 4.928,3.776 1.792,2.432 1.792,6.016 0,3.136 -1.792,5.376 -1.728,2.24 -4.992,3.648 v 0.256 q 2.304,0.704 4.16,2.048 1.856,1.28 2.88,3.264 1.024,1.984 1.024,4.608 0,3.776 -2.112,6.464 -2.048,2.624 -5.504,4.032 -3.392,1.344 -7.488,1.344 z m -50.7841,-80 q -5.696,0 -10.368,-2.368 -4.608,-2.432 -7.36,-7.168 -2.688,-4.8 -2.688,-11.84 0,-5.184 1.6,-9.216 1.6,-4.096 4.416,-6.912 2.816,-2.816 6.464,-4.288 3.712,-1.472 7.872,-1.472 4.544,0 7.808,1.6 3.264,1.6 5.312,3.84 l -4.928,5.696 q -1.536,-1.408 -3.392,-2.176 -1.792,-0.832 -4.48,-0.832 -3.2,0 -5.696,1.664 -2.496,1.6 -3.904,4.608 -1.408,3.008 -1.408,7.168 0,4.288 1.28,7.36 1.344,3.008 3.904,4.608 2.624,1.6 6.528,1.6 1.28,0 2.496,-0.32 1.216,-0.32 1.984,-0.96 v -7.168 h -6.912 v -7.68 h 15.232 v 19.2 q -2.112,2.112 -5.76,3.584 -3.584,1.472 -8,1.472 z m 38.8481,0 q -4.096,0 -7.232,-1.088 -3.072,-1.152 -5.184,-3.52 -2.112,-2.432 -3.2,-6.144 -1.088,-3.712 -1.088,-8.832 v -22.912 h 9.472 v 23.872 q 0,3.904 0.832,6.208 0.832,2.24 2.432,3.264 1.6,1.024 3.968,1.024 2.304,0 3.968,-1.024 1.664,-1.024 2.496,-3.264 0.896,-2.304 0.896,-6.208 v -23.872 h 9.088 v 22.912 q 0,5.12 -1.088,8.832 -1.024,3.712 -3.136,6.144 -2.048,2.368 -5.12,3.52 -3.072,1.088 -7.104,1.088 z m -125.152,-214.57608 q -9.792,0 -15.84,-8.16 -5.952,-8.16 -5.952,-23.712 0,-15.648 5.952,-23.52 6.048,-7.872 15.84,-7.872 9.792,0 15.744,7.968 6.048,7.872 6.048,23.424 0,15.552 -6.048,23.712 -5.952,8.16 -15.744,8.16 z m 0,-10.944 q 2.4,0 4.32,-1.728 1.92,-1.824 2.976,-6.336 1.152,-4.608 1.152,-12.864 0,-8.352 -1.152,-12.768 -1.056,-4.416 -2.976,-6.048 -1.92,-1.632 -4.32,-1.632 -2.4,0 -4.32,1.632 -1.92,1.632 -3.072,6.048 -1.056,4.416 -1.056,12.768 0,8.256 1.056,12.864 1.152,4.512 3.072,6.336 1.92,1.728 4.32,1.728 z m 50.688,10.944 q -9.792,0 -15.84,-8.16 -5.952,-8.16 -5.952,-23.712 0,-15.648 5.952,-23.52 6.048,-7.872 15.84,-7.872 9.792,0 15.744,7.968 6.048,7.872 6.048,23.424 0,15.552 -6.048,23.712 -5.952,8.16 -15.744,8.16 z m 0,-10.944 q 2.4,0 4.32,-1.728 1.92,-1.824 2.976,-6.336 1.152,-4.608 1.152,-12.864 0,-8.352 -1.152,-12.768 -1.056,-4.416 -2.976,-6.048 -1.92,-1.632 -4.32,-1.632 -2.4,0 -4.32,1.632 -1.92,1.632 -3.072,6.048 -1.056,4.416 -1.056,12.768 0,8.256 1.056,12.864 1.152,4.512 3.072,6.336 1.92,1.728 4.32,1.728 z m 48.672,10.944 q -4.896,0 -8.928,-1.152 -3.936,-1.056 -7.008,-2.976 -3.072,-1.92 -5.28,-4.512 l 6.528,-8.928 q 2.784,2.688 6.144,4.416 3.36,1.728 7.2,1.728 4.416,0 7.104,-1.824 2.784,-1.92 2.784,-5.376 0,-2.688 -1.344,-4.608 -1.344,-2.016 -4.896,-3.072 -3.456,-1.056 -10.176,-1.056 v -9.984 q 5.472,0 8.64,-1.056 3.168,-1.056 4.416,-2.88 1.344,-1.824 1.344,-4.224 0,-3.264 -2.016,-4.992 -1.92,-1.728 -5.472,-1.728 -3.264,0 -5.952,1.44 -2.592,1.344 -5.472,3.936 l -7.104,-8.64 q 4.224,-3.648 8.928,-5.664 4.704,-2.112 10.272,-2.112 6.24,0 10.944,2.016 4.8,1.92 7.392,5.664 2.688,3.648 2.688,9.024 0,4.704 -2.688,8.064 -2.592,3.36 -7.488,5.472 v 0.384 q 3.456,1.056 6.24,3.072 2.784,1.92 4.32,4.896 1.536,2.976 1.536,6.912 0,5.664 -3.168,9.696 -3.072,3.936 -8.256,6.048 -5.088,2.016 -11.232,2.016 z m 28.512,12.288 v -7.968 h 45.696 v 7.968 z m 46.272,-13.44 19.584,-62.592 h 16.896 l 19.68,62.592 h -14.976 l -8.16,-31.68 q -1.344,-4.704 -2.592,-9.984 -1.248,-5.28 -2.496,-10.176 h -0.384 q -1.056,4.896 -2.304,10.176 -1.248,5.28 -2.592,9.984 l -8.256,31.68 z m 12.864,-14.88 v -11.04 h 30.144 v 11.04 z m -112.3201,-103.968 q -8.544,0 -15.552,-3.552 -6.912,-3.648 -11.04,-10.752 -4.032,-7.2 -4.032,-17.76 0,-7.776 2.4,-13.824 2.4,-6.144 6.624,-10.368 4.224,-4.224 9.696,-6.432 5.568,-2.208 11.808,-2.208 6.816,0 11.712,2.4 4.896,2.4 7.968,5.76 l -7.392,8.544 q -2.304,-2.112 -5.088,-3.264 -2.688,-1.248 -6.72,-1.248 -4.8,0 -8.544,2.496 -3.744,2.4 -5.856,6.912 -2.112,4.512 -2.112,10.752 0,6.432 1.92,11.04 2.016,4.512 5.856,6.912 3.936,2.4 9.792,2.4 1.92,0 3.744,-0.48 1.824,-0.48 2.976,-1.44 v -10.752 h -10.368 v -11.52 h 22.848 v 28.8 q -3.168,3.168 -8.64,5.376 -5.376,2.208 -12,2.208 z m 58.2721,0 q -6.144,0 -10.848,-1.632 -4.608,-1.728 -7.776,-5.28 -3.168,-3.648 -4.8,-9.216 -1.632,-5.568 -1.632,-13.248 v -34.368 h 14.208 v 35.808 q 0,5.856 1.248,9.312 1.248,3.36 3.648,4.896 2.4,1.536 5.952,1.536 3.456,0 5.952,-1.536 2.496,-1.536 3.744,-4.896 1.344,-3.456 1.344,-9.312 v -35.808 h 13.632 v 34.368 q 0,7.68 -1.632,13.248 -1.536,5.568 -4.704,9.216 -3.072,3.552 -7.68,5.28 -4.608,1.632 -10.656,1.632 z m -608.9063,308.59014 q -19.584,0 -31.68,-16.32 -11.904,-16.32 -11.904,-47.42404 0,-31.296 11.904,-47.04 12.096,-15.744 31.68,-15.744 19.584,0 31.488,15.936 12.096,15.744 12.096,46.848 0,31.10404 -12.096,47.42404 -11.904,16.32 -31.488,16.32 z m 0,-21.888 q 4.8,0 8.64,-3.456 3.84,-3.648 5.952,-12.672 2.304,-9.216 2.304,-25.72804 0,-16.704 -2.304,-25.536 -2.112,-8.832 -5.952,-12.096 -3.84,-3.264 -8.64,-3.264 -4.8,0 -8.64,3.264 -3.84,3.264 -6.144,12.096 -2.112,8.832 -2.112,25.536 0,16.51204 2.112,25.72804 2.304,9.024 6.144,12.672 3.84,3.456 8.64,3.456 z m 101.376,21.888 q -19.584,0 -31.68,-16.32 -11.904,-16.32 -11.904,-47.42404 0,-31.296 11.904,-47.04 12.096,-15.744 31.68,-15.744 19.584,0 31.488,15.936 12.096,15.744 12.096,46.848 0,31.10404 -12.096,47.42404 -11.904,16.32 -31.488,16.32 z m 0,-21.888 q 4.8,0 8.64,-3.456 3.84,-3.648 5.952,-12.672 2.304,-9.216 2.304,-25.72804 0,-16.704 -2.304,-25.536 -2.112,-8.832 -5.952,-12.096 -3.84,-3.264 -8.64,-3.264 -4.8,0 -8.64,3.264 -3.84,3.264 -6.144,12.096 -2.112,8.832 -2.112,25.536 0,16.51204 2.112,25.72804 2.304,9.024 6.144,12.672 3.84,3.456 8.64,3.456 z m 57.792,19.584 v -17.472 q 15.36,-13.632 27.264,-25.536 12.096,-11.90404 18.816,-22.08004 6.912,-10.176 6.912,-18.624 0,-9.024 -4.608,-13.632 -4.608,-4.8 -12.672,-4.8 -6.528,0 -11.904,3.84 -5.184,3.648 -9.792,8.64 l -14.784,-14.592 q 8.832,-9.984 18.048,-14.976 9.408,-4.992 22.272,-4.992 11.904,0 20.928,4.8 9.216,4.8 14.208,13.44 5.184,8.64 5.184,20.352 0,10.944 -5.952,21.504 -5.76,10.368 -15.36,20.73604 -9.6,10.368 -20.352,21.12 4.608,-0.576 10.368,-0.96 5.76,-0.576 9.984,-0.576 h 27.264 v 23.808 z m -112.8002,-237.69604 q -17.088,0 -31.104,-7.104 -13.824,-7.296 -22.08,-21.504 -8.064,-14.4 -8.064,-35.52 0,-15.552 4.8,-27.648 4.8,-12.288 13.248,-20.736 8.448,-8.448 19.392,-12.864 11.136,-4.416 23.616,-4.416 13.632,0 23.424,4.8 9.792,4.8 15.936,11.52 l -14.784,17.088 q -4.608,-4.224 -10.176,-6.528 -5.376,-2.496 -13.44,-2.496 -9.6,0 -17.088,4.992 -7.488,4.8 -11.712,13.824 -4.224,9.024 -4.224,21.504 0,12.864 3.84,22.08 4.032,9.024 11.712,13.824 7.872,4.8 19.584,4.8 3.84,0 7.488,-0.96 3.648,-0.96 5.952,-2.88 v -21.504 h -20.736 v -23.04 h 45.696 v 57.6 q -6.336,6.336 -17.28,10.752 -10.752,4.416 -24,4.416 z m 116.5441,0 q -12.288,0 -21.696,-3.264 -9.216,-3.456 -15.552,-10.56 -6.336,-7.296 -9.6,-18.432 -3.264,-11.136 -3.264,-26.496 v -68.736 h 28.416 v 71.616 q 0,11.712 2.496,18.624 2.496,6.72 7.296,9.792 4.8,3.072 11.904,3.072 6.912,0 11.904,-3.072 4.992,-3.072 7.488,-9.792 2.688,-6.912 2.688,-18.624 v -71.616 h 27.264 v 68.736 q 0,15.36 -3.264,26.496 -3.072,11.136 -9.408,18.432 -6.144,7.104 -15.36,10.56 -9.216,3.264 -21.312,3.264 z M 390.064,-1031.7433 q -9.792,0 -15.84,-8.16 -5.952,-8.16 -5.952,-23.712 0,-15.648 5.952,-23.52 6.048,-7.872 15.84,-7.872 9.792,0 15.744,7.968 6.048,7.872 6.048,23.424 0,15.552 -6.048,23.712 -5.952,8.16 -15.744,8.16 z m 0,-10.944 q 2.4,0 4.32,-1.728 1.92,-1.824 2.976,-6.336 1.152,-4.608 1.152,-12.864 0,-8.352 -1.152,-12.768 -1.056,-4.416 -2.976,-6.048 -1.92,-1.632 -4.32,-1.632 -2.4,0 -4.32,1.632 -1.92,1.632 -3.072,6.048 -1.056,4.416 -1.056,12.768 0,8.256 1.056,12.864 1.152,4.512 3.072,6.336 1.92,1.728 4.32,1.728 z m 32.06399,9.792 v -11.424 h 13.248 v -35.232 h -11.424 v -8.736 q 4.992,-0.96 8.448,-2.304 3.552,-1.344 6.72,-3.264 h 10.368 v 49.536 h 11.424 v 11.424 z m 67.67998,1.152 q -4.992,0 -9.024,-1.152 -3.936,-1.152 -7.008,-3.072 -3.072,-1.92 -5.472,-4.32 l 6.336,-8.928 q 2.784,2.496 6.048,4.32 3.264,1.728 7.104,1.728 3.072,0 5.376,-1.056 2.304,-1.152 3.552,-3.264 1.344,-2.112 1.344,-5.184 0,-4.608 -2.688,-7.008 -2.688,-2.4 -6.912,-2.4 -2.592,0 -4.416,0.672 -1.824,0.672 -4.608,2.4 l -6.336,-4.032 1.728,-30.816 h 34.56 v 11.904 h -22.368 l -1.056,11.424 q 1.824,-0.768 3.36,-1.056 1.536,-0.384 3.456,-0.384 5.28,0 9.696,2.016 4.416,2.016 7.008,6.24 2.688,4.224 2.688,10.656 0,6.816 -3.168,11.616 -3.072,4.704 -8.16,7.2 -5.088,2.496 -11.04,2.496 z m -76.56006,-120 q -8.544,0 -15.552,-3.552 -6.912,-3.648 -11.04,-10.752 -4.032,-7.2 -4.032,-17.76 0,-7.776 2.4,-13.824 2.4,-6.144 6.624,-10.368 4.224,-4.224 9.696,-6.432 5.568,-2.208 11.808,-2.208 6.816,0 11.712,2.4 4.896,2.4 7.968,5.76 l -7.392,8.544 q -2.304,-2.112 -5.088,-3.264 -2.688,-1.248 -6.72,-1.248 -4.8,0 -8.544,2.496 -3.744,2.4 -5.856,6.912 -2.112,4.512 -2.112,10.752 0,6.432 1.92,11.04 2.016,4.512 5.856,6.912 3.936,2.4 9.792,2.4 1.92,0 3.744,-0.48 1.824,-0.48 2.976,-1.44 v -10.752 h -10.368 v -11.52 h 22.848 v 28.8 q -3.168,3.168 -8.64,5.376 -5.376,2.208 -12,2.208 z m 58.27205,0 q -6.144,0 -10.848,-1.632 -4.608,-1.728 -7.776,-5.28 -3.168,-3.648 -4.8,-9.216 -1.632,-5.568 -1.632,-13.248 v -34.368 h 14.208 v 35.808 q 0,5.856 1.248,9.312 1.248,3.36 3.648,4.896 2.4,1.536 5.952,1.536 3.456,0 5.952,-1.536 2.496,-1.536 3.744,-4.896 1.344,-3.456 1.344,-9.312 v -35.808 h 13.632 v 34.368 q 0,7.68 -1.632,13.248 -1.536,5.568 -4.704,9.216 -3.072,3.552 -7.68,5.28 -4.608,1.632 -10.656,1.632 z m -1064.31035,155.31271 q -19.584,0 -31.68,-16.32001 -11.904,-16.32 -11.904,-47.424 0,-31.296 11.904,-47.04 12.096,-15.744 31.68,-15.744 19.584,0 31.488,15.936 12.096,15.744 12.096,46.848 0,31.104 -12.096,47.424 -11.904,16.32001 -31.488,16.32001 z m 0,-21.88801 q 4.8,0 8.64,-3.456 3.84,-3.648 5.952,-12.672 2.304,-9.216 2.304,-25.728 0,-16.704 -2.304,-25.536 -2.112,-8.832 -5.952,-12.096 -3.84,-3.264 -8.64,-3.264 -4.8,0 -8.64,3.264 -3.84,3.264 -6.144,12.096 -2.112,8.832 -2.112,25.536 0,16.512 2.112,25.728 2.304,9.024 6.144,12.672 3.84,3.456 8.64,3.456 z m 64.12798,19.58401 v -22.84801 h 26.496 v -70.464 h -22.848 v -17.472 q 9.984,-1.92 16.896,-4.608 7.104,-2.688 13.44,-6.528 h 20.736 v 99.072 h 22.848 v 22.84801 z m 144.38398,0 v -70.46401 q 0,-5.76 0.384,-13.632 0.576,-7.872 0.768,-13.632 h -0.768 q -2.304,4.992 -4.8,10.176 -2.496,4.992 -5.184,10.368 l -16.128,26.496 h 66.048 v 21.504 h -93.12 v -19.392 l 44.544,-73.344 h 34.56 v 121.92001 z m -162.14413,-237.69601 q -17.088,0 -31.104,-7.104 -13.824,-7.296 -22.08,-21.504 -8.064,-14.4 -8.064,-35.52 0,-15.552 4.8,-27.648 4.8,-12.288 13.248,-20.736 8.448,-8.448 19.392,-12.864 11.136,-4.416 23.616,-4.416 13.632,0 23.424,4.8 9.792,4.8 15.936,11.52 l -14.784,17.088 q -4.608,-4.224 -10.176,-6.528 -5.376,-2.496 -13.44,-2.496 -9.6,0 -17.088,4.992 -7.488,4.8 -11.712,13.824 -4.224,9.024 -4.224,21.504 0,12.864 3.84,22.08 4.032,9.024 11.712,13.824 7.872,4.8 19.584,4.8 3.84,0 7.488,-0.96 3.648,-0.96 5.952,-2.88 v -21.504 h -20.736 v -23.04 h 45.696 v 57.6 q -6.336,6.336 -17.28,10.752 -10.752,4.416 -24,4.416 z m 116.5441,0 q -12.288,0 -21.696,-3.264 -9.216,-3.456 -15.552,-10.56 -6.336,-7.296 -9.6,-18.432 -3.264,-11.136 -3.264,-26.496 v -68.736 h 28.416 v 71.616 q 0,11.712 2.496,18.624 2.496,6.72 7.296,9.792 4.8,3.072 11.904,3.072 6.912,0 11.904,-3.072 4.992,-3.072 7.488,-9.792 2.688,-6.912 2.688,-18.624 v -71.616 h 27.264 v 68.736 q 0,15.36 -3.264,26.496 -3.072,11.136 -9.408,18.432 -6.144,7.104 -15.36,10.56 -9.216,3.264 -21.312,3.264 z M 1593.214,-997.43053 q -19.584,0 -31.68,-16.31997 -11.904,-16.32 -11.904,-47.424 0,-31.296 11.904,-47.04 12.096,-15.744 31.68,-15.744 19.584,0 31.488,15.936 12.096,15.744 12.096,46.848 0,31.104 -12.096,47.424 -11.904,16.31997 -31.488,16.31997 z m 0,-21.88797 q 4.8,0 8.64,-3.456 3.84,-3.648 5.952,-12.672 2.304,-9.216 2.304,-25.728 0,-16.704 -2.304,-25.536 -2.112,-8.832 -5.952,-12.096 -3.84,-3.264 -8.64,-3.264 -4.8,0 -8.64,3.264 -3.84,3.264 -6.144,12.096 -2.112,8.832 -2.112,25.536 0,16.512 2.112,25.728 2.304,9.024 6.144,12.672 3.84,3.456 8.64,3.456 z m 101.376,21.88797 q -19.584,0 -31.68,-16.31997 -11.904,-16.32 -11.904,-47.424 0,-31.296 11.904,-47.04 12.096,-15.744 31.68,-15.744 19.584,0 31.488,15.936 12.096,15.744 12.096,46.848 0,31.104 -12.096,47.424 -11.904,16.31997 -31.488,16.31997 z m 0,-21.88797 q 4.8,0 8.64,-3.456 3.84,-3.648 5.952,-12.672 2.304,-9.216 2.304,-25.728 0,-16.704 -2.304,-25.536 -2.112,-8.832 -5.952,-12.096 -3.84,-3.264 -8.64,-3.264 -4.8,0 -8.64,3.264 -3.84,3.264 -6.144,12.096 -2.112,8.832 -2.112,25.536 0,16.512 2.112,25.728 2.304,9.024 6.144,12.672 3.84,3.456 8.64,3.456 z m 64.128,19.58397 v -22.84797 h 26.496 v -70.464 h -22.848 v -17.472 q 9.984,-1.92 16.896,-4.608 7.104,-2.688 13.44,-6.528 h 20.736 v 99.072 h 22.848 v 22.84797 z m -119.1362,-237.69597 q -17.088,0 -31.104,-7.104 -13.824,-7.296 -22.08,-21.504 -8.064,-14.4 -8.064,-35.52 0,-15.552 4.8,-27.648 4.8,-12.288 13.248,-20.736 8.448,-8.448 19.392,-12.864 11.136,-4.416 23.616,-4.416 13.632,0 23.424,4.8 9.792,4.8 15.936,11.52 l -14.784,17.088 q -4.608,-4.224 -10.176,-6.528 -5.376,-2.496 -13.44,-2.496 -9.6,0 -17.088,4.992 -7.488,4.8 -11.712,13.824 -4.224,9.024 -4.224,21.504 0,12.864 3.84,22.08 4.032,9.024 11.712,13.824 7.872,4.8 19.584,4.8 3.84,0 7.488,-0.96 3.648,-0.96 5.952,-2.88 v -21.504 h -20.736 v -23.04 h 45.696 v 57.6 q -6.336,6.336 -17.28,10.752 -10.752,4.416 -24,4.416 z m 116.5441,0 q -12.288,0 -21.696,-3.264 -9.216,-3.456 -15.552,-10.56 -6.336,-7.296 -9.6,-18.432 -3.264,-11.136 -3.264,-26.496 v -68.736 h 28.416 v 71.616 q 0,11.712 2.496,18.624 2.496,6.72 7.296,9.792 4.8,3.072 11.904,3.072 6.912,0 11.904,-3.072 4.992,-3.072 7.488,-9.792 2.688,-6.912 2.688,-18.624 v -71.616 h 27.264 v 68.736 q 0,15.36 -3.264,26.496 -3.072,11.136 -9.408,18.432 -6.144,7.104 -15.36,10.56 -9.216,3.264 -21.312,3.264 z"
      style="font-size:64px;font-family:'Source Sans 3';-inkscape-font-specification:'Source Sans 3, @wght=700';font-variation-settings:'wght' 700;text-align:center;white-space:pre;display:inline;fill:#bec3c6;stroke-width:55;image-rendering:auto"
      transform="matrix(0.02439371,0,0,0.02439371,54.809456,283.57895)" />
  </g>
</svg>