<svg width="7300" height="2300" viewBox="0 0 7300 2300" version="1.1" id="svg1" xml:space="preserve" xmlns="http://www.w3.org/2000/svg">
  <g id="floor_3" transform="matrix(40.994169,0,0,40.994169,1.00188,-9610.757)" style="display:inline">
    <path style="font-variation-settings:'wdth' 70,'wght' 600;display:inline;fill:#4c5a5f;fill-opacity:1;stroke:none;stroke-width:.487874" d="m 15.86124,264.33654 h 45.791567 v -19.14906 l 15.581338,-0.0488 v 19.19785 h 61.809925 l 1e-5,8.48901 -123.182838,1e-5 z" id="path430"/>
    <g id="rooms_3" style="display:inline" transform="matrix(0.02439371,0,0,0.02439371,-0.02443957,255.98706)">
      <rect style="font-variation-settings:'wdth' 70,'wght' 600;mix-blend-mode:normal;fill:#1b2022;fill-opacity:1;stroke:none;stroke-width:10.0166;stroke-linecap:butt;stroke-linejoin:miter;stroke-dasharray:none;stroke-opacity:1" id="rect276" width="205.00011" height="292.49988" x="2629.9058" y="690.28015"/>
      <rect style="font-variation-settings:'wdth' 70,'wght' 600;display:inline;fill:#454c7f;fill-opacity:1;stroke-width:214.087;stroke-dasharray:none" id="GU307" width="206.64742" height="283.83566" x="5025.6045" y="690.28015"/>
      <rect style="font-variation-settings:'wdth' 70,'wght' 600;display:inline;fill:#454c7f;fill-opacity:1;stroke-width:213.57;stroke-dasharray:none" id="GU305" width="205.65051" height="283.83566" x="5467.8486" y="690.28015"/>
      <rect style="font-variation-settings:'wdth' 70,'wght' 600;display:inline;fill:#454c7f;fill-opacity:1;stroke-width:308.334;stroke-dasharray:none" id="GU305_A" width="332.43655" height="365.97827" x="5341.062" y="974.11584"/>
      <rect style="font-variation-settings:'wdth' 70,'wght' 600;display:inline;fill:#454c7f;fill-opacity:1;stroke-width:300.461;stroke-dasharray:none" id="GU307_A" width="315.67584" height="365.97827" x="5025.3857" y="974.11584"/>
      <rect style="font-variation-settings:'wdth' 70,'wght' 600;display:inline;fill:#454c7f;fill-opacity:1;stroke-width:975.496;stroke-dasharray:none" id="GU301" width="1547.3516" height="787.00006" x="3167.1523" y="-444.71991"/>
      <rect style="font-variation-settings:'wdth' 70,'wght' 600;display:inline;fill:#454c7f;fill-opacity:1;stroke-width:408.104;stroke-dasharray:none" id="GU302" width="311.82852" height="683.5" x="4732.0078" y="-341.21991"/>
      <rect style="font-variation-settings:'wdth' 70,'wght' 600;display:inline;fill:#454c7f;fill-opacity:1;stroke-width:411.363;stroke-dasharray:none" id="GU303" width="316.82806" height="683.5" x="5043.8398" y="-341.21991"/>
      <rect style="font-variation-settings:'wdth' 70,'wght' 600;display:inline;fill:#454c7f;fill-opacity:1;stroke-width:408.758;stroke-dasharray:none" id="GU304" width="312.82806" height="683.5" x="5360.6714" y="-341.21991"/>
      <rect style="font-variation-settings:'wdth' 70,'wght' 600;display:inline;fill:#454c7f;fill-opacity:1;stroke-width:228.589;stroke-dasharray:none" id="GU306" width="235.59651" height="283.83566" x="5232.252" y="690.28015"/>
      <rect style="font-variation-settings:'wdth' 70,'wght' 600;display:inline;fill:#454c7f;fill-opacity:1;stroke-width:392.931;stroke-dasharray:none" id="GU308" width="290.77524" height="679.5" x="4734.8291" y="690.28015"/>
      <rect style="font-variation-settings:'wdth' 70,'wght' 600;display:inline;fill:#454c7f;fill-opacity:1;stroke-width:705.246;stroke-dasharray:none" id="GU309" width="939.74493" height="677.31378" x="3777.1213" y="690.28003"/>
      <rect style="font-variation-settings:'wdth' 70,'wght' 600;display:inline;fill:#454c7f;fill-opacity:1;stroke-width:381.355;stroke-dasharray:none" id="GU310" width="274.7803" height="677.31384" x="3484.8411" y="690.28003"/>
      <rect style="font-variation-settings:'wdth' 70,'wght' 600;display:inline;fill:#454c7f;fill-opacity:1;stroke-width:381.566;stroke-dasharray:none" id="GU311" width="275.08456" height="677.31384" x="3174.7563" y="690.28003"/>
      <rect style="font-variation-settings:'wdth' 70,'wght' 600;display:inline;fill:#454c7f;fill-opacity:1;stroke-width:381.356;stroke-dasharray:none" id="GU312" width="274.78033" height="677.31384" x="2865.2803" y="690.28003"/>
      <rect style="font-variation-settings:'wdth' 70,'wght' 600;display:inline;fill:#454c7f;fill-opacity:1;stroke-width:717.97;stroke-dasharray:none" id="GU313" width="970.82605" height="679.5" x="1548.5812" y="690.28009"/>
      <rect style="font-variation-settings:'wdth' 70,'wght' 600;display:inline;fill:#454c7f;fill-opacity:1;stroke-width:294.619;stroke-dasharray:none" id="GU313_A" width="310.87369" height="357.31653" x="2519.4072" y="982.78003"/>
      <rect style="font-variation-settings:'wdth' 70,'wght' 600;display:inline;fill:#454c7f;fill-opacity:1;stroke-width:382.092;stroke-dasharray:none" id="GU314" width="274.95731" height="679.5" x="1273.636" y="690.28009"/>
      <rect style="font-variation-settings:'wdth' 70,'wght' 600;display:inline;fill:#454c7f;fill-opacity:1;stroke-width:378.637;stroke-dasharray:none" id="GU315" width="270.00757" height="679.5" x="1003.6285" y="690.28009"/>
      <rect style="font-variation-settings:'wdth' 70,'wght' 600;display:inline;fill:#454c7f;fill-opacity:1;stroke-width:410.531;stroke-dasharray:none" id="GU316" width="317.4082" height="679.5" x="651.22034" y="690.28009"/>
      <rect style="font-variation-settings:'wdth' 70,'wght' 600;display:inline;fill:#454c7f;fill-opacity:1;stroke-width:397.39;stroke-dasharray:none" id="GU317" width="580.72253" height="348" x="70.497849" y="342.28009"/>
      <rect style="font-variation-settings:'wdth' 70,'wght' 600;display:inline;fill:#454c7f;fill-opacity:1;stroke-width:555.293;stroke-dasharray:none" id="GU317_A" width="580.72253" height="679.5" x="70.497849" y="690.28009"/>
      <rect style="font-variation-settings:'wdth' 70,'wght' 600;display:inline;fill:#454c7f;fill-opacity:1;stroke-width:710.07;stroke-dasharray:none" id="GU317_B" width="943.99963" height="683.50006" x="43" y="-341.21991"/>
      <rect style="font-variation-settings:'wdth' 70,'wght' 600;display:inline;opacity:1;fill:#454c7f;fill-opacity:1;stroke-width:607.541;stroke-dasharray:none" id="GU318" width="601.71667" height="785.00018" x="986.99963" y="-442.72003"/>
      <rect style="font-variation-settings:'wdth' 70,'wght' 600;display:inline;opacity:1;fill:#454c7f;fill-opacity:1;stroke-width:759.19;stroke-dasharray:none" id="GU319" width="939.59583" height="785.00012" x="1588.7163" y="-442.72003"/>
    </g>
    <g id="staires_3" transform="matrix(-0.02439371,0,0,-0.02439371,133.40036,264.73227)" style="display:inline">
      <rect style="font-variation-settings:'wdth' 70,'wght' 600;display:inline;fill:#333a3d;fill-opacity:1;stroke-width:8.08545;stroke-dasharray:none" id="rect307" width="274.3721" height="29.06435" x="-2918.7314" y="-709.45197" transform="rotate(180,-8.7495808e-6,8.0668158e-6)"/>
      <rect style="font-variation-settings:'wdth' 70,'wght' 600;display:inline;fill:#353c40;fill-opacity:1;stroke-width:8.08543;stroke-dasharray:none" id="rect308" width="274.3718" height="29.06435" x="-2918.7314" y="-680.38763" transform="rotate(180,-8.7495808e-6,8.0668158e-6)"/>
      <rect style="font-variation-settings:'wdth' 70,'wght' 600;display:inline;fill:#373e43;fill-opacity:1;stroke-width:8.08543;stroke-dasharray:none" id="rect309" width="274.3718" height="29.06435" x="-2918.7314" y="-651.3233" transform="rotate(180,-8.7495808e-6,8.0668158e-6)"/>
      <rect style="font-variation-settings:'wdth' 70,'wght' 600;display:inline;fill:#3a4146;fill-opacity:1;stroke-width:8.08543;stroke-dasharray:none" id="rect310" width="274.3718" height="29.06435" x="-2918.7314" y="-622.25897" transform="rotate(180,-8.7495808e-6,8.0668158e-6)"/>
      <rect style="font-variation-settings:'wdth' 70,'wght' 600;display:inline;fill:#3c4449;fill-opacity:1;stroke-width:8.08543;stroke-dasharray:none" id="rect311" width="274.3718" height="29.06435" x="-2918.7314" y="-593.19464" transform="rotate(180,-8.7495808e-6,8.0668158e-6)"/>
      <rect style="font-variation-settings:'wdth' 70,'wght' 600;display:inline;fill:#3e474c;fill-opacity:1;stroke-width:8.08543;stroke-dasharray:none" id="rect312" width="274.3718" height="29.06435" x="-2918.7314" y="-564.13031" transform="rotate(180,-8.7495808e-6,8.0668158e-6)"/>
      <rect style="font-variation-settings:'wdth' 70,'wght' 600;display:inline;fill:#404a4f;fill-opacity:1;stroke-width:8.08543;stroke-dasharray:none" id="rect313" width="274.3718" height="29.06435" x="-2918.7314" y="-535.06598" transform="rotate(180,-8.7495808e-6,8.0668158e-6)"/>
      <rect style="font-variation-settings:'wdth' 70,'wght' 600;display:inline;fill:#424d52;fill-opacity:1;stroke-width:8.08543;stroke-dasharray:none" id="rect314" width="274.3718" height="29.06435" x="-2918.7314" y="-506.00159" transform="rotate(180,-8.7495808e-6,8.0668158e-6)"/>
      <rect style="font-variation-settings:'wdth' 70,'wght' 600;display:inline;fill:#445055;fill-opacity:1;stroke-width:8.08543;stroke-dasharray:none" id="rect315" width="274.3718" height="29.06435" x="-2918.7314" y="-476.93723" transform="rotate(180,-8.7495808e-6,8.0668158e-6)"/>
      <rect style="font-variation-settings:'wdth' 70,'wght' 600;display:inline;fill:#465358;fill-opacity:1;stroke-width:8.08543;stroke-dasharray:none" id="rect316" width="274.3718" height="29.06435" x="-2918.7314" y="-447.87286" transform="rotate(180,-8.7495808e-6,8.0668158e-6)"/>
      <rect style="font-variation-settings:'wdth' 70,'wght' 600;display:inline;fill:#48565b;fill-opacity:1;stroke-width:8.08543;stroke-dasharray:none" id="rect317" width="274.3718" height="29.06435" x="-2918.7314" y="-418.8085" transform="rotate(180,-8.7495808e-6,8.0668158e-6)"/>
      <rect style="font-variation-settings:'wdth' 70,'wght' 600;display:inline;fill:#4b595e;fill-opacity:1;stroke-width:8.08543;stroke-dasharray:none" id="rect318" width="274.3718" height="29.06435" x="-2918.7314" y="-389.74414" transform="rotate(180,-8.7495808e-6,8.0668158e-6)"/>
      <rect style="font-variation-settings:'wdth' 70,'wght' 600;display:inline;fill:#4c5a5f;fill-opacity:1;stroke-width:8.08543;stroke-dasharray:none" id="rect319" width="274.3718" height="29.06435" x="-2918.7314" y="-360.67978" transform="scale(-1)"/>
      <path style="font-variation-settings:'wdth' 70,'wght' 600;display:inline;fill:#31373a;fill-opacity:1;stroke:none;stroke-width:0;stroke-linecap:butt;stroke-dasharray:none;stroke-opacity:1" d="m 2941.2314,709.45196 c -60.9027,234.25144 -60.752,234.04548 -218.372,337.29574 h -200 C 2351.8998,929.8753 2351.903,900.81093 2302.4873,680.38756 l 296.8724,10e-5 v 29.06437 z" id="path319" transform="translate(-4.1749921e-4,-8.386638e-5)"/>
      <rect style="font-variation-settings:'wdth' 70,'wght' 600;display:inline;fill:#4c5a5f;fill-opacity:1;stroke-width:8.08545;stroke-dasharray:none" id="rect320" width="274.37241" height="29.06435" x="-2599.3596" y="-331.61542" transform="scale(-1)"/>
      <rect style="font-variation-settings:'wdth' 70,'wght' 600;display:inline;fill:#4f5e63;fill-opacity:1;stroke-width:8.08545;stroke-dasharray:none" id="rect321" width="274.37241" height="29.06435" x="-2599.3596" y="-360.67978" transform="scale(-1)"/>
      <rect style="font-variation-settings:'wdth' 70,'wght' 600;display:inline;fill:#516166;fill-opacity:1;stroke-width:8.08545;stroke-dasharray:none" id="rect322" width="274.37241" height="29.06435" x="-2599.3596" y="-389.74414" transform="scale(-1)"/>
      <rect style="font-variation-settings:'wdth' 70,'wght' 600;display:inline;fill:#546469;fill-opacity:1;stroke-width:8.08545;stroke-dasharray:none" id="rect323" width="274.37241" height="29.06435" x="-2599.3596" y="-418.8085" transform="scale(-1)"/>
      <rect style="font-variation-settings:'wdth' 70,'wght' 600;display:inline;fill:#56676c;fill-opacity:1;stroke-width:8.08545;stroke-dasharray:none" id="rect324" width="274.37241" height="29.06435" x="-2599.3596" y="-447.87286" transform="scale(-1)"/>
      <rect style="font-variation-settings:'wdth' 70,'wght' 600;display:inline;fill:#586a6f;fill-opacity:1;stroke-width:8.08545;stroke-dasharray:none" id="rect325" width="274.37241" height="29.06435" x="-2599.3596" y="-476.93723" transform="scale(-1)"/>
      <rect style="font-variation-settings:'wdth' 70,'wght' 600;display:inline;fill:#5a6d72;fill-opacity:1;stroke-width:8.08545;stroke-dasharray:none" id="rect326" width="274.37241" height="29.06435" x="-2599.3596" y="-506.00159" transform="scale(-1)"/>
      <rect style="font-variation-settings:'wdth' 70,'wght' 600;display:inline;fill:#5c7075;fill-opacity:1;stroke-width:8.08545;stroke-dasharray:none" id="rect327" width="274.37241" height="29.06435" x="-2599.3596" y="-535.06592" transform="scale(-1)"/>
      <rect style="font-variation-settings:'wdth' 70,'wght' 600;display:inline;fill:#5e7378;fill-opacity:1;stroke-width:8.08545;stroke-dasharray:none" id="rect328" width="274.37241" height="29.06435" x="-2599.3596" y="-564.13025" transform="scale(-1)"/>
      <rect style="font-variation-settings:'wdth' 70,'wght' 600;display:inline;fill:#60767b;fill-opacity:1;stroke-width:8.08545;stroke-dasharray:none" id="rect329" width="274.37241" height="29.06435" x="-2599.3596" y="-593.19458" transform="scale(-1)"/>
      <rect style="font-variation-settings:'wdth' 70,'wght' 600;display:inline;fill:#62797e;fill-opacity:1;stroke-width:8.08545;stroke-dasharray:none" id="rect330" width="274.37241" height="29.06435" x="-2599.3596" y="-622.25891" transform="scale(-1)"/>
      <rect style="font-variation-settings:'wdth' 70,'wght' 600;display:inline;fill:#647c81;fill-opacity:1;stroke-width:8.08545;stroke-dasharray:none" id="rect331" width="274.37241" height="29.06435" x="-2599.3596" y="-622.25891" transform="rotate(180,0,14.532166)"/>
      <rect style="font-variation-settings:'wdth' 70,'wght' 600;display:inline;fill:#667f84;fill-opacity:1;stroke-width:8.08545;stroke-dasharray:none" id="rect332" width="274.37241" height="29.06435" x="-2599.3596" y="-622.25891" transform="rotate(180,0,29.064332)"/>
      <rect style="font-variation-settings:'wdth' 70,'wght' 600;display:inline;fill:#000;fill-opacity:1;stroke-width:1.49977;stroke-dasharray:none" id="rect723" width="274.37241" height="1.0000001" x="-2599.3596" y="-302.55106" transform="scale(-1)"/>
      <rect style="font-variation-settings:'wdth' 70,'wght' 600;display:inline;fill:#000;fill-opacity:1;stroke-width:1.49977;stroke-dasharray:none" id="rect724" width="274.37241" height="1.0000001" x="-2599.3596" y="-331.61542" transform="scale(-1)"/>
      <rect style="font-variation-settings:'wdth' 70,'wght' 600;display:inline;fill:#000;fill-opacity:1;stroke-width:1.49977;stroke-dasharray:none" id="rect725" width="274.37241" height="1.0000001" x="-2599.3596" y="-360.67978" transform="scale(-1)"/>
      <rect style="font-variation-settings:'wdth' 70,'wght' 600;display:inline;fill:#000;fill-opacity:1;stroke-width:1.49977;stroke-dasharray:none" id="rect726" width="274.37241" height="1.0000001" x="-2599.3596" y="-389.74414" transform="scale(-1)"/>
      <rect style="font-variation-settings:'wdth' 70,'wght' 600;display:inline;fill:#000;fill-opacity:1;stroke-width:1.49977;stroke-dasharray:none" id="rect727" width="274.37241" height="1.0000001" x="-2599.3596" y="-418.8085" transform="scale(-1)"/>
      <rect style="font-variation-settings:'wdth' 70,'wght' 600;display:inline;fill:#000;fill-opacity:1;stroke-width:1.49977;stroke-dasharray:none" id="rect728" width="274.37241" height="1.0000001" x="-2599.3596" y="-447.87286" transform="scale(-1)"/>
      <rect style="font-variation-settings:'wdth' 70,'wght' 600;display:inline;fill:#000;fill-opacity:1;stroke-width:1.49977;stroke-dasharray:none" id="rect729" width="274.37241" height="1.0000001" x="-2599.3596" y="-476.93723" transform="scale(-1)"/>
      <rect style="font-variation-settings:'wdth' 70,'wght' 600;display:inline;fill:#000;fill-opacity:1;stroke-width:1.49977;stroke-dasharray:none" id="rect730" width="274.37241" height="1.0000001" x="-2599.3596" y="-506.00156" transform="scale(-1)"/>
      <rect style="font-variation-settings:'wdth' 70,'wght' 600;display:inline;fill:#000;fill-opacity:1;stroke-width:1.49977;stroke-dasharray:none" id="rect731" width="274.37241" height="1.0000001" x="-2599.3596" y="-535.06592" transform="scale(-1)"/>
      <rect style="font-variation-settings:'wdth' 70,'wght' 600;display:inline;fill:#000;fill-opacity:1;stroke-width:1.49977;stroke-dasharray:none" id="rect732" width="274.37241" height="1.0000001" x="-2599.3596" y="-564.13025" transform="scale(-1)"/>
      <rect style="font-variation-settings:'wdth' 70,'wght' 600;display:inline;fill:#000;fill-opacity:1;stroke-width:1.49977;stroke-dasharray:none" id="rect733" width="274.37241" height="1.0000001" x="-2599.3596" y="-593.19458" transform="scale(-1)"/>
      <rect style="font-variation-settings:'wdth' 70,'wght' 600;display:inline;fill:#000;fill-opacity:1;stroke-width:1.49977;stroke-dasharray:none" id="rect734" width="274.37241" height="1.0000001" x="-2599.3596" y="-622.25891" transform="scale(-1)"/>
      <rect style="font-variation-settings:'wdth' 70,'wght' 600;display:inline;fill:#000;fill-opacity:1;stroke-width:1.49977;stroke-dasharray:none" id="rect735" width="274.37241" height="1.0000001" x="-2599.3596" y="-651.32324" transform="scale(-1)"/>
      <rect style="font-variation-settings:'wdth' 70,'wght' 600;display:inline;fill:#000;fill-opacity:1;stroke-width:1.49977;stroke-dasharray:none" id="rect736" width="274.37241" height="1.0000001" x="-2918.7314" y="-361.67981" transform="scale(-1)"/>
      <rect style="font-variation-settings:'wdth' 70,'wght' 600;display:inline;fill:#000;fill-opacity:1;stroke-width:1.49977;stroke-dasharray:none" id="rect737" width="274.37241" height="1.0000001" x="-2918.7314" y="-390.74417" transform="scale(-1)"/>
      <rect style="font-variation-settings:'wdth' 70,'wght' 600;display:inline;fill:#000;fill-opacity:1;stroke-width:1.49977;stroke-dasharray:none" id="rect738" width="274.37241" height="1.0000001" x="-2918.7314" y="-419.80853" transform="scale(-1)"/>
      <rect style="font-variation-settings:'wdth' 70,'wght' 600;display:inline;fill:#000;fill-opacity:1;stroke-width:1.49977;stroke-dasharray:none" id="rect739" width="274.37241" height="1.0000001" x="-2918.7314" y="-448.87289" transform="scale(-1)"/>
      <rect style="font-variation-settings:'wdth' 70,'wght' 600;display:inline;fill:#000;fill-opacity:1;stroke-width:1.49977;stroke-dasharray:none" id="rect740" width="274.37241" height="1.0000001" x="-2918.7314" y="-477.93726" transform="scale(-1)"/>
      <rect style="font-variation-settings:'wdth' 70,'wght' 600;display:inline;fill:#000;fill-opacity:1;stroke-width:1.49977;stroke-dasharray:none" id="rect741" width="274.37241" height="1.0000001" x="-2918.7314" y="-507.00165" transform="scale(-1)"/>
      <rect style="font-variation-settings:'wdth' 70,'wght' 600;display:inline;fill:#000;fill-opacity:1;stroke-width:1.49977;stroke-dasharray:none" id="rect742" width="274.37241" height="1.0000001" x="-2918.7314" y="-536.06598" transform="scale(-1)"/>
      <rect style="font-variation-settings:'wdth' 70,'wght' 600;display:inline;fill:#000;fill-opacity:1;stroke-width:1.49977;stroke-dasharray:none" id="rect743" width="274.37241" height="1.0000001" x="-2918.7314" y="-565.13031" transform="scale(-1)"/>
      <rect style="font-variation-settings:'wdth' 70,'wght' 600;display:inline;fill:#000;fill-opacity:1;stroke-width:1.49977;stroke-dasharray:none" id="rect744" width="274.37241" height="1.0000001" x="-2918.7314" y="-594.19464" transform="scale(-1)"/>
      <rect style="font-variation-settings:'wdth' 70,'wght' 600;display:inline;fill:#000;fill-opacity:1;stroke-width:1.49977;stroke-dasharray:none" id="rect745" width="274.37241" height="1.0000001" x="-2918.7314" y="-623.25897" transform="scale(-1)"/>
      <rect style="font-variation-settings:'wdth' 70,'wght' 600;display:inline;fill:#000;fill-opacity:1;stroke-width:1.49977;stroke-dasharray:none" id="rect746" width="274.37241" height="1.0000001" x="-2918.7314" y="-652.3233" transform="scale(-1)"/>
      <rect style="font-variation-settings:'wdth' 70,'wght' 600;display:inline;fill:#000;fill-opacity:1;stroke-width:1.49977;stroke-dasharray:none" id="rect747" width="274.37241" height="1.0000001" x="-2918.7314" y="-681.38745" transform="scale(-1)"/>
      <rect style="font-variation-settings:'wdth' 70,'wght' 600;display:inline;fill:#000;fill-opacity:1;stroke-width:1.49977;stroke-dasharray:none" id="rect748" width="274.37241" height="1.0000001" x="-2918.7314" y="-710.4519" transform="scale(-1)"/>
      <path style="font-variation-settings:'wdth' 70,'wght' 600;display:inline;opacity:1;fill:none;fill-opacity:1;stroke:#bec3c6;stroke-width:5;stroke-dasharray:none;stroke-opacity:1;marker-end:url(#Triangle)" d="M 2781.5454,694.76263 V 360.67978" id="path330" transform="translate(-4.1749921e-4,-8.386638e-5)"/>
      <path style="font-variation-settings:'wdth' 70,'wght' 600;display:inline;opacity:1;fill:none;fill-opacity:1;stroke:#bec3c6;stroke-width:5;stroke-dasharray:none;stroke-opacity:1;marker-end:url(#Triangle)" d="M 2462.1733,317.08324 V 651.32333" id="path332" transform="translate(-8.1749927e-4,-1.6386639e-4)"/>
    </g>
    <g id="walls_3" transform="matrix(0.02439371,0,0,0.02439371,-0.02443957,244.19953)" style="display:inline">
      <path style="font-variation-settings:'wdth' 70,'wght' 600;fill:none;stroke:#bec3c6;stroke-width:55;stroke-dasharray:none;stroke-opacity:1" d="M 5701,949.50012 V 142.00014 h -976.5 v -103.5 H 3167 C 3138.0391,-100.68428 3021.2,-225.92573 2845.5302,-225.92573 2664.0375,-226.03404 2553.0213,-97.648566 2528,38.50014 H 976.99999 v 103.5 H 43 V 1850.8139 h 5658 v -226.8137" id="path333"/>
      <path style="font-variation-settings:'wdth' 70,'wght' 600;fill:none;stroke:#bec3c6;stroke-width:45;stroke-linecap:butt;stroke-dasharray:none;stroke-opacity:1" d="M 451.98279,1225.5 H 42.999995" id="path335" transform="translate(-1.3713269e-7,-399.99985)"/>
      <path style="font-variation-settings:'wdth' 70,'wght' 600;fill:none;stroke:#bec3c6;stroke-width:45;stroke-linecap:butt;stroke-dasharray:none;stroke-opacity:1" d="M 2023.5615,825.50015 H 1489.143" id="path336"/>
      <path style="font-variation-settings:'wdth' 70,'wght' 600;fill:none;stroke:#bec3c6;stroke-width:45;stroke-linecap:butt;stroke-dasharray:none;stroke-opacity:1" d="M 2587.0561,1225.5 H 2123.5615" id="path338" transform="translate(-1.3713269e-7,-399.99985)"/>
      <path style="font-variation-settings:'wdth' 70,'wght' 600;fill:none;stroke:#bec3c6;stroke-width:45;stroke-linecap:butt;stroke-dasharray:none;stroke-opacity:1" d="M 3556.6685,1225.5 H 3115.0351" id="path339" transform="translate(-1.3713269e-7,-399.99985)"/>
      <path style="font-variation-settings:'wdth' 70,'wght' 600;fill:none;stroke:#bec3c6;stroke-width:45;stroke-linecap:butt;stroke-dasharray:none;stroke-opacity:1" d="M 5170.7518,825.50015 H 4973.6294" id="path340"/>
      <path style="font-variation-settings:'wdth' 70,'wght' 600;fill:none;stroke:#bec3c6;stroke-width:45;stroke-linecap:butt;stroke-dasharray:none;stroke-opacity:1" d="M 5467.3315,825.50015 H 5270.7518" id="path341"/>
      <path style="font-variation-settings:'wdth' 70,'wght' 600;fill:none;stroke:#bec3c6;stroke-width:45;stroke-linecap:butt;stroke-dasharray:none;stroke-opacity:1" d="M 5700.9993,1225.5 H 5567.3315" id="path342" transform="translate(-1.3713269e-7,-399.99985)"/>
      <path style="font-variation-settings:'wdth' 70,'wght' 600;fill:none;stroke:#bec3c6;stroke-width:45;stroke-linecap:butt;stroke-dasharray:none;stroke-opacity:1" d="M 466.48279,1573.5 H 42.999995" id="path343" transform="translate(-1.3713269e-7,-399.99985)"/>
      <path style="font-variation-settings:'wdth' 70,'wght' 600;fill:none;stroke:#bec3c6;stroke-width:45;stroke-linecap:butt;stroke-dasharray:none;stroke-opacity:1" d="M 1081.1285,1573.5 H 844.12852" id="path344" transform="translate(-1.3713269e-7,-399.99985)"/>
      <path style="font-variation-settings:'wdth' 70,'wght' 600;fill:none;stroke:#bec3c6;stroke-width:45;stroke-linecap:butt;stroke-dasharray:none;stroke-opacity:1" d="M 2023.5615,1573.5 H 1489.143" id="path345" transform="translate(-1.3713269e-7,-399.99985)"/>
      <path style="font-variation-settings:'wdth' 70,'wght' 600;fill:none;stroke:#bec3c6;stroke-width:45;stroke-linecap:butt;stroke-dasharray:none;stroke-opacity:1" d="m 2968.6121,1573.5 h -221.342" id="path346" transform="translate(-1.3713269e-7,-399.99985)"/>
      <path style="font-variation-settings:'wdth' 70,'wght' 600;fill:none;stroke:#bec3c6;stroke-width:45;stroke-linecap:butt;stroke-dasharray:none;stroke-opacity:1" d="M 4539.6952,1173.5001 H 4033.3491" id="path348"/>
      <path style="font-variation-settings:'wdth' 70,'wght' 600;fill:none;stroke:#bec3c6;stroke-width:45;stroke-linecap:butt;stroke-dasharray:none;stroke-opacity:1" d="M 5532.1161,1573.5 H 5425.6409" id="path349" transform="translate(-1.3713269e-7,-399.99985)"/>
      <path style="font-variation-settings:'wdth' 70,'wght' 600;fill:none;stroke:#bec3c6;stroke-width:45;stroke-linecap:butt;stroke-dasharray:none;stroke-opacity:1" d="m 5701,1573.5 h -68.8839" id="path350" transform="translate(-1.3713269e-7,-399.99985)"/>
      <path style="font-variation-settings:'wdth' 70,'wght' 600;fill:none;stroke:#bec3c6;stroke-width:45;stroke-linecap:butt;stroke-dasharray:none;stroke-opacity:1" d="m 5325.6409,1573.5 h -169" id="path351" transform="translate(-1.3713269e-7,-399.99985)"/>
      <path style="font-variation-settings:'wdth' 70,'wght' 600;fill:none;stroke:#bec3c6;stroke-width:45;stroke-linecap:butt;stroke-dasharray:none;stroke-opacity:1" d="M 5056.6409,1573.5 H 4953.2971" id="path352" transform="translate(-1.3713269e-7,-399.99985)"/>
      <path style="font-variation-settings:'wdth' 70,'wght' 600;fill:none;stroke:#bec3c6;stroke-width:45;stroke-linecap:butt;stroke-dasharray:none;stroke-opacity:1" d="M 2647.2701,1573.5 H 2123.5615" id="path353" transform="translate(-1.3713269e-7,-399.99985)"/>
      <path style="font-variation-settings:'wdth' 70,'wght' 600;fill:none;stroke:#bec3c6;stroke-width:35;stroke-linecap:butt;stroke-dasharray:none;stroke-opacity:1" d="M 986.99966,146.00014 V 825.50015" id="path357"/>
      <path style="font-variation-settings:'wdth' 70,'wght' 600;fill:none;stroke:#bec3c6;stroke-width:35;stroke-linecap:butt;stroke-dasharray:none;stroke-opacity:1" d="M 4714.5041,142.00015 V 821.50016" id="path358"/>
      <path style="font-variation-settings:'wdth' 70,'wght' 600;fill:none;stroke:#bec3c6;stroke-width:35;stroke-linecap:butt;stroke-dasharray:none;stroke-opacity:1" d="m 986.19107,1173.5001 v 679.5001" id="path359"/>
      <path style="font-variation-settings:'wdth' 70,'wght' 600;fill:none;stroke:#bec3c6;stroke-width:35;stroke-linecap:butt;stroke-dasharray:none;stroke-opacity:1" d="m 3157.5606,1173.5001 v 679.5001" id="path360"/>
      <path style="font-variation-settings:'wdth' 70,'wght' 600;fill:none;stroke:#bec3c6;stroke-width:35;stroke-linecap:butt;stroke-dasharray:none;stroke-opacity:1" d="m 2847.7802,1171.3138 v 679.5001" id="path361"/>
      <path style="font-variation-settings:'wdth' 70,'wght' 600;fill:none;stroke:#bec3c6;stroke-width:35;stroke-linecap:butt;stroke-dasharray:none;stroke-opacity:1" d="m 3777.1213,1173.5001 v 679.5001" id="path362"/>
      <path style="font-variation-settings:'wdth' 70,'wght' 600;fill:none;stroke:#bec3c6;stroke-width:35;stroke-linecap:butt;stroke-dasharray:none;stroke-opacity:1" d="m 4716.8663,1173.5001 v 679.5001" id="path364"/>
      <path style="font-variation-settings:'wdth' 70,'wght' 600;fill:none;stroke:#bec3c6;stroke-width:55;stroke-linecap:butt;stroke-dasharray:none;stroke-opacity:1" d="m 5701,1049.5001 v 574.5001" id="path365"/>
      <path style="font-variation-settings:'wdth' 70,'wght' 600;fill:none;stroke:#bec3c6;stroke-width:10;stroke-linecap:butt;stroke-dasharray:none;stroke-opacity:1" d="m 2519.4057,1173.5001 v 292.5 h 333" id="path368"/>
      <path style="font-variation-settings:'wdth' 70,'wght' 600;fill:none;stroke:#bec3c6;stroke-width:10;stroke-linecap:butt;stroke-dasharray:none;stroke-opacity:1" d="m 2624.9057,1173.5002 v 292.4999" id="path369"/>
      <path style="font-variation-settings:'wdth' 70,'wght' 600;fill:none;stroke:#bec3c6;stroke-width:45;stroke-linecap:butt;stroke-dasharray:none;stroke-opacity:1" d="M 2528.4081,40.500034 V 825.50015" id="path370"/>
      <path style="font-variation-settings:'wdth' 70,'wght' 600;fill:none;stroke:#bec3c6;stroke-width:45;stroke-linecap:butt;stroke-dasharray:none;stroke-opacity:1" d="M 3167.1524,40.500034 V 825.50015" id="path371"/>
      <path style="font-variation-settings:'wdth' 70,'wght' 600;fill:none;stroke:#bec3c6;stroke-width:10;stroke-linecap:butt;stroke-dasharray:none;stroke-opacity:1" d="M 5545.212,1457.3359 H 5165.4256" id="path372"/>
      <path style="font-variation-settings:'wdth' 70,'wght' 600;fill:none;stroke:#bec3c6;stroke-width:10;stroke-linecap:butt;stroke-dasharray:none;stroke-opacity:1" d="m 5690,1457.3359 h -44.788" id="path373"/>
      <path style="font-variation-settings:'wdth' 70,'wght' 600;fill:none;stroke:#bec3c6;stroke-width:10;stroke-linecap:butt;stroke-dasharray:none;stroke-opacity:1" d="M 5232.2518,1457.3359 V 1173.5002" id="path374"/>
      <path style="font-variation-settings:'wdth' 70,'wght' 600;fill:none;stroke:#bec3c6;stroke-width:10;stroke-linecap:butt;stroke-dasharray:none;stroke-opacity:1" d="M 5467.8483,1457.3359 V 1173.5002" id="path375"/>
      <path style="font-variation-settings:'wdth' 70,'wght' 600;fill:none;stroke:#bec3c6;stroke-width:10;stroke-linecap:butt;stroke-dasharray:none;stroke-opacity:1" d="m 5341.0618,1850.8139 v -393.478" id="path376"/>
      <path style="font-variation-settings:'wdth' 70,'wght' 600;fill:none;stroke:#bec3c6;stroke-width:10;stroke-linecap:butt;stroke-dasharray:none;stroke-opacity:1" d="m 5341.0618,1850.8139 v -393.478" id="path378"/>
      <path style="font-variation-settings:'wdth' 70,'wght' 600;fill:none;stroke:#bec3c6;stroke-width:10;stroke-linecap:butt;stroke-dasharray:none;stroke-opacity:1" d="M 5025.6045,1850.8139 V 1173.5002" id="path379"/>
      <path style="font-variation-settings:'wdth' 70,'wght' 600;fill:none;stroke:#bec3c6;stroke-width:45;stroke-linecap:butt;stroke-dasharray:none;stroke-opacity:1" d="m 2847.7802,448.39324 v 90.79112" id="path380"/>
      <path style="font-variation-settings:'wdth' 70,'wght' 600;fill:none;stroke:#bec3c6;stroke-width:45;stroke-linecap:butt;stroke-dasharray:none;stroke-opacity:1" d="m 2847.7802,132.27078 v 87.18338" id="path381"/>
      <path style="font-variation-settings:'wdth' 70,'wght' 600;fill:none;stroke:#bec3c6;stroke-width:10;stroke-linecap:butt;stroke-dasharray:none;stroke-opacity:1" d="m 2655.3548,843.00015 h -68.2987" id="path382"/>
      <path style="font-variation-settings:'wdth' 70,'wght' 600;fill:none;stroke:#bec3c6;stroke-width:10;stroke-linecap:butt;stroke-dasharray:none;stroke-opacity:1" d="m 3115.0351,843.00015 h -68.2987" id="path383"/>
      <path style="font-variation-settings:'wdth' 70,'wght' 600;fill:none;stroke:#bec3c6;stroke-width:10;stroke-linecap:butt;stroke-dasharray:none;stroke-opacity:1" d="m 2881.9295,843.00015 h -68.2987" id="path384"/>
      <rect style="font-variation-settings:'wdth' 70,'wght' 600;fill:#bec3c6;fill-opacity:1;stroke:none;stroke-width:0;stroke-linecap:butt;stroke-dasharray:none;stroke-opacity:1" id="rect384" width="105.50003" height="292.49976" x="2519.4058" y="1173.5002"/>
      <path style="font-variation-settings:'wdth' 70,'wght' 600;fill:none;stroke:#bec3c6;stroke-width:45;stroke-linecap:butt;stroke-dasharray:none;stroke-opacity:1" d="M 1389.143,825.50015 H 844.12852" id="path385"/>
      <path style="font-variation-settings:'wdth' 70,'wght' 600;fill:none;stroke:#bec3c6;stroke-width:45;stroke-linecap:butt;stroke-dasharray:none;stroke-opacity:1" d="M 744.12851,1173.5001 H 566.4828" id="path387"/>
      <path style="font-variation-settings:'wdth' 70,'wght' 600;fill:none;stroke:#bec3c6;stroke-width:45;stroke-linecap:butt;stroke-dasharray:none;stroke-opacity:1" d="M 1389.143,1173.5001 H 1181.1286" id="path388"/>
      <path style="font-variation-settings:'wdth' 70,'wght' 600;fill:none;stroke:#bec3c6;stroke-width:45;stroke-linecap:butt;stroke-dasharray:none;stroke-opacity:1" d="M 3268.2109,1173.5001 H 3068.6121" id="path390"/>
      <path style="font-variation-settings:'wdth' 70,'wght' 600;fill:none;stroke:#bec3c6;stroke-width:10;stroke-linecap:butt;stroke-dasharray:none;stroke-opacity:1" d="m 2519.4073,1682.7208 v 168.0931" id="path391"/>
      <path style="font-variation-settings:'wdth' 70,'wght' 600;fill:none;stroke:#bec3c6;stroke-width:10;stroke-linecap:butt;stroke-dasharray:none;stroke-opacity:1" d="m 1273.6361,1173.5001 v 677.3138" id="path392"/>
      <path style="font-variation-settings:'wdth' 70,'wght' 600;fill:none;stroke:#bec3c6;stroke-width:10;stroke-linecap:butt;stroke-dasharray:none;stroke-opacity:1" d="m 651.22039,1460.4018 v 390.4121" id="path393"/>
      <path style="font-variation-settings:'wdth' 70,'wght' 600;fill:none;stroke:#bec3c6;stroke-width:45;stroke-linecap:butt;stroke-dasharray:none;stroke-opacity:1" d="M 3562.4727,1173.5001 H 3368.2109" id="path400"/>
      <path style="font-variation-settings:'wdth' 70,'wght' 600;fill:none;stroke:#bec3c6;stroke-width:45;stroke-linecap:butt;stroke-dasharray:none;stroke-opacity:1" d="M 3883.4992,1173.5001 H 3662.4727" id="path401"/>
      <path style="font-variation-settings:'wdth' 70,'wght' 600;fill:none;stroke:#bec3c6;stroke-width:45;stroke-linecap:butt;stroke-dasharray:none;stroke-opacity:1" d="M 4853.2971,1173.5001 H 4639.6952" id="path402"/>
      <path style="font-variation-settings:'wdth' 70,'wght' 600;fill:none;stroke:#bec3c6;stroke-width:10;stroke-linecap:butt;stroke-dasharray:none;stroke-opacity:1" d="m 5065.4256,1457.3359 h -39.8211" id="path403"/>
      <path style="font-variation-settings:'wdth' 70,'wght' 600;fill:none;stroke:#bec3c6;stroke-width:45;stroke-linecap:butt;stroke-dasharray:none;stroke-opacity:1" d="M 4204.099,825.50015 H 3656.6685" id="path404"/>
      <path style="font-variation-settings:'wdth' 70,'wght' 600;fill:none;stroke:#bec3c6;stroke-width:10;stroke-linecap:butt;stroke-dasharray:none;stroke-opacity:1" d="M 1588.7163,38.50014 V 825.50015" id="path410"/>
      <path style="font-variation-settings:'wdth' 70,'wght' 600;fill:none;stroke:#bec3c6;stroke-width:10;stroke-linecap:butt;stroke-dasharray:none;stroke-opacity:1" d="m 1548.5812,1173.5001 v 677.3138" id="path419"/>
      <path style="font-variation-settings:'wdth' 70,'wght' 600;fill:none;stroke:#bec3c6;stroke-width:35;stroke-linecap:butt;stroke-dasharray:none;stroke-opacity:1" d="m 3467.3409,1173.5001 v 679.5001" id="path420"/>
      <path style="font-variation-settings:'wdth' 70,'wght' 600;fill:none;stroke:#bec3c6;stroke-width:10;stroke-linecap:butt;stroke-dasharray:none;stroke-opacity:1" d="M 5043.8361,819.31384 V 142.00014" id="path421"/>
      <path style="font-variation-settings:'wdth' 70,'wght' 600;fill:none;stroke:#bec3c6;stroke-width:10;stroke-linecap:butt;stroke-dasharray:none;stroke-opacity:1" d="M 5360.668,819.31384 V 142.00014" id="path422"/>
      <path style="font-variation-settings:'wdth' 70,'wght' 600;fill:none;stroke:#bec3c6;stroke-width:45;stroke-linecap:butt;stroke-dasharray:none;stroke-opacity:1" d="M 744.12851,825.50015 H 551.9828" id="path423"/>
      <path style="font-variation-settings:'wdth' 70,'wght' 600;fill:none;stroke:#bec3c6;stroke-width:10;stroke-linecap:butt;stroke-dasharray:none;stroke-opacity:1" d="m 651.22039,1049.5001 v 310.9017" id="path424"/>
      <path style="font-variation-settings:'wdth' 70,'wght' 600;fill:none;stroke:#bec3c6;stroke-width:10;stroke-linecap:butt;stroke-dasharray:none;stroke-opacity:1" d="M 651.22039,825.50015 V 949.50012" id="path425"/>
      <path style="font-variation-settings:'wdth' 70,'wght' 600;fill:none;stroke:#bec3c6;stroke-width:45;stroke-linecap:butt;stroke-dasharray:none;stroke-opacity:1" d="M 4873.6294,825.50015 H 4304.0991" id="path426"/>
      <path style="font-variation-settings:'wdth' 70,'wght' 600;fill:none;stroke:#bec3c6;stroke-width:10;stroke-linecap:butt;stroke-dasharray:none;stroke-opacity:1" d="m 2519.4073,1414.6277 v 168.0931" id="path427"/>
    </g>
    <g id="icons_3" transform="matrix(0.02439371,0,0,0.02439371,-0.02443957,244.19953)" style="display:inline">
      <path d="m 5498.731,1690.325 v -31.8652 h -10.1036 v -32.2539 q 0,-3.5622 2.5583,-6.1205 2.5583,-2.5583 6.1205,-2.5583 h 19.9482 q 3.5621,0 6.1204,2.5583 2.5583,2.5583 2.5583,6.1205 v 32.2539 h -10.1036 v 31.8652 z m 8.5596,-82.6425 q -3.6891,0 -6.1891,-2.5544 -2.5,-2.5545 -2.5,-6.1139 0,-3.6892 2.4896,-6.1892 2.4899,-2.5 6.1788,-2.5 3.6891,0 6.1891,2.4897 2.5,2.4897 2.5,6.1787 0,3.5596 -2.4896,6.1244 -2.4897,2.5647 -6.1788,2.5647 z" id="path413" style="fill:#fff;fill-opacity:.798742;stroke-width:.129534;filter:url(#filter17)"/>
      <path d="m 5174.1563,1690.325 v -30.0518 h -14.7668 l 14.2098,-39.4458 q 1.121,-2.8983 3.8366,-4.5889 2.7155,-1.6907 5.7878,-1.6907 3.0723,0 5.7878,1.6907 2.7156,1.6906 3.8542,4.5779 l 14.1922,39.4568 h -14.7668 v 30.0518 z m 9.0778,-82.6424 q -3.6892,0 -6.1892,-2.5504 -2.5,-2.5504 -2.5,-6.118 0,-3.6892 2.4897,-6.1892 2.4899,-2.5 6.1787,-2.5 3.6892,0 6.1892,2.4897 2.5,2.4897 2.5,6.114 0,3.6243 -2.4897,6.1891 -2.4896,2.5648 -6.1787,2.5648 z" id="path414" style="fill:#fff;fill-opacity:.803459;stroke-width:.129534;filter:url(#filter15)"/>
      <g id="g417" style="filter:url(#filter65)" transform="translate(279.7331,292.3392)">
        <rect style="font-variation-settings:'wdth' 70,'wght' 600;fill:none;fill-opacity:1;stroke:#d6d7de;stroke-width:4.78791;stroke-linejoin:miter;stroke-dasharray:none;stroke-opacity:1" id="rect416" width="95.212135" height="95.212151" x="2405.0667" y="979.80487" ry="9.1410179"/>
        <path d="m 2427.7505,1062.6135 h 12.6169 v -23.8318 h 6.2306 v -17.757 c 0,-2.6337 -0.8992,-4.8497 -2.6976,-6.6481 -1.7985,-1.7985 -4.0665,-2.6977 -6.804,-2.6977 h -6.2306 c -2.7375,0 -4.9794,0.8992 -6.7258,2.6977 -1.7466,1.7984 -2.6199,4.0144 -2.6199,6.6481 v 17.757 h 6.2304 z m 6.1958,-54.9845 c 2.1478,0 3.9626,-0.7033 5.4445,-2.1098 1.4819,-1.4064 2.2228,-3.2356 2.2228,-5.4875 0,-2.148 -0.7292,-3.93697 -2.1877,-5.3669 -1.4583,-1.42987 -3.2615,-2.1448 -5.4096,-2.1448 -2.1481,0 -3.937,0.70327 -5.3669,2.1098 -1.4299,1.4064 -2.1449,3.18367 -2.1449,5.3318 0,2.2518 0.7033,4.0926 2.11,5.5225 1.4064,1.4299 3.1837,2.1449 5.3318,2.1449 z m 28.3838,9.9689 h 20.0934 l -9.9688,-16.1994 z m 10.1246,35.6697 9.9688,-16.1993 h -20.0934 z" id="path417" style="fill:#d5d6dd;fill-opacity:1;stroke-width:0;stroke-dasharray:none"/>
      </g>
    </g>
    <path id="roomNames_3" d="m 320.18871,357.44759 q -9.792,0 -17.856,-2.304 -7.872,-2.112 -14.016,-5.952 -6.144,-3.84 -10.56,-9.024 l 13.056,-17.856 q 5.568,5.376 12.288,8.832 6.72,3.456 14.4,3.456 8.832,0 14.208,-3.648 5.568,-3.84 5.568,-10.752 0,-5.376 -2.688,-9.216 -2.688,-4.032 -9.792,-6.144 -6.912,-2.112 -20.352,-2.112 v -19.968 q 10.944,0 17.28,-2.112 6.336,-2.112 8.832,-5.76 2.688,-3.648 2.688,-8.448 0,-6.528 -4.032,-9.984 -3.84,-3.456 -10.944,-3.456 -6.528,0 -11.904,2.88 -5.184,2.688 -10.944,7.872 l -14.208,-17.28 q 8.448,-7.296 17.856,-11.328 9.408,-4.224 20.544,-4.224 12.48,0 21.888,4.032 9.6,3.84 14.784,11.328 5.376,7.296 5.376,18.048 0,9.408 -5.376,16.128 -5.184,6.72 -14.976,10.944 v 0.768 q 6.912,2.112 12.48,6.144 5.568,3.84 8.64,9.792 3.072,5.952 3.072,13.824 0,11.328 -6.336,19.392 -6.144,7.872 -16.512,12.096 -10.176,4.032 -22.464,4.032 z m 68.15998,-2.304 v -22.848 h 26.496 v -70.464 h -22.848 v -17.472 q 9.984,-1.92 16.896,-4.608 7.104,-2.688 13.44,-6.528 h 20.736 v 99.072 h 22.848 v 22.848 z m 131.90398,2.304 q -12.096,0 -20.928,-4.416 -8.832,-4.416 -14.784,-10.176 l 14.976,-16.896 q 3.072,3.456 8.256,6.144 5.376,2.496 10.56,2.496 7.296,0 12.864,-4.032 5.76,-4.032 9.024,-13.44 3.456,-9.6 3.456,-25.728 0,-15.168 -2.88,-23.616 -2.688,-8.64 -7.296,-12.096 -4.416,-3.648 -9.6,-3.648 -4.032,0 -7.68,2.112 -3.456,2.112 -5.568,6.336 -2.112,4.224 -2.112,11.328 0,6.336 2.112,10.368 2.112,3.84 5.76,5.568 3.648,1.728 8.256,1.728 4.8,0 9.792,-2.88 4.992,-3.072 9.024,-10.176 l 1.344,18.432 q -4.608,6.72 -12.096,10.752 -7.488,3.84 -13.632,3.84 -10.368,0 -18.624,-4.032 -8.256,-4.032 -13.056,-12.288 -4.608,-8.448 -4.608,-21.312 0,-12.672 5.568,-21.888 5.568,-9.216 14.784,-14.016 9.216,-4.992 20.16,-4.992 9.024,0 17.28,3.456 8.256,3.456 14.592,10.752 6.528,7.296 10.368,18.816 4.032,11.328 4.032,27.456 0,17.088 -4.224,29.568 -4.032,12.48 -10.944,20.544 -6.912,8.064 -15.744,12.096 -8.832,3.84 -18.432,3.84 z m -149.66413,-240 q -17.088,0 -31.104,-7.104 -13.824,-7.296 -22.08,-21.504002 -8.064,-14.4 -8.064,-35.52 0,-15.552 4.8,-27.648 4.8,-12.288 13.248,-20.7360004 8.448,-8.448 19.392,-12.864 11.136,-4.4159996 23.616,-4.4159996 13.632,0 23.424,4.7999996 9.792,4.8 15.936,11.52 l -14.784,17.0880004 q -4.608,-4.224 -10.176,-6.528 -5.376,-2.496 -13.44,-2.496 -9.6,0 -17.088,4.992 -7.488,4.8 -11.712,13.824 -4.224,9.024 -4.224,21.504 0,12.864 3.84,22.08 4.032,9.024 11.712,13.824 7.872,4.8 19.584,4.8 3.84,0 7.488,-0.96 3.648,-0.96 5.952,-2.88 v -21.504 h -20.736 v -23.04 h 45.696 v 57.600002 q -6.336,6.336 -17.28,10.752 -10.752,4.416 -24,4.416 z m 116.5441,0 q -12.288,0 -21.696,-3.264 -9.216,-3.456 -15.552,-10.56 -6.336,-7.296002 -9.6,-18.432002 -3.264,-11.136 -3.264,-26.496 v -68.736 h 28.416 v 71.616 q 0,11.712 2.496,18.624 2.496,6.72 7.296,9.792 4.8,3.072 11.904,3.072 6.912,0 11.904,-3.072 4.992,-3.072 7.488,-9.792 2.688,-6.912 2.688,-18.624 v -71.616 h 27.264 v 68.736 q 0,15.36 -3.264,26.496 -3.072,11.136 -9.408,18.432002 -6.144,7.104 -15.36,10.56 -9.216,3.264 -21.312,3.264 z M -1325.7224,831.49964 q -4.896,0 -8.9279,-1.152 -3.936,-1.056 -7.0081,-2.976 -3.0719,-1.92 -5.28,-4.512 l 6.5281,-8.928 q 2.784,2.688 6.144,4.416 3.36,1.728 7.2,1.728 4.416,0 7.104,-1.824 2.7839,-1.92 2.7839,-5.376 0,-2.688 -1.3439,-4.608 -1.344,-2.016 -4.8961,-3.072 -3.4559,-1.056 -10.1759,-1.056 v -9.984 q 5.472,0 8.6399,-1.056 3.1681,-1.056 4.4161,-2.88 1.344,-1.824 1.344,-4.224 0,-3.264 -2.016,-4.992 -1.9201,-1.728 -5.472,-1.728 -3.2641,0 -5.952,1.44 -2.5921,1.344 -5.472,3.936 l -7.104,-8.64 q 4.2239,-3.648 8.9279,-5.664 4.7041,-2.112 10.2721,-2.112 6.24,0 10.944,2.016 4.8,1.92 7.392,5.664 2.6879,3.648 2.6879,9.024 0,4.704 -2.6879,8.064 -2.592,3.36 -7.488,5.472 v 0.384 q 3.4559,1.056 6.24,3.072 2.784,1.92 4.32,4.896 1.536,2.976 1.536,6.912 0,5.664 -3.168,9.696 -3.072,3.936 -8.256,6.048 -5.088,2.016 -11.2321,2.016 z m 34.08,-1.152 v -11.424 h 13.248 v -35.232 h -11.424 v -8.736 q 4.992,-0.96 8.448,-2.304 3.552,-1.344 6.72,-3.264 h 10.368 v 49.536 h 11.424 v 11.424 z m 58.368,0 q 0.48,-7.584 1.536,-13.92 1.056,-6.432 2.976,-12.192 2.016,-5.76 5.088,-11.328 3.072,-5.568 7.584,-11.616 h -27.36 v -11.904 h 42.432 v 8.64 q -5.376,6.528 -8.832,12.192 -3.36,5.664 -5.184,11.52 -1.824,5.856 -2.688,12.768 -0.864,6.912 -1.344,15.84 z m -67.248,-118.848 q -8.544,0 -15.552,-3.552 -6.912,-3.648 -11.04,-10.752 -4.032,-7.2 -4.032,-17.76 0,-7.776 2.4,-13.824 2.4,-6.144 6.624,-10.368 4.224,-4.224 9.696,-6.432 5.568,-2.208 11.808,-2.208 6.816,0 11.712,2.4 4.896,2.4 7.968,5.76 l -7.392,8.544 q -2.304,-2.112 -5.088,-3.264 -2.688,-1.248 -6.72,-1.248 -4.8,0 -8.544,2.496 -3.744,2.4 -5.856,6.912 -2.112,4.512 -2.112,10.752 0,6.432 1.92,11.04 2.016,4.512 5.856,6.912 3.936,2.4 9.792,2.4 1.92,0 3.744,-0.48 1.824,-0.48 2.976,-1.44 v -10.752 h -10.368 v -11.52 h 22.848 v 28.8 q -3.168,3.168 -8.64,5.376 -5.376,2.208 -12,2.208 z m 58.272,0 q -6.144,0 -10.848,-1.632 -4.608,-1.728 -7.776,-5.28 -3.168,-3.648 -4.8,-9.216 -1.632,-5.568 -1.632,-13.248 v -34.368 h 14.208 v 35.808 q 0,5.856 1.248,9.312 1.248,3.36 3.648,4.896 2.4,1.536 5.952,1.536 3.456,0 5.952,-1.536 2.496,-1.536 3.744,-4.896 1.344,-3.456 1.344,-9.312 v -35.808 h 13.632 v 34.368 q 0,7.68 -1.632,13.248 -1.536,5.568 -4.704,9.216 -3.072,3.552 -7.68,5.28 -4.608,1.632 -10.656,1.632 z m 965.9196,633.75006 q -4.896,0 -8.928,-1.152 -3.936,-1.056 -7.008,-2.976 -3.072,-1.92 -5.28,-4.512 l 6.528,-8.928 q 2.784,2.688 6.144,4.416 3.36,1.728 7.2,1.728 4.416,0 7.104,-1.824 2.784,-1.92 2.784,-5.376 0,-2.688 -1.344,-4.608 -1.344,-2.016 -4.896,-3.072 -3.456,-1.056 -10.176,-1.056 v -9.984 q 5.472,0 8.64,-1.056 3.168,-1.056 4.416,-2.88 1.344,-1.824 1.344,-4.224 0,-3.264 -2.016,-4.992 -1.92,-1.728 -5.472,-1.728 -3.264,0 -5.952,1.44 -2.592,1.344 -5.472,3.936 l -7.104,-8.64 q 4.224,-3.648 8.928,-5.664 4.704,-2.112 10.272,-2.112 6.24,0 10.944,2.016 4.8,1.92 7.392,5.664 2.688,3.648 2.688,9.024 0,4.704 -2.688,8.064 -2.592,3.36 -7.488,5.472 v 0.384 q 3.456,1.056 6.24,3.072 2.784,1.92 4.32,4.896 1.536,2.976 1.536,6.912 0,5.664 -3.168,9.696 -3.072,3.936 -8.256,6.048 -5.088,2.016 -11.232,2.016 z m 34.07999,-1.152 v -11.424 h 13.248 v -35.232 h -11.424 v -8.736 q 4.992,-0.96 8.448,-2.304 3.552,-1.344 6.72,-3.264 h 10.368 v 49.536 h 11.424 v 11.424 z m 72.19198,0 v -35.232 q 0,-2.88 0.192,-6.816 0.288,-3.936 0.384,-6.816 h -0.384 q -1.152,2.496 -2.4,5.088 -1.248,2.496 -2.592,5.184 l -8.064,13.248 h 33.024 v 10.752 h -46.56 v -9.696 l 22.272,-36.672 h 17.28 v 60.96 z m -81.07206,-118.848 q -8.544,0 -15.552,-3.552 -6.912,-3.648 -11.04,-10.752 -4.032,-7.2 -4.032,-17.76 0,-7.776 2.4,-13.824 2.4,-6.144 6.624,-10.368 4.224,-4.224 9.696,-6.432 5.568,-2.208 11.808,-2.208 6.816,0 11.712,2.4 4.896,2.4 7.968,5.76 l -7.392,8.544 q -2.304,-2.112 -5.088,-3.264 -2.688,-1.248 -6.72,-1.248 -4.8,0 -8.544,2.496 -3.744,2.4 -5.856,6.912 -2.112,4.512 -2.112,10.752 0,6.432 1.92,11.04 2.016,4.512 5.856,6.912 3.936,2.4 9.792,2.4 1.92,0 3.744,-0.48 1.824,-0.48 2.976,-1.44 v -10.752 h -10.368 v -11.52 h 22.848 v 28.8 q -3.168,3.168 -8.64,5.376 -5.376,2.208 -12,2.208 z m 58.27205,0 q -6.144,0 -10.848,-1.632 -4.608,-1.728 -7.776,-5.28 -3.168,-3.648 -4.8,-9.216 -1.632,-5.568 -1.632,-13.248 v -34.368 h 14.208 v 35.808 q 0,5.856 1.248,9.312 1.248,3.36 3.648,4.896 2.4,1.536 5.952,1.536 3.456,0 5.952,-1.536 2.496,-1.536 3.744,-4.896 1.344,-3.456 1.344,-9.312 v -35.808 h 13.632 v 34.368 q 0,7.68 -1.632,13.248 -1.536,5.568 -4.704,9.216 -3.072,3.552 -7.68,5.28 -4.608,1.632 -10.656,1.632 z m -684.08619,120 q -4.896,0 -8.928,-1.152 -3.936,-1.056 -7.008,-2.976 -3.072,-1.92 -5.28,-4.512 l 6.528,-8.928 q 2.784,2.688 6.144,4.416 3.36,1.728 7.2,1.728 4.416,0 7.104,-1.824 2.784,-1.92 2.784,-5.376 0,-2.688 -1.344,-4.608 -1.344,-2.016 -4.896,-3.072 -3.456,-1.056 -10.176,-1.056 v -9.984 q 5.472,0 8.64,-1.056 3.168,-1.056 4.416,-2.88 1.344,-1.824 1.344,-4.224 0,-3.264 -2.016,-4.992 -1.92,-1.728 -5.472,-1.728 -3.264,0 -5.952,1.44 -2.592,1.344 -5.472,3.936 l -7.104,-8.64 q 4.224,-3.648 8.928,-5.664 4.704,-2.112 10.272,-2.112 6.24,0 10.944,2.016 4.8,1.92 7.392,5.664 2.688,3.648 2.688,9.024 0,4.704 -2.688,8.064 -2.592,3.36 -7.488,5.472 v 0.384 q 3.456,1.056 6.24,3.072 2.784,1.92 4.32,4.896 1.536,2.976 1.536,6.912 0,5.664 -3.168,9.696 -3.072,3.936 -8.256,6.048 -5.088,2.016 -11.232,2.016 z m 34.07999,-1.152 v -11.424 h 13.248 v -35.232 h -11.424 v -8.736 q 4.992,-0.96 8.448,-2.304 3.552,-1.344 6.72,-3.264 h 10.368 v 49.536 h 11.424 v 11.424 z m 70.94398,1.152 q -4.416,0 -8.544,-1.728 -4.128,-1.728 -7.392,-5.376 -3.264,-3.648 -5.184,-9.312 -1.92,-5.76 -1.92,-13.824 0,-8.544 2.016,-14.784 2.016,-6.24 5.472,-10.272 3.456,-4.032 7.872,-5.952 4.416,-2.016 9.312,-2.016 6.048,0 10.464,2.208 4.416,2.112 7.296,5.088 l -7.392,8.448 q -1.632,-1.728 -4.224,-2.976 -2.592,-1.344 -5.28,-1.344 -3.456,0 -6.432,2.016 -2.88,2.016 -4.608,6.816 -1.632,4.704 -1.632,12.768 0,7.584 1.344,11.904 1.44,4.224 3.744,6.048 2.304,1.728 4.8,1.728 2.112,0 3.84,-1.056 1.728,-1.056 2.784,-3.168 1.056,-2.208 1.056,-5.664 0,-3.264 -1.056,-5.184 -1.056,-1.92 -2.88,-2.784 -1.728,-0.864 -4.032,-0.864 -2.4,0 -4.992,1.44 -2.496,1.44 -4.512,5.088 l -0.672,-9.216 q 2.4,-3.552 6.144,-5.376 3.744,-1.92 6.72,-1.92 5.184,0 9.312,2.016 4.128,2.016 6.432,6.24 2.4,4.128 2.4,10.56 0,6.336 -2.784,10.944 -2.688,4.608 -7.296,7.104 -4.608,2.4 -10.176,2.4 z m -79.82406,-120 q -8.544,0 -15.552,-3.552 -6.912,-3.648 -11.04,-10.752 -4.032,-7.2 -4.032,-17.76 0,-7.776 2.4,-13.824 2.4,-6.144 6.624,-10.368 4.224,-4.224 9.696,-6.432 5.568,-2.208 11.808,-2.208 6.816,0 11.712,2.4 4.896,2.4 7.968,5.76 l -7.392,8.544 q -2.304,-2.112 -5.088,-3.264 -2.688,-1.248 -6.72,-1.248 -4.8,0 -8.544,2.496 -3.744,2.4 -5.856,6.912 -2.112,4.512 -2.112,10.752 0,6.432 1.92,11.04 2.016,4.512 5.856,6.912 3.936,2.4 9.792,2.4 1.92,0 3.744,-0.48 1.824,-0.48 2.976,-1.44 v -10.752 h -10.368 v -11.52 h 22.848 v 28.8 q -3.168,3.168 -8.64,5.376 -5.376,2.208 -12,2.208 z m 58.27205,0 q -6.144,0 -10.848,-1.632 -4.608,-1.728 -7.776,-5.28 -3.168,-3.648 -4.8,-9.216 -1.632,-5.568 -1.632,-13.248 v -34.368 h 14.208 v 35.808 q 0,5.856 1.248,9.312 1.248,3.36 3.648,4.896 2.4,1.536 5.952,1.536 3.456,0 5.952,-1.536 2.496,-1.536 3.744,-4.896 1.344,-3.456 1.344,-9.312 v -35.808 h 13.632 v 34.368 q 0,7.68 -1.632,13.248 -1.536,5.568 -4.704,9.216 -3.072,3.552 -7.68,5.28 -4.608,1.632 -10.656,1.632 z m -586.05733,113.856 q -4.896,0 -8.9279,-1.152 -3.9361,-1.056 -7.0081,-2.976 -3.072,-1.92 -5.2799,-4.512 l 6.528,-8.928 q 2.7839,2.688 6.144,4.416 3.3599,1.728 7.1999,1.728 4.4161,0 7.104,-1.824 2.784,-1.92 2.784,-5.376 0,-2.688 -1.344,-4.608 -1.344,-2.016 -4.896,-3.072 -3.456,-1.056 -10.1759,-1.056 v -9.984 q 5.4719,0 8.6399,-1.056 3.1681,-1.056 4.416,-2.88 1.344,-1.824 1.344,-4.224 0,-3.264 -2.016,-4.992 -1.92,-1.728 -5.472,-1.728 -3.264,0 -5.952,1.44 -2.592,1.344 -5.472,3.936 l -7.1039,-8.64 q 4.224,-3.648 8.9279,-5.664 4.704,-2.112 10.272,-2.112 6.24,0 10.944,2.016 4.8001,1.92 7.392,5.664 2.6881,3.648 2.6881,9.024 0,4.704 -2.6881,8.064 -2.5919,3.36 -7.488,5.472 v 0.384 q 3.456,1.056 6.2401,3.072 2.7839,1.92 4.32,4.896 1.5359,2.976 1.5359,6.912 0,5.664 -3.168,9.696 -3.0719,3.936 -8.256,6.048 -5.088,2.016 -11.232,2.016 z m 34.08,-1.152 v -11.424 h 13.248 v -35.232 h -11.424 v -8.736 q 4.992,-0.96 8.448,-2.304 3.552,-1.344 6.72,-3.264 h 10.368 v 49.536 h 11.424 v 11.424 z m 58.368,0 q 0.48,-7.584 1.536,-13.92 1.056,-6.432 2.976,-12.192 2.016,-5.76 5.088,-11.328 3.072,-5.568 7.584,-11.616 h -27.36 v -11.904 h 42.432 v 8.64 q -5.376,6.528 -8.832,12.192 -3.36,5.664 -5.184,11.52 -1.824,5.856 -2.688,12.768 -0.864,6.912 -1.344,15.84 z m 37.44,13.44 v -7.968 h 45.696 v 7.968 z m 46.272,-13.44 19.584,-62.592 h 16.896 l 19.68,62.592 h -14.976 l -8.16,-31.68 q -1.344,-4.704 -2.592,-9.984 -1.248,-5.28 -2.496,-10.176 h -0.384 q -1.056,4.896 -2.304,10.176 -1.248,5.28 -2.592,9.984 l -8.256,31.68 z m 12.864,-14.88 v -11.04 h 30.144 v 11.04 z m -112.32,-103.968 q -8.544,0 -15.552,-3.552 -6.912,-3.648 -11.04,-10.752 -4.032,-7.2 -4.032,-17.76 0,-7.776 2.4,-13.824 2.4,-6.144 6.624,-10.368 4.224,-4.224 9.696,-6.432 5.568,-2.208 11.808,-2.208 6.816,0 11.712,2.4 4.896,2.4 7.968,5.76 l -7.392,8.544 q -2.304,-2.112 -5.088,-3.264 -2.688,-1.248 -6.72,-1.248 -4.8,0 -8.544,2.496 -3.744,2.4 -5.856,6.912 -2.112,4.512 -2.112,10.752 0,6.432 1.92,11.04 2.016,4.512 5.856,6.912 3.936,2.4 9.792,2.4 1.92,0 3.744,-0.48 1.824,-0.48 2.976,-1.44 v -10.752 h -10.368 v -11.52 h 22.848 v 28.8 q -3.168,3.168 -8.64,5.376 -5.376,2.208 -12,2.208 z m 58.272,0 q -6.144,0 -10.848,-1.632 -4.608,-1.728 -7.776,-5.28 -3.168,-3.648 -4.8,-9.216 -1.632,-5.568 -1.632,-13.248 v -34.368 h 14.208 v 35.808 q 0,5.856 1.248,9.312 1.248,3.36 3.648,4.896 2.4,1.536 5.952,1.536 3.456,0 5.952,-1.536 2.496,-1.536 3.744,-4.896 1.344,-3.456 1.344,-9.312 v -35.808 h 13.632 v 34.368 q 0,7.68 -1.632,13.248 -1.536,5.568 -4.704,9.216 -3.072,3.552 -7.68,5.28 -4.608,1.632 -10.656,1.632 z m 3753.2227,217.4988 q -9.792,0 -17.856,-2.304 -7.872,-2.112 -14.016,-5.952 -6.144,-3.84 -10.56,-9.024 l 13.056,-17.856 q 5.568,5.376 12.288,8.832 6.72,3.456 14.4,3.456 8.832,0 14.208,-3.648 5.568,-3.84 5.568,-10.752 0,-5.376 -2.688,-9.216 -2.688,-4.032 -9.792,-6.144 -6.912,-2.112 -20.352,-2.112 v -19.968 q 10.944,0 17.28,-2.112 6.336,-2.112 8.832,-5.76 2.688,-3.648 2.688,-8.448 0,-6.528 -4.032,-9.984 -3.84,-3.456 -10.944,-3.456 -6.528,0 -11.904,2.88 -5.184,2.688 -10.944,7.872 l -14.208,-17.28 q 8.448,-7.296 17.856,-11.328 9.408,-4.224 20.544,-4.224 12.48,0 21.888,4.032 9.6,3.84 14.784,11.328 5.376,7.296 5.376,18.048 0,9.408 -5.376,16.128 -5.184,6.72 -14.976,10.944 v 0.768 q 6.912,2.112 12.48,6.144 5.568,3.84 8.64,9.792 3.072,5.952 3.072,13.824 0,11.328 -6.336,19.392 -6.144,7.872 -16.512,12.096 -10.176,4.032 -22.464,4.032 z m 105.408,0 q -19.584,0 -31.68,-16.32 -11.904,-16.32 -11.904,-47.424 0,-31.296 11.904,-47.04 12.096,-15.744 31.68,-15.744 19.584,0 31.488,15.936 12.096,15.744 12.096,46.848 0,31.104 -12.096,47.424 -11.904,16.32 -31.488,16.32 z m 0,-21.888 q 4.8,0 8.64,-3.456 3.84,-3.648 5.952,-12.672 2.304,-9.216 2.304,-25.728 0,-16.704 -2.304,-25.536 -2.112,-8.832 -5.952,-12.096 -3.84,-3.264 -8.64,-3.264 -4.8,0 -8.64,3.264 -3.84,3.264 -6.144,12.096 -2.112,8.832 -2.112,25.536 0,16.512 2.112,25.728 2.304,9.024 6.144,12.672 3.84,3.456 8.64,3.456 z m 94.656,21.888 q -12.096,0 -20.928,-4.416 -8.832,-4.416 -14.784,-10.176 l 14.976,-16.896 q 3.072,3.456 8.256,6.144 5.376,2.496 10.56,2.496 7.296,0 12.864,-4.032 5.76,-4.032 9.024,-13.44 3.456,-9.6 3.456,-25.728 0,-15.168 -2.88,-23.616 -2.688,-8.64 -7.296,-12.096 -4.416,-3.648 -9.6,-3.648 -4.032,0 -7.68,2.112 -3.456,2.112 -5.568,6.336 -2.112,4.224 -2.112,11.328 0,6.336 2.112,10.368 2.112,3.84 5.76,5.568 3.648,1.728 8.256,1.728 4.8,0 9.792,-2.88 4.992,-3.072 9.024,-10.176 l 1.344,18.432 q -4.608,6.72 -12.096,10.752 -7.488,3.84 -13.632,3.84 -10.368,0 -18.624,-4.032 -8.256,-4.032 -13.056,-12.288 -4.608,-8.448 -4.608,-21.312 0,-12.672 5.568,-21.888 5.568,-9.216 14.784,-14.016 9.216,-4.992 20.16,-4.992 9.024,0 17.28,3.456 8.256,3.456 14.592,10.752 6.528,7.296 10.368,18.816 4.032,11.328 4.032,27.456 0,17.088 -4.224,29.568 -4.032,12.48 -10.944,20.544 -6.912,8.064 -15.744,12.096 -8.832,3.84 -18.432,3.84 z m -149.6642,-240 q -17.088,0 -31.104,-7.104 -13.824,-7.296 -22.08,-21.504 -8.064,-14.4 -8.064,-35.52 0,-15.552 4.8,-27.648 4.8,-12.288 13.248,-20.736 8.448,-8.448 19.392,-12.864 11.136,-4.416 23.616,-4.416 13.632,0 23.424,4.8 9.792,4.8 15.936,11.52 l -14.784,17.088 q -4.608,-4.224 -10.176,-6.528 -5.376,-2.496 -13.44,-2.496 -9.6,0 -17.088,4.992 -7.488,4.8 -11.712,13.824 -4.224,9.024 -4.224,21.504 0,12.864 3.84,22.08 4.032,9.024 11.712,13.824 7.872,4.8 19.584,4.8 3.84,0 7.488,-0.96 3.648,-0.96 5.952,-2.88 v -21.504 h -20.736 v -23.04 h 45.696 v 57.6 q -6.336,6.336 -17.28,10.752 -10.752,4.416 -24,4.416 z m 116.5441,0 q -12.288,0 -21.696,-3.264 -9.216,-3.456 -15.552,-10.56 -6.336,-7.296 -9.6,-18.432 -3.264,-11.136 -3.264,-26.496 v -68.736 h 28.416 v 71.616 q 0,11.712 2.496,18.624 2.496,6.72 7.296,9.792 4.8,3.072 11.904,3.072 6.912,0 11.904,-3.072 4.992,-3.072 7.488,-9.792 2.688,-6.912 2.688,-18.624 v -71.616 h 27.264 v 68.736 q 0,15.36 -3.264,26.496 -3.072,11.136 -9.408,18.432 -6.144,7.104 -15.36,10.56 -9.216,3.264 -21.312,3.264 z M 3829.6399,315.74964 q -4.896,0 -8.928,-1.152 -3.936,-1.056 -7.008,-2.976 -3.072,-1.92 -5.28,-4.512 l 6.528,-8.928 q 2.784,2.688 6.144,4.416 3.36,1.728 7.2,1.728 4.416,0 7.104,-1.824 2.784,-1.92 2.784,-5.376 0,-2.688 -1.344,-4.608 -1.344,-2.016 -4.896,-3.072 -3.456,-1.056 -10.176,-1.056 v -9.984 q 5.472,0 8.64,-1.056 3.168,-1.056 4.416,-2.88 1.344,-1.824 1.344,-4.224 0,-3.264 -2.016,-4.992 -1.92,-1.728 -5.472,-1.728 -3.264,0 -5.952,1.44 -2.592,1.344 -5.472,3.936 l -7.104,-8.64 q 4.224,-3.648 8.928,-5.664 4.704,-2.112 10.272,-2.112 6.24,0 10.944,2.016 4.8,1.92 7.392,5.664 2.688,3.648 2.688,9.024 0,4.704 -2.688,8.064 -2.592,3.36 -7.488,5.472 v 0.384 q 3.456,1.056 6.24,3.072 2.784,1.92 4.32,4.896 1.536,2.976 1.536,6.912 0,5.664 -3.168,9.696 -3.072,3.936 -8.256,6.048 -5.088,2.016 -11.232,2.016 z m 52.704,0 q -9.792,0 -15.84,-8.16 -5.952,-8.16 -5.952,-23.712 0,-15.648 5.952,-23.52 6.048,-7.872 15.84,-7.872 9.792,0 15.744,7.968 6.048,7.872 6.048,23.424 0,15.552 -6.048,23.712 -5.952,8.16 -15.744,8.16 z m 0,-10.944 q 2.4,0 4.32,-1.728 1.92,-1.824 2.976,-6.336 1.152,-4.608 1.152,-12.864 0,-8.352 -1.152,-12.768 -1.056,-4.416 -2.976,-6.048 -1.92,-1.632 -4.32,-1.632 -2.4,0 -4.32,1.632 -1.92,1.632 -3.072,6.048 -1.056,4.416 -1.056,12.768 0,8.256 1.056,12.864 1.152,4.512 3.072,6.336 1.92,1.728 4.32,1.728 z m 53.568,9.792 v -35.232 q 0,-2.88 0.192,-6.816 0.288,-3.936 0.384,-6.816 h -0.384 q -1.152,2.496 -2.4,5.088 -1.248,2.496 -2.592,5.184 l -8.064,13.248 h 33.024 v 10.752 h -46.56 v -9.696 l 22.272,-36.672 h 17.28 v 60.96 z m -81.0721,-118.848 q -8.544,0 -15.552,-3.552 -6.912,-3.648 -11.04,-10.752 -4.032,-7.2 -4.032,-17.76 0,-7.776 2.4,-13.824 2.4,-6.144 6.624,-10.368 4.224,-4.224 9.696,-6.432 5.568,-2.208 11.808,-2.208 6.816,0 11.712,2.4 4.896,2.4 7.968,5.76 l -7.392,8.544 q -2.304,-2.112 -5.088,-3.264 -2.688,-1.248 -6.72,-1.248 -4.8,0 -8.544,2.496 -3.744,2.4 -5.856,6.912 -2.112,4.512 -2.112,10.752 0,6.432 1.92,11.04 2.016,4.512 5.856,6.912 3.936,2.4 9.792,2.4 1.92,0 3.744,-0.48 1.824,-0.48 2.976,-1.44 v -10.752 h -10.368 v -11.52 h 22.848 v 28.8 q -3.168,3.168 -8.64,5.376 -5.376,2.208 -12,2.208 z m 58.2721,0 q -6.144,0 -10.848,-1.632 -4.608,-1.728 -7.776,-5.28 -3.168,-3.648 -4.8,-9.216 -1.632,-5.568 -1.632,-13.248 v -34.368 h 14.208 v 35.808 q 0,5.856 1.248,9.312 1.248,3.36 3.648,4.896 2.4,1.536 5.952,1.536 3.456,0 5.952,-1.536 2.496,-1.536 3.744,-4.896 1.344,-3.456 1.344,-9.312 v -35.808 h 13.632 v 34.368 q 0,7.68 -1.632,13.248 -1.536,5.568 -4.704,9.216 -3.072,3.552 -7.68,5.28 -4.608,1.632 -10.656,1.632 z m -397.1035,120 q -4.896,0 -8.928,-1.152 -3.936,-1.056 -7.008,-2.976 -3.072,-1.92 -5.28,-4.512 l 6.528,-8.928 q 2.784,2.688 6.144,4.416 3.36,1.728 7.2,1.728 4.416,0 7.104,-1.824 2.784,-1.92 2.784,-5.376 0,-2.688 -1.344,-4.608 -1.344,-2.016 -4.896,-3.072 -3.456,-1.056 -10.176,-1.056 v -9.984 q 5.472,0 8.64,-1.056 3.168,-1.056 4.416,-2.88 1.344,-1.824 1.344,-4.224 0,-3.264 -2.016,-4.992 -1.92,-1.728 -5.472,-1.728 -3.264,0 -5.952,1.44 -2.592,1.344 -5.472,3.936 l -7.104,-8.64 q 4.224,-3.648 8.928,-5.664 4.704,-2.112 10.272,-2.112 6.24,0 10.944,2.016 4.8,1.92 7.392,5.664 2.688,3.648 2.688,9.024 0,4.704 -2.688,8.064 -2.592,3.36 -7.488,5.472 v 0.384 q 3.456,1.056 6.24,3.072 2.784,1.92 4.32,4.896 1.536,2.976 1.536,6.912 0,5.664 -3.168,9.696 -3.072,3.936 -8.256,6.048 -5.088,2.016 -11.232,2.016 z m 52.704,0 q -9.792,0 -15.84,-8.16 -5.952,-8.16 -5.952,-23.712 0,-15.648 5.952,-23.52 6.048,-7.872 15.84,-7.872 9.792,0 15.744,7.968 6.048,7.872 6.048,23.424 0,15.552 -6.048,23.712 -5.952,8.16 -15.744,8.16 z m 0,-10.944 q 2.4,0 4.32,-1.728 1.92,-1.824 2.976,-6.336 1.152,-4.608 1.152,-12.864 0,-8.352 -1.152,-12.768 -1.056,-4.416 -2.976,-6.048 -1.92,-1.632 -4.32,-1.632 -2.4,0 -4.32,1.632 -1.92,1.632 -3.072,6.048 -1.056,4.416 -1.056,12.768 0,8.256 1.056,12.864 1.152,4.512 3.072,6.336 1.92,1.728 4.32,1.728 z m 48.672,10.944 q -4.896,0 -8.928,-1.152 -3.936,-1.056 -7.008,-2.976 -3.072,-1.92 -5.28,-4.512 l 6.528,-8.928 q 2.784,2.688 6.144,4.416 3.36,1.728 7.2,1.728 4.416,0 7.104,-1.824 2.784,-1.92 2.784,-5.376 0,-2.688 -1.344,-4.608 -1.344,-2.016 -4.896,-3.072 -3.456,-1.056 -10.176,-1.056 v -9.984 q 5.472,0 8.64,-1.056 3.168,-1.056 4.416,-2.88 1.344,-1.824 1.344,-4.224 0,-3.264 -2.016,-4.992 -1.92,-1.728 -5.472,-1.728 -3.264,0 -5.952,1.44 -2.592,1.344 -5.472,3.936 l -7.104,-8.64 q 4.224,-3.648 8.928,-5.664 4.704,-2.112 10.272,-2.112 6.24,0 10.944,2.016 4.8,1.92 7.392,5.664 2.688,3.648 2.688,9.024 0,4.704 -2.688,8.064 -2.592,3.36 -7.488,5.472 v 0.384 q 3.456,1.056 6.24,3.072 2.784,1.92 4.32,4.896 1.536,2.976 1.536,6.912 0,5.664 -3.168,9.696 -3.072,3.936 -8.256,6.048 -5.088,2.016 -11.232,2.016 z m -76.1761,-120 q -8.544,0 -15.552,-3.552 -6.912,-3.648 -11.04,-10.752 -4.032,-7.2 -4.032,-17.76 0,-7.776 2.4,-13.824 2.4,-6.144 6.624,-10.368 4.224,-4.224 9.696,-6.432 5.568,-2.208 11.808,-2.208 6.816,0 11.712,2.4 4.896,2.4 7.968,5.76 l -7.392,8.544 q -2.304,-2.112 -5.088,-3.264 -2.688,-1.248 -6.72,-1.248 -4.8,0 -8.544,2.496 -3.744,2.4 -5.856,6.912 -2.112,4.512 -2.112,10.752 0,6.432 1.92,11.04 2.016,4.512 5.856,6.912 3.936,2.4 9.792,2.4 1.92,0 3.744,-0.48 1.824,-0.48 2.976,-1.44 v -10.752 h -10.368 v -11.52 h 22.848 v 28.8 q -3.168,3.168 -8.64,5.376 -5.376,2.208 -12,2.208 z m 58.2721,0 q -6.144,0 -10.848,-1.632 -4.608,-1.728 -7.776,-5.28 -3.168,-3.648 -4.8,-9.216 -1.632,-5.568 -1.632,-13.248 v -34.368 h 14.208 v 35.808 q 0,5.856 1.248,9.312 1.248,3.36 3.648,4.896 2.4,1.536 5.952,1.536 3.456,0 5.952,-1.536 2.496,-1.536 3.744,-4.896 1.344,-3.456 1.344,-9.312 v -35.808 h 13.632 v 34.368 q 0,7.68 -1.632,13.248 -1.536,5.568 -4.704,9.216 -3.072,3.552 -7.68,5.28 -4.608,1.632 -10.656,1.632 z m -398.0438,120 q -4.896,0 -8.928,-1.152 -3.936,-1.056 -7.008,-2.976 -3.072,-1.92 -5.28,-4.512 l 6.528,-8.928 q 2.784,2.688 6.144,4.416 3.36,1.728 7.2,1.728 4.416,0 7.104,-1.824 2.784,-1.92 2.784,-5.376 0,-2.688 -1.344,-4.608 -1.344,-2.016 -4.896,-3.072 -3.456,-1.056 -10.176,-1.056 v -9.984 q 5.472,0 8.64,-1.056 3.168,-1.056 4.416,-2.88 1.344,-1.824 1.344,-4.224 0,-3.264 -2.016,-4.992 -1.92,-1.728 -5.472,-1.728 -3.264,0 -5.952,1.44 -2.592,1.344 -5.472,3.936 l -7.104,-8.64 q 4.224,-3.648 8.928,-5.664 4.704,-2.112 10.272,-2.112 6.24,0 10.944,2.016 4.8,1.92 7.392,5.664 2.688,3.648 2.688,9.024 0,4.704 -2.688,8.064 -2.592,3.36 -7.488,5.472 v 0.384 q 3.456,1.056 6.24,3.072 2.784,1.92 4.32,4.896 1.536,2.976 1.536,6.912 0,5.664 -3.168,9.696 -3.072,3.936 -8.256,6.048 -5.088,2.016 -11.232,2.016 z m 52.704,0 q -9.792,0 -15.84,-8.16 -5.952,-8.16 -5.952,-23.712 0,-15.648 5.952,-23.52 6.048,-7.872 15.84,-7.872 9.792,0 15.744,7.968 6.048,7.872 6.048,23.424 0,15.552 -6.048,23.712 -5.952,8.16 -15.744,8.16 z m 0,-10.944 q 2.4,0 4.32,-1.728 1.92,-1.824 2.976,-6.336 1.152,-4.608 1.152,-12.864 0,-8.352 -1.152,-12.768 -1.056,-4.416 -2.976,-6.048 -1.92,-1.632 -4.32,-1.632 -2.4,0 -4.32,1.632 -1.92,1.632 -3.072,6.048 -1.056,4.416 -1.056,12.768 0,8.256 1.056,12.864 1.152,4.512 3.072,6.336 1.92,1.728 4.32,1.728 z m 28.896,9.792 v -8.736 q 7.68,-6.816 13.632,-12.768 6.048,-5.952 9.408,-11.04 3.456,-5.088 3.456,-9.312 0,-4.512 -2.304,-6.816 -2.304,-2.4 -6.336,-2.4 -3.264,0 -5.952,1.92 -2.592,1.824 -4.896,4.32 l -7.392,-7.296 q 4.416,-4.992 9.024,-7.488 4.704,-2.496 11.136,-2.496 5.952,0 10.464,2.4 4.608,2.4 7.104,6.72 2.592,4.32 2.592,10.176 0,5.472 -2.976,10.752 -2.88,5.184 -7.68,10.368 -4.8,5.184 -10.176,10.56 2.304,-0.288 5.184,-0.48 2.88,-0.288 4.992,-0.288 h 13.632 v 11.904 z m -56.4001,-118.848 q -8.544,0 -15.552,-3.552 -6.912,-3.648 -11.04,-10.752 -4.032,-7.2 -4.032,-17.76 0,-7.776 2.4,-13.824 2.4,-6.144 6.624,-10.368 4.224,-4.224 9.696,-6.432 5.568,-2.208 11.808,-2.208 6.816,0 11.712,2.4 4.896,2.4 7.968,5.76 l -7.392,8.544 q -2.304,-2.112 -5.088,-3.264 -2.688,-1.248 -6.72,-1.248 -4.8,0 -8.544,2.496 -3.744,2.4 -5.856,6.912 -2.112,4.512 -2.112,10.752 0,6.432 1.92,11.04 2.016,4.512 5.856,6.912 3.936,2.4 9.792,2.4 1.92,0 3.744,-0.48 1.824,-0.48 2.976,-1.44 v -10.752 h -10.368 v -11.52 h 22.848 v 28.8 q -3.168,3.168 -8.64,5.376 -5.376,2.208 -12,2.208 z m 58.2721,0 q -6.144,0 -10.848,-1.632 -4.608,-1.728 -7.776,-5.28 -3.168,-3.648 -4.8,-9.216 -1.632,-5.568 -1.632,-13.248 v -34.368 h 14.208 v 35.808 q 0,5.856 1.248,9.312 1.248,3.36 3.648,4.896 2.4,1.536 5.952,1.536 3.456,0 5.952,-1.536 2.496,-1.536 3.744,-4.896 1.344,-3.456 1.344,-9.312 v -35.808 h 13.632 v 34.368 q 0,7.68 -1.632,13.248 -1.536,5.568 -4.704,9.216 -3.072,3.552 -7.68,5.28 -4.608,1.632 -10.656,1.632 z m 395.6161,920.85186 q -3.264,0 -5.952,-0.768 -2.624,-0.704 -4.672,-1.984 -2.048,-1.28 -3.52,-3.008 l 4.352,-5.952 q 1.856,1.792 4.096,2.944 2.24,1.152 4.8,1.152 2.944,0 4.736,-1.216 1.856,-1.28 1.856,-3.584 0,-1.792 -0.896,-3.072 -0.896,-1.344 -3.264,-2.048 -2.304,-0.704 -6.784,-0.704 v -6.656 q 3.648,0 5.76,-0.704 2.112,-0.704 2.944,-1.92 0.896,-1.216 0.896,-2.816 0,-2.176 -1.344,-3.328 -1.28,-1.152 -3.648,-1.152 -2.176,0 -3.968,0.96 -1.728,0.896 -3.648,2.624 l -4.736,-5.76 q 2.816,-2.432 5.952,-3.776 3.136,-1.408 6.848,-1.408 4.16,0 7.296,1.344 3.2,1.28 4.928,3.776 1.792,2.432 1.792,6.016 0,3.136 -1.792,5.376 -1.728,2.24 -4.992,3.648 v 0.256 q 2.304,0.704 4.16,2.048 1.856,1.28 2.88,3.264 1.024,1.984 1.024,4.608 0,3.776 -2.112,6.464 -2.048,2.624 -5.504,4.032 -3.392,1.344 -7.488,1.344 z m 35.136,0 q -6.528,0 -10.56,-5.44 -3.968,-5.44 -3.968,-15.808 0,-10.432 3.968,-15.68 4.032,-5.248 10.56,-5.248 6.528,0 10.496,5.312 4.032,5.248 4.032,15.616 0,10.368 -4.032,15.808 -3.968,5.44 -10.496,5.44 z m 0,-7.296 q 1.6,0 2.88,-1.152 1.28,-1.216 1.984,-4.224 0.768,-3.072 0.768,-8.576 0,-5.568 -0.768,-8.512 -0.704,-2.944 -1.984,-4.032 -1.28,-1.088 -2.88,-1.088 -1.6,0 -2.88,1.088 -1.28,1.088 -2.048,4.032 -0.704,2.944 -0.704,8.512 0,5.504 0.704,8.576 0.768,3.008 2.048,4.224 1.28,1.152 2.88,1.152 z m 34.88,7.296 q -2.944,0 -5.696,-1.152 -2.752,-1.152 -4.928,-3.584 -2.176,-2.432 -3.456,-6.208 -1.28,-3.84 -1.28,-9.216 0,-5.696 1.344,-9.856 1.344,-4.16 3.648,-6.848 2.304,-2.688 5.248,-3.968 2.944,-1.344 6.208,-1.344 4.032,0 6.976,1.472 2.944,1.408 4.864,3.392 l -4.928,5.632 q -1.088,-1.152 -2.816,-1.984 -1.728,-0.896 -3.52,-0.896 -2.304,0 -4.288,1.344 -1.92,1.344 -3.072,4.544 -1.088,3.136 -1.088,8.512 0,5.056 0.896,7.936 0.96,2.816 2.496,4.032 1.536,1.152 3.2,1.152 1.408,0 2.56,-0.704 1.152,-0.704 1.856,-2.112 0.704,-1.472 0.704,-3.776 0,-2.176 -0.704,-3.456 -0.704,-1.28 -1.92,-1.856 -1.152,-0.576 -2.688,-0.576 -1.6,0 -3.328,0.96 -1.664,0.96 -3.008,3.392 l -0.448,-6.144 q 1.6,-2.368 4.096,-3.584 2.496,-1.28 4.48,-1.28 3.456,0 6.208,1.344 2.752,1.344 4.288,4.16 1.6,2.752 1.6,7.04 0,4.224 -1.856,7.296 -1.792,3.072 -4.864,4.736 -3.072,1.6 -6.784,1.6 z m -53.2161,-80 q -5.696,0 -10.368,-2.368 -4.608,-2.432 -7.36,-7.168 -2.688,-4.8 -2.688,-11.84 0,-5.184 1.6,-9.216 1.6,-4.096 4.416,-6.91197 2.816,-2.816 6.464,-4.288 3.712,-1.472 7.872,-1.472 4.544,0 7.808,1.6 3.264,1.6 5.312,3.84 l -4.928,5.69597 q -1.536,-1.408 -3.392,-2.176 -1.792,-0.832 -4.48,-0.832 -3.2,0 -5.696,1.664 -2.496,1.6 -3.904,4.608 -1.408,3.008 -1.408,7.168 0,4.288 1.28,7.36 1.344,3.008 3.904,4.608 2.624,1.6 6.528,1.6 1.28,0 2.496,-0.32 1.216,-0.32 1.984,-0.96 v -7.168 h -6.912 v -7.68 h 15.232 v 19.2 q -2.112,2.112 -5.76,3.584 -3.584,1.472 -8,1.472 z m 38.8481,0 q -4.096,0 -7.232,-1.088 -3.072,-1.152 -5.184,-3.52 -2.112,-2.432 -3.2,-6.144 -1.088,-3.712 -1.088,-8.832 v -22.91197 h 9.472 v 23.87197 q 0,3.904 0.832,6.208 0.832,2.24 2.432,3.264 1.6,1.024 3.968,1.024 2.304,0 3.968,-1.024 1.664,-1.024 2.496,-3.264 0.896,-2.304 0.896,-6.208 v -23.87197 h 9.088 v 22.91197 q 0,5.12 -1.088,8.832 -1.024,3.712 -3.136,6.144 -2.048,2.368 -5.12,3.52 -3.072,1.088 -7.104,1.088 z m -1800.763,307.555 q -4.896,0 -8.928,-1.152 -3.936,-1.056 -7.008,-2.976 -3.072,-1.92 -5.28,-4.512 l 6.528,-8.928 q 2.784,2.688 6.144,4.416 3.36,1.728 7.2,1.728 4.416,0 7.104,-1.824 2.784,-1.92 2.784,-5.376 0,-2.688 -1.344,-4.608 -1.344,-2.016 -4.896,-3.072 -3.456,-1.056 -10.176,-1.056 v -9.984 q 5.472,0 8.64,-1.056 3.168,-1.056 4.416,-2.88 1.344,-1.824 1.344,-4.224 0,-3.264 -2.016,-4.992 -1.92,-1.728 -5.472,-1.728 -3.264,0 -5.952,1.44 -2.592,1.344 -5.472,3.936 l -7.104,-8.64 q 4.224,-3.648 8.928,-5.664 4.704,-2.112 10.272,-2.112 6.24,0 10.944,2.016 4.8,1.92 7.392,5.664 2.688,3.648 2.688,9.024 0,4.704 -2.688,8.064 -2.592,3.36 -7.488,5.472 v 0.384 q 3.456,1.056 6.24,3.072 2.784,1.92 4.32,4.896 1.536,2.976 1.536,6.912 0,5.664 -3.168,9.696 -3.072,3.936 -8.256,6.048 -5.088,2.016 -11.232,2.016 z m 34.08,-1.152 v -11.424 h 13.248 v -35.232 h -11.424 v -8.736 q 4.992,-0.96 8.448,-2.304 3.552,-1.344 6.72,-3.264 h 10.368 v 49.536 h 11.424 v 11.424 z m 69.312,1.152 q -9.792,0 -15.84,-8.16 -5.952,-8.16 -5.952,-23.712 0,-15.648 5.952,-23.52 6.048,-7.872 15.84,-7.872 9.792,0 15.744,7.968 6.048,7.872 6.048,23.424 0,15.552 -6.048,23.712 -5.952,8.16 -15.744,8.16 z m 0,-10.944 q 2.4,0 4.32,-1.728 1.92,-1.824 2.976,-6.336 1.152,-4.608 1.152,-12.864 0,-8.352 -1.152,-12.768 -1.056,-4.416 -2.976,-6.048 -1.92,-1.632 -4.32,-1.632 -2.4,0 -4.32,1.632 -1.92,1.632 -3.072,6.048 -1.056,4.416 -1.056,12.768 0,8.256 1.056,12.864 1.152,4.512 3.072,6.336 1.92,1.728 4.32,1.728 z m -78.1921,-109.056 q -8.544,0 -15.552,-3.552 -6.912,-3.648 -11.04,-10.752 -4.032,-7.2 -4.032,-17.76 0,-7.776 2.4,-13.824 2.4,-6.144 6.624,-10.368 4.224,-4.224 9.696,-6.432 5.568,-2.208 11.808,-2.208 6.816,0 11.712,2.4 4.896,2.4 7.968,5.76 l -7.392,8.544 q -2.304,-2.112 -5.088,-3.264 -2.688,-1.248 -6.72,-1.248 -4.8,0 -8.544,2.496 -3.744,2.4 -5.856,6.912 -2.112,4.512 -2.112,10.752 0,6.432 1.92,11.04 2.016,4.512 5.856,6.912 3.936,2.4 9.792,2.4 1.92,0 3.744,-0.48 1.824,-0.48 2.976,-1.44 v -10.752 h -10.368 v -11.52 h 22.848 v 28.8 q -3.168,3.168 -8.64,5.376 -5.376,2.208 -12,2.208 z m 58.2721,0 q -6.144,0 -10.848,-1.632 -4.608,-1.728 -7.776,-5.28 -3.168,-3.648 -4.8,-9.216 -1.632,-5.568 -1.632,-13.248 v -34.368 h 14.208 v 35.808 q 0,5.856 1.248,9.312 1.248,3.36 3.648,4.896 2.4,1.536 5.952,1.536 3.456,0 5.952,-1.536 2.496,-1.536 3.744,-4.896 1.344,-3.456 1.344,-9.312 v -35.808 h 13.632 v 34.368 q 0,7.68 -1.632,13.248 -1.536,5.568 -4.704,9.216 -3.072,3.552 -7.68,5.28 -4.608,1.632 -10.656,1.632 z m -392.5885,120 q -4.896,0 -8.928,-1.152 -3.936,-1.056 -7.008,-2.976 -3.072,-1.92 -5.28,-4.512 l 6.528,-8.928 q 2.784,2.688 6.144,4.416 3.36,1.728 7.2,1.728 4.416,0 7.104,-1.824 2.784,-1.92 2.784,-5.376 0,-2.688 -1.344,-4.608 -1.344,-2.016 -4.896,-3.072 -3.456,-1.056 -10.176,-1.056 v -9.984 q 5.472,0 8.64,-1.056 3.168,-1.056 4.416,-2.88 1.344,-1.824 1.344,-4.224 0,-3.264 -2.016,-4.992 -1.92,-1.728 -5.472,-1.728 -3.264,0 -5.952,1.44 -2.592,1.344 -5.472,3.936 l -7.104,-8.64 q 4.224,-3.648 8.928,-5.664 4.704,-2.112 10.272,-2.112 6.24,0 10.944,2.016 4.8,1.92 7.392,5.664 2.688,3.648 2.688,9.024 0,4.704 -2.688,8.064 -2.592,3.36 -7.488,5.472 v 0.384 q 3.456,1.056 6.24,3.072 2.784,1.92 4.32,4.896 1.536,2.976 1.536,6.912 0,5.664 -3.168,9.696 -3.072,3.936 -8.256,6.048 -5.088,2.016 -11.232,2.016 z m 34.08,-1.152 v -11.424 h 13.248 v -35.232 h -11.424 v -8.736 q 4.992,-0.96 8.448,-2.304 3.552,-1.344 6.72,-3.264 h 10.368 v 49.536 h 11.424 v 11.424 z m 50.688,0 v -11.424 h 13.248 v -35.232 h -11.424 v -8.736 q 4.992,-0.96 8.448,-2.304 3.552,-1.344 6.72,-3.264 h 10.368 v 49.536 h 11.424 v 11.424 z m -59.5681,-118.848 q -8.544,0 -15.552,-3.552 -6.912,-3.648 -11.04,-10.752 -4.032,-7.2 -4.032,-17.76 0,-7.776 2.4,-13.824 2.4,-6.144 6.624,-10.368 4.224,-4.224 9.696,-6.432 5.568,-2.208 11.808,-2.208 6.816,0 11.712,2.4 4.896,2.4 7.968,5.76 l -7.392,8.544 q -2.304,-2.112 -5.088,-3.264 -2.688,-1.248 -6.72,-1.248 -4.8,0 -8.544,2.496 -3.744,2.4 -5.856,6.912 -2.112,4.512 -2.112,10.752 0,6.432 1.92,11.04 2.016,4.512 5.856,6.912 3.936,2.4 9.792,2.4 1.92,0 3.744,-0.48 1.824,-0.48 2.976,-1.44 v -10.752 h -10.368 v -11.52 h 22.848 v 28.8 q -3.168,3.168 -8.64,5.376 -5.376,2.208 -12,2.208 z m 58.2721,0 q -6.144,0 -10.848,-1.632 -4.608,-1.728 -7.776,-5.28 -3.168,-3.648 -4.8,-9.216 -1.632,-5.568 -1.632,-13.248 v -34.368 h 14.208 v 35.808 q 0,5.856 1.248,9.312 1.248,3.36 3.648,4.896 2.4,1.536 5.952,1.536 3.456,0 5.952,-1.536 2.496,-1.536 3.744,-4.896 1.344,-3.456 1.344,-9.312 v -35.808 h 13.632 v 34.368 q 0,7.68 -1.632,13.248 -1.536,5.568 -4.704,9.216 -3.072,3.552 -7.68,5.28 -4.608,1.632 -10.656,1.632 z m -393.5802,120 q -4.896,0 -8.928,-1.152 -3.936,-1.056 -7.008,-2.976 -3.072,-1.92 -5.28,-4.512 l 6.528,-8.928 q 2.784,2.688 6.144,4.416 3.36,1.728 7.2,1.728 4.416,0 7.104,-1.824 2.784,-1.92 2.784,-5.376 0,-2.688 -1.344,-4.608 -1.344,-2.016 -4.896,-3.072 -3.456,-1.056 -10.176,-1.056 v -9.984 q 5.472,0 8.64,-1.056 3.168,-1.056 4.416,-2.88 1.344,-1.824 1.344,-4.224 0,-3.264 -2.016,-4.992 -1.92,-1.728 -5.472,-1.728 -3.264,0 -5.952,1.44 -2.592,1.344 -5.472,3.936 l -7.104,-8.64 q 4.224,-3.648 8.928,-5.664 4.704,-2.112 10.272,-2.112 6.24,0 10.944,2.016 4.8,1.92 7.392,5.664 2.688,3.648 2.688,9.024 0,4.704 -2.688,8.064 -2.592,3.36 -7.488,5.472 v 0.384 q 3.456,1.056 6.24,3.072 2.784,1.92 4.32,4.896 1.536,2.976 1.536,6.912 0,5.664 -3.168,9.696 -3.072,3.936 -8.256,6.048 -5.088,2.016 -11.232,2.016 z m 34.08,-1.152 v -11.424 h 13.248 v -35.232 h -11.424 v -8.736 q 4.992,-0.96 8.448,-2.304 3.552,-1.344 6.72,-3.264 h 10.368 v 49.536 h 11.424 v 11.424 z m 47.52,0 v -8.736 q 7.68,-6.816 13.632,-12.768 6.048,-5.952 9.408,-11.04 3.456,-5.088 3.456,-9.312 0,-4.512 -2.304,-6.816 -2.304,-2.4 -6.336,-2.4 -3.264,0 -5.952,1.92 -2.592,1.824 -4.896,4.32 l -7.392,-7.296 q 4.416,-4.992 9.024,-7.488 4.704,-2.496 11.136,-2.496 5.952,0 10.464,2.4 4.608,2.4 7.104,6.72 2.592,4.32 2.592,10.176 0,5.472 -2.976,10.752 -2.88,5.184 -7.68,10.368 -4.8,5.184 -10.176,10.56 2.304,-0.288 5.184,-0.48 2.88,-0.288 4.992,-0.288 h 13.632 v 11.904 z m -56.4001,-118.848 q -8.544,0 -15.552,-3.552 -6.912,-3.648 -11.04,-10.752 -4.032,-7.2 -4.032,-17.76 0,-7.776 2.4,-13.824 2.4,-6.144 6.624,-10.368 4.224,-4.224 9.696,-6.432 5.568,-2.208 11.808,-2.208 6.816,0 11.712,2.4 4.896,2.4 7.968,5.76 l -7.392,8.544 q -2.304,-2.112 -5.088,-3.264 -2.688,-1.248 -6.72,-1.248 -4.8,0 -8.544,2.496 -3.744,2.4 -5.856,6.912 -2.112,4.512 -2.112,10.752 0,6.432 1.92,11.04 2.016,4.512 5.856,6.912 3.936,2.4 9.792,2.4 1.92,0 3.744,-0.48 1.824,-0.48 2.976,-1.44 v -10.752 h -10.368 v -11.52 h 22.848 v 28.8 q -3.168,3.168 -8.64,5.376 -5.376,2.208 -12,2.208 z m 58.2721,0 q -6.144,0 -10.848,-1.632 -4.608,-1.728 -7.776,-5.28 -3.168,-3.648 -4.8,-9.216 -1.632,-5.568 -1.632,-13.248 v -34.368 h 14.208 v 35.808 q 0,5.856 1.248,9.312 1.248,3.36 3.648,4.896 2.4,1.536 5.952,1.536 3.456,0 5.952,-1.536 2.496,-1.536 3.744,-4.896 1.344,-3.456 1.344,-9.312 v -35.808 h 13.632 v 34.368 q 0,7.68 -1.632,13.248 -1.536,5.568 -4.704,9.216 -3.072,3.552 -7.68,5.28 -4.608,1.632 -10.656,1.632 z m -430.01841,217.5894 q -3.264,0 -5.952,-0.768 -2.624,-0.704 -4.672,-1.984 -2.048,-1.28 -3.52,-3.008 l 4.352,-5.952 q 1.856,1.792 4.096,2.944 2.24,1.152 4.8,1.152 2.944,0 4.736,-1.216 1.856,-1.28 1.856,-3.584 0,-1.792 -0.896,-3.072 -0.896,-1.344 -3.264,-2.048 -2.304,-0.704 -6.784,-0.704 v -6.656 q 3.648,0 5.76,-0.704 2.112,-0.704 2.944,-1.92 0.896,-1.216 0.896,-2.816 0,-2.176 -1.344,-3.328 -1.28,-1.152 -3.648,-1.152 -2.176,0 -3.968,0.96 -1.728,0.896 -3.648,2.624 l -4.736,-5.76 q 2.816,-2.432 5.952,-3.776 3.136,-1.408 6.848,-1.408 4.16,0 7.296,1.344 3.2,1.28 4.928,3.776 1.792,2.432 1.792,6.016 0,3.136 -1.792,5.376 -1.728,2.24 -4.992,3.648 v 0.256 q 2.304,0.704 4.16,2.048 1.856,1.28 2.88,3.264 1.024,1.984 1.024,4.608 0,3.776 -2.112,6.464 -2.048,2.624 -5.504,4.032 -3.392,1.344 -7.488,1.344 z m 22.72,-0.768 v -7.616 h 8.83201 v -23.488 h -7.61601 v -5.824 q 3.328,-0.64 5.632,-1.536 2.36801,-0.896 4.48001,-2.176 h 6.912 v 33.024 h 7.616 v 7.616 z m 44.86401,0.768 q -3.264,0 -5.952,-0.768 -2.624,-0.704 -4.672,-1.984 -2.048,-1.28 -3.52,-3.008 l 4.352,-5.952 q 1.856,1.792 4.096,2.944 2.24,1.152 4.8,1.152 2.944,0 4.736,-1.216 1.856,-1.28 1.856,-3.584 0,-1.792 -0.896,-3.072 -0.896,-1.344 -3.264,-2.048 -2.304,-0.704 -6.784,-0.704 v -6.656 q 3.648,0 5.76,-0.704 2.112,-0.704 2.944,-1.92 0.896,-1.216 0.896,-2.816 0,-2.176 -1.344,-3.328 -1.28,-1.152 -3.648,-1.152 -2.176,0 -3.968,0.96 -1.728,0.896 -3.648,2.624 l -4.736,-5.76 q 2.816,-2.432 5.952,-3.776 3.136,-1.408 6.848,-1.408 4.16,0 7.296,1.344 3.2,1.28 4.928,3.776 1.792,2.432 1.792,6.016 0,3.136 -1.792,5.376 -1.728,2.24 -4.992,3.648 v 0.256 q 2.304,0.704 4.16,2.048 1.856,1.28 2.88,3.264 1.024,1.984 1.024,4.608 0,3.776 -2.112,6.464 -2.048,2.624 -5.504,4.032 -3.392,1.344 -7.488,1.344 z m 19.008,8.192 v -5.312 h 30.464 v 5.312 z m 30.848,-8.96 13.056,-41.728 h 11.264 l 13.12,41.728 h -9.984 l -5.44,-21.12 q -0.896,-3.136 -1.728,-6.656 -0.832,-3.52 -1.664,-6.784 h -0.256 q -0.704,3.264 -1.536,6.784 -0.832,3.52 -1.728,6.656 l -5.504,21.12 z m 8.576,-9.92 v -7.36 h 20.096 v 7.36 z m -74.8801,-69.312 q -5.696,0 -10.368,-2.368 -4.608,-2.432 -7.36,-7.168 -2.688,-4.8 -2.688,-11.84 0,-5.184 1.6,-9.216 1.6,-4.096 4.416,-6.912 2.816,-2.816 6.464,-4.288 3.712,-1.472 7.872,-1.472 4.544,0 7.808,1.6 3.264,1.6 5.312,3.84 l -4.928,5.696 q -1.536,-1.408 -3.392,-2.176 -1.792,-0.832 -4.48,-0.832 -3.2,0 -5.696,1.664 -2.496,1.6 -3.904,4.608 -1.408,3.008 -1.408,7.168 0,4.288 1.28,7.36 1.344,3.008 3.904,4.608 2.624,1.6 6.528,1.6 1.28,0 2.496,-0.32 1.216,-0.32 1.984,-0.96 v -7.168 h -6.912 v -7.68 h 15.232 v 19.2 q -2.112,2.112 -5.76,3.584 -3.584,1.472 -8,1.472 z m 38.8481,0 q -4.096,0 -7.232,-1.088 -3.072,-1.152 -5.184,-3.52 -2.112,-2.432 -3.2,-6.144 -1.088,-3.712 -1.088,-8.832 v -22.912 h 9.472 v 23.872 q 0,3.904 0.832,6.208 0.832,2.24 2.432,3.264 1.6,1.024 3.968,1.024 2.304,0 3.968,-1.024 1.664,-1.024 2.496,-3.264 0.896,-2.304 0.896,-6.208 v -23.872 h 9.088 v 22.912 q 0,5.12 -1.088,8.832 -1.024,3.712 -3.136,6.144 -2.048,2.368 -5.12,3.52 -3.072,1.088 -7.104,1.088 z m -1607.2838,-16.4962 q -4.896,0 -8.928,-1.152 -3.936,-1.056 -7.008,-2.976 -3.072,-1.92 -5.28,-4.512 l 6.528,-8.928 q 2.784,2.688 6.144,4.416 3.36,1.728 7.2,1.728 4.416,0 7.104,-1.824 2.784,-1.92 2.784,-5.376 0,-2.688 -1.344,-4.608 -1.344,-2.016 -4.896,-3.072 -3.456,-1.056 -10.176,-1.056 v -9.984 q 5.472,0 8.64,-1.056 3.168,-1.056 4.416,-2.88 1.344,-1.824 1.344,-4.224 0,-3.264 -2.016,-4.992 -1.92,-1.728 -5.472,-1.728 -3.264,0 -5.952,1.44 -2.592,1.344 -5.472,3.936 l -7.104,-8.64 q 4.224,-3.648 8.928,-5.664 4.704,-2.112 10.272,-2.112 6.24,0 10.944,2.016 4.8,1.92 7.392,5.664 2.688,3.648 2.688,9.024 0,4.704 -2.688,8.064 -2.592,3.36 -7.488,5.472 v 0.384 q 3.456,1.056 6.24,3.072 2.784,1.92 4.32,4.896 1.536,2.976 1.536,6.912 0,5.664 -3.168,9.696 -3.072,3.936 -8.256,6.048 -5.088,2.016 -11.232,2.016 z m 34.07999,-1.152 v -11.424 h 13.248 v -35.232 h -11.424 v -8.736 q 4.992,-0.96 8.448,-2.304 3.552,-1.344 6.72,-3.264 h 10.368 v 49.536 h 11.424 v 11.424 z m 67.67998,1.152 q -4.992,0 -9.024,-1.152 -3.936,-1.152 -7.008,-3.072 -3.072,-1.92 -5.472,-4.32 l 6.336,-8.928 q 2.784,2.496 6.048,4.32 3.264,1.728 7.104,1.728 3.072,0 5.376,-1.056 2.304,-1.152 3.552,-3.264 1.344,-2.112 1.344,-5.184 0,-4.608 -2.688,-7.008 -2.688,-2.4 -6.912,-2.4 -2.592,0 -4.416,0.672 -1.824,0.672 -4.608,2.4 l -6.336,-4.032 1.728,-30.816 h 34.56 v 11.904 h -22.368 l -1.056,11.424 q 1.824,-0.768 3.36,-1.056 1.536,-0.384 3.456,-0.384 5.28,0 9.696,2.016 4.416,2.016 7.008,6.24 2.688,4.224 2.688,10.656 0,6.816 -3.168,11.616 -3.072,4.704 -8.16,7.2 -5.088,2.496 -11.04,2.496 z m -76.56006,-120 q -8.544,0 -15.552,-3.552 -6.912,-3.648 -11.04,-10.752 -4.032,-7.2 -4.032,-17.76 0,-7.776 2.4,-13.824 2.4,-6.144 6.624,-10.368 4.224,-4.224 9.696,-6.432 5.568,-2.208 11.808,-2.208 6.816,0 11.712,2.4 4.896,2.4 7.968,5.76 l -7.392,8.544 q -2.304,-2.112 -5.088,-3.264 -2.688,-1.248 -6.72,-1.248 -4.8,0 -8.544,2.496 -3.744,2.4 -5.856,6.912 -2.112,4.512 -2.112,10.752 0,6.432 1.92,11.04 2.016,4.512 5.856,6.912 3.936,2.4 9.792,2.4 1.92,0 3.744,-0.48 1.824,-0.48 2.976,-1.44 v -10.752 h -10.368 v -11.52 h 22.848 v 28.8 q -3.168,3.168 -8.64,5.376 -5.376,2.208 -12,2.208 z m 58.27205,0 q -6.144,0 -10.848,-1.632 -4.608,-1.728 -7.776,-5.28 -3.168,-3.648 -4.8,-9.216 -1.632,-5.568 -1.632,-13.248 v -34.368 h 14.208 v 35.808 q 0,5.856 1.248,9.312 1.248,3.36 3.648,4.896 2.4,1.536 5.952,1.536 3.456,0 5.952,-1.536 2.496,-1.536 3.744,-4.896 1.344,-3.456 1.344,-9.312 v -35.808 h 13.632 v 34.368 q 0,7.68 -1.632,13.248 -1.536,5.568 -4.704,9.216 -3.072,3.552 -7.68,5.28 -4.608,1.632 -10.656,1.632 z M -1330.2696,395.90968 q -9.792,0 -17.856,-2.304 -7.872,-2.112 -14.016,-5.952 -6.144,-3.84 -10.56,-9.024 l 13.056,-17.856 q 5.568,5.376 12.288,8.832 6.72,3.456 14.4,3.456 8.832,0 14.208,-3.648 5.568,-3.84 5.568,-10.752 0,-5.376 -2.688,-9.216 -2.688,-4.032 -9.792,-6.144 -6.912,-2.112 -20.352,-2.112 v -19.968 q 10.944,0 17.28,-2.112 6.336,-2.112 8.832,-5.76 2.688,-3.648 2.688,-8.448 0,-6.528 -4.032,-9.984 -3.84,-3.456 -10.944,-3.456 -6.528,0 -11.904,2.88 -5.184,2.688 -10.944,7.872 l -14.208,-17.28 q 8.448,-7.296 17.856,-11.328 9.408,-4.224 20.544,-4.224 12.48,0 21.888,4.032 9.6,3.84 14.784,11.328 5.376,7.296 5.376,18.048 0,9.408 -5.376,16.128 -5.184,6.72 -14.976,10.944 v 0.768 q 6.912,2.112 12.48,6.144 5.568,3.84 8.64,9.792 3.072,5.952 3.072,13.824 0,11.328 -6.336,19.392 -6.144,7.872 -16.512,12.096 -10.176,4.032 -22.464,4.032 z m 68.1599,-2.304 v -22.848 h 26.496 v -70.464 h -22.848 v -17.472 q 9.984,-1.92 16.896,-4.608 7.104,-2.688 13.44,-6.528 h 20.736 v 99.072 h 22.848 v 22.848 z m 116.736,0 q 0.96,-15.168 3.072,-27.84 2.112,-12.864 5.952,-24.384 4.032,-11.52 10.176,-22.656 6.144,-11.136 15.168,-23.232 h -54.72 v -23.808 h 84.864 v 17.28 q -10.752,13.056 -17.664,24.384 -6.72,11.328 -10.368,23.04 -3.648,11.712 -5.376,25.536 -1.728,13.824 -2.688,31.68 z m 74.88,26.88 v -15.936 h 91.392 v 15.936 z m 108.48,-26.88 v -125.184 h 42.816 q 13.056,0 23.424,2.88 10.56,2.688 16.512,9.6 6.144,6.72 6.144,18.624 0,9.408 -4.224,16.896 -4.224,7.296 -12.096,10.176 v 0.768 q 10.56,2.304 16.512,9.216 5.952,6.72 5.952,18.816 0,13.248 -6.528,21.696 -6.528,8.448 -17.664,12.48 -10.944,4.032 -24.384,4.032 z m 28.224,-75.072 h 13.248 q 10.368,0 14.976,-4.032 4.8,-4.032 4.8,-10.752 0,-7.296 -4.8,-10.368 -4.8,-3.072 -14.784,-3.072 h -13.44 z m 0,53.184 h 15.936 q 11.52,0 17.28,-4.032 5.952,-4.224 5.952,-12.864 0,-8.064 -5.952,-11.712 -5.76,-3.648 -17.28,-3.648 h -15.936 z m -240.0002,-215.808 q -17.088,0 -31.104,-7.104 -13.824,-7.296 -22.08,-21.504 -8.064,-14.4 -8.064,-35.520002 0,-15.552 4.8,-27.648 4.8,-12.288 13.248,-20.736 8.448,-8.448 19.392,-12.864 11.136,-4.416 23.616,-4.416 13.632,0 23.424,4.8 9.792,4.8 15.936,11.52 l -14.784,17.088 q -4.608,-4.224 -10.176,-6.528 -5.376,-2.496 -13.44,-2.496 -9.6,0 -17.088,4.992 -7.488,4.8 -11.712,13.824 -4.224,9.024 -4.224,21.504 0,12.864002 3.84,22.080002 4.032,9.024 11.712,13.824 7.872,4.8 19.584,4.8 3.84,0 7.488,-0.96 3.648,-0.96 5.952,-2.88 v -21.504 h -20.736 V 83.141678 h 45.696 v 57.600002 q -6.336,6.336 -17.28,10.752 -10.752,4.416 -24,4.416 z m 116.5441,0 q -12.288,0 -21.696,-3.264 -9.216,-3.456 -15.552,-10.56 -6.336,-7.296 -9.6,-18.432 -3.264,-11.136 -3.264,-26.496002 v -68.736 h 28.416 v 71.616002 q 0,11.712 2.496,18.624 2.496,6.72 7.296,9.792 4.8,3.072 11.904,3.072 6.912,0 11.904,-3.072 4.992,-3.072 7.488,-9.792 2.688,-6.912 2.688,-18.624 V 28.421678 h 27.264 v 68.736 q 0,15.360002 -3.264,26.496002 -3.072,11.136 -9.408,18.432 -6.144,7.104 -15.36,10.56 -9.216,3.264 -21.312,3.264 z M 296.34071,1437.6977 q -9.792,0 -17.856,-2.304 -7.872,-2.112 -14.016,-5.952 -6.144,-3.84 -10.56,-9.024 l 13.056,-17.856 q 5.568,5.376 12.288,8.832 6.72,3.456 14.4,3.456 8.832,0 14.208,-3.648 5.568,-3.84 5.568,-10.752 0,-5.376 -2.688,-9.216 -2.688,-4.032 -9.792,-6.144 -6.912,-2.112 -20.352,-2.112 v -19.968 q 10.944,0 17.28,-2.1121 6.336,-2.1119 8.832,-5.7599 2.688,-3.648 2.688,-8.448 0,-6.528 -4.032,-9.984 -3.84,-3.456 -10.944,-3.456 -6.528,0 -11.904,2.88 -5.184,2.688 -10.944,7.872 l -14.208,-17.28 q 8.448,-7.296 17.856,-11.328 9.408,-4.224 20.544,-4.224 12.48,0 21.888,4.032 9.6,3.84 14.784,11.328 5.376,7.296 5.376,18.048 0,9.408 -5.376,16.128 -5.184,6.72 -14.976,10.944 v 0.768 q 6.912,2.112 12.48,6.144 5.568,3.84 8.64,9.792 3.072,5.952 3.072,13.824 0,11.328 -6.336,19.392 -6.144,7.872 -16.512,12.096 -10.176,4.032 -22.464,4.032 z m 68.15998,-2.304 v -22.848 h 26.496 v -70.464 h -22.848 v -17.472 q 9.984,-1.92 16.896,-4.608 7.104,-2.688 13.44,-6.528 h 20.736 v 99.072 h 22.848 v 22.848 z m 134.59198,2.304 q -9.792,0 -17.856,-2.304 -7.872,-2.112 -14.016,-5.952 -6.144,-3.84 -10.56,-9.024 l 13.056,-17.856 q 5.568,5.376 12.288,8.832 6.72,3.456 14.4,3.456 8.832,0 14.208,-3.648 5.568,-3.84 5.568,-10.752 0,-5.376 -2.688,-9.216 -2.688,-4.032 -9.792,-6.144 -6.912,-2.112 -20.352,-2.112 v -19.968 q 10.944,0 17.28,-2.1121 6.336,-2.1119 8.832,-5.7599 2.688,-3.648 2.688,-8.448 0,-6.528 -4.032,-9.984 -3.84,-3.456 -10.944,-3.456 -6.528,0 -11.904,2.88 -5.184,2.688 -10.944,7.872 l -14.208,-17.28 q 8.448,-7.296 17.856,-11.328 9.408,-4.224 20.544,-4.224 12.48,0 21.888,4.032 9.6,3.84 14.784,11.328 5.376,7.296 5.376,18.048 0,9.408 -5.376,16.128 -5.184,6.72 -14.976,10.944 v 0.768 q 6.912,2.112 12.48,6.144 5.568,3.84 8.64,9.792 3.072,5.952 3.072,13.824 0,11.328 -6.336,19.392 -6.144,7.872 -16.512,12.096 -10.176,4.032 -22.464,4.032 z m -152.35213,-240 q -17.088,0 -31.104,-7.104 -13.824,-7.296 -22.08,-21.5041 -8.064,-14.4 -8.064,-35.52 0,-15.552 4.8,-27.648 4.8,-12.288 13.248,-20.736 8.448,-8.448 19.392,-12.864 11.136,-4.416 23.616,-4.416 13.632,0 23.424,4.8 9.792,4.8 15.936,11.52 l -14.784,17.088 q -4.608,-4.224 -10.176,-6.528 -5.376,-2.496 -13.44,-2.496 -9.6,0 -17.088,4.992 -7.488,4.8 -11.712,13.824 -4.224,9.024 -4.224,21.504 0,12.864 3.84,22.08 4.032,9.024 11.712,13.824 7.872,4.8 19.584,4.8 3.84,0 7.488,-0.96 3.648,-0.96 5.952,-2.88 v -21.504 h -20.736 v -23.04 h 45.696 v 57.6001 q -6.336,6.336 -17.28,10.752 -10.752,4.416 -24,4.416 z m 116.5441,0 q -12.288,0 -21.696,-3.264 -9.216,-3.456 -15.552,-10.56 -6.336,-7.2961 -9.6,-18.4321 -3.264,-11.136 -3.264,-26.496 v -68.736 h 28.416 v 71.616 q 0,11.712 2.496,18.624 2.496,6.72 7.296,9.792 4.8,3.072 11.904,3.072 6.912,0 11.904,-3.072 4.992,-3.072 7.488,-9.792 2.688,-6.912 2.688,-18.624 v -71.616 h 27.264 v 68.736 q 0,15.36 -3.264,26.496 -3.072,11.136 -9.408,18.4321 -6.144,7.104 -15.36,10.56 -9.216,3.264 -21.312,3.264 z m 2730.25466,147.552 q -4.896,0 -8.928,-1.152 -3.936,-1.056 -7.008,-2.976 -3.072,-1.92 -5.28,-4.512 l 6.528,-8.928 q 2.784,2.688 6.144,4.416 3.36,1.728 7.2,1.728 4.416,0 7.104,-1.824 2.784,-1.92 2.784,-5.376 0,-2.688 -1.344,-4.608 -1.344,-2.016 -4.896,-3.072 -3.456,-1.056 -10.176,-1.056 v -9.984 q 5.472,0 8.64,-1.056 3.168,-1.056 4.416,-2.88 1.344,-1.824 1.344,-4.224 0,-3.264 -2.016,-4.992 -1.92,-1.728 -5.472,-1.728 -3.264,0 -5.952,1.44 -2.592,1.344 -5.472,3.936 l -7.104,-8.64 q 4.224,-3.648 8.928,-5.664 4.704,-2.112 10.272,-2.112 6.24,0 10.944,2.016 4.8,1.92 7.392,5.664 2.688,3.648 2.688,9.024 0,4.704 -2.688,8.064 -2.592,3.36 -7.488,5.472 v 0.384 q 3.456,1.056 6.24,3.072 2.784,1.92 4.32,4.896 1.536,2.976 1.536,6.912 0,5.664 -3.168,9.696 -3.072,3.936 -8.256,6.048 -5.088,2.016 -11.232,2.016 z m 52.704,0 q -9.792,0 -15.84,-8.16 -5.952,-8.16 -5.952,-23.712 0,-15.648 5.952,-23.52 6.048,-7.872 15.84,-7.872 9.792,0 15.744,7.968 6.048,7.872 6.048,23.424 0,15.552 -6.048,23.712 -5.952,8.16 -15.744,8.16 z m 0,-10.944 q 2.4,0 4.32,-1.728 1.92,-1.824 2.976,-6.336 1.152,-4.608 1.152,-12.864 0,-8.352 -1.152,-12.768 -1.056,-4.416 -2.976,-6.048 -1.92,-1.632 -4.32,-1.632 -2.4,0 -4.32,1.632 -1.92,1.632 -3.072,6.048 -1.056,4.416 -1.056,12.768 0,8.256 1.056,12.864 1.152,4.512 3.072,6.336 1.92,1.728 4.32,1.728 z m 50.592,10.944 q -6.048,0 -10.944,-2.112 -4.8,-2.112 -7.584,-5.856 -2.688,-3.84 -2.688,-8.736 0,-3.744 1.344,-6.432 1.44,-2.784 3.744,-4.896 2.4,-2.112 5.28,-3.648 v -0.384 q -3.456,-2.688 -5.856,-6.144 -2.304,-3.456 -2.304,-8.256 0,-5.184 2.496,-8.928 2.496,-3.84 6.912,-5.856 4.416,-2.016 10.08,-2.016 8.448,0 13.44,4.608 5.088,4.512 5.088,12.096 0,2.88 -1.152,5.472 -1.056,2.496 -2.88,4.512 -1.824,1.92 -3.936,3.36 v 0.384 q 2.88,1.536 5.28,3.744 2.4,2.112 3.84,5.184 1.44,2.976 1.44,7.008 0,4.8 -2.688,8.64 -2.688,3.744 -7.584,6.048 -4.8,2.208 -11.328,2.208 z m 3.84,-36.672 q 1.824,-2.112 2.784,-4.32 0.96,-2.208 0.96,-4.608 0,-2.4 -0.864,-4.128 -0.864,-1.728 -2.592,-2.688 -1.632,-1.056 -3.936,-1.056 -2.784,0 -4.8,1.824 -2.016,1.728 -2.016,5.184 0,2.496 1.344,4.224 1.344,1.728 3.648,3.072 2.4,1.344 5.472,2.496 z m -3.552,26.88 q 2.304,0 4.128,-0.768 1.92,-0.864 2.976,-2.496 1.056,-1.728 1.056,-4.32 0,-2.688 -1.632,-4.416 -1.536,-1.824 -4.512,-3.168 -2.88,-1.44 -6.72,-3.072 -2.016,1.824 -3.36,4.416 -1.344,2.496 -1.344,5.28 0,2.688 1.248,4.608 1.344,1.92 3.456,2.976 2.208,0.96 4.704,0.96 z m -78.3841,-110.208 q -8.544,0 -15.552,-3.552 -6.912,-3.648 -11.04,-10.752 -4.032,-7.2 -4.032,-17.76 0,-7.776 2.4,-13.824 2.4,-6.144 6.624,-10.368 4.224,-4.224 9.696,-6.432 5.568,-2.208 11.808,-2.208 6.816,0 11.712,2.4 4.896,2.4 7.968,5.76 l -7.392,8.544 q -2.304,-2.112 -5.088,-3.264 -2.688,-1.248 -6.72,-1.248 -4.8,0 -8.544,2.496 -3.744,2.4 -5.856,6.912 -2.112,4.512 -2.112,10.752 0,6.432 1.92,11.04 2.016,4.512 5.856,6.912 3.936,2.4 9.792,2.4 1.92,0 3.744,-0.48 1.824,-0.48 2.976,-1.44 v -10.752 h -10.368 v -11.52 h 22.848 v 28.8 q -3.168,3.168 -8.64,5.376 -5.376,2.208 -12,2.208 z m 58.2721,0 q -6.144,0 -10.848,-1.632 -4.608,-1.728 -7.776,-5.28 -3.168,-3.648 -4.8,-9.216 -1.632,-5.568 -1.632,-13.248 v -34.368 h 14.208 v 35.808 q 0,5.856 1.248,9.312 1.248,3.36 3.648,4.896 2.4,1.536 5.952,1.536 3.456,0 5.952,-1.536 2.496,-1.536 3.744,-4.896 1.344,-3.456 1.344,-9.312 v -35.808 h 13.632 v 34.368 q 0,7.68 -1.632,13.248 -1.536,5.568 -4.704,9.216 -3.072,3.552 -7.68,5.28 -4.608,1.632 -10.656,1.632 z M -450.65949,357.44762 q -9.792,0 -17.856,-2.304 -7.872,-2.112 -14.016,-5.952 -6.144,-3.84 -10.56,-9.024 l 13.056,-17.856 q 5.568,5.376 12.288,8.832 6.72,3.456 14.4,3.456 8.832,0 14.208,-3.648 5.568,-3.84 5.568,-10.752 0,-5.376 -2.688,-9.216 -2.688,-4.032 -9.792,-6.144 -6.912,-2.112 -20.352,-2.112 v -19.968 q 10.944,0 17.28,-2.112 6.336,-2.112 8.832,-5.76 2.688,-3.648 2.688,-8.448 0,-6.528 -4.032,-9.984 -3.84,-3.456 -10.944,-3.456 -6.528,0 -11.904,2.88 -5.184,2.688 -10.944,7.872 l -14.208,-17.28 q 8.448,-7.296 17.856,-11.328 9.408,-4.224 20.544,-4.224 12.48,0 21.888,4.032 9.6,3.84 14.784,11.328 5.376,7.296 5.376,18.048 0,9.408 -5.376,16.128 -5.184,6.72 -14.976,10.944 v 0.768 q 6.912,2.112 12.48,6.144 5.568,3.84 8.64,9.792 3.072,5.952 3.072,13.824 0,11.328 -6.336,19.392 -6.144,7.872 -16.512,12.096 -10.176,4.032 -22.464,4.032 z m 68.15998,-2.304 v -22.848 h 26.496 v -70.464 h -22.848 v -17.472 q 9.984,-1.92 16.896,-4.608 7.104,-2.688 13.44,-6.528 h 20.736 v 99.072 h 22.848 v 22.848 z m 138.43198,2.304 q -12.096,0 -21.888,-4.224 -9.6,-4.224 -15.168,-11.712 -5.376,-7.68 -5.376,-17.472 0,-7.488 2.688,-12.864 2.88,-5.568 7.488,-9.792 4.8,-4.224 10.56,-7.296 v -0.768 q -6.912,-5.376 -11.712,-12.288 -4.608,-6.912 -4.608,-16.512 0,-10.368 4.992,-17.856 4.992,-7.68 13.824,-11.712 8.832,-4.032 20.16,-4.032 16.896,0 26.88,9.216 10.176,9.024 10.176,24.192 0,5.76 -2.304,10.944 -2.112,4.992 -5.76,9.024 -3.648,3.84 -7.872,6.72 v 0.768 q 5.76,3.072 10.56,7.488 4.8,4.224 7.68,10.368 2.88,5.952 2.88,14.016 0,9.6 -5.376,17.28 -5.376,7.488 -15.168,12.096 -9.6,4.416 -22.656,4.416 z m 7.68,-73.344 q 3.648,-4.224 5.568,-8.64 1.92,-4.416 1.92,-9.216 0,-4.8 -1.728,-8.256 -1.728,-3.456 -5.184,-5.376 -3.264,-2.112 -7.872,-2.112 -5.568,0 -9.6,3.648 -4.032,3.456 -4.032,10.368 0,4.992 2.688,8.448 2.688,3.456 7.296,6.144 4.8,2.688 10.944,4.992 z m -7.104,53.76 q 4.608,0 8.256,-1.536 3.84,-1.728 5.952,-4.992 2.112,-3.456 2.112,-8.64 0,-5.376 -3.264,-8.832 -3.072,-3.648 -9.024,-6.336 -5.76,-2.88 -13.44,-6.144 -4.032,3.648 -6.72,8.832 -2.688,4.992 -2.688,10.56 0,5.376 2.496,9.216 2.688,3.84 6.912,5.952 4.416,1.92 9.408,1.92 z m -156.76813,-220.416 q -17.088,0 -31.104,-7.104 -13.824,-7.296 -22.08,-21.504002 -8.064,-14.4 -8.064,-35.52 0,-15.552 4.8,-27.648 4.8,-12.288 13.248,-20.7360004 8.448,-8.448 19.392,-12.864 11.136,-4.4159996 23.616,-4.4159996 13.632,0 23.424,4.7999996 9.792,4.8 15.936,11.52 l -14.784,17.0880004 q -4.608,-4.224 -10.176,-6.528 -5.376,-2.496 -13.44,-2.496 -9.6,0 -17.088,4.992 -7.488,4.8 -11.712,13.824 -4.224,9.024 -4.224,21.504 0,12.864 3.84,22.08 4.032,9.024 11.712,13.824 7.872,4.8 19.584,4.8 3.84,0 7.488,-0.96 3.648,-0.96 5.952,-2.88 v -21.504 h -20.736 v -23.04 h 45.696 v 57.600002 q -6.336,6.336 -17.28,10.752 -10.752,4.416 -24,4.416 z m 116.5441,0 q -12.288,0 -21.696,-3.264 -9.216,-3.456 -15.552,-10.56 -6.336,-7.296002 -9.6,-18.432002 -3.264,-11.136 -3.264,-26.496 v -68.736 h 28.416 v 71.616 q 0,11.712 2.496,18.624 2.496,6.72 7.296,9.792 4.8,3.072 11.904,3.072 6.912,0 11.904,-3.072 4.992,-3.072 7.488,-9.792 2.688,-6.912 2.688,-18.624 v -71.616 h 27.264 v 68.736 q 0,15.36 -3.264,26.496 -3.072,11.136 -9.408,18.432002 -6.144,7.104 -15.36,10.56 -9.216,3.264 -21.312,3.264 z M 2203.6546,356.44768 q -9.792,0 -17.856,-2.304 -7.872,-2.112 -14.016,-5.952 -6.144,-3.84 -10.56,-9.024 l 13.056,-17.856 q 5.568,5.376 12.288,8.832 6.72,3.456 14.4,3.456 8.832,0 14.208,-3.648 5.568,-3.84 5.568,-10.752 0,-5.376 -2.688,-9.216 -2.688,-4.032 -9.792,-6.144 -6.912,-2.112 -20.352,-2.112 v -19.968 q 10.944,0 17.28,-2.112 6.336,-2.112 8.832,-5.76 2.688,-3.648 2.688,-8.448 0,-6.528 -4.032,-9.984 -3.84,-3.456 -10.944,-3.456 -6.528,0 -11.904,2.88 -5.184,2.688 -10.944,7.872 l -14.208,-17.28 q 8.448,-7.296 17.856,-11.328 9.408,-4.224 20.544,-4.224 12.48,0 21.888,4.032 9.6,3.84 14.784,11.328 5.376,7.296 5.376,18.048 0,9.408 -5.376,16.128 -5.184,6.72 -14.976,10.944 v 0.768 q 6.912,2.112 12.48,6.144 5.568,3.84 8.64,9.792 3.072,5.952 3.072,13.824 0,11.328 -6.336,19.392 -6.144,7.872 -16.512,12.096 -10.176,4.032 -22.464,4.032 z m 105.408,0 q -19.584,0 -31.68,-16.32 -11.904,-16.32 -11.904,-47.424 0,-31.296 11.904,-47.04 12.096,-15.744 31.68,-15.744 19.584,0 31.488,15.936 12.096,15.744 12.096,46.848 0,31.104 -12.096,47.424 -11.904,16.32 -31.488,16.32 z m 0,-21.888 q 4.8,0 8.64,-3.456 3.84,-3.648 5.952,-12.672 2.304,-9.216 2.304,-25.728 0,-16.704 -2.304,-25.536 -2.112,-8.832 -5.952,-12.096 -3.84,-3.264 -8.64,-3.264 -4.8,0 -8.64,3.264 -3.84,3.264 -6.144,12.096 -2.112,8.832 -2.112,25.536 0,16.512 2.112,25.728 2.304,9.024 6.144,12.672 3.84,3.456 8.64,3.456 z m 64.128,19.584 v -22.848 h 26.496 v -70.464 h -22.848 v -17.472 q 9.984,-1.92 16.896,-4.608 7.104,-2.688 13.44,-6.528 h 20.736 v 99.072 h 22.848 v 22.848 z m -119.1362,-237.696 q -17.088,0 -31.104,-7.104 -13.824,-7.296 -22.08,-21.504002 -8.064,-14.4 -8.064,-35.52 0,-15.552 4.8,-27.648 4.8,-12.288 13.248,-20.7360004 8.448,-8.448 19.392,-12.864 11.136,-4.4159996 23.616,-4.4159996 13.632,0 23.424,4.7999996 9.792,4.8 15.936,11.52 l -14.784,17.0880004 q -4.608,-4.224 -10.176,-6.528 -5.376,-2.496 -13.44,-2.496 -9.6,0 -17.088,4.992 -7.488,4.8 -11.712,13.824 -4.224,9.024 -4.224,21.504 0,12.864 3.84,22.08 4.032,9.024 11.712,13.824 7.872,4.8 19.584,4.8 3.84,0 7.488,-0.96 3.648,-0.96 5.952,-2.88 v -21.504 h -20.736 v -23.04 h 45.696 v 57.600002 q -6.336,6.336 -17.28,10.752 -10.752,4.416 -24,4.416 z m 116.5441,0 q -12.288,0 -21.696,-3.264 -9.216,-3.456 -15.552,-10.56 -6.336,-7.296002 -9.6,-18.432002 -3.264,-11.136 -3.264,-26.496 v -68.736 h 28.416 v 71.616 q 0,11.712 2.496,18.624 2.496,6.72 7.296,9.792 4.8,3.072 11.904,3.072 6.912,0 11.904,-3.072 4.992,-3.072 7.488,-9.792 2.688,-6.912 2.688,-18.624 v -71.616 h 27.264 v 68.736 q 0,15.36 -3.264,26.496 -3.072,11.136 -9.408,18.432002 -6.144,7.104 -15.36,10.56 -9.216,3.264 -21.312,3.264 z" style="font-size:192px;font-family:'Source Sans 3';-inkscape-font-specification:'Source Sans 3, @wght=700';font-variation-settings:'wght' 700;text-align:center;white-space:pre;display:inline;fill:#bec3c6;stroke-width:55" transform="matrix(0.02439371,0,0,0.02439371,39.855313,250.55284)"/>
    <g id="g431" style="display:inline" transform="matrix(0.02439371,0,0,0.02439371,-0.02443957,234.44205)">
      <rect style="font-variation-settings:'wdth' 70,'wght' 600;display:inline;fill:#d86346;fill-opacity:1;stroke-width:11.0591" id="rect406" width="1545.0032" height="405.99298" x="5728.4961" y="793.01031" transform="translate(1.3713267e-7,399.9998)"/>
      <rect style="font-variation-settings:'wdth' 70,'wght' 600;display:inline;fill:#e8a08c;fill-opacity:1;stroke-width:11.6752" id="rect407" width="1544.9991" height="452.49341" x="5728.5" y="1199.0033" transform="translate(1.3713267e-7,399.9998)"/>
      <rect style="font-variation-settings:'wdth' 70,'wght' 600;display:inline;fill:#6f849e;fill-opacity:1;stroke-width:8.92717" id="rect408" width="408.78214" height="885.68414" x="6864.7173" y="910.40594" transform="translate(1.3713267e-7,399.9998)"/>
      <rect style="font-variation-settings:'wdth' 70,'wght' 600;display:inline;fill:#6f849e;fill-opacity:1;stroke-width:6.89344" id="rect409" width="1136.2179" height="190" x="5728.4995" y="1606.0901" transform="translate(1.3713267e-7,399.9998)"/>
      <rect style="font-variation-settings:'wdth' 70,'wght' 600;display:inline;fill:#6f849e;fill-opacity:1;stroke-width:5.39401" id="rect410" width="190" height="695.68414" x="5728.5" y="910.40594" transform="translate(1.3713267e-7,399.9998)"/>
    </g>
  </g>
</svg>
