<svg width="2500" height="4300" viewBox="0 0 2500 4300" version="1.1" id="svg1" xml:space="preserve" xmlns="http://www.w3.org/2000/svg">
  <defs id="defs1">
    <linearGradient id="swatch446">
      <stop style="stop-color:#4c5a5f;stop-opacity:1" offset="0" id="stop446"/>
    </linearGradient>
    <marker style="overflow:visible" id="Triangle" refX="0" refY="0" orient="auto-start-reverse" markerWidth="1" markerHeight="1" viewBox="0 0 1 1" preserveAspectRatio="xMidYMid">
      <path transform="scale(0.5)" style="fill:context-stroke;fill-rule:evenodd;stroke:context-stroke;stroke-width:1pt" d="M 5.77,0 -2.88,5 V -5 Z" id="path597"/>
    </marker>
  </defs>
  <g id="floor_1" transform="matrix(40.994169,0,0,40.994169,1.00188,-7610.757)" style="display:inline">
    <path id="path75" style="font-variation-settings:'wdth' 70,'wght' 600;display:inline;fill:#4c5a5f;fill-opacity:1;stroke:none;stroke-width:.487874" d="m 17.158787,189.59459 -1.170898,11.29076 v 2.39059 h 7.248792 v 76.43946 h -6.830573 v -1.95216 H 8.3988716 v 1.95216 H 2.5078851 v 9.49073 H 58.572737 V 279.7154 H 37.65327 l -4.7e-5,-76.43946 h 7.43951 l 0.0098,-2.39059 -1.170898,-11.29076 z m 10.846817,16.16045 h 4.878743 v 16.53894 h -4.878743 z m -0.725793,20.13601 h 1.355305 v 1.20325 h 3.619706 l -10e-7,-1.19625 1.356212,-0.007 -0.0345,28.57172 -6.296724,-4.1e-4 z"/>
    <g id="rooms_1" style="display:inline;opacity:1" transform="matrix(0.02439371,0,0,0.02439371,-0.02443957,255.98706)">
      <rect style="font-variation-settings:'wdth' 70,'wght' 600;display:inline;opacity:1;fill:#454c7f;fill-opacity:1;stroke-width:497.747;stroke-dasharray:none" id="TR_B141" width="560.57227" height="565.59515" x="1814.066" y="407.31351"/>
      <rect style="font-variation-settings:'wdth' 70,'wght' 600;display:inline;opacity:1;fill:#454c7f;fill-opacity:1;stroke-width:810.307;stroke-dasharray:none" id="TR_B145" width="849.7594" height="988.8172" x="103.81119" y="-581.50366"/>
      <rect style="font-variation-settings:'wdth' 70,'wght' 600;display:inline;opacity:1;fill:#454c7f;fill-opacity:1;stroke-width:814.023;stroke-dasharray:none" id="TR_B146" width="857.57678" height="988.81726" x="1544.5659" y="-581.50372"/>
      <rect style="font-variation-settings:'wdth' 70,'wght' 600;display:inline;opacity:1;fill:#454c7f;fill-opacity:1;stroke-width:636.791;stroke-dasharray:none" id="TR_B147" width="849.75934" height="610.68005" x="103.81119" y="-1192.1837"/>
      <rect style="font-variation-settings:'wdth' 70,'wght' 600;display:inline;opacity:1;fill:#454c7f;fill-opacity:1;stroke-width:639.713;stroke-dasharray:none" id="TR_B148" width="857.57678" height="610.67999" x="1544.5659" y="-1192.1837"/>
      <rect style="font-variation-settings:'wdth' 70,'wght' 600;display:inline;opacity:1;fill:#454c7f;fill-opacity:1;stroke-width:802.006;stroke-dasharray:none" id="TR_B149" width="849.75934" height="968.66595" x="103.81119" y="-2160.8496"/>
      <rect style="font-variation-settings:'wdth' 70,'wght' 600;display:inline;opacity:1;fill:#454c7f;fill-opacity:1;stroke-width:805.685;stroke-dasharray:none" id="TR_B150" width="857.5766" height="968.66589" x="1544.5659" y="-2160.8496"/>
      <path style="font-variation-settings:'wght' 700;display:inline;opacity:1;fill:#454c7f;fill-opacity:1;stroke:#bec3c6;stroke-width:0" d="m 103.81119,-2721.7055 h 600.60045 l -47.99991,462.8559 -144.41173,-1e-4 v 98 H 103.81118 Z" id="TR_B151"/>
      <rect style="font-variation-settings:'wdth' 70,'wght' 600;display:inline;opacity:1;fill:#454c7f;fill-opacity:1;stroke-width:105.161;stroke-dasharray:none" id="TR_B151a" width="144.41167" height="97.999908" x="512.00006" y="-2258.8496"/>
      <path style="font-variation-settings:'wght' 700;display:inline;opacity:1;fill:#454c7f;fill-opacity:1;stroke:#bec3c6;stroke-width:0" d="m 2402.1427,-2721.7055 h -600.2001 l 48,462.8559 144.0113,-1e-4 v 98 h 408.1888 z" id="TR_B152"/>
      <rect style="font-variation-settings:'wdth' 70,'wght' 600;display:inline;opacity:1;fill:#454c7f;fill-opacity:1;stroke-width:105.161;stroke-dasharray:none" id="TR_B152a" width="144.41167" height="97.999908" x="1849.5422" y="-2258.8496"/>
      <rect style="font-variation-settings:'wdth' 70,'wght' 600;display:inline;opacity:1;fill:#454c7f;fill-opacity:1;stroke-width:212.818;stroke-dasharray:none" id="TR_B142a" width="251.99789" height="230.00003" x="1562.0681" y="424.81351"/>
      <rect style="font-variation-settings:'wdth' 70,'wght' 600;display:inline;opacity:1;fill:#454c7f;fill-opacity:1;stroke-width:250.205;stroke-dasharray:none" id="TR_B142" width="251.99788" height="317.90961" x="1562.0681" y="654.81354"/>
      <rect style="font-variation-settings:'wdth' 70,'wght' 600;display:inline;opacity:1;fill:#454c7f;fill-opacity:1;stroke-width:217.211;stroke-dasharray:none" id="TR_B143" width="262.51245" height="230.00003" x="673.55621" y="424.81351"/>
      <path style="font-variation-settings:'wght' 700;fill:#454c7f;fill-opacity:1;stroke-width:10" d="m 103.81117,407.3131 569.74506,4.1e-4 -9e-5,247.49959 H 953.57043 V 972.7226 H 387.02682 V 578.1571 H 103.81118 Z" id="TR_B144"/>
    </g>
    <g id="staires_1L" transform="matrix(0.02439371,0,0,0.02439371,-68.59792,263.82905)" style="display:inline">
      <rect style="font-variation-settings:'wdth' 70,'wght' 600;display:inline;fill:#353c40;fill-opacity:1;stroke-width:8.03141;stroke-dasharray:none" id="rect157" width="270.71774" height="29.06435" x="2914.9243" y="462.98889"/>
      <rect style="font-variation-settings:'wdth' 70,'wght' 600;display:inline;fill:#373e43;fill-opacity:1;stroke-width:8.03141;stroke-dasharray:none" id="rect158" width="270.71774" height="29.06435" x="2914.9243" y="492.05325"/>
      <rect style="font-variation-settings:'wdth' 70,'wght' 600;display:inline;fill:#3a4146;fill-opacity:1;stroke-width:8.03141;stroke-dasharray:none" id="rect159" width="270.71774" height="29.06435" x="2914.9243" y="521.11761"/>
      <rect style="font-variation-settings:'wdth' 70,'wght' 600;display:inline;fill:#3c4449;fill-opacity:1;stroke-width:8.03141;stroke-dasharray:none" id="rect160" width="270.71774" height="29.06435" x="2914.9243" y="550.18195"/>
      <rect style="font-variation-settings:'wdth' 70,'wght' 600;display:inline;fill:#3e474c;fill-opacity:1;stroke-width:8.03141;stroke-dasharray:none" id="rect161" width="270.71774" height="29.06435" x="2914.9243" y="579.24628"/>
      <rect style="font-variation-settings:'wdth' 70,'wght' 600;display:inline;fill:#404a4f;fill-opacity:1;stroke-width:8.03141;stroke-dasharray:none" id="rect162" width="270.71774" height="29.06435" x="2914.9243" y="608.31061"/>
      <rect style="font-variation-settings:'wdth' 70,'wght' 600;display:inline;fill:#424d52;fill-opacity:1;stroke-width:8.03141;stroke-dasharray:none" id="rect163" width="270.71774" height="29.06435" x="2914.9243" y="637.37494"/>
      <rect style="font-variation-settings:'wdth' 70,'wght' 600;display:inline;fill:#445055;fill-opacity:1;stroke-width:8.03141;stroke-dasharray:none" id="rect164" width="270.71774" height="29.06435" x="2914.9243" y="666.43927"/>
      <rect style="font-variation-settings:'wdth' 70,'wght' 600;display:inline;fill:#465358;fill-opacity:1;stroke-width:8.03141;stroke-dasharray:none" id="rect165" width="270.71774" height="29.06435" x="2914.9243" y="695.5036"/>
      <rect style="font-variation-settings:'wdth' 70,'wght' 600;display:inline;fill:#48565b;fill-opacity:1;stroke-width:8.03141;stroke-dasharray:none" id="rect166" width="270.71774" height="29.06435" x="2914.9243" y="724.56793"/>
      <rect style="font-variation-settings:'wdth' 70,'wght' 600;display:inline;fill:#4b595e;fill-opacity:1;stroke-width:8.03141;stroke-dasharray:none" id="rect167" width="270.71774" height="29.06435" x="2914.9243" y="753.63226"/>
      <rect style="font-variation-settings:'wdth' 70,'wght' 600;display:inline;fill:#000;fill-opacity:1;stroke-width:1.47501;stroke-dasharray:none" id="rect170" width="265.38858" height="1" x="2914.9243" y="461.98889"/>
      <rect style="font-variation-settings:'wdth' 70,'wght' 600;display:inline;fill:#000;fill-opacity:1;stroke-width:1.47501;stroke-dasharray:none" id="rect172" width="265.38858" height="1" x="2914.9243" y="491.05325"/>
      <rect style="font-variation-settings:'wdth' 70,'wght' 600;display:inline;fill:#000;fill-opacity:1;stroke-width:1.47501;stroke-dasharray:none" id="rect173" width="265.38858" height="1" x="2914.9243" y="520.11761"/>
      <rect style="font-variation-settings:'wdth' 70,'wght' 600;display:inline;fill:#000;fill-opacity:1;stroke-width:1.47501;stroke-dasharray:none" id="rect174" width="265.38858" height="1" x="2914.9243" y="549.18195"/>
      <rect style="font-variation-settings:'wdth' 70,'wght' 600;display:inline;fill:#000;fill-opacity:1;stroke-width:1.47501;stroke-dasharray:none" id="rect175" width="265.38858" height="1" x="2914.9243" y="578.24628"/>
      <rect style="font-variation-settings:'wdth' 70,'wght' 600;display:inline;fill:#000;fill-opacity:1;stroke-width:1.47501;stroke-dasharray:none" id="rect181" width="265.38858" height="1" x="2914.9243" y="607.31061"/>
      <rect style="font-variation-settings:'wdth' 70,'wght' 600;display:inline;fill:#000;fill-opacity:1;stroke-width:1.47501;stroke-dasharray:none" id="rect182" width="265.38858" height="1" x="2914.9243" y="636.37494"/>
      <rect style="font-variation-settings:'wdth' 70,'wght' 600;display:inline;fill:#000;fill-opacity:1;stroke-width:1.47501;stroke-dasharray:none" id="rect183" width="265.38858" height="1" x="2914.9243" y="665.43927"/>
      <rect style="font-variation-settings:'wdth' 70,'wght' 600;display:inline;fill:#000;fill-opacity:1;stroke-width:1.47501;stroke-dasharray:none" id="rect184" width="265.38858" height="1" x="2914.9243" y="694.5036"/>
      <rect style="font-variation-settings:'wdth' 70,'wght' 600;display:inline;fill:#000;fill-opacity:1;stroke-width:1.47501;stroke-dasharray:none" id="rect280" width="265.38858" height="1" x="2914.9243" y="723.56793"/>
      <rect style="font-variation-settings:'wdth' 70,'wght' 600;display:inline;fill:#000;fill-opacity:1;stroke-width:1.47501;stroke-dasharray:none" id="rect281" width="265.38858" height="1" x="2914.9243" y="752.63226"/>
      <rect style="font-variation-settings:'wdth' 70,'wght' 600;display:inline;fill:#000;fill-opacity:1;stroke-width:1.47501;stroke-dasharray:none" id="rect282" width="265.38858" height="1" x="2914.9243" y="781.69659"/>
      <rect style="font-variation-settings:'wdth' 70,'wght' 600;display:inline;fill:#333a3d;fill-opacity:1;stroke-width:8.03141;stroke-dasharray:none" id="rect389" width="270.71774" height="29.06435" x="2914.9243" y="433.92453"/>
      <rect style="font-variation-settings:'wdth' 70,'wght' 600;display:inline;fill:#31373a;fill-opacity:1;stroke-width:8.03141;stroke-dasharray:none" id="rect390" width="270.71774" height="29.06435" x="2914.9243" y="404.86017"/>
      <rect style="font-variation-settings:'wdth' 70,'wght' 600;display:inline;fill:#2f3437;fill-opacity:1;stroke-width:8.03141;stroke-dasharray:none" id="rect391" width="270.71774" height="29.06435" x="2914.9243" y="375.79581"/>
      <rect style="font-variation-settings:'wdth' 70,'wght' 600;display:inline;fill:#2d3134;fill-opacity:1;stroke-width:8.03141;stroke-dasharray:none" id="rect392" width="270.71774" height="29.06435" x="2914.9243" y="346.73145"/>
      <rect style="font-variation-settings:'wdth' 70,'wght' 600;display:inline;fill:#2b2e31;fill-opacity:1;stroke-width:8.03141;stroke-dasharray:none" id="rect393" width="270.71774" height="29.06435" x="2914.9243" y="317.66708"/>
      <rect style="font-variation-settings:'wdth' 70,'wght' 600;display:inline;fill:#292b2e;fill-opacity:1;stroke-width:9.8241;stroke-dasharray:none" id="rect394" width="270.71774" height="43.487358" x="2914.9243" y="274.17972"/>
      <rect style="font-variation-settings:'wdth' 70,'wght' 600;display:inline;fill:#000;fill-opacity:1;stroke-width:1.47501;stroke-dasharray:none" id="rect395" width="265.38858" height="1" x="2914.9243" y="461.98889"/>
      <rect style="font-variation-settings:'wdth' 70,'wght' 600;display:inline;fill:#000;fill-opacity:1;stroke-width:1.47501;stroke-dasharray:none" id="rect396" width="265.38858" height="1" x="2914.9243" y="432.92453"/>
      <rect style="font-variation-settings:'wdth' 70,'wght' 600;display:inline;fill:#000;fill-opacity:1;stroke-width:1.47501;stroke-dasharray:none" id="rect397" width="265.38858" height="1" x="2914.9243" y="403.86017"/>
      <rect style="font-variation-settings:'wdth' 70,'wght' 600;display:inline;fill:#000;fill-opacity:1;stroke-width:1.47501;stroke-dasharray:none" id="rect398" width="265.38858" height="1" x="2914.9243" y="345.73145"/>
      <rect style="font-variation-settings:'wdth' 70,'wght' 600;display:inline;fill:#000;fill-opacity:1;stroke-width:1.47501;stroke-dasharray:none" id="rect399" width="265.38858" height="1" x="2914.9243" y="374.79581"/>
      <rect style="font-variation-settings:'wdth' 70,'wght' 600;display:inline;fill:#000;fill-opacity:1;stroke-width:1.47501;stroke-dasharray:none" id="rect400" width="265.38858" height="1" x="2914.9243" y="316.66708"/>
      <path style="font-variation-settings:'wdth' 70,'wght' 600;display:inline;opacity:1;fill:none;fill-opacity:1;stroke:#bec3c6;stroke-width:5;stroke-dasharray:none;stroke-opacity:1;marker-end:url(#Triangle)" d="M 3065.6717,295.9234 V 750.40906" id="path282" transform="translate(4.5528486e-5,3.7190554e-5)"/>
    </g>
    <g id="staires_1M" transform="matrix(0.02439371,0,0,0.02439371,-5.4914133,228.05514)" style="display:inline">
      <rect style="font-variation-settings:'wdth' 70,'wght' 600;display:inline;fill:#404a4f;fill-opacity:1;stroke-width:5.94608;stroke-dasharray:none" id="rect283" width="148.3868" height="29.06435" x="1398.9889" y="105.93293"/>
      <rect style="font-variation-settings:'wdth' 70,'wght' 600;display:inline;fill:#424d52;fill-opacity:1;stroke-width:5.94608;stroke-dasharray:none" id="rect284" width="148.3868" height="29.06435" x="1398.9889" y="76.868599"/>
      <rect style="font-variation-settings:'wdth' 70,'wght' 600;display:inline;fill:#445055;fill-opacity:1;stroke-width:5.94608;stroke-dasharray:none" id="rect285" width="148.3868" height="29.06435" x="1398.9889" y="47.804203"/>
      <rect style="font-variation-settings:'wdth' 70,'wght' 600;display:inline;fill:#465358;fill-opacity:1;stroke-width:5.94608;stroke-dasharray:none" id="rect286" width="148.3868" height="29.06435" x="1398.9889" y="18.739864"/>
      <rect style="font-variation-settings:'wdth' 70,'wght' 600;display:inline;fill:#48565b;fill-opacity:1;stroke-width:5.94608;stroke-dasharray:none" id="rect287" width="148.3868" height="29.06435" x="1398.9889" y="-10.324534"/>
      <rect style="font-variation-settings:'wdth' 70,'wght' 600;display:inline;fill:#4b595e;fill-opacity:1;stroke-width:5.94608;stroke-dasharray:none" id="rect288" width="148.38684" height="29.06435" x="1398.9889" y="-39.388859" transform="translate(4.8690483e-6,4.9521346e-5)"/>
      <rect style="font-variation-settings:'wdth' 70,'wght' 600;display:inline;fill:#3e474c;fill-opacity:1;stroke-width:5.94608;stroke-dasharray:none" id="rect403" width="148.3868" height="29.06435" x="1398.9889" y="134.99728"/>
      <rect style="font-variation-settings:'wdth' 70,'wght' 600;display:inline;fill:#3c4449;fill-opacity:1;stroke-width:5.94608;stroke-dasharray:none" id="rect404" width="148.3868" height="29.06435" x="1398.9889" y="164.06163"/>
      <rect style="font-variation-settings:'wdth' 70,'wght' 600;display:inline;fill:#3a4146;fill-opacity:1;stroke-width:5.94608;stroke-dasharray:none" id="rect406" width="148.3868" height="29.06435" x="1398.9889" y="193.12598"/>
      <rect style="font-variation-settings:'wdth' 70,'wght' 600;display:inline;fill:#373e43;fill-opacity:1;stroke-width:5.94608;stroke-dasharray:none" id="rect407" width="148.3868" height="29.06435" x="1398.9889" y="222.19032"/>
      <rect style="font-variation-settings:'wdth' 70,'wght' 600;display:inline;fill:#353c40;fill-opacity:1;stroke-width:5.94608;stroke-dasharray:none" id="rect408" width="148.3868" height="29.06435" x="1398.9889" y="251.25467"/>
      <rect style="font-variation-settings:'wdth' 70,'wght' 600;display:inline;fill:#333a3d;fill-opacity:1;stroke-width:5.94608;stroke-dasharray:none" id="rect409" width="148.3868" height="29.06435" x="1398.9889" y="280.31903"/>
      <rect style="font-variation-settings:'wdth' 70,'wght' 600;display:inline;fill:#333a3d;fill-opacity:1;stroke-width:13.0209;stroke-dasharray:none" id="rect410" width="148.3868" height="139.37302" x="1398.9889" y="309.38339"/>
      <rect style="font-variation-settings:'wdth' 70,'wght' 600;display:inline;fill:#333a3d;fill-opacity:1;stroke-width:5.94608;stroke-dasharray:none" id="rect411" width="148.3868" height="29.06435" x="1398.9889" y="448.75641"/>
      <rect style="font-variation-settings:'wdth' 70,'wght' 600;display:inline;fill:#31373a;fill-opacity:1;stroke-width:5.94608;stroke-dasharray:none" id="rect412" width="148.3868" height="29.06435" x="1398.9889" y="477.82077"/>
      <rect style="font-variation-settings:'wdth' 70,'wght' 600;display:inline;fill:#2f3437;fill-opacity:1;stroke-width:5.94608;stroke-dasharray:none" id="rect413" width="148.3868" height="29.06435" x="1398.9889" y="506.88513"/>
      <rect style="font-variation-settings:'wdth' 70,'wght' 600;display:inline;fill:#292b2e;fill-opacity:1;stroke-width:5.94608;stroke-dasharray:none" id="rect414" width="148.3868" height="29.06435" x="1398.9889" y="535.94946"/>
      <rect style="font-variation-settings:'wdth' 70,'wght' 600;display:inline;fill:#26282b;fill-opacity:1;stroke-width:5.94608;stroke-dasharray:none" id="rect415" width="148.3868" height="29.06435" x="1398.9889" y="565.01379"/>
      <rect style="font-variation-settings:'wdth' 70,'wght' 600;display:inline;fill:#242629;fill-opacity:1;stroke-width:5.94608;stroke-dasharray:none" id="rect416" width="148.3868" height="29.06435" x="1398.9889" y="594.07812"/>
      <rect style="font-variation-settings:'wdth' 70,'wght' 600;display:inline;fill:#212326;fill-opacity:1;stroke-width:5.94608;stroke-dasharray:none" id="rect417" width="148.3868" height="29.06435" x="1398.9889" y="623.14246"/>
      <rect style="font-variation-settings:'wdth' 70,'wght' 600;display:inline;fill:#1f2123;fill-opacity:1;stroke-width:5.94608;stroke-dasharray:none" id="rect418" width="148.3868" height="29.06435" x="1398.9889" y="652.20679"/>
      <rect style="font-variation-settings:'wdth' 70,'wght' 600;display:inline;fill:#1d1f20;fill-opacity:1;stroke-width:5.94608;stroke-dasharray:none" id="rect419" width="148.3868" height="29.06435" x="1398.9889" y="681.27112"/>
      <rect style="font-variation-settings:'wdth' 70,'wght' 600;display:inline;fill:#1b1d1d;fill-opacity:1;stroke-width:5.94608;stroke-dasharray:none" id="rect420" width="148.3868" height="29.06435" x="1398.9889" y="710.33545"/>
      <rect style="font-variation-settings:'wdth' 70,'wght' 600;display:inline;fill:#191a1a;fill-opacity:1;stroke-width:5.94608;stroke-dasharray:none" id="rect421" width="148.3868" height="29.06435" x="1398.9889" y="739.39978"/>
      <rect style="font-variation-settings:'wdth' 70,'wght' 600;display:inline;fill:#171717;fill-opacity:1;stroke-width:5.94608;stroke-dasharray:none" id="rect422" width="148.3868" height="29.06435" x="1398.9889" y="768.46411"/>
      <rect style="font-variation-settings:'wdth' 70,'wght' 600;display:inline;fill:#000;fill-opacity:1;stroke-width:1.10294;stroke-dasharray:none" id="rect423" width="148.38684" height="1.0000001" x="1398.9889" y="-39.388844"/>
      <rect style="font-variation-settings:'wdth' 70,'wght' 600;display:inline;fill:#000;fill-opacity:1;stroke-width:1.10294;stroke-dasharray:none" id="rect424" width="148.38684" height="1.0000001" x="1398.9889" y="-10.324534"/>
      <rect style="font-variation-settings:'wdth' 70,'wght' 600;display:inline;fill:#000;fill-opacity:1;stroke-width:1.10294;stroke-dasharray:none" id="rect425" width="148.38684" height="1.0000001" x="1398.9889" y="18.739864"/>
      <rect style="font-variation-settings:'wdth' 70,'wght' 600;display:inline;fill:#000;fill-opacity:1;stroke-width:1.10294;stroke-dasharray:none" id="rect426" width="148.38684" height="1.0000001" x="1398.9889" y="47.804214"/>
      <rect style="font-variation-settings:'wdth' 70,'wght' 600;display:inline;fill:#000;fill-opacity:1;stroke-width:1.10294;stroke-dasharray:none" id="rect427" width="148.38684" height="1.0000001" x="1398.9889" y="76.868599"/>
      <rect style="font-variation-settings:'wdth' 70,'wght' 600;display:inline;fill:#000;fill-opacity:1;stroke-width:1.10294;stroke-dasharray:none" id="rect428" width="148.38684" height="1.0000001" x="1398.9889" y="105.93295"/>
      <rect style="font-variation-settings:'wdth' 70,'wght' 600;display:inline;fill:#000;fill-opacity:1;stroke-width:1.10294;stroke-dasharray:none" id="rect429" width="148.38684" height="1.0000001" x="1398.9889" y="134.99728"/>
      <rect style="font-variation-settings:'wdth' 70,'wght' 600;display:inline;fill:#000;fill-opacity:1;stroke-width:1.10294;stroke-dasharray:none" id="rect430" width="148.38684" height="1.0000001" x="1398.9889" y="164.06163"/>
      <rect style="font-variation-settings:'wdth' 70,'wght' 600;display:inline;fill:#000;fill-opacity:1;stroke-width:1.10294;stroke-dasharray:none" id="rect431" width="148.38684" height="1.0000001" x="1398.9889" y="193.12598"/>
      <rect style="font-variation-settings:'wdth' 70,'wght' 600;display:inline;fill:#000;fill-opacity:1;stroke-width:1.10294;stroke-dasharray:none" id="rect432" width="148.38684" height="1.0000001" x="1398.9889" y="222.19032"/>
      <rect style="font-variation-settings:'wdth' 70,'wght' 600;display:inline;fill:#000;fill-opacity:1;stroke-width:1.10294;stroke-dasharray:none" id="rect433" width="148.38684" height="1.0000001" x="1398.9889" y="251.25467"/>
      <rect style="font-variation-settings:'wdth' 70,'wght' 600;display:inline;fill:#000;fill-opacity:1;stroke-width:1.10294;stroke-dasharray:none" id="rect434" width="148.38684" height="1.0000001" x="1398.9889" y="280.31903"/>
      <rect style="font-variation-settings:'wdth' 70,'wght' 600;display:inline;fill:#000;fill-opacity:1;stroke-width:1.10294;stroke-dasharray:none" id="rect435" width="148.38684" height="1.0000001" x="1398.9889" y="309.38339"/>
      <rect style="font-variation-settings:'wdth' 70,'wght' 600;display:inline;fill:#000;fill-opacity:1;stroke-width:1.10294;stroke-dasharray:none" id="rect436" width="148.38684" height="1.0000001" x="1398.9889" y="448.75641"/>
      <rect style="font-variation-settings:'wdth' 70,'wght' 600;display:inline;fill:#000;fill-opacity:1;stroke-width:1.10294;stroke-dasharray:none" id="rect437" width="148.38684" height="1.0000001" x="1398.9889" y="477.82077"/>
      <rect style="font-variation-settings:'wdth' 70,'wght' 600;display:inline;fill:#000;fill-opacity:1;stroke-width:1.10294;stroke-dasharray:none" id="rect438" width="148.38684" height="1.0000001" x="1398.9889" y="506.38513"/>
      <rect style="font-variation-settings:'wdth' 70,'wght' 600;display:inline;fill:#000;fill-opacity:1;stroke-width:1.10294;stroke-dasharray:none" id="rect439" width="148.38684" height="1.0000001" x="1398.9889" y="535.94946"/>
      <rect style="font-variation-settings:'wdth' 70,'wght' 600;display:inline;fill:#000;fill-opacity:1;stroke-width:1.10294;stroke-dasharray:none" id="rect440" width="148.38684" height="1.0000001" x="1398.9889" y="565.01379"/>
      <rect style="font-variation-settings:'wdth' 70,'wght' 600;display:inline;fill:#000;fill-opacity:1;stroke-width:1.10294;stroke-dasharray:none" id="rect441" width="148.38684" height="1.0000001" x="1398.9889" y="594.07812"/>
      <rect style="font-variation-settings:'wdth' 70,'wght' 600;display:inline;fill:#000;fill-opacity:1;stroke-width:1.10294;stroke-dasharray:none" id="rect442" width="148.38684" height="1.0000001" x="1398.9889" y="623.14246"/>
      <rect style="font-variation-settings:'wdth' 70,'wght' 600;display:inline;fill:#000;fill-opacity:1;stroke-width:1.10294;stroke-dasharray:none" id="rect443" width="148.38684" height="1.0000001" x="1398.9889" y="652.20679"/>
      <rect style="font-variation-settings:'wdth' 70,'wght' 600;display:inline;fill:#000;fill-opacity:1;stroke-width:1.10294;stroke-dasharray:none" id="rect444" width="148.38684" height="1.0000001" x="1398.9889" y="681.27112"/>
      <rect style="font-variation-settings:'wdth' 70,'wght' 600;display:inline;fill:#000;fill-opacity:1;stroke-width:1.10294;stroke-dasharray:none" id="rect445" width="148.38684" height="1.0000001" x="1398.9889" y="710.33545"/>
      <rect style="font-variation-settings:'wdth' 70,'wght' 600;display:inline;fill:#000;fill-opacity:1;stroke-width:1.10294;stroke-dasharray:none" id="rect446" width="148.38684" height="1.0000001" x="1398.9889" y="739.39978"/>
      <rect style="font-variation-settings:'wdth' 70,'wght' 600;display:inline;fill:#000;fill-opacity:1;stroke-width:1.10294;stroke-dasharray:none" id="rect447" width="148.38684" height="1.0000001" x="1398.9889" y="768.46411"/>
      <rect style="font-variation-settings:'wdth' 70,'wght' 600;display:inline;fill:#000;fill-opacity:1;stroke-width:1.064;stroke-dasharray:none" id="rect448" width="138.09387" height="1.0000001" x="1404.1373" y="797.52844"/>
      <path style="font-variation-settings:'wght' 700;display:inline;fill:none;fill-opacity:1;stroke:#bec3c6;stroke-width:10.2899;stroke-dasharray:none" d="M 1398.9889,797.52846 V -88.715223 h -55.5596 V 1082.5588 h 258.129 l 1.4142,-1171.274023 h -55.5968 V 797.52844" id="path301" transform="translate(4.8690483e-6,4.9521346e-5)"/>
      <path style="font-variation-settings:'wdth' 70,'wght' 600;display:inline;opacity:1;fill:none;fill-opacity:1;stroke:#bec3c6;stroke-width:5;stroke-dasharray:none;stroke-opacity:1;marker-end:url(#Triangle)" d="M 1473.1823,782.99628 V -10.324459" id="path302" transform="translate(4.8690483e-6,4.9521346e-5)"/>
    </g>
    <g id="walls_1" transform="matrix(0.02439371,0,0,0.02439371,-0.02443957,244.19953)" style="display:inline">
      <path style="font-variation-settings:'wdth' 70,'wght' 600;fill:none;stroke:#bec3c6;stroke-width:55;stroke-linecap:butt;stroke-dasharray:none;stroke-opacity:1" d="M 1149.0682,-2238.4854 H 103.81119 v 4083.494 h 321.26216" id="path303"/>
      <path style="font-variation-settings:'wdth' 70,'wght' 600;fill:none;stroke:#bec3c6;stroke-width:10;stroke-linecap:butt;stroke-dasharray:none;stroke-opacity:1" d="M 2425.4533,581.52975 V -6.095757" id="path304"/>
      <path style="font-variation-settings:'wdth' 70,'wght' 600;fill:none;stroke:#bec3c6;stroke-width:35;stroke-linecap:butt;stroke-dasharray:none;stroke-opacity:1" d="m 1544.5659,-878.81602 v 420.43076" id="path305"/>
      <path style="font-variation-settings:'wdth' 70,'wght' 600;fill:none;stroke:#bec3c6;stroke-width:35;stroke-linecap:butt;stroke-dasharray:none;stroke-opacity:1" d="m 1544.5659,-978.81593 v -698.81357 h 857.5768" id="path306"/>
      <path style="font-variation-settings:'wdth' 70,'wght' 600;fill:none;stroke:#bec3c6;stroke-width:35;stroke-linecap:butt;stroke-dasharray:none;stroke-opacity:1" d="M 953.57055,163.45952 V 1455.9432 h -73.97067" id="path308"/>
      <path style="font-variation-settings:'wdth' 70,'wght' 600;fill:none;stroke:#bec3c6;stroke-width:35;stroke-linecap:butt;stroke-dasharray:none;stroke-opacity:1" d="m 103.81119,-98.283582 h 857.5768" id="path309"/>
      <path style="font-variation-settings:'wdth' 70,'wght' 600;fill:none;stroke:#bec3c6;stroke-width:35;stroke-linecap:butt;stroke-dasharray:none;stroke-opacity:1" d="M 103.81119,-708.96361 H 953.57055" id="path310"/>
      <path style="font-variation-settings:'wdth' 70,'wght' 600;fill:none;stroke:#bec3c6;stroke-width:35;stroke-linecap:butt;stroke-dasharray:none;stroke-opacity:1" d="m 1544.5659,-98.283582 h 857.5768" id="path311"/>
      <path style="font-variation-settings:'wdth' 70,'wght' 600;fill:none;stroke:#bec3c6;stroke-width:35;stroke-linecap:butt;stroke-dasharray:none;stroke-opacity:1" d="M 1544.5659,-358.38535 V 63.459606" id="path312"/>
      <path style="font-variation-settings:'wdth' 70,'wght' 600;fill:none;stroke:#bec3c6;stroke-width:35;stroke-linecap:butt;stroke-dasharray:none;stroke-opacity:1" d="M 1544.5659,163.45952 V 1455.9432 h 84.449" id="path313"/>
      <path style="font-variation-settings:'wdth' 70,'wght' 600;fill:none;stroke:#bec3c6;stroke-width:35;stroke-linecap:butt;stroke-dasharray:none;stroke-opacity:1" d="m 1544.5659,-708.96361 h 857.5768" id="path314"/>
      <path style="font-variation-settings:'wdth' 70,'wght' 600;fill:none;stroke:#bec3c6;stroke-width:55;stroke-linecap:butt;stroke-dasharray:none;stroke-opacity:1" d="m 1349.0683,-2238.4854 h 1053.0744 v 4083.494 h -41.3716" id="path315"/>
      <path style="font-variation-settings:'wdth' 70,'wght' 600;fill:none;stroke:#bec3c6;stroke-width:35;stroke-linecap:butt;stroke-dasharray:none;stroke-opacity:1" d="M 953.57055,-358.38535 V 63.459606" id="path316"/>
      <path style="font-variation-settings:'wdth' 70,'wght' 600;fill:none;stroke:#bec3c6;stroke-width:35;stroke-linecap:butt;stroke-dasharray:none;stroke-opacity:1" d="m 953.57055,-878.81602 v 420.43076" id="path317"/>
      <path style="font-variation-settings:'wdth' 70,'wght' 600;fill:none;stroke:#bec3c6;stroke-width:35;stroke-linecap:butt;stroke-dasharray:none;stroke-opacity:1" d="M 953.57055,-978.81593 V -1677.6295 H 103.81119" id="path318"/>
      <path style="font-variation-settings:'wdth' 70,'wght' 600;fill:none;stroke:#bec3c6;stroke-width:35;stroke-linecap:butt;stroke-dasharray:none;stroke-opacity:1" d="m 103.81119,890.53357 h 857.5768" id="path319"/>
      <path style="font-variation-settings:'wdth' 70,'wght' 600;fill:none;stroke:#bec3c6;stroke-width:35;stroke-linecap:butt;stroke-dasharray:none;stroke-opacity:1" d="m 1544.5659,890.53357 h 857.5768" id="path320"/>
      <path style="font-variation-settings:'wdth' 70,'wght' 600;fill:none;stroke:#bec3c6;stroke-width:10;stroke-linecap:butt;stroke-dasharray:none;stroke-opacity:1" d="M 1814.066,890.53357 V 1456.1287" id="path321"/>
      <path style="font-variation-settings:'wdth' 70,'wght' 600;fill:none;stroke:#bec3c6;stroke-width:10;stroke-linecap:butt;stroke-dasharray:none;stroke-opacity:1" d="m 1544.5659,1138.0336 h 56.949" id="path322"/>
      <path style="font-variation-settings:'wdth' 70,'wght' 600;fill:none;stroke:#bec3c6;stroke-width:10;stroke-linecap:butt;stroke-dasharray:none;stroke-opacity:1" d="M 1701.5149,1138.0336 H 1814.066" id="path323"/>
      <path style="font-variation-settings:'wdth' 70,'wght' 600;fill:none;stroke:#bec3c6;stroke-width:35;stroke-linecap:butt;stroke-dasharray:none;stroke-opacity:1" d="m 1729.0149,1455.9432 h 169.051" id="path324"/>
      <path style="font-variation-settings:'wdth' 70,'wght' 600;fill:none;stroke:#bec3c6;stroke-width:35;stroke-linecap:butt;stroke-dasharray:none;stroke-opacity:1" d="m 1998.0659,1455.9432 h 404.0768" id="path325"/>
      <path style="font-variation-settings:'wdth' 70,'wght' 600;fill:none;stroke:#bec3c6;stroke-width:10;stroke-linecap:butt;stroke-dasharray:none;stroke-opacity:1" d="M 763.07418,1138.0336 H 673.55623 V 890.53357" id="path328"/>
      <path style="font-variation-settings:'wdth' 70,'wght' 600;fill:none;stroke:#bec3c6;stroke-width:10;stroke-linecap:butt;stroke-dasharray:none;stroke-opacity:1" d="m 863.07419,1138.0336 h 90.49636" id="path329"/>
      <path style="font-variation-settings:'wdth' 70,'wght' 600;fill:none;stroke:#bec3c6;stroke-width:55;stroke-linecap:butt;stroke-dasharray:none;stroke-opacity:1" d="M 2260.7711,1845.0086 H 2099.5743" id="path331"/>
      <path style="font-variation-settings:'wdth' 70,'wght' 600;fill:none;stroke:#bec3c6;stroke-width:10;stroke-linecap:butt;stroke-dasharray:none;stroke-opacity:1" d="m 374.52885,1455.9432 v 205.145" id="path334"/>
      <path style="font-variation-settings:'wdth' 70,'wght' 600;fill:none;stroke:#bec3c6;stroke-width:10;stroke-linecap:butt;stroke-dasharray:none;stroke-opacity:1" d="M 953.57055,1468.4432 H 1149.0682" id="path335"/>
      <path style="font-variation-settings:'wdth' 70,'wght' 600;fill:none;stroke:#bec3c6;stroke-width:10;stroke-linecap:butt;stroke-dasharray:none;stroke-opacity:1" d="m 1349.0683,1468.4432 h 186.9339" id="path336"/>
      <path style="font-variation-settings:'wdth' 70,'wght' 600;fill:none;stroke:#bec3c6;stroke-width:35;stroke-linecap:butt;stroke-dasharray:none;stroke-opacity:1" d="m 669.78673,-1908.2714 34.625,-330.214 m -43.875,420.6419 -4.125,42.214 H 512.00007 v 98" id="path338"/>
      <path style="font-variation-settings:'wdth' 70,'wght' 600;fill:none;stroke:#bec3c6;stroke-width:35;stroke-linecap:butt;stroke-dasharray:none;stroke-opacity:1" d="m 1836.5676,-1908.2714 -34.625,-330.214 m 43.875,420.6419 4.125,42.214 h 144.4117 v 98" id="path339"/>
      <path style="font-variation-settings:'wdth' 70,'wght' 600;fill:none;stroke:#bec3c6;stroke-width:35;stroke-linecap:butt;stroke-dasharray:none;stroke-opacity:1" d="M 779.59987,1455.9432 H 518.97538" id="path385"/>
      <path style="font-variation-settings:'wdth' 70,'wght' 600;fill:none;stroke:#bec3c6;stroke-width:35;stroke-linecap:butt;stroke-dasharray:none;stroke-opacity:1" d="M 418.97536,1455.9432 H 387.02687 V 1061.3776 H 103.81119" id="path386"/>
      <path style="font-variation-settings:'wdth' 70,'wght' 600;fill:none;stroke:#bec3c6;stroke-width:55;stroke-linecap:butt;stroke-dasharray:none;stroke-opacity:1" d="M 625.07337,1845.0086 H 1899.5743" id="path387"/>
      <path style="font-variation-settings:'wdth' 70,'wght' 600;fill:none;stroke:#bec3c6;stroke-width:10;stroke-linecap:butt;stroke-dasharray:none;stroke-opacity:1" d="m 374.52885,1761.0881 v 83.9205" id="path388"/>
      <rect style="font-variation-settings:'wght' 700;fill:none;fill-opacity:1;stroke:#bec3c6;stroke-width:10;stroke-opacity:1" id="rect401" width="200.00003" height="678.00018" x="1149.0682" y="-1576.0001"/>
    </g>
    <path id="roomNames_1" d="m 379.38869,87.098644 v -7.616 h 8.832 v -23.488 h -7.616 v -5.824 q 3.328,-0.64 5.632,-1.536 2.368,-0.896 4.48,-2.176 h 6.912 v 33.024 h 7.616 v 7.616 z m 48.12799,0 v -23.488 q 0,-1.92 0.128,-4.544 0.192,-2.624 0.256,-4.544 h -0.256 q -0.768,1.664 -1.6,3.392 -0.832,1.664 -1.728,3.456 l -5.376,8.832 h 22.016 v 7.168 h -31.04 v -6.464 l 14.848,-24.448 h 11.52 v 40.64 z m 33.792,0 v -23.488 q 0,-1.92 0.128,-4.544 0.192,-2.624 0.256,-4.544 h -0.256 q -0.768,1.664 -1.6,3.392 -0.832,1.664 -1.728,3.456 l -5.376,8.832 h 22.016 v 7.168 h -31.04 v -6.464 l 14.848,-24.448 h 11.52 v 40.64 z M 365.88467,7.0986438 V -26.693356 h -11.456 v -7.936 h 32.384 v 7.936 h -11.456 V 7.0986438 Z m 27.45599,0 V -34.629356 h 15.04 q 4.416,0 8.064,1.216 3.648,1.152 5.824,4.032 2.176,2.816 2.176,7.744 0,4.8 -2.176,7.808 -2.176,3.008 -5.824,4.4799998 -3.648,1.408 -8.064,1.408 h -5.632 v 15.04 z m 9.408,-22.5279998 h 4.864 q 3.712,0 5.632,-1.536 1.984,-1.6 1.984,-4.672 0,-3.072 -1.984,-4.288 -1.92,-1.216 -5.632,-1.216 h -4.864 z m 13.184,22.5279998 -9.28,-17.4719998 6.528,-6.08 13.312,23.5519998 z m 12.48005,8.9600002 v -5.312 h 30.464 v 5.312 z m 36.16,-8.9600002 V -34.629356 h 14.272 q 4.352,0 7.808,0.96 3.52,0.896 5.504,3.2 2.048,2.24 2.048,6.208 0,3.136 -1.408,5.632 -1.408,2.432 -4.032,3.392 v 0.256 q 3.52,0.768 5.504,3.072 1.984,2.2399998 1.984,6.2719998 0,4.416 -2.176,7.232 -2.176,2.816 -5.888,4.16 -3.648,1.344 -8.128,1.344 z m 9.408,-25.0239998 h 4.416 q 3.456,0 4.992,-1.344 1.6,-1.344 1.6,-3.584 0,-2.432 -1.6,-3.456 -1.6,-1.024 -4.928,-1.024 h -4.48 z m 0,17.72799979 h 5.312 q 3.84,0 5.76,-1.34399999 1.984,-1.408 1.984,-4.288 0,-2.688 -1.984,-3.904 -1.92,-1.2159998 -5.76,-1.2159998 h -5.312 z M 527.1329,-196.11017 v -5.712 h 6.624 v -17.616 h -5.712 v -4.368 q 2.496,-0.48 4.224,-1.152 1.776,-0.672 3.36,-1.632 h 5.184 v 24.768 h 5.712 v 5.712 z m 36.09599,0 v -17.616 q 0,-1.44 0.096,-3.408 0.144,-1.968 0.192,-3.408 h -0.192 q -0.576,1.248 -1.2,2.544 -0.624,1.248 -1.296,2.592 l -4.032,6.624 h 16.512 v 5.376 h -23.28 v -4.848 l 11.136,-18.336 h 8.64 v 30.48 z m 22.896,0.576 q -2.448,0 -4.464,-0.576 -1.968,-0.528 -3.504,-1.488 -1.536,-0.96 -2.64,-2.256 l 3.264,-4.464 q 1.392,1.344 3.072,2.208 1.68,0.864 3.6,0.864 2.208,0 3.552,-0.912 1.392,-0.96 1.392,-2.688 0,-1.344 -0.672,-2.304 -0.672,-1.008 -2.448,-1.536 -1.728,-0.528 -5.088,-0.528 v -4.992 q 2.736,0 4.32,-0.528 1.584,-0.528 2.208,-1.44 0.672,-0.912 0.672,-2.112 0,-1.632 -1.008,-2.496 -0.96,-0.864 -2.736,-0.864 -1.632,0 -2.976,0.72 -1.296,0.672 -2.736,1.968 l -3.552,-4.32 q 2.112,-1.824 4.464,-2.832 2.352,-1.056 5.136,-1.056 3.12,0 5.472,1.008 2.4,0.96 3.696,2.832 1.344,1.824 1.344,4.512 0,2.352 -1.344,4.032 -1.296,1.68 -3.744,2.736 v 0.192 q 1.728,0.528 3.12,1.536 1.392,0.96 2.16,2.448 0.768,1.488 0.768,3.456 0,2.832 -1.584,4.848 -1.536,1.968 -4.128,3.024 -2.544,1.008 -5.616,1.008 z m -69.12,-60.576 v -25.344 h -8.592 v -5.952 h 24.288 v 5.952 h -8.592 v 25.344 z m 20.59198,0 v -31.296 h 11.28 q 3.312,0 6.048,0.912 2.736,0.864 4.368,3.024 1.632,2.112 1.632,5.808 0,3.6 -1.632,5.856 -1.632,2.256 -4.368,3.36 -2.736,1.056 -6.048,1.056 h -4.224 v 11.28 z m 7.056,-16.896 h 3.648 q 2.784,0 4.224,-1.152 1.488,-1.2 1.488,-3.504 0,-2.304 -1.488,-3.216 -1.44,-0.912 -4.224,-0.912 h -3.648 z m 9.888,16.896 -6.96,-13.104 4.896,-4.56 9.984,17.664 z m 9.36005,6.72 v -3.984 h 22.848 v 3.984 z m 27.12,-6.72 v -31.296 h 10.704 q 3.264,0 5.856,0.72 2.64,0.672 4.128,2.4 1.536,1.68 1.536,4.656 0,2.352 -1.056,4.224 -1.056,1.824 -3.024,2.544 v 0.192 q 2.64,0.576 4.128,2.304 1.488,1.68 1.488,4.704 0,3.312 -1.632,5.424 -1.632,2.112 -4.416,3.12 -2.736,1.008 -6.096,1.008 z m 7.056,-18.768 h 3.312 q 2.592,0 3.744,-1.008 1.2,-1.008 1.2,-2.688 0,-1.824 -1.2,-2.592 -1.2,-0.768 -3.696,-0.768 h -3.36 z m 0,13.296 h 3.984 q 2.88,0 4.32,-1.008 1.488,-1.056 1.488,-3.216 0,-2.016 -1.488,-2.928 -1.44,-0.912 -4.32,-0.912 h -3.984 z m 799.66258,65.472 v -5.712 h 6.624 v -17.616 h -5.712 v -4.368 q 2.496,-0.48 4.224,-1.152 1.776,-0.672 3.36,-1.632 h 5.184 v 24.768 h 5.712 v 5.712 z m 36.096,0 v -17.616 q 0,-1.44 0.096,-3.408 0.144,-1.968 0.192,-3.408 h -0.192 q -0.576,1.248 -1.2,2.544 -0.624,1.248 -1.296,2.592 l -4.032,6.624 h 16.512 v 5.376 h -23.28 v -4.848 l 11.136,-18.336 h 8.64 v 30.48 z m 13.008,0 v -4.368 q 3.84,-3.408 6.816,-6.384 3.024,-2.976 4.704,-5.52 1.728,-2.544 1.728,-4.656 0,-2.256 -1.152,-3.408 -1.152,-1.2 -3.168,-1.2 -1.632,0 -2.976,0.96 -1.296,0.912 -2.448,2.16 l -3.696,-3.648 q 2.208,-2.496 4.512,-3.744 2.352,-1.248 5.568,-1.248 2.976,0 5.232,1.2 2.304,1.2 3.552,3.36 1.296,2.16 1.296,5.088 0,2.736 -1.488,5.376 -1.44,2.592 -3.84,5.184 -2.4,2.592 -5.088,5.28 1.152,-0.144 2.592,-0.24 1.44,-0.144 2.496,-0.144 h 6.816 v 5.952 z m 32.688,0.576 q -2.16,0 -3.792,-0.96 -1.584,-0.96 -2.448,-2.592 -0.864,-1.632 -0.864,-3.648 0,-3.84 3.168,-5.904 3.168,-2.112 10.224,-2.832 -0.048,-1.056 -0.48,-1.776 -0.384,-0.768 -1.2,-1.152 -0.816,-0.432 -2.064,-0.432 -1.488,0 -3.024,0.528 -1.536,0.528 -3.312,1.536 l -2.496,-4.608 q 1.536,-0.96 3.168,-1.632 1.632,-0.72 3.36,-1.104 1.776,-0.384 3.648,-0.384 3.072,0 5.136,1.2 2.112,1.152 3.216,3.552 1.104,2.352 1.104,6.048 v 13.584 h -5.76 l -0.48,-2.448 h -0.192 q -1.536,1.344 -3.216,2.208 -1.68,0.816 -3.696,0.816 z m 2.352,-5.52 q 1.2,0 2.112,-0.528 0.912,-0.528 1.824,-1.44 v -4.032 q -2.496,0.336 -3.984,0.864 -1.44,0.528 -2.064,1.296 -0.576,0.72 -0.576,1.632 0,1.104 0.72,1.68 0.768,0.528 1.968,0.528 z m -81.624,-55.056 v -25.344 h -8.592 v -5.952 h 24.288 v 5.952 h -8.592 v 25.344 z m 20.592,0 v -31.296 h 11.28 q 3.312,0 6.048,0.912 2.736,0.864 4.368,3.024 1.632,2.112 1.632,5.808 0,3.6 -1.632,5.856 -1.632,2.256 -4.368,3.36 -2.736,1.056 -6.048,1.056 h -4.224 v 11.28 z m 7.056,-16.896 h 3.648 q 2.784,0 4.224,-1.152 1.488,-1.2 1.488,-3.504 0,-2.304 -1.488,-3.216 -1.44,-0.912 -4.224,-0.912 h -3.648 z m 9.888,16.896 -6.96,-13.104 4.896,-4.56 9.984,17.664 z m 9.3601,6.72 v -3.984 h 22.848 v 3.984 z m 27.12,-6.72 v -31.296 h 10.704 q 3.264,0 5.856,0.72 2.64,0.672 4.128,2.4 1.536,1.68 1.536,4.656 0,2.352 -1.056,4.224 -1.056,1.824 -3.024,2.544 v 0.192 q 2.64,0.576 4.128,2.304 1.488,1.68 1.488,4.704 0,3.312 -1.632,5.424 -1.632,2.112 -4.416,3.12 -2.736,1.008 -6.096,1.008 z m 7.056,-18.768 h 3.312 q 2.592,0 3.744,-1.008 1.2,-1.008 1.2,-2.688 0,-1.824 -1.2,-2.592 -1.2,-0.768 -3.696,-0.768 h -3.36 z m 0,13.296 h 3.984 q 2.88,0 4.32,-1.008 1.488,-1.056 1.488,-3.216 0,-2.016 -1.488,-2.928 -1.44,-0.912 -4.32,-0.912 h -3.984 z m -82.432,354.930814 v -7.616 h 8.832 v -23.488 h -7.616 v -5.824 q 3.328,-0.64 5.632,-1.536 2.368,-0.896 4.48,-2.176 h 6.9119 v 33.024 h 7.616 v 7.616 z m 48.1279,0 v -23.488 q 0,-1.92 0.128,-4.544 0.192,-2.624 0.256,-4.544 h -0.256 q -0.768,1.664 -1.6,3.392 -0.832,1.664 -1.728,3.456 l -5.376,8.832 h 22.016 v 7.168 h -31.04 v -6.464 l 14.848,-24.448 h 11.52 v 40.64 z m 17.344,0 v -5.824 q 5.12,-4.544 9.088,-8.512 4.032,-3.968 6.272,-7.36 2.304,-3.392 2.304,-6.208 0,-3.008 -1.536,-4.544 -1.536,-1.6 -4.224,-1.6 -2.176,0 -3.968,1.28 -1.728,1.216 -3.264,2.88 l -4.928,-4.864 q 2.944,-3.328 6.016,-4.992 3.136,-1.664 7.424,-1.664 3.968,0 6.976,1.6 3.072,1.6 4.736,4.48 1.728,2.88 1.728,6.784 0,3.648 -1.984,7.168 -1.92,3.456 -5.12,6.912 -3.2,3.456 -6.784,7.04 1.536,-0.192 3.456,-0.32 1.92,-0.192 3.328,-0.192 h 9.088 v 7.936 z m -78.976,-80 v -33.792 h -11.456 v -7.936 h 32.384 v 7.936 h -11.456 v 33.792 z m 27.456,0 v -41.728 h 15.04 q 4.416,0 8.064,1.216 3.648,1.152 5.824,4.032 2.176,2.816 2.176,7.744 0,4.8 -2.176,7.808 -2.176,3.008 -5.824,4.4799998 -3.648,1.408 -8.064,1.408 h -5.632 V 13.348644 Z m 9.408,-22.528 h 4.864 q 3.712,0 5.632,-1.536 1.984,-1.6 1.984,-4.672 0,-3.072 -1.984,-4.288 -1.92,-1.216 -5.632,-1.216 h -4.864 z m 13.184,22.528 -9.28,-17.472 6.528,-6.08 13.312,23.552 z m 12.4801,8.96 v -5.312 h 30.464 v 5.312 z m 36.16,-8.96 v -41.728 h 14.272 q 4.352,0 7.808,0.96 3.52,0.896 5.504,3.2 2.048,2.24 2.048,6.208 0,3.136 -1.408,5.632 -1.408,2.432 -4.032,3.392 v 0.256 q 3.52,0.768 5.504,3.072 1.984,2.2399998 1.984,6.2719998 0,4.416 -2.176,7.232 -2.176,2.8160002 -5.888,4.1600002 -3.648,1.344 -8.128,1.344 z m 9.408,-25.024 h 4.416 q 3.456,0 4.992,-1.344 1.6,-1.344 1.6,-3.584 0,-2.432 -1.6,-3.456 -1.6,-1.024 -4.928,-1.024 h -4.48 z m 0,17.7279998 h 5.312 q 3.84,0 5.76,-1.344 1.984,-1.408 1.984,-4.288 0,-2.688 -1.984,-3.904 -1.92,-1.2159998 -5.76,-1.2159998 h -5.312 z M 1789.8991,-3131.8413 v -11.424 h 13.248 v -35.232 h -11.424 v -8.736 q 4.992,-0.96 8.448,-2.304 3.552,-1.344 6.72,-3.264 h 10.368 v 49.536 h 11.424 v 11.424 z m 67.68,1.152 q -4.992,0 -9.024,-1.152 -3.936,-1.152 -7.008,-3.072 -3.072,-1.92 -5.472,-4.32 l 6.336,-8.928 q 2.784,2.496 6.048,4.32 3.264,1.728 7.104,1.728 3.072,0 5.376,-1.056 2.304,-1.152 3.552,-3.264 1.344,-2.112 1.344,-5.184 0,-4.608 -2.688,-7.008 -2.688,-2.4 -6.912,-2.4 -2.592,0 -4.416,0.672 -1.824,0.672 -4.608,2.4 l -6.336,-4.032 1.728,-30.816 h 34.56 v 11.904 h -22.368 l -1.056,11.424 q 1.824,-0.768 3.36,-1.056 1.536,-0.384 3.456,-0.384 5.28,0 9.696,2.016 4.416,2.016 7.008,6.24 2.688,4.224 2.688,10.656 0,6.816 -3.168,11.616 -3.072,4.704 -8.16,7.2 -5.088,2.496 -11.04,2.496 z m 30.5279,-1.152 v -8.736 q 7.68,-6.816 13.632,-12.768 6.048,-5.952 9.408,-11.04 3.456,-5.088 3.456,-9.312 0,-4.512 -2.304,-6.816 -2.304,-2.4 -6.336,-2.4 -3.264,0 -5.952,1.92 -2.592,1.824 -4.896,4.32 l -7.392,-7.296 q 4.416,-4.992 9.024,-7.488 4.704,-2.496 11.136,-2.496 5.952,0 10.464,2.4 4.608,2.4 7.104,6.72 2.592,4.32 2.592,10.176 0,5.472 -2.976,10.752 -2.88,5.184 -7.68,10.368 -4.8,5.184 -10.176,10.56 2.304,-0.288 5.184,-0.48 2.88,-0.288 4.992,-0.288 h 13.632 v 11.904 z m -118.464,-120 v -50.688 h -17.184 v -11.904 h 48.576 v 11.904 h -17.184 v 50.688 z m 41.184,0 v -62.592 h 22.56 q 6.624,0 12.096,1.824 5.472,1.728 8.736,6.048 3.264,4.224 3.264,11.616 0,7.2 -3.264,11.712 -3.264,4.512 -8.736,6.72 -5.472,2.112 -12.096,2.112 h -8.448 v 22.56 z m 14.112,-33.792 h 7.296 q 5.568,0 8.448,-2.304 2.976,-2.4 2.976,-7.008 0,-4.608 -2.976,-6.432 -2.88,-1.824 -8.448,-1.824 h -7.296 z m 19.776,33.792 -13.92,-26.208 9.792,-9.12 19.968,35.328 z m 18.7201,13.44 v -7.968 h 45.696 v 7.968 z m 54.24,-13.44 v -62.592 h 21.408 q 6.528,0 11.712,1.44 5.28,1.344 8.256,4.8 3.072,3.36 3.072,9.312 0,4.704 -2.112,8.448 -2.112,3.648 -6.048,5.088 v 0.384 q 5.28,1.152 8.256,4.608 2.976,3.36 2.976,9.408 0,6.624 -3.264,10.848 -3.264,4.224 -8.832,6.24 -5.472,2.016 -12.192,2.016 z m 14.112,-37.536 h 6.624 q 5.184,0 7.488,-2.016 2.4,-2.016 2.4,-5.376 0,-3.648 -2.4,-5.184 -2.4,-1.536 -7.392,-1.536 h -6.72 z m 0,26.592 h 7.968 q 5.76,0 8.64,-2.016 2.976,-2.112 2.976,-6.432 0,-4.032 -2.976,-5.856 -2.88,-1.824 -8.64,-1.824 h -7.968 z m -1839.819232,130.944 v -11.424 h 13.248002 v -35.232 H 93.791868 v -8.736 q 4.992,-0.96 8.448002,-2.304 3.552,-1.344 6.72,-3.264 h 10.368 v 49.536 h 11.424 v 11.424 z m 67.679992,1.152 q -4.992,0 -9.024,-1.152 -3.936,-1.152 -7.008,-3.072 -3.072,-1.92 -5.472,-4.32 l 6.336,-8.928 q 2.784,2.496 6.048,4.32 3.264,1.728 7.104,1.728 3.072,0 5.376,-1.056 2.304,-1.152 3.552,-3.264 1.344,-2.112 1.344,-5.184 0,-4.608 -2.688,-7.008 -2.688,-2.4 -6.912,-2.4 -2.592,0 -4.416,0.672 -1.824,0.672 -4.608,2.4 l -6.336,-4.032 1.728,-30.816 h 34.56 v 11.904 h -22.368 l -1.056,11.424 q 1.824,-0.768 3.36,-1.056 1.536,-0.384 3.456,-0.384 5.28,0 9.696,2.016 4.416,2.016 7.008,6.24 2.688,4.224 2.688,10.656 0,6.816 -3.168,11.616 -3.072,4.704 -8.16,7.2 -5.088,2.496 -11.04,2.496 z m 33.69598,-1.152 v -11.424 h 13.248 v -35.232 h -11.424 v -8.736 q 4.992,-0.96 8.448,-2.304 3.552,-1.344 6.72,-3.264 h 10.368 v 49.536 h 11.424 v 11.424 z m -121.632002,-120 v -50.688 h -17.184 v -11.904 h 48.576002 v 11.904 H 85.919838 v 50.688 z m 41.183982,0 v -62.592 h 22.56 q 6.624,0 12.096,1.824 5.472,1.728 8.736,6.048 3.264,4.224 3.264,11.616 0,7.2 -3.264,11.712 -3.264,4.512 -8.736,6.72 -5.472,2.112 -12.096,2.112 h -8.448 v 22.56 z m 14.112,-33.792 h 7.296 q 5.568,0 8.448,-2.304 2.976,-2.4 2.976,-7.008 0,-4.608 -2.976,-6.432 -2.88,-1.824 -8.448,-1.824 h -7.296 z m 19.776,33.792 -13.92,-26.208 9.792,-9.12 19.968,35.328 z m 18.72008,13.44 v -7.968 h 45.696 v 7.968 z m 54.24,-13.44 v -62.592 h 21.408 q 6.528,0 11.712,1.44 5.28,1.344 8.256,4.8 3.072,3.36 3.072,9.312 0,4.704 -2.112,8.448 -2.112,3.648 -6.048,5.088 v 0.384 q 5.28,1.152 8.256,4.608 2.976,3.36 2.976,9.408 0,6.624 -3.264,10.848 -3.264,4.224 -8.832,6.24 -5.472,2.016 -12.192,2.016 z m 14.112,-37.536 h 6.624 q 5.184,0 7.488,-2.016 2.4,-2.016 2.4,-5.376 0,-3.648 -2.4,-5.184 -2.4,-1.536 -7.392,-1.536 h -6.72 z m 0,26.592 h 7.968 q 5.76,0 8.64,-2.016 2.976,-2.112 2.976,-6.432 0,-4.032 -2.976,-5.856 -2.88,-1.824 -8.64,-1.824 h -7.968 z M 1782.2087,0.12338 v -11.424 h 13.248 v -35.232 h -11.424 v -8.736 q 4.992,-0.96 8.448,-2.304 3.552,-1.344 6.72,-3.264 h 10.368 v 49.536 h 11.424 v 11.424 z m 72.192,0 v -35.232 q 0,-2.88 0.192,-6.816 0.288,-3.936 0.384,-6.816 h -0.384 q -1.152,2.496 -2.4,5.088 -1.248,2.496 -2.592,5.184 l -8.064,13.248 h 33.024 v 10.752 h -46.56 v -9.696 l 22.272,-36.672 h 17.28 v 60.96 z m 29.1839,0 v -11.424 h 13.248 v -35.232 h -11.424 v -8.736 q 4.992,-0.96 8.448,-2.304 3.552,-1.344 6.72,-3.264 h 10.368 v 49.536 h 11.424 v 11.424 z m -121.632,-120 v -50.688 h -17.184 v -11.904 h 48.576 v 11.904 h -17.184 v 50.688 z m 41.184,0 v -62.592 h 22.56 q 6.624,0 12.096,1.824 5.472,1.728 8.736,6.048 3.264,4.224 3.264,11.616 0,7.2 -3.264,11.712 -3.264,4.512 -8.736,6.72 -5.472,2.112 -12.096,2.112 h -8.448 v 22.56 z m 14.112,-33.792 h 7.296 q 5.568,0 8.448,-2.304 2.976,-2.4 2.976,-7.008 0,-4.608 -2.976,-6.432 -2.88,-1.824 -8.448,-1.824 h -7.296 z m 19.776,33.792 -13.92,-26.208 9.792,-9.12 19.968,35.328 z m 18.7201,13.44 v -7.968 h 45.696 v 7.968 z m 54.24,-13.44 v -62.592 h 21.408 q 6.528,0 11.712,1.44 5.28,1.344 8.256,4.8 3.072,3.36 3.072,9.312 0,4.704 -2.112,8.448 -2.112,3.648 -6.048,5.088 v 0.384 q 5.28,1.152 8.256,4.608 2.976,3.36 2.976,9.408 0,6.624 -3.264,10.848 -3.264,4.224 -8.832,6.24 -5.472,2.016 -12.192,2.016 z m 14.112,-37.536 h 6.624 q 5.184,0 7.488,-2.016 2.4,-2.016 2.4,-5.376 0,-3.648 -2.4,-5.184 -2.4,-1.536 -7.392,-1.536 h -6.72 z m 0,26.592 h 7.968 q 5.76,0 8.64,-2.016 2.976,-2.112 2.976,-6.432 0,-4.032 -2.976,-5.856 -2.88,-1.824 -8.64,-1.824 h -7.968 z m -331.8139,-556.11819 v -22.848 h 26.496 v -70.464 h -22.848 v -17.472 q 9.984,-1.92 16.896,-4.608 7.104,-2.688 13.44,-6.528 h 20.736 v 99.072 h 22.848 v 22.848 z m 144.384,0 v -70.464 q 0,-5.76 0.384,-13.632 0.576,-7.872 0.768,-13.632 h -0.768 q -2.304,4.992 -4.8,10.176 -2.496,4.992 -5.184,10.368 l -16.128,26.496 h 66.048 v 21.504 h -93.12 v -19.392 l 44.544,-73.344 h 34.56 v 121.92 z m 98.8799,2.304 q -8.832,0 -17.088,-3.456 -8.256,-3.456 -14.784,-10.752 -6.528,-7.296 -10.368,-18.624 -3.84,-11.52 -3.84,-27.648 0,-17.088 4.032,-29.568 4.032,-12.48 10.944,-20.544 6.912,-8.064 15.744,-11.904 8.832,-4.032 18.624,-4.032 12.096,0 20.928,4.416 8.832,4.224 14.592,10.176 l -14.784,16.896 q -3.264,-3.456 -8.448,-5.952 -5.184,-2.688 -10.56,-2.688 -6.912,0 -12.864,4.032 -5.76,4.032 -9.216,13.632 -3.264,9.408 -3.264,25.536 0,15.168 2.688,23.808 2.88,8.448 7.488,12.096 4.608,3.456 9.6,3.456 4.224,0 7.68,-2.112 3.456,-2.112 5.568,-6.336 2.112,-4.416 2.112,-11.328 0,-6.528 -2.112,-10.368 -2.112,-3.84 -5.76,-5.568 -3.456,-1.728 -8.064,-1.728 -4.8,0 -9.984,2.88 -4.992,2.88 -9.024,10.176 l -1.344,-18.432 q 4.8,-7.104 12.288,-10.752 7.488,-3.84 13.44,-3.84 10.368,0 18.624,4.032 8.256,4.032 12.864,12.48 4.8,8.256 4.8,21.12 0,12.672 -5.568,21.888 -5.376,9.216 -14.592,14.208 -9.216,4.8 -20.352,4.8 z m -283.776,-242.304 v -101.37599 h -34.368 v -23.808 h 97.152 v 23.808 h -34.368 v 101.37599 z m 82.368,0 v -125.18399 h 45.12 q 13.248,0 24.192,3.648 10.944,3.456 17.472,12.096 6.528,8.448 6.528,23.232 0,14.39999 -6.528,23.42399 -6.528,9.024 -17.472,13.44 -10.944,4.224 -24.192,4.224 h -16.896 v 45.12 z m 28.224,-67.584 h 14.592 q 11.136,0 16.896,-4.608 5.952,-4.79999 5.952,-14.01599 0,-9.216 -5.952,-12.864 -5.76,-3.648 -16.896,-3.648 h -14.592 z m 39.552,67.584 -27.84,-52.416 19.584,-18.24 39.936,70.656 z m 37.4401,26.88 v -15.936 h 91.392 v 15.936 z m 108.48,-26.88 v -125.18399 h 42.816 q 13.056,0 23.424,2.88 10.56,2.688 16.512,9.6 6.144,6.72 6.144,18.624 0,9.408 -4.224,16.896 -4.224,7.29599 -12.096,10.17599 v 0.768 q 10.56,2.304 16.512,9.216 5.952,6.72 5.952,18.816 0,13.248 -6.528,21.696 -6.528,8.448 -17.664,12.48 -10.944,4.032 -24.384,4.032 z m 28.224,-75.07199 h 13.248 q 10.368,0 14.976,-4.032 4.8,-4.032 4.8,-10.752 0,-7.296 -4.8,-10.368 -4.8,-3.072 -14.784,-3.072 h -13.44 z m 0,53.18399 h 15.936 q 11.52,0 17.28,-4.032 5.952,-4.224 5.952,-12.864 0,-8.064 -5.952,-11.712 -5.76,-3.648 -17.28,-3.648 h -15.936 z M 147.61933,-686.93878 v -22.848 h 26.496 v -70.464 h -22.848 v -17.472 q 9.984,-1.92 16.896,-4.608 7.104,-2.688 13.44,-6.528 h 20.736 v 99.072 h 22.848 v 22.848 z m 144.38398,0 v -70.464 q 0,-5.76 0.384,-13.632 0.576,-7.872 0.768,-13.632 h -0.768 q -2.304,4.992 -4.8,10.176 -2.496,4.992 -5.184,10.368 l -16.128,26.496 h 66.048 v 21.504 h -93.12 v -19.392 l 44.544,-73.344 h 34.56 v 121.92 z m 92.35198,2.304 q -9.984,0 -18.048,-2.304 -7.872,-2.304 -14.016,-6.144 -6.144,-3.84 -10.944,-8.64 l 12.672,-17.856 q 5.568,4.992 12.096,8.64 6.528,3.456 14.208,3.456 6.144,0 10.752,-2.112 4.608,-2.304 7.104,-6.528 2.688,-4.224 2.688,-10.368 0,-9.216 -5.376,-14.016 -5.376,-4.8 -13.824,-4.8 -5.184,0 -8.832,1.344 -3.648,1.344 -9.216,4.8 l -12.672,-8.064 3.456,-61.632 h 69.12 v 23.808 h -44.736 l -2.112,22.848 q 3.648,-1.536 6.72,-2.112 3.072,-0.768 6.912,-0.768 10.56,0 19.392,4.032 8.832,4.032 14.016,12.48 5.376,8.448 5.376,21.312 0,13.632 -6.336,23.232 -6.144,9.408 -16.32,14.4 -10.176,4.992 -22.08,4.992 z m -277.24801,-242.304 v -101.37602 h -34.368 v -23.808 h 97.152 v 23.808 h -34.368 v 101.37602 z m 82.36796,0 v -125.18402 h 45.12 q 13.248,0 24.192,3.648 10.944,3.456 17.472,12.096 6.528,8.448 6.528,23.232 0,14.40002 -6.528,23.42402 -6.528,9.024 -17.472,13.44 -10.944,4.224 -24.192,4.224 h -16.896 v 45.12 z m 28.224,-67.584 h 14.592 q 11.136,0 16.896,-4.608 5.952,-4.80002 5.952,-14.01602 0,-9.216 -5.952,-12.864 -5.76,-3.648 -16.896,-3.648 h -14.592 z m 39.552,67.584 -27.84,-52.416 19.584,-18.24 39.936,70.656 z m 37.44016,26.88 v -15.936 h 91.392 v 15.936 z m 108.48,-26.88 v -125.18402 h 42.816 q 13.056,0 23.424,2.88 10.56,2.688 16.512,9.6 6.144,6.72 6.144,18.624 0,9.408 -4.224,16.896 -4.224,7.29602 -12.096,10.17602 v 0.768 q 10.56,2.304 16.512,9.216 5.952,6.72 5.952,18.816 0,13.248 -6.528,21.696 -6.528,8.448 -17.664,12.48 -10.944,4.032 -24.384,4.032 z m 28.224,-75.07202 h 13.248 q 10.368,0 14.976,-4.032 4.8,-4.032 4.8,-10.752 0,-7.296 -4.8,-10.368 -4.8,-3.072 -14.784,-3.072 h -13.44 z m 0,53.18402 h 15.936 q 11.52,0 17.28,-4.032 5.952,-4.224 5.952,-12.864 0,-8.064 -5.952,-11.712 -5.76,-3.648 -17.28,-3.648 h -15.936 z M 216.54732,-1576.8314 v -11.424 h 13.248 v -35.232 h -11.424 v -8.736 q 4.992,-0.96 8.448,-2.304 3.552,-1.344 6.72,-3.264 h 10.368 v 49.536 h 11.424 v 11.424 z m 72.19199,0 v -35.232 q 0,-2.88 0.192,-6.816 0.288,-3.936 0.384,-6.816 h -0.384 q -1.152,2.496 -2.4,5.088 -1.248,2.496 -2.592,5.184 l -8.064,13.248 h 33.024 v 10.752 h -46.56 v -9.696 l 22.272,-36.672 h 17.28 v 60.96 z m 36.86398,0 q 0.48,-7.584 1.536,-13.92 1.056,-6.432 2.976,-12.192 2.016,-5.76 5.088,-11.328 3.072,-5.568 7.584,-11.616 h -27.36 v -11.904 h 42.432 v 8.64 q -5.376,6.528 -8.832,12.192 -3.36,5.664 -5.184,11.52 -1.824,5.856 -2.688,12.768 -0.864,6.912 -1.344,15.84 z m -129.312,-120 v -50.688 h -17.184 v -11.904 h 48.576 v 11.904 h -17.184 v 50.688 z m 41.18398,0 v -62.592 h 22.56 q 6.624,0 12.096,1.824 5.472,1.728 8.736,6.048 3.264,4.224 3.264,11.616 0,7.2 -3.264,11.712 -3.264,4.512 -8.736,6.72 -5.472,2.112 -12.096,2.112 h -8.448 v 22.56 z m 14.112,-33.792 h 7.296 q 5.568,0 8.448,-2.304 2.976,-2.4 2.976,-7.008 0,-4.608 -2.976,-6.432 -2.88,-1.824 -8.448,-1.824 h -7.296 z m 19.776,33.792 -13.92,-26.208 9.792,-9.12 19.968,35.328 z m 18.72008,13.44 v -7.968 h 45.696 v 7.968 z m 54.24,-13.44 v -62.592 h 21.408 q 6.528,0 11.712,1.44 5.28,1.344 8.256,4.8 3.072,3.36 3.072,9.312 0,4.704 -2.112,8.448 -2.112,3.648 -6.048,5.088 v 0.384 q 5.28,1.152 8.256,4.608 2.976,3.36 2.976,9.408 0,6.624 -3.264,10.848 -3.264,4.224 -8.832,6.24 -5.472,2.016 -12.192,2.016 z m 14.112,-37.536 h 6.624 q 5.184,0 7.488,-2.016 2.4,-2.016 2.4,-5.376 0,-3.648 -2.4,-5.184 -2.4,-1.536 -7.392,-1.536 h -6.72 z m 0,26.592 h 7.968 q 5.76,0 8.64,-2.016 2.976,-2.112 2.976,-6.432 0,-4.032 -2.976,-5.856 -2.88,-1.824 -8.64,-1.824 h -7.968 z m 1233.84735,-568.585 v -22.848 h 26.496 v -70.464 h -22.848 v -17.472 q 9.984,-1.92 16.896,-4.608 7.104,-2.688 13.44,-6.528 h 20.736 v 99.072 h 22.848 v 22.848 z m 135.36,2.304 q -9.984,0 -18.048,-2.304 -7.872,-2.304 -14.016,-6.144 -6.144,-3.84 -10.944,-8.64 l 12.672,-17.856 q 5.568,4.992 12.096,8.64 6.528,3.456 14.208,3.456 6.144,0 10.752,-2.112 4.608,-2.304 7.104,-6.528 2.688,-4.224 2.688,-10.368 0,-9.216 -5.376,-14.016 -5.376,-4.8 -13.824,-4.8 -5.184,0 -8.832,1.344 -3.648,1.344 -9.216,4.8 l -12.672,-8.064 3.456,-61.632 h 69.12 v 23.808 h -44.736 l -2.112,22.848 q 3.648,-1.536 6.72,-2.112 3.072,-0.768 6.912,-0.768 10.56,0 19.392,4.032 8.832,4.032 14.016,12.48 5.376,8.448 5.376,21.312 0,13.632 -6.336,23.232 -6.144,9.408 -16.32,14.4 -10.176,4.992 -22.08,4.992 z m 104.6399,0 q -19.584,0 -31.68,-16.32 -11.904,-16.32 -11.904,-47.424 0,-31.296 11.904,-47.04 12.096,-15.744 31.68,-15.744 19.584,0 31.488,15.936 12.096,15.744 12.096,46.848 0,31.104 -12.096,47.424 -11.904,16.32 -31.488,16.32 z m 0,-21.888 q 4.8,0 8.64,-3.456 3.84,-3.648 5.952,-12.672 2.304,-9.216 2.304,-25.728 0,-16.704 -2.304,-25.536 -2.112,-8.832 -5.952,-12.096 -3.84,-3.264 -8.64,-3.264 -4.8,0 -8.64,3.264 -3.84,3.264 -6.144,12.096 -2.112,8.832 -2.112,25.536 0,16.512 2.112,25.728 2.304,9.024 6.144,12.672 3.84,3.456 8.64,3.456 z m -280.512,-220.416 v -101.376 h -34.368 v -23.808 h 97.152 v 23.808 h -34.368 v 101.376 z m 82.368,0 v -125.184 h 45.12 q 13.248,0 24.192,3.648 10.944,3.456 17.472,12.096 6.528,8.448 6.528,23.232 0,14.4 -6.528,23.424 -6.528,9.024 -17.472,13.44 -10.944,4.224 -24.192,4.224 h -16.896 v 45.12 z m 28.224,-67.584 h 14.592 q 11.136,0 16.896,-4.608 5.952,-4.8 5.952,-14.016 0,-9.216 -5.952,-12.864 -5.76,-3.648 -16.896,-3.648 h -14.592 z m 39.552,67.584 -27.84,-52.416 19.584,-18.24 39.936,70.656 z m 37.4401,26.88 v -15.936 h 91.392 v 15.936 z m 108.48,-26.88 v -125.184 h 42.816 q 13.056,0 23.424,2.88 10.56,2.688 16.512,9.6 6.144,6.72 6.144,18.624 0,9.408 -4.224,16.896 -4.224,7.296 -12.096,10.176 v 0.768 q 10.56,2.304 16.512,9.216 5.952,6.72 5.952,18.816 0,13.248 -6.528,21.696 -6.528,8.448 -17.664,12.48 -10.944,4.032 -24.384,4.032 z m 28.224,-75.072 h 13.248 q 10.368,0 14.976,-4.032 4.8,-4.032 4.8,-10.752 0,-7.296 -4.8,-10.368 -4.8,-3.072 -14.784,-3.072 h -13.44 z m 0,53.184 h 15.936 q 11.52,0 17.28,-4.032 5.952,-4.224 5.952,-12.864 0,-8.064 -5.952,-11.712 -5.76,-3.648 -17.28,-3.648 h -15.936 z m -214.8479,960.841 v -11.424 h 13.248 v -35.232 h -11.424 v -8.736 q 4.992,-0.96 8.448,-2.304 3.552,-1.344 6.72,-3.264 h 10.368 v 49.536 h 11.424 v 11.424 z m 72.192,0 v -35.232 q 0,-2.88 0.192,-6.816 0.288,-3.936 0.384,-6.816 h -0.384 q -1.152,2.496 -2.4,5.088 -1.248,2.496 -2.592,5.184 l -8.064,13.248 h 33.024 v 10.752 h -46.56 v -9.696 l 22.272,-36.672 h 17.28 v 60.96 z m 47.7119,1.152 q -6.048,0 -10.944,-2.112 -4.8,-2.112 -7.584,-5.856 -2.688,-3.84 -2.688,-8.736 0,-3.744 1.344,-6.432 1.44,-2.784 3.744,-4.896 2.4,-2.112 5.28,-3.648 v -0.384 q -3.456,-2.688 -5.856,-6.144 -2.304,-3.456 -2.304,-8.256 0,-5.184 2.496,-8.928 2.496,-3.84 6.912,-5.856 4.416,-2.016 10.08,-2.016 8.448,0 13.44,4.608 5.088,4.512 5.088,12.096 0,2.88 -1.152,5.472 -1.056,2.496 -2.88,4.512 -1.824,1.92 -3.936,3.36 v 0.384 q 2.88,1.536 5.28,3.744 2.4,2.112 3.84,5.184 1.44,2.976 1.44,7.008 0,4.8 -2.688,8.64 -2.688,3.744 -7.584,6.048 -4.8,2.208 -11.328,2.208 z m 3.84,-36.672 q 1.824,-2.112 2.784,-4.32 0.96,-2.208 0.96,-4.608 0,-2.4 -0.864,-4.128 -0.864,-1.728 -2.592,-2.688 -1.632,-1.056 -3.936,-1.056 -2.784,0 -4.8,1.824 -2.016,1.728 -2.016,5.184 0,2.496 1.344,4.224 1.344,1.728 3.648,3.072 2.4,1.344 5.472,2.496 z m -3.552,26.88 q 2.304,0 4.128,-0.768 1.92,-0.864 2.976,-2.496 1.056,-1.728 1.056,-4.32 0,-2.688 -1.632,-4.416 -1.536,-1.824 -4.512,-3.168 -2.88,-1.44 -6.72,-3.072 -2.016,1.824 -3.36,4.416 -1.344,2.496 -1.344,5.28 0,2.688 1.248,4.608 1.344,1.92 3.456,2.976 2.208,0.96 4.704,0.96 z m -140.448,-111.36 v -50.688 h -17.184 v -11.904 h 48.576 v 11.904 h -17.184 v 50.688 z m 41.184,0 v -62.592 h 22.56 q 6.624,0 12.096,1.824 5.472,1.728 8.736,6.048 3.264,4.224 3.264,11.616 0,7.2 -3.264,11.712 -3.264,4.512 -8.736,6.72 -5.472,2.112 -12.096,2.112 h -8.448 v 22.56 z m 14.112,-33.792 h 7.296 q 5.568,0 8.448,-2.304 2.976,-2.4 2.976,-7.008 0,-4.608 -2.976,-6.432 -2.88,-1.824 -8.448,-1.824 h -7.296 z m 19.776,33.792 -13.92,-26.208 9.792,-9.12 19.968,35.328 z m 18.7201,13.44 v -7.968 h 45.696 v 7.968 z m 54.24,-13.44 v -62.592 h 21.408 q 6.528,0 11.712,1.44 5.28,1.344 8.256,4.8 3.072,3.36 3.072,9.312 0,4.704 -2.112,8.448 -2.112,3.648 -6.048,5.088 v 0.384 q 5.28,1.152 8.256,4.608 2.976,3.36 2.976,9.408 0,6.624 -3.264,10.848 -3.264,4.224 -8.832,6.24 -5.472,2.016 -12.192,2.016 z m 14.112,-37.536 h 6.624 q 5.184,0 7.488,-2.016 2.4,-2.016 2.4,-5.376 0,-3.648 -2.4,-5.184 -2.4,-1.536 -7.392,-1.536 h -6.72 z m 0,26.592 h 7.968 q 5.76,0 8.64,-2.016 2.976,-2.112 2.976,-6.432 0,-4.032 -2.976,-5.856 -2.88,-1.824 -8.64,-1.824 h -7.968 z M 147.6193,-2276.3603 v -22.848 h 26.496 v -70.464 h -22.848 v -17.472 q 9.984,-1.92 16.896,-4.608 7.104,-2.688 13.44,-6.528 h 20.736 v 99.072 h 22.848 v 22.848 z m 144.38398,0 v -70.464 q 0,-5.76 0.384,-13.632 0.576,-7.872 0.768,-13.632 h -0.768 q -2.304,4.992 -4.8,10.176 -2.496,4.992 -5.184,10.368 l -16.128,26.496 h 66.048 v 21.504 h -93.12 v -19.392 l 44.544,-73.344 h 34.56 v 121.92 z m 88.89598,2.304 q -12.096,0 -20.928,-4.416 -8.832,-4.416 -14.784,-10.176 l 14.976,-16.896 q 3.072,3.456 8.256,6.144 5.376,2.496 10.56,2.496 7.296,0 12.864,-4.032 5.76,-4.032 9.024,-13.44 3.456,-9.6 3.456,-25.728 0,-15.168 -2.88,-23.616 -2.688,-8.64 -7.296,-12.096 -4.416,-3.648 -9.6,-3.648 -4.032,0 -7.68,2.112 -3.456,2.112 -5.568,6.336 -2.112,4.224 -2.112,11.328 0,6.336 2.112,10.368 2.112,3.84 5.76,5.568 3.648,1.728 8.256,1.728 4.8,0 9.792,-2.88 4.992,-3.072 9.024,-10.176 l 1.344,18.432 q -4.608,6.72 -12.096,10.752 -7.488,3.84 -13.632,3.84 -10.368,0 -18.624,-4.032 -8.256,-4.032 -13.056,-12.288 -4.608,-8.448 -4.608,-21.312 0,-12.672 5.568,-21.888 5.568,-9.216 14.784,-14.016 9.216,-4.992 20.16,-4.992 9.024,0 17.28,3.456 8.256,3.456 14.592,10.752 6.528,7.296 10.368,18.816 4.032,11.328 4.032,27.456 0,17.088 -4.224,29.568 -4.032,12.48 -10.944,20.544 -6.912,8.064 -15.744,12.096 -8.832,3.84 -18.432,3.84 z m -273.79201,-242.304 v -101.376 h -34.368 v -23.808 h 97.152 v 23.808 h -34.368 v 101.376 z m 82.36796,0 v -125.184 h 45.12 q 13.248,0 24.192,3.648 10.944,3.456 17.472,12.096 6.528,8.448 6.528,23.232 0,14.4 -6.528,23.424 -6.528,9.024 -17.472,13.44 -10.944,4.224 -24.192,4.224 h -16.896 v 45.12 z m 28.224,-67.584 h 14.592 q 11.136,0 16.896,-4.608 5.952,-4.8 5.952,-14.016 0,-9.216 -5.952,-12.864 -5.76,-3.648 -16.896,-3.648 h -14.592 z m 39.552,67.584 -27.84,-52.416 19.584,-18.24 39.936,70.656 z m 37.44016,26.88 v -15.936 h 91.392 v 15.936 z m 108.48,-26.88 v -125.184 h 42.816 q 13.056,0 23.424,2.88 10.56,2.688 16.512,9.6 6.144,6.72 6.144,18.624 0,9.408 -4.224,16.896 -4.224,7.296 -12.096,10.176 v 0.768 q 10.56,2.304 16.512,9.216 5.952,6.72 5.952,18.816 0,13.248 -6.528,21.696 -6.528,8.448 -17.664,12.48 -10.944,4.032 -24.384,4.032 z m 28.224,-75.072 h 13.248 q 10.368,0 14.976,-4.032 4.8,-4.032 4.8,-10.752 0,-7.296 -4.8,-10.368 -4.8,-3.072 -14.784,-3.072 h -13.44 z m 0,53.184 h 15.936 q 11.52,0 17.28,-4.032 5.952,-4.224 5.952,-12.864 0,-8.064 -5.952,-11.712 -5.76,-3.648 -17.28,-3.648 h -15.936 z" style="font-size:64px;font-family:'Source Sans 3';-inkscape-font-specification:'Source Sans 3, @wght=700';font-variation-settings:'wght' 700;text-align:center;white-space:pre;display:inline;fill:#bec3c6;stroke-width:55" transform="matrix(0.02439371,0,0,0.02439371,5.9084898,275.04547)"/>
  </g>
</svg>
