<svg width="10000" height="3000" viewBox="0 0 10000 3000" version="1.1" id="svg1" xml:space="preserve" xmlns="http://www.w3.org/2000/svg">
  <g id="floor_2" transform="matrix(40.994169,0,0,40.994169,1.00188,-8910.757)" style="display:inline">
    <path style="font-variation-settings:'wdth' 70,'wght' 600;display:inline;fill:#4c5a5f;fill-opacity:1;stroke:none;stroke-width:.487874" d="m 171.94771,270.00329 h -5.26654 v -5.97646 H 148.4127 l -1e-5,5.97646 h 1.15847 l 2.3e-4,3.54188 h -7.46447 v -9.09145 H 88.540635 l -3e-6,3.57847 h -5.171466 v -3.57847 H 66.3389 v 4.51857 H 49.094025 v -4.51857 H 37.530477 v 11.88133 H 19.734279 v -5.60514 l 9.250086,-1e-5 -0.0047,-5.98222 -20.5972663,-10e-4 0.1279575,7.26169 -6.70619,2.2e-4 v -15.43476 c 56.7387388,0.0372 113.4048438,-2.3e-4 170.1435238,-2.3e-4 z" id="path4"/>
    <g id="rooms_2" style="display:inline;opacity:1" transform="matrix(0.02439371,0,0,0.02439371,-0.02443957,255.98706)">
      <rect style="font-variation-settings:'wdth' 70,'wght' 600;display:inline;fill:#1b2022;fill-opacity:1;stroke:none;stroke-width:9.57072;stroke-linecap:butt;stroke-linejoin:miter;stroke-dasharray:none;stroke-opacity:1" id="rect16" width="271.0069" height="201.99998" x="5861.541" y="719.78033"/>
      <path style="font-variation-settings:'wdth' 70,'wght' 600;display:inline;opacity:1;fill:#454c7f;fill-opacity:1;stroke-width:0;stroke-dasharray:none" d="m 1741.5709,347.08362 h 272 V 1080.7803 H 1539.5328 V 822.27294 h 202.0381 z" id="TR_A223a"/>
      <rect style="font-variation-settings:'wdth' 70,'wght' 600;display:inline;opacity:1;fill:#454c7f;fill-opacity:1;stroke-width:436.124;stroke-dasharray:none" id="TR_A220-1" width="353.28162" height="689.00012" x="74.953331" y="656.78021"/>
      <rect style="font-variation-settings:'wdth' 70,'wght' 600;display:inline;opacity:1;fill:#454c7f;fill-opacity:1;stroke-width:424.972;stroke-dasharray:none" id="TR_A224c" width="314.99994" height="733.69672" x="3630.6521" y="347.08362"/>
      <rect style="font-variation-settings:'wdth' 70,'wght' 600;display:inline;opacity:1;fill:#454c7f;fill-opacity:1;stroke-width:904.584;stroke-dasharray:none" id="TR_A228" width="1425.9751" height="734.35352" x="4400.5728" y="346.42688"/>
      <path style="font-variation-settings:'wdth' 70,'wght' 600;display:inline;opacity:1;fill:#454c7f;fill-opacity:1;stroke-width:0;stroke-dasharray:none" d="m 6501.8351,1080.7803 -675.2872,1e-4 V 921.78032 l 306.0001,2e-5 v -202 l -1e-4,-145.1967 h 369.2872 z" id="TR_A229"/>
      <rect style="font-variation-settings:'wdth' 70,'wght' 600;display:inline;opacity:1;fill:#454c7f;fill-opacity:1;stroke-width:446.057;stroke-dasharray:none" id="TR_A230" width="503.0181" height="506.19675" x="6519.335" y="574.58362"/>
      <rect style="font-variation-settings:'wdth' 70,'wght' 600;display:inline;opacity:1;fill:#454c7f;fill-opacity:1;stroke-width:390.672;stroke-dasharray:none" id="TR_A220-2" width="381.75742" height="511.63129" x="428.23495" y="834.14905"/>
      <rect style="font-variation-settings:'wdth' 70,'wght' 600;display:inline;opacity:1;fill:#454c7f;fill-opacity:1;stroke-width:381.613;stroke-dasharray:none" id="TR_A221" width="364.25742" height="511.63129" x="827.49237" y="834.14905"/>
      <rect style="font-variation-settings:'wdth' 70,'wght' 600;display:inline;opacity:1;fill:#454c7f;fill-opacity:1;stroke-width:363.379;stroke-dasharray:none" id="TR_A222" width="330.27914" height="511.63129" x="1191.7498" y="834.14905"/>
      <rect style="font-variation-settings:'wdth' 70,'wght' 600;display:inline;opacity:1;fill:#454c7f;fill-opacity:1;stroke-width:348.883;stroke-dasharray:none" id="TR_A223b" width="298.99994" height="520.96472" x="2013.5709" y="532.31885"/>
      <path style="font-variation-settings:'wdth' 70,'wght' 600;display:inline;opacity:1;fill:#454c7f;fill-opacity:1;stroke-width:0;stroke-dasharray:none" d="m 3027.5608,347.08362 h 216.2086 V 1080.7803 H 2969.5587 V 723.69134 h 58.0021 z" id="TR_A224a"/>
      <rect style="font-variation-settings:'wdth' 70,'wght' 600;display:inline;opacity:1;fill:#454c7f;fill-opacity:1;stroke-width:407.514;stroke-dasharray:none" id="TR_A223c" width="407.93958" height="520.96472" x="2312.5708" y="532.31885"/>
      <rect style="font-variation-settings:'wdth' 70,'wght' 600;display:inline;opacity:1;fill:#454c7f;fill-opacity:1;stroke-width:364.352;stroke-dasharray:none" id="TR_A223d" width="231.54893" height="733.69672" x="2720.5103" y="347.08362"/>
      <rect style="font-variation-settings:'wdth' 70,'wght' 600;display:inline;opacity:1;fill:#454c7f;fill-opacity:1;stroke-width:500.79;stroke-dasharray:none" id="TR_A224d" width="437.42191" height="733.69672" x="3945.6521" y="347.08362"/>
      <path style="font-variation-settings:'wdth' 70,'wght' 600;display:inline;opacity:1;fill:#454c7f;fill-opacity:1;stroke-width:0;stroke-dasharray:none" d="m 3243.7694,347.08362 h 174.8826 v 146.69665 h 212 v 587.00003 h -386.8826 z" id="TR_A224b"/>
      <rect style="font-variation-settings:'wdth' 70,'wght' 600;display:inline;opacity:1;fill:#454c7f;fill-opacity:1;stroke-width:261.811;stroke-dasharray:none" id="TR_A220" width="381.75742" height="229.77826" x="428.23495" y="604.37079"/>
      <rect style="font-variation-settings:'wdth' 70,'wght' 600;display:inline;opacity:1;fill:#454c7f;fill-opacity:1;stroke-width:273.899;stroke-dasharray:none" id="TR_A223" width="202.03807" height="475.18921" x="1539.5328" y="347.08374"/>
      <rect style="font-variation-settings:'wght' 700;fill:#000;fill-opacity:1;stroke:none;stroke-width:.331056" id="rect5" width="1.0000001" height="1.0000001" x="-1.371327e-07" y="-1583.22"/>
    </g>
    <g id="staires_2L" transform="matrix(0.02439371,0,0,0.02439371,-7.125763,277.75184)" style="display:inline">
      <rect style="font-variation-settings:'wdth' 70,'wght' 600;display:inline;fill:#373e43;fill-opacity:1;stroke-width:8.12991;stroke-dasharray:none" id="rect190" width="245.28712" height="32.869278" x="-533.14557" y="-701.47388" transform="rotate(90,-11.503451,-11.50322)"/>
      <rect style="font-variation-settings:'wdth' 70,'wght' 600;display:inline;fill:#373e43;fill-opacity:1;stroke-width:8.12991;stroke-dasharray:none" id="rect208" width="245.28712" height="32.869278" x="-533.14557" y="-734.34326" transform="rotate(90,-11.503451,-11.50322)"/>
      <rect style="font-variation-settings:'wdth' 70,'wght' 600;display:inline;fill:#373e43;fill-opacity:1;stroke-width:8.12991;stroke-dasharray:none" id="rect210" width="245.28712" height="32.869278" x="-533.14557" y="-767.21252" transform="rotate(90,-11.503451,-11.50322)"/>
      <rect style="font-variation-settings:'wdth' 70,'wght' 600;display:inline;fill:#373e43;fill-opacity:1;stroke-width:8.12991;stroke-dasharray:none" id="rect211" width="245.28712" height="32.869278" x="-533.14557" y="-800.08185" transform="rotate(90,-11.503451,-11.50322)"/>
      <rect style="font-variation-settings:'wdth' 70,'wght' 600;display:inline;fill:#373e43;fill-opacity:1;stroke-width:8.12991;stroke-dasharray:none" id="rect212" width="245.28712" height="32.869278" x="-533.14557" y="-832.95105" transform="rotate(90,-11.503451,-11.50322)"/>
      <rect style="font-variation-settings:'wdth' 70,'wght' 600;display:inline;fill:#373e43;fill-opacity:1;stroke-width:8.12991;stroke-dasharray:none" id="rect213" width="245.28712" height="32.869278" x="-533.14557" y="-865.82037" transform="rotate(90,-11.503451,-11.50322)"/>
      <rect style="font-variation-settings:'wdth' 70,'wght' 600;display:inline;fill:#373e43;fill-opacity:1;stroke-width:8.12991;stroke-dasharray:none" id="rect214" width="245.28712" height="32.869278" x="-533.14557" y="-898.68976" transform="rotate(90,-11.503451,-11.50322)"/>
      <rect style="font-variation-settings:'wdth' 70,'wght' 600;display:inline;fill:#373e43;fill-opacity:1;stroke-width:8.12991;stroke-dasharray:none" id="rect215" width="245.28712" height="32.869278" x="-533.14557" y="-931.55896" transform="rotate(90,-11.503451,-11.50322)"/>
      <rect style="font-variation-settings:'wdth' 70,'wght' 600;display:inline;fill:#373e43;fill-opacity:1;stroke-width:8.12991;stroke-dasharray:none" id="rect216" width="245.28712" height="32.869278" x="-533.14557" y="-964.42822" transform="rotate(90,-11.503451,-11.50322)"/>
      <rect style="font-variation-settings:'wdth' 70,'wght' 600;display:inline;fill:#373e43;fill-opacity:1;stroke-width:8.12991;stroke-dasharray:none" id="rect220" width="245.28712" height="32.869278" x="-533.14557" y="-997.29755" transform="rotate(90,-11.503451,-11.50322)"/>
      <rect style="font-variation-settings:'wdth' 70,'wght' 600;display:inline;fill:#373e43;fill-opacity:1;stroke-width:14.9885;stroke-dasharray:none" id="rect222" width="245.28712" height="111.72118" x="-533.14557" y="-1109.0188" transform="matrix(0,1,-1.2842856,0,-305.67754,4.4786475)"/>
      <rect style="font-variation-settings:'wdth' 70,'wght' 600;display:inline;fill:#373e43;fill-opacity:1;stroke-width:8.12991;stroke-dasharray:none" id="rect217" width="245.28712" height="32.869278" x="-533.14557" y="-1141.8879" transform="rotate(90,4.8000608,4.8005925)"/>
      <rect style="font-variation-settings:'wdth' 70,'wght' 600;display:inline;fill:#3a4146;fill-opacity:1;stroke-width:8.12991;stroke-dasharray:none" id="rect218" width="245.28712" height="32.869278" x="-533.14557" y="-1141.8879" transform="rotate(90,21.296861,21.297395)"/>
      <rect style="font-variation-settings:'wdth' 70,'wght' 600;display:inline;fill:#3c4449;fill-opacity:1;stroke-width:8.12991;stroke-dasharray:none" id="rect219" width="245.28712" height="32.869278" x="-533.14557" y="-1141.8879" transform="rotate(90,37.731461,37.732097)"/>
      <rect style="font-variation-settings:'wdth' 70,'wght' 600;display:inline;fill:#3e474c;fill-opacity:1;stroke-width:8.12991;stroke-dasharray:none" id="rect221" width="245.28712" height="32.869278" x="-533.14557" y="-1141.8879" transform="rotate(90,54.166061,54.166499)"/>
      <rect style="font-variation-settings:'wdth' 70,'wght' 600;display:inline;fill:#404a4f;fill-opacity:1;stroke-width:8.12991;stroke-dasharray:none" id="rect223" width="245.28712" height="32.869278" x="-533.14557" y="-1141.8879" transform="rotate(90,70.600749,70.600749)"/>
      <rect style="font-variation-settings:'wdth' 70,'wght' 600;display:inline;fill:#424d52;fill-opacity:1;stroke-width:8.12991;stroke-dasharray:none" id="rect224" width="245.28712" height="32.869278" x="-533.14557" y="-1174.7572" transform="rotate(90,70.600749,70.600749)"/>
      <rect style="font-variation-settings:'wdth' 70,'wght' 600;display:inline;fill:#445055;fill-opacity:1;stroke-width:8.12991;stroke-dasharray:none" id="rect225" width="245.28712" height="32.869278" x="-533.14557" y="-1207.6265" transform="rotate(90,70.600749,70.600749)"/>
      <rect style="font-variation-settings:'wdth' 70,'wght' 600;display:inline;fill:#465358;fill-opacity:1;stroke-width:8.12991;stroke-dasharray:none" id="rect226" width="245.28712" height="32.869278" x="-533.14557" y="-1240.4957" transform="rotate(90,70.600749,70.600749)"/>
      <rect style="font-variation-settings:'wdth' 70,'wght' 600;display:inline;fill:#48565b;fill-opacity:1;stroke-width:8.12991;stroke-dasharray:none" id="rect227" width="245.28712" height="32.869278" x="-533.14557" y="-1273.365" transform="rotate(90,70.600749,70.600749)"/>
      <rect style="font-variation-settings:'wdth' 70,'wght' 600;display:inline;fill:#4b595e;fill-opacity:1;stroke-width:8.12991;stroke-dasharray:none" id="rect228" width="245.28712" height="32.869278" x="-533.14557" y="-1306.2341" transform="rotate(90,70.600749,70.600749)"/>
      <rect style="font-variation-settings:'wdth' 70,'wght' 600;display:inline;fill:#4c5a5f;fill-opacity:1;stroke-width:8.12991;stroke-dasharray:none" id="rect229" width="245.28712" height="32.869278" x="-533.14557" y="-1339.1034" transform="rotate(90,70.600749,70.600749)"/>
      <rect style="font-variation-settings:'wdth' 70,'wght' 600;display:inline;fill:#4c5a5f;fill-opacity:1;stroke-width:8.12991;stroke-dasharray:none" id="rect230" width="245.28712" height="32.869278" x="-533.14557" y="-1339.1034" transform="rotate(90,87.03538,87.03538)"/>
      <rect style="font-variation-settings:'wdth' 70,'wght' 600;display:inline;fill:#4c5a5f;fill-opacity:1;stroke-width:8.12991;stroke-dasharray:none" id="rect543" width="245.28712" height="32.869278" x="-533.14557" y="-1339.1034" transform="rotate(90,81.218068,81.218068)"/>
      <rect style="font-variation-settings:'wdth' 70,'wght' 600;display:inline;fill:#000;fill-opacity:1;stroke-width:1.41805;stroke-dasharray:none" id="rect856" width="245.28712" height="1.0000001" x="-533.14557" y="-1447.4357" transform="rotate(90)"/>
      <rect style="font-variation-settings:'wdth' 70,'wght' 600;display:inline;fill:#000;fill-opacity:1;stroke-width:1.41805;stroke-dasharray:none" id="rect858" width="245.28712" height="1.0000001" x="-533.14557" y="-1414.5664" transform="rotate(90)"/>
      <rect style="font-variation-settings:'wdth' 70,'wght' 600;display:inline;fill:#000;fill-opacity:1;stroke-width:1.41805;stroke-dasharray:none" id="rect859" width="245.28712" height="1.0000001" x="-533.14557" y="-1381.6973" transform="rotate(90)"/>
      <rect style="font-variation-settings:'wdth' 70,'wght' 600;display:inline;fill:#000;fill-opacity:1;stroke-width:1.41805;stroke-dasharray:none" id="rect860" width="245.28712" height="1.0000001" x="-533.14557" y="-1348.828" transform="rotate(90)"/>
      <rect style="font-variation-settings:'wdth' 70,'wght' 600;display:inline;fill:#000;fill-opacity:1;stroke-width:1.41805;stroke-dasharray:none" id="rect861" width="245.28712" height="1.0000001" x="-533.14557" y="-1315.9587" transform="rotate(90)"/>
      <rect style="font-variation-settings:'wdth' 70,'wght' 600;display:inline;fill:#000;fill-opacity:1;stroke-width:1.41805;stroke-dasharray:none" id="rect862" width="245.28712" height="1.0000001" x="-533.14557" y="-1283.0895" transform="rotate(90)"/>
      <rect style="font-variation-settings:'wdth' 70,'wght' 600;display:inline;fill:#000;fill-opacity:1;stroke-width:1.41805;stroke-dasharray:none" id="rect863" width="245.28712" height="1.0000001" x="-533.14557" y="-1250.2202" transform="rotate(90)"/>
      <rect style="font-variation-settings:'wdth' 70,'wght' 600;display:inline;fill:#000;fill-opacity:1;stroke-width:1.41805;stroke-dasharray:none" id="rect864" width="245.28712" height="1.0000001" x="-533.14557" y="-1217.3512" transform="rotate(90)"/>
      <rect style="font-variation-settings:'wdth' 70,'wght' 600;display:inline;fill:#000;fill-opacity:1;stroke-width:1.41805;stroke-dasharray:none" id="rect865" width="245.28712" height="1.0000001" x="-533.14557" y="-1184.4822" transform="rotate(90)"/>
      <rect style="font-variation-settings:'wdth' 70,'wght' 600;display:inline;fill:#000;fill-opacity:1;stroke-width:1.41805;stroke-dasharray:none" id="rect866" width="245.28712" height="1.0000001" x="-533.14557" y="-1151.4886" transform="rotate(90)"/>
      <rect style="font-variation-settings:'wdth' 70,'wght' 600;display:inline;fill:#000;fill-opacity:1;stroke-width:1.41805;stroke-dasharray:none" id="rect867" width="245.28712" height="1.0000001" x="-533.14557" y="-974.29089" transform="rotate(90)"/>
      <rect style="font-variation-settings:'wdth' 70,'wght' 600;display:inline;fill:#000;fill-opacity:1;stroke-width:1.41805;stroke-dasharray:none" id="rect868" width="245.28712" height="1.0000001" x="-533.14557" y="-941.42157" transform="rotate(90)"/>
      <rect style="font-variation-settings:'wdth' 70,'wght' 600;display:inline;fill:#000;fill-opacity:1;stroke-width:1.41805;stroke-dasharray:none" id="rect869" width="245.28712" height="1.0000001" x="-533.14557" y="-908.55225" transform="rotate(90)"/>
      <rect style="font-variation-settings:'wdth' 70,'wght' 600;display:inline;fill:#000;fill-opacity:1;stroke-width:1.41805;stroke-dasharray:none" id="rect870" width="245.28712" height="1.0000001" x="-533.14557" y="-875.68298" transform="rotate(90)"/>
      <rect style="font-variation-settings:'wdth' 70,'wght' 600;display:inline;fill:#000;fill-opacity:1;stroke-width:1.41805;stroke-dasharray:none" id="rect871" width="245.28712" height="1.0000001" x="-533.14557" y="-842.81372" transform="rotate(90)"/>
      <rect style="font-variation-settings:'wdth' 70,'wght' 600;display:inline;fill:#000;fill-opacity:1;stroke-width:1.41805;stroke-dasharray:none" id="rect872" width="245.28712" height="1.0000001" x="-533.14557" y="-809.9444" transform="rotate(90)"/>
      <rect style="font-variation-settings:'wdth' 70,'wght' 600;display:inline;fill:#000;fill-opacity:1;stroke-width:1.41805;stroke-dasharray:none" id="rect873" width="245.28712" height="1.0000001" x="-533.14557" y="-777.07507" transform="rotate(90)"/>
      <rect style="font-variation-settings:'wdth' 70,'wght' 600;display:inline;fill:#000;fill-opacity:1;stroke-width:1.41805;stroke-dasharray:none" id="rect874" width="245.28712" height="1.0000001" x="-533.14557" y="-744.20587" transform="rotate(90)"/>
      <rect style="font-variation-settings:'wdth' 70,'wght' 600;display:inline;fill:#000;fill-opacity:1;stroke-width:1.41805;stroke-dasharray:none" id="rect875" width="245.28712" height="1.0000001" x="-533.14557" y="-711.33655" transform="rotate(90)"/>
      <rect style="font-variation-settings:'wdth' 70,'wght' 600;display:inline;fill:#000;fill-opacity:1;stroke-width:1.41805;stroke-dasharray:none" id="rect876" width="245.28712" height="1.0000001" x="-533.14557" y="-678.46722" transform="rotate(90)"/>
      <path style="font-variation-settings:'wdth' 70,'wght' 600;display:inline;opacity:1;fill:none;fill-opacity:1;stroke:#bec3c6;stroke-width:5;stroke-dasharray:none;stroke-opacity:1;marker-end:url(#Triangle)" d="m 694.90195,-410.50177 736.09905,-2.5e-4" id="path230" transform="translate(2.6759473e-6,3.0979044e-5)"/>
    </g>
    <g id="staires_2R" transform="matrix(-0.02439371,0,0,-0.02439371,184.73083,257.00489)" style="display:inline">
      <rect style="font-variation-settings:'wdth' 70,'wght' 600;display:inline;fill:#292b2e;fill-opacity:1;stroke-width:8.12991;stroke-dasharray:none" id="rect516" width="245.28712" height="32.869278" x="-533.14502" y="-780.40295" transform="matrix(0,1,-1.0037742,0,-5.6059124,-0.00120551)"/>
      <rect style="font-variation-settings:'wdth' 70,'wght' 600;display:inline;fill:#2b2e31;fill-opacity:1;stroke-width:8.12991;stroke-dasharray:none" id="rect515" width="245.28712" height="32.869278" x="-533.14502" y="-813.27234" transform="matrix(0,1,-1.0037742,0,-5.6059124,-0.00120551)"/>
      <rect style="font-variation-settings:'wdth' 70,'wght' 600;display:inline;fill:#2d3134;fill-opacity:1;stroke-width:8.12991;stroke-dasharray:none" id="rect514" width="245.28712" height="32.869278" x="-533.14502" y="-846.14172" transform="matrix(0,1,-1.0037742,0,-5.6059124,-0.00120551)"/>
      <rect style="font-variation-settings:'wdth' 70,'wght' 600;display:inline;fill:#2f3437;fill-opacity:1;stroke-width:8.12991;stroke-dasharray:none" id="rect513" width="245.28712" height="32.869278" x="-533.14502" y="-879.01099" transform="matrix(0,1,-1.0037742,0,-5.6059124,-0.00120551)"/>
      <rect style="font-variation-settings:'wdth' 70,'wght' 600;display:inline;fill:#31373a;fill-opacity:1;stroke-width:8.12991;stroke-dasharray:none" id="rect512" width="245.28712" height="32.869278" x="-533.14502" y="-911.88037" transform="matrix(0,1,-1.0037742,0,-5.6059124,-0.00120551)"/>
      <rect style="font-variation-settings:'wdth' 70,'wght' 600;display:inline;fill:#333a3d;fill-opacity:1;stroke-width:8.12991;stroke-dasharray:none" id="rect511" width="245.28712" height="32.869278" x="-533.14502" y="-941.29382" transform="matrix(0,1,-1.0037742,0,-5.6059124,-0.00120551)"/>
      <rect style="font-variation-settings:'wdth' 70,'wght' 600;display:inline;fill:#353c40;fill-opacity:1;stroke-width:8.12991;stroke-dasharray:none" id="rect510" width="245.28712" height="32.869278" x="-533.14502" y="-974.16309" transform="matrix(0,1,-1.0037742,0,-5.6059124,-0.00120551)"/>
      <rect style="font-variation-settings:'wdth' 70,'wght' 600;display:inline;fill:#373e43;fill-opacity:1;stroke-width:8.12991;stroke-dasharray:none" id="rect509" width="245.28712" height="32.869278" x="-533.14502" y="-1007.0325" transform="matrix(0,1,-1.0037742,0,-5.6059124,-0.00120551)"/>
      <rect style="font-variation-settings:'wdth' 70,'wght' 600;display:inline;fill:#3a4146;fill-opacity:1;stroke-width:8.12991;stroke-dasharray:none" id="rect508" width="245.28712" height="32.869278" x="-533.14557" y="-1141.8879" transform="matrix(0,1,-1.0037742,0,-107.97694,-7.12e-4)"/>
      <rect style="font-variation-settings:'wdth' 70,'wght' 600;display:inline;fill:#3a4146;fill-opacity:1;stroke-width:14.9879;stroke-dasharray:none" id="rect507" width="245.28712" height="111.71169" x="-533.14508" y="-1151.6135" transform="matrix(0,1,-1.0037742,0,-5.6059124,-0.00120551)"/>
      <rect style="font-variation-settings:'wdth' 70,'wght' 600;display:inline;fill:#3a4146;fill-opacity:1;stroke-width:8.12991;stroke-dasharray:none" id="rect242" width="245.28712" height="32.869278" x="-533.14557" y="-1141.8879" transform="matrix(0,1,-1.0037742,0,37.149863,5.34e-4)"/>
      <rect style="font-variation-settings:'wdth' 70,'wght' 600;display:inline;fill:#3c4449;fill-opacity:1;stroke-width:8.12991;stroke-dasharray:none" id="rect243" width="245.28712" height="32.869278" x="-533.14557" y="-1141.8879" transform="matrix(0,1,-1.0037742,0,70.143222,6.36e-4)"/>
      <rect style="font-variation-settings:'wdth' 70,'wght' 600;display:inline;fill:#3e474c;fill-opacity:1;stroke-width:8.12991;stroke-dasharray:none" id="rect244" width="245.28712" height="32.869278" x="-533.14557" y="-1141.8879" transform="matrix(0,1,-1.0037742,0,103.13628,4.38e-4)"/>
      <rect style="font-variation-settings:'wdth' 70,'wght' 600;display:inline;fill:#404a4f;fill-opacity:1;stroke-width:8.12991;stroke-dasharray:none" id="rect246" width="245.28712" height="32.869278" x="-533.14557" y="-1141.8879" transform="matrix(0,1,-1.0037742,0,136.12927,0)"/>
      <rect style="font-variation-settings:'wdth' 70,'wght' 600;display:inline;fill:#424d52;fill-opacity:1;stroke-width:8.12991;stroke-dasharray:none" id="rect247" width="245.28712" height="32.869278" x="-533.14557" y="-1174.7572" transform="matrix(0,1,-1.0037742,0,136.12927,0)"/>
      <rect style="font-variation-settings:'wdth' 70,'wght' 600;display:inline;fill:#445055;fill-opacity:1;stroke-width:8.12991;stroke-dasharray:none" id="rect248" width="245.28712" height="32.869278" x="-533.14557" y="-1207.6265" transform="matrix(0,1,-1.0037742,0,136.12927,0)"/>
      <rect style="font-variation-settings:'wdth' 70,'wght' 600;display:inline;fill:#465358;fill-opacity:1;stroke-width:8.12991;stroke-dasharray:none" id="rect249" width="245.28712" height="32.869278" x="-533.14557" y="-1240.4957" transform="matrix(0,1,-1.0037742,0,136.12927,0)"/>
      <rect style="font-variation-settings:'wdth' 70,'wght' 600;display:inline;fill:#48565b;fill-opacity:1;stroke-width:8.12991;stroke-dasharray:none" id="rect250" width="245.28712" height="32.869278" x="-533.14557" y="-1273.365" transform="matrix(0,1,-1.0037742,0,136.12927,0)"/>
      <rect style="font-variation-settings:'wdth' 70,'wght' 600;display:inline;fill:#4b595e;fill-opacity:1;stroke-width:8.12991;stroke-dasharray:none" id="rect251" width="245.28712" height="32.869278" x="-533.14557" y="-1306.2341" transform="matrix(0,1,-1.0037742,0,136.12927,0)"/>
      <rect style="font-variation-settings:'wdth' 70,'wght' 600;display:inline;fill:#4c5a5f;fill-opacity:1;stroke-width:8.12991;stroke-dasharray:none" id="rect252" width="245.28712" height="32.869278" x="-533.14557" y="-1339.1034" transform="matrix(0,1,-1.0037742,0,136.12927,0)"/>
      <rect style="font-variation-settings:'wdth' 70,'wght' 600;display:inline;fill:#4c5a5f;fill-opacity:1;stroke-width:8.12991;stroke-dasharray:none" id="rect259" width="245.28712" height="32.869278" x="-533.14557" y="-1339.1034" transform="rotate(90,87.03538,87.03538)"/>
      <rect style="font-variation-settings:'wdth' 70,'wght' 600;display:inline;fill:#000;fill-opacity:1;stroke-width:1.41805;stroke-dasharray:none" id="rect877" width="245.28712" height="1.0000001" x="-533.14557" y="-1480.2867" transform="rotate(90)"/>
      <rect style="font-variation-settings:'wdth' 70,'wght' 600;display:inline;fill:#000;fill-opacity:1;stroke-width:1.41805;stroke-dasharray:none" id="rect878" width="245.28712" height="1.0000001" x="-533.14557" y="-1447.2933" transform="rotate(90)"/>
      <rect style="font-variation-settings:'wdth' 70,'wght' 600;display:inline;fill:#000;fill-opacity:1;stroke-width:1.41805;stroke-dasharray:none" id="rect879" width="245.28712" height="1.0000001" x="-533.14557" y="-1414.3" transform="rotate(90)"/>
      <rect style="font-variation-settings:'wdth' 70,'wght' 600;display:inline;fill:#000;fill-opacity:1;stroke-width:1.41805;stroke-dasharray:none" id="rect880" width="245.28712" height="1.0000001" x="-533.14557" y="-1381.3069" transform="rotate(90)"/>
      <rect style="font-variation-settings:'wdth' 70,'wght' 600;display:inline;fill:#000;fill-opacity:1;stroke-width:1.41805;stroke-dasharray:none" id="rect881" width="245.28712" height="1.0000001" x="-533.14557" y="-1348.3136" transform="rotate(90)"/>
      <rect style="font-variation-settings:'wdth' 70,'wght' 600;display:inline;fill:#000;fill-opacity:1;stroke-width:1.41805;stroke-dasharray:none" id="rect882" width="245.28712" height="1.0000001" x="-533.14557" y="-1315.3202" transform="rotate(90)"/>
      <rect style="font-variation-settings:'wdth' 70,'wght' 600;display:inline;fill:#000;fill-opacity:1;stroke-width:1.41805;stroke-dasharray:none" id="rect883" width="245.28712" height="1.0000001" x="-533.14557" y="-1282.3269" transform="rotate(90)"/>
      <rect style="font-variation-settings:'wdth' 70,'wght' 600;display:inline;fill:#000;fill-opacity:1;stroke-width:1.41805;stroke-dasharray:none" id="rect884" width="245.28712" height="1.0000001" x="-533.14557" y="-1249.3336" transform="rotate(90)"/>
      <rect style="font-variation-settings:'wdth' 70,'wght' 600;display:inline;fill:#000;fill-opacity:1;stroke-width:1.41805;stroke-dasharray:none" id="rect885" width="245.28712" height="1.0000001" x="-533.14557" y="-1216.3406" transform="rotate(90)"/>
      <rect style="font-variation-settings:'wdth' 70,'wght' 600;display:inline;fill:#000;fill-opacity:1;stroke-width:1.41805;stroke-dasharray:none" id="rect886" width="245.28712" height="1.0000001" x="-533.14557" y="-1183.3475" transform="rotate(90)"/>
      <rect style="font-variation-settings:'wdth' 70,'wght' 600;display:inline;fill:#000;fill-opacity:1;stroke-width:1.41805;stroke-dasharray:none" id="rect887" width="245.28712" height="1.0000001" x="-533.14557" y="-1150.354" transform="rotate(90)"/>
      <rect style="font-variation-settings:'wdth' 70,'wght' 600;display:inline;fill:#000;fill-opacity:1;stroke-width:1.41805;stroke-dasharray:none" id="rect888" width="245.28712" height="1.0000001" x="-533.14557" y="-1005.2273" transform="rotate(90)"/>
      <rect style="font-variation-settings:'wdth' 70,'wght' 600;display:inline;fill:#000;fill-opacity:1;stroke-width:1.41805;stroke-dasharray:none" id="rect889" width="245.28712" height="1.0000001" x="-533.14557" y="-972.23389" transform="rotate(90)"/>
      <rect style="font-variation-settings:'wdth' 70,'wght' 600;display:inline;fill:#000;fill-opacity:1;stroke-width:1.41805;stroke-dasharray:none" id="rect890" width="245.28712" height="1.0000001" x="-533.14557" y="-939.24054" transform="rotate(90)"/>
      <rect style="font-variation-settings:'wdth' 70,'wght' 600;display:inline;fill:#000;fill-opacity:1;stroke-width:1.41805;stroke-dasharray:none" id="rect891" width="245.28712" height="1.0000001" x="-533.14557" y="-906.24719" transform="rotate(90)"/>
      <rect style="font-variation-settings:'wdth' 70,'wght' 600;display:inline;fill:#000;fill-opacity:1;stroke-width:1.41805;stroke-dasharray:none" id="rect892" width="245.28712" height="1.0000001" x="-533.14557" y="-876.72266" transform="rotate(90)"/>
      <rect style="font-variation-settings:'wdth' 70,'wght' 600;display:inline;fill:#000;fill-opacity:1;stroke-width:1.41805;stroke-dasharray:none" id="rect893" width="245.28712" height="1.0000001" x="-533.14557" y="-843.72919" transform="rotate(90)"/>
      <rect style="font-variation-settings:'wdth' 70,'wght' 600;display:inline;fill:#000;fill-opacity:1;stroke-width:1.41805;stroke-dasharray:none" id="rect894" width="245.28712" height="1.0000001" x="-533.14557" y="-810.73602" transform="rotate(90)"/>
      <rect style="font-variation-settings:'wdth' 70,'wght' 600;display:inline;fill:#000;fill-opacity:1;stroke-width:1.41805;stroke-dasharray:none" id="rect895" width="245.28712" height="1.0000001" x="-533.14557" y="-777.74255" transform="rotate(90)"/>
      <path style="font-variation-settings:'wdth' 70,'wght' 600;display:inline;opacity:1;fill:none;fill-opacity:1;stroke:#bec3c6;stroke-width:5;stroke-dasharray:none;stroke-opacity:1;marker-end:url(#Triangle)" d="m 794.23921,-410.50266 636.76179,6.4e-4" id="path262" transform="translate(-4.5546979e-4,-1.055136e-4)"/>
    </g>
    <g id="g419" transform="matrix(0.02439371,0,0,0.02439371,-0.02443957,244.19953)" style="display:inline">
      <path style="font-variation-settings:'wdth' 70,'wght' 600;fill:none;stroke:#bec3c6;stroke-width:55;stroke-linecap:butt;stroke-dasharray:none;stroke-opacity:1" d="M 74.953328,507.26483 V 1829.0004 H 1549.5314 v -265 h 5500.325 V 507.26483 Z" id="path270"/>
      <path style="font-variation-settings:'wdth' 70,'wght' 600;fill:none;stroke:#bec3c6;stroke-width:35;stroke-linecap:butt;stroke-dasharray:none;stroke-opacity:1" d="m 1539.5328,1286.7378 v 277.2626" id="path271"/>
      <path style="font-variation-settings:'wdth' 70,'wght' 600;fill:none;stroke:#bec3c6;stroke-width:35;stroke-linecap:butt;stroke-dasharray:none;stroke-opacity:1" d="M 200.75024,1140.0003 H 74.953328" id="path296"/>
      <path style="font-variation-settings:'wdth' 70,'wght' 600;fill:none;stroke:#bec3c6;stroke-width:35;stroke-linecap:butt;stroke-dasharray:none;stroke-opacity:1" d="m 2158.11,830.30368 h 944.2327" id="path298"/>
      <path style="font-variation-settings:'wdth' 70,'wght' 600;fill:none;stroke:#bec3c6;stroke-width:35;stroke-linecap:butt;stroke-dasharray:none;stroke-opacity:1" d="m 3202.3427,830.30368 h 244.5939" id="path299"/>
      <path style="font-variation-settings:'wdth' 70,'wght' 600;fill:none;stroke:#bec3c6;stroke-width:35;stroke-linecap:butt;stroke-dasharray:none;stroke-opacity:1" d="m 5006.0517,830.30368 h 856.7346" id="path300"/>
      <path style="font-variation-settings:'wdth' 70,'wght' 600;fill:none;stroke:#bec3c6;stroke-width:35;stroke-linecap:butt;stroke-dasharray:none;stroke-opacity:1" d="M 4400.5729,833.30368 V 1564.0004" id="path301"/>
      <path style="font-variation-settings:'wdth' 70,'wght' 600;fill:none;stroke:#bec3c6;stroke-width:100;stroke-linecap:butt;stroke-dasharray:none;stroke-opacity:1" d="M 3002.0608,833.30368 V 1224.5891" id="path303"/>
      <path style="font-variation-settings:'wdth' 70,'wght' 600;fill:none;stroke:#bec3c6;stroke-width:35;stroke-linecap:butt;stroke-dasharray:none;stroke-opacity:1" d="M 5826.548,833.30368 V 1564.0004" id="path304"/>
      <path style="font-variation-settings:'wdth' 70,'wght' 600;fill:none;stroke:#bec3c6;stroke-width:10;stroke-linecap:butt;stroke-dasharray:none;stroke-opacity:1" d="M 1527.0328,578.08767 V 523.4193" id="path305"/>
      <path style="font-variation-settings:'wdth' 70,'wght' 600;fill:none;stroke:#bec3c6;stroke-width:10;stroke-linecap:butt;stroke-dasharray:none;stroke-opacity:1" d="M 1527.0328,830.30368 V 778.0877" id="path306"/>
      <path style="font-variation-settings:'wdth' 70,'wght' 600;fill:none;stroke:#bec3c6;stroke-width:10;stroke-linecap:butt;stroke-dasharray:none;stroke-opacity:1" d="M 3669.6466,578.08767 V 523.4193" id="path307"/>
      <path style="font-variation-settings:'wdth' 70,'wght' 600;fill:none;stroke:#bec3c6;stroke-width:10;stroke-linecap:butt;stroke-dasharray:none;stroke-opacity:1" d="M 3669.6466,830.30368 V 778.0877" id="path308"/>
      <path style="font-variation-settings:'wdth' 70,'wght' 600;fill:none;stroke:#bec3c6;stroke-width:10;stroke-linecap:butt;stroke-dasharray:none;stroke-opacity:1" d="M 5839.048,578.08767 V 523.4193" id="path323"/>
      <path style="font-variation-settings:'wdth' 70,'wght' 600;fill:none;stroke:#bec3c6;stroke-width:10;stroke-linecap:butt;stroke-dasharray:none;stroke-opacity:1" d="M 5839.048,830.30368 V 778.0877" id="path324"/>
      <path style="font-variation-settings:'wdth' 70,'wght' 600;fill:none;stroke:#bec3c6;stroke-width:35;stroke-linecap:butt;stroke-dasharray:none;stroke-opacity:1" d="m 1416.4351,1140.0003 h 123.0977 V 830.30368 h 60.372" id="path387"/>
      <path style="font-variation-settings:'wdth' 70,'wght' 600;fill:none;stroke:#bec3c6;stroke-width:35;stroke-linecap:butt;stroke-dasharray:none;stroke-opacity:1" d="m 5924.5446,1203.0004 h -63.0035 v 202 h 271.0069 v -202 h -108.0034" id="path388"/>
      <path style="font-variation-settings:'wdth' 70,'wght' 600;fill:none;stroke:#bec3c6;stroke-width:35;stroke-linecap:butt;stroke-dasharray:none;stroke-opacity:1" d="m 6053.5411,1057.8037 h 854.007" id="path389"/>
      <path style="font-variation-settings:'wdth' 70,'wght' 600;fill:none;stroke:#bec3c6;stroke-width:35;stroke-linecap:butt;stroke-dasharray:none;stroke-opacity:1" d="m 6053.5411,812.80368 h 785.4176" id="path390"/>
      <path style="font-variation-settings:'wdth' 70,'wght' 600;fill:none;stroke:#bec3c6;stroke-width:35;stroke-linecap:butt;stroke-dasharray:none;stroke-opacity:1" d="m 6501.8351,1057.8037 v 506.1967" id="path391"/>
      <path style="font-variation-settings:'wdth' 70,'wght' 600;fill:none;stroke:#bec3c6;stroke-width:35;stroke-linecap:butt;stroke-dasharray:none;stroke-opacity:1" d="m 300.75025,1140.0003 h 49.12764 v -52.4095 h 923.00051 v 52.4095 h 43.5567" id="path394"/>
      <path style="font-variation-settings:'wdth' 70,'wght' 600;fill:none;stroke:#bec3c6;stroke-width:35;stroke-linecap:butt;stroke-dasharray:none;stroke-opacity:1" d="M 344.62254,842.30368 H 1193.992" id="path395"/>
      <path style="font-variation-settings:'wdth' 70,'wght' 600;fill:none;stroke:#bec3c6;stroke-width:35;stroke-linecap:butt;stroke-dasharray:none;stroke-opacity:1" d="m 6652.9536,517.26503 h 146.4999" id="path414"/>
      <path style="font-variation-settings:'wdth' 70,'wght' 600;fill:none;stroke:#bec3c6;stroke-width:10;stroke-linecap:butt;stroke-dasharray:none;stroke-opacity:1" d="M 6132.5479,1203.0004 V 1180.402" id="path418"/>
      <path style="font-variation-settings:'wdth' 70,'wght' 600;fill:none;stroke:#bec3c6;stroke-width:10;stroke-linecap:butt;stroke-dasharray:none;stroke-opacity:1" d="m 6132.5479,1080.4021 v -22.5983" id="path419"/>
      <path style="font-variation-settings:'wdth' 70,'wght' 600;fill:none;stroke:#bec3c6;stroke-width:35;stroke-linecap:butt;stroke-dasharray:none;stroke-opacity:1" d="m 4544.5518,830.30368 h 361.4999" id="path424"/>
      <path style="font-variation-settings:'wdth' 70,'wght' 600;fill:none;stroke:#bec3c6;stroke-width:35;stroke-linecap:butt;stroke-dasharray:none;stroke-opacity:1" d="m 4314.1622,830.30368 h 130.3895" id="path425"/>
      <path style="font-variation-settings:'wdth' 70,'wght' 600;fill:none;stroke:#bec3c6;stroke-width:10;stroke-linecap:butt;stroke-dasharray:none;stroke-opacity:1" d="M 3243.7694,1564.0004 V 830.30368" id="path426"/>
      <path style="font-variation-settings:'wdth' 70,'wght' 600;fill:none;stroke:#bec3c6;stroke-width:10;stroke-linecap:butt;stroke-dasharray:none;stroke-opacity:1" d="M 3630.652,1564.0004 V 962.61312" id="path427"/>
      <path style="font-variation-settings:'wdth' 70,'wght' 600;fill:none;stroke:#bec3c6;stroke-width:10;stroke-linecap:butt;stroke-dasharray:none;stroke-opacity:1" d="M 3945.652,1564.0004 V 830.30368" id="path428"/>
      <path style="font-variation-settings:'wdth' 70,'wght' 600;fill:none;stroke:#bec3c6;stroke-width:35;stroke-linecap:butt;stroke-dasharray:none;stroke-opacity:1" d="m 2969.5587,1564.0004 v -357.089" id="path429"/>
      <path style="font-variation-settings:'wdth' 70,'wght' 600;fill:none;stroke:#bec3c6;stroke-width:10;stroke-linecap:butt;stroke-dasharray:none;stroke-opacity:1" d="m 3630.652,977.00033 h -212 v -14.38721" id="path430"/>
      <path style="font-variation-settings:'wdth' 70,'wght' 600;fill:none;stroke:#bec3c6;stroke-width:10;stroke-linecap:butt;stroke-dasharray:none;stroke-opacity:1" d="M 3630.652,862.61331 V 830.30368" id="path431"/>
      <path style="font-variation-settings:'wdth' 70,'wght' 600;fill:none;stroke:#bec3c6;stroke-width:10;stroke-linecap:butt;stroke-dasharray:none;stroke-opacity:1" d="M 3418.652,862.61331 V 830.30368" id="path432"/>
      <path style="font-variation-settings:'wdth' 70,'wght' 600;fill:none;stroke:#bec3c6;stroke-width:10;stroke-linecap:butt;stroke-dasharray:none;stroke-opacity:1" d="M 2720.5103,1564.0004 V 987.55243" id="path433"/>
      <path style="font-variation-settings:'wdth' 70,'wght' 600;fill:none;stroke:#bec3c6;stroke-width:10;stroke-linecap:butt;stroke-dasharray:none;stroke-opacity:1" d="M 2720.5103,887.55261 V 830.30368" id="path434"/>
      <path style="font-variation-settings:'wdth' 70,'wght' 600;fill:none;stroke:#bec3c6;stroke-width:10;stroke-linecap:butt;stroke-dasharray:none;stroke-opacity:1" d="m 2465.3631,1015.5389 h 255.1472" id="path435"/>
      <path style="font-variation-settings:'wdth' 70,'wght' 600;fill:none;stroke:#bec3c6;stroke-width:10;stroke-linecap:butt;stroke-dasharray:none;stroke-opacity:1" d="m 2168.3631,1015.5389 h 197" id="path436"/>
      <path style="font-variation-settings:'wdth' 70,'wght' 600;fill:none;stroke:#bec3c6;stroke-width:10;stroke-linecap:butt;stroke-dasharray:none;stroke-opacity:1" d="M 2312.5709,1564.0004 V 1015.5389" id="path437"/>
      <path style="font-variation-settings:'wdth' 70,'wght' 600;fill:none;stroke:#bec3c6;stroke-width:10;stroke-linecap:butt;stroke-dasharray:none;stroke-opacity:1" d="M 2013.5709,1564.0004 V 998.81103" id="path438"/>
      <path style="font-variation-settings:'wdth' 70,'wght' 600;fill:none;stroke:#bec3c6;stroke-width:10;stroke-linecap:butt;stroke-dasharray:none;stroke-opacity:1" d="M 2013.5709,898.81121 V 830.30368" id="path439"/>
      <path style="font-variation-settings:'wdth' 70,'wght' 600;fill:none;stroke:#bec3c6;stroke-width:10;stroke-linecap:butt;stroke-dasharray:none;stroke-opacity:1" d="m 2013.5709,1015.5389 h 54.7922" id="path440"/>
      <path style="font-variation-settings:'wdth' 70,'wght' 600;fill:none;stroke:#bec3c6;stroke-width:35;stroke-linecap:butt;stroke-dasharray:none;stroke-opacity:1" d="m 1539.5328,1140.0003 v 46.7377" id="path441"/>
      <path style="font-variation-settings:'wdth' 70,'wght' 600;fill:none;stroke:#bec3c6;stroke-width:35;stroke-linecap:butt;stroke-dasharray:none;stroke-opacity:1" d="M 1699.9048,830.30368 H 2058.11" id="path442"/>
      <path style="font-variation-settings:'wdth' 70,'wght' 600;fill:none;stroke:#bec3c6;stroke-width:10;stroke-linecap:butt;stroke-dasharray:none;stroke-opacity:1" d="M 1741.5709,830.30368 V 1305.493 h -202.0381" id="path443"/>
      <path style="font-variation-settings:'wdth' 70,'wght' 600;fill:none;stroke:#bec3c6;stroke-width:35;stroke-linecap:butt;stroke-dasharray:none;stroke-opacity:1" d="m 809.99236,1295.1846 v 533.8158" id="path444"/>
      <path style="font-variation-settings:'wdth' 70,'wght' 600;fill:none;stroke:#bec3c6;stroke-width:35;stroke-linecap:butt;stroke-dasharray:none;stroke-opacity:1" d="m 809.99236,1087.5908 v 107.594" id="path445"/>
      <path style="font-variation-settings:'wdth' 70,'wght' 600;fill:none;stroke:#bec3c6;stroke-width:35;stroke-linecap:butt;stroke-dasharray:none;stroke-opacity:1" d="M 781.43001,1317.3691 H 1071.7625" id="path446"/>
      <path style="font-variation-settings:'wdth' 70,'wght' 600;fill:none;stroke:#bec3c6;stroke-width:35;stroke-linecap:butt;stroke-dasharray:none;stroke-opacity:1" d="m 1309.7626,1317.3691 h 229.7702" id="path448"/>
      <path style="font-variation-settings:'wdth' 70,'wght' 600;fill:none;stroke:#bec3c6;stroke-width:35;stroke-linecap:butt;stroke-dasharray:none;stroke-opacity:1" d="m 1171.7626,1317.3691 h 38" id="path449"/>
      <path style="font-variation-settings:'wdth' 70,'wght' 600;fill:none;stroke:#bec3c6;stroke-width:35;stroke-linecap:butt;stroke-dasharray:none;stroke-opacity:1" d="M 428.23495,1317.3691 H 681.43" id="path450"/>
      <path style="font-variation-settings:'wdth' 70,'wght' 600;fill:none;stroke:#bec3c6;stroke-width:10;stroke-linecap:butt;stroke-dasharray:none;stroke-opacity:1" d="M 1190.7626,1829.0004 V 1317.3691" id="path451"/>
      <path style="font-variation-settings:'wdth' 70,'wght' 600;fill:none;stroke:#bec3c6;stroke-width:35;stroke-linecap:butt;stroke-dasharray:none;stroke-opacity:1" d="m 428.23495,1269.8825 v 559.1179" id="path452"/>
      <path style="font-variation-settings:'wdth' 70,'wght' 600;fill:none;stroke:#bec3c6;stroke-width:35;stroke-linecap:butt;stroke-dasharray:none;stroke-opacity:1" d="m 428.23495,1087.5908 v 82.2918" id="path453"/>
      <rect style="font-variation-settings:'wdth' 70,'wght' 600;fill:#bec3c6;fill-opacity:1;stroke-width:54.0679;stroke-dasharray:none" id="rect486" width="74.278862" height="69.909515" x="350.72498" y="1087.5908"/>
      <path style="font-variation-settings:'wdth' 70,'wght' 600;fill:none;stroke:#bec3c6;stroke-width:35;stroke-linecap:butt;stroke-dasharray:none;stroke-opacity:1" d="m 3546.9367,830.30368 h 667.2254" id="path507"/>
      <path style="font-variation-settings:'wdth' 70,'wght' 600;fill:none;stroke:#bec3c6;stroke-width:10;stroke-linecap:butt;stroke-dasharray:none;stroke-opacity:1" d="M 6833.9587,1075.3037 V 812.80368" id="path542"/>
      <path style="font-variation-settings:'wdth' 70,'wght' 600;fill:none;stroke:#bec3c6;stroke-width:10;stroke-linecap:butt;stroke-dasharray:none;stroke-opacity:1" d="M 349.68504,1096.5481 V 842.30368" id="path543"/>
    </g>
    <g id="g423" transform="matrix(0.02439371,0,0,0.02439371,-0.02443957,244.19953)" style="display:inline">
      <path d="m 6762.2948,1355.9008 v -31.8652 h -10.1036 v -32.2539 q 0,-3.5622 2.5583,-6.1205 2.5583,-2.5583 6.1205,-2.5583 h 19.9482 q 3.5621,0 6.1204,2.5583 2.5583,2.5583 2.5583,6.1205 v 32.2539 h -10.1036 v 31.8652 z m 8.5596,-82.6425 q -3.6891,0 -6.1891,-2.5544 -2.5,-2.5545 -2.5,-6.1139 0,-3.6892 2.4896,-6.1892 2.4899,-2.5 6.1788,-2.5 3.6891,0 6.1891,2.4897 2.5,2.4897 2.5,6.1787 0,3.5596 -2.4896,6.1244 -2.4897,2.5647 -6.1788,2.5647 z" id="path420" style="fill:#fff;fill-opacity:.798742;stroke-width:.129534;filter:url(#filter17)"/>
      <path d="m 6308.2302,1360.9021 v -30.0518 h -14.7668 l 14.2098,-39.4458 q 1.121,-2.8983 3.8366,-4.5889 2.7155,-1.6907 5.7878,-1.6907 3.0723,0 5.7878,1.6907 2.7156,1.6906 3.8542,4.5779 l 14.1922,39.4568 h -14.7668 v 30.0518 z m 9.0778,-82.6424 q -3.6892,0 -6.1892,-2.5504 -2.5,-2.5504 -2.5,-6.118 0,-3.6892 2.4897,-6.1892 2.4899,-2.5 6.1787,-2.5 3.6892,0 6.1892,2.4897 2.5,2.4897 2.5,6.114 0,3.6243 -2.4897,6.1891 -2.4896,2.5648 -6.1787,2.5648 z" id="path421" style="fill:#fff;fill-opacity:.803459;stroke-width:.129534;filter:url(#filter15)"/>
      <g id="g422" style="filter:url(#filter65)" transform="translate(3544.3717,276.58944)">
        <rect style="font-variation-settings:'wdth' 70,'wght' 600;fill:none;fill-opacity:1;stroke:#d6d7de;stroke-width:4.78791;stroke-linejoin:miter;stroke-dasharray:none;stroke-opacity:1" id="rect421" width="95.212135" height="95.212151" x="2405.0667" y="979.80487" ry="9.1410179"/>
        <path d="m 2427.7505,1062.6135 h 12.6169 v -23.8318 h 6.2306 v -17.757 c 0,-2.6337 -0.8992,-4.8497 -2.6976,-6.6481 -1.7985,-1.7985 -4.0665,-2.6977 -6.804,-2.6977 h -6.2306 c -2.7375,0 -4.9794,0.8992 -6.7258,2.6977 -1.7466,1.7984 -2.6199,4.0144 -2.6199,6.6481 v 17.757 h 6.2304 z m 6.1958,-54.9845 c 2.1478,0 3.9626,-0.7033 5.4445,-2.1098 1.4819,-1.4064 2.2228,-3.2356 2.2228,-5.4875 0,-2.148 -0.7292,-3.93697 -2.1877,-5.3669 -1.4583,-1.42987 -3.2615,-2.1448 -5.4096,-2.1448 -2.1481,0 -3.937,0.70327 -5.3669,2.1098 -1.4299,1.4064 -2.1449,3.18367 -2.1449,5.3318 0,2.2518 0.7033,4.0926 2.11,5.5225 1.4064,1.4299 3.1837,2.1449 5.3318,2.1449 z m 28.3838,9.9689 h 20.0934 l -9.9688,-16.1994 z m 10.1246,35.6697 9.9688,-16.1993 h -20.0934 z" id="path422" style="fill:#d5d6dd;fill-opacity:1;stroke-width:0;stroke-dasharray:none"/>
      </g>
    </g>
    <g id="g569" style="display:inline" transform="matrix(0.02439371,0,0,0.02439371,-0.02443957,234.44205)">
      <rect style="font-variation-settings:'wdth' 70,'wght' 600;display:inline;opacity:1;fill:#90a1c1;fill-opacity:1;stroke-width:0" id="rect544" width="369.41519" height="1527.7498" x="6710.9404" y="-647.99878"/>
      <rect style="font-variation-settings:'wdth' 70,'wght' 600;display:inline;opacity:1;fill:#90a1c1;fill-opacity:1;stroke-width:0" id="rect545" width="428.40009" height="1527.7498" x="8152.8794" y="-647.99878"/>
      <rect style="font-variation-settings:'wdth' 70,'wght' 600;opacity:1;fill:#a2b3cd;fill-opacity:1;stroke-width:0" id="rect546" width="561.25098" height="1527.4651" x="655.94788" y="-647.99878"/>
      <rect style="font-variation-settings:'wdth' 70,'wght' 600;opacity:1;fill:#99aac7;fill-opacity:1;stroke-width:0" id="rect547" width="561.25098" height="1527.4651" x="94.696899" y="-647.99878"/>
      <rect style="font-variation-settings:'wdth' 70,'wght' 600;opacity:1;fill:#99aac7;fill-opacity:1;stroke-width:0" id="rect548" width="546.3775" height="1527.7498" x="2873.7556" y="-647.99878"/>
      <rect style="font-variation-settings:'wdth' 70,'wght' 600;opacity:1;fill:#a2b3cd;fill-opacity:1;stroke-width:0" id="rect549" width="546.3775" height="1527.7498" x="3420.1331" y="-647.99878"/>
      <rect style="font-variation-settings:'wdth' 70,'wght' 600;opacity:1;fill:#a2b3cd;fill-opacity:1;stroke-width:0" id="rect550" width="546.3775" height="1527.7498" x="6164.563" y="-647.99878"/>
      <rect style="font-variation-settings:'wdth' 70,'wght' 600;opacity:1;fill:#99aac7;fill-opacity:1;stroke-width:0" id="rect551" width="546.3775" height="1527.7498" x="5618.1855" y="-647.99878"/>
      <path style="font-variation-settings:'wdth' 70,'wght' 600;opacity:1;fill:#90a1c1;fill-opacity:1;stroke-width:0" d="m 5618.1855,-647.99878 h 1092.7549 l -545.7527,534.87216 z" id="path551"/>
      <path style="font-variation-settings:'wdth' 70,'wght' 600;opacity:1;fill:#90a1c1;fill-opacity:1;stroke-width:0" d="m 8581.2789,-647.99878 h 1092.7549 l -545.7527,534.87216 z" id="path552"/>
      <path style="font-variation-settings:'wdth' 70,'wght' 600;opacity:1;fill:#a2b3cd;fill-opacity:1;stroke-width:0" d="m 9128.2804,-113.12662 545.7541,-534.87216 V 2112.1964 l -546.3766,-328.4191 z" id="path553"/>
      <path style="font-variation-settings:'wdth' 70,'wght' 600;opacity:1;fill:#99aac7;fill-opacity:1;stroke-width:0" d="m 8581.2789,-647.99878 547.0022,534.87216 -0.6232,1896.90392 -546.3778,-314.0064 z" id="path554"/>
      <path style="font-variation-settings:'wdth' 70,'wght' 600;opacity:1;fill:#abbbd2;fill-opacity:1;stroke-width:0" d="m 8680.1425,1783.7773 456.2071,-1.7127 546.3766,328.4191 -1519.4331,1.7127 z" id="path555"/>
      <path style="font-variation-settings:'wdth' 70,'wght' 600;opacity:1;fill:#90a1c1;fill-opacity:1;stroke-width:0" d="m 8680.1425,1783.7773 h 447.5154 l -546.3778,-331.5064 h -417.987 z" id="path556"/>
      <path style="font-variation-settings:'wdth' 70,'wght' 600;opacity:1;fill:#99aac7;fill-opacity:1;stroke-width:0" d="m 8680.1425,1783.7773 -516.8494,-331.5064 v 659.9255 z" id="path557"/>
      <path style="font-variation-settings:'wdth' 70,'wght' 600;opacity:1;fill:#76777e;fill-opacity:1;stroke-width:0" d="m 7077.3555,879.75098 h 1503.9238 l 8e-4,572.51992 h -417.987 l -0.8689,539.2042 -1085.0687,0.021 z" id="path565"/>
      <rect style="font-variation-settings:'wdth' 70,'wght' 600;opacity:1;fill:#4d4f61;fill-opacity:1;stroke-width:0" id="rect565" width="1278.449" height="327.75696" x="7302.8306" y="1007.6899"/>
      <path style="font-variation-settings:'wdth' 70,'wght' 600;opacity:1;fill:none;fill-opacity:1;stroke:#bec3c6;stroke-width:30;stroke-dasharray:none;stroke-opacity:1" d="m 7317.8306,1335.4468 v 351.8305" id="path566"/>
      <path style="font-variation-settings:'wdth' 70,'wght' 600;opacity:1;fill:none;fill-opacity:1;stroke:#bec3c6;stroke-width:30;stroke-dasharray:none;stroke-opacity:1" d="m 7622.3875,1335.4468 v 351.8305" id="path567"/>
      <path style="font-variation-settings:'wdth' 70,'wght' 600;opacity:1;fill:none;fill-opacity:1;stroke:#bec3c6;stroke-width:30;stroke-dasharray:none;stroke-opacity:1" d="m 8014.3666,1335.4468 v 351.8305" id="path568"/>
      <path style="font-variation-settings:'wdth' 70,'wght' 600;opacity:1;fill:none;fill-opacity:1;stroke:#bec3c6;stroke-width:30;stroke-dasharray:none;stroke-opacity:1" d="m 7317.8306,1618.0241 h 696.536" id="path569"/>
    </g>
    <path id="path939" d="m 325.6127,154.10988 v -8.736 q 7.68,-6.816 13.632,-12.768 6.048,-5.952 9.408,-11.04 3.456,-5.088 3.456,-9.312 0,-4.512 -2.304,-6.816 -2.304,-2.4 -6.336,-2.4 -3.264,0 -5.952,1.92 -2.592,1.824 -4.896,4.32 l -7.392,-7.296 q 4.416,-4.992 9.024,-7.488 4.704,-2.496 11.136,-2.496 5.952,0 10.464,2.4 4.608,2.4 7.104,6.72 2.592,4.32 2.592,10.176 0,5.472 -2.976,10.752 -2.88,5.184 -7.68,10.368 -4.8,5.184 -10.176,10.56 2.304,-0.288 5.184,-0.48 2.88,-0.288 4.992,-0.288 h 13.632 v 11.904 z m 50.68799,0 v -8.736 q 7.68,-6.816 13.632,-12.768 6.048,-5.952 9.408,-11.04 3.456,-5.088 3.456,-9.312 0,-4.512 -2.304,-6.816 -2.304,-2.4 -6.336,-2.4 -3.264,0 -5.952,1.92 -2.592,1.824 -4.896,4.32 l -7.392,-7.296 q 4.416,-4.992 9.024,-7.488 4.704,-2.496 11.136,-2.496 5.952,0 10.464,2.4 4.608,2.4 7.104,6.72 2.592,4.32 2.592,10.176 0,5.472 -2.976,10.752 -2.88,5.184 -7.68,10.368 -4.8,5.184 -10.176,10.56 2.304,-0.288 5.184,-0.48 2.88,-0.288 4.992,-0.288 h 13.632 v 11.904 z m 75.35999,0 v -35.232 q 0,-2.88 0.192,-6.816 0.288,-3.936 0.384,-6.816 h -0.384 q -1.152,2.496 -2.4,5.088 -1.248,2.496 -2.592,5.184 l -8.064,13.248 h 33.024 v 10.752 h -46.56 v -9.696 l 22.272,-36.672 h 17.28 v 60.96 z m 45.69598,1.152 q -8.832,0 -14.208,-6.624 -5.28,-6.72 -5.28,-18.336 0,-7.776 2.784,-13.344 2.88,-5.568 7.392,-8.544 4.608,-3.072 9.6,-3.072 3.936,0 6.624,1.344 2.688,1.344 5.088,3.648 l -0.576,-7.296 v -16.224 h 14.112 v 67.296 h -11.52 l -0.96,-4.704 h -0.384 q -2.496,2.496 -5.856,4.224 -3.36,1.632 -6.816,1.632 z m 3.648,-11.52 q 2.304,0 4.224,-0.96 1.92,-0.96 3.552,-3.36 v -19.488 q -1.824,-1.728 -3.84,-2.4 -2.016,-0.672 -4.032,-0.672 -2.304,0 -4.224,1.44 -1.92,1.44 -3.168,4.416 -1.152,2.88 -1.152,7.392 0,7.008 2.304,10.368 2.304,3.264 6.336,3.264 z M 337.56465,34.10988 v -50.688 h -17.184 v -11.904 h 48.576 v 11.904 h -17.184 v 50.688 z m 41.18398,0 v -62.592 h 22.56 q 6.624,0 12.096,1.824 5.472,1.728 8.736,6.048 3.264,4.224 3.264,11.6159997 0,7.2 -3.264,11.712 -3.264,4.512 -8.736,6.72 -5.472,2.1120003 -12.096,2.1120003 h -8.448 v 22.56 z m 14.112,-33.79200026 h 7.296 q 5.568,0 8.448,-2.30400004 2.976,-2.4 2.976,-7.008 0,-4.6079997 -2.976,-6.4319997 -2.88,-1.824 -8.448,-1.824 h -7.296 z m 19.776,33.79200026 -13.92,-26.2080003 9.792,-9.12 19.968,35.3280003 z m 18.72008,13.44 v -7.968 h 45.696 v 7.968 z m 46.272,-13.44 19.584,-62.592 h 16.896 l 19.68,62.592 h -14.976 l -8.16,-31.6800003 q -1.344,-4.704 -2.592,-9.984 -1.248,-5.2799997 -2.496,-10.1759997 h -0.384 q -1.056,4.896 -2.304,10.1759997 -1.248,5.28 -2.592,9.984 l -8.256,31.6800003 z m 12.864,-14.88 V 8.1898797 h 30.144 V 19.22988 Z m -536.05103,134.88 v -8.736 q 7.68,-6.816 13.632,-12.768 6.048,-5.952 9.408,-11.04 3.456,-5.088 3.456,-9.312 0,-4.512 -2.304,-6.816 -2.304,-2.4 -6.336,-2.4 -3.264,0 -5.952,1.92 -2.592,1.824 -4.896,4.32 l -7.392,-7.296 q 4.416,-4.992 9.024,-7.488 4.704,-2.496 11.136,-2.496 5.952,0 10.464,2.4 4.608,2.4 7.104,6.72 2.592,4.32 2.592,10.176 0,5.472 -2.976,10.752 -2.88,5.184 -7.68,10.368 -4.8,5.184 -10.176,10.56 2.304,-0.288 5.184,-0.48 2.88,-0.288 4.992,-0.288 h 13.632 v 11.904 z m 50.68799,0 v -8.736 q 7.68,-6.816 13.632,-12.768 6.048,-5.952 9.408,-11.04 3.456,-5.088 3.456,-9.312 0,-4.512 -2.304,-6.816 -2.304,-2.4 -6.336,-2.4 -3.264,0 -5.952,1.92 -2.592,1.824 -4.896,4.32 l -7.392,-7.296 q 4.416,-4.992 9.024,-7.488 4.704,-2.496 11.136,-2.496 5.952,0 10.464,2.4 4.608,2.4 7.104,6.72 2.592,4.32 2.592,10.176 0,5.472 -2.976,10.752 -2.88,5.184 -7.68,10.368 -4.8,5.184 -10.176,10.56 2.304,-0.288 5.184,-0.48 2.88,-0.288 4.992,-0.288 h 13.632 v 11.904 z m 75.35998,0 v -35.232 q 0,-2.88 0.192,-6.816 0.288,-3.936 0.384,-6.816 h -0.384 q -1.152,2.496 -2.4,5.088 -1.248,2.496 -2.592,5.184 l -8.064,13.248 h 33.024 v 10.752 h -46.56 v -9.696 l 22.272,-36.672 h 17.28 v 60.96 z m 49.72799,1.152 q -6.72,0 -12.192,-2.976 -5.376,-2.976 -8.544,-8.544 -3.072,-5.568 -3.072,-13.44 0,-7.872 3.456,-13.44 3.456,-5.568 9.12,-8.544 5.664,-2.976 12.192,-2.976 4.416,0 7.872,1.44 3.552,1.344 6.048,3.648 l -6.624,8.736 q -1.248,-1.056 -2.88,-1.728 -1.536,-0.672 -3.552,-0.672 -3.36,0 -5.856,1.632 -2.496,1.632 -3.936,4.704 -1.44,3.072 -1.44,7.2 0,4.128 1.44,7.2 1.44,3.072 3.84,4.704 2.496,1.632 5.568,1.632 2.4,0 4.512,-0.864 2.112,-0.864 3.936,-2.208 l 5.568,8.64 q -2.976,2.688 -7.008,4.32 -4.032,1.536 -8.448,1.536 z M -38.64635,34.10988 v -50.688 h -17.184 v -11.904 h 48.576 v 11.904 h -17.184 v 50.688 z m 41.18398,0 v -62.592 h 22.56 q 6.624,0 12.096,1.824 5.472,1.728 8.736,6.048 3.264,4.224 3.264,11.6159997 0,7.2 -3.264,11.712 -3.264,4.512 -8.736,6.72 -5.472,2.1120003 -12.096,2.1120003 h -8.448 v 22.56 z m 14.112,-33.79200026 h 7.296 q 5.568,0 8.448,-2.30400004 2.976,-2.4 2.976,-7.008 0,-4.6079997 -2.976,-6.4319997 -2.88,-1.824 -8.448,-1.824 h -7.296 z m 19.776,33.79200026 -13.92,-26.2080003 9.792,-9.12 19.968,35.3280003 z m 18.72008,13.44 v -7.968 h 45.696 v 7.968 z m 46.272,-13.44 19.584,-62.592 h 16.896 l 19.68,62.592 h -14.976 l -8.16,-31.6800003 q -1.344,-4.704 -2.592,-9.984 -1.248,-5.2799997 -2.496,-10.1759997 h -0.384 q -1.056,4.896 -2.304,10.1759997 -1.248,5.28 -2.592,9.984 l -8.256,31.6800003 z m 12.864,-14.88 V 8.1898797 h 30.144 V 19.22988 Z m -515.82141,134.88 v -8.736 q 7.68,-6.816 13.632,-12.768 6.048,-5.952 9.408,-11.04 3.456,-5.088 3.456,-9.312 0,-4.512 -2.304,-6.816 -2.304,-2.4 -6.336,-2.4 -3.264,0 -5.952,1.92 -2.592,1.824 -4.896,4.32 l -7.392,-7.296 q 4.416,-4.992 9.024,-7.488 4.704,-2.496 11.136,-2.496 5.952,0 10.464,2.4 4.608,2.4 7.104,6.72 2.592,4.32 2.592,10.176 0,5.472 -2.976,10.752 -2.88,5.184 -7.68,10.368 -4.8,5.184 -10.176,10.56 2.304,-0.288 5.184,-0.48 2.88,-0.288 4.992,-0.288 h 13.632 v 11.904 z m 50.68799,0 v -8.736 q 7.68,-6.816 13.632,-12.768 6.048,-5.952 9.408,-11.04 3.456,-5.088 3.456,-9.312 0,-4.512 -2.304,-6.816 -2.304,-2.4 -6.336,-2.4 -3.264,0 -5.952,1.92 -2.592,1.824 -4.896,4.32 l -7.392,-7.296 q 4.416,-4.992 9.024,-7.488 4.704,-2.496 11.136,-2.496 5.952,0 10.464,2.4 4.608,2.4 7.104,6.72 2.592,4.32 2.592,10.176 0,5.472 -2.976,10.752 -2.88,5.184 -7.68,10.368 -4.8,5.184 -10.176,10.56 2.304,-0.288 5.184,-0.48 2.88,-0.288 4.992,-0.288 h 13.632 v 11.904 z m 75.35999,0 v -35.232 q 0,-2.88 0.192,-6.816 0.288,-3.936 0.384,-6.816 h -0.384 q -1.152,2.496 -2.4,5.088 -1.248,2.496 -2.592,5.184 l -8.064,13.248 h 33.024 v 10.752 h -46.56 v -9.696 l 22.272,-36.672 h 17.28 v 60.96 z m 53.66398,1.152 q -3.168,0 -6.336,-1.536 -3.168,-1.632 -6.048,-4.704 h -0.384 l -1.152,5.088 h -11.04 v -67.296 h 14.112 v 16.512 l -0.384,7.296 q 2.688,-2.496 5.952,-3.84 3.264,-1.44 6.624,-1.44 5.76,0 9.984,2.976 4.224,2.976 6.432,8.448 2.304,5.376 2.304,12.672 0,8.16 -2.88,14.016 -2.88,5.76 -7.488,8.832 -4.512,2.976 -9.696,2.976 z m -3.264,-11.52 q 2.4,0 4.416,-1.44 2.112,-1.44 3.264,-4.512 1.152,-3.168 1.152,-8.064 0,-4.32 -0.96,-7.104 -0.864,-2.88 -2.688,-4.32 -1.824,-1.44 -4.608,-1.44 -2.112,0 -4.128,1.056 -1.92,0.96 -4.032,3.264 v 19.488 q 1.824,1.632 3.84,2.4 2.016,0.672 3.744,0.672 z m -164.49601,-109.632 v -50.688 h -17.184 v -11.904 h 48.576 v 11.904 h -17.184 v 50.688 z m 41.18398,0 v -62.592 h 22.56 q 6.624,0 12.096,1.824 5.472,1.728 8.736,6.048 3.264,4.224 3.264,11.6159997 0,7.2 -3.264,11.712 -3.264,4.512 -8.736,6.72 -5.472,2.1120003 -12.096,2.1120003 h -8.448 v 22.56 z m 14.112,-33.79200026 h 7.296 q 5.568,0 8.448,-2.30400004 2.976,-2.4 2.976,-7.008 0,-4.6079997 -2.976,-6.4319997 -2.88,-1.824 -8.448,-1.824 h -7.296 z m 19.776,33.79200026 -13.92,-26.2080003 9.792,-9.12 19.968,35.3280003 z m 18.72008,13.44 v -7.968 h 45.696 v 7.968 z m 46.272,-13.44 19.584,-62.592 h 16.896 l 19.68,62.592 h -14.976 l -8.16,-31.6800003 q -1.344,-4.704 -2.592,-9.984 -1.248,-5.2799997 -2.496,-10.1759997 h -0.384 q -1.056,4.896 -2.304,10.1759997 -1.248,5.28 -2.592,9.984 l -8.256,31.6800003 z m 12.864,-14.88 V 8.1898797 h 30.144 V 19.22988 Z m -453.88063,292.94386 v -5.824 q 5.12,-4.544 9.088,-8.512 4.032,-3.968 6.272,-7.36 2.304,-3.392 2.304,-6.208 0,-3.008 -1.536,-4.544 -1.536,-1.6 -4.224,-1.6 -2.176,0 -3.968,1.28 -1.728,1.216 -3.264,2.88 l -4.928,-4.864 q 2.944,-3.328 6.016,-4.992 3.136,-1.664 7.424,-1.664 3.968,0 6.976,1.6 3.072,1.6 4.736,4.48 1.728,2.88 1.728,6.784 0,3.648 -1.984,7.168 -1.92,3.456 -5.12,6.912 -3.2,3.456 -6.784,7.04 1.536,-0.192 3.456,-0.32 1.92,-0.192 3.328,-0.192 h 9.088 v 7.936 z m 33.79199,0 v -5.824 q 5.12,-4.544 9.088,-8.512 4.032,-3.968 6.272,-7.36 2.304,-3.392 2.304,-6.208 0,-3.008 -1.536,-4.544 -1.536,-1.6 -4.224,-1.6 -2.176,0 -3.968,1.28 -1.728,1.216 -3.264,2.88 l -4.928,-4.864 q 2.944,-3.328 6.016,-4.992 3.136,-1.664 7.424,-1.664 3.968,0 6.976,1.6 3.072,1.6 4.736,4.48 1.728,2.88 1.728,6.784 0,3.648 -1.984,7.168 -1.92,3.456 -5.12,6.912 -3.2,3.456 -6.784,7.04 1.536,-0.192 3.456,-0.32 1.92,-0.192 3.328,-0.192 h 9.088 v 7.936 z m 50.23999,0 v -23.488 q 0,-1.92 0.128,-4.544 0.192,-2.624 0.256,-4.544 h -0.256 q -0.768,1.664 -1.6,3.392 -0.832,1.664 -1.728,3.456 l -5.376,8.832 h 22.016 v 7.168 h -31.04 v -6.464 l 14.848,-24.448 h 11.52 v 40.64 z m 27.13599,0.768 q -2.88,0 -5.056,-1.28 -2.112,-1.28 -3.264,-3.456 -1.152,-2.176 -1.152,-4.864 0,-5.12 4.224,-7.872 4.224,-2.816 13.632,-3.776 -0.064,-1.408 -0.64,-2.368 -0.512,-1.024 -1.6,-1.536 -1.088,-0.576 -2.752,-0.576 -1.984,0 -4.032,0.704 -2.048,0.704 -4.416,2.048 l -3.328,-6.144 q 2.048,-1.28 4.224,-2.176 2.176,-0.96 4.48,-1.472 2.368,-0.512 4.864,-0.512 4.096,0 6.848,1.6 2.816,1.536 4.288,4.736 1.472,3.136 1.472,8.064 v 18.112 h -7.68 l -0.64,-3.264 h -0.256 q -2.048,1.792 -4.288,2.944 -2.24,1.088 -4.928,1.088 z m 3.136,-7.36 q 1.6,0 2.816,-0.704 1.216,-0.704 2.432,-1.92 v -5.376 q -3.328,0.448 -5.312,1.152 -1.92,0.704 -2.752,1.728 -0.768,0.96 -0.768,2.176 0,1.472 0.96,2.24 1.024,0.704 2.624,0.704 z m -107.80799,-73.408 v -33.792 h -11.456 v -7.936 h 32.384 v 7.936 h -11.456 v 33.792 z m 27.45599,0 v -41.728 h 15.04 q 4.416,0 8.064,1.216 3.648,1.152 5.824,4.032 2.176,2.816 2.176,7.744 0,4.8 -2.176,7.808 -2.176,3.008 -5.824,4.48 -3.648,1.408 -8.064,1.408 h -5.632 v 15.04 z m 9.408,-22.528 h 4.864 q 3.712,0 5.632,-1.536 1.984,-1.6 1.984,-4.672 0,-3.072 -1.984,-4.288 -1.92,-1.216 -5.632,-1.216 h -4.864 z m 13.184,22.528 -9.28,-17.472 6.528,-6.08 13.312,23.552 z m 12.48005,8.96 v -5.312 h 30.464 v 5.312 z m 30.848,-8.96 13.056,-41.728 h 11.264 l 13.12,41.728 h -9.984 l -5.44,-21.12 q -0.896,-3.136 -1.728,-6.656 -0.832,-3.52 -1.664,-6.784 h -0.256 q -0.704,3.264 -1.536,6.784 -0.832,3.52 -1.728,6.656 l -5.504,21.12 z m 8.576,-9.92 v -7.36 h 20.096 v 7.36 z m -386.54941,-98.3838 v -5.824 q 5.12,-4.544 9.088,-8.512 4.032,-3.968 6.272,-7.36 2.304,-3.391996 2.304,-6.207996 0,-3.008 -1.536,-4.544 -1.536,-1.6 -4.224,-1.6 -2.176,0 -3.968,1.28 -1.728,1.216 -3.264,2.88 l -4.928,-4.864 q 2.944,-3.328 6.016,-4.992 3.136,-1.664 7.424,-1.664 3.968,0 6.976,1.6 3.072,1.6 4.736,4.48 1.728,2.88 1.728,6.784 0,3.648 -1.984,7.167996 -1.92,3.456 -5.12,6.912 -3.2,3.456 -6.784,7.04 1.536,-0.192 3.456,-0.32 1.92,-0.192 3.328,-0.192 h 9.088 v 7.936 z m 33.792,0 v -5.824 q 5.12,-4.544 9.088,-8.512 4.032,-3.968 6.272,-7.36 2.304,-3.391996 2.304,-6.207996 0,-3.008 -1.536,-4.544 -1.536,-1.6 -4.224,-1.6 -2.176,0 -3.968,1.28 -1.728,1.216 -3.264,2.88 l -4.928,-4.864 q 2.944,-3.328 6.016,-4.992 3.136,-1.664 7.424,-1.664 3.968,0 6.976,1.6 3.072,1.6 4.736,4.48 1.728,2.88 1.728,6.784 0,3.648 -1.984,7.167996 -1.92,3.456 -5.12,6.912 -3.2,3.456 -6.784,7.04 1.536,-0.192 3.456,-0.32 1.92,-0.192 3.328,-0.192 h 9.088 v 7.936 z m 46.97599,0.768 q -3.264,0 -5.952,-0.768 -2.624,-0.704 -4.672,-1.984 -2.048,-1.28 -3.52,-3.008 l 4.352,-5.952 q 1.856,1.792 4.096,2.944 2.24,1.152 4.8,1.152 2.944,0 4.736,-1.216 1.856,-1.28 1.856,-3.584 0,-1.792 -0.896,-3.072 -0.896,-1.344 -3.264,-2.048 -2.304,-0.704 -6.784,-0.704 v -6.655996 q 3.648,0 5.76,-0.704 2.112,-0.704 2.944,-1.92 0.896,-1.216 0.896,-2.816 0,-2.176 -1.344,-3.328 -1.28,-1.152 -3.648,-1.152 -2.176,0 -3.968,0.96 -1.728,0.896 -3.648,2.624 l -4.736,-5.76 q 2.816,-2.432 5.952,-3.776 3.136,-1.408 6.848,-1.408 4.16,0 7.296,1.344 3.2,1.28 4.928,3.776 1.792,2.432 1.792,6.016 0,3.136 -1.792,5.376 -1.728,2.239996 -4.992,3.647996 v 0.256 q 2.304,0.704 4.16,2.048 1.856,1.28 2.88,3.264 1.024,1.984 1.024,4.608 0,3.776 -2.112,6.464 -2.048,2.624 -5.504,4.032 -3.392,1.344 -7.488,1.344 z m 33.72799,0 q -5.888,0 -9.472,-4.416 -3.52,-4.48 -3.52,-12.224 0,-5.184 1.856,-8.895996 1.92,-3.712 4.928,-5.696 3.072,-2.048 6.4,-2.048 2.624,0 4.416,0.896 1.792,0.896 3.392,2.432 l -0.384,-4.864 v -10.816 h 9.408 v 44.863996 h -7.68 l -0.64,-3.136 h -0.256 q -1.664,1.664 -3.904,2.816 -2.24,1.088 -4.544,1.088 z m 2.432,-7.68 q 1.536,0 2.816,-0.64 1.28,-0.64 2.368,-2.24 v -12.992 q -1.216,-1.151996 -2.56,-1.599996 -1.344,-0.448 -2.688,-0.448 -1.536,0 -2.816,0.96 -1.28,0.959996 -2.112,2.943996 -0.768,1.92 -0.768,4.928 0,4.672 1.536,6.912 1.536,2.176 4.224,2.176 z M -960.67374,43.869944 v -33.792 h -11.456 v -7.936 h 32.384 v 7.936 h -11.456 v 33.792 z m 27.45599,0 v -41.728 h 15.04 q 4.416,0 8.064,1.216 3.648,1.152 5.824,4.032 2.176,2.816 2.176,7.744 0,4.8 -2.176,7.808 -2.176,3.008 -5.824,4.48 -3.648,1.408 -8.064,1.408 h -5.632 v 15.04 z m 9.408,-22.528 h 4.864 q 3.712,0 5.632,-1.536 1.984,-1.6 1.984,-4.672 0,-3.072 -1.984,-4.288 -1.92,-1.216 -5.632,-1.216 h -4.864 z m 13.184,22.528 -9.28,-17.472 6.528,-6.08 13.312,23.552 z m 12.48005,8.96 v -5.312 h 30.464 v 5.312 z m 30.848,-8.96 13.056,-41.728 h 11.264 l 13.12,41.728 h -9.984 l -5.44,-21.12 q -0.896,-3.136 -1.728,-6.656 -0.832,-3.52 -1.664,-6.784 h -0.256 q -0.704,3.264 -1.536,6.784 -0.832,3.52 -1.728,6.656 l -5.504,21.12 z m 8.576,-9.92 v -7.36 h 20.096 v 7.36 z m -458.4481,199.029136 v -8.736 q 7.68,-6.816 13.632,-12.768 6.048,-5.952 9.408,-11.04 3.456,-5.088 3.456,-9.312 0,-4.512 -2.304,-6.816 -2.304,-2.4 -6.336,-2.4 -3.264,0 -5.952,1.92 -2.592,1.824 -4.896,4.32 l -7.392,-7.296 q 4.416,-4.992 9.024,-7.488 4.704,-2.496 11.136,-2.496 5.952,0 10.464,2.4 4.608,2.4 7.104,6.72 2.592,4.32 2.592,10.176 0,5.472 -2.976,10.752 -2.88,5.184 -7.68,10.368 -4.8,5.184 -10.176,10.56 2.304,-0.288 5.184,-0.48 2.88,-0.288 4.992,-0.288 h 13.632 v 11.904 z m 50.688,0 v -8.736 q 7.68,-6.816 13.632,-12.768 6.048,-5.952 9.408,-11.04 3.456,-5.088 3.456,-9.312 0,-4.512 -2.304,-6.816 -2.304,-2.4 -6.336,-2.4 -3.264,0 -5.952,1.92 -2.592,1.824 -4.896,4.32 l -7.392,-7.296 q 4.416,-4.992 9.024,-7.488 4.704,-2.496 11.136,-2.496 5.952,0 10.464,2.4 4.608,2.4 7.104,6.72 2.592,4.32 2.592,10.176 0,5.472 -2.976,10.752 -2.88,5.184 -7.68,10.368 -4.8,5.184 -10.176,10.56 2.304,-0.288 5.184,-0.48 2.88,-0.288 4.992,-0.288 h 13.632 v 11.904 z m 70.4639,1.152 q -4.896,0 -8.928,-1.152 -3.936,-1.056 -7.008,-2.976 -3.072,-1.92 -5.28,-4.512 l 6.528,-8.928 q 2.784,2.688 6.144,4.416 3.36,1.728 7.2,1.728 4.416,0 7.104,-1.824 2.784,-1.92 2.784,-5.376 0,-2.688 -1.344,-4.608 -1.344,-2.016 -4.896,-3.072 -3.456,-1.056 -10.176,-1.056 v -9.984 q 5.472,0 8.64,-1.056 3.168,-1.056 4.416,-2.88 1.344,-1.824 1.344,-4.224 0,-3.264 -2.016,-4.992 -1.92,-1.728 -5.472,-1.728 -3.264,0 -5.952,1.44 -2.592,1.344 -5.472,3.936 l -7.104,-8.64 q 4.224,-3.648 8.928,-5.664 4.704,-2.112 10.272,-2.112 6.24,0 10.944,2.016 4.8,1.92 7.392,5.664 2.688,3.648 2.688,9.024 0,4.704 -2.688,8.064 -2.592,3.36 -7.488,5.472 v 0.384 q 3.456,1.056 6.24,3.072 2.784,1.92 4.32,4.896 1.536,2.976 1.536,6.912 0,5.664 -3.168,9.696 -3.072,3.936 -8.256,6.048 -5.088,2.016 -11.232,2.016 z m 54.624,0 q -6.72,0 -12.192,-2.976 -5.376,-2.976 -8.544,-8.544 -3.072,-5.568 -3.072,-13.44 0,-7.872 3.456,-13.44 3.456,-5.568 9.12,-8.544 5.664,-2.976 12.192,-2.976 4.416,0 7.872,1.44 3.552,1.344 6.048,3.648 l -6.624,8.736 q -1.248,-1.056 -2.88,-1.728 -1.536,-0.672 -3.552,-0.672 -3.36,0 -5.856,1.632 -2.496,1.632 -3.936,4.704 -1.44,3.072 -1.44,7.2 0,4.128 1.44,7.2 1.44,3.072 3.84,4.704 2.496,1.632 5.568,1.632 2.4,0 4.512,-0.864 2.112,-0.864 3.936,-2.208 l 5.568,8.64 q -2.976,2.688 -7.008,4.32 -4.032,1.536 -8.448,1.536 z m -168.864,-121.152 v -50.688 h -17.184 v -11.904 h 48.576 v 11.904 h -17.184 v 50.688 z m 41.184,0 v -62.592 h 22.56 q 6.624,0 12.096,1.824 5.472,1.728 8.736,6.048 3.264,4.224 3.264,11.616 0,7.2 -3.264,11.712 -3.264,4.512 -8.736,6.72 -5.472,2.112 -12.096,2.112 h -8.448 v 22.56 z m 14.112,-33.792 h 7.296 q 5.568,0 8.448,-2.304 2.976,-2.4 2.976,-7.008 0,-4.608 -2.976,-6.432 -2.88,-1.824 -8.448,-1.824 h -7.296 z m 19.776,33.792 -13.92,-26.208 9.792,-9.12 19.968,35.328 z m 18.7201,13.44 v -7.968 h 45.696 v 7.968 z m 46.272,-13.44 19.584,-62.592 h 16.896 l 19.68,62.592 h -14.976 l -8.16,-31.68 q -1.344,-4.704 -2.592,-9.984 -1.248,-5.28 -2.496,-10.176 h -0.384 q -1.056,4.896 -2.304,10.176 -1.248,5.28 -2.592,9.984 l -8.256,31.68 z m 12.864,-14.88 v -11.04 h 30.144 v 11.04 z m -484.5257,104.64006 v -5.824 q 5.12,-4.544 9.088,-8.512 4.032,-3.968 6.272,-7.36 2.304,-3.392 2.304,-6.208 0,-3.008 -1.536,-4.544 -1.536,-1.6 -4.224,-1.6 -2.176,0 -3.968,1.28 -1.728,1.216 -3.264,2.88 l -4.928,-4.864 q 2.944,-3.328 6.016,-4.992 3.136,-1.664 7.424,-1.664 3.968,0 6.976,1.6 3.072,1.6 4.736,4.48 1.728,2.88 1.728,6.784 0,3.648 -1.984,7.168 -1.92,3.456 -5.12,6.912 -3.2,3.456 -6.784,7.04 1.536,-0.192 3.456,-0.32 1.92,-0.192 3.328,-0.192 h 9.088 v 7.936 z m 33.792,0 v -5.824 q 5.12,-4.544 9.088,-8.512 4.032,-3.968 6.272,-7.36 2.304,-3.392 2.304,-6.208 0,-3.008 -1.536,-4.544 -1.536,-1.6 -4.224,-1.6 -2.176,0 -3.968,1.28 -1.728,1.216 -3.264,2.88 l -4.928,-4.864 q 2.944,-3.328 6.016,-4.992 3.136,-1.664 7.424,-1.664 3.968,0 6.976,1.6 3.072,1.6 4.736,4.48 1.728,2.88 1.728,6.784 0,3.648 -1.984,7.168 -1.92,3.456 -5.12,6.912 -3.2,3.456 -6.784,7.04 1.536,-0.192 3.456,-0.32 1.92,-0.192 3.328,-0.192 h 9.088 v 7.936 z m 46.976,0.768 q -3.264,0 -5.952,-0.768 -2.624,-0.704 -4.672,-1.984 -2.048,-1.28 -3.52,-3.008 l 4.352,-5.952 q 1.856,1.792 4.096,2.944 2.24,1.152 4.8,1.152 2.944,0 4.736,-1.216 1.856,-1.28 1.856,-3.584 0,-1.792 -0.896,-3.072 -0.896,-1.344 -3.264,-2.048 -2.304,-0.704 -6.784,-0.704 v -6.656 q 3.648,0 5.76,-0.704 2.112,-0.704 2.944,-1.92 0.896,-1.216 0.896,-2.816 0,-2.176 -1.344,-3.328 -1.28,-1.152 -3.648,-1.152 -2.176,0 -3.968,0.96 -1.728,0.896 -3.648,2.624 l -4.736,-5.76 q 2.816,-2.432 5.952,-3.776 3.136,-1.408 6.848,-1.408 4.16,0 7.296,1.344 3.2,1.28 4.928,3.776 1.792,2.432 1.792,6.016 0,3.136 -1.792,5.376 -1.728,2.24 -4.992,3.648 v 0.256 q 2.304,0.704 4.16,2.048 1.856,1.28 2.88,3.264 1.024,1.984 1.024,4.608 0,3.776 -2.112,6.464 -2.048,2.624 -5.504,4.032 -3.392,1.344 -7.488,1.344 z m 39.04,0 q -2.112,0 -4.224,-1.024 -2.112,-1.088 -4.032,-3.136 h -0.256 l -0.768,3.392 h -7.36 v -44.864 h 9.408 v 11.008 l -0.256,4.864 q 1.792,-1.664 3.968,-2.56 2.176,-0.96 4.416,-0.96 3.84,0 6.656,1.984 2.816,1.984 4.288,5.632 1.536,3.584 1.536,8.448 0,5.44 -1.92,9.344 -1.92,3.84 -4.992,5.888 -3.008,1.984 -6.464,1.984 z m -2.176,-7.68 q 1.6,0 2.944,-0.96 1.408,-0.96 2.176,-3.008 0.768,-2.112 0.768,-5.376 0,-2.88 -0.64,-4.736 -0.576,-1.92 -1.792,-2.88 -1.216,-0.96 -3.072,-0.96 -1.408,0 -2.752,0.704 -1.28,0.64 -2.688,2.176 v 12.992 q 1.216,1.088 2.56,1.6 1.344,0.448 2.496,0.448 z m -109.664,-73.088 V 88.947144 h -11.456 v -7.936 h 32.384 v 7.936 h -11.456 v 33.791996 z m 27.4559,0 V 81.011144 h 15.04 q 4.416,0 8.064,1.216 3.648,1.152 5.824,4.032 2.176,2.816 2.176,7.744 0,4.8 -2.176,7.807996 -2.176,3.008 -5.824,4.48 -3.648,1.408 -8.064,1.408 h -5.632 v 15.04 z m 9.408,-22.528 h 4.864 q 3.712,0 5.632,-1.535996 1.984,-1.6 1.984,-4.672 0,-3.072 -1.984,-4.288 -1.92,-1.216 -5.632,-1.216 h -4.864 z m 13.184,22.528 -9.28,-17.472 6.528,-6.079996 13.312,23.551996 z m 12.4801,8.96 v -5.312 h 30.464 v 5.312 z m 30.848,-8.96 13.056,-41.727996 h 11.264 l 13.12,41.727996 h -9.984 l -5.44,-21.12 q -0.896,-3.135996 -1.728,-6.655996 -0.832,-3.52 -1.664,-6.784 h -0.256 q -0.704,3.264 -1.536,6.784 -0.832,3.52 -1.728,6.655996 l -5.504,21.12 z m 8.576,-9.92 v -7.36 h 20.096 v 7.36 z m -392.5115,11.0507 v -5.824 q 5.12,-4.544 9.088,-8.512 4.032,-3.968 6.272,-7.36 2.304,-3.391996 2.304,-6.207996 0,-3.008 -1.536,-4.544 -1.536,-1.6 -4.224,-1.6 -2.176,0 -3.968,1.28 -1.728,1.216 -3.264,2.88 l -4.928,-4.864 q 2.944,-3.328 6.016,-4.992 3.136,-1.664 7.424,-1.664 3.968,0 6.976,1.6 3.072,1.6 4.736,4.48 1.728,2.88 1.728,6.784 0,3.648 -1.984,7.167996 -1.92,3.456 -5.12,6.912 -3.2,3.456 -6.784,7.04 1.536,-0.192 3.456,-0.32 1.92,-0.192 3.328,-0.192 h 9.088 v 7.936 z m 33.792,0 v -5.824 q 5.12,-4.544 9.088,-8.512 4.032,-3.968 6.272,-7.36 2.304,-3.391996 2.304,-6.207996 0,-3.008 -1.536,-4.544 -1.536,-1.6 -4.224,-1.6 -2.176,0 -3.968,1.28 -1.728,1.216 -3.264,2.88 l -4.928,-4.864 q 2.944,-3.328 6.016,-4.992 3.136,-1.664 7.424,-1.664 3.968,0 6.976,1.6 3.072,1.6 4.736,4.48 1.728,2.88 1.728,6.784 0,3.648 -1.984,7.167996 -1.92,3.456 -5.12,6.912 -3.2,3.456 -6.784,7.04 1.536,-0.192 3.456,-0.32 1.92,-0.192 3.328,-0.192 h 9.088 v 7.936 z m 46.976,0.768 q -3.264,0 -5.952,-0.768 -2.624,-0.704 -4.672,-1.984 -2.048,-1.28 -3.52,-3.008 l 4.352,-5.952 q 1.856,1.792 4.096,2.944 2.24,1.152 4.8,1.152 2.944,0 4.736,-1.216 1.856,-1.28 1.856,-3.584 0,-1.792 -0.896,-3.072 -0.896,-1.344 -3.264,-2.048 -2.304,-0.704 -6.784,-0.704 v -6.655996 q 3.648,0 5.76,-0.704 2.112,-0.704 2.944,-1.92 0.896,-1.216 0.896,-2.816 0,-2.176 -1.344,-3.328 -1.28,-1.152 -3.648,-1.152 -2.176,0 -3.968,0.96 -1.728,0.896 -3.648,2.624 l -4.736,-5.76 q 2.816,-2.432 5.952,-3.776 3.136,-1.408 6.848,-1.408 4.16,0 7.296,1.344 3.2,1.28 4.928,3.776 1.792,2.432 1.792,6.016 0,3.136 -1.792,5.376 -1.728,2.239996 -4.992,3.647996 v 0.256 q 2.304,0.704 4.16,2.048 1.856,1.28 2.88,3.264 1.024,1.984 1.024,4.608 0,3.776 -2.112,6.464 -2.048,2.624 -5.504,4.032 -3.392,1.344 -7.488,1.344 z m 30.4,0 q -2.8801,0 -5.0561,-1.28 -2.112,-1.28 -3.2639,-3.456 -1.152,-2.176 -1.152,-4.864 0,-5.12 4.2239,-7.872 4.224,-2.816 13.6321,-3.776 -0.064,-1.408 -0.6401,-2.368 -0.512,-1.023996 -1.5999,-1.535996 -1.0881,-0.576 -2.752,-0.576 -1.9841,0 -4.0321,0.704 -2.048,0.703996 -4.416,2.047996 l -3.3279,-6.143996 q 2.048,-1.28 4.2239,-2.176 2.176,-0.96 4.48,-1.472 2.368,-0.512 4.864,-0.512 4.0961,0 6.848,1.6 2.816,1.536 4.288,4.736 1.472,3.135996 1.472,8.063996 v 18.112 h -7.68 l -0.6399,-3.264 h -0.256 q -2.0481,1.792 -4.288,2.944 -2.2401,1.088 -4.928,1.088 z m 3.1359,-7.36 q 1.6001,0 2.8161,-0.704 1.2159,-0.704 2.432,-1.92 v -5.376 q -3.328,0.448 -5.3121,1.152 -1.92,0.704 -2.752,1.728 -0.768,0.96 -0.768,2.176 0,1.472 0.96,2.24 1.024,0.704 2.624,0.704 z M -1917.951,43.869844 v -33.792 h -11.456 v -7.936 h 32.384 v 7.936 h -11.456 v 33.792 z m 27.4559,0 v -41.728 h 15.04 q 4.4161,0 8.064,1.216 3.648,1.152 5.8241,4.032 2.1759,2.816 2.1759,7.744 0,4.8 -2.1759,7.808 -2.1761,3.008 -5.8241,4.48 -3.6479,1.408 -8.064,1.408 h -5.632 v 15.04 z m 9.408,-22.528 h 4.864 q 3.712,0 5.632,-1.536 1.984,-1.6 1.984,-4.672 0,-3.072 -1.984,-4.288 -1.92,-1.216 -5.632,-1.216 h -4.864 z m 13.1841,22.528 -9.28,-17.472 6.528,-6.08 13.3119,23.552 z m 12.48,8.96 v -5.312 h 30.464 v 5.312 z m 30.848,-8.96 13.056,-41.728 h 11.264 l 13.12,41.728 h -9.984 l -5.44,-21.12 q -0.896,-3.136 -1.728,-6.656 -0.832,-3.52 -1.664,-6.784 h -0.256 q -0.704,3.264 -1.536,6.784 -0.832,3.52 -1.728,6.656 l -5.504,21.12 z m 8.576,-9.92 v -7.36 h 20.096 v 7.36 z m -323.5395,-39.3336 v -5.824 q 5.12,-4.544 9.088,-8.512 4.032,-3.968 6.272,-7.36 2.304,-3.392 2.304,-6.208 0,-3.008 -1.536,-4.544 -1.536,-1.6 -4.224,-1.6 -2.176,0 -3.968,1.28 -1.728,1.216 -3.264,2.88 l -4.928,-4.864 q 2.944,-3.328 6.016,-4.992 3.136,-1.664 7.424,-1.664 3.968,0 6.976,1.6 3.072,1.6 4.736,4.48 1.728,2.88 1.728,6.784 0,3.648 -1.984,7.168 -1.92,3.456 -5.12,6.912 -3.2,3.456 -6.784,7.04 1.536,-0.192 3.456,-0.32 1.92,-0.192 3.328,-0.192 h 9.088 v 7.936 z m 33.792,0 v -5.824 q 5.12,-4.544 9.088,-8.512 4.032,-3.968 6.272,-7.36 2.304,-3.392 2.304,-6.208 0,-3.008 -1.536,-4.544 -1.536,-1.6 -4.224,-1.6 -2.176,0 -3.968,1.28 -1.728,1.216 -3.264,2.88 l -4.928,-4.864 q 2.944,-3.328 6.016,-4.992 3.136,-1.664 7.424,-1.664 3.968,0 6.976,1.6 3.072,1.6 4.736,4.48 1.728,2.88 1.728,6.784 0,3.648 -1.984,7.168 -1.92,3.456 -5.12,6.912 -3.2,3.456 -6.784,7.04 1.536,-0.192 3.456,-0.32 1.92,-0.192 3.328,-0.192 h 9.088 v 7.936 z m 46.976,0.768 q -3.264,0 -5.952,-0.768 -2.624,-0.704 -4.672,-1.984 -2.048,-1.28 -3.52,-3.008 l 4.352,-5.952 q 1.856,1.792 4.096,2.944 2.24,1.152 4.8,1.152 2.944,0 4.736,-1.216 1.856,-1.28 1.856,-3.584 0,-1.792 -0.896,-3.072 -0.896,-1.344 -3.264,-2.048 -2.304,-0.704 -6.784,-0.704 v -6.656 q 3.648,0 5.76,-0.704 2.112,-0.704 2.944,-1.92 0.896,-1.216 0.896,-2.816 0,-2.176 -1.344,-3.328 -1.28,-1.152 -3.648,-1.152 -2.176,0 -3.968,0.96 -1.728,0.896 -3.648,2.624 l -4.736,-5.76 q 2.816,-2.432 5.952,-3.776 3.136,-1.408 6.848,-1.408 4.16,0 7.296,1.344 3.2,1.28 4.928,3.776 1.792,2.432 1.792,6.016 0,3.136 -1.792,5.376 -1.728,2.24 -4.992,3.648 v 0.256 q 2.304,0.704 4.16,2.048 1.856,1.28 2.88,3.264 1.024,1.984 1.024,4.608 0,3.776 -2.112,6.464 -2.048,2.624 -5.504,4.032 -3.392,1.344 -7.488,1.344 z m -91.136,-80.768 v -33.792004 h -11.456 v -7.936 h 32.384 v 7.936 h -11.456 v 33.792004 z m 27.4559,0 v -41.728004 h 15.04 q 4.4161,0 8.064,1.216 3.648,1.152 5.824,4.032 2.176,2.816 2.176,7.744 0,4.8 -2.176,7.808 -2.176,3.008 -5.824,4.48 -3.6479,1.408 -8.064,1.408 h -5.632 v 15.040004 z m 9.408,-22.528004 h 4.864 q 3.712,0 5.632,-1.536 1.984,-1.6 1.984,-4.672 0,-3.072 -1.984,-4.288 -1.92,-1.216 -5.632,-1.216 h -4.864 z m 13.184,22.528004 -9.28,-17.472004 6.5281,-6.08 13.3119,23.552004 z m 12.4801,8.96 v -5.312 h 30.464 v 5.312 z m 30.848,-8.96 13.056,-41.728004 h 11.264 l 13.12,41.728004 h -9.984 l -5.44,-21.120004 q -0.896,-3.136 -1.728,-6.656 -0.832,-3.52 -1.664,-6.784 h -0.256 q -0.704,3.264 -1.536,6.784 -0.832,3.52 -1.728,6.656 l -5.504,21.120004 z m 8.576,-9.92 v -7.360004 h 20.096 v 7.360004 z m -406.4026,626.022336 v -8.736 q 7.68,-6.816 13.632,-12.768 6.048,-5.952 9.408,-11.04 3.456,-5.088 3.456,-9.312 0,-4.512 -2.304,-6.816 -2.304,-2.4 -6.3359,-2.4 -3.2641,0 -5.9521,1.92 -2.592,1.824 -4.896,4.32 l -7.392,-7.296 q 4.416,-4.992 9.024,-7.488 4.704,-2.496 11.136,-2.496 5.952,0 10.4641,2.4 4.6079,2.4 7.1039,6.72 2.592,4.32 2.592,10.176 0,5.472 -2.976,10.752 -2.88,5.184 -7.6799,10.368 -4.8001,5.184 -10.1761,10.56 2.304,-0.288 5.184,-0.48 2.88,-0.288 4.9921,-0.288 h 13.6319 v 11.904 z m 50.688,0 v -8.736 q 7.68,-6.816 13.632,-12.768 6.048,-5.952 9.408,-11.04 3.456,-5.088 3.456,-9.312 0,-4.512 -2.304,-6.816 -2.304,-2.4 -6.336,-2.4 -3.264,0 -5.952,1.92 -2.592,1.824 -4.896,4.32 l -7.392,-7.296 q 4.416,-4.992 9.024,-7.488 4.704,-2.496 11.136,-2.496 5.952,0 10.464,2.4 4.608,2.4 7.104,6.72 2.592,4.32 2.592,10.176 0,5.472 -2.976,10.752 -2.88,5.184 -7.68,10.368 -4.8,5.184 -10.176,10.56 2.304,-0.288 5.184,-0.48 2.88,-0.288 4.992,-0.288 h 13.632 v 11.904 z m 50.688,0 v -8.736 q 7.68,-6.816 13.632,-12.768 6.048,-5.952 9.408,-11.04 3.456,-5.088 3.456,-9.312 0,-4.512 -2.304,-6.816 -2.304,-2.4 -6.336,-2.4 -3.264,0 -5.952,1.92 -2.592,1.824 -4.896,4.32 l -7.392,-7.296 q 4.416,-4.992 9.024,-7.488 4.704,-2.496 11.136,-2.496 5.952,0 10.464,2.4 4.608,2.4 7.104,6.72 2.592,4.32 2.592,10.176 0,5.472 -2.976,10.752 -2.88,5.184 -7.68,10.368 -4.8,5.184 -10.176,10.56 2.304,-0.288 5.184,-0.48 2.88,-0.288 4.992,-0.288 h 13.632 v 11.904 z m -116.928,-120 v -50.688 h -17.184 v -11.904 h 48.576 v 11.904 h -17.184 v 50.688 z m 41.184,0 v -62.592 h 22.56 q 6.624,0 12.096,1.824 5.472,1.728 8.736,6.048 3.264,4.224 3.264,11.616 0,7.2 -3.264,11.712 -3.264,4.512 -8.736,6.72 -5.472,2.112 -12.096,2.112 h -8.448 v 22.56 z m 14.112,-33.792 h 7.296 q 5.568,0 8.448,-2.304 2.976,-2.4 2.976,-7.008 0,-4.608 -2.976,-6.432 -2.88,-1.824 -8.448,-1.824 h -7.296 z m 19.776,33.792 -13.92,-26.208 9.792,-9.12 19.968,35.328 z m 18.7201,13.44 v -7.968 h 45.696 v 7.968 z m 46.272,-13.44 19.584,-62.592 h 16.896 l 19.68,62.592 h -14.976 l -8.16,-31.68 q -1.344,-4.704 -2.592,-9.984 -1.248,-5.28 -2.496,-10.176 h -0.384 q -1.056,4.896 -2.304,10.176 -1.248,5.28 -2.592,9.984 l -8.256,31.68 z m 12.864,-14.88 v -11.04 h 30.144 v 11.04 z m -484.6443,134.88 v -8.736 q 7.68,-6.816 13.632,-12.768 6.048,-5.952 9.408,-11.04 3.456,-5.088 3.456,-9.312 0,-4.512 -2.304,-6.816 -2.304,-2.4 -6.336,-2.4 -3.264,0 -5.952,1.92 -2.592,1.824 -4.896,4.32 l -7.392,-7.296 q 4.416,-4.992 9.024,-7.488 4.704,-2.496 11.136,-2.496 5.952,0 10.464,2.4 4.608,2.4 7.104,6.72 2.592,4.32 2.592,10.176 0,5.472 -2.976,10.752 -2.88,5.184 -7.68,10.368 -4.8,5.184 -10.176,10.56 2.304,-0.288 5.184,-0.48 2.88,-0.288 4.992,-0.288 h 13.632 v 11.904 z m 50.688,0 v -8.736 q 7.68,-6.816 13.632,-12.768 6.048,-5.952 9.408,-11.04 3.456,-5.088 3.456,-9.312 0,-4.512 -2.304,-6.816 -2.304,-2.4 -6.336,-2.4 -3.264,0 -5.952,1.92 -2.592,1.824 -4.896,4.32 l -7.392,-7.296 q 4.416,-4.992 9.024,-7.488 4.704,-2.496 11.136,-2.496 5.952,0 10.464,2.4 4.608,2.4 7.104,6.72 2.592,4.32 2.592,10.176 0,5.472 -2.976,10.752 -2.88,5.184 -7.68,10.368 -4.8,5.184 -10.176,10.56 2.304,-0.288 5.184,-0.48 2.88,-0.288 4.992,-0.288 h 13.632 v 11.904 z m 53.856,0 v -11.424 h 13.248 v -35.232 h -11.424 v -8.736 q 4.992,-0.96 8.448,-2.304 3.552,-1.344 6.72,-3.264 h 10.368 v 49.536 h 11.424 v 11.424 z m -120.0961,-120 v -50.688 h -17.184 v -11.904 h 48.576 v 11.904 h -17.184 v 50.688 z m 41.184,0 v -62.592 h 22.56 q 6.624,0 12.096,1.824 5.472,1.728 8.736,6.048 3.264,4.224 3.264,11.616 0,7.2 -3.264,11.712 -3.264,4.512 -8.736,6.72 -5.472,2.112 -12.096,2.112 h -8.448 v 22.56 z m 14.112,-33.792 h 7.296 q 5.568,0 8.448,-2.304 2.976,-2.4 2.976,-7.008 0,-4.608 -2.976,-6.432 -2.88,-1.824 -8.448,-1.824 h -7.296 z m 19.776,33.792 -13.92,-26.208 9.792,-9.12 19.968,35.328 z m 18.7201,13.44 v -7.968 h 45.696 v 7.968 z m 46.272,-13.44 19.584,-62.592 h 16.896 l 19.68,62.592 h -14.976 l -8.16,-31.68 q -1.344,-4.704 -2.592,-9.984 -1.248,-5.28 -2.496,-10.176 h -0.384 q -1.056,4.896 -2.304,10.176 -1.248,5.28 -2.592,9.984 l -8.256,31.68 z m 12.864,-14.88 v -11.04 h 30.144 v 11.04 z m -503.2274,-266.64074 v -5.824 q 5.12,-4.544 9.088,-8.512 4.032,-3.968 6.272,-7.36 2.304,-3.392 2.304,-6.208 0,-3.007996 -1.536,-4.543996 -1.536,-1.6 -4.224,-1.6 -2.176,0 -3.968,1.28 -1.728,1.216 -3.264,2.88 l -4.928,-4.864 q 2.944,-3.328 6.016,-4.992 3.136,-1.664 7.424,-1.664 3.968,0 6.976,1.6 3.072,1.6 4.736,4.48 1.728,2.88 1.728,6.783996 0,3.648 -1.984,7.168 -1.92,3.456 -5.12,6.912 -3.2,3.456 -6.784,7.04 1.536,-0.192 3.456,-0.32 1.92,-0.192 3.328,-0.192 h 9.088 v 7.936 z m 33.792,0 v -5.824 q 5.12,-4.544 9.088,-8.512 4.032,-3.968 6.272,-7.36 2.304,-3.392 2.304,-6.208 0,-3.007996 -1.536,-4.543996 -1.536,-1.6 -4.224,-1.6 -2.176,0 -3.968,1.28 -1.728,1.216 -3.264,2.88 l -4.928,-4.864 q 2.944,-3.328 6.016,-4.992 3.136,-1.664 7.424,-1.664 3.968,0 6.976,1.6 3.072,1.6 4.736,4.48 1.728,2.88 1.728,6.783996 0,3.648 -1.984,7.168 -1.92,3.456 -5.12,6.912 -3.2,3.456 -6.784,7.04 1.536,-0.192 3.456,-0.32 1.92,-0.192 3.328,-0.192 h 9.088 v 7.936 z m 48.32,0.768 q -6.528,0 -10.56,-5.44 -3.968,-5.44 -3.968,-15.808 0,-10.431996 3.968,-15.679996 4.032,-5.248 10.56,-5.248 6.528,0 10.496,5.312 4.032,5.248 4.032,15.615996 0,10.368 -4.032,15.808 -3.968,5.44 -10.496,5.44 z m 0,-7.296 q 1.6,0 2.88,-1.152 1.28,-1.216 1.984,-4.224 0.768,-3.072 0.768,-8.576 0,-5.568 -0.768,-8.512 -0.704,-2.943996 -1.984,-4.031996 -1.28,-1.088 -2.88,-1.088 -1.6,0 -2.88,1.088 -1.28,1.088 -2.048,4.031996 -0.704,2.944 -0.704,8.512 0,5.504 0.704,8.576 0.768,3.008 2.048,4.224 1.28,1.152 2.88,1.152 z m -92.4801,-73.471996 v -33.792 h -11.456 v -7.936 h 32.384 v 7.936 h -11.456 v 33.792 z m 27.456,0 v -41.728 h 15.04 q 4.416,0 8.064,1.216 3.648,1.152 5.824,4.032 2.176,2.816 2.176,7.744 0,4.8 -2.176,7.808 -2.176,3.008 -5.824,4.48 -3.648,1.408 -8.064,1.408 h -5.632 v 15.04 z m 9.408,-22.528 h 4.864 q 3.712,0 5.632,-1.536 1.984,-1.6 1.984,-4.672 0,-3.072 -1.984,-4.288 -1.92,-1.216 -5.632,-1.216 h -4.864 z m 13.184,22.528 -9.28,-17.472 6.528,-6.08 13.312,23.552 z m 12.4801,8.96 v -5.312 h 30.464 v 5.312 z m 30.848,-8.96 13.056,-41.728 h 11.264 l 13.12,41.728 h -9.984 l -5.44,-21.12 q -0.896,-3.136 -1.728,-6.656 -0.832,-3.52 -1.664,-6.784 h -0.256 q -0.704,3.264 -1.536,6.784 -0.832,3.52 -1.728,6.656 l -5.504,21.12 z m 8.576,-9.92 v -7.36 h 20.096 v 7.36 z m -116.736,460.624796 v -5.824 q 5.12,-4.544 9.088,-8.512 4.032,-3.968 6.272,-7.36 2.304,-3.392 2.304,-6.208 0,-3.008 -1.536,-4.544 -1.536,-1.6 -4.224,-1.6 -2.176,0 -3.968,1.28 -1.728,1.216 -3.264,2.88 l -4.928,-4.864 q 2.944,-3.328 6.016,-4.992 3.136,-1.664 7.424,-1.664 3.968,0 6.976,1.6 3.072,1.6 4.736,4.48 1.728,2.88 1.728,6.784 0,3.648 -1.984,7.168 -1.92,3.456 -5.12,6.912 -3.2,3.456 -6.784,7.04 1.536,-0.192 3.456,-0.32 1.92,-0.192 3.328,-0.192 h 9.088 v 7.936 z m 33.792,0 v -5.824 q 5.12,-4.544 9.088,-8.512 4.032,-3.968 6.272,-7.36 2.304,-3.392 2.304,-6.208 0,-3.008 -1.536,-4.544 -1.536,-1.6 -4.224,-1.6 -2.176,0 -3.968,1.28 -1.728,1.216 -3.264,2.88 l -4.928,-4.864 q 2.944,-3.328 6.016,-4.992 3.136,-1.664 7.424,-1.664 3.968,0 6.976,1.6 3.072,1.6 4.736,4.48 1.728,2.88 1.728,6.784 0,3.648 -1.984,7.168 -1.92,3.456 -5.12,6.912 -3.2,3.456 -6.784,7.04 1.536,-0.192 3.456,-0.32 1.92,-0.192 3.328,-0.192 h 9.088 v 7.936 z m 48.32,0.768 q -6.528,0 -10.56,-5.44 -3.968,-5.44 -3.968,-15.808 0,-10.432 3.968,-15.68 4.032,-5.248 10.56,-5.248 6.528,0 10.496,5.312 4.032,5.248 4.032,15.616 0,10.368 -4.032,15.808 -3.968,5.44 -10.496,5.44 z m 0,-7.296 q 1.6,0 2.88,-1.152 1.28,-1.216 1.984,-4.224 0.768,-3.072 0.768,-8.576 0,-5.568 -0.768,-8.512 -0.704,-2.944 -1.984,-4.032 -1.28,-1.088 -2.88,-1.088 -1.6,0 -2.88,1.088 -1.28,1.088 -2.048,4.032 -0.704,2.944 -0.704,8.512 0,5.504 0.704,8.576 0.768,3.008 2.048,4.224 1.28,1.152 2.88,1.152 z m 26.496,7.296 q -2.432,0 -4.096,-1.728 -1.6,-1.728 -1.6,-4.16 0,-2.56 1.6,-4.224 1.664,-1.728 4.096,-1.728 2.496,0 4.096,1.728 1.6,1.664 1.6,4.224 0,2.432 -1.6,4.16 -1.6,1.728 -4.096,1.728 z m 11.9679,-0.768 v -5.824 q 5.12,-4.544 9.088,-8.512 4.032,-3.968 6.272,-7.36 2.304,-3.392 2.304,-6.208 0,-3.008 -1.536,-4.544 -1.536,-1.6 -4.224,-1.6 -2.176,0 -3.968,1.28 -1.728,1.216 -3.264,2.88 l -4.928,-4.864 q 2.944,-3.328 6.016,-4.992 3.136,-1.664 7.424,-1.664 3.968,0 6.976,1.6 3.072,1.6 4.736,4.48 1.728,2.88 1.728,6.784 0,3.648 -1.984,7.168 -1.92,3.456 -5.12,6.912 -3.2,3.456 -6.784,7.04 1.536,-0.192 3.456,-0.32 1.92,-0.192 3.328,-0.192 h 9.088 v 7.936 z m -104.448,-80 v -33.792 h -11.456 v -7.936 h 32.384 v 7.936 h -11.456 v 33.792 z m 27.456,0 v -41.728 h 15.04 q 4.416,0 8.064,1.216 3.648,1.152 5.824,4.032 2.176,2.816 2.176,7.744 0,4.8 -2.176,7.808 -2.176,3.008 -5.824,4.48 -3.648,1.408 -8.064,1.408 h -5.632 v 15.04 z m 9.408,-22.528 h 4.864 q 3.712,0 5.632,-1.536 1.984,-1.6 1.984,-4.672 0,-3.072 -1.984,-4.288 -1.92,-1.216 -5.632,-1.216 h -4.864 z m 13.184,22.528 -9.28,-17.472 6.528,-6.08 13.312,23.552 z m 12.4801,8.96 v -5.312 h 30.464 v 5.312 z m 30.848,-8.96 13.056,-41.728 h 11.264 l 13.12,41.728 h -9.984 l -5.44,-21.12 q -0.896,-3.136 -1.728,-6.656 -0.832,-3.52 -1.664,-6.784 h -0.256 q -0.704,3.264 -1.536,6.784 -0.832,3.52 -1.728,6.656 l -5.504,21.12 z m 8.576,-9.92 v -7.36 h 20.096 v 7.36 z M 1228.3459,244.50159 v -17.472 q 15.36,-13.632 27.264,-25.536 12.096,-11.904 18.816,-22.08 6.912,-10.176 6.912,-18.624 0,-9.024 -4.608,-13.632 -4.608,-4.8 -12.672,-4.8 -6.528,0 -11.904,3.84 -5.184,3.648 -9.792,8.64 l -14.784,-14.592 q 8.832,-9.984 18.048,-14.976 9.408,-4.992 22.272,-4.992 11.904,0 20.928,4.8 9.216,4.8 14.208,13.44 5.184,8.64 5.184,20.352 0,10.944 -5.952,21.504 -5.76,10.368 -15.36,20.736 -9.6,10.368 -20.352,21.12 4.608,-0.576 10.368,-0.96 5.76,-0.576 9.984,-0.576 h 27.264 v 23.808 z m 101.376,0 v -17.472 q 15.36,-13.632 27.264,-25.536 12.096,-11.904 18.816,-22.08 6.912,-10.176 6.912,-18.624 0,-9.024 -4.608,-13.632 -4.608,-4.8 -12.672,-4.8 -6.528,0 -11.904,3.84 -5.184,3.648 -9.792,8.64 l -14.784,-14.592 q 8.832,-9.984 18.048,-14.976 9.408,-4.992 22.272,-4.992 11.904,0 20.928,4.8 9.216,4.8 14.208,13.44 5.184,8.64 5.184,20.352 0,10.944 -5.952,21.504 -5.76,10.368 -15.36,20.736 -9.6,10.368 -20.352,21.12 4.608,-0.576 10.368,-0.96 5.76,-0.576 9.984,-0.576 h 27.264 v 23.808 z m 144.768,2.304 q -12.096,0 -21.888,-4.224 -9.6,-4.224 -15.168,-11.712 -5.376,-7.68 -5.376,-17.472 0,-7.488 2.688,-12.864 2.88,-5.568 7.488,-9.792 4.8,-4.224 10.56,-7.296 v -0.768 q -6.912,-5.376 -11.712,-12.288 -4.608,-6.912 -4.608,-16.512 0,-10.368 4.992,-17.856 4.992,-7.68 13.824,-11.712 8.832,-4.032 20.16,-4.032 16.896,0 26.88,9.216 10.176,9.024 10.176,24.192 0,5.76 -2.304,10.944 -2.112,4.992 -5.76,9.024 -3.648,3.84 -7.872,6.72 v 0.768 q 5.76,3.072 10.56,7.488 4.8,4.224 7.68,10.368 2.88,5.952 2.88,14.016 0,9.6 -5.376,17.28 -5.376,7.488 -15.168,12.096 -9.6,4.416 -22.656,4.416 z m 7.68,-73.344 q 3.648,-4.224 5.568,-8.64 1.92,-4.416 1.92,-9.216 0,-4.8 -1.728,-8.256 -1.728,-3.456 -5.184,-5.376 -3.264,-2.112 -7.872,-2.112 -5.568,0 -9.6,3.648 -4.032,3.456 -4.032,10.368 0,4.992 2.688,8.448 2.688,3.456 7.296,6.144 4.8,2.688 10.944,4.992 z m -7.104,53.76 q 4.608,0 8.256,-1.536 3.84,-1.728 5.952,-4.992 2.112,-3.456 2.112,-8.64 0,-5.376 -3.264,-8.832 -3.072,-3.648 -9.024,-6.336 -5.76,-2.88 -13.44,-6.144 -4.032,3.648 -6.72,8.832 -2.688,4.992 -2.688,10.56 0,5.376 2.496,9.216 2.688,3.84 6.912,5.952 4.416,1.92 9.408,1.92 z M 1197.2418,4.50159 V -96.874412 h -34.368 v -23.807998 h 97.152 v 23.807998 h -34.368 V 4.50159 Z m 82.368,0 v -125.184 h 45.12 q 13.248,0 24.192,3.648 10.944,3.456 17.472,12.096 6.528,8.447998 6.528,23.231998 0,14.4 -6.528,23.424 -6.528,9.024 -17.472,13.44 -10.944,4.224 -24.192,4.224 h -16.896 V 4.50159 Z m 28.224,-67.584002 h 14.592 q 11.136,0 16.896,-4.608 5.952,-4.8 5.952,-14.016 0,-9.216 -5.952,-12.864 -5.76,-3.648 -16.896,-3.648 h -14.592 z m 39.552,67.584002 -27.84,-52.416002 19.584,-18.24 39.936,70.656002 z m 37.4401,26.88 v -15.936 h 91.392 v 15.936 z m 92.544,-26.88 39.168,-125.184 h 33.792 l 39.36,125.184 h -29.952 l -16.32,-63.360002 q -2.688,-9.408 -5.184,-19.968 -2.496,-10.56 -4.992,-20.352 h -0.768 q -2.112,9.792 -4.608,20.352 -2.496,10.56 -5.184,19.968 l -16.512,63.360002 z m 25.728,-29.760002 v -22.08 h 60.288 v 22.08 z M -3559.8282,411.21814 v -5.824 q 5.12,-4.544 9.088,-8.512 4.032,-3.968 6.272,-7.36 2.304,-3.392 2.304,-6.208 0,-3.008 -1.536,-4.544 -1.536,-1.6 -4.224,-1.6 -2.176,0 -3.968,1.28 -1.728,1.216 -3.264,2.88 l -4.928,-4.864 q 2.944,-3.328 6.016,-4.992 3.136,-1.664 7.424,-1.664 3.968,0 6.976,1.6 3.072,1.6 4.736,4.48 1.728,2.88 1.728,6.784 0,3.648 -1.984,7.168 -1.92,3.456 -5.12,6.912 -3.2,3.456 -6.784,7.04 1.536,-0.192 3.456,-0.32 1.92,-0.192 3.328,-0.192 h 9.088 v 7.936 z m 33.792,0 v -5.824 q 5.12,-4.544 9.088,-8.512 4.032,-3.968 6.272,-7.36 2.304,-3.392 2.304,-6.208 0,-3.008 -1.536,-4.544 -1.536,-1.6 -4.224,-1.6 -2.176,0 -3.968,1.28 -1.728,1.216 -3.264,2.88 l -4.928,-4.864 q 2.944,-3.328 6.016,-4.992 3.136,-1.664 7.424,-1.664 3.968,0 6.976,1.6 3.072,1.6 4.736,4.48 1.728,2.88 1.728,6.784 0,3.648 -1.984,7.168 -1.92,3.456 -5.12,6.912 -3.2,3.456 -6.784,7.04 1.536,-0.192 3.456,-0.32 1.92,-0.192 3.328,-0.192 h 9.088 v 7.936 z m 48.32,0.768 q -6.528,0 -10.56,-5.44 -3.968,-5.44 -3.968,-15.808 0,-10.432 3.968,-15.68 4.032,-5.248 10.56,-5.248 6.528,0 10.496,5.312 4.032,5.248 4.032,15.616 0,10.368 -4.032,15.808 -3.968,5.44 -10.496,5.44 z m 0,-7.296 q 1.6,0 2.88,-1.152 1.28,-1.216 1.984,-4.224 0.768,-3.072 0.768,-8.576 0,-5.568 -0.768,-8.512 -0.704,-2.944 -1.984,-4.032 -1.28,-1.088 -2.88,-1.088 -1.6,0 -2.88,1.088 -1.28,1.088 -2.048,4.032 -0.704,2.944 -0.704,8.512 0,5.504 0.704,8.576 0.768,3.008 2.048,4.224 1.28,1.152 2.88,1.152 z m 26.496,7.296 q -2.432,0 -4.096,-1.728 -1.6,-1.728 -1.6,-4.16 0,-2.56 1.6,-4.224 1.664,-1.728 4.096,-1.728 2.496,0 4.096,1.728 1.6,1.664 1.6,4.224 0,2.432 -1.6,4.16 -1.6,1.728 -4.096,1.728 z m 14.0799,-0.768 v -7.616 h 8.832 v -23.488 h -7.616 v -5.824 q 3.328,-0.64 5.632,-1.536 2.368,-0.896 4.48,-2.176 h 6.912 v 33.024 h 7.616 v 7.616 z m -106.56,-80 v -33.792 h -11.456 v -7.936 h 32.384 v 7.936 h -11.456 v 33.792 z m 27.456,0 v -41.728 h 15.04 q 4.416,0 8.064,1.216 3.648,1.152 5.824,4.032 2.176,2.816 2.176,7.744 0,4.8 -2.176,7.808 -2.176,3.008 -5.824,4.48 -3.648,1.408 -8.064,1.408 h -5.632 v 15.04 z m 9.408,-22.528 h 4.864 q 3.712,0 5.632,-1.536 1.984,-1.6 1.984,-4.672 0,-3.072 -1.984,-4.288 -1.92,-1.216 -5.632,-1.216 h -4.864 z m 13.184,22.528 -9.28,-17.472 6.528,-6.08 13.312,23.552 z m 12.4801,8.96 v -5.312 h 30.464 v 5.312 z m 30.848,-8.96 13.056,-41.728 h 11.264 l 13.12,41.728 h -9.984 l -5.44,-21.12 q -0.896,-3.136 -1.728,-6.656 -0.832,-3.52 -1.664,-6.784 h -0.256 q -0.704,3.264 -1.536,6.784 -0.832,3.52 -1.728,6.656 l -5.504,21.12 z m 8.576,-9.92 v -7.36 h 20.096 v 7.36 z" style="font-size:96px;font-family:'Source Sans 3';-inkscape-font-specification:'Source Sans 3, @wght=700';font-variation-settings:'wght' 700;text-align:center;white-space:pre;display:inline;fill:#bec3c6;stroke-width:55" transform="matrix(0.02439371,0,0,0.02439371,91.141646,271.85619)"/>
  </g>
</svg>
