<?xml version="1.0" encoding="UTF-8" standalone="no"?>
<svg
   height="25"
   viewBox="0 -960 1000 1000"
   width="25"
   fill="#e8eaed"
   version="1.1"
   id="svg1"
   sodipodi:docname="accessible_24dp_E8EAED_FILL0_wght400_GRAD0_opsz24.svg"
   inkscape:version="1.3 (0e150ed6c4, 2023-07-21)"
   xmlns:inkscape="http://www.inkscape.org/namespaces/inkscape"
   xmlns:sodipodi="http://sodipodi.sourceforge.net/DTD/sodipodi-0.dtd"
   xmlns="http://www.w3.org/2000/svg"
   xmlns:svg="http://www.w3.org/2000/svg">
  <defs
     id="defs1" />
  <sodipodi:namedview
     id="namedview1"
     pagecolor="#505050"
     bordercolor="#eeeeee"
     borderopacity="1"
     inkscape:showpageshadow="0"
     inkscape:pageopacity="0"
     inkscape:pagecheckerboard="0"
     inkscape:deskcolor="#505050"
     inkscape:zoom="33.499184"
     inkscape:cx="12.836134"
     inkscape:cy="9.7465061"
     inkscape:window-width="2560"
     inkscape:window-height="1351"
     inkscape:window-x="2391"
     inkscape:window-y="-9"
     inkscape:window-maximized="1"
     inkscape:current-layer="svg1" />
  <circle
     style="font-variation-settings:'wght' 300;fill:#ffed00;fill-opacity:1;stroke:none;stroke-width:155429"
     id="path2"
     cx="500"
     cy="-460"
     r="500" />
  <path
     d="m 480,-728.95642 q -33,0 -56.5,-23.5 -23.5,-23.5 -23.5,-56.5 0,-33 23.5,-56.5 23.5,-23.5 56.5,-23.5 33,0 56.5,23.5 23.5,23.5 23.5,56.5 0,33 -23.5,56.5 -23.5,23.5 -56.5,23.5 z M 680,-88.956417 V -288.95642 H 480 q -33,0 -56.5,-23.5 -23.5,-23.5 -23.5,-56.5 v -240 q 0,-33 23.5,-56.5 23.5,-23.5 56.5,-23.5 24,0 41.5,10.5 17.5,10.5 37.5,33.5 55,66 99.5,90.5 44.5,24.5 101.5,25.5 v 80 q -53,0 -107,-23 -54,-23 -93,-55 v 138 h 120 q 33,0 56.5,23.5 23.5,23.5 23.5,56.5 v 220.000003 z m -280,0 q -83,0 -141.5,-58.500003 -58.5,-58.5 -58.5,-141.5 0,-72 45.5,-127 45.5,-55 114.5,-69 v 82 q -35,14 -57.5,44.5 -22.5,30.5 -22.5,69.5 0,50 35,85 35,35 85,35 39,0 69.5,-22.5 30.5,-22.5 44.5,-57.5 h 82 q -14,69 -69,114.5 -55,45.500003 -127,45.500003 z"
     id="path1"
     style="fill:#1b2022;fill-opacity:1" />
</svg>
