<?xml version="1.0" encoding="utf-8"?>
<!-- Generator: Adobe Illustrator 15.0.0, SVG Export Plug-In . SVG Version: 6.00 Build 0)  -->
<!DOCTYPE svg PUBLIC "-//W3C//DTD SVG 1.1//EN" "http://www.w3.org/Graphics/SVG/1.1/DTD/svg11.dtd">
<svg version="1.1" id="Ebene_1" xmlns="http://www.w3.org/2000/svg" xmlns:xlink="http://www.w3.org/1999/xlink" x="0px" y="0px"
	 width="99.213px" height="99.213px" viewBox="0 0 99.213 99.213" enable-background="new 0 0 99.213 99.213" xml:space="preserve">
<g>
	<defs>
		<rect id="SVGID_1_" x="2.175" y="8.396" width="92.587" height="82.037"/>
	</defs>
	<clipPath id="SVGID_2_">
		<use xlink:href="#SVGID_1_"  overflow="visible"/>
	</clipPath>
	<path clip-path="url(#SVGID_2_)" d="M54.19,26.255L41.009,12.649c0,0-18.284,1.134-19.701,1.984s-0.992,11.622-0.992,11.622H6.144
		c0,0-3.969-0.425-3.969,3.827s2.268,39.4,2.268,39.4s-0.567,3.544,2.693,4.111c3.26,0.567,27.921,0.708,27.921,0.708
		s4.819,0.284,4.819-3.968s0.142-4.252,0.142-4.252l2.126,0.142l1.134,15.165c0,0,5.952,3.543,10.913,5.812
		c4.961,2.268,7.087,2.976,7.087,2.976s8.527,0.803,14.882-0.425c12.473-2.409,11.764-3.26,11.764-3.26L94.301,69.2
		c0,0,2.268-6.804-3.261-6.804c-5.526,0-4.96-0.566-4.96-0.566l5.669-13.748c0,0,4.09-5.28-9.354-6.095
		c-4.677-0.283-4.536-0.283-4.536-0.283l1.843-27.638c0,0-0.142-1.417-1.7-1.417h-2.836c0,0,0.427-4.252-2.551-4.252
		c-2.976,0-12.931,0.259-16.866,1.134c-1.275,0.283-1.559,2.551-1.559,2.551V26.255z"/>
	<path clip-path="url(#SVGID_2_)" fill="#62C4DE" d="M57.734,34.192L39.167,16.475l-14.74,1.276
		c-0.271,0.604-0.818,10.332-0.677,11.749l4.22,0.582c-0.445,1.521-1.417,24.094-1.417,24.094s2.738-0.642,5.572-0.926
		c2.835-0.283,6.192-0.066,6.192-0.066l0.141-20.125l11.197,15.165l5.811-7.37l14.882,0.567l1.417-30.189L56.938,11.94
		L57.734,34.192z"/>
</g>
<polygon fill="#E8424D" points="19.891,28.522 5.718,29.657 8.27,70.759 35.34,68.35 36.615,55.877 17.765,58.994 "/>
<g>
	<defs>
		<rect id="SVGID_3_" x="2.175" y="8.396" width="92.587" height="82.037"/>
	</defs>
	<clipPath id="SVGID_4_">
		<use xlink:href="#SVGID_3_"  overflow="visible"/>
	</clipPath>
	<path clip-path="url(#SVGID_4_)" fill="#F59E07" d="M86.08,47.089l-28.346-3.26L44.979,58.003l1.417,20.125
		c0,0,5.897,2.127,8.22,3.261c2.323,1.134,8.788,3.685,8.788,3.685s3.685,0.284,8.362-0.708c4.677-0.993,11.764-3.544,11.764-3.544
		s2.551-4.96,3.685-8.787c1.135-3.827,0.567-5.953,0.567-5.953H73.324c0,0-1.275,3.402-6.874,2.693
		c-5.598-0.709-5.882-2.835-6.59-4.323c-0.709-1.487,2.692-5.456,2.692-5.456l17.149,0.142L86.08,47.089z"/>
</g>
<polygon fill="#F5FAFC" points="45.97,52.334 47.954,49.641 44.978,48.224 "/>
</svg>
