<?xml version="1.0" encoding="UTF-8" standalone="no"?>
<svg
   height="25"
   viewBox="0 -960 1000 1000"
   width="25"
   fill="#e8eaed"
   version="1.1"
   id="svg1"
   xmlns="http://www.w3.org/2000/svg"
   xmlns:svg="http://www.w3.org/2000/svg">
  <circle
     style="font-variation-settings:'wght' 300;fill:#ffed00;fill-opacity:1;stroke:none;stroke-width:155429"
     id="path2"
     cx="500"
     cy="-460"
     r="500" />
  <path
     d="m 480,-728.95642 q -33,0 -56.5,-23.5 -23.5,-23.5 -23.5,-56.5 0,-33 23.5,-56.5 23.5,-23.5 56.5,-23.5 33,0 56.5,23.5 23.5,23.5 23.5,56.5 0,33 -23.5,56.5 -23.5,23.5 -56.5,23.5 z M 680,-88.956417 V -288.95642 H 480 q -33,0 -56.5,-23.5 -23.5,-23.5 -23.5,-56.5 v -240 q 0,-33 23.5,-56.5 23.5,-23.5 56.5,-23.5 24,0 41.5,10.5 17.5,10.5 37.5,33.5 55,66 99.5,90.5 44.5,24.5 101.5,25.5 v 80 q -53,0 -107,-23 -54,-23 -93,-55 v 138 h 120 q 33,0 56.5,23.5 23.5,23.5 23.5,56.5 v 220.000003 z m -280,0 q -83,0 -141.5,-58.500003 -58.5,-58.5 -58.5,-141.5 0,-72 45.5,-127 45.5,-55 114.5,-69 v 82 q -35,14 -57.5,44.5 -22.5,30.5 -22.5,69.5 0,50 35,85 35,35 85,35 39,0 69.5,-22.5 30.5,-22.5 44.5,-57.5 h 82 q -14,69 -69,114.5 -55,45.500003 -127,45.500003 z"
     id="path1"
     style="fill:#1b2022;fill-opacity:1" />
  <path
     style="font-variation-settings:'wght' 300;fill:none;fill-opacity:1;stroke:#b91e1e;stroke-width:120;stroke-dasharray:none;stroke-opacity:1"
     d="M 148.22944,-104.67272 851.77056,-815.32728"
     id="path3" />
</svg>
