<?xml version="1.0" encoding="UTF-8" standalone="no"?>
<!-- Created with Inkscape (http://www.inkscape.org/) -->

<svg width="1000.0001" height="1000.0001" viewBox="0 0 264.58335 264.58335" version="1.1" id="svg1" xml:space="preserve"
  xmlns="http://www.w3.org/2000/svg" xmlns:svg="http://www.w3.org/2000/svg">
  <defs id="defs1" />
  <g id="layer1" transform="translate(0,-32.416667)">
    <g id="layer1-0" transform="translate(39.752782,106.54259)">
      <g id="layer3" transform="translate(0,4.3477797)" style="display:none">
        <rect
          style="font-variation-settings:'wdth' 70, 'wght' 600;display:none;fill:#009fe4;fill-opacity:1;stroke:none;stroke-width:2.36701;stroke-linecap:round;stroke-linejoin:round;stroke-miterlimit:4;stroke-dasharray:none;stroke-opacity:1"
          id="rect9-3" width="13.229164" height="54.883759" x="46.879814" y="-63.136978"
          transform="rotate(60.388186)" />
        <rect
          style="font-variation-settings:'wdth' 70, 'wght' 600;fill:#e5007d;fill-opacity:1;stroke:none;stroke-width:2.36701;stroke-linecap:round;stroke-linejoin:round;stroke-miterlimit:4;stroke-dasharray:none;stroke-opacity:1"
          id="rect9" width="13.229164" height="59.980793" x="66.723564" y="-65.213661" transform="rotate(60.388186)" />
        <circle
          style="font-variation-settings:'wdth' 70, 'wght' 600;fill:#31383b;fill-opacity:1;stroke:#ffed00;stroke-width:1.85208;stroke-linecap:round;stroke-linejoin:round;stroke-miterlimit:4;stroke-dasharray:none;stroke-opacity:1"
          id="path8-0" cx="67.73333" cy="45.991787" r="7.619575" />
        <path
          style="font-variation-settings:'wdth' 70, 'wght' 600;display:inline;fill:#009fe4;fill-opacity:1;stroke-width:5.29167"
          d="m 36.876408,48.180237 c 0.172118,-6.099339 1.493313,-11.834867 4.02111,-17.419228 L 67.472503,15.574341 c 6.946645,1.015036 11.534359,2.55787 17.119464,5.486671 z"
          id="path1" />
        <path style="font-variation-settings:'wdth' 70, 'wght' 600;fill:#02964f;fill-opacity:1;stroke-width:5.29167"
          d="M 53.436293,84.418062 46.899481,72.916717 97.330749,44.254014 c -0.547195,7.708254 -1.479358,11.227841 -4.402867,17.715165 z"
          id="path3" />
        <path style="font-variation-settings:'wdth' 70, 'wght' 600;fill:#e53212;fill-opacity:1;stroke-width:5.29167"
          d="M 62.816878,101.91141 56.280066,90.410067 87.415531,72.714168 76.29251,94.25251 Z" id="path4" />
        <path
          style="font-variation-settings:'wdth' 70, 'wght' 600;fill:none;fill-opacity:1;stroke:#ffed00;stroke-width:1.85208;stroke-linecap:round;stroke-linejoin:round;stroke-miterlimit:4;stroke-dasharray:none;stroke-opacity:1"
          d="M 40.358259,60.029446 67.733332,111.07984 93.922996,60.029446" id="path9" />
        <path
          style="font-variation-settings:'wdth' 70, 'wght' 600;fill:none;fill-opacity:1;stroke:#ffed00;stroke-width:1.85208;stroke-linecap:round;stroke-linejoin:round;stroke-miterlimit:4;stroke-dasharray:none;stroke-opacity:1"
          id="path8"
          d="m -9.5166473,-70.924911 a 30.291779,30.291779 0 0 1 -23.6736077,29.559967 30.291779,30.291779 0 0 1 -34.018063,-16.643399 30.291779,30.291779 0 0 1 8.809022,-36.832492"
          transform="rotate(153.73026)" />
      </g>
      <g id="g11" transform="matrix(-1.2253864,-0.65299913,0.65299913,-1.2253864,89.059121,143.06129)">
        <rect
          style="font-variation-settings:'wdth' 70, 'wght' 600;display:none;fill:#009fe4;fill-opacity:1;stroke:none;stroke-width:2.36701;stroke-linecap:round;stroke-linejoin:round;stroke-miterlimit:4;stroke-dasharray:none;stroke-opacity:1"
          id="rect4" width="13.229164" height="54.883759" x="46.879814" y="-63.136978" transform="rotate(60.388186)" />
        <rect
          style="font-variation-settings:'wdth' 70, 'wght' 600;fill:#e5007d;fill-opacity:1;stroke:none;stroke-width:2.36701;stroke-linecap:round;stroke-linejoin:round;stroke-miterlimit:4;stroke-dasharray:none;stroke-opacity:1"
          id="rect5" width="13.229164" height="59.980793" x="66.723564" y="-65.213661" transform="rotate(60.388186)" />
        <circle
          style="font-variation-settings:'wdth' 70, 'wght' 600;fill:#31383b;fill-opacity:1;stroke:#ffed00;stroke-width:1.85208;stroke-linecap:round;stroke-linejoin:round;stroke-miterlimit:4;stroke-dasharray:none;stroke-opacity:1"
          id="circle5" cx="67.73333" cy="45.991787" r="7.619575" />
        <path
          style="font-variation-settings:'wdth' 70, 'wght' 600;display:inline;fill:#009fe4;fill-opacity:1;stroke-width:5.29167"
          d="m 36.876408,48.180237 c 0.172118,-6.099339 1.493313,-11.834867 4.02111,-17.419228 L 67.472503,15.574341 c 6.946645,1.015036 11.534359,2.55787 17.119464,5.486671 z"
          id="path5" />
        <path style="font-variation-settings:'wdth' 70, 'wght' 600;fill:#02964f;fill-opacity:1;stroke-width:5.29167"
          d="M 53.436293,84.418062 46.899481,72.916717 97.330749,44.254014 c -0.547195,7.708254 -1.479358,11.227841 -4.402867,17.715165 z"
          id="path6" />
        <path style="font-variation-settings:'wdth' 70, 'wght' 600;fill:#e53212;fill-opacity:1;stroke-width:5.29167"
          d="M 62.816878,101.91141 56.280066,90.410067 87.415531,72.714168 76.29251,94.25251 Z" id="path7" />
        <path
          style="font-variation-settings:'wdth' 70, 'wght' 600;fill:none;fill-opacity:1;stroke:#ffed00;stroke-width:1.85208;stroke-linecap:round;stroke-linejoin:round;stroke-miterlimit:4;stroke-dasharray:none;stroke-opacity:1"
          d="M 40.358259,60.029446 67.733332,111.07984 93.922996,60.029446" id="path10" />
        <path
          style="font-variation-settings:'wdth' 70, 'wght' 600;fill:none;fill-opacity:1;stroke:#ffed00;stroke-width:1.85208;stroke-linecap:round;stroke-linejoin:round;stroke-miterlimit:4;stroke-dasharray:none;stroke-opacity:1"
          id="path11"
          d="m -9.5166473,-70.924911 a 30.291779,30.291779 0 0 1 -23.6736077,29.559967 30.291779,30.291779 0 0 1 -34.018063,-16.643399 30.291779,30.291779 0 0 1 8.809022,-36.832492"
          transform="rotate(153.73026)" />
      </g>
      <g id="g21" transform="matrix(1.2253864,-0.65299913,-0.65299913,-1.2253864,100.2797,143.06129)">
        <rect
          style="font-variation-settings:'wdth' 70, 'wght' 600;display:none;fill:#009fe4;fill-opacity:1;stroke:none;stroke-width:2.36701;stroke-linecap:round;stroke-linejoin:round;stroke-miterlimit:4;stroke-dasharray:none;stroke-opacity:1"
          id="rect16" width="13.229164" height="54.883759" x="46.879814" y="-63.136978" transform="rotate(60.388186)" />
        <rect
          style="font-variation-settings:'wdth' 70, 'wght' 600;fill:#e5007d;fill-opacity:1;stroke:none;stroke-width:2.36701;stroke-linecap:round;stroke-linejoin:round;stroke-miterlimit:4;stroke-dasharray:none;stroke-opacity:1"
          id="rect17" width="13.229164" height="59.980793" x="66.723564" y="-65.213661" transform="rotate(60.388186)" />
        <circle
          style="font-variation-settings:'wdth' 70, 'wght' 600;fill:#31383b;fill-opacity:1;stroke:#ffed00;stroke-width:1.85208;stroke-linecap:round;stroke-linejoin:round;stroke-miterlimit:4;stroke-dasharray:none;stroke-opacity:1"
          id="circle17" cx="67.73333" cy="45.991787" r="7.619575" />
        <path
          style="font-variation-settings:'wdth' 70, 'wght' 600;display:inline;fill:#009fe4;fill-opacity:1;stroke-width:5.29167"
          d="m 36.876408,48.180237 c 0.172118,-6.099339 1.493313,-11.834867 4.02111,-17.419228 L 67.472503,15.574341 c 6.946645,1.015036 11.534359,2.55787 17.119464,5.486671 z"
          id="path17" />
        <path style="font-variation-settings:'wdth' 70, 'wght' 600;fill:#02964f;fill-opacity:1;stroke-width:5.29167"
          d="M 53.436293,84.418062 46.899481,72.916717 97.330749,44.254014 c -0.547195,7.708254 -1.479358,11.227841 -4.402867,17.715165 z"
          id="path18" />
        <path style="font-variation-settings:'wdth' 70, 'wght' 600;fill:#e53212;fill-opacity:1;stroke-width:5.29167"
          d="M 62.816878,101.91141 56.280066,90.410067 87.415531,72.714168 76.29251,94.25251 Z" id="path19" />
        <path
          style="font-variation-settings:'wdth' 70, 'wght' 600;fill:none;fill-opacity:1;stroke:#ffed00;stroke-width:1.85208;stroke-linecap:round;stroke-linejoin:round;stroke-miterlimit:4;stroke-dasharray:none;stroke-opacity:1"
          d="M 40.358259,60.029446 67.733332,111.07984 93.922996,60.029446" id="path20" />
        <path
          style="font-variation-settings:'wdth' 70, 'wght' 600;fill:none;fill-opacity:1;stroke:#ffed00;stroke-width:1.85208;stroke-linecap:round;stroke-linejoin:round;stroke-miterlimit:4;stroke-dasharray:none;stroke-opacity:1"
          id="path21"
          d="m -9.5166473,-70.924911 a 30.291779,30.291779 0 0 1 -23.6736077,29.559967 30.291779,30.291779 0 0 1 -34.018063,-16.643399 30.291779,30.291779 0 0 1 8.809022,-36.832492"
          transform="rotate(153.73026)" />
      </g>
      <path
        style="font-variation-settings:'wdth' 70, 'wght' 600;display:none;fill:none;fill-opacity:1;stroke:#ff2200;stroke-width:3.81102;stroke-opacity:1"
        d="M 50.554082,100.0135 39.318132,78.92866" id="path22"
        transform="matrix(-1.2253864,-0.65299912,0.65299912,-1.2253864,91.824278,143.06129)" />
      <path
        style="font-variation-settings:'wdth' 70, 'wght' 600;fill:none;fill-opacity:1;stroke:#bec3c6;stroke-width:5.29167;stroke-opacity:1"
        d="m 26.39305,163.99909 c 44.798105,-62.72889 88.88669,-61.95615 132.29167,0" id="path23" />
    </g>
  </g>
</svg>