<svg width="5100" height="1900" viewBox="0 0 5100 1900" version="1.1" id="svg1" xml:space="preserve" xmlns="http://www.w3.org/2000/svg">
  <g id="floor_0" transform="matrix(40.994169,0,0,40.994169,1.00188,-10010.757)" style="display:inline">
    <path style="font-variation-settings:'wdth' 70,'wght' 600;display:inline;fill:#4c5a5f;fill-opacity:1;stroke-width:.487874" d="m 47.577697,250.16318 16.598743,0.0181 2e-6,6.83006 59.534218,2.6e-4 v 5.79334 h -9.28682 l -13.00127,5e-5 -37.239861,5e-5 -3e-6,14.8977 -8.02296,-0.007 v -3.85791 h -8.58205 z" id="path65"/>
    <g id="rooms_0" style="display:inline" transform="matrix(0.02439371,0,0,0.02439371,-0.02443957,255.98706)">
      <rect style="font-variation-settings:'wdth' 70,'wght' 600;display:inline;fill:#1b2022;fill-opacity:1;stroke:none;stroke-width:10.6002;stroke-linecap:butt;stroke-linejoin:miter;stroke-dasharray:none;stroke-opacity:1" id="rect8" width="298.89462" height="224.67143" x="2303.2253" y="431.85519"/>
      <rect style="font-variation-settings:'wdth' 70,'wght' 600;display:inline;fill:#454c7f;fill-opacity:1;stroke-width:256.024;stroke-dasharray:none" id="ZU003" width="192.49689" height="435.767" x="2439.3652" y="-455.88718"/>
      <rect style="font-variation-settings:'wdth' 70,'wght' 600;display:inline;fill:#454c7f;fill-opacity:1;stroke-width:648.324;stroke-dasharray:none" id="ZU006" width="1080.3552" height="497.88736" x="2631.8621" y="-455.88718"/>
      <rect style="font-variation-settings:'wdth' 70,'wght' 600;display:inline;fill:#454c7f;fill-opacity:1;stroke-width:374.262;stroke-dasharray:none" id="ZU009" width="360.02475" height="497.88736" x="3712.2173" y="-455.88718"/>
      <rect style="font-variation-settings:'wdth' 70,'wght' 600;display:inline;fill:#454c7f;fill-opacity:1;stroke-width:378.062;stroke-dasharray:none" id="ZU010" width="367.37485" height="497.88736" x="4072.2419" y="-455.88718"/>
      <rect style="font-variation-settings:'wdth' 70,'wght' 600;display:inline;fill:#454c7f;fill-opacity:1;stroke-width:343.52;stroke-dasharray:none" id="ZU011" width="303.32101" height="497.86926" x="4439.6172" y="-455.88718"/>
      <rect style="font-variation-settings:'wdth' 70,'wght' 600;display:inline;fill:#454c7f;fill-opacity:1;stroke-width:345.578;stroke-dasharray:none" id="ZU012" width="306.97733" height="497.85117" x="4742.9385" y="-455.86908"/>
      <rect style="font-variation-settings:'wdth' 70,'wght' 600;display:inline;fill:#454c7f;fill-opacity:1;stroke-width:297.542;stroke-dasharray:none" id="ZU013" width="380.70551" height="297.59396" x="4691.7129" y="279.49298"/>
      <rect style="font-variation-settings:'wdth' 70,'wght' 600;display:inline;fill:#454c7f;fill-opacity:1;stroke-width:853.354;stroke-dasharray:none" id="ZU017" width="1526.6154" height="610.44318" x="2632.1211" y="279.49298"/>
      <rect style="font-variation-settings:'wdth' 70,'wght' 600;display:inline;fill:#454c7f;fill-opacity:1;stroke-width:236.072;stroke-dasharray:none" id="ZU022" width="358.91891" height="198.70351" x="2290.7021" y="669.02661"/>
      <rect style="font-variation-settings:'wdth' 70,'wght' 600;display:inline;fill:#454c7f;fill-opacity:1;stroke-width:305.194;stroke-dasharray:none" id="ZU014" width="380.70551" height="313.09714" x="4691.7129" y="577.08691"/>
      <rect style="font-variation-settings:'wdth' 70,'wght' 600;display:inline;fill:#454c7f;fill-opacity:1;stroke-width:344.016;stroke-dasharray:none" id="ZU015" width="247.99995" height="610.69116" x="4443.7129" y="279.49298"/>
      <rect style="font-variation-settings:'wdth' 70,'wght' 600;display:inline;fill:#454c7f;fill-opacity:1;stroke-width:368.771;stroke-dasharray:none" id="ZU016" width="284.97668" height="610.69116" x="4158.7363" y="279.49298"/>
    </g>
    <g id="staires_0" transform="matrix(0.02439371,0,0,0.02439371,-0.02443957,244.19953)" style="display:inline">
      <rect style="font-variation-settings:'wdth' 70,'wght' 600;display:inline;fill:#4c5a5f;fill-opacity:1;stroke-width:5.47103;stroke-dasharray:none" id="rect598" width="121.70573" height="30.000004" x="2169.0186" y="915.00031"/>
      <rect style="font-variation-settings:'wdth' 70,'wght' 600;display:inline;fill:#4f5e63;fill-opacity:1;stroke-width:5.47103;stroke-dasharray:none" id="rect599" width="121.70573" height="30.000004" x="2169.0186" y="945.00031"/>
      <rect style="font-variation-settings:'wdth' 70,'wght' 600;display:inline;fill:#516166;fill-opacity:1;stroke-width:5.47103;stroke-dasharray:none" id="rect600" width="121.70573" height="30.000004" x="2169.0186" y="975.00031"/>
      <rect style="font-variation-settings:'wdth' 70,'wght' 600;display:inline;fill:#546469;fill-opacity:1;stroke-width:5.47103;stroke-dasharray:none" id="rect601" width="121.70573" height="30.000004" x="2169.0186" y="1005.0003"/>
      <rect style="font-variation-settings:'wdth' 70,'wght' 600;display:inline;fill:#56676c;fill-opacity:1;stroke-width:5.47103;stroke-dasharray:none" id="rect602" width="121.70573" height="30.000004" x="2169.0186" y="1035.0004"/>
      <rect style="font-variation-settings:'wdth' 70,'wght' 600;display:inline;fill:#586a6f;fill-opacity:1;stroke-width:5.47103;stroke-dasharray:none" id="rect603" width="121.70573" height="30.000004" x="2169.0186" y="1065.0004"/>
      <rect style="font-variation-settings:'wdth' 70,'wght' 600;display:inline;fill:#5a6d72;fill-opacity:1;stroke-width:5.47103;stroke-dasharray:none" id="rect604" width="121.70573" height="30.000004" x="2169.0186" y="1095.0004"/>
      <rect style="font-variation-settings:'wdth' 70,'wght' 600;display:inline;fill:#5c7075;fill-opacity:1;stroke-width:5.47103;stroke-dasharray:none" id="rect605" width="121.70573" height="30.000004" x="2169.0186" y="1125.0004"/>
      <rect style="font-variation-settings:'wdth' 70,'wght' 600;display:inline;fill:#5e7378;fill-opacity:1;stroke-width:5.47103;stroke-dasharray:none" id="rect606" width="121.70573" height="30.000004" x="2169.0186" y="1155.0004"/>
      <rect style="font-variation-settings:'wdth' 70,'wght' 600;display:inline;fill:#60767b;fill-opacity:1;stroke-width:5.47103;stroke-dasharray:none" id="rect607" width="121.70573" height="30.000004" x="2169.0186" y="1185.0004"/>
      <rect style="font-variation-settings:'wdth' 70,'wght' 600;display:inline;fill:#373e43;fill-opacity:1;stroke-width:13.559;stroke-dasharray:none" id="rect608" width="316.78696" height="120.67207" x="1973.9358" y="1215.0042"/>
      <rect style="font-variation-settings:'wdth' 70,'wght' 600;display:inline;fill:#3a4146;fill-opacity:1;stroke-width:5.43645;stroke-dasharray:none" id="rect609" width="120.17195" height="30.000004" x="-2094.0872" y="-1214.9865" transform="scale(-1)"/>
      <rect style="font-variation-settings:'wdth' 70,'wght' 600;display:inline;fill:#3c4449;fill-opacity:1;stroke-width:5.43645;stroke-dasharray:none" id="rect610" width="120.17195" height="30.000004" x="-2094.0872" y="-1184.9865" transform="scale(-1)"/>
      <rect style="font-variation-settings:'wdth' 70,'wght' 600;display:inline;fill:#3e474c;fill-opacity:1;stroke-width:5.43645;stroke-dasharray:none" id="rect611" width="120.17195" height="30.000004" x="-2094.0872" y="-1154.9865" transform="scale(-1)"/>
      <rect style="font-variation-settings:'wdth' 70,'wght' 600;display:inline;fill:#404a4f;fill-opacity:1;stroke-width:5.43645;stroke-dasharray:none" id="rect612" width="120.17195" height="30.000004" x="-2094.0872" y="-1124.9865" transform="scale(-1)"/>
      <rect style="font-variation-settings:'wdth' 70,'wght' 600;display:inline;fill:#424d52;fill-opacity:1;stroke-width:5.43645;stroke-dasharray:none" id="rect613" width="120.17195" height="30.000004" x="-2094.0872" y="-1094.9865" transform="scale(-1)"/>
      <rect style="font-variation-settings:'wdth' 70,'wght' 600;display:inline;fill:#445055;fill-opacity:1;stroke-width:5.43645;stroke-dasharray:none" id="rect614" width="120.17195" height="30.000004" x="-2094.0872" y="-1064.9865" transform="scale(-1)"/>
      <rect style="font-variation-settings:'wdth' 70,'wght' 600;display:inline;fill:#465358;fill-opacity:1;stroke-width:5.43645;stroke-dasharray:none" id="rect615" width="120.17195" height="30.000004" x="-2094.0872" y="-1034.9865" transform="scale(-1)"/>
      <rect style="font-variation-settings:'wdth' 70,'wght' 600;display:inline;fill:#48565b;fill-opacity:1;stroke-width:5.43645;stroke-dasharray:none" id="rect616" width="120.17195" height="30.000004" x="-2094.0872" y="-1004.9865" transform="scale(-1)"/>
      <rect style="font-variation-settings:'wdth' 70,'wght' 600;display:inline;fill:#4b595e;fill-opacity:1;stroke-width:5.43645;stroke-dasharray:none" id="rect617" width="120.17195" height="30.000004" x="-2094.0872" y="-974.98645" transform="scale(-1)"/>
      <rect style="font-variation-settings:'wdth' 70,'wght' 600;display:inline;fill:#4c5a5f;fill-opacity:1;stroke-width:5.43645;stroke-dasharray:none" id="rect618" width="120.17195" height="30.000004" x="-2094.0872" y="-944.98645" transform="scale(-1)"/>
      <rect style="font-variation-settings:'wdth' 70,'wght' 600;display:inline;fill:none;fill-opacity:1;stroke:#bec3c6;stroke-width:10;stroke-linecap:butt;stroke-linejoin:miter;stroke-dasharray:none;stroke-opacity:1" id="rect619" width="69.931396" height="298.18414" x="2099.0872" y="911.82001"/>
      <rect style="font-variation-settings:'wdth' 70,'wght' 600;display:inline;fill:#000;fill-opacity:1;stroke-width:.992555;stroke-dasharray:none" id="rect388" width="120.17195" height="1.0000001" x="-2094.0872" y="-974.98645" transform="scale(-1)"/>
      <rect style="font-variation-settings:'wdth' 70,'wght' 600;display:inline;fill:#000;fill-opacity:1;stroke-width:.992555;stroke-dasharray:none" id="rect414" width="120.17195" height="1.0000001" x="-2094.0872" y="-944.98645" transform="scale(-1)"/>
      <rect style="font-variation-settings:'wdth' 70,'wght' 600;display:inline;fill:#000;fill-opacity:1;stroke-width:.992555;stroke-dasharray:none" id="rect415" width="120.17195" height="1.0000001" x="-2094.0872" y="-914.98645" transform="scale(-1)"/>
      <rect style="font-variation-settings:'wdth' 70,'wght' 600;display:inline;fill:#000;fill-opacity:1;stroke-width:.992555;stroke-dasharray:none" id="rect416" width="120.17195" height="1.0000001" x="-2094.0872" y="-1004.9865" transform="scale(-1)"/>
      <rect style="font-variation-settings:'wdth' 70,'wght' 600;display:inline;fill:#000;fill-opacity:1;stroke-width:.992555;stroke-dasharray:none" id="rect417" width="120.17195" height="1.0000001" x="-2094.0872" y="-1034.9865" transform="scale(-1)"/>
      <rect style="font-variation-settings:'wdth' 70,'wght' 600;display:inline;fill:#000;fill-opacity:1;stroke-width:.992555;stroke-dasharray:none" id="rect418" width="120.17195" height="1.0000001" x="-2094.0872" y="-1064.9865" transform="scale(-1)"/>
      <rect style="font-variation-settings:'wdth' 70,'wght' 600;display:inline;fill:#000;fill-opacity:1;stroke-width:.992555;stroke-dasharray:none" id="rect419" width="120.17195" height="1.0000001" x="-2094.0872" y="-1094.9865" transform="scale(-1)"/>
      <rect style="font-variation-settings:'wdth' 70,'wght' 600;display:inline;fill:#000;fill-opacity:1;stroke-width:.992555;stroke-dasharray:none" id="rect420" width="120.17195" height="1.0000001" x="-2094.0872" y="-1124.9865" transform="scale(-1)"/>
      <rect style="font-variation-settings:'wdth' 70,'wght' 600;display:inline;fill:#000;fill-opacity:1;stroke-width:.992555;stroke-dasharray:none" id="rect422" width="120.17195" height="1.0000001" x="-2094.0872" y="-1154.9865" transform="scale(-1)"/>
      <rect style="font-variation-settings:'wdth' 70,'wght' 600;display:inline;fill:#000;fill-opacity:1;stroke-width:.992555;stroke-dasharray:none" id="rect423" width="120.17195" height="1.0000001" x="-2094.0872" y="-1184.9865" transform="scale(-1)"/>
      <rect style="font-variation-settings:'wdth' 70,'wght' 600;display:inline;fill:#000;fill-opacity:1;stroke-width:.992555;stroke-dasharray:none" id="rect424" width="120.17195" height="1.0000001" x="-2094.0872" y="-1214.9865" transform="scale(-1)"/>
      <rect style="font-variation-settings:'wdth' 70,'wght' 600;display:inline;fill:#000;fill-opacity:1;stroke-width:.992555;stroke-dasharray:none" id="rect425" width="120.17195" height="1.0000001" x="-2294.1904" y="-1185.0004" transform="scale(-1)"/>
      <rect style="font-variation-settings:'wdth' 70,'wght' 600;display:inline;fill:#000;fill-opacity:1;stroke-width:.992555;stroke-dasharray:none" id="rect426" width="120.17195" height="1.0000001" x="-2294.1904" y="-1155.0004" transform="scale(-1)"/>
      <rect style="font-variation-settings:'wdth' 70,'wght' 600;display:inline;fill:#000;fill-opacity:1;stroke-width:.992555;stroke-dasharray:none" id="rect427" width="120.17195" height="1.0000001" x="-2294.1904" y="-1125.0004" transform="scale(-1)"/>
      <rect style="font-variation-settings:'wdth' 70,'wght' 600;display:inline;fill:#000;fill-opacity:1;stroke-width:.992555;stroke-dasharray:none" id="rect428" width="120.17195" height="1.0000001" x="-2294.1904" y="-1095.0004" transform="scale(-1)"/>
      <rect style="font-variation-settings:'wdth' 70,'wght' 600;display:inline;fill:#000;fill-opacity:1;stroke-width:.992555;stroke-dasharray:none" id="rect429" width="120.17195" height="1.0000001" x="-2294.1904" y="-1065.0004" transform="scale(-1)"/>
      <rect style="font-variation-settings:'wdth' 70,'wght' 600;display:inline;fill:#000;fill-opacity:1;stroke-width:.992555;stroke-dasharray:none" id="rect430" width="120.17195" height="1.0000001" x="-2294.1904" y="-1035.0004" transform="scale(-1)"/>
      <rect style="font-variation-settings:'wdth' 70,'wght' 600;display:inline;fill:#000;fill-opacity:1;stroke-width:.992555;stroke-dasharray:none" id="rect431" width="120.17195" height="1.0000001" x="-2294.1904" y="-1005.0003" transform="scale(-1)"/>
      <rect style="font-variation-settings:'wdth' 70,'wght' 600;display:inline;fill:#000;fill-opacity:1;stroke-width:.992555;stroke-dasharray:none" id="rect432" width="120.17195" height="1.0000001" x="-2294.1904" y="-975.00031" transform="scale(-1)"/>
      <rect style="font-variation-settings:'wdth' 70,'wght' 600;display:inline;fill:#000;fill-opacity:1;stroke-width:.992555;stroke-dasharray:none" id="rect433" width="120.17195" height="1.0000001" x="-2294.1904" y="-945.00031" transform="scale(-1)"/>
      <rect style="font-variation-settings:'wdth' 70,'wght' 600;display:inline;fill:#000;fill-opacity:1;stroke-width:.992555;stroke-dasharray:none" id="rect434" width="120.17195" height="1.0000001" x="-2294.1904" y="-915.00031" transform="scale(-1)"/>
      <path style="font-variation-settings:'wdth' 70,'wght' 600;display:inline;opacity:1;fill:none;fill-opacity:1;stroke:#bec3c6;stroke-width:5;stroke-dasharray:none;stroke-opacity:1;marker-end:url(#Triangle)" d="m 2232.3714,929.8753 v 255.1251" id="path619"/>
      <path style="font-variation-settings:'wdth' 70,'wght' 600;display:inline;opacity:1;fill:none;fill-opacity:1;stroke:#bec3c6;stroke-width:5;stroke-dasharray:none;stroke-opacity:1;marker-end:url(#Triangle)" d="M 2232.3714,1279.5004 H 2035.7343 V 944.98645" id="path620"/>
    </g>
    <g id="walls_0" transform="matrix(0.02439371,0,0,0.02439371,-0.02443957,244.19953)" style="display:inline">
      <path style="font-variation-settings:'wdth' 70,'wght' 600;display:inline;fill:none;fill-opacity:1;stroke:#bec3c6;stroke-width:.85378;stroke-linecap:butt;stroke-linejoin:miter;stroke-dasharray:none;stroke-opacity:1" d="M 70.860906,262.80493 H 110.43986" id="path366" transform="matrix(40.994174,0,0,40.994174,1.00188,-10010.758)"/>
      <path style="font-variation-settings:'wdth' 70,'wght' 600;display:inline;fill:none;fill-opacity:1;stroke:#bec3c6;stroke-width:.85378;stroke-linecap:butt;stroke-linejoin:miter;stroke-dasharray:none;stroke-opacity:1" d="m 64.18276,262.07312 -2e-6,15.71745" id="path369" transform="matrix(40.994174,0,0,40.994174,1.00188,-10010.758)"/>
      <path style="font-variation-settings:'wdth' 70,'wght' 600;display:inline;fill:none;fill-opacity:1;stroke:#bec3c6;stroke-width:.85378;stroke-linecap:butt;stroke-linejoin:miter;stroke-dasharray:none;stroke-opacity:1" d="m 113.36711,262.80493 h 10.34355" id="path378" transform="matrix(40.994174,0,0,40.994174,1.00188,-10010.758)"/>
      <path style="font-variation-settings:'wdth' 70,'wght' 600;display:inline;fill:none;fill-opacity:1;stroke:#bec3c6;stroke-width:.85378;stroke-linecap:butt;stroke-linejoin:miter;stroke-dasharray:none;stroke-opacity:1" d="M 70.860906,257.0116 H 93.513227" id="path380" transform="matrix(40.994174,0,0,40.994174,1.00188,-10010.758)"/>
      <path style="font-variation-settings:'wdth' 70,'wght' 600;display:inline;fill:none;fill-opacity:1;stroke:#bec3c6;stroke-width:.85378;stroke-linecap:butt;stroke-linejoin:miter;stroke-dasharray:none;stroke-opacity:1" d="M 67.933655,257.01133 H 64.176442 V 244.86628" id="path381" transform="matrix(40.994174,0,0,40.994174,1.00188,-10010.758)"/>
      <path style="font-variation-settings:'wdth' 70,'wght' 600;display:inline;fill:none;fill-opacity:1;stroke:#bec3c6;stroke-width:.85378;stroke-linecap:butt;stroke-linejoin:miter;stroke-dasharray:none;stroke-opacity:1" d="m 96.440478,257.0116 h 5.889362" id="path383" transform="matrix(40.994174,0,0,40.994174,1.00188,-10010.758)"/>
      <path style="font-variation-settings:'wdth' 70,'wght' 600;display:inline;fill:none;fill-opacity:1;stroke:#bec3c6;stroke-width:.85378;stroke-linecap:butt;stroke-linejoin:miter;stroke-dasharray:none;stroke-opacity:1" d="m 105.2571,257.0116 h 6.25359" id="path384" transform="matrix(40.994174,0,0,40.994174,1.00188,-10010.758)"/>
      <path style="font-variation-settings:'wdth' 70,'wght' 600;display:inline;fill:none;fill-opacity:1;stroke:#bec3c6;stroke-width:.85378;stroke-linecap:butt;stroke-linejoin:miter;stroke-dasharray:none;stroke-opacity:1" d="m 114.43794,257.0116 h 1.91044" id="path385" transform="matrix(40.994174,0,0,40.994174,1.00188,-10010.758)"/>
      <path style="font-variation-settings:'wdth' 70,'wght' 600;display:inline;fill:none;fill-opacity:1;stroke:#bec3c6;stroke-width:.85378;stroke-linecap:butt;stroke-linejoin:miter;stroke-dasharray:none;stroke-opacity:1" d="m 119.27563,257.0116 h 4.53968" id="path386" transform="matrix(40.994174,0,0,40.994174,1.00188,-10010.758)"/>
      <path style="font-variation-settings:'wdth' 70,'wght' 600;display:inline;fill:none;fill-opacity:1;stroke:#bec3c6;stroke-width:.243937;stroke-linecap:butt;stroke-linejoin:miter;stroke-dasharray:none;stroke-opacity:1" d="M 90.530316,244.86628 V 257.0116" id="path389" transform="matrix(40.994174,0,0,40.994174,1.00188,-10010.758)"/>
      <path style="font-variation-settings:'wdth' 70,'wght' 600;display:inline;fill:none;fill-opacity:1;stroke:#bec3c6;stroke-width:10;stroke-linecap:butt;stroke-linejoin:miter;stroke-dasharray:none;stroke-opacity:1" d="M 4072.242,27.350926 V 525.22025" id="path390"/>
      <path style="font-variation-settings:'wdth' 70,'wght' 600;display:inline;fill:none;fill-opacity:1;stroke:#bec3c6;stroke-width:.609843;stroke-linecap:butt;stroke-linejoin:miter;stroke-dasharray:none;stroke-opacity:1" d="m 56.159747,277.70282 v -1.35087" id="path391" transform="matrix(40.994174,0,0,40.994174,1.00188,-10010.758)"/>
      <path style="font-variation-settings:'wdth' 70,'wght' 600;display:inline;fill:none;fill-opacity:1;stroke:#bec3c6;stroke-width:.243937;stroke-linecap:butt;stroke-linejoin:miter;stroke-dasharray:none;stroke-opacity:1" d="M 108.27429,244.86628 V 257.0116" id="path392" transform="matrix(40.994174,0,0,40.994174,1.00188,-10010.758)"/>
      <path style="font-variation-settings:'wdth' 70,'wght' 600;display:inline;fill:none;fill-opacity:1;stroke:#bec3c6;stroke-width:.243937;stroke-linecap:butt;stroke-linejoin:miter;stroke-dasharray:none;stroke-opacity:1" d="M 115.67342,244.86672 V 257.0116" id="path393" transform="matrix(40.994174,0,0,40.994174,1.00188,-10010.758)"/>
      <path style="font-variation-settings:'wdth' 70,'wght' 600;display:inline;fill:none;fill-opacity:1;stroke:#bec3c6;stroke-width:10;stroke-linecap:butt;stroke-linejoin:miter;stroke-dasharray:none;stroke-opacity:1" d="M 5072.4182,1060.307 H 4691.7131" id="path397"/>
      <path style="font-variation-settings:'wdth' 70,'wght' 600;display:inline;fill:none;fill-opacity:1;stroke:#bec3c6;stroke-width:10;stroke-linecap:butt;stroke-linejoin:miter;stroke-dasharray:none;stroke-opacity:1" d="M 4158.7363,762.71303 V 1373.1562" id="path398"/>
      <path style="font-variation-settings:'wdth' 70,'wght' 600;display:inline;fill:none;fill-opacity:1;stroke:#bec3c6;stroke-width:10;stroke-linecap:butt;stroke-linejoin:miter;stroke-dasharray:none;stroke-opacity:1" d="M 4443.7131,762.71303 V 1172.1541" id="path399"/>
      <path style="font-variation-settings:'wdth' 70,'wght' 600;display:inline;fill:none;fill-opacity:1;stroke:#bec3c6;stroke-width:1.09772;stroke-linecap:butt;stroke-linejoin:miter;stroke-dasharray:none;stroke-opacity:1" d="M 71.749881,277.70195 H 104.93267" id="path400" transform="matrix(40.994174,0,0,40.994174,1.00188,-10010.758)"/>
      <path style="font-variation-settings:'wdth' 70,'wght' 600;display:inline;fill:none;fill-opacity:1;stroke:#bec3c6;stroke-width:1.09772;stroke-linecap:butt;stroke-linejoin:miter;stroke-dasharray:none;stroke-opacity:1" d="m 107.85992,277.70195 h 15.85074 v -1.91338" id="path401" transform="matrix(40.994174,0,0,40.994174,1.00188,-10010.758)"/>
      <path style="font-variation-settings:'wdth' 70,'wght' 600;display:inline;fill:none;fill-opacity:1;stroke:#bec3c6;stroke-width:10;stroke-linecap:butt;stroke-linejoin:miter;stroke-dasharray:none;stroke-opacity:1" d="m 2584.5682,463.09989 h 50.9674" id="path407"/>
      <path style="font-variation-settings:'wdth' 70,'wght' 600;display:inline;fill:none;fill-opacity:1;stroke:#bec3c6;stroke-width:.609843;stroke-linecap:butt;stroke-linejoin:miter;stroke-dasharray:none;stroke-opacity:1" d="m 61.445598,266.52161 h 2.005677 v 5.48057 h -7.291502 v -5.48057 h 1.931258" id="path412" transform="matrix(40.994174,0,0,40.994174,1.00188,-10010.758)"/>
      <path style="font-variation-settings:'wdth' 70,'wght' 600;display:inline;fill:none;fill-opacity:1;stroke:#bec3c6;stroke-width:25;stroke-linecap:butt;stroke-linejoin:miter;stroke-dasharray:none;stroke-opacity:1" d="m 2303.2243,1139.7504 v 106.2941" id="path413"/>
      <path style="font-variation-settings:'wdth' 70,'wght' 600;display:inline;fill:none;fill-opacity:1;stroke:#bec3c6;stroke-width:1.09448;stroke-linecap:butt;stroke-linejoin:miter;stroke-dasharray:none;stroke-opacity:1" d="M 123.65149,15.693264 V 2.1554125 H 59.611097 V 12.875136" id="path414" transform="matrix(41.115504,0,0,41.115504,-11.575065,-61.269892)"/>
      <path style="font-variation-settings:'wdth' 70,'wght' 600;display:inline;fill:none;fill-opacity:1;stroke:#bec3c6;stroke-width:1.09448;stroke-linecap:butt;stroke-linejoin:miter;stroke-dasharray:none;stroke-opacity:1" d="M 50.12517,34.52338 H 47.74319 V 7.0867472" id="path415" transform="matrix(41.115504,0,0,41.115504,-11.575065,-61.269892)"/>
      <path style="font-variation-settings:'wdth' 70,'wght' 600;display:inline;fill:none;fill-opacity:1;stroke:#bec3c6;stroke-width:35;stroke-linecap:butt;stroke-linejoin:miter;stroke-dasharray:none;stroke-opacity:1" d="M 2632.1211,762.71303 H 2785.886" id="path416"/>
      <path style="font-variation-settings:'wdth' 70,'wght' 600;display:inline;fill:none;fill-opacity:1;stroke:#bec3c6;stroke-width:10;stroke-linecap:butt;stroke-linejoin:miter;stroke-dasharray:none;stroke-opacity:1" d="M 4691.7131,762.71303 V 1373.4041" id="path424"/>
      <path style="font-variation-settings:'wdth' 70,'wght' 600;display:inline;fill:none;fill-opacity:1;stroke:#bec3c6;stroke-width:10;stroke-linecap:butt;stroke-linejoin:miter;stroke-dasharray:none;stroke-opacity:1" d="m 4443.7131,1268.3827 v 105.0214" id="path425"/>
      <path style="font-variation-settings:'wdth' 70,'wght' 600;display:inline;fill:none;fill-opacity:1;stroke:#bec3c6;stroke-width:45.0001;stroke-linecap:butt;stroke-linejoin:miter;stroke-dasharray:none;stroke-opacity:1" d="M 5072.4182,1114.4664 V 1001.9666" id="path426"/>
      <path style="font-variation-settings:'wdth' 70,'wght' 600;display:inline;fill:none;fill-opacity:1;stroke:#bec3c6;stroke-width:45.0001;stroke-linecap:butt;stroke-linejoin:miter;stroke-dasharray:none;stroke-opacity:1" d="M 5072.4182,821.4664 V 703.96669" id="path427"/>
      <path style="font-variation-settings:'wdth' 70,'wght' 600;display:inline;fill:none;fill-opacity:1;stroke:#bec3c6;stroke-width:10;stroke-linecap:butt;stroke-linejoin:miter;stroke-dasharray:none;stroke-opacity:1" d="m 2459.8672,463.09989 h 33.6684" id="path428"/>
      <path style="font-variation-settings:'wdth' 70,'wght' 600;display:inline;fill:none;fill-opacity:1;stroke:#bec3c6;stroke-width:10;stroke-linecap:butt;stroke-linejoin:miter;stroke-dasharray:none;stroke-opacity:1" d="m 2317.3672,456.59989 h 121.998" id="path429"/>
      <path style="font-variation-settings:'wdth' 70,'wght' 600;display:inline;fill:none;fill-opacity:1;stroke:#bec3c6;stroke-width:10;stroke-linecap:butt;stroke-linejoin:miter;stroke-dasharray:none;stroke-opacity:1" d="m 2317.3672,244.47486 h 121.998" id="path430"/>
      <path style="font-variation-settings:'wdth' 70,'wght' 600;display:inline;fill:none;fill-opacity:1;stroke:#bec3c6;stroke-width:10;stroke-linecap:butt;stroke-linejoin:miter;stroke-dasharray:none;stroke-opacity:1" d="m 1951.4103,456.59989 h 162.624" id="path431"/>
      <path style="font-variation-settings:'wdth' 70,'wght' 600;display:inline;fill:none;fill-opacity:1;stroke:#bec3c6;stroke-width:10;stroke-linecap:butt;stroke-linejoin:miter;stroke-dasharray:none;stroke-opacity:1" d="m 1951.4103,244.47486 h 162.624" id="path432"/>
      <path style="font-variation-settings:'wdth' 70,'wght' 600;display:inline;fill:none;fill-opacity:1;stroke:#bec3c6;stroke-width:1.09448;stroke-linecap:butt;stroke-linejoin:miter;stroke-dasharray:none;stroke-opacity:1" d="M 66.036158,34.894613 H 56.299915 V 34.52338 h -3.256133" id="path720" transform="matrix(41.115504,0,0,41.115504,-11.575065,-61.269892)"/>
    </g>
    <g id="icons_0" transform="matrix(0.02439371,0,0,0.02439371,-0.02443957,244.19953)">
      <g id="g422" style="filter:url(#filter65)">
        <rect style="font-variation-settings:'wdth' 70,'wght' 600;fill:none;fill-opacity:1;stroke:#d6d7de;stroke-width:4.78791;stroke-linejoin:miter;stroke-dasharray:none;stroke-opacity:1" id="rect421" width="95.212135" height="95.212151" x="2405.0667" y="979.80487" ry="9.1410179"/>
        <path d="m 2427.7505,1062.6135 h 12.6169 v -23.8318 h 6.2306 v -17.757 c 0,-2.6337 -0.8992,-4.8497 -2.6976,-6.6481 -1.7985,-1.7985 -4.0665,-2.6977 -6.804,-2.6977 h -6.2306 c -2.7375,0 -4.9794,0.8992 -6.7258,2.6977 -1.7466,1.7984 -2.6199,4.0144 -2.6199,6.6481 v 17.757 h 6.2304 z m 6.1958,-54.9845 c 2.1478,0 3.9626,-0.7033 5.4445,-2.1098 1.4819,-1.4064 2.2228,-3.2356 2.2228,-5.4875 0,-2.148 -0.7292,-3.93697 -2.1877,-5.3669 -1.4583,-1.42987 -3.2615,-2.1448 -5.4096,-2.1448 -2.1481,0 -3.937,0.70327 -5.3669,2.1098 -1.4299,1.4064 -2.1449,3.18367 -2.1449,5.3318 0,2.2518 0.7033,4.0926 2.11,5.5225 1.4064,1.4299 3.1837,2.1449 5.3318,2.1449 z m 28.3838,9.9689 h 20.0934 l -9.9688,-16.1994 z m 10.1246,35.6697 9.9688,-16.1993 h -20.0934 z" id="path422" style="fill:#d5d6dd;fill-opacity:1;stroke-width:0;stroke-dasharray:none"/>
      </g>
    </g>
    <path id="roomNames_0" d="m 391.80469,87.866644 q -6.528,0 -10.56,-5.44 -3.968,-5.44 -3.968,-15.808 0,-10.432 3.968,-15.68 4.032,-5.248 10.56,-5.248 6.528,0 10.496,5.312 4.032,5.248 4.032,15.616 0,10.368 -4.032,15.808 -3.968,5.44 -10.496,5.44 z m 0,-7.296 q 1.6,0 2.88,-1.152 1.28,-1.216 1.984,-4.224 0.768,-3.072 0.768,-8.576 0,-5.568 -0.768,-8.512 -0.704,-2.944 -1.984,-4.032 -1.28,-1.088 -2.88,-1.088 -1.6,0 -2.88,1.088 -1.28,1.088 -2.048,4.032 -0.704,2.944 -0.704,8.512 0,5.504 0.704,8.576 0.768,3.008 2.048,4.224 1.28,1.152 2.88,1.152 z m 19.26399,6.528 v -5.824 q 5.12,-4.544 9.088,-8.512 4.032,-3.968 6.272,-7.36 2.304,-3.392 2.304,-6.208 0,-3.008 -1.536,-4.544 -1.536,-1.6 -4.224,-1.6 -2.176,0 -3.968,1.28 -1.728,1.216 -3.264,2.88 l -4.928,-4.864 q 2.944,-3.328 6.016,-4.992 3.136,-1.664 7.424,-1.664 3.968,0 6.976,1.6 3.072,1.6 4.736,4.48 1.728,2.88 1.728,6.784 0,3.648 -1.984,7.168 -1.92,3.456 -5.12,6.912 -3.2,3.456 -6.784,7.04 1.536,-0.192 3.456,-0.32 1.92,-0.192 3.328,-0.192 h 9.088 v 7.936 z m 33.792,0 v -5.824 q 5.12,-4.544 9.088,-8.512 4.032,-3.968 6.272,-7.36 2.304,-3.392 2.304,-6.208 0,-3.008 -1.536,-4.544 -1.536,-1.6 -4.224,-1.6 -2.176,0 -3.968,1.28 -1.728,1.216 -3.264,2.88 l -4.928,-4.864 q 2.944,-3.328 6.016,-4.992 3.136,-1.664 7.424,-1.664 3.968,0 6.976,1.6 3.072,1.6 4.736,4.48 1.728,2.88 1.728,6.784 0,3.648 -1.984,7.168 -1.92,3.456 -5.12,6.912 -3.2,3.456 -6.784,7.04 1.536,-0.192 3.456,-0.32 1.92,-0.192 3.328,-0.192 h 9.088 v 7.936 z M 389.62865,7.0986438 v -5.696 l 18.432,-28.0959998 h -16.704 v -7.936 h 28.288 v 5.696 l -18.432,28.09599979 h 18.624 V 7.0986438 Z m 53.056,0.768 q -4.096,0 -7.232,-1.088 -3.072,-1.152 -5.184,-3.52 -2.112,-2.43200001 -3.2,-6.144 -1.088,-3.712 -1.088,-8.8319998 v -22.912 h 9.472 v 23.872 q 0,3.9039998 0.832,6.2079998 0.832,2.24 2.432,3.264 1.6,1.02399999 3.968,1.02399999 2.304,0 3.968,-1.02399999 1.664,-1.024 2.496,-3.264 0.896,-2.304 0.896,-6.2079998 v -23.872 h 9.088 v 22.912 q 0,5.1199998 -1.088,8.8319998 -1.024,3.71199999 -3.136,6.144 -2.048,2.368 -5.12,3.52 -3.072,1.088 -7.104,1.088 z M 2205.6998,-65.04912 q -9.792,0 -15.84,-8.16 -5.952,-8.16 -5.952,-23.712 0,-15.648 5.952,-23.52 6.048,-7.872 15.84,-7.872 9.792,0 15.744,7.968 6.048,7.872 6.048,23.424 0,15.552 -6.048,23.712 -5.952,8.16 -15.744,8.16 z m 0,-10.944 q 2.4,0 4.32,-1.728 1.92,-1.824 2.976,-6.336 1.152,-4.608 1.152,-12.864 0,-8.352 -1.152,-12.768 -1.056,-4.416 -2.976,-6.048 -1.92,-1.632 -4.32,-1.632 -2.4,0 -4.32,1.632 -1.92,1.632 -3.072,6.048 -1.056,4.416 -1.056,12.768 0,8.256 1.056,12.864 1.152,4.512 3.072,6.336 1.92,1.728 4.32,1.728 z m 32.064,9.792 v -11.424 h 13.248 v -35.232 h -11.424 v -8.736 q 4.992,-0.96 8.448,-2.304 3.552,-1.344 6.72,-3.264 h 10.368 v 49.536 h 11.424 v 11.424 z m 70.944,1.152 q -4.416,0 -8.544,-1.728 -4.128,-1.728 -7.392,-5.376 -3.264,-3.648 -5.184,-9.312 -1.92,-5.76 -1.92,-13.824 0,-8.544 2.016,-14.784 2.016,-6.24 5.472,-10.272 3.456,-4.032 7.872,-5.952 4.416,-2.016 9.312,-2.016 6.048,0 10.464,2.208 4.416,2.112 7.296,5.088 l -7.392,8.448 q -1.632,-1.728 -4.224,-2.976 -2.592,-1.344 -5.28,-1.344 -3.456,0 -6.432,2.016 -2.88,2.016 -4.608,6.816 -1.632,4.704 -1.632,12.768 0,7.584 1.344,11.904 1.44,4.224 3.744,6.048 2.304,1.728 4.8,1.728 2.112,0 3.84,-1.056 1.728,-1.056 2.784,-3.168 1.056,-2.208 1.056,-5.664 0,-3.264 -1.056,-5.184 -1.056,-1.92 -2.88,-2.784 -1.728,-0.864 -4.032,-0.864 -2.4,0 -4.992,1.44 -2.496,1.44 -4.512,5.088 l -0.672,-9.216 q 2.4,-3.552 6.144,-5.376 3.744,-1.92 6.72,-1.92 5.184,0 9.312,2.016 4.128,2.016 6.432,6.24 2.4,4.128 2.4,10.56 0,6.336 -2.784,10.944 -2.688,4.608 -7.296,7.104 -4.608,2.4 -10.176,2.4 z m -106.2721,-121.152 v -8.544 l 27.648,-42.144 h -25.056 v -11.904 h 42.432 v 8.544 l -27.648,42.144 h 27.936 v 11.904 z m 79.584,1.152 q -6.144,0 -10.848,-1.632 -4.608,-1.728 -7.776,-5.28 -3.168,-3.648 -4.8,-9.216 -1.632,-5.568 -1.632,-13.248 v -34.368 h 14.208 v 35.808 q 0,5.856 1.248,9.312 1.248,3.36 3.648,4.896 2.4,1.536 5.952,1.536 3.456,0 5.952,-1.536 2.496,-1.536 3.744,-4.896 1.344,-3.456 1.344,-9.312 v -35.808 h 13.632 v 34.368 q 0,7.68 -1.632,13.248 -1.536,5.568 -4.704,9.216 -3.072,3.552 -7.68,5.28 -4.608,1.632 -10.656,1.632 z m 190.7442,120 q -9.792,0 -15.84,-8.16 -5.952,-8.16 -5.952,-23.712 0,-15.648 5.952,-23.52 6.048,-7.872 15.84,-7.872 9.792,0 15.744,7.968 6.048,7.872 6.048,23.424 0,15.552 -6.048,23.712 -5.952,8.16 -15.744,8.16 z m 0,-10.944 q 2.4,0 4.32,-1.728 1.92,-1.824 2.976,-6.336 1.152,-4.608 1.152,-12.864 0,-8.352 -1.152,-12.768 -1.056,-4.416 -2.976,-6.048 -1.92,-1.632 -4.32,-1.632 -2.4,0 -4.32,1.632 -1.92,1.632 -3.072,6.048 -1.056,4.416 -1.056,12.768 0,8.256 1.056,12.864 1.152,4.512 3.072,6.336 1.92,1.728 4.32,1.728 z m 32.064,9.792 v -11.424 h 13.248 v -35.232 h -11.424 v -8.736 q 4.992,-0.96 8.448,-2.304 3.552,-1.344 6.72,-3.264 h 10.368 v 49.536 h 11.424 v 11.424 z m 67.68,1.152 q -4.992,0 -9.024,-1.152 -3.936,-1.152 -7.008,-3.072 -3.072,-1.92 -5.472,-4.32 l 6.336,-8.928 q 2.784,2.496 6.048,4.32 3.264,1.728 7.104,1.728 3.072,0 5.376,-1.056 2.304,-1.152 3.552,-3.264 1.344,-2.112 1.344,-5.184 0,-4.608 -2.688,-7.008 -2.688,-2.4 -6.912,-2.4 -2.592,0 -4.416,0.672 -1.824,0.672 -4.608,2.4 l -6.336,-4.032 1.728,-30.816 h 34.56 v 11.904 h -22.368 l -1.056,11.424 q 1.824,-0.768 3.36,-1.056 1.536,-0.384 3.456,-0.384 5.28,0 9.696,2.016 4.416,2.016 7.008,6.24 2.688,4.224 2.688,10.656 0,6.816 -3.168,11.616 -3.072,4.704 -8.16,7.2 -5.088,2.496 -11.04,2.496 z m -103.0081,-121.152 v -8.544 l 27.648,-42.144 h -25.056 v -11.904 h 42.432 v 8.544 l -27.648,42.144 h 27.936 v 11.904 z m 79.584,1.152 q -6.144,0 -10.848,-1.632 -4.608,-1.728 -7.776,-5.28 -3.168,-3.648 -4.8,-9.216 -1.632,-5.568 -1.632,-13.248 v -34.368 h 14.208 v 35.808 q 0,5.856 1.248,9.312 1.248,3.36 3.648,4.896 2.4,1.536 5.952,1.536 3.456,0 5.952,-1.536 2.496,-1.536 3.744,-4.896 1.344,-3.456 1.344,-9.312 v -35.808 h 13.632 v 34.368 q 0,7.68 -1.632,13.248 -1.536,5.568 -4.704,9.216 -3.072,3.552 -7.68,5.28 -4.608,1.632 -10.656,1.632 z m 236.8809,268.7969 q -9.792,0 -15.84,-8.16 -5.952,-8.16 -5.952,-23.712 0,-15.648 5.952,-23.52 6.048,-7.872 15.84,-7.872 9.792,0 15.744,7.968 6.048,7.872 6.048,23.424 0,15.552 -6.048,23.712 -5.952,8.16 -15.744,8.16 z m 0,-10.944 q 2.4,0 4.32,-1.728 1.92,-1.824 2.976,-6.336 1.152,-4.608 1.152,-12.864 0,-8.352 -1.152,-12.768 -1.056,-4.416 -2.976,-6.048 -1.92,-1.632 -4.32,-1.632 -2.4,0 -4.32,1.632 -1.92,1.632 -3.072,6.048 -1.056,4.416 -1.056,12.768 0,8.256 1.056,12.864 1.152,4.512 3.072,6.336 1.92,1.728 4.32,1.728 z m 32.064,9.792 v -11.424 h 13.248 v -35.232 h -11.424 v -8.736 q 4.992,-0.96 8.448,-2.304 3.552,-1.344 6.72,-3.264 h 10.368 v 49.536 h 11.424 v 11.424 z m 72.192,0 v -35.232 q 0,-2.88 0.192,-6.816 0.288,-3.936 0.384,-6.816 h -0.384 q -1.152,2.496 -2.4,5.088 -1.248,2.496 -2.592,5.184 l -8.064,13.248 h 33.024 v 10.752 h -46.56 v -9.696 l 22.272,-36.672 h 17.28 v 60.96 z m -107.5201,-120 v -8.544 l 27.648,-42.144 h -25.056 v -11.904 h 42.432 v 8.544 l -27.648,42.144 h 27.936 v 11.904 z m 79.584,1.152 q -6.144,0 -10.848,-1.632 -4.608,-1.728 -7.776,-5.28 -3.168,-3.648 -4.8,-9.216 -1.632,-5.568 -1.632,-13.248 v -34.368 h 14.208 v 35.808 q 0,5.856 1.248,9.312 1.248,3.36 3.648,4.896 2.4,1.536 5.952,1.536 3.456,0 5.952,-1.536 2.496,-1.536 3.744,-4.896 1.344,-3.456 1.344,-9.312 v -35.808 h 13.632 v 34.368 q 0,7.68 -1.632,13.248 -1.536,5.568 -4.704,9.216 -3.072,3.552 -7.68,5.28 -4.608,1.632 -10.656,1.632 z m -75.1199,-185.3455 q -9.792,0 -15.84,-8.16 -5.952,-8.16 -5.952,-23.712 0,-15.648 5.952,-23.52 6.048,-7.872 15.84,-7.872 9.792,0 15.744,7.968 6.048,7.872 6.048,23.424 0,15.552 -6.048,23.712 -5.952,8.16 -15.744,8.16 z m 0,-10.944 q 2.4,0 4.32,-1.728 1.92,-1.824 2.976,-6.336 1.152,-4.608 1.152,-12.864 0,-8.352 -1.152,-12.768 -1.056,-4.416 -2.976,-6.048 -1.92,-1.632 -4.32,-1.632 -2.4,0 -4.32,1.632 -1.92,1.632 -3.072,6.048 -1.056,4.416 -1.056,12.768 0,8.256 1.056,12.864 1.152,4.512 3.072,6.336 1.92,1.728 4.32,1.728 z m 32.064,9.792 v -11.424 h 13.248 v -35.232 h -11.424 v -8.736 q 4.992,-0.96 8.448,-2.304 3.552,-1.344 6.72,-3.264 h 10.368 v 49.536 h 11.424 v 11.424 z m 67.296,1.152 q -4.896,0 -8.928,-1.152 -3.936,-1.056 -7.008,-2.976 -3.072,-1.92 -5.28,-4.512 l 6.528,-8.928 q 2.784,2.688 6.144,4.416 3.36,1.728 7.2,1.728 4.416,0 7.104,-1.824 2.784,-1.92 2.784,-5.376 0,-2.688 -1.344,-4.608 -1.344,-2.016 -4.896,-3.072 -3.456,-1.056 -10.176,-1.056 v -9.984 q 5.472,0 8.64,-1.056 3.168,-1.056 4.416,-2.88 1.344,-1.824 1.344,-4.224 0,-3.264 -2.016,-4.992 -1.92,-1.728 -5.472,-1.728 -3.264,0 -5.952,1.44 -2.592,1.344 -5.472,3.936 l -7.104,-8.64 q 4.224,-3.648 8.928,-5.664 4.704,-2.112 10.272,-2.112 6.24,0 10.944,2.016 4.8,1.92 7.392,5.664 2.688,3.648 2.688,9.024 0,4.704 -2.688,8.064 -2.592,3.36 -7.488,5.472 v 0.384 q 3.456,1.056 6.24,3.072 2.784,1.92 4.32,4.896 1.536,2.976 1.536,6.912 0,5.664 -3.168,9.696 -3.072,3.936 -8.256,6.048 -5.088,2.016 -11.232,2.016 z m -102.6241,-121.152 v -8.544 l 27.648,-42.144 h -25.056 v -11.904 h 42.432 v 8.544 l -27.648,42.144 h 27.936 v 11.904 z m 79.584,1.152 q -6.144,0 -10.848,-1.632 -4.608,-1.728 -7.776,-5.28 -3.168,-3.648 -4.8,-9.216 -1.632,-5.568 -1.632,-13.248 v -34.368 h 14.208 v 35.808 q 0,5.856 1.248,9.312 1.248,3.36 3.648,4.896 2.4,1.536 5.952,1.536 3.456,0 5.952,-1.536 2.496,-1.536 3.744,-4.896 1.344,-3.456 1.344,-9.312 v -35.808 h 13.632 v 34.368 q 0,7.68 -1.632,13.248 -1.536,5.568 -4.704,9.216 -3.072,3.552 -7.68,5.28 -4.608,1.632 -10.656,1.632 z m -62.1984,-515.23346 q -9.792,0 -15.84,-8.16 -5.952,-8.16 -5.952,-23.712 0,-15.648 5.952,-23.52 6.048,-7.872 15.84,-7.872 9.792,0 15.744,7.968 6.048,7.872 6.048,23.424 0,15.552 -6.048,23.712 -5.952,8.16 -15.744,8.16 z m 0,-10.944 q 2.4,0 4.32,-1.728 1.92,-1.824 2.976,-6.336 1.152,-4.608 1.152,-12.864 0,-8.352 -1.152,-12.768 -1.056,-4.416 -2.976,-6.048 -1.92,-1.632 -4.32,-1.632 -2.4,0 -4.32,1.632 -1.92,1.632 -3.072,6.048 -1.056,4.416 -1.056,12.768 0,8.256 1.056,12.864 1.152,4.512 3.072,6.336 1.92,1.728 4.32,1.728 z m 32.064,9.792 v -11.424 h 13.248 v -35.232 h -11.424 v -8.736 q 4.992,-0.96 8.448,-2.304 3.552,-1.344 6.72,-3.264 h 10.368 v 49.536 h 11.424 v 11.424 z m 47.52,0 v -8.736 q 7.68,-6.816 13.632,-12.768 6.048,-5.952 9.408,-11.04 3.456,-5.088 3.456,-9.312 0,-4.512 -2.304,-6.816 -2.304,-2.4 -6.336,-2.4 -3.264,0 -5.952,1.92 -2.592,1.824 -4.896,4.32 l -7.392,-7.296 q 4.416,-4.992 9.024,-7.488 4.704,-2.496 11.136,-2.496 5.952,0 10.464,2.4 4.608,2.4 7.104,6.72 2.592,4.32 2.592,10.176 0,5.472 -2.976,10.752 -2.88,5.184 -7.68,10.368 -4.8,5.184 -10.176,10.56 2.304,-0.288 5.184,-0.48 2.88,-0.288 4.992,-0.288 h 13.632 v 11.904 z m -82.8481,-120 v -8.544 l 27.648,-42.14402 h -25.056 v -11.904 h 42.432 v 8.544 l -27.648,42.14402 h 27.936 v 11.904 z m 79.584,1.152 q -6.144,0 -10.848,-1.632 -4.608,-1.728 -7.776,-5.28 -3.168,-3.648 -4.8,-9.216 -1.632,-5.568 -1.632,-13.24802 v -34.368 h 14.208 v 35.808 q 0,5.85602 1.248,9.31202 1.248,3.36 3.648,4.896 2.4,1.536 5.952,1.536 3.456,0 5.952,-1.536 2.496,-1.536 3.744,-4.896 1.344,-3.456 1.344,-9.31202 v -35.808 h 13.632 v 34.368 q 0,7.68002 -1.632,13.24802 -1.536,5.568 -4.704,9.216 -3.072,3.552 -7.68,5.28 -4.608,1.632 -10.656,1.632 z m -380.9893,119.99095 q -9.792,0 -15.84,-8.16 -5.952,-8.16 -5.952,-23.712 0,-15.648 5.952,-23.52 6.048,-7.872 15.84,-7.872 9.792,0 15.744,7.968 6.048,7.872 6.048,23.424 0,15.552 -6.048,23.712 -5.952,8.16 -15.744,8.16 z m 0,-10.944 q 2.4,0 4.32,-1.728 1.92,-1.824 2.976,-6.336 1.152,-4.608 1.152,-12.864 0,-8.352 -1.152,-12.768 -1.056,-4.416 -2.976,-6.048 -1.92,-1.632 -4.32,-1.632 -2.4,0 -4.32,1.632 -1.92,1.632 -3.072,6.048 -1.056,4.416 -1.056,12.768 0,8.256 1.056,12.864 1.152,4.512 3.072,6.336 1.92,1.728 4.32,1.728 z m 32.064,9.792 v -11.424 h 13.248 v -35.232 h -11.424 v -8.736 q 4.992,-0.96 8.448,-2.304 3.552,-1.344 6.72,-3.264 h 10.368 v 49.536 h 11.424 v 11.424 z m 50.688,0 v -11.424 h 13.248 v -35.232 h -11.424 v -8.736 q 4.992,-0.96 8.448,-2.304 3.552,-1.344 6.72,-3.264 h 10.368 v 49.536 h 11.424 v 11.424 z m -86.0161,-120 v -8.544 l 27.648,-42.14397 h -25.056 v -11.904 h 42.432 v 8.544 l -27.648,42.14397 h 27.936 v 11.904 z m 79.584,1.152 q -6.144,0 -10.848,-1.632 -4.608,-1.728 -7.776,-5.28 -3.168,-3.648 -4.8,-9.216 -1.632,-5.568 -1.632,-13.24797 v -34.368 h 14.208 v 35.808 q 0,5.85597 1.248,9.31197 1.248,3.36 3.648,4.896 2.4,1.536 5.952,1.536 3.456,0 5.952,-1.536 2.496,-1.536 3.744,-4.896 1.344,-3.456 1.344,-9.31197 v -35.808 h 13.632 v 34.368 q 0,7.67997 -1.632,13.24797 -1.536,5.568 -4.704,9.216 -3.072,3.552 -7.68,5.28 -4.608,1.632 -10.656,1.632 z m -412.4843,120.00905 q -9.792,0 -15.84,-8.16 -5.952,-8.16 -5.952,-23.712 0,-15.648 5.952,-23.52 6.048,-7.872 15.84,-7.872 9.792,0 15.744,7.968 6.048,7.872 6.048,23.424 0,15.552 -6.048,23.712 -5.952,8.16 -15.744,8.16 z m 0,-10.944 q 2.4,0 4.32,-1.728 1.92,-1.824 2.976,-6.336 1.152,-4.608 1.152,-12.864 0,-8.352 -1.152,-12.768 -1.056,-4.416 -2.976,-6.048 -1.92,-1.632 -4.32,-1.632 -2.4,0 -4.32,1.632 -1.92,1.632 -3.072,6.048 -1.056,4.416 -1.056,12.768 0,8.256 1.056,12.864 1.152,4.512 3.072,6.336 1.92,1.728 4.32,1.728 z m 32.064,9.792 v -11.424 h 13.248 v -35.232 h -11.424 v -8.736 q 4.992,-0.96 8.448,-2.304 3.552,-1.344 6.72,-3.264 h 10.368 v 49.536 h 11.424 v 11.424 z m 69.312,1.152 q -9.792,0 -15.84,-8.16 -5.952,-8.16 -5.952,-23.712 0,-15.648 5.952,-23.52 6.048,-7.872 15.84,-7.872 9.792,0 15.744,7.968 6.048,7.872 6.048,23.424 0,15.552 -6.048,23.712 -5.952,8.16 -15.744,8.16 z m 0,-10.944 q 2.4,0 4.32,-1.728 1.92,-1.824 2.976,-6.336 1.152,-4.608 1.152,-12.864 0,-8.352 -1.152,-12.768 -1.056,-4.416 -2.976,-6.048 -1.92,-1.632 -4.32,-1.632 -2.4,0 -4.32,1.632 -1.92,1.632 -3.072,6.048 -1.056,4.416 -1.056,12.768 0,8.256 1.056,12.864 1.152,4.512 3.072,6.336 1.92,1.728 4.32,1.728 z m -104.6401,-110.208 v -8.544 l 27.648,-42.14402 h -25.056 v -11.904 h 42.432 v 8.544 l -27.648,42.14402 h 27.936 v 11.904 z m 79.584,1.152 q -6.144,0 -10.848,-1.632 -4.608,-1.728 -7.776,-5.28 -3.168,-3.648 -4.8,-9.216 -1.632,-5.568 -1.632,-13.24802 v -34.368 h 14.208 v 35.808 q 0,5.85602 1.248,9.31202 1.248,3.36 3.648,4.896 2.4,1.536 5.952,1.536 3.456,0 5.952,-1.536 2.496,-1.536 3.744,-4.896 1.344,-3.456 1.344,-9.31202 v -35.808 h 13.632 v 34.368 q 0,7.68002 -1.632,13.24802 -1.536,5.568 -4.704,9.216 -3.072,3.552 -7.68,5.28 -4.608,1.632 -10.656,1.632 z m -1771.00351,43.00382 q -4.896,0 -7.92,-4.08 -2.976,-4.08 -2.976,-11.856 0,-7.824 2.976,-11.76 3.024,-3.936 7.92,-3.936 4.896,0 7.872,3.984 3.024,3.936 3.024,11.712 0,7.776 -3.024,11.856 -2.976,4.08 -7.872,4.08 z m 0,-5.472 q 1.2,0 2.16,-0.864 0.96,-0.912 1.488,-3.168 0.576,-2.304 0.576,-6.432 0,-4.176 -0.576,-6.384 -0.528,-2.208 -1.488,-3.024 -0.96,-0.816 -2.16,-0.816 -1.2,0 -2.16,0.816 -0.96,0.816 -1.536,3.024 -0.528,2.208 -0.528,6.384 0,4.128 0.528,6.432 0.576,2.256 1.536,3.168 0.96,0.864 2.16,0.864 z m 25.34399,5.472 q -4.896,0 -7.92,-4.08 -2.976,-4.08 -2.976,-11.856 0,-7.824 2.976,-11.76 3.024,-3.936 7.92,-3.936 4.896,0 7.872,3.984 3.024,3.936 3.024,11.712 0,7.776 -3.024,11.856 -2.976,4.08 -7.872,4.08 z m 0,-5.472 q 1.2,0 2.16,-0.864 0.96,-0.912 1.488,-3.168 0.576,-2.304 0.576,-6.432 0,-4.176 -0.576,-6.384 -0.528,-2.208 -1.488,-3.024 -0.96,-0.816 -2.16,-0.816 -1.2,0 -2.16,0.816 -0.96,0.816 -1.536,3.024 -0.528,2.208 -0.528,6.384 0,4.128 0.528,6.432 0.576,2.256 1.536,3.168 0.96,0.864 2.16,0.864 z m 24.336,5.472 q -2.448,0 -4.464,-0.576 -1.968,-0.528 -3.504,-1.488 -1.536,-0.96 -2.64,-2.256 l 3.264,-4.464 q 1.392,1.344 3.072,2.208 1.68,0.864 3.6,0.864 2.208,0 3.552,-0.912 1.392,-0.96 1.392,-2.688 0,-1.344 -0.672,-2.304 -0.672,-1.008 -2.448,-1.536 -1.728,-0.528 -5.088,-0.528 v -4.992 q 2.736,0 4.32,-0.528 1.584,-0.528 2.208,-1.44 0.672,-0.912 0.672,-2.112 0,-1.632 -1.008,-2.496 -0.96,-0.864 -2.736,-0.864 -1.632,0 -2.976,0.72 -1.296,0.672 -2.736,1.968 l -3.552,-4.32 q 2.112,-1.824 4.464,-2.832 2.352,-1.056 5.136,-1.056 3.12,0 5.472,1.008 2.4,0.96 3.696,2.832 1.344,1.824 1.344,4.512 0,2.352 -1.344,4.032 -1.296,1.68 -3.744,2.736 v 0.192 q 1.728,0.528 3.12,1.536 1.392,0.96 2.16,2.448 0.768,1.488 0.768,3.456 0,2.832 -1.584,4.848 -1.536,1.968 -4.128,3.024 -2.544,1.008 -5.616,1.008 z m -51.31203,-60.576 v -4.272 l 13.824,-21.07204 h -12.528 v -5.952 h 21.216 v 4.272 l -13.824,21.072 h 13.968 v 5.95204 z m 39.79201,0.576 q -3.072,0 -5.424,-0.816 -2.304,-0.864 -3.888,-2.64 -1.584,-1.824 -2.4,-4.60804 -0.816,-2.784 -0.816,-6.624 v -17.184 h 7.104 v 17.904 q 0,2.928 0.624,4.656 0.624,1.68 1.824,2.448 1.2,0.76804 2.976,0.76804 1.728,0 2.976,-0.76804 1.248,-0.768 1.872,-2.448 0.672,-1.728 0.672,-4.656 v -17.904 h 6.816 v 17.184 q 0,3.84 -0.816,6.624 -0.768,2.78404 -2.352,4.60804 -1.536,1.776 -3.84,2.64 -2.304,0.816 -5.328,0.816 z m 1293.06394,136.99618 q -9.792,0 -15.84,-8.16 -5.952,-8.16 -5.952,-23.712 0,-15.648 5.952,-23.52 6.048,-7.872 15.84,-7.872 9.792,0 15.744,7.968 6.048,7.872 6.048,23.424 0,15.552 -6.048,23.712 -5.952,8.16 -15.744,8.16 z m 0,-10.944 q 2.4,0 4.32,-1.728 1.92,-1.824 2.976,-6.336 1.152,-4.608 1.152,-12.864 0,-8.352 -1.152,-12.768 -1.056,-4.416 -2.976,-6.048 -1.92,-1.632 -4.32,-1.632 -2.4,0 -4.32,1.632 -1.92,1.632 -3.072,6.048 -1.056,4.416 -1.056,12.768 0,8.256 1.056,12.864 1.152,4.512 3.072,6.336 1.92,1.728 4.32,1.728 z m 50.688,10.944 q -9.792,0 -15.84,-8.16 -5.952,-8.16 -5.952,-23.712 0,-15.648 5.952,-23.52 6.048,-7.872 15.84,-7.872 9.792,0 15.744,7.968 6.048,7.872 6.048,23.424 0,15.552 -6.048,23.712 -5.952,8.16 -15.744,8.16 z m 0,-10.944 q 2.4,0 4.32,-1.728 1.92,-1.824 2.976,-6.336 1.152,-4.608 1.152,-12.864 0,-8.352 -1.152,-12.768 -1.056,-4.416 -2.976,-6.048 -1.92,-1.632 -4.32,-1.632 -2.4,0 -4.32,1.632 -1.92,1.632 -3.072,6.048 -1.056,4.416 -1.056,12.768 0,8.256 1.056,12.864 1.152,4.512 3.072,6.336 1.92,1.728 4.32,1.728 z m 47.328,10.944 q -6.048,0 -10.464,-2.208 -4.416,-2.208 -7.392,-5.088 l 7.488,-8.448 q 1.536,1.728 4.128,3.072 2.688,1.248 5.28,1.248 3.648,0 6.432,-2.016 2.88,-2.016 4.512,-6.72 1.728,-4.8 1.728,-12.864 0,-7.584 -1.44,-11.808 -1.344,-4.32 -3.648,-6.048 -2.208,-1.824 -4.8,-1.824 -2.016,0 -3.84,1.056 -1.728,1.056 -2.784,3.168 -1.056,2.112 -1.056,5.664 0,3.168 1.056,5.184 1.056,1.92 2.88,2.784 1.824,0.864 4.128,0.864 2.4,0 4.896,-1.44 2.496,-1.536 4.512,-5.088 l 0.672,9.216 q -2.304,3.36 -6.048,5.376 -3.744,1.92 -6.816,1.92 -5.184,0 -9.312,-2.016 -4.128,-2.016 -6.528,-6.144 -2.304,-4.224 -2.304,-10.656 0,-6.336 2.784,-10.944 2.784,-4.608 7.392,-7.008 4.608,-2.496 10.08,-2.496 4.512,0 8.64,1.728 4.128,1.728 7.296,5.376 3.264,3.648 5.184,9.408 2.016,5.664 2.016,13.728 0,8.544 -2.112,14.784 -2.016,6.24 -5.472,10.272 -3.456,4.032 -7.872,6.048 -4.416,1.92 -9.216,1.92 z m -101.2801,-121.152 v -8.544 l 27.648,-42.14402 h -25.056 v -11.904 h 42.432 v 8.544 l -27.648,42.14402 h 27.936 v 11.904 z m 79.584,1.152 q -6.144,0 -10.848,-1.632 -4.608,-1.728 -7.776,-5.28 -3.168,-3.648 -4.8,-9.216 -1.632,-5.568 -1.632,-13.24802 v -34.368 h 14.208 v 35.808 q 0,5.85602 1.248,9.31202 1.248,3.36 3.648,4.896 2.4,1.536 5.952,1.536 3.456,0 5.952,-1.536 2.496,-1.536 3.744,-4.896 1.344,-3.456 1.344,-9.31202 v -35.808 h 13.632 v 34.368 q 0,7.68002 -1.632,13.24802 -1.536,5.568 -4.704,9.216 -3.072,3.552 -7.68,5.28 -4.608,1.632 -10.656,1.632 z m -847.5339,211.872 q -19.584,0 -31.67999,-16.32 -11.904,-16.32 -11.904,-47.424 0,-31.296 11.904,-47.04 12.09599,-15.744 31.67999,-15.744 19.584,0 31.488,15.936 12.096,15.744 12.096,46.848 0,31.104 -12.096,47.424 -11.904,16.32 -31.488,16.32 z m 0,-21.888 q 4.8,0 8.64,-3.456 3.84,-3.648 5.952,-12.672 2.304,-9.216 2.304,-25.728 0,-16.704 -2.304,-25.536 -2.112,-8.832 -5.952,-12.096 -3.84,-3.264 -8.64,-3.264 -4.8,0 -8.64,3.264 -3.84,3.264 -6.144,12.096 -2.112,8.832 -2.112,25.536 0,16.512 2.112,25.728 2.304,9.024 6.144,12.672 3.84,3.456 8.64,3.456 z m 101.376,21.888 q -19.584,0 -31.68,-16.32 -11.904,-16.32 -11.904,-47.424 0,-31.296 11.904,-47.04 12.096,-15.744 31.68,-15.744 19.584,0 31.488,15.936 12.096,15.744 12.096,46.848 0,31.104 -12.096,47.424 -11.904,16.32 -31.488,16.32 z m 0,-21.888 q 4.8,0 8.64,-3.456 3.84,-3.648 5.952,-12.672 2.304,-9.216 2.304,-25.728 0,-16.704 -2.304,-25.536 -2.112,-8.832 -5.952,-12.096 -3.84,-3.264 -8.64,-3.264 -4.8,0 -8.64,3.264 -3.84,3.264 -6.144,12.096 -2.112,8.832 -2.112,25.536 0,16.512 2.112,25.728 2.304,9.024 6.144,12.672 3.84,3.456 8.64,3.456 z m 104.64,21.888 q -8.832,0 -17.088,-3.456 -8.256,-3.456 -14.784,-10.752 -6.528,-7.296 -10.368,-18.624 -3.84,-11.52 -3.84,-27.648 0,-17.088 4.032,-29.568 4.032,-12.48 10.944,-20.544 6.912,-8.064 15.744,-11.904 8.832,-4.032 18.624,-4.032 12.096,0 20.928,4.416 8.832,4.224 14.592,10.176 l -14.784,16.896 q -3.264,-3.456 -8.448,-5.952 -5.184,-2.688 -10.56,-2.688 -6.912,0 -12.864,4.032 -5.76,4.032 -9.216,13.632 -3.264,9.408 -3.264,25.536 0,15.168 2.688,23.808 2.88,8.448 7.488,12.096 4.608,3.456 9.6,3.456 4.224,0 7.68,-2.112 3.456,-2.112 5.568,-6.336 2.112,-4.416 2.112,-11.328 0,-6.528 -2.112,-10.368 -2.112,-3.84 -5.76,-5.568 -3.456,-1.728 -8.064,-1.728 -4.8,0 -9.984,2.88 -4.992,2.88 -9.024,10.176 l -1.344,-18.432 q 4.8,-7.104 12.288,-10.752 7.488,-3.84 13.44,-3.84 10.368,0 18.624,4.032 8.256,4.032 12.864,12.48 4.8,8.256 4.8,21.12 0,12.672 -5.568,21.888 -5.376,9.216 -14.592,14.208 -9.216,4.8 -20.352,4.8 z m -212.5441,-242.30402 v -17.088 l 55.296,-84.288 h -50.112 v -23.808 h 84.864 v 17.088 l -55.296,84.288 h 55.872 v 23.808 z m 159.168,2.304 q -12.288,0 -21.696,-3.264 -9.216,-3.456 -15.552,-10.56 -6.336,-7.296 -9.6,-18.432 -3.264,-11.136 -3.264,-26.496 v -68.736 h 28.416 v 71.616 q 0,11.712 2.496,18.624 2.496,6.72 7.296,9.792 4.8,3.072 11.904,3.072 6.912,0 11.904,-3.072 4.992,-3.072 7.488,-9.792 2.688,-6.912 2.688,-18.624 v -71.616 h 27.264 v 68.736 q 0,15.36 -3.264,26.496 -3.072,11.136 -9.408,18.432 -6.144,7.104 -15.36,10.56 -9.216,3.264 -21.312,3.264 z m 71.3252,1031.65809 q -19.584,0 -31.68,-16.32 -11.904,-16.32 -11.904,-47.424 0,-31.296 11.904,-47.04 12.096,-15.744 31.68,-15.744 19.584,0 31.488,15.936 12.096,15.744 12.096,46.848 0,31.104 -12.096,47.424 -11.904,16.32 -31.488,16.32 z m 0,-21.888 q 4.8,0 8.64,-3.456 3.84,-3.648 5.952,-12.672 2.304,-9.216 2.304,-25.728 0,-16.704 -2.304,-25.536 -2.112,-8.832 -5.952,-12.096 -3.84,-3.264 -8.64,-3.264 -4.8,0 -8.64,3.264 -3.84,3.264 -6.144,12.096 -2.112,8.832 -2.112,25.536 0,16.512 2.112,25.728 2.304,9.024 6.144,12.672 3.84,3.456 8.64,3.456 z m 64.128,19.584 v -22.848 h 26.496 v -70.464 h -22.848 v -17.472 q 9.984,-1.92 16.896,-4.608 7.104,-2.688 13.44,-6.528 h 20.736 v 99.072 h 22.848 v 22.848 z m 116.736,0 q 0.96,-15.168 3.072,-27.84 2.112,-12.864 5.952,-24.384 4.032,-11.52 10.176,-22.656 6.144,-11.136 15.168,-23.232 h -54.72 v -23.808 h 84.864 v 17.28 q -10.752,13.056 -17.664,24.384 -6.72,11.328 -10.368,23.04 -3.648,11.712 -5.376,25.536 -1.728,13.824 -2.688,31.68 z m -187.3921,-240 v -17.088 l 55.296,-84.288 h -50.112 v -23.808 h 84.864 v 17.088 l -55.296,84.288 h 55.872 v 23.808 z m 159.168,2.304 q -12.288,0 -21.696,-3.264 -9.216,-3.456 -15.552,-10.56 -6.336,-7.296 -9.6,-18.432 -3.264,-11.136 -3.264,-26.496 v -68.736 h 28.416 v 71.616 q 0,11.712 2.496,18.624 2.496,6.72 7.296,9.792 4.8,3.072 11.904,3.072 6.912,0 11.904,-3.072 4.992,-3.072 7.488,-9.792 2.688,-6.912 2.688,-18.624 v -71.616 h 27.264 v 68.736 q 0,15.36 -3.264,26.496 -3.072,11.136 -9.408,18.432 -6.144,7.104 -15.36,10.56 -9.216,3.264 -21.312,3.264 z" style="font-size:64px;font-family:'Source Sans 3';-inkscape-font-specification:'Source Sans 3, @wght=700';font-variation-settings:'wght' 700;text-align:center;white-space:pre;display:inline;fill:#bec3c6;stroke-width:55" transform="matrix(0.02439371,0,0,0.02439371,49.855549,274.08133)"/>
  </g>
</svg>
