<svg width="5100" height="1900" viewBox="0 0 5100 1900" version="1.1" id="svg1" xml:space="preserve" xmlns="http://www.w3.org/2000/svg">
  <g id="floor_1" transform="matrix(40.994169,0,0,40.994169,1.00188,-10010.757)" style="display:inline">
    <path style="font-variation-settings:'wdth' 70,'wght' 600;display:inline;fill:#4c5a5f;fill-opacity:1;stroke-width:.487874" d="m 0.87735372,265.6217 36.08124828,-10e-6 -6e-6,-8.02809 h 9.948033 v -0.27752 l 17.286222,-10e-6 -0.01642,-0.30475 59.534229,2.7e-4 v 5.79334 l -15.53161,-0.003 1e-5,14.89983 -8.878744,-0.006 v -14.89278 l -35.117607,0.002 -3e-6,14.8977 h -17.94788 v -4.86509 H 0.87735772 Z" id="path63"/>
    <g id="rooms_1" style="display:inline" transform="matrix(0.02439371,0,0,0.02439371,-0.02443957,255.98706)">
      <rect style="font-variation-settings:'wdth' 70,'wght' 600;fill:#454c7f;fill-opacity:1;stroke:none;stroke-width:12.3446;stroke-linecap:butt;stroke-linejoin:miter;stroke-dasharray:none;stroke-opacity:1" id="ZU102" width="304.80618" height="319.21396" x="1973.9003" y="-433.36755"/>
      <rect style="font-variation-settings:'wdth' 70,'wght' 600;display:inline;fill:#454c7f;fill-opacity:1;stroke:none;stroke-width:12.9542;stroke-linecap:butt;stroke-linejoin:miter;stroke-dasharray:none;stroke-opacity:1" id="ZU104" width="335.65448" height="319.21396" x="2278.7065" y="-433.36755"/>
      <rect style="font-variation-settings:'wdth' 70,'wght' 600;fill:#1b2022;fill-opacity:1;stroke:none;stroke-width:10.6002;stroke-linecap:butt;stroke-linejoin:miter;stroke-dasharray:none;stroke-opacity:1" id="lift_1" width="298.89462" height="224.67143" x="2303.2253" y="431.85519"/>
      <rect style="font-variation-settings:'wdth' 70,'wght' 600;display:inline;fill:#454c7f;fill-opacity:1;stroke-width:438.291;stroke-dasharray:none" id="ZU129" width="361.76901" height="679.51947" x="59.471634" y="-284.5553"/>
      <rect style="font-variation-settings:'wdth' 70,'wght' 600;display:inline;fill:#454c7f;fill-opacity:1;stroke-width:443.034;stroke-dasharray:none" id="ZU130" width="369.12866" height="680.46637" x="421.24063" y="-285.50223"/>
      <rect style="font-variation-settings:'wdth' 70,'wght' 600;display:inline;opacity:1;fill:#454c7f;fill-opacity:1;stroke-width:621.202;stroke-dasharray:none" id="ZU131" width="725.71997" height="680.46637" x="790.36926" y="-285.50223"/>
      <rect style="font-variation-settings:'wdth' 70,'wght' 600;display:inline;fill:#454c7f;fill-opacity:1;stroke-width:303.233;stroke-dasharray:none" id="ZU133" width="357.81146" height="328.86108" x="1516.0892" y="-263.00186"/>
      <rect style="font-variation-settings:'wdth' 70,'wght' 600;display:inline;fill:#454c7f;fill-opacity:1;stroke-width:365.136;stroke-dasharray:none" id="ZU106" width="342.68436" height="497.88736" x="2649.366" y="-455.88718"/>
      <rect style="font-variation-settings:'wdth' 70,'wght' 600;display:inline;fill:#454c7f;fill-opacity:1;stroke-width:373.786;stroke-dasharray:none" id="ZU107" width="359.11038" height="497.88736" x="2992.0503" y="-455.88718"/>
      <rect style="font-variation-settings:'wdth' 70,'wght' 600;display:inline;fill:#454c7f;fill-opacity:1;stroke-width:374.798;stroke-dasharray:none" id="ZU108" width="361.05676" height="497.88736" x="3351.1606" y="-455.88718"/>
      <rect style="font-variation-settings:'wdth' 70,'wght' 600;display:inline;fill:#454c7f;fill-opacity:1;stroke-width:406.167;stroke-dasharray:none" id="ZU109" width="424.02475" height="497.88736" x="3712.2173" y="-455.88718"/>
      <rect style="font-variation-settings:'wdth' 70,'wght' 600;display:inline;fill:#454c7f;fill-opacity:1;stroke-width:343.557;stroke-dasharray:none" id="ZU110" width="303.37488" height="497.88736" x="4136.2422" y="-455.88718"/>
      <rect style="font-variation-settings:'wdth' 70,'wght' 600;display:inline;fill:#454c7f;fill-opacity:1;stroke-width:343.52;stroke-dasharray:none" id="ZU111" width="303.32101" height="497.86926" x="4439.6172" y="-455.88718"/>
      <rect style="font-variation-settings:'wdth' 70,'wght' 600;display:inline;fill:#454c7f;fill-opacity:1;stroke-width:345.578;stroke-dasharray:none" id="ZU112" width="306.97733" height="497.85117" x="4742.9385" y="-455.86908"/>
      <rect style="font-variation-settings:'wdth' 70,'wght' 600;display:inline;fill:#454c7f;fill-opacity:1;stroke-width:391.216;stroke-dasharray:none" id="ZU116a" width="385.44315" height="508.14615" x="4210.2217" y="890.18402"/>
      <rect style="font-variation-settings:'wdth' 70,'wght' 600;display:inline;fill:#454c7f;fill-opacity:1;stroke-width:421.027;stroke-dasharray:none" id="ZU116b" width="446.42456" height="508.14615" x="3763.7971" y="890.06"/>
      <rect style="font-variation-settings:'wdth' 70,'wght' 600;display:inline;fill:#454c7f;fill-opacity:1;stroke-width:541.28;stroke-dasharray:none" id="ZU114" width="614.20929" height="610.44299" x="4435.7129" y="279.49298"/>
      <rect style="font-variation-settings:'wdth' 70,'wght' 600;display:inline;fill:#454c7f;fill-opacity:1;stroke-width:585.757;stroke-dasharray:none" id="ZU117" width="717.28784" height="612.15002" x="3354.4485" y="277.78616"/>
      <rect style="font-variation-settings:'wdth' 70,'wght' 600;display:inline;fill:#454c7f;fill-opacity:1;stroke-width:416.712;stroke-dasharray:none" id="ZU119" width="363.01956" height="612.15002" x="2991.429" y="277.78616"/>
      <rect style="font-variation-settings:'wdth' 70,'wght' 600;display:inline;fill:#454c7f;fill-opacity:1;stroke-width:403.79;stroke-dasharray:none" id="ZU120" width="341.80789" height="610.44318" x="2649.6211" y="279.49298"/>
      <rect style="font-variation-settings:'wdth' 70,'wght' 600;display:inline;fill:#454c7f;fill-opacity:1;stroke-width:236.073;stroke-dasharray:none" id="ZU122" width="358.91891" height="198.70529" x="2290.7021" y="669.02661"/>
      <rect style="font-variation-settings:'wdth' 70,'wght' 600;display:inline;fill:#454c7f;fill-opacity:1;stroke-width:430.554;stroke-dasharray:none" id="ZU123" width="347.27643" height="683.11859" x="1526.6031" y="690.7793"/>
      <rect style="font-variation-settings:'wdth' 70,'wght' 600;display:inline;fill:#454c7f;fill-opacity:1;stroke-width:484.107;stroke-dasharray:none" id="ZU124" width="439.03799" height="683.11859" x="1087.5652" y="690.7793"/>
      <rect style="font-variation-settings:'wdth' 70,'wght' 600;display:inline;fill:#454c7f;fill-opacity:1;stroke-width:557.875;stroke-dasharray:none" id="ZU125" width="583.03394" height="683.11859" x="504.53122" y="690.7793"/>
      <rect style="font-variation-settings:'wdth' 70,'wght' 600;display:inline;fill:#454c7f;fill-opacity:1;stroke-width:487.415;stroke-dasharray:none" id="ZU127" width="445.05902" height="683.11853" x="59.472183" y="690.77948"/>
      <rect style="font-variation-settings:'wdth' 70,'wght' 600;fill:#454c7f;fill-opacity:1;stroke:none;stroke-width:8.97245;stroke-linecap:butt;stroke-linejoin:miter;stroke-dasharray:none;stroke-opacity:1" id="ZU101" width="304.80618" height="168.63568" x="1973.9003" y="-114.15359"/>
      <rect style="font-variation-settings:'wdth' 70,'wght' 600;display:inline;fill:#454c7f;fill-opacity:1;stroke:none;stroke-width:9.41551;stroke-linecap:butt;stroke-linejoin:miter;stroke-dasharray:none;stroke-opacity:1" id="ZU103" width="335.65448" height="168.63538" x="2278.7065" y="-114.15359"/>
    </g>
    <g id="staires_1" transform="matrix(0.02439371,0,0,0.02439371,-0.02443957,244.19953)" style="display:inline">
      <rect style="font-variation-settings:'wdth' 70,'wght' 600;display:inline;fill:#4c5a5f;fill-opacity:1;stroke-width:5.47103;stroke-dasharray:none" id="rect435" width="121.70573" height="30.000004" x="2169.0186" y="915.00031"/>
      <rect style="font-variation-settings:'wdth' 70,'wght' 600;display:inline;fill:#4f5e63;fill-opacity:1;stroke-width:5.47103;stroke-dasharray:none" id="rect436" width="121.70573" height="30.000004" x="2169.0186" y="945.00031"/>
      <rect style="font-variation-settings:'wdth' 70,'wght' 600;display:inline;fill:#516166;fill-opacity:1;stroke-width:5.47103;stroke-dasharray:none" id="rect437" width="121.70573" height="30.000004" x="2169.0186" y="975.00031"/>
      <rect style="font-variation-settings:'wdth' 70,'wght' 600;display:inline;fill:#546469;fill-opacity:1;stroke-width:5.47103;stroke-dasharray:none" id="rect438" width="121.70573" height="30.000004" x="2169.0186" y="1005.0003"/>
      <rect style="font-variation-settings:'wdth' 70,'wght' 600;display:inline;fill:#56676c;fill-opacity:1;stroke-width:5.47103;stroke-dasharray:none" id="rect439" width="121.70573" height="30.000004" x="2169.0186" y="1035.0004"/>
      <rect style="font-variation-settings:'wdth' 70,'wght' 600;display:inline;fill:#586a6f;fill-opacity:1;stroke-width:5.47103;stroke-dasharray:none" id="rect440" width="121.70573" height="30.000004" x="2169.0186" y="1065.0004"/>
      <rect style="font-variation-settings:'wdth' 70,'wght' 600;display:inline;fill:#5a6d72;fill-opacity:1;stroke-width:5.47103;stroke-dasharray:none" id="rect441" width="121.70573" height="30.000004" x="2169.0186" y="1095.0004"/>
      <rect style="font-variation-settings:'wdth' 70,'wght' 600;display:inline;fill:#5c7075;fill-opacity:1;stroke-width:5.47103;stroke-dasharray:none" id="rect442" width="121.70573" height="30.000004" x="2169.0186" y="1125.0004"/>
      <rect style="font-variation-settings:'wdth' 70,'wght' 600;display:inline;fill:#5e7378;fill-opacity:1;stroke-width:5.47103;stroke-dasharray:none" id="rect443" width="121.70573" height="30.000004" x="2169.0186" y="1155.0004"/>
      <rect style="font-variation-settings:'wdth' 70,'wght' 600;display:inline;fill:#60767b;fill-opacity:1;stroke-width:5.47103;stroke-dasharray:none" id="rect444" width="121.70573" height="30.000004" x="2169.0186" y="1185.0004"/>
      <rect style="font-variation-settings:'wdth' 70,'wght' 600;display:inline;fill:#373e43;fill-opacity:1;stroke-width:14.3915;stroke-dasharray:none" id="rect445" width="316.78696" height="135.94603" x="1973.9358" y="1215.0042"/>
      <rect style="font-variation-settings:'wdth' 70,'wght' 600;display:inline;fill:#3a4146;fill-opacity:1;stroke-width:5.43645;stroke-dasharray:none" id="rect446" width="120.17195" height="30.000004" x="-2094.0872" y="-1214.9865" transform="scale(-1)"/>
      <rect style="font-variation-settings:'wdth' 70,'wght' 600;display:inline;fill:#3c4449;fill-opacity:1;stroke-width:5.43645;stroke-dasharray:none" id="rect447" width="120.17195" height="30.000004" x="-2094.0872" y="-1184.9865" transform="scale(-1)"/>
      <rect style="font-variation-settings:'wdth' 70,'wght' 600;display:inline;fill:#3e474c;fill-opacity:1;stroke-width:5.43645;stroke-dasharray:none" id="rect448" width="120.17195" height="30.000004" x="-2094.0872" y="-1154.9865" transform="scale(-1)"/>
      <rect style="font-variation-settings:'wdth' 70,'wght' 600;display:inline;fill:#404a4f;fill-opacity:1;stroke-width:5.43645;stroke-dasharray:none" id="rect449" width="120.17195" height="30.000004" x="-2094.0872" y="-1124.9865" transform="scale(-1)"/>
      <rect style="font-variation-settings:'wdth' 70,'wght' 600;display:inline;fill:#424d52;fill-opacity:1;stroke-width:5.43645;stroke-dasharray:none" id="rect450" width="120.17195" height="30.000004" x="-2094.0872" y="-1094.9865" transform="scale(-1)"/>
      <rect style="font-variation-settings:'wdth' 70,'wght' 600;display:inline;fill:#445055;fill-opacity:1;stroke-width:5.43645;stroke-dasharray:none" id="rect451" width="120.17195" height="30.000004" x="-2094.0872" y="-1064.9865" transform="scale(-1)"/>
      <rect style="font-variation-settings:'wdth' 70,'wght' 600;display:inline;fill:#465358;fill-opacity:1;stroke-width:5.43645;stroke-dasharray:none" id="rect452" width="120.17195" height="30.000004" x="-2094.0872" y="-1034.9865" transform="scale(-1)"/>
      <rect style="font-variation-settings:'wdth' 70,'wght' 600;display:inline;fill:#48565b;fill-opacity:1;stroke-width:5.43645;stroke-dasharray:none" id="rect453" width="120.17195" height="30.000004" x="-2094.0872" y="-1004.9865" transform="scale(-1)"/>
      <rect style="font-variation-settings:'wdth' 70,'wght' 600;display:inline;fill:#4b595e;fill-opacity:1;stroke-width:5.43645;stroke-dasharray:none" id="rect454" width="120.17195" height="30.000004" x="-2094.0872" y="-974.98645" transform="scale(-1)"/>
      <rect style="font-variation-settings:'wdth' 70,'wght' 600;display:inline;fill:#4c5a5f;fill-opacity:1;stroke-width:5.43645;stroke-dasharray:none" id="rect455" width="120.17195" height="30.000004" x="-2094.0872" y="-944.98645" transform="scale(-1)"/>
      <rect style="font-variation-settings:'wdth' 70,'wght' 600;display:inline;fill:none;fill-opacity:1;stroke:#bec3c6;stroke-width:10;stroke-linecap:butt;stroke-linejoin:miter;stroke-dasharray:none;stroke-opacity:1" id="rect456" width="69.931396" height="298.18414" x="2099.0872" y="911.82001"/>
      <rect style="font-variation-settings:'wdth' 70,'wght' 600;display:inline;fill:#000;fill-opacity:1;stroke-width:.992555;stroke-dasharray:none" id="rect457" width="120.17195" height="1.0000001" x="-2094.0872" y="-974.98645" transform="scale(-1)"/>
      <rect style="font-variation-settings:'wdth' 70,'wght' 600;display:inline;fill:#000;fill-opacity:1;stroke-width:.992555;stroke-dasharray:none" id="rect458" width="120.17195" height="1.0000001" x="-2094.0872" y="-944.98645" transform="scale(-1)"/>
      <rect style="font-variation-settings:'wdth' 70,'wght' 600;display:inline;fill:#000;fill-opacity:1;stroke-width:.992555;stroke-dasharray:none" id="rect459" width="120.17195" height="1.0000001" x="-2094.0872" y="-914.98645" transform="scale(-1)"/>
      <rect style="font-variation-settings:'wdth' 70,'wght' 600;display:inline;fill:#000;fill-opacity:1;stroke-width:.992555;stroke-dasharray:none" id="rect460" width="120.17195" height="1.0000001" x="-2094.0872" y="-1004.9865" transform="scale(-1)"/>
      <rect style="font-variation-settings:'wdth' 70,'wght' 600;display:inline;fill:#000;fill-opacity:1;stroke-width:.992555;stroke-dasharray:none" id="rect461" width="120.17195" height="1.0000001" x="-2094.0872" y="-1034.9865" transform="scale(-1)"/>
      <rect style="font-variation-settings:'wdth' 70,'wght' 600;display:inline;fill:#000;fill-opacity:1;stroke-width:.992555;stroke-dasharray:none" id="rect462" width="120.17195" height="1.0000001" x="-2094.0872" y="-1064.9865" transform="scale(-1)"/>
      <rect style="font-variation-settings:'wdth' 70,'wght' 600;display:inline;fill:#000;fill-opacity:1;stroke-width:.992555;stroke-dasharray:none" id="rect463" width="120.17195" height="1.0000001" x="-2094.0872" y="-1094.9865" transform="scale(-1)"/>
      <rect style="font-variation-settings:'wdth' 70,'wght' 600;display:inline;fill:#000;fill-opacity:1;stroke-width:.992555;stroke-dasharray:none" id="rect464" width="120.17195" height="1.0000001" x="-2094.0872" y="-1124.9865" transform="scale(-1)"/>
      <rect style="font-variation-settings:'wdth' 70,'wght' 600;display:inline;fill:#000;fill-opacity:1;stroke-width:.992555;stroke-dasharray:none" id="rect465" width="120.17195" height="1.0000001" x="-2094.0872" y="-1154.9865" transform="scale(-1)"/>
      <rect style="font-variation-settings:'wdth' 70,'wght' 600;display:inline;fill:#000;fill-opacity:1;stroke-width:.992555;stroke-dasharray:none" id="rect466" width="120.17195" height="1.0000001" x="-2094.0872" y="-1184.9865" transform="scale(-1)"/>
      <rect style="font-variation-settings:'wdth' 70,'wght' 600;display:inline;fill:#000;fill-opacity:1;stroke-width:.992555;stroke-dasharray:none" id="rect467" width="120.17195" height="1.0000001" x="-2094.0872" y="-1214.9865" transform="scale(-1)"/>
      <rect style="font-variation-settings:'wdth' 70,'wght' 600;display:inline;fill:#000;fill-opacity:1;stroke-width:.992555;stroke-dasharray:none" id="rect468" width="120.17195" height="1.0000001" x="-2294.1904" y="-1185.0004" transform="scale(-1)"/>
      <rect style="font-variation-settings:'wdth' 70,'wght' 600;display:inline;fill:#000;fill-opacity:1;stroke-width:.992555;stroke-dasharray:none" id="rect469" width="120.17195" height="1.0000001" x="-2294.1904" y="-1155.0004" transform="scale(-1)"/>
      <rect style="font-variation-settings:'wdth' 70,'wght' 600;display:inline;fill:#000;fill-opacity:1;stroke-width:.992555;stroke-dasharray:none" id="rect470" width="120.17195" height="1.0000001" x="-2294.1904" y="-1125.0004" transform="scale(-1)"/>
      <rect style="font-variation-settings:'wdth' 70,'wght' 600;display:inline;fill:#000;fill-opacity:1;stroke-width:.992555;stroke-dasharray:none" id="rect471" width="120.17195" height="1.0000001" x="-2294.1904" y="-1095.0004" transform="scale(-1)"/>
      <rect style="font-variation-settings:'wdth' 70,'wght' 600;display:inline;fill:#000;fill-opacity:1;stroke-width:.992555;stroke-dasharray:none" id="rect472" width="120.17195" height="1.0000001" x="-2294.1904" y="-1065.0004" transform="scale(-1)"/>
      <rect style="font-variation-settings:'wdth' 70,'wght' 600;display:inline;fill:#000;fill-opacity:1;stroke-width:.992555;stroke-dasharray:none" id="rect473" width="120.17195" height="1.0000001" x="-2294.1904" y="-1035.0004" transform="scale(-1)"/>
      <rect style="font-variation-settings:'wdth' 70,'wght' 600;display:inline;fill:#000;fill-opacity:1;stroke-width:.992555;stroke-dasharray:none" id="rect474" width="120.17195" height="1.0000001" x="-2294.1904" y="-1005.0003" transform="scale(-1)"/>
      <rect style="font-variation-settings:'wdth' 70,'wght' 600;display:inline;fill:#000;fill-opacity:1;stroke-width:.992555;stroke-dasharray:none" id="rect475" width="120.17195" height="1.0000001" x="-2294.1904" y="-975.00031" transform="scale(-1)"/>
      <rect style="font-variation-settings:'wdth' 70,'wght' 600;display:inline;fill:#000;fill-opacity:1;stroke-width:.992555;stroke-dasharray:none" id="rect476" width="120.17195" height="1.0000001" x="-2294.1904" y="-945.00031" transform="scale(-1)"/>
      <rect style="font-variation-settings:'wdth' 70,'wght' 600;display:inline;fill:#000;fill-opacity:1;stroke-width:.992555;stroke-dasharray:none" id="rect477" width="120.17195" height="1.0000001" x="-2294.1904" y="-915.00031" transform="scale(-1)"/>
      <path style="font-variation-settings:'wdth' 70,'wght' 600;display:inline;opacity:1;fill:none;fill-opacity:1;stroke:#bec3c6;stroke-width:5;stroke-dasharray:none;stroke-opacity:1;marker-end:url(#Triangle)" d="m 2232.3714,929.8753 v 255.1251" id="path477"/>
      <path style="font-variation-settings:'wdth' 70,'wght' 600;display:inline;opacity:1;fill:none;fill-opacity:1;stroke:#bec3c6;stroke-width:5;stroke-dasharray:none;stroke-opacity:1;marker-end:url(#Triangle)" d="M 2232.3714,1279.5004 H 2035.7343 V 943.98645" id="path478"/>
    </g>
    <g id="walls_1" transform="matrix(0.02439371,0,0,0.02439371,-0.02443957,244.19953)" style="display:inline">
      <path style="font-variation-settings:'wdth' 70,'wght' 600;display:inline;fill:none;fill-opacity:1;stroke:#bec3c6;stroke-width:.85378;stroke-linecap:butt;stroke-linejoin:miter;stroke-dasharray:none;stroke-opacity:1" d="M 0.84894461,265.6217 H 4.5213279" id="path4" transform="matrix(40.994174,0,0,40.994174,1.00188,-10010.758)"/>
      <path style="font-variation-settings:'wdth' 70,'wght' 600;display:inline;fill:none;fill-opacity:1;stroke:#bec3c6;stroke-width:.85378;stroke-linecap:butt;stroke-linejoin:miter;stroke-dasharray:none;stroke-opacity:1" d="M 0.75098946,272.83773 H 3.4746691" id="path5" transform="matrix(40.994174,0,0,40.994174,1.00188,-10010.758)"/>
      <path style="font-variation-settings:'wdth' 70,'wght' 600;display:inline;fill:none;fill-opacity:1;stroke:#bec3c6;stroke-width:.85378;stroke-linecap:butt;stroke-linejoin:miter;stroke-dasharray:none;stroke-opacity:1" d="M 6.4019191,272.83773 H 19.195228" id="path6" transform="matrix(40.994174,0,0,40.994174,1.00188,-10010.758)"/>
      <path style="font-variation-settings:'wdth' 70,'wght' 600;display:inline;fill:none;fill-opacity:1;stroke:#bec3c6;stroke-width:.85378;stroke-linecap:butt;stroke-linejoin:miter;stroke-dasharray:none;stroke-opacity:1" d="m 22.122478,272.83773 h 8.571678" id="path7" transform="matrix(40.994174,0,0,40.994174,1.00188,-10010.758)"/>
      <path style="font-variation-settings:'wdth' 70,'wght' 600;display:inline;fill:none;fill-opacity:1;stroke:#bec3c6;stroke-width:.85378;stroke-linecap:butt;stroke-linejoin:miter;stroke-dasharray:none;stroke-opacity:1" d="m 33.621407,272.83773 h 5.945016" id="path8" transform="matrix(40.994174,0,0,40.994174,1.00188,-10010.758)"/>
      <path style="font-variation-settings:'wdth' 70,'wght' 600;display:inline;fill:none;fill-opacity:1;stroke:#bec3c6;stroke-width:.85378;stroke-linecap:butt;stroke-linejoin:miter;stroke-dasharray:none;stroke-opacity:1" d="m 42.493674,272.83773 h 4.413317" id="path9" transform="matrix(40.994174,0,0,40.994174,1.00188,-10010.758)"/>
      <path style="font-variation-settings:'wdth' 70,'wght' 600;display:inline;fill:none;fill-opacity:1;stroke:#bec3c6;stroke-width:2.43937;stroke-linecap:butt;stroke-linejoin:miter;stroke-dasharray:none;stroke-opacity:1" d="M 46.906991,263.04501 V 277.6893" id="path10" transform="matrix(40.994174,0,0,40.994174,1.00188,-10010.758)"/>
      <path style="font-variation-settings:'wdth' 70,'wght' 600;display:inline;fill:none;fill-opacity:1;stroke:#bec3c6;stroke-width:100;stroke-linecap:butt;stroke-linejoin:miter;stroke-dasharray:none;stroke-opacity:1" d="M 1923.9007,202.72121 V 597.92186" id="path11"/>
      <path style="font-variation-settings:'wdth' 70,'wght' 600;display:inline;fill:none;fill-opacity:1;stroke:#bec3c6;stroke-width:.85378;stroke-linecap:butt;stroke-linejoin:miter;stroke-dasharray:none;stroke-opacity:1" d="M 7.4485779,265.6217 H 12.877053" id="path12" transform="matrix(40.994174,0,0,40.994174,1.00188,-10010.758)"/>
      <path style="font-variation-settings:'wdth' 70,'wght' 600;display:inline;fill:none;fill-opacity:1;stroke:#bec3c6;stroke-width:.85378;stroke-linecap:butt;stroke-linejoin:miter;stroke-dasharray:none;stroke-opacity:1" d="M 15.804303,265.6217 H 30.694156" id="path13" transform="matrix(40.994174,0,0,40.994174,1.00188,-10010.758)"/>
      <path style="font-variation-settings:'wdth' 70,'wght' 600;display:inline;fill:none;fill-opacity:1;stroke:#bec3c6;stroke-width:.85378;stroke-linecap:butt;stroke-linejoin:miter;stroke-dasharray:none;stroke-opacity:1" d="m 33.621407,265.6217 h 3.459164" id="path14" transform="matrix(40.994174,0,0,40.994174,1.00188,-10010.758)"/>
      <path style="font-variation-settings:'wdth' 70,'wght' 600;display:inline;fill:none;fill-opacity:1;stroke:#bec3c6;stroke-width:.243937;stroke-linecap:butt;stroke-linejoin:miter;stroke-dasharray:none;stroke-opacity:1" d="m 10.251183,249.0457 v 16.576" id="path15" transform="matrix(40.994174,0,0,40.994174,1.00188,-10010.758)"/>
      <path style="font-variation-settings:'wdth' 70,'wght' 600;display:inline;fill:none;fill-opacity:1;stroke:#bec3c6;stroke-width:.243937;stroke-linecap:butt;stroke-linejoin:miter;stroke-dasharray:none;stroke-opacity:1" d="m 19.2556,249.0457 -1e-6,16.576" id="path16" transform="matrix(40.994174,0,0,40.994174,1.00188,-10010.758)"/>
      <path style="font-variation-settings:'wdth' 70,'wght' 600;display:inline;fill:none;fill-opacity:1;stroke:#bec3c6;stroke-width:.243937;stroke-linecap:butt;stroke-linejoin:miter;stroke-dasharray:none;stroke-opacity:1" d="m 36.958602,249.0457 v 16.60045" id="path17" transform="matrix(40.994174,0,0,40.994174,1.00188,-10010.758)"/>
      <path style="font-variation-settings:'wdth' 70,'wght' 600;display:inline;fill:none;fill-opacity:1;stroke:#bec3c6;stroke-width:.243937;stroke-linecap:butt;stroke-linejoin:miter;stroke-dasharray:none;stroke-opacity:1" d="m 12.282949,272.83773 v 16.6638" id="path18" transform="matrix(40.994174,0,0,40.994174,1.00188,-10010.758)"/>
      <path style="font-variation-settings:'wdth' 70,'wght' 600;display:inline;fill:none;fill-opacity:1;stroke:#bec3c6;stroke-width:.243937;stroke-linecap:butt;stroke-linejoin:miter;stroke-dasharray:none;stroke-opacity:1" d="m 26.505311,272.83773 v 16.6638" id="path19" transform="matrix(40.994174,0,0,40.994174,1.00188,-10010.758)"/>
      <path style="font-variation-settings:'wdth' 70,'wght' 600;display:inline;fill:none;fill-opacity:1;stroke:#bec3c6;stroke-width:.243937;stroke-linecap:butt;stroke-linejoin:miter;stroke-dasharray:none;stroke-opacity:1" d="m 37.215074,272.83773 v 16.6638" id="path20" transform="matrix(40.994174,0,0,40.994174,1.00188,-10010.758)"/>
      <path style="font-variation-settings:'wdth' 70,'wght' 600;display:inline;fill:none;fill-opacity:1;stroke:#bec3c6;stroke-width:.85378;stroke-linecap:butt;stroke-linejoin:miter;stroke-dasharray:none;stroke-opacity:1" d="M 77.535716,262.80493 H 99.422284" id="path21" transform="matrix(40.994174,0,0,40.994174,1.00188,-10010.758)"/>
      <path style="font-variation-settings:'wdth' 70,'wght' 600;display:inline;fill:none;fill-opacity:1;stroke:#bec3c6;stroke-width:.85378;stroke-linecap:butt;stroke-linejoin:miter;stroke-dasharray:none;stroke-opacity:1" d="m 91.361554,277.6959 v 12.40162 h 21.146216 v -12.39557" id="path21-9" transform="matrix(40.994174,0,0,40.994174,1.00188,-10010.758)"/>
      <path style="font-variation-settings:'wdth' 70,'wght' 600;display:inline;fill:none;fill-opacity:1;stroke:#bec3c6;stroke-width:.85378;stroke-linecap:butt;stroke-linejoin:miter;stroke-dasharray:none;stroke-opacity:1" d="m 70.18127,262.80493 h 4.427196" id="path22" transform="matrix(40.994174,0,0,40.994174,1.00188,-10010.758)"/>
      <path style="font-variation-settings:'wdth' 70,'wght' 600;display:inline;fill:none;fill-opacity:1;stroke:#bec3c6;stroke-width:.85378;stroke-linecap:butt;stroke-linejoin:miter;stroke-dasharray:none;stroke-opacity:1" d="m 64.18276,262.07312 -2e-6,15.71745" id="path23" transform="matrix(40.994174,0,0,40.994174,1.00188,-10010.758)"/>
      <path style="font-variation-settings:'wdth' 70,'wght' 600;display:inline;fill:none;fill-opacity:1;stroke:#bec3c6;stroke-width:.85378;stroke-linecap:butt;stroke-linejoin:miter;stroke-dasharray:none;stroke-opacity:1" d="m 108.05709,262.80493 h 15.65357" id="path24" transform="matrix(40.994174,0,0,40.994174,1.00188,-10010.758)"/>
      <path style="font-variation-settings:'wdth' 70,'wght' 600;display:inline;fill:none;fill-opacity:1;stroke:#bec3c6;stroke-width:.85378;stroke-linecap:butt;stroke-linejoin:miter;stroke-dasharray:none;stroke-opacity:1" d="m 78.806411,257.0116 h 5.856524" id="path25" transform="matrix(40.994174,0,0,40.994174,1.00188,-10010.758)"/>
      <path style="font-variation-settings:'wdth' 70,'wght' 600;display:inline;fill:none;fill-opacity:1;stroke:#bec3c6;stroke-width:.85378;stroke-linecap:butt;stroke-linejoin:miter;stroke-dasharray:none;stroke-opacity:1" d="m 70.18127,257.0116 h 5.697891" id="path26" transform="matrix(40.994174,0,0,40.994174,1.00188,-10010.758)"/>
      <path style="font-variation-settings:'wdth' 70,'wght' 600;display:inline;fill:none;fill-opacity:1;stroke:#bec3c6;stroke-width:.85378;stroke-linecap:butt;stroke-linejoin:miter;stroke-dasharray:none;stroke-opacity:1" d="M 67.25402,257.01133 H 64.176442 V 244.86628" id="path27" transform="matrix(40.994174,0,0,40.994174,1.00188,-10010.758)"/>
      <path style="font-variation-settings:'wdth' 70,'wght' 600;display:inline;fill:none;fill-opacity:1;stroke:#bec3c6;stroke-width:.85378;stroke-linecap:butt;stroke-linejoin:miter;stroke-dasharray:none;stroke-opacity:1" d="m 87.590185,257.0116 h 6.710261" id="path28" transform="matrix(40.994174,0,0,40.994174,1.00188,-10010.758)"/>
      <path style="font-variation-settings:'wdth' 70,'wght' 600;display:inline;fill:none;fill-opacity:1;stroke:#bec3c6;stroke-width:.85378;stroke-linecap:butt;stroke-linejoin:miter;stroke-dasharray:none;stroke-opacity:1" d="m 97.227696,257.0116 h 4.229974" id="path29" transform="matrix(40.994174,0,0,40.994174,1.00188,-10010.758)"/>
      <path style="font-variation-settings:'wdth' 70,'wght' 600;display:inline;fill:none;fill-opacity:1;stroke:#bec3c6;stroke-width:.85378;stroke-linecap:butt;stroke-linejoin:miter;stroke-dasharray:none;stroke-opacity:1" d="m 104.38492,257.0116 h 7.71588" id="path30" transform="matrix(40.994174,0,0,40.994174,1.00188,-10010.758)"/>
      <path style="font-variation-settings:'wdth' 70,'wght' 600;display:inline;fill:none;fill-opacity:1;stroke:#bec3c6;stroke-width:.85378;stroke-linecap:butt;stroke-linejoin:miter;stroke-dasharray:none;stroke-opacity:1" d="m 115.02805,257.0116 h 2.56175" id="path31" transform="matrix(40.994174,0,0,40.994174,1.00188,-10010.758)"/>
      <path style="font-variation-settings:'wdth' 70,'wght' 600;display:inline;fill:none;fill-opacity:1;stroke:#bec3c6;stroke-width:.85378;stroke-linecap:butt;stroke-linejoin:miter;stroke-dasharray:none;stroke-opacity:1" d="m 120.51705,257.0116 h 3.29826" id="path32" transform="matrix(40.994174,0,0,40.994174,1.00188,-10010.758)"/>
      <path style="font-variation-settings:'wdth' 70,'wght' 600;display:inline;fill:none;fill-opacity:1;stroke:#bec3c6;stroke-width:.243937;stroke-linecap:butt;stroke-linejoin:miter;stroke-dasharray:none;stroke-opacity:1" d="m 72.962768,244.86628 10e-7,12.14532" id="path33" transform="matrix(40.994174,0,0,40.994174,1.00188,-10010.758)"/>
      <path style="font-variation-settings:'wdth' 70,'wght' 600;display:inline;fill:none;fill-opacity:1;stroke:#bec3c6;stroke-width:.243937;stroke-linecap:butt;stroke-linejoin:miter;stroke-dasharray:none;stroke-opacity:1" d="m 81.722802,244.86628 10e-7,12.14532" id="path34" transform="matrix(40.994174,0,0,40.994174,1.00188,-10010.758)"/>
      <path style="font-variation-settings:'wdth' 70,'wght' 600;display:inline;fill:none;fill-opacity:1;stroke:#bec3c6;stroke-width:.243937;stroke-linecap:butt;stroke-linejoin:miter;stroke-dasharray:none;stroke-opacity:1" d="M 90.530316,244.86628 V 257.0116" id="path35" transform="matrix(40.994174,0,0,40.994174,1.00188,-10010.758)"/>
      <path style="font-variation-settings:'wdth' 70,'wght' 600;display:inline;fill:none;fill-opacity:1;stroke:#bec3c6;stroke-width:.243937;stroke-linecap:butt;stroke-linejoin:miter;stroke-dasharray:none;stroke-opacity:1" d="M 100.87385,244.86672 V 257.0116" id="path36" transform="matrix(40.994174,0,0,40.994174,1.00188,-10010.758)"/>
      <path style="font-variation-settings:'wdth' 70,'wght' 600;display:inline;fill:none;fill-opacity:1;stroke:#bec3c6;stroke-width:.609843;stroke-linecap:butt;stroke-linejoin:miter;stroke-dasharray:none;stroke-opacity:1" d="m 56.159747,277.70282 v -1.35087" id="path81" transform="matrix(40.994174,0,0,40.994174,1.00188,-10010.758)"/>
      <path style="font-variation-settings:'wdth' 70,'wght' 600;display:inline;fill:none;fill-opacity:1;stroke:#bec3c6;stroke-width:.243937;stroke-linecap:butt;stroke-linejoin:miter;stroke-dasharray:none;stroke-opacity:1" d="M 108.27429,244.86628 V 257.0116" id="path37" transform="matrix(40.994174,0,0,40.994174,1.00188,-10010.758)"/>
      <path style="font-variation-settings:'wdth' 70,'wght' 600;display:inline;fill:none;fill-opacity:1;stroke:#bec3c6;stroke-width:.243937;stroke-linecap:butt;stroke-linejoin:miter;stroke-dasharray:none;stroke-opacity:1" d="M 115.67342,244.86672 V 257.0116" id="path38" transform="matrix(40.994174,0,0,40.994174,1.00188,-10010.758)"/>
      <path style="font-variation-settings:'wdth' 70,'wght' 600;display:inline;fill:none;fill-opacity:1;stroke:#bec3c6;stroke-width:.243937;stroke-linecap:butt;stroke-linejoin:miter;stroke-dasharray:none;stroke-opacity:1" d="m 72.947613,262.85248 v 14.85034" id="path39" transform="matrix(40.994174,0,0,40.994174,1.00188,-10010.758)"/>
      <path style="font-variation-settings:'wdth' 70,'wght' 600;display:inline;fill:none;fill-opacity:1;stroke:#bec3c6;stroke-width:.243937;stroke-linecap:butt;stroke-linejoin:miter;stroke-dasharray:none;stroke-opacity:1" d="m 81.803007,262.85248 v 14.85034" id="path40" transform="matrix(40.994174,0,0,40.994174,1.00188,-10010.758)"/>
      <path style="font-variation-settings:'wdth' 70,'wght' 600;display:inline;fill:none;fill-opacity:1;stroke:#bec3c6;stroke-width:10;stroke-linecap:butt;stroke-linejoin:miter;stroke-dasharray:none;stroke-opacity:1" d="M 4071.7363,765.17063 V 878.20332" id="path41"/>
      <path style="font-variation-settings:'wdth' 70,'wght' 600;display:inline;fill:none;fill-opacity:1;stroke:#bec3c6;stroke-width:.243937;stroke-linecap:butt;stroke-linejoin:miter;stroke-dasharray:none;stroke-opacity:1" d="m 108.17906,262.80493 v 1.92325" id="path43" transform="matrix(40.994174,0,0,40.994174,1.00188,-10010.758)"/>
      <path style="font-variation-settings:'wdth' 70,'wght' 600;display:inline;fill:none;fill-opacity:1;stroke:#bec3c6;stroke-width:10;stroke-linecap:butt;stroke-linejoin:miter;stroke-dasharray:none;stroke-opacity:1" d="M 4071.7363,998.20343 V 1373.1562" id="path44"/>
      <path style="font-variation-settings:'wdth' 70,'wght' 600;display:inline;fill:none;fill-opacity:1;stroke:#bec3c6;stroke-width:.243937;stroke-linecap:butt;stroke-linejoin:miter;stroke-dasharray:none;stroke-opacity:1" d="m 108.17906,267.65543 v 10.04652" id="path45" transform="matrix(40.994174,0,0,40.994174,1.00188,-10010.758)"/>
      <path style="font-variation-settings:'wdth' 70,'wght' 600;display:inline;fill:none;fill-opacity:1;stroke:#bec3c6;stroke-width:1.09772;stroke-linecap:butt;stroke-linejoin:miter;stroke-dasharray:none;stroke-opacity:1" d="m 102.45303,277.70195 h 1.53095" id="path47" transform="matrix(40.994174,0,0,40.994174,1.00188,-10010.758)"/>
      <path style="font-variation-settings:'wdth' 70,'wght' 600;display:inline;fill:none;fill-opacity:1;stroke:#bec3c6;stroke-width:1.09772;stroke-linecap:butt;stroke-linejoin:miter;stroke-dasharray:none;stroke-opacity:1" d="m 106.91123,277.70195 h 16.79943 v -16.33006" id="path48" transform="matrix(40.994174,0,0,40.994174,1.00188,-10010.758)"/>
      <path style="font-variation-settings:'wdth' 70,'wght' 600;display:inline;fill:none;fill-opacity:1;stroke:#bec3c6;stroke-width:.243937;stroke-linecap:butt;stroke-linejoin:miter;stroke-dasharray:none;stroke-opacity:1" d="m 102.67849,277.70195 v 12.39557" id="path49" transform="matrix(40.994174,0,0,40.994174,1.00188,-10010.758)"/>
      <path style="font-variation-settings:'wdth' 70,'wght' 600;display:inline;fill:none;fill-opacity:1;stroke:#bec3c6;stroke-width:.243937;stroke-linecap:butt;stroke-linejoin:miter;stroke-dasharray:none;stroke-opacity:1" d="m 36.958602,257.59361 h 3.601865" id="path50" transform="matrix(40.994174,0,0,40.994174,1.00188,-10010.758)"/>
      <path style="font-variation-settings:'wdth' 70,'wght' 600;display:inline;fill:none;fill-opacity:1;stroke:#bec3c6;stroke-width:.243937;stroke-linecap:butt;stroke-linejoin:miter;stroke-dasharray:none;stroke-opacity:1" d="m 43.487717,257.59361 h 3.418919" id="path51" transform="matrix(40.994174,0,0,40.994174,1.00188,-10010.758)"/>
      <path style="font-variation-settings:'wdth' 70,'wght' 600;display:inline;fill:none;fill-opacity:1;stroke:#bec3c6;stroke-width:.243937;stroke-linecap:butt;stroke-linejoin:miter;stroke-dasharray:none;stroke-opacity:1" d="m 47.52578,257.31608 h 4.944401" id="path52" transform="matrix(40.994174,0,0,40.994174,1.00188,-10010.758)"/>
      <path style="font-variation-settings:'wdth' 70,'wght' 600;display:inline;fill:none;fill-opacity:1;stroke:#bec3c6;stroke-width:.243937;stroke-linecap:butt;stroke-linejoin:miter;stroke-dasharray:none;stroke-opacity:1" d="m 54.833183,257.31608 h 3.100586" id="path56" transform="matrix(40.994174,0,0,40.994174,1.00188,-10010.758)"/>
      <path style="font-variation-settings:'wdth' 70,'wght' 600;display:inline;fill:none;fill-opacity:1;stroke:#bec3c6;stroke-width:.243937;stroke-linecap:butt;stroke-linejoin:miter;stroke-dasharray:none;stroke-opacity:1" d="m 60.285423,257.31608 h 4.282942" id="path57" transform="matrix(40.994174,0,0,40.994174,1.00188,-10010.758)"/>
      <path style="font-variation-settings:'wdth' 70,'wght' 600;display:inline;fill:none;fill-opacity:1;stroke:#bec3c6;stroke-width:.243937;stroke-linecap:butt;stroke-linejoin:miter;stroke-dasharray:none;stroke-opacity:1" d="m 55.561665,244.86672 v 12.40933" id="path58" transform="matrix(40.994174,0,0,40.994174,1.00188,-10010.758)"/>
      <path style="font-variation-settings:'wdth' 70,'wght' 600;display:inline;fill:none;fill-opacity:1;stroke:#bec3c6;stroke-width:.609843;stroke-linecap:butt;stroke-linejoin:miter;stroke-dasharray:none;stroke-opacity:1" d="m 61.445598,266.52161 h 2.005677 v 5.48057 h -7.291502 v -5.48057 h 1.931258" id="path79" transform="matrix(40.994174,0,0,40.994174,1.00188,-10010.758)"/>
      <path style="font-variation-settings:'wdth' 70,'wght' 600;display:inline;fill:none;fill-opacity:1;stroke:#bec3c6;stroke-width:25;stroke-linecap:butt;stroke-linejoin:miter;stroke-dasharray:none;stroke-opacity:1" d="m 2303.2243,1139.7504 v 106.2941" id="path80"/>
      <path style="font-variation-settings:'wdth' 70,'wght' 600;display:inline;fill:none;fill-opacity:1;stroke:#bec3c6;stroke-width:1.09448;stroke-linecap:butt;stroke-linejoin:miter;stroke-dasharray:none;stroke-opacity:1" d="M 123.65149,15.693264 V 2.1554125 H 47.744436 v 4.143616 H 1.1806577 V 24.251475" id="path170" transform="matrix(41.115504,0,0,41.115504,-11.575065,-61.269892)"/>
      <path style="font-variation-settings:'wdth' 70,'wght' 600;display:inline;fill:none;fill-opacity:1;stroke:#bec3c6;stroke-width:1.09448;stroke-linecap:butt;stroke-linejoin:miter;stroke-dasharray:none;stroke-opacity:1" d="M 99.537977,34.894613 H 46.404282 V 46.658502 H 1.1806577 V 28.641549" id="path171" transform="matrix(41.115504,0,0,41.115504,-11.575065,-61.269892)"/>
      <path style="font-variation-settings:'wdth' 70,'wght' 600;display:inline;fill:none;fill-opacity:1;stroke:#bec3c6;stroke-width:35;stroke-linecap:butt;stroke-linejoin:miter;stroke-dasharray:none;stroke-opacity:1" d="m 2632.1211,762.71303 h 125.9038" id="path91"/>
      <path style="font-variation-settings:'wdth' 70,'wght' 600;display:inline;fill:none;fill-opacity:1;stroke:#bec3c6;stroke-width:.243937;stroke-linecap:butt;stroke-linejoin:miter;stroke-dasharray:none;stroke-opacity:1" d="m 47.112369,253.20243 h 6.184635" id="path42" transform="matrix(40.994174,0,0,40.994174,1.00188,-10010.758)"/>
      <path style="font-variation-settings:'wdth' 70,'wght' 600;display:inline;fill:none;fill-opacity:1;stroke:#bec3c6;stroke-width:.243937;stroke-linecap:butt;stroke-linejoin:miter;stroke-dasharray:none;stroke-opacity:1" d="m 59.69372,253.20243 h 4.572331" id="path53" transform="matrix(40.994174,0,0,40.994174,1.00188,-10010.758)"/>
      <path style="font-variation-settings:'wdth' 70,'wght' 600;display:inline;fill:none;fill-opacity:1;stroke:#bec3c6;stroke-width:.243937;stroke-linecap:butt;stroke-linejoin:miter;stroke-dasharray:none;stroke-opacity:1" d="m 55.11009,253.20243 h 2.819466" id="path54" transform="matrix(40.994174,0,0,40.994174,1.00188,-10010.758)"/>
    </g>
    <g id="icons_1" transform="matrix(0.02439371,0,0,0.02439371,-0.02443957,244.19953)">
      <path d="m 2437.9845,259.45949 v -31.86527 h -10.1036 v -32.25391 q 0,-3.56217 2.5583,-6.12046 2.5583,-2.55829 6.1205,-2.55829 h 19.9482 q 3.5621,0 6.1204,2.55829 2.5583,2.55829 2.5583,6.12046 v 32.25391 h -10.1036 v 31.86527 z m 8.5596,-82.6425 q -3.6891,0 -6.1891,-2.5544 -2.5,-2.55454 -2.5,-6.11399 0,-3.68912 2.4896,-6.18912 2.4899,-2.5 6.1788,-2.5 3.6891,0 6.1891,2.48964 2.5,2.48976 2.5,6.17875 0,3.55959 -2.4896,6.12436 -2.4897,2.56476 -6.1788,2.56476 z" id="path1-7" style="fill:#fff;fill-opacity:.798742;stroke-width:.129534;filter:url(#filter17)"/>
      <path d="m 2117.236,259.45949 v -30.05182 h -14.7668 l 14.2098,-39.44586 q 1.121,-2.89831 3.8366,-4.58886 2.7155,-1.69067 5.7878,-1.69067 3.0723,0 5.7878,1.69067 2.7156,1.69055 3.8542,4.57785 l 14.1922,39.45687 h -14.7668 v 30.05182 z m 9.0778,-82.6425 q -3.6892,0 -6.1892,-2.55039 -2.5,-2.55039 -2.5,-6.118 0,-3.68912 2.4897,-6.18912 2.4899,-2.5 6.1787,-2.5 3.6892,0 6.1892,2.48963 2.5,2.48977 2.5,6.114 0,3.62435 -2.4897,6.18912 -2.4896,2.56476 -6.1787,2.56476 z" id="path1-8" style="fill:#fff;fill-opacity:.803459;stroke-width:.129534;filter:url(#filter15)"/>
      <g id="elevator_1" style="filter:url(#filter65)">
        <rect style="font-variation-settings:'wdth' 70,'wght' 600;fill:none;fill-opacity:1;stroke:#d6d7de;stroke-width:4.78791;stroke-linejoin:miter;stroke-dasharray:none;stroke-opacity:1" id="rect64" width="95.212135" height="95.212151" x="2405.0667" y="979.80487" ry="9.1410179"/>
        <path d="m 2427.7505,1062.6135 h 12.6169 v -23.8318 h 6.2306 v -17.757 c 0,-2.6337 -0.8992,-4.8497 -2.6976,-6.6481 -1.7985,-1.7985 -4.0665,-2.6977 -6.804,-2.6977 h -6.2306 c -2.7375,0 -4.9794,0.8992 -6.7258,2.6977 -1.7466,1.7984 -2.6199,4.0144 -2.6199,6.6481 v 17.757 h 6.2304 z m 6.1958,-54.9845 c 2.1478,0 3.9626,-0.7033 5.4445,-2.1098 1.4819,-1.4064 2.2228,-3.2356 2.2228,-5.4875 0,-2.148 -0.7292,-3.93697 -2.1877,-5.3669 -1.4583,-1.42987 -3.2615,-2.1448 -5.4096,-2.1448 -2.1481,0 -3.937,0.70327 -5.3669,2.1098 -1.4299,1.4064 -2.1449,3.18367 -2.1449,5.3318 0,2.2518 0.7033,4.0926 2.11,5.5225 1.4064,1.4299 3.1837,2.1449 5.3318,2.1449 z m 28.3838,9.9689 h 20.0934 l -9.9688,-16.1994 z m 10.1246,35.6697 9.9688,-16.1993 h -20.0934 z" id="path64" style="fill:#d5d6dd;fill-opacity:1;stroke-width:0;stroke-dasharray:none"/>
      </g>
    </g>
    <path id="roomNames_1" d="m 356.2847,154.10988 v -11.424 h 13.248 v -35.232 h -11.424 v -8.736 q 4.992,-0.96 8.448,-2.304 3.552,-1.344 6.72,-3.264 h 10.368 v 49.536 h 11.424 v 11.424 z m 47.51999,0 v -8.736 q 7.68,-6.816 13.632,-12.768 6.048,-5.952 9.408,-11.04 3.456,-5.088 3.456,-9.312 0,-4.512 -2.304,-6.816 -2.304,-2.4 -6.336,-2.4 -3.264,0 -5.952,1.92 -2.592,1.824 -4.896,4.32 l -7.392,-7.296 q 4.416,-4.992 9.024,-7.488 4.704,-2.496 11.136,-2.496 5.952,0 10.464,2.4 4.608,2.4 7.104,6.72 2.592,4.32 2.592,10.176 0,5.472 -2.976,10.752 -2.88,5.184 -7.68,10.368 -4.8,5.184 -10.176,10.56 2.304,-0.288 5.184,-0.48 2.88,-0.288 4.992,-0.288 h 13.632 v 11.904 z m 70.46398,1.152 q -4.896,0 -8.928,-1.152 -3.936,-1.056 -7.008,-2.976 -3.072,-1.92 -5.28,-4.512 l 6.528,-8.928 q 2.784,2.688 6.144,4.416 3.36,1.728 7.2,1.728 4.416,0 7.104,-1.824 2.784,-1.92 2.784,-5.376 0,-2.688 -1.344,-4.608 -1.344,-2.016 -4.896,-3.072 -3.456,-1.056 -10.176,-1.056 v -9.984 q 5.472,0 8.64,-1.056 3.168,-1.056 4.416,-2.88 1.344,-1.824 1.344,-4.224 0,-3.264 -2.016,-4.992 -1.92,-1.728 -5.472,-1.728 -3.264,0 -5.952,1.44 -2.592,1.344 -5.472,3.936 l -7.104,-8.64 q 4.224,-3.648 8.928,-5.664 4.704,-2.112 10.272,-2.112 6.24,0 10.944,2.016 4.8,1.92 7.392,5.664 2.688,3.648 2.688,9.024 0,4.704 -2.688,8.064 -2.592,3.36 -7.488,5.472 v 0.384 q 3.456,1.056 6.24,3.072 2.784,1.92 4.32,4.896 1.536,2.976 1.536,6.912 0,5.664 -3.168,9.696 -3.072,3.936 -8.256,6.048 -5.088,2.016 -11.232,2.016 z M 371.64463,34.10988 v -8.544 l 27.648,-42.144 h -25.056 v -11.904 h 42.432 v 8.544 l -27.648,42.144 h 27.936 v 11.904 z m 79.58401,1.152 q -6.144,0 -10.848,-1.632 -4.608,-1.728 -7.776,-5.28 -3.168,-3.648 -4.8,-9.216 -1.632,-5.568 -1.632,-13.2480003 V -28.48212 h 14.208 V 7.3258797 q 0,5.8560003 1.248,9.3120003 1.248,3.36 3.648,4.896 2.4,1.536 5.952,1.536 3.456,0 5.952,-1.536 2.496,-1.536 3.744,-4.896 1.344,-3.456 1.344,-9.3120003 V -28.48212 h 13.632 V 5.8858797 q 0,7.6800003 -1.632,13.2480003 -1.536,5.568 -4.704,9.216 -3.072,3.552 -7.68,5.28 -4.608,1.632 -10.656,1.632 z m -489.30112,119.424 v -11.424 h 13.248 v -35.232 h -11.424 v -8.736 q 4.992,-0.96 8.448,-2.304 3.552,-1.344 6.72,-3.264 h 10.368 v 49.536 h 11.424 v 11.424 z m 47.51999,0 v -8.736 q 7.68,-6.816 13.632,-12.768 6.048,-5.952 9.408,-11.04 3.456,-5.088 3.456,-9.312 0,-4.512 -2.304,-6.816 -2.304,-2.4 -6.336,-2.4 -3.264,0 -5.952,1.92 -2.592,1.824 -4.896,4.32 l -7.392,-7.296 q 4.416,-4.992 9.024,-7.488 4.704,-2.496 11.136,-2.496 5.952,0 10.464,2.4 4.608,2.4 7.104,6.72 2.592,4.32 2.592,10.176 0,5.472 -2.976,10.752 -2.88,5.184 -7.68,10.368 -4.8,5.184 -10.176,10.56 2.304,-0.288 5.184,-0.48 2.88,-0.288 4.992,-0.288 h 13.632 v 11.904 z m 75.35998,0 v -35.232 q 0,-2.88 0.192,-6.816 0.288,-3.936 0.384,-6.816 h -0.384 q -1.152,2.496 -2.4,5.088 -1.248,2.496 -2.592,5.184 l -8.064,13.248 h 33.024 v 10.752 h -46.56 v -9.696 l 22.272,-36.672 h 17.28 v 60.96 z m -107.52004,-120 v -8.544 l 27.648,-42.144 h -25.056 v -11.904 h 42.432 v 8.544 l -27.648,42.144 h 27.936 v 11.904 z m 79.58401,1.152 q -6.144,0 -10.848,-1.632 -4.608,-1.728 -7.776,-5.28 -3.168,-3.648 -4.8,-9.216 -1.632,-5.568 -1.632,-13.2480003 V -27.90612 h 14.208 V 7.9018797 q 0,5.8560003 1.248,9.3120003 1.248,3.36 3.648,4.896 2.4,1.536 5.952,1.536 3.456,0 5.952,-1.536 2.496,-1.536 3.744,-4.896 1.344,-3.456 1.344,-9.3120003 V -27.90612 h 13.632 V 6.4618797 q 0,7.6800003 -1.632,13.2480003 -1.536,5.568 -4.704,9.216 -3.072,3.552 -7.68,5.28 -4.608,1.632 -10.656,1.632 z m -604.82793,118.272 v -11.424 h 13.248 v -35.232 h -11.424 v -8.736 q 4.992,-0.96 8.448,-2.304 3.552,-1.344 6.72,-3.264 h 10.368 v 49.536 h 11.424 v 11.424 z m 47.51999,0 v -8.736 q 7.68,-6.816 13.632,-12.768 6.048,-5.952 9.408,-11.04 3.456,-5.088 3.456,-9.312 0,-4.512 -2.304,-6.816 -2.304,-2.4 -6.336,-2.4 -3.264,0 -5.952,1.92 -2.592,1.824 -4.896,4.32 l -7.392,-7.296 q 4.416,-4.992 9.024,-7.488 4.704,-2.496 11.136,-2.496 5.952,0 10.464,2.4 4.608,2.4 7.104,6.72 2.592,4.32 2.592,10.176 0,5.472 -2.976,10.752 -2.88,5.184 -7.68,10.368 -4.8,5.184 -10.176,10.56 2.304,-0.288 5.184,-0.48 2.88,-0.288 4.992,-0.288 h 13.632 v 11.904 z m 70.84798,1.152 q -4.992,0 -9.024,-1.152 -3.936,-1.152 -7.008,-3.072 -3.072,-1.92 -5.472,-4.32 l 6.336,-8.928 q 2.784,2.496 6.048,4.32 3.264,1.728 7.104,1.728 3.072,0 5.376,-1.056 2.304,-1.152 3.552,-3.264 1.344,-2.112 1.344,-5.184 0,-4.608 -2.688,-7.008 -2.688,-2.4 -6.912,-2.4 -2.592,0 -4.416,0.672 -1.824,0.672 -4.608,2.4 l -6.336,-4.032 1.728,-30.816 h 34.56 v 11.904 h -22.368 l -1.056,11.424 q 1.824,-0.768 3.36,-1.056 1.536,-0.384 3.456,-0.384 5.28,0 9.696,2.016 4.416,2.016 7.008,6.24 2.688,4.224 2.688,10.656 0,6.816 -3.168,11.616 -3.072,4.704 -8.16,7.2 -5.088,2.496 -11.04,2.496 z m -103.00804,-121.152 v -8.544 l 27.648,-42.144 h -25.056 v -11.904 h 42.432 v 8.544 l -27.648,42.144 h 27.936 v 11.904 z m 79.58401,1.152 q -6.144,0 -10.848,-1.632 -4.608,-1.728 -7.776,-5.28 -3.168,-3.648 -4.8,-9.216 -1.632,-5.568 -1.632,-13.2480003 V -28.48212 h 14.208 V 7.3258797 q 0,5.8560003 1.248,9.3120003 1.248,3.36 3.648,4.896 2.4,1.536 5.952,1.536 3.456,0 5.952,-1.536 2.496,-1.536 3.744,-4.896 1.344,-3.456 1.344,-9.3120003 V -28.48212 h 13.632 V 5.8858797 q 0,7.6800003 -1.632,13.2480003 -1.536,5.568 -4.704,9.216 -3.072,3.552 -7.68,5.28 -4.608,1.632 -10.656,1.632 z m -609.27847,119.4242 v -11.424 h 13.248 v -35.232 h -11.424 v -8.736 q 4.992,-0.96 8.448,-2.304 3.552,-1.344 6.72,-3.264 h 10.368 v 49.536 h 11.424 v 11.424 z m 47.52,0 v -8.736 q 7.68,-6.816 13.632,-12.768 6.04802,-5.952 9.40802,-11.04 3.456,-5.088 3.456,-9.312 0,-4.512 -2.304,-6.816 -2.304,-2.4 -6.336,-2.4 -3.26402,0 -5.95202,1.92 -2.592,1.824 -4.896,4.32 l -7.392,-7.296 q 4.416,-4.992 9.024,-7.488 4.704,-2.496 11.13602,-2.496 5.952,0 10.464,2.4 4.608,2.4 7.104,6.72 2.592,4.32 2.592,10.176 0,5.472 -2.976,10.752 -2.88,5.184 -7.68,10.368 -4.8,5.184 -10.176,10.56 2.304,-0.288 5.184,-0.48 2.88,-0.288 4.992,-0.288 h 13.632 v 11.904 z m 61.536,0 q 0.48,-7.584 1.536,-13.92 1.056,-6.432 2.976,-12.192 2.016,-5.76 5.088,-11.328 3.072,-5.568 7.584,-11.616 h -27.36 v -11.904 h 42.432 v 8.64 q -5.376,6.528 -8.832,12.192 -3.36,5.664 -5.184,11.52 -1.824,5.856 -2.688,12.768 -0.864,6.912 -1.344,15.84 z m -93.696,-120 v -8.544 l 27.648,-42.144 h -25.056 v -11.904 h 42.432 v 8.544 l -27.648,42.144 h 27.936 v 11.904 z m 79.58397,1.152 q -6.144,0 -10.848,-1.632 -4.608,-1.728 -7.776,-5.28 -3.168,-3.648 -4.8,-9.216 -1.632,-5.568 -1.632,-13.2480003 V -27.90592 h 14.208 V 7.9020797 q 0,5.8560003 1.248,9.3120003 1.248,3.36 3.648,4.896 2.4,1.536 5.952,1.536 3.456,0 5.952,-1.536 2.496,-1.536 3.744,-4.896 1.344,-3.456 1.344,-9.3120003 V -27.90592 h 13.632 V 6.4620797 q 0,7.6800003 -1.632,13.2480003 -1.536,5.568 -4.704,9.216 -3.072,3.552 -7.68,5.28 -4.608,1.632 -10.656,1.632 z m -136.58947,-858.86232 v -11.424 h 13.248 v -35.232 h -11.424 v -8.736 q 4.992,-0.96 8.448,-2.304 3.552,-1.344 6.72,-3.264 h 10.368 v 49.536 h 11.424 v 11.424 z m 47.52,0 v -8.736 q 7.68,-6.816 13.632,-12.768 6.048,-5.952 9.408,-11.04 3.456,-5.088 3.456,-9.312 0,-4.512 -2.304,-6.816 -2.304,-2.4 -6.336,-2.4 -3.264,0 -5.952,1.92 -2.592,1.824 -4.896,4.32 l -7.392,-7.296 q 4.416,-4.992 9.024,-7.488 4.704,-2.496 11.136,-2.496 5.952,0 10.464,2.4 4.608,2.4 7.104,6.72 2.592,4.32 2.592,10.176 0,5.472 -2.976,10.752 -2.88,5.184 -7.68,10.368 -4.8,5.184 -10.176,10.56 2.304,-0.288 5.184,-0.48 2.88,-0.288 4.992,-0.288 h 13.632 v 11.904 z m 69.11995,1.152 q -6.048,0 -10.464,-2.208 -4.41595,-2.208 -7.39195,-5.088 l 7.48795,-8.448 q 1.536,1.728 4.128,3.072 2.688,1.248 5.28,1.248 3.648,0 6.432,-2.016 2.88,-2.016 4.512,-6.72 1.728,-4.8 1.728,-12.864 0,-7.584 -1.44,-11.808 -1.344,-4.32 -3.648,-6.048 -2.208,-1.824 -4.8,-1.824 -2.016,0 -3.84,1.056 -1.728,1.056 -2.784,3.168 -1.056,2.112 -1.056,5.664 0,3.168 1.056,5.184 1.056,1.92 2.88,2.784 1.824,0.864 4.128,0.864 2.4,0 4.896,-1.44 2.496,-1.536 4.512,-5.088 l 0.672,9.216 q -2.304,3.36 -6.048,5.376 -3.744,1.92 -6.816,1.92 -5.184,0 -9.312,-2.016 -4.12795,-2.016 -6.52795,-6.144 -2.304,-4.224 -2.304,-10.656 0,-6.336 2.784,-10.944 2.784,-4.608 7.39195,-7.008 4.608,-2.496 10.08,-2.496 4.512,0 8.64,1.728 4.128,1.728 7.296,5.376 3.264,3.648 5.184,9.408 2.016,5.664 2.016,13.728 0,8.544 -2.112,14.784 -2.016,6.24 -5.472,10.272 -3.456,4.032 -7.872,6.048 -4.416,1.92 -9.216,1.92 z m -101.28005,-121.152 v -8.544 l 27.648,-42.144 h -25.056 v -11.90396 h 42.432 v 8.54396 l -27.648,42.144 h 27.936 v 11.904 z m 79.584,1.152 q -6.144,0 -10.848,-1.632 -4.608,-1.728 -7.776,-5.28 -3.168,-3.648 -4.8,-9.216 -1.632,-5.568 -1.632,-13.248 v -34.36796 h 14.208 v 35.80796 q 0,5.856 1.248,9.312 1.248,3.36 3.648,4.896 2.4,1.536 5.952,1.536 3.456,0 5.952,-1.536 2.496,-1.536 3.74402,-4.896 1.344,-3.456 1.344,-9.312 v -35.80796 h 13.632 v 34.36796 q 0,7.68 -1.632,13.248 -1.536,5.568 -4.704,9.216 -3.072,3.552 -7.68,5.28 -4.60802,1.632 -10.65602,1.632 z m 270.2649,118.37452 v -11.424 h 13.248 v -35.232 h -11.424 v -8.736 q 4.992,-0.96 8.448,-2.304 3.552,-1.344 6.72,-3.264 h 10.368 v 49.536 h 11.424 v 11.424 z m 67.29599,1.152 q -4.896,0 -8.928,-1.152 -3.936,-1.056 -7.008,-2.976 -3.072,-1.92 -5.28,-4.512 l 6.528,-8.928 q 2.784,2.688 6.144,4.416 3.36,1.728 7.2,1.728 4.416,0 7.104,-1.824 2.784,-1.92 2.784,-5.376 0,-2.688 -1.344,-4.608 -1.344,-2.016 -4.896,-3.072 -3.456,-1.056 -10.176,-1.056 v -9.984 q 5.472,0 8.64,-1.056 3.168,-1.056 4.416,-2.88 1.344,-1.824 1.344,-4.224 0,-3.264 -2.016,-4.992 -1.92,-1.728 -5.472,-1.728 -3.264,0 -5.952,1.44 -2.592,1.344 -5.472,3.936 l -7.104,-8.64 q 4.224,-3.648 8.928,-5.664 4.704,-2.112 10.272,-2.112 6.24,0 10.944,2.016 4.8,1.92 7.392,5.664 2.688,3.648 2.688,9.024 0,4.704 -2.688,8.064 -2.592,3.36 -7.488,5.472 v 0.384 q 3.456,1.056 6.24,3.072 2.784,1.92 4.32,4.896 1.536,2.976 1.536,6.912 0,5.664 -3.168,9.696 -3.072,3.936 -8.256,6.048 -5.088,2.016 -11.232,2.016 z m 52.70398,0 q -9.792,0 -15.84,-8.16 -5.952,-8.16 -5.952,-23.712 0,-15.648 5.952,-23.52 6.048,-7.872 15.84,-7.872 9.792,0 15.744,7.968 6.048,7.872 6.048,23.424 0,15.552 -6.048,23.712 -5.952,8.16 -15.744,8.16 z m 0,-10.944 q 2.4,0 4.32,-1.728 1.92,-1.824 2.976,-6.336 1.152,-4.608 1.152,-12.864 0,-8.352 -1.152,-12.768 -1.056,-4.416 -2.976,-6.048 -1.92,-1.632 -4.32,-1.632 -2.4,0 -4.32,1.632 -1.92,1.632 -3.072,6.048 -1.056,4.416 -1.056,12.768 0,8.256 1.056,12.864 1.152,4.512 3.072,6.336 1.92,1.728 4.32,1.728 z m -104.64004,-110.208 v -8.544 l 27.648,-42.144 h -25.056 v -11.90398 h 42.432 v 8.54398 l -27.648,42.144 h 27.936 v 11.904 z m 79.58401,1.152 q -6.144,0 -10.848,-1.632 -4.608,-1.728 -7.776,-5.28 -3.168,-3.648 -4.8,-9.216 -1.632,-5.568 -1.632,-13.248 v -34.36798 h 14.208 v 35.80798 q 0,5.856 1.248,9.312 1.248,3.36 3.648,4.896 2.4,1.536 5.952,1.536 3.456,0 5.952,-1.536 2.496,-1.536 3.744,-4.896 1.344,-3.456 1.344,-9.312 v -35.80798 h 13.632 v 34.36798 q 0,7.68 -1.632,13.248 -1.536,5.568 -4.704,9.216 -3.072,3.552 -7.68,5.28 -4.608,1.632 -10.656,1.632 z m 383.21635,209.568 v -22.848 h 26.496 v -70.464 h -22.848 v -17.472 q 9.984,-1.92 16.896,-4.608 7.104,-2.688 13.44,-6.528 h 20.736 v 99.072 h 22.848 v 22.848 z m 134.59198,2.304 q -9.792,0 -17.856,-2.304 -7.872,-2.112 -14.016,-5.952 -6.144,-3.84 -10.56,-9.024 l 13.056,-17.856 q 5.568,5.376 12.288,8.832 6.72,3.456 14.4,3.456 8.832,0 14.208,-3.648 5.568,-3.84 5.568,-10.752 0,-5.376 -2.688,-9.216 -2.688,-4.032 -9.792,-6.144 -6.912,-2.112 -20.352,-2.112 v -19.968 q 10.944,0 17.28,-2.112 6.336,-2.112 8.832,-5.76 2.688,-3.648 2.688,-8.448 0,-6.528 -4.032,-9.984 -3.84,-3.456 -10.944,-3.456 -6.528,0 -11.904,2.88 -5.184,2.688 -10.944,7.872 l -14.208,-17.28 q 8.448,-7.296 17.856,-11.328 9.408,-4.224 20.544,-4.224 12.48,0 21.888,4.032 9.6,3.84 14.784,11.328 5.376,7.296 5.376,18.048 0,9.408 -5.376,16.128 -5.184,6.72 -14.976,10.944 v 0.768 q 6.912,2.112 12.48,6.144 5.568,3.84 8.64,9.792 3.072,5.952 3.072,13.824 0,11.328 -6.336,19.392 -6.144,7.872 -16.512,12.096 -10.176,4.032 -22.464,4.032 z m 68.15998,-2.304 v -22.848 h 26.496 v -70.464 h -22.848 v -17.472 q 9.984,-1.92 16.896,-4.608 7.104,-2.688 13.44,-6.528 h 20.736 v 99.072 h 22.848 v 22.848 z m -172.03209,-240 v -17.088 l 55.296,-84.28798 h -50.112 v -23.808 h 84.864 v 17.088 l -55.296,84.28798 h 55.872 v 23.808 z m 159.16802,2.304 q -12.288,0 -21.696,-3.264 -9.216,-3.456 -15.552,-10.56 -6.336,-7.296 -9.6,-18.43198 -3.264,-11.136 -3.264,-26.496 v -68.736 h 28.416 v 71.616 q 0,11.712 2.496,18.624 2.496,6.72 7.296,9.79198 4.8,3.072 11.904,3.072 6.912,0 11.904,-3.072 4.992,-3.07198 7.488,-9.79198 2.688,-6.912 2.688,-18.624 v -71.616 h 27.264 v 68.736 q 0,15.36 -3.264,26.496 -3.072,11.13598 -9.408,18.43198 -6.144,7.104 -15.36,10.56 -9.216,3.264 -21.312,3.264 z M 351.03831,-976.8 v -11.424 h 13.248 v -35.232 h -11.424 v -8.736 q 4.992,-0.96 8.448,-2.304 3.552,-1.344 6.72,-3.264 h 10.368 v 49.536 h 11.424 v 11.424 z m 67.29599,1.152 q -4.896,0 -8.928,-1.152 -3.936,-1.056 -7.008,-2.976 -3.072,-1.92 -5.28,-4.512 l 6.528,-8.928 q 2.784,2.688 6.144,4.416 3.36,1.728 7.2,1.728 4.416,0 7.104,-1.824 2.784,-1.92 2.784,-5.376 0,-2.688 -1.344,-4.608 -1.344,-2.016 -4.896,-3.072 -3.456,-1.056 -10.176,-1.056 v -9.984 q 5.472,0 8.64,-1.056 3.168,-1.056 4.416,-2.88 1.344,-1.824 1.344,-4.224 0,-3.264 -2.016,-4.992 -1.92,-1.728 -5.472,-1.728 -3.264,0 -5.952,1.44 -2.592,1.344 -5.472,3.936 l -7.104,-8.64 q 4.224,-3.648 8.928,-5.664 4.704,-2.112 10.272,-2.112 6.24,0 10.944,2.016 4.8,1.92 7.392,5.664 2.688,3.648 2.688,9.024 0,4.704 -2.688,8.064 -2.592,3.36 -7.488,5.472 v 0.384 q 3.456,1.056 6.24,3.072 2.784,1.92 4.32,4.896 1.536,2.976 1.536,6.912 0,5.664 -3.168,9.696 -3.072,3.936 -8.256,6.048 -5.088,2.016 -11.232,2.016 z m 50.68798,0 q -4.896,0 -8.928,-1.152 -3.936,-1.056 -7.008,-2.976 -3.072,-1.92 -5.28,-4.512 l 6.528,-8.928 q 2.784,2.688 6.144,4.416 3.36,1.728 7.2,1.728 4.416,0 7.104,-1.824 2.784,-1.92 2.784,-5.376 0,-2.688 -1.344,-4.608 -1.344,-2.016 -4.896,-3.072 -3.456,-1.056 -10.176,-1.056 v -9.984 q 5.472,0 8.64,-1.056 3.168,-1.056 4.416,-2.88 1.344,-1.824 1.344,-4.224 0,-3.264 -2.016,-4.992 -1.92,-1.728 -5.472,-1.728 -3.264,0 -5.952,1.44 -2.592,1.344 -5.472,3.936 l -7.104,-8.64 q 4.224,-3.648 8.928,-5.664 4.704,-2.112 10.272,-2.112 6.24,0 10.944,2.016 4.8,1.92 7.392,5.664 2.688,3.648 2.688,9.024 0,4.704 -2.688,8.064 -2.592,3.36 -7.488,5.472 v 0.384 q 3.456,1.056 6.24,3.072 2.784,1.92 4.32,4.896 1.536,2.976 1.536,6.912 0,5.664 -3.168,9.696 -3.072,3.936 -8.256,6.048 -5.088,2.016 -11.232,2.016 z M 366.39824,-1096.8 v -8.544 l 27.648,-42.144 h -25.056 v -11.904 h 42.432 v 8.544 l -27.648,42.144 h 27.936 v 11.904 z m 79.58401,1.152 q -6.144,0 -10.848,-1.632 -4.608,-1.728 -7.776,-5.28 -3.168,-3.648 -4.8,-9.216 -1.632,-5.568 -1.632,-13.248 v -34.368 h 14.208 v 35.808 q 0,5.856 1.248,9.312 1.248,3.36 3.648,4.896 2.4,1.536 5.952,1.536 3.456,0 5.952,-1.536 2.496,-1.536 3.744,-4.896 1.344,-3.456 1.344,-9.312 v -35.808 h 13.632 v 34.368 q 0,7.68 -1.632,13.248 -1.536,5.568 -4.704,9.216 -3.072,3.552 -7.68,5.28 -4.608,1.632 -10.656,1.632 z m 1030.01015,802.13388 v -11.424 h 13.248 v -35.232 h -11.424 v -8.736 q 4.992,-0.96 8.448,-2.304 3.552,-1.344 6.72,-3.264 h 10.368 v 49.536 h 11.424 v 11.424 z m 47.52,0 v -8.736 q 7.68,-6.816 13.632,-12.768 6.048,-5.952 9.408,-11.04 3.456,-5.088 3.456,-9.312 0,-4.512 -2.304,-6.816 -2.304,-2.4 -6.336,-2.4 -3.264,0 -5.952,1.92 -2.592,1.824 -4.896,4.32 l -7.392,-7.296 q 4.416,-4.992 9.024,-7.488 4.704,-2.496 11.136,-2.496 5.952,0 10.464,2.4 4.608,2.4 7.104,6.72 2.592,4.32 2.592,10.176 0,5.472 -2.976,10.752 -2.88,5.184 -7.68,10.368 -4.8,5.184 -10.176,10.56 2.304,-0.288 5.184,-0.48 2.88,-0.288 4.992,-0.288 h 13.632 v 11.904 z m 72.4799,1.152 q -9.792,0 -15.84,-8.16 -5.952,-8.16 -5.952,-23.712 0,-15.648 5.952,-23.52 6.048,-7.872 15.84,-7.872 9.792,0 15.744,7.968 6.048,7.872 6.048,23.424 0,15.552 -6.048,23.712 -5.952,8.16 -15.744,8.16 z m 0,-10.944 q 2.4,0 4.32,-1.728 1.92,-1.824 2.976,-6.336 1.152,-4.608 1.152,-12.864 0,-8.352 -1.152,-12.768 -1.056,-4.416 -2.976,-6.048 -1.92,-1.632 -4.32,-1.632 -2.4,0 -4.32,1.632 -1.92,1.632 -3.072,6.048 -1.056,4.416 -1.056,12.768 0,8.256 1.056,12.864 1.152,4.512 3.072,6.336 1.92,1.728 4.32,1.728 z m -104.64,-110.208 v -8.544 l 27.648,-42.144 h -25.056 v -11.904 h 42.432 v 8.544 l -27.648,42.144 h 27.936 v 11.904 z m 79.584,1.152 q -6.144,0 -10.848,-1.632 -4.608,-1.728 -7.776,-5.28 -3.168,-3.648 -4.8,-9.216 -1.632,-5.568 -1.632,-13.248 v -34.368 h 14.208 v 35.808 q 0,5.856 1.248,9.312 1.248,3.36 3.648,4.896 2.4,1.536 5.952,1.536 3.456,0 5.952,-1.536 2.496,-1.536 3.744,-4.896 1.344,-3.456 1.344,-9.312 v -35.808 h 13.632 v 34.368 q 0,7.68 -1.632,13.248 -1.536,5.568 -4.704,9.216 -3.072,3.552 -7.68,5.28 -4.608,1.632 -10.656,1.632 z m 257.7098,117.9946 v -11.424 h 13.248 v -35.232 h -11.424 v -8.736 q 4.992,-0.96 8.448,-2.304 3.552,-1.344 6.72,-3.264 h 10.368 v 49.536 h 11.424 v 11.424 z m 50.688,0 v -11.424 h 13.248 v -35.232 h -11.424 v -8.736 q 4.992,-0.96 8.4479,-2.304 3.5521,-1.344 6.72,-3.264 h 10.368 v 49.536 h 11.424 v 11.424 z m 65.9519,1.152 q -6.048,0 -10.464,-2.208 -4.416,-2.208 -7.392,-5.088 l 7.488,-8.448 q 1.536,1.728 4.128,3.072 2.688,1.248 5.28,1.248 3.648,0 6.432,-2.016 2.88,-2.016 4.512,-6.72 1.728,-4.8 1.728,-12.864 0,-7.584 -1.44,-11.808 -1.344,-4.32 -3.648,-6.048 -2.208,-1.824 -4.8,-1.824 -2.016,0 -3.84,1.056 -1.728,1.056 -2.784,3.168 -1.056,2.112 -1.056,5.664 0,3.168 1.056,5.184 1.056,1.92 2.88,2.784 1.824,0.864 4.128,0.864 2.4,0 4.896,-1.44 2.496,-1.536 4.512,-5.088 l 0.672,9.216 q -2.304,3.36 -6.048,5.376 -3.744,1.92 -6.816,1.92 -5.184,0 -9.312,-2.016 -4.128,-2.016 -6.528,-6.144 -2.304,-4.224 -2.304,-10.656 0,-6.336 2.784,-10.944 2.784,-4.608 7.392,-7.008 4.608,-2.496 10.08,-2.496 4.512,0 8.64,1.728 4.128,1.728 7.296,5.376 3.264,3.648 5.184,9.408 2.016,5.664 2.016,13.728 0,8.544 -2.112,14.784 -2.016,6.24 -5.472,10.272 -3.456,4.032 -7.872,6.048 -4.416,1.92 -9.216,1.92 z m -101.28,-121.152 v -8.544 l 27.648,-42.144 h -25.056 v -11.904 h 42.432 v 8.544 l -27.648,42.144 h 27.936 v 11.904 z m 79.584,1.152 q -6.144,0 -10.848,-1.632 -4.608,-1.728 -7.776,-5.28 -3.168,-3.648 -4.8,-9.216 -1.632,-5.568 -1.632,-13.248 v -34.368 h 14.208 v 35.808 q 0,5.856 1.248,9.312 1.248,3.36 3.648,4.896 2.4,1.536 5.952,1.536 3.456,0 5.952,-1.536 2.496,-1.536 3.744,-4.896 1.344,-3.456 1.344,-9.312 v -35.808 h 13.632 v 34.368 q 0,7.68 -1.632,13.248 -1.536,5.568 -4.704,9.216 -3.072,3.552 -7.68,5.28 -4.608,1.632 -10.656,1.632 z m 691.4788,679.1199 v -11.424 h 13.248 v -35.232 h -11.424 v -8.736 q 4.992,-0.96 8.448,-2.304 3.552,-1.344 6.72,-3.264 h 10.368 v 49.536 h 11.424 v 11.424 z m 50.688,0 v -11.424 h 13.248 v -35.232 h -11.424 v -8.736 q 4.9919,-0.96 8.448,-2.304 3.552,-1.344 6.7199,-3.264 h 10.3681 v 49.536 h 11.424 v 11.424 z m 70.9439,1.152 q -4.416,0 -8.544,-1.728 -4.128,-1.728 -7.392,-5.376 -3.264,-3.648 -5.184,-9.312 -1.92,-5.76 -1.92,-13.824 0,-8.544 2.016,-14.784 2.016,-6.24 5.472,-10.272 3.456,-4.032 7.872,-5.952 4.416,-2.016 9.312,-2.016 6.048,0 10.464,2.208 4.416,2.112 7.296,5.088 l -7.392,8.448 q -1.632,-1.728 -4.224,-2.976 -2.592,-1.344 -5.28,-1.344 -3.456,0 -6.432,2.016 -2.88,2.016 -4.608,6.816 -1.632,4.704 -1.632,12.768 0,7.584 1.344,11.904 1.44,4.224 3.744,6.048 2.304,1.728 4.8,1.728 2.112,0 3.84,-1.056 1.728,-1.056 2.784,-3.168 1.056,-2.208 1.056,-5.664 0,-3.264 -1.056,-5.184 -1.056,-1.92 -2.88,-2.784 -1.728,-0.864 -4.032,-0.864 -2.4,0 -4.992,1.44 -2.496,1.44 -4.512,5.088 l -0.672,-9.216 q 2.4,-3.552 6.144,-5.376 3.744,-1.92 6.72,-1.92 5.184,0 9.312,2.016 4.128,2.016 6.432,6.24 2.4,4.128 2.4,10.56 0,6.336 -2.784,10.944 -2.688,4.608 -7.296,7.104 -4.608,2.4 -10.176,2.4 z m 54.912,0 q -3.168,0 -6.336,-1.536 -3.168,-1.632 -6.048,-4.704 h -0.384 l -1.152,5.088 h -11.04 v -67.296 h 14.112 v 16.512 l -0.384,7.296 q 2.688,-2.496 5.952,-3.84 3.264,-1.44 6.624,-1.44 5.76,0 9.984,2.976 4.224,2.976 6.432,8.448 2.304,5.376 2.304,12.672 0,8.16 -2.88,14.016 -2.88,5.76 -7.488,8.832 -4.512,2.976 -9.696,2.976 z m -3.264,-11.52 q 2.4,0 4.416,-1.44 2.112,-1.44 3.264,-4.512 1.152,-3.168 1.152,-8.064 0,-4.32 -0.96,-7.104 -0.864,-2.88 -2.688,-4.32 -1.824,-1.44 -4.608,-1.44 -2.112,0 -4.128,1.056 -1.92,0.96 -4.032,3.264 v 19.488 q 1.824,1.632 3.84,2.4 2.016,0.672 3.744,0.672 z m -130.416,-109.632 v -8.544 l 27.648,-42.144 h -25.056 v -11.904 h 42.432 v 8.544 l -27.648,42.144 h 27.936 v 11.904 z m 79.584,1.152 q -6.144,0 -10.848,-1.632 -4.608,-1.728 -7.776,-5.28 -3.168,-3.648 -4.8,-9.216 -1.632,-5.568 -1.632,-13.248 v -34.368 h 14.208 v 35.808 q 0,5.856 1.248,9.312 1.248,3.36 3.648,4.896 2.4,1.536 5.952,1.536 3.456,0 5.952,-1.536 2.496,-1.536 3.744,-4.896 1.344,-3.456 1.344,-9.312 v -35.808 h 13.632 v 34.368 q 0,7.68 -1.632,13.248 -1.536,5.568 -4.704,9.216 -3.072,3.552 -7.68,5.28 -4.608,1.632 -10.656,1.632 z m 296.6539,118.972 v -11.424 h 13.248 v -35.232 h -11.424 v -8.736 q 4.992,-0.96 8.448,-2.304 3.552,-1.344 6.72,-3.264 h 10.368 v 49.536 h 11.424 v 11.424 z m 50.688,0 v -11.424 h 13.248 v -35.232 h -11.424 v -8.736 q 4.992,-0.96 8.448,-2.304 3.552,-1.344 6.72,-3.264 h 10.368 v 49.536 h 11.424 v 11.424 z m 70.944,1.152 q -4.416,0 -8.544,-1.728 -4.128,-1.728 -7.392,-5.376 -3.264,-3.648 -5.184,-9.312 -1.92,-5.76 -1.92,-13.824 0,-8.544 2.016,-14.784 2.016,-6.24 5.472,-10.272 3.456,-4.032 7.872,-5.952 4.416,-2.016 9.312,-2.016 6.048,0 10.464,2.208 4.416,2.112 7.296,5.088 l -7.392,8.448 q -1.632,-1.728 -4.224,-2.976 -2.592,-1.344 -5.28,-1.344 -3.456,0 -6.432,2.016 -2.88,2.016 -4.608,6.816 -1.632,4.704 -1.632,12.768 0,7.584 1.344,11.904 1.44,4.224 3.744,6.048 2.304,1.728 4.8,1.728 2.112,0 3.84,-1.056 1.728,-1.056 2.784,-3.168 1.056,-2.208 1.056,-5.664 0,-3.264 -1.056,-5.184 -1.056,-1.92 -2.88,-2.784 -1.728,-0.864 -4.032,-0.864 -2.4,0 -4.992,1.44 -2.496,1.44 -4.512,5.088 l -0.672,-9.216 q 2.4,-3.552 6.144,-5.376 3.744,-1.92 6.72,-1.92 5.184,0 9.312,2.016 4.128,2.016 6.432,6.24 2.4,4.128 2.4,10.56 0,6.336 -2.784,10.944 -2.688,4.608 -7.296,7.104 -4.608,2.4 -10.176,2.4 z m 41.952,0 q -4.32,0 -7.584,-1.92 -3.168,-1.92 -4.896,-5.184 -1.728,-3.264 -1.728,-7.296 0,-7.68 6.336,-11.808 6.336,-4.224 20.448,-5.664 -0.096,-2.112 -0.96,-3.552 -0.768,-1.536 -2.4,-2.304 -1.632,-0.864 -4.128,-0.864 -2.976,0 -6.048,1.056 -3.072,1.056 -6.624,3.072 l -4.992,-9.216 q 3.072,-1.92 6.336,-3.264 3.264,-1.44 6.72,-2.208 3.552,-0.768 7.296,-0.768 6.144,0 10.272,2.4 4.224,2.304 6.432,7.104 2.208,4.704 2.208,12.096 v 27.168 h -11.52 l -0.96,-4.896 h -0.384 q -3.072,2.688 -6.432,4.416 -3.36,1.632 -7.392,1.632 z m 4.704,-11.04 q 2.4,0 4.224,-1.056 1.824,-1.056 3.648,-2.88 v -8.064 q -4.992,0.672 -7.968,1.728 -2.88,1.056 -4.128,2.592 -1.152,1.44 -1.152,3.264 0,2.208 1.44,3.36 1.536,1.056 3.936,1.056 z m -127.632,-110.112 v -8.544 l 27.648,-42.144 h -25.056 v -11.904 h 42.432 v 8.544 l -27.648,42.144 h 27.936 v 11.904 z m 79.584,1.152 q -6.144,0 -10.848,-1.632 -4.608,-1.728 -7.776,-5.28 -3.168,-3.648 -4.8,-9.216 -1.632,-5.568 -1.632,-13.248 v -34.368 h 14.208 v 35.808 q 0,5.856 1.248,9.312 1.248,3.36 3.648,4.896 2.4,1.536 5.952,1.536 3.456,0 5.952,-1.536 2.496,-1.536 3.744,-4.896 1.344,-3.456 1.344,-9.312 v -35.808 h 13.632 v 34.368 q 0,7.68 -1.632,13.248 -1.536,5.568 -4.704,9.216 -3.072,3.552 -7.68,5.28 -4.608,1.632 -10.656,1.632 z M 1149.485,-139.70546 v -7.616 h 8.832 v -23.488 h -7.616 v -5.824 q 3.3279,-0.64 5.632,-1.536 2.368,-0.896 4.48,-2.176 h 6.9119 v 33.024 h 7.616 v 7.616 z m 31.6799,0 v -5.824 q 5.12,-4.544 9.088,-8.512 4.032,-3.968 6.272,-7.36 2.304,-3.392 2.304,-6.208 0,-3.008 -1.536,-4.544 -1.536,-1.6 -4.224,-1.6 -2.176,0 -3.968,1.28 -1.728,1.216 -3.264,2.88 l -4.928,-4.864 q 2.944,-3.328 6.016,-4.992 3.136,-1.664 7.424,-1.664 3.968,0 6.976,1.6 3.072,1.6 4.736,4.48 1.728,2.88 1.728,6.784 0,3.648 -1.984,7.168 -1.92,3.456 -5.12,6.912 -3.2,3.456 -6.784,7.04 1.536,-0.192 3.456,-0.32 1.92,-0.192 3.328,-0.192 h 9.088 v 7.936 z m 33.792,0 v -5.824 q 5.12,-4.544 9.088,-8.512 4.032,-3.968 6.272,-7.36 2.304,-3.392 2.304,-6.208 0,-3.008 -1.536,-4.544 -1.536,-1.6 -4.224,-1.6 -2.176,0 -3.968,1.28 -1.728,1.216 -3.264,2.88 l -4.928,-4.864 q 2.944,-3.328 6.016,-4.992 3.136,-1.664 7.424,-1.664 3.968,0 6.976,1.6 3.072,1.6 4.736,4.48 1.728,2.88 1.728,6.784 0,3.648 -1.984,7.168 -1.92,3.456 -5.12,6.912 -3.2,3.456 -6.784,7.04 1.536,-0.192 3.456,-0.32 1.92,-0.192 3.328,-0.192 h 9.088 v 7.936 z m -55.232,-80 v -5.696 l 18.432,-28.096 h -16.704 v -7.936 h 28.288 v 5.696 l -18.432,28.096 h 18.624 v 7.936 z m 53.056,0.768 q -4.096,0 -7.232,-1.088 -3.072,-1.152 -5.184,-3.52 -2.112,-2.432 -3.2,-6.144 -1.088,-3.712 -1.088,-8.832 v -22.912 h 9.472 v 23.872 q 0,3.904 0.832,6.208 0.832,2.24 2.432,3.264 1.6,1.024 3.968,1.024 2.304,0 3.968,-1.024 1.664,-1.024 2.496,-3.264 0.896,-2.304 0.896,-6.208 v -23.872 h 9.088 v 22.912 q 0,5.12 -1.088,8.832 -1.024,3.712 -3.136,6.144 -2.048,2.368 -5.12,3.52 -3.072,1.088 -7.104,1.088 z m 263.3466,-866.23474 v -11.424 h 13.248 v -35.232 h -11.424 v -8.736 q 4.992,-0.96 8.448,-2.304 3.552,-1.344 6.72,-3.264 h 10.368 v 49.536 h 11.424 v 11.424 z m 69.3119,1.152 q -9.7919,0 -15.8399,-8.16 -5.952,-8.16 -5.952,-23.712 0,-15.648 5.952,-23.52 6.048,-7.872 15.8399,-7.872 9.7921,0 15.7441,7.968 6.048,7.872 6.048,23.424 0,15.552 -6.048,23.712 -5.952,8.16 -15.7441,8.16 z m 0,-10.944 q 2.4001,0 4.3201,-1.728 1.92,-1.824 2.976,-6.336 1.152,-4.608 1.152,-12.864 0,-8.352 -1.152,-12.768 -1.056,-4.416 -2.976,-6.048 -1.92,-1.632 -4.3201,-1.632 -2.3999,0 -4.3199,1.632 -1.92,1.632 -3.072,6.048 -1.056,4.416 -1.056,12.768 0,8.256 1.056,12.864 1.152,4.512 3.072,6.336 1.92,1.728 4.3199,1.728 z m 52.32,10.944 q -4.416,0 -8.544,-1.728 -4.128,-1.728 -7.392,-5.376 -3.264,-3.648 -5.184,-9.312 -1.92,-5.76 -1.92,-13.824 0,-8.544 2.016,-14.784 2.016,-6.24 5.472,-10.272 3.456,-4.032 7.872,-5.952 4.416,-2.016 9.312,-2.016 6.048,0 10.464,2.208 4.416,2.112 7.296,5.088 l -7.392,8.448 q -1.632,-1.728 -4.224,-2.976 -2.592,-1.344 -5.28,-1.344 -3.456,0 -6.432,2.016 -2.88,2.016 -4.608,6.816 -1.632,4.704 -1.632,12.768 0,7.584 1.344,11.904 1.44,4.224 3.744,6.048 2.304,1.728 4.8,1.728 2.112,0 3.84,-1.056 1.728,-1.056 2.784,-3.168 1.056,-2.208 1.056,-5.664 0,-3.264 -1.056,-5.184 -1.056,-1.92 -2.88,-2.784 -1.728,-0.864 -4.032,-0.864 -2.4,0 -4.992,1.44 -2.496,1.44 -4.512,5.088 l -0.672,-9.216 q 2.4,-3.552 6.144,-5.376 3.744,-1.92 6.72,-1.92 5.184,0 9.312,2.016 4.128,2.016 6.432,6.24 2.4,4.128 2.4,10.56 0,6.336 -2.784,10.944 -2.688,4.608 -7.296,7.104 -4.608,2.4 -10.176,2.4 z m -106.272,-121.152 v -8.544 l 27.648,-42.144 h -25.056 v -11.904 h 42.432 v 8.544 l -27.648,42.144 h 27.936 v 11.904 z m 79.584,1.152 q -6.144,0 -10.848,-1.632 -4.608,-1.728 -7.776,-5.28 -3.168,-3.648 -4.8,-9.216 -1.632,-5.568 -1.632,-13.248 v -34.368 h 14.208 v 35.808 q 0,5.856 1.248,9.312 1.248,3.36 3.648,4.896 2.4,1.536 5.952,1.536 3.456,0 5.952,-1.536 2.496,-1.536 3.744,-4.896 1.344,-3.456 1.344,-9.312 v -35.808 h 13.632 v 34.368 q 0,7.68 -1.632,13.248 -1.536,5.568 -4.704,9.216 -3.072,3.552 -7.68,5.28 -4.608,1.632 -10.656,1.632 z m 616.229,118.848 v -11.424 h 13.248 v -35.232 h -11.424 v -8.736 q 4.992,-0.96 8.448,-2.304 3.552,-1.344 6.72,-3.264 h 10.368 v 49.536 h 11.424 v 11.424 z m 69.3119,1.152 q -9.7919,0 -15.8399,-8.16 -5.952,-8.16 -5.952,-23.712 0,-15.648 5.952,-23.52 6.048,-7.872 15.8399,-7.872 9.792,0 15.7441,7.968 6.0479,7.872 6.0479,23.424 0,15.552 -6.0479,23.712 -5.9521,8.16 -15.7441,8.16 z m 0,-10.944 q 2.4001,0 4.3201,-1.728 1.92,-1.824 2.976,-6.336 1.1519,-4.608 1.1519,-12.864 0,-8.352 -1.1519,-12.768 -1.056,-4.416 -2.976,-6.048 -1.92,-1.632 -4.3201,-1.632 -2.4,0 -4.3199,1.632 -1.92,1.632 -3.072,6.048 -1.056,4.416 -1.056,12.768 0,8.256 1.056,12.864 1.152,4.512 3.072,6.336 1.9199,1.728 4.3199,1.728 z m 50.592,10.944 q -6.048,0 -10.944,-2.112 -4.8,-2.112 -7.584,-5.856 -2.688,-3.84 -2.688,-8.736 0,-3.744 1.344,-6.432 1.44,-2.784 3.744,-4.896 2.4,-2.112 5.28,-3.648 v -0.384 q -3.456,-2.688 -5.856,-6.144 -2.304,-3.456 -2.304,-8.256 0,-5.184 2.496,-8.928 2.496,-3.84 6.912,-5.856 4.416,-2.016 10.08,-2.016 8.448,0 13.44,4.608 5.088,4.512 5.088,12.096 0,2.88 -1.152,5.472 -1.056,2.496 -2.88,4.512 -1.824,1.92 -3.936,3.36 v 0.384 q 2.88,1.536 5.28,3.744 2.4,2.112 3.84,5.184 1.44,2.976 1.44,7.008 0,4.8 -2.688,8.64 -2.688,3.744 -7.584,6.048 -4.8,2.208 -11.328,2.208 z m 3.84,-36.672 q 1.824,-2.112 2.784,-4.32 0.96,-2.208 0.96,-4.608 0,-2.4 -0.864,-4.128 -0.864,-1.728 -2.592,-2.688 -1.632,-1.056 -3.936,-1.056 -2.784,0 -4.8,1.824 -2.016,1.728 -2.016,5.184 0,2.496 1.344,4.224 1.344,1.728 3.648,3.072 2.4,1.344 5.472,2.496 z m -3.552,26.88 q 2.304,0 4.128,-0.768 1.92,-0.864 2.976,-2.496 1.056,-1.728 1.056,-4.32 0,-2.688 -1.632,-4.416 -1.536,-1.824 -4.512,-3.168 -2.88,-1.44 -6.72,-3.072 -2.016,1.824 -3.36,4.416 -1.344,2.496 -1.344,5.28 0,2.688 1.248,4.608 1.344,1.92 3.456,2.976 2.208,0.96 4.704,0.96 z m -104.832,-111.36 v -8.544 l 27.648,-42.144 h -25.056 v -11.904 h 42.432 v 8.544 l -27.648,42.144 h 27.936 v 11.904 z m 79.584,1.152 q -6.144,0 -10.848,-1.632 -4.608,-1.728 -7.776,-5.28 -3.168,-3.648 -4.8,-9.216 -1.632,-5.568 -1.632,-13.248 v -34.368 h 14.208 v 35.808 q 0,5.856 1.248,9.312 1.248,3.36 3.648,4.896 2.4,1.536 5.952,1.536 3.456,0 5.952,-1.536 2.496,-1.536 3.744,-4.896 1.344,-3.456 1.344,-9.312 v -35.808 h 13.632 v 34.368 q 0,7.68 -1.632,13.248 -1.536,5.568 -4.704,9.216 -3.072,3.552 -7.68,5.28 -4.608,1.632 -10.656,1.632 z m 1043.8966,1002.37796 v -22.848 h 26.496 v -70.464 h -22.848 v -17.472 q 9.984,-1.92 16.896,-4.608 7.104,-2.688 13.44,-6.528 h 20.736 v 99.072 h 22.848 v 22.848 z m 101.376,0 v -22.848 h 26.4959 v -70.464 h -22.848 v -17.472 q 9.984,-1.92 16.896,-4.608 7.104,-2.688 13.4401,-6.528 h 20.7359 v 99.072 h 22.848 v 22.848 z m 144.3839,0 v -70.464 q 0,-5.76 0.384,-13.632 0.576,-7.872 0.768,-13.632 h -0.768 q -2.304,4.992 -4.8,10.176 -2.496,4.992 -5.184,10.368 l -16.128,26.496 h 66.048 v 21.504 h -93.12 v -19.392 l 44.544,-73.344 h 34.56 v 121.92 z m -215.0401,-240 v -17.088 l 55.296,-84.288 h -50.112 v -23.808 h 84.864 v 17.088 l -55.296,84.288 h 55.872 v 23.808 z m 159.1681,2.304 q -12.288,0 -21.696,-3.264 -9.216,-3.456 -15.552,-10.56 -6.336,-7.296 -9.6,-18.432 -3.264,-11.136 -3.264,-26.496 v -68.736 h 28.416 v 71.616 q 0,11.712 2.496,18.624 2.496,6.72 7.296,9.792 4.8,3.072 11.904,3.072 6.912,0 11.904,-3.072 4.992,-3.072 7.488,-9.792 2.688,-6.912 2.688,-18.624 v -71.616 h 27.264 v 68.736 q 0,15.36 -3.264,26.496 -3.072,11.136 -9.408,18.432 -6.144,7.104 -15.36,10.56 -9.216,3.264 -21.312,3.264 z M 1827.3129,-1085.1722 v -11.424 h 13.248 v -35.232 h -11.424 v -8.736 q 4.992,-0.96 8.448,-2.304 3.552,-1.344 6.72,-3.264 h 10.368 v 49.536 h 11.424 v 11.424 z m 69.3119,1.152 q -9.792,0 -15.84,-8.16 -5.952,-8.16 -5.952,-23.712 0,-15.648 5.952,-23.52 6.048,-7.872 15.84,-7.872 9.792,0 15.744,7.968 6.048,7.872 6.048,23.424 0,15.552 -6.048,23.712 -5.952,8.16 -15.744,8.16 z m 0,-10.944 q 2.4,0 4.32,-1.728 1.9201,-1.824 2.976,-6.336 1.152,-4.608 1.152,-12.864 0,-8.352 -1.152,-12.768 -1.0559,-4.416 -2.976,-6.048 -1.92,-1.632 -4.32,-1.632 -2.4,0 -4.32,1.632 -1.9199,1.632 -3.072,6.048 -1.056,4.416 -1.056,12.768 0,8.256 1.056,12.864 1.1521,4.512 3.072,6.336 1.92,1.728 4.32,1.728 z m 39.744,9.792 q 0.48,-7.584 1.536,-13.92 1.056,-6.432 2.976,-12.192 2.016,-5.76 5.088,-11.328 3.072,-5.568 7.584,-11.616 h -27.36 v -11.904 h 42.432 v 8.64 q -5.376,6.528 -8.832,12.192 -3.36,5.664 -5.184,11.52 -1.824,5.856 -2.688,12.768 -0.864,6.912 -1.344,15.84 z m -93.696,-120 v -8.544 l 27.648,-42.144 h -25.056 v -11.904 h 42.432 v 8.544 l -27.648,42.144 h 27.936 v 11.904 z m 79.584,1.152 q -6.144,0 -10.848,-1.632 -4.608,-1.728 -7.776,-5.28 -3.168,-3.648 -4.8,-9.216 -1.632,-5.568 -1.632,-13.248 v -34.368 h 14.208 v 35.808 q 0,5.856 1.248,9.312 1.248,3.36 3.648,4.896 2.4,1.536 5.952,1.536 3.456,0 5.952,-1.536 2.496,-1.536 3.744,-4.896 1.344,-3.456 1.344,-9.312 v -35.808 h 13.632 v 34.368 q 0,7.68 -1.632,13.248 -1.536,5.568 -4.704,9.216 -3.072,3.552 -7.68,5.28 -4.608,1.632 -10.656,1.632 z m 1629.9737,119.424 v -11.424 h 13.248 v -35.232 h -11.424 v -8.736 q 4.992,-0.96 8.448,-2.304 3.552,-1.344 6.72,-3.264 h 10.368 v 49.536 h 11.424 v 11.424 z m 50.6879,0 v -11.424 h 13.248 v -35.232 h -11.424 v -8.736 q 4.992,-0.96 8.448,-2.304 3.552,-1.344 6.72,-3.264 h 10.368 v 49.536 h 11.424 v 11.424 z m 47.52,0 v -8.736 q 7.68,-6.816 13.632,-12.768 6.048,-5.952 9.408,-11.04 3.456,-5.088 3.456,-9.312 0,-4.512 -2.304,-6.816 -2.304,-2.4 -6.336,-2.4 -3.264,0 -5.952,1.92 -2.592,1.824 -4.896,4.32 l -7.392,-7.296 q 4.416,-4.992 9.024,-7.488 4.704,-2.496 11.136,-2.496 5.952,0 10.464,2.4 4.608,2.4 7.104,6.72 2.592,4.32 2.592,10.176 0,5.472 -2.976,10.752 -2.88,5.184 -7.68,10.368 -4.8,5.184 -10.176,10.56 2.304,-0.288 5.184,-0.48 2.88,-0.288 4.992,-0.288 h 13.632 v 11.904 z m -82.848,-120 v -8.544 l 27.648,-42.144 h -25.056 v -11.904 h 42.432 v 8.544 l -27.648,42.144 h 27.936 v 11.904 z m 79.584,1.152 q -6.144,0 -10.848,-1.632 -4.608,-1.728 -7.776,-5.28 -3.168,-3.648 -4.8,-9.216 -1.632,-5.568 -1.632,-13.248 v -34.368 h 14.208 v 35.808 q 0,5.856 1.248,9.312 1.248,3.36 3.648,4.896 2.4,1.536 5.952,1.536 3.456,0 5.952,-1.536 2.496,-1.536 3.744,-4.896 1.344,-3.456 1.344,-9.312 v -35.808 h 13.632 v 34.368 q 0,7.68 -1.632,13.248 -1.536,5.568 -4.704,9.216 -3.072,3.552 -7.68,5.28 -4.608,1.632 -10.656,1.632 z m -399.6133,118.839 v -11.424 h 13.248 v -35.232 h -11.424 v -8.736 q 4.992,-0.96 8.448,-2.304 3.552,-1.344 6.72,-3.264 h 10.368 v 49.536 h 11.424 v 11.424 z m 50.6879,0 v -11.424 h 13.2481 v -35.232 h -11.424 v -8.736 q 4.9919,-0.96 8.4479,-2.304 3.5521,-1.344 6.72,-3.264 h 10.3681 v 49.536 h 11.424 v 11.424 z m 50.688,0 v -11.424 h 13.248 v -35.232 h -11.424 v -8.736 q 4.992,-0.96 8.448,-2.304 3.552,-1.344 6.72,-3.264 h 10.368 v 49.536 h 11.424 v 11.424 z m -86.016,-120 v -8.544 l 27.648,-42.144 h -25.056 v -11.904 h 42.432 v 8.544 l -27.648,42.144 h 27.936 v 11.904 z m 79.584,1.152 q -6.144,0 -10.848,-1.632 -4.608,-1.728 -7.776,-5.28 -3.168,-3.648 -4.8,-9.216 -1.632,-5.568 -1.632,-13.248 v -34.368 h 14.208 v 35.808 q 0,5.856 1.248,9.312 1.248,3.36 3.648,4.896 2.4,1.536 5.952,1.536 3.456,0 5.952,-1.536 2.496,-1.536 3.744,-4.896 1.344,-3.456 1.344,-9.312 v -35.808 h 13.632 v 34.368 q 0,7.68 -1.632,13.248 -1.536,5.568 -4.704,9.216 -3.072,3.552 -7.68,5.28 -4.608,1.632 -10.656,1.632 z m -399.108,118.281 v -11.424 h 13.248 v -35.232 h -11.424 v -8.736 q 4.992,-0.96 8.448,-2.304 3.552,-1.344 6.72,-3.264 h 10.368 v 49.536 h 11.424 v 11.424 z m 50.688,0 v -11.424 h 13.248 v -35.232 h -11.424 v -8.736 q 4.9919,-0.96 8.4479,-2.304 3.5521,-1.344 6.72,-3.264 h 10.3681 v 49.536 h 11.424 v 11.424 z m 69.3119,1.152 q -9.792,0 -15.84,-8.16 -5.952,-8.16 -5.952,-23.712 0,-15.648 5.952,-23.52 6.048,-7.872 15.84,-7.872 9.792,0 15.744,7.968 6.048,7.872 6.048,23.424 0,15.552 -6.048,23.712 -5.952,8.16 -15.744,8.16 z m 0,-10.944 q 2.4,0 4.32,-1.728 1.92,-1.824 2.976,-6.336 1.152,-4.608 1.152,-12.864 0,-8.352 -1.152,-12.768 -1.056,-4.416 -2.976,-6.048 -1.92,-1.632 -4.32,-1.632 -2.4,0 -4.32,1.632 -1.92,1.632 -3.072,6.048 -1.056,4.416 -1.056,12.768 0,8.256 1.056,12.864 1.152,4.512 3.072,6.336 1.92,1.728 4.32,1.728 z m -104.64,-110.208 v -8.544 l 27.648,-42.144 h -25.056 v -11.904 h 42.432 v 8.544 l -27.648,42.144 h 27.936 v 11.904 z m 79.584,1.152 q -6.144,0 -10.848,-1.632 -4.608,-1.728 -7.776,-5.28 -3.168,-3.648 -4.8,-9.216 -1.632,-5.568 -1.632,-13.248 v -34.368 h 14.208 v 35.808 q 0,5.856 1.248,9.312 1.248,3.36 3.648,4.896 2.4,1.536 5.952,1.536 3.456,0 5.952,-1.536 2.496,-1.536 3.744,-4.896 1.344,-3.456 1.344,-9.312 v -35.808 h 13.632 v 34.368 q 0,7.68 -1.632,13.248 -1.536,5.568 -4.704,9.216 -3.072,3.552 -7.68,5.28 -4.608,1.632 -10.656,1.632 z m -458.4039,118.848 v -11.424 h 13.248 v -35.232 h -11.424 v -8.736 q 4.992,-0.96 8.448,-2.304 3.552,-1.344 6.72,-3.264 h 10.368 v 49.536 h 11.424 v 11.424 z m 69.3119,1.152 q -9.792,0 -15.8399,-8.16 -5.9521,-8.16 -5.9521,-23.712 0,-15.648 5.9521,-23.52 6.0479,-7.872 15.8399,-7.872 9.792,0 15.744,7.968 6.048,7.872 6.048,23.424 0,15.552 -6.048,23.712 -5.952,8.16 -15.744,8.16 z m 0,-10.944 q 2.4,0 4.32,-1.728 1.9201,-1.824 2.9761,-6.336 1.1519,-4.608 1.1519,-12.864 0,-8.352 -1.1519,-12.768 -1.056,-4.416 -2.9761,-6.048 -1.92,-1.632 -4.32,-1.632 -2.4,0 -4.3199,1.632 -1.92,1.632 -3.0721,6.048 -1.056,4.416 -1.056,12.768 0,8.256 1.056,12.864 1.1521,4.512 3.0721,6.336 1.9199,1.728 4.3199,1.728 z m 47.328,10.944 q -6.048,0 -10.464,-2.208 -4.416,-2.208 -7.392,-5.088 l 7.488,-8.448 q 1.536,1.728 4.128,3.072 2.688,1.248 5.28,1.248 3.648,0 6.432,-2.016 2.88,-2.016 4.512,-6.72 1.728,-4.8 1.728,-12.864 0,-7.584 -1.44,-11.808 -1.344,-4.32 -3.648,-6.048 -2.208,-1.824 -4.8,-1.824 -2.016,0 -3.84,1.056 -1.728,1.056 -2.784,3.168 -1.056,2.112 -1.056,5.664 0,3.168 1.056,5.184 1.056,1.92 2.88,2.784 1.824,0.864 4.128,0.864 2.4,0 4.896,-1.44 2.496,-1.536 4.512,-5.088 l 0.672,9.216 q -2.304,3.36 -6.048,5.376 -3.744,1.92 -6.816,1.92 -5.184,0 -9.312,-2.016 -4.128,-2.016 -6.528,-6.144 -2.304,-4.224 -2.304,-10.656 0,-6.336 2.784,-10.944 2.784,-4.608 7.392,-7.008 4.608,-2.496 10.08,-2.496 4.512,0 8.64,1.728 4.128,1.728 7.296,5.376 3.264,3.648 5.184,9.408 2.016,5.664 2.016,13.728 0,8.544 -2.112,14.784 -2.016,6.24 -5.472,10.272 -3.456,4.032 -7.872,6.048 -4.416,1.92 -9.216,1.92 z m -101.28,-121.152 v -8.544 l 27.648,-42.144 h -25.056 v -11.904 h 42.432 v 8.544 l -27.648,42.144 h 27.936 v 11.904 z m 79.584,1.152 q -6.144,0 -10.848,-1.632 -4.608,-1.728 -7.776,-5.28 -3.168,-3.648 -4.8,-9.216 -1.632,-5.568 -1.632,-13.248 v -34.368 h 14.208 v 35.808 q 0,5.856 1.248,9.312 1.248,3.36 3.648,4.896 2.4,1.536 5.952,1.536 3.456,0 5.952,-1.536 2.496,-1.536 3.744,-4.896 1.344,-3.456 1.344,-9.312 v -35.808 h 13.632 v 34.368 q 0,7.68 -1.632,13.248 -1.536,5.568 -4.704,9.216 -3.072,3.552 -7.68,5.28 -4.608,1.632 -10.656,1.632 z m -376.7371,1001.5247 v -22.848 h 26.496 v -70.464 h -22.848 v -17.472 q 9.984,-1.92 16.896,-4.608 7.104,-2.688 13.44,-6.528 h 20.736 v 99.072 h 22.848 v 22.848 z m 101.3759,0 v -22.848 h 26.496 v -70.464 h -22.848 v -17.472 q 9.984,-1.92 16.896,-4.608 7.104,-2.688 13.44,-6.528 h 20.736 v 99.072 h 22.848 v 22.848 z m 116.736,0 q 0.96,-15.168 3.072,-27.84 2.112,-12.864 5.952,-24.384 4.032,-11.52 10.176,-22.656 6.144,-11.136 15.168,-23.232 h -54.72 v -23.808 h 84.864 v 17.28 q -10.752,13.056 -17.664,24.384 -6.72,11.328 -10.368,23.04 -3.648,11.712 -5.376,25.536 -1.728,13.824 -2.688,31.68 z m -187.3921,-240 v -17.088 l 55.296,-84.288 h -50.112 v -23.808 h 84.864 v 17.088 l -55.296,84.288 h 55.872 v 23.808 z m 159.1681,2.304 q -12.288,0 -21.696,-3.264 -9.216,-3.456 -15.552,-10.56 -6.336,-7.296 -9.6,-18.432 -3.264,-11.136 -3.264,-26.496 v -68.736 h 28.416 v 71.616 q 0,11.712 2.496,18.624 2.496,6.72 7.296,9.792 4.8,3.072 11.904,3.072 6.912,0 11.904,-3.072 4.992,-3.072 7.488,-9.792 2.688,-6.912 2.688,-18.624 v -71.616 h 27.264 v 68.736 q 0,15.36 -3.264,26.496 -3.072,11.136 -9.408,18.432 -6.144,7.104 -15.36,10.56 -9.216,3.264 -21.312,3.264 z" style="font-size:96px;font-family:'Source Sans 3';-inkscape-font-specification:'Source Sans 3, @wght=700';font-variation-settings:'wght' 700;text-align:center;white-space:pre;display:inline;fill:#bec3c6;stroke-width:55" transform="matrix(0.02439371,0,0,0.02439371,31.044284,279.62331)"/>
  </g>
</svg>
