<svg width="5100" height="1900" viewBox="0 0 5100 1900" version="1.1" id="svg1" xml:space="preserve" xmlns="http://www.w3.org/2000/svg">
  <g id="floor_2" transform="matrix(40.994169,0,0,40.994169,1.00188,-10010.757)" style="display:inline">
    <path style="font-variation-settings:'wdth' 70,'wght' 600;display:inline;fill:#4c5a5f;fill-opacity:1;stroke-width:.487874" d="m 0.87735372,265.6217 36.08124828,-10e-6 -6e-6,-8.02809 h 9.948033 v -0.27752 l 17.286222,-10e-6 -0.01642,-0.30475 59.534229,2.7e-4 v 5.79335 l -15.53161,-0.003 1e-5,14.89983 -8.878744,-0.006 v -14.89278 l -35.117607,0.002 -3e-6,14.8977 H 46.234826 V 272.8376 H 0.87735772 Z" id="path62"/>
    <g id="rooms_2" style="display:inline" transform="matrix(0.02439371,0,0,0.02439371,-0.02443957,255.98706)">
      <rect style="font-variation-settings:'wdth' 70,'wght' 600;display:inline;fill:#454c7f;fill-opacity:1;stroke:none;stroke-width:8.97233;stroke-linecap:butt;stroke-linejoin:miter;stroke-dasharray:none;stroke-opacity:1" id="ZU201" width="304.80475" height="168.63568" x="1973.9016" y="-114.15359"/>
      <rect style="font-variation-settings:'wdth' 70,'wght' 600;display:inline;fill:#454c7f;fill-opacity:1;stroke:none;stroke-width:12.3444;stroke-linecap:butt;stroke-linejoin:miter;stroke-dasharray:none;stroke-opacity:1" id="ZU202" width="304.80475" height="319.21164" x="1973.9016" y="-433.36523"/>
      <rect style="font-variation-settings:'wdth' 70,'wght' 600;display:inline;fill:#454c7f;fill-opacity:1;stroke:none;stroke-width:9.41546;stroke-linecap:butt;stroke-linejoin:miter;stroke-dasharray:none;stroke-opacity:1" id="ZU203" width="335.65558" height="168.63568" x="2278.7073" y="-114.15359"/>
      <rect style="font-variation-settings:'wdth' 70,'wght' 600;display:inline;fill:#454c7f;fill-opacity:1;stroke:none;stroke-width:12.9539;stroke-linecap:butt;stroke-linejoin:miter;stroke-dasharray:none;stroke-opacity:1" id="ZU204" width="335.6539" height="319.21164" x="2278.7073" y="-433.36523"/>
      <rect style="font-variation-settings:'wdth' 70,'wght' 600;fill:#1b2022;fill-opacity:1;stroke:none;stroke-width:10.6002;stroke-linecap:butt;stroke-linejoin:miter;stroke-dasharray:none;stroke-opacity:1" id="rect66" width="298.89462" height="224.67143" x="2303.2253" y="431.85519"/>
      <rect style="font-variation-settings:'wdth' 70,'wght' 600;display:inline;opacity:1;fill:#454c7f;fill-opacity:1;stroke-width:880.079;stroke-dasharray:none" id="ZU229" width="1456.6204" height="680.46637" x="59.468853" y="-285.50223"/>
      <rect style="font-variation-settings:'wdth' 70,'wght' 600;display:inline;fill:#454c7f;fill-opacity:1;stroke-width:303.233;stroke-dasharray:none" id="ZU233" width="357.81146" height="328.86108" x="1516.0892" y="-263.00186"/>
      <rect style="font-variation-settings:'wdth' 70,'wght' 600;display:inline;fill:#454c7f;fill-opacity:1;stroke-width:365.136;stroke-dasharray:none" id="ZU206" width="342.68436" height="497.88736" x="2649.366" y="-455.88718"/>
      <rect style="font-variation-settings:'wdth' 70,'wght' 600;display:inline;fill:#454c7f;fill-opacity:1;stroke-width:373.786;stroke-dasharray:none" id="ZU207" width="359.11038" height="497.88736" x="2992.0503" y="-455.88718"/>
      <rect style="font-variation-settings:'wdth' 70,'wght' 600;display:inline;fill:#454c7f;fill-opacity:1;stroke-width:374.798;stroke-dasharray:none" id="ZU208" width="361.05676" height="497.88736" x="3351.1606" y="-455.88718"/>
      <rect style="font-variation-settings:'wdth' 70,'wght' 600;display:inline;fill:#454c7f;fill-opacity:1;stroke-width:374.798;stroke-dasharray:none" id="ZU209" width="361.05667" height="497.88736" x="3712.2173" y="-455.88718"/>
      <rect style="font-variation-settings:'wdth' 70,'wght' 600;display:inline;fill:#454c7f;fill-opacity:1;stroke-width:377.531;stroke-dasharray:none" id="ZU210" width="366.34311" height="497.88736" x="4073.2739" y="-455.88718"/>
      <rect style="font-variation-settings:'wdth' 70,'wght' 600;display:inline;fill:#454c7f;fill-opacity:1;stroke-width:343.52;stroke-dasharray:none" id="ZU211" width="303.32101" height="497.86926" x="4439.6172" y="-455.88718"/>
      <rect style="font-variation-settings:'wdth' 70,'wght' 600;display:inline;fill:#454c7f;fill-opacity:1;stroke-width:345.578;stroke-dasharray:none" id="ZU212" width="306.97733" height="497.85117" x="4742.9385" y="-455.86908"/>
      <rect style="font-variation-settings:'wdth' 70,'wght' 600;display:inline;fill:#454c7f;fill-opacity:1;stroke-width:391.202;stroke-dasharray:none" id="ZU116a_2" width="385.44315" height="508.1105" x="4210.2217" y="890.21967"/>
      <rect style="font-variation-settings:'wdth' 70,'wght' 600;display:inline;fill:#454c7f;fill-opacity:1;stroke-width:420.961;stroke-dasharray:none" id="ZU116b_2" width="446.42456" height="507.98651" x="3763.7971" y="890.21967"/>
      <rect style="font-variation-settings:'wdth' 70,'wght' 600;display:inline;fill:#454c7f;fill-opacity:1;stroke-width:541.28;stroke-dasharray:none" id="ZU214" width="614.20929" height="610.44299" x="4435.7129" y="279.49298"/>
      <rect style="font-variation-settings:'wdth' 70,'wght' 600;display:inline;fill:#454c7f;fill-opacity:1;stroke-width:417.498;stroke-dasharray:none" id="ZU216" width="364.22162" height="612.43347" x="4071.4919" y="277.78616"/>
      <rect style="font-variation-settings:'wdth' 70,'wght' 600;display:inline;fill:#454c7f;fill-opacity:1;stroke-width:585.757;stroke-dasharray:none" id="ZU217" width="717.28784" height="612.15002" x="3354.4485" y="277.78616"/>
      <rect style="font-variation-settings:'wdth' 70,'wght' 600;display:inline;fill:#454c7f;fill-opacity:1;stroke-width:416.712;stroke-dasharray:none" id="ZU219" width="363.01956" height="612.15002" x="2991.429" y="277.78616"/>
      <rect style="font-variation-settings:'wdth' 70,'wght' 600;display:inline;fill:#454c7f;fill-opacity:1;stroke-width:403.79;stroke-dasharray:none" id="ZU220" width="341.80789" height="610.44318" x="2649.6211" y="279.49298"/>
      <rect style="font-variation-settings:'wdth' 70,'wght' 600;display:inline;fill:#454c7f;fill-opacity:1;stroke-width:236.067;stroke-dasharray:none" id="ZU222" width="358.91891" height="198.69461" x="2290.7021" y="669.02661"/>
      <rect style="font-variation-settings:'wdth' 70,'wght' 600;display:inline;fill:#454c7f;fill-opacity:1;stroke-width:439.159;stroke-dasharray:none" id="ZU223" width="361.29593" height="683.11859" x="1512.5837" y="690.7793"/>
      <rect style="font-variation-settings:'wdth' 70,'wght' 600;display:inline;fill:#454c7f;fill-opacity:1;stroke-width:439.639;stroke-dasharray:none" id="ZU224" width="362.08603" height="683.11859" x="1150.4977" y="690.7793"/>
      <rect style="font-variation-settings:'wdth' 70,'wght' 600;display:inline;fill:#454c7f;fill-opacity:1;stroke-width:587.212;stroke-dasharray:none" id="ZU225" width="645.96649" height="683.11859" x="504.53122" y="690.7793"/>
      <rect style="font-variation-settings:'wdth' 70,'wght' 600;display:inline;fill:#454c7f;fill-opacity:1;stroke-width:487.415;stroke-dasharray:none" id="ZU226" width="445.05902" height="683.11853" x="59.472183" y="690.77948"/>
    </g>
    <g id="staires_2" transform="matrix(0.02439371,0,0,0.02439371,-0.02443957,244.19953)" style="display:inline">
      <rect style="font-variation-settings:'wdth' 70,'wght' 600;display:inline;fill:#4c5a5f;fill-opacity:1;stroke-width:5.47103;stroke-dasharray:none" id="rect478" width="121.70573" height="30.000004" x="2169.0186" y="915.00031"/>
      <rect style="font-variation-settings:'wdth' 70,'wght' 600;display:inline;fill:#4f5e63;fill-opacity:1;stroke-width:5.47103;stroke-dasharray:none" id="rect479" width="121.70573" height="30.000004" x="2169.0186" y="945.00031"/>
      <rect style="font-variation-settings:'wdth' 70,'wght' 600;display:inline;fill:#516166;fill-opacity:1;stroke-width:5.47103;stroke-dasharray:none" id="rect480" width="121.70573" height="30.000004" x="2169.0186" y="975.00031"/>
      <rect style="font-variation-settings:'wdth' 70,'wght' 600;display:inline;fill:#546469;fill-opacity:1;stroke-width:5.47103;stroke-dasharray:none" id="rect481" width="121.70573" height="30.000004" x="2169.0186" y="1005.0003"/>
      <rect style="font-variation-settings:'wdth' 70,'wght' 600;display:inline;fill:#56676c;fill-opacity:1;stroke-width:5.47103;stroke-dasharray:none" id="rect482" width="121.70573" height="30.000004" x="2169.0186" y="1035.0004"/>
      <rect style="font-variation-settings:'wdth' 70,'wght' 600;display:inline;fill:#586a6f;fill-opacity:1;stroke-width:5.47103;stroke-dasharray:none" id="rect483" width="121.70573" height="30.000004" x="2169.0186" y="1065.0004"/>
      <rect style="font-variation-settings:'wdth' 70,'wght' 600;display:inline;fill:#5a6d72;fill-opacity:1;stroke-width:5.47103;stroke-dasharray:none" id="rect484" width="121.70573" height="30.000004" x="2169.0186" y="1095.0004"/>
      <rect style="font-variation-settings:'wdth' 70,'wght' 600;display:inline;fill:#5c7075;fill-opacity:1;stroke-width:5.47103;stroke-dasharray:none" id="rect485" width="121.70573" height="30.000004" x="2169.0186" y="1125.0004"/>
      <rect style="font-variation-settings:'wdth' 70,'wght' 600;display:inline;fill:#5e7378;fill-opacity:1;stroke-width:5.47103;stroke-dasharray:none" id="rect486" width="121.70573" height="30.000004" x="2169.0186" y="1155.0004"/>
      <rect style="font-variation-settings:'wdth' 70,'wght' 600;display:inline;fill:#60767b;fill-opacity:1;stroke-width:5.47103;stroke-dasharray:none" id="rect487" width="121.70573" height="30.000004" x="2169.0186" y="1185.0004"/>
      <rect style="font-variation-settings:'wdth' 70,'wght' 600;display:inline;fill:#373e43;fill-opacity:1;stroke-width:14.3915;stroke-dasharray:none" id="rect488" width="316.78696" height="135.94603" x="1973.9358" y="1215.0042"/>
      <rect style="font-variation-settings:'wdth' 70,'wght' 600;display:inline;fill:#3a4146;fill-opacity:1;stroke-width:5.43645;stroke-dasharray:none" id="rect489" width="120.17195" height="30.000004" x="-2094.0872" y="-1214.9865" transform="scale(-1)"/>
      <rect style="font-variation-settings:'wdth' 70,'wght' 600;display:inline;fill:#3c4449;fill-opacity:1;stroke-width:5.43645;stroke-dasharray:none" id="rect490" width="120.17195" height="30.000004" x="-2094.0872" y="-1184.9865" transform="scale(-1)"/>
      <rect style="font-variation-settings:'wdth' 70,'wght' 600;display:inline;fill:#3e474c;fill-opacity:1;stroke-width:5.43645;stroke-dasharray:none" id="rect491" width="120.17195" height="30.000004" x="-2094.0872" y="-1154.9865" transform="scale(-1)"/>
      <rect style="font-variation-settings:'wdth' 70,'wght' 600;display:inline;fill:#404a4f;fill-opacity:1;stroke-width:5.43645;stroke-dasharray:none" id="rect492" width="120.17195" height="30.000004" x="-2094.0872" y="-1124.9865" transform="scale(-1)"/>
      <rect style="font-variation-settings:'wdth' 70,'wght' 600;display:inline;fill:#424d52;fill-opacity:1;stroke-width:5.43645;stroke-dasharray:none" id="rect493" width="120.17195" height="30.000004" x="-2094.0872" y="-1094.9865" transform="scale(-1)"/>
      <rect style="font-variation-settings:'wdth' 70,'wght' 600;display:inline;fill:#445055;fill-opacity:1;stroke-width:5.43645;stroke-dasharray:none" id="rect494" width="120.17195" height="30.000004" x="-2094.0872" y="-1064.9865" transform="scale(-1)"/>
      <rect style="font-variation-settings:'wdth' 70,'wght' 600;display:inline;fill:#465358;fill-opacity:1;stroke-width:5.43645;stroke-dasharray:none" id="rect495" width="120.17195" height="30.000004" x="-2094.0872" y="-1034.9865" transform="scale(-1)"/>
      <rect style="font-variation-settings:'wdth' 70,'wght' 600;display:inline;fill:#48565b;fill-opacity:1;stroke-width:5.43645;stroke-dasharray:none" id="rect496" width="120.17195" height="30.000004" x="-2094.0872" y="-1004.9865" transform="scale(-1)"/>
      <rect style="font-variation-settings:'wdth' 70,'wght' 600;display:inline;fill:#4b595e;fill-opacity:1;stroke-width:5.43645;stroke-dasharray:none" id="rect497" width="120.17195" height="30.000004" x="-2094.0872" y="-974.98645" transform="scale(-1)"/>
      <rect style="font-variation-settings:'wdth' 70,'wght' 600;display:inline;fill:#4c5a5f;fill-opacity:1;stroke-width:5.43645;stroke-dasharray:none" id="rect498" width="120.17195" height="30.000004" x="-2094.0872" y="-944.98645" transform="scale(-1)"/>
      <rect style="font-variation-settings:'wdth' 70,'wght' 600;display:inline;fill:none;fill-opacity:1;stroke:#bec3c6;stroke-width:10;stroke-linecap:butt;stroke-linejoin:miter;stroke-dasharray:none;stroke-opacity:1" id="rect499" width="69.931396" height="298.18414" x="2099.0872" y="911.82001"/>
      <rect style="font-variation-settings:'wdth' 70,'wght' 600;display:inline;fill:#000;fill-opacity:1;stroke-width:.992555;stroke-dasharray:none" id="rect500" width="120.17195" height="1.0000001" x="-2094.0872" y="-974.98645" transform="scale(-1)"/>
      <rect style="font-variation-settings:'wdth' 70,'wght' 600;display:inline;fill:#000;fill-opacity:1;stroke-width:.992555;stroke-dasharray:none" id="rect501" width="120.17195" height="1.0000001" x="-2094.0872" y="-944.98645" transform="scale(-1)"/>
      <rect style="font-variation-settings:'wdth' 70,'wght' 600;display:inline;fill:#000;fill-opacity:1;stroke-width:.992555;stroke-dasharray:none" id="rect502" width="120.17195" height="1.0000001" x="-2094.0872" y="-914.98645" transform="scale(-1)"/>
      <rect style="font-variation-settings:'wdth' 70,'wght' 600;display:inline;fill:#000;fill-opacity:1;stroke-width:.992555;stroke-dasharray:none" id="rect503" width="120.17195" height="1.0000001" x="-2094.0872" y="-1004.9865" transform="scale(-1)"/>
      <rect style="font-variation-settings:'wdth' 70,'wght' 600;display:inline;fill:#000;fill-opacity:1;stroke-width:.992555;stroke-dasharray:none" id="rect504" width="120.17195" height="1.0000001" x="-2094.0872" y="-1034.9865" transform="scale(-1)"/>
      <rect style="font-variation-settings:'wdth' 70,'wght' 600;display:inline;fill:#000;fill-opacity:1;stroke-width:.992555;stroke-dasharray:none" id="rect505" width="120.17195" height="1.0000001" x="-2094.0872" y="-1064.9865" transform="scale(-1)"/>
      <rect style="font-variation-settings:'wdth' 70,'wght' 600;display:inline;fill:#000;fill-opacity:1;stroke-width:.992555;stroke-dasharray:none" id="rect506" width="120.17195" height="1.0000001" x="-2094.0872" y="-1094.9865" transform="scale(-1)"/>
      <rect style="font-variation-settings:'wdth' 70,'wght' 600;display:inline;fill:#000;fill-opacity:1;stroke-width:.992555;stroke-dasharray:none" id="rect507" width="120.17195" height="1.0000001" x="-2094.0872" y="-1124.9865" transform="scale(-1)"/>
      <rect style="font-variation-settings:'wdth' 70,'wght' 600;display:inline;fill:#000;fill-opacity:1;stroke-width:.992555;stroke-dasharray:none" id="rect508" width="120.17195" height="1.0000001" x="-2094.0872" y="-1154.9865" transform="scale(-1)"/>
      <rect style="font-variation-settings:'wdth' 70,'wght' 600;display:inline;fill:#000;fill-opacity:1;stroke-width:.992555;stroke-dasharray:none" id="rect509" width="120.17195" height="1.0000001" x="-2094.0872" y="-1184.9865" transform="scale(-1)"/>
      <rect style="font-variation-settings:'wdth' 70,'wght' 600;display:inline;fill:#000;fill-opacity:1;stroke-width:.992555;stroke-dasharray:none" id="rect510" width="120.17195" height="1.0000001" x="-2094.0872" y="-1214.9865" transform="scale(-1)"/>
      <rect style="font-variation-settings:'wdth' 70,'wght' 600;display:inline;fill:#000;fill-opacity:1;stroke-width:.992555;stroke-dasharray:none" id="rect511" width="120.17195" height="1.0000001" x="-2294.1904" y="-1185.0004" transform="scale(-1)"/>
      <rect style="font-variation-settings:'wdth' 70,'wght' 600;display:inline;fill:#000;fill-opacity:1;stroke-width:.992555;stroke-dasharray:none" id="rect512" width="120.17195" height="1.0000001" x="-2294.1904" y="-1155.0004" transform="scale(-1)"/>
      <rect style="font-variation-settings:'wdth' 70,'wght' 600;display:inline;fill:#000;fill-opacity:1;stroke-width:.992555;stroke-dasharray:none" id="rect513" width="120.17195" height="1.0000001" x="-2294.1904" y="-1125.0004" transform="scale(-1)"/>
      <rect style="font-variation-settings:'wdth' 70,'wght' 600;display:inline;fill:#000;fill-opacity:1;stroke-width:.992555;stroke-dasharray:none" id="rect514" width="120.17195" height="1.0000001" x="-2294.1904" y="-1095.0004" transform="scale(-1)"/>
      <rect style="font-variation-settings:'wdth' 70,'wght' 600;display:inline;fill:#000;fill-opacity:1;stroke-width:.992555;stroke-dasharray:none" id="rect515" width="120.17195" height="1.0000001" x="-2294.1904" y="-1065.0004" transform="scale(-1)"/>
      <rect style="font-variation-settings:'wdth' 70,'wght' 600;display:inline;fill:#000;fill-opacity:1;stroke-width:.992555;stroke-dasharray:none" id="rect516" width="120.17195" height="1.0000001" x="-2294.1904" y="-1035.0004" transform="scale(-1)"/>
      <rect style="font-variation-settings:'wdth' 70,'wght' 600;display:inline;fill:#000;fill-opacity:1;stroke-width:.992555;stroke-dasharray:none" id="rect517" width="120.17195" height="1.0000001" x="-2294.1904" y="-1005.0003" transform="scale(-1)"/>
      <rect style="font-variation-settings:'wdth' 70,'wght' 600;display:inline;fill:#000;fill-opacity:1;stroke-width:.992555;stroke-dasharray:none" id="rect518" width="120.17195" height="1.0000001" x="-2294.1904" y="-975.00031" transform="scale(-1)"/>
      <rect style="font-variation-settings:'wdth' 70,'wght' 600;display:inline;fill:#000;fill-opacity:1;stroke-width:.992555;stroke-dasharray:none" id="rect519" width="120.17195" height="1.0000001" x="-2294.1904" y="-945.00031" transform="scale(-1)"/>
      <rect style="font-variation-settings:'wdth' 70,'wght' 600;display:inline;fill:#000;fill-opacity:1;stroke-width:.992555;stroke-dasharray:none" id="rect520" width="120.17195" height="1.0000001" x="-2294.1904" y="-915.00031" transform="scale(-1)"/>
      <path style="font-variation-settings:'wdth' 70,'wght' 600;display:inline;opacity:1;fill:none;fill-opacity:1;stroke:#bec3c6;stroke-width:5;stroke-dasharray:none;stroke-opacity:1;marker-end:url(#Triangle)" d="m 2232.3714,929.8753 v 255.1251" id="path520"/>
      <path style="font-variation-settings:'wdth' 70,'wght' 600;display:inline;opacity:1;fill:none;fill-opacity:1;stroke:#bec3c6;stroke-width:5;stroke-dasharray:none;stroke-opacity:1;marker-end:url(#Triangle)" d="M 2232.3714,1279.5004 H 2035.7343 V 943.98645" id="path521"/>
    </g>
    <g id="walls_2" transform="matrix(0.02439371,0,0,0.02439371,-0.02443957,244.19953)" style="display:inline">
      <path style="font-variation-settings:'wdth' 70,'wght' 600;display:inline;fill:none;fill-opacity:1;stroke:#bec3c6;stroke-width:.85378;stroke-linecap:butt;stroke-linejoin:miter;stroke-dasharray:none;stroke-opacity:1" d="M 0.84894461,265.6217 H 14.755489" id="path109" transform="matrix(40.994174,0,0,40.994174,1.00188,-10010.758)"/>
      <path style="font-variation-settings:'wdth' 70,'wght' 600;display:inline;fill:none;fill-opacity:1;stroke:#bec3c6;stroke-width:.85378;stroke-linecap:butt;stroke-linejoin:miter;stroke-dasharray:none;stroke-opacity:1" d="M 0.75098946,272.83773 H 6.3552454" id="path110" transform="matrix(40.994174,0,0,40.994174,1.00188,-10010.758)"/>
      <path style="font-variation-settings:'wdth' 70,'wght' 600;display:inline;fill:none;fill-opacity:1;stroke:#bec3c6;stroke-width:.85378;stroke-linecap:butt;stroke-linejoin:miter;stroke-dasharray:none;stroke-opacity:1" d="M 9.2824953,272.83773 H 22.49765" id="path111" transform="matrix(40.994174,0,0,40.994174,1.00188,-10010.758)"/>
      <path style="font-variation-settings:'wdth' 70,'wght' 600;display:inline;fill:none;fill-opacity:1;stroke:#bec3c6;stroke-width:.85378;stroke-linecap:butt;stroke-linejoin:miter;stroke-dasharray:none;stroke-opacity:1" d="m 25.4249,272.83773 h 5.269259" id="path112" transform="matrix(40.994174,0,0,40.994174,1.00188,-10010.758)"/>
      <path style="font-variation-settings:'wdth' 70,'wght' 600;display:inline;fill:none;fill-opacity:1;stroke:#bec3c6;stroke-width:.85378;stroke-linecap:butt;stroke-linejoin:miter;stroke-dasharray:none;stroke-opacity:1" d="m 33.621407,272.83773 h 5.945018" id="path113" transform="matrix(40.994174,0,0,40.994174,1.00188,-10010.758)"/>
      <path style="font-variation-settings:'wdth' 70,'wght' 600;display:inline;fill:none;fill-opacity:1;stroke:#bec3c6;stroke-width:.85378;stroke-linecap:butt;stroke-linejoin:miter;stroke-dasharray:none;stroke-opacity:1" d="m 42.493674,272.83773 h 4.413317" id="path114" transform="matrix(40.994174,0,0,40.994174,1.00188,-10010.758)"/>
      <path style="font-variation-settings:'wdth' 70,'wght' 600;display:inline;fill:none;fill-opacity:1;stroke:#bec3c6;stroke-width:2.43937;stroke-linecap:butt;stroke-linejoin:miter;stroke-dasharray:none;stroke-opacity:1" d="M 46.906991,263.04501 V 277.6893" id="path115" transform="matrix(40.994174,0,0,40.994174,1.00188,-10010.758)"/>
      <path style="font-variation-settings:'wdth' 70,'wght' 600;display:inline;fill:none;fill-opacity:1;stroke:#bec3c6;stroke-width:100;stroke-linecap:butt;stroke-linejoin:miter;stroke-dasharray:none;stroke-opacity:1" d="M 1923.9007,202.72121 V 597.92186" id="path116"/>
      <path style="font-variation-settings:'wdth' 70,'wght' 600;display:inline;fill:none;fill-opacity:1;stroke:#bec3c6;stroke-width:.85378;stroke-linecap:butt;stroke-linejoin:miter;stroke-dasharray:none;stroke-opacity:1" d="M 17.682739,265.6217 H 37.080571" id="path119" transform="matrix(40.994174,0,0,40.994174,1.00188,-10010.758)"/>
      <path style="font-variation-settings:'wdth' 70,'wght' 600;display:inline;fill:none;fill-opacity:1;stroke:#bec3c6;stroke-width:.243937;stroke-linecap:butt;stroke-linejoin:miter;stroke-dasharray:none;stroke-opacity:1" d="m 36.958602,262.1738 v 3.47235" id="path122" transform="matrix(40.994174,0,0,40.994174,1.00188,-10010.758)"/>
      <path style="font-variation-settings:'wdth' 70,'wght' 600;display:inline;fill:none;fill-opacity:1;stroke:#bec3c6;stroke-width:.243937;stroke-linecap:butt;stroke-linejoin:miter;stroke-dasharray:none;stroke-opacity:1" d="m 12.282949,272.83773 v 16.6638" id="path123" transform="matrix(40.994174,0,0,40.994174,1.00188,-10010.758)"/>
      <path style="font-variation-settings:'wdth' 70,'wght' 600;display:inline;fill:none;fill-opacity:1;stroke:#bec3c6;stroke-width:10;stroke-linecap:butt;stroke-linejoin:miter;stroke-dasharray:none;stroke-opacity:1" d="m 1150.4977,1173.9994 v 683.1187" id="path124"/>
      <path style="font-variation-settings:'wdth' 70,'wght' 600;display:inline;fill:none;fill-opacity:1;stroke:#bec3c6;stroke-width:10;stroke-linecap:butt;stroke-linejoin:miter;stroke-dasharray:none;stroke-opacity:1" d="m 1512.5837,1173.9994 v 683.1187" id="path125"/>
      <path style="font-variation-settings:'wdth' 70,'wght' 600;display:inline;fill:none;fill-opacity:1;stroke:#bec3c6;stroke-width:.85378;stroke-linecap:butt;stroke-linejoin:miter;stroke-dasharray:none;stroke-opacity:1" d="m 105.31247,262.80493 h 6.62322" id="path126" transform="matrix(40.994174,0,0,40.994174,1.00188,-10010.758)"/>
      <path style="font-variation-settings:'wdth' 70,'wght' 600;display:inline;fill:none;fill-opacity:1;stroke:#bec3c6;stroke-width:.85378;stroke-linecap:butt;stroke-linejoin:miter;stroke-dasharray:none;stroke-opacity:1" d="m 91.361554,277.6959 v 12.40162 h 21.146216 v -12.39557" id="path127" transform="matrix(40.994174,0,0,40.994174,1.00188,-10010.758)"/>
      <path style="font-variation-settings:'wdth' 70,'wght' 600;display:inline;fill:none;fill-opacity:1;stroke:#bec3c6;stroke-width:.85378;stroke-linecap:butt;stroke-linejoin:miter;stroke-dasharray:none;stroke-opacity:1" d="M 88.297603,262.80493 H 102.38522" id="path128" transform="matrix(40.994174,0,0,40.994174,1.00188,-10010.758)"/>
      <path style="font-variation-settings:'wdth' 70,'wght' 600;display:inline;fill:none;fill-opacity:1;stroke:#bec3c6;stroke-width:.85378;stroke-linecap:butt;stroke-linejoin:miter;stroke-dasharray:none;stroke-opacity:1" d="m 64.18276,262.07312 -2e-6,15.71745" id="path129" transform="matrix(40.994174,0,0,40.994174,1.00188,-10010.758)"/>
      <path style="font-variation-settings:'wdth' 70,'wght' 600;display:inline;fill:none;fill-opacity:1;stroke:#bec3c6;stroke-width:.85378;stroke-linecap:butt;stroke-linejoin:miter;stroke-dasharray:none;stroke-opacity:1" d="m 114.86294,262.78054 8.84772,0.0244" id="path130" transform="matrix(40.994174,0,0,40.994174,1.00188,-10010.758)"/>
      <path style="font-variation-settings:'wdth' 70,'wght' 600;display:inline;fill:none;fill-opacity:1;stroke:#bec3c6;stroke-width:.85378;stroke-linecap:butt;stroke-linejoin:miter;stroke-dasharray:none;stroke-opacity:1" d="m 78.806411,257.0116 h 5.856524" id="path131" transform="matrix(40.994174,0,0,40.994174,1.00188,-10010.758)"/>
      <path style="font-variation-settings:'wdth' 70,'wght' 600;display:inline;fill:none;fill-opacity:1;stroke:#bec3c6;stroke-width:.85378;stroke-linecap:butt;stroke-linejoin:miter;stroke-dasharray:none;stroke-opacity:1" d="m 70.18127,257.0116 h 5.697893" id="path132" transform="matrix(40.994174,0,0,40.994174,1.00188,-10010.758)"/>
      <path style="font-variation-settings:'wdth' 70,'wght' 600;display:inline;fill:none;fill-opacity:1;stroke:#bec3c6;stroke-width:.85378;stroke-linecap:butt;stroke-linejoin:miter;stroke-dasharray:none;stroke-opacity:1" d="m 67.254022,257.01133 h -3.07758 v -12.14505" id="path133" transform="matrix(40.994174,0,0,40.994174,1.00188,-10010.758)"/>
      <path style="font-variation-settings:'wdth' 70,'wght' 600;display:inline;fill:none;fill-opacity:1;stroke:#bec3c6;stroke-width:.85378;stroke-linecap:butt;stroke-linejoin:miter;stroke-dasharray:none;stroke-opacity:1" d="M 87.590185,257.0116 H 93.51323" id="path134" transform="matrix(40.994174,0,0,40.994174,1.00188,-10010.758)"/>
      <path style="font-variation-settings:'wdth' 70,'wght' 600;display:inline;fill:none;fill-opacity:1;stroke:#bec3c6;stroke-width:.85378;stroke-linecap:butt;stroke-linejoin:miter;stroke-dasharray:none;stroke-opacity:1" d="m 96.440478,257.0116 h 5.944742" id="path135" transform="matrix(40.994174,0,0,40.994174,1.00188,-10010.758)"/>
      <path style="font-variation-settings:'wdth' 70,'wght' 600;display:inline;fill:none;fill-opacity:1;stroke:#bec3c6;stroke-width:.85378;stroke-linecap:butt;stroke-linejoin:miter;stroke-dasharray:none;stroke-opacity:1" d="m 105.31247,257.0116 h 5.19776" id="path136" transform="matrix(40.994174,0,0,40.994174,1.00188,-10010.758)"/>
      <path style="font-variation-settings:'wdth' 70,'wght' 600;display:inline;fill:none;fill-opacity:1;stroke:#bec3c6;stroke-width:.85378;stroke-linecap:butt;stroke-linejoin:miter;stroke-dasharray:none;stroke-opacity:1" d="m 113.43748,257.0116 h 2.9109" id="path137" transform="matrix(40.994174,0,0,40.994174,1.00188,-10010.758)"/>
      <path style="font-variation-settings:'wdth' 70,'wght' 600;display:inline;fill:none;fill-opacity:1;stroke:#bec3c6;stroke-width:.85378;stroke-linecap:butt;stroke-linejoin:miter;stroke-dasharray:none;stroke-opacity:1" d="m 119.27563,257.0116 h 4.53968" id="path138" transform="matrix(40.994174,0,0,40.994174,1.00188,-10010.758)"/>
      <path style="font-variation-settings:'wdth' 70,'wght' 600;display:inline;fill:none;fill-opacity:1;stroke:#bec3c6;stroke-width:.243937;stroke-linecap:butt;stroke-linejoin:miter;stroke-dasharray:none;stroke-opacity:1" d="m 72.962768,244.86628 10e-7,12.14532" id="path139" transform="matrix(40.994174,0,0,40.994174,1.00188,-10010.758)"/>
      <path style="font-variation-settings:'wdth' 70,'wght' 600;display:inline;fill:none;fill-opacity:1;stroke:#bec3c6;stroke-width:.243937;stroke-linecap:butt;stroke-linejoin:miter;stroke-dasharray:none;stroke-opacity:1" d="m 81.722802,244.86628 10e-7,12.14532" id="path140" transform="matrix(40.994174,0,0,40.994174,1.00188,-10010.758)"/>
      <path style="font-variation-settings:'wdth' 70,'wght' 600;display:inline;fill:none;fill-opacity:1;stroke:#bec3c6;stroke-width:.243937;stroke-linecap:butt;stroke-linejoin:miter;stroke-dasharray:none;stroke-opacity:1" d="M 90.530316,244.86628 V 257.0116" id="path141" transform="matrix(40.994174,0,0,40.994174,1.00188,-10010.758)"/>
      <path style="font-variation-settings:'wdth' 70,'wght' 600;display:inline;fill:none;fill-opacity:1;stroke:#bec3c6;stroke-width:10;stroke-linecap:butt;stroke-linejoin:miter;stroke-dasharray:none;stroke-opacity:1" d="M 4073.2741,27.350926 V 525.22025" id="path142"/>
      <path style="font-variation-settings:'wdth' 70,'wght' 600;display:inline;fill:none;fill-opacity:1;stroke:#bec3c6;stroke-width:.609843;stroke-linecap:butt;stroke-linejoin:miter;stroke-dasharray:none;stroke-opacity:1" d="m 56.159747,277.70282 v -1.35087" id="path143" transform="matrix(40.994174,0,0,40.994174,1.00188,-10010.758)"/>
      <path style="font-variation-settings:'wdth' 70,'wght' 600;display:inline;fill:none;fill-opacity:1;stroke:#bec3c6;stroke-width:.243937;stroke-linecap:butt;stroke-linejoin:miter;stroke-dasharray:none;stroke-opacity:1" d="M 108.27429,244.86628 V 257.0116" id="path144" transform="matrix(40.994174,0,0,40.994174,1.00188,-10010.758)"/>
      <path style="font-variation-settings:'wdth' 70,'wght' 600;display:inline;fill:none;fill-opacity:1;stroke:#bec3c6;stroke-width:.243937;stroke-linecap:butt;stroke-linejoin:miter;stroke-dasharray:none;stroke-opacity:1" d="M 115.67342,244.86672 V 257.0116" id="path145" transform="matrix(40.994174,0,0,40.994174,1.00188,-10010.758)"/>
      <path style="font-variation-settings:'wdth' 70,'wght' 600;display:inline;fill:none;fill-opacity:1;stroke:#bec3c6;stroke-width:.243937;stroke-linecap:butt;stroke-linejoin:miter;stroke-dasharray:none;stroke-opacity:1" d="m 72.947613,271.57628 v 6.12654" id="path146" transform="matrix(40.994174,0,0,40.994174,1.00188,-10010.758)"/>
      <path style="font-variation-settings:'wdth' 70,'wght' 600;display:inline;fill:none;fill-opacity:1;stroke:#bec3c6;stroke-width:.243937;stroke-linecap:butt;stroke-linejoin:miter;stroke-dasharray:none;stroke-opacity:1" d="m 81.803007,267.54258 v 10.16024" id="path147" transform="matrix(40.994174,0,0,40.994174,1.00188,-10010.758)"/>
      <path style="font-variation-settings:'wdth' 70,'wght' 600;display:inline;fill:none;fill-opacity:1;stroke:#bec3c6;stroke-width:10;stroke-linecap:butt;stroke-linejoin:miter;stroke-dasharray:none;stroke-opacity:1" d="M 4071.7363,765.17063 V 1373.4397" id="path148"/>
      <path style="font-variation-settings:'wdth' 70,'wght' 600;display:inline;fill:none;fill-opacity:1;stroke:#bec3c6;stroke-width:.243937;stroke-linecap:butt;stroke-linejoin:miter;stroke-dasharray:none;stroke-opacity:1" d="m 108.17906,262.80493 v 14.89702" id="path149" transform="matrix(40.994174,0,0,40.994174,1.00188,-10010.758)"/>
      <path style="font-variation-settings:'wdth' 70,'wght' 600;display:inline;fill:none;fill-opacity:1;stroke:#bec3c6;stroke-width:1.09772;stroke-linecap:butt;stroke-linejoin:miter;stroke-dasharray:none;stroke-opacity:1" d="m 102.45303,277.70195 h 1.53095" id="path152" transform="matrix(40.994174,0,0,40.994174,1.00188,-10010.758)"/>
      <path style="font-variation-settings:'wdth' 70,'wght' 600;display:inline;fill:none;fill-opacity:1;stroke:#bec3c6;stroke-width:1.09772;stroke-linecap:butt;stroke-linejoin:miter;stroke-dasharray:none;stroke-opacity:1" d="m 106.91123,277.70195 h 16.79943 v -16.34226" id="path153" transform="matrix(40.994174,0,0,40.994174,1.00188,-10010.758)"/>
      <path style="font-variation-settings:'wdth' 70,'wght' 600;display:inline;fill:none;fill-opacity:1;stroke:#bec3c6;stroke-width:.243937;stroke-linecap:butt;stroke-linejoin:miter;stroke-dasharray:none;stroke-opacity:1" d="m 102.67849,277.70195 v 12.39557" id="path154" transform="matrix(40.994174,0,0,40.994174,1.00188,-10010.758)"/>
      <path style="font-variation-settings:'wdth' 70,'wght' 600;display:inline;fill:none;fill-opacity:1;stroke:#bec3c6;stroke-width:.243937;stroke-linecap:butt;stroke-linejoin:miter;stroke-dasharray:none;stroke-opacity:1" d="m 36.958602,257.59361 h 4.693623" id="path155" transform="matrix(40.994174,0,0,40.994174,1.00188,-10010.758)"/>
      <path style="font-variation-settings:'wdth' 70,'wght' 600;display:inline;fill:none;fill-opacity:1;stroke:#bec3c6;stroke-width:.243937;stroke-linecap:butt;stroke-linejoin:miter;stroke-dasharray:none;stroke-opacity:1" d="m 44.579473,257.59361 h 2.327163" id="path156" transform="matrix(40.994174,0,0,40.994174,1.00188,-10010.758)"/>
      <path style="font-variation-settings:'wdth' 70,'wght' 600;display:inline;fill:none;fill-opacity:1;stroke:#bec3c6;stroke-width:.243937;stroke-linecap:butt;stroke-linejoin:miter;stroke-dasharray:none;stroke-opacity:1" d="m 47.52578,257.31608 h 4.944401" id="path157" transform="matrix(40.994174,0,0,40.994174,1.00188,-10010.758)"/>
      <path style="font-variation-settings:'wdth' 70,'wght' 600;display:inline;fill:none;fill-opacity:1;stroke:#bec3c6;stroke-width:.243937;stroke-linecap:butt;stroke-linejoin:miter;stroke-dasharray:none;stroke-opacity:1" d="m 47.112369,253.20243 h 6.184635" id="path158" transform="matrix(40.994174,0,0,40.994174,1.00188,-10010.758)"/>
      <path style="font-variation-settings:'wdth' 70,'wght' 600;display:inline;fill:none;fill-opacity:1;stroke:#bec3c6;stroke-width:.243937;stroke-linecap:butt;stroke-linejoin:miter;stroke-dasharray:none;stroke-opacity:1" d="m 59.69372,253.20243 h 4.572331" id="path159" transform="matrix(40.994174,0,0,40.994174,1.00188,-10010.758)"/>
      <path style="font-variation-settings:'wdth' 70,'wght' 600;display:inline;fill:none;fill-opacity:1;stroke:#bec3c6;stroke-width:.243937;stroke-linecap:butt;stroke-linejoin:miter;stroke-dasharray:none;stroke-opacity:1" d="m 55.11009,253.20243 h 2.819466" id="path160" transform="matrix(40.994174,0,0,40.994174,1.00188,-10010.758)"/>
      <path style="font-variation-settings:'wdth' 70,'wght' 600;display:inline;fill:none;fill-opacity:1;stroke:#bec3c6;stroke-width:.243937;stroke-linecap:butt;stroke-linejoin:miter;stroke-dasharray:none;stroke-opacity:1" d="m 54.833183,257.31608 h 3.100586" id="path161" transform="matrix(40.994174,0,0,40.994174,1.00188,-10010.758)"/>
      <path style="font-variation-settings:'wdth' 70,'wght' 600;display:inline;fill:none;fill-opacity:1;stroke:#bec3c6;stroke-width:.243937;stroke-linecap:butt;stroke-linejoin:miter;stroke-dasharray:none;stroke-opacity:1" d="m 60.285423,257.31608 h 4.282942" id="path162" transform="matrix(40.994174,0,0,40.994174,1.00188,-10010.758)"/>
      <path style="font-variation-settings:'wdth' 70,'wght' 600;display:inline;fill:none;fill-opacity:1;stroke:#bec3c6;stroke-width:.243937;stroke-linecap:butt;stroke-linejoin:miter;stroke-dasharray:none;stroke-opacity:1" d="m 55.561665,244.86672 v 12.40933" id="path163" transform="matrix(40.994174,0,0,40.994174,1.00188,-10010.758)"/>
      <path style="font-variation-settings:'wdth' 70,'wght' 600;display:inline;fill:none;fill-opacity:1;stroke:#bec3c6;stroke-width:.609843;stroke-linecap:butt;stroke-linejoin:miter;stroke-dasharray:none;stroke-opacity:1" d="m 61.445598,266.52161 h 2.005677 v 5.48057 h -7.291502 v -5.48057 h 1.931258" id="path164" transform="matrix(40.994174,0,0,40.994174,1.00188,-10010.758)"/>
      <path style="font-variation-settings:'wdth' 70,'wght' 600;display:inline;fill:none;fill-opacity:1;stroke:#bec3c6;stroke-width:25;stroke-linecap:butt;stroke-linejoin:miter;stroke-dasharray:none;stroke-opacity:1" d="m 2303.2243,1139.7504 v 106.2941" id="path165"/>
      <path style="font-variation-settings:'wdth' 70,'wght' 600;display:inline;fill:none;fill-opacity:1;stroke:#bec3c6;stroke-width:1.09448;stroke-linecap:butt;stroke-linejoin:miter;stroke-dasharray:none;stroke-opacity:1" d="M 123.65149,15.681106 V 2.1554125 H 47.744436 v 4.143616 H 1.1806577 V 24.251474" id="path166" transform="matrix(41.115504,0,0,41.115504,-11.575065,-61.269892)"/>
      <path style="font-variation-settings:'wdth' 70,'wght' 600;display:inline;fill:none;fill-opacity:1;stroke:#bec3c6;stroke-width:1.09448;stroke-linecap:butt;stroke-linejoin:miter;stroke-dasharray:none;stroke-opacity:1" d="M 99.537977,34.894613 H 46.404282 V 46.658502 H 1.1806577 V 28.641549" id="path167" transform="matrix(41.115504,0,0,41.115504,-11.575065,-61.269892)"/>
      <path style="font-variation-settings:'wdth' 70,'wght' 600;display:inline;fill:none;fill-opacity:1;stroke:#bec3c6;stroke-width:35;stroke-linecap:butt;stroke-linejoin:miter;stroke-dasharray:none;stroke-opacity:1" d="m 2632.1211,762.71303 h 479.4844" id="path168"/>
      <path style="font-variation-settings:'wdth' 70,'wght' 600;display:inline;fill:none;fill-opacity:1;stroke:#bec3c6;stroke-width:10;stroke-linecap:butt;stroke-linejoin:miter;stroke-dasharray:none;stroke-opacity:1" d="M 1516.0892,197.71784 V 616.84006" id="path178"/>
      <path style="font-variation-settings:'wdth' 70,'wght' 600;display:inline;fill:none;fill-opacity:1;stroke:#bec3c6;stroke-width:35;stroke-linecap:butt;stroke-linejoin:miter;stroke-dasharray:none;stroke-opacity:1" d="m 3231.6056,762.71303 h 269.0835" id="path179"/>
      <path style="font-variation-settings:'wdth' 70,'wght' 600;display:inline;fill:none;fill-opacity:1;stroke:#bec3c6;stroke-width:10;stroke-linecap:butt;stroke-linejoin:miter;stroke-dasharray:none;stroke-opacity:1" d="M 2991.429,762.71303 V 1019.0003" id="path180"/>
      <path style="font-variation-settings:'wdth' 70,'wght' 600;display:inline;fill:none;fill-opacity:1;stroke:#bec3c6;stroke-width:10;stroke-linecap:butt;stroke-linejoin:miter;stroke-dasharray:none;stroke-opacity:1" d="m 3354.4486,762.71303 v 90.5344" id="path181"/>
    </g>
    <g id="icons_2" transform="matrix(0.02439371,0,0,0.02439371,-0.02443957,244.19953)">
      <path d="m 2437.985,259.46065 v -31.86527 h -10.1036 v -32.25391 q 0,-3.56217 2.5583,-6.12046 2.5583,-2.55829 6.1205,-2.55829 h 19.9482 q 3.5621,0 6.1204,2.55829 2.5583,2.55829 2.5583,6.12046 v 32.25391 h -10.1036 v 31.86527 z m 8.5596,-82.6425 q -3.6891,0 -6.1891,-2.5544 -2.5,-2.55454 -2.5,-6.11399 0,-3.68912 2.4896,-6.18912 2.4899,-2.5 6.1788,-2.5 3.6891,0 6.1891,2.48964 2.5,2.48976 2.5,6.17875 0,3.55959 -2.4896,6.12436 -2.4897,2.56476 -6.1788,2.56476 z" id="path172" style="fill:#fff;fill-opacity:.798742;stroke-width:.129534;filter:url(#filter17)"/>
      <path d="m 2117.2366,259.46065 v -30.05182 h -14.7668 l 14.2098,-39.44586 q 1.121,-2.89831 3.8366,-4.58886 2.7155,-1.69067 5.7878,-1.69067 3.0723,0 5.7878,1.69067 2.7156,1.69055 3.8542,4.57785 l 14.1922,39.45687 h -14.7668 v 30.05182 z m 9.0778,-82.6425 q -3.6892,0 -6.1892,-2.55039 -2.5,-2.55039 -2.5,-6.118 0,-3.68912 2.4897,-6.18912 2.4899,-2.5 6.1787,-2.5 3.6892,0 6.1892,2.48963 2.5,2.48977 2.5,6.114 0,3.62435 -2.4897,6.18912 -2.4896,2.56476 -6.1787,2.56476 z" id="path173" style="fill:#fff;fill-opacity:.803459;stroke-width:.129534;filter:url(#filter15)"/>
      <g id="g176" style="filter:url(#filter65)">
        <rect style="font-variation-settings:'wdth' 70,'wght' 600;fill:none;fill-opacity:1;stroke:#d5d6dd;stroke-width:4.78791;stroke-linejoin:miter;stroke-dasharray:none;stroke-opacity:1" id="rect175" width="95.212135" height="95.212151" x="2405.0667" y="979.80487" ry="9.1410179"/>
        <path d="m 2427.7505,1062.6135 h 12.6169 v -23.8318 h 6.2306 v -17.757 c 0,-2.6337 -0.8992,-4.8497 -2.6976,-6.6481 -1.7985,-1.7985 -4.0665,-2.6977 -6.804,-2.6977 h -6.2306 c -2.7375,0 -4.9794,0.8992 -6.7258,2.6977 -1.7466,1.7984 -2.6199,4.0144 -2.6199,6.6481 v 17.757 h 6.2304 z m 6.1958,-54.9845 c 2.1478,0 3.9626,-0.7033 5.4445,-2.1098 1.4819,-1.4064 2.2228,-3.2356 2.2228,-5.4875 0,-2.148 -0.7292,-3.93697 -2.1877,-5.3669 -1.4583,-1.42987 -3.2615,-2.1448 -5.4096,-2.1448 -2.1481,0 -3.937,0.70327 -5.3669,2.1098 -1.4299,1.4064 -2.1449,3.18367 -2.1449,5.3318 0,2.2518 0.7033,4.0926 2.11,5.5225 1.4064,1.4299 3.1837,2.1449 5.3318,2.1449 z m 28.3838,9.9689 h 20.0934 l -9.9688,-16.1994 z m 10.1246,35.6697 9.9688,-16.1993 h -20.0934 z" id="path176" style="fill:#d5d6dd;fill-opacity:1;stroke:none;stroke-width:0;stroke-dasharray:none"/>
      </g>
      <path d="m 1695.3853,353.11221 q -3.9473,0 -6.5946,-2.7239 -2.6471,-2.7239 -2.6471,-6.49789 0,-3.82204 2.6373,-6.53192 2.6373,-2.70976 6.5844,-2.70976 3.7739,0 6.5078,2.69987 2.7339,2.69987 2.7339,6.52192 0,3.77386 -2.7239,6.50777 -2.7239,2.73391 -6.4978,2.73391 z m 26.7422,81.53654 v -24.96149 q 0,-0.57767 -0.3371,-0.91456 -0.3369,-0.33701 -0.9146,-0.33701 h -25.4041 q -3.8324,0 -6.4262,-2.65645 -2.594,-2.65632 -2.594,-6.31543 v -30.57373 q 0,-3.8323 2.5272,-6.50314 2.5269,-2.67084 6.4579,-2.67084 2.0239,0 4.2542,0.94334 2.2306,0.94347 4.7623,4.17796 4.611,6.161 11.0465,10.41579 6.4352,4.25492 14.3288,4.71708 v 7.30632 q -7.1908,-0.38507 -13.655,-3.48477 -6.4643,-3.09971 -12.4617,-8.59657 v 23.69115 h 16.7021 q 3.7553,0 6.3876,2.63229 2.6323,2.63242 2.6323,6.33958 v 26.79048 z m -37.4473,0 q -10.406,0 -17.4624,-7.05628 -7.0562,-7.05616 -7.0562,-17.46245 0,-8.63498 5.824,-15.38316 5.824,-6.74818 15.2484,-8.40384 v 8.13428 q -6.1899,0.6545 -9.9395,5.37634 -3.7494,4.72183 -3.7494,10.27638 0,7.34512 4.8324,12.2787 4.8326,4.93358 12.3027,4.93358 5.5547,0 10.2524,-3.74958 4.6976,-3.74959 5.2753,-9.93937 h 8.1344 q -1.4827,9.29912 -8.2548,15.14726 -6.7723,5.84801 -15.4073,5.84801 z" id="path1-9" style="fill:#fff;fill-opacity:.803459;stroke-width:.125;stroke-dasharray:none;filter:url(#filter182)"/>
    </g>
    <path id="roomNames_2" d="m 353.1167,154.10988 v -8.736 q 7.68,-6.816 13.632,-12.768 6.048,-5.952 9.408,-11.04 3.456,-5.088 3.456,-9.312 0,-4.512 -2.304,-6.816 -2.304,-2.4 -6.336,-2.4 -3.264,0 -5.952,1.92 -2.592,1.824 -4.896,4.32 l -7.392,-7.296 q 4.416,-4.992 9.024,-7.488 4.704,-2.496 11.136,-2.496 5.952,0 10.464,2.4 4.608,2.4 7.104,6.72 2.592,4.32 2.592,10.176 0,5.472 -2.976,10.752 -2.88,5.184 -7.68,10.368 -4.8,5.184 -10.176,10.56 2.304,-0.288 5.184,-0.48 2.88,-0.288 4.992,-0.288 h 13.632 v 11.904 z m 53.85599,0 v -11.424 h 13.248 v -35.232 h -11.424 v -8.736 q 4.992,-0.96 8.448,-2.304 3.552,-1.344 6.72,-3.264 h 10.368 v 49.536 h 11.424 v 11.424 z m 70.94398,1.152 q -4.416,0 -8.544,-1.728 -4.128,-1.728 -7.392,-5.376 -3.264,-3.648 -5.184,-9.312 -1.92,-5.76 -1.92,-13.824 0,-8.544 2.016,-14.784 2.016,-6.24 5.472,-10.272 3.456,-4.032 7.872,-5.952 4.416,-2.016 9.312,-2.016 6.048,0 10.464,2.208 4.416,2.112 7.296,5.088 l -7.392,8.448 q -1.632,-1.728 -4.224,-2.976 -2.592,-1.344 -5.28,-1.344 -3.456,0 -6.432,2.016 -2.88,2.016 -4.608,6.816 -1.632,4.704 -1.632,12.768 0,7.584 1.344,11.904 1.44,4.224 3.744,6.048 2.304,1.728 4.8,1.728 2.112,0 3.84,-1.056 1.728,-1.056 2.784,-3.168 1.056,-2.208 1.056,-5.664 0,-3.264 -1.056,-5.184 -1.056,-1.92 -2.88,-2.784 -1.728,-0.864 -4.032,-0.864 -2.4,0 -4.992,1.44 -2.496,1.44 -4.512,5.088 l -0.672,-9.216 q 2.4,-3.552 6.144,-5.376 3.744,-1.92 6.72,-1.92 5.184,0 9.312,2.016 4.128,2.016 6.432,6.24 2.4,4.128 2.4,10.56 0,6.336 -2.784,10.944 -2.688,4.608 -7.296,7.104 -4.608,2.4 -10.176,2.4 z M 371.64463,34.10988 v -8.544 l 27.648,-42.144 h -25.056 v -11.904 h 42.432 v 8.544 l -27.648,42.144 h 27.936 v 11.904 z m 79.58401,1.152 q -6.144,0 -10.848,-1.632 -4.608,-1.728 -7.776,-5.28 -3.168,-3.648 -4.8,-9.216 -1.632,-5.568 -1.632,-13.2480003 V -28.48212 h 14.208 V 7.3258797 q 0,5.8560003 1.248,9.3120003 1.248,3.36 3.648,4.896 2.4,1.536 5.952,1.536 3.456,0 5.952,-1.536 2.496,-1.536 3.744,-4.896 1.344,-3.456 1.344,-9.3120003 V -28.48212 h 13.632 V 5.8858797 q 0,7.6800003 -1.632,13.2480003 -1.536,5.568 -4.704,9.216 -3.072,3.552 -7.68,5.28 -4.608,1.632 -10.656,1.632 z m -2652.62534,567.1837 v -8.736 q 7.68,-6.816 13.632,-12.768 6.048,-5.952 9.408,-11.04 3.456,-5.088 3.456,-9.312 0,-4.512 -2.304,-6.816 -2.304,-2.4 -6.336,-2.4 -3.264,0 -5.952,1.92 -2.592,1.824 -4.896,4.32 l -7.392,-7.296 q 4.416,-4.992 9.024,-7.488 4.704,-2.496 11.136,-2.496 5.952,0 10.464,2.4 4.608,2.4 7.104,6.72 2.592,4.32 2.592,10.176 0,5.472 -2.976,10.752 -2.88,5.184 -7.68,10.368 -4.8,5.184 -10.176,10.56 2.304,-0.288 5.184,-0.48 2.88,-0.288 4.992,-0.288 h 13.632 v 11.904 z m 50.688,0 v -8.736 q 7.68,-6.816 13.632,-12.768 6.048,-5.952 9.408,-11.04 3.456,-5.088 3.456,-9.312 0,-4.512 -2.304,-6.816 -2.304,-2.4 -6.336,-2.4 -3.264,0 -5.952,1.92 -2.592,1.824 -4.896,4.32 l -7.392,-7.296 q 4.416,-4.992 9.024,-7.488 4.704,-2.496 11.136,-2.496 5.952,0 10.464,2.4 4.608,2.4 7.104,6.72 2.592,4.32 2.592,10.176 0,5.472 -2.976,10.752 -2.88,5.184 -7.68,10.368 -4.8,5.184 -10.176,10.56 2.304,-0.288 5.184,-0.48 2.88,-0.288 4.992,-0.288 h 13.632 v 11.904 z m 70.464,1.152 q -4.896,0 -8.928,-1.152 -3.936,-1.056 -7.008,-2.976 -3.072,-1.92 -5.28,-4.512 l 6.528,-8.928 q 2.784,2.688 6.144,4.416 3.36,1.728 7.2,1.728 4.416,0 7.104,-1.824 2.784,-1.92 2.784,-5.376 0,-2.688 -1.344,-4.608 -1.344,-2.016 -4.896,-3.072 -3.456,-1.056 -10.176,-1.056 v -9.984 q 5.472,0 8.64,-1.056 3.168,-1.056 4.416,-2.88 1.344,-1.824 1.344,-4.224 0,-3.264 -2.016,-4.992 -1.92,-1.728 -5.472,-1.728 -3.264,0 -5.952,1.44 -2.592,1.344 -5.472,3.936 l -7.104,-8.64 q 4.224,-3.648 8.928,-5.664 4.704,-2.112 10.272,-2.112 6.24,0 10.944,2.016 4.8,1.92 7.392,5.664 2.688,3.648 2.688,9.024 0,4.704 -2.688,8.064 -2.592,3.36 -7.488,5.472 v 0.384 q 3.456,1.056 6.24,3.072 2.784,1.92 4.32,4.896 1.536,2.976 1.536,6.912 0,5.664 -3.168,9.696 -3.072,3.936 -8.256,6.048 -5.088,2.016 -11.232,2.016 z m -102.624,-121.152 v -8.544 l 27.648,-42.144 h -25.056 v -11.904 h 42.432 v 8.544 l -27.648,42.144 h 27.936 v 11.904 z m 79.584,1.152 q -6.144,0 -10.848,-1.632 -4.608,-1.728 -7.776,-5.28 -3.168,-3.648 -4.8,-9.216 -1.632,-5.568 -1.632,-13.248 v -34.368 h 14.208 v 35.808 q 0,5.856 1.248,9.312 1.248,3.36 3.648,4.896 2.4,1.536 5.952,1.536 3.456,0 5.952,-1.536 2.496,-1.536 3.744,-4.896 1.344,-3.456 1.344,-9.312 v -35.808 h 13.632 v 34.368 q 0,7.68 -1.632,13.248 -1.536,5.568 -4.704,9.216 -3.072,3.552 -7.68,5.28 -4.608,1.632 -10.656,1.632 z m -466.2366,119.424 v -8.736 q 7.68,-6.816 13.632,-12.768 6.048,-5.952 9.408,-11.04 3.456,-5.088 3.456,-9.312 0,-4.512 -2.304,-6.816 -2.304,-2.4 -6.336,-2.4 -3.264,0 -5.952,1.92 -2.592,1.824 -4.896,4.32 l -7.392,-7.296 q 4.416,-4.992 9.024,-7.488 4.704,-2.496 11.136,-2.496 5.952,0 10.464,2.4 4.608,2.4 7.104,6.72 2.592,4.32 2.592,10.176 0,5.472 -2.976,10.752 -2.88,5.184 -7.68,10.368 -4.8,5.184 -10.176,10.56 2.304,-0.288 5.184,-0.48 2.88,-0.288 4.992,-0.288 h 13.632 v 11.904 z m 50.688,0 v -8.736 q 7.68,-6.816 13.632,-12.768 6.048,-5.952 9.408,-11.04 3.456,-5.088 3.456,-9.312 0,-4.512 -2.304,-6.816 -2.304,-2.4 -6.336,-2.4 -3.264,0 -5.952,1.92 -2.592,1.824 -4.896,4.32 l -7.392,-7.296 q 4.416,-4.992 9.024,-7.488 4.704,-2.496 11.136,-2.496 5.952,0 10.464,2.4 4.608,2.4 7.104,6.72 2.592,4.32 2.592,10.176 0,5.472 -2.976,10.752 -2.88,5.184 -7.68,10.368 -4.8,5.184 -10.176,10.56 2.304,-0.288 5.184,-0.48 2.88,-0.288 4.992,-0.288 h 13.632 v 11.904 z m 75.3599,0 v -35.232 q 0,-2.88 0.192,-6.816 0.288,-3.936 0.384,-6.816 h -0.384 q -1.152,2.496 -2.4,5.088 -1.248,2.496 -2.592,5.184 l -8.064,13.248 h 33.024 v 10.752 h -46.56 v -9.696 l 22.272,-36.672 h 17.28 v 60.96 z m -107.52,-120 v -8.544 l 27.648,-42.144 h -25.056 v -11.904 h 42.432 v 8.544 l -27.648,42.144 h 27.936 v 11.904 z m 79.584,1.152 q -6.144,0 -10.848,-1.632 -4.608,-1.728 -7.776,-5.28 -3.168,-3.648 -4.8,-9.216 -1.632,-5.568 -1.632,-13.248 v -34.368 h 14.208 v 35.808 q 0,5.856 1.248,9.312 1.248,3.36 3.648,4.896 2.4,1.536 5.952,1.536 3.456,0 5.952,-1.536 2.496,-1.536 3.744,-4.896 1.344,-3.456 1.344,-9.312 v -35.808 h 13.632 v 34.368 q 0,7.68 -1.632,13.248 -1.536,5.568 -4.704,9.216 -3.072,3.552 -7.68,5.28 -4.608,1.632 -10.656,1.632 z m -672.7461,208.99201 v -17.472 q 15.36,-13.632 27.264,-25.536 12.096,-11.904 18.816,-22.08 6.912,-10.176 6.912,-18.624 0,-9.024 -4.608,-13.632 -4.608,-4.8 -12.672,-4.8 -6.528,0 -11.904,3.84 -5.184,3.648 -9.792,8.64 l -14.784,-14.592 q 8.832,-9.984 18.048,-14.976 9.408,-4.992 22.272,-4.992 11.904,0 20.928,4.8 9.216,4.8 14.208,13.44 5.184,8.64 5.184,20.352 0,10.944 -5.952,21.504 -5.76,10.368 -15.36,20.736 -9.6,10.368 -20.352,21.12 4.608,-0.576 10.368,-0.96 5.76,-0.576 9.984,-0.576 h 27.264 v 23.808 z m 101.3759,0 v -17.472 q 15.36,-13.632 27.264,-25.536 12.096,-11.904 18.816,-22.08 6.912,-10.176 6.912,-18.624 0,-9.024 -4.608,-13.632 -4.608,-4.8 -12.672,-4.8 -6.528,0 -11.904,3.84 -5.184,3.648 -9.792,8.64 l -14.784,-14.592 q 8.832,-9.984 18.048,-14.976 9.408,-4.992 22.272,-4.992 11.904,0 20.928,4.8 9.216,4.8 14.208,13.44 5.184,8.64 5.184,20.352 0,10.944 -5.952,21.504 -5.76,10.368 -15.36,20.736 -9.6,10.368 -20.352,21.12 4.608,-0.576 10.368,-0.96 5.76,-0.576 9.984,-0.576 h 27.264 v 23.808 z m 141.696,2.304 q -9.984,0 -18.048,-2.304 -7.872,-2.304 -14.016,-6.144 -6.144,-3.84 -10.944,-8.64 l 12.672,-17.856 q 5.568,4.992 12.096,8.64 6.528,3.456 14.208,3.456 6.144,0 10.752,-2.112 4.608,-2.304 7.104,-6.528 2.688,-4.224 2.688,-10.368 0,-9.216 -5.376,-14.016 -5.376,-4.8 -13.824,-4.8 -5.184,0 -8.832,1.344 -3.648,1.344 -9.216,4.8 l -12.672,-8.064 3.456,-61.632 h 69.12 v 23.808 h -44.736 l -2.112,22.848 q 3.648,-1.536 6.72,-2.112 3.072,-0.768 6.912,-0.768 10.56,0 19.392,4.032 8.832,4.032 14.016,12.48 5.376,8.448 5.376,21.312 0,13.632 -6.336,23.232 -6.144,9.408 -16.32,14.4 -10.176,4.992 -22.08,4.992 z m -206.0161,-242.304 v -17.088 l 55.296,-84.288 h -50.112 v -23.808 h 84.864 v 17.088 l -55.296,84.288 h 55.872 v 23.808 z m 159.168,2.304 q -12.288,0 -21.696,-3.264 -9.216,-3.456 -15.552,-10.56 -6.336,-7.296 -9.6,-18.432 -3.264,-11.136 -3.264,-26.496 v -68.736 h 28.416 v 71.616 q 0,11.712 2.496,18.624 2.496,6.72 7.296,9.792 4.8,3.072 11.904,3.072 6.912,0 11.904,-3.072 4.992,-3.072 7.488,-9.792 2.688,-6.912 2.688,-18.624 v -71.616 h 27.264 v 68.736 q 0,15.36 -3.264,26.496 -3.072,11.136 -9.408,18.432 -6.144,7.104 -15.36,10.56 -9.216,3.264 -21.312,3.264 z m -670.5526,146.97619 v -8.736 q 7.68,-6.816 13.632,-12.768 6.048,-5.952 9.408,-11.04 3.456,-5.088 3.456,-9.312 0,-4.512 -2.304,-6.816 -2.304,-2.4 -6.336,-2.4 -3.264,0 -5.952,1.92 -2.592,1.824 -4.896,4.32 l -7.392,-7.296 q 4.416,-4.992 9.024,-7.488 4.704,-2.496 11.136,-2.496 5.952,0 10.464,2.4 4.608,2.4 7.104,6.72 2.592,4.32 2.592,10.176 0,5.472 -2.976,10.752 -2.88,5.184 -7.68,10.368 -4.8,5.184 -10.176,10.56 2.304,-0.288 5.184,-0.48 2.88,-0.288 4.992,-0.288 h 13.632 v 11.904 z m 50.688,0 v -8.736 q 7.68,-6.816 13.632,-12.768 6.048,-5.952 9.408,-11.04 3.456,-5.088 3.456,-9.312 0,-4.512 -2.304,-6.816 -2.304,-2.4 -6.336,-2.4 -3.264,0 -5.952,1.92 -2.592,1.824 -4.896,4.32 l -7.392,-7.296 q 4.416,-4.992 9.024,-7.488 4.704,-2.496 11.136,-2.496 5.952,0 10.464,2.4 4.608,2.4 7.104,6.72 2.592,4.32 2.592,10.176 0,5.472 -2.976,10.752 -2.88,5.184 -7.68,10.368 -4.8,5.184 -10.176,10.56 2.304,-0.288 5.184,-0.48 2.88,-0.288 4.992,-0.288 h 13.632 v 11.904 z m 74.1119,1.152 q -4.416,0 -8.544,-1.728 -4.128,-1.728 -7.392,-5.376 -3.264,-3.648 -5.184,-9.312 -1.92,-5.76 -1.92,-13.824 0,-8.544 2.016,-14.784 2.016,-6.24 5.472,-10.272 3.456,-4.032 7.872,-5.952 4.416,-2.016 9.312,-2.016 6.048,0 10.464,2.208 4.416,2.112 7.296,5.088 l -7.392,8.448 q -1.632,-1.728 -4.224,-2.976 -2.592,-1.344 -5.28,-1.344 -3.456,0 -6.432,2.016 -2.88,2.016 -4.608,6.816 -1.632,4.704 -1.632,12.768 0,7.584 1.344,11.904 1.44,4.224 3.744,6.048 2.304,1.728 4.8,1.728 2.112,0 3.84,-1.056 1.728,-1.056 2.784,-3.168 1.056,-2.208 1.056,-5.664 0,-3.264 -1.056,-5.184 -1.056,-1.92 -2.88,-2.784 -1.728,-0.864 -4.032,-0.864 -2.4,0 -4.992,1.44 -2.496,1.44 -4.512,5.088 l -0.672,-9.216 q 2.4,-3.552 6.144,-5.376 3.744,-1.92 6.72,-1.92 5.184,0 9.312,2.016 4.128,2.016 6.432,6.24 2.4,4.128 2.4,10.56 0,6.336 -2.784,10.944 -2.688,4.608 -7.296,7.104 -4.608,2.4 -10.176,2.4 z m -106.272,-121.152 v -8.544 l 27.648,-42.144 h -25.056 v -11.904 h 42.432 v 8.544 l -27.648,42.144 h 27.936 v 11.904 z m 79.584,1.152 q -6.144,0 -10.848,-1.632 -4.608,-1.728 -7.776,-5.28 -3.168,-3.648 -4.8,-9.216 -1.632,-5.568 -1.632,-13.248 v -34.368 h 14.208 v 35.808 q 0,5.856 1.248,9.312 1.248,3.36 3.648,4.896 2.4,1.536 5.952,1.536 3.456,0 5.952,-1.536 2.496,-1.536 3.744,-4.896 1.344,-3.456 1.344,-9.312 v -35.808 h 13.632 v 34.368 q 0,7.68 -1.632,13.248 -1.536,5.568 -4.704,9.216 -3.072,3.552 -7.68,5.28 -4.608,1.632 -10.656,1.632 z m 335.9054,-768.0398 v -17.472 q 15.36,-13.632 27.264,-25.536 12.096,-11.904 18.816,-22.08 6.912,-10.176 6.912,-18.624 0,-9.024 -4.608,-13.632 -4.608,-4.8 -12.672,-4.8 -6.528,0 -11.904,3.84 -5.184,3.648 -9.792,8.64 l -14.784,-14.592 q 8.832,-9.984 18.048,-14.976 9.408,-4.992 22.272,-4.992 11.904,0 20.928,4.8 9.216,4.8 14.208,13.44 5.184,8.64 5.184,20.352 0,10.944 -5.952,21.504 -5.76,10.368 -15.36,20.736 -9.6,10.368 -20.352,21.12 4.608,-0.576 10.368,-0.96 5.76,-0.576 9.984,-0.576 h 27.264 v 23.808 z m 101.376,0 v -17.472 q 15.36,-13.632 27.264,-25.536 12.096,-11.904 18.816,-22.08 6.912,-10.176 6.912,-18.624 0,-9.024 -4.608,-13.632 -4.608,-4.8 -12.672,-4.8 -6.528,0 -11.904,3.84 -5.184,3.648 -9.792,8.64 l -14.784,-14.592 q 8.832,-9.984 18.048,-14.976 9.408,-4.992 22.272,-4.992 11.904,0 20.928,4.8 9.216,4.8 14.208,13.44 5.184,8.64 5.184,20.352 0,10.944 -5.952,21.504 -5.76,10.368 -15.36,20.736 -9.6,10.368 -20.352,21.12 4.608,-0.576 10.368,-0.96 5.76,-0.576 9.984,-0.576 h 27.264 v 23.808 z m 138.24,2.304 q -12.096,0 -20.928,-4.416 -8.832,-4.416 -14.784,-10.176 l 14.976,-16.896 q 3.072,3.456 8.256,6.144 5.376,2.496 10.56,2.496 7.296,0 12.864,-4.032 5.76,-4.032 9.024,-13.44 3.456,-9.6 3.456,-25.728 0,-15.168 -2.88,-23.616 -2.688,-8.64 -7.296,-12.096 -4.416,-3.648 -9.6,-3.648 -4.032,0 -7.68,2.112 -3.456,2.112 -5.568,6.336 -2.112,4.224 -2.112,11.328 0,6.336 2.112,10.368 2.112,3.84 5.76,5.568 3.648,1.728 8.256,1.728 4.8,0 9.792,-2.88 4.992,-3.072 9.024,-10.176 l 1.344,18.432 q -4.608,6.72 -12.096,10.752 -7.488,3.84 -13.632,3.84 -10.368,0 -18.624,-4.032 -8.256,-4.032 -13.056,-12.288 -4.608,-8.448 -4.608,-21.312 0,-12.672 5.568,-21.888 5.568,-9.216 14.784,-14.016 9.216,-4.992 20.16,-4.992 9.024,0 17.28,3.456 8.256,3.456 14.592,10.752 6.528,7.296 10.368,18.816 4.032,11.328 4.032,27.456 0,17.088 -4.224,29.568 -4.032,12.48 -10.944,20.544 -6.912,8.064 -15.744,12.096 -8.832,3.84 -18.432,3.84 z m -202.5601,-242.304 v -17.088 l 55.296,-84.288 h -50.112 v -23.808 h 84.864 v 17.088 l -55.296,84.288 h 55.872 v 23.808 z m 159.168,2.304 q -12.288,0 -21.696,-3.264 -9.216,-3.456 -15.552,-10.56 -6.336,-7.296 -9.6,-18.432 -3.264,-11.136 -3.264,-26.496 v -68.736 h 28.416 v 71.616 q 0,11.712 2.496,18.624 2.496,6.72 7.296,9.792 4.8,3.072 11.904,3.072 6.912,0 11.904,-3.072 4.992,-3.072 7.488,-9.792 2.688,-6.912 2.688,-18.624 v -71.616 h 27.264 v 68.736 q 0,15.36 -3.264,26.496 -3.072,11.136 -9.408,18.432 -6.144,7.104 -15.36,10.56 -9.216,3.264 -21.312,3.264 z m 1908.3301,676.9596 v -8.736 q 7.68,-6.816 13.632,-12.768 6.048,-5.952 9.408,-11.04 3.456,-5.088 3.456,-9.312 0,-4.512 -2.304,-6.816 -2.304,-2.4 -6.336,-2.4 -3.264,0 -5.952,1.92 -2.592,1.824 -4.896,4.32 l -7.392,-7.296 q 4.416,-4.992 9.024,-7.488 4.704,-2.496 11.136,-2.496 5.952,0 10.464,2.4 4.608,2.4 7.104,6.72 2.592,4.32 2.592,10.176 0,5.472 -2.976,10.752 -2.88,5.184 -7.68,10.368 -4.8,5.184 -10.176,10.56 2.304,-0.288 5.184,-0.48 2.88,-0.288 4.992,-0.288 h 13.632 v 11.904 z m 50.688,0 v -8.736 q 7.68,-6.816 13.632,-12.768 6.048,-5.952 9.408,-11.04 3.456,-5.088 3.456,-9.312 0,-4.512 -2.304,-6.816 -2.304,-2.4 -6.336,-2.4 -3.264,0 -5.952,1.92 -2.592,1.824 -4.896,4.32 l -7.392,-7.296 q 4.416,-4.992 9.024,-7.488 4.704,-2.496 11.136,-2.496 5.952,0 10.46399,2.4 4.608,2.4 7.104,6.72 2.592,4.32 2.592,10.176 0,5.472 -2.976,10.752 -2.88,5.184 -7.68,10.368 -4.79999,5.184 -10.17599,10.56 2.304,-0.288 5.184,-0.48 2.88,-0.288 4.99199,-0.288 h 13.632 v 11.904 z m 72.47997,1.152 q -9.792,0 -15.84,-8.16 -5.952,-8.16 -5.952,-23.712 0,-15.648 5.952,-23.52 6.048,-7.872 15.84,-7.872 9.792,0 15.744,7.968 6.048,7.872 6.048,23.424 0,15.552 -6.048,23.712 -5.952,8.16 -15.744,8.16 z m 0,-10.944 q 2.4,0 4.32,-1.728 1.92,-1.824 2.976,-6.336 1.152,-4.608 1.152,-12.864 0,-8.352 -1.152,-12.768 -1.056,-4.416 -2.976,-6.048 -1.92,-1.632 -4.32,-1.632 -2.4,0 -4.32,1.632 -1.92,1.632 -3.072,6.048 -1.056,4.416 -1.056,12.768 0,8.256 1.056,12.864 1.152,4.512 3.072,6.336 1.92,1.728 4.32,1.728 z m -104.64007,-110.208 v -8.544 l 27.648,-42.144 h -25.056 v -11.904 h 42.432 v 8.544 l -27.648,42.144 h 27.936 v 11.904 z m 79.58404,1.152 q -6.144,0 -10.848,-1.632 -4.608,-1.728 -7.77604,-5.28 -3.168,-3.648 -4.8,-9.216 -1.632,-5.568 -1.632,-13.2480003 V -27.77042 h 14.20804 V 8.0375797 q 0,5.8560003 1.248,9.3120003 1.248,3.36 3.648,4.896 2.4,1.536 5.952,1.536 3.456,0 5.952,-1.536 2.496,-1.536 3.744,-4.896 1.344,-3.456 1.344,-9.3120003 V -27.77042 h 13.632 V 6.5975797 q 0,7.6800003 -1.632,13.2480003 -1.536,5.568 -4.704,9.216 -3.072,3.552 -7.68,5.28 -4.608,1.632 -10.656,1.632 z m 254.54176,117.9946 v -8.736 q 7.68,-6.816 13.632,-12.768 6.048,-5.952 9.408,-11.04 3.456,-5.088 3.456,-9.312 0,-4.512 -2.304,-6.816 -2.304,-2.4 -6.336,-2.4 -3.264,0 -5.952,1.92 -2.592,1.824 -4.896,4.32 l -7.392,-7.296 q 4.416,-4.992 9.024,-7.488 4.704,-2.496 11.136,-2.496 5.952,0 10.464,2.4 4.608,2.4 7.104,6.72 2.592,4.32 2.592,10.176 0,5.472 -2.976,10.752 -2.88,5.184 -7.68,10.368 -4.8,5.184 -10.176,10.56 2.304,-0.288 5.184,-0.48 2.88,-0.288 4.992,-0.288 h 13.632 v 11.904 z m 53.85599,0 v -11.424 h 13.248 v -35.232 h -11.424 v -8.736 q 4.992,-0.96 8.448,-2.304 3.552,-1.344 6.72,-3.264 h 10.368 v 49.536 h 11.424 v 11.424 z m 65.95198,1.152 q -6.048,0 -10.464,-2.208 -4.416,-2.208 -7.392,-5.088 l 7.488,-8.448 q 1.536,1.728 4.128,3.072 2.688,1.248 5.28,1.248 3.648,0 6.432,-2.016 2.88,-2.016 4.512,-6.72 1.728,-4.8 1.728,-12.864 0,-7.584 -1.44,-11.808 -1.344,-4.32 -3.648,-6.048 -2.208,-1.824 -4.8,-1.824 -2.016,0 -3.84,1.056 -1.728,1.056 -2.784,3.168 -1.056,2.112 -1.056,5.664 0,3.168 1.056,5.184 1.056,1.92 2.88,2.784 1.824,0.864 4.128,0.864 2.4,0 4.896,-1.44 2.496,-1.536 4.512,-5.088 l 0.672,9.216 q -2.304,3.36 -6.048,5.376 -3.744,1.92 -6.816,1.92 -5.184,0 -9.312,-2.016 -4.128,-2.016 -6.528,-6.144 -2.304,-4.224 -2.304,-10.656 0,-6.336 2.784,-10.944 2.784,-4.608 7.392,-7.008 4.608,-2.496 10.08,-2.496 4.512,0 8.64,1.728 4.128,1.728 7.296,5.376 3.264,3.648 5.184,9.408 2.016,5.664 2.016,13.728 0,8.544 -2.112,14.784 -2.016,6.24 -5.472,10.272 -3.456,4.032 -7.872,6.048 -4.416,1.92 -9.216,1.92 z m -101.28004,-121.152 v -8.544 l 27.648,-42.144 h -25.056 v -11.904 h 42.432 v 8.544 l -27.648,42.144 h 27.936 v 11.904 z m 79.58401,1.152 q -6.144,0 -10.848,-1.632 -4.608,-1.728 -7.776,-5.28 -3.168,-3.648 -4.8,-9.216 -1.632,-5.568 -1.632,-13.2480003 V -28.62382 h 14.208 V 7.1841797 q 0,5.8560003 1.248,9.3120003 1.248,3.36 3.648,4.896 2.4,1.536 5.952,1.536 3.456,0 5.952,-1.536 2.496,-1.536 3.744,-4.896 1.344,-3.456 1.344,-9.3120003 V -28.62382 h 13.632 V 5.7441797 q 0,7.6800003 -1.632,13.2480003 -1.536,5.568 -4.704,9.216 -3.072,3.552 -7.68,5.28 -4.608,1.632 -10.656,1.632 z M 60.5554,714.31998 v -11.424 h 13.248 v -35.232 h -11.424 v -8.736 q 4.992,-0.96 8.448,-2.304 3.552,-1.344 6.72,-3.264 h 10.368 v 49.536 h 11.424 v 11.424 z m 50.68799,0 v -11.424 h 13.248 v -35.232 h -11.424 v -8.736 q 4.992,-0.96 8.448,-2.304 3.552,-1.344 6.72,-3.264 h 10.368 v 49.536 h 11.424 v 11.424 z m 70.94399,1.152 q -4.416,0 -8.544,-1.728 -4.128,-1.728 -7.392,-5.376 -3.264,-3.648 -5.184,-9.312 -1.92,-5.76 -1.92,-13.824 0,-8.544 2.016,-14.784 2.016,-6.24 5.472,-10.272 3.456,-4.032 7.872,-5.952 4.416,-2.016 9.312,-2.016 6.048,0 10.464,2.208 4.416,2.112 7.296,5.088 l -7.392,8.448 q -1.632,-1.728 -4.224,-2.976 -2.592,-1.344 -5.28,-1.344 -3.456,0 -6.432,2.016 -2.88,2.016 -4.608,6.816 -1.632,4.704 -1.632,12.768 0,7.584 1.344,11.904 1.44,4.224 3.744,6.048 2.304,1.728 4.8,1.728 2.112,0 3.84,-1.056 1.728,-1.056 2.784,-3.168 1.056,-2.208 1.056,-5.664 0,-3.264 -1.056,-5.184 -1.056,-1.92 -2.88,-2.784 -1.728,-0.864 -4.032,-0.864 -2.4,0 -4.992,1.44 -2.496,1.44 -4.512,5.088 l -0.672,-9.216 q 2.4,-3.552 6.144,-5.376 3.744,-1.92 6.72,-1.92 5.184,0 9.312,2.016 4.128,2.016 6.432,6.24 2.4,4.128 2.4,10.56 0,6.336 -2.784,10.944 -2.688,4.608 -7.296,7.104 -4.608,2.4 -10.176,2.4 z m 54.91198,0 q -3.168,0 -6.336,-1.536 -3.168,-1.632 -6.048,-4.704 h -0.384 l -1.152,5.088 h -11.04 v -67.296 h 14.112 v 16.512 l -0.384,7.296 q 2.688,-2.496 5.952,-3.84 3.264,-1.44 6.624,-1.44 5.76,0 9.984,2.976 4.224,2.976 6.432,8.448 2.304,5.376 2.304,12.672 0,8.16 -2.88,14.016 -2.88,5.76 -7.488,8.832 -4.512,2.976 -9.696,2.976 z m -3.264,-11.52 q 2.4,0 4.416,-1.44 2.112,-1.44 3.264,-4.512 1.152,-3.168 1.152,-8.064 0,-4.32 -0.96,-7.104 -0.864,-2.88 -2.688,-4.32 -1.824,-1.44 -4.608,-1.44 -2.112,0 -4.128,1.056 -1.92,0.96 -4.032,3.264 v 19.488 q 1.824,1.632 3.84,2.4 2.016,0.672 3.744,0.672 z m -130.41603,-109.632 v -8.544 l 27.648,-42.144 h -25.056 v -11.904 h 42.432 v 8.544 l -27.648,42.144 h 27.936 v 11.904 z m 79.58401,1.152 q -6.144,0 -10.848,-1.632 -4.608,-1.728 -7.776,-5.28 -3.168,-3.648 -4.8,-9.216 -1.632,-5.568 -1.632,-13.248 v -34.368 h 14.208 v 35.808 q 0,5.856 1.248,9.312 1.248,3.36 3.648,4.896 2.4,1.536 5.952,1.536 3.456,0 5.952,-1.536 2.496,-1.536 3.744,-4.896 1.344,-3.456 1.344,-9.312 v -35.808 h 13.632 v 34.368 q 0,7.68 -1.632,13.248 -1.536,5.568 -4.704,9.216 -3.072,3.552 -7.68,5.28 -4.608,1.632 -10.656,1.632 z m 296.65394,118.91 v -11.424 h 13.248 v -35.232 h -11.424 v -8.736 q 4.992,-0.96 8.448,-2.304 3.552,-1.344 6.72,-3.264 h 10.368 v 49.536 h 11.424 v 11.424 z m 50.68799,0 v -11.424 h 13.248 v -35.232 h -11.424 v -8.736 q 4.992,-0.96 8.448,-2.304 3.552,-1.344 6.72,-3.264 h 10.368 v 49.536 h 11.424 v 11.424 z m 70.94398,1.152 q -4.416,0 -8.544,-1.728 -4.128,-1.728 -7.392,-5.376 -3.264,-3.648 -5.184,-9.312 -1.92,-5.76 -1.92,-13.824 0,-8.544 2.016,-14.784 2.016,-6.24 5.472,-10.272 3.456,-4.032 7.872,-5.952 4.416,-2.016 9.312,-2.016 6.048,0 10.464,2.208 4.416,2.112 7.296,5.088 l -7.392,8.448 q -1.632,-1.728 -4.224,-2.976 -2.592,-1.344 -5.28,-1.344 -3.456,0 -6.432,2.016 -2.88,2.016 -4.608,6.816 -1.632,4.704 -1.632,12.768 0,7.584 1.344,11.904 1.44,4.224 3.744,6.048 2.304,1.728 4.8,1.728 2.112,0 3.84,-1.056 1.728,-1.056 2.784,-3.168 1.056,-2.208 1.056,-5.664 0,-3.264 -1.056,-5.184 -1.056,-1.92 -2.88,-2.784 -1.728,-0.864 -4.032,-0.864 -2.4,0 -4.992,1.44 -2.496,1.44 -4.512,5.088 l -0.672,-9.216 q 2.4,-3.552 6.144,-5.376 3.744,-1.92 6.72,-1.92 5.184,0 9.312,2.016 4.128,2.016 6.432,6.24 2.4,4.128 2.4,10.56 0,6.336 -2.784,10.944 -2.688,4.608 -7.296,7.104 -4.608,2.4 -10.176,2.4 z m 41.95199,0 q -4.32,0 -7.584,-1.92 -3.168,-1.92 -4.896,-5.184 -1.728,-3.264 -1.728,-7.296 0,-7.68 6.336,-11.808 6.336,-4.224 20.448,-5.664 -0.096,-2.112 -0.96,-3.552 -0.768,-1.536 -2.4,-2.304 -1.632,-0.864 -4.128,-0.864 -2.976,0 -6.048,1.056 -3.072,1.056 -6.624,3.072 l -4.992,-9.216 q 3.072,-1.92 6.336,-3.264 3.264,-1.44 6.72,-2.208 3.552,-0.768 7.296,-0.768 6.144,0 10.272,2.4 4.224,2.304 6.432,7.104 2.208,4.704 2.208,12.096 v 27.168 h -11.52 l -0.96,-4.896 h -0.384 q -3.072,2.688 -6.432,4.416 -3.36,1.632 -7.392,1.632 z m 4.704,-11.04 q 2.4,0 4.224,-1.056 1.824,-1.056 3.648,-2.88 v -8.064 q -4.992,0.672 -7.968,1.728 -2.88,1.056 -4.128,2.592 -1.152,1.44 -1.152,3.264 0,2.208 1.44,3.36 1.536,1.056 3.936,1.056 z m -127.63201,-110.112 v -8.544 l 27.648,-42.144 h -25.056 v -11.904 h 42.432 v 8.544 l -27.648,42.144 h 27.936 v 11.904 z m 79.58401,1.152 q -6.144,0 -10.848,-1.632 -4.608,-1.728 -7.776,-5.28 -3.168,-3.648 -4.8,-9.216 -1.632,-5.568 -1.632,-13.248 v -34.368 h 14.208 v 35.808 q 0,5.856 1.248,9.312 1.248,3.36 3.648,4.896 2.4,1.536 5.952,1.536 3.456,0 5.952,-1.536 2.496,-1.536 3.744,-4.896 1.344,-3.456 1.344,-9.312 v -35.808 h 13.632 v 34.368 q 0,7.68 -1.632,13.248 -1.536,5.568 -4.704,9.216 -3.072,3.552 -7.68,5.28 -4.608,1.632 -10.656,1.632 z M -1405.9564,308.62494 v -5.824 q 5.12,-4.544 9.088,-8.512 4.032,-3.968 6.272,-7.36 2.304,-3.392 2.304,-6.208 0,-3.008 -1.536,-4.544 -1.536,-1.6 -4.224,-1.6 -2.176,0 -3.968,1.28 -1.728,1.216 -3.264,2.88 l -4.928,-4.864 q 2.944,-3.328 6.016,-4.992 3.136,-1.664 7.424,-1.664 3.968,0 6.976,1.6 3.072,1.6 4.736,4.48 1.728,2.88 1.728,6.784 0,3.648 -1.984,7.168 -1.92,3.456 -5.12,6.912 -3.2,3.456 -6.784,7.04 1.536,-0.192 3.456,-0.32 1.92,-0.192 3.328,-0.192 h 9.088 v 7.936 z m 33.792,0 v -5.824 q 5.12,-4.544 9.088,-8.512 4.032,-3.968 6.272,-7.36 2.304,-3.392 2.304,-6.208 0,-3.008 -1.536,-4.544 -1.536,-1.6 -4.224,-1.6 -2.176,0 -3.968,1.28 -1.728,1.216 -3.264,2.88 l -4.928,-4.864 q 2.944,-3.328 6.016,-4.992 3.136,-1.664 7.424,-1.664 3.968,0 6.976,1.6 3.072,1.6 4.736,4.48 1.728,2.88 1.728,6.784 0,3.648 -1.984,7.168 -1.92,3.456 -5.12,6.912 -3.2,3.456 -6.784,7.04 1.536,-0.192 3.456,-0.32 1.92,-0.192 3.328,-0.192 h 9.088 v 7.936 z m 33.792,0 v -5.824 q 5.12,-4.544 9.088,-8.512 4.032,-3.968 6.272,-7.36 2.304,-3.392 2.304,-6.208 0,-3.008 -1.536,-4.544 -1.536,-1.6 -4.224,-1.6 -2.176,0 -3.968,1.28 -1.728,1.216 -3.264,2.88 l -4.928,-4.864 q 2.944,-3.328 6.016,-4.992 3.136,-1.664 7.424,-1.664 3.968,0 6.976,1.6 3.072,1.6 4.736,4.48 1.728,2.88 1.728,6.784 0,3.648 -1.984,7.168 -1.92,3.456 -5.12,6.912 -3.2,3.456 -6.784,7.04 1.536,-0.192 3.456,-0.32 1.92,-0.192 3.328,-0.192 h 9.088 v 7.936 z m -55.2321,-80 v -5.696 l 18.432,-28.096 h -16.704 v -7.936 h 28.288 v 5.696 l -18.432,28.096 h 18.624 v 7.936 z m 53.056,0.768 q -4.096,0 -7.232,-1.088 -3.072,-1.152 -5.184,-3.52 -2.112,-2.432 -3.2,-6.144 -1.088,-3.712 -1.088,-8.832 v -22.912 h 9.472 v 23.872 q 0,3.904 0.832,6.208 0.832,2.24 2.432,3.264 1.6,1.024 3.968,1.024 2.304,0 3.968,-1.024 1.664,-1.024 2.496,-3.264 0.896,-2.304 0.896,-6.208 v -23.872 h 9.088 v 22.912 q 0,5.12 -1.088,8.832 -1.024,3.712 -3.136,6.144 -2.048,2.368 -5.12,3.52 -3.072,1.088 -7.104,1.088 z m 260.7706,-866.22942 v -8.736 q 7.68,-6.816 13.632,-12.768 6.048,-5.952 9.408,-11.04 3.456,-5.088 3.456,-9.312 0,-4.512 -2.304,-6.816 -2.304,-2.4 -6.336,-2.4 -3.264,0 -5.952,1.92 -2.592,1.824 -4.896,4.32 l -7.392,-7.296 q 4.416,-4.992 9.024,-7.488 4.704,-2.496 11.136,-2.496 5.952,0 10.464,2.4 4.608,2.4 7.104,6.72 2.592,4.32 2.592,10.176 0,5.472 -2.976,10.752 -2.88,5.184 -7.68,10.368 -4.8,5.184 -10.176,10.56 2.304,-0.288 5.184,-0.48 2.88,-0.288 4.992,-0.288 h 13.632 v 11.904 z m 72.48,1.152 q -9.792,0 -15.84,-8.16 -5.952,-8.16 -5.952,-23.712 0,-15.648 5.952,-23.52 6.048,-7.872 15.84,-7.872 9.79199,0 15.74399,7.968 6.048,7.872 6.048,23.424 0,15.552 -6.048,23.712 -5.952,8.16 -15.74399,8.16 z m 0,-10.944 q 2.4,0 4.32,-1.728 1.92,-1.824 2.976,-6.336 1.15199,-4.608 1.15199,-12.864 0,-8.352 -1.15199,-12.768 -1.056,-4.416 -2.976,-6.048 -1.92,-1.632 -4.32,-1.632 -2.4,0 -4.32,1.632 -1.92,1.632 -3.072,6.048 -1.056,4.416 -1.056,12.768 0,8.256 1.056,12.864 1.152,4.512 3.072,6.336 1.92,1.728 4.32,1.728 z m 52.31997,10.944 q -4.416,0 -8.544,-1.728 -4.128,-1.728 -7.392,-5.376 -3.264,-3.648 -5.184,-9.312 -1.92,-5.76 -1.92,-13.824 0,-8.544 2.016,-14.784 2.016,-6.24 5.472,-10.272 3.456,-4.032 7.872,-5.952 4.416,-2.016 9.312,-2.016 6.048,0 10.464,2.208 4.416,2.112 7.296,5.088 l -7.392,8.448 q -1.632,-1.728 -4.224,-2.976 -2.592,-1.344 -5.28,-1.344 -3.456,0 -6.432,2.016 -2.88,2.016 -4.608,6.816 -1.632,4.704 -1.632,12.768 0,7.584 1.344,11.904 1.44,4.224 3.744,6.048 2.304,1.728 4.8,1.728 2.112,0 3.84,-1.056 1.728,-1.056 2.784,-3.168 1.056,-2.208 1.056,-5.664 0,-3.264 -1.056,-5.184 -1.056,-1.92 -2.88,-2.784 -1.728,-0.864 -4.032,-0.864 -2.4,0 -4.992,1.44 -2.496,1.44 -4.512,5.088 l -0.672,-9.216 q 2.4,-3.552 6.144,-5.376 3.744,-1.92 6.72,-1.92 5.184,0 9.312,2.016 4.128,2.016 6.432,6.24 2.4,4.128 2.4,10.56 0,6.336 -2.784,10.944 -2.688,4.608 -7.296,7.104 -4.608,2.4 -10.176,2.4 z m -106.27207,-121.152 v -8.544 l 27.648,-42.144 h -25.056 v -11.904 h 42.432 v 8.544 l -27.648,42.144 h 27.936 v 11.904 z m 79.58404,1.152 q -6.144,0 -10.848,-1.632 -4.608,-1.728 -7.77604,-5.28 -3.168,-3.648 -4.8,-9.216 -1.632,-5.568 -1.632,-13.248 v -34.368 h 14.20804 v 35.808 q 0,5.856 1.248,9.312 1.248,3.36 3.648,4.896 2.4,1.536 5.952,1.536 3.456,0 5.952,-1.536 2.496,-1.536 3.744,-4.896 1.344,-3.456 1.344,-9.312 v -35.808 h 13.632 v 34.368 q 0,7.68 -1.632,13.248 -1.536,5.568 -4.704,9.216 -3.072,3.552 -7.68,5.28 -4.608,1.632 -10.656,1.632 z m 613.06096,118.848 v -8.736 q 7.68,-6.816 13.632,-12.768 6.048,-5.952 9.408,-11.04 3.456,-5.088 3.456,-9.312 0,-4.512 -2.304,-6.816 -2.304,-2.4 -6.336,-2.4 -3.264,0 -5.952,1.92 -2.592,1.824 -4.896,4.32 l -7.392,-7.296 q 4.416,-4.992 9.024,-7.488 4.704,-2.496 11.136,-2.496 5.952,0 10.464,2.4 4.608,2.4 7.104,6.72 2.592,4.32 2.592,10.176 0,5.472 -2.976,10.752 -2.88,5.184 -7.68,10.368 -4.8,5.184 -10.176,10.56 2.304,-0.288 5.184,-0.48 2.88,-0.288 4.992,-0.288 h 13.632 v 11.904 z m 72.47999,1.152 q -9.792,0 -15.84,-8.16 -5.952,-8.16 -5.952,-23.712 0,-15.648 5.952,-23.52 6.048,-7.872 15.84,-7.872 9.792,0 15.744,7.968 6.048,7.872 6.048,23.424 0,15.552 -6.048,23.712 -5.952,8.16 -15.744,8.16 z m 0,-10.944 q 2.4,0 4.32,-1.728 1.92,-1.824 2.976,-6.336 1.152,-4.608 1.152,-12.864 0,-8.352 -1.152,-12.768 -1.056,-4.416 -2.976,-6.048 -1.92,-1.632 -4.32,-1.632 -2.4,0 -4.32,1.632 -1.92,1.632 -3.072,6.048 -1.056,4.416 -1.056,12.768 0,8.256 1.056,12.864 1.152,4.512 3.072,6.336 1.92,1.728 4.32,1.728 z m 50.59198,10.944 q -6.048,0 -10.944,-2.112 -4.8,-2.112 -7.584,-5.856 -2.688,-3.84 -2.688,-8.736 0,-3.744 1.344,-6.432 1.44,-2.784 3.744,-4.896 2.4,-2.112 5.28,-3.648 v -0.384 q -3.456,-2.688 -5.856,-6.144 -2.304,-3.456 -2.304,-8.256 0,-5.184 2.496,-8.928 2.496,-3.84 6.912,-5.856 4.416,-2.016 10.08,-2.016 8.448,0 13.44,4.608 5.088,4.512 5.088,12.096 0,2.88 -1.152,5.472 -1.056,2.496 -2.88,4.512 -1.824,1.92 -3.936,3.36 v 0.384 q 2.88,1.536 5.28,3.744 2.4,2.112 3.84,5.184 1.44,2.976 1.44,7.008 0,4.8 -2.688,8.64 -2.688,3.744 -7.584,6.048 -4.8,2.208 -11.328,2.208 z m 3.84,-36.672 q 1.824,-2.112 2.784,-4.32 0.96,-2.208 0.96,-4.608 0,-2.4 -0.864,-4.128 -0.864,-1.728 -2.592,-2.688 -1.632,-1.056 -3.936,-1.056 -2.784,0 -4.8,1.824 -2.016,1.728 -2.016,5.184 0,2.496 1.344,4.224 1.344,1.728 3.648,3.072 2.4,1.344 5.472,2.496 z m -3.552,26.88 q 2.304,0 4.128,-0.768 1.92,-0.864 2.976,-2.496 1.056,-1.728 1.056,-4.32 0,-2.688 -1.632,-4.416 -1.536,-1.824 -4.512,-3.168 -2.88,-1.44 -6.72,-3.072 -2.016,1.824 -3.36,4.416 -1.344,2.496 -1.344,5.28 0,2.688 1.248,4.608 1.344,1.92 3.456,2.976 2.208,0.96 4.704,0.96 z m -104.83204,-111.36 v -8.544 l 27.648,-42.144 h -25.056 v -11.904 h 42.432 v 8.544 l -27.648,42.144 h 27.936 v 11.904 z m 79.58401,1.152 q -6.144,0 -10.848,-1.632 -4.608,-1.728 -7.776,-5.28 -3.168,-3.648 -4.8,-9.216 -1.632,-5.568 -1.632,-13.248 v -34.368 h 14.208 v 35.808 q 0,5.856 1.248,9.312 1.248,3.36 3.648,4.896 2.4,1.536 5.952,1.536 3.456,0 5.952,-1.536 2.496,-1.536 3.744,-4.896 1.344,-3.456 1.344,-9.312 v -35.808 h 13.632 v 34.368 q 0,7.68 -1.632,13.248 -1.536,5.568 -4.704,9.216 -3.072,3.552 -7.68,5.28 -4.608,1.632 -10.656,1.632 z M 768.84351,246.6935 v -17.472 q 15.36,-13.632 27.264,-25.536 12.096,-11.904 18.816,-22.08 6.912,-10.176 6.912,-18.624 0,-9.024 -4.608,-13.632 -4.608,-4.8 -12.672,-4.8 -6.528,0 -11.904,3.84 -5.184,3.648 -9.792,8.64 l -14.784,-14.592 q 8.832,-9.984 18.048,-14.976 9.408,-4.992 22.272,-4.992 11.904,0 20.928,4.8 9.216,4.8 14.208,13.44 5.184,8.64 5.184,20.352 0,10.944 -5.952,21.504 -5.76,10.368 -15.36,20.736 -9.6,10.368 -20.352,21.12 4.608,-0.576 10.368,-0.96 5.76,-0.576 9.984,-0.576 h 27.264 v 23.808 z m 107.71198,0 v -22.848 h 26.496 v -70.464 h -22.848 v -17.472 q 9.984,-1.92 16.896,-4.608 7.104,-2.688 13.44,-6.528 h 20.736 v 99.072 h 22.848 v 22.848 z m 144.38401,0 v -70.464 q 0,-5.76 0.384,-13.632 0.576,-7.872 0.768,-13.632 h -0.768 q -2.304,4.992 -4.8,10.176 -2.496,4.992 -5.184,10.368 l -16.12803,26.496 h 66.04803 v 21.504 h -93.12003 v -19.392 l 44.54403,-73.344 h 34.56 v 121.92 z m -215.04012,-240 v -17.088002 l 55.296,-84.288 h -50.112 V -118.4905 h 84.864 v 17.088 l -55.296,84.287998 h 55.872 V 6.6935 Z m 159.16802,2.304 q -12.288,0 -21.696,-3.264 -9.216,-3.456 -15.552,-10.56 -6.336,-7.296002 -9.6,-18.432002 -3.264,-11.136 -3.264,-26.496 V -118.4905 h 28.416 v 71.615998 q 0,11.712 2.496,18.624 2.496,6.72 7.296,9.792 4.8,3.072 11.904,3.072 6.912,0 11.904,-3.072 4.992,-3.072 7.488,-9.792 2.688,-6.912 2.688,-18.624 V -118.4905 h 27.264 v 68.735998 q 0,15.36 -3.264,26.496 -3.072,11.136 -9.408,18.432002 -6.144,7.104 -15.36,10.56 -9.216,3.264 -21.312,3.264 z M -728.5925,-636.83648 v -8.736 q 7.68,-6.816 13.632,-12.768 6.048,-5.952 9.408,-11.04 3.456,-5.088 3.456,-9.312 0,-4.512 -2.304,-6.816 -2.304,-2.4 -6.336,-2.4 -3.264,0 -5.952,1.92 -2.592,1.824 -4.896,4.32 l -7.392,-7.296 q 4.416,-4.992 9.024,-7.488 4.704,-2.496 11.136,-2.496 5.952,0 10.464,2.4 4.608,2.4 7.104,6.72 2.592,4.32 2.592,10.176 0,5.472 -2.976,10.752 -2.88,5.184 -7.68,10.368 -4.8,5.184 -10.176,10.56 2.304,-0.288 5.184,-0.48 2.88,-0.288 4.992,-0.288 h 13.632 v 11.904 z m 72.47999,1.152 q -9.792,0 -15.84,-8.16 -5.952,-8.16 -5.952,-23.712 0,-15.648 5.952,-23.52 6.048,-7.872 15.84,-7.872 9.792,0 15.744,7.968 6.048,7.872 6.048,23.424 0,15.552 -6.048,23.712 -5.952,8.16 -15.744,8.16 z m 0,-10.944 q 2.4,0 4.32,-1.728 1.92,-1.824 2.976,-6.336 1.152,-4.608 1.152,-12.864 0,-8.352 -1.152,-12.768 -1.056,-4.416 -2.976,-6.048 -1.92,-1.632 -4.32,-1.632 -2.4,0 -4.32,1.632 -1.92,1.632 -3.072,6.048 -1.056,4.416 -1.056,12.768 0,8.256 1.056,12.864 1.152,4.512 3.072,6.336 1.92,1.728 4.32,1.728 z m 39.74398,9.792 q 0.48,-7.584 1.536,-13.92 1.056,-6.432 2.976,-12.192 2.016,-5.76 5.088,-11.328 3.072,-5.568 7.584,-11.616 h -27.36 v -11.904 h 42.432 v 8.64 q -5.376,6.528 -8.832,12.192 -3.36,5.664 -5.184,11.52 -1.824,5.856 -2.688,12.768 -0.864,6.912 -1.344,15.84 z m -93.69604,-120 v -8.544 l 27.648,-42.144 h -25.056 v -11.904 h 42.432 v 8.544 l -27.648,42.144 h 27.936 v 11.904 z m 79.58401,1.152 q -6.144,0 -10.848,-1.632 -4.608,-1.728 -7.776,-5.28 -3.168,-3.648 -4.8,-9.216 -1.632,-5.568 -1.632,-13.248 v -34.368 h 14.208 v 35.808 q 0,5.856 1.248,9.312 1.248,3.36 3.648,4.896 2.4,1.536 5.952,1.536 3.456,0 5.952,-1.536 2.496,-1.536 3.744,-4.896 1.344,-3.456 1.344,-9.312 v -35.808 h 13.632 v 34.368 q 0,7.68 -1.632,13.248 -1.536,5.568 -4.704,9.216 -3.072,3.552 -7.68,5.28 -4.608,1.632 -10.656,1.632 z m 1626.80566,119.424 v -8.736 q 7.68,-6.816 13.632,-12.768 6.048,-5.952 9.408,-11.04 3.456,-5.088 3.456,-9.312 0,-4.512 -2.304,-6.816 -2.304,-2.4 -6.336,-2.4 -3.264,0 -5.952,1.92 -2.592,1.824 -4.896,4.32 l -7.392,-7.296 q 4.416,-4.992 9.024,-7.488 4.704,-2.496 11.136,-2.496 5.952,0 10.464,2.4 4.608,2.4 7.104,6.72 2.592,4.32 2.592,10.176 0,5.472 -2.976,10.752 -2.88,5.184 -7.68,10.368 -4.8,5.184 -10.176,10.56 2.304,-0.288 5.184,-0.48 2.88,-0.288 4.992,-0.288 h 13.632 v 11.904 z m 53.856,0 v -11.424 h 13.248 v -35.232 h -11.424 v -8.736 q 4.992,-0.96 8.448,-2.304 3.552,-1.344 6.72,-3.264 h 10.368 v 49.536 h 11.424 v 11.424 z m 47.52,0 v -8.736 q 7.68,-6.816 13.632,-12.768 6.048,-5.952 9.408,-11.04 3.456,-5.088 3.456,-9.312 0,-4.512 -2.304,-6.816 -2.304,-2.4 -6.336,-2.4 -3.264,0 -5.952,1.92 -2.592,1.824 -4.896,4.32 l -7.392,-7.296 q 4.416,-4.992 9.024,-7.488 4.704,-2.496 11.136,-2.496 5.952,0 10.464,2.4 4.608,2.4 7.104,6.72 2.592,4.32 2.592,10.176 0,5.472 -2.976,10.752 -2.88,5.184 -7.68,10.368 -4.8,5.184 -10.176,10.56 2.304,-0.288 5.184,-0.48 2.88,-0.288 4.992,-0.288 h 13.632 v 11.904 z m -82.8481,-120 v -8.544 l 27.648,-42.144 h -25.056 v -11.904 h 42.432 v 8.544 l -27.648,42.144 h 27.936 v 11.904 z m 79.584,1.152 q -6.144,0 -10.848,-1.632 -4.608,-1.728 -7.776,-5.28 -3.168,-3.648 -4.8,-9.216 -1.632,-5.568 -1.632,-13.248 v -34.368 h 14.208 v 35.808 q 0,5.856 1.248,9.312 1.248,3.36 3.648,4.896 2.4,1.536 5.952,1.536 3.456,0 5.952,-1.536 2.496,-1.536 3.744,-4.896 1.344,-3.456 1.344,-9.312 v -35.808 h 13.632 v 34.368 q 0,7.68 -1.632,13.248 -1.536,5.568 -4.704,9.216 -3.072,3.552 -7.68,5.28 -4.608,1.632 -10.656,1.632 z m -402.7813,118.83895 v -8.736 q 7.68,-6.816 13.632,-12.768 6.048,-5.952 9.408,-11.04 3.456,-5.088 3.456,-9.312 0,-4.512 -2.304,-6.816 -2.304,-2.4 -6.336,-2.4 -3.264,0 -5.952,1.92 -2.592,1.824 -4.896,4.32 l -7.392,-7.296 q 4.416,-4.992 9.024,-7.488 4.704,-2.496 11.136,-2.496 5.952,0 10.464,2.4 4.608,2.4 7.104,6.72 2.592,4.32 2.592,10.176 0,5.472 -2.976,10.752 -2.88,5.184 -7.68,10.368 -4.8,5.184 -10.176,10.56 2.304,-0.288 5.184,-0.48 2.88,-0.288 4.992,-0.288 h 13.632 v 11.904 z m 53.85599,0 v -11.424 h 13.248 v -35.232 h -11.424 v -8.736 q 4.992,-0.96 8.448,-2.304 3.552,-1.344 6.72,-3.264 h 10.368 v 49.536 h 11.424 v 11.424 z m 50.68798,0 v -11.424 h 13.248 v -35.232 h -11.424 v -8.736 q 4.992,-0.96 8.448,-2.304 3.552,-1.344 6.72,-3.264 h 10.368 v 49.536 h 11.424 v 11.424 z m -86.01604,-120 v -8.544 l 27.648,-42.144 h -25.056 v -11.904 h 42.432 v 8.544 l -27.648,42.144 h 27.936 v 11.904 z m 79.58401,1.152 q -6.144,0 -10.848,-1.632 -4.608,-1.728 -7.776,-5.28 -3.168,-3.648 -4.8,-9.216 -1.632,-5.568 -1.632,-13.248 v -34.368 h 14.208 v 35.808 q 0,5.856 1.248,9.312 1.248,3.36 3.648,4.896 2.4,1.536 5.952,1.536 3.456,0 5.952,-1.536 2.496,-1.536 3.744,-4.896 1.344,-3.456 1.344,-9.312 v -35.808 h 13.632 v 34.368 q 0,7.68 -1.632,13.248 -1.536,5.568 -4.704,9.216 -3.072,3.552 -7.68,5.28 -4.608,1.632 -10.656,1.632 z M 356.0075,-636.83648 v -8.736 q 7.68,-6.816 13.632,-12.768 6.048,-5.952 9.408,-11.04 3.456,-5.088 3.456,-9.312 0,-4.512 -2.304,-6.816 -2.304,-2.4 -6.336,-2.4 -3.264,0 -5.952,1.92 -2.592,1.824 -4.896,4.32 l -7.392,-7.296 q 4.416,-4.992 9.024,-7.488 4.704,-2.496 11.136,-2.496 5.952,0 10.464,2.4 4.608,2.4 7.104,6.72 2.592,4.32 2.592,10.176 0,5.472 -2.976,10.752 -2.88,5.184 -7.68,10.368 -4.8,5.184 -10.176,10.56 2.304,-0.288 5.184,-0.48 2.88,-0.288 4.992,-0.288 h 13.632 v 11.904 z m 53.85599,0 v -11.424 h 13.248 v -35.232 h -11.424 v -8.736 q 4.992,-0.96 8.448,-2.304 3.552,-1.344 6.72,-3.264 h 10.368 v 49.536 h 11.424 v 11.424 z m 69.31198,1.152 q -9.792,0 -15.84,-8.16 -5.952,-8.16 -5.952,-23.712 0,-15.648 5.952,-23.52 6.048,-7.872 15.84,-7.872 9.792,0 15.744,7.968 6.048,7.872 6.048,23.424 0,15.552 -6.048,23.712 -5.952,8.16 -15.744,8.16 z m 0,-10.944 q 2.4,0 4.32,-1.728 1.92,-1.824 2.976,-6.336 1.152,-4.608 1.152,-12.864 0,-8.352 -1.152,-12.768 -1.056,-4.416 -2.976,-6.048 -1.92,-1.632 -4.32,-1.632 -2.4,0 -4.32,1.632 -1.92,1.632 -3.072,6.048 -1.056,4.416 -1.056,12.768 0,8.256 1.056,12.864 1.152,4.512 3.072,6.336 1.92,1.728 4.32,1.728 z m -104.64004,-110.208 v -8.544 l 27.648,-42.144 h -25.056 v -11.904 h 42.432 v 8.544 l -27.648,42.144 h 27.936 v 11.904 z m 79.58401,1.152 q -6.144,0 -10.848,-1.632 -4.608,-1.728 -7.776,-5.28 -3.168,-3.648 -4.8,-9.216 -1.632,-5.568 -1.632,-13.248 v -34.368 h 14.208 v 35.808 q 0,5.856 1.248,9.312 1.248,3.36 3.648,4.896 2.4,1.536 5.952,1.536 3.456,0 5.952,-1.536 2.496,-1.536 3.744,-4.896 1.344,-3.456 1.344,-9.312 v -35.808 h 13.632 v 34.368 q 0,7.68 -1.632,13.248 -1.536,5.568 -4.704,9.216 -3.072,3.552 -7.68,5.28 -4.608,1.632 -10.656,1.632 z m -461.57184,118.848 v -8.736 q 7.68,-6.816 13.632,-12.768 6.048,-5.952 9.408,-11.04 3.456,-5.088 3.456,-9.312 0,-4.512 -2.304,-6.816 -2.304,-2.4 -6.336,-2.4 -3.264,0 -5.952,1.92 -2.592,1.824 -4.896,4.32 l -7.392,-7.296 q 4.416,-4.992 9.024,-7.488 4.704,-2.496 11.136,-2.496 5.952,0 10.464,2.4 4.608,2.4 7.104,6.72 2.592,4.32 2.592,10.176 0,5.472 -2.976,10.752 -2.88,5.184 -7.68,10.368 -4.8,5.184 -10.176,10.56 2.304,-0.288 5.184,-0.48 2.88,-0.288 4.992,-0.288 h 13.632 v 11.904 z m 72.47999,1.152 q -9.792,0 -15.84,-8.16 -5.952,-8.16 -5.952,-23.712 0,-15.648 5.952,-23.52 6.048,-7.872 15.84,-7.872 9.792,0 15.744,7.968 6.048,7.872 6.048,23.424 0,15.552 -6.048,23.712 -5.952,8.16 -15.744,8.16 z m 0,-10.944 q 2.4,0 4.32,-1.728 1.92,-1.824 2.976,-6.336 1.152,-4.608 1.152,-12.864 0,-8.352 -1.152,-12.768 -1.056,-4.416 -2.976,-6.048 -1.92,-1.632 -4.32,-1.632 -2.4,0 -4.32,1.632 -1.92,1.632 -3.072,6.048 -1.056,4.416 -1.056,12.768 0,8.256 1.056,12.864 1.152,4.512 3.072,6.336 1.92,1.728 4.32,1.728 z m 47.32798,10.944 q -6.048,0 -10.464,-2.208 -4.416,-2.208 -7.392,-5.088 l 7.488,-8.448 q 1.536,1.728 4.128,3.072 2.688,1.248 5.28,1.248 3.648,0 6.432,-2.016 2.88,-2.016 4.512,-6.72 1.728,-4.8 1.728,-12.864 0,-7.584 -1.44,-11.808 -1.344,-4.32 -3.648,-6.048 -2.208,-1.824 -4.8,-1.824 -2.016,0 -3.84,1.056 -1.728,1.056 -2.784,3.168 -1.056,2.112 -1.056,5.664 0,3.168 1.056,5.184 1.056,1.92 2.88,2.784 1.824,0.864 4.128,0.864 2.4,0 4.896,-1.44 2.496,-1.536 4.512,-5.088 l 0.672,9.216 q -2.304,3.36 -6.048,5.376 -3.744,1.92 -6.816,1.92 -5.184,0 -9.312,-2.016 -4.128,-2.016 -6.528,-6.144 -2.304,-4.224 -2.304,-10.656 0,-6.336 2.784,-10.944 2.784,-4.608 7.392,-7.008 4.608,-2.496 10.08,-2.496 4.512,0 8.64,1.728 4.128,1.728 7.296,5.376 3.264,3.648 5.184,9.408 2.016,5.664 2.016,13.728 0,8.544 -2.112,14.784 -2.016,6.24 -5.472,10.272 -3.456,4.032 -7.872,6.048 -4.416,1.92 -9.216,1.92 z m -101.28004,-121.152 v -8.544 l 27.648,-42.144 h -25.056 v -11.904 h 42.432 v 8.544 l -27.648,42.144 h 27.936 v 11.904 z m 79.58401,1.152 q -6.144,0 -10.848,-1.632 -4.608,-1.728 -7.776,-5.28 -3.168,-3.648 -4.8,-9.216 -1.632,-5.568 -1.632,-13.248 v -34.368 h 14.208 v 35.808 q 0,5.856 1.248,9.312 1.248,3.36 3.648,4.896 2.4,1.536 5.952,1.536 3.456,0 5.952,-1.536 2.496,-1.536 3.744,-4.896 1.344,-3.456 1.344,-9.312 v -35.808 h 13.632 v 34.368 q 0,7.68 -1.632,13.248 -1.536,5.568 -4.704,9.216 -3.072,3.552 -7.68,5.28 -4.608,1.632 -10.656,1.632 z M -259.15359,245.8402 v -17.472 q 15.36,-13.632 27.264,-25.536 12.096,-11.904 18.816,-22.08 6.912,-10.176 6.912,-18.624 0,-9.024 -4.608,-13.632 -4.608,-4.8 -12.672,-4.8 -6.528,0 -11.904,3.84 -5.184,3.648 -9.792,8.64 l -14.784,-14.592 q 8.832,-9.984 18.048,-14.976 9.408,-4.992 22.272,-4.992 11.904,0 20.928,4.8 9.216,4.8 14.208,13.44 5.184,8.64 5.184,20.352 0,10.944 -5.952,21.504 -5.76,10.368 -15.36,20.736 -9.6,10.368 -20.352,21.12 4.608,-0.576 10.368,-0.96 5.76,-0.576 9.984,-0.576 h 27.264 v 23.808 z m 107.71198,0 v -22.848 h 26.496 v -70.464 h -22.848 v -17.472 q 9.984,-1.92 16.896,-4.608 7.104,-2.688 13.44,-6.528 h 20.736 v 99.072 h 22.848 v 22.848 z m 116.73598,0 q 0.96,-15.168 3.072,-27.84 2.112,-12.864 5.952,-24.384 4.032,-11.52 10.176,-22.656 6.144,-11.136 15.168,-23.232 h -54.72 v -23.808 h 84.864 v 17.28 q -10.752,13.056 -17.664,24.384 -6.72,11.328 -10.368,23.04 -3.648,11.712 -5.376,25.536 -1.728,13.824 -2.688,31.68 z m -187.39209,-240 v -17.088002 l 55.296,-84.288 h -50.112 V -119.3438 h 84.864 v 17.088 l -55.296,84.287998 h 55.872 V 5.8402 Z m 159.16802,2.304 q -12.288,0 -21.696,-3.264 -9.216,-3.456 -15.552,-10.56 -6.336,-7.296002 -9.6,-18.432002 -3.264,-11.136 -3.264,-26.496 V -119.3438 h 28.416 v 71.615998 q 0,11.712 2.496,18.624 2.496,6.72 7.296,9.792 4.8,3.072 11.904,3.072 6.912,0 11.904,-3.072 4.992,-3.072 7.488,-9.792 2.688,-6.912 2.688,-18.624 V -119.3438 h 27.264 v 68.735998 q 0,15.36 -3.264,26.496 -3.072,11.136 -9.408,18.432002 -6.144,7.104 -15.36,10.56 -9.216,3.264 -21.312,3.264 z" style="font-size:96px;font-family:'Source Sans 3';-inkscape-font-specification:'Source Sans 3, @wght=700';font-variation-settings:'wght' 700;text-align:center;white-space:pre;display:inline;fill:#bec3c6;stroke-width:55" transform="matrix(0.02439371,0,0,0.02439371,93.358341,268.68674)"/>
  </g>
</svg>
