<svg width="5100" height="1900" viewBox="0 0 5100 1900" version="1.1" id="svg1" xml:space="preserve" xmlns="http://www.w3.org/2000/svg">
  <g id="floor_4" transform="matrix(40.994169,0,0,40.994169,1.00188,-10010.757)" style="display:inline">
    <path style="font-variation-settings:'wdth' 70,'wght' 600;display:inline;fill:#4c5a5f;fill-opacity:1;stroke-width:.487874" d="m 0.87735372,265.6217 36.08124828,-10e-6 -6e-6,-8.02809 h 9.948033 v -0.27752 l 17.286222,-10e-6 -0.01642,-0.30475 59.534229,2.7e-4 v 5.79334 l -59.527951,1.9e-4 -3e-6,14.8977 h -17.94788 v -4.86509 H 0.87735772 Z" id="path60"/>
    <g id="rooms_4" style="display:inline" transform="matrix(0.02439371,0,0,0.02439371,-0.02443957,255.98706)">
      <rect style="font-variation-settings:'wdth' 70,'wght' 600;display:inline;fill:#454c7f;fill-opacity:1;stroke:none;stroke-width:8.97146;stroke-linecap:butt;stroke-linejoin:miter;stroke-dasharray:none;stroke-opacity:1" id="ZU401" width="304.74487" height="168.63556" x="1973.9615" y="-114.15359"/>
      <rect style="font-variation-settings:'wdth' 70,'wght' 600;fill:#454c7f;fill-opacity:1;stroke:none;stroke-width:12.3433;stroke-linecap:butt;stroke-linejoin:miter;stroke-dasharray:none;stroke-opacity:1" id="ZU402" width="304.74487" height="319.21649" x="1973.9615" y="-433.37009"/>
      <rect style="font-variation-settings:'wdth' 70,'wght' 600;display:inline;fill:#454c7f;fill-opacity:1;stroke:none;stroke-width:9.41547;stroke-linecap:butt;stroke-linejoin:miter;stroke-dasharray:none;stroke-opacity:1" id="ZU403" width="335.6554" height="168.63556" x="2278.7065" y="-114.15359"/>
      <rect style="font-variation-settings:'wdth' 70,'wght' 600;display:inline;fill:#454c7f;fill-opacity:1;stroke:none;stroke-width:12.9542;stroke-linecap:butt;stroke-linejoin:miter;stroke-dasharray:none;stroke-opacity:1" id="ZU404" width="335.65424" height="319.21649" x="2278.7065" y="-433.37009"/>
      <rect style="font-variation-settings:'wdth' 70,'wght' 600;fill:#1b2022;fill-opacity:1;stroke:none;stroke-width:10.6002;stroke-linecap:butt;stroke-linejoin:miter;stroke-dasharray:none;stroke-opacity:1" id="rect5" width="298.89462" height="224.67143" x="2303.2253" y="431.85519"/>
      <rect style="font-variation-settings:'wdth' 70,'wght' 600;display:inline;fill:#454c7f;fill-opacity:1;stroke-width:365.136;stroke-dasharray:none" id="ZU406" width="342.68436" height="497.88736" x="2649.366" y="-455.88718"/>
      <rect style="font-variation-settings:'wdth' 70,'wght' 600;display:inline;fill:#454c7f;fill-opacity:1;stroke-width:373.786;stroke-dasharray:none" id="ZU407" width="359.11038" height="497.88736" x="2992.0503" y="-455.88718"/>
      <rect style="font-variation-settings:'wdth' 70,'wght' 600;display:inline;fill:#454c7f;fill-opacity:1;stroke-width:374.798;stroke-dasharray:none" id="ZU408" width="361.05676" height="497.88736" x="3351.1606" y="-455.88718"/>
      <rect style="font-variation-settings:'wdth' 70,'wght' 600;display:inline;fill:#454c7f;fill-opacity:1;stroke-width:376.614;stroke-dasharray:none" id="ZU409" width="364.56442" height="497.88736" x="3712.2173" y="-455.88718"/>
      <rect style="font-variation-settings:'wdth' 70,'wght' 600;display:inline;fill:#454c7f;fill-opacity:1;stroke-width:375.719;stroke-dasharray:none" id="ZU410" width="362.83524" height="497.88736" x="4076.7817" y="-455.88718"/>
      <rect style="font-variation-settings:'wdth' 70,'wght' 600;display:inline;fill:#454c7f;fill-opacity:1;stroke-width:343.52;stroke-dasharray:none" id="ZU411" width="303.32101" height="497.86926" x="4439.6172" y="-455.88718"/>
      <rect style="font-variation-settings:'wdth' 70,'wght' 600;display:inline;fill:#454c7f;fill-opacity:1;stroke-width:345.578;stroke-dasharray:none" id="ZU412" width="306.97733" height="497.85117" x="4742.9385" y="-455.86908"/>
      <rect style="font-variation-settings:'wdth' 70,'wght' 600;display:inline;fill:#454c7f;fill-opacity:1;stroke-width:383.828;stroke-dasharray:none" id="ZU414" width="308.84982" height="610.44299" x="4741.0723" y="279.49298"/>
      <rect style="font-variation-settings:'wdth' 70,'wght' 600;display:inline;fill:#454c7f;fill-opacity:1;stroke-width:381.653;stroke-dasharray:none" id="ZU415" width="305.35959" height="610.44299" x="4435.7129" y="279.49298"/>
      <rect style="font-variation-settings:'wdth' 70,'wght' 600;display:inline;fill:#454c7f;fill-opacity:1;stroke-width:589.204;stroke-dasharray:none" id="ZU417" width="725.75214" height="612.15002" x="3709.9607" y="277.78616"/>
      <rect style="font-variation-settings:'wdth' 70,'wght' 600;display:inline;fill:#454c7f;fill-opacity:1;stroke-width:412.381;stroke-dasharray:none" id="ZU418" width="355.51221" height="612.15002" x="3354.4485" y="277.78616"/>
      <rect style="font-variation-settings:'wdth' 70,'wght' 600;display:inline;fill:#454c7f;fill-opacity:1;stroke-width:416.712;stroke-dasharray:none" id="ZU419" width="363.01956" height="612.15002" x="2991.429" y="277.78616"/>
      <rect style="font-variation-settings:'wdth' 70,'wght' 600;display:inline;fill:#454c7f;fill-opacity:1;stroke-width:403.79;stroke-dasharray:none" id="ZU420" width="341.80789" height="610.44318" x="2649.6211" y="279.49298"/>
      <rect style="font-variation-settings:'wdth' 70,'wght' 600;display:inline;fill:#454c7f;fill-opacity:1;stroke-width:255.859;stroke-dasharray:none" id="ZU422" width="358.91891" height="233.40952" x="2290.7021" y="656.52661"/>
      <path style="font-variation-settings:'wdth' 70,'wght' 600;display:inline;fill:#454c7f;fill-opacity:1;stroke-width:0" d="M 730.80534,690.77924 H 1896.3604 V 1373.8977 H 504.53112 V 1116.613 H 788.41049 V 894.51644 h -57.60515 z" id="ZU423"/>
      <rect style="font-variation-settings:'wdth' 70,'wght' 600;display:inline;fill:#454c7f;fill-opacity:1;stroke-width:557.875;stroke-dasharray:none" id="ZU426" width="178.90857" height="211.71646" x="551.89685" y="690.77911"/>
      <rect style="font-variation-settings:'wdth' 70,'wght' 600;display:inline;fill:#454c7f;fill-opacity:1;stroke-width:487.415;stroke-dasharray:none" id="ZU427" width="445.05902" height="683.11853" x="59.472183" y="690.77948"/>
      <rect style="font-variation-settings:'wdth' 70,'wght' 600;display:inline;fill:#454c7f;fill-opacity:1;stroke-width:437.394;stroke-dasharray:none" id="ZU429" width="359.79019" height="680.46637" x="59.470463" y="-285.50223"/>
      <rect style="font-variation-settings:'wdth' 70,'wght' 600;display:inline;fill:#454c7f;fill-opacity:1;stroke-width:763.691;stroke-dasharray:none" id="ZU430" width="1096.8286" height="680.46637" x="419.26068" y="-285.50223"/>
      <rect style="font-variation-settings:'wdth' 70,'wght' 600;display:inline;fill:#454c7f;fill-opacity:1;stroke-width:303.233;stroke-dasharray:none" id="ZU433" width="357.81146" height="328.86108" x="1516.0892" y="-263.00186"/>
    </g>
    <g id="staires_4" transform="matrix(0.02439371,0,0,0.02439371,-0.02443957,244.19953)" style="display:inline">
      <rect style="font-variation-settings:'wdth' 70,'wght' 600;display:inline;fill:#4c5a5f;fill-opacity:1;stroke-width:5.47103;stroke-dasharray:none" id="rect641" width="121.70573" height="30.000004" x="2169.0186" y="915.00031"/>
      <rect style="font-variation-settings:'wdth' 70,'wght' 600;display:inline;fill:#4f5e63;fill-opacity:1;stroke-width:5.47103;stroke-dasharray:none" id="rect642" width="121.70573" height="30.000004" x="2169.0186" y="945.00031"/>
      <rect style="font-variation-settings:'wdth' 70,'wght' 600;display:inline;fill:#516166;fill-opacity:1;stroke-width:5.47103;stroke-dasharray:none" id="rect643" width="121.70573" height="30.000004" x="2169.0186" y="975.00031"/>
      <rect style="font-variation-settings:'wdth' 70,'wght' 600;display:inline;fill:#546469;fill-opacity:1;stroke-width:5.47103;stroke-dasharray:none" id="rect644" width="121.70573" height="30.000004" x="2169.0186" y="1005.0003"/>
      <rect style="font-variation-settings:'wdth' 70,'wght' 600;display:inline;fill:#56676c;fill-opacity:1;stroke-width:5.47103;stroke-dasharray:none" id="rect645" width="121.70573" height="30.000004" x="2169.0186" y="1035.0004"/>
      <rect style="font-variation-settings:'wdth' 70,'wght' 600;display:inline;fill:#586a6f;fill-opacity:1;stroke-width:5.47103;stroke-dasharray:none" id="rect646" width="121.70573" height="30.000004" x="2169.0186" y="1065.0004"/>
      <rect style="font-variation-settings:'wdth' 70,'wght' 600;display:inline;fill:#5a6d72;fill-opacity:1;stroke-width:5.47103;stroke-dasharray:none" id="rect647" width="121.70573" height="30.000004" x="2169.0186" y="1095.0004"/>
      <rect style="font-variation-settings:'wdth' 70,'wght' 600;display:inline;fill:#5c7075;fill-opacity:1;stroke-width:5.47103;stroke-dasharray:none" id="rect648" width="121.70573" height="30.000004" x="2169.0186" y="1125.0004"/>
      <rect style="font-variation-settings:'wdth' 70,'wght' 600;display:inline;fill:#5e7378;fill-opacity:1;stroke-width:5.47103;stroke-dasharray:none" id="rect649" width="121.70573" height="30.000004" x="2169.0186" y="1155.0004"/>
      <rect style="font-variation-settings:'wdth' 70,'wght' 600;display:inline;fill:#60767b;fill-opacity:1;stroke-width:5.47103;stroke-dasharray:none" id="rect650" width="121.70573" height="30.000004" x="2169.0186" y="1185.0004"/>
      <rect style="font-variation-settings:'wdth' 70,'wght' 600;display:inline;fill:#373e43;fill-opacity:1;stroke-width:14.3915;stroke-dasharray:none" id="rect651" width="316.78696" height="135.94603" x="1973.9358" y="1215.0042"/>
      <rect style="font-variation-settings:'wdth' 70,'wght' 600;display:inline;fill:#3a4146;fill-opacity:1;stroke-width:5.43645;stroke-dasharray:none" id="rect652" width="120.17195" height="30.000004" x="-2094.0872" y="-1214.9865" transform="scale(-1)"/>
      <rect style="font-variation-settings:'wdth' 70,'wght' 600;display:inline;fill:#3c4449;fill-opacity:1;stroke-width:5.43645;stroke-dasharray:none" id="rect653" width="120.17195" height="30.000004" x="-2094.0872" y="-1184.9865" transform="scale(-1)"/>
      <rect style="font-variation-settings:'wdth' 70,'wght' 600;display:inline;fill:#3e474c;fill-opacity:1;stroke-width:5.43645;stroke-dasharray:none" id="rect654" width="120.17195" height="30.000004" x="-2094.0872" y="-1154.9865" transform="scale(-1)"/>
      <rect style="font-variation-settings:'wdth' 70,'wght' 600;display:inline;fill:#404a4f;fill-opacity:1;stroke-width:5.43645;stroke-dasharray:none" id="rect655" width="120.17195" height="30.000004" x="-2094.0872" y="-1124.9865" transform="scale(-1)"/>
      <rect style="font-variation-settings:'wdth' 70,'wght' 600;display:inline;fill:#424d52;fill-opacity:1;stroke-width:5.43645;stroke-dasharray:none" id="rect656" width="120.17195" height="30.000004" x="-2094.0872" y="-1094.9865" transform="scale(-1)"/>
      <rect style="font-variation-settings:'wdth' 70,'wght' 600;display:inline;fill:#445055;fill-opacity:1;stroke-width:5.43645;stroke-dasharray:none" id="rect657" width="120.17195" height="30.000004" x="-2094.0872" y="-1064.9865" transform="scale(-1)"/>
      <rect style="font-variation-settings:'wdth' 70,'wght' 600;display:inline;fill:#465358;fill-opacity:1;stroke-width:5.43645;stroke-dasharray:none" id="rect658" width="120.17195" height="30.000004" x="-2094.0872" y="-1034.9865" transform="scale(-1)"/>
      <rect style="font-variation-settings:'wdth' 70,'wght' 600;display:inline;fill:#48565b;fill-opacity:1;stroke-width:5.43645;stroke-dasharray:none" id="rect659" width="120.17195" height="30.000004" x="-2094.0872" y="-1004.9865" transform="scale(-1)"/>
      <rect style="font-variation-settings:'wdth' 70,'wght' 600;display:inline;fill:#4b595e;fill-opacity:1;stroke-width:5.43645;stroke-dasharray:none" id="rect660" width="120.17195" height="30.000004" x="-2094.0872" y="-974.98645" transform="scale(-1)"/>
      <rect style="font-variation-settings:'wdth' 70,'wght' 600;display:inline;fill:#4c5a5f;fill-opacity:1;stroke-width:5.43645;stroke-dasharray:none" id="rect661" width="120.17195" height="30.000004" x="-2094.0872" y="-944.98645" transform="scale(-1)"/>
      <rect style="font-variation-settings:'wdth' 70,'wght' 600;display:inline;fill:none;fill-opacity:1;stroke:#bec3c6;stroke-width:10;stroke-linecap:butt;stroke-linejoin:miter;stroke-dasharray:none;stroke-opacity:1" id="rect662" width="69.931396" height="298.18414" x="2099.0872" y="911.82001"/>
      <rect style="font-variation-settings:'wdth' 70,'wght' 600;display:inline;fill:#000;fill-opacity:1;stroke-width:.992555;stroke-dasharray:none" id="rect663" width="120.17195" height="1.0000001" x="-2094.0872" y="-974.98645" transform="scale(-1)"/>
      <rect style="font-variation-settings:'wdth' 70,'wght' 600;display:inline;fill:#000;fill-opacity:1;stroke-width:.992555;stroke-dasharray:none" id="rect721" width="120.17195" height="1.0000001" x="-2094.0872" y="-944.98645" transform="scale(-1)"/>
      <rect style="font-variation-settings:'wdth' 70,'wght' 600;display:inline;fill:#000;fill-opacity:1;stroke-width:.992555;stroke-dasharray:none" id="rect722" width="120.17195" height="1.0000001" x="-2094.0872" y="-914.98645" transform="scale(-1)"/>
      <rect style="font-variation-settings:'wdth' 70,'wght' 600;display:inline;fill:#000;fill-opacity:1;stroke-width:.992555;stroke-dasharray:none" id="rect723" width="120.17195" height="1.0000001" x="-2094.0872" y="-1004.9865" transform="scale(-1)"/>
      <rect style="font-variation-settings:'wdth' 70,'wght' 600;display:inline;fill:#000;fill-opacity:1;stroke-width:.992555;stroke-dasharray:none" id="rect724" width="120.17195" height="1.0000001" x="-2094.0872" y="-1034.9865" transform="scale(-1)"/>
      <rect style="font-variation-settings:'wdth' 70,'wght' 600;display:inline;fill:#000;fill-opacity:1;stroke-width:.992555;stroke-dasharray:none" id="rect725" width="120.17195" height="1.0000001" x="-2094.0872" y="-1064.9865" transform="scale(-1)"/>
      <rect style="font-variation-settings:'wdth' 70,'wght' 600;display:inline;fill:#000;fill-opacity:1;stroke-width:.992555;stroke-dasharray:none" id="rect726" width="120.17195" height="1.0000001" x="-2094.0872" y="-1094.9865" transform="scale(-1)"/>
      <rect style="font-variation-settings:'wdth' 70,'wght' 600;display:inline;fill:#000;fill-opacity:1;stroke-width:.992555;stroke-dasharray:none" id="rect727" width="120.17195" height="1.0000001" x="-2094.0872" y="-1124.9865" transform="scale(-1)"/>
      <rect style="font-variation-settings:'wdth' 70,'wght' 600;display:inline;fill:#000;fill-opacity:1;stroke-width:.992555;stroke-dasharray:none" id="rect728" width="120.17195" height="1.0000001" x="-2094.0872" y="-1154.9865" transform="scale(-1)"/>
      <rect style="font-variation-settings:'wdth' 70,'wght' 600;display:inline;fill:#000;fill-opacity:1;stroke-width:.992555;stroke-dasharray:none" id="rect729" width="120.17195" height="1.0000001" x="-2094.0872" y="-1184.9865" transform="scale(-1)"/>
      <rect style="font-variation-settings:'wdth' 70,'wght' 600;display:inline;fill:#000;fill-opacity:1;stroke-width:.992555;stroke-dasharray:none" id="rect730" width="120.17195" height="1.0000001" x="-2094.0872" y="-1214.9865" transform="scale(-1)"/>
      <rect style="font-variation-settings:'wdth' 70,'wght' 600;display:inline;fill:#000;fill-opacity:1;stroke-width:.992555;stroke-dasharray:none" id="rect731" width="120.17195" height="1.0000001" x="-2294.1904" y="-1185.0004" transform="scale(-1)"/>
      <rect style="font-variation-settings:'wdth' 70,'wght' 600;display:inline;fill:#000;fill-opacity:1;stroke-width:.992555;stroke-dasharray:none" id="rect732" width="120.17195" height="1.0000001" x="-2294.1904" y="-1155.0004" transform="scale(-1)"/>
      <rect style="font-variation-settings:'wdth' 70,'wght' 600;display:inline;fill:#000;fill-opacity:1;stroke-width:.992555;stroke-dasharray:none" id="rect733" width="120.17195" height="1.0000001" x="-2294.1904" y="-1125.0004" transform="scale(-1)"/>
      <rect style="font-variation-settings:'wdth' 70,'wght' 600;display:inline;fill:#000;fill-opacity:1;stroke-width:.992555;stroke-dasharray:none" id="rect734" width="120.17195" height="1.0000001" x="-2294.1904" y="-1095.0004" transform="scale(-1)"/>
      <rect style="font-variation-settings:'wdth' 70,'wght' 600;display:inline;fill:#000;fill-opacity:1;stroke-width:.992555;stroke-dasharray:none" id="rect735" width="120.17195" height="1.0000001" x="-2294.1904" y="-1065.0004" transform="scale(-1)"/>
      <rect style="font-variation-settings:'wdth' 70,'wght' 600;display:inline;fill:#000;fill-opacity:1;stroke-width:.992555;stroke-dasharray:none" id="rect736" width="120.17195" height="1.0000001" x="-2294.1904" y="-1035.0004" transform="scale(-1)"/>
      <rect style="font-variation-settings:'wdth' 70,'wght' 600;display:inline;fill:#000;fill-opacity:1;stroke-width:.992555;stroke-dasharray:none" id="rect737" width="120.17195" height="1.0000001" x="-2294.1904" y="-1005.0003" transform="scale(-1)"/>
      <rect style="font-variation-settings:'wdth' 70,'wght' 600;display:inline;fill:#000;fill-opacity:1;stroke-width:.992555;stroke-dasharray:none" id="rect738" width="120.17195" height="1.0000001" x="-2294.1904" y="-975.00031" transform="scale(-1)"/>
      <rect style="font-variation-settings:'wdth' 70,'wght' 600;display:inline;fill:#000;fill-opacity:1;stroke-width:.992555;stroke-dasharray:none" id="rect739" width="120.17195" height="1.0000001" x="-2294.1904" y="-945.00031" transform="scale(-1)"/>
      <rect style="font-variation-settings:'wdth' 70,'wght' 600;display:inline;fill:#000;fill-opacity:1;stroke-width:.992555;stroke-dasharray:none" id="rect740" width="120.17195" height="1.0000001" x="-2294.1904" y="-915.00031" transform="scale(-1)"/>
      <path style="font-variation-settings:'wdth' 70,'wght' 600;display:inline;opacity:1;fill:none;fill-opacity:1;stroke:#bec3c6;stroke-width:5;stroke-dasharray:none;stroke-opacity:1;marker-end:url(#Triangle)" d="m 2232.3714,929.8753 v 255.1251" id="path740"/>
      <path style="font-variation-settings:'wdth' 70,'wght' 600;display:inline;opacity:1;fill:none;fill-opacity:1;stroke:#bec3c6;stroke-width:5;stroke-dasharray:none;stroke-opacity:1;marker-end:url(#Triangle)" d="M 2232.3714,1279.5004 H 2035.7343 V 944.98645" id="path741"/>
    </g>
    <g id="walls_4" transform="matrix(0.02439371,0,0,0.02439371,-0.02443957,244.19953)" style="display:inline">
      <path style="font-variation-settings:'wdth' 70,'wght' 600;display:inline;fill:none;fill-opacity:1;stroke:#bec3c6;stroke-width:.85378;stroke-linecap:butt;stroke-linejoin:miter;stroke-dasharray:none;stroke-opacity:1" d="M 0.84894461,265.6217 H 4.5213299" id="path151" transform="matrix(40.994174,0,0,40.994174,1.00188,-10010.758)"/>
      <path style="font-variation-settings:'wdth' 70,'wght' 600;display:inline;fill:none;fill-opacity:1;stroke:#bec3c6;stroke-width:.85378;stroke-linecap:butt;stroke-linejoin:miter;stroke-dasharray:none;stroke-opacity:1" d="M 0.75098946,272.83773 H 4.5213299" id="path177" transform="matrix(40.994174,0,0,40.994174,1.00188,-10010.758)"/>
      <path style="font-variation-settings:'wdth' 70,'wght' 600;display:inline;fill:none;fill-opacity:1;stroke:#bec3c6;stroke-width:.85378;stroke-linecap:butt;stroke-linejoin:miter;stroke-dasharray:none;stroke-opacity:1" d="M 7.4485779,272.83773 H 13.680528" id="path206" transform="matrix(40.994174,0,0,40.994174,1.00188,-10010.758)"/>
      <path style="font-variation-settings:'wdth' 70,'wght' 600;display:inline;fill:none;fill-opacity:1;stroke:#bec3c6;stroke-width:.85378;stroke-linecap:butt;stroke-linejoin:miter;stroke-dasharray:none;stroke-opacity:1" d="M 16.607776,272.83773 H 21.25566" id="path208" transform="matrix(40.994174,0,0,40.994174,1.00188,-10010.758)"/>
      <path style="font-variation-settings:'wdth' 70,'wght' 600;display:inline;fill:none;fill-opacity:1;stroke:#bec3c6;stroke-width:.85378;stroke-linecap:butt;stroke-linejoin:miter;stroke-dasharray:none;stroke-opacity:1" d="m 42.493674,272.83773 h 4.413317" id="path213" transform="matrix(40.994174,0,0,40.994174,1.00188,-10010.758)"/>
      <path style="font-variation-settings:'wdth' 70,'wght' 600;display:inline;fill:none;fill-opacity:1;stroke:#bec3c6;stroke-width:2.43937;stroke-linecap:butt;stroke-linejoin:miter;stroke-dasharray:none;stroke-opacity:1" d="M 46.906991,263.04501 V 277.6893" id="path214" transform="matrix(40.994174,0,0,40.994174,1.00188,-10010.758)"/>
      <path style="font-variation-settings:'wdth' 70,'wght' 600;display:inline;fill:none;fill-opacity:1;stroke:#bec3c6;stroke-width:100;stroke-linecap:butt;stroke-linejoin:miter;stroke-dasharray:none;stroke-opacity:1" d="M 1923.9007,202.72121 V 597.92186" id="path215"/>
      <path style="font-variation-settings:'wdth' 70,'wght' 600;display:inline;fill:none;fill-opacity:1;stroke:#bec3c6;stroke-width:.85378;stroke-linecap:butt;stroke-linejoin:miter;stroke-dasharray:none;stroke-opacity:1" d="M 7.4485779,265.6217 H 13.680528" id="path216" transform="matrix(40.994174,0,0,40.994174,1.00188,-10010.758)"/>
      <path style="font-variation-settings:'wdth' 70,'wght' 600;display:inline;fill:none;fill-opacity:1;stroke:#bec3c6;stroke-width:.85378;stroke-linecap:butt;stroke-linejoin:miter;stroke-dasharray:none;stroke-opacity:1" d="M 16.607776,265.6217 H 31.636695" id="path217" transform="matrix(40.994174,0,0,40.994174,1.00188,-10010.758)"/>
      <path style="font-variation-settings:'wdth' 70,'wght' 600;display:inline;fill:none;fill-opacity:1;stroke:#bec3c6;stroke-width:.85378;stroke-linecap:butt;stroke-linejoin:miter;stroke-dasharray:none;stroke-opacity:1" d="m 34.563943,265.6217 h 2.516628" id="path218" transform="matrix(40.994174,0,0,40.994174,1.00188,-10010.758)"/>
      <path style="font-variation-settings:'wdth' 70,'wght' 600;display:inline;fill:none;fill-opacity:1;stroke:#bec3c6;stroke-width:.243937;stroke-linecap:butt;stroke-linejoin:miter;stroke-dasharray:none;stroke-opacity:1" d="m 36.958602,249.0457 v 16.60045" id="path219" transform="matrix(40.994174,0,0,40.994174,1.00188,-10010.758)"/>
      <path style="font-variation-settings:'wdth' 70,'wght' 600;display:inline;fill:none;fill-opacity:1;stroke:#bec3c6;stroke-width:.243937;stroke-linecap:butt;stroke-linejoin:miter;stroke-dasharray:none;stroke-opacity:1" d="m 12.282949,272.83773 v 16.6638" id="path220" transform="matrix(40.994174,0,0,40.994174,1.00188,-10010.758)"/>
      <path style="font-variation-settings:'wdth' 70,'wght' 600;display:inline;fill:none;fill-opacity:1;stroke:#bec3c6;stroke-width:10;stroke-linecap:butt;stroke-linejoin:miter;stroke-dasharray:none;stroke-opacity:1" d="M 1166.8825,878.18419 V 979.30282" id="path221"/>
      <path style="font-variation-settings:'wdth' 70,'wght' 600;display:inline;fill:none;fill-opacity:1;stroke:#bec3c6;stroke-width:10;stroke-linecap:butt;stroke-linejoin:miter;stroke-dasharray:none;stroke-opacity:1" d="m 783.41172,1702.4995 v 154.6186" id="path222"/>
      <path style="font-variation-settings:'wdth' 70,'wght' 600;display:inline;fill:none;fill-opacity:1;stroke:#bec3c6;stroke-width:.85378;stroke-linecap:butt;stroke-linejoin:miter;stroke-dasharray:none;stroke-opacity:1" d="M 96.440475,262.80493 H 110.43986" id="path223" transform="matrix(40.994174,0,0,40.994174,1.00188,-10010.758)"/>
      <path style="font-variation-settings:'wdth' 70,'wght' 600;display:inline;fill:none;fill-opacity:1;stroke:#bec3c6;stroke-width:.85378;stroke-linecap:butt;stroke-linejoin:miter;stroke-dasharray:none;stroke-opacity:1" d="m 64.18276,262.07312 -2e-6,15.71745" id="path226" transform="matrix(40.994174,0,0,40.994174,1.00188,-10010.758)"/>
      <path style="font-variation-settings:'wdth' 70,'wght' 600;display:inline;fill:none;fill-opacity:1;stroke:#bec3c6;stroke-width:35;stroke-linecap:butt;stroke-linejoin:miter;stroke-dasharray:none;stroke-opacity:1" d="m 4648.3927,762.71303 h 191.6362" id="path227"/>
      <path style="font-variation-settings:'wdth' 70,'wght' 600;display:inline;fill:none;fill-opacity:1;stroke:#bec3c6;stroke-width:.85378;stroke-linecap:butt;stroke-linejoin:miter;stroke-dasharray:none;stroke-opacity:1" d="M 67.254024,257.01133 H 64.176442 V 244.86628" id="path230" transform="matrix(40.994174,0,0,40.994174,1.00188,-10010.758)"/>
      <path style="font-variation-settings:'wdth' 70,'wght' 600;display:inline;fill:none;fill-opacity:1;stroke:#bec3c6;stroke-width:.85378;stroke-linecap:butt;stroke-linejoin:miter;stroke-dasharray:none;stroke-opacity:1" d="m 96.440475,257.0116 h 5.944745" id="path232" transform="matrix(40.994174,0,0,40.994174,1.00188,-10010.758)"/>
      <path style="font-variation-settings:'wdth' 70,'wght' 600;display:inline;fill:none;fill-opacity:1;stroke:#bec3c6;stroke-width:.85378;stroke-linecap:butt;stroke-linejoin:miter;stroke-dasharray:none;stroke-opacity:1" d="m 105.31246,257.0116 h 5.19777" id="path233" transform="matrix(40.994174,0,0,40.994174,1.00188,-10010.758)"/>
      <path style="font-variation-settings:'wdth' 70,'wght' 600;display:inline;fill:none;fill-opacity:1;stroke:#bec3c6;stroke-width:.85378;stroke-linecap:butt;stroke-linejoin:miter;stroke-dasharray:none;stroke-opacity:1" d="m 113.43748,257.0116 h 2.9109" id="path234" transform="matrix(40.994174,0,0,40.994174,1.00188,-10010.758)"/>
      <path style="font-variation-settings:'wdth' 70,'wght' 600;display:inline;fill:none;fill-opacity:1;stroke:#bec3c6;stroke-width:.85378;stroke-linecap:butt;stroke-linejoin:miter;stroke-dasharray:none;stroke-opacity:1" d="m 119.27563,257.0116 h 4.53968" id="path235" transform="matrix(40.994174,0,0,40.994174,1.00188,-10010.758)"/>
      <path style="font-variation-settings:'wdth' 70,'wght' 600;display:inline;fill:none;fill-opacity:1;stroke:#bec3c6;stroke-width:.243937;stroke-linecap:butt;stroke-linejoin:miter;stroke-dasharray:none;stroke-opacity:1" d="m 72.962768,244.86628 10e-7,7.70566" id="path236" transform="matrix(40.994174,0,0,40.994174,1.00188,-10010.758)"/>
      <path style="font-variation-settings:'wdth' 70,'wght' 600;display:inline;fill:none;fill-opacity:1;stroke:#bec3c6;stroke-width:.243937;stroke-linecap:butt;stroke-linejoin:miter;stroke-dasharray:none;stroke-opacity:1" d="m 81.722802,244.86628 10e-7,12.14532" id="path237" transform="matrix(40.994174,0,0,40.994174,1.00188,-10010.758)"/>
      <path style="font-variation-settings:'wdth' 70,'wght' 600;display:inline;fill:none;fill-opacity:1;stroke:#bec3c6;stroke-width:.243937;stroke-linecap:butt;stroke-linejoin:miter;stroke-dasharray:none;stroke-opacity:1" d="M 90.530316,244.86628 V 257.0116" id="path238" transform="matrix(40.994174,0,0,40.994174,1.00188,-10010.758)"/>
      <path style="font-variation-settings:'wdth' 70,'wght' 600;display:inline;fill:none;fill-opacity:1;stroke:#bec3c6;stroke-width:10;stroke-linecap:butt;stroke-linejoin:miter;stroke-dasharray:none;stroke-opacity:1" d="M 4076.7816,27.350926 V 525.22025" id="path239"/>
      <path style="font-variation-settings:'wdth' 70,'wght' 600;display:inline;fill:none;fill-opacity:1;stroke:#bec3c6;stroke-width:.609843;stroke-linecap:butt;stroke-linejoin:miter;stroke-dasharray:none;stroke-opacity:1" d="m 56.159747,277.70282 v -1.35087" id="path240" transform="matrix(40.994174,0,0,40.994174,1.00188,-10010.758)"/>
      <path style="font-variation-settings:'wdth' 70,'wght' 600;display:inline;fill:none;fill-opacity:1;stroke:#bec3c6;stroke-width:.243937;stroke-linecap:butt;stroke-linejoin:miter;stroke-dasharray:none;stroke-opacity:1" d="M 108.27429,244.86628 V 257.0116" id="path241" transform="matrix(40.994174,0,0,40.994174,1.00188,-10010.758)"/>
      <path style="font-variation-settings:'wdth' 70,'wght' 600;display:inline;fill:none;fill-opacity:1;stroke:#bec3c6;stroke-width:.243937;stroke-linecap:butt;stroke-linejoin:miter;stroke-dasharray:none;stroke-opacity:1" d="M 115.67342,244.86672 V 257.0116" id="path242" transform="matrix(40.994174,0,0,40.994174,1.00188,-10010.758)"/>
      <path style="font-variation-settings:'wdth' 70,'wght' 600;display:inline;fill:none;fill-opacity:1;stroke:#bec3c6;stroke-width:.243937;stroke-linecap:butt;stroke-linejoin:miter;stroke-dasharray:none;stroke-opacity:1" d="m 72.947613,262.85248 v 14.85034" id="path243" transform="matrix(40.994174,0,0,40.994174,1.00188,-10010.758)"/>
      <path style="font-variation-settings:'wdth' 70,'wght' 600;display:inline;fill:none;fill-opacity:1;stroke:#bec3c6;stroke-width:.243937;stroke-linecap:butt;stroke-linejoin:miter;stroke-dasharray:none;stroke-opacity:1" d="m 81.803007,267.28014 v 10.42268" id="path244" transform="matrix(40.994174,0,0,40.994174,1.00188,-10010.758)"/>
      <path style="font-variation-settings:'wdth' 70,'wght' 600;display:inline;fill:none;fill-opacity:1;stroke:#bec3c6;stroke-width:10;stroke-linecap:butt;stroke-linejoin:miter;stroke-dasharray:none;stroke-opacity:1" d="M 3709.9608,946.17065 V 1373.4397" id="path245"/>
      <path style="font-variation-settings:'wdth' 70,'wght' 600;display:inline;fill:none;fill-opacity:1;stroke:#bec3c6;stroke-width:.243937;stroke-linecap:butt;stroke-linejoin:miter;stroke-dasharray:none;stroke-opacity:1" d="m 108.17906,262.80493 v 14.89702" id="path246" transform="matrix(40.994174,0,0,40.994174,1.00188,-10010.758)"/>
      <path style="font-variation-settings:'wdth' 70,'wght' 600;display:inline;fill:none;fill-opacity:1;stroke:#bec3c6;stroke-width:.243937;stroke-linecap:butt;stroke-linejoin:miter;stroke-dasharray:none;stroke-opacity:1" d="m 36.958602,257.59361 h 3.065206" id="path250" transform="matrix(40.994174,0,0,40.994174,1.00188,-10010.758)"/>
      <path style="font-variation-settings:'wdth' 70,'wght' 600;display:inline;fill:none;fill-opacity:1;stroke:#bec3c6;stroke-width:.243937;stroke-linecap:butt;stroke-linejoin:miter;stroke-dasharray:none;stroke-opacity:1" d="m 42.951056,257.59361 h 3.95558" id="path251" transform="matrix(40.994174,0,0,40.994174,1.00188,-10010.758)"/>
      <path style="font-variation-settings:'wdth' 70,'wght' 600;display:inline;fill:none;fill-opacity:1;stroke:#bec3c6;stroke-width:.243937;stroke-linecap:butt;stroke-linejoin:miter;stroke-dasharray:none;stroke-opacity:1" d="m 47.52578,257.31608 h 4.944401" id="path252" transform="matrix(40.994174,0,0,40.994174,1.00188,-10010.758)"/>
      <path style="font-variation-settings:'wdth' 70,'wght' 600;display:inline;fill:none;fill-opacity:1;stroke:#bec3c6;stroke-width:.243937;stroke-linecap:butt;stroke-linejoin:miter;stroke-dasharray:none;stroke-opacity:1" d="m 47.112369,253.20243 h 6.184635" id="path253" transform="matrix(40.994174,0,0,40.994174,1.00188,-10010.758)"/>
      <path style="font-variation-settings:'wdth' 70,'wght' 600;display:inline;fill:none;fill-opacity:1;stroke:#bec3c6;stroke-width:.243937;stroke-linecap:butt;stroke-linejoin:miter;stroke-dasharray:none;stroke-opacity:1" d="m 59.69372,253.20243 h 4.572331" id="path254" transform="matrix(40.994174,0,0,40.994174,1.00188,-10010.758)"/>
      <path style="font-variation-settings:'wdth' 70,'wght' 600;display:inline;fill:none;fill-opacity:1;stroke:#bec3c6;stroke-width:.243937;stroke-linecap:butt;stroke-linejoin:miter;stroke-dasharray:none;stroke-opacity:1" d="m 55.11009,253.20243 h 2.819466" id="path255" transform="matrix(40.994174,0,0,40.994174,1.00188,-10010.758)"/>
      <path style="font-variation-settings:'wdth' 70,'wght' 600;display:inline;fill:none;fill-opacity:1;stroke:#bec3c6;stroke-width:.243937;stroke-linecap:butt;stroke-linejoin:miter;stroke-dasharray:none;stroke-opacity:1" d="m 54.833183,257.31608 h 3.100586" id="path256" transform="matrix(40.994174,0,0,40.994174,1.00188,-10010.758)"/>
      <path style="font-variation-settings:'wdth' 70,'wght' 600;display:inline;fill:none;fill-opacity:1;stroke:#bec3c6;stroke-width:.243937;stroke-linecap:butt;stroke-linejoin:miter;stroke-dasharray:none;stroke-opacity:1" d="m 60.285423,257.31608 h 4.282942" id="path257" transform="matrix(40.994174,0,0,40.994174,1.00188,-10010.758)"/>
      <path style="font-variation-settings:'wdth' 70,'wght' 600;display:inline;fill:none;fill-opacity:1;stroke:#bec3c6;stroke-width:.243937;stroke-linecap:butt;stroke-linejoin:miter;stroke-dasharray:none;stroke-opacity:1" d="m 55.561665,244.86672 v 12.40933" id="path258" transform="matrix(40.994174,0,0,40.994174,1.00188,-10010.758)"/>
      <path style="font-variation-settings:'wdth' 70,'wght' 600;display:inline;fill:none;fill-opacity:1;stroke:#bec3c6;stroke-width:.609843;stroke-linecap:butt;stroke-linejoin:miter;stroke-dasharray:none;stroke-opacity:1" d="m 61.445598,266.52161 h 2.005677 v 5.48057 h -7.291502 v -5.48057 h 1.931258" id="path259" transform="matrix(40.994174,0,0,40.994174,1.00188,-10010.758)"/>
      <path style="font-variation-settings:'wdth' 70,'wght' 600;display:inline;fill:none;fill-opacity:1;stroke:#bec3c6;stroke-width:25;stroke-linecap:butt;stroke-linejoin:miter;stroke-dasharray:none;stroke-opacity:1" d="m 2303.2243,1139.7504 v 106.2941" id="path260"/>
      <path style="font-variation-settings:'wdth' 70,'wght' 600;display:inline;fill:none;fill-opacity:1;stroke:#bec3c6;stroke-width:1.09448;stroke-linecap:butt;stroke-linejoin:miter;stroke-dasharray:none;stroke-opacity:1" d="M 123.65149,15.693265 V 2.1554125 H 47.744436 v 4.143616 H 1.1806577 v 16.5115605 2.176619" id="path261" transform="matrix(41.115504,0,0,41.115504,-11.575065,-61.269892)"/>
      <path style="font-variation-settings:'wdth' 70,'wght' 600;display:inline;fill:none;fill-opacity:1;stroke:#bec3c6;stroke-width:1.09448;stroke-linecap:butt;stroke-linejoin:miter;stroke-dasharray:none;stroke-opacity:1" d="M 1.1806577,27.905817 V 46.658502 H 46.404282 V 34.894613 H 123.65149 V 18.611874" id="path262" transform="matrix(41.115504,0,0,41.115504,-11.575065,-61.269892)"/>
      <path style="font-variation-settings:'wdth' 70,'wght' 600;display:inline;fill:none;fill-opacity:1;stroke:#bec3c6;stroke-width:10;stroke-linecap:butt;stroke-linejoin:miter;stroke-dasharray:none;stroke-opacity:1" d="m 1166.8825,1075.3807 v 98.6187" id="path264"/>
      <path style="font-variation-settings:'wdth' 70,'wght' 600;display:inline;fill:none;fill-opacity:1;stroke:#bec3c6;stroke-width:10;stroke-linecap:butt;stroke-linejoin:miter;stroke-dasharray:none;stroke-opacity:1" d="m 730.80543,1173.9994 v 211.7162" id="path265"/>
      <path style="font-variation-settings:'wdth' 70,'wght' 600;opacity:1;fill:#bec3c6;fill-opacity:1;stroke-width:0" d="m 504.53116,1599.8333 h 227.89889 v 14.0131 h 55.98054 V 1377.7367 H 551.89685 v -203.7375 h -47.36569 z" id="path266"/>
      <path style="font-variation-settings:'wdth' 70,'wght' 600;display:inline;fill:none;fill-opacity:1;stroke:#bec3c6;stroke-width:10;stroke-linecap:butt;stroke-linejoin:miter;stroke-dasharray:none;stroke-opacity:1" d="m 783.41172,1612.1192 v 16.7489" id="path267"/>
      <path style="font-variation-settings:'wdth' 70,'wght' 600;display:inline;fill:none;fill-opacity:1;stroke:#bec3c6;stroke-width:35;stroke-linecap:butt;stroke-linejoin:miter;stroke-dasharray:none;stroke-opacity:1" d="m 4960.0289,762.71303 h 112.3893" id="path271"/>
      <path style="font-variation-settings:'wdth' 70,'wght' 600;display:inline;fill:none;fill-opacity:1;stroke:#bec3c6;stroke-width:10;stroke-linecap:butt;stroke-linejoin:miter;stroke-dasharray:none;stroke-opacity:1" d="M 419.26067,198.66476 V 879.1865" id="path279"/>
      <path style="font-variation-settings:'wdth' 70,'wght' 600;display:inline;fill:none;fill-opacity:1;stroke:#bec3c6;stroke-width:35;stroke-linecap:butt;stroke-linejoin:miter;stroke-dasharray:none;stroke-opacity:1" d="M 992.36022,1173.9994 H 1622.9948" id="path280"/>
      <path style="font-variation-settings:'wdth' 70,'wght' 600;display:inline;fill:none;fill-opacity:1;stroke:#bec3c6;stroke-width:10;stroke-linecap:butt;stroke-linejoin:miter;stroke-dasharray:none;stroke-opacity:1" d="m 2992.0503,432.81502 v 92.40523" id="path281"/>
      <path style="font-variation-settings:'wdth' 70,'wght' 600;display:inline;fill:none;fill-opacity:1;stroke:#bec3c6;stroke-width:10;stroke-linecap:butt;stroke-linejoin:miter;stroke-dasharray:none;stroke-opacity:1" d="m 3709.9608,762.71303 v 91.22665" id="path282"/>
      <path style="font-variation-settings:'wdth' 70,'wght' 600;display:inline;fill:none;fill-opacity:1;stroke:#bec3c6;stroke-width:10;stroke-linecap:butt;stroke-linejoin:miter;stroke-dasharray:none;stroke-opacity:1" d="M 4741.0724,762.71303 V 1373.4041" id="path283"/>
      <path style="font-variation-settings:'wdth' 70,'wght' 600;display:inline;fill:none;fill-opacity:1;stroke:#bec3c6;stroke-width:10;stroke-linecap:butt;stroke-linejoin:miter;stroke-dasharray:none;stroke-opacity:1" d="m 3354.4486,762.71303 v 91.22665" id="path284"/>
      <path style="font-variation-settings:'wdth' 70,'wght' 600;display:inline;fill:none;fill-opacity:1;stroke:#bec3c6;stroke-width:.85378;stroke-linecap:butt;stroke-linejoin:miter;stroke-dasharray:none;stroke-opacity:1" d="m 70.18127,262.80493 h 5.697893" id="path370" transform="matrix(40.994174,0,0,40.994174,1.00188,-10010.758)"/>
      <path style="font-variation-settings:'wdth' 70,'wght' 600;display:inline;fill:none;fill-opacity:1;stroke:#bec3c6;stroke-width:.85378;stroke-linecap:butt;stroke-linejoin:miter;stroke-dasharray:none;stroke-opacity:1" d="m 78.806409,257.0116 h 5.856528" id="path371" transform="matrix(40.994174,0,0,40.994174,1.00188,-10010.758)"/>
      <path style="font-variation-settings:'wdth' 70,'wght' 600;display:inline;fill:none;fill-opacity:1;stroke:#bec3c6;stroke-width:.85378;stroke-linecap:butt;stroke-linejoin:miter;stroke-dasharray:none;stroke-opacity:1" d="m 70.18127,257.0116 h 5.697893" id="path372" transform="matrix(40.994174,0,0,40.994174,1.00188,-10010.758)"/>
      <path style="font-variation-settings:'wdth' 70,'wght' 600;display:inline;fill:none;fill-opacity:1;stroke:#bec3c6;stroke-width:.85378;stroke-linecap:butt;stroke-linejoin:miter;stroke-dasharray:none;stroke-opacity:1" d="M 87.590183,257.0116 H 93.51323" id="path373" transform="matrix(40.994174,0,0,40.994174,1.00188,-10010.758)"/>
      <path style="font-variation-settings:'wdth' 70,'wght' 600;display:inline;fill:none;fill-opacity:1;stroke:#bec3c6;stroke-width:35;stroke-linecap:butt;stroke-linejoin:miter;stroke-dasharray:none;stroke-opacity:1" d="m 2632.1211,762.71303 h 125.904" id="path374"/>
      <path style="font-variation-settings:'wdth' 70,'wght' 600;display:inline;fill:none;fill-opacity:1;stroke:#bec3c6;stroke-width:35;stroke-linecap:butt;stroke-linejoin:miter;stroke-dasharray:none;stroke-opacity:1" d="m 3231.6055,762.71303 h 240.0836" id="path375"/>
      <path style="font-variation-settings:'wdth' 70,'wght' 600;display:inline;fill:none;fill-opacity:1;stroke:#bec3c6;stroke-width:35;stroke-linecap:butt;stroke-linejoin:miter;stroke-dasharray:none;stroke-opacity:1" d="m 3591.6891,762.71303 h 242.8104" id="path376"/>
    </g>
    <g id="icons_4" transform="matrix(0.02439371,0,0,0.02439371,-0.02443957,244.19953)" style="display:inline">
      <path d="m 2437.9844,259.45822 v -31.86527 h -10.1036 v -32.25391 q 0,-3.56217 2.5583,-6.12046 2.5583,-2.55829 6.1205,-2.55829 h 19.9482 q 3.5621,0 6.1204,2.55829 2.5583,2.55829 2.5583,6.12046 v 32.25391 h -10.1036 v 31.86527 z m 8.5596,-82.6425 q -3.6891,0 -6.1891,-2.5544 -2.5,-2.55454 -2.5,-6.11399 0,-3.68912 2.4896,-6.18912 2.4899,-2.5 6.1788,-2.5 3.6891,0 6.1891,2.48964 2.5,2.48976 2.5,6.17875 0,3.55959 -2.4896,6.12436 -2.4897,2.56476 -6.1788,2.56476 z" id="path273" style="fill:#fff;fill-opacity:.798742;stroke-width:.129534;filter:url(#filter17)"/>
      <path d="M 2117.2666,259.45822 V 229.4064 h -14.7668 l 14.2098,-39.44586 q 1.121,-2.89831 3.8366,-4.58886 2.7155,-1.69067 5.7878,-1.69067 3.0723,0 5.7878,1.69067 2.7156,1.69055 3.8542,4.57785 l 14.1922,39.45687 h -14.7668 v 30.05182 z m 9.0778,-82.6425 q -3.6892,0 -6.1892,-2.55039 -2.5,-2.55039 -2.5,-6.118 0,-3.68912 2.4897,-6.18912 2.4899,-2.5 6.1787,-2.5 3.6892,0 6.1892,2.48963 2.5,2.48977 2.5,6.114 0,3.62435 -2.4897,6.18912 -2.4896,2.56476 -6.1787,2.56476 z" id="path274" style="fill:#fff;fill-opacity:.803459;stroke-width:.129534;filter:url(#filter15)"/>
      <g id="g277" style="filter:url(#filter65)">
        <rect style="font-variation-settings:'wdth' 70,'wght' 600;fill:none;fill-opacity:1;stroke:#d5d6dd;stroke-width:4.78791;stroke-linejoin:miter;stroke-dasharray:none;stroke-opacity:1" id="rect276" width="95.212135" height="95.212151" x="2405.0667" y="979.80487" ry="9.1410179"/>
        <path d="m 2427.7505,1062.6135 h 12.6169 v -23.8318 h 6.2306 v -17.757 c 0,-2.6337 -0.8992,-4.8497 -2.6976,-6.6481 -1.7985,-1.7985 -4.0665,-2.6977 -6.804,-2.6977 h -6.2306 c -2.7375,0 -4.9794,0.8992 -6.7258,2.6977 -1.7466,1.7984 -2.6199,4.0144 -2.6199,6.6481 v 17.757 h 6.2304 z m 6.1958,-54.9845 c 2.1478,0 3.9626,-0.7033 5.4445,-2.1098 1.4819,-1.4064 2.2228,-3.2356 2.2228,-5.4875 0,-2.148 -0.7292,-3.93697 -2.1877,-5.3669 -1.4583,-1.42987 -3.2615,-2.1448 -5.4096,-2.1448 -2.1481,0 -3.937,0.70327 -5.3669,2.1098 -1.4299,1.4064 -2.1449,3.18367 -2.1449,5.3318 0,2.2518 0.7033,4.0926 2.11,5.5225 1.4064,1.4299 3.1837,2.1449 5.3318,2.1449 z m 28.3838,9.9689 h 20.0934 l -9.9688,-16.1994 z m 10.1246,35.6697 9.9688,-16.1993 h -20.0934 z" id="path277" style="fill:#d5d6dd;fill-opacity:1;stroke-width:0;stroke-dasharray:none"/>
      </g>
    </g>
    <path id="roomNames_4" d="m 377.7887,154.10988 v -35.232 q 0,-2.88 0.192,-6.816 0.288,-3.936 0.384,-6.816 h -0.384 q -1.152,2.496 -2.4,5.088 -1.248,2.496 -2.592,5.184 l -8.064,13.248 h 33.024 v 10.752 h -46.56 v -9.696 l 22.272,-36.672 h 17.28 v 60.96 z m 26.01599,0 v -8.736 q 7.68,-6.816 13.632,-12.768 6.048,-5.952 9.408,-11.04 3.456,-5.088 3.456,-9.312 0,-4.512 -2.304,-6.816 -2.304,-2.4 -6.336,-2.4 -3.264,0 -5.952,1.92 -2.592,1.824 -4.896,4.32 l -7.392,-7.296 q 4.416,-4.992 9.024,-7.488 4.704,-2.496 11.136,-2.496 5.952,0 10.464,2.4 4.608,2.4 7.104,6.72 2.592,4.32 2.592,10.176 0,5.472 -2.976,10.752 -2.88,5.184 -7.68,10.368 -4.8,5.184 -10.176,10.56 2.304,-0.288 5.184,-0.48 2.88,-0.288 4.992,-0.288 h 13.632 v 11.904 z m 69.11998,1.152 q -6.048,0 -10.464,-2.208 -4.416,-2.208 -7.392,-5.088 l 7.488,-8.448 q 1.536,1.728 4.128,3.072 2.688,1.248 5.28,1.248 3.648,0 6.432,-2.016 2.88,-2.016 4.512,-6.72 1.728,-4.8 1.728,-12.864 0,-7.584 -1.44,-11.808 -1.344,-4.32 -3.648,-6.048 -2.208,-1.824 -4.8,-1.824 -2.016,0 -3.84,1.056 -1.728,1.056 -2.784,3.168 -1.056,2.112 -1.056,5.664 0,3.168 1.056,5.184 1.056,1.92 2.88,2.784 1.824,0.864 4.128,0.864 2.4,0 4.896,-1.44 2.496,-1.536 4.512,-5.088 l 0.672,9.216 q -2.304,3.36 -6.048,5.376 -3.744,1.92 -6.816,1.92 -5.184,0 -9.312,-2.016 -4.128,-2.016 -6.528,-6.144 -2.304,-4.224 -2.304,-10.656 0,-6.336 2.784,-10.944 2.784,-4.608 7.392,-7.008 4.608,-2.496 10.08,-2.496 4.512,0 8.64,1.728 4.128,1.728 7.296,5.376 3.264,3.648 5.184,9.408 2.016,5.664 2.016,13.728 0,8.544 -2.112,14.784 -2.016,6.24 -5.472,10.272 -3.456,4.032 -7.872,6.048 -4.416,1.92 -9.216,1.92 z M 371.64463,34.10988 v -8.544 l 27.648,-42.144 h -25.056 v -11.904 h 42.432 v 8.544 l -27.648,42.144 h 27.936 v 11.904 z m 79.58401,1.152 q -6.144,0 -10.848,-1.632 -4.608,-1.728 -7.776,-5.28 -3.168,-3.648 -4.8,-9.216 -1.632,-5.568 -1.632,-13.2480003 V -28.48212 h 14.208 V 7.3258797 q 0,5.8560003 1.248,9.3120003 1.248,3.36 3.648,4.896 2.4,1.536 5.952,1.536 3.456,0 5.952,-1.536 2.496,-1.536 3.744,-4.896 1.344,-3.456 1.344,-9.3120003 V -28.48212 h 13.632 V 5.8858797 q 0,7.6800003 -1.632,13.2480003 -1.536,5.568 -4.704,9.216 -3.072,3.552 -7.68,5.28 -4.608,1.632 -10.656,1.632 z m 3219.30316,647.9782 v -35.232 q 0,-2.88 0.192,-6.816 0.288,-3.936 0.384,-6.816 h -0.384 q -1.152,2.496 -2.4,5.088 -1.248,2.496 -2.592,5.184 l -8.064,13.248 h 33.024 v 10.752 h -46.56 v -9.696 l 22.272,-36.672 h 17.28 v 60.96 z m 29.1839,0 v -11.424 h 13.248 v -35.232 h -11.4239 v -8.736 q 4.9919,-0.96 8.4479,-2.304 3.5521,-1.344 6.72,-3.264 h 10.3681 v 49.536 h 11.424 v 11.424 z m 69.216,1.152 q -6.048,0 -10.944,-2.112 -4.8,-2.112 -7.584,-5.856 -2.688,-3.84 -2.688,-8.736 0,-3.744 1.344,-6.432 1.44,-2.784 3.744,-4.896 2.4,-2.112 5.28,-3.648 v -0.384 q -3.456,-2.688 -5.856,-6.144 -2.304,-3.456 -2.304,-8.256 0,-5.184 2.496,-8.928 2.496,-3.84 6.912,-5.856 4.416,-2.016 10.08,-2.016 8.448,0 13.44,4.608 5.088,4.512 5.088,12.096 0,2.88 -1.152,5.472 -1.056,2.496 -2.88,4.512 -1.824,1.92 -3.936,3.36 v 0.384 q 2.88,1.536 5.28,3.744 2.4,2.112 3.84,5.184 1.44,2.976 1.44,7.008 0,4.8 -2.688,8.64 -2.688,3.744 -7.584,6.048 -4.8,2.208 -11.328,2.208 z m 3.84,-36.672 q 1.824,-2.112 2.784,-4.32 0.96,-2.208 0.96,-4.608 0,-2.4 -0.864,-4.128 -0.864,-1.728 -2.592,-2.688 -1.632,-1.056 -3.936,-1.056 -2.784,0 -4.8,1.824 -2.016,1.728 -2.016,5.184 0,2.496 1.344,4.224 1.344,1.728 3.648,3.072 2.4,1.344 5.472,2.496 z m -3.552,26.88 q 2.304,0 4.128,-0.768 1.92,-0.864 2.976,-2.496 1.056,-1.728 1.056,-4.32 0,-2.688 -1.632,-4.416 -1.536,-1.824 -4.512,-3.168 -2.88,-1.44 -6.72,-3.072 -2.016,1.824 -3.36,4.416 -1.344,2.496 -1.344,5.28 0,2.688 1.248,4.608 1.344,1.92 3.456,2.976 2.208,0.96 4.704,0.96 z m -104.832,-111.36 v -8.544 l 27.648,-42.144 h -25.056 v -11.904 h 42.432 v 8.544 l -27.648,42.144 h 27.936 v 11.904 z m 79.584,1.152 q -6.144,0 -10.848,-1.632 -4.608,-1.728 -7.776,-5.28 -3.168,-3.648 -4.8,-9.216 -1.632,-5.568 -1.632,-13.248 v -34.368 h 14.208 v 35.808 q 0,5.856 1.248,9.312 1.248,3.36 3.648,4.896 2.4,1.536 5.952,1.536 3.456,0 5.952,-1.536 2.496,-1.536 3.744,-4.896 1.344,-3.456 1.344,-9.312 v -35.808 h 13.632 v 34.368 q 0,7.68 -1.632,13.248 -1.536,5.568 -4.704,9.216 -3.072,3.552 -7.68,5.28 -4.608,1.632 -10.656,1.632 z m 983.1322,119.7013 v -35.232 q 0,-2.88 0.192,-6.816 0.288,-3.936 0.384,-6.816 h -0.384 q -1.152,2.496 -2.4,5.088 -1.248,2.496 -2.592,5.184 l -8.064,13.248 h 33.024 v 10.752 h -46.56 v -9.696 l 22.272,-36.672 h 17.28 v 60.96 z m 29.1839,0 v -11.424 h 13.248 v -35.232 h -11.424 v -8.736 q 4.9921,-0.96 8.448,-2.304 3.552,-1.344 6.72,-3.264 h 10.368 v 49.536 h 11.424 v 11.424 z m 67.68,1.152 q -4.992,0 -9.024,-1.152 -3.936,-1.152 -7.008,-3.072 -3.072,-1.92 -5.472,-4.32 l 6.336,-8.928 q 2.784,2.496 6.048,4.32 3.264,1.728 7.104,1.728 3.072,0 5.376,-1.056 2.304,-1.152 3.552,-3.264 1.344,-2.112 1.344,-5.184 0,-4.608 -2.688,-7.008 -2.688,-2.4 -6.912,-2.4 -2.592,0 -4.416,0.672 -1.824,0.672 -4.608,2.4 l -6.336,-4.032 1.728,-30.816 h 34.56 v 11.904 h -22.368 l -1.056,11.424 q 1.824,-0.768 3.36,-1.056 1.536,-0.384 3.456,-0.384 5.28,0 9.696,2.016 4.416,2.016 7.008,6.24 2.688,4.224 2.688,10.656 0,6.816 -3.168,11.616 -3.072,4.704 -8.16,7.2 -5.088,2.496 -11.04,2.496 z m -103.008,-121.152 v -8.544 l 27.648,-42.144 h -25.056 v -11.904 h 42.432 v 8.544 l -27.648,42.144 h 27.936 v 11.904 z m 79.584,1.152 q -6.144,0 -10.848,-1.632 -4.608,-1.728 -7.776,-5.28 -3.168,-3.648 -4.8,-9.216 -1.632,-5.568 -1.632,-13.248 v -34.368 h 14.208 v 35.808 q 0,5.856 1.248,9.312 1.248,3.36 3.648,4.896 2.4,1.536 5.952,1.536 3.456,0 5.952,-1.536 2.496,-1.536 3.744,-4.896 1.344,-3.456 1.344,-9.312 v -35.808 h 13.632 v 34.368 q 0,7.68 -1.632,13.248 -1.536,5.568 -4.704,9.216 -3.072,3.552 -7.68,5.28 -4.608,1.632 -10.656,1.632 z m 232.5126,119.424 v -35.232 q 0,-2.88 0.192,-6.816 0.288,-3.936 0.384,-6.816 h -0.384 q -1.152,2.496 -2.4,5.088 -1.248,2.496 -2.592,5.184 l -8.064,13.248 h 33.024 v 10.752 h -46.56 v -9.696 l 22.272,-36.672 h 17.28 v 60.96 z m 29.1839,0 v -11.424 h 13.248 v -35.232 h -11.424 v -8.736 q 4.992,-0.96 8.448,-2.304 3.552,-1.344 6.72,-3.264 h 10.368 v 49.536 h 11.424 v 11.424 z m 72.192,0 v -35.232 q 0,-2.88 0.192,-6.816 0.288,-3.936 0.384,-6.816 h -0.384 q -1.152,2.496 -2.4,5.088 -1.248,2.496 -2.592,5.184 l -8.064,13.248 h 33.024 v 10.752 h -46.56 v -9.696 l 22.272,-36.672 h 17.28 v 60.96 z m -107.52,-120 v -8.544 l 27.648,-42.144 h -25.056 v -11.904 h 42.432 v 8.544 l -27.648,42.144 h 27.936 v 11.904 z m 79.584,1.152 q -6.144,0 -10.848,-1.632 -4.608,-1.728 -7.776,-5.28 -3.168,-3.648 -4.8,-9.216 -1.632,-5.568 -1.632,-13.248 v -34.368 h 14.208 v 35.808 q 0,5.856 1.248,9.312 1.248,3.36 3.648,4.896 2.4,1.536 5.952,1.536 3.456,0 5.952,-1.536 2.496,-1.536 3.744,-4.896 1.344,-3.456 1.344,-9.312 v -35.808 h 13.632 v 34.368 q 0,7.68 -1.632,13.248 -1.536,5.568 -4.704,9.216 -3.072,3.552 -7.68,5.28 -4.608,1.632 -10.656,1.632 z M 1833.7541,0.8076 v -35.232 q 0,-2.88 0.192,-6.816 0.288,-3.936 0.384,-6.816 h -0.384 q -1.152,2.496 -2.4,5.088 -1.248,2.496 -2.592,5.184 l -8.064,13.248 h 33.024 v 10.752 h -46.56 v -9.696 l 22.272,-36.672 h 17.28 v 60.96 z m 45.792,1.152 q -4.896,0 -8.928,-1.152 -3.936,-1.056 -7.008,-2.976 -3.072,-1.92 -5.28,-4.512 l 6.528,-8.928 q 2.784,2.688 6.144,4.416 3.36,1.728 7.2,1.728 4.416,0 7.104,-1.824 2.784,-1.92 2.784,-5.376 0,-2.688 -1.344,-4.608 -1.344,-2.016 -4.896,-3.072 -3.456,-1.056 -10.176,-1.056 v -9.984 q 5.472,0 8.64,-1.056 3.168,-1.056 4.416,-2.88 1.344,-1.824 1.344,-4.224 0,-3.264 -2.016,-4.992 -1.92,-1.728 -5.472,-1.728 -3.264,0 -5.952,1.44 -2.592,1.344 -5.472,3.936 l -7.104,-8.64 q 4.224,-3.648 8.928,-5.664 4.704,-2.112 10.272,-2.112 6.24,0 10.944,2.016 4.8,1.92 7.392,5.664 2.688,3.648 2.688,9.024 0,4.704 -2.688,8.064 -2.592,3.36 -7.488,5.472 v 0.384 q 3.456,1.056 6.24,3.072 2.784,1.92 4.32,4.896 1.536,2.976 1.536,6.912 0,5.664 -3.168,9.696 -3.072,3.936 -8.256,6.048 -5.088,2.016 -11.232,2.016 z m 50.688,0 q -4.896,0 -8.928,-1.152 -3.936,-1.056 -7.008,-2.976 -3.072,-1.92 -5.28,-4.512 l 6.528,-8.928 q 2.784,2.688 6.144,4.416 3.36,1.728 7.2,1.728 4.416,0 7.104,-1.824 2.784,-1.92 2.784,-5.376 0,-2.688 -1.344,-4.608 -1.344,-2.016 -4.896,-3.072 -3.456,-1.056 -10.176,-1.056 v -9.984 q 5.472,0 8.64,-1.056 3.168,-1.056 4.416,-2.88 1.344,-1.824 1.344,-4.224 0,-3.264 -2.016,-4.992 -1.92,-1.728 -5.472,-1.728 -3.264,0 -5.952,1.44 -2.592,1.344 -5.472,3.936 l -7.104,-8.64 q 4.224,-3.648 8.928,-5.664 4.704,-2.112 10.272,-2.112 6.24,0 10.944,2.016 4.8,1.92 7.392,5.664 2.688,3.648 2.688,9.024 0,4.704 -2.688,8.064 -2.592,3.36 -7.488,5.472 v 0.384 q 3.456,1.056 6.24,3.072 2.784,1.92 4.32,4.896 1.536,2.976 1.536,6.912 0,5.664 -3.168,9.696 -3.072,3.936 -8.256,6.048 -5.088,2.016 -11.232,2.016 z M 1827.61,-119.1924 v -8.544 l 27.648,-42.144 h -25.056 v -11.904 h 42.432 v 8.544 l -27.648,42.144 h 27.936 v 11.904 z m 79.5841,1.152 q -6.144,0 -10.848,-1.632 -4.608,-1.728 -7.776,-5.28 -3.168,-3.648 -4.8,-9.216 -1.632,-5.568 -1.632,-13.248 v -34.368 h 14.208 v 35.808 q 0,5.856 1.248,9.312 1.248,3.36 3.648,4.896 2.4,1.536 5.952,1.536 3.456,0 5.952,-1.536 2.496,-1.536 3.744,-4.896 1.344,-3.456 1.344,-9.312 v -35.808 h 13.632 v 34.368 q 0,7.68 -1.632,13.248 -1.536,5.568 -4.704,9.216 -3.072,3.552 -7.68,5.28 -4.608,1.632 -10.656,1.632 z M 795.05427,865.77624 v -23.488 q 0,-1.92 0.128,-4.544 0.192,-2.624 0.256,-4.544 h -0.256 q -0.768,1.664 -1.6,3.392 -0.832,1.664 -1.728,3.456 l -5.376,8.832 h 22.016 v 7.168 h -31.04 v -6.464 l 14.848,-24.448 h 11.52 v 40.64 z m 17.34399,0 v -5.824 q 5.12,-4.544 9.088,-8.512 4.032,-3.968 6.272,-7.36 2.304,-3.392 2.304,-6.208 0,-3.008 -1.536,-4.544 -1.536,-1.6 -4.224,-1.6 -2.176,0 -3.968,1.28 -1.728,1.216 -3.264,2.88 l -4.928,-4.864 q 2.944,-3.328 6.016,-4.992 3.136,-1.664 7.424,-1.664 3.968,0 6.976,1.6 3.072,1.6 4.736,4.48 1.728,2.88 1.728,6.784 0,3.648 -1.984,7.168 -1.92,3.456 -5.12,6.912 -3.2,3.456 -6.784,7.04 1.536,-0.192 3.456,-0.32 1.92,-0.192 3.328,-0.192 h 9.088 v 7.936 z m 49.408,0.768 q -2.944,0 -5.696,-1.152 -2.752,-1.152 -4.928,-3.584 -2.176,-2.432 -3.456,-6.208 -1.28,-3.84 -1.28,-9.216 0,-5.696 1.344,-9.856 1.344,-4.16 3.648,-6.848 2.304,-2.688 5.248,-3.968 2.944,-1.344 6.208,-1.344 4.032,0 6.976,1.472 2.944,1.408 4.864,3.392 l -4.928,5.632 q -1.088,-1.152 -2.816,-1.984 -1.728,-0.896 -3.52,-0.896 -2.304,0 -4.288,1.344 -1.92,1.344 -3.072,4.544 -1.088,3.136 -1.088,8.512 0,5.056 0.896,7.936 0.96,2.816 2.496,4.032 1.536,1.152 3.2,1.152 1.408,0 2.56,-0.704 1.152,-0.704 1.856,-2.112 0.704,-1.472 0.704,-3.776 0,-2.176 -0.704,-3.456 -0.704,-1.28 -1.92,-1.856 -1.152,-0.576 -2.688,-0.576 -1.6,0 -3.328,0.96 -1.664,0.96 -3.008,3.392 l -0.448,-6.144 q 1.6,-2.368 4.096,-3.584 2.496,-1.28 4.48,-1.28 3.456,0 6.208,1.344 2.752,1.344 4.288,4.16 1.6,2.752 1.6,7.04 0,4.224 -1.856,7.296 -1.792,3.072 -4.864,4.736 -3.072,1.6 -6.784,1.6 z m -70.84803,-80.768 v -5.696 l 18.432,-28.096 h -16.704 v -7.936 h 28.288 v 5.696 l -18.432,28.096 h 18.624 v 7.936 z m 53.056,0.768 q -4.096,0 -7.232,-1.088 -3.072,-1.152 -5.184,-3.52 -2.112,-2.432 -3.2,-6.144 -1.088,-3.712 -1.088,-8.832 v -22.912 h 9.472 v 23.872 q 0,3.904 0.832,6.208 0.832,2.24 2.432,3.264 1.6,1.024 3.968,1.024 2.304,0 3.968,-1.024 1.664,-1.024 2.496,-3.264 0.896,-2.304 0.896,-6.208 v -23.872 h 9.088 v 22.912 q 0,5.12 -1.088,8.832 -1.024,3.712 -3.136,6.144 -2.048,2.368 -5.12,3.52 -3.072,1.088 -7.104,1.088 z m 579.54037,435.89316 v -70.464 q 0,-5.76 0.384,-13.632 0.576,-7.872 0.768,-13.632 h -0.768 q -2.304,4.992 -4.8,10.176 -2.496,4.992 -5.184,10.368 l -16.128,26.496 h 66.048 v 21.504 h -93.12 v -19.392 l 44.544,-73.344 h 34.56 v 121.92 z m 52.032,0 v -17.472 q 15.36,-13.632 27.264,-25.536 12.096,-11.904 18.816,-22.08 6.912,-10.176 6.912,-18.624 0,-9.024 -4.608,-13.632 -4.608,-4.8 -12.672,-4.8 -6.528,0 -11.904,3.84 -5.184,3.648 -9.792,8.64 l -14.784,-14.592 q 8.832,-9.984 18.048,-14.976 9.408,-4.992 22.272,-4.992 11.904,0 20.928,4.8 9.216,4.8 14.208,13.44 5.184,8.64 5.184,20.352 0,10.944 -5.952,21.504 -5.76,10.368 -15.36,20.736 -9.6,10.368 -20.352,21.12 4.608,-0.576 10.368,-0.96 5.76,-0.576 9.984,-0.576 h 27.264 v 23.808 z m 140.928,2.304 q -9.792,0 -17.856,-2.304 -7.872,-2.112 -14.016,-5.952 -6.144,-3.84 -10.56,-9.024 l 13.056,-17.856 q 5.568,5.376 12.288,8.832 6.72,3.456 14.4,3.456 8.832,0 14.208,-3.648 5.568,-3.84 5.568,-10.752 0,-5.376 -2.688,-9.216 -2.688,-4.032 -9.792,-6.144 -6.912,-2.112 -20.352,-2.112 v -19.968 q 10.944,0 17.28,-2.112 6.336,-2.112 8.832,-5.76 2.688,-3.648 2.688,-8.448 0,-6.528 -4.032,-9.984 -3.84,-3.456 -10.944,-3.456 -6.528,0 -11.904,2.88 -5.184,2.688 -10.944,7.872 l -14.208,-17.28 q 8.448,-7.296 17.856,-11.328 9.408,-4.224 20.544,-4.224 12.48,0 21.888,4.032 9.6,3.84 14.784,11.328 5.376,7.296 5.376,18.048 0,9.408 -5.376,16.128 -5.184,6.72 -14.976,10.944 v 0.768 q 6.912,2.112 12.48,6.144 5.568,3.84 8.64,9.792 3.072,5.952 3.072,13.824 0,11.328 -6.336,19.392 -6.144,7.872 -16.512,12.096 -10.176,4.032 -22.464,4.032 z M 1411.2665,982.43739 v -17.088 l 55.296,-84.288 h -50.112 v -23.808 h 84.864 v 17.088 l -55.296,84.288 h 55.872 v 23.808 z m 159.168,2.304 q -12.288,0 -21.696,-3.264 -9.216,-3.456 -15.552,-10.56 -6.336,-7.296 -9.6,-18.432 -3.264,-11.136 -3.264,-26.496 v -68.736 h 28.416 v 71.616 q 0,11.712 2.496,18.624 2.496,6.72 7.296,9.792 4.8,3.072 11.904,3.072 6.912,0 11.904,-3.072 4.992,-3.072 7.488,-9.792 2.688,-6.912 2.688,-18.624 v -71.616 h 27.264 v 68.736 q 0,15.36 -3.264,26.496 -3.072,11.136 -9.408,18.432 -6.144,7.104 -15.36,10.56 -9.216,3.264 -21.312,3.264 z M 420.42483,1132.2937 v -35.232 q 0,-2.88 0.192,-6.816 0.288,-3.936 0.384,-6.816 h -0.384 q -1.152,2.496 -2.4,5.088 -1.248,2.496 -2.592,5.184 l -8.064,13.248 h 33.024 v 10.752 h -46.56 v -9.696 l 22.272,-36.672 h 17.28 v 60.96 z m 26.01599,0 v -8.736 q 7.68,-6.816 13.632,-12.768 6.048,-5.952 9.408,-11.04 3.456,-5.088 3.456,-9.312 0,-4.512 -2.304,-6.816 -2.304,-2.4 -6.336,-2.4 -3.264,0 -5.952,1.92 -2.592,1.824 -4.896,4.32 l -7.392,-7.296 q 4.416,-4.992 9.024,-7.488 4.704,-2.496 11.136,-2.496 5.952,0 10.464,2.4 4.608,2.4 7.104,6.72 2.592,4.32 2.592,10.176 0,5.472 -2.976,10.752 -2.88,5.184 -7.68,10.368 -4.8,5.184 -10.176,10.56 2.304,-0.288 5.184,-0.48 2.88,-0.288 4.992,-0.288 h 13.632 v 11.904 z m 61.53598,0 q 0.48,-7.584 1.536,-13.92 1.056,-6.432 2.976,-12.192 2.016,-5.76 5.088,-11.328 3.072,-5.568 7.584,-11.616 h -27.36 v -11.904 h 42.432 v 8.64 q -5.376,6.528 -8.832,12.192 -3.36,5.664 -5.184,11.52 -1.824,5.856 -2.688,12.768 -0.864,6.912 -1.344,15.84 z m -93.69604,-120 v -8.544 l 27.648,-42.14402 h -25.056 v -11.904 h 42.432 v 8.544 l -27.648,42.14402 h 27.936 v 11.904 z m 79.58401,1.152 q -6.144,0 -10.848,-1.632 -4.608,-1.728 -7.776,-5.28 -3.168,-3.648 -4.8,-9.21602 -1.632,-5.568 -1.632,-13.248 v -34.368 h 14.208 v 35.808 q 0,5.856 1.248,9.312 1.248,3.36 3.648,4.896 2.4,1.53602 5.952,1.53602 3.456,0 5.952,-1.53602 2.496,-1.536 3.744,-4.896 1.344,-3.456 1.344,-9.312 v -35.808 h 13.632 v 34.368 q 0,7.68 -1.632,13.248 -1.536,5.56802 -4.704,9.21602 -3.072,3.552 -7.68,5.28 -4.608,1.632 -10.656,1.632 z M 1058.9141,244.82988 v -70.464 q 0,-5.76 0.384,-13.632 0.576,-7.872 0.768,-13.632 h -0.768 q -2.304,4.992 -4.8,10.176 -2.496,4.992 -5.184,10.368 l -16.128,26.496 h 66.048 v 21.504 h -93.12 v -19.392 l 44.544,-73.344 h 34.56 v 121.92 z m 91.584,2.304 q -9.792,0 -17.856,-2.304 -7.872,-2.112 -14.016,-5.952 -6.144,-3.84 -10.56,-9.024 l 13.056,-17.856 q 5.568,5.376 12.288,8.832 6.72,3.456 14.4,3.456 8.832,0 14.208,-3.648 5.568,-3.84 5.568,-10.752 0,-5.376 -2.688,-9.216 -2.688,-4.032 -9.792,-6.144 -6.912,-2.112 -20.352,-2.112 v -19.968 q 10.944,0 17.28,-2.112 6.336,-2.112 8.832,-5.76 2.688,-3.648 2.688,-8.448 0,-6.528 -4.032,-9.984 -3.84,-3.456 -10.944,-3.456 -6.528,0 -11.904,2.88 -5.184,2.688 -10.944,7.872 l -14.208,-17.28 q 8.448,-7.296 17.856,-11.328 9.408,-4.224 20.544,-4.224 12.48,0 21.888,4.032 9.6,3.84 14.784,11.328 5.376,7.296 5.376,18.048 0,9.408 -5.376,16.128 -5.184,6.72 -14.976,10.944 v 0.768 q 6.912,2.112 12.48,6.144 5.568,3.84 8.64,9.792 3.072,5.952 3.072,13.824 0,11.328 -6.336,19.392 -6.144,7.872 -16.512,12.096 -10.176,4.032 -22.464,4.032 z m 105.408,0 q -19.584,0 -31.68,-16.32 -11.904,-16.32 -11.904,-47.424 0,-31.296 11.904,-47.04 12.096,-15.744 31.68,-15.744 19.584,0 31.488,15.936 12.096,15.744 12.096,46.848 0,31.104 -12.096,47.424 -11.904,16.32 -31.488,16.32 z m 0,-21.888 q 4.8,0 8.64,-3.456 3.84,-3.648 5.952,-12.672 2.304,-9.216 2.304,-25.728 0,-16.704 -2.304,-25.536 -2.112,-8.832 -5.952,-12.096 -3.84,-3.264 -8.64,-3.264 -4.8,0 -8.64,3.264 -3.84,3.264 -6.144,12.096 -2.112,8.832 -2.112,25.536 0,16.512 2.112,25.728 2.304,9.024 6.144,12.672 3.84,3.456 8.64,3.456 z M 1046.626,4.82988 v -17.088002 l 55.296,-84.288 h -50.112 v -23.807998 h 84.864 v 17.088 l -55.296,84.287998 h 55.872 V 4.82988 Z m 159.168,2.304 q -12.288,0 -21.696,-3.264 -9.216,-3.456 -15.552,-10.56 -6.336,-7.296002 -9.6,-18.432002 -3.264,-11.136 -3.264,-26.496 v -68.735998 h 28.416 v 71.615998 q 0,11.712 2.496,18.624 2.496,6.72 7.296,9.792 4.8,3.072 11.904,3.072 6.912,0 11.904,-3.072 4.992,-3.072 7.488,-9.792 2.688,-6.912 2.688,-18.624 v -71.615998 h 27.264 v 68.735998 q 0,15.36 -3.264,26.496 -3.072,11.136 -9.408,18.432002 -6.144,7.104 -15.36,10.56 -9.216,3.264 -21.312,3.264 z m 1752.7702,676.9596 v -35.232 q 0,-2.88 0.192,-6.816 0.288,-3.936 0.384,-6.816 h -0.384 q -1.152,2.496 -2.4,5.088 -1.248,2.496 -2.592,5.184 l -8.064,13.248 h 33.024 v 10.752 h -46.56 v -9.696 l 22.272,-36.672 h 17.28 v 60.96 z m 26.0159,0 v -8.736 q 7.6801,-6.816 13.632,-12.768 6.0481,-5.952 9.408,-11.04 3.456,-5.088 3.456,-9.312 0,-4.512 -2.304,-6.816 -2.304,-2.4 -6.3359,-2.4 -3.2641,0 -5.9521,1.92 -2.592,1.824 -4.8959,4.32 l -7.3921,-7.296 q 4.4161,-4.992 9.0241,-7.488 4.7039,-2.496 11.136,-2.496 5.9519,0 10.464,2.4 4.6079,2.4 7.1039,6.72 2.5921,4.32 2.5921,10.176 0,5.472 -2.9761,10.752 -2.88,5.184 -7.6799,10.368 -4.8001,5.184 -10.176,10.56 2.3039,-0.288 5.1839,-0.48 2.88,-0.288 4.9921,-0.288 h 13.632 v 11.904 z m 72.48,1.152 q -9.792,0 -15.84,-8.16 -5.952,-8.16 -5.952,-23.712 0,-15.648 5.952,-23.52 6.048,-7.872 15.84,-7.872 9.792,0 15.744,7.968 6.048,7.872 6.048,23.424 0,15.552 -6.048,23.712 -5.952,8.16 -15.744,8.16 z m 0,-10.944 q 2.4,0 4.32,-1.728 1.92,-1.824 2.976,-6.336 1.152,-4.608 1.152,-12.864 0,-8.352 -1.152,-12.768 -1.056,-4.416 -2.976,-6.048 -1.92,-1.632 -4.32,-1.632 -2.4,0 -4.32,1.632 -1.92,1.632 -3.072,6.048 -1.056,4.416 -1.056,12.768 0,8.256 1.056,12.864 1.152,4.512 3.072,6.336 1.92,1.728 4.32,1.728 z m -104.64,-110.208 v -8.544 l 27.648,-42.144 h -25.056 v -11.904 h 42.432 v 8.544 l -27.648,42.144 h 27.936 v 11.904 z m 79.584,1.152 q -6.144,0 -10.848,-1.632 -4.608,-1.728 -7.776,-5.28 -3.168,-3.648 -4.8,-9.216 -1.632,-5.568 -1.632,-13.248 v -34.368 h 14.208 v 35.808 q 0,5.856 1.248,9.312 1.248,3.36 3.648,4.896 2.4,1.536 5.952,1.536 3.456,0 5.952,-1.536 2.496,-1.536 3.744,-4.896 1.344,-3.456 1.344,-9.312 v -35.808 h 13.632 v 34.368 q 0,7.68 -1.632,13.248 -1.536,5.568 -4.704,9.216 -3.072,3.552 -7.68,5.28 -4.608,1.632 -10.656,1.632 z m 279.2138,117.9946 v -35.232 q 0,-2.88 0.192,-6.816 0.288,-3.936 0.384,-6.816 h -0.384 q -1.152,2.496 -2.4,5.088 -1.248,2.496 -2.592,5.184 l -8.064,13.248 h 33.024 v 10.752 h -46.56 v -9.696 l 22.272,-36.672 h 17.28 v 60.96 z m 29.184,0 v -11.424 h 13.248 v -35.232 h -11.424 v -8.736 q 4.992,-0.96 8.448,-2.304 3.552,-1.344 6.72,-3.264 h 10.368 v 49.536 h 11.424 v 11.424 z m 65.9519,1.152 q -6.048,0 -10.464,-2.208 -4.416,-2.208 -7.392,-5.088 l 7.488,-8.448 q 1.536,1.728 4.128,3.072 2.688,1.248 5.28,1.248 3.648,0 6.432,-2.016 2.88,-2.016 4.512,-6.72 1.728,-4.8 1.728,-12.864 0,-7.584 -1.44,-11.808 -1.344,-4.32 -3.648,-6.048 -2.208,-1.824 -4.8,-1.824 -2.016,0 -3.84,1.056 -1.728,1.056 -2.784,3.168 -1.056,2.112 -1.056,5.664 0,3.168 1.056,5.184 1.056,1.92 2.88,2.784 1.824,0.864 4.128,0.864 2.4,0 4.896,-1.44 2.496,-1.536 4.512,-5.088 l 0.672,9.216 q -2.304,3.36 -6.048,5.376 -3.744,1.92 -6.816,1.92 -5.184,0 -9.312,-2.016 -4.128,-2.016 -6.528,-6.144 -2.304,-4.224 -2.304,-10.656 0,-6.336 2.784,-10.944 2.784,-4.608 7.392,-7.008 4.608,-2.496 10.08,-2.496 4.512,0 8.64,1.728 4.128,1.728 7.296,5.376 3.264,3.648 5.184,9.408 2.016,5.664 2.016,13.728 0,8.544 -2.112,14.784 -2.016,6.24 -5.472,10.272 -3.456,4.032 -7.872,6.048 -4.416,1.92 -9.216,1.92 z m -101.28,-121.152 v -8.544 l 27.648,-42.144 h -25.056 v -11.904 h 42.432 v 8.544 l -27.648,42.144 h 27.936 v 11.904 z m 79.584,1.152 q -6.144,0 -10.848,-1.632 -4.608,-1.728 -7.776,-5.28 -3.168,-3.648 -4.8,-9.216 -1.632,-5.568 -1.632,-13.248 v -34.368 h 14.208 v 35.808 q 0,5.856 1.248,9.312 1.248,3.36 3.648,4.896 2.4,1.536 5.952,1.536 3.456,0 5.952,-1.536 2.496,-1.536 3.744,-4.896 1.344,-3.456 1.344,-9.312 v -35.808 h 13.632 v 34.368 q 0,7.68 -1.632,13.248 -1.536,5.568 -4.704,9.216 -3.072,3.552 -7.68,5.28 -4.608,1.632 -10.656,1.632 z m -760.537,273.12606 v -23.488 q 0,-1.92 0.128,-4.544 0.192,-2.624 0.256,-4.544 h -0.256 q -0.768,1.664 -1.6001,3.392 -0.8319,1.664 -1.7279,3.456 l -5.376,8.832 h 22.016 v 7.168 h -31.04 v -6.464 l 14.848,-24.448 h 11.52 v 40.64 z m 17.3439,0 v -5.824 q 5.12,-4.544 9.088,-8.512 4.032,-3.968 6.272,-7.36 2.304,-3.392 2.304,-6.208 0,-3.008 -1.536,-4.544 -1.536,-1.6 -4.224,-1.6 -2.176,0 -3.968,1.28 -1.728,1.216 -3.264,2.88 l -4.928,-4.864 q 2.944,-3.328 6.016,-4.992 3.136,-1.664 7.424,-1.664 3.968,0 6.976,1.6 3.072,1.6 4.736,4.48 1.728,2.88 1.728,6.784 0,3.648 -1.984,7.168 -1.92,3.456 -5.12,6.912 -3.2,3.456 -6.784,7.04 1.536,-0.192 3.456,-0.32 1.92,-0.192 3.328,-0.192 h 9.088 v 7.936 z m 33.792,0 v -5.824 q 5.12,-4.544 9.088,-8.512 4.032,-3.968 6.272,-7.36 2.304,-3.392 2.304,-6.208 0,-3.008 -1.536,-4.544 -1.536,-1.6 -4.224,-1.6 -2.176,0 -3.968,1.28 -1.728,1.216 -3.264,2.88 l -4.928,-4.864 q 2.944,-3.328 6.016,-4.992 3.136,-1.664 7.424,-1.664 3.968,0 6.976,1.6 3.072,1.6 4.736,4.48 1.728,2.88 1.728,6.784 0,3.648 -1.984,7.168 -1.92,3.456 -5.12,6.912 -3.2,3.456 -6.784,7.04 1.536,-0.192 3.456,-0.32 1.92,-0.192 3.328,-0.192 h 9.088 v 7.936 z m -55.232,-80 v -5.696 l 18.432,-28.096 h -16.704 v -7.936 h 28.288 v 5.696 l -18.432,28.096 h 18.624 v 7.936 z m 53.056,0.768 q -4.096,0 -7.232,-1.088 -3.072,-1.152 -5.184,-3.52 -2.112,-2.432 -3.2,-6.144 -1.088,-3.712 -1.088,-8.832 v -22.912 h 9.472 v 23.872 q 0,3.904 0.832,6.208 0.832,2.24 2.432,3.264 1.6,1.024 3.968,1.024 2.304,0 3.968,-1.024 1.664,-1.024 2.496,-3.264 0.896,-2.304 0.896,-6.208 v -23.872 h 9.088 v 22.912 q 0,5.12 -1.088,8.832 -1.024,3.712 -3.136,6.144 -2.048,2.368 -5.12,3.52 -3.072,1.088 -7.104,1.088 z m 285.6186,-865.85072 v -35.232 q 0,-2.88 0.192,-6.816 0.288,-3.936 0.384,-6.816 h -0.384 q -1.152,2.496 -2.4,5.088 -1.248,2.496 -2.592,5.184 l -8.064,13.248 h 33.024 v 10.752 h -46.56 v -9.696 l 22.272,-36.672 h 17.28 v 60.96 z m 47.808,1.152 q -9.792,0 -15.84,-8.16 -5.952,-8.16 -5.952,-23.712 0,-15.648 5.952,-23.52 6.048,-7.872 15.84,-7.872 9.792,0 15.744,7.968 6.048,7.872 6.048,23.424 0,15.552 -6.048,23.712 -5.952,8.16 -15.744,8.16 z m 0,-10.944 q 2.4,0 4.32,-1.728 1.92,-1.824 2.976,-6.336 1.152,-4.608 1.152,-12.864 0,-8.352 -1.152,-12.768 -1.056,-4.416 -2.976,-6.048 -1.92,-1.632 -4.32,-1.632 -2.4,0 -4.32,1.632 -1.92,1.632 -3.072,6.048 -1.056,4.416 -1.056,12.768 0,8.256 1.056,12.864 1.152,4.512 3.072,6.336 1.92,1.728 4.32,1.728 z m 52.3199,10.944 q -4.416,0 -8.544,-1.728 -4.128,-1.728 -7.392,-5.376 -3.264,-3.648 -5.184,-9.312 -1.92,-5.76 -1.92,-13.824 0,-8.544 2.016,-14.784 2.016,-6.24 5.472,-10.272 3.456,-4.032 7.872,-5.952 4.416,-2.016 9.312,-2.016 6.048,0 10.464,2.208 4.416,2.112 7.296,5.088 l -7.392,8.448 q -1.632,-1.728 -4.224,-2.976 -2.592,-1.344 -5.28,-1.344 -3.456,0 -6.432,2.016 -2.88,2.016 -4.608,6.816 -1.632,4.704 -1.632,12.768 0,7.584 1.344,11.904 1.44,4.224 3.744,6.048 2.304,1.728 4.8,1.728 2.112,0 3.84,-1.056 1.728,-1.056 2.784,-3.168 1.056,-2.208 1.056,-5.664 0,-3.264 -1.056,-5.184 -1.056,-1.92 -2.88,-2.784 -1.728,-0.864 -4.032,-0.864 -2.4,0 -4.992,1.44 -2.496,1.44 -4.512,5.088 l -0.672,-9.216 q 2.4,-3.552 6.144,-5.376 3.744,-1.92 6.72,-1.92 5.184,0 9.312,2.016 4.128,2.016 6.432,6.24 2.4,4.128 2.4,10.56 0,6.336 -2.784,10.944 -2.688,4.608 -7.296,7.104 -4.608,2.4 -10.176,2.4 z m -106.272,-121.152 v -8.544 l 27.648,-42.144 h -25.056 v -11.904 h 42.432 v 8.544 l -27.648,42.144 h 27.936 v 11.904 z m 79.584,1.152 q -6.144,0 -10.848,-1.632 -4.608,-1.728 -7.776,-5.28 -3.168,-3.648 -4.8,-9.216 -1.632,-5.568 -1.632,-13.248 v -34.368 h 14.208 v 35.808 q 0,5.856 1.248,9.312 1.248,3.36 3.648,4.896 2.4,1.536 5.952,1.536 3.456,0 5.952,-1.536 2.496,-1.536 3.744,-4.896 1.344,-3.456 1.344,-9.312 v -35.808 h 13.632 v 34.368 q 0,7.68 -1.632,13.248 -1.536,5.568 -4.704,9.216 -3.072,3.552 -7.68,5.28 -4.608,1.632 -10.656,1.632 z m 637.733,118.848 v -35.232 q 0,-2.88 0.192,-6.816 0.288,-3.936 0.384,-6.816 h -0.384 q -1.152,2.496 -2.4,5.088 -1.248,2.496 -2.592,5.184 l -8.064,13.248 h 33.024 v 10.752 h -46.56 v -9.696 l 22.272,-36.672 h 17.28 v 60.96 z m 47.8079,1.152 q -9.792,0 -15.8399,-8.16 -5.9521,-8.16 -5.9521,-23.712 0,-15.648 5.9521,-23.52 6.0479,-7.872 15.8399,-7.872 9.792,0 15.744,7.968 6.048,7.872 6.048,23.424 0,15.552 -6.048,23.712 -5.952,8.16 -15.744,8.16 z m 0,-10.944 q 2.4,0 4.32,-1.728 1.9201,-1.824 2.9761,-6.336 1.152,-4.608 1.152,-12.864 0,-8.352 -1.152,-12.768 -1.056,-4.416 -2.9761,-6.048 -1.92,-1.632 -4.32,-1.632 -2.3999,0 -4.3199,1.632 -1.92,1.632 -3.0721,6.048 -1.056,4.416 -1.056,12.768 0,8.256 1.056,12.864 1.1521,4.512 3.0721,6.336 1.92,1.728 4.3199,1.728 z m 50.592,10.944 q -6.048,0 -10.944,-2.112 -4.8,-2.112 -7.584,-5.856 -2.688,-3.84 -2.688,-8.736 0,-3.744 1.344,-6.432 1.44,-2.784 3.744,-4.896 2.4,-2.112 5.28,-3.648 v -0.384 q -3.456,-2.688 -5.856,-6.144 -2.304,-3.456 -2.304,-8.256 0,-5.184 2.496,-8.928 2.496,-3.84 6.912,-5.856 4.416,-2.016 10.08,-2.016 8.448,0 13.44,4.608 5.088,4.512 5.088,12.096 0,2.88 -1.152,5.472 -1.056,2.496 -2.88,4.512 -1.824,1.92 -3.936,3.36 v 0.384 q 2.88,1.536 5.28,3.744 2.4,2.112 3.84,5.184 1.44,2.976 1.44,7.008 0,4.8 -2.688,8.64 -2.688,3.744 -7.584,6.048 -4.8,2.208 -11.328,2.208 z m 3.84,-36.672 q 1.824,-2.112 2.784,-4.32 0.96,-2.208 0.96,-4.608 0,-2.4 -0.864,-4.128 -0.864,-1.728 -2.592,-2.688 -1.632,-1.056 -3.936,-1.056 -2.784,0 -4.8,1.824 -2.016,1.728 -2.016,5.184 0,2.496 1.344,4.224 1.344,1.728 3.648,3.072 2.4,1.344 5.472,2.496 z m -3.552,26.88 q 2.304,0 4.128,-0.768 1.92,-0.864 2.976,-2.496 1.056,-1.728 1.056,-4.32 0,-2.688 -1.632,-4.416 -1.536,-1.824 -4.512,-3.168 -2.88,-1.44 -6.72,-3.072 -2.016,1.824 -3.36,4.416 -1.344,2.496 -1.344,5.28 0,2.688 1.248,4.608 1.344,1.92 3.456,2.976 2.208,0.96 4.704,0.96 z m -104.832,-111.36 v -8.544 l 27.648,-42.144 h -25.056 v -11.904 h 42.432 v 8.544 l -27.648,42.144 h 27.936 v 11.904 z m 79.584,1.152 q -6.144,0 -10.848,-1.632 -4.608,-1.728 -7.776,-5.28 -3.168,-3.648 -4.8,-9.216 -1.632,-5.568 -1.632,-13.248 v -34.368 h 14.208 v 35.808 q 0,5.856 1.248,9.312 1.248,3.36 3.648,4.896 2.4,1.536 5.952,1.536 3.456,0 5.952,-1.536 2.496,-1.536 3.744,-4.896 1.344,-3.456 1.344,-9.312 v -35.808 h 13.632 v 34.368 q 0,7.68 -1.632,13.248 -1.536,5.568 -4.704,9.216 -3.072,3.552 -7.68,5.28 -4.608,1.632 -10.656,1.632 z m -433.4274,118.848 v -35.232 q 0,-2.88 0.192,-6.816 0.288,-3.936 0.384,-6.816 h -0.384 q -1.152,2.496 -2.4,5.088 -1.248,2.496 -2.592,5.184 l -8.064,13.248 h 33.024 v 10.752 h -46.56 v -9.696 l 22.272,-36.672 h 17.28 v 60.96 z m 47.808,1.152 q -9.792,0 -15.84,-8.16 -5.952,-8.16 -5.952,-23.712 0,-15.648 5.952,-23.52 6.048,-7.872 15.84,-7.872 9.792,0 15.744,7.968 6.048,7.872 6.048,23.424 0,15.552 -6.048,23.712 -5.952,8.16 -15.744,8.16 z m 0,-10.944 q 2.4,0 4.32,-1.728 1.92,-1.824 2.976,-6.336 1.152,-4.608 1.152,-12.864 0,-8.352 -1.152,-12.768 -1.056,-4.416 -2.976,-6.048 -1.92,-1.632 -4.32,-1.632 -2.4,0 -4.32,1.632 -1.92,1.632 -3.072,6.048 -1.056,4.416 -1.056,12.768 0,8.256 1.056,12.864 1.152,4.512 3.072,6.336 1.92,1.728 4.32,1.728 z m 39.7439,9.792 q 0.48,-7.584 1.536,-13.92 1.056,-6.432 2.976,-12.192 2.016,-5.76 5.088,-11.328 3.072,-5.568 7.584,-11.616 h -27.36 v -11.904 h 42.432 v 8.64 q -5.376,6.528 -8.832,12.192 -3.36,5.664 -5.184,11.52 -1.824,5.856 -2.688,12.768 -0.864,6.912 -1.344,15.84 z m -93.696,-120 v -8.544 l 27.648,-42.144 h -25.056 v -11.904 h 42.432 v 8.544 l -27.648,42.144 h 27.936 v 11.904 z m 79.584,1.152 q -6.144,0 -10.848,-1.632 -4.608,-1.728 -7.776,-5.28 -3.168,-3.648 -4.8,-9.216 -1.632,-5.568 -1.632,-13.248 v -34.368 h 14.208 v 35.808 q 0,5.856 1.248,9.312 1.248,3.36 3.648,4.896 2.4,1.536 5.952,1.536 3.456,0 5.952,-1.536 2.496,-1.536 3.744,-4.896 1.344,-3.456 1.344,-9.312 v -35.808 h 13.632 v 34.368 q 0,7.68 -1.632,13.248 -1.536,5.568 -4.704,9.216 -3.072,3.552 -7.68,5.28 -4.608,1.632 -10.656,1.632 z m 1651.4777,118.848 v -35.232 q 0,-2.88 0.192,-6.816 0.288,-3.936 0.384,-6.816 h -0.384 q -1.152,2.496 -2.4,5.088 -1.248,2.496 -2.592,5.184 l -8.064,13.248 h 33.024 v 10.752 h -46.56 v -9.696 l 22.272,-36.672 h 17.28 v 60.96 z m 29.1839,0 v -11.424 h 13.248 v -35.232 h -11.424 v -8.736 q 4.992,-0.96 8.448,-2.304 3.552,-1.344 6.72,-3.264 h 10.368 v 49.536 h 11.424 v 11.424 z m 47.52,0 v -8.736 q 7.68,-6.816 13.632,-12.768 6.048,-5.952 9.408,-11.04 3.456,-5.088 3.456,-9.312 0,-4.512 -2.304,-6.816 -2.304,-2.4 -6.336,-2.4 -3.264,0 -5.952,1.92 -2.592,1.824 -4.896,4.32 l -7.392,-7.296 q 4.416,-4.992 9.024,-7.488 4.704,-2.496 11.136,-2.496 5.952,0 10.464,2.4 4.608,2.4 7.104,6.72 2.592,4.32 2.592,10.176 0,5.472 -2.976,10.752 -2.88,5.184 -7.68,10.368 -4.8,5.184 -10.176,10.56 2.304,-0.288 5.184,-0.48 2.88,-0.288 4.992,-0.288 h 13.632 v 11.904 z m -82.848,-120 v -8.544 l 27.648,-42.144 h -25.056 v -11.904 h 42.432 v 8.544 l -27.648,42.144 h 27.936 v 11.904 z m 79.584,1.152 q -6.144,0 -10.848,-1.632 -4.608,-1.728 -7.776,-5.28 -3.168,-3.648 -4.8,-9.216 -1.632,-5.568 -1.632,-13.248 v -34.368 h 14.208 v 35.808 q 0,5.856 1.248,9.312 1.248,3.36 3.648,4.896 2.4,1.536 5.952,1.536 3.456,0 5.952,-1.536 2.496,-1.536 3.744,-4.896 1.344,-3.456 1.344,-9.312 v -35.808 h 13.632 v 34.368 q 0,7.68 -1.632,13.248 -1.536,5.568 -4.704,9.216 -3.072,3.552 -7.68,5.28 -4.608,1.632 -10.656,1.632 z m -378.1093,118.83895 v -35.232 q 0,-2.88 0.192,-6.816 0.288,-3.936 0.384,-6.816 h -0.384 q -1.152,2.496 -2.4,5.088 -1.248,2.496 -2.592,5.184 l -8.064,13.248 h 33.024 v 10.752 h -46.56 v -9.696 l 22.272,-36.672 h 17.28 v 60.96 z m 29.1839,0 v -11.424 h 13.2481 v -35.232 h -11.424 v -8.736 q 4.992,-0.96 8.4479,-2.304 3.5521,-1.344 6.72,-3.264 h 10.3681 v 49.536 h 11.424 v 11.424 z m 50.688,0 v -11.424 h 13.248 v -35.232 h -11.424 v -8.736 q 4.992,-0.96 8.448,-2.304 3.552,-1.344 6.72,-3.264 h 10.368 v 49.536 h 11.424 v 11.424 z m -86.016,-120 v -8.544 l 27.648,-42.144 h -25.056 v -11.904 h 42.432 v 8.544 l -27.648,42.144 h 27.936 v 11.904 z m 79.584,1.152 q -6.144,0 -10.848,-1.632 -4.608,-1.728 -7.776,-5.28 -3.168,-3.648 -4.8,-9.216 -1.632,-5.568 -1.632,-13.248 v -34.368 h 14.208 v 35.808 q 0,5.856 1.248,9.312 1.248,3.36 3.648,4.896 2.4,1.536 5.952,1.536 3.456,0 5.952,-1.536 2.496,-1.536 3.744,-4.896 1.344,-3.456 1.344,-9.312 v -35.808 h 13.632 v 34.368 q 0,7.68 -1.632,13.248 -1.536,5.568 -4.704,9.216 -3.072,3.552 -7.68,5.28 -4.608,1.632 -10.656,1.632 z m -407.3343,118.85705 v -35.232 q 0,-2.88 0.192,-6.816 0.288,-3.936 0.384,-6.816 h -0.384 q -1.152,2.496 -2.4,5.088 -1.248,2.496 -2.592,5.184 l -8.064,13.248 h 33.024 v 10.752 h -46.56 v -9.696 l 22.272,-36.672 h 17.28 v 60.96 z m 29.1839,0 v -11.424 h 13.248 v -35.232 h -11.424 v -8.736 q 4.992,-0.96 8.448,-2.304 3.552,-1.344 6.72,-3.264 h 10.368 v 49.536 h 11.424 v 11.424 z m 69.312,1.152 q -9.792,0 -15.84,-8.16 -5.952,-8.16 -5.952,-23.712 0,-15.648 5.952,-23.52 6.048,-7.872 15.84,-7.872 9.792,0 15.744,7.968 6.048,7.872 6.048,23.424 0,15.552 -6.048,23.712 -5.952,8.16 -15.744,8.16 z m 0,-10.944 q 2.4,0 4.32,-1.728 1.92,-1.824 2.976,-6.336 1.152,-4.608 1.152,-12.864 0,-8.352 -1.152,-12.768 -1.056,-4.416 -2.976,-6.048 -1.92,-1.632 -4.32,-1.632 -2.4,0 -4.32,1.632 -1.92,1.632 -3.072,6.048 -1.056,4.416 -1.056,12.768 0,8.256 1.056,12.864 1.152,4.512 3.072,6.336 1.92,1.728 4.32,1.728 z m -104.64,-110.208 v -8.544 l 27.648,-42.144 h -25.056 v -11.904 h 42.432 v 8.544 l -27.648,42.144 h 27.936 v 11.904 z m 79.584,1.152 q -6.144,0 -10.848,-1.632 -4.608,-1.728 -7.776,-5.28 -3.168,-3.648 -4.8,-9.216 -1.632,-5.568 -1.632,-13.248 v -34.368 h 14.208 v 35.808 q 0,5.856 1.248,9.312 1.248,3.36 3.648,4.896 2.4,1.536 5.952,1.536 3.456,0 5.952,-1.536 2.496,-1.536 3.744,-4.896 1.344,-3.456 1.344,-9.312 v -35.808 h 13.632 v 34.368 q 0,7.68 -1.632,13.248 -1.536,5.568 -4.704,9.216 -3.072,3.552 -7.68,5.28 -4.608,1.632 -10.656,1.632 z m -436.8997,118.848 v -35.232 q 0,-2.88 0.192,-6.816 0.288,-3.936 0.384,-6.816 h -0.384 q -1.152,2.496 -2.4,5.088 -1.248,2.496 -2.592,5.184 l -8.064,13.248 h 33.024 v 10.752 h -46.56 v -9.696 l 22.272,-36.672 h 17.28 v 60.96 z m 47.8079,1.152 q -9.792,0 -15.8399,-8.16 -5.9521,-8.16 -5.9521,-23.712 0,-15.648 5.9521,-23.52 6.0479,-7.872 15.8399,-7.872 9.792,0 15.744,7.968 6.048,7.872 6.048,23.424 0,15.552 -6.048,23.712 -5.952,8.16 -15.744,8.16 z m 0,-10.944 q 2.4,0 4.3201,-1.728 1.92,-1.824 2.976,-6.336 1.152,-4.608 1.152,-12.864 0,-8.352 -1.152,-12.768 -1.056,-4.416 -2.976,-6.048 -1.9201,-1.632 -4.3201,-1.632 -2.3999,0 -4.3199,1.632 -1.92,1.632 -3.072,6.048 -1.0561,4.416 -1.0561,12.768 0,8.256 1.0561,12.864 1.152,4.512 3.072,6.336 1.92,1.728 4.3199,1.728 z m 47.328,10.944 q -6.048,0 -10.464,-2.208 -4.416,-2.208 -7.392,-5.088 l 7.488,-8.448 q 1.536,1.728 4.128,3.072 2.688,1.248 5.28,1.248 3.648,0 6.432,-2.016 2.88,-2.016 4.512,-6.72 1.728,-4.8 1.728,-12.864 0,-7.584 -1.44,-11.808 -1.344,-4.32 -3.648,-6.048 -2.208,-1.824 -4.8,-1.824 -2.016,0 -3.84,1.056 -1.728,1.056 -2.784,3.168 -1.056,2.112 -1.056,5.664 0,3.168 1.056,5.184 1.056,1.92 2.88,2.784 1.824,0.864 4.128,0.864 2.4,0 4.896,-1.44 2.496,-1.536 4.512,-5.088 l 0.672,9.216 q -2.304,3.36 -6.048,5.376 -3.744,1.92 -6.816,1.92 -5.184,0 -9.312,-2.016 -4.128,-2.016 -6.528,-6.144 -2.304,-4.224 -2.304,-10.656 0,-6.336 2.784,-10.944 2.784,-4.608 7.392,-7.008 4.608,-2.496 10.08,-2.496 4.512,0 8.64,1.728 4.128,1.728 7.296,5.376 3.264,3.648 5.184,9.408 2.016,5.664 2.016,13.728 0,8.544 -2.112,14.784 -2.016,6.24 -5.472,10.272 -3.456,4.032 -7.872,6.048 -4.416,1.92 -9.216,1.92 z m -101.28,-121.152 v -8.544 l 27.648,-42.144 h -25.056 v -11.904 h 42.432 v 8.544 l -27.648,42.144 h 27.936 v 11.904 z m 79.584,1.152 q -6.144,0 -10.848,-1.632 -4.608,-1.728 -7.776,-5.28 -3.168,-3.648 -4.8,-9.216 -1.632,-5.568 -1.632,-13.248 v -34.368 h 14.208 v 35.808 q 0,5.856 1.248,9.312 1.248,3.36 3.648,4.896 2.4,1.536 5.952,1.536 3.456,0 5.952,-1.536 2.496,-1.536 3.744,-4.896 1.344,-3.456 1.344,-9.312 v -35.808 h 13.632 v 34.368 q 0,7.68 -1.632,13.248 -1.536,5.568 -4.704,9.216 -3.072,3.552 -7.68,5.28 -4.608,1.632 -10.656,1.632 z m 58.3373,1001.52468 v -70.464 q 0,-5.76 0.384,-13.632 0.576,-7.872 0.768,-13.632 h -0.768 q -2.304,4.992 -4.8,10.176 -2.496,4.992 -5.184,10.368 l -16.128,26.496 h 66.048 v 21.504 h -93.12 v -19.392 l 44.544,-73.344 h 34.56 v 121.92 z m 58.3679,0 v -22.848 h 26.496 v -70.464 h -22.848 v -17.472 q 9.984,-1.92 16.896,-4.608 7.104,-2.688 13.44,-6.528 h 20.736 v 99.072 h 22.848 v 22.848 z m 116.736,0 q 0.96,-15.168 3.072,-27.84 2.112,-12.864 5.952,-24.384 4.032,-11.52 10.176,-22.656 6.144,-11.136 15.168,-23.232 h -54.72 v -23.808 h 84.864 v 17.28 q -10.752,13.056 -17.664,24.384 -6.72,11.328 -10.368,23.04 -3.648,11.712 -5.376,25.536 -1.728,13.824 -2.688,31.68 z m -187.3921,-240 v -17.088 l 55.296,-84.288 h -50.112 v -23.808 h 84.864 v 17.088 l -55.296,84.288 h 55.872 v 23.808 z m 159.1681,2.304 q -12.288,0 -21.696,-3.264 -9.216,-3.456 -15.552,-10.56 -6.336,-7.296 -9.6,-18.432 -3.264,-11.136 -3.264,-26.496 v -68.736 h 28.416 v 71.616 q 0,11.712 2.496,18.624 2.496,6.72 7.296,9.792 4.8,3.072 11.904,3.072 6.912,0 11.904,-3.072 4.992,-3.072 7.488,-9.792 2.688,-6.912 2.688,-18.624 v -71.616 h 27.264 v 68.736 q 0,15.36 -3.264,26.496 -3.072,11.136 -9.408,18.432 -6.144,7.104 -15.36,10.56 -9.216,3.264 -21.312,3.264 z" style="font-size:96px;font-family:'Source Sans 3';-inkscape-font-specification:'Source Sans 3, @wght=700';font-variation-settings:'wght' 700;text-align:center;white-space:pre;display:inline;fill:#bec3c6;stroke-width:55" transform="matrix(0.02439371,0,0,0.02439371,-4.5403769,255.77584)"/>
  </g>
</svg>
