<svg width="5100" height="1900" viewBox="0 0 5100 1900" version="1.1" id="svg1" xml:space="preserve" xmlns="http://www.w3.org/2000/svg">
  <g id="floor_5" transform="matrix(40.994169,0,0,40.994169,1.00188,-10010.757)" style="display:inline">
    <path style="font-variation-settings:'wdth' 70,'wght' 600;display:inline;fill:#4c5a5f;fill-opacity:1;stroke-width:.487874" d="m 2.6337011,265.6217 34.4468659,-10e-6 -0.121971,-8.02809 h 9.948033 v -0.27752 l 17.286222,-10e-6 -0.01642,-0.30475 57.861059,2.7e-4 2e-5,5.79334 -57.854801,1.9e-4 -3e-6,13.48286 H 44.966352 v -3.45025 H 2.6337051 Z" id="path59"/>
    <g id="rooms_5" style="display:inline" transform="matrix(0.02439371,0,0,0.02439371,-0.02443957,255.98706)">
      <rect style="font-variation-settings:'wdth' 70,'wght' 600;fill:#1b2022;fill-opacity:1;stroke:none;stroke-width:10.6002;stroke-linecap:butt;stroke-linejoin:miter;stroke-dasharray:none;stroke-opacity:1" id="rect7" width="298.89462" height="224.67143" x="2303.2253" y="431.85519"/>
      <rect style="font-variation-settings:'wdth' 70,'wght' 600;display:inline;fill:#454c7f;fill-opacity:1;stroke-width:207.72;stroke-dasharray:none" id="ZU501" width="327.43317" height="168.63503" x="1973.9008" y="-114.15326"/>
      <path style="font-variation-settings:'wdth' 70,'wght' 600;display:inline;fill:#454c7f;fill-opacity:1;stroke-width:0" d="m 2023.4028,-382.508 277.9311,-0.006 v 268.3601 h -327.4332 v -95.33426 l 49.5139,-0.002 z" id="ZU502"/>
      <rect style="font-variation-settings:'wdth' 70,'wght' 600;display:inline;fill:#454c7f;fill-opacity:1;stroke-width:203.099;stroke-dasharray:none" id="ZU503" width="313.02814" height="168.63503" x="2301.334" y="-114.15326"/>
      <rect style="font-variation-settings:'wdth' 70,'wght' 600;display:inline;fill:#454c7f;fill-opacity:1;stroke-width:256.208;stroke-dasharray:none" id="ZU504" width="313.02814" height="268.36072" x="2301.334" y="-382.51431"/>
      <rect style="font-variation-settings:'wdth' 70,'wght' 600;display:inline;fill:#454c7f;fill-opacity:1;stroke-width:344.036;stroke-dasharray:none" id="ZU506" width="342.68436" height="442.00778" x="2649.366" y="-400.0076"/>
      <rect style="font-variation-settings:'wdth' 70,'wght' 600;display:inline;fill:#454c7f;fill-opacity:1;stroke-width:352.186;stroke-dasharray:none" id="ZU507" width="359.11038" height="442.00778" x="2992.0503" y="-400.0076"/>
      <rect style="font-variation-settings:'wdth' 70,'wght' 600;display:inline;fill:#454c7f;fill-opacity:1;stroke-width:353.14;stroke-dasharray:none" id="ZU508" width="361.05676" height="442.00778" x="3351.1606" y="-400.0076"/>
      <rect style="font-variation-settings:'wdth' 70,'wght' 600;display:inline;fill:#454c7f;fill-opacity:1;stroke-width:354.851;stroke-dasharray:none" id="ZU509" width="364.56442" height="442.00778" x="3712.2173" y="-400.0076"/>
      <rect style="font-variation-settings:'wdth' 70,'wght' 600;display:inline;fill:#454c7f;fill-opacity:1;stroke-width:354.008;stroke-dasharray:none" id="ZU510" width="362.83524" height="442.00778" x="4076.7817" y="-400.0076"/>
      <rect style="font-variation-settings:'wdth' 70,'wght' 600;display:inline;fill:#454c7f;fill-opacity:1;stroke-width:323.669;stroke-dasharray:none" id="ZU511" width="303.32101" height="441.9917" x="4439.6172" y="-400.0076"/>
      <rect style="font-variation-settings:'wdth' 70,'wght' 600;display:inline;fill:#454c7f;fill-opacity:1;stroke-width:300.173;stroke-dasharray:none" id="ZU512" width="260.89066" height="441.97565" x="4742.9385" y="-399.99152"/>
      <rect style="font-variation-settings:'wdth' 70,'wght' 600;display:inline;fill:#454c7f;fill-opacity:1;stroke-width:338.641;stroke-dasharray:none" id="ZU514" width="264.62308" height="554.58942" x="4741.0723" y="279.33682"/>
      <rect style="font-variation-settings:'wdth' 70,'wght' 600;display:inline;fill:#454c7f;fill-opacity:1;stroke-width:363.774;stroke-dasharray:none" id="ZU515" width="305.35959" height="554.58942" x="4435.7129" y="279.33682"/>
      <rect style="font-variation-settings:'wdth' 70,'wght' 600;display:inline;fill:#454c7f;fill-opacity:1;stroke-width:403.43;stroke-dasharray:none" id="ZU516" width="374.51367" height="556.14026" x="4061.1992" y="277.78616"/>
      <rect style="font-variation-settings:'wdth' 70,'wght' 600;display:inline;fill:#454c7f;fill-opacity:1;stroke-width:390.694;stroke-dasharray:none" id="ZU517" width="351.23856" height="556.14026" x="3709.9607" y="277.78616"/>
      <rect style="font-variation-settings:'wdth' 70,'wght' 600;display:inline;fill:#454c7f;fill-opacity:1;stroke-width:393.063;stroke-dasharray:none" id="ZU518" width="355.51221" height="556.14026" x="3354.4485" y="277.78616"/>
      <rect style="font-variation-settings:'wdth' 70,'wght' 600;display:inline;fill:#454c7f;fill-opacity:1;stroke-width:397.191;stroke-dasharray:none" id="ZU519" width="363.01956" height="556.14026" x="2991.429" y="277.78616"/>
      <rect style="font-variation-settings:'wdth' 70,'wght' 600;display:inline;fill:#454c7f;fill-opacity:1;stroke-width:384.874;stroke-dasharray:none" id="ZU520" width="341.80789" height="554.5896" x="2649.6211" y="279.33682"/>
      <path style="font-variation-settings:'wdth' 70,'wght' 600;display:inline;fill:#454c7f;fill-opacity:1;stroke-width:0" d="M 730.80542,690.77924 H 1165.782 V 1303.1872 H 443.13434 v -214.9066 h 287.67108 z" id="ZU524"/>
      <rect style="font-variation-settings:'wdth' 70,'wght' 600;display:inline;fill:#454c7f;fill-opacity:1;stroke-width:718.887;stroke-dasharray:none" id="ZU526" width="287.67108" height="218.64352" x="443.13434" y="690.77911"/>
      <rect style="font-variation-settings:'wdth' 70,'wght' 600;display:inline;fill:#454c7f;fill-opacity:1;stroke-width:377.227;stroke-dasharray:none" id="ZU529" width="292.7915" height="621.95325" x="126.46917" y="-226.98914"/>
      <rect style="font-variation-settings:'wdth' 70,'wght' 600;display:inline;fill:#454c7f;fill-opacity:1;stroke-width:730.118;stroke-dasharray:none" id="ZU530" width="1096.8286" height="621.95325" x="419.26068" y="-226.98914"/>
      <rect style="font-variation-settings:'wdth' 70,'wght' 600;display:inline;fill:#454c7f;fill-opacity:1;stroke-width:286.149;stroke-dasharray:none" id="ZU533" width="357.81146" height="292.84836" x="1516.0892" y="-226.98914"/>
      <path style="font-variation-settings:'wdth' 70,'wght' 600;display:inline;fill:#454c7f;fill-opacity:1;stroke-width:0" d="m 443.13434,909.42264 h 96.04506 v 178.85796 h -96.04506 v 214.9066 H 108.96828 V 690.77932 h 334.16606 z" id="ZU527"/>
      <rect style="font-variation-settings:'wdth' 70,'wght' 600;display:inline;fill:#454c7f;fill-opacity:1;stroke-width:1849.64;stroke-dasharray:none" id="ZU523" width="679.89703" height="612.4082" x="1165.782" y="690.77911"/>
      <path style="font-variation-settings:'wdth' 70,'wght' 600;fill:#4c5a5f;fill-opacity:1;stroke:none;stroke-width:45;stroke-dasharray:none;stroke-opacity:1" d="M 91.468279,-244.48939 H 1988.4102 L 1928.9627,-307.9913 14.465845,-308.003 Z" id="path485"/>
      <path style="font-variation-settings:'wdth' 70,'wght' 600;display:inline;fill:#4c5a5f;fill-opacity:1;stroke:none;stroke-width:45;stroke-dasharray:none;stroke-opacity:1" d="m 91.582119,452.62167 -0.11384,-697.11106 -77.002434,-63.51363 v 760.62469 z" id="path486"/>
      <path style="font-variation-settings:'wdth' 70,'wght' 600;fill:#4c5a5f;fill-opacity:1;stroke:none;stroke-width:45;stroke-dasharray:none;stroke-opacity:1" d="m 1988.4102,-244.48939 v -173.01824 l -59.4467,-60.86067 v 170.37915 z" id="path487"/>
      <path style="font-variation-settings:'wdth' 70,'wght' 600;fill:#4c5a5f;fill-opacity:1;stroke:none;stroke-width:45;stroke-dasharray:none;stroke-opacity:1" d="M 1988.4099,-417.50792 H 5021.329 l 73.5893,-60.86038 H 1928.9635 Z" id="path488"/>
      <path style="font-variation-settings:'wdth' 70,'wght' 600;fill:#4c5a5f;fill-opacity:1;stroke:none;stroke-width:45;stroke-dasharray:none;stroke-opacity:1" d="M 5021.329,-417.50792 V 59.507838 h 73.5893 V -478.3683 Z" id="path489"/>
      <path style="font-variation-settings:'wdth' 70,'wght' 600;fill:#4c5a5f;fill-opacity:1;stroke:none;stroke-width:45;stroke-dasharray:none;stroke-opacity:1" d="m 5021.329,261.99175 v 587.72547 l 73.5893,62.96824 V 261.99175 Z" id="path490"/>
      <path style="font-variation-settings:'wdth' 70,'wght' 600;fill:#4c5a5f;fill-opacity:1;stroke:none;stroke-width:45;stroke-dasharray:none;stroke-opacity:1" d="M 5021.3323,849.72004 H 1861.8611 l 56.9954,63.00058 3176.0618,-0.0352 z" id="path491"/>
      <path style="font-variation-settings:'wdth' 70,'wght' 600;fill:#4c5a5f;fill-opacity:1;stroke:none;stroke-width:45;stroke-dasharray:none;stroke-opacity:1" d="m 1861.8598,849.72004 v 470.70856 l 56.9967,75.9684 V 912.7201 Z" id="path492"/>
      <path style="font-variation-settings:'wdth' 70,'wght' 600;fill:#4c5a5f;fill-opacity:1;stroke:none;stroke-width:45.0896;stroke-dasharray:none;stroke-opacity:1" d="M 91.46829,1320.6872 V 633.12177 H 14.468222 v 763.27553 z" id="path493"/>
      <path style="font-variation-settings:'wdth' 70,'wght' 600;fill:#4c5a5f;fill-opacity:1;stroke:none;stroke-width:45.0896;stroke-dasharray:none;stroke-opacity:1" d="M 1861.8601,1320.6872 H 91.46829 l -77.000068,75.7101 1904.388278,-3e-4 z" id="path494"/>
    </g>
    <g id="staires_5" transform="matrix(0.02439371,0,0,0.02439371,-0.02443957,244.19953)" style="display:inline">
      <rect style="font-variation-settings:'wdth' 70,'wght' 600;display:inline;fill:#242629;fill-opacity:1;stroke-width:5.47103;stroke-dasharray:none" id="rect741" width="121.70573" height="30.000004" x="2169.0186" y="915.00031"/>
      <rect style="font-variation-settings:'wdth' 70,'wght' 600;display:inline;fill:#26282b;fill-opacity:1;stroke-width:5.47103;stroke-dasharray:none" id="rect742" width="121.70573" height="30.000004" x="2169.0186" y="945.00031"/>
      <rect style="font-variation-settings:'wdth' 70,'wght' 600;display:inline;fill:#292b2e;fill-opacity:1;stroke-width:5.47103;stroke-dasharray:none" id="rect743" width="121.70573" height="30.000004" x="2169.0186" y="975.00031"/>
      <rect style="font-variation-settings:'wdth' 70,'wght' 600;display:inline;fill:#2b2e31;fill-opacity:1;stroke-width:5.47103;stroke-dasharray:none" id="rect744" width="121.70573" height="30.000004" x="2169.0186" y="1005.0003"/>
      <rect style="font-variation-settings:'wdth' 70,'wght' 600;display:inline;fill:#2d3134;fill-opacity:1;stroke-width:5.47103;stroke-dasharray:none" id="rect745" width="121.70573" height="30.000004" x="2169.0186" y="1035.0004"/>
      <rect style="font-variation-settings:'wdth' 70,'wght' 600;display:inline;fill:#2f3437;fill-opacity:1;stroke-width:5.47103;stroke-dasharray:none" id="rect746" width="121.70573" height="30.000004" x="2169.0186" y="1065.0004"/>
      <rect style="font-variation-settings:'wdth' 70,'wght' 600;display:inline;fill:#31373a;fill-opacity:1;stroke-width:5.47103;stroke-dasharray:none" id="rect747" width="121.70573" height="30.000004" x="2169.0186" y="1095.0004"/>
      <rect style="font-variation-settings:'wdth' 70,'wght' 600;display:inline;fill:#333a3d;fill-opacity:1;stroke-width:5.47103;stroke-dasharray:none" id="rect748" width="121.70573" height="30.000004" x="2169.0186" y="1125.0004"/>
      <rect style="font-variation-settings:'wdth' 70,'wght' 600;display:inline;fill:#353c40;fill-opacity:1;stroke-width:5.47103;stroke-dasharray:none" id="rect749" width="121.70573" height="30.000004" x="2169.0186" y="1155.0004"/>
      <rect style="font-variation-settings:'wdth' 70,'wght' 600;display:inline;fill:#373e43;fill-opacity:1;stroke-width:5.47103;stroke-dasharray:none" id="rect750" width="121.70573" height="30.000004" x="2169.0186" y="1185.0004"/>
      <rect style="font-variation-settings:'wdth' 70,'wght' 600;display:inline;fill:#373e43;fill-opacity:1;stroke-width:11.2409;stroke-dasharray:none" id="rect751" width="316.78696" height="82.936996" x="1973.9358" y="1215.0042"/>
      <rect style="font-variation-settings:'wdth' 70,'wght' 600;display:inline;fill:#3a4146;fill-opacity:1;stroke-width:5.43645;stroke-dasharray:none" id="rect752" width="120.17195" height="30.000004" x="-2094.0872" y="-1214.9865" transform="scale(-1)"/>
      <rect style="font-variation-settings:'wdth' 70,'wght' 600;display:inline;fill:#3c4449;fill-opacity:1;stroke-width:5.43645;stroke-dasharray:none" id="rect753" width="120.17195" height="30.000004" x="-2094.0872" y="-1184.9865" transform="scale(-1)"/>
      <rect style="font-variation-settings:'wdth' 70,'wght' 600;display:inline;fill:#3e474c;fill-opacity:1;stroke-width:5.43645;stroke-dasharray:none" id="rect754" width="120.17195" height="30.000004" x="-2094.0872" y="-1154.9865" transform="scale(-1)"/>
      <rect style="font-variation-settings:'wdth' 70,'wght' 600;display:inline;fill:#404a4f;fill-opacity:1;stroke-width:5.43645;stroke-dasharray:none" id="rect755" width="120.17195" height="30.000004" x="-2094.0872" y="-1124.9865" transform="scale(-1)"/>
      <rect style="font-variation-settings:'wdth' 70,'wght' 600;display:inline;fill:#424d52;fill-opacity:1;stroke-width:5.43645;stroke-dasharray:none" id="rect756" width="120.17195" height="30.000004" x="-2094.0872" y="-1094.9865" transform="scale(-1)"/>
      <rect style="font-variation-settings:'wdth' 70,'wght' 600;display:inline;fill:#445055;fill-opacity:1;stroke-width:5.43645;stroke-dasharray:none" id="rect757" width="120.17195" height="30.000004" x="-2094.0872" y="-1064.9865" transform="scale(-1)"/>
      <rect style="font-variation-settings:'wdth' 70,'wght' 600;display:inline;fill:#465358;fill-opacity:1;stroke-width:5.43645;stroke-dasharray:none" id="rect758" width="120.17195" height="30.000004" x="-2094.0872" y="-1034.9865" transform="scale(-1)"/>
      <rect style="font-variation-settings:'wdth' 70,'wght' 600;display:inline;fill:#48565b;fill-opacity:1;stroke-width:5.43645;stroke-dasharray:none" id="rect759" width="120.17195" height="30.000004" x="-2094.0872" y="-1004.9865" transform="scale(-1)"/>
      <rect style="font-variation-settings:'wdth' 70,'wght' 600;display:inline;fill:#4b595e;fill-opacity:1;stroke-width:5.43645;stroke-dasharray:none" id="rect760" width="120.17195" height="30.000004" x="-2094.0872" y="-974.98645" transform="scale(-1)"/>
      <rect style="font-variation-settings:'wdth' 70,'wght' 600;display:inline;fill:#4c5a5f;fill-opacity:1;stroke-width:5.43645;stroke-dasharray:none" id="rect761" width="120.17195" height="30.000004" x="-2094.0872" y="-944.98645" transform="scale(-1)"/>
      <rect style="font-variation-settings:'wdth' 70,'wght' 600;display:inline;fill:none;fill-opacity:1;stroke:#bec3c6;stroke-width:10;stroke-linecap:butt;stroke-linejoin:miter;stroke-dasharray:none;stroke-opacity:1" id="rect762" width="69.931396" height="298.18414" x="2099.0872" y="911.82001"/>
      <rect style="font-variation-settings:'wdth' 70,'wght' 600;display:inline;fill:#000;fill-opacity:1;stroke-width:.992555;stroke-dasharray:none" id="rect763" width="120.17195" height="1.0000001" x="-2094.0872" y="-974.98645" transform="scale(-1)"/>
      <rect style="font-variation-settings:'wdth' 70,'wght' 600;display:inline;fill:#000;fill-opacity:1;stroke-width:.992555;stroke-dasharray:none" id="rect764" width="120.17195" height="1.0000001" x="-2094.0872" y="-944.98645" transform="scale(-1)"/>
      <rect style="font-variation-settings:'wdth' 70,'wght' 600;display:inline;fill:#000;fill-opacity:1;stroke-width:.992555;stroke-dasharray:none" id="rect765" width="120.17195" height="1.0000001" x="-2094.0872" y="-914.98645" transform="scale(-1)"/>
      <rect style="font-variation-settings:'wdth' 70,'wght' 600;display:inline;fill:#000;fill-opacity:1;stroke-width:.992555;stroke-dasharray:none" id="rect766" width="120.17195" height="1.0000001" x="-2094.0872" y="-1004.9865" transform="scale(-1)"/>
      <rect style="font-variation-settings:'wdth' 70,'wght' 600;display:inline;fill:#000;fill-opacity:1;stroke-width:.992555;stroke-dasharray:none" id="rect767" width="120.17195" height="1.0000001" x="-2094.0872" y="-1034.9865" transform="scale(-1)"/>
      <rect style="font-variation-settings:'wdth' 70,'wght' 600;display:inline;fill:#000;fill-opacity:1;stroke-width:.992555;stroke-dasharray:none" id="rect768" width="120.17195" height="1.0000001" x="-2094.0872" y="-1064.9865" transform="scale(-1)"/>
      <rect style="font-variation-settings:'wdth' 70,'wght' 600;display:inline;fill:#000;fill-opacity:1;stroke-width:.992555;stroke-dasharray:none" id="rect769" width="120.17195" height="1.0000001" x="-2094.0872" y="-1094.9865" transform="scale(-1)"/>
      <rect style="font-variation-settings:'wdth' 70,'wght' 600;display:inline;fill:#000;fill-opacity:1;stroke-width:.992555;stroke-dasharray:none" id="rect770" width="120.17195" height="1.0000001" x="-2094.0872" y="-1124.9865" transform="scale(-1)"/>
      <rect style="font-variation-settings:'wdth' 70,'wght' 600;display:inline;fill:#000;fill-opacity:1;stroke-width:.992555;stroke-dasharray:none" id="rect771" width="120.17195" height="1.0000001" x="-2094.0872" y="-1154.9865" transform="scale(-1)"/>
      <rect style="font-variation-settings:'wdth' 70,'wght' 600;display:inline;fill:#000;fill-opacity:1;stroke-width:.992555;stroke-dasharray:none" id="rect772" width="120.17195" height="1.0000001" x="-2094.0872" y="-1184.9865" transform="scale(-1)"/>
      <rect style="font-variation-settings:'wdth' 70,'wght' 600;display:inline;fill:#000;fill-opacity:1;stroke-width:.992555;stroke-dasharray:none" id="rect773" width="120.17195" height="1.0000001" x="-2094.0872" y="-1214.9865" transform="scale(-1)"/>
      <rect style="font-variation-settings:'wdth' 70,'wght' 600;display:inline;fill:#000;fill-opacity:1;stroke-width:.992555;stroke-dasharray:none" id="rect774" width="120.17195" height="1.0000001" x="-2294.1904" y="-1185.0004" transform="scale(-1)"/>
      <rect style="font-variation-settings:'wdth' 70,'wght' 600;display:inline;fill:#000;fill-opacity:1;stroke-width:.992555;stroke-dasharray:none" id="rect775" width="120.17195" height="1.0000001" x="-2294.1904" y="-1155.0004" transform="scale(-1)"/>
      <rect style="font-variation-settings:'wdth' 70,'wght' 600;display:inline;fill:#000;fill-opacity:1;stroke-width:.992555;stroke-dasharray:none" id="rect776" width="120.17195" height="1.0000001" x="-2294.1904" y="-1125.0004" transform="scale(-1)"/>
      <rect style="font-variation-settings:'wdth' 70,'wght' 600;display:inline;fill:#000;fill-opacity:1;stroke-width:.992555;stroke-dasharray:none" id="rect777" width="120.17195" height="1.0000001" x="-2294.1904" y="-1095.0004" transform="scale(-1)"/>
      <rect style="font-variation-settings:'wdth' 70,'wght' 600;display:inline;fill:#000;fill-opacity:1;stroke-width:.992555;stroke-dasharray:none" id="rect778" width="120.17195" height="1.0000001" x="-2294.1904" y="-1065.0004" transform="scale(-1)"/>
      <rect style="font-variation-settings:'wdth' 70,'wght' 600;display:inline;fill:#000;fill-opacity:1;stroke-width:.992555;stroke-dasharray:none" id="rect779" width="120.17195" height="1.0000001" x="-2294.1904" y="-1035.0004" transform="scale(-1)"/>
      <rect style="font-variation-settings:'wdth' 70,'wght' 600;display:inline;fill:#000;fill-opacity:1;stroke-width:.992555;stroke-dasharray:none" id="rect780" width="120.17195" height="1.0000001" x="-2294.1904" y="-1005.0003" transform="scale(-1)"/>
      <rect style="font-variation-settings:'wdth' 70,'wght' 600;display:inline;fill:#000;fill-opacity:1;stroke-width:.992555;stroke-dasharray:none" id="rect781" width="120.17195" height="1.0000001" x="-2294.1904" y="-975.00031" transform="scale(-1)"/>
      <rect style="font-variation-settings:'wdth' 70,'wght' 600;display:inline;fill:#000;fill-opacity:1;stroke-width:.992555;stroke-dasharray:none" id="rect782" width="120.17195" height="1.0000001" x="-2294.1904" y="-945.00031" transform="scale(-1)"/>
      <rect style="font-variation-settings:'wdth' 70,'wght' 600;display:inline;fill:#000;fill-opacity:1;stroke-width:.992555;stroke-dasharray:none" id="rect783" width="120.17195" height="1.0000001" x="-2294.1904" y="-915.00031" transform="scale(-1)"/>
      <path style="font-variation-settings:'wdth' 70,'wght' 600;display:inline;opacity:1;fill:none;fill-opacity:1;stroke:#bec3c6;stroke-width:5;stroke-dasharray:none;stroke-opacity:1;marker-end:url(#Triangle)" d="M 2234.1045,930.00031 V 1259.6254 H 2034.0012 V 943.98645" id="afhgafh"/>
      <path style="font-variation-settings:'wght' 700;fill:none;fill-opacity:1;stroke:#bec3c6;stroke-width:10;stroke-dasharray:none;stroke-opacity:1" d="m 2169.0183,911.82001 h 134.207" id="path784"/>
    </g>
    <g id="walls_5" transform="matrix(0.02439371,0,0,0.02439371,-0.02443957,244.19953)" style="display:inline">
      <path style="font-variation-settings:'wdth' 70,'wght' 600;display:inline;fill:none;fill-opacity:1;stroke:#bec3c6;stroke-width:35;stroke-linecap:butt;stroke-linejoin:miter;stroke-dasharray:none;stroke-opacity:1" d="M 108.96828,878.18419 H 210.86026" id="path224"/>
      <path style="font-variation-settings:'wdth' 70,'wght' 600;display:inline;fill:none;fill-opacity:1;stroke:#bec3c6;stroke-width:.85378;stroke-linecap:butt;stroke-linejoin:miter;stroke-dasharray:none;stroke-opacity:1" d="M 2.6337011,272.83773 H 5.1192244" id="path247" transform="matrix(40.994174,0,0,40.994174,1.00188,-10010.758)"/>
      <path style="font-variation-settings:'wdth' 70,'wght' 600;display:inline;fill:none;fill-opacity:1;stroke:#bec3c6;stroke-width:.85378;stroke-linecap:butt;stroke-linejoin:miter;stroke-dasharray:none;stroke-opacity:1" d="M 8.0464725,272.83773 H 13.730208" id="path248" transform="matrix(40.994174,0,0,40.994174,1.00188,-10010.758)"/>
      <path style="font-variation-settings:'wdth' 70,'wght' 600;display:inline;fill:none;fill-opacity:1;stroke:#bec3c6;stroke-width:.85378;stroke-linecap:butt;stroke-linejoin:miter;stroke-dasharray:none;stroke-opacity:1" d="m 16.657453,272.83773 h 5.840202" id="path249" transform="matrix(40.994174,0,0,40.994174,1.00188,-10010.758)"/>
      <path style="font-variation-settings:'wdth' 70,'wght' 600;display:inline;fill:none;fill-opacity:1;stroke:#bec3c6;stroke-width:.85378;stroke-linecap:butt;stroke-linejoin:miter;stroke-dasharray:none;stroke-opacity:1" d="m 42.447813,272.83773 h 4.459178" id="path268" transform="matrix(40.994174,0,0,40.994174,1.00188,-10010.758)"/>
      <path style="font-variation-settings:'wdth' 70,'wght' 600;display:inline;fill:none;fill-opacity:1;stroke:#bec3c6;stroke-width:2.43937;stroke-linecap:butt;stroke-linejoin:miter;stroke-dasharray:none;stroke-opacity:1" d="m 46.906991,262.07312 v 14.21486" id="path278" transform="matrix(40.994174,0,0,40.994174,1.00188,-10010.758)"/>
      <path style="font-variation-settings:'wdth' 70,'wght' 600;display:inline;fill:none;fill-opacity:1;stroke:#bec3c6;stroke-width:100;stroke-linecap:butt;stroke-linejoin:miter;stroke-dasharray:none;stroke-opacity:1" d="M 1923.9007,256.23093 V 597.92186" id="path285"/>
      <path style="font-variation-settings:'wdth' 70,'wght' 600;display:inline;fill:none;fill-opacity:1;stroke:#bec3c6;stroke-width:.85378;stroke-linecap:butt;stroke-linejoin:miter;stroke-dasharray:none;stroke-opacity:1" d="M 8.0464725,265.6217 H 11.500853" id="path286" transform="matrix(40.994174,0,0,40.994174,1.00188,-10010.758)"/>
      <path style="font-variation-settings:'wdth' 70,'wght' 600;display:inline;fill:none;fill-opacity:1;stroke:#bec3c6;stroke-width:.85378;stroke-linecap:butt;stroke-linejoin:miter;stroke-dasharray:none;stroke-opacity:1" d="M 14.428099,265.6217 H 31.636695" id="path287" transform="matrix(40.994174,0,0,40.994174,1.00188,-10010.758)"/>
      <path style="font-variation-settings:'wdth' 70,'wght' 600;display:inline;fill:none;fill-opacity:1;stroke:#bec3c6;stroke-width:.85378;stroke-linecap:butt;stroke-linejoin:miter;stroke-dasharray:none;stroke-opacity:1" d="m 34.563941,265.6217 h 2.51663" id="path288" transform="matrix(40.994174,0,0,40.994174,1.00188,-10010.758)"/>
      <path style="font-variation-settings:'wdth' 70,'wght' 600;display:inline;fill:none;fill-opacity:1;stroke:#bec3c6;stroke-width:.243937;stroke-linecap:butt;stroke-linejoin:miter;stroke-dasharray:none;stroke-opacity:1" d="m 36.958602,250.44995 v 15.1962" id="path289" transform="matrix(40.994174,0,0,40.994174,1.00188,-10010.758)"/>
      <path style="font-variation-settings:'wdth' 70,'wght' 600;display:inline;fill:none;fill-opacity:1;stroke:#bec3c6;stroke-width:10;stroke-linecap:butt;stroke-linejoin:miter;stroke-dasharray:none;stroke-opacity:1" d="m 443.13434,1514.1178 v 272.2894" id="path290"/>
      <path style="font-variation-settings:'wdth' 70,'wght' 600;display:inline;fill:none;fill-opacity:1;stroke:#bec3c6;stroke-width:.85378;stroke-linecap:butt;stroke-linejoin:miter;stroke-dasharray:none;stroke-opacity:1" d="m 96.243396,262.80493 h 5.904154" id="path293" transform="matrix(40.994174,0,0,40.994174,1.00188,-10010.758)"/>
      <path style="font-variation-settings:'wdth' 70,'wght' 600;display:inline;fill:none;fill-opacity:1;stroke:#bec3c6;stroke-width:.85378;stroke-linecap:butt;stroke-linejoin:miter;stroke-dasharray:none;stroke-opacity:1" d="m 70.18127,262.80493 h 5.697893" id="path294" transform="matrix(40.994174,0,0,40.994174,1.00188,-10010.758)"/>
      <path style="font-variation-settings:'wdth' 70,'wght' 600;display:inline;fill:none;fill-opacity:1;stroke:#bec3c6;stroke-width:.85378;stroke-linecap:butt;stroke-linejoin:miter;stroke-dasharray:none;stroke-opacity:1" d="m 64.18276,262.07312 -2e-6,14.21486" id="path295" transform="matrix(40.994174,0,0,40.994174,1.00188,-10010.758)"/>
      <path style="font-variation-settings:'wdth' 70,'wght' 600;display:inline;fill:none;fill-opacity:1;stroke:#bec3c6;stroke-width:35;stroke-linecap:butt;stroke-linejoin:miter;stroke-dasharray:none;stroke-opacity:1" d="m 4648.3925,762.71303 h 122.2151" id="path296"/>
      <path style="font-variation-settings:'wdth' 70,'wght' 600;display:inline;fill:none;fill-opacity:1;stroke:#bec3c6;stroke-width:.85378;stroke-linecap:butt;stroke-linejoin:miter;stroke-dasharray:none;stroke-opacity:1" d="m 78.806409,257.0116 h 5.856528" id="path297" transform="matrix(40.994174,0,0,40.994174,1.00188,-10010.758)"/>
      <path style="font-variation-settings:'wdth' 70,'wght' 600;display:inline;fill:none;fill-opacity:1;stroke:#bec3c6;stroke-width:.85378;stroke-linecap:butt;stroke-linejoin:miter;stroke-dasharray:none;stroke-opacity:1" d="m 70.18127,257.0116 h 5.697893" id="path298" transform="matrix(40.994174,0,0,40.994174,1.00188,-10010.758)"/>
      <path style="font-variation-settings:'wdth' 70,'wght' 600;display:inline;fill:none;fill-opacity:1;stroke:#bec3c6;stroke-width:.85378;stroke-linecap:butt;stroke-linejoin:miter;stroke-dasharray:none;stroke-opacity:1" d="M 67.254024,257.01133 H 64.176442 V 246.22939" id="path299" transform="matrix(40.994174,0,0,40.994174,1.00188,-10010.758)"/>
      <path style="font-variation-settings:'wdth' 70,'wght' 600;display:inline;fill:none;fill-opacity:1;stroke:#bec3c6;stroke-width:.85378;stroke-linecap:butt;stroke-linejoin:miter;stroke-dasharray:none;stroke-opacity:1" d="M 87.590183,257.0116 H 93.29565" id="path300" transform="matrix(40.994174,0,0,40.994174,1.00188,-10010.758)"/>
      <path style="font-variation-settings:'wdth' 70,'wght' 600;display:inline;fill:none;fill-opacity:1;stroke:#bec3c6;stroke-width:.85378;stroke-linecap:butt;stroke-linejoin:miter;stroke-dasharray:none;stroke-opacity:1" d="m 96.243396,257.0116 h 5.904154" id="path301" transform="matrix(40.994174,0,0,40.994174,1.00188,-10010.758)"/>
      <path style="font-variation-settings:'wdth' 70,'wght' 600;display:inline;fill:none;fill-opacity:1;stroke:#bec3c6;stroke-width:.85378;stroke-linecap:butt;stroke-linejoin:miter;stroke-dasharray:none;stroke-opacity:1" d="m 105.07479,257.0116 h 5.36507" id="path302" transform="matrix(40.994174,0,0,40.994174,1.00188,-10010.758)"/>
      <path style="font-variation-settings:'wdth' 70,'wght' 600;display:inline;fill:none;fill-opacity:1;stroke:#bec3c6;stroke-width:.85378;stroke-linecap:butt;stroke-linejoin:miter;stroke-dasharray:none;stroke-opacity:1" d="m 113.3671,257.0116 h 2.98128" id="path303" transform="matrix(40.994174,0,0,40.994174,1.00188,-10010.758)"/>
      <path style="font-variation-settings:'wdth' 70,'wght' 600;display:inline;fill:none;fill-opacity:1;stroke:#bec3c6;stroke-width:.85378;stroke-linecap:butt;stroke-linejoin:miter;stroke-dasharray:none;stroke-opacity:1" d="m 119.27563,257.0116 h 2.76188" id="path304" transform="matrix(40.994174,0,0,40.994174,1.00188,-10010.758)"/>
      <path style="font-variation-settings:'wdth' 70,'wght' 600;display:inline;fill:none;fill-opacity:1;stroke:#bec3c6;stroke-width:.243937;stroke-linecap:butt;stroke-linejoin:miter;stroke-dasharray:none;stroke-opacity:1" d="m 72.962768,246.22939 10e-7,6.34255" id="path305" transform="matrix(40.994174,0,0,40.994174,1.00188,-10010.758)"/>
      <path style="font-variation-settings:'wdth' 70,'wght' 600;display:inline;fill:none;fill-opacity:1;stroke:#bec3c6;stroke-width:.243937;stroke-linecap:butt;stroke-linejoin:miter;stroke-dasharray:none;stroke-opacity:1" d="m 81.722802,246.22939 10e-7,10.78221" id="path306" transform="matrix(40.994174,0,0,40.994174,1.00188,-10010.758)"/>
      <path style="font-variation-settings:'wdth' 70,'wght' 600;display:inline;fill:none;fill-opacity:1;stroke:#bec3c6;stroke-width:.243937;stroke-linecap:butt;stroke-linejoin:miter;stroke-dasharray:none;stroke-opacity:1" d="M 90.530316,246.22939 V 257.0116" id="path307" transform="matrix(40.994174,0,0,40.994174,1.00188,-10010.758)"/>
      <path style="font-variation-settings:'wdth' 70,'wght' 600;display:inline;fill:none;fill-opacity:1;stroke:#bec3c6;stroke-width:10;stroke-linecap:butt;stroke-linejoin:miter;stroke-dasharray:none;stroke-opacity:1" d="m 4076.7816,437.47292 v 87.74733" id="path308"/>
      <path style="font-variation-settings:'wdth' 70,'wght' 600;display:inline;fill:none;fill-opacity:1;stroke:#bec3c6;stroke-width:.243937;stroke-linecap:butt;stroke-linejoin:miter;stroke-dasharray:none;stroke-opacity:1" d="m 108.27429,254.87112 v 2.14048" id="path310" transform="matrix(40.994174,0,0,40.994174,1.00188,-10010.758)"/>
      <path style="font-variation-settings:'wdth' 70,'wght' 600;display:inline;fill:none;fill-opacity:1;stroke:#bec3c6;stroke-width:.243937;stroke-linecap:butt;stroke-linejoin:miter;stroke-dasharray:none;stroke-opacity:1" d="M 115.67342,246.22939 V 257.0116" id="path311" transform="matrix(40.994174,0,0,40.994174,1.00188,-10010.758)"/>
      <path style="font-variation-settings:'wdth' 70,'wght' 600;display:inline;fill:none;fill-opacity:1;stroke:#bec3c6;stroke-width:.243937;stroke-linecap:butt;stroke-linejoin:miter;stroke-dasharray:none;stroke-opacity:1" d="m 72.947613,262.85248 v 13.4355" id="path312" transform="matrix(40.994174,0,0,40.994174,1.00188,-10010.758)"/>
      <path style="font-variation-settings:'wdth' 70,'wght' 600;display:inline;fill:none;fill-opacity:1;stroke:#bec3c6;stroke-width:.243937;stroke-linecap:butt;stroke-linejoin:miter;stroke-dasharray:none;stroke-opacity:1" d="m 81.803007,262.80493 v 13.48305" id="path313" transform="matrix(40.994174,0,0,40.994174,1.00188,-10010.758)"/>
      <path style="font-variation-settings:'wdth' 70,'wght' 600;display:inline;fill:none;fill-opacity:1;stroke:#bec3c6;stroke-width:10;stroke-linecap:butt;stroke-linejoin:miter;stroke-dasharray:none;stroke-opacity:1" d="M 3709.9608,762.71303 V 1315.4397" id="path314"/>
      <path style="font-variation-settings:'wdth' 70,'wght' 600;display:inline;fill:none;fill-opacity:1;stroke:#bec3c6;stroke-width:.243937;stroke-linecap:butt;stroke-linejoin:miter;stroke-dasharray:none;stroke-opacity:1" d="m 108.17906,262.80493 v 13.48305" id="path315" transform="matrix(40.994174,0,0,40.994174,1.00188,-10010.758)"/>
      <path style="font-variation-settings:'wdth' 70,'wght' 600;display:inline;fill:none;fill-opacity:1;stroke:#bec3c6;stroke-width:.243937;stroke-linecap:butt;stroke-linejoin:miter;stroke-dasharray:none;stroke-opacity:1" d="M 36.958602,257.59361 H 40.02381" id="path316" transform="matrix(40.994174,0,0,40.994174,1.00188,-10010.758)"/>
      <path style="font-variation-settings:'wdth' 70,'wght' 600;display:inline;fill:none;fill-opacity:1;stroke:#bec3c6;stroke-width:.243937;stroke-linecap:butt;stroke-linejoin:miter;stroke-dasharray:none;stroke-opacity:1" d="m 42.951056,257.59361 h 3.95558" id="path317" transform="matrix(40.994174,0,0,40.994174,1.00188,-10010.758)"/>
      <path style="font-variation-settings:'wdth' 70,'wght' 600;display:inline;fill:none;fill-opacity:1;stroke:#bec3c6;stroke-width:.243937;stroke-linecap:butt;stroke-linejoin:miter;stroke-dasharray:none;stroke-opacity:1" d="m 47.52578,257.31608 h 4.944401" id="path318" transform="matrix(40.994174,0,0,40.994174,1.00188,-10010.758)"/>
      <path style="font-variation-settings:'wdth' 70,'wght' 600;display:inline;fill:none;fill-opacity:1;stroke:#bec3c6;stroke-width:.243937;stroke-linecap:butt;stroke-linejoin:miter;stroke-dasharray:none;stroke-opacity:1" d="m 47.112369,253.20243 h 6.184635" id="path319" transform="matrix(40.994174,0,0,40.994174,1.00188,-10010.758)"/>
      <path style="font-variation-settings:'wdth' 70,'wght' 600;display:inline;fill:none;fill-opacity:1;stroke:#bec3c6;stroke-width:.243937;stroke-linecap:butt;stroke-linejoin:miter;stroke-dasharray:none;stroke-opacity:1" d="m 59.69372,253.20243 h 4.572331" id="path320" transform="matrix(40.994174,0,0,40.994174,1.00188,-10010.758)"/>
      <path style="font-variation-settings:'wdth' 70,'wght' 600;display:inline;fill:none;fill-opacity:1;stroke:#bec3c6;stroke-width:.243937;stroke-linecap:butt;stroke-linejoin:miter;stroke-dasharray:none;stroke-opacity:1" d="m 55.11009,253.20243 h 2.819466" id="path321" transform="matrix(40.994174,0,0,40.994174,1.00188,-10010.758)"/>
      <path style="font-variation-settings:'wdth' 70,'wght' 600;display:inline;fill:none;fill-opacity:1;stroke:#bec3c6;stroke-width:.243937;stroke-linecap:butt;stroke-linejoin:miter;stroke-dasharray:none;stroke-opacity:1" d="m 54.833183,257.31608 h 3.100586" id="path322" transform="matrix(40.994174,0,0,40.994174,1.00188,-10010.758)"/>
      <path style="font-variation-settings:'wdth' 70,'wght' 600;display:inline;fill:none;fill-opacity:1;stroke:#bec3c6;stroke-width:.243937;stroke-linecap:butt;stroke-linejoin:miter;stroke-dasharray:none;stroke-opacity:1" d="m 60.285423,257.31608 h 4.282942" id="path323" transform="matrix(40.994174,0,0,40.994174,1.00188,-10010.758)"/>
      <path style="font-variation-settings:'wdth' 70,'wght' 600;display:inline;fill:none;fill-opacity:1;stroke:#bec3c6;stroke-width:10;stroke-linecap:butt;stroke-linejoin:miter;stroke-dasharray:none;stroke-opacity:1" d="M 2301.3339,83.212458 V 536.06116" id="path324"/>
      <path style="font-variation-settings:'wdth' 70,'wght' 600;display:inline;fill:none;fill-opacity:1;stroke:#bec3c6;stroke-width:.609843;stroke-linecap:butt;stroke-linejoin:miter;stroke-dasharray:none;stroke-opacity:1" d="m 61.445598,266.52161 h 2.005677 v 5.48057 h -7.291502 v -5.48057 h 1.931258" id="path325" transform="matrix(40.994174,0,0,40.994174,1.00188,-10010.758)"/>
      <path style="font-variation-settings:'wdth' 70,'wght' 600;display:inline;fill:none;fill-opacity:1;stroke:#bec3c6;stroke-width:.85126;stroke-linecap:butt;stroke-linejoin:miter;stroke-dasharray:none;stroke-opacity:1" d="M 121.98328,15.693265 V 3.5140592 H 49.068687 V 7.7221679 H 2.9318222 V 24.987208" id="path327" transform="matrix(41.115504,0,0,41.115504,-11.575065,-61.269892)"/>
      <path style="font-variation-settings:'wdth' 70,'wght' 600;display:inline;fill:none;fill-opacity:1;stroke:#bec3c6;stroke-width:.85126;stroke-linecap:butt;stroke-linejoin:miter;stroke-dasharray:none;stroke-opacity:1" d="M 2.9318222,27.905817 V 44.938696 H 45.139552 V 33.483953 H 121.98328 V 18.611874" id="path328" transform="matrix(41.115504,0,0,41.115504,-11.575065,-61.269892)"/>
      <path style="font-variation-settings:'wdth' 70,'wght' 600;display:inline;fill:none;fill-opacity:1;stroke:#bec3c6;stroke-width:35;stroke-linecap:butt;stroke-linejoin:miter;stroke-dasharray:none;stroke-opacity:1" d="m 2632.1211,762.71303 h 125.904" id="path329"/>
      <path style="font-variation-settings:'wdth' 70,'wght' 600;display:inline;fill:none;fill-opacity:1;stroke:#bec3c6;stroke-width:10;stroke-linecap:butt;stroke-linejoin:miter;stroke-dasharray:none;stroke-opacity:1" d="m 730.80543,1173.9994 v 200.4025" id="path331"/>
      <path style="font-variation-settings:'wdth' 70,'wght' 600;opacity:1;fill:#bec3c6;fill-opacity:1;stroke-width:0" d="m 539.1794,1576.4988 h 169.20902 v 14.0131 h 82.8506 v -233.2726 h -65.43138 v 30.4056 H 539.1794 Z" id="path332"/>
      <path style="font-variation-settings:'wdth' 70,'wght' 600;display:inline;fill:none;fill-opacity:1;stroke:#bec3c6;stroke-width:10;stroke-linecap:butt;stroke-linejoin:miter;stroke-dasharray:none;stroke-opacity:1" d="M 548.58594,1571.5007 H 443.13434" id="path333"/>
      <path style="font-variation-settings:'wdth' 70,'wght' 600;display:inline;fill:none;fill-opacity:1;stroke:#bec3c6;stroke-width:35;stroke-linecap:butt;stroke-linejoin:miter;stroke-dasharray:none;stroke-opacity:1" d="m 3231.6055,762.71303 h 240.0836" id="path334"/>
      <path style="font-variation-settings:'wdth' 70,'wght' 600;display:inline;fill:none;fill-opacity:1;stroke:#bec3c6;stroke-width:35;stroke-linecap:butt;stroke-linejoin:miter;stroke-dasharray:none;stroke-opacity:1" d="M 3591.6891,762.71303 H 3825.58" id="path335"/>
      <path style="font-variation-settings:'wdth' 70,'wght' 600;display:inline;fill:none;fill-opacity:1;stroke:#bec3c6;stroke-width:35;stroke-linecap:butt;stroke-linejoin:miter;stroke-dasharray:none;stroke-opacity:1" d="m 4890.6076,762.71303 h 115.0877" id="path336"/>
      <path style="font-variation-settings:'wdth' 70,'wght' 600;display:inline;fill:none;fill-opacity:1;stroke:#bec3c6;stroke-width:10;stroke-linecap:butt;stroke-linejoin:miter;stroke-dasharray:none;stroke-opacity:1" d="M 419.26067,256.23093 V 879.1865" id="path337"/>
      <path style="font-variation-settings:'wdth' 70,'wght' 600;display:inline;fill:none;fill-opacity:1;stroke:#bec3c6;stroke-width:35;stroke-linecap:butt;stroke-linejoin:miter;stroke-dasharray:none;stroke-opacity:1" d="m 1043.2746,1173.9994 h 577.8403" id="path338"/>
      <path style="font-variation-settings:'wdth' 70,'wght' 600;display:inline;fill:none;fill-opacity:1;stroke:#bec3c6;stroke-width:10;stroke-linecap:butt;stroke-linejoin:miter;stroke-dasharray:none;stroke-opacity:1" d="m 2992.0503,432.81502 v 92.40523" id="path339"/>
      <path style="font-variation-settings:'wdth' 70,'wght' 600;display:inline;fill:none;fill-opacity:1;stroke:#bec3c6;stroke-width:10;stroke-linecap:butt;stroke-linejoin:miter;stroke-dasharray:none;stroke-opacity:1" d="M 4741.0724,762.71303 V 1315.4397" id="path341"/>
      <path style="font-variation-settings:'wdth' 70,'wght' 600;display:inline;fill:none;fill-opacity:1;stroke:#bec3c6;stroke-width:10;stroke-linecap:butt;stroke-linejoin:miter;stroke-dasharray:none;stroke-opacity:1" d="M 4076.7816,83.212423 V 341.37246" id="path350"/>
      <path style="font-variation-settings:'wdth' 70,'wght' 600;display:inline;fill:none;fill-opacity:1;stroke:#bec3c6;stroke-width:10;stroke-linecap:butt;stroke-linejoin:miter;stroke-dasharray:none;stroke-opacity:1" d="M 4439.617,83.212423 V 341.37246" id="path351"/>
      <path style="font-variation-settings:'wdth' 70,'wght' 600;display:inline;fill:none;fill-opacity:1;stroke:#bec3c6;stroke-width:35;stroke-linecap:butt;stroke-linejoin:miter;stroke-dasharray:none;stroke-opacity:1" d="m 4308.4562,762.71303 h 219.9363" id="path352"/>
      <path style="font-variation-settings:'wdth' 70,'wght' 600;display:inline;fill:none;fill-opacity:1;stroke:#bec3c6;stroke-width:10;stroke-linecap:butt;stroke-linejoin:miter;stroke-dasharray:none;stroke-opacity:1" d="M 4061.1992,762.71303 V 1315.4397" id="path353"/>
      <path style="font-variation-settings:'wdth' 70,'wght' 600;display:inline;fill:none;fill-opacity:1;stroke:#bec3c6;stroke-width:10;stroke-linecap:butt;stroke-linejoin:miter;stroke-dasharray:none;stroke-opacity:1" d="m 443.13434,1171.1175 v 251.43" id="path357"/>
      <path style="font-variation-settings:'wdth' 70,'wght' 600;display:inline;fill:none;fill-opacity:1;stroke:#bec3c6;stroke-width:10;stroke-linecap:butt;stroke-linejoin:miter;stroke-dasharray:none;stroke-opacity:1" d="M 548.58594,1392.6427 H 443.13434" id="path358"/>
      <rect style="font-variation-settings:'wdth' 70,'wght' 600;fill:#bec3c6;fill-opacity:1;stroke:#d6d7de;stroke-width:0" id="rect358" width="323.87247" height="163.19307" x="2290.7253" y="1152.2467"/>
      <rect style="font-variation-settings:'wdth' 70,'wght' 600;fill:#bec3c6;fill-opacity:1;stroke:#d6d7de;stroke-width:0" id="rect359" width="147.05864" height="141.44034" x="1826.8566" y="1173.9994"/>
    </g>
    <g id="icons_5" transform="matrix(0.02439371,0,0,0.02439371,-0.02443957,244.19953)" style="display:inline">
      <path d="m 2449.2988,284.88611 v -31.86527 h -10.1036 v -32.25391 q 0,-3.56217 2.5583,-6.12046 2.5583,-2.55829 6.1205,-2.55829 h 19.9482 q 3.5621,0 6.1204,2.55829 2.5583,2.55829 2.5583,6.12046 v 32.25391 h -10.1036 v 31.86527 z m 8.5596,-82.6425 q -3.6891,0 -6.1891,-2.5544 -2.5,-2.55454 -2.5,-6.11399 0,-3.68912 2.4896,-6.18912 2.4899,-2.5 6.1788,-2.5 3.6891,0 6.1891,2.48964 2.5,2.48976 2.5,6.17875 0,3.55959 -2.4896,6.12436 -2.4897,2.56476 -6.1788,2.56476 z" id="path344" style="fill:#fff;fill-opacity:.798742;stroke-width:.129534;filter:url(#filter17)"/>
      <path d="m 2145.7669,282.41971 v -30.05182 h -14.7668 l 14.2098,-39.44586 q 1.121,-2.89831 3.8366,-4.58886 2.7155,-1.69067 5.7878,-1.69067 3.0723,0 5.7878,1.69067 2.7156,1.69055 3.8542,4.57785 l 14.1922,39.45687 h -14.7668 v 30.05182 z m 9.0778,-82.6425 q -3.6892,0 -6.1892,-2.55039 -2.5,-2.55039 -2.5,-6.118 0,-3.68912 2.4897,-6.18912 2.4899,-2.5 6.1787,-2.5 3.6892,0 6.1892,2.48963 2.5,2.48977 2.5,6.114 0,3.62435 -2.4897,6.18912 -2.4896,2.56476 -6.1787,2.56476 z" id="path345" style="fill:#fff;fill-opacity:.803459;stroke-width:.129534;filter:url(#filter15)"/>
      <g id="g348" style="filter:url(#filter65)">
        <rect style="font-variation-settings:'wdth' 70,'wght' 600;fill:none;fill-opacity:1;stroke:#d5d6dd;stroke-width:4.78791;stroke-linejoin:miter;stroke-dasharray:none;stroke-opacity:1" id="rect347" width="95.212135" height="95.212151" x="2405.0667" y="979.80487" ry="9.1410179"/>
        <path d="m 2427.7505,1062.6135 h 12.6169 v -23.8318 h 6.2306 v -17.757 c 0,-2.6337 -0.8992,-4.8497 -2.6976,-6.6481 -1.7985,-1.7985 -4.0665,-2.6977 -6.804,-2.6977 h -6.2306 c -2.7375,0 -4.9794,0.8992 -6.7258,2.6977 -1.7466,1.7984 -2.6199,4.0144 -2.6199,6.6481 v 17.757 h 6.2304 z m 6.1958,-54.9845 c 2.1478,0 3.9626,-0.7033 5.4445,-2.1098 1.4819,-1.4064 2.2228,-3.2356 2.2228,-5.4875 0,-2.148 -0.7292,-3.93697 -2.1877,-5.3669 -1.4583,-1.42987 -3.2615,-2.1448 -5.4096,-2.1448 -2.1481,0 -3.937,0.70327 -5.3669,2.1098 -1.4299,1.4064 -2.1449,3.18367 -2.1449,5.3318 0,2.2518 0.7033,4.0926 2.11,5.5225 1.4064,1.4299 3.1837,2.1449 5.3318,2.1449 z m 28.3838,9.9689 h 20.0934 l -9.9688,-16.1994 z m 10.1246,35.6697 9.9688,-16.1993 h -20.0934 z" id="path348" style="fill:#d5d6dd;fill-opacity:1;stroke-width:0;stroke-dasharray:none"/>
      </g>
    </g>
    <path id="roomNames_5" d="m 373.2767,155.26188 q -4.992,0 -9.024,-1.152 -3.936,-1.152 -7.008,-3.072 -3.072,-1.92 -5.472,-4.32 l 6.336,-8.928 q 2.784,2.496 6.048,4.32 3.264,1.728 7.104,1.728 3.072,0 5.376,-1.056 2.304,-1.152 3.552,-3.264 1.344,-2.112 1.344,-5.184 0,-4.608 -2.688,-7.008 -2.688,-2.4 -6.912,-2.4 -2.592,0 -4.416,0.672 -1.824,0.672 -4.608,2.4 l -6.336,-4.032 1.728,-30.816 h 34.56 v 11.904 h -22.368 l -1.056,11.424 q 1.824,-0.768 3.36,-1.056 1.536,-0.384 3.456,-0.384 5.28,0 9.696,2.016 4.416,2.016 7.008,6.24 2.688,4.224 2.688,10.656 0,6.816 -3.168,11.616 -3.072,4.704 -8.16,7.2 -5.088,2.496 -11.04,2.496 z m 30.52799,-1.152 v -8.736 q 7.68,-6.816 13.632,-12.768 6.048,-5.952 9.408,-11.04 3.456,-5.088 3.456,-9.312 0,-4.512 -2.304,-6.816 -2.304,-2.4 -6.336,-2.4 -3.264,0 -5.952,1.92 -2.592,1.824 -4.896,4.32 l -7.392,-7.296 q 4.416,-4.992 9.024,-7.488 4.704,-2.496 11.136,-2.496 5.952,0 10.464,2.4 4.608,2.4 7.104,6.72 2.592,4.32 2.592,10.176 0,5.472 -2.976,10.752 -2.88,5.184 -7.68,10.368 -4.8,5.184 -10.176,10.56 2.304,-0.288 5.184,-0.48 2.88,-0.288 4.992,-0.288 h 13.632 v 11.904 z m 75.35998,0 v -35.232 q 0,-2.88 0.192,-6.816 0.288,-3.936 0.384,-6.816 h -0.384 q -1.152,2.496 -2.4,5.088 -1.248,2.496 -2.592,5.184 l -8.064,13.248 h 33.024 v 10.752 h -46.56 v -9.696 l 22.272,-36.672 h 17.28 v 60.96 z m -107.52004,-120 v -8.544 l 27.648,-42.144 h -25.056 v -11.904 h 42.432 v 8.544 l -27.648,42.144 h 27.936 v 11.904 z m 79.58401,1.152 q -6.144,0 -10.848,-1.632 -4.608,-1.728 -7.776,-5.28 -3.168,-3.648 -4.8,-9.216 -1.632,-5.568 -1.632,-13.2480003 V -28.48212 h 14.208 V 7.3258797 q 0,5.8560003 1.248,9.3120003 1.248,3.36 3.648,4.896 2.4,1.536 5.952,1.536 3.456,0 5.952,-1.536 2.496,-1.536 3.744,-4.896 1.344,-3.456 1.344,-9.3120003 V -28.48212 h 13.632 V 5.8858797 q 0,7.6800003 -1.632,13.2480003 -1.536,5.568 -4.704,9.216 -3.072,3.552 -7.68,5.28 -4.608,1.632 -10.656,1.632 z m -755.39053,-792.99567 q -4.992,0 -9.024,-1.152 -3.936,-1.152 -7.008,-3.072 -3.072,-1.92 -5.472,-4.32 l 6.336,-8.928 q 2.784,2.496 6.048,4.32 3.264,1.728 7.104,1.728 3.072,0 5.376,-1.056 2.304,-1.152 3.552,-3.264 1.344,-2.112 1.344,-5.184 0,-4.608 -2.688,-7.008 -2.688,-2.4 -6.912,-2.4 -2.592,0 -4.416,0.672 -1.824,0.672 -4.608,2.4 l -6.336,-4.032 1.728,-30.816 h 34.56 v 11.904 h -22.368 l -1.056,11.424 q 1.824,-0.768 3.36,-1.056 1.536,-0.384 3.456,-0.384 5.28,0 9.696,2.016 4.416,2.016 7.008,6.24 2.688,4.224 2.688,10.656 0,6.816 -3.168,11.616 -3.072,4.704 -8.16,7.2 -5.088,2.496 -11.04,2.496 z m 30.52799,-1.152 v -8.736 q 7.68,-6.816 13.632,-12.768 6.048,-5.952 9.408,-11.04 3.456,-5.088 3.456,-9.312 0,-4.512 -2.304,-6.816 -2.304,-2.4 -6.336,-2.4 -3.264,0 -5.952,1.92 -2.592,1.824 -4.896,4.32 l -7.392,-7.296 q 4.416,-4.992 9.024,-7.488 4.704,-2.496 11.136,-2.496 5.952,0 10.464,2.4 4.608,2.4 7.104,6.72 2.592,4.32 2.592,10.176 0,5.472 -2.976,10.752 -2.88,5.184 -7.68,10.368 -4.8,5.184 -10.176,10.56 2.304,-0.288 5.184,-0.48 2.88,-0.288 4.992,-0.288 h 13.632 v 11.904 z m 69.11998,1.152 q -6.048,0 -10.464,-2.208 -4.416,-2.208 -7.392,-5.088 l 7.488,-8.448 q 1.536,1.728 4.128,3.072 2.688,1.248 5.28,1.248 3.648,0 6.432,-2.016 2.88,-2.016 4.512,-6.72 1.728,-4.8 1.728,-12.864 0,-7.584 -1.44,-11.808 -1.344,-4.32 -3.648,-6.048 -2.208,-1.824 -4.8,-1.824 -2.016,0 -3.84,1.056 -1.728,1.056 -2.784,3.168 -1.056,2.112 -1.056,5.664 0,3.168 1.056,5.184 1.056,1.92 2.88,2.784 1.824,0.864 4.128,0.864 2.4,0 4.896,-1.44 2.496,-1.536 4.512,-5.088 l 0.672,9.216 q -2.304,3.36 -6.048,5.376 -3.744,1.92 -6.816,1.92 -5.184,0 -9.312,-2.016 -4.128,-2.016 -6.528,-6.144 -2.304,-4.224 -2.304,-10.656 0,-6.336 2.784,-10.944 2.784,-4.608 7.392,-7.008 4.608,-2.496 10.08,-2.496 4.512,0 8.64,1.728 4.128,1.728 7.296,5.376 3.264,3.648 5.184,9.408 2.016,5.664 2.016,13.728 0,8.544 -2.112,14.784 -2.016,6.24 -5.472,10.272 -3.456,4.032 -7.872,6.048 -4.416,1.92 -9.216,1.92 z m -101.28004,-121.152 v -8.544 l 27.648,-42.144 h -25.056 v -11.904 h 42.432 v 8.544 l -27.648,42.144 h 27.936 v 11.904 z m 79.58401,1.152 q -6.144,0 -10.848,-1.632 -4.608,-1.728 -7.776,-5.28 -3.168,-3.648 -4.8,-9.216 -1.632,-5.568 -1.632,-13.248 v -34.368 h 14.208 v 35.808 q 0,5.856 1.248,9.312 1.248,3.36 3.648,4.896 2.4,1.536 5.952,1.536 3.456,0 5.952,-1.536 2.496,-1.536 3.744,-4.896 1.344,-3.456 1.344,-9.312 v -35.808 h 13.632 v 34.368 q 0,7.68 -1.632,13.248 -1.536,5.568 -4.704,9.216 -3.072,3.552 -7.68,5.28 -4.608,1.632 -10.656,1.632 z m 3534.76315,592.64407 q -4.992,0 -9.024,-1.152 -3.936,-1.152 -7.008,-3.072 -3.072,-1.92 -5.472,-4.32 l 6.336,-8.928 q 2.784,2.496 6.048,4.32 3.264,1.728 7.104,1.728 3.072,0 5.376,-1.056 2.304,-1.152 3.552,-3.264 1.344,-2.112 1.344,-5.184 0,-4.608 -2.688,-7.008 -2.688,-2.4 -6.912,-2.4 -2.592,0 -4.416,0.672 -1.824,0.672 -4.608,2.4 l -6.336,-4.032 1.728,-30.816 h 34.56 v 11.904 h -22.368 l -1.056,11.424 q 1.824,-0.768 3.36,-1.056 1.536,-0.384 3.456,-0.384 5.28,0 9.696,2.016 4.416,2.016 7.008,6.24 2.688,4.224 2.688,10.656 0,6.816 -3.168,11.616 -3.072,4.704 -8.16,7.2 -5.088,2.496 -11.04,2.496 z m 33.696,-1.152 v -11.424 h 13.248 v -35.232 h -11.424 v -8.736 q 4.992,-0.96 8.448,-2.304 3.552,-1.344 6.72,-3.264 h 10.368 v 49.536 h 11.424 v 11.424 z m 58.368,0 q 0.48,-7.584 1.536,-13.92 1.056,-6.432 2.976,-12.192 2.016,-5.76 5.088,-11.328 3.072,-5.568 7.584,-11.616 h -27.36 v -11.904 h 42.432 v 8.64 q -5.376,6.528 -8.832,12.192 -3.36,5.664 -5.184,11.52 -1.824,5.856 -2.688,12.768 -0.864,6.912 -1.344,15.84 z m -93.6961,-120 v -8.544 l 27.648,-42.144 h -25.056 v -11.904 h 42.432 v 8.544 l -27.648,42.144 h 27.936 v 11.904 z m 79.5841,1.152 q -6.144,0 -10.848,-1.632 -4.608,-1.728 -7.776,-5.28 -3.168,-3.648 -4.8,-9.216 -1.632,-5.568 -1.632,-13.248 v -34.368 h 14.208 v 35.808 q 0,5.856 1.248,9.312 1.248,3.36 3.648,4.896 2.4,1.536 5.952,1.536 3.456,0 5.952,-1.536 2.496,-1.536 3.744,-4.896 1.344,-3.456 1.344,-9.312 v -35.808 h 13.632 v 34.368 q 0,7.68 -1.632,13.248 -1.536,5.568 -4.704,9.216 -3.072,3.552 -7.68,5.28 -4.608,1.632 -10.656,1.632 z m 284.636,120 q -4.992,0 -9.024,-1.152 -3.936,-1.152 -7.008,-3.072 -3.072,-1.92 -5.472,-4.32 l 6.336,-8.928 q 2.784,2.496 6.048,4.32 3.264,1.728 7.104,1.728 3.072,0 5.376,-1.056 2.304,-1.152 3.552,-3.264 1.344,-2.112 1.344,-5.184 0,-4.608 -2.688,-7.008 -2.688,-2.4 -6.912,-2.4 -2.592,0 -4.416,0.672 -1.824,0.672 -4.608,2.4 l -6.336,-4.032 1.728,-30.816 h 34.56 v 11.904 h -22.368 l -1.056,11.424 q 1.824,-0.768 3.36,-1.056 1.536,-0.384 3.456,-0.384 5.28,0 9.696,2.016 4.416,2.016 7.008,6.24 2.688,4.224 2.688,10.656 0,6.816 -3.168,11.616 -3.072,4.704 -8.16,7.2 -5.088,2.496 -11.04,2.496 z m 33.696,-1.152 v -11.424 h 13.248 v -35.232 h -11.424 v -8.736 q 4.992,-0.96 8.448,-2.304 3.552,-1.344 6.72,-3.264 h 10.368 v 49.536 h 11.424 v 11.424 z m 70.944,1.152 q -4.416,0 -8.544,-1.728 -4.128,-1.728 -7.392,-5.376 -3.264,-3.648 -5.184,-9.312 -1.92,-5.76 -1.92,-13.824 0,-8.544 2.016,-14.784 2.016,-6.24 5.472,-10.272 3.456,-4.032 7.872,-5.952 4.416,-2.016 9.312,-2.016 6.048,0 10.464,2.208 4.416,2.112 7.296,5.088 l -7.392,8.448 q -1.632,-1.728 -4.224,-2.976 -2.592,-1.344 -5.28,-1.344 -3.456,0 -6.432,2.016 -2.88,2.016 -4.608,6.816 -1.632,4.704 -1.632,12.768 0,7.584 1.344,11.904 1.44,4.224 3.744,6.048 2.304,1.728 4.8,1.728 2.112,0 3.84,-1.056 1.728,-1.056 2.784,-3.168 1.056,-2.208 1.056,-5.664 0,-3.264 -1.056,-5.184 -1.056,-1.92 -2.88,-2.784 -1.728,-0.864 -4.032,-0.864 -2.4,0 -4.992,1.44 -2.496,1.44 -4.512,5.088 l -0.672,-9.216 q 2.4,-3.552 6.144,-5.376 3.744,-1.92 6.72,-1.92 5.184,0 9.312,2.016 4.128,2.016 6.432,6.24 2.4,4.128 2.4,10.56 0,6.336 -2.784,10.944 -2.688,4.608 -7.296,7.104 -4.608,2.4 -10.176,2.4 z m -106.2721,-121.152 v -8.544 l 27.648,-42.144 h -25.056 v -11.904 h 42.432 v 8.544 l -27.648,42.144 h 27.936 v 11.904 z m 79.5841,1.152 q -6.144,0 -10.848,-1.632 -4.608,-1.728 -7.776,-5.28 -3.168,-3.648 -4.8,-9.216 -1.632,-5.568 -1.632,-13.248 v -34.368 h 14.208 v 35.808 q 0,5.856 1.248,9.312 1.248,3.36 3.648,4.896 2.4,1.536 5.952,1.536 3.456,0 5.952,-1.536 2.496,-1.536 3.744,-4.896 1.344,-3.456 1.344,-9.312 v -35.808 h 13.632 v 34.368 q 0,7.68 -1.632,13.248 -1.536,5.568 -4.704,9.216 -3.072,3.552 -7.68,5.28 -4.608,1.632 -10.656,1.632 z m -794.0114,120 q -4.992,0 -9.024,-1.152 -3.936,-1.152 -7.008,-3.072 -3.072,-1.92 -5.472,-4.32 l 6.336,-8.928 q 2.784,2.496 6.048,4.32 3.264,1.728 7.104,1.728 3.072,0 5.376,-1.056 2.304,-1.152 3.552,-3.264 1.344,-2.112 1.344,-5.184 0,-4.608 -2.688,-7.008 -2.688,-2.4 -6.912,-2.4 -2.592,0 -4.416,0.672 -1.824,0.672 -4.608,2.4 l -6.336,-4.032 1.728,-30.816 h 34.56 v 11.904 h -22.368 l -1.056,11.424 q 1.824,-0.768 3.36,-1.056 1.536,-0.384 3.456,-0.384 5.28,0 9.696,2.016 4.416,2.016 7.008,6.24 2.688,4.224 2.688,10.656 0,6.816 -3.168,11.616 -3.072,4.704 -8.16,7.2 -5.088,2.496 -11.04,2.496 z m 33.696,-1.152 v -11.424 h 13.248 v -35.232 h -11.424 v -8.736 q 4.992,-0.96 8.448,-2.304 3.552,-1.344 6.72,-3.264 h 10.368 v 49.536 h 11.424 v 11.424 z m 69.216,1.152 q -6.048,0 -10.944,-2.112 -4.8,-2.112 -7.584,-5.856 -2.688,-3.84 -2.688,-8.736 0,-3.744 1.344,-6.432 1.44,-2.784 3.744,-4.896 2.4,-2.112 5.28,-3.648 v -0.384 q -3.456,-2.688 -5.856,-6.144 -2.304,-3.456 -2.304,-8.256 0,-5.184 2.496,-8.928 2.496,-3.84 6.912,-5.856 4.416,-2.016 10.08,-2.016 8.448,0 13.44,4.608 5.088,4.512 5.088,12.096 0,2.88 -1.152,5.472 -1.056,2.496 -2.88,4.512 -1.824,1.92 -3.936,3.36 v 0.384 q 2.88,1.536 5.28,3.744 2.4,2.112 3.84,5.184 1.44,2.976 1.44,7.008 0,4.8 -2.688,8.64 -2.688,3.744 -7.584,6.048 -4.8,2.208 -11.328,2.208 z m 3.84,-36.672 q 1.824,-2.112 2.784,-4.32 0.96,-2.208 0.96,-4.608 0,-2.4 -0.864,-4.128 -0.864,-1.728 -2.592,-2.688 -1.632,-1.056 -3.936,-1.056 -2.784,0 -4.8,1.824 -2.016,1.728 -2.016,5.184 0,2.496 1.344,4.224 1.344,1.728 3.648,3.072 2.4,1.344 5.472,2.496 z m -3.552,26.88 q 2.304,0 4.128,-0.768 1.92,-0.864 2.976,-2.496 1.056,-1.728 1.056,-4.32 0,-2.688 -1.632,-4.416 -1.536,-1.824 -4.512,-3.168 -2.88,-1.44 -6.72,-3.072 -2.016,1.824 -3.36,4.416 -1.344,2.496 -1.344,5.28 0,2.688 1.248,4.608 1.344,1.92 3.456,2.976 2.208,0.96 4.704,0.96 z m -104.8321,-111.36 v -8.544 l 27.648,-42.144 h -25.056 v -11.904 h 42.432 v 8.544 l -27.648,42.144 h 27.936 v 11.904 z m 79.5841,1.152 q -6.144,0 -10.848,-1.632 -4.608,-1.728 -7.776,-5.28 -3.168,-3.648 -4.8,-9.216 -1.632,-5.568 -1.632,-13.248 v -34.368 h 14.208 v 35.808 q 0,5.856 1.248,9.312 1.248,3.36 3.648,4.896 2.4,1.536 5.952,1.536 3.456,0 5.952,-1.536 2.496,-1.536 3.744,-4.896 1.344,-3.456 1.344,-9.312 v -35.808 h 13.632 v 34.368 q 0,7.68 -1.632,13.248 -1.536,5.568 -4.704,9.216 -3.072,3.552 -7.68,5.28 -4.608,1.632 -10.656,1.632 z m 978.6201,120 q -4.992,0 -9.024,-1.152 -3.936,-1.152 -7.008,-3.072 -3.072,-1.92 -5.472,-4.32 l 6.336,-8.928 q 2.784,2.496 6.048,4.32 3.264,1.728 7.104,1.728 3.072,0 5.376,-1.056 2.304,-1.152 3.552,-3.264 1.344,-2.112 1.344,-5.184 0,-4.608 -2.688,-7.008 -2.688,-2.4 -6.912,-2.4 -2.592,0 -4.416,0.672 -1.824,0.672 -4.608,2.4 l -6.336,-4.032 1.728,-30.816 h 34.56 v 11.904 h -22.368 l -1.056,11.424 q 1.824,-0.768 3.36,-1.056 1.536,-0.384 3.456,-0.384 5.28,0 9.696,2.016 4.416,2.016 7.008,6.24 2.688,4.224 2.688,10.656 0,6.816 -3.168,11.616 -3.072,4.704 -8.16,7.2 -5.088,2.496 -11.04,2.496 z m 33.696,-1.152 v -11.424 h 13.248 v -35.232 h -11.424 v -8.736 q 4.992,-0.96 8.448,-2.304 3.552,-1.344 6.72,-3.264 h 10.368 v 49.536 h 11.424 v 11.424 z m 67.68,1.152 q -4.992,0 -9.024,-1.152 -3.936,-1.152 -7.008,-3.072 -3.072,-1.92 -5.472,-4.32 l 6.336,-8.928 q 2.784,2.496 6.048,4.32 3.264,1.728 7.104,1.728 3.072,0 5.376,-1.056 2.304,-1.152 3.552,-3.264 1.344,-2.112 1.344,-5.184 0,-4.608 -2.688,-7.008 -2.688,-2.4 -6.912,-2.4 -2.592,0 -4.416,0.672 -1.824,0.672 -4.608,2.4 l -6.336,-4.032 1.728,-30.816 h 34.56 v 11.904 h -22.368 l -1.056,11.424 q 1.824,-0.768 3.36,-1.056 1.536,-0.384 3.456,-0.384 5.28,0 9.696,2.016 4.416,2.016 7.008,6.24 2.688,4.224 2.688,10.656 0,6.816 -3.168,11.616 -3.072,4.704 -8.16,7.2 -5.088,2.496 -11.04,2.496 z m -103.0081,-121.152 v -8.544 l 27.648,-42.144 h -25.056 v -11.904 h 42.432 v 8.544 l -27.648,42.144 h 27.936 v 11.904 z m 79.5841,1.152 q -6.144,0 -10.848,-1.632 -4.608,-1.728 -7.776,-5.28 -3.168,-3.648 -4.8,-9.216 -1.632,-5.568 -1.632,-13.248 v -34.368 h 14.208 v 35.808 q 0,5.856 1.248,9.312 1.248,3.36 3.648,4.896 2.4,1.536 5.952,1.536 3.456,0 5.952,-1.536 2.496,-1.536 3.744,-4.896 1.344,-3.456 1.344,-9.312 v -35.808 h 13.632 v 34.368 q 0,7.68 -1.632,13.248 -1.536,5.568 -4.704,9.216 -3.072,3.552 -7.68,5.28 -4.608,1.632 -10.656,1.632 z m 205.8871,120 q -4.992,0 -9.024,-1.152 -3.936,-1.152 -7.008,-3.072 -3.072,-1.92 -5.472,-4.32 l 6.336,-8.928 q 2.784,2.496 6.048,4.32 3.264,1.728 7.104,1.728 3.072,0 5.376,-1.056 2.304,-1.152 3.552,-3.264 1.344,-2.112 1.344,-5.184 0,-4.608 -2.688,-7.008 -2.688,-2.4 -6.912,-2.4 -2.592,0 -4.416,0.672 -1.824,0.672 -4.608,2.4 l -6.336,-4.032 1.728,-30.816 h 34.56 v 11.904 h -22.368 l -1.056,11.424 q 1.824,-0.768 3.36,-1.056 1.536,-0.384 3.456,-0.384 5.28,0 9.696,2.016 4.416,2.016 7.008,6.24 2.688,4.224 2.688,10.656 0,6.816 -3.168,11.616 -3.072,4.704 -8.16,7.2 -5.088,2.496 -11.04,2.496 z m 33.696,-1.152 v -11.424 h 13.248 v -35.232 h -11.424 v -8.736 q 4.992,-0.96 8.448,-2.304 3.552,-1.344 6.72,-3.264 h 10.368 v 49.536 h 11.424 v 11.424 z m 72.192,0 v -35.232 q 0,-2.88 0.192,-6.816 0.288,-3.936 0.384,-6.816 h -0.384 q -1.152,2.496 -2.4,5.088 -1.248,2.496 -2.592,5.184 l -8.064,13.248 h 33.024 v 10.752 h -46.56 v -9.696 l 22.272,-36.672 h 17.28 v 60.96 z m -107.5201,-120 v -8.544 l 27.648,-42.144 h -25.056 v -11.904 h 42.432 v 8.544 l -27.648,42.144 h 27.936 v 11.904 z m 79.5841,1.152 q -6.144,0 -10.848,-1.632 -4.608,-1.728 -7.776,-5.28 -3.168,-3.648 -4.8,-9.216 -1.632,-5.568 -1.632,-13.248 v -34.368 h 14.208 v 35.808 q 0,5.856 1.248,9.312 1.248,3.36 3.648,4.896 2.4,1.536 5.952,1.536 3.456,0 5.952,-1.536 2.496,-1.536 3.744,-4.896 1.344,-3.456 1.344,-9.312 v -35.808 h 13.632 v 34.368 q 0,7.68 -1.632,13.248 -1.536,5.568 -4.704,9.216 -3.072,3.552 -7.68,5.28 -4.608,1.632 -10.656,1.632 z M 1118.3042,-922.28624 q -4.992,0 -9.024,-1.152 -3.936,-1.152 -7.008,-3.072 -3.072,-1.92 -5.472,-4.32 l 6.336,-8.928 q 2.784,2.496 6.048,4.32 3.264,1.728 7.104,1.728 3.072,0 5.376,-1.056 2.304,-1.152 3.552,-3.264 1.344,-2.112 1.344,-5.184 0,-4.608 -2.688,-7.008 -2.688,-2.4 -6.912,-2.4 -2.592,0 -4.416,0.672 -1.824,0.672 -4.608,2.4 l -6.336,-4.032 1.728,-30.816 h 34.56 v 11.904 h -22.368 l -1.056,11.424 q 1.824,-0.768 3.36,-1.056 1.536,-0.384 3.456,-0.384 5.28,0 9.696,2.016 4.416,2.016 7.008,6.24 2.688,4.224 2.688,10.656 0,6.816 -3.168,11.616 -3.072,4.704 -8.16,7.2 -5.088,2.496 -11.04,2.496 z m 50.304,0 q -4.896,0 -8.928,-1.152 -3.936,-1.056 -7.008,-2.976 -3.072,-1.92 -5.28,-4.512 l 6.528,-8.928 q 2.784,2.688 6.144,4.416 3.36,1.728 7.2,1.728 4.416,0 7.104,-1.824 2.784,-1.92 2.784,-5.376 0,-2.688 -1.344,-4.608 -1.344,-2.016 -4.896,-3.072 -3.456,-1.056 -10.176,-1.056 v -9.984 q 5.472,0 8.64,-1.056 3.168,-1.056 4.416,-2.88 1.344,-1.824 1.344,-4.224 0,-3.264 -2.016,-4.992 -1.92,-1.728 -5.472,-1.728 -3.264,0 -5.952,1.44 -2.592,1.344 -5.472,3.936 l -7.104,-8.64 q 4.224,-3.648 8.928,-5.664 4.704,-2.112 10.272,-2.112 6.24,0 10.944,2.016 4.8,1.92 7.392,5.664 2.688,3.648 2.688,9.024 0,4.704 -2.688,8.064 -2.592,3.36 -7.488,5.472 v 0.384 q 3.456,1.056 6.24,3.072 2.784,1.92 4.32,4.896 1.536,2.976 1.536,6.912 0,5.664 -3.168,9.696 -3.072,3.936 -8.256,6.048 -5.088,2.016 -11.232,2.016 z m 50.6879,0 q -4.896,0 -8.928,-1.152 -3.936,-1.056 -7.008,-2.976 -3.072,-1.92 -5.28,-4.512 l 6.528,-8.928 q 2.784,2.688 6.144,4.416 3.36,1.728 7.2,1.728 4.416,0 7.104,-1.824 2.784,-1.92 2.784,-5.376 0,-2.688 -1.344,-4.608 -1.344,-2.016 -4.896,-3.072 -3.456,-1.056 -10.176,-1.056 v -9.984 q 5.472,0 8.64,-1.056 3.168,-1.056 4.416,-2.88 1.344,-1.824 1.344,-4.224 0,-3.264 -2.016,-4.992 -1.92,-1.728 -5.472,-1.728 -3.264,0 -5.952,1.44 -2.592,1.344 -5.472,3.936 l -7.104,-8.64 q 4.224,-3.648 8.928,-5.664 4.704,-2.112 10.272,-2.112 6.24,0 10.944,2.016 4.8,1.92 7.392,5.664 2.688,3.648 2.688,9.024 0,4.704 -2.688,8.064 -2.592,3.36 -7.488,5.472 v 0.384 q 3.456,1.056 6.24,3.072 2.784,1.92 4.32,4.896 1.536,2.976 1.536,6.912 0,5.664 -3.168,9.696 -3.072,3.936 -8.256,6.048 -5.088,2.016 -11.232,2.016 z m -102.624,-121.15196 v -8.544 l 27.648,-42.144 h -25.056 v -11.904 h 42.432 v 8.544 l -27.648,42.144 h 27.936 v 11.904 z m 79.584,1.152 q -6.144,0 -10.848,-1.632 -4.608,-1.728 -7.776,-5.28 -3.168,-3.648 -4.8,-9.216 -1.632,-5.568 -1.632,-13.248 v -34.368 h 14.208 v 35.808 q 0,5.856 1.248,9.312 1.248,3.36 3.648,4.896 2.4,1.536 5.952,1.536 3.456,0 5.952,-1.536 2.496,-1.536 3.744,-4.896 1.344,-3.456 1.344,-9.312 v -35.808 h 13.632 v 34.368 q 0,7.68 -1.632,13.248 -1.536,5.568 -4.704,9.216 -3.072,3.552 -7.68,5.28 -4.608,1.632 -10.656,1.632 z M 26.887064,-72.244356 q -3.328,0 -6.016,-0.768 -2.624,-0.768 -4.672,-2.048 -2.048,-1.28 -3.648,-2.88 l 4.224,-5.952 q 1.856,1.664 4.032,2.88 2.176,1.152 4.736,1.152 2.048,0 3.584,-0.704 1.536,-0.768 2.368,-2.176 0.896,-1.408 0.896,-3.456 0,-3.072 -1.792,-4.672 -1.792,-1.6 -4.608,-1.6 -1.728,0 -2.944,0.448 -1.216,0.448 -3.072,1.6 l -4.224,-2.688 1.152,-20.544004 h 23.04 v 7.936 h -14.912 l -0.704,7.616004 q 1.216,-0.512 2.24,-0.704 1.024,-0.256 2.304,-0.256 3.52,0 6.464,1.344 2.944,1.344 4.672,4.16 1.792,2.816 1.792,7.104 0,4.544 -2.112,7.744 -2.048,3.136 -5.44,4.8 -3.392,1.664 -7.36,1.664 z m 20.35199,-0.768 v -5.824 q 5.12,-4.544 9.088,-8.512 4.032,-3.968 6.272,-7.36 2.304,-3.392 2.304,-6.208004 0,-3.008 -1.536,-4.544 -1.536,-1.6 -4.224,-1.6 -2.176,0 -3.968,1.28 -1.728,1.216 -3.264,2.88 l -4.928,-4.864 q 2.944,-3.328 6.016,-4.992 3.136,-1.664 7.424,-1.664 3.968,0 6.976,1.6 3.072,1.6 4.736,4.48 1.728,2.88 1.728,6.784 0,3.648004 -1.984,7.168004 -1.92,3.456 -5.12,6.912 -3.2,3.456 -6.784,7.04 1.536,-0.192 3.456,-0.32 1.92,-0.192 3.328,-0.192 h 9.088 v 7.936 z m 49.408,0.768 q -2.944,0 -5.696,-1.152 -2.752,-1.152 -4.928,-3.584 -2.176,-2.432 -3.456,-6.208 -1.28,-3.84 -1.28,-9.216 0,-5.696 1.344,-9.856004 1.344,-4.16 3.648,-6.848 2.304,-2.688 5.248,-3.968 2.944,-1.344 6.208,-1.344 4.031996,0 6.975996,1.472 2.944,1.408 4.864,3.392 l -4.928,5.632 q -1.088,-1.152 -2.816,-1.984 -1.728,-0.896 -3.519996,-0.896 -2.304,0 -4.288,1.344 -1.92,1.344 -3.072,4.544 -1.088,3.136004 -1.088,8.512004 0,5.056 0.896,7.936 0.96,2.816 2.496,4.032 1.536,1.152 3.2,1.152 1.408,0 2.56,-0.704 1.151996,-0.704 1.855996,-2.112 0.704,-1.472 0.704,-3.776 0,-2.176 -0.704,-3.456 -0.704,-1.28 -1.919996,-1.856 -1.152,-0.576 -2.688,-0.576 -1.6,0 -3.328,0.96 -1.664,0.96 -3.008,3.392 l -0.448,-6.144 q 1.6,-2.368 4.096,-3.584 2.496,-1.28 4.48,-1.28 3.455996,0 6.207996,1.344 2.752,1.344 4.288,4.16 1.6,2.752 1.6,7.04 0,4.224 -1.856,7.296 -1.792,3.072 -4.864,4.736 -3.072,1.6 -6.783996,1.6 z m -70.84803,-80.768004 v -5.696 l 18.432,-28.096 h -16.704 v -7.936 h 28.288 v 5.696 l -18.432,28.096 h 18.624 v 7.936 z m 53.056,0.768 q -4.096,0 -7.232,-1.088 -3.072,-1.152 -5.184,-3.52 -2.112,-2.432 -3.2,-6.144 -1.088,-3.712 -1.088,-8.832 v -22.912 h 9.472 v 23.872 q 0,3.904 0.832,6.208 0.832,2.24 2.432,3.264 1.6,1.024 3.968,1.024 2.304,0 3.968,-1.024 1.664,-1.024 2.496,-3.264 0.896,-2.304 0.896,-6.208 v -23.872 h 9.088 v 22.912 q 0,5.12 -1.088,8.832 -1.024,3.712 -3.136,6.144 -2.048,2.368 -5.12,3.52 -3.072,1.088 -7.104,1.088 z M 877.96769,247.13389 q -9.984,0 -18.048,-2.304 -7.872,-2.304 -14.016,-6.144 -6.144,-3.84 -10.944,-8.64 l 12.672,-17.856 q 5.568,4.992 12.096,8.64 6.528,3.456 14.208,3.456 6.144,0 10.752,-2.112 4.608,-2.304 7.104,-6.528 2.688,-4.224 2.688,-10.368 0,-9.216 -5.376,-14.016 -5.376,-4.8 -13.824,-4.8 -5.184,0 -8.832,1.344 -3.648,1.344 -9.216,4.8 l -12.672,-8.064 3.456,-61.632 h 69.12 v 23.808 h -44.736 l -2.112,22.848 q 3.648,-1.536 6.72,-2.112 3.072,-0.768 6.912,-0.768 10.56,0 19.392,4.032 8.832,4.032 14.016,12.48 5.376,8.448 5.376,21.312 0,13.632 -6.336,23.232 -6.144,9.408 -16.32,14.4 -10.176,4.992 -22.08,4.992 z m 61.05598,-2.304 v -17.472 q 15.36,-13.632 27.264,-25.536 12.096,-11.904 18.816,-22.08 6.912,-10.176 6.912,-18.624 0,-9.024 -4.608,-13.632 -4.608,-4.8 -12.672,-4.8 -6.528,0 -11.904,3.84 -5.184,3.648 -9.792,8.64 l -14.784,-14.592 q 8.832,-9.984 18.048,-14.976 9.408,-4.992 22.272,-4.992 11.904,0 20.928,4.8 9.21603,4.8 14.20803,13.44 5.184,8.64 5.184,20.352 0,10.944 -5.952,21.504 -5.76,10.368 -15.36003,20.736 -9.6,10.368 -20.352,21.12 4.608,-0.576 10.368,-0.96 5.76,-0.576 9.984,-0.576 h 27.26403 v 23.808 z m 140.92803,2.304 q -9.792,0 -17.856,-2.304 -7.872,-2.112 -14.016,-5.952 -6.144,-3.84 -10.56,-9.024 l 13.056,-17.856 q 5.568,5.376 12.288,8.832 6.72,3.456 14.4,3.456 8.832,0 14.208,-3.648 5.568,-3.84 5.568,-10.752 0,-5.376 -2.688,-9.216 -2.688,-4.032 -9.792,-6.144 -6.912,-2.112 -20.352,-2.112 v -19.968 q 10.944,0 17.28,-2.112 6.336,-2.112 8.832,-5.76 2.688,-3.648 2.688,-8.448 0,-6.528 -4.032,-9.984 -3.84,-3.456 -10.944,-3.456 -6.528,0 -11.904,2.88 -5.184,2.688 -10.944,7.872 l -14.208,-17.28 q 8.448,-7.296 17.856,-11.328 9.408,-4.224 20.544,-4.224 12.48,0 21.888,4.032 9.6,3.84 14.784,11.328 5.376,7.296 5.376,18.048 0,9.408 -5.376,16.128 -5.184,6.72 -14.976,10.944 v 0.768 q 6.912,2.112 12.48,6.144 5.568,3.84 8.64,9.792 3.072,5.952 3.072,13.824 0,11.328 -6.336,19.392 -6.144,7.872 -16.512,12.096 -10.176,4.032 -22.464,4.032 z M 874.70356,4.82989 v -17.088002 l 55.296,-84.288 h -50.112 v -23.807998 h 84.864 v 17.088 l -55.296,84.287998 h 55.872 V 4.82989 Z m 159.16804,2.304 q -12.288,0 -21.696,-3.264 -9.216,-3.456 -15.55202,-10.56 -6.336,-7.296002 -9.6,-18.432002 -3.264,-11.136 -3.264,-26.496 v -68.735998 h 28.41602 v 71.615998 q 0,11.712 2.496,18.624 2.496,6.72 7.296,9.792 4.8,3.072 11.904,3.072 6.912,0 11.904,-3.072 4.992,-3.072 7.488,-9.792 2.688,-6.912 2.688,-18.624 v -71.615998 h 27.264 v 68.735998 q 0,15.36 -3.264,26.496 -3.072,11.136 -9.408,18.432002 -6.144,7.104 -15.36,10.56 -9.216,3.264 -21.312,3.264 z M -291.19561,155.26198 q -4.992,0 -9.024,-1.152 -3.936,-1.152 -7.008,-3.072 -3.072,-1.92 -5.472,-4.32 l 6.336,-8.928 q 2.784,2.496 6.048,4.32 3.264,1.728 7.104,1.728 3.072,0 5.376,-1.056 2.304,-1.152 3.552,-3.264 1.344,-2.112 1.344,-5.184 0,-4.608 -2.688,-7.008 -2.688,-2.4 -6.912,-2.4 -2.592,0 -4.416,0.672 -1.824,0.672 -4.608,2.4 l -6.336,-4.032 1.728,-30.816 h 34.56 v 11.904 h -22.368 l -1.056,11.424 q 1.824,-0.768 3.36,-1.056 1.536,-0.384 3.456,-0.384 5.28,0 9.696,2.016 4.416,2.016 7.008,6.24 2.688,4.224 2.688,10.656 0,6.816 -3.168,11.616 -3.072,4.704 -8.16,7.2 -5.088,2.496 -11.04,2.496 z m 30.52799,-1.152 v -8.736 q 7.68,-6.816 13.632,-12.768 6.048,-5.952 9.408,-11.04 3.456,-5.088 3.456,-9.312 0,-4.512 -2.304,-6.816 -2.304,-2.4 -6.336,-2.4 -3.264,0 -5.952,1.92 -2.592,1.824 -4.896,4.32 l -7.392,-7.296 q 4.416,-4.992 9.024,-7.488 4.704,-2.496 11.136,-2.496 5.952,0 10.464,2.4 4.608,2.4 7.104,6.72 2.592,4.32 2.592,10.176 0,5.472 -2.976,10.752 -2.88,5.184 -7.68,10.368 -4.8,5.184 -10.176,10.56 2.304,-0.288 5.184,-0.48 2.88,-0.288 4.992,-0.288 h 13.632 v 11.904 z m 61.53598,0 q 0.48,-7.584 1.536,-13.92 1.056,-6.432 2.976,-12.192 2.016,-5.76 5.088,-11.328 3.072,-5.568 7.584,-11.616 h -27.36 v -11.904 h 42.432 v 8.64 q -5.376,6.528 -8.832,12.192 -3.36,5.664 -5.184,11.52 -1.824,5.856 -2.688,12.768 -0.864,6.912 -1.344,15.84 z m -93.69604,-120 v -8.544 l 27.648,-42.144 h -25.056 v -11.904 h 42.432 v 8.544 l -27.648,42.144 h 27.936 v 11.904 z m 79.58401,1.152 q -6.144,0 -10.848,-1.632 -4.608,-1.728 -7.776,-5.28 -3.168,-3.648 -4.8,-9.216 -1.632,-5.568 -1.632,-13.2480003 V -28.48202 h 14.208 V 7.3259797 q 0,5.8560003 1.248,9.3120003 1.248,3.36 3.648,4.896 2.4,1.536 5.952,1.536 3.456,0 5.952,-1.536 2.496,-1.536 3.744,-4.896 1.344,-3.456 1.344,-9.3120003 V -28.48202 h 13.632 V 5.8859797 q 0,7.6800003 -1.632,13.2480003 -1.536,5.568 -4.704,9.216 -3.072,3.552 -7.68,5.28 -4.608,1.632 -10.656,1.632 z m 552.00386,-701.12377 q -9.984,0 -18.048,-2.304 -7.872,-2.304 -14.016,-6.144 -6.144,-3.84 -10.944,-8.64 l 12.672,-17.856 q 5.568,4.992 12.096,8.64 6.528,3.456 14.208,3.456 6.144,0 10.752,-2.112 4.608,-2.304 7.104,-6.528 2.688,-4.224 2.688,-10.368 0,-9.216 -5.376,-14.016 -5.376,-4.8 -13.824,-4.8 -5.184,0 -8.832,1.344 -3.648,1.344 -9.216,4.8 l -12.672,-8.064 3.456,-61.632 h 69.12 v 23.808 h -44.736 l -2.112,22.848 q 3.648,-1.536 6.72,-2.112 3.072,-0.768 6.912,-0.768 10.56,0 19.392,4.032 8.832,4.032 14.016,12.48 5.376,8.448 5.376,21.312 0,13.632 -6.336,23.232 -6.144,9.408 -16.32,14.4 -10.176,4.992 -22.08,4.992 z m 100.60798,0 q -9.792,0 -17.856,-2.304 -7.872,-2.112 -14.016,-5.952 -6.144,-3.84 -10.56,-9.024 l 13.056,-17.856 q 5.568,5.376 12.288,8.832 6.72,3.456 14.4,3.456 8.832,0 14.208,-3.648 5.568,-3.84 5.568,-10.752 0,-5.376 -2.688,-9.216 -2.688,-4.032 -9.792,-6.144 -6.912,-2.112 -20.352,-2.112 v -19.968 q 10.944,0 17.28,-2.112 6.336,-2.112 8.832,-5.76 2.688,-3.648 2.688,-8.448 0,-6.528 -4.032,-9.984 -3.84,-3.456 -10.944,-3.456 -6.528,0 -11.904,2.88 -5.184,2.688 -10.944,7.872 l -14.208,-17.28 q 8.448,-7.296 17.856,-11.328 9.408,-4.224 20.544,-4.224 12.48,0 21.888,4.032 9.6,3.84 14.784,11.328 5.376,7.296 5.376,18.048 0,9.408 -5.376,16.128 -5.184,6.72 -14.976,10.944 v 0.768 q 6.912,2.112 12.48,6.144 5.568,3.84 8.64,9.792 3.072,5.952 3.072,13.824 0,11.328 -6.336,19.392 -6.144,7.872 -16.512,12.096 -10.176,4.032 -22.464,4.032 z m 105.40798,0 q -19.584,0 -31.68,-16.32 -11.904,-16.32 -11.904,-47.424 0,-31.296 11.904,-47.04 12.096,-15.744 31.68,-15.744 19.584,0 31.488,15.936 12.096,15.744 12.096,46.848 0,31.104 -12.096,47.424 -11.904,16.32 -31.488,16.32 z m 0,-21.888 q 4.8,0 8.64,-3.456 3.84,-3.648 5.952,-12.672 2.304,-9.216 2.304,-25.728 0,-16.704 -2.304,-25.536 -2.112,-8.832 -5.952,-12.096 -3.84,-3.264 -8.64,-3.264 -4.8,0 -8.64,3.264 -3.84,3.264 -6.144,12.096 -2.112,8.832 -2.112,25.536 0,16.512 2.112,25.728 2.304,9.024 6.144,12.672 3.84,3.456 8.64,3.456 z m -209.28009,-220.416 v -17.088 l 55.296,-84.28801 h -50.112 v -23.808 h 84.864 v 17.088 l -55.296,84.28801 h 55.872 v 23.808 z m 159.16802,2.304 q -12.288,0 -21.696,-3.264 -9.216,-3.456 -15.552,-10.56 -6.336,-7.296 -9.6,-18.432 -3.264,-11.136 -3.264,-26.496 v -68.73601 h 28.416 v 71.61601 q 0,11.712 2.496,18.624 2.496,6.72 7.296,9.792 4.8,3.072 11.904,3.072 6.912,0 11.904,-3.072 4.992,-3.072 7.488,-9.792 2.688,-6.912 2.688,-18.624 v -71.61601 h 27.264 v 68.73601 q 0,15.36 -3.264,26.496 -3.072,11.136 -9.408,18.432 -6.144,7.104 -15.36,10.56 -9.216,3.264 -21.312,3.264 z m 1748.64212,620.77207 q -4.992,0 -9.024,-1.152 -3.936,-1.152 -7.008,-3.072 -3.072,-1.92 -5.472,-4.32 l 6.336,-8.928 q 2.784,2.496 6.048,4.32 3.264,1.728 7.104,1.728 3.072,0 5.376,-1.056 2.304,-1.152 3.552,-3.264 1.344,-2.112 1.344,-5.184 0,-4.608 -2.688,-7.008 -2.688,-2.4 -6.912,-2.4 -2.592,0 -4.416,0.672 -1.824,0.672 -4.608,2.4 l -6.336,-4.032 1.728,-30.816 h 34.56 v 11.904 h -22.368 l -1.056,11.424 q 1.824,-0.768 3.36,-1.056 1.536,-0.384 3.456,-0.384 5.28,0 9.696,2.016 4.416,2.016 7.008,6.24 2.688,4.224 2.688,10.656 0,6.816 -3.168,11.616 -3.072,4.704 -8.16,7.2 -5.088,2.496 -11.04,2.496 z m 30.528,-1.152 v -8.736 q 7.68,-6.816 13.632,-12.768 6.048,-5.952 9.408,-11.04 3.456,-5.088 3.456,-9.312 0,-4.512 -2.304,-6.816 -2.304,-2.4 -6.336,-2.4 -3.264,0 -5.952,1.92 -2.592,1.824 -4.896,4.32 l -7.392,-7.296 q 4.416,-4.992 9.024,-7.488 4.704,-2.496 11.136,-2.496 5.952,0 10.464,2.4 4.608,2.4 7.104,6.72 2.592,4.32 2.592,10.176 0,5.472 -2.976,10.752 -2.88,5.184 -7.68,10.368 -4.8,5.184 -10.176,10.56 2.304,-0.288 5.184,-0.48 2.88,-0.288 4.992,-0.288 h 13.632 v 11.904 z m 72.48,1.152 q -9.792,0 -15.84,-8.16 -5.952,-8.16 -5.952,-23.712 0,-15.648 5.952,-23.52 6.048,-7.872 15.84,-7.872 9.792,0 15.744,7.968 6.048,7.872 6.048,23.424 0,15.552 -6.048,23.712 -5.952,8.16 -15.744,8.16 z m 0,-10.944 q 2.4,0 4.32,-1.728 1.92,-1.824 2.976,-6.336 1.152,-4.608 1.152,-12.864 0,-8.352 -1.152,-12.768 -1.056,-4.416 -2.976,-6.048 -1.92,-1.632 -4.32,-1.632 -2.4,0 -4.32,1.632 -1.92,1.632 -3.072,6.048 -1.056,4.416 -1.056,12.768 0,8.256 1.056,12.864 1.152,4.512 3.072,6.336 1.92,1.728 4.32,1.728 z m -104.6401,-110.208 v -8.544 l 27.648,-42.144 h -25.056 v -11.904 h 42.432 v 8.544 l -27.648,42.144 h 27.936 v 11.904 z m 79.5841,1.152 q -6.144,0 -10.848,-1.632 -4.608,-1.728 -7.776,-5.28 -3.168,-3.648 -4.8,-9.216 -1.632,-5.568 -1.632,-13.248 v -34.368 h 14.208 v 35.808 q 0,5.856 1.248,9.312 1.248,3.36 3.648,4.896 2.4,1.536 5.952,1.536 3.456,0 5.952,-1.536 2.496,-1.536 3.744,-4.896 1.344,-3.456 1.344,-9.312 v -35.808 h 13.632 v 34.368 q 0,7.68 -1.632,13.248 -1.536,5.568 -4.704,9.216 -3.072,3.552 -7.68,5.28 -4.608,1.632 -10.656,1.632 z m 274.7017,120 q -4.992,0 -9.024,-1.152 -3.936,-1.152 -7.008,-3.072 -3.072,-1.92 -5.472,-4.32 l 6.336,-8.928 q 2.784,2.496 6.048,4.32 3.264,1.728 7.104,1.728 3.072,0 5.376,-1.056 2.304,-1.152 3.552,-3.264 1.344,-2.112 1.344,-5.184 0,-4.608 -2.688,-7.008 -2.688,-2.4 -6.912,-2.4 -2.592,0 -4.416,0.672 -1.824,0.672 -4.608,2.4 l -6.336,-4.032 1.728,-30.816 h 34.56 v 11.904 h -22.368 l -1.056,11.424 q 1.824,-0.768 3.36,-1.056 1.536,-0.384 3.456,-0.384 5.28,0 9.696,2.016 4.416,2.016 7.008,6.24 2.688,4.224 2.688,10.656 0,6.816 -3.168,11.616 -3.072,4.704 -8.16,7.2 -5.088,2.496 -11.04,2.496 z m 33.696,-1.152 v -11.424 h 13.248 v -35.232 h -11.424 v -8.736 q 4.992,-0.96 8.448,-2.304 3.552,-1.344 6.72,-3.264 h 10.368 v 49.536 h 11.424 v 11.424 z m 65.952,1.152 q -6.048,0 -10.464,-2.208 -4.416,-2.208 -7.392,-5.088 l 7.488,-8.448 q 1.536,1.728 4.128,3.072 2.688,1.248 5.28,1.248 3.648,0 6.432,-2.016 2.88,-2.016 4.512,-6.72 1.728,-4.8 1.728,-12.864 0,-7.584 -1.44,-11.808 -1.344,-4.32 -3.648,-6.048 -2.208,-1.824 -4.8,-1.824 -2.016,0 -3.84,1.056 -1.728,1.056 -2.784,3.168 -1.056,2.112 -1.056,5.664 0,3.168 1.056,5.184 1.056,1.92 2.88,2.784 1.824,0.864 4.128,0.864 2.4,0 4.896,-1.44 2.496,-1.536 4.512,-5.088 l 0.672,9.216 q -2.304,3.36 -6.048,5.376 -3.744,1.92 -6.816,1.92 -5.184,0 -9.312,-2.016 -4.128,-2.016 -6.528,-6.144 -2.304,-4.224 -2.304,-10.656 0,-6.336 2.784,-10.944 2.784,-4.608 7.392,-7.008 4.608,-2.496 10.08,-2.496 4.512,0 8.64,1.728 4.128,1.728 7.296,5.376 3.264,3.648 5.184,9.408 2.016,5.664 2.016,13.728 0,8.544 -2.112,14.784 -2.016,6.24 -5.472,10.272 -3.456,4.032 -7.872,6.048 -4.416,1.92 -9.216,1.92 z m -101.2801,-121.152 v -8.544 l 27.648,-42.144 h -25.056 v -11.904 h 42.432 v 8.544 l -27.648,42.144 h 27.936 v 11.904 z m 79.5841,1.152 q -6.144,0 -10.848,-1.632 -4.608,-1.728 -7.776,-5.28 -3.168,-3.648 -4.8,-9.216 -1.632,-5.568 -1.632,-13.248 v -34.368 h 14.208 v 35.808 q 0,5.856 1.248,9.312 1.248,3.36 3.648,4.896 2.4,1.536 5.952,1.536 3.456,0 5.952,-1.536 2.496,-1.536 3.744,-4.896 1.344,-3.456 1.344,-9.312 v -35.808 h 13.632 v 34.368 q 0,7.68 -1.632,13.248 -1.536,5.568 -4.704,9.216 -3.072,3.552 -7.68,5.28 -4.608,1.632 -10.656,1.632 z m -760.5371,300.35566 v -23.488 q 0,-1.92 0.128,-4.544 0.192,-2.624 0.256,-4.544 h -0.256 q -0.768,1.664 -1.6,3.392 -0.832,1.664 -1.728,3.456 l -5.376,8.832 h 22.016 v 7.168 h -31.04 v -6.464 l 14.848,-24.448 h 11.52 v 40.64 z m 17.344,0 v -5.824 q 5.12,-4.544 9.088,-8.512 4.032,-3.968 6.272,-7.36 2.304,-3.392 2.304,-6.208 0,-3.008 -1.536,-4.544 -1.536,-1.6 -4.224,-1.6 -2.176,0 -3.968,1.28 -1.728,1.216 -3.264,2.88 l -4.928,-4.864 q 2.944,-3.328 6.016,-4.992 3.136,-1.664 7.424,-1.664 3.968,0 6.976,1.6 3.072,1.6 4.736,4.48 1.728,2.88 1.728,6.784 0,3.648 -1.984,7.168 -1.92,3.456 -5.12,6.912 -3.2,3.456 -6.784,7.04 1.536,-0.192 3.456,-0.32 1.92,-0.192 3.328,-0.192 h 9.088 v 7.936 z m 33.792,0 v -5.824 q 5.12,-4.544 9.088,-8.512 4.032,-3.968 6.272,-7.36 2.304,-3.392 2.304,-6.208 0,-3.008 -1.536,-4.544 -1.536,-1.6 -4.224,-1.6 -2.176,0 -3.968,1.28 -1.728,1.216 -3.264,2.88 l -4.928,-4.864 q 2.944,-3.328 6.016,-4.992 3.136,-1.664 7.424,-1.664 3.968,0 6.976,1.6 3.072,1.6 4.736,4.48 1.728,2.88 1.728,6.784 0,3.648 -1.984,7.168 -1.92,3.456 -5.12,6.912 -3.2,3.456 -6.784,7.04 1.536,-0.192 3.456,-0.32 1.92,-0.192 3.328,-0.192 h 9.088 v 7.936 z m -55.232,-80 v -5.696 l 18.432,-28.096 h -16.704 v -7.936 h 28.288 v 5.696 l -18.432,28.096 h 18.624 v 7.936 z m 53.056,0.768 q -4.096,0 -7.232,-1.088 -3.072,-1.152 -5.184,-3.52 -2.112,-2.432 -3.2,-6.144 -1.088,-3.712 -1.088,-8.832 v -22.912 h 9.472 v 23.872 q 0,3.904 0.832,6.208 0.832,2.24 2.432,3.264 1.6,1.024 3.968,1.024 2.304,0 3.968,-1.024 1.664,-1.024 2.496,-3.264 0.896,-2.304 0.896,-6.208 v -23.872 h 9.088 v 22.912 q 0,5.12 -1.088,8.832 -1.024,3.712 -3.136,6.144 -2.048,2.368 -5.12,3.52 -3.072,1.088 -7.104,1.088 z m 281.1065,-836.76694 q -4.992,0 -9.024,-1.152 -3.936,-1.152 -7.008,-3.072 -3.072,-1.92 -5.472,-4.32 l 6.336,-8.928 q 2.784,2.496 6.048,4.32 3.264,1.728 7.104,1.728 3.072,0 5.376,-1.056 2.304,-1.152 3.552,-3.264 1.344,-2.112 1.344,-5.184 0,-4.608 -2.688,-7.008 -2.688,-2.4 -6.912,-2.4 -2.592,0 -4.416,0.672 -1.824,0.672 -4.608,2.4 l -6.336,-4.032 1.728,-30.816 h 34.56 v 11.904 h -22.368 l -1.056,11.424 q 1.824,-0.768 3.36,-1.056 1.536,-0.384 3.456,-0.384 5.28,0 9.696,2.016 4.416,2.016 7.008,6.24 2.688,4.224 2.688,10.656 0,6.816 -3.168,11.616 -3.072,4.704 -8.16,7.2 -5.088,2.496 -11.04,2.496 z m 52.32,0 q -9.792,0 -15.84,-8.16 -5.952,-8.16 -5.952,-23.712 0,-15.648 5.952,-23.52 6.048,-7.872 15.84,-7.872 9.792,0 15.744,7.968 6.048,7.872 6.048,23.424 0,15.552 -6.048,23.712 -5.952,8.16 -15.744,8.16 z m 0,-10.944 q 2.4,0 4.32,-1.728 1.92,-1.824 2.976,-6.336 1.152,-4.608 1.152,-12.864 0,-8.352 -1.152,-12.768 -1.056,-4.416 -2.976,-6.048 -1.92,-1.632 -4.32,-1.632 -2.4,0 -4.32,1.632 -1.92,1.632 -3.072,6.048 -1.056,4.416 -1.056,12.768 0,8.256 1.056,12.864 1.152,4.512 3.072,6.336 1.92,1.728 4.32,1.728 z m 52.32,10.944 q -4.416,0 -8.544,-1.728 -4.128,-1.728 -7.392,-5.376 -3.264,-3.648 -5.184,-9.312 -1.92,-5.76 -1.92,-13.824 0,-8.544 2.016,-14.784 2.016,-6.24 5.472,-10.272 3.456,-4.032 7.872,-5.952 4.416,-2.016 9.312,-2.016 6.048,0 10.464,2.208 4.416,2.112 7.296,5.088 l -7.392,8.448 q -1.632,-1.728 -4.224,-2.976 -2.592,-1.344 -5.28,-1.344 -3.456,0 -6.432,2.016 -2.88,2.016 -4.608,6.816 -1.632,4.704 -1.632,12.768 0,7.584 1.344,11.904 1.44,4.224 3.744,6.048 2.304,1.728 4.8,1.728 2.112,0 3.84,-1.056 1.728,-1.056 2.784,-3.168 1.056,-2.208 1.056,-5.664 0,-3.264 -1.056,-5.184 -1.056,-1.92 -2.88,-2.784 -1.728,-0.864 -4.032,-0.864 -2.4,0 -4.992,1.44 -2.496,1.44 -4.512,5.088 l -0.672,-9.216 q 2.4,-3.552 6.144,-5.376 3.744,-1.92 6.72,-1.92 5.184,0 9.312,2.016 4.128,2.016 6.432,6.24 2.4,4.128 2.4,10.56 0,6.336 -2.784,10.944 -2.688,4.608 -7.296,7.104 -4.608,2.4 -10.176,2.4 z m -106.2721,-121.152 v -8.544 l 27.648,-42.144 h -25.056 v -11.904 h 42.432 v 8.544 l -27.648,42.144 h 27.936 v 11.904 z m 79.5841,1.152 q -6.144,0 -10.848,-1.632 -4.608,-1.728 -7.776,-5.28 -3.168,-3.648 -4.8,-9.216 -1.632,-5.568 -1.632,-13.248 v -34.368 h 14.208 v 35.808 q 0,5.856 1.248,9.312 1.248,3.36 3.648,4.896 2.4,1.536 5.952,1.536 3.456,0 5.952,-1.536 2.496,-1.536 3.744,-4.896 1.344,-3.456 1.344,-9.312 v -35.808 h 13.632 v 34.368 q 0,7.68 -1.632,13.248 -1.536,5.568 -4.704,9.216 -3.072,3.552 -7.68,5.28 -4.608,1.632 -10.656,1.632 z m 633.2209,120 q -4.992,0 -9.024,-1.152 -3.936,-1.152 -7.008,-3.072 -3.072,-1.92 -5.472,-4.32 l 6.336,-8.928 q 2.784,2.496 6.048,4.32 3.264,1.728 7.104,1.728 3.072,0 5.376,-1.056 2.304,-1.152 3.552,-3.264 1.344,-2.112 1.344,-5.184 0,-4.608 -2.688,-7.008 -2.688,-2.4 -6.912,-2.4 -2.592,0 -4.416,0.672 -1.824,0.672 -4.608,2.4 l -6.336,-4.032 1.728,-30.816 h 34.56 v 11.904 h -22.368 l -1.056,11.424 q 1.824,-0.768 3.36,-1.056 1.536,-0.384 3.456,-0.384 5.28,0 9.696,2.016 4.416,2.016 7.008,6.24 2.688,4.224 2.688,10.656 0,6.816 -3.168,11.616 -3.072,4.704 -8.16,7.2 -5.088,2.496 -11.04,2.496 z m 52.32,0 q -9.792,0 -15.84,-8.16 -5.952,-8.16 -5.952,-23.712 0,-15.648 5.952,-23.52 6.048,-7.872 15.84,-7.872 9.792,0 15.744,7.968 6.048,7.872 6.048,23.424 0,15.552 -6.048,23.712 -5.952,8.16 -15.744,8.16 z m 0,-10.944 q 2.4,0 4.32,-1.728 1.92,-1.824 2.976,-6.336 1.152,-4.608 1.152,-12.864 0,-8.352 -1.152,-12.768 -1.056,-4.416 -2.976,-6.048 -1.92,-1.632 -4.32,-1.632 -2.4,0 -4.32,1.632 -1.92,1.632 -3.072,6.048 -1.056,4.416 -1.056,12.768 0,8.256 1.056,12.864 1.152,4.512 3.072,6.336 1.92,1.728 4.32,1.728 z m 50.592,10.944 q -6.048,0 -10.944,-2.112 -4.8,-2.112 -7.584,-5.856 -2.688,-3.84 -2.688,-8.736 0,-3.744 1.344,-6.432 1.44,-2.784 3.744,-4.896 2.4,-2.112 5.28,-3.648 v -0.384 q -3.456,-2.688 -5.856,-6.144 -2.304,-3.456 -2.304,-8.256 0,-5.184 2.496,-8.928 2.496,-3.84 6.912,-5.856 4.416,-2.016 10.08,-2.016 8.448,0 13.44,4.608 5.088,4.512 5.088,12.096 0,2.88 -1.152,5.472 -1.056,2.496 -2.88,4.512 -1.824,1.92 -3.936,3.36 v 0.384 q 2.88,1.536 5.28,3.744 2.4,2.112 3.84,5.184 1.44,2.976 1.44,7.008 0,4.8 -2.688,8.64 -2.688,3.744 -7.584,6.048 -4.8,2.208 -11.328,2.208 z m 3.84,-36.672 q 1.824,-2.112 2.784,-4.32 0.96,-2.208 0.96,-4.608 0,-2.4 -0.864,-4.128 -0.864,-1.728 -2.592,-2.688 -1.632,-1.056 -3.936,-1.056 -2.784,0 -4.8,1.824 -2.016,1.728 -2.016,5.184 0,2.496 1.344,4.224 1.344,1.728 3.648,3.072 2.4,1.344 5.472,2.496 z m -3.552,26.88 q 2.304,0 4.128,-0.768 1.92,-0.864 2.976,-2.496 1.056,-1.728 1.056,-4.32 0,-2.688 -1.632,-4.416 -1.536,-1.824 -4.512,-3.168 -2.88,-1.44 -6.72,-3.072 -2.016,1.824 -3.36,4.416 -1.344,2.496 -1.344,5.28 0,2.688 1.248,4.608 1.344,1.92 3.456,2.976 2.208,0.96 4.704,0.96 z m -104.8321,-111.36 v -8.544 l 27.648,-42.144 h -25.056 v -11.904 h 42.432 v 8.544 l -27.648,42.144 h 27.936 v 11.904 z m 79.5841,1.152 q -6.144,0 -10.848,-1.632 -4.608,-1.728 -7.776,-5.28 -3.168,-3.648 -4.8,-9.216 -1.632,-5.568 -1.632,-13.248 v -34.368 h 14.208 v 35.808 q 0,5.856 1.248,9.312 1.248,3.36 3.648,4.896 2.4,1.536 5.952,1.536 3.456,0 5.952,-1.536 2.496,-1.536 3.744,-4.896 1.344,-3.456 1.344,-9.312 v -35.808 h 13.632 v 34.368 q 0,7.68 -1.632,13.248 -1.536,5.568 -4.704,9.216 -3.072,3.552 -7.68,5.28 -4.608,1.632 -10.656,1.632 z m -437.9395,120 q -4.992,0 -9.024,-1.152 -3.936,-1.152 -7.008,-3.072 -3.072,-1.92 -5.472,-4.32 l 6.336,-8.928 q 2.784,2.496 6.048,4.32 3.264,1.728 7.104,1.728 3.072,0 5.376,-1.056 2.304,-1.152 3.552,-3.264 1.344,-2.112 1.344,-5.184 0,-4.608 -2.688,-7.008 -2.688,-2.4 -6.912,-2.4 -2.592,0 -4.416,0.672 -1.824,0.672 -4.608,2.4 l -6.336,-4.032 1.728,-30.816 h 34.56 v 11.904 h -22.368 l -1.056,11.424 q 1.824,-0.768 3.36,-1.056 1.536,-0.384 3.456,-0.384 5.28,0 9.696,2.016 4.416,2.016 7.008,6.24 2.688,4.224 2.688,10.656 0,6.816 -3.168,11.616 -3.072,4.704 -8.16,7.2 -5.088,2.496 -11.04,2.496 z m 52.32,0 q -9.792,0 -15.84,-8.16 -5.952,-8.16 -5.952,-23.712 0,-15.648 5.952,-23.52 6.048,-7.872 15.84,-7.872 9.792,0 15.744,7.968 6.048,7.872 6.048,23.424 0,15.552 -6.048,23.712 -5.952,8.16 -15.744,8.16 z m 0,-10.944 q 2.4,0 4.32,-1.728 1.92,-1.824 2.976,-6.336 1.152,-4.608 1.152,-12.864 0,-8.352 -1.152,-12.768 -1.056,-4.416 -2.976,-6.048 -1.92,-1.632 -4.32,-1.632 -2.4,0 -4.32,1.632 -1.92,1.632 -3.072,6.048 -1.056,4.416 -1.056,12.768 0,8.256 1.056,12.864 1.152,4.512 3.072,6.336 1.92,1.728 4.32,1.728 z m 39.744,9.792 q 0.48,-7.584 1.536,-13.92 1.056,-6.432 2.976,-12.192 2.016,-5.76 5.088,-11.328 3.072,-5.568 7.584,-11.616 h -27.36 v -11.904 h 42.432 v 8.64 q -5.376,6.528 -8.832,12.192 -3.36,5.664 -5.184,11.52 -1.824,5.856 -2.688,12.768 -0.864,6.912 -1.344,15.84 z m -93.6961,-120 v -8.544 l 27.648,-42.144 h -25.056 v -11.904 h 42.432 v 8.544 l -27.648,42.144 h 27.936 v 11.904 z m 79.5841,1.152 q -6.144,0 -10.848,-1.632 -4.608,-1.728 -7.776,-5.28 -3.168,-3.648 -4.8,-9.216 -1.632,-5.568 -1.632,-13.248 v -34.368 h 14.208 v 35.808 q 0,5.856 1.248,9.312 1.248,3.36 3.648,4.896 2.4,1.536 5.952,1.536 3.456,0 5.952,-1.536 2.496,-1.536 3.744,-4.896 1.344,-3.456 1.344,-9.312 v -35.808 h 13.632 v 34.368 q 0,7.68 -1.632,13.248 -1.536,5.568 -4.704,9.216 -3.072,3.552 -7.68,5.28 -4.608,1.632 -10.656,1.632 z m 1623.8743,120.008 q -4.992,0 -9.024,-1.152 -3.936,-1.152 -7.008,-3.072 -3.072,-1.92 -5.472,-4.32 l 6.336,-8.928 q 2.784,2.496 6.048,4.32 3.264,1.728 7.104,1.728 3.072,0 5.376,-1.056 2.304,-1.152 3.552,-3.264 1.344,-2.112 1.344,-5.184 0,-4.608 -2.688,-7.008 -2.688,-2.4 -6.912,-2.4 -2.592,0 -4.416,0.672 -1.824,0.672 -4.608,2.4 l -6.336,-4.032 1.728,-30.816 h 34.56 v 11.904 h -22.368 l -1.056,11.424 q 1.824,-0.768 3.36,-1.056 1.536,-0.384 3.456,-0.384 5.28,0 9.696,2.016 4.416,2.016 7.008,6.24 2.688,4.224 2.688,10.656 0,6.816 -3.168,11.616 -3.072,4.704 -8.16,7.2 -5.088,2.496 -11.04,2.496 z m 33.696,-1.152 v -11.424 h 13.248 v -35.232 h -11.424 v -8.736 q 4.992,-0.96 8.448,-2.304 3.552,-1.344 6.72,-3.264 h 10.368 v 49.536 h 11.424 v 11.424 z m 47.52,0 v -8.736 q 7.68,-6.816 13.632,-12.768 6.048,-5.952 9.408,-11.04 3.456,-5.088 3.456,-9.312 0,-4.512 -2.304,-6.816 -2.304,-2.4 -6.336,-2.4 -3.264,0 -5.952,1.92 -2.592,1.824 -4.896,4.32 l -7.392,-7.296 q 4.416,-4.992 9.024,-7.488 4.704,-2.496 11.136,-2.496 5.952,0 10.464,2.4 4.608,2.4 7.104,6.72 2.592,4.32 2.592,10.176 0,5.472 -2.976,10.752 -2.88,5.184 -7.68,10.368 -4.8,5.184 -10.176,10.56 2.304,-0.288 5.184,-0.48 2.88,-0.288 4.992,-0.288 h 13.632 v 11.904 z m -82.8481,-120 v -8.544 l 27.648,-42.144 h -25.056 v -11.904 h 42.432 v 8.544 l -27.648,42.144 h 27.936 v 11.904 z m 79.5841,1.152 q -6.144,0 -10.848,-1.632 -4.608,-1.728 -7.776,-5.28 -3.168,-3.648 -4.8,-9.216 -1.632,-5.568 -1.632,-13.248 v -34.368 h 14.208 v 35.808 q 0,5.856 1.248,9.312 1.248,3.36 3.648,4.896 2.4,1.536 5.952,1.536 3.456,0 5.952,-1.536 2.496,-1.536 3.744,-4.896 1.344,-3.456 1.344,-9.312 v -35.808 h 13.632 v 34.368 q 0,7.68 -1.632,13.248 -1.536,5.568 -4.704,9.216 -3.072,3.552 -7.68,5.28 -4.608,1.632 -10.656,1.632 z m -359.5301,119.992 q -4.992,0 -9.024,-1.152 -3.936,-1.152 -7.008,-3.072 -3.072,-1.92 -5.472,-4.32 l 6.336,-8.928 q 2.784,2.496 6.048,4.32 3.264,1.728 7.104,1.728 3.072,0 5.376,-1.056 2.304,-1.152 3.552,-3.264 1.344,-2.112 1.344,-5.184 0,-4.608 -2.688,-7.008 -2.688,-2.4 -6.912,-2.4 -2.592,0 -4.416,0.672 -1.824,0.672 -4.608,2.4 l -6.336,-4.032 1.728,-30.816 h 34.56 v 11.904 h -22.368 l -1.056,11.424 q 1.824,-0.768 3.36,-1.056 1.536,-0.384 3.456,-0.384 5.28,0 9.696,2.016 4.416,2.016 7.008,6.24 2.688,4.224 2.688,10.656 0,6.816 -3.168,11.616 -3.072,4.704 -8.16,7.2 -5.088,2.496 -11.04,2.496 z m 33.696,-1.152 v -11.424 h 13.248 v -35.232 h -11.424 v -8.736 q 4.992,-0.96 8.448,-2.304 3.552,-1.344 6.72,-3.264 h 10.368 v 49.536 h 11.424 v 11.424 z m 50.688,0 v -11.424 h 13.248 v -35.232 h -11.424 v -8.736 q 4.992,-0.96 8.448,-2.304 3.552,-1.344 6.72,-3.264 h 10.368 v 49.536 h 11.424 v 11.424 z m -86.0161,-120 v -8.544 l 27.648,-42.144 h -25.056 v -11.904 h 42.432 v 8.544 l -27.648,42.144 h 27.936 v 11.904 z m 79.5841,1.152 q -6.144,0 -10.848,-1.632 -4.608,-1.728 -7.776,-5.28 -3.168,-3.648 -4.8,-9.216 -1.632,-5.568 -1.632,-13.248 v -34.368 h 14.208 v 35.808 q 0,5.856 1.248,9.312 1.248,3.36 3.648,4.896 2.4,1.536 5.952,1.536 3.456,0 5.952,-1.536 2.496,-1.536 3.744,-4.896 1.344,-3.456 1.344,-9.312 v -35.808 h 13.632 v 34.368 q 0,7.68 -1.632,13.248 -1.536,5.568 -4.704,9.216 -3.072,3.552 -7.68,5.28 -4.608,1.632 -10.656,1.632 z m -411.8944,120.008 q -4.992,0 -9.024,-1.152 -3.936,-1.152 -7.008,-3.072 -3.072,-1.92 -5.472,-4.32 l 6.336,-8.928 q 2.784,2.496 6.048,4.32 3.264,1.728 7.104,1.728 3.072,0 5.376,-1.056 2.304,-1.152 3.552,-3.264 1.344,-2.112 1.344,-5.184 0,-4.608 -2.688,-7.008 -2.688,-2.4 -6.912,-2.4 -2.592,0 -4.416,0.672 -1.824,0.672 -4.608,2.4 l -6.336,-4.032 1.728,-30.816 h 34.56 v 11.904 h -22.368 l -1.056,11.424 q 1.824,-0.768 3.36,-1.056 1.536,-0.384 3.456,-0.384 5.28,0 9.696,2.016 4.416,2.016 7.008,6.24 2.688,4.224 2.688,10.656 0,6.816 -3.168,11.616 -3.072,4.704 -8.16,7.2 -5.088,2.496 -11.04,2.496 z m 33.696,-1.152 v -11.424 h 13.248 v -35.232 h -11.424 v -8.736 q 4.992,-0.96 8.448,-2.304 3.552,-1.344 6.72,-3.264 h 10.368 v 49.536 h 11.424 v 11.424 z m 69.312,1.152 q -9.792,0 -15.84,-8.16 -5.952,-8.16 -5.952,-23.712 0,-15.648 5.952,-23.52 6.048,-7.872 15.84,-7.872 9.792,0 15.744,7.968 6.048,7.872 6.048,23.424 0,15.552 -6.048,23.712 -5.952,8.16 -15.744,8.16 z m 0,-10.944 q 2.4,0 4.32,-1.728 1.92,-1.824 2.976,-6.336 1.152,-4.608 1.152,-12.864 0,-8.352 -1.152,-12.768 -1.056,-4.416 -2.976,-6.048 -1.92,-1.632 -4.32,-1.632 -2.4,0 -4.32,1.632 -1.92,1.632 -3.072,6.048 -1.056,4.416 -1.056,12.768 0,8.256 1.056,12.864 1.152,4.512 3.072,6.336 1.92,1.728 4.32,1.728 z m -104.6401,-110.208 v -8.544 l 27.648,-42.144 h -25.056 v -11.904 h 42.432 v 8.544 l -27.648,42.144 h 27.936 v 11.904 z m 79.5841,1.152 q -6.144,0 -10.848,-1.632 -4.608,-1.728 -7.776,-5.28 -3.168,-3.648 -4.8,-9.216 -1.632,-5.568 -1.632,-13.248 v -34.368 h 14.208 v 35.808 q 0,5.856 1.248,9.312 1.248,3.36 3.648,4.896 2.4,1.536 5.952,1.536 3.456,0 5.952,-1.536 2.496,-1.536 3.744,-4.896 1.344,-3.456 1.344,-9.312 v -35.808 h 13.632 v 34.368 q 0,7.68 -1.632,13.248 -1.536,5.568 -4.704,9.216 -3.072,3.552 -7.68,5.28 -4.608,1.632 -10.656,1.632 z m -441.3638,119.992 q -4.992,0 -9.024,-1.152 -3.936,-1.152 -7.008,-3.072 -3.072,-1.92 -5.472,-4.32 l 6.336,-8.928 q 2.784,2.496 6.048,4.32 3.264,1.728 7.104,1.728 3.072,0 5.376,-1.056 2.304,-1.152 3.552,-3.264 1.344,-2.112 1.344,-5.184 0,-4.608 -2.688,-7.008 -2.688,-2.4 -6.912,-2.4 -2.592,0 -4.416,0.672 -1.824,0.672 -4.608,2.4 l -6.336,-4.032 1.728,-30.816 h 34.56 v 11.904 h -22.368 l -1.056,11.424 q 1.824,-0.768 3.36,-1.056 1.536,-0.384 3.456,-0.384 5.28,0 9.696,2.016 4.416,2.016 7.008,6.24 2.688,4.224 2.688,10.656 0,6.816 -3.168,11.616 -3.072,4.704 -8.16,7.2 -5.088,2.496 -11.04,2.496 z m 52.32,0 q -9.792,0 -15.84,-8.16 -5.952,-8.16 -5.952,-23.712 0,-15.648 5.952,-23.52 6.048,-7.872 15.84,-7.872 9.792,0 15.744,7.968 6.048,7.872 6.048,23.424 0,15.552 -6.048,23.712 -5.952,8.16 -15.744,8.16 z m 0,-10.944 q 2.4,0 4.32,-1.728 1.92,-1.824 2.976,-6.336 1.152,-4.608 1.152,-12.864 0,-8.352 -1.152,-12.768 -1.056,-4.416 -2.976,-6.048 -1.92,-1.632 -4.32,-1.632 -2.4,0 -4.32,1.632 -1.92,1.632 -3.072,6.048 -1.056,4.416 -1.056,12.768 0,8.256 1.056,12.864 1.152,4.512 3.072,6.336 1.92,1.728 4.32,1.728 z m 47.328,10.944 q -6.048,0 -10.464,-2.208 -4.416,-2.208 -7.392,-5.088 l 7.488,-8.448 q 1.536,1.728 4.128,3.072 2.688,1.248 5.28,1.248 3.648,0 6.432,-2.016 2.88,-2.016 4.512,-6.72 1.728,-4.8 1.728,-12.864 0,-7.584 -1.44,-11.808 -1.344,-4.32 -3.648,-6.048 -2.208,-1.824 -4.8,-1.824 -2.016,0 -3.84,1.056 -1.728,1.056 -2.784,3.168 -1.056,2.112 -1.056,5.664 0,3.168 1.056,5.184 1.056,1.92 2.88,2.784 1.824,0.864 4.128,0.864 2.4,0 4.896,-1.44 2.496,-1.536 4.512,-5.088 l 0.672,9.216 q -2.304,3.36 -6.048,5.376 -3.744,1.92 -6.816,1.92 -5.184,0 -9.312,-2.016 -4.128,-2.016 -6.528,-6.144 -2.304,-4.224 -2.304,-10.656 0,-6.336 2.784,-10.944 2.784,-4.608 7.392,-7.008 4.608,-2.496 10.08,-2.496 4.512,0 8.64,1.728 4.128,1.728 7.296,5.376 3.264,3.648 5.184,9.408 2.016,5.664 2.016,13.728 0,8.544 -2.112,14.784 -2.016,6.24 -5.472,10.272 -3.456,4.032 -7.872,6.048 -4.416,1.92 -9.216,1.92 z m -101.2801,-121.152 v -8.544 l 27.648,-42.144 h -25.056 v -11.904 h 42.432 v 8.544 l -27.648,42.144 h 27.936 v 11.904 z m 79.5841,1.152 q -6.144,0 -10.848,-1.632 -4.608,-1.728 -7.776,-5.28 -3.168,-3.648 -4.8,-9.216 -1.632,-5.568 -1.632,-13.248 v -34.368 h 14.208 v 35.808 q 0,5.856 1.248,9.312 1.248,3.36 3.648,4.896 2.4,1.536 5.952,1.536 3.456,0 5.952,-1.536 2.496,-1.536 3.744,-4.896 1.344,-3.456 1.344,-9.312 v -35.808 h 13.632 v 34.368 q 0,7.68 -1.632,13.248 -1.536,5.568 -4.704,9.216 -3.072,3.552 -7.68,5.28 -4.608,1.632 -10.656,1.632 z" style="font-size:96px;font-family:'Source Sans 3';-inkscape-font-specification:'Source Sans 3, @wght=700';font-variation-settings:'wght' 700;text-align:center;white-space:pre;display:inline;fill:#bec3c6;stroke-width:55" transform="matrix(0.02439371,0,0,0.02439371,12.797353,278.76086)"/>
  </g>
</svg>
