<svg width="5700" height="2100" viewBox="0 0 5700 2100" version="1.1" id="svg1" xml:space="preserve" xmlns="http://www.w3.org/2000/svg">
  <g id="floor_0" transform="matrix(40.994169,0,0,40.994169,1.00188,-9810.757)" style="display:inline">
    <path style="font-variation-settings:'wdth' 70,'wght' 600;display:inline;fill:#4c5a5f;fill-opacity:1;stroke:none;stroke-width:.487874" d="M 105.82283,283.4978 H 100.881 v -9.63489 H 90.428128 v 9.63489 l -14.322792,1e-5 -0.243937,-8.65623 H 63.542507 v 8.65623 l -14.399816,-1e-5 -10e-7,-9.63489 H 38.421655 v 9.6349 H 33.298976 V 272.80643 H 13.659551 l 10e-7,-6.81804 h 2.135332 v -16.80381 h 6.544571 l 10e-7,15.53311 h 47.492816 v -3.46695 h 4.105027 v 3.46695 h 6.805845 v -3.77115 l -10.908289,0.3042 -0.0026,3.46695 h -3.222107 v -3.69187 H 59.14135 v -3.80829 h 32.41142 v 7.50016 h 25.56591 v 1.24025 h 21.12454 v 6.84849 l -32.42039,1e-5 z" id="path455"/>
    <g id="rooms_0" style="display:inline;opacity:1" transform="matrix(0.02439371,0,0,0.02439371,-0.02443957,255.98706)">
      <rect style="font-variation-settings:'wdth' 70,'wght' 600;display:inline;fill:#1b2022;fill-opacity:1;stroke:none;stroke-width:8.85259;stroke-linecap:butt;stroke-linejoin:miter;stroke-dasharray:none;stroke-opacity:1" id="lift" width="180.96605" height="258.81171" x="2768.4727" y="868.78033"/>
      <rect style="font-variation-settings:'wdth' 70,'wght' 600;display:inline;fill:#454c7f;fill-opacity:1;stroke-width:368.302;stroke-dasharray:none" id="TR_L001" width="439.5" height="394.97479" x="1576.0659" y="732.80554"/>
      <rect style="font-variation-settings:'wdth' 70,'wght' 600;display:inline;fill:#454c7f;fill-opacity:1;stroke-width:363.666;stroke-dasharray:none" id="TR_L021" width="428.50674" height="394.97479" x="3708.0283" y="732.80554"/>
      <rect style="font-variation-settings:'wdth' 70,'wght' 600;display:inline;opacity:1;fill:#454c7f;fill-opacity:1;stroke-width:138.341;stroke-dasharray:none" id="TR_L002" width="218.2034" height="112.24036" x="1147.8625" y="706.99615"/>
      <rect style="font-variation-settings:'wdth' 70,'wght' 600;display:inline;opacity:1;fill:#454c7f;fill-opacity:1;stroke-width:218.91;stroke-dasharray:none" id="TR_L003" width="218.2034" height="281.04752" x="1147.8625" y="819.23651"/>
      <rect style="font-variation-settings:'wdth' 70,'wght' 600;display:inline;opacity:1;fill:#454c7f;fill-opacity:1;stroke-width:448.144;stroke-dasharray:none" id="TR_L004" width="586.89868" height="437.909" x="560.96393" y="689.49615"/>
      <rect style="font-variation-settings:'wdth' 70,'wght' 600;display:inline;fill:#454c7f;fill-opacity:1;stroke-width:539.001;stroke-dasharray:none" id="TR_L005" width="517.96393" height="717.78424" x="43" y="409.99612"/>
      <rect style="font-variation-settings:'wdth' 70,'wght' 600;display:inline;fill:#454c7f;fill-opacity:1;stroke-width:403.357;stroke-dasharray:none" id="TR_L006" width="605.50012" height="343.85797" x="43" y="66.138138"/>
      <rect style="font-variation-settings:'wdth' 70,'wght' 600;display:inline;fill:#454c7f;fill-opacity:1;stroke-width:404.026;stroke-dasharray:none" id="TR_L007" width="605.50012" height="345.00003" x="43" y="-278.86191"/>
      <rect style="font-variation-settings:'wdth' 70,'wght' 600;display:inline;fill:#454c7f;fill-opacity:1;stroke-width:501.161;stroke-dasharray:none" id="TR_L008" width="873.78943" height="367.84332" x="43" y="-646.7052"/>
      <rect style="font-variation-settings:'wdth' 70,'wght' 600;display:inline;fill:#454c7f;fill-opacity:1;stroke-width:913.651;stroke-dasharray:none" id="TR_L009" width="1063.3555" height="1004.6103" x="916.78943" y="-646.7052"/>
      <rect style="font-variation-settings:'wdth' 70,'wght' 600;display:inline;fill:#454c7f;fill-opacity:1;stroke-width:542.964;stroke-dasharray:none" id="TR_L010" width="445.30847" height="847.22089" x="1980.1449" y="-489.31583"/>
      <rect style="font-variation-settings:'wdth' 70,'wght' 600;display:inline;fill:#454c7f;fill-opacity:1;stroke-width:417.179;stroke-dasharray:none" id="TR_L011" width="412.63083" height="539.75806" x="2425.4534" y="-489.31583"/>
      <rect style="font-variation-settings:'wdth' 70,'wght' 600;display:inline;fill:#454c7f;fill-opacity:1;stroke-width:431.568;stroke-dasharray:none" id="TR_L012" width="441.58401" height="539.75806" x="2873.0842" y="-489.31583"/>
      <rect style="font-variation-settings:'wdth' 70,'wght' 600;display:inline;fill:#454c7f;fill-opacity:1;stroke-width:430.53;stroke-dasharray:none" id="TR_L013" width="439.46381" height="539.75806" x="3314.6682" y="-489.31583"/>
      <rect style="font-variation-settings:'wdth' 70,'wght' 600;display:inline;fill:#454c7f;fill-opacity:1;stroke-width:907.053;stroke-dasharray:none" id="TR_L014" width="1048.0532" height="1004.6103" x="3754.1321" y="-646.7052"/>
      <rect style="font-variation-settings:'wdth' 70,'wght' 600;display:inline;fill:#454c7f;fill-opacity:1;stroke-width:290.256;stroke-dasharray:none" id="TR_L015" width="330.78207" height="325.94055" x="4819.6855" y="-619.20129"/>
      <rect style="font-variation-settings:'wdth' 70,'wght' 600;display:inline;fill:#454c7f;fill-opacity:1;stroke-width:353.343;stroke-dasharray:none" id="TR_L016" width="490.20007" height="325.94055" x="5150.4678" y="-619.20129"/>
      <rect style="font-variation-settings:'wdth' 70,'wght' 600;display:inline;fill:#454c7f;fill-opacity:1;stroke-width:689.233;stroke-dasharray:none" id="TR_L017" width="865.98273" height="702.00885" x="4802.1855" y="-293.26074"/>
      <rect style="font-variation-settings:'wdth' 70,'wght' 600;display:inline;opacity:1;fill:#454c7f;fill-opacity:1;stroke-width:405.115;stroke-dasharray:none" id="TR_L018" width="479.20398" height="438.28412" x="5161.4678" y="689.49615"/>
      <rect style="font-variation-settings:'wdth' 70,'wght' 600;display:inline;opacity:1;fill:#454c7f;fill-opacity:1;stroke-width:470.184;stroke-dasharray:none" id="TR_L019" width="645.50525" height="438.28412" x="4515.9624" y="689.49615"/>
      <rect style="font-variation-settings:'wdth' 70,'wght' 600;display:inline;fill:#454c7f;fill-opacity:1;stroke-width:178.95;stroke-dasharray:none" id="TR_L024" width="306.17728" height="133.84328" x="2425.4534" y="206.55971"/>
      <rect style="font-variation-settings:'wdth' 70,'wght' 600;display:inline;fill:#454c7f;fill-opacity:1;stroke-width:172.472;stroke-dasharray:none" id="TR_L022" width="277.6676" height="137.09328" x="3032.0005" y="203.30971"/>
      <rect style="font-variation-settings:'wdth' 70,'wght' 600;display:inline;fill:#454c7f;fill-opacity:1;stroke-width:246.102;stroke-dasharray:none" id="TR_L020" width="176.84093" height="438.28418" x="4339.1216" y="689.49615"/>
    </g>
    <g id="staires_0" transform="matrix(0.02439371,0,0,0.02439371,6.8274409,267.46124)" style="display:inline">
      <path style="font-variation-settings:'wdth' 70,'wght' 600;display:inline;opacity:1;fill:#48565b;fill-opacity:1;stroke-width:35;stroke-dasharray:none" d="m 2668.5515,657.21762 -4e-4,-222.26562 h 161.4387 l -10e-5,222.4537 z" id="path106" transform="translate(2.4414661e-6,3.7913352e-5)"/>
      <rect style="font-variation-settings:'wdth' 70,'wght' 600;display:inline;fill:#4c5a5f;fill-opacity:1;stroke-width:6.20208;stroke-dasharray:none" id="rect104" width="161.43871" height="29.06435" x="2668.5515" y="405.88785" transform="translate(2.4414661e-6,3.7913352e-5)"/>
      <rect style="font-variation-settings:'wdth' 70,'wght' 600;display:inline;fill:#4b595e;fill-opacity:1;stroke-width:6.20208;stroke-dasharray:none" id="rect105" width="161.43871" height="29.06435" x="2668.5515" y="376.82349" transform="translate(2.4414661e-6,3.7913352e-5)"/>
      <path style="font-variation-settings:'wdth' 70,'wght' 600;display:inline;opacity:1;fill:#4c5a5f;fill-opacity:1;stroke-width:35;stroke-dasharray:none" d="m 2668.5515,398.40591 h -180.966 l -1e-4,-21.58242 h -162.5983 l 2e-4,-74.27257 h 505.0028 l 1e-4,74.27257 h -161.4387 z" id="path107" transform="translate(2.4414661e-6,3.7913352e-5)"/>
      <rect style="font-variation-settings:'wdth' 70,'wght' 600;display:inline;fill:#4c5a5f;fill-opacity:1;stroke-width:6.22431;stroke-dasharray:none" id="rect147" width="162.5983" height="29.06435" x="-2487.5854" y="-405.88785" transform="scale(-1)"/>
      <rect style="font-variation-settings:'wdth' 70,'wght' 600;display:inline;fill:#4f5e63;fill-opacity:1;stroke-width:6.22431;stroke-dasharray:none" id="rect89" width="162.5983" height="29.06435" x="-2487.5854" y="-434.95221" transform="scale(-1)"/>
      <rect style="font-variation-settings:'wdth' 70,'wght' 600;display:inline;fill:#516166;fill-opacity:1;stroke-width:6.22431;stroke-dasharray:none" id="rect90" width="162.5983" height="29.06435" x="-2487.5854" y="-464.01657" transform="scale(-1)"/>
      <rect style="font-variation-settings:'wdth' 70,'wght' 600;display:inline;fill:#546469;fill-opacity:1;stroke-width:6.22431;stroke-dasharray:none" id="rect91" width="162.5983" height="29.06435" x="-2487.5854" y="-493.08093" transform="scale(-1)"/>
      <rect style="font-variation-settings:'wdth' 70,'wght' 600;display:inline;fill:#56676c;fill-opacity:1;stroke-width:6.22431;stroke-dasharray:none" id="rect92" width="162.5983" height="29.06435" x="-2487.5854" y="-522.14532" transform="scale(-1)"/>
      <rect style="font-variation-settings:'wdth' 70,'wght' 600;display:inline;fill:#586a6f;fill-opacity:1;stroke-width:6.22431;stroke-dasharray:none" id="rect93" width="162.5983" height="29.06435" x="-2487.5854" y="-551.20966" transform="scale(-1)"/>
      <rect style="font-variation-settings:'wdth' 70,'wght' 600;display:inline;fill:#5a6d72;fill-opacity:1;stroke-width:6.22431;stroke-dasharray:none" id="rect94" width="162.5983" height="29.06435" x="-2487.5854" y="-580.27399" transform="scale(-1)"/>
      <rect style="font-variation-settings:'wdth' 70,'wght' 600;display:inline;fill:#5c7075;fill-opacity:1;stroke-width:6.22431;stroke-dasharray:none" id="rect95" width="162.5983" height="29.06435" x="-2487.5854" y="-609.33838" transform="scale(-1)"/>
      <rect style="font-variation-settings:'wdth' 70,'wght' 600;display:inline;fill:#5e7378;fill-opacity:1;stroke-width:6.22431;stroke-dasharray:none" id="rect96" width="162.5983" height="29.06435" x="-2487.5854" y="-638.40277" transform="scale(-1)"/>
      <rect style="font-variation-settings:'wdth' 70,'wght' 600;display:inline;fill:#60767b;fill-opacity:1;stroke-width:6.22431;stroke-dasharray:none" id="rect97" width="162.5983" height="29.06435" x="-2487.5854" y="-667.4671" transform="scale(-1)"/>
      <rect style="font-variation-settings:'wdth' 70,'wght' 600;display:inline;fill:#60767b;fill-opacity:1;stroke-width:15.7203;stroke-dasharray:none" id="rect103" width="157.25233" height="191.69824" x="667.4671" y="-2506.6882" transform="rotate(90,1.7264055e-5,7.5177413e-5)"/>
      <rect style="font-variation-settings:'wdth' 70,'wght' 600;display:inline;fill:#60767b;fill-opacity:1;stroke-width:6.31392;stroke-dasharray:none" id="rect98" width="167.31334" height="29.06435" x="657.40607" y="-2535.7527" transform="rotate(90)"/>
      <rect style="font-variation-settings:'wdth' 70,'wght' 600;display:inline;fill:#62797e;fill-opacity:1;stroke-width:6.31392;stroke-dasharray:none" id="rect99" width="167.31334" height="29.06435" x="657.40607" y="-2564.8171" transform="rotate(90)"/>
      <rect style="font-variation-settings:'wdth' 70,'wght' 600;display:inline;fill:#647c81;fill-opacity:1;stroke-width:6.31392;stroke-dasharray:none" id="rect100" width="167.31334" height="29.06435" x="657.40607" y="-2593.8816" transform="rotate(90)"/>
      <rect style="font-variation-settings:'wdth' 70,'wght' 600;display:inline;fill:#667f84;fill-opacity:1;stroke-width:6.31392;stroke-dasharray:none" id="rect101" width="167.31334" height="29.06435" x="657.40607" y="-2622.946" transform="rotate(90)"/>
      <rect style="font-variation-settings:'wdth' 70,'wght' 600;display:inline;fill:#688287;fill-opacity:1;stroke-width:6.31392;stroke-dasharray:none" id="rect102" width="167.31334" height="29.06435" x="657.40607" y="-2652.0105" transform="rotate(90)"/>
      <path style="font-variation-settings:'wdth' 70,'wght' 600;display:inline;opacity:1;fill:#48565b;fill-opacity:1;stroke-width:33.3271;stroke-dasharray:none" d="m 2652.0731,824.57786 -5e-4,-167.36024 h 194.3957 l -1e-4,167.50187 z" id="path140"/>
      <rect style="font-variation-settings:'wdth' 70,'wght' 600;display:inline;fill:#000;fill-opacity:1;stroke-width:1.15455;stroke-dasharray:none" id="rect27" width="162.5983" height="1.0000001" x="-2487.5854" y="-376.82349" transform="scale(-1)"/>
      <rect style="font-variation-settings:'wdth' 70,'wght' 600;display:inline;fill:#000;fill-opacity:1;stroke-width:1.15455;stroke-dasharray:none" id="rect28" width="162.5983" height="1.0000001" x="-2487.5854" y="-405.88785" transform="scale(-1)"/>
      <rect style="font-variation-settings:'wdth' 70,'wght' 600;display:inline;fill:#000;fill-opacity:1;stroke-width:1.15455;stroke-dasharray:none" id="rect29" width="162.5983" height="1.0000001" x="-2487.5854" y="-434.95221" transform="scale(-1)"/>
      <rect style="font-variation-settings:'wdth' 70,'wght' 600;display:inline;fill:#000;fill-opacity:1;stroke-width:1.15455;stroke-dasharray:none" id="rect30" width="162.5983" height="1.0000001" x="-2487.5854" y="-464.01657" transform="scale(-1)"/>
      <rect style="font-variation-settings:'wdth' 70,'wght' 600;display:inline;fill:#000;fill-opacity:1;stroke-width:1.15455;stroke-dasharray:none" id="rect31" width="162.5983" height="1.0000001" x="-2487.5854" y="-493.08093" transform="scale(-1)"/>
      <rect style="font-variation-settings:'wdth' 70,'wght' 600;display:inline;fill:#000;fill-opacity:1;stroke-width:1.15455;stroke-dasharray:none" id="rect32" width="162.5983" height="1.0000001" x="-2487.5854" y="-522.14532" transform="scale(-1)"/>
      <rect style="font-variation-settings:'wdth' 70,'wght' 600;display:inline;fill:#000;fill-opacity:1;stroke-width:1.15455;stroke-dasharray:none" id="rect33" width="162.5983" height="1.0000001" x="-2487.5854" y="-551.20966" transform="scale(-1)"/>
      <rect style="font-variation-settings:'wdth' 70,'wght' 600;display:inline;fill:#000;fill-opacity:1;stroke-width:1.15455;stroke-dasharray:none" id="rect34" width="162.5983" height="1.0000001" x="-2487.5854" y="-580.27399" transform="scale(-1)"/>
      <rect style="font-variation-settings:'wdth' 70,'wght' 600;display:inline;fill:#000;fill-opacity:1;stroke-width:1.15455;stroke-dasharray:none" id="rect35" width="162.5983" height="1.0000001" x="-2487.5854" y="-609.33838" transform="scale(-1)"/>
      <rect style="font-variation-settings:'wdth' 70,'wght' 600;display:inline;fill:#000;fill-opacity:1;stroke-width:1.15455;stroke-dasharray:none" id="rect37" width="162.5983" height="1.0000001" x="-2487.5854" y="-638.40277" transform="scale(-1)"/>
      <rect style="font-variation-settings:'wdth' 70,'wght' 600;display:inline;fill:#000;fill-opacity:1;stroke-width:1.15455;stroke-dasharray:none" id="rect38" width="162.5983" height="1.0000001" x="-2831.1499" y="-377.82352" transform="scale(-1)"/>
      <rect style="font-variation-settings:'wdth' 70,'wght' 600;display:inline;fill:#000;fill-opacity:1;stroke-width:1.15455;stroke-dasharray:none" id="rect39" width="162.5983" height="1.0000001" x="-2830.5701" y="-406.88788" transform="scale(-1)"/>
      <rect style="font-variation-settings:'wdth' 70,'wght' 600;display:inline;fill:#000;fill-opacity:1;stroke-width:1.15455;stroke-dasharray:none" id="rect40" width="162.5983" height="1.0000001" x="-2830.5701" y="-435.95224" transform="scale(-1)"/>
      <rect style="font-variation-settings:'wdth' 70,'wght' 600;display:inline;fill:#000;fill-opacity:1;stroke-width:1.15455;stroke-dasharray:none" id="rect41" width="162.5983" height="1.0000001" x="-2487.5854" y="-667.4671" transform="scale(-1)"/>
      <rect style="font-variation-settings:'wdth' 70,'wght' 600;display:inline;fill:#000;fill-opacity:1;stroke-width:1.17117;stroke-dasharray:none" id="rect42" width="167.31334" height="1.0000001" x="657.40607" y="-2535.7527" transform="rotate(90)"/>
      <rect style="font-variation-settings:'wdth' 70,'wght' 600;display:inline;fill:#000;fill-opacity:1;stroke-width:1.17117;stroke-dasharray:none" id="rect43" width="167.31334" height="1.0000001" x="657.40607" y="-2564.8171" transform="rotate(90)"/>
      <rect style="font-variation-settings:'wdth' 70,'wght' 600;display:inline;fill:#000;fill-opacity:1;stroke-width:1.17117;stroke-dasharray:none" id="rect44" width="167.31334" height="1.0000001" x="657.40607" y="-2593.8816" transform="rotate(90)"/>
      <rect style="font-variation-settings:'wdth' 70,'wght' 600;display:inline;fill:#000;fill-opacity:1;stroke-width:1.17117;stroke-dasharray:none" id="rect45" width="167.31334" height="1.0000001" x="657.40607" y="-2506.6882" transform="rotate(90)"/>
      <rect style="font-variation-settings:'wdth' 70,'wght' 600;display:inline;fill:#000;fill-opacity:1;stroke-width:1.17117;stroke-dasharray:none" id="rect110" width="167.31334" height="1.0000001" x="657.40607" y="-2622.946" transform="rotate(90)"/>
      <path style="font-variation-settings:'wdth' 70,'wght' 600;display:inline;opacity:1;fill:none;fill-opacity:1;stroke:#bec3c6;stroke-width:5;stroke-dasharray:none;stroke-opacity:1;marker-end:url(#Triangle)" d="m 2406.2863,391.35563 v 344.75733 l 202.1276,1.06066" id="path161" transform="translate(3.9078884e-6,2.6490444e-5)"/>
      <path style="font-variation-settings:'wdth' 70,'wght' 600;display:inline;opacity:1;fill:none;fill-opacity:1;stroke:#bec3c6;stroke-width:5;stroke-dasharray:none;stroke-opacity:1;marker-end:url(#Triangle)" d="M 2749.2709,391.3557 V 629.90592" id="path141" transform="translate(3.9078884e-6,2.6490444e-5)"/>
    </g>
    <g id="walls_0" transform="matrix(0.02439371,0,0,0.02439371,-0.02443957,244.19953)" style="display:inline">
      <path style="font-variation-settings:'wdth' 70,'wght' 600;fill:none;stroke:#bec3c6;stroke-width:55;stroke-linecap:butt;stroke-dasharray:none;stroke-opacity:1" d="m 4302.8775,1611.0004 h 1365.291 v -478.6582" id="path204"/>
      <path style="font-variation-settings:'wdth' 70,'wght' 600;fill:none;stroke:#bec3c6;stroke-width:35;stroke-linecap:butt;stroke-dasharray:none;stroke-opacity:1" d="M 4802.1854,841.12515 H 3975.3651" id="path210"/>
      <path style="font-variation-settings:'wdth' 70,'wght' 600;fill:none;stroke:#bec3c6;stroke-width:35;stroke-linecap:butt;stroke-dasharray:none;stroke-opacity:1" d="M 3128.3773,1114.1032 H 2588.3745" id="path216"/>
      <path style="font-variation-settings:'wdth' 70,'wght' 600;fill:none;stroke:#bec3c6;stroke-width:35;stroke-linecap:butt;stroke-dasharray:none;stroke-opacity:1" d="M 916.7894,4.7674881 V 919.67173" id="path227"/>
      <path style="font-variation-settings:'wdth' 70,'wght' 600;fill:none;stroke:#bec3c6;stroke-width:35;stroke-linecap:butt;stroke-dasharray:none;stroke-opacity:1" d="M 4802.1854,-163.48517 V 891.96819 h 116.6035" id="path228"/>
      <path style="font-variation-settings:'wdth' 70,'wght' 600;fill:none;stroke:#bec3c6;stroke-width:35;stroke-linecap:butt;stroke-dasharray:none;stroke-opacity:1" d="m 4339.1213,1363.513 v -190.7968 h 689.9488" id="path232"/>
      <path style="font-variation-settings:'wdth' 70,'wght' 600;fill:none;stroke:#bec3c6;stroke-width:10;stroke-linecap:butt;stroke-dasharray:none;stroke-opacity:1" d="m 5161.4677,1611.0004 v -76.2426" id="path271"/>
      <path style="font-variation-settings:'wdth' 70,'wght' 600;fill:none;stroke:#bec3c6;stroke-width:10;stroke-linecap:butt;stroke-dasharray:none;stroke-opacity:1" d="M 5150.4677,189.95935 V -163.48517" id="path272"/>
      <path style="font-variation-settings:'wdth' 70,'wght' 600;fill:none;stroke:#bec3c6;stroke-width:10;stroke-linecap:butt;stroke-dasharray:none;stroke-opacity:1" d="M 4987.3652,189.95935 H 4802.1854" id="path274"/>
      <path style="font-variation-settings:'wdth' 70,'wght' 600;fill:none;stroke:#bec3c6;stroke-width:55;stroke-linecap:butt;stroke-dasharray:none;stroke-opacity:1" d="m 4176.1683,1611.0004 h -1055.291 v 28" id="path4"/>
      <path style="font-variation-settings:'wdth' 70,'wght' 600;fill:none;stroke:#bec3c6;stroke-width:55;stroke-linecap:butt;stroke-dasharray:none;stroke-opacity:1" d="m 3127.1681,1739.0004 v 38.8135 H 2595.8772 V 1611.0004 H 1523.5659" id="path5"/>
      <path style="font-variation-settings:'wdth' 70,'wght' 600;fill:none;stroke:#bec3c6;stroke-width:55;stroke-linecap:butt;stroke-dasharray:none;stroke-opacity:1" d="M 1423.5659,1611.0004 H 43 V -163.48517 H 1990.1426 V -6.095757 H 3744.1308 V -163.48517 H 5668.1685 V 932.34222" id="path6"/>
      <path style="font-variation-settings:'wdth' 70,'wght' 600;fill:none;stroke:#bec3c6;stroke-width:10;stroke-linecap:butt;stroke-dasharray:none;stroke-opacity:1" d="M 5161.4677,1442.5641 V 1172.7162" id="path7"/>
      <path style="font-variation-settings:'wdth' 70,'wght' 600;fill:none;stroke:#bec3c6;stroke-width:35;stroke-linecap:butt;stroke-dasharray:none;stroke-opacity:1" d="m 5118.789,891.96819 h 549.3795" id="path9"/>
      <path style="font-variation-settings:'wdth' 70,'wght' 600;fill:none;stroke:#bec3c6;stroke-width:35;stroke-linecap:butt;stroke-dasharray:none;stroke-opacity:1" d="m 5293.8653,1172.7162 h 374.3032" id="path10"/>
      <path style="font-variation-settings:'wdth' 70,'wght' 600;fill:none;stroke:#bec3c6;stroke-width:35;stroke-linecap:butt;stroke-dasharray:none;stroke-opacity:1" d="m 5129.0701,1172.7162 h 64.7952" id="path11"/>
      <path style="font-variation-settings:'wdth' 70,'wght' 600;fill:none;stroke:#bec3c6;stroke-width:35;stroke-linecap:butt;stroke-dasharray:none;stroke-opacity:1" d="M 4339.1213,1611.0004 V 1463.513" id="path12"/>
      <path style="font-variation-settings:'wdth' 70,'wght' 600;fill:none;stroke:#bec3c6;stroke-width:35;stroke-linecap:butt;stroke-dasharray:none;stroke-opacity:1" d="m 4515.9622,1172.7162 v 438.2842" id="path13"/>
      <path style="font-variation-settings:'wdth' 70,'wght' 600;fill:none;stroke:#bec3c6;stroke-width:35;stroke-linecap:butt;stroke-dasharray:none;stroke-opacity:1" d="M 4136.5351,1611.0004 V 1458.513" id="path14"/>
      <path style="font-variation-settings:'wdth' 70,'wght' 600;fill:none;stroke:#bec3c6;stroke-width:35;stroke-linecap:butt;stroke-dasharray:none;stroke-opacity:1" d="M 4136.5351,1358.513 V 1155.295" id="path15"/>
      <path style="font-variation-settings:'wdth' 70,'wght' 600;fill:none;stroke:#bec3c6;stroke-width:10;stroke-linecap:butt;stroke-dasharray:none;stroke-opacity:1" d="m 5198.3653,189.95935 h -111" id="path16"/>
      <path style="font-variation-settings:'wdth' 70,'wght' 600;fill:none;stroke:#bec3c6;stroke-width:10;stroke-linecap:butt;stroke-dasharray:none;stroke-opacity:1" d="M 5668.1685,189.95935 H 5298.3653" id="path17"/>
      <path style="font-variation-settings:'wdth' 70,'wght' 600;fill:none;stroke:#bec3c6;stroke-width:35;stroke-linecap:butt;stroke-dasharray:none;stroke-opacity:1" d="m 2605.8745,1611.0004 v -354.855" id="path18"/>
      <path style="font-variation-settings:'wdth' 70,'wght' 600;fill:none;stroke:#bec3c6;stroke-width:35;stroke-linecap:butt;stroke-dasharray:none;stroke-opacity:1" d="m 2767.3129,1320.4566 v 290.0438 h 182.1259 v -290.0438" id="path19"/>
      <path style="font-variation-settings:'wdth' 70,'wght' 600;fill:none;stroke:#bec3c6;stroke-width:35;stroke-linecap:butt;stroke-dasharray:none;stroke-opacity:1" d="m 3110.8773,1611.0004 v -354.855" id="path20"/>
      <path style="font-variation-settings:'wdth' 70,'wght' 600;fill:none;stroke:#bec3c6;stroke-width:35;stroke-linecap:butt;stroke-dasharray:none;stroke-opacity:1" d="M 3875.3651,841.12515 H 3754.132 V 708.8833" id="path21"/>
      <path style="font-variation-settings:'wdth' 70,'wght' 600;fill:none;stroke:#bec3c6;stroke-width:35;stroke-linecap:butt;stroke-dasharray:none;stroke-opacity:1" d="M 3754.132,608.88329 V 5.141383" id="path22"/>
      <path style="font-variation-settings:'wdth' 70,'wght' 600;fill:none;stroke:#bec3c6;stroke-width:35;stroke-linecap:butt;stroke-dasharray:none;stroke-opacity:1" d="M 2855.5842,533.66227 V 5.141383" id="path23"/>
      <path style="font-variation-settings:'wdth' 70,'wght' 600;fill:none;stroke:#bec3c6;stroke-width:35;stroke-linecap:butt;stroke-dasharray:none;stroke-opacity:1" d="M 1980.1449,841.12515 V 5.141383" id="path24"/>
      <path style="font-variation-settings:'wdth' 70,'wght' 600;fill:none;stroke:#bec3c6;stroke-width:35;stroke-linecap:butt;stroke-dasharray:none;stroke-opacity:1" d="M 2153.566,841.12515 H 1843.5659" id="path25"/>
      <path style="font-variation-settings:'wdth' 70,'wght' 600;fill:none;stroke:#bec3c6;stroke-width:35;stroke-linecap:butt;stroke-dasharray:none;stroke-opacity:1" d="m 2253.566,841.12515 h 610.1522 V 699.00029 h 168.2822 v 142.12486 h 279 V 681.50029" id="path26"/>
      <path style="font-variation-settings:'wdth' 70,'wght' 600;fill:none;stroke:#bec3c6;stroke-width:10;stroke-linecap:butt;stroke-dasharray:none;stroke-opacity:1" d="M 3314.6681,533.66227 V -6.095757" id="path27"/>
      <path style="font-variation-settings:'wdth' 70,'wght' 600;fill:none;stroke:#bec3c6;stroke-width:10;stroke-linecap:butt;stroke-dasharray:none;stroke-opacity:1" d="M 3754.132,533.66227 H 3481.5263" id="path28"/>
      <path style="font-variation-settings:'wdth' 70,'wght' 600;fill:none;stroke:#bec3c6;stroke-width:10;stroke-linecap:butt;stroke-dasharray:none;stroke-opacity:1" d="M 3381.5262,533.66227 H 3134.3368" id="path29"/>
      <path style="font-variation-settings:'wdth' 70,'wght' 600;fill:none;stroke:#bec3c6;stroke-width:10;stroke-linecap:butt;stroke-dasharray:none;stroke-opacity:1" d="M 3034.3368,533.66227 H 2792.2739" id="path30"/>
      <path style="font-variation-settings:'wdth' 70,'wght' 600;fill:none;stroke:#bec3c6;stroke-width:10;stroke-linecap:butt;stroke-dasharray:none;stroke-opacity:1" d="M 2692.2738,533.66227 H 2425.4533" id="path31"/>
      <path style="font-variation-settings:'wdth' 70,'wght' 600;fill:none;stroke:#bec3c6;stroke-width:10;stroke-linecap:butt;stroke-dasharray:none;stroke-opacity:1" d="M 2425.4533,581.52975 V -6.095757" id="path32"/>
      <path style="font-variation-settings:'wdth' 70,'wght' 600;fill:none;stroke:#bec3c6;stroke-width:10;stroke-linecap:butt;stroke-dasharray:none;stroke-opacity:1" d="M 2425.4533,841.12515 V 686.52977 h 166.8205" id="path33"/>
      <path style="font-variation-settings:'wdth' 70,'wght' 600;fill:none;stroke:#bec3c6;stroke-width:10;stroke-linecap:butt;stroke-dasharray:none;stroke-opacity:1" d="M 2731.6306,841.12515 V 686.52977 h -39.3568" id="path34"/>
      <path style="font-variation-settings:'wdth' 70,'wght' 600;fill:none;stroke:#bec3c6;stroke-width:10;stroke-linecap:butt;stroke-dasharray:none;stroke-opacity:1" d="m 3180.0976,686.52977 h 130.9028" id="path35"/>
      <path style="font-variation-settings:'wdth' 70,'wght' 600;fill:none;stroke:#bec3c6;stroke-width:10;stroke-linecap:butt;stroke-dasharray:none;stroke-opacity:1" d="m 3032.0004,686.52977 h 48.0972" id="path36"/>
      <path style="font-variation-settings:'wdth' 70,'wght' 600;fill:none;stroke:#bec3c6;stroke-width:10;stroke-linecap:butt;stroke-dasharray:none;stroke-opacity:1" d="M 3482.5662,853.62515 H 3311.0004" id="path37"/>
      <path style="font-variation-settings:'wdth' 70,'wght' 600;fill:none;stroke:#bec3c6;stroke-width:10;stroke-linecap:butt;stroke-dasharray:none;stroke-opacity:1" d="M 3754.132,853.62515 H 3582.5662" id="path38"/>
      <path style="font-variation-settings:'wdth' 70,'wght' 600;fill:none;stroke:#bec3c6;stroke-width:10;stroke-linecap:butt;stroke-dasharray:none;stroke-opacity:1" d="m 2863.8241,699.00029 v -38.919" id="path40"/>
      <path style="font-variation-settings:'wdth' 70,'wght' 600;fill:none;stroke:#bec3c6;stroke-width:10;stroke-linecap:butt;stroke-dasharray:none;stroke-opacity:1" d="m 2863.8241,560.08127 v -26.419" id="path41"/>
      <path style="font-variation-settings:'wdth' 70,'wght' 600;fill:none;stroke:#bec3c6;stroke-width:35;stroke-linecap:butt;stroke-dasharray:none;stroke-opacity:1" d="M 1743.5659,841.12515 H 916.7894" id="path42"/>
      <path style="font-variation-settings:'wdth' 70,'wght' 600;fill:none;stroke:#bec3c6;stroke-width:35;stroke-linecap:butt;stroke-dasharray:none;stroke-opacity:1" d="m 916.7894,-163.48517 v 68.252645" id="path43"/>
      <path style="font-variation-settings:'wdth' 70,'wght' 600;fill:none;stroke:#bec3c6;stroke-width:35;stroke-linecap:butt;stroke-dasharray:none;stroke-opacity:1" d="m 789.5658,1172.7162 h 576.5001 v 17.2842" id="path44"/>
      <path style="font-variation-settings:'wdth' 70,'wght' 600;fill:none;stroke:#bec3c6;stroke-width:35;stroke-linecap:butt;stroke-dasharray:none;stroke-opacity:1" d="m 1366.0659,1290.2162 v 68.2968" id="path45"/>
      <path style="font-variation-settings:'wdth' 70,'wght' 600;fill:none;stroke:#bec3c6;stroke-width:35;stroke-linecap:butt;stroke-dasharray:none;stroke-opacity:1" d="m 1366.0659,1458.513 v 152.4874" id="path46"/>
      <path style="font-variation-settings:'wdth' 70,'wght' 600;fill:none;stroke:#bec3c6;stroke-width:35;stroke-linecap:butt;stroke-dasharray:none;stroke-opacity:1" d="m 1147.8626,1172.7162 v 438.2842" id="path47"/>
      <path style="font-variation-settings:'wdth' 70,'wght' 600;fill:none;stroke:#bec3c6;stroke-width:10;stroke-linecap:butt;stroke-dasharray:none;stroke-opacity:1" d="M 1366.0659,1302.4566 H 1147.8626" id="path48"/>
      <path style="font-variation-settings:'wdth' 70,'wght' 600;fill:none;stroke:#bec3c6;stroke-width:35;stroke-linecap:butt;stroke-dasharray:none;stroke-opacity:1" d="m 560.9639,1080.9125 v 530.0879" id="path49"/>
      <path style="font-variation-settings:'wdth' 70,'wght' 600;fill:none;stroke:#bec3c6;stroke-width:35;stroke-linecap:butt;stroke-dasharray:none;stroke-opacity:1" d="M 560.9639,1172.7162 H 689.56579" id="path50"/>
      <path style="font-variation-settings:'wdth' 70,'wght' 600;fill:none;stroke:#bec3c6;stroke-width:35;stroke-linecap:butt;stroke-dasharray:none;stroke-opacity:1" d="M 43,893.21617 H 648.5001 V 867.50031" id="path51"/>
      <path style="font-variation-settings:'wdth' 70,'wght' 600;fill:none;stroke:#bec3c6;stroke-width:35;stroke-linecap:butt;stroke-dasharray:none;stroke-opacity:1" d="M 648.5001,767.5003 V 527.21962" id="path52"/>
      <path style="font-variation-settings:'wdth' 70,'wght' 600;fill:none;stroke:#bec3c6;stroke-width:35;stroke-linecap:butt;stroke-dasharray:none;stroke-opacity:1" d="M 43,549.3582 H 648.5001" id="path53"/>
      <path style="font-variation-settings:'wdth' 70,'wght' 600;fill:none;stroke:#bec3c6;stroke-width:35;stroke-linecap:butt;stroke-dasharray:none;stroke-opacity:1" d="M 648.5001,427.2196 V 204.35816" id="path54"/>
      <path style="font-variation-settings:'wdth' 70,'wght' 600;fill:none;stroke:#bec3c6;stroke-width:35;stroke-linecap:butt;stroke-dasharray:none;stroke-opacity:1" d="M 43,204.35816 H 707.1889" id="path55"/>
      <path style="font-variation-settings:'wdth' 70,'wght' 600;fill:none;stroke:#bec3c6;stroke-width:35;stroke-linecap:butt;stroke-dasharray:none;stroke-opacity:1" d="M 807.18891,204.35816 H 916.7894" id="path56"/>
      <path style="font-variation-settings:'wdth' 70,'wght' 600;fill:none;stroke:#bec3c6;stroke-width:35;stroke-linecap:butt;stroke-dasharray:none;stroke-opacity:1" d="m 560.9639,893.21617 v 87.69635" id="path57"/>
      <path style="font-variation-settings:'wdth' 70,'wght' 600;fill:none;stroke:#bec3c6;stroke-width:35;stroke-linecap:butt;stroke-dasharray:none;stroke-opacity:1" d="m 1576.0659,1458.513 v 152.4874" id="path58"/>
      <path style="font-variation-settings:'wdth' 70,'wght' 600;fill:none;stroke:#bec3c6;stroke-width:35;stroke-linecap:butt;stroke-dasharray:none;stroke-opacity:1" d="M 1576.0659,1155.3929 V 1358.513" id="path59"/>
      <path style="font-variation-settings:'wdth' 70,'wght' 600;fill:none;stroke:#bec3c6;stroke-width:35;stroke-linecap:butt;stroke-dasharray:none;stroke-opacity:1" d="m 2015.5659,1155.3929 v 455.6075" id="path60"/>
      <path style="font-variation-settings:'wdth' 70,'wght' 600;fill:none;stroke:#bec3c6;stroke-width:35;stroke-linecap:butt;stroke-dasharray:none;stroke-opacity:1" d="m 1576.0659,1216.0256 h 439.5" id="path61"/>
      <path style="font-variation-settings:'wdth' 70,'wght' 600;fill:none;stroke:#bec3c6;stroke-width:35;stroke-linecap:butt;stroke-dasharray:none;stroke-opacity:1" d="M 3708.0283,1611.0004 V 1155.295" id="path62"/>
      <path style="font-variation-settings:'wdth' 70,'wght' 600;fill:none;stroke:#bec3c6;stroke-width:35;stroke-linecap:butt;stroke-dasharray:none;stroke-opacity:1" d="m 3708.0283,1216.0256 h 428.5068" id="path63"/>
      <path style="font-variation-settings:'wdth' 70,'wght' 600;fill:none;stroke:#bec3c6;stroke-width:35;stroke-linecap:butt;stroke-dasharray:none;stroke-opacity:1" d="M 2863.7182,927.61417 V 841.12515" id="path68"/>
      <path style="font-variation-settings:'wdth' 70,'wght' 600;fill:none;stroke:#bec3c6;stroke-width:35;stroke-linecap:butt;stroke-dasharray:none;stroke-opacity:1" d="m 2863.7182,1114.1032 v -86.489" id="path69"/>
      <path style="font-variation-settings:'wdth' 70,'wght' 600;fill:none;stroke:#bec3c6;stroke-width:35;stroke-linecap:butt;stroke-dasharray:none;stroke-opacity:1" d="m 2769.8745,1352.0004 h 43.6259" id="path88"/>
      <path style="font-variation-settings:'wdth' 70,'wght' 600;fill:none;stroke:#bec3c6;stroke-width:35;stroke-linecap:butt;stroke-dasharray:none;stroke-opacity:1" d="m 2908.3745,1352.0004 h 43.6259" id="path89"/>
    </g>
    <g id="icons_0" transform="matrix(0.02439371,0,0,0.02439371,-0.02443957,244.19953)" style="display:inline">
      <path d="m 1787.2667,1463.513 v -31.8652 h -10.1036 v -32.2539 q 0,-3.5622 2.5583,-6.1205 2.5583,-2.5583 6.1205,-2.5583 h 19.9482 q 3.5621,0 6.1204,2.5583 2.5583,2.5583 2.5583,6.1205 v 32.2539 h -10.1036 v 31.8652 z m 8.5596,-82.6425 q -3.6891,0 -6.1891,-2.5544 -2.5,-2.5545 -2.5,-6.1139 0,-3.6892 2.4896,-6.1892 2.4899,-2.5 6.1788,-2.5 3.6891,0 6.1891,2.4897 2.5,2.4897 2.5,6.1787 0,3.5596 -2.4896,6.1244 -2.4897,2.5647 -6.1788,2.5647 z" id="path260" style="fill:#fff;fill-opacity:.798742;stroke-width:.129534;filter:url(#filter17)"/>
      <path d="m 3913.2143,1463.513 v -30.0518 h -14.7668 l 14.2098,-39.4458 q 1.121,-2.8983 3.8366,-4.5889 2.7155,-1.6907 5.7878,-1.6907 3.0723,0 5.7878,1.6907 2.7156,1.6906 3.8542,4.5779 l 14.1922,39.4568 h -14.7668 v 30.0518 z m 9.0778,-82.6424 q -3.6892,0 -6.1892,-2.5504 -2.5,-2.5504 -2.5,-6.118 0,-3.6892 2.4897,-6.1892 2.4899,-2.5 6.1787,-2.5 3.6892,0 6.1892,2.4897 2.5,2.4897 2.5,6.114 0,3.6243 -2.4897,6.1891 -2.4896,2.5648 -6.1787,2.5648 z" id="path261" style="fill:#fff;fill-opacity:.803459;stroke-width:.129534;filter:url(#filter15)"/>
      <g id="g264" style="filter:url(#filter65)" transform="translate(406.28296,453.9953)">
        <rect style="font-variation-settings:'wdth' 70,'wght' 600;fill:none;fill-opacity:1;stroke:#d6d7de;stroke-width:4.78791;stroke-linejoin:miter;stroke-dasharray:none;stroke-opacity:1" id="rect263" width="95.212135" height="95.212151" x="2405.0667" y="979.80487" ry="9.1410179"/>
        <path d="m 2427.7505,1062.6135 h 12.6169 v -23.8318 h 6.2306 v -17.757 c 0,-2.6337 -0.8992,-4.8497 -2.6976,-6.6481 -1.7985,-1.7985 -4.0665,-2.6977 -6.804,-2.6977 h -6.2306 c -2.7375,0 -4.9794,0.8992 -6.7258,2.6977 -1.7466,1.7984 -2.6199,4.0144 -2.6199,6.6481 v 17.757 h 6.2304 z m 6.1958,-54.9845 c 2.1478,0 3.9626,-0.7033 5.4445,-2.1098 1.4819,-1.4064 2.2228,-3.2356 2.2228,-5.4875 0,-2.148 -0.7292,-3.93697 -2.1877,-5.3669 -1.4583,-1.42987 -3.2615,-2.1448 -5.4096,-2.1448 -2.1481,0 -3.937,0.70327 -5.3669,2.1098 -1.4299,1.4064 -2.1449,3.18367 -2.1449,5.3318 0,2.2518 0.7033,4.0926 2.11,5.5225 1.4064,1.4299 3.1837,2.1449 5.3318,2.1449 z m 28.3838,9.9689 h 20.0934 l -9.9688,-16.1994 z m 10.1246,35.6697 9.9688,-16.1993 h -20.0934 z" id="path264" style="fill:#d5d6dd;fill-opacity:1;stroke-width:0;stroke-dasharray:none"/>
      </g>
    </g>
    <path id="path282" d="m 374.9087,155.26188 q -9.792,0 -15.84,-8.16 -5.952,-8.16 -5.952,-23.712 0,-15.648 5.952,-23.52 6.048,-7.872 15.84,-7.872 9.792,0 15.744,7.968 6.048,7.872 6.048,23.424 0,15.552 -6.048,23.712 -5.952,8.16 -15.744,8.16 z m 0,-10.944 q 2.4,0 4.32,-1.728 1.92,-1.824 2.976,-6.336 1.152,-4.608 1.152,-12.864 0,-8.352 -1.152,-12.768 -1.056,-4.416 -2.976,-6.048 -1.92,-1.632 -4.32,-1.632 -2.4,0 -4.32,1.632 -1.92,1.632 -3.072,6.048 -1.056,4.416 -1.056,12.768 0,8.256 1.056,12.864 1.152,4.512 3.072,6.336 1.92,1.728 4.32,1.728 z m 50.68799,10.944 q -9.792,0 -15.84,-8.16 -5.952,-8.16 -5.952,-23.712 0,-15.648 5.952,-23.52 6.048,-7.872 15.84,-7.872 9.792,0 15.744,7.968 6.048,7.872 6.048,23.424 0,15.552 -6.048,23.712 -5.952,8.16 -15.744,8.16 z m 0,-10.944 q 2.4,0 4.32,-1.728 1.92,-1.824 2.976,-6.336 1.152,-4.608 1.152,-12.864 0,-8.352 -1.152,-12.768 -1.056,-4.416 -2.976,-6.048 -1.92,-1.632 -4.32,-1.632 -2.4,0 -4.32,1.632 -1.92,1.632 -3.072,6.048 -1.056,4.416 -1.056,12.768 0,8.256 1.056,12.864 1.152,4.512 3.072,6.336 1.92,1.728 4.32,1.728 z m 50.59198,10.944 q -6.048,0 -10.944,-2.112 -4.8,-2.112 -7.584,-5.856 -2.688,-3.84 -2.688,-8.736 0,-3.744 1.344,-6.432 1.44,-2.784 3.744,-4.896 2.4,-2.112 5.28,-3.648 v -0.384 q -3.456,-2.688 -5.856,-6.144 -2.304,-3.456 -2.304,-8.256 0,-5.184 2.496,-8.928 2.496,-3.84 6.912,-5.856 4.416,-2.016 10.08,-2.016 8.448,0 13.44,4.608 5.088,4.512 5.088,12.096 0,2.88 -1.152,5.472 -1.056,2.496 -2.88,4.512 -1.824,1.92 -3.936,3.36 v 0.384 q 2.88,1.536 5.28,3.744 2.4,2.112 3.84,5.184 1.44,2.976 1.44,7.008 0,4.8 -2.688,8.64 -2.688,3.744 -7.584,6.048 -4.8,2.208 -11.328,2.208 z m 3.84,-36.672 q 1.824,-2.112 2.784,-4.32 0.96,-2.208 0.96,-4.608 0,-2.4 -0.864,-4.128 -0.864,-1.728 -2.592,-2.688 -1.632,-1.056 -3.936,-1.056 -2.784,0 -4.8,1.824 -2.016,1.728 -2.016,5.184 0,2.496 1.344,4.224 1.344,1.728 3.648,3.072 2.4,1.344 5.472,2.496 z m -3.552,26.88 q 2.304,0 4.128,-0.768 1.92,-0.864 2.976,-2.496 1.056,-1.728 1.056,-4.32 0,-2.688 -1.632,-4.416 -1.536,-1.824 -4.512,-3.168 -2.88,-1.44 -6.72,-3.072 -2.016,1.824 -3.36,4.416 -1.344,2.496 -1.344,5.28 0,2.688 1.248,4.608 1.344,1.92 3.456,2.976 2.208,0.96 4.704,0.96 z m -136.272,-111.36 v -50.688 h -17.184 v -11.904 h 48.576 v 11.904 h -17.184 v 50.688 z m 41.18397,0 v -62.592 h 22.56 q 6.624,0 12.096,1.824 5.472,1.728 8.736,6.048 3.264,4.224 3.264,11.6159997 0,7.2 -3.264,11.712 -3.264,4.512 -8.736,6.72 -5.472,2.1120003 -12.096,2.1120003 h -8.448 v 22.56 z m 14.112,-33.79200026 h 7.296 q 5.568,0 8.448,-2.30400004 2.976,-2.4 2.976,-7.008 0,-4.6079997 -2.976,-6.4319997 -2.88,-1.824 -8.448,-1.824 h -7.296 z m 19.776,33.79200026 -13.92,-26.2080003 9.792,-9.12 19.968,35.3280003 z m 18.72009,13.44 v -7.968 h 45.696 v 7.968 z m 54.24,-13.44 v -62.592 h 14.112 v 50.688 h 24.768 v 11.904 z M 240.76405,511.68353 q -9.792,0 -15.84,-8.16 -5.952,-8.16 -5.952,-23.712 0,-15.648 5.952,-23.52 6.048,-7.872 15.84,-7.872 9.792,0 15.744,7.968 6.048,7.872 6.048,23.424 0,15.552 -6.048,23.712 -5.952,8.16 -15.744,8.16 z m 0,-10.944 q 2.4,0 4.32,-1.728 1.92,-1.824 2.976,-6.336 1.152,-4.608 1.152,-12.864 0,-8.352 -1.152,-12.768 -1.056,-4.416 -2.976,-6.048 -1.92,-1.632 -4.32,-1.632 -2.4,0 -4.32,1.632 -1.92,1.632 -3.072,6.048 -1.056,4.416 -1.056,12.768 0,8.256 1.056,12.864 1.152,4.512 3.072,6.336 1.92,1.728 4.32,1.728 z m 50.68799,10.944 q -9.792,0 -15.84,-8.16 -5.952,-8.16 -5.952,-23.712 0,-15.648 5.952,-23.52 6.048,-7.872 15.84,-7.872 9.792,0 15.744,7.968 6.048,7.872 6.048,23.424 0,15.552 -6.048,23.712 -5.952,8.16 -15.744,8.16 z m 0,-10.944 q 2.4,0 4.32,-1.728 1.92,-1.824 2.976,-6.336 1.152,-4.608 1.152,-12.864 0,-8.352 -1.152,-12.768 -1.056,-4.416 -2.976,-6.048 -1.92,-1.632 -4.32,-1.632 -2.4,0 -4.32,1.632 -1.92,1.632 -3.072,6.048 -1.056,4.416 -1.056,12.768 0,8.256 1.056,12.864 1.152,4.512 3.072,6.336 1.92,1.728 4.32,1.728 z m 39.74398,9.792 q 0.48,-7.584 1.536,-13.92 1.056,-6.432 2.976,-12.192 2.016,-5.76 5.088,-11.328 3.072,-5.568 7.584,-11.616 h -27.36 v -11.904 h 42.432 v 8.64 q -5.376,6.528 -8.832,12.192 -3.36,5.664 -5.184,11.52 -1.824,5.856 -2.688,12.768 -0.864,6.912 -1.344,15.84 z m -125.136,-120 v -50.688 h -17.184 v -11.904 h 48.576 v 11.904 h -17.184 v 50.688 z m 41.18397,0 v -62.592 h 22.56 q 6.624,0 12.096,1.824 5.472,1.728 8.736,6.048 3.264,4.224 3.264,11.616 0,7.2 -3.264,11.712 -3.264,4.512 -8.736,6.72 -5.472,2.112 -12.096,2.112 h -8.448 v 22.56 z m 14.112,-33.792 h 7.296 q 5.568,0 8.448,-2.304 2.976,-2.4 2.976,-7.008 0,-4.608 -2.976,-6.432 -2.88,-1.824 -8.448,-1.824 h -7.296 z m 19.776,33.792 -13.92,-26.208 9.792,-9.12 19.968,35.328 z m 18.72009,13.44 v -7.968 h 45.696 v 7.968 z m 54.24,-13.44 v -62.592 h 14.112 v 50.688 h 24.768 v 11.904 z M 240.76405,856.11254 q -9.792,0 -15.84,-8.16 -5.952,-8.16 -5.952,-23.712 0,-15.648 5.952,-23.52 6.048,-7.872 15.84,-7.872 9.792,0 15.744,7.968 6.048,7.872 6.048,23.424 0,15.552 -6.048,23.712 -5.952,8.16 -15.744,8.16 z m 0,-10.944 q 2.4,0 4.32,-1.728 1.92,-1.824 2.976,-6.336 1.152,-4.608 1.152,-12.864 0,-8.352 -1.152,-12.768 -1.056,-4.416 -2.976,-6.048 -1.92,-1.632 -4.32,-1.632 -2.4,0 -4.32,1.632 -1.92,1.632 -3.072,6.048 -1.056,4.416 -1.056,12.768 0,8.256 1.056,12.864 1.152,4.512 3.072,6.336 1.92,1.728 4.32,1.728 z m 50.68799,10.944 q -9.792,0 -15.84,-8.16 -5.952,-8.16 -5.952,-23.712 0,-15.648 5.952,-23.52 6.048,-7.872 15.84,-7.872 9.792,0 15.744,7.968 6.048,7.872 6.048,23.424 0,15.552 -6.048,23.712 -5.952,8.16 -15.744,8.16 z m 0,-10.944 q 2.4,0 4.32,-1.728 1.92,-1.824 2.976,-6.336 1.152,-4.608 1.152,-12.864 0,-8.352 -1.152,-12.768 -1.056,-4.416 -2.976,-6.048 -1.92,-1.632 -4.32,-1.632 -2.4,0 -4.32,1.632 -1.92,1.632 -3.072,6.048 -1.056,4.416 -1.056,12.768 0,8.256 1.056,12.864 1.152,4.512 3.072,6.336 1.92,1.728 4.32,1.728 z m 52.31998,10.944 q -4.416,0 -8.544,-1.728 -4.128,-1.728 -7.392,-5.376 -3.264,-3.648 -5.184,-9.312 -1.92,-5.76 -1.92,-13.824 0,-8.544 2.016,-14.784 2.016,-6.24 5.472,-10.272 3.456,-4.032 7.872,-5.952 4.416,-2.016 9.312,-2.016 6.048,0 10.464,2.208 4.416,2.112 7.296,5.088 l -7.392,8.448 q -1.632,-1.728 -4.224,-2.976 -2.592,-1.344 -5.28,-1.344 -3.456,0 -6.432,2.016 -2.88,2.016 -4.608,6.816 -1.632,4.704 -1.632,12.768 0,7.584 1.344,11.904 1.44,4.224 3.744,6.048 2.304,1.728 4.8,1.728 2.112,0 3.84,-1.056 1.728,-1.056 2.784,-3.168 1.056,-2.208 1.056,-5.664 0,-3.264 -1.056,-5.184 -1.056,-1.92 -2.88,-2.784 -1.728,-0.864 -4.032,-0.864 -2.4,0 -4.992,1.44 -2.496,1.44 -4.512,5.088 l -0.672,-9.216 q 2.4,-3.552 6.144,-5.376 3.744,-1.92 6.72,-1.92 5.184,0 9.312,2.016 4.128,2.016 6.432,6.24 2.4,4.128 2.4,10.56 0,6.336 -2.784,10.944 -2.688,4.608 -7.296,7.104 -4.608,2.4 -10.176,2.4 z m -137.712,-121.152 v -50.688 h -17.184 v -11.904 h 48.576 v 11.904 h -17.184 v 50.688 z m 41.18397,0 v -62.592 h 22.56 q 6.624,0 12.096,1.824 5.472,1.728 8.736,6.048 3.264,4.224 3.264,11.616 0,7.2 -3.264,11.712 -3.264,4.512 -8.736,6.72 -5.472,2.112 -12.096,2.112 h -8.448 v 22.56 z m 14.112,-33.792 h 7.296 q 5.568,0 8.448,-2.304 2.976,-2.4 2.976,-7.008 0,-4.608 -2.976,-6.432 -2.88,-1.824 -8.448,-1.824 h -7.296 z m 19.776,33.792 -13.92,-26.208 9.792,-9.12 19.968,35.328 z m 18.72009,13.44 v -7.968 h 45.696 v 7.968 z m 54.24,-13.44 v -62.592 h 14.112 v 50.688 h 24.768 v 11.904 z M 196.99595,1386.9336 q -9.792,0 -15.84,-8.16 -5.952,-8.16 -5.952,-23.712 0,-15.648 5.952,-23.52 6.048,-7.872 15.84,-7.872 9.792,0 15.744,7.968 6.048,7.872 6.048,23.424 0,15.552 -6.048,23.712 -5.952,8.16 -15.744,8.16 z m 0,-10.944 q 2.4,0 4.32,-1.728 1.92,-1.824 2.976,-6.336 1.152,-4.608 1.152,-12.864 0,-8.352 -1.152,-12.768 -1.056,-4.416 -2.976,-6.048 -1.92,-1.632 -4.32,-1.632 -2.4,0 -4.32,1.632 -1.92,1.632 -3.072,6.048 -1.056,4.416 -1.056,12.768 0,8.256 1.056,12.864 1.152,4.512 3.072,6.336 1.92,1.728 4.32,1.728 z m 50.68799,10.944 q -9.792,0 -15.84,-8.16 -5.952,-8.16 -5.952,-23.712 0,-15.648 5.952,-23.52 6.048,-7.872 15.84,-7.872 9.792,0 15.744,7.968 6.048,7.872 6.048,23.424 0,15.552 -6.048,23.712 -5.952,8.16 -15.744,8.16 z m 0,-10.944 q 2.4,0 4.32,-1.728 1.92,-1.824 2.976,-6.336 1.152,-4.608 1.152,-12.864 0,-8.352 -1.152,-12.768 -1.056,-4.416 -2.976,-6.048 -1.92,-1.632 -4.32,-1.632 -2.4,0 -4.32,1.632 -1.92,1.632 -3.072,6.048 -1.056,4.416 -1.056,12.768 0,8.256 1.056,12.864 1.152,4.512 3.072,6.336 1.92,1.728 4.32,1.728 z m 49.05598,10.944 q -4.992,0 -9.024,-1.152 -3.936,-1.152 -7.008,-3.072 -3.072,-1.92 -5.472,-4.32 l 6.336,-8.928 q 2.784,2.496 6.048,4.32 3.264,1.728 7.104,1.728 3.072,0 5.376,-1.056 2.304,-1.152 3.552,-3.264 1.344,-2.112 1.344,-5.184 0,-4.608 -2.688,-7.008 -2.688,-2.4 -6.912,-2.4 -2.592,0 -4.416,0.672 -1.824,0.672 -4.608,2.4 l -6.336,-4.032 1.728,-30.816 h 34.56 v 11.904 h -22.368 l -1.056,11.424 q 1.824,-0.768 3.36,-1.056 1.536,-0.384 3.456,-0.384 5.28,0 9.696,2.016 4.416,2.016 7.008,6.24 2.688,4.224 2.688,10.656 0,6.816 -3.168,11.616 -3.072,4.704 -8.16,7.2 -5.088,2.496 -11.04,2.496 z m -134.448,-121.152 v -50.688 h -17.184 v -11.904 h 48.576 v 11.904 h -17.184 v 50.688 z m 41.18397,0 v -62.592 h 22.56 q 6.624,0 12.096,1.824 5.472,1.728 8.736,6.048 3.264,4.224 3.264,11.616 0,7.2 -3.264,11.712 -3.264,4.512 -8.736,6.72 -5.472,2.112 -12.096,2.112 h -8.448 v 22.56 z m 14.112,-33.792 h 7.296 q 5.568,0 8.448,-2.304 2.976,-2.4 2.976,-7.008 0,-4.608 -2.976,-6.432 -2.88,-1.824 -8.448,-1.824 h -7.296 z m 19.776,33.792 -13.92,-26.208 9.792,-9.12 19.968,35.328 z m 18.72009,13.44 v -7.968 h 45.696 v 7.968 z m 54.24,-13.44 v -62.592 h 14.112 v 50.688 h 24.768 v 11.904 z m 869.52092,64.3402 q -4.352,0 -7.04,-3.6267 -2.6454,-3.6266 -2.6454,-10.5386 0,-6.9547 2.6454,-10.4534 2.688,-3.4987 7.04,-3.4987 4.352,0 6.9973,3.5414 2.688,3.4986 2.688,10.4107 0,6.912 -2.688,10.5386 -2.6453,3.6267 -6.9973,3.6267 z m 0,-4.864 q 1.0667,0 1.92,-0.768 0.8533,-0.8107 1.3227,-2.816 0.512,-2.048 0.512,-5.7173 0,-3.7121 -0.512,-5.6747 -0.4694,-1.9627 -1.3227,-2.688 -0.8533,-0.7254 -1.92,-0.7254 -1.0667,0 -1.92,0.7254 -0.8533,0.7253 -1.3654,2.688 -0.4693,1.9626 -0.4693,5.6747 0,3.6693 0.4693,5.7173 0.5121,2.0053 1.3654,2.816 0.8533,0.768 1.92,0.768 z m 22.528,4.864 q -4.352,0 -7.04,-3.6267 -2.6453,-3.6266 -2.6453,-10.5386 0,-6.9547 2.6453,-10.4534 2.688,-3.4987 7.04,-3.4987 4.352,0 6.9973,3.5414 2.688,3.4986 2.688,10.4107 0,6.912 -2.688,10.5386 -2.6453,3.6267 -6.9973,3.6267 z m 0,-4.864 q 1.0667,0 1.92,-0.768 0.8533,-0.8107 1.3227,-2.816 0.512,-2.048 0.512,-5.7173 0,-3.7121 -0.512,-5.6747 -0.4694,-1.9627 -1.3227,-2.688 -0.8533,-0.7254 -1.92,-0.7254 -1.0667,0 -1.92,0.7254 -0.8533,0.7253 -1.3653,2.688 -0.4694,1.9626 -0.4694,5.6747 0,3.6693 0.4694,5.7173 0.512,2.0053 1.3653,2.816 0.8533,0.768 1.92,0.768 z m 12.8427,4.352 v -3.8827 q 3.4133,-3.0293 6.0586,-5.6746 2.688,-2.6454 4.1814,-4.9067 1.536,-2.2614 1.536,-4.1387 0,-2.0053 -1.024,-3.0293 -1.024,-1.0667 -2.816,-1.0667 -1.4507,0 -2.6454,0.8533 -1.152,0.8107 -2.176,1.92 l -3.2853,-3.2426 q 1.9627,-2.2187 4.0107,-3.328 2.0906,-1.1094 4.9493,-1.1094 2.6453,0 4.6507,1.0667 2.048,1.0667 3.1573,2.9867 1.152,1.92 1.152,4.5226 0,2.432 -1.3227,4.7787 -1.28,2.304 -3.4133,4.608 -2.1333,2.304 -4.5227,4.6934 1.024,-0.128 2.304,-0.2134 1.28,-0.128 2.2187,-0.128 h 6.0587 v 5.2907 z m -50.7947,-53.3334 v -22.528 h -7.6374 v -5.2907 h 21.5894 v 5.2907 h -7.6374 v 22.528 z m 18.304,0 v -27.8187 h 10.0266 q 2.944,0 5.376,0.8107 2.432,0.768 3.8827,2.688 1.4507,1.8773 1.4507,5.1627 0,3.2 -1.4507,5.2053 -1.4507,2.0053 -3.8827,2.9867 -2.432,0.9386 -5.376,0.9386 h -3.7546 v 10.0267 z m 6.272,-15.0187 h 3.2426 q 2.4747,0 3.7547,-1.024 1.3227,-1.0666 1.3227,-3.1146 0,-2.048 -1.3227,-2.8587 -1.28,-0.8107 -3.7547,-0.8107 h -3.2426 z m 8.7893,15.0187 -6.1867,-11.648 4.352,-4.0533 8.8747,15.7013 z m 8.3201,5.9734 v -3.5414 h 20.3093 v 3.5414 z m 24.1066,-5.9734 v -27.8187 h 6.272 v 22.528 h 11.008 v 5.2907 z m -53.1547,255.5933 q -4.896,0 -7.92,-4.08 -2.976,-4.08 -2.976,-11.856 0,-7.824 2.976,-11.76 3.024,-3.936 7.92,-3.936 4.896,0 7.872,3.984 3.024,3.936 3.024,11.712 0,7.776 -3.024,11.856 -2.976,4.08 -7.872,4.08 z m 0,-5.472 q 1.2,0 2.16,-0.864 0.96,-0.912 1.488,-3.168 0.576,-2.304 0.576,-6.432 0,-4.176 -0.576,-6.384 -0.528,-2.208 -1.488,-3.024 -0.96,-0.816 -2.16,-0.816 -1.2,0 -2.16,0.816 -0.96,0.816 -1.536,3.024 -0.528,2.208 -0.528,6.384 0,4.128 0.528,6.432 0.576,2.256 1.536,3.168 0.96,0.864 2.16,0.864 z m 25.344,5.472 q -4.896,0 -7.92,-4.08 -2.976,-4.08 -2.976,-11.856 0,-7.824 2.976,-11.76 3.024,-3.936 7.92,-3.936 4.896,0 7.872,3.984 3.024,3.936 3.024,11.712 0,7.776 -3.024,11.856 -2.976,4.08 -7.872,4.08 z m 0,-5.472 q 1.2,0 2.16,-0.864 0.96,-0.912 1.488,-3.168 0.576,-2.304 0.576,-6.432 0,-4.176 -0.576,-6.384 -0.528,-2.208 -1.488,-3.024 -0.96,-0.816 -2.16,-0.816 -1.2,0 -2.16,0.816 -0.96,0.816 -1.536,3.024 -0.528,2.208 -0.528,6.384 0,4.128 0.528,6.432 0.576,2.256 1.536,3.168 0.96,0.864 2.16,0.864 z m 24.336,5.472 q -2.448,0 -4.464,-0.576 -1.968,-0.528 -3.504,-1.488 -1.536,-0.96 -2.64,-2.256 l 3.264,-4.464 q 1.392,1.344 3.072,2.208 1.68,0.864 3.6,0.864 2.208,0 3.552,-0.912 1.392,-0.96 1.392,-2.688 0,-1.344 -0.672,-2.304 -0.672,-1.008 -2.448,-1.536 -1.728,-0.528 -5.088,-0.528 v -4.992 q 2.736,0 4.32,-0.528 1.584,-0.528 2.208,-1.44 0.672,-0.912 0.672,-2.112 0,-1.632 -1.008,-2.496 -0.96,-0.864 -2.736,-0.864 -1.632,0 -2.976,0.72 -1.296,0.672 -2.736,1.968 l -3.552,-4.32 q 2.112,-1.824 4.464,-2.832 2.352,-1.056 5.136,-1.056 3.12,0 5.472,1.008 2.4,0.96 3.696,2.832 1.344,1.824 1.344,4.512 0,2.352 -1.344,4.032 -1.296,1.68 -3.744,2.736 v 0.192 q 1.728,0.528 3.12,1.536 1.392,0.96 2.16,2.448 0.768,1.488 0.768,3.456 0,2.832 -1.584,4.848 -1.536,1.968 -4.128,3.024 -2.544,1.008 -5.616,1.008 z m -67.032,-60.576 v -25.344 h -8.592 v -5.952 h 24.288 v 5.952 h -8.592 v 25.344 z m 20.592,0 v -31.296 h 11.28 q 3.312,0 6.048,0.912 2.736,0.864 4.368,3.024 1.632,2.112 1.632,5.808 0,3.6 -1.632,5.856 -1.632,2.256 -4.368,3.36 -2.736,1.056 -6.048,1.056 h -4.224 v 11.28 z m 7.056,-16.896 h 3.648 q 2.784,0 4.224,-1.152 1.488,-1.2 1.488,-3.504 0,-2.304 -1.488,-3.216 -1.44,-0.912 -4.224,-0.912 h -3.648 z m 9.888,16.896 -6.96,-13.104 4.896,-4.56 9.984,17.664 z m 9.36,6.72 v -3.984 h 22.848 v 3.984 z m 27.12,-6.72 v -31.296 h 7.056 v 25.344 h 12.384 v 5.952 z m -484.29495,55.2024 q -9.792,0 -15.84,-8.16 -5.952,-8.16 -5.952,-23.712 0,-15.648 5.952,-23.52 6.048,-7.872 15.84,-7.872 9.792,0 15.744,7.968 6.048,7.872 6.048,23.424 0,15.552 -6.048,23.712 -5.952,8.16 -15.744,8.16 z m 0,-10.944 q 2.4,0 4.32,-1.728 1.92,-1.824 2.976,-6.336 1.152,-4.608 1.152,-12.864 0,-8.352 -1.152,-12.768 -1.056,-4.416 -2.976,-6.048 -1.92,-1.632 -4.32,-1.632 -2.4,0 -4.32,1.632 -1.92,1.632 -3.072,6.048 -1.056,4.416 -1.056,12.768 0,8.256 1.056,12.864 1.152,4.512 3.072,6.336 1.92,1.728 4.32,1.728 z m 50.68799,10.944 q -9.792,0 -15.84,-8.16 -5.952,-8.16 -5.952,-23.712 0,-15.648 5.952,-23.52 6.048,-7.872 15.84,-7.872 9.792,0 15.744,7.968 6.048,7.872 6.048,23.424 0,15.552 -6.048,23.712 -5.952,8.16 -15.744,8.16 z m 0,-10.944 q 2.4,0 4.32,-1.728 1.92,-1.824 2.976,-6.336 1.152,-4.608 1.152,-12.864 0,-8.352 -1.152,-12.768 -1.056,-4.416 -2.976,-6.048 -1.92,-1.632 -4.32,-1.632 -2.4,0 -4.32,1.632 -1.92,1.632 -3.072,6.048 -1.056,4.416 -1.056,12.768 0,8.256 1.056,12.864 1.152,4.512 3.072,6.336 1.92,1.728 4.32,1.728 z m 53.56798,9.792 v -35.232 q 0,-2.88 0.192,-6.816 0.288,-3.936 0.384,-6.816 h -0.384 q -1.152,2.496 -2.4,5.088 -1.248,2.496 -2.592,5.184 l -8.064,13.248 h 33.024 v 10.752 h -46.56 v -9.696 l 22.272,-36.672 h 17.28 v 60.96 z m -138.96,-120 v -50.688 h -17.184 v -11.904 h 48.576 v 11.904 h -17.184 v 50.688 z m 41.18397,0 v -62.592 h 22.56 q 6.624,0 12.096,1.824 5.472,1.728 8.736,6.048 3.264,4.224 3.264,11.616 0,7.2 -3.264,11.712 -3.264,4.512 -8.736,6.72 -5.472,2.112 -12.096,2.112 h -8.448 v 22.56 z m 14.112,-33.792 h 7.296 q 5.568,0 8.448,-2.304 2.976,-2.4 2.976,-7.008 0,-4.608 -2.976,-6.432 -2.88,-1.824 -8.448,-1.824 h -7.296 z m 19.776,33.792 -13.92,-26.208 9.792,-9.12 19.968,35.328 z m 18.72009,13.44 v -7.968 h 45.696 v 7.968 z m 54.24,-13.44 v -62.592 h 14.112 v 50.688 h 24.768 v 11.904 z m 3484.88082,75.4036 q -4.896,0 -7.92,-4.08 -2.976,-4.08 -2.976,-11.856 0,-7.824 2.976,-11.76 3.024,-3.936 7.92,-3.936 4.896,0 7.872,3.984 3.024,3.936 3.024,11.712 0,7.776 -3.024,11.856 -2.976,4.08 -7.872,4.08 z m 0,-5.472 q 1.2,0 2.16,-0.864 0.96,-0.912 1.488,-3.168 0.576,-2.304 0.576,-6.432 0,-4.176 -0.576,-6.384 -0.528,-2.208 -1.488,-3.024 -0.96,-0.816 -2.16,-0.816 -1.2,0 -2.16,0.816 -0.96,0.816 -1.536,3.024 -0.528,2.208 -0.528,6.384 0,4.128 0.528,6.432 0.576,2.256 1.536,3.168 0.96,0.864 2.16,0.864 z m 14.448,4.896 v -4.368 q 3.84,-3.408 6.816,-6.384 3.024,-2.976 4.704,-5.52 1.728,-2.544 1.728,-4.656 0,-2.256 -1.152,-3.408 -1.152,-1.2 -3.168,-1.2 -1.632,0 -2.976,0.96 -1.296,0.912 -2.448,2.16 l -3.696,-3.648 q 2.208,-2.496 4.512,-3.744 2.352,-1.248 5.568,-1.248 2.976,0 5.232,1.2 2.304,1.2 3.552,3.36 1.296,2.16 1.296,5.088 0,2.736 -1.488,5.376 -1.44,2.592 -3.84,5.184 -2.4,2.592 -5.088,5.28 1.152,-0.144 2.592,-0.24 1.44,-0.144 2.496,-0.144 h 6.816 v 5.952 z m 36.24,0.576 q -4.896,0 -7.92,-4.08 -2.976,-4.08 -2.976,-11.856 0,-7.824 2.976,-11.76 3.024,-3.936 7.92,-3.936 4.896,0 7.872,3.984 3.024,3.936 3.024,11.712 0,7.776 -3.024,11.856 -2.976,4.08 -7.872,4.08 z m 0,-5.472 q 1.2,0 2.16,-0.864 0.96,-0.912 1.488,-3.168 0.576,-2.304 0.576,-6.432 0,-4.176 -0.576,-6.384 -0.528,-2.208 -1.488,-3.024 -0.96,-0.816 -2.16,-0.816 -1.2,0 -2.16,0.816 -0.96,0.816 -1.536,3.024 -0.528,2.208 -0.528,6.384 0,4.128 0.528,6.432 0.576,2.256 1.536,3.168 0.96,0.864 2.16,0.864 z m -68.04,-55.104 v -25.344 h -8.592 v -5.952 h 24.288 v 5.952 h -8.592 v 25.344 z m 20.5919,0 v -31.296 h 11.28 q 3.312,0 6.048,0.912 2.736,0.864 4.368,3.024 1.632,2.112 1.632,5.808 0,3.6 -1.632,5.856 -1.632,2.256 -4.368,3.36 -2.736,1.056 -6.048,1.056 h -4.224 v 11.28 z m 7.056,-16.896 h 3.648 q 2.784,0 4.224,-1.152 1.488,-1.2 1.488,-3.504 0,-2.304 -1.488,-3.216 -1.44,-0.912 -4.224,-0.912 h -3.648 z m 9.888,16.896 -6.96,-13.104 4.896,-4.56 9.984,17.664 z m 9.3601,6.72 v -3.984 h 22.848 v 3.984 z m 27.12,-6.72 v -31.296 h 7.056 v 25.344 h 12.384 v 5.952 z m 329.4289,106.5119 q -9.792,0 -15.84,-8.16 -5.952,-8.16 -5.952,-23.712 0,-15.648 5.952,-23.52 6.048,-7.872 15.84,-7.872 9.792,0 15.744,7.968 6.048,7.872 6.048,23.424 0,15.552 -6.048,23.712 -5.952,8.16 -15.744,8.16 z m 0,-10.944 q 2.4,0 4.32,-1.728 1.92,-1.824 2.976,-6.336 1.152,-4.608 1.152,-12.864 0,-8.352 -1.152,-12.768 -1.056,-4.416 -2.976,-6.048 -1.92,-1.632 -4.32,-1.632 -2.4,0 -4.32,1.632 -1.92,1.632 -3.072,6.048 -1.056,4.416 -1.056,12.768 0,8.256 1.056,12.864 1.152,4.512 3.072,6.336 1.92,1.728 4.32,1.728 z m 32.064,9.792 v -11.424 h 13.248 v -35.232 h -11.424 v -8.736 q 4.992,-0.96 8.448,-2.304 3.552,-1.344 6.72,-3.264 h 10.368 v 49.536 h 11.424 v 11.424 z m 65.952,1.152 q -6.048,0 -10.464,-2.208 -4.416,-2.208 -7.392,-5.088 l 7.488,-8.448 q 1.536,1.728 4.128,3.072 2.688,1.248 5.28,1.248 3.648,0 6.432,-2.016 2.88,-2.016 4.512,-6.72 1.728,-4.8 1.728,-12.864 0,-7.584 -1.44,-11.808 -1.344,-4.32 -3.648,-6.048 -2.208,-1.824 -4.8,-1.824 -2.016,0 -3.84,1.056 -1.728,1.056 -2.784,3.168 -1.056,2.112 -1.056,5.664 0,3.168 1.056,5.184 1.056,1.92 2.88,2.784 1.824,0.864 4.128,0.864 2.4,0 4.896,-1.44 2.496,-1.536 4.512,-5.088 l 0.672,9.216 q -2.304,3.36 -6.048,5.376 -3.744,1.92 -6.816,1.92 -5.184,0 -9.312,-2.016 -4.128,-2.016 -6.528,-6.144 -2.304,-4.224 -2.304,-10.656 0,-6.336 2.784,-10.944 2.784,-4.608 7.392,-7.008 4.608,-2.496 10.08,-2.496 4.512,0 8.64,1.728 4.128,1.728 7.296,5.376 3.264,3.648 5.184,9.408 2.016,5.664 2.016,13.728 0,8.544 -2.112,14.784 -2.016,6.24 -5.472,10.272 -3.456,4.032 -7.872,6.048 -4.416,1.92 -9.216,1.92 z m -132.72,-121.152 v -50.688 h -17.184 v -11.904 h 48.576 v 11.904 h -17.184 v 50.688 z m 41.1839,0 v -62.592 h 22.56 q 6.624,0 12.096,1.824 5.472,1.728 8.736,6.048 3.264,4.224 3.264,11.616 0,7.2 -3.264,11.712 -3.264,4.512 -8.736,6.72 -5.472,2.112 -12.096,2.112 h -8.448 v 22.56 z m 14.112,-33.792 h 7.296 q 5.568,0 8.448,-2.304 2.976,-2.4 2.976,-7.008 0,-4.608 -2.976,-6.432 -2.88,-1.824 -8.448,-1.824 h -7.296 z m 19.776,33.792 -13.92,-26.208 9.792,-9.12 19.968,35.328 z m 18.7201,13.44 v -7.968 h 45.696 v 7.968 z m 54.24,-13.44 v -62.592 h 14.112 v 50.688 h 24.768 v 11.904 z m 449.0268,121.152 q -9.792,0 -15.84,-8.16 -5.952,-8.16 -5.952,-23.712 0,-15.648 5.952,-23.52 6.048,-7.872 15.84,-7.872 9.792,0 15.744,7.968 6.048,7.872 6.048,23.424 0,15.552 -6.048,23.712 -5.952,8.16 -15.744,8.16 z m 0,-10.944 q 2.4,0 4.32,-1.728 1.92,-1.824 2.976,-6.336 1.152,-4.608 1.152,-12.864 0,-8.352 -1.152,-12.768 -1.056,-4.416 -2.976,-6.048 -1.92,-1.632 -4.32,-1.632 -2.4,0 -4.32,1.632 -1.92,1.632 -3.072,6.048 -1.056,4.416 -1.056,12.768 0,8.256 1.056,12.864 1.152,4.512 3.072,6.336 1.92,1.728 4.32,1.728 z m 32.064,9.792 v -11.424 h 13.248 v -35.232 h -11.424 v -8.736 q 4.992,-0.96 8.448,-2.304 3.552,-1.344 6.72,-3.264 h 10.368 v 49.536 h 11.424 v 11.424 z m 69.216,1.152 q -6.048,0 -10.944,-2.112 -4.8,-2.112 -7.584,-5.856 -2.688,-3.84 -2.688,-8.736 0,-3.744 1.344,-6.432 1.44,-2.784 3.744,-4.896 2.4,-2.112 5.28,-3.648 v -0.384 q -3.456,-2.688 -5.856,-6.144 -2.304,-3.456 -2.304,-8.256 0,-5.184 2.496,-8.928 2.496,-3.84 6.912,-5.856 4.416,-2.016 10.08,-2.016 8.448,0 13.44,4.608 5.088,4.512 5.088,12.096 0,2.88 -1.152,5.472 -1.056,2.496 -2.88,4.512 -1.824,1.92 -3.936,3.36 v 0.384 q 2.88,1.536 5.28,3.744 2.4,2.112 3.84,5.184 1.44,2.976 1.44,7.008 0,4.8 -2.688,8.64 -2.688,3.744 -7.584,6.048 -4.8,2.208 -11.328,2.208 z m 3.84,-36.672 q 1.824,-2.112 2.784,-4.32 0.96,-2.208 0.96,-4.608 0,-2.4 -0.864,-4.128 -0.864,-1.728 -2.592,-2.688 -1.632,-1.056 -3.936,-1.056 -2.784,0 -4.8,1.824 -2.016,1.728 -2.016,5.184 0,2.496 1.344,4.224 1.344,1.728 3.648,3.072 2.4,1.344 5.472,2.496 z m -3.552,26.88 q 2.304,0 4.128,-0.768 1.92,-0.864 2.976,-2.496 1.056,-1.728 1.056,-4.32 0,-2.688 -1.632,-4.416 -1.536,-1.824 -4.512,-3.168 -2.88,-1.44 -6.72,-3.072 -2.016,1.824 -3.36,4.416 -1.344,2.496 -1.344,5.28 0,2.688 1.248,4.608 1.344,1.92 3.456,2.976 2.208,0.96 4.704,0.96 z m -136.272,-111.36 v -50.688 h -17.184 v -11.904 h 48.576 v 11.904 h -17.184 v 50.688 z m 41.1839,0 v -62.592 h 22.56 q 6.624,0 12.096,1.824 5.472,1.728 8.736,6.048 3.264,4.224 3.264,11.616 0,7.2 -3.264,11.712 -3.264,4.512 -8.736,6.72 -5.472,2.112 -12.096,2.112 h -8.448 v 22.56 z m 14.112,-33.792 h 7.296 q 5.568,0 8.448,-2.304 2.976,-2.4 2.976,-7.008 0,-4.608 -2.976,-6.432 -2.88,-1.824 -8.448,-1.824 h -7.296 z m 19.776,33.792 -13.92,-26.208 9.792,-9.12 19.968,35.328 z m 18.7201,13.44 v -7.968 h 45.696 v 7.968 z m 54.24,-13.44 v -62.592 h 14.112 v 50.688 h 24.768 v 11.904 z M 5080.0309,767.6611 q -19.584,0 -31.68,-16.32 -11.904,-16.32 -11.904,-47.424 0,-31.296 11.904,-47.04 12.096,-15.744 31.68,-15.744 19.584,0 31.488,15.936 12.096,15.744 12.096,46.848 0,31.104 -12.096,47.424 -11.904,16.32 -31.488,16.32 z m 0,-21.888 q 4.8,0 8.64,-3.456 3.84,-3.648 5.952,-12.672 2.304,-9.216 2.304,-25.728 0,-16.704 -2.304,-25.536 -2.112,-8.832 -5.952,-12.096 -3.84,-3.264 -8.64,-3.264 -4.8,0 -8.64,3.264 -3.84,3.264 -6.144,12.096 -2.112,8.832 -2.112,25.536 0,16.512 2.112,25.728 2.304,9.024 6.144,12.672 3.84,3.456 8.64,3.456 z m 64.128,19.584 v -22.848 h 26.496 v -70.464 h -22.848 v -17.472 q 9.984,-1.92 16.896,-4.608 7.104,-2.688 13.44,-6.528 h 20.736 v 99.072 h 22.848 v 22.848 z m 116.736,0 q 0.96,-15.168 3.072,-27.84 2.112,-12.864 5.952,-24.384 4.032,-11.52 10.176,-22.656 6.144,-11.136 15.168,-23.232 h -54.72 v -23.808 h 84.864 v 17.28 q -10.752,13.056 -17.664,24.384 -6.72,11.328 -10.368,23.04 -3.648,11.712 -5.376,25.536 -1.728,13.824 -2.688,31.68 z m -250.2721,-240 v -101.376 h -34.368 v -23.808 h 97.152 v 23.808 h -34.368 v 101.376 z m 82.368,0 v -125.184 h 45.12 q 13.248,0 24.192,3.648 10.944,3.456 17.472,12.096 6.528,8.448 6.528,23.232 0,14.4 -6.528,23.424 -6.528,9.024 -17.472,13.44 -10.944,4.224 -24.192,4.224 h -16.896 v 45.12 z m 28.224,-67.584 h 14.592 q 11.136,0 16.896,-4.608 5.952,-4.8 5.952,-14.016 0,-9.216 -5.952,-12.864 -5.76,-3.648 -16.896,-3.648 h -14.592 z m 39.552,67.584 -27.84,-52.416 19.584,-18.24 39.936,70.656 z m 37.4402,26.88 v -15.936 h 91.392 v 15.936 z m 108.48,-26.88 v -125.184 h 28.224 v 101.376 h 49.536 v 23.808 z m -16.1052,-363.5427 q -9.792,0 -15.84,-8.16 -5.952,-8.16 -5.952,-23.712 0,-15.648 5.952,-23.52 6.048,-7.872 15.84,-7.872 9.792,0 15.744,7.968 6.048,7.872 6.048,23.424 0,15.552 -6.048,23.712 -5.952,8.16 -15.744,8.16 z m 0,-10.944 q 2.4,0 4.32,-1.728 1.92,-1.824 2.976,-6.336 1.152,-4.608 1.152,-12.864 0,-8.352 -1.152,-12.768 -1.056,-4.416 -2.976,-6.048 -1.92,-1.632 -4.32,-1.632 -2.4,0 -4.32,1.632 -1.92,1.632 -3.072,6.048 -1.056,4.416 -1.056,12.768 0,8.256 1.056,12.864 1.152,4.512 3.072,6.336 1.92,1.728 4.32,1.728 z m 32.064,9.792 v -11.424 h 13.248 v -35.232 h -11.424 v -8.736 q 4.992,-0.96 8.448,-2.304 3.552,-1.344 6.72,-3.264 h 10.368 v 49.536 h 11.424 v 11.424 z m 70.944,1.152 q -4.416,0 -8.544,-1.728 -4.128,-1.728 -7.392,-5.376 -3.264,-3.648 -5.184,-9.312 -1.92,-5.76 -1.92,-13.824 0,-8.544 2.016,-14.784 2.016,-6.24 5.472,-10.272 3.456,-4.032 7.872,-5.952 4.416,-2.016 9.312,-2.016 6.048,0 10.464,2.208 4.416,2.112 7.296,5.088 l -7.392,8.448 q -1.632,-1.728 -4.224,-2.976 -2.592,-1.344 -5.28,-1.344 -3.456,0 -6.432,2.016 -2.88,2.016 -4.608,6.816 -1.632,4.704 -1.632,12.768 0,7.584 1.344,11.904 1.44,4.224 3.744,6.048 2.304,1.728 4.8,1.728 2.112,0 3.84,-1.056 1.728,-1.056 2.784,-3.168 1.056,-2.208 1.056,-5.664 0,-3.264 -1.056,-5.184 -1.056,-1.92 -2.88,-2.784 -1.728,-0.864 -4.032,-0.864 -2.4,0 -4.992,1.44 -2.496,1.44 -4.512,5.088 l -0.672,-9.216 q 2.4,-3.552 6.144,-5.376 3.744,-1.92 6.72,-1.92 5.184,0 9.312,2.016 4.128,2.016 6.432,6.24 2.4,4.128 2.4,10.56 0,6.336 -2.784,10.944 -2.688,4.608 -7.296,7.104 -4.608,2.4 -10.176,2.4 z m -137.712,-121.152 v -50.688 h -17.184 v -11.904 h 48.576 v 11.904 h -17.184 v 50.688 z m 41.1839,0 v -62.592 h 22.56 q 6.624,0 12.096,1.824 5.472,1.728 8.736,6.048 3.264,4.224 3.264,11.6159997 0,7.2 -3.264,11.712 -3.264,4.5120003 -8.736,6.7200003 -5.472,2.112 -12.096,2.112 h -8.448 v 22.56 z m 14.112,-33.7920003 h 7.296 q 5.568,0 8.448,-2.304 2.976,-2.4 2.976,-7.008 0,-4.6079997 -2.976,-6.4319997 -2.88,-1.824 -8.448,-1.824 h -7.296 z m 19.776,33.7920003 -13.92,-26.208 9.792,-9.1200003 19.968,35.3280003 z m 18.7201,13.44 v -7.968 h 45.696 v 7.968 z m 54.24,-13.44 v -62.592 h 14.112 v 50.688 h 24.768 v 11.904 z m -523.8192,121.152 q -9.792,0 -15.84,-8.16 -5.952,-8.16 -5.952,-23.712 0,-15.648 5.952,-23.52 6.048,-7.872 15.84,-7.872 9.792,0 15.744,7.968 6.048,7.872 6.048,23.424 0,15.552 -6.048,23.712 -5.952,8.16 -15.744,8.16 z m 0,-10.944 q 2.4,0 4.32,-1.728 1.92,-1.824 2.976,-6.336 1.152,-4.608 1.152,-12.864 0,-8.352 -1.152,-12.768 -1.056,-4.416 -2.976,-6.048 -1.92,-1.632 -4.32,-1.632 -2.4,0 -4.32,1.632 -1.92,1.632 -3.072,6.048 -1.056,4.416 -1.056,12.768 0,8.256 1.056,12.864 1.152,4.512 3.072,6.336 1.92,1.728 4.32,1.728 z m 32.064,9.792 v -11.424 h 13.248 v -35.232 h -11.424 v -8.736 q 4.992,-0.96 8.448,-2.304 3.552,-1.344 6.72,-3.264 h 10.368 v 49.536 h 11.424 v 11.424 z m 67.68,1.152 q -4.992,0 -9.024,-1.152 -3.936,-1.152 -7.008,-3.072 -3.072,-1.92 -5.472,-4.32 l 6.336,-8.928 q 2.784,2.496 6.048,4.32 3.264,1.728 7.104,1.728 3.072,0 5.376,-1.056 2.304,-1.152 3.552,-3.264 1.344,-2.112 1.344,-5.184 0,-4.608 -2.688,-7.008 -2.688,-2.4 -6.912,-2.4 -2.592,0 -4.416,0.672 -1.824,0.672 -4.608,2.4 l -6.336,-4.032 1.728,-30.816 h 34.56 v 11.904 h -22.368 l -1.056,11.424 q 1.824,-0.768 3.36,-1.056 1.536,-0.384 3.456,-0.384 5.28,0 9.696,2.016 4.416,2.016 7.008,6.24 2.688,4.224 2.688,10.656 0,6.816 -3.168,11.616 -3.072,4.704 -8.16,7.2 -5.088,2.496 -11.04,2.496 z m -134.448,-121.152 v -50.688 h -17.184 v -11.904 h 48.576 v 11.904 h -17.184 v 50.688 z m 41.1839,0 v -62.592 h 22.56 q 6.624,0 12.096,1.824 5.472,1.728 8.736,6.048 3.264,4.224 3.264,11.6159997 0,7.2 -3.264,11.712 -3.264,4.5120003 -8.736,6.7200003 -5.472,2.112 -12.096,2.112 h -8.448 v 22.56 z m 14.112,-33.7920003 h 7.296 q 5.568,0 8.448,-2.304 2.976,-2.4 2.976,-7.008 0,-4.6079997 -2.976,-6.4319997 -2.88,-1.824 -8.448,-1.824 h -7.296 z m 19.776,33.7920003 -13.92,-26.208 9.792,-9.1200003 19.968,35.3280003 z m 18.7201,13.44 v -7.968 h 45.696 v 7.968 z m 54.24,-13.44 v -62.592 h 14.112 v 50.688 h 24.768 v 11.904 z M 2498.636,845.59077 q -4.896,0 -7.92,-4.08 -2.976,-4.08 -2.976,-11.856 0,-7.824 2.976,-11.76 3.024,-3.936 7.92,-3.936 4.896,0 7.872,3.984 3.024,3.936 3.024,11.712 0,7.776 -3.024,11.856 -2.976,4.08 -7.872,4.08 z m 0,-5.472 q 1.2,0 2.16,-0.864 0.96,-0.912 1.488,-3.168 0.576,-2.304 0.576,-6.432 0,-4.176 -0.576,-6.384 -0.528,-2.208 -1.488,-3.024 -0.96,-0.816 -2.16,-0.816 -1.2,0 -2.16,0.816 -0.96,0.816 -1.536,3.024 -0.528,2.208 -0.528,6.384 0,4.128 0.528,6.432 0.576,2.256 1.536,3.168 0.96,0.864 2.16,0.864 z m 14.448,4.896 v -4.368 q 3.84,-3.408 6.816,-6.384 3.024,-2.976 4.704,-5.52 1.728,-2.544 1.728,-4.656 0,-2.256 -1.152,-3.408 -1.152,-1.2 -3.168,-1.2 -1.632,0 -2.976,0.96 -1.296,0.912 -2.448,2.16 l -3.696,-3.648 q 2.208,-2.496 4.512,-3.744 2.352,-1.248 5.568,-1.248 2.976,0 5.232,1.2 2.304,1.2 3.552,3.36 1.296,2.16 1.296,5.088 0,2.736 -1.488,5.376 -1.44,2.592 -3.84,5.184 -2.4,2.592 -5.088,5.28 1.152,-0.144 2.592,-0.24 1.44,-0.144 2.496,-0.144 h 6.816 v 5.952 z m 37.68,0 v -17.616 q 0,-1.44 0.096,-3.408 0.144,-1.968 0.192,-3.408 h -0.192 q -0.576,1.248 -1.2,2.544 -0.624,1.248 -1.296,2.592 l -4.032,6.624 h 16.512 v 5.376 h -23.28 v -4.848 l 11.136,-18.336 h 8.64 v 30.48 z m -69.48,-60 v -25.344 h -8.592 v -5.952 h 24.288 v 5.952 h -8.592 v 25.344 z m 20.5919,0 v -31.296 h 11.28 q 3.312,0 6.048,0.912 2.736,0.864 4.368,3.024 1.632,2.112 1.632,5.808 0,3.6 -1.632,5.856 -1.632,2.256 -4.368,3.36 -2.736,1.056 -6.048,1.056 h -4.224 v 11.28 z m 7.056,-16.896 h 3.648 q 2.784,0 4.224,-1.152 1.488,-1.2 1.488,-3.504 0,-2.304 -1.488,-3.216 -1.44,-0.912 -4.224,-0.912 h -3.648 z m 9.888,16.896 -6.96,-13.104 4.896,-4.56 9.984,17.664 z m 9.3601,6.72 v -3.984 h 22.848 v 3.984 z m 27.12,-6.72 v -31.296 h 7.056 v 25.344 h 12.384 v 5.952 z m 535.6283,58.951 q -4.896,0 -7.92,-4.08 -2.976,-4.08 -2.976,-11.856 0,-7.824 2.976,-11.76 3.024,-3.936 7.92,-3.936 4.896,0 7.872,3.984 3.024,3.936 3.024,11.712 0,7.776 -3.024,11.856 -2.976,4.08 -7.872,4.08 z m 0,-5.472 q 1.2,0 2.16,-0.864 0.96,-0.912 1.488,-3.168 0.576,-2.304 0.576,-6.432 0,-4.176 -0.576,-6.384 -0.528,-2.208 -1.488,-3.024 -0.96,-0.816 -2.16,-0.816 -1.2,0 -2.16,0.816 -0.96,0.816 -1.536,3.024 -0.528,2.208 -0.528,6.384 0,4.128 0.528,6.432 0.576,2.256 1.536,3.168 0.96,0.864 2.16,0.864 z m 14.448,4.896 v -4.368 q 3.84,-3.408 6.816,-6.384 3.024,-2.976 4.704,-5.52 1.728,-2.544 1.728,-4.656 0,-2.256 -1.152,-3.408 -1.152,-1.2 -3.168,-1.2 -1.632,0 -2.976,0.96 -1.296,0.912 -2.448,2.16 l -3.696,-3.648 q 2.208,-2.496 4.512,-3.744 2.352,-1.248 5.568,-1.248 2.976,0 5.232,1.2 2.304,1.2 3.552,3.36 1.296,2.16 1.296,5.088 0,2.736 -1.488,5.376 -1.44,2.592 -3.84,5.184 -2.4,2.592 -5.088,5.28 1.152,-0.144 2.592,-0.24 1.44,-0.144 2.496,-0.144 h 6.816 v 5.952 z m 25.344,0 v -4.368 q 3.84,-3.408 6.816,-6.384 3.024,-2.976 4.704,-5.52 1.728,-2.544 1.728,-4.656 0,-2.256 -1.152,-3.408 -1.152,-1.2 -3.168,-1.2 -1.632,0 -2.976,0.96 -1.296,0.912 -2.448,2.16 l -3.696,-3.648 q 2.208,-2.496 4.512,-3.744 2.352,-1.248 5.568,-1.248 2.976,0 5.232,1.2 2.304,1.2 3.552,3.36 1.296,2.16 1.296,5.088 0,2.736 -1.488,5.376 -1.44,2.592 -3.84,5.184 -2.4,2.592 -5.088,5.28 1.152,-0.144 2.592,-0.24 1.44,-0.144 2.496,-0.144 h 6.816 v 5.952 z m -57.144,-60 v -25.344 h -8.592 v -5.952 h 24.288 v 5.952 h -8.592 v 25.344 z m 20.5919,0 v -31.296 h 11.28 q 3.312,0 6.048,0.912 2.736,0.864 4.368,3.024 1.632,2.112 1.632,5.808 0,3.6 -1.632,5.856 -1.632,2.256 -4.368,3.36 -2.736,1.056 -6.048,1.056 h -4.224 v 11.28 z m 7.056,-16.896 h 3.648 q 2.784,0 4.224,-1.152 1.488,-1.2 1.488,-3.504 0,-2.304 -1.488,-3.216 -1.44,-0.912 -4.224,-0.912 h -3.648 z m 9.888,16.896 -6.96,-13.104 4.896,-4.56 9.984,17.664 z m 9.3601,6.72 v -3.984 h 22.848 v 3.984 z m 27.12,-6.72 v -31.296 h 7.056 v 25.344 h 12.384 v 5.952 z m 281.8218,-384.78115 q -9.792,0 -15.84,-8.16 -5.952,-8.16 -5.952,-23.712 0,-15.648 5.952,-23.52 6.048,-7.872 15.84,-7.872 9.792,0 15.744,7.968 6.048,7.872 6.048,23.424 0,15.552 -6.048,23.712 -5.952,8.16 -15.744,8.16 z m 0,-10.944 q 2.4,0 4.32,-1.728 1.92,-1.824 2.976,-6.336 1.152,-4.608 1.152,-12.864 0,-8.352 -1.152,-12.768 -1.056,-4.416 -2.976,-6.048 -1.92,-1.632 -4.32,-1.632 -2.4,0 -4.32,1.632 -1.92,1.632 -3.072,6.048 -1.056,4.416 -1.056,12.768 0,8.256 1.056,12.864 1.152,4.512 3.072,6.336 1.92,1.728 4.32,1.728 z m 32.064,9.792 v -11.424 h 13.248 v -35.232 h -11.424 v -8.736 q 4.992,-0.96 8.448,-2.304 3.552,-1.344 6.72,-3.264 h 10.368 v 49.536 h 11.424 v 11.424 z m 67.296,1.152 q -4.896,0 -8.928,-1.152 -3.936,-1.056 -7.008,-2.976 -3.072,-1.92 -5.28,-4.512 l 6.528,-8.928 q 2.784,2.688 6.144,4.416 3.36,1.728 7.2,1.728 4.416,0 7.104,-1.824 2.784,-1.92 2.784,-5.376 0,-2.688 -1.344,-4.608 -1.344,-2.016 -4.896,-3.072 -3.456,-1.056 -10.176,-1.056 v -9.984 q 5.472,0 8.64,-1.056 3.168,-1.056 4.416,-2.88 1.344,-1.824 1.344,-4.224 0,-3.264 -2.016,-4.992 -1.92,-1.728 -5.472,-1.728 -3.264,0 -5.952,1.44 -2.592,1.344 -5.472,3.936 l -7.104,-8.64 q 4.224,-3.648 8.928,-5.664 4.704,-2.112 10.272,-2.112 6.24,0 10.944,2.016 4.8,1.92 7.392,5.664 2.688,3.648 2.688,9.024 0,4.704 -2.688,8.064 -2.592,3.36 -7.488,5.472 v 0.384 q 3.456,1.056 6.24,3.072 2.784,1.92 4.32,4.896 1.536,2.976 1.536,6.912 0,5.664 -3.168,9.696 -3.072,3.936 -8.256,6.048 -5.088,2.016 -11.232,2.016 z m -134.064,-121.152 v -50.688 h -17.184 v -11.904 h 48.576 v 11.904 h -17.184 v 50.688 z m 41.1839,0 v -62.592 h 22.56 q 6.624,0 12.096,1.824 5.472,1.728 8.736,6.048 3.264,4.224 3.264,11.616 0,7.2 -3.264,11.712 -3.264,4.512 -8.736,6.72 -5.472,2.112 -12.096,2.112 h -8.448 v 22.56 z m 14.112,-33.792 h 7.296 q 5.568,0 8.448,-2.304 2.976,-2.4 2.976,-7.008 0,-4.608 -2.976,-6.432 -2.88,-1.824 -8.448,-1.824 h -7.296 z m 19.776,33.792 -13.92,-26.208 9.792,-9.12 19.968,35.328 z m 18.7201,13.44 v -7.968 h 45.696 v 7.968 z m 54.24,-13.44 v -62.592 h 14.112 v 50.688 h 24.768 v 11.904 z m -553.8519,121.152 q -9.792,0 -15.84,-8.16 -5.952,-8.16 -5.952,-23.712 0,-15.648 5.952,-23.52 6.048,-7.872 15.84,-7.872 9.792,0 15.744,7.968 6.048,7.872 6.048,23.424 0,15.552 -6.048,23.712 -5.952,8.16 -15.744,8.16 z m 0,-10.944 q 2.4,0 4.32,-1.728 1.92,-1.824 2.976,-6.336 1.152,-4.608 1.152,-12.864 0,-8.352 -1.152,-12.768 -1.056,-4.416 -2.976,-6.048 -1.92,-1.632 -4.32,-1.632 -2.4,0 -4.32,1.632 -1.92,1.632 -3.072,6.048 -1.056,4.416 -1.056,12.768 0,8.256 1.056,12.864 1.152,4.512 3.072,6.336 1.92,1.728 4.32,1.728 z m 32.064,9.792 v -11.424 h 13.248 v -35.232 h -11.424 v -8.736 q 4.992,-0.96 8.448,-2.304 3.552,-1.344 6.72,-3.264 h 10.368 v 49.536 h 11.424 v 11.424 z m 47.52,0 v -8.736 q 7.68,-6.816 13.632,-12.768 6.048,-5.952 9.408,-11.04 3.456,-5.088 3.456,-9.312 0,-4.512 -2.304,-6.816 -2.304,-2.4 -6.336,-2.4 -3.264,0 -5.952,1.92 -2.592,1.824 -4.896,4.32 l -7.392,-7.296 q 4.416,-4.992 9.024,-7.488 4.704,-2.496 11.136,-2.496 5.952,0 10.464,2.4 4.608,2.4 7.104,6.72 2.592,4.32 2.592,10.176 0,5.472 -2.976,10.752 -2.88,5.184 -7.68,10.368 -4.8,5.184 -10.176,10.56 2.304,-0.288 5.184,-0.48 2.88,-0.288 4.992,-0.288 h 13.632 v 11.904 z m -114.288,-120 v -50.688 h -17.184 v -11.904 h 48.576 v 11.904 h -17.184 v 50.688 z m 41.1839,0 v -62.592 h 22.56 q 6.624,0 12.096,1.824 5.472,1.728 8.736,6.048 3.264,4.224 3.264,11.616 0,7.2 -3.264,11.712 -3.264,4.512 -8.736,6.72 -5.472,2.112 -12.096,2.112 h -8.448 v 22.56 z m 14.112,-33.792 h 7.296 q 5.568,0 8.448,-2.304 2.976,-2.4 2.976,-7.008 0,-4.608 -2.976,-6.432 -2.88,-1.824 -8.448,-1.824 h -7.296 z m 19.776,33.792 -13.92,-26.208 9.792,-9.12 19.968,35.328 z m 18.7201,13.44 v -7.968 h 45.696 v 7.968 z m 54.24,-13.44 v -62.592 h 14.112 v 50.688 h 24.768 v 11.904 z m -575.4354,121.152 q -9.792,0 -15.84,-8.16 -5.952,-8.16 -5.952,-23.712 0,-15.648 5.952,-23.52 6.048,-7.872 15.84,-7.872 9.792,0 15.744,7.968 6.048,7.872 6.048,23.424 0,15.552 -6.048,23.712 -5.952,8.16 -15.744,8.16 z m 0,-10.944 q 2.4,0 4.32,-1.728 1.92,-1.824 2.976,-6.336 1.152,-4.608 1.152,-12.864 0,-8.352 -1.152,-12.768 -1.056,-4.416 -2.976,-6.048 -1.92,-1.632 -4.32,-1.632 -2.4,0 -4.32,1.632 -1.92,1.632 -3.072,6.048 -1.056,4.416 -1.056,12.768 0,8.256 1.056,12.864 1.152,4.512 3.072,6.336 1.92,1.728 4.32,1.728 z m 32.064,9.792 v -11.424 h 13.248 v -35.232 h -11.424 v -8.736 q 4.992,-0.96 8.448,-2.304 3.552,-1.344 6.72,-3.264 h 10.368 v 49.536 h 11.424 v 11.424 z m 50.688,0 v -11.424 h 13.248 v -35.232 h -11.424 v -8.736 q 4.992,-0.96 8.448,-2.304 3.552,-1.344 6.72,-3.264 h 10.368 v 49.536 h 11.424 v 11.424 z m -117.456,-120 v -50.688 h -17.184 v -11.904 h 48.576 v 11.904 h -17.184 v 50.688 z m 41.1839,0 v -62.592 h 22.56 q 6.624,0 12.096,1.824 5.472,1.728 8.736,6.048 3.264,4.224 3.264,11.616 0,7.2 -3.264,11.712 -3.264,4.512 -8.736,6.72 -5.472,2.112 -12.096,2.112 h -8.448 v 22.56 z m 14.112,-33.792 h 7.296 q 5.568,0 8.448,-2.304 2.976,-2.4 2.976,-7.008 0,-4.608 -2.976,-6.432 -2.88,-1.824 -8.448,-1.824 h -7.296 z m 19.776,33.792 -13.92,-26.208 9.792,-9.12 19.968,35.328 z m 18.7201,13.44 v -7.968 h 45.696 v 7.968 z m 54.24,-13.44 v -62.592 h 14.112 v 50.688 h 24.768 v 11.904 z m -542.2977,274.88341 q -9.792,0 -15.84,-8.16 -5.952,-8.16 -5.952,-23.712 0,-15.648 5.952,-23.52 6.048,-7.872 15.84,-7.872 9.792,0 15.744,7.968 6.048,7.872 6.048,23.424 0,15.552 -6.048,23.712 -5.952,8.16 -15.744,8.16 z m 0,-10.944 q 2.4,0 4.32,-1.728 1.92,-1.824 2.976,-6.336 1.152,-4.608 1.152,-12.864 0,-8.352 -1.152,-12.768 -1.056,-4.416 -2.976,-6.048 -1.92,-1.632 -4.32,-1.632 -2.4,0 -4.32,1.632 -1.92,1.632 -3.072,6.048 -1.056,4.416 -1.056,12.768 0,8.256 1.056,12.864 1.152,4.512 3.072,6.336 1.92,1.728 4.32,1.728 z m 32.064,9.792 v -11.424 h 13.248 v -35.232 h -11.424 v -8.736 q 4.992,-0.96 8.448,-2.304 3.552,-1.344 6.72,-3.264 h 10.368 v 49.536 h 11.424 v 11.424 z m 69.312,1.152 q -9.792,0 -15.84,-8.16 -5.952,-8.16 -5.952,-23.712 0,-15.648 5.952,-23.52 6.048,-7.872 15.84,-7.872 9.792,0 15.744,7.968 6.048,7.872 6.048,23.424 0,15.552 -6.048,23.712 -5.952,8.16 -15.744,8.16 z m 0,-10.944 q 2.4,0 4.32,-1.728 1.92,-1.824 2.976,-6.336 1.152,-4.608 1.152,-12.864 0,-8.352 -1.152,-12.768 -1.056,-4.416 -2.976,-6.048 -1.92,-1.632 -4.32,-1.632 -2.4,0 -4.32,1.632 -1.92,1.632 -3.072,6.048 -1.056,4.416 -1.056,12.768 0,8.256 1.056,12.864 1.152,4.512 3.072,6.336 1.92,1.728 4.32,1.728 z m -136.08,-110.208 v -50.688 h -17.184 v -11.904 h 48.576 v 11.904 h -17.184 v 50.688 z m 41.1839,0 v -62.592 h 22.56 q 6.624,0 12.096,1.824 5.472,1.728 8.736,6.048 3.264,4.224 3.264,11.616 0,7.2 -3.264,11.712 -3.264,4.512 -8.736,6.72 -5.472,2.112 -12.096,2.112 h -8.448 v 22.56 z m 14.112,-33.792 h 7.296 q 5.568,0 8.448,-2.304 2.976,-2.4 2.976,-7.008 0,-4.608 -2.976,-6.432 -2.88,-1.824 -8.448,-1.824 h -7.296 z m 19.776,33.792 -13.92,-26.208 9.792,-9.12 19.968,35.328 z m 18.7201,13.44 v -7.968 h 45.696 v 7.968 z m 54.24,-13.44 v -62.592 h 14.112 v 50.688 h 24.768 v 11.904 z m 1911.8716,134.32934 q -19.584,0 -31.68,-16.32 -11.904,-16.32 -11.904,-47.424 0,-31.296 11.904,-47.04 12.096,-15.744 31.68,-15.744 19.584,0 31.488,15.936 12.096,15.744 12.096,46.848 0,31.104 -12.096,47.424 -11.904,16.32 -31.488,16.32 z m 0,-21.888 q 4.8,0 8.64,-3.456 3.84,-3.648 5.952,-12.672 2.304,-9.216 2.304,-25.728 0,-16.704 -2.304,-25.536 -2.112,-8.832 -5.952,-12.096 -3.84,-3.264 -8.64,-3.264 -4.8,0 -8.64,3.264 -3.84,3.264 -6.144,12.096 -2.112,8.832 -2.112,25.536 0,16.512 2.112,25.728 2.304,9.024 6.144,12.672 3.84,3.456 8.64,3.456 z m 64.128,19.584 v -22.848 h 26.496 v -70.464 h -22.848 v -17.472 q 9.984,-1.92 16.896,-4.608 7.104,-2.688 13.44,-6.528 h 20.736 v 99.072 h 22.848 v 22.848 z m 144.384,0 v -70.464 q 0,-5.76 0.384,-13.632 0.576,-7.872 0.768,-13.632 h -0.768 q -2.304,4.992 -4.8,10.176 -2.496,4.992 -5.184,10.368 l -16.128,26.496 h 66.048 v 21.504 h -93.12 v -19.392 l 44.544,-73.344 h 34.56 v 121.92 z m -277.9201,-240 v -101.376 h -34.368 v -23.808 h 97.152 v 23.808 h -34.368 v 101.376 z m 82.368,0 v -125.184 h 45.12 q 13.248,0 24.192,3.648 10.944,3.456 17.472,12.096 6.528,8.448 6.528,23.232 0,14.4 -6.528,23.424 -6.528,9.024 -17.472,13.44 -10.944,4.224 -24.192,4.224 h -16.896 v 45.12 z m 28.224,-67.584 h 14.592 q 11.136,0 16.896,-4.608 5.952,-4.8 5.952,-14.016 0,-9.216 -5.952,-12.864 -5.76,-3.648 -16.896,-3.648 h -14.592 z m 39.552,67.584 -27.84,-52.416 19.584,-18.24 39.936,70.656 z m 37.4402,26.88 v -15.936 h 91.392 v 15.936 z m 108.48,-26.88 v -125.184 h 28.224 v 101.376 h 49.536 v 23.808 z m -3056.3477,242.304 q -19.584,0 -31.68,-16.32 -11.904,-16.32 -11.904,-47.424 0,-31.296 11.904,-47.04 12.096,-15.744 31.68,-15.744 19.584,0 31.488,15.936 12.096,15.744 12.096,46.848 0,31.104 -12.096,47.424 -11.904,16.32 -31.488,16.32 z m 0,-21.888 q 4.8,0 8.64,-3.456 3.84,-3.648 5.952,-12.672 2.304,-9.216 2.304,-25.728 0,-16.704 -2.304,-25.536 -2.112,-8.832 -5.952,-12.096 -3.84,-3.264 -8.64,-3.264 -4.8,0 -8.64,3.264 -3.84,3.264 -6.144,12.096 -2.112,8.832 -2.112,25.536 0,16.512 2.112,25.728 2.304,9.024 6.144,12.672 3.84,3.456 8.64,3.456 z m 101.376,21.888 q -19.584,0 -31.68,-16.32 -11.904,-16.32 -11.904,-47.424 0,-31.296 11.904,-47.04 12.096,-15.744 31.68,-15.744 19.584,0 31.488,15.936 12.096,15.744 12.096,46.848 0,31.104 -12.096,47.424 -11.904,16.32 -31.488,16.32 z m 0,-21.888 q 4.8,0 8.64,-3.456 3.84,-3.648 5.952,-12.672 2.304,-9.216 2.304,-25.728 0,-16.704 -2.304,-25.536 -2.112,-8.832 -5.952,-12.096 -3.84,-3.264 -8.64,-3.264 -4.8,0 -8.64,3.264 -3.84,3.264 -6.144,12.096 -2.112,8.832 -2.112,25.536 0,16.512 2.112,25.728 2.304,9.024 6.144,12.672 3.84,3.456 8.64,3.456 z m 94.656,21.888 q -12.096,0 -20.928,-4.416 -8.832,-4.416 -14.784,-10.176 l 14.976,-16.896 q 3.072,3.456 8.256,6.144 5.376,2.496 10.56,2.496 7.296,0 12.864,-4.032 5.76,-4.032 9.024,-13.44 3.456,-9.6 3.456,-25.728 0,-15.168 -2.88,-23.616 -2.688,-8.64 -7.296,-12.096 -4.416,-3.648 -9.6,-3.648 -4.032,0 -7.68,2.112 -3.456,2.112 -5.568,6.336 -2.112,4.224 -2.112,11.328 0,6.336 2.112,10.368 2.112,3.84 5.76,5.568 3.648,1.728 8.256,1.728 4.8,0 9.792,-2.88 4.992,-3.072 9.024,-10.176 l 1.344,18.432 q -4.608,6.72 -12.096,10.752 -7.488,3.84 -13.632,3.84 -10.368,0 -18.624,-4.032 -8.256,-4.032 -13.056,-12.288 -4.608,-8.448 -4.608,-21.312 0,-12.672 5.568,-21.888 5.568,-9.216 14.784,-14.016 9.216,-4.992 20.16,-4.992 9.024,0 17.28,3.456 8.256,3.456 14.592,10.752 6.528,7.296 10.368,18.816 4.032,11.328 4.032,27.456 0,17.088 -4.224,29.568 -4.032,12.48 -10.944,20.544 -6.912,8.064 -15.744,12.096 -8.832,3.84 -18.432,3.84 z m -265.4401,-242.304 v -101.376 h -34.368 v -23.808 h 97.152 v 23.808 h -34.368 v 101.376 z m 82.368,0 v -125.184 h 45.12 q 13.248,0 24.192,3.648 10.944,3.456 17.472,12.096 6.528,8.448 6.528,23.232 0,14.4 -6.528,23.424 -6.528,9.024 -17.472,13.44 -10.944,4.224 -24.192,4.224 h -16.896 v 45.12 z m 28.224,-67.584 h 14.592 q 11.136,0 16.896,-4.608 5.952,-4.8 5.952,-14.016 0,-9.216 -5.952,-12.864 -5.76,-3.648 -16.896,-3.648 h -14.592 z m 39.552,67.584 -27.84,-52.416 19.584,-18.24 39.936,70.656 z m 37.4402,26.88 v -15.936 h 91.392 v 15.936 z m 108.48,-26.88 v -125.184 h 28.224 v 101.376 h 49.536 v 23.808 z" style="font-size:96px;font-family:'Source Sans 3';-inkscape-font-specification:'Source Sans 3, @wght=700';font-variation-settings:'wght' 700;text-align:center;white-space:pre;display:inline;fill:#bec3c6;stroke-width:55" transform="matrix(0.02439371,0,0,0.02439371,1.3129704,243.15174)"/>
  </g>
</svg>
