<svg width="4000" height="3000" viewBox="0 0 4000 3000" version="1.1" id="svg1" xml:space="preserve" xmlns="http://www.w3.org/2000/svg">
  <g id="floor_2" transform="matrix(40.336064,0,0,40.336064,891.50626,-8776.2608)" style="display:inline">
    <g id="g352" style="display:inline" transform="matrix(0.02479171,0,0,0.02479171,-22.101965,234.93271)">
      <path style="font-variation-settings:'wdth' 70,'wght' 600;display:inline;opacity:1;fill:#c8c1b1;fill-opacity:1;stroke:none;stroke-width:45;stroke-dasharray:none;stroke-opacity:1" d="m 938.73383,1107.0801 h 863.35297 l 10e-5,384.3907 h 1623.8454 l -2e-4,-2163.19236 544.0073,2e-5 V 2216.2086 H 938.73383 Z" id="path348"/>
      <rect style="font-variation-settings:'wdth' 70,'wght' 600;display:inline;opacity:1;fill:#504c49;fill-opacity:1;stroke:none;stroke-width:15.6426;stroke-dasharray:none;stroke-opacity:1" id="rect348" width="1623.8453" height="384.39072" x="1802.0868" y="1107.0801"/>
      <path style="font-variation-settings:'wdth' 70,'wght' 600;opacity:1;fill:none;fill-opacity:1;stroke:#fafcfa;stroke-width:55;stroke-dasharray:none;stroke-opacity:1" d="M 939.26416,1084.4527 V 2216.2086 H 3969.9394 V -666.72154 H 3411.7902 V 1084.4527 Z" id="path349"/>
      <path style="font-variation-settings:'wdth' 70,'wght' 600;opacity:1;fill:none;fill-opacity:1;stroke:#fafcfa;stroke-width:55;stroke-dasharray:none;stroke-opacity:1" d="m 1802.0868,1093.0801 10e-5,398.3907 1618.757,0.062 v -398.3907" id="path350"/>
      <rect style="font-variation-settings:'wdth' 70,'wght' 600;opacity:1;fill:#d7d7d6;fill-opacity:1;stroke:none;stroke-width:53.8442;stroke-dasharray:none;stroke-opacity:1" id="rect350" width="298" height="222" x="1193.4858" y="1491.4708"/>
      <rect style="font-variation-settings:'wdth' 70,'wght' 600;opacity:1;fill:#d7d7d6;fill-opacity:1;stroke:none;stroke-width:53.8442;stroke-dasharray:none;stroke-opacity:1" id="rect351" width="298" height="222" x="2105.4858" y="1809.4708"/>
      <rect style="font-variation-settings:'wdth' 70,'wght' 600;opacity:1;fill:#d7d7d6;fill-opacity:1;stroke:none;stroke-width:53.8442;stroke-dasharray:none;stroke-opacity:1" id="rect352" width="298" height="222" x="3219.8862" y="1710.4758"/>
    </g>
    <path style="font-variation-settings:'wdth' 70,'wght' 600;display:inline;fill:#4c5a5f;fill-opacity:1;stroke:none;stroke-width:.487874" d="M 1.1708522,241.09382 H 46.940975 v -22.81424 h 15.832148 l 2e-6,8.65306 H 51.558478 l -3e-6,9.91794 h 11.27428 l -2e-6,11.40256 H 12.897002 v 2.43937 H 1.1708522 Z" id="path25"/>
    <g id="rooms_2" style="display:inline;opacity:1" transform="matrix(0.02439371,0,0,0.02439371,-0.02443957,255.98706)">
      <rect style="font-variation-settings:'wdth' 70,'wght' 600;display:inline;opacity:1;fill:#454c7f;fill-opacity:1;stroke-width:623.815;stroke-dasharray:none" id="MZ201" width="532.466" height="935.25098" x="1392.8424" y="-1545.787"/>
      <rect style="font-variation-settings:'wdth' 70,'wght' 600;display:inline;opacity:1;fill:#454c7f;fill-opacity:1;stroke-width:482.754;stroke-dasharray:none" id="MZ202" width="784.8808" height="379.97583" x="607.96167" y="-990.51184"/>
      <path style="font-variation-settings:'wdth' 70,'wght' 600;display:inline;opacity:1;fill:#454c7f;fill-opacity:1;stroke-width:10.1632" d="m 836.73199,-1262.7112 -24.94687,-283.0757 h 581.05728 l 10e-5,555.27506 -581.05259,-10e-6 z" id="MZ203" transform="translate(-4.004637e-6,-3.5908303e-5)"/>
      <path style="font-variation-settings:'wdth' 70,'wght' 600;display:inline;opacity:1;fill:#454c7f;fill-opacity:1;stroke-width:10.1632" d="M 607.96173,-990.51184 V -1545.787 l 203.82344,10e-5 24.94689,283.0757 -24.94212,272.19936 z" id="MZ204" transform="translate(-4.004637e-6,-3.5908303e-5)"/>
      <rect style="font-variation-settings:'wdth' 70,'wght' 600;display:inline;opacity:1;fill:#454c7f;fill-opacity:1;stroke-width:639.147;stroke-dasharray:none" id="MZ206" width="558.96167" height="935.25098" x="49" y="-1545.787"/>
      <rect style="font-variation-settings:'wdth' 70,'wght' 600;display:inline;opacity:1;fill:#454c7f;fill-opacity:1;stroke-width:1142.88;stroke-dasharray:none" id="MZ207" width="924.59723" height="1807.824" x="-875.59723" y="-1545.7869" transform="translate(-4.004637e-6,-3.5908303e-5)"/>
      <rect style="font-variation-settings:'wdth' 70,'wght' 600;display:inline;opacity:1;fill:#454c7f;fill-opacity:1;stroke-width:479.172;stroke-dasharray:none" id="MZ209" width="507.39777" height="579.08276" x="745.40247" y="-317.04562"/>
      <rect style="font-variation-settings:'wdth' 70,'wght' 600;display:inline;opacity:1;fill:#454c7f;fill-opacity:1;stroke-width:410.444;stroke-dasharray:none" id="MZ210" width="372.28192" height="579.08282" x="1254.0143" y="-317.04568" transform="translate(-4.004637e-6,-3.5908303e-5)"/>
      <rect style="font-variation-settings:'wdth' 70,'wght' 600;display:inline;opacity:1;fill:#454c7f;fill-opacity:1;stroke-width:369.214;stroke-dasharray:none" id="MZ211" width="301.24606" height="579.08282" x="1626.2961" y="-317.04568" transform="translate(-4.004637e-6,-3.5908303e-5)"/>
      <rect style="font-variation-settings:'wdth' 70,'wght' 600;display:inline;opacity:1;fill:#454c7f;fill-opacity:1;stroke-width:366.531;stroke-dasharray:none" id="MZ212" width="296.88306" height="579.08282" x="1927.5422" y="-317.04568" transform="translate(-4.004637e-6,-3.5908303e-5)"/>
      <rect style="font-variation-settings:'wdth' 70,'wght' 600;display:inline;opacity:1;fill:#1b2022;fill-opacity:1;stroke:none;stroke-width:13.4843;stroke-linecap:butt;stroke-linejoin:miter;stroke-dasharray:none;stroke-opacity:1" id="lift_2" width="267.25259" height="406.57764" x="2307.0818" y="-1191.0619"/>
      <rect style="font-variation-settings:'wdth' 70,'wght' 600;display:inline;fill:#454c7f;fill-opacity:1;stroke-width:156.089;stroke-dasharray:none" id="MZ208" width="211.92589" height="147.11951" x="49" y="-217.04562"/>
      <rect style="font-variation-settings:'wdth' 70,'wght' 600;display:inline;opacity:1;fill:#454c7f;fill-opacity:1;stroke-width:255.861;stroke-dasharray:none" id="MZ213" width="144.66939" height="579.08282" x="2259.9971" y="-317.04565"/>
      <rect style="font-variation-settings:'wdth' 70,'wght' 600;display:inline;opacity:1;fill:#454c7f;fill-opacity:1;stroke-width:255.861;stroke-dasharray:none" id="MZ214" width="144.66936" height="579.08282" x="2414.5779" y="-317.04565"/>
    </g>
    <g id="g177" transform="matrix(-0.02439371,0,0,-0.02439371,88.912644,269.70859)" style="display:inline">
      <rect style="font-variation-settings:'wdth' 70,'wght' 600;display:inline;fill:#373e43;fill-opacity:1;stroke-width:5.62179;stroke-dasharray:none" id="rect106" width="132.12082" height="29.178997" x="-614.64343" y="3098.4128" transform="rotate(90,2796.5756,3721.219)"/>
      <rect style="font-variation-settings:'wdth' 70,'wght' 600;display:inline;fill:#3a4146;fill-opacity:1;stroke-width:5.62179;stroke-dasharray:none" id="rect108" width="132.12082" height="29.178997" x="-614.64343" y="3127.5918" transform="rotate(90,2796.5757,3721.2189)"/>
      <rect style="font-variation-settings:'wdth' 70,'wght' 600;display:inline;fill:#3c4449;fill-opacity:1;stroke-width:5.62179;stroke-dasharray:none" id="rect109" width="132.12082" height="29.178997" x="-614.64343" y="3156.7708" transform="rotate(90,2796.5757,3721.2189)"/>
      <rect style="font-variation-settings:'wdth' 70,'wght' 600;display:inline;fill:#3e474c;fill-opacity:1;stroke-width:5.62179;stroke-dasharray:none" id="rect114" width="132.12082" height="29.178997" x="-614.64343" y="3185.9497" transform="rotate(90,2796.5757,3721.2189)"/>
      <rect style="font-variation-settings:'wdth' 70,'wght' 600;display:inline;fill:#404a4f;fill-opacity:1;stroke-width:5.62179;stroke-dasharray:none" id="rect115" width="132.12082" height="29.178997" x="-614.64343" y="3215.1287" transform="rotate(90,2796.5757,3721.2189)"/>
      <rect style="font-variation-settings:'wdth' 70,'wght' 600;display:inline;fill:#424d52;fill-opacity:1;stroke-width:5.62179;stroke-dasharray:none" id="rect116" width="132.12082" height="29.178997" x="-614.64343" y="3244.3076" transform="rotate(90,2796.5757,3721.2189)"/>
      <rect style="font-variation-settings:'wdth' 70,'wght' 600;display:inline;fill:#445055;fill-opacity:1;stroke-width:5.62179;stroke-dasharray:none" id="rect117" width="132.12082" height="29.178997" x="-614.64343" y="3273.4868" transform="rotate(90,2796.5757,3721.2189)"/>
      <rect style="font-variation-settings:'wdth' 70,'wght' 600;display:inline;fill:#465358;fill-opacity:1;stroke-width:5.62179;stroke-dasharray:none" id="rect118" width="132.12082" height="29.178997" x="-614.64343" y="3302.6658" transform="rotate(90,2796.5757,3721.2189)"/>
      <rect style="font-variation-settings:'wdth' 70,'wght' 600;display:inline;fill:#48565b;fill-opacity:1;stroke-width:5.62179;stroke-dasharray:none" id="rect119" width="132.12082" height="29.178997" x="-614.64343" y="3331.8447" transform="rotate(90,2796.5757,3721.2189)"/>
      <rect style="font-variation-settings:'wdth' 70,'wght' 600;display:inline;fill:#4b595e;fill-opacity:1;stroke-width:5.62179;stroke-dasharray:none" id="rect120" width="132.12082" height="29.178997" x="-614.64343" y="3361.0237" transform="rotate(90,2796.5757,3721.2189)"/>
      <rect style="font-variation-settings:'wdth' 70,'wght' 600;display:inline;fill:#4c5a5f;fill-opacity:1;stroke-width:5.62179;stroke-dasharray:none" id="rect121" width="132.12082" height="29.178997" x="-614.64343" y="3390.2029" transform="rotate(90,2796.5757,3721.219)"/>
      <path style="font-variation-settings:'wdth' 70,'wght' 600;display:inline;opacity:1;fill:#4c5a5f;fill-opacity:1;stroke:none;stroke-width:18.362;stroke-dasharray:none;stroke-opacity:1" d="m 3098.4128,879.54842 h -180.1224 l -10e-5,-581.11542 h 180.1225 z" id="path165"/>
      <rect style="font-variation-settings:'wdth' 70,'wght' 600;display:inline;fill:#4c5a5f;fill-opacity:1;stroke-width:5.62179;stroke-dasharray:none" id="rect165" width="132.12082" height="29.178997" x="-445.15152" y="3390.2029" transform="rotate(90,2793.2864,3724.5083)"/>
      <rect style="font-variation-settings:'wdth' 70,'wght' 600;display:inline;fill:#4f5e63;fill-opacity:1;stroke-width:5.62179;stroke-dasharray:none" id="rect166" width="132.12082" height="29.178997" x="-445.15152" y="3361.0237" transform="rotate(90,2793.2864,3724.5083)"/>
      <rect style="font-variation-settings:'wdth' 70,'wght' 600;display:inline;fill:#516166;fill-opacity:1;stroke-width:5.62179;stroke-dasharray:none" id="rect167" width="132.12082" height="29.178997" x="-445.15152" y="3331.8447" transform="rotate(90,2793.2864,3724.5083)"/>
      <rect style="font-variation-settings:'wdth' 70,'wght' 600;display:inline;fill:#546469;fill-opacity:1;stroke-width:5.62179;stroke-dasharray:none" id="rect168" width="132.12082" height="29.178997" x="-445.15152" y="3302.6658" transform="rotate(90,2793.2864,3724.5083)"/>
      <rect style="font-variation-settings:'wdth' 70,'wght' 600;display:inline;fill:#56676c;fill-opacity:1;stroke-width:5.62179;stroke-dasharray:none" id="rect169" width="132.12082" height="29.178997" x="-445.15152" y="3273.4868" transform="rotate(90,2793.2864,3724.5083)"/>
      <rect style="font-variation-settings:'wdth' 70,'wght' 600;display:inline;fill:#586a6f;fill-opacity:1;stroke-width:5.62179;stroke-dasharray:none" id="rect170" width="132.12082" height="29.178997" x="-445.15152" y="3244.3076" transform="rotate(90,2793.2864,3724.5083)"/>
      <rect style="font-variation-settings:'wdth' 70,'wght' 600;display:inline;fill:#5a6d72;fill-opacity:1;stroke-width:5.62179;stroke-dasharray:none" id="rect171" width="132.12082" height="29.178997" x="-445.15152" y="3215.1287" transform="rotate(90,2793.2864,3724.5083)"/>
      <rect style="font-variation-settings:'wdth' 70,'wght' 600;display:inline;fill:#5c7075;fill-opacity:1;stroke-width:5.62179;stroke-dasharray:none" id="rect172" width="132.12082" height="29.178997" x="-445.15152" y="3185.9497" transform="rotate(90,2793.2864,3724.5083)"/>
      <rect style="font-variation-settings:'wdth' 70,'wght' 600;display:inline;fill:#5e7378;fill-opacity:1;stroke-width:5.62179;stroke-dasharray:none" id="rect173" width="132.12082" height="29.178997" x="-445.15152" y="3156.7708" transform="rotate(90,2793.2864,3724.5083)"/>
      <rect style="font-variation-settings:'wdth' 70,'wght' 600;display:inline;fill:#60767b;fill-opacity:1;stroke-width:5.62179;stroke-dasharray:none" id="rect174" width="132.12082" height="29.178997" x="-445.15152" y="3127.5918" transform="rotate(90,2793.2864,3724.5083)"/>
      <rect style="font-variation-settings:'wdth' 70,'wght' 600;display:inline;fill:#62797e;fill-opacity:1;stroke-width:5.62179;stroke-dasharray:none" id="rect175" width="132.12082" height="29.178997" x="-445.15152" y="3098.4128" transform="rotate(90,2793.2864,3724.5083)"/>
      <rect style="font-variation-settings:'wdth' 70,'wght' 600;display:inline;fill:#373e43;fill-opacity:1;stroke-width:19.7685;stroke-dasharray:none" id="rect176" width="298.42651" height="159.73758" x="-614.64343" y="3419.3818" transform="rotate(-90)"/>
      <rect style="font-variation-settings:'wdth' 70,'wght' 600;display:inline;fill:#000;fill-opacity:1;stroke-width:1.04919;stroke-dasharray:none" id="rect547" width="132.12082" height="1.0163157" x="486.07037" y="-3390.2029" transform="rotate(90)"/>
      <rect style="font-variation-settings:'wdth' 70,'wght' 600;display:inline;fill:#000;fill-opacity:1;stroke-width:1.04919;stroke-dasharray:none" id="rect548" width="132.12082" height="1.0163157" x="486.07037" y="-3390.2029" transform="rotate(90)"/>
      <rect style="font-variation-settings:'wdth' 70,'wght' 600;display:inline;fill:#000;fill-opacity:1;stroke-width:1.04919;stroke-dasharray:none" id="rect549" width="132.12082" height="1.0163157" x="486.07037" y="-3361.0239" transform="rotate(90)"/>
      <rect style="font-variation-settings:'wdth' 70,'wght' 600;display:inline;fill:#000;fill-opacity:1;stroke-width:1.04919;stroke-dasharray:none" id="rect550" width="132.12082" height="1.0163157" x="486.07037" y="-3331.845" transform="rotate(90)"/>
      <rect style="font-variation-settings:'wdth' 70,'wght' 600;display:inline;fill:#000;fill-opacity:1;stroke-width:1.04919;stroke-dasharray:none" id="rect551" width="132.12082" height="1.0163157" x="486.07037" y="-3302.666" transform="rotate(90)"/>
      <rect style="font-variation-settings:'wdth' 70,'wght' 600;display:inline;fill:#000;fill-opacity:1;stroke-width:1.04919;stroke-dasharray:none" id="rect552" width="132.12082" height="1.0163157" x="486.07037" y="-3273.4871" transform="rotate(90)"/>
      <rect style="font-variation-settings:'wdth' 70,'wght' 600;display:inline;fill:#000;fill-opacity:1;stroke-width:1.04919;stroke-dasharray:none" id="rect553" width="132.12082" height="1.0163157" x="486.07037" y="-3244.3079" transform="rotate(90)"/>
      <rect style="font-variation-settings:'wdth' 70,'wght' 600;display:inline;fill:#000;fill-opacity:1;stroke-width:1.04919;stroke-dasharray:none" id="rect554" width="132.12082" height="1.0163157" x="486.07037" y="-3215.1289" transform="rotate(90)"/>
      <rect style="font-variation-settings:'wdth' 70,'wght' 600;display:inline;fill:#000;fill-opacity:1;stroke-width:1.04919;stroke-dasharray:none" id="rect555" width="132.12082" height="1.0163157" x="486.07037" y="-3185.95" transform="rotate(90)"/>
      <rect style="font-variation-settings:'wdth' 70,'wght' 600;display:inline;fill:#000;fill-opacity:1;stroke-width:1.04919;stroke-dasharray:none" id="rect556" width="132.12082" height="1.0163157" x="486.07037" y="-3156.771" transform="rotate(90)"/>
      <rect style="font-variation-settings:'wdth' 70,'wght' 600;display:inline;fill:#000;fill-opacity:1;stroke-width:1.04919;stroke-dasharray:none" id="rect557" width="132.12082" height="1.0163157" x="486.07037" y="-3127.5918" transform="rotate(90)"/>
      <rect style="font-variation-settings:'wdth' 70,'wght' 600;display:inline;fill:#000;fill-opacity:1;stroke-width:1.03501;stroke-dasharray:none" id="rect558" width="128.57303" height="1.0163157" x="486.07037" y="-3098.4128" transform="rotate(90)"/>
      <rect style="font-variation-settings:'wdth' 70,'wght' 600;display:inline;fill:#000;fill-opacity:1;stroke-width:1.03501;stroke-dasharray:none" id="rect559" width="128.57303" height="1.0163157" x="316.57852" y="-3186.9663" transform="rotate(90)"/>
      <rect style="font-variation-settings:'wdth' 70,'wght' 600;display:inline;fill:#000;fill-opacity:1;stroke-width:1.03501;stroke-dasharray:none" id="rect560" width="128.57303" height="1.0163157" x="316.57852" y="-3157.7876" transform="rotate(90)"/>
      <rect style="font-variation-settings:'wdth' 70,'wght' 600;display:inline;fill:#000;fill-opacity:1;stroke-width:1.03501;stroke-dasharray:none" id="rect561" width="128.57303" height="1.0163157" x="316.57852" y="-3128.6084" transform="rotate(90)"/>
      <rect style="font-variation-settings:'wdth' 70,'wght' 600;display:inline;fill:#000;fill-opacity:1;stroke-width:1.03501;stroke-dasharray:none" id="rect562" width="128.57303" height="1.0163157" x="316.57852" y="-3099.4292" transform="rotate(90)"/>
      <rect style="font-variation-settings:'wdth' 70,'wght' 600;display:inline;fill:#000;fill-opacity:1;stroke-width:1.03501;stroke-dasharray:none" id="rect563" width="128.57303" height="1.0163157" x="316.57852" y="-3216.1453" transform="rotate(90)"/>
      <rect style="font-variation-settings:'wdth' 70,'wght' 600;display:inline;fill:#000;fill-opacity:1;stroke-width:1.03501;stroke-dasharray:none" id="rect564" width="128.57303" height="1.0163157" x="316.57852" y="-3245.324" transform="rotate(90)"/>
      <rect style="font-variation-settings:'wdth' 70,'wght' 600;display:inline;fill:#000;fill-opacity:1;stroke-width:1.03501;stroke-dasharray:none" id="rect565" width="128.57303" height="1.0163157" x="316.57852" y="-3274.5034" transform="rotate(90)"/>
      <rect style="font-variation-settings:'wdth' 70,'wght' 600;display:inline;fill:#000;fill-opacity:1;stroke-width:1.03501;stroke-dasharray:none" id="rect580" width="128.57303" height="1.0163157" x="316.57852" y="-3303.6821" transform="rotate(90)"/>
      <rect style="font-variation-settings:'wdth' 70,'wght' 600;display:inline;fill:#000;fill-opacity:1;stroke-width:1.03501;stroke-dasharray:none" id="rect581" width="128.57303" height="1.0163157" x="316.57852" y="-3332.8613" transform="rotate(90)"/>
      <rect style="font-variation-settings:'wdth' 70,'wght' 600;display:inline;fill:#000;fill-opacity:1;stroke-width:1.03501;stroke-dasharray:none" id="rect582" width="128.57303" height="1.0163157" x="316.57852" y="-3362.04" transform="rotate(90)"/>
      <rect style="font-variation-settings:'wdth' 70,'wght' 600;display:inline;fill:#000;fill-opacity:1;stroke-width:1.03501;stroke-dasharray:none" id="rect583" width="128.57303" height="1.0163157" x="316.57852" y="-3391.2192" transform="rotate(90)"/>
      <rect style="font-variation-settings:'wdth' 70,'wght' 600;display:inline;fill:#000;fill-opacity:1;stroke-width:1.03501;stroke-dasharray:none" id="rect584" width="128.57303" height="1.0163157" x="316.57852" y="-3420.3982" transform="rotate(90)"/>
      <path style="font-variation-settings:'wdth' 70,'wght' 600;display:inline;opacity:1;fill:none;fill-opacity:1;stroke:#bec3c6;stroke-width:5.08158;stroke-dasharray:none;stroke-opacity:1;marker-end:url(#Triangle)" d="m 3113.0023,552.1308 h 262.6109" id="path176" transform="translate(-4.1879101e-5,4.836622e-5)"/>
      <path style="font-variation-settings:'wdth' 70,'wght' 600;display:inline;opacity:1;fill:none;fill-opacity:1;stroke:#bec3c6;stroke-width:5.08158;stroke-dasharray:none;stroke-opacity:1;marker-end:url(#Triangle)" d="M 3404.7923,376.0603 H 3142.1812" id="path177" transform="translate(-4.1879101e-5,4.836622e-5)"/>
    </g>
    <g id="g200" transform="matrix(-0.02439371,0,0,-0.02439371,131.19323,222.78866)" style="display:inline">
      <rect style="font-variation-settings:'wdth' 70,'wght' 600;display:inline;fill:#373e43;fill-opacity:1;stroke-width:5.62179;stroke-dasharray:none" id="rect177" width="132.12082" height="29.178997" x="-614.64343" y="3098.4128" transform="rotate(-90,-302.8272,-149.83746)"/>
      <rect style="font-variation-settings:'wdth' 70,'wght' 600;display:inline;fill:#3a4146;fill-opacity:1;stroke-width:5.62179;stroke-dasharray:none" id="rect178" width="132.12082" height="29.178997" x="-614.64343" y="3127.5918" transform="rotate(-90,-302.82717,-149.83743)"/>
      <rect style="font-variation-settings:'wdth' 70,'wght' 600;display:inline;fill:#3c4449;fill-opacity:1;stroke-width:5.62179;stroke-dasharray:none" id="rect179" width="132.12082" height="29.178997" x="-614.64343" y="3156.7708" transform="rotate(-90,-302.82717,-149.83743)"/>
      <rect style="font-variation-settings:'wdth' 70,'wght' 600;display:inline;fill:#3e474c;fill-opacity:1;stroke-width:5.62179;stroke-dasharray:none" id="rect180" width="132.12082" height="29.178997" x="-614.64343" y="3185.9497" transform="rotate(-90,-302.82717,-149.83743)"/>
      <rect style="font-variation-settings:'wdth' 70,'wght' 600;display:inline;fill:#404a4f;fill-opacity:1;stroke-width:5.62179;stroke-dasharray:none" id="rect181" width="132.12082" height="29.178997" x="-614.64343" y="3215.1287" transform="rotate(-90,-302.82717,-149.83743)"/>
      <rect style="font-variation-settings:'wdth' 70,'wght' 600;display:inline;fill:#424d52;fill-opacity:1;stroke-width:5.62179;stroke-dasharray:none" id="rect182" width="132.12082" height="29.178997" x="-614.64343" y="3244.3076" transform="rotate(-90,-302.82717,-149.83743)"/>
      <rect style="font-variation-settings:'wdth' 70,'wght' 600;display:inline;fill:#445055;fill-opacity:1;stroke-width:5.62179;stroke-dasharray:none" id="rect183" width="132.12082" height="29.178997" x="-614.64343" y="3273.4868" transform="rotate(-90,-302.82717,-149.83743)"/>
      <rect style="font-variation-settings:'wdth' 70,'wght' 600;display:inline;fill:#465358;fill-opacity:1;stroke-width:5.62179;stroke-dasharray:none" id="rect184" width="132.12082" height="29.178997" x="-614.64343" y="3302.6658" transform="rotate(-90,-302.82717,-149.83743)"/>
      <rect style="font-variation-settings:'wdth' 70,'wght' 600;display:inline;fill:#48565b;fill-opacity:1;stroke-width:5.62179;stroke-dasharray:none" id="rect185" width="132.12082" height="29.178997" x="-614.64343" y="3331.8447" transform="rotate(-90,-302.82717,-149.83743)"/>
      <rect style="font-variation-settings:'wdth' 70,'wght' 600;display:inline;fill:#4b595e;fill-opacity:1;stroke-width:5.62179;stroke-dasharray:none" id="rect186" width="132.12082" height="29.178997" x="-614.64343" y="3361.0237" transform="rotate(-90,-302.82717,-149.83743)"/>
      <rect style="font-variation-settings:'wdth' 70,'wght' 600;display:inline;fill:#4c5a5f;fill-opacity:1;stroke-width:5.62179;stroke-dasharray:none" id="rect187" width="132.12082" height="29.178997" x="-614.64343" y="3390.2029" transform="rotate(-90,-302.82717,-149.83743)"/>
      <path style="font-variation-settings:'wdth' 70,'wght' 600;display:inline;opacity:1;fill:#4c5a5f;fill-opacity:1;stroke:none;stroke-width:15.2447;stroke-dasharray:none;stroke-opacity:1" d="M 3453.8516,184.84586 H 3266.3922 L 3262.765,29.857954 H 2945.4231 V -19.97282 h 320.969 l -1.8311,-149.90632 h 189.2906 z" id="path187"/>
      <rect style="font-variation-settings:'wdth' 70,'wght' 600;display:inline;fill:#4c5a5f;fill-opacity:1;stroke-width:5.62179;stroke-dasharray:none" id="rect188" width="132.12082" height="29.178997" x="-445.15152" y="3390.2029" transform="rotate(-90,-309.05705,-156.06729)"/>
      <rect style="font-variation-settings:'wdth' 70,'wght' 600;display:inline;fill:#4f5e63;fill-opacity:1;stroke-width:5.62179;stroke-dasharray:none" id="rect189" width="132.12082" height="29.178997" x="-445.15152" y="3361.0237" transform="rotate(-90,-309.05705,-156.06729)"/>
      <rect style="font-variation-settings:'wdth' 70,'wght' 600;display:inline;fill:#516166;fill-opacity:1;stroke-width:5.62179;stroke-dasharray:none" id="rect190" width="132.12082" height="29.178997" x="-445.15152" y="3331.8447" transform="rotate(-90,-309.05705,-156.06729)"/>
      <rect style="font-variation-settings:'wdth' 70,'wght' 600;display:inline;fill:#546469;fill-opacity:1;stroke-width:5.62179;stroke-dasharray:none" id="rect191" width="132.12082" height="29.178997" x="-445.15152" y="3302.6658" transform="rotate(-90,-309.05705,-156.06729)"/>
      <rect style="font-variation-settings:'wdth' 70,'wght' 600;display:inline;fill:#56676c;fill-opacity:1;stroke-width:5.62179;stroke-dasharray:none" id="rect192" width="132.12082" height="29.178997" x="-445.15152" y="3273.4868" transform="rotate(-90,-309.05705,-156.06729)"/>
      <rect style="font-variation-settings:'wdth' 70,'wght' 600;display:inline;fill:#586a6f;fill-opacity:1;stroke-width:5.62179;stroke-dasharray:none" id="rect193" width="132.12082" height="29.178997" x="-445.15152" y="3244.3076" transform="rotate(-90,-309.05705,-156.06729)"/>
      <rect style="font-variation-settings:'wdth' 70,'wght' 600;display:inline;fill:#5a6d72;fill-opacity:1;stroke-width:5.62179;stroke-dasharray:none" id="rect194" width="132.12082" height="29.178997" x="-445.15152" y="3215.1287" transform="rotate(-90,-309.05705,-156.06729)"/>
      <rect style="font-variation-settings:'wdth' 70,'wght' 600;display:inline;fill:#5c7075;fill-opacity:1;stroke-width:5.62179;stroke-dasharray:none" id="rect195" width="132.12082" height="29.178997" x="-445.15152" y="3185.9497" transform="rotate(-90,-309.05705,-156.06729)"/>
      <rect style="font-variation-settings:'wdth' 70,'wght' 600;display:inline;fill:#5e7378;fill-opacity:1;stroke-width:5.62179;stroke-dasharray:none" id="rect196" width="132.12082" height="29.178997" x="-445.15152" y="3156.7708" transform="rotate(-90,-309.05705,-156.06729)"/>
      <rect style="font-variation-settings:'wdth' 70,'wght' 600;display:inline;fill:#60767b;fill-opacity:1;stroke-width:5.62179;stroke-dasharray:none" id="rect197" width="132.12082" height="29.178997" x="-445.15152" y="3127.5918" transform="rotate(-90,-309.05705,-156.06729)"/>
      <rect style="font-variation-settings:'wdth' 70,'wght' 600;display:inline;fill:#62797e;fill-opacity:1;stroke-width:5.62179;stroke-dasharray:none" id="rect198" width="132.12082" height="29.178997" x="-445.15152" y="3098.4128" transform="rotate(-90,-309.05705,-156.06729)"/>
      <rect style="font-variation-settings:'wdth' 70,'wght' 600;display:inline;fill:#60767b;fill-opacity:1;stroke-width:17.7823;stroke-dasharray:none" id="rect199" width="314.07242" height="122.81175" x="-161.97878" y="2822.6113" transform="rotate(-90)"/>
      <rect style="font-variation-settings:'wdth' 70,'wght' 600;display:inline;fill:#050506;fill-opacity:1;stroke-width:1.04919;stroke-dasharray:none" id="rect524" width="132.12082" height="1.0163157" x="-161.97884" y="3236.1965" transform="rotate(-90)"/>
      <rect style="font-variation-settings:'wdth' 70,'wght' 600;display:inline;fill:#050506;fill-opacity:1;stroke-width:1.04919;stroke-dasharray:none" id="rect525" width="132.12082" height="1.0163157" x="-161.97884" y="3207.0176" transform="rotate(-90)"/>
      <rect style="font-variation-settings:'wdth' 70,'wght' 600;display:inline;fill:#050506;fill-opacity:1;stroke-width:1.04919;stroke-dasharray:none" id="rect526" width="132.12082" height="1.0163157" x="-161.97884" y="3177.8386" transform="rotate(-90)"/>
      <rect style="font-variation-settings:'wdth' 70,'wght' 600;display:inline;fill:#050506;fill-opacity:1;stroke-width:1.04919;stroke-dasharray:none" id="rect527" width="132.12082" height="1.0163157" x="-161.97884" y="3148.6597" transform="rotate(-90)"/>
      <rect style="font-variation-settings:'wdth' 70,'wght' 600;display:inline;fill:#050506;fill-opacity:1;stroke-width:1.04919;stroke-dasharray:none" id="rect528" width="132.12082" height="1.0163157" x="-161.97884" y="3263.2947" transform="rotate(-90)"/>
      <rect style="font-variation-settings:'wdth' 70,'wght' 600;display:inline;fill:#050506;fill-opacity:1;stroke-width:1.04919;stroke-dasharray:none" id="rect529" width="132.12082" height="1.0163157" x="-161.97884" y="3119.4807" transform="rotate(-90)"/>
      <rect style="font-variation-settings:'wdth' 70,'wght' 600;display:inline;fill:#050506;fill-opacity:1;stroke-width:1.04919;stroke-dasharray:none" id="rect530" width="132.12082" height="1.0163157" x="-161.97884" y="3090.3015" transform="rotate(-90)"/>
      <rect style="font-variation-settings:'wdth' 70,'wght' 600;display:inline;fill:#050506;fill-opacity:1;stroke-width:1.04919;stroke-dasharray:none" id="rect531" width="132.12082" height="1.0163157" x="-161.97884" y="3061.1226" transform="rotate(-90)"/>
      <rect style="font-variation-settings:'wdth' 70,'wght' 600;display:inline;fill:#050506;fill-opacity:1;stroke-width:1.04919;stroke-dasharray:none" id="rect532" width="132.12082" height="1.0163157" x="-161.97884" y="3031.9436" transform="rotate(-90)"/>
      <rect style="font-variation-settings:'wdth' 70,'wght' 600;display:inline;fill:#050506;fill-opacity:1;stroke-width:1.04919;stroke-dasharray:none" id="rect533" width="132.12082" height="1.0163157" x="-161.97884" y="3002.7646" transform="rotate(-90)"/>
      <rect style="font-variation-settings:'wdth' 70,'wght' 600;display:inline;fill:#050506;fill-opacity:1;stroke-width:1.04919;stroke-dasharray:none" id="rect534" width="132.12082" height="1.0163157" x="-161.97884" y="2973.5857" transform="rotate(-90)"/>
      <rect style="font-variation-settings:'wdth' 70,'wght' 600;display:inline;fill:#050506;fill-opacity:1;stroke-width:1.04919;stroke-dasharray:none" id="rect535" width="132.12082" height="1.0163157" x="22.488073" y="3237.2131" transform="rotate(-90)"/>
      <rect style="font-variation-settings:'wdth' 70,'wght' 600;display:inline;fill:#050506;fill-opacity:1;stroke-width:1.04919;stroke-dasharray:none" id="rect536" width="132.12082" height="1.0163157" x="22.488073" y="3208.0339" transform="rotate(-90)"/>
      <rect style="font-variation-settings:'wdth' 70,'wght' 600;display:inline;fill:#050506;fill-opacity:1;stroke-width:1.04919;stroke-dasharray:none" id="rect537" width="132.12082" height="1.0163157" x="22.488073" y="3178.855" transform="rotate(-90)"/>
      <rect style="font-variation-settings:'wdth' 70,'wght' 600;display:inline;fill:#050506;fill-opacity:1;stroke-width:1.04919;stroke-dasharray:none" id="rect538" width="132.12082" height="1.0163157" x="22.488073" y="3267.4087" transform="rotate(-90)"/>
      <rect style="font-variation-settings:'wdth' 70,'wght' 600;display:inline;fill:#050506;fill-opacity:1;stroke-width:1.04919;stroke-dasharray:none" id="rect539" width="132.12082" height="1.0163157" x="22.488073" y="3149.6758" transform="rotate(-90)"/>
      <rect style="font-variation-settings:'wdth' 70,'wght' 600;display:inline;fill:#050506;fill-opacity:1;stroke-width:1.04919;stroke-dasharray:none" id="rect540" width="132.12082" height="1.0163157" x="22.488073" y="3120.4971" transform="rotate(-90)"/>
      <rect style="font-variation-settings:'wdth' 70,'wght' 600;display:inline;fill:#050506;fill-opacity:1;stroke-width:1.04919;stroke-dasharray:none" id="rect541" width="132.12082" height="1.0163157" x="22.488073" y="3091.3179" transform="rotate(-90)"/>
      <rect style="font-variation-settings:'wdth' 70,'wght' 600;display:inline;fill:#050506;fill-opacity:1;stroke-width:1.04919;stroke-dasharray:none" id="rect542" width="132.12082" height="1.0163157" x="22.488073" y="3062.1389" transform="rotate(-90)"/>
      <rect style="font-variation-settings:'wdth' 70,'wght' 600;display:inline;fill:#050506;fill-opacity:1;stroke-width:1.04919;stroke-dasharray:none" id="rect543" width="132.12082" height="1.0163157" x="22.488073" y="3032.96" transform="rotate(-90)"/>
      <rect style="font-variation-settings:'wdth' 70,'wght' 600;display:inline;fill:#050506;fill-opacity:1;stroke-width:1.04919;stroke-dasharray:none" id="rect544" width="132.12082" height="1.0163157" x="22.488073" y="3003.781" transform="rotate(-90)"/>
      <rect style="font-variation-settings:'wdth' 70,'wght' 600;display:inline;fill:#050506;fill-opacity:1;stroke-width:1.04919;stroke-dasharray:none" id="rect545" width="132.12082" height="1.0163157" x="22.488073" y="2974.6021" transform="rotate(-90)"/>
      <rect style="font-variation-settings:'wdth' 70,'wght' 600;display:inline;fill:#050506;fill-opacity:1;stroke-width:1.04919;stroke-dasharray:none" id="rect546" width="132.12082" height="1.0163157" x="22.488073" y="2945.4231" transform="rotate(-90)"/>
      <path style="font-variation-settings:'wdth' 70,'wght' 600;display:inline;opacity:1;fill:none;fill-opacity:1;stroke:#bec3c6;stroke-width:.123959;stroke-dasharray:none;stroke-opacity:1;marker-end:url(#Triangle)" d="m 51.869699,224.88733 h 6.406059" id="path199" transform="matrix(-40.994174,0,0,-40.994174,5378.1581,9133.0372)"/>
      <path style="font-variation-settings:'wdth' 70,'wght' 600;display:inline;opacity:1;fill:none;fill-opacity:1;stroke:#bec3c6;stroke-width:5.0816;stroke-dasharray:none;stroke-opacity:1;marker-end:url(#Triangle)" d="m 2960.0126,95.918361 262.6108,6e-5" id="path200" transform="translate(-1.8652726e-5)"/>
    </g>
    <g id="walls_2" transform="matrix(0.02439371,0,0,0.02439371,-0.02443957,244.19953)" style="display:inline">
      <path style="font-variation-settings:'wdth' 70,'wght' 600;fill:none;stroke:#bec3c6;stroke-width:35.571;stroke-linecap:butt;stroke-dasharray:none;stroke-opacity:1" d="M 290.49639,-127.31593 H 49.000001" id="path206"/>
      <path style="font-variation-settings:'wdth' 70,'wght' 600;fill:none;stroke:#bec3c6;stroke-width:35.571;stroke-linecap:butt;stroke-dasharray:none;stroke-opacity:1" d="M 871.06673,-127.31593 H 392.12796" id="path207"/>
      <path style="font-variation-settings:'wdth' 70,'wght' 600;fill:none;stroke:#bec3c6;stroke-width:45.7342;stroke-linecap:butt;stroke-dasharray:none;stroke-opacity:1" d="M 2576.7788,-129.42877 V -1062.5668 H -875.5972 V 745.25722 h 3452.376 V -27.797221" id="path208"/>
      <path style="font-variation-settings:'wdth' 70,'wght' 600;fill:none;stroke:#bec3c6;stroke-width:35.571;stroke-linecap:butt;stroke-dasharray:none;stroke-opacity:1" d="m 1567.243,-127.31593 h 358.0654 v -935.25087" id="path209"/>
      <path style="font-variation-settings:'wdth' 70,'wght' 600;fill:none;stroke:#bec3c6;stroke-width:35.571;stroke-linecap:butt;stroke-dasharray:none;stroke-opacity:1" d="m 1392.8424,-1062.5668 v 935.25087" id="path210"/>
      <path style="font-variation-settings:'wdth' 70,'wght' 600;fill:none;stroke:#bec3c6;stroke-width:35.571;stroke-linecap:butt;stroke-dasharray:none;stroke-opacity:1" d="M 2576.7788,-707.8418 H 2114.599 v 406.57758 h 245.5347" id="path212"/>
      <path style="font-variation-settings:'wdth' 70,'wght' 600;fill:none;stroke:#bec3c6;stroke-width:35;stroke-linecap:butt;stroke-dasharray:none;stroke-opacity:1" d="m 2302.6309,-707.8418 v 406.57758" id="path213"/>
      <path style="font-variation-settings:'wdth' 70,'wght' 600;fill:none;stroke:#bec3c6;stroke-width:35.571;stroke-linecap:butt;stroke-dasharray:none;stroke-opacity:1" d="m 2512.082,-301.26422 h 64.6968" id="path214"/>
      <path style="font-variation-settings:'wdth' 70,'wght' 600;fill:none;stroke:#bec3c6;stroke-width:35.571;stroke-linecap:butt;stroke-dasharray:none;stroke-opacity:1" d="M 727.61196,745.25722 V 166.17443" id="path216"/>
      <path style="font-variation-settings:'wdth' 70,'wght' 600;fill:none;stroke:#bec3c6;stroke-width:35.571;stroke-linecap:butt;stroke-dasharray:none;stroke-opacity:1" d="M 44.331301,413.29395 H 547.49064" id="path217"/>
      <path style="font-variation-settings:'wdth' 70,'wght' 600;fill:none;stroke:#bec3c6;stroke-width:35.571;stroke-linecap:butt;stroke-dasharray:none;stroke-opacity:1" d="m 186.39213,266.17444 h 343.3117 V 127.01683" id="path218"/>
      <rect style="font-variation-settings:'wdth' 70,'wght' 600;opacity:1;fill:#bec3c6;fill-opacity:1;stroke:none;stroke-width:36.5443;stroke-dasharray:none" id="rect218" width="316.22699" height="147.11948" x="231.26501" y="262.58121"/>
      <path style="font-variation-settings:'wdth' 70,'wght' 600;fill:none;stroke:#bec3c6;stroke-width:35.571;stroke-linecap:butt;stroke-dasharray:none;stroke-opacity:1" d="m 673.1177,166.17443 h 403.648" id="path219"/>
      <rect style="font-variation-settings:'wdth' 70,'wght' 600;opacity:1;fill:#bec3c6;fill-opacity:1;stroke:none;stroke-width:46.5472;stroke-dasharray:none" id="rect220" width="188.03178" height="406.57758" x="2114.5991" y="-707.8418"/>
      <rect style="font-variation-settings:'wdth' 70,'wght' 600;opacity:1;fill:none;fill-opacity:1;stroke:#bec3c6;stroke-width:15.2447;stroke-dasharray:none;stroke-opacity:1" id="rect221" width="320.96899" height="37.371098" x="226.52051" y="563.2002"/>
      <rect style="font-variation-settings:'wdth' 70,'wght' 600;opacity:1;fill:none;fill-opacity:1;stroke:#bec3c6;stroke-width:15.2447;stroke-dasharray:none;stroke-opacity:1" id="rect222" width="320.96912" height="49.830864" x="2112.7678" y="-907.57898"/>
      <path style="font-variation-settings:'wdth' 70,'wght' 600;fill:none;stroke:#bec3c6;stroke-width:35.571;stroke-linecap:butt;stroke-dasharray:none;stroke-opacity:1" d="m 607.96167,-539.09296 v 411.77703" id="path222"/>
      <path style="font-variation-settings:'wdth' 70,'wght' 600;fill:none;stroke:#bec3c6;stroke-width:35.571;stroke-linecap:butt;stroke-dasharray:none;stroke-opacity:1" d="M 1465.6114,-127.31593 H 972.6983" id="path223"/>
      <path style="font-variation-settings:'wdth' 70,'wght' 600;fill:none;stroke:#bec3c6;stroke-width:35.571;stroke-linecap:butt;stroke-dasharray:none;stroke-opacity:1" d="M 49.000001,266.17444 H 84.760592" id="path224"/>
      <path style="font-variation-settings:'wdth' 70,'wght' 600;fill:none;stroke:#bec3c6;stroke-width:35.571;stroke-linecap:butt;stroke-dasharray:none;stroke-opacity:1" d="m 1178.3972,166.17443 h 268.47" id="path225"/>
      <path style="font-variation-settings:'wdth' 70,'wght' 600;fill:none;stroke:#bec3c6;stroke-width:35.571;stroke-linecap:butt;stroke-dasharray:none;stroke-opacity:1" d="m 2046.751,166.17443 h 227.0261" id="path226"/>
      <path style="font-variation-settings:'wdth' 70,'wght' 600;fill:none;stroke:#bec3c6;stroke-width:35.571;stroke-linecap:butt;stroke-dasharray:none;stroke-opacity:1" d="m 2375.4087,166.17443 h 68.6869" id="path227"/>
      <path style="font-variation-settings:'wdth' 70,'wght' 600;fill:none;stroke:#bec3c6;stroke-width:35.571;stroke-linecap:butt;stroke-dasharray:none;stroke-opacity:1" d="m 2545.7272,166.17443 h 31.0516" id="path228"/>
      <path style="font-variation-settings:'wdth' 70,'wght' 600;fill:none;stroke:#bec3c6;stroke-width:35.571;stroke-linecap:butt;stroke-dasharray:none;stroke-opacity:1" d="M 2242.2107,166.17443 V 745.25722" id="path235"/>
      <path style="font-variation-settings:'wdth' 70,'wght' 600;fill:none;stroke:#bec3c6;stroke-width:10.1632;stroke-linecap:butt;stroke-dasharray:none;stroke-opacity:1" d="M 2409.7521,745.25722 V 166.17443" id="path236"/>
      <path style="font-variation-settings:'wdth' 70,'wght' 600;fill:none;stroke:#bec3c6;stroke-width:35.571;stroke-linecap:butt;stroke-dasharray:none;stroke-opacity:1" d="M 529.70383,-76.246097 V -127.31593" id="path278"/>
      <path style="font-variation-settings:'wdth' 70,'wght' 600;fill:none;stroke:#bec3c6;stroke-width:35.571;stroke-linecap:butt;stroke-dasharray:none;stroke-opacity:1" d="m 529.70383,166.17443 h 41.7823" id="path279"/>
      <path style="font-variation-settings:'wdth' 70,'wght' 600;fill:none;stroke:#bec3c6;stroke-width:35.571;stroke-linecap:butt;stroke-dasharray:none;stroke-opacity:1" d="M 49.000001,745.25722 V 127.01683" id="path280"/>
      <path style="font-variation-settings:'wdth' 70,'wght' 600;fill:none;stroke:#bec3c6;stroke-width:35.571;stroke-linecap:butt;stroke-dasharray:none;stroke-opacity:1" d="M 49.000001,-76.246097 V -1062.5668" id="path281"/>
      <path style="font-variation-settings:'wdth' 70,'wght' 600;fill:none;stroke:#bec3c6;stroke-width:35.571;stroke-linecap:butt;stroke-dasharray:none;stroke-opacity:1" d="m 607.96167,-1062.5668 v 421.8423" id="path282"/>
      <path style="font-variation-settings:'wdth' 70,'wght' 600;fill:none;stroke:#bec3c6;stroke-width:10.1632;stroke-linecap:butt;stroke-dasharray:none;stroke-opacity:1" d="M 1927.5422,745.25722 V 166.17443" id="path283"/>
      <path style="font-variation-settings:'wdth' 70,'wght' 600;fill:none;stroke:#bec3c6;stroke-width:10.1632;stroke-linecap:butt;stroke-dasharray:none;stroke-opacity:1" d="M 1626.2962,745.25722 V 166.17443" id="path284"/>
      <path style="font-variation-settings:'wdth' 70,'wght' 600;fill:none;stroke:#bec3c6;stroke-width:10.1632;stroke-linecap:butt;stroke-dasharray:none;stroke-opacity:1" d="M 1252.8002,745.25722 V 166.17443" id="path285"/>
      <path style="font-variation-settings:'wdth' 70,'wght' 600;fill:none;stroke:#bec3c6;stroke-width:35.571;stroke-linecap:butt;stroke-dasharray:none;stroke-opacity:1" d="m 1548.4987,166.17443 h 199.6138" id="path286"/>
      <path style="font-variation-settings:'wdth' 70,'wght' 600;fill:none;stroke:#bec3c6;stroke-width:35.571;stroke-linecap:butt;stroke-dasharray:none;stroke-opacity:1" d="m 1849.744,166.17443 h 95.3754" id="path287"/>
      <path style="font-variation-settings:'wdth' 70,'wght' 600;fill:none;stroke:#bec3c6;stroke-width:10.1632;stroke-linecap:butt;stroke-dasharray:none;stroke-opacity:1" d="M 607.96167,-507.29179 H 874.59436" id="path288"/>
      <path style="font-variation-settings:'wdth' 70,'wght' 600;fill:none;stroke:#bec3c6;stroke-width:10.1632;stroke-linecap:butt;stroke-dasharray:none;stroke-opacity:1" d="M 976.22593,-507.29179 H 1392.8424" id="path289"/>
      <path style="font-variation-settings:'wdth' 70,'wght' 600;fill:none;stroke:#bec3c6;stroke-width:10.1632;stroke-linecap:butt;stroke-dasharray:none;stroke-opacity:1" d="m 811.78512,-1062.5668 4.94815,51.6724 m 8.2472,104.71202 11.75152,126.69127 -24.94208,272.19932" id="path292"/>
    </g>
    <g id="icons_2" transform="matrix(0.02439371,0,0,0.02439371,-0.02443957,244.19953)" style="display:inline">
      <g id="g272" style="filter:url(#filter65)" transform="translate(-11.964633,-1531.964)">
        <rect style="font-variation-settings:'wdth' 70,'wght' 600;fill:none;fill-opacity:1;stroke:#d6d7de;stroke-width:4.78791;stroke-linejoin:miter;stroke-dasharray:none;stroke-opacity:1" id="rect271" width="95.212135" height="95.212151" x="2405.0667" y="979.80487" ry="9.1410179"/>
        <path d="m 2427.7505,1062.6135 h 12.6169 v -23.8318 h 6.2306 v -17.757 c 0,-2.6337 -0.8992,-4.8497 -2.6976,-6.6481 -1.7985,-1.7985 -4.0665,-2.6977 -6.804,-2.6977 h -6.2306 c -2.7375,0 -4.9794,0.8992 -6.7258,2.6977 -1.7466,1.7984 -2.6199,4.0144 -2.6199,6.6481 v 17.757 h 6.2304 z m 6.1958,-54.9845 c 2.1478,0 3.9626,-0.7033 5.4445,-2.1098 1.4819,-1.4064 2.2228,-3.2356 2.2228,-5.4875 0,-2.148 -0.7292,-3.93697 -2.1877,-5.3669 -1.4583,-1.42987 -3.2615,-2.1448 -5.4096,-2.1448 -2.1481,0 -3.937,0.70327 -5.3669,2.1098 -1.4299,1.4064 -2.1449,3.18367 -2.1449,5.3318 0,2.2518 0.7033,4.0926 2.11,5.5225 1.4064,1.4299 3.1837,2.1449 5.3318,2.1449 z m 28.3838,9.9689 h 20.0934 l -9.9688,-16.1994 z m 10.1246,35.6697 9.9688,-16.1993 h -20.0934 z" id="path272" style="fill:#d5d6dd;fill-opacity:1;stroke-width:0;stroke-dasharray:none"/>
      </g>
      <path d="m 5493.231,1690.325 v -31.8652 h -10.1036 v -32.2539 q 0,-3.5622 2.5583,-6.1205 2.5583,-2.5583 6.1205,-2.5583 h 19.9482 q 3.5621,0 6.1204,2.5583 2.5583,2.5583 2.5583,6.1205 v 32.2539 h -10.1036 v 31.8652 z m 8.5596,-82.6425 q -3.6891,0 -6.1891,-2.5544 -2.5,-2.5545 -2.5,-6.1139 0,-3.6892 2.4896,-6.1892 2.4899,-2.5 6.1788,-2.5 3.6891,0 6.1891,2.4897 2.5,2.4897 2.5,6.1787 0,3.5596 -2.4896,6.1244 -2.4897,2.5647 -6.1788,2.5647 z" id="path273" style="display:inline;fill:#fff;fill-opacity:.798742;stroke-width:.129534;filter:url(#filter17-8)" transform="matrix(1.0163157,0,0,1.0163157,-3259.2139,-1211.3722)"/>
      <path d="m 5174.1563,1690.325 v -30.0518 h -14.7668 l 14.2098,-39.4458 q 1.121,-2.8983 3.8366,-4.5889 2.7155,-1.6907 5.7878,-1.6907 3.0723,0 5.7878,1.6907 2.7156,1.6906 3.8542,4.5779 l 14.1922,39.4568 h -14.7668 v 30.0518 z m 9.0778,-82.6424 q -3.6892,0 -6.1892,-2.5504 -2.5,-2.5504 -2.5,-6.118 0,-3.6892 2.4897,-6.1892 2.4899,-2.5 6.1787,-2.5 3.6892,0 6.1892,2.4897 2.5,2.4897 2.5,6.114 0,3.6243 -2.4897,6.1891 -2.4896,2.5648 -6.1787,2.5648 z" id="path274" style="display:inline;fill:#fff;fill-opacity:.803459;stroke-width:.129534;filter:url(#filter15-7)" transform="matrix(1.0163157,0,0,1.0163157,-2780.8791,-1211.3722)"/>
    </g>
    <path id="roomNames_2" d="m 353.1167,154.10988 v -8.736 c 5.12,-4.544 9.664,-8.8 13.632,-12.768 4.032,-3.968 7.168,-7.648 9.408,-11.04 2.304,-3.392 3.456,-6.496 3.456,-9.312 0,-3.008 -0.768,-5.28 -2.304,-6.816 -1.536,-1.6 -3.648,-2.4 -6.336,-2.4 -2.176,0 -4.16,0.64 -5.952,1.92 -1.728,1.216 -3.36,2.656 -4.896,4.32 l -7.392,-7.296 c 2.944,-3.328 5.952,-5.824 9.024,-7.488 3.136,-1.664 6.848,-2.496 11.136,-2.496 3.968,0 7.456,0.8 10.464,2.4 3.072,1.6 5.44,3.84 7.104,6.72 1.728,2.88 2.592,6.272 2.592,10.176 0,3.648 -0.992,7.232 -2.976,10.752 -1.92,3.456 -4.48,6.912 -7.68,10.368 -3.2,3.456 -6.592,6.976 -10.176,10.56 1.536,-0.192 3.264,-0.352 5.184,-0.48 1.92,-0.192 3.584,-0.288 4.992,-0.288 h 13.632 v 11.904 z m 53.85599,0 v -11.424 h 13.248 v -35.232 h -11.424 v -8.736 c 3.328,-0.64 6.144,-1.408 8.448,-2.304 2.368,-0.896 4.608,-1.984 6.72,-3.264 h 10.368 v 49.536 h 11.424 v 11.424 z m 47.51998,0 v -8.736 c 5.12,-4.544 9.664,-8.8 13.632,-12.768 4.032,-3.968 7.168,-7.648 9.408,-11.04 2.304,-3.392 3.456,-6.496 3.456,-9.312 0,-3.008 -0.768,-5.28 -2.304,-6.816 -1.536,-1.6 -3.648,-2.4 -6.336,-2.4 -2.176,0 -4.16,0.64 -5.952,1.92 -1.728,1.216 -3.36,2.656 -4.896,4.32 l -7.392,-7.296 c 2.944,-3.328 5.952,-5.824 9.024,-7.488 3.136,-1.664 6.848,-2.496 11.136,-2.496 3.968,0 7.456,0.8 10.464,2.4 3.072,1.6 5.44,3.84 7.104,6.72 1.728,2.88 2.592,6.272 2.592,10.176 0,3.648 -0.992,7.232 -2.976,10.752 -1.92,3.456 -4.48,6.912 -7.68,10.368 -3.2,3.456 -6.592,6.976 -10.176,10.56 1.536,-0.192 3.264,-0.352 5.184,-0.48 1.92,-0.192 3.584,-0.288 4.992,-0.288 h 13.632 v 11.904 z m -84.04797,-120 v -62.592 h 15.744 l 9.984,27.83999974 c 0.64,1.85599996 1.216,3.74399996 1.728,5.66399996 0.576,1.856 1.152,3.8080001 1.728,5.8560003 h 0.384 c 0.576,-2.0480002 1.12,-4.0000003 1.632,-5.8560003 0.512,-1.92 1.088,-3.808 1.728,-5.66399996 l 9.792,-27.83999974 h 15.744 v 62.592 h -12.96 v -22.944 c 0,-2.0480002 0.096,-4.4480003 0.288,-7.2000003 0.256,-2.816 0.512,-5.6 0.768,-8.352 0.32,-2.816 0.608,-5.2479999 0.864,-7.2959997 h -0.384 l -5.088,16.5119997 -8.832,23.9040003 h -8.256 l -8.736,-23.9040003 -4.896,-16.5119997 h -0.384 c 0.256,2.0479998 0.512,4.4799997 0.768,7.2959997 0.32,2.752 0.576,5.536 0.768,8.352 0.192,2.752 0.288,5.1520001 0.288,7.2000003 v 22.944 z m 69.21592,0 v -8.544 l 27.648,-42.144 h -25.056 v -11.904 h 42.432 v 8.544 l -27.648,42.144 h 27.936 v 11.904 z m -380.32742,120 v -8.736 c 5.12,-4.544 9.664,-8.8 13.632,-12.768 4.032,-3.968 7.168,-7.648 9.408,-11.04 2.304,-3.392 3.456,-6.496 3.456,-9.312 0,-3.008 -0.768,-5.28 -2.304,-6.816 -1.536,-1.6 -3.648,-2.4 -6.336,-2.4 -2.176,0 -4.16,0.64 -5.952,1.92 -1.728,1.216 -3.36,2.656 -4.896,4.32 l -7.392,-7.296 c 2.944,-3.328 5.952,-5.824 9.024,-7.488 3.136,-1.664 6.848,-2.496 11.136,-2.496 3.968,0 7.456,0.8 10.464,2.4 3.072,1.6 5.44,3.84 7.104,6.72 1.728,2.88 2.592,6.272 2.592,10.176 0,3.648 -0.992,7.232 -2.976,10.752 -1.92,3.456 -4.48,6.912 -7.68,10.368 -3.2,3.456 -6.592,6.976 -10.176,10.56 1.536,-0.192 3.264,-0.352 5.184,-0.48 1.92,-0.192 3.584,-0.288 4.992,-0.288 h 13.632 v 11.904 z m 53.85599,0 v -11.424 h 13.248 v -35.232 h -11.424 v -8.736 c 3.328,-0.64 6.144,-1.408 8.448,-2.304 2.368,-0.896 4.608,-1.984 6.72,-3.264 h 10.368 v 49.536 h 11.424 v 11.424 z m 50.68798,0 v -11.424 h 13.248 v -35.232 h -11.424 v -8.736 c 3.328,-0.64 6.144,-1.408 8.448,-2.304 2.368,-0.896 4.608,-1.984 6.72,-3.264 h 10.368 v 49.536 h 11.424 v 11.424 z m -87.21597,-120 v -62.592 h 15.744 l 9.984,27.83999974 c 0.64,1.85599996 1.216,3.74399996 1.728,5.66399996 0.576,1.856 1.152,3.8080001 1.728,5.8560003 h 0.384 c 0.576,-2.0480002 1.12,-4.0000003 1.632,-5.8560003 0.512,-1.92 1.088,-3.808 1.728,-5.66399996 l 9.792,-27.83999974 h 15.744 v 62.592 h -12.96 v -22.944 c 0,-2.0480002 0.096,-4.4480003 0.288,-7.2000003 0.256,-2.816 0.512,-5.6 0.768,-8.352 0.32,-2.816 0.608,-5.2479999 0.864,-7.2959997 h -0.384 l -5.088,16.5119997 -8.832,23.9040003 h -8.256 L 92.7892,4.8298797 87.8932,-11.68212 h -0.384 c 0.256,2.0479998 0.512,4.4799997 0.768,7.2959997 0.32,2.752 0.576,5.536 0.768,8.352 0.192,2.752 0.288,5.1520001 0.288,7.2000003 v 22.944 z m 69.21592,0 v -8.544 l 27.648,-42.144 h -25.056 v -11.904 h 42.432 v 8.544 l -27.648,42.144 h 27.936 v 11.904 z M -705.1979,-607.07587 v -8.736 c 5.12,-4.544 9.664,-8.8 13.632,-12.768 4.032,-3.968 7.168,-7.648 9.408,-11.04 2.304,-3.392 3.456,-6.496 3.456,-9.312 0,-3.008 -0.768,-5.28 -2.304,-6.816 -1.536,-1.6 -3.648,-2.4 -6.336,-2.4 -2.176,0 -4.16,0.64 -5.952,1.92 -1.728,1.216 -3.36,2.656 -4.896,4.32 l -7.392,-7.296 c 2.944,-3.328 5.952,-5.824 9.024,-7.488 3.136,-1.664 6.848,-2.496 11.136,-2.496 3.968,0 7.456,0.8 10.464,2.4 3.072,1.6 5.44,3.84 7.104,6.72 1.728,2.88 2.592,6.272 2.592,10.176 0,3.648 -0.992,7.232 -2.976,10.752 -1.92,3.456 -4.48,6.912 -7.68,10.368 -3.2,3.456 -6.592,6.976 -10.176,10.56 1.536,-0.192 3.264,-0.352 5.184,-0.48 1.92,-0.192 3.584,-0.288 4.992,-0.288 h 13.632 v 11.904 z m 72.47999,1.152 c -6.528,0 -11.808,-2.72 -15.84,-8.16 -3.968,-5.44 -5.952,-13.344 -5.952,-23.712 0,-10.432 1.984,-18.272 5.952,-23.52 4.032,-5.248 9.312,-7.872 15.84,-7.872 6.528,0 11.776,2.656 15.744,7.968 4.032,5.248 6.048,13.056 6.048,23.424 0,10.368 -2.016,18.272 -6.048,23.712 -3.968,5.44 -9.216,8.16 -15.744,8.16 z m 0,-10.944 c 1.6,0 3.04,-0.576 4.32,-1.728 1.28,-1.216 2.272,-3.328 2.976,-6.336 0.768,-3.072 1.152,-7.36 1.152,-12.864 0,-5.568 -0.384,-9.824 -1.152,-12.768 -0.704,-2.944 -1.696,-4.96 -2.976,-6.048 -1.28,-1.088 -2.72,-1.632 -4.32,-1.632 -1.6,0 -3.04,0.544 -4.32,1.632 -1.28,1.088 -2.304,3.104 -3.072,6.048 -0.704,2.944 -1.056,7.2 -1.056,12.768 0,5.504 0.352,9.792 1.056,12.864 0.768,3.008 1.792,5.12 3.072,6.336 1.28,1.152 2.72,1.728 4.32,1.728 z m 28.89598,9.792 v -8.736 c 5.12,-4.544 9.664,-8.8 13.632,-12.768 4.032,-3.968 7.168,-7.648 9.408,-11.04 2.304,-3.392 3.456,-6.496 3.456,-9.312 0,-3.008 -0.768,-5.28 -2.304,-6.816 -1.536,-1.6 -3.648,-2.4 -6.336,-2.4 -2.176,0 -4.16,0.64 -5.952,1.92 -1.728,1.216 -3.36,2.656 -4.896,4.32 l -7.392,-7.296 c 2.944,-3.328 5.952,-5.824 9.024,-7.488 3.136,-1.664 6.848,-2.496 11.136,-2.496 3.968,0 7.456,0.8 10.464,2.4 3.072,1.6 5.44,3.84 7.104,6.72 1.728,2.88 2.592,6.272 2.592,10.176 0,3.648 -0.992,7.232 -2.976,10.752 -1.92,3.456 -4.48,6.912 -7.68,10.368 -3.2,3.456 -6.592,6.976 -10.176,10.56 1.536,-0.192 3.264,-0.352 5.184,-0.48 1.92,-0.192 3.584,-0.288 4.992,-0.288 h 13.632 v 11.904 z m -84.04797,-120 v -62.592 h 15.744 l 9.984,27.84 c 0.64,1.856 1.216,3.744 1.728,5.664 0.576,1.856 1.152,3.808 1.728,5.856 h 0.384 c 0.576,-2.048 1.12,-4 1.632,-5.856 0.512,-1.92 1.088,-3.808 1.728,-5.664 l 9.792,-27.84 h 15.744 v 62.592 h -12.96 v -22.944 c 0,-2.048 0.096,-4.448 0.288,-7.2 0.256,-2.816 0.512,-5.6 0.768,-8.352 0.32,-2.816 0.608,-5.248 0.864,-7.296 h -0.384 l -5.088,16.512 -8.832,23.904 h -8.256 l -8.736,-23.904 -4.896,-16.512 h -0.384 c 0.256,2.048 0.512,4.48 0.768,7.296 0.32,2.752 0.576,5.536 0.768,8.352 0.192,2.752 0.288,5.152 0.288,7.2 v 22.944 z m 69.21592,0 v -8.544 l 27.648,-42.144 h -25.056 v -11.904 h 42.432 v 8.544 l -27.648,42.144 h 27.936 v 11.904 z m 13.97178,-340.11833 v -8.736 c 5.12,-4.544 9.664,-8.8 13.632,-12.768 4.032,-3.968 7.168,-7.648 9.408,-11.04 2.304,-3.392 3.456,-6.496 3.456,-9.312 0,-3.008 -0.768,-5.28 -2.304,-6.816 -1.536,-1.6 -3.648,-2.4 -6.336,-2.4 -2.176,0 -4.16,0.64 -5.952,1.92 -1.728,1.216 -3.36,2.656 -4.896,4.32 l -7.392,-7.296 c 2.944,-3.328 5.952,-5.824 9.024,-7.488 3.136,-1.664 6.848,-2.496 11.136,-2.496 3.968,0 7.456,0.8 10.464,2.4 3.072,1.6 5.44,3.84 7.104,6.72 1.728,2.88 2.592,6.272 2.592,10.176 0,3.648 -0.992,7.232 -2.976,10.752 -1.92,3.456 -4.48,6.912 -7.68,10.368 -3.2,3.456 -6.592,6.976 -10.176,10.56 1.536,-0.192 3.264,-0.352 5.184,-0.48 1.92,-0.192 3.584,-0.288 4.992,-0.288 h 13.632 v 11.904 z m 72.47999,1.152 c -6.528,0 -11.808,-2.72 -15.84,-8.16 -3.968,-5.44 -5.952,-13.344 -5.952,-23.712 0,-10.432 1.984,-18.272 5.952,-23.52 4.032,-5.248 9.312,-7.872 15.84,-7.872 6.528,0 11.776,2.656 15.744,7.968 4.032,5.248 6.048,13.056 6.048,23.424 0,10.368 -2.016,18.272 -6.048,23.712 -3.968,5.44 -9.216,8.16 -15.744,8.16 z m 0,-10.944 c 1.6,0 3.04,-0.576 4.32,-1.728 1.28,-1.216 2.272,-3.328 2.976,-6.336 0.768,-3.072 1.152,-7.36 1.152,-12.864 0,-5.568 -0.384,-9.824 -1.152,-12.768 -0.704,-2.944 -1.696,-4.96 -2.976,-6.048 -1.28,-1.088 -2.72,-1.632 -4.32,-1.632 -1.6,0 -3.04,0.544 -4.32,1.632 -1.28,1.088 -2.304,3.104 -3.072,6.048 -0.704,2.944 -1.056,7.2 -1.056,12.768 0,5.504 0.352,9.792 1.056,12.864 0.768,3.008 1.792,5.12 3.072,6.336 1.28,1.152 2.72,1.728 4.32,1.728 z m 48.67198,10.944 c -3.264,0 -6.24,-0.384 -8.928,-1.152 -2.624,-0.704 -4.96,-1.696 -7.008,-2.976 -2.048,-1.28 -3.808,-2.784 -5.28,-4.512 l 6.528,-8.928 c 1.856,1.792 3.904,3.264 6.144,4.416 2.24,1.152 4.64,1.728 7.2,1.728 2.944,0 5.312,-0.608 7.104,-1.824 1.856,-1.28 2.784,-3.072 2.784,-5.376 0,-1.792 -0.448,-3.328 -1.344,-4.608 -0.896,-1.344 -2.528,-2.368 -4.896,-3.072 -2.304,-0.704 -5.696,-1.056 -10.176,-1.056 v -9.984 c 3.648,0 6.528,-0.352 8.64,-1.056 2.112,-0.704 3.584,-1.664 4.416,-2.88 0.896,-1.216 1.344,-2.624 1.344,-4.224 0,-2.176 -0.672,-3.84 -2.016,-4.992 -1.28,-1.152 -3.104,-1.728 -5.472,-1.728 -2.176,0 -4.16,0.48 -5.952,1.44 -1.728,0.896 -3.552,2.208 -5.472,3.936 l -7.104,-8.64 c 2.816,-2.432 5.792,-4.32 8.928,-5.664 3.136,-1.408 6.56,-2.112 10.272,-2.112 4.16,0 7.808,0.672 10.944,2.016 3.2,1.28 5.664,3.168 7.392,5.664 1.792,2.432 2.688,5.44 2.688,9.024 0,3.136 -0.896,5.824 -2.688,8.064 -1.728,2.24 -4.224,4.064 -7.488,5.472 v 0.384 c 2.304,0.704 4.384,1.728 6.24,3.072 1.856,1.28 3.296,2.912 4.32,4.896 1.024,1.984 1.536,4.288 1.536,6.912 0,3.776 -1.056,7.008 -3.168,9.696 -2.048,2.624 -4.8,4.64 -8.256,6.048 -3.392,1.344 -7.136,2.016 -11.232,2.016 z m -103.82397,-121.152 v -62.592 h 15.744 l 9.984,27.84 c 0.64,1.856 1.216,3.744 1.728,5.664 0.576,1.856 1.152,3.808 1.728,5.856 h 0.384 c 0.576,-2.048 1.12,-4 1.632,-5.856 0.512,-1.92 1.088,-3.808 1.728,-5.664 l 9.792,-27.84 h 15.744 v 62.592 h -12.96 v -22.944 c 0,-2.048 0.096,-4.448 0.288,-7.2 0.256,-2.816 0.512,-5.6 0.768,-8.352 0.32,-2.816 0.608,-5.248 0.864,-7.296 h -0.384 l -5.088,16.512 -8.832,23.904 h -8.256 l -8.736,-23.904 -4.896,-16.512 h -0.384 c 0.256,2.048 0.512,4.48 0.768,7.296 0.32,2.752 0.576,5.536 0.768,8.352 0.192,2.752 0.288,5.152 0.288,7.2 v 22.944 z m 69.21592,0 v -8.544 l 27.648,-42.144 h -25.056 v -11.904 h 42.432 v 8.544 l -27.648,42.144 h 27.936 v 11.904 z m -461.61092,119.9999 v -8.736 c 5.12,-4.544 9.664,-8.8 13.632,-12.768 4.032,-3.968 7.168,-7.648 9.408,-11.04 2.304,-3.392 3.456,-6.496 3.456,-9.312 0,-3.008 -0.768,-5.28 -2.304,-6.816 -1.536,-1.6 -3.648,-2.4 -6.336,-2.4 -2.176,0 -4.16,0.64 -5.952,1.92 -1.728,1.216 -3.36,2.656 -4.896,4.32 l -7.392,-7.296 c 2.944,-3.328 5.952,-5.824 9.024,-7.488 3.136,-1.664 6.848,-2.496 11.136,-2.496 3.968,0 7.456,0.8 10.464,2.4 3.072,1.6 5.44,3.84 7.104,6.72 1.728,2.88 2.592,6.272 2.592,10.176 0,3.648 -0.992,7.232 -2.976,10.752 -1.92,3.456 -4.48,6.912 -7.68,10.368 -3.2,3.456 -6.592,6.976 -10.176,10.56 1.536,-0.192 3.264,-0.352 5.184,-0.48 1.92,-0.192 3.584,-0.288 4.992,-0.288 h 13.632 v 11.904 z m 72.47999,1.152 c -6.528,0 -11.808,-2.72 -15.84,-8.16 -3.968,-5.44 -5.952,-13.344 -5.952,-23.712 0,-10.432 1.984,-18.272 5.952,-23.52 4.032,-5.248 9.312,-7.872 15.84,-7.872 6.528,0 11.776,2.656 15.744,7.968 4.032,5.248 6.048,13.056 6.048,23.424 0,10.368 -2.016,18.272 -6.048,23.712 -3.968,5.44 -9.216,8.16 -15.744,8.16 z m 0,-10.944 c 1.6,0 3.04,-0.576 4.32,-1.728 1.28,-1.216 2.272,-3.328 2.976,-6.336 0.768,-3.072 1.152,-7.36 1.152,-12.864 0,-5.568 -0.384,-9.824 -1.152,-12.768 -0.704,-2.944 -1.696,-4.96 -2.976,-6.048 -1.28,-1.088 -2.72,-1.632 -4.32,-1.632 -1.6,0 -3.04,0.544 -4.32,1.632 -1.28,1.088 -2.304,3.104 -3.072,6.048 -0.704,2.944 -1.056,7.2 -1.056,12.768 0,5.504 0.352,9.792 1.056,12.864 0.768,3.008 1.792,5.12 3.072,6.336 1.28,1.152 2.72,1.728 4.32,1.728 z m 53.56798,9.792 v -35.232 c 0,-1.92 0.064,-4.192 0.192,-6.816 0.192,-2.624 0.32,-4.896 0.384,-6.816 h -0.384 c -0.768,1.664 -1.568,3.36 -2.4,5.088 l -2.592,5.184 -8.064,13.248 h 33.024 v 10.752 h -46.56 v -9.696 l 22.272,-36.672 h 17.28 v 60.96 z m -108.71997,-120 v -62.592 h 15.744 l 9.984,27.84 c 0.64,1.856 1.216,3.744 1.728,5.664 0.576,1.856 1.152,3.808 1.728,5.856 h 0.384 c 0.576,-2.048 1.12,-4 1.632,-5.856 0.512,-1.92 1.088,-3.808 1.728,-5.664 l 9.792,-27.84 h 15.744 v 62.592 h -12.96 v -22.944 c 0,-2.048 0.096,-4.448 0.288,-7.2 0.256,-2.816 0.512,-5.6 0.768,-8.352 0.32,-2.816 0.608,-5.248 0.864,-7.296 h -0.384 l -5.088,16.512 -8.832,23.904 h -8.256 l -8.736,-23.904 -4.896,-16.512 h -0.384 c 0.256,2.048 0.512,4.48 0.768,7.296 0.32,2.752 0.576,5.536 0.768,8.352 0.192,2.752 0.288,5.152 0.288,7.2 v 22.944 z m 69.21592,0 v -8.544 l 27.648,-42.144 h -25.056 v -11.904 h 42.432 v 8.544 l -27.648,42.144 h 27.936 v 11.904 z m -1275.14212,826.94053 v -17.472 c 10.24,-9.088 19.328,-17.6 27.264,-25.536 8.064,-7.936 14.336,-15.296 18.816,-22.08 4.608,-6.784 6.912,-12.992 6.912,-18.624 0,-6.016 -1.536,-10.56 -4.608,-13.632 -3.072,-3.2 -7.296,-4.8 -12.672,-4.8 -4.352,0 -8.32,1.28 -11.904,3.84 -3.456,2.432 -6.72,5.312 -9.792,8.64 l -14.784,-14.592 c 5.888,-6.656 11.904,-11.648 18.048,-14.976 6.272,-3.328 13.696,-4.992 22.272,-4.992 7.936,0 14.912,1.6 20.928,4.8 6.144,3.2 10.88,7.68 14.208,13.44 3.456,5.76 5.184,12.544 5.184,20.352 0,7.296 -1.984,14.464 -5.952,21.504 -3.84,6.912 -8.96,13.824 -15.36,20.736 -6.4,6.912 -13.184,13.952 -20.352,21.12 3.072,-0.384 6.528,-0.704 10.368,-0.96 3.84,-0.384 7.168,-0.576 9.984,-0.576 h 27.264 v 23.808 z m 144.96,2.304 c -13.056,0 -23.616,-5.44 -31.68,-16.32 -7.936,-10.88 -11.904,-26.688 -11.904,-47.424 0,-20.864 3.968,-36.544 11.904,-47.04 8.064,-10.496 18.624,-15.744 31.68,-15.744 13.056,0 23.552,5.312 31.488,15.936 8.064,10.496 12.096,26.112 12.096,46.848 0,20.736 -4.032,36.544 -12.096,47.424 -7.936,10.88 -18.432,16.32 -31.488,16.32 z m 0,-21.888 c 3.2,0 6.08,-1.152 8.64,-3.456 2.56,-2.432 4.544,-6.656 5.952,-12.672 1.536,-6.144 2.304,-14.72 2.304,-25.728 0,-11.136 -0.768,-19.648 -2.304,-25.536 -1.408,-5.888 -3.392,-9.92 -5.952,-12.096 -2.56,-2.176 -5.44,-3.264 -8.64,-3.264 -3.2,0 -6.08,1.088 -8.64,3.264 -2.56,2.176 -4.608,6.208 -6.144,12.096 -1.408,5.888 -2.112,14.4 -2.112,25.536 0,11.008 0.704,19.584 2.112,25.728 1.536,6.016 3.584,10.24 6.144,12.672 2.56,2.304 5.44,3.456 8.64,3.456 z m 79.488,19.584 c 0.64,-10.112 1.664,-19.392 3.072,-27.84 1.408,-8.576 3.392,-16.704 5.952,-24.384 2.688,-7.68 6.08,-15.232 10.176,-22.656 4.096,-7.424 9.152,-15.168 15.168,-23.232 h -54.72 v -23.808 h 84.864 v 17.28 c -7.168,8.704 -13.056,16.832 -17.664,24.384 -4.48,7.552 -7.936,15.232 -10.368,23.04 -2.432,7.808 -4.224,16.32 -5.376,25.536 -1.152,9.216 -2.048,19.776 -2.688,31.68 z m -189.792,-240 v -125.184 h 31.488 l 19.968,55.68 c 1.28,3.712 2.432,7.488 3.456,11.328 1.152,3.712 2.304,7.616 3.456,11.712 h 0.768 c 1.152,-4.096 2.24,-8 3.264,-11.712 1.024,-3.84 2.176,-7.616 3.456,-11.328 l 19.584,-55.68 h 31.488 v 125.184 h -25.92 v -45.888 c 0,-4.096 0.192,-8.896 0.576,-14.4 0.512,-5.632 1.024,-11.2 1.536,-16.704 0.64,-5.632 1.216,-10.496 1.728,-14.592 h -0.768 l -10.176,33.024 -17.664,47.808 h -16.512 l -17.472,-47.808 -9.792,-33.024 h -0.768 c 0.512,4.096 1.024,8.96 1.536,14.592 0.64,5.504 1.152,11.072 1.536,16.704 0.384,5.504 0.576,10.304 0.576,14.4 v 45.888 z m 138.4319,0 v -17.088 l 55.296,-84.288 h -50.112 v -23.808 h 84.864 v 17.088 l -55.296,84.288 h 55.872 v 23.808 z m 1722.4191,753.78765 v -8.736 c 5.12,-4.544 9.664,-8.8 13.632,-12.768 4.032,-3.968 7.168,-7.648 9.408,-11.04 2.304,-3.392 3.456,-6.496 3.456,-9.312 0,-3.008 -0.768,-5.28 -2.304,-6.816 -1.536,-1.6 -3.648,-2.4 -6.336,-2.4 -2.176,0 -4.16,0.64 -5.952,1.92 -1.728,1.216 -3.36,2.656 -4.896,4.32 l -7.392,-7.296 c 2.944,-3.328 5.952,-5.824 9.024,-7.488 3.136,-1.664 6.848,-2.496 11.136,-2.496 3.968,0 7.456,0.8 10.464,2.4 3.072,1.6 5.44,3.84 7.104,6.72 1.728,2.88 2.592,6.272 2.592,10.176 0,3.648 -0.992,7.232 -2.976,10.752 -1.92,3.456 -4.48,6.912 -7.68,10.368 -3.2,3.456 -6.592,6.976 -10.176,10.56 1.536,-0.192 3.264,-0.352 5.184,-0.48 1.92,-0.192 3.584,-0.288 4.992,-0.288 h 13.632 v 11.904 z m 53.85599,0 v -11.424 h 13.248 v -35.232 h -11.424 v -8.736 c 3.328,-0.64 6.144,-1.408 8.448,-2.304 2.368,-0.896 4.608,-1.984 6.72,-3.264 h 10.368 v 49.536 h 11.424 v 11.424 z m 69.31198,1.152 c -6.528,0 -11.808,-2.72 -15.84,-8.16 -3.968,-5.44 -5.952,-13.344 -5.952,-23.712 0,-10.432 1.984,-18.272 5.952,-23.52 4.032,-5.248 9.312,-7.872 15.84,-7.872 6.528,0 11.776,2.656 15.744,7.968 4.032,5.248 6.048,13.056 6.048,23.424 0,10.368 -2.016,18.272 -6.048,23.712 -3.968,5.44 -9.216,8.16 -15.744,8.16 z m 0,-10.944 c 1.6,0 3.04,-0.576 4.32,-1.728 1.28,-1.216 2.272,-3.328 2.976,-6.336 0.768,-3.072 1.152,-7.36 1.152,-12.864 0,-5.568 -0.384,-9.824 -1.152,-12.768 -0.704,-2.944 -1.696,-4.96 -2.976,-6.048 -1.28,-1.088 -2.72,-1.632 -4.32,-1.632 -1.6,0 -3.04,0.544 -4.32,1.632 -1.28,1.088 -2.304,3.104 -3.072,6.048 -0.704,2.944 -1.056,7.2 -1.056,12.768 0,5.504 0.352,9.792 1.056,12.864 0.768,3.008 1.792,5.12 3.072,6.336 1.28,1.152 2.72,1.728 4.32,1.728 z M -255.5124,33.53388 v -62.592 h 15.744 l 9.984,27.8399997 c 0.64,1.856 1.216,3.744 1.728,5.664 0.576,1.856 1.152,3.8080001 1.728,5.8560003 h 0.384 c 0.576,-2.0480002 1.12,-4.0000003 1.632,-5.8560003 0.512,-1.92 1.088,-3.808 1.728,-5.664 l 9.792,-27.8399997 h 15.744 v 62.592 h -12.96 v -22.944 c 0,-2.0480002 0.096,-4.4480003 0.288,-7.2000003 0.256,-2.81599997 0.512,-5.6 0.768,-8.352 0.32,-2.816 0.608,-5.2479997 0.864,-7.2959997 h -0.384 l -5.088,16.5119997 -8.832,23.9040003 h -8.256 l -8.736,-23.9040003 -4.896,-16.5119997 h -0.384 c 0.256,2.048 0.512,4.4799997 0.768,7.2959997 0.32,2.752 0.576,5.53600003 0.768,8.352 0.192,2.752 0.288,5.1520001 0.288,7.2000003 v 22.944 z m 69.21592,0 v -8.544 l 27.648,-42.144 h -25.056 v -11.904 h 42.432 v 8.544 l -27.648,42.144 h 27.936 v 11.904 z M -1503.019,-10.985716 v -3.88267 c 2.2756,-2.019557 4.2952,-3.911113 6.0587,-5.67467 1.792,-1.763557 3.1858,-3.399114 4.1813,-4.906671 1.024,-1.507557 1.536,-2.887113 1.536,-4.13867 0,-1.336889 -0.3413,-2.346668 -1.024,-3.029335 -0.6827,-0.711112 -1.6213,-1.066668 -2.816,-1.066668 -0.9671,0 -1.8488,0.284445 -2.6453,0.853334 -0.768,0.540445 -1.4933,1.180446 -2.176,1.920002 l -3.2853,-3.242669 c 1.3084,-1.479113 2.6453,-2.588447 4.0106,-3.328003 1.3938,-0.739556 3.0436,-1.109334 4.9494,-1.109334 1.7635,0 3.3137,0.355556 4.6506,1.066668 1.3653,0.711111 2.4178,1.706667 3.1574,2.986668 0.768,1.280001 1.152,2.787558 1.152,4.52267 0,1.621335 -0.4409,3.214225 -1.3227,4.778671 -0.8533,1.536001 -1.9911,3.072002 -3.4133,4.608003 -1.4223,1.536001 -2.9298,3.100447 -4.5227,4.693337 0.6827,-0.08533 1.4507,-0.156445 2.304,-0.213334 0.8533,-0.08533 1.5929,-0.128 2.2187,-0.128 h 6.0586 v 5.290671 z m 32.2134,0.512 c -2.9013,0 -5.248,-1.20889 -7.04,-3.626669 -1.7636,-2.417779 -2.6454,-5.930671 -2.6454,-10.538675 0,-4.636447 0.8818,-8.120894 2.6454,-10.453341 1.792,-2.332446 4.1387,-3.498669 7.04,-3.498669 2.9013,0 5.2338,1.180445 6.9973,3.541336 1.792,2.332446 2.688,5.802671 2.688,10.410674 0,4.608004 -0.896,8.120896 -2.688,10.538675 -1.7635,2.417779 -4.096,3.626669 -6.9973,3.626669 z m 0,-4.864003 c 0.7111,0 1.3511,-0.256 1.92,-0.768001 0.5689,-0.540445 1.0097,-1.479112 1.3226,-2.816002 0.3414,-1.365334 0.5121,-3.271113 0.5121,-5.717338 0,-2.474668 -0.1707,-4.366225 -0.5121,-5.67467 -0.3129,-1.308446 -0.7537,-2.204447 -1.3226,-2.688002 -0.5689,-0.483556 -1.2089,-0.725334 -1.92,-0.725334 -0.7111,0 -1.3511,0.241778 -1.92,0.725334 -0.5689,0.483555 -1.0241,1.379556 -1.3654,2.688002 -0.3129,1.308445 -0.4693,3.200002 -0.4693,5.67467 0,2.446225 0.1564,4.352004 0.4693,5.717338 0.3413,1.33689 0.7965,2.275557 1.3654,2.816002 0.5689,0.512001 1.2089,0.768001 1.92,0.768001 z m 22.4853,4.864003 c -1.792,0 -3.4133,-0.312889 -4.864,-0.938667 -1.4222,-0.625778 -2.5458,-1.493334 -3.3707,-2.602669 -0.7964,-1.137779 -1.1946,-2.432002 -1.1946,-3.882669 0,-1.109334 0.1991,-2.062224 0.5973,-2.858669 0.4267,-0.824889 0.9813,-1.550223 1.664,-2.176002 0.7111,-0.625778 1.4934,-1.166223 2.3467,-1.621334 v -0.170667 c -1.024,-0.796445 -1.8916,-1.706668 -2.6027,-2.730669 -0.6827,-1.024001 -1.024,-2.247113 -1.024,-3.669336 0,-1.536001 0.3698,-2.858668 1.1093,-3.968003 0.7396,-1.137779 1.7636,-2.005335 3.0721,-2.602668 1.3084,-0.597334 2.8017,-0.896001 4.48,-0.896001 2.5031,0 4.4942,0.682667 5.9733,2.048002 1.5075,1.336889 2.2613,3.128891 2.2613,5.376004 0,0.853334 -0.1707,1.664001 -0.512,2.432001 -0.3129,0.739557 -0.7395,1.408002 -1.28,2.005335 -0.5404,0.568889 -1.1235,1.066668 -1.7493,1.493335 v 0.170667 c 0.8533,0.455111 1.6356,1.009778 2.3467,1.664001 0.7111,0.625778 1.2799,1.393778 1.7066,2.304001 0.4267,0.881779 0.64,1.920002 0.64,3.114669 0,1.422223 -0.3982,2.702224 -1.1946,3.840003 -0.7965,1.109335 -1.92,2.005335 -3.3707,2.688002 -1.4222,0.654223 -3.1004,0.981334 -5.0347,0.981334 z m 1.7067,-16.298678 c 0.5405,-0.625779 0.9529,-1.265779 1.2373,-1.920002 0.2845,-0.654223 0.4267,-1.33689 0.4267,-2.048001 0,-0.711112 -0.128,-1.322668 -0.384,-1.834668 -0.256,-0.512001 -0.64,-0.910223 -1.152,-1.194668 -0.4835,-0.312889 -1.0666,-0.469334 -1.7493,-0.469334 -0.8249,0 -1.5361,0.270223 -2.1334,0.810668 -0.5973,0.512 -0.896,1.28 -0.896,2.304001 0,0.739556 0.1991,1.365334 0.5974,1.877335 0.3982,0.512001 0.9386,0.967112 1.6213,1.365334 0.7111,0.398223 1.5218,0.768001 2.432,1.109335 z m -1.5787,11.946675 c 0.6827,0 1.2942,-0.113778 1.8347,-0.341333 0.5689,-0.256001 1.0098,-0.625779 1.3227,-1.109335 0.3129,-0.512 0.4693,-1.152 0.4693,-1.920001 0,-0.796445 -0.2418,-1.450668 -0.7253,-1.962668 -0.4551,-0.540445 -1.1236,-1.009778 -2.0054,-1.408001 -0.8533,-0.426667 -1.8489,-0.881779 -2.9866,-1.365335 -0.5973,0.540445 -1.0951,1.194668 -1.4934,1.962669 -0.3982,0.739556 -0.5973,1.521779 -0.5973,2.346668 0,0.796445 0.1849,1.479113 0.5547,2.048002 0.3982,0.568889 0.9102,1.009778 1.536,1.322667 0.6542,0.284445 1.3511,0.426667 2.0906,0.426667 z m -47.1253,-49.493371 v -27.818687 h 6.9973 l 4.4373,12.373342 c 0.2845,0.824889 0.5405,1.664001 0.768,2.517335 0.2561,0.82489 0.5121,1.692446 0.768,2.602669 h 0.1707 c 0.256,-0.910223 0.4978,-1.777779 0.7253,-2.602669 0.2276,-0.853334 0.4836,-1.692446 0.768,-2.517335 l 4.352,-12.373342 h 6.9974 v 27.818687 h -5.76 v -10.197341 c 0,-0.910223 0.043,-1.97689 0.128,-3.200002 0.1137,-1.251557 0.2275,-2.488891 0.3413,-3.712003 0.1422,-1.251557 0.2702,-2.332446 0.384,-3.242669 h -0.1707 l -2.2613,7.338672 -3.9253,10.624008 h -3.6694 l -3.8826,-10.624008 -2.176,-7.338672 h -0.1707 c 0.1138,0.910223 0.2276,1.991112 0.3413,3.242669 0.1423,1.223112 0.2561,2.460446 0.3414,3.712003 0.085,1.223112 0.128,2.289779 0.128,3.200002 v 10.197341 z m 30.7626,0 v -3.797336 l 12.288,-18.730681 h -11.136 v -5.29067 h 18.8587 v 3.797336 l -12.288,18.73068 h 12.416 v 5.290671 z m 757.9813,217.85303 v -8.736 c 5.12,-4.544 9.664,-8.8 13.632,-12.768 4.032,-3.968 7.168,-7.648 9.408,-11.04 2.304,-3.392 3.456,-6.496 3.456,-9.312 0,-3.008 -0.768,-5.28 -2.304,-6.816 -1.536,-1.6 -3.648,-2.4 -6.336,-2.4 -2.176,0 -4.16,0.64 -5.952,1.92 -1.728,1.216 -3.36,2.656 -4.896,4.32 l -7.392,-7.296 c 2.944,-3.328 5.952,-5.824 9.024,-7.488 3.136,-1.664 6.848,-2.496 11.136,-2.496 3.968,0 7.456,0.8 10.464,2.4 3.072,1.6 5.44,3.84 7.104,6.72 1.728,2.88 2.592,6.272 2.592,10.176 0,3.648 -0.992,7.232 -2.976,10.752 -1.92,3.456 -4.48,6.912 -7.68,10.368 -3.2,3.456 -6.592,6.976 -10.176,10.56 1.536,-0.192 3.264,-0.352 5.184,-0.48 1.92,-0.192 3.584,-0.288 4.992,-0.288 h 13.632 v 11.904 z m 72.47999,1.152 c -6.528,0 -11.808,-2.72 -15.84,-8.16 -3.968,-5.44 -5.952,-13.344 -5.952,-23.712 0,-10.432 1.984,-18.272 5.952,-23.52 4.032,-5.248 9.312,-7.872 15.84,-7.872 6.528,0 11.776,2.656 15.744,7.968 4.032,5.248 6.048,13.056 6.048,23.424 0,10.368 -2.016,18.272 -6.048,23.712 -3.968,5.44 -9.216,8.16 -15.744,8.16 z m 0,-10.944 c 1.6,0 3.04,-0.576 4.32,-1.728 1.28,-1.216 2.272,-3.328 2.976,-6.336 0.768,-3.072 1.152,-7.36 1.152,-12.864 0,-5.568 -0.384,-9.824 -1.152,-12.768 -0.704,-2.944 -1.696,-4.96 -2.976,-6.048 -1.28,-1.088 -2.72,-1.632 -4.32,-1.632 -1.6,0 -3.04,0.544 -4.32,1.632 -1.28,1.088 -2.304,3.104 -3.072,6.048 -0.704,2.944 -1.056,7.2 -1.056,12.768 0,5.504 0.352,9.792 1.056,12.864 0.768,3.008 1.792,5.12 3.072,6.336 1.28,1.152 2.72,1.728 4.32,1.728 z m 47.32798,10.944 c -4.032,0 -7.52,-0.736 -10.464,-2.208 -2.944,-1.472 -5.408,-3.168 -7.392,-5.088 l 7.488,-8.448 c 1.024,1.152 2.4,2.176 4.128,3.072 1.792,0.832 3.552,1.248 5.28,1.248 2.432,0 4.576,-0.672 6.432,-2.016 1.92,-1.344 3.424,-3.584 4.512,-6.72 1.152,-3.2 1.728,-7.488 1.728,-12.864 0,-5.056 -0.48,-8.992 -1.44,-11.808 -0.896,-2.88 -2.112,-4.896 -3.648,-6.048 -1.472,-1.216 -3.072,-1.824 -4.8,-1.824 -1.344,0 -2.624,0.352 -3.84,1.056 -1.152,0.704 -2.08,1.76 -2.784,3.168 -0.704,1.408 -1.056,3.296 -1.056,5.664 0,2.112 0.352,3.84 1.056,5.184 0.704,1.28 1.664,2.208 2.88,2.784 1.216,0.576 2.592,0.864 4.128,0.864 1.6,0 3.232,-0.48 4.896,-1.44 1.664,-1.024 3.168,-2.72 4.512,-5.088 l 0.672,9.216 c -1.536,2.24 -3.552,4.032 -6.048,5.376 -2.496,1.28 -4.768,1.92 -6.816,1.92 -3.456,0 -6.56,-0.672 -9.312,-2.016 -2.752,-1.344 -4.928,-3.392 -6.528,-6.144 -1.536,-2.816 -2.304,-6.368 -2.304,-10.656 0,-4.224 0.928,-7.872 2.784,-10.944 1.856,-3.072 4.32,-5.408 7.392,-7.008 3.072,-1.664 6.432,-2.496 10.08,-2.496 3.008,0 5.888,0.576 8.64,1.728 2.752,1.152 5.184,2.944 7.296,5.376 2.176,2.432 3.904,5.568 5.184,9.408 1.344,3.776 2.016,8.352 2.016,13.728 0,5.696 -0.704,10.624 -2.112,14.784 -1.344,4.16 -3.168,7.584 -5.472,10.272 -2.304,2.688 -4.928,4.704 -7.872,6.048 -2.944,1.28 -6.016,1.92 -9.216,1.92 z M -689.2457,33.53394 v -62.592 h 15.744 l 9.984,27.8399997 c 0.64,1.856 1.216,3.744 1.728,5.664 0.576,1.856 1.152,3.8080001 1.728,5.8560003 h 0.384 c 0.576,-2.0480002 1.12,-4.0000003 1.632,-5.8560003 0.512,-1.92 1.088,-3.808 1.728,-5.664 l 9.792,-27.8399997 h 15.744 v 62.592 h -12.96 v -22.944 c 0,-2.0480002 0.096,-4.4480003 0.288,-7.2000003 0.256,-2.81599997 0.512,-5.6 0.768,-8.352 0.32,-2.816 0.608,-5.2479997 0.864,-7.2959997 h -0.384 l -5.088,16.5119997 -8.832,23.9040003 h -8.256 l -8.736,-23.9040003 -4.896,-16.5119997 h -0.384 c 0.256,2.048 0.512,4.4799997 0.768,7.2959997 0.32,2.752 0.576,5.53600003 0.768,8.352 0.192,2.752 0.288,5.1520001 0.288,7.2000003 v 22.944 z m 69.21592,0 v -8.544 l 27.648,-42.144 h -25.056 v -11.904 h 42.432 v 8.544 l -27.648,42.144 h 27.936 v 11.904 z m 491.93909,-823.07026 v -17.472 c 10.24,-9.088 19.328,-17.6 27.264,-25.536 8.064,-7.936 14.336,-15.296 18.816,-22.08 4.608,-6.784 6.912,-12.992 6.912,-18.624 0,-6.016 -1.536,-10.56 -4.608,-13.632 -3.072,-3.2 -7.296,-4.8 -12.672,-4.8 -4.352,0 -8.32,1.28 -11.904,3.84 -3.456,2.432 -6.72,5.312 -9.792,8.64 l -14.784,-14.592 c 5.888,-6.656 11.904,-11.648 18.048,-14.976 6.272,-3.328 13.696,-4.992 22.272,-4.992 7.936,0 14.912,1.6 20.928,4.8 6.144,3.2 10.88,7.68 14.208,13.44 3.456,5.76 5.184,12.544 5.184,20.352 0,7.296 -1.984,14.464 -5.952,21.504 -3.84,6.912 -8.96,13.824 -15.36,20.736 -6.4,6.912 -13.184,13.952 -20.352,21.12 3.072,-0.384 6.528,-0.704 10.368,-0.96 3.84,-0.384 7.168,-0.576 9.984,-0.576 h 27.264 v 23.808 z m 144.95998,2.304 c -13.056,0 -23.616,-5.44 -31.68,-16.32 -7.936,-10.88 -11.904,-26.688 -11.904,-47.424 0,-20.864 3.968,-36.544 11.904,-47.04 8.064,-10.496 18.624,-15.744 31.68,-15.744 13.056,0 23.552,5.312 31.488,15.936 8.064,10.496 12.096,26.112 12.096,46.848 0,20.736 -4.032,36.544 -12.096,47.424 -7.936,10.88 -18.432,16.32 -31.488,16.32 z m 0,-21.888 c 3.2,0 6.08,-1.152 8.64,-3.456 2.56,-2.432 4.544,-6.656 5.952,-12.672 1.536,-6.144 2.304,-14.72 2.304,-25.728 0,-11.136 -0.768,-19.648 -2.304,-25.536 -1.408,-5.888 -3.392,-9.92 -5.952,-12.096 -2.56,-2.176 -5.44,-3.264 -8.64,-3.264 -3.2,0 -6.08,1.088 -8.64,3.264 -2.56,2.176 -4.608,6.208 -6.144,12.096 -1.408,5.888 -2.112,14.4 -2.112,25.536 0,11.008 0.704,19.584 2.112,25.728 1.536,6.016 3.584,10.24 6.144,12.672 2.56,2.304 5.44,3.456 8.64,3.456 z m 64.12798,19.584 v -22.848 h 26.496 v -70.464 h -22.848 v -17.472 c 6.656,-1.28 12.288,-2.816 16.896,-4.608 4.736,-1.792 9.216,-3.968 13.44,-6.528 h 20.736 v 99.072 h 22.848 v 22.848 z M -93.43467,-1029.5363 v -125.184 h 31.488 l 19.968,55.68 c 1.28,3.712 2.432,7.488 3.456,11.328 1.152,3.712 2.304,7.616 3.456,11.712 h 0.768 c 1.152,-4.096 2.24,-8 3.264,-11.712 1.024,-3.84 2.176,-7.616 3.456,-11.328 l 19.584,-55.68 h 31.488 v 125.184 h -25.92 v -45.888 c 0,-4.096 0.192,-8.896 0.576,-14.4 0.512,-5.632 1.024,-11.2 1.536,-16.704 0.64,-5.632 1.216,-10.496 1.728,-14.592 h -0.768 l -10.176,33.024 -17.664,47.808 h -16.512 l -17.472,-47.808 -9.792,-33.024 h -0.768 c 0.512,4.096 1.024,8.96 1.536,14.592 0.64,5.504 1.152,11.072 1.536,16.704 0.384,5.504 0.576,10.304 0.576,14.4 v 45.888 z m 138.43183,0 v -17.088 l 55.296,-84.288 h -50.112 v -23.808 h 84.864 v 17.088 l -55.296,84.288 h 55.872 v 23.808 z m -1484.04946,239.99998 v -17.472 c 10.24,-9.088 19.328,-17.6 27.264,-25.536 8.064,-7.936 14.336,-15.296 18.816,-22.08 4.608,-6.784 6.912,-12.992 6.912,-18.624 0,-6.016 -1.536,-10.56 -4.608,-13.632 -3.072,-3.2 -7.296,-4.8 -12.672,-4.8 -4.352,0 -8.32,1.28 -11.904,3.84 -3.456,2.432 -6.72,5.312 -9.792,8.64 l -14.784,-14.592 c 5.888,-6.656 11.904,-11.648 18.048,-14.976 6.272,-3.328 13.696,-4.992 22.272,-4.992 7.936,0 14.912,1.6 20.928,4.8 6.144,3.2 10.88,7.68 14.208,13.44 3.456,5.76 5.184,12.544 5.184,20.352 0,7.296 -1.984,14.464 -5.952,21.504 -3.84,6.912 -8.96,13.824 -15.36,20.736 -6.4,6.912 -13.184,13.952 -20.352,21.12 3.072,-0.384 6.528,-0.704 10.368,-0.96 3.84,-0.384 7.168,-0.576 9.984,-0.576 h 27.264 v 23.808 z m 144.96,2.304 c -13.056,0 -23.616,-5.44 -31.68,-16.32 -7.936,-10.88 -11.904,-26.688 -11.904,-47.424 0,-20.864 3.968,-36.544 11.904,-47.04 8.064,-10.496 18.624,-15.744 31.68,-15.744 13.056,0 23.552,5.312 31.488,15.936 8.064,10.496 12.096,26.112 12.096,46.848 0,20.736 -4.032,36.544 -12.096,47.424 -7.936,10.88 -18.432,16.32 -31.488,16.32 z m 0,-21.888 c 3.2,0 6.08,-1.152 8.64,-3.456 2.56,-2.432 4.544,-6.656 5.952,-12.672 1.536,-6.144 2.304,-14.72 2.304,-25.728 0,-11.136 -0.768,-19.648 -2.304,-25.536 -1.408,-5.888 -3.392,-9.92 -5.952,-12.096 -2.56,-2.176 -5.44,-3.264 -8.64,-3.264 -3.2,0 -6.08,1.088 -8.64,3.264 -2.56,2.176 -4.608,6.208 -6.144,12.096 -1.408,5.888 -2.112,14.4 -2.112,25.536 0,11.008 0.704,19.584 2.112,25.728 1.536,6.016 3.584,10.24 6.144,12.672 2.56,2.304 5.44,3.456 8.64,3.456 z m 104.64,21.888 c -5.888,0 -11.584,-1.152 -17.088,-3.456 -5.504,-2.304 -10.432,-5.888 -14.784,-10.752 -4.352,-4.864 -7.808,-11.072 -10.368,-18.624 -2.56,-7.68 -3.84,-16.896 -3.84,-27.648 0,-11.392 1.344,-21.248 4.032,-29.568 2.688,-8.32 6.336,-15.168 10.944,-20.544 4.608,-5.376 9.856,-9.344 15.744,-11.904 5.888,-2.688 12.096,-4.032 18.624,-4.032 8.064,0 15.04,1.472 20.928,4.416 5.888,2.816 10.752,6.208 14.592,10.176 l -14.784,16.896 c -2.176,-2.304 -4.992,-4.288 -8.448,-5.952 -3.456,-1.792 -6.976,-2.688 -10.56,-2.688 -4.608,0 -8.896,1.344 -12.864,4.032 -3.84,2.688 -6.912,7.232 -9.216,13.632 -2.176,6.272 -3.264,14.784 -3.264,25.536 0,10.112 0.896,18.048 2.688,23.808 1.92,5.632 4.416,9.664 7.488,12.096 3.072,2.304 6.272,3.456 9.6,3.456 2.816,0 5.376,-0.704 7.68,-2.112 2.304,-1.408 4.16,-3.52 5.568,-6.336 1.408,-2.944 2.112,-6.72 2.112,-11.328 0,-4.352 -0.704,-7.808 -2.112,-10.368 -1.408,-2.56 -3.328,-4.416 -5.76,-5.568 -2.304,-1.152 -4.992,-1.728 -8.064,-1.728 -3.2,0 -6.528,0.96 -9.984,2.88 -3.328,1.92 -6.336,5.312 -9.024,10.176 l -1.344,-18.432 c 3.2,-4.736 7.296,-8.32 12.288,-10.752 4.992,-2.56 9.472,-3.84 13.44,-3.84 6.912,0 13.12,1.344 18.624,4.032 5.504,2.688 9.792,6.848 12.864,12.48 3.2,5.504 4.8,12.544 4.8,21.12 0,8.448 -1.856,15.744 -5.568,21.888 -3.584,6.144 -8.448,10.88 -14.592,14.208 -6.144,3.2 -12.928,4.8 -20.352,4.8 z m -214.944,-242.30398 v -125.184 h 31.488 l 19.968,55.68 c 1.28,3.712 2.432,7.488 3.456,11.328 1.152,3.712 2.304,7.616 3.456,11.712 h 0.768 c 1.152,-4.096 2.24,-8 3.264,-11.712 1.024,-3.84 2.176,-7.616 3.456,-11.328 l 19.584,-55.68 h 31.488 v 125.184 h -25.92 v -45.888 c 0,-4.096 0.192,-8.896 0.576,-14.4 0.512,-5.632 1.024,-11.2 1.536,-16.704 0.64,-5.632 1.216,-10.496 1.728,-14.592 h -0.768 l -10.176,33.024 -17.664,47.808 h -16.512 l -17.472,-47.808 -9.792,-33.024 h -0.768 c 0.512,4.096 1.024,8.96 1.536,14.592 0.64,5.504 1.152,11.072 1.536,16.704 0.384,5.504 0.576,10.304 0.576,14.4 v 45.888 z m 138.4319,0 v -17.088 l 55.296,-84.288 h -50.112 v -23.808 h 84.864 v 17.088 l -55.296,84.288 h 55.872 v 23.808 z" style="font-size:96px;font-family:'Source Sans 3';-inkscape-font-specification:'Source Sans 3, @wght=700';font-variation-settings:'wght' 700;text-align:center;white-space:pre;display:inline;fill:#bec3c6;stroke-width:55" transform="matrix(0.02479171,0,0,0.02479171,40.078326,253.75886)"/>
  </g>
</svg>
