<svg width="4000" height="3000" viewBox="0 0 4000 3000" version="1.1" id="svg1" xml:space="preserve" xmlns="http://www.w3.org/2000/svg">
  <g id="floor_3" transform="matrix(40.336064,0,0,40.336064,891.50626,-8776.2608)" style="display:inline;opacity:1">
    <g id="g335" style="display:inline" transform="matrix(0.02479171,0,0,0.02479171,-22.101965,234.93271)">
      <path style="font-variation-settings:'wdth' 70,'wght' 600;display:inline;opacity:1;fill:#c8c1b1;fill-opacity:1;stroke:none;stroke-width:45;stroke-dasharray:none;stroke-opacity:1" d="m 938.73383,1107.0801 h 863.35297 l 10e-5,384.3907 h 1623.8454 l -2e-4,-2163.19236 544.0073,2e-5 V 2216.2086 H 938.73383 Z" id="path330"/>
      <rect style="font-variation-settings:'wdth' 70,'wght' 600;display:inline;opacity:1;fill:#504c49;fill-opacity:1;stroke:none;stroke-width:15.6426;stroke-dasharray:none;stroke-opacity:1" id="rect331" width="1623.8453" height="384.39072" x="1802.0868" y="1107.0801"/>
      <path style="font-variation-settings:'wdth' 70,'wght' 600;opacity:1;fill:none;fill-opacity:1;stroke:#fafcfa;stroke-width:55;stroke-dasharray:none;stroke-opacity:1" d="M 939.26416,1084.4527 V 2216.2086 H 3969.9394 V -666.72154 H 3411.7902 V 1084.4527 Z" id="path331"/>
      <path style="font-variation-settings:'wdth' 70,'wght' 600;opacity:1;fill:none;fill-opacity:1;stroke:#fafcfa;stroke-width:55;stroke-dasharray:none;stroke-opacity:1" d="m 1802.0868,1093.0801 10e-5,398.3907 1618.757,0.062 v -398.3907" id="path332"/>
      <rect style="font-variation-settings:'wdth' 70,'wght' 600;opacity:1;fill:#d7d7d6;fill-opacity:1;stroke:none;stroke-width:53.8442;stroke-dasharray:none;stroke-opacity:1" id="rect332" width="298" height="222" x="1193.4858" y="1491.4708"/>
      <rect style="font-variation-settings:'wdth' 70,'wght' 600;opacity:1;fill:#d7d7d6;fill-opacity:1;stroke:none;stroke-width:53.8442;stroke-dasharray:none;stroke-opacity:1" id="rect333" width="298" height="222" x="2105.4858" y="1809.4708"/>
      <rect style="font-variation-settings:'wdth' 70,'wght' 600;opacity:1;fill:#d7d7d6;fill-opacity:1;stroke:none;stroke-width:53.8442;stroke-dasharray:none;stroke-opacity:1" id="rect335" width="298" height="222" x="3219.8862" y="1710.4758"/>
    </g>
    <path style="font-variation-settings:'wdth' 70,'wght' 600;display:inline;fill:#4c5a5f;fill-opacity:.998172;stroke:none;stroke-width:.487874" d="M 9.9715434,230.51084 H 46.940973 l 2e-6,-12.23126 h 15.832148 l 2e-6,8.65306 H 51.558478 l -3e-6,9.91794 h 11.27428 l -2e-6,11.40256 H 12.897002 l -1e-6,-0.56043 H 9.9715434 Z" id="path24"/>
    <g id="rooms_3" style="display:inline;opacity:1" transform="matrix(0.02439371,0,0,0.02439371,-0.02443957,255.98706)">
      <rect style="font-variation-settings:'wdth' 70,'wght' 600;display:inline;opacity:1;fill:#454c7f;fill-opacity:1;stroke-width:347.642;stroke-dasharray:none" id="MZ301" width="308.44778" height="501.4104" x="1599.075" y="-1545.787"/>
      <rect style="font-variation-settings:'wdth' 70,'wght' 600;display:inline;opacity:1;fill:#454c7f;fill-opacity:1;stroke-width:341.066;stroke-dasharray:none" id="MZ302" width="296.88708" height="501.4104" x="1302.1879" y="-1545.787" transform="translate(-4.004637e-6,-3.5908303e-5)"/>
      <rect style="font-variation-settings:'wdth' 70,'wght' 600;display:inline;opacity:1;fill:#454c7f;fill-opacity:1;stroke-width:341.066;stroke-dasharray:none" id="MZ303" width="296.88708" height="501.4104" x="1005.3008" y="-1545.787" transform="translate(-4.004637e-6,-3.5908303e-5)"/>
      <rect style="font-variation-settings:'wdth' 70,'wght' 600;display:inline;opacity:1;fill:#454c7f;fill-opacity:1;stroke-width:341.066;stroke-dasharray:none" id="MZ304" width="296.88708" height="501.4104" x="708.4137" y="-1545.787" transform="translate(-4.004637e-6,-3.5908303e-5)"/>
      <rect style="font-variation-settings:'wdth' 70,'wght' 600;display:inline;opacity:1;fill:#454c7f;fill-opacity:1;stroke-width:331.725;stroke-dasharray:none" id="MZ305" width="280.84839" height="501.4104" x="427.56531" y="-1545.787" transform="translate(-4.004637e-6,-3.5908303e-5)"/>
      <path style="font-variation-settings:'wdth' 70,'wght' 600;display:inline;opacity:1;fill:#454c7f;fill-opacity:1;stroke-width:10.1632" d="m 49.00002,-1545.7869 h 360.7771 l -5e-5,1320.9162 H 218.83199 v 154.94459 l -169.83197,2.4e-5 z" id="MZ306" transform="translate(-4.004637e-6,-3.5908303e-5)"/>
      <rect style="font-variation-settings:'wdth' 70,'wght' 600;display:inline;opacity:1;fill:#454c7f;fill-opacity:1;stroke-width:451.754;stroke-dasharray:none" id="MZ308" width="450.99219" height="579.08276" x="745.40247" y="-317.04562"/>
      <rect style="font-variation-settings:'wdth' 70,'wght' 600;display:inline;opacity:1;fill:#454c7f;fill-opacity:1;stroke-width:441.065;stroke-dasharray:none" id="MZ309" width="429.90149" height="579.08282" x="1196.3947" y="-317.04572"/>
      <rect style="font-variation-settings:'wdth' 70,'wght' 600;display:inline;opacity:1;fill:#454c7f;fill-opacity:1;stroke-width:369.214;stroke-dasharray:none" id="MZ310" width="301.24606" height="579.08282" x="1626.2961" y="-317.04568" transform="translate(-4.004637e-6,-3.5908303e-5)"/>
      <rect style="font-variation-settings:'wdth' 70,'wght' 600;display:inline;opacity:1;fill:#454c7f;fill-opacity:1;stroke-width:366.531;stroke-dasharray:none" id="MZ311" width="296.88306" height="579.08282" x="1927.5422" y="-317.04568" transform="translate(-4.004637e-6,-3.5908303e-5)"/>
      <rect style="font-variation-settings:'wdth' 70,'wght' 600;display:inline;opacity:1;fill:#454c7f;fill-opacity:1;stroke-width:333.62;stroke-dasharray:none" id="MZ314" width="393.10208" height="362.33185" x="1330.0403" y="-865.13837" transform="translate(-4.004637e-6,-3.5908303e-5)"/>
      <rect style="font-variation-settings:'wdth' 70,'wght' 600;display:inline;opacity:1;fill:#454c7f;fill-opacity:1;stroke-width:460.474;stroke-dasharray:none" id="MZ315" width="748.87756" height="362.33185" x="581.16266" y="-865.13837" transform="translate(-4.004637e-6,-3.5908303e-5)"/>
      <rect style="font-variation-settings:'wdth' 70,'wght' 600;display:inline;opacity:1;fill:#1b2022;fill-opacity:1;stroke:none;stroke-width:13.4843;stroke-linecap:butt;stroke-linejoin:miter;stroke-dasharray:none;stroke-opacity:1" id="lift_3" width="267.25259" height="406.57764" x="2307.0818" y="-1191.0619"/>
      <rect style="font-variation-settings:'wdth' 70,'wght' 600;display:inline;fill:#454c7f;fill-opacity:1;stroke-width:103.88;stroke-dasharray:none" id="MZ307" width="119.92672" height="115.14915" x="409.77707" y="-340.01984"/>
      <rect style="font-variation-settings:'wdth' 70,'wght' 600;display:inline;opacity:1;fill:#454c7f;fill-opacity:1;stroke-width:255.861;stroke-dasharray:none" id="MZ312" width="144.66939" height="579.08282" x="2259.9971" y="-317.04565"/>
      <rect style="font-variation-settings:'wdth' 70,'wght' 600;display:inline;opacity:1;fill:#454c7f;fill-opacity:1;stroke-width:255.861;stroke-dasharray:none" id="MZ313" width="144.66936" height="579.08282" x="2414.5779" y="-317.04565"/>
    </g>
    <g id="g167" transform="matrix(-0.02439371,0,0,-0.02439371,88.912644,269.70859)" style="display:inline">
      <rect style="font-variation-settings:'wdth' 70,'wght' 600;display:inline;fill:#373e43;fill-opacity:1;stroke-width:5.62179;stroke-dasharray:none" id="rect95" width="132.12082" height="29.178997" x="-614.64343" y="3098.4128" transform="rotate(90,2796.5756,3721.219)"/>
      <rect style="font-variation-settings:'wdth' 70,'wght' 600;display:inline;fill:#3a4146;fill-opacity:1;stroke-width:5.62179;stroke-dasharray:none" id="rect96" width="132.12082" height="29.178997" x="-614.64343" y="3127.5918" transform="rotate(90,2796.5757,3721.2189)"/>
      <rect style="font-variation-settings:'wdth' 70,'wght' 600;display:inline;fill:#3c4449;fill-opacity:1;stroke-width:5.62179;stroke-dasharray:none" id="rect97" width="132.12082" height="29.178997" x="-614.64343" y="3156.7708" transform="rotate(90,2796.5757,3721.2189)"/>
      <rect style="font-variation-settings:'wdth' 70,'wght' 600;display:inline;fill:#3e474c;fill-opacity:1;stroke-width:5.62179;stroke-dasharray:none" id="rect98" width="132.12082" height="29.178997" x="-614.64343" y="3185.9497" transform="rotate(90,2796.5757,3721.2189)"/>
      <rect style="font-variation-settings:'wdth' 70,'wght' 600;display:inline;fill:#404a4f;fill-opacity:1;stroke-width:5.62179;stroke-dasharray:none" id="rect99" width="132.12082" height="29.178997" x="-614.64343" y="3215.1287" transform="rotate(90,2796.5757,3721.2189)"/>
      <rect style="font-variation-settings:'wdth' 70,'wght' 600;display:inline;fill:#424d52;fill-opacity:1;stroke-width:5.62179;stroke-dasharray:none" id="rect100" width="132.12082" height="29.178997" x="-614.64343" y="3244.3076" transform="rotate(90,2796.5757,3721.2189)"/>
      <rect style="font-variation-settings:'wdth' 70,'wght' 600;display:inline;fill:#445055;fill-opacity:1;stroke-width:5.62179;stroke-dasharray:none" id="rect101" width="132.12082" height="29.178997" x="-614.64343" y="3273.4868" transform="rotate(90,2796.5757,3721.2189)"/>
      <rect style="font-variation-settings:'wdth' 70,'wght' 600;display:inline;fill:#465358;fill-opacity:1;stroke-width:5.62179;stroke-dasharray:none" id="rect102" width="132.12082" height="29.178997" x="-614.64343" y="3302.6658" transform="rotate(90,2796.5757,3721.2189)"/>
      <rect style="font-variation-settings:'wdth' 70,'wght' 600;display:inline;fill:#48565b;fill-opacity:1;stroke-width:5.62179;stroke-dasharray:none" id="rect103" width="132.12082" height="29.178997" x="-614.64343" y="3331.8447" transform="rotate(90,2796.5757,3721.2189)"/>
      <rect style="font-variation-settings:'wdth' 70,'wght' 600;display:inline;fill:#4b595e;fill-opacity:1;stroke-width:5.62179;stroke-dasharray:none" id="rect104" width="132.12082" height="29.178997" x="-614.64343" y="3361.0237" transform="rotate(90,2796.5757,3721.2189)"/>
      <rect style="font-variation-settings:'wdth' 70,'wght' 600;display:inline;fill:#4c5a5f;fill-opacity:1;stroke-width:5.62179;stroke-dasharray:none" id="rect105" width="132.12082" height="29.178997" x="-614.64343" y="3390.2029" transform="rotate(90,2796.5757,3721.219)"/>
      <rect style="font-variation-settings:'wdth' 70,'wght' 600;display:inline;fill:#373e43;fill-opacity:1;stroke-width:5.62179;stroke-dasharray:none" id="rect122" width="132.12082" height="29.178997" x="-445.15152" y="3390.2029" transform="rotate(90,2793.2864,3724.5083)"/>
      <rect style="font-variation-settings:'wdth' 70,'wght' 600;display:inline;fill:#373e43;fill-opacity:1;stroke-width:5.62179;stroke-dasharray:none" id="rect123" width="132.12082" height="29.178997" x="-445.15152" y="3361.0237" transform="rotate(90,2793.2864,3724.5083)"/>
      <rect style="font-variation-settings:'wdth' 70,'wght' 600;display:inline;fill:#373e43;fill-opacity:1;stroke-width:5.62179;stroke-dasharray:none" id="rect124" width="132.12082" height="29.178997" x="-445.15152" y="3331.8447" transform="rotate(90,2793.2864,3724.5083)"/>
      <rect style="font-variation-settings:'wdth' 70,'wght' 600;display:inline;fill:#373e43;fill-opacity:1;stroke-width:5.62179;stroke-dasharray:none" id="rect125" width="132.12082" height="29.178997" x="-445.15152" y="3302.6658" transform="rotate(90,2793.2864,3724.5083)"/>
      <rect style="font-variation-settings:'wdth' 70,'wght' 600;display:inline;fill:#373e43;fill-opacity:1;stroke-width:5.62179;stroke-dasharray:none" id="rect126" width="132.12082" height="29.178997" x="-445.15152" y="3273.4868" transform="rotate(90,2793.2864,3724.5083)"/>
      <rect style="font-variation-settings:'wdth' 70,'wght' 600;display:inline;fill:#373e43;fill-opacity:1;stroke-width:5.62179;stroke-dasharray:none" id="rect127" width="132.12082" height="29.178997" x="-445.15152" y="3244.3076" transform="rotate(90,2793.2864,3724.5083)"/>
      <rect style="font-variation-settings:'wdth' 70,'wght' 600;display:inline;fill:#373e43;fill-opacity:1;stroke-width:5.62179;stroke-dasharray:none" id="rect128" width="132.12082" height="29.178997" x="-445.15152" y="3215.1287" transform="rotate(90,2793.2864,3724.5083)"/>
      <rect style="font-variation-settings:'wdth' 70,'wght' 600;display:inline;fill:#373e43;fill-opacity:1;stroke-width:5.62179;stroke-dasharray:none" id="rect129" width="132.12082" height="29.178997" x="-445.15152" y="3185.9497" transform="rotate(90,2793.2864,3724.5083)"/>
      <rect style="font-variation-settings:'wdth' 70,'wght' 600;display:inline;fill:#373e43;fill-opacity:1;stroke-width:5.62179;stroke-dasharray:none" id="rect130" width="132.12082" height="29.178997" x="-445.15152" y="3156.7708" transform="rotate(90,2793.2864,3724.5083)"/>
      <rect style="font-variation-settings:'wdth' 70,'wght' 600;display:inline;fill:#373e43;fill-opacity:1;stroke-width:5.62179;stroke-dasharray:none" id="rect131" width="132.12082" height="29.178997" x="-445.15152" y="3127.5918" transform="rotate(90,2793.2864,3724.5083)"/>
      <rect style="font-variation-settings:'wdth' 70,'wght' 600;display:inline;fill:#373e43;fill-opacity:1;stroke-width:5.62179;stroke-dasharray:none" id="rect132" width="132.12082" height="29.178997" x="-445.15152" y="3098.4128" transform="rotate(90,2793.2864,3724.5083)"/>
      <rect style="font-variation-settings:'wdth' 70,'wght' 600;display:inline;fill:#373e43;fill-opacity:1;stroke-width:19.7685;stroke-dasharray:none" id="rect133" width="298.42651" height="159.73758" x="-614.64343" y="3419.3818" transform="rotate(-90)"/>
      <path style="font-variation-settings:'wdth' 70,'wght' 600;display:inline;opacity:1;fill:#4c5a5f;fill-opacity:1;stroke:none;stroke-width:18.362;stroke-dasharray:none;stroke-opacity:1" d="m 3098.4128,879.54842 h -180.1224 l -10e-5,-581.11542 h 180.1225 z" id="path110" transform="translate(-4.1879101e-5,4.836622e-5)"/>
      <path style="font-variation-settings:'wdth' 70,'wght' 600;display:inline;fill:none;stroke:#bec3c6;stroke-width:15.2447;stroke-linecap:butt;stroke-dasharray:none;stroke-opacity:1" d="M 3106.034,490.14493 V 614.6434" id="path312"/>
      <rect style="font-variation-settings:'wdth' 70,'wght' 600;display:inline;fill:#0a0d0d;fill-opacity:1;stroke-width:1.04919;stroke-dasharray:none" id="rect608" width="132.12082" height="1.0163157" x="309.99988" y="-3099.4292" transform="rotate(90)"/>
      <rect style="font-variation-settings:'wdth' 70,'wght' 600;display:inline;fill:#0a0d0d;fill-opacity:1;stroke-width:1.04919;stroke-dasharray:none" id="rect609" width="132.12082" height="1.0163157" x="309.99988" y="-3128.6084" transform="rotate(90)"/>
      <rect style="font-variation-settings:'wdth' 70,'wght' 600;display:inline;fill:#0a0d0d;fill-opacity:1;stroke-width:1.04919;stroke-dasharray:none" id="rect610" width="132.12082" height="1.0163157" x="309.99988" y="-3157.7874" transform="rotate(90)"/>
      <rect style="font-variation-settings:'wdth' 70,'wght' 600;display:inline;fill:#0a0d0d;fill-opacity:1;stroke-width:1.04919;stroke-dasharray:none" id="rect611" width="132.12082" height="1.0163157" x="309.99988" y="-3186.9661" transform="rotate(90)"/>
      <rect style="font-variation-settings:'wdth' 70,'wght' 600;display:inline;fill:#0a0d0d;fill-opacity:1;stroke-width:1.04919;stroke-dasharray:none" id="rect612" width="132.12082" height="1.0163157" x="309.99988" y="-3216.145" transform="rotate(90)"/>
      <rect style="font-variation-settings:'wdth' 70,'wght' 600;display:inline;fill:#0a0d0d;fill-opacity:1;stroke-width:1.04919;stroke-dasharray:none" id="rect613" width="132.12082" height="1.0163157" x="309.99988" y="-3245.324" transform="rotate(90)"/>
      <rect style="font-variation-settings:'wdth' 70,'wght' 600;display:inline;fill:#0a0d0d;fill-opacity:1;stroke-width:1.04919;stroke-dasharray:none" id="rect614" width="132.12082" height="1.0163157" x="309.99988" y="-3274.5029" transform="rotate(90)"/>
      <rect style="font-variation-settings:'wdth' 70,'wght' 600;display:inline;fill:#0a0d0d;fill-opacity:1;stroke-width:1.04919;stroke-dasharray:none" id="rect615" width="132.12082" height="1.0163157" x="309.99988" y="-3303.6824" transform="rotate(90)"/>
      <rect style="font-variation-settings:'wdth' 70,'wght' 600;display:inline;fill:#0a0d0d;fill-opacity:1;stroke-width:1.04919;stroke-dasharray:none" id="rect616" width="132.12082" height="1.0163157" x="309.99988" y="-3332.8611" transform="rotate(90)"/>
      <rect style="font-variation-settings:'wdth' 70,'wght' 600;display:inline;fill:#0a0d0d;fill-opacity:1;stroke-width:1.04919;stroke-dasharray:none" id="rect617" width="132.12082" height="1.0163157" x="309.99988" y="-3362.04" transform="rotate(90)"/>
      <rect style="font-variation-settings:'wdth' 70,'wght' 600;display:inline;fill:#0a0d0d;fill-opacity:1;stroke-width:1.04919;stroke-dasharray:none" id="rect618" width="132.12082" height="1.0163157" x="309.99988" y="-3391.219" transform="rotate(90)"/>
      <rect style="font-variation-settings:'wdth' 70,'wght' 600;display:inline;fill:#0a0d0d;fill-opacity:1;stroke-width:1.04919;stroke-dasharray:none" id="rect619" width="132.12082" height="1.0163157" x="309.99988" y="-3420.3982" transform="rotate(90)"/>
      <rect style="font-variation-settings:'wdth' 70,'wght' 600;display:inline;fill:#0a0d0d;fill-opacity:1;stroke-width:1.04919;stroke-dasharray:none" id="rect620" width="132.12082" height="1.0163157" x="486.07037" y="-3419.3818" transform="rotate(90)"/>
      <rect style="font-variation-settings:'wdth' 70,'wght' 600;display:inline;fill:#0a0d0d;fill-opacity:1;stroke-width:1.04919;stroke-dasharray:none" id="rect621" width="132.12082" height="1.0163157" x="486.07037" y="-3390.2029" transform="rotate(90)"/>
      <rect style="font-variation-settings:'wdth' 70,'wght' 600;display:inline;fill:#0a0d0d;fill-opacity:1;stroke-width:1.04919;stroke-dasharray:none" id="rect622" width="132.12082" height="1.0163157" x="486.07037" y="-3361.0239" transform="rotate(90)"/>
      <rect style="font-variation-settings:'wdth' 70,'wght' 600;display:inline;fill:#0a0d0d;fill-opacity:1;stroke-width:1.04919;stroke-dasharray:none" id="rect623" width="132.12082" height="1.0163157" x="486.07037" y="-3331.845" transform="rotate(90)"/>
      <rect style="font-variation-settings:'wdth' 70,'wght' 600;display:inline;fill:#0a0d0d;fill-opacity:1;stroke-width:1.04919;stroke-dasharray:none" id="rect624" width="132.12082" height="1.0163157" x="486.07037" y="-3244.3079" transform="rotate(90)"/>
      <rect style="font-variation-settings:'wdth' 70,'wght' 600;display:inline;fill:#0a0d0d;fill-opacity:1;stroke-width:1.04919;stroke-dasharray:none" id="rect625" width="132.12082" height="1.0163157" x="486.07037" y="-3273.4871" transform="rotate(90)"/>
      <rect style="font-variation-settings:'wdth' 70,'wght' 600;display:inline;fill:#0a0d0d;fill-opacity:1;stroke-width:1.04919;stroke-dasharray:none" id="rect626" width="132.12082" height="1.0163157" x="486.07037" y="-3302.666" transform="rotate(90)"/>
      <rect style="font-variation-settings:'wdth' 70,'wght' 600;display:inline;fill:#0a0d0d;fill-opacity:1;stroke-width:1.04919;stroke-dasharray:none" id="rect627" width="132.12082" height="1.0163157" x="486.07037" y="-3185.9497" transform="rotate(90)"/>
      <rect style="font-variation-settings:'wdth' 70,'wght' 600;display:inline;fill:#0a0d0d;fill-opacity:1;stroke-width:1.04919;stroke-dasharray:none" id="rect628" width="132.12082" height="1.0163157" x="486.07037" y="-3215.1284" transform="rotate(90)"/>
      <rect style="font-variation-settings:'wdth' 70,'wght' 600;display:inline;fill:#0a0d0d;fill-opacity:1;stroke-width:1.04919;stroke-dasharray:none" id="rect629" width="132.12082" height="1.0163157" x="486.07037" y="-3156.771" transform="rotate(90)"/>
      <rect style="font-variation-settings:'wdth' 70,'wght' 600;display:inline;fill:#0a0d0d;fill-opacity:1;stroke-width:1.04919;stroke-dasharray:none" id="rect630" width="132.12082" height="1.0163157" x="486.07037" y="-3127.5918" transform="rotate(90)"/>
      <path style="font-variation-settings:'wdth' 70,'wght' 600;display:inline;opacity:1;fill:none;fill-opacity:1;stroke:#bec3c6;stroke-width:5.08158;stroke-dasharray:none;stroke-opacity:1;marker-end:url(#Triangle)" d="m 3142.1815,552.13079 233.4317,10e-6" id="path166" transform="translate(-4.1879101e-5,4.836622e-5)"/>
      <path style="font-variation-settings:'wdth' 70,'wght' 600;display:inline;opacity:1;fill:none;fill-opacity:1;stroke:#bec3c6;stroke-width:5.08158;stroke-dasharray:none;stroke-opacity:1;marker-end:url(#Triangle)" d="M 3404.7923,376.0603 H 3142.1812" id="path167" transform="translate(-4.1879101e-5,4.836622e-5)"/>
    </g>
    <g id="g230" transform="matrix(-0.02439371,0,0,-0.02439371,131.19323,222.78866)" style="display:inline">
      <rect style="font-variation-settings:'wdth' 70,'wght' 600;display:inline;fill:#373e43;fill-opacity:1;stroke-width:5.62179;stroke-dasharray:none" id="rect200" width="132.12082" height="29.178997" x="-614.64343" y="3098.4128" transform="rotate(-90,-302.8272,-149.83746)"/>
      <rect style="font-variation-settings:'wdth' 70,'wght' 600;display:inline;fill:#3a4146;fill-opacity:1;stroke-width:5.62179;stroke-dasharray:none" id="rect201" width="132.12082" height="29.178997" x="-614.64343" y="3127.5918" transform="rotate(-90,-302.82717,-149.83743)"/>
      <rect style="font-variation-settings:'wdth' 70,'wght' 600;display:inline;fill:#3c4449;fill-opacity:1;stroke-width:5.62179;stroke-dasharray:none" id="rect202" width="132.12082" height="29.178997" x="-614.64343" y="3156.7708" transform="rotate(-90,-302.82717,-149.83743)"/>
      <rect style="font-variation-settings:'wdth' 70,'wght' 600;display:inline;fill:#3e474c;fill-opacity:1;stroke-width:5.62179;stroke-dasharray:none" id="rect203" width="132.12082" height="29.178997" x="-614.64343" y="3185.9497" transform="rotate(-90,-302.82717,-149.83743)"/>
      <rect style="font-variation-settings:'wdth' 70,'wght' 600;display:inline;fill:#404a4f;fill-opacity:1;stroke-width:5.62179;stroke-dasharray:none" id="rect204" width="132.12082" height="29.178997" x="-614.64343" y="3215.1287" transform="rotate(-90,-302.82717,-149.83743)"/>
      <rect style="font-variation-settings:'wdth' 70,'wght' 600;display:inline;fill:#424d52;fill-opacity:1;stroke-width:5.62179;stroke-dasharray:none" id="rect205" width="132.12082" height="29.178997" x="-614.64343" y="3244.3076" transform="rotate(-90,-302.82717,-149.83743)"/>
      <rect style="font-variation-settings:'wdth' 70,'wght' 600;display:inline;fill:#445055;fill-opacity:1;stroke-width:5.62179;stroke-dasharray:none" id="rect206" width="132.12082" height="29.178997" x="-614.64343" y="3273.4868" transform="rotate(-90,-302.82717,-149.83743)"/>
      <rect style="font-variation-settings:'wdth' 70,'wght' 600;display:inline;fill:#465358;fill-opacity:1;stroke-width:5.62179;stroke-dasharray:none" id="rect207" width="132.12082" height="29.178997" x="-614.64343" y="3302.6658" transform="rotate(-90,-302.82717,-149.83743)"/>
      <rect style="font-variation-settings:'wdth' 70,'wght' 600;display:inline;fill:#48565b;fill-opacity:1;stroke-width:5.62179;stroke-dasharray:none" id="rect208" width="132.12082" height="29.178997" x="-614.64343" y="3331.8447" transform="rotate(-90,-302.82717,-149.83743)"/>
      <rect style="font-variation-settings:'wdth' 70,'wght' 600;display:inline;fill:#4b595e;fill-opacity:1;stroke-width:5.62179;stroke-dasharray:none" id="rect209" width="132.12082" height="29.178997" x="-614.64343" y="3361.0237" transform="rotate(-90,-302.82717,-149.83743)"/>
      <rect style="font-variation-settings:'wdth' 70,'wght' 600;display:inline;fill:#4c5a5f;fill-opacity:1;stroke-width:5.62179;stroke-dasharray:none" id="rect210" width="132.12082" height="29.178997" x="-614.64343" y="3390.2029" transform="rotate(-90,-302.82717,-149.83743)"/>
      <rect style="font-variation-settings:'wdth' 70,'wght' 600;display:inline;fill:#373e43;fill-opacity:1;stroke-width:5.62179;stroke-dasharray:none" id="rect211" width="132.12082" height="29.178997" x="-445.15152" y="3390.2029" transform="rotate(-90,-309.05705,-156.06729)"/>
      <rect style="font-variation-settings:'wdth' 70,'wght' 600;display:inline;fill:#373e43;fill-opacity:1;stroke-width:5.62179;stroke-dasharray:none" id="rect212" width="132.12082" height="29.178997" x="-445.15152" y="3361.0237" transform="rotate(-90,-309.05705,-156.06729)"/>
      <rect style="font-variation-settings:'wdth' 70,'wght' 600;display:inline;fill:#373e43;fill-opacity:1;stroke-width:5.62179;stroke-dasharray:none" id="rect213" width="132.12082" height="29.178997" x="-445.15152" y="3331.8447" transform="rotate(-90,-309.05705,-156.06729)"/>
      <rect style="font-variation-settings:'wdth' 70,'wght' 600;display:inline;fill:#373e43;fill-opacity:1;stroke-width:5.62179;stroke-dasharray:none" id="rect214" width="132.12082" height="29.178997" x="-445.15152" y="3302.6658" transform="rotate(-90,-309.05705,-156.06729)"/>
      <rect style="font-variation-settings:'wdth' 70,'wght' 600;display:inline;fill:#373e43;fill-opacity:1;stroke-width:5.62179;stroke-dasharray:none" id="rect215" width="132.12082" height="29.178997" x="-445.15152" y="3273.4868" transform="rotate(-90,-309.05705,-156.06729)"/>
      <rect style="font-variation-settings:'wdth' 70,'wght' 600;display:inline;fill:#373e43;fill-opacity:1;stroke-width:5.62179;stroke-dasharray:none" id="rect216" width="132.12082" height="29.178997" x="-445.15152" y="3244.3076" transform="rotate(-90,-309.05705,-156.06729)"/>
      <rect style="font-variation-settings:'wdth' 70,'wght' 600;display:inline;fill:#373e43;fill-opacity:1;stroke-width:5.62179;stroke-dasharray:none" id="rect217" width="132.12082" height="29.178997" x="-445.15152" y="3215.1287" transform="rotate(-90,-309.05705,-156.06729)"/>
      <rect style="font-variation-settings:'wdth' 70,'wght' 600;display:inline;fill:#373e43;fill-opacity:1;stroke-width:5.62179;stroke-dasharray:none" id="rect219" width="132.12082" height="29.178997" x="-445.15152" y="3185.9497" transform="rotate(-90,-309.05705,-156.06729)"/>
      <rect style="font-variation-settings:'wdth' 70,'wght' 600;display:inline;fill:#373e43;fill-opacity:1;stroke-width:5.62179;stroke-dasharray:none" id="rect223" width="132.12082" height="29.178997" x="-445.15152" y="3156.7708" transform="rotate(-90,-309.05705,-156.06729)"/>
      <rect style="font-variation-settings:'wdth' 70,'wght' 600;display:inline;fill:#373e43;fill-opacity:1;stroke-width:5.62179;stroke-dasharray:none" id="rect224" width="132.12082" height="29.178997" x="-445.15152" y="3127.5918" transform="rotate(-90,-309.05705,-156.06729)"/>
      <rect style="font-variation-settings:'wdth' 70,'wght' 600;display:inline;fill:#373e43;fill-opacity:1;stroke-width:5.62179;stroke-dasharray:none" id="rect225" width="132.12082" height="29.178997" x="-445.15152" y="3098.4128" transform="rotate(-90,-309.05705,-156.06729)"/>
      <rect style="font-variation-settings:'wdth' 70,'wght' 600;display:inline;fill:#373e43;fill-opacity:1;stroke-width:17.7823;stroke-dasharray:none" id="rect226" width="314.07242" height="122.81175" x="-161.97878" y="2822.6113" transform="rotate(-90)"/>
      <path style="font-variation-settings:'wdth' 70,'wght' 600;display:inline;opacity:1;fill:#4c5a5f;fill-opacity:1;stroke:none;stroke-width:15.2447;stroke-dasharray:none;stroke-opacity:1" d="M 3453.8516,184.84586 H 3266.3922 L 3262.765,29.857954 H 2945.4231 V -19.97282 h 320.969 v -149.90632 h 187.4595 z" id="path211" transform="translate(-1.8652726e-5)"/>
      <path style="font-variation-settings:'wdth' 70,'wght' 600;display:inline;fill:none;stroke:#bec3c6;stroke-width:15.2447;stroke-linecap:butt;stroke-dasharray:none;stroke-opacity:1" d="M 2112.7679,-725.6053 V -850.10377" id="path311" transform="rotate(180,2689.58,-438.86048)"/>
      <rect style="font-variation-settings:'wdth' 70,'wght' 600;display:inline;fill:#000;fill-opacity:1;stroke-width:1.04919;stroke-dasharray:none" id="rect585" width="132.12082" height="1.0163157" x="-161.97884" y="3207.0176" transform="rotate(-90)"/>
      <rect style="font-variation-settings:'wdth' 70,'wght' 600;display:inline;fill:#000;fill-opacity:1;stroke-width:1.04919;stroke-dasharray:none" id="rect586" width="132.12082" height="1.0163157" x="-161.97884" y="3236.1965" transform="rotate(-90)"/>
      <rect style="font-variation-settings:'wdth' 70,'wght' 600;display:inline;fill:#000;fill-opacity:1;stroke-width:1.04919;stroke-dasharray:none" id="rect587" width="132.12082" height="1.0163157" x="-161.97884" y="3261.7485" transform="rotate(-90)"/>
      <rect style="font-variation-settings:'wdth' 70,'wght' 600;display:inline;fill:#000;fill-opacity:1;stroke-width:1.04919;stroke-dasharray:none" id="rect588" width="132.12082" height="1.0163157" x="-161.97884" y="3177.8386" transform="rotate(-90)"/>
      <rect style="font-variation-settings:'wdth' 70,'wght' 600;display:inline;fill:#000;fill-opacity:1;stroke-width:1.04919;stroke-dasharray:none" id="rect589" width="132.12082" height="1.0163157" x="-161.97884" y="3148.6597" transform="rotate(-90)"/>
      <rect style="font-variation-settings:'wdth' 70,'wght' 600;display:inline;fill:#000;fill-opacity:1;stroke-width:1.04919;stroke-dasharray:none" id="rect590" width="132.12082" height="1.0163157" x="-161.97884" y="3119.4805" transform="rotate(-90)"/>
      <rect style="font-variation-settings:'wdth' 70,'wght' 600;display:inline;fill:#000;fill-opacity:1;stroke-width:1.04919;stroke-dasharray:none" id="rect591" width="132.12082" height="1.0163157" x="-161.97884" y="3090.3015" transform="rotate(-90)"/>
      <rect style="font-variation-settings:'wdth' 70,'wght' 600;display:inline;fill:#000;fill-opacity:1;stroke-width:1.04919;stroke-dasharray:none" id="rect592" width="132.12082" height="1.0163157" x="-161.97884" y="3061.1226" transform="rotate(-90)"/>
      <rect style="font-variation-settings:'wdth' 70,'wght' 600;display:inline;fill:#000;fill-opacity:1;stroke-width:1.04919;stroke-dasharray:none" id="rect593" width="132.12082" height="1.0163157" x="-161.97884" y="3031.9436" transform="rotate(-90)"/>
      <rect style="font-variation-settings:'wdth' 70,'wght' 600;display:inline;fill:#000;fill-opacity:1;stroke-width:1.04919;stroke-dasharray:none" id="rect594" width="132.12082" height="1.0163157" x="-161.97884" y="3002.7646" transform="rotate(-90)"/>
      <rect style="font-variation-settings:'wdth' 70,'wght' 600;display:inline;fill:#000;fill-opacity:1;stroke-width:1.04919;stroke-dasharray:none" id="rect595" width="132.12082" height="1.0163157" x="-161.97884" y="2973.5857" transform="rotate(-90)"/>
      <rect style="font-variation-settings:'wdth' 70,'wght' 600;display:inline;fill:#000;fill-opacity:1;stroke-width:1.04919;stroke-dasharray:none" id="rect596" width="132.12082" height="1.0163157" x="-161.97884" y="2944.4067" transform="rotate(-90)"/>
      <rect style="font-variation-settings:'wdth' 70,'wght' 600;display:inline;fill:#000;fill-opacity:1;stroke-width:1.04919;stroke-dasharray:none" id="rect597" width="132.12082" height="1.0163157" x="23.52993" y="2945.4231" transform="rotate(-90)"/>
      <rect style="font-variation-settings:'wdth' 70,'wght' 600;display:inline;fill:#000;fill-opacity:1;stroke-width:1.04919;stroke-dasharray:none" id="rect598" width="132.12082" height="1.0163157" x="23.52993" y="2974.6021" transform="rotate(-90)"/>
      <rect style="font-variation-settings:'wdth' 70,'wght' 600;display:inline;fill:#000;fill-opacity:1;stroke-width:1.04919;stroke-dasharray:none" id="rect599" width="132.12082" height="1.0163157" x="23.52993" y="3003.781" transform="rotate(-90)"/>
      <rect style="font-variation-settings:'wdth' 70,'wght' 600;display:inline;fill:#000;fill-opacity:1;stroke-width:1.04919;stroke-dasharray:none" id="rect600" width="132.12082" height="1.0163157" x="23.52993" y="3032.96" transform="rotate(-90)"/>
      <rect style="font-variation-settings:'wdth' 70,'wght' 600;display:inline;fill:#000;fill-opacity:1;stroke-width:1.04919;stroke-dasharray:none" id="rect601" width="132.12082" height="1.0163157" x="23.52993" y="3062.1389" transform="rotate(-90)"/>
      <rect style="font-variation-settings:'wdth' 70,'wght' 600;display:inline;fill:#000;fill-opacity:1;stroke-width:1.04919;stroke-dasharray:none" id="rect602" width="132.12082" height="1.0163157" x="23.52993" y="3091.3179" transform="rotate(-90)"/>
      <rect style="font-variation-settings:'wdth' 70,'wght' 600;display:inline;fill:#000;fill-opacity:1;stroke-width:1.04919;stroke-dasharray:none" id="rect603" width="132.12082" height="1.0163157" x="23.52993" y="3120.4971" transform="rotate(-90)"/>
      <rect style="font-variation-settings:'wdth' 70,'wght' 600;display:inline;fill:#000;fill-opacity:1;stroke-width:1.04919;stroke-dasharray:none" id="rect604" width="132.12082" height="1.0163157" x="23.52993" y="3149.676" transform="rotate(-90)"/>
      <rect style="font-variation-settings:'wdth' 70,'wght' 600;display:inline;fill:#000;fill-opacity:1;stroke-width:1.04919;stroke-dasharray:none" id="rect605" width="132.12082" height="1.0163157" x="23.52993" y="3178.855" transform="rotate(-90)"/>
      <rect style="font-variation-settings:'wdth' 70,'wght' 600;display:inline;fill:#000;fill-opacity:1;stroke-width:1.04919;stroke-dasharray:none" id="rect606" width="132.12082" height="1.0163157" x="23.52993" y="3208.0339" transform="rotate(-90)"/>
      <rect style="font-variation-settings:'wdth' 70,'wght' 600;display:inline;fill:#000;fill-opacity:1;stroke-width:1.04919;stroke-dasharray:none" id="rect607" width="132.12082" height="1.0163157" x="23.52993" y="3237.2131" transform="rotate(-90)"/>
      <path style="font-variation-settings:'wdth' 70,'wght' 600;display:inline;opacity:1;fill:none;fill-opacity:1;stroke:#bec3c6;stroke-width:.123959;stroke-dasharray:none;stroke-opacity:1;marker-end:url(#Triangle)" d="m 51.869699,224.88733 h 6.406059" id="path229" transform="matrix(-40.994174,0,0,-40.994174,5378.1581,9133.0372)"/>
      <path style="font-variation-settings:'wdth' 70,'wght' 600;display:inline;opacity:1;fill:none;fill-opacity:1;stroke:#bec3c6;stroke-width:5.0816;stroke-dasharray:none;stroke-opacity:1;marker-end:url(#Triangle)" d="m 2960.0126,95.918361 262.6108,6e-5" id="path230" transform="translate(-1.8652726e-5)"/>
    </g>
    <g id="walls_3" transform="matrix(0.02439371,0,0,0.02439371,-0.02443957,244.19953)" style="display:inline">
      <path style="font-variation-settings:'wdth' 70,'wght' 600;fill:none;stroke:#bec3c6;stroke-width:35.571;stroke-linecap:butt;stroke-dasharray:none;stroke-opacity:1" d="M 1106.741,-19.586468 H 581.16268 V -381.91829 H 1723.1424 V -19.586468 H 1491.425" id="path232"/>
      <path style="font-variation-settings:'wdth' 70,'wght' 600;fill:none;stroke:#bec3c6;stroke-width:45.7342;stroke-linecap:butt;stroke-dasharray:none;stroke-opacity:1" d="M 2576.7788,-1062.5668 H 44.331301 V 745.25722 H 2576.7788 Z" id="path233"/>
      <path style="font-variation-settings:'wdth' 70,'wght' 600;fill:none;stroke:#bec3c6;stroke-width:35.571;stroke-linecap:butt;stroke-dasharray:none;stroke-opacity:1" d="m 1925.3084,-1062.5668 v 761.30258 h 42.7687" id="path234"/>
      <path style="font-variation-settings:'wdth' 70,'wght' 600;fill:none;stroke:#bec3c6;stroke-width:35.571;stroke-linecap:butt;stroke-dasharray:none;stroke-opacity:1" d="M 1330.0402,-381.91829 V -19.586468" id="path240"/>
      <path style="font-variation-settings:'wdth' 70,'wght' 600;fill:none;stroke:#bec3c6;stroke-width:35.571;stroke-linecap:butt;stroke-dasharray:none;stroke-opacity:1" d="M 2576.7788,-707.8418 H 2114.599 v 406.57758 h 245.5347" id="path241"/>
      <path style="font-variation-settings:'wdth' 70,'wght' 600;fill:none;stroke:#bec3c6;stroke-width:35;stroke-linecap:butt;stroke-dasharray:none;stroke-opacity:1" d="m 2302.6309,-707.8418 v 406.57758" id="path242"/>
      <path style="font-variation-settings:'wdth' 70,'wght' 600;fill:none;stroke:#bec3c6;stroke-width:35.571;stroke-linecap:butt;stroke-dasharray:none;stroke-opacity:1" d="m 2512.082,-301.26422 h 64.6968" id="path243"/>
      <path style="font-variation-settings:'wdth' 70,'wght' 600;fill:none;stroke:#bec3c6;stroke-width:35.571;stroke-linecap:butt;stroke-dasharray:none;stroke-opacity:1" d="M 727.61196,745.25722 V 166.17443" id="path244"/>
      <path style="font-variation-settings:'wdth' 70,'wght' 600;fill:none;stroke:#bec3c6;stroke-width:35.571;stroke-linecap:butt;stroke-dasharray:none;stroke-opacity:1" d="M 44.331301,413.29395 H 547.49064" id="path245"/>
      <path style="font-variation-settings:'wdth' 70,'wght' 600;fill:none;stroke:#bec3c6;stroke-width:35.571;stroke-linecap:butt;stroke-dasharray:none;stroke-opacity:1" d="M 529.70383,266.17444 V 127.01683" id="path246"/>
      <rect style="font-variation-settings:'wdth' 70,'wght' 600;opacity:1;fill:#bec3c6;fill-opacity:1;stroke:none;stroke-width:36.5443;stroke-dasharray:none" id="rect246" width="339.60226" height="163.38052" x="207.88976" y="246.32016"/>
      <path style="font-variation-settings:'wdth' 70,'wght' 600;fill:none;stroke:#bec3c6;stroke-width:35.571;stroke-linecap:butt;stroke-dasharray:none;stroke-opacity:1" d="m 673.1177,166.17443 h 341.1386" id="path247"/>
      <rect style="font-variation-settings:'wdth' 70,'wght' 600;opacity:1;fill:#bec3c6;fill-opacity:1;stroke:none;stroke-width:46.5472;stroke-dasharray:none" id="rect247" width="188.03178" height="406.57758" x="2114.5991" y="-707.8418"/>
      <rect style="font-variation-settings:'wdth' 70,'wght' 600;opacity:1;fill:none;fill-opacity:1;stroke:#bec3c6;stroke-width:15.2447;stroke-dasharray:none;stroke-opacity:1" id="rect248" width="320.96899" height="37.371098" x="226.52051" y="563.2002"/>
      <rect style="font-variation-settings:'wdth' 70,'wght' 600;opacity:1;fill:none;fill-opacity:1;stroke:#bec3c6;stroke-width:15.2447;stroke-dasharray:none;stroke-opacity:1" id="rect249" width="320.96912" height="49.830864" x="2112.7678" y="-907.57898"/>
      <path style="font-variation-settings:'wdth' 70,'wght' 600;fill:none;stroke:#bec3c6;stroke-width:35.571;stroke-linecap:butt;stroke-dasharray:none;stroke-opacity:1" d="M 409.77707,123.03673 V 266.17435" id="path249"/>
      <path style="font-variation-settings:'wdth' 70,'wght' 600;fill:none;stroke:#bec3c6;stroke-width:35.571;stroke-linecap:butt;stroke-dasharray:none;stroke-opacity:1" d="M 1389.7934,-19.586468 H 1208.3725" id="path250"/>
      <path style="font-variation-settings:'wdth' 70,'wght' 600;fill:none;stroke:#bec3c6;stroke-width:35.571;stroke-linecap:butt;stroke-dasharray:none;stroke-opacity:1" d="m 1115.8878,166.17443 h 363.841" id="path252"/>
      <path style="font-variation-settings:'wdth' 70,'wght' 600;fill:none;stroke:#bec3c6;stroke-width:35.571;stroke-linecap:butt;stroke-dasharray:none;stroke-opacity:1" d="m 2148.7186,166.17443 h 125.0585" id="path253"/>
      <path style="font-variation-settings:'wdth' 70,'wght' 600;fill:none;stroke:#bec3c6;stroke-width:35.571;stroke-linecap:butt;stroke-dasharray:none;stroke-opacity:1" d="m 2375.4087,166.17443 h 68.6869" id="path254"/>
      <path style="font-variation-settings:'wdth' 70,'wght' 600;fill:none;stroke:#bec3c6;stroke-width:35.571;stroke-linecap:butt;stroke-dasharray:none;stroke-opacity:1" d="m 2545.7272,166.17443 h 31.0516" id="path255"/>
      <path style="font-variation-settings:'wdth' 70,'wght' 600;fill:none;stroke:#bec3c6;stroke-width:35.571;stroke-linecap:butt;stroke-dasharray:none;stroke-opacity:1" d="M 2242.2107,166.17443 V 745.25722" id="path256"/>
      <path style="font-variation-settings:'wdth' 70,'wght' 600;fill:none;stroke:#bec3c6;stroke-width:10.1632;stroke-linecap:butt;stroke-dasharray:none;stroke-opacity:1" d="M 2409.7521,745.25722 V 166.17443" id="path257"/>
      <path style="font-variation-settings:'wdth' 70,'wght' 600;fill:none;stroke:#bec3c6;stroke-width:35.571;stroke-linecap:butt;stroke-dasharray:none;stroke-opacity:1" d="m 529.70383,166.17443 h 41.7823" id="path262"/>
      <path style="font-variation-settings:'wdth' 70,'wght' 600;fill:none;stroke:#bec3c6;stroke-width:35.571;stroke-linecap:butt;stroke-dasharray:none;stroke-opacity:1" d="M 409.77707,-1062.5668 V 21.405162" id="path266"/>
      <path style="font-variation-settings:'wdth' 70,'wght' 600;fill:none;stroke:#bec3c6;stroke-width:10.1632;stroke-linecap:butt;stroke-dasharray:none;stroke-opacity:1" d="M 1927.5422,745.25722 V 166.17443" id="path267"/>
      <path style="font-variation-settings:'wdth' 70,'wght' 600;fill:none;stroke:#bec3c6;stroke-width:10.1632;stroke-linecap:butt;stroke-dasharray:none;stroke-opacity:1" d="M 1626.2962,745.25722 V 166.17443" id="path268"/>
      <path style="font-variation-settings:'wdth' 70,'wght' 600;fill:none;stroke:#bec3c6;stroke-width:10.1632;stroke-linecap:butt;stroke-dasharray:none;stroke-opacity:1" d="M 1196.3947,745.25722 V 166.17443" id="path269"/>
      <path style="font-variation-settings:'wdth' 70,'wght' 600;fill:none;stroke:#bec3c6;stroke-width:35.571;stroke-linecap:butt;stroke-dasharray:none;stroke-opacity:1" d="m 1581.3604,166.17443 h 166.7521" id="path270"/>
      <path style="font-variation-settings:'wdth' 70,'wght' 600;fill:none;stroke:#bec3c6;stroke-width:35.571;stroke-linecap:butt;stroke-dasharray:none;stroke-opacity:1" d="m 1849.744,166.17443 h 197.3431" id="path271"/>
      <path style="font-variation-settings:'wdth' 70,'wght' 600;fill:none;stroke:#bec3c6;stroke-width:10.1632;stroke-linecap:butt;stroke-dasharray:none;stroke-opacity:1" d="m 1779.2947,-561.15653 h 146.0136" id="path277"/>
      <path style="font-variation-settings:'wdth' 70,'wght' 600;fill:none;stroke:#bec3c6;stroke-width:35.571;stroke-linecap:butt;stroke-dasharray:none;stroke-opacity:1" d="m 2069.7086,-301.26422 h 43.6952" id="path300"/>
      <path style="font-variation-settings:'wdth' 70,'wght' 600;fill:none;stroke:#bec3c6;stroke-width:10.1632;stroke-linecap:butt;stroke-dasharray:none;stroke-opacity:1" d="m 1186.7827,-561.15653 h 194.6244" id="path301"/>
      <path style="font-variation-settings:'wdth' 70,'wght' 600;fill:none;stroke:#bec3c6;stroke-width:10.1632;stroke-linecap:butt;stroke-dasharray:none;stroke-opacity:1" d="m 1483.0387,-561.15653 h 194.6244" id="path302"/>
      <path style="font-variation-settings:'wdth' 70,'wght' 600;fill:none;stroke:#bec3c6;stroke-width:10.1632;stroke-linecap:butt;stroke-dasharray:none;stroke-opacity:1" d="m 890.5267,-561.15653 h 194.6244" id="path303"/>
      <path style="font-variation-settings:'wdth' 70,'wght' 600;fill:none;stroke:#bec3c6;stroke-width:10.1632;stroke-linecap:butt;stroke-dasharray:none;stroke-opacity:1" d="M 594.2707,-561.15653 H 788.8951" id="path304"/>
      <path style="font-variation-settings:'wdth' 70,'wght' 600;fill:none;stroke:#bec3c6;stroke-width:10.1632;stroke-linecap:butt;stroke-dasharray:none;stroke-opacity:1" d="m 409.77707,-561.15653 h 82.86207" id="path305"/>
      <path style="font-variation-settings:'wdth' 70,'wght' 600;fill:none;stroke:#bec3c6;stroke-width:10.1632;stroke-linecap:butt;stroke-dasharray:none;stroke-opacity:1" d="M 1599.075,-561.15653 V -1062.5668" id="path306"/>
      <path style="font-variation-settings:'wdth' 70,'wght' 600;fill:none;stroke:#bec3c6;stroke-width:10.1632;stroke-linecap:butt;stroke-dasharray:none;stroke-opacity:1" d="M 1302.1879,-561.15653 V -1062.5668" id="path307"/>
      <path style="font-variation-settings:'wdth' 70,'wght' 600;fill:none;stroke:#bec3c6;stroke-width:10.1632;stroke-linecap:butt;stroke-dasharray:none;stroke-opacity:1" d="M 1005.3008,-561.15653 V -1062.5668" id="path308"/>
      <path style="font-variation-settings:'wdth' 70,'wght' 600;fill:none;stroke:#bec3c6;stroke-width:10.1632;stroke-linecap:butt;stroke-dasharray:none;stroke-opacity:1" d="M 708.4137,-561.15653 V -1062.5668" id="path309"/>
    </g>
    <g id="g299" transform="matrix(0.02439371,0,0,0.02439371,-0.02443957,244.19953)" style="display:inline">
      <g id="g295" style="filter:url(#filter65)" transform="translate(-11.964633,-1531.964)">
        <rect style="font-variation-settings:'wdth' 70,'wght' 600;fill:none;fill-opacity:1;stroke:#d6d7de;stroke-width:4.78791;stroke-linejoin:miter;stroke-dasharray:none;stroke-opacity:1" id="rect294" width="95.212135" height="95.212151" x="2405.0667" y="979.80487" ry="9.1410179"/>
        <path d="m 2427.7505,1062.6135 h 12.6169 v -23.8318 h 6.2306 v -17.757 c 0,-2.6337 -0.8992,-4.8497 -2.6976,-6.6481 -1.7985,-1.7985 -4.0665,-2.6977 -6.804,-2.6977 h -6.2306 c -2.7375,0 -4.9794,0.8992 -6.7258,2.6977 -1.7466,1.7984 -2.6199,4.0144 -2.6199,6.6481 v 17.757 h 6.2304 z m 6.1958,-54.9845 c 2.1478,0 3.9626,-0.7033 5.4445,-2.1098 1.4819,-1.4064 2.2228,-3.2356 2.2228,-5.4875 0,-2.148 -0.7292,-3.93697 -2.1877,-5.3669 -1.4583,-1.42987 -3.2615,-2.1448 -5.4096,-2.1448 -2.1481,0 -3.937,0.70327 -5.3669,2.1098 -1.4299,1.4064 -2.1449,3.18367 -2.1449,5.3318 0,2.2518 0.7033,4.0926 2.11,5.5225 1.4064,1.4299 3.1837,2.1449 5.3318,2.1449 z m 28.3838,9.9689 h 20.0934 l -9.9688,-16.1994 z m 10.1246,35.6697 9.9688,-16.1993 h -20.0934 z" id="path295" style="fill:#d5d6dd;fill-opacity:1;stroke-width:0;stroke-dasharray:none"/>
      </g>
      <path d="m 5493.231,1690.325 v -31.8652 h -10.1036 v -32.2539 q 0,-3.5622 2.5583,-6.1205 2.5583,-2.5583 6.1205,-2.5583 h 19.9482 q 3.5621,0 6.1204,2.5583 2.5583,2.5583 2.5583,6.1205 v 32.2539 h -10.1036 v 31.8652 z m 8.5596,-82.6425 q -3.6891,0 -6.1891,-2.5544 -2.5,-2.5545 -2.5,-6.1139 0,-3.6892 2.4896,-6.1892 2.4899,-2.5 6.1788,-2.5 3.6891,0 6.1891,2.4897 2.5,2.4897 2.5,6.1787 0,3.5596 -2.4896,6.1244 -2.4897,2.5647 -6.1788,2.5647 z" id="path296" style="display:inline;fill:#fff;fill-opacity:.798742;stroke-width:.129534;filter:url(#filter17-8)" transform="matrix(1.0163157,0,0,1.0163157,-3259.2139,-1211.3722)"/>
      <path d="m 5174.1563,1690.325 v -30.0518 h -14.7668 l 14.2098,-39.4458 q 1.121,-2.8983 3.8366,-4.5889 2.7155,-1.6907 5.7878,-1.6907 3.0723,0 5.7878,1.6907 2.7156,1.6906 3.8542,4.5779 l 14.1922,39.4568 h -14.7668 v 30.0518 z m 9.0778,-82.6424 q -3.6892,0 -6.1892,-2.5504 -2.5,-2.5504 -2.5,-6.118 0,-3.6892 2.4897,-6.1892 2.4899,-2.5 6.1787,-2.5 3.6892,0 6.1892,2.4897 2.5,2.4897 2.5,6.114 0,3.6243 -2.4897,6.1891 -2.4896,2.5648 -6.1787,2.5648 z" id="path297" style="display:inline;fill:#fff;fill-opacity:.803459;stroke-width:.129534;filter:url(#filter15-7)" transform="matrix(1.0163157,0,0,1.0163157,-2780.8791,-1211.3722)"/>
    </g>
    <path id="roomNames_3" d="m 372.8927,155.26188 c -3.264,0 -6.24,-0.384 -8.928,-1.152 -2.624,-0.704 -4.96,-1.696 -7.008,-2.976 -2.048,-1.28 -3.808,-2.784 -5.28,-4.512 l 6.528,-8.928 c 1.856,1.792 3.904,3.264 6.144,4.416 2.24,1.152 4.64,1.728 7.2,1.728 2.944,0 5.312,-0.608 7.104,-1.824 1.856,-1.28 2.784,-3.072 2.784,-5.376 0,-1.792 -0.448,-3.328 -1.344,-4.608 -0.896,-1.344 -2.528,-2.368 -4.896,-3.072 -2.304,-0.704 -5.696,-1.056 -10.176,-1.056 v -9.984 c 3.648,0 6.528,-0.352 8.64,-1.056 2.112,-0.704 3.584,-1.664 4.416,-2.88 0.896,-1.216 1.344,-2.624 1.344,-4.224 0,-2.176 -0.672,-3.84 -2.016,-4.992 -1.28,-1.152 -3.104,-1.728 -5.472,-1.728 -2.176,0 -4.16,0.48 -5.952,1.44 -1.728,0.896 -3.552,2.208 -5.472,3.936 l -7.104,-8.64 c 2.816,-2.432 5.792,-4.32 8.928,-5.664 3.136,-1.408 6.56,-2.112 10.272,-2.112 4.16,0 7.808,0.672 10.944,2.016 3.2,1.28 5.664,3.168 7.392,5.664 1.792,2.432 2.688,5.44 2.688,9.024 0,3.136 -0.896,5.824 -2.688,8.064 -1.728,2.24 -4.224,4.064 -7.488,5.472 v 0.384 c 2.304,0.704 4.384,1.728 6.24,3.072 1.856,1.28 3.296,2.912 4.32,4.896 1.024,1.984 1.536,4.288 1.536,6.912 0,3.776 -1.056,7.008 -3.168,9.696 -2.048,2.624 -4.8,4.64 -8.256,6.048 -3.392,1.344 -7.136,2.016 -11.232,2.016 z m 52.70399,0 c -6.528,0 -11.808,-2.72 -15.84,-8.16 -3.968,-5.44 -5.952,-13.344 -5.952,-23.712 0,-10.432 1.984,-18.272 5.952,-23.52 4.032,-5.248 9.312,-7.872 15.84,-7.872 6.528,0 11.776,2.656 15.744,7.968 4.032,5.248 6.048,13.056 6.048,23.424 0,10.368 -2.016,18.272 -6.048,23.712 -3.968,5.44 -9.216,8.16 -15.744,8.16 z m 0,-10.944 c 1.6,0 3.04,-0.576 4.32,-1.728 1.28,-1.216 2.272,-3.328 2.976,-6.336 0.768,-3.072 1.152,-7.36 1.152,-12.864 0,-5.568 -0.384,-9.824 -1.152,-12.768 -0.704,-2.944 -1.696,-4.96 -2.976,-6.048 -1.28,-1.088 -2.72,-1.632 -4.32,-1.632 -1.6,0 -3.04,0.544 -4.32,1.632 -1.28,1.088 -2.304,3.104 -3.072,6.048 -0.704,2.944 -1.056,7.2 -1.056,12.768 0,5.504 0.352,9.792 1.056,12.864 0.768,3.008 1.792,5.12 3.072,6.336 1.28,1.152 2.72,1.728 4.32,1.728 z m 32.06398,9.792 v -11.424 h 13.248 v -35.232 h -11.424 v -8.736 c 3.328,-0.64 6.144,-1.408 8.448,-2.304 2.368,-0.896 4.608,-1.984 6.72,-3.264 h 10.368 v 49.536 h 11.424 v 11.424 z m -87.21597,-120 v -62.592 h 15.744 l 9.984,27.83999974 c 0.64,1.85599996 1.216,3.74399996 1.728,5.66399996 0.576,1.856 1.152,3.8080001 1.728,5.8560003 h 0.384 c 0.576,-2.0480002 1.12,-4.0000003 1.632,-5.8560003 0.512,-1.92 1.088,-3.808 1.728,-5.66399996 l 9.792,-27.83999974 h 15.744 v 62.592 h -12.96 v -22.944 c 0,-2.0480002 0.096,-4.4480003 0.288,-7.2000003 0.256,-2.816 0.512,-5.6 0.768,-8.352 0.32,-2.816 0.608,-5.2479999 0.864,-7.2959997 h -0.384 l -5.088,16.5119997 -8.832,23.9040003 h -8.256 l -8.736,-23.9040003 -4.896,-16.5119997 h -0.384 c 0.256,2.0479998 0.512,4.4799997 0.768,7.2959997 0.32,2.752 0.576,5.536 0.768,8.352 0.192,2.752 0.288,5.1520001 0.288,7.2000003 v 22.944 z m 69.21592,0 v -8.544 l 27.648,-42.144 h -25.056 v -11.904 h 42.432 v 8.544 l -27.648,42.144 h 27.936 v 11.904 z M 74.6042,155.26184 c -3.264,0 -6.24,-0.384 -8.928,-1.152 -2.624,-0.704 -4.96,-1.696 -7.008,-2.976 -2.048,-1.28 -3.808,-2.784 -5.28,-4.512 l 6.528,-8.928 c 1.856,1.792 3.904,3.264 6.144,4.416 2.24,1.152 4.64,1.728 7.2,1.728 2.944,0 5.312,-0.608 7.104,-1.824 1.856,-1.28 2.784,-3.072 2.784,-5.376 0,-1.792 -0.448,-3.328 -1.344,-4.608 -0.896,-1.344 -2.528,-2.368 -4.896,-3.072 -2.304,-0.704 -5.696,-1.056 -10.176,-1.056 v -9.984 c 3.648,0 6.528,-0.352 8.64,-1.056 2.112,-0.704 3.584,-1.664 4.416,-2.88 0.896,-1.216 1.344,-2.624 1.344,-4.224 0,-2.176 -0.672,-3.84 -2.016,-4.992 -1.28,-1.152 -3.104,-1.728 -5.472,-1.728 -2.176,0 -4.16,0.48 -5.952,1.44 -1.728,0.896 -3.552,2.208 -5.472,3.936 l -7.104,-8.64 c 2.816,-2.432 5.792,-4.32 8.928,-5.664 3.136,-1.408 6.56,-2.112 10.272,-2.112 4.16,0 7.808,0.672 10.944,2.016 3.2,1.28 5.664,3.168 7.392,5.664 1.792,2.432 2.688,5.44 2.688,9.024 0,3.136 -0.896,5.824 -2.688,8.064 -1.728,2.24 -4.224,4.064 -7.488,5.472 v 0.384 c 2.304,0.704 4.384,1.728 6.24,3.072 1.856,1.28 3.296,2.912 4.32,4.896 1.024,1.984 1.536,4.288 1.536,6.912 0,3.776 -1.056,7.008 -3.168,9.696 -2.048,2.624 -4.8,4.64 -8.256,6.048 -3.392,1.344 -7.136,2.016 -11.232,2.016 z m 52.70399,0 c -6.528,0 -11.808,-2.72 -15.84,-8.16 -3.968,-5.44 -5.952,-13.344 -5.952,-23.712 0,-10.432 1.984,-18.272 5.952,-23.52 4.032,-5.248 9.312,-7.872 15.84,-7.872 6.528,0 11.776,2.656 15.744,7.968 4.032,5.248 6.048,13.056 6.048,23.424 0,10.368 -2.016,18.272 -6.048,23.712 -3.968,5.44 -9.216,8.16 -15.744,8.16 z m 0,-10.944 c 1.6,0 3.04,-0.576 4.32,-1.728 1.28,-1.216 2.272,-3.328 2.976,-6.336 0.768,-3.072 1.152,-7.36 1.152,-12.864 0,-5.568 -0.384,-9.824 -1.152,-12.768 -0.704,-2.944 -1.696,-4.96 -2.976,-6.048 -1.28,-1.088 -2.72,-1.632 -4.32,-1.632 -1.6,0 -3.04,0.544 -4.32,1.632 -1.28,1.088 -2.304,3.104 -3.072,6.048 -0.704,2.944 -1.056,7.2 -1.056,12.768 0,5.504 0.352,9.792 1.056,12.864 0.768,3.008 1.792,5.12 3.072,6.336 1.28,1.152 2.72,1.728 4.32,1.728 z m 28.89598,9.792 v -8.736 c 5.12,-4.544 9.664,-8.8 13.632,-12.768 4.032,-3.968 7.168,-7.648 9.408,-11.04 2.304,-3.392 3.456,-6.496 3.456,-9.312 0,-3.008 -0.768,-5.28 -2.304,-6.816 -1.536,-1.6 -3.648,-2.4 -6.336,-2.4 -2.176,0 -4.16,0.64 -5.952,1.92 -1.728,1.216 -3.36,2.656 -4.896,4.32 l -7.392,-7.296 c 2.944,-3.328 5.952,-5.824 9.024,-7.488 3.136,-1.664 6.848,-2.496 11.136,-2.496 3.968,0 7.456,0.8 10.464,2.4 3.072,1.6 5.44,3.84 7.104,6.72 1.728,2.88 2.592,6.272 2.592,10.176 0,3.648 -0.992,7.232 -2.976,10.752 -1.92,3.456 -4.48,6.912 -7.68,10.368 -3.2,3.456 -6.592,6.976 -10.176,10.56 1.536,-0.192 3.264,-0.352 5.184,-0.48 1.92,-0.192 3.584,-0.288 4.992,-0.288 h 13.632 v 11.904 z m -84.04797,-120 v -62.592 h 15.744 l 9.984,27.83999974 c 0.64,1.85599996 1.216,3.74399996 1.728,5.66399996 0.576,1.856 1.152,3.8080001 1.728,5.8560003 h 0.384 c 0.576,-2.0480002 1.12,-4.0000003 1.632,-5.8560003 0.512,-1.92 1.088,-3.808 1.728,-5.66399996 l 9.792,-27.83999974 h 15.744 v 62.592 h -12.96 v -22.944 c 0,-2.0480002 0.096,-4.4480003 0.288,-7.2000003 0.256,-2.816 0.512,-5.6 0.768,-8.352 0.32,-2.816 0.608,-5.2479999 0.864,-7.2959997 h -0.384 l -5.088,16.5119997 -8.832,23.9040003 h -8.256 L 88.2842,4.8298397 83.3882,-11.68216 h -0.384 c 0.256,2.0479998 0.512,4.4799997 0.768,7.2959997 0.32,2.752 0.576,5.536 0.768,8.352 0.192,2.752 0.288,5.1520001 0.288,7.2000003 v 22.944 z m 69.21592,0 v -8.544 l 27.648,-42.144 h -25.056 v -11.904 h 42.432 v 8.544 l -27.648,42.144 h 27.936 v 11.904 z m -358.64882,121.152 c -3.264,0 -6.24,-0.384 -8.928,-1.152 -2.624,-0.704 -4.96,-1.696 -7.008,-2.976 -2.048,-1.28 -3.808,-2.784 -5.28,-4.512 l 6.528,-8.928 c 1.856,1.792 3.904,3.264 6.144,4.416 2.24,1.152 4.64,1.728 7.2,1.728 2.944,0 5.312,-0.608 7.104,-1.824 1.856,-1.28 2.784,-3.072 2.784,-5.376 0,-1.792 -0.448,-3.328 -1.344,-4.608 -0.896,-1.344 -2.528,-2.368 -4.896,-3.072 -2.304,-0.704 -5.696,-1.056 -10.176,-1.056 v -9.984 c 3.648,0 6.528,-0.352 8.64,-1.056 2.112,-0.704 3.584,-1.664 4.416,-2.88 0.896,-1.216 1.344,-2.624 1.344,-4.224 0,-2.176 -0.672,-3.84 -2.016,-4.992 -1.28,-1.152 -3.104,-1.728 -5.472,-1.728 -2.176,0 -4.16,0.48 -5.952,1.44 -1.728,0.896 -3.552,2.208 -5.472,3.936 l -7.104,-8.64 c 2.816,-2.432 5.792,-4.32 8.928,-5.664 3.136,-1.408 6.56,-2.112 10.272,-2.112 4.16,0 7.808,0.672 10.944,2.016 3.2,1.28 5.664,3.168 7.392,5.664 1.792,2.432 2.688,5.44 2.688,9.024 0,3.136 -0.896,5.824 -2.688,8.064 -1.728,2.24 -4.224,4.064 -7.488,5.472 v 0.384 c 2.304,0.704 4.384,1.728 6.24,3.072 1.856,1.28 3.296,2.912 4.32,4.896 1.024,1.984 1.536,4.288 1.536,6.912 0,3.776 -1.056,7.008 -3.168,9.696 -2.048,2.624 -4.8,4.64 -8.256,6.048 -3.392,1.344 -7.136,2.016 -11.232,2.016 z m 52.70399,0 c -6.528,0 -11.808,-2.72 -15.84,-8.16 -3.968,-5.44 -5.952,-13.344 -5.952,-23.712 0,-10.432 1.984,-18.272 5.952,-23.52 4.032,-5.248 9.312,-7.872 15.84,-7.872 6.528,0 11.776,2.656 15.744,7.968 4.032,5.248 6.048,13.056 6.048,23.424 0,10.368 -2.016,18.272 -6.048,23.712 -3.968,5.44 -9.216,8.16 -15.744,8.16 z m 0,-10.944 c 1.6,0 3.04,-0.576 4.32,-1.728 1.28,-1.216 2.272,-3.328 2.976,-6.336 0.768,-3.072 1.152,-7.36 1.152,-12.864 0,-5.568 -0.384,-9.824 -1.152,-12.768 -0.704,-2.944 -1.696,-4.96 -2.976,-6.048 -1.28,-1.088 -2.72,-1.632 -4.32,-1.632 -1.6,0 -3.04,0.544 -4.32,1.632 -1.28,1.088 -2.304,3.104 -3.072,6.048 -0.704,2.944 -1.056,7.2 -1.056,12.768 0,5.504 0.352,9.792 1.056,12.864 0.768,3.008 1.792,5.12 3.072,6.336 1.28,1.152 2.72,1.728 4.32,1.728 z m 48.67198,10.944 c -3.264,0 -6.24,-0.384 -8.928,-1.152 -2.624,-0.704 -4.96,-1.696 -7.008,-2.976 -2.048,-1.28 -3.808,-2.784 -5.28,-4.512 l 6.528,-8.928 c 1.856,1.792 3.904,3.264 6.144,4.416 2.24,1.152 4.64,1.728 7.2,1.728 2.944,0 5.312,-0.608 7.104,-1.824 1.856,-1.28 2.784,-3.072 2.784,-5.376 0,-1.792 -0.448,-3.328 -1.344,-4.608 -0.896,-1.344 -2.528,-2.368 -4.896,-3.072 -2.304,-0.704 -5.696,-1.056 -10.176,-1.056 v -9.984 c 3.648,0 6.528,-0.352 8.64,-1.056 2.112,-0.704 3.584,-1.664 4.416,-2.88 0.896,-1.216 1.344,-2.624 1.344,-4.224 0,-2.176 -0.672,-3.84 -2.016,-4.992 -1.28,-1.152 -3.104,-1.728 -5.472,-1.728 -2.176,0 -4.16,0.48 -5.952,1.44 -1.728,0.896 -3.552,2.208 -5.472,3.936 l -7.104,-8.64 c 2.816,-2.432 5.792,-4.32 8.928,-5.664 3.136,-1.408 6.56,-2.112 10.272,-2.112 4.16,0 7.808,0.672 10.944,2.016 3.2,1.28 5.664,3.168 7.392,5.664 1.792,2.432 2.688,5.44 2.688,9.024 0,3.136 -0.896,5.824 -2.688,8.064 -1.728,2.24 -4.224,4.064 -7.488,5.472 v 0.384 c 2.304,0.704 4.384,1.728 6.24,3.072 1.856,1.28 3.296,2.912 4.32,4.896 1.024,1.984 1.536,4.288 1.536,6.912 0,3.776 -1.056,7.008 -3.168,9.696 -2.048,2.624 -4.8,4.64 -8.256,6.048 -3.392,1.344 -7.136,2.016 -11.232,2.016 z M -219.7247,34.10984 v -62.592 h 15.744 l 9.984,27.83999974 c 0.64,1.85599996 1.216,3.74399996 1.728,5.66399996 0.576,1.856 1.152,3.8080001 1.728,5.8560003 h 0.384 c 0.576,-2.0480002 1.12,-4.0000003 1.632,-5.8560003 0.512,-1.92 1.088,-3.808 1.728,-5.66399996 l 9.792,-27.83999974 h 15.744 v 62.592 h -12.96 v -22.944 c 0,-2.0480002 0.096,-4.4480003 0.288,-7.2000003 0.256,-2.816 0.512,-5.6 0.768,-8.352 0.32,-2.816 0.608,-5.2479999 0.864,-7.2959997 h -0.384 l -5.088,16.5119997 -8.832,23.9040003 h -8.256 l -8.736,-23.9040003 -4.896,-16.5119997 h -0.384 c 0.256,2.0479998 0.512,4.4799997 0.768,7.2959997 0.32,2.752 0.576,5.536 0.768,8.352 0.192,2.752 0.288,5.1520001 0.288,7.2000003 v 22.944 z m 69.21592,0 v -8.544 l 27.648,-42.144 h -25.056 v -11.904 h 42.432 v 8.544 l -27.648,42.144 h 27.936 v 11.904 z m -360.08892,121.152 c -3.264,0 -6.24,-0.384 -8.928,-1.152 -2.624,-0.704 -4.96,-1.696 -7.008,-2.976 -2.048,-1.28 -3.808,-2.784 -5.28,-4.512 l 6.528,-8.928 c 1.856,1.792 3.904,3.264 6.144,4.416 2.24,1.152 4.64,1.728 7.2,1.728 2.944,0 5.312,-0.608 7.104,-1.824 1.856,-1.28 2.784,-3.072 2.784,-5.376 0,-1.792 -0.448,-3.328 -1.344,-4.608 -0.896,-1.344 -2.528,-2.368 -4.896,-3.072 -2.304,-0.704 -5.696,-1.056 -10.176,-1.056 v -9.984 c 3.648,0 6.528,-0.352 8.64,-1.056 2.112,-0.704 3.584,-1.664 4.416,-2.88 0.896,-1.216 1.344,-2.624 1.344,-4.224 0,-2.176 -0.672,-3.84 -2.016,-4.992 -1.28,-1.152 -3.104,-1.728 -5.472,-1.728 -2.176,0 -4.16,0.48 -5.952,1.44 -1.728,0.896 -3.552,2.208 -5.472,3.936 l -7.104,-8.64 c 2.816,-2.432 5.792,-4.32 8.928,-5.664 3.136,-1.408 6.56,-2.112 10.272,-2.112 4.16,0 7.808,0.672 10.944,2.016 3.2,1.28 5.664,3.168 7.392,5.664 1.792,2.432 2.688,5.44 2.688,9.024 0,3.136 -0.896,5.824 -2.688,8.064 -1.728,2.24 -4.224,4.064 -7.488,5.472 v 0.384 c 2.304,0.704 4.384,1.728 6.24,3.072 1.856,1.28 3.296,2.912 4.32,4.896 1.024,1.984 1.536,4.288 1.536,6.912 0,3.776 -1.056,7.008 -3.168,9.696 -2.048,2.624 -4.8,4.64 -8.256,6.048 -3.392,1.344 -7.136,2.016 -11.232,2.016 z m 52.70399,0 c -6.528,0 -11.808,-2.72 -15.84,-8.16 -3.968,-5.44 -5.952,-13.344 -5.952,-23.712 0,-10.432 1.984,-18.272 5.952,-23.52 4.032,-5.248 9.312,-7.872 15.84,-7.872 6.528,0 11.776,2.656 15.744,7.968 4.032,5.248 6.048,13.056 6.048,23.424 0,10.368 -2.016,18.272 -6.048,23.712 -3.968,5.44 -9.216,8.16 -15.744,8.16 z m 0,-10.944 c 1.6,0 3.04,-0.576 4.32,-1.728 1.28,-1.216 2.272,-3.328 2.976,-6.336 0.768,-3.072 1.152,-7.36 1.152,-12.864 0,-5.568 -0.384,-9.824 -1.152,-12.768 -0.704,-2.944 -1.696,-4.96 -2.976,-6.048 -1.28,-1.088 -2.72,-1.632 -4.32,-1.632 -1.6,0 -3.04,0.544 -4.32,1.632 -1.28,1.088 -2.304,3.104 -3.072,6.048 -0.704,2.944 -1.056,7.2 -1.056,12.768 0,5.504 0.352,9.792 1.056,12.864 0.768,3.008 1.792,5.12 3.072,6.336 1.28,1.152 2.72,1.728 4.32,1.728 z m 53.56798,9.792 v -35.232 c 0,-1.92 0.064,-4.192 0.192,-6.816 0.192,-2.624 0.32,-4.896 0.384,-6.816 h -0.384 c -0.768,1.664 -1.568,3.36 -2.4,5.088 l -2.592,5.184 -8.064,13.248 h 33.024 v 10.752 h -46.56 v -9.696 l 22.272,-36.672 h 17.28 v 60.96 z m -108.71997,-120 v -62.592 h 15.744 l 9.984,27.83999974 c 0.64,1.85599996 1.216,3.74399996 1.728,5.66399996 0.576,1.856 1.152,3.8080001 1.728,5.8560003 h 0.384 c 0.576,-2.0480002 1.12,-4.0000003 1.632,-5.8560003 0.512,-1.92 1.088,-3.808 1.728,-5.66399996 l 9.792,-27.83999974 h 15.744 v 62.592 h -12.96 v -22.944 c 0,-2.0480002 0.096,-4.4480003 0.288,-7.2000003 0.256,-2.816 0.512,-5.6 0.768,-8.352 0.32,-2.816 0.608,-5.2479999 0.864,-7.2959997 h -0.384 l -5.088,16.5119997 -8.832,23.9040003 h -8.256 l -8.736,-23.9040003 -4.896,-16.5119997 h -0.384 c 0.256,2.0479998 0.512,4.4799997 0.768,7.2959997 0.32,2.752 0.576,5.536 0.768,8.352 0.192,2.752 0.288,5.1520001 0.288,7.2000003 v 22.944 z m 69.21592,0 v -8.544 l 27.648,-42.144 h -25.056 v -11.904 h 42.432 v 8.544 l -27.648,42.144 h 27.936 v 11.904 z m -349.84622,121.152 c -3.264,0 -6.24,-0.384 -8.928,-1.152 -2.624,-0.704 -4.96,-1.696 -7.008,-2.976 -2.048,-1.28 -3.808,-2.784 -5.28,-4.512 l 6.528,-8.928 c 1.856,1.792 3.904,3.264 6.144,4.416 2.24,1.152 4.64,1.728 7.2,1.728 2.944,0 5.312,-0.608 7.104,-1.824 1.856,-1.28 2.784,-3.072 2.784,-5.376 0,-1.792 -0.448,-3.328 -1.344,-4.608 -0.896,-1.344 -2.528,-2.368 -4.896,-3.072 -2.304,-0.704 -5.696,-1.056 -10.176,-1.056 v -9.984 c 3.648,0 6.528,-0.352 8.64,-1.056 2.112,-0.704 3.584,-1.664 4.416,-2.88 0.896,-1.216 1.344,-2.624 1.344,-4.224 0,-2.176 -0.672,-3.84 -2.016,-4.992 -1.28,-1.152 -3.104,-1.728 -5.472,-1.728 -2.176,0 -4.16,0.48 -5.952,1.44 -1.728,0.896 -3.552,2.208 -5.472,3.936 l -7.104,-8.64 c 2.816,-2.432 5.792,-4.32 8.928,-5.664 3.136,-1.408 6.56,-2.112 10.272,-2.112 4.16,0 7.808,0.672 10.944,2.016 3.2,1.28 5.664,3.168 7.392,5.664 1.792,2.432 2.688,5.44 2.688,9.024 0,3.136 -0.896,5.824 -2.688,8.064 -1.728,2.24 -4.224,4.064 -7.488,5.472 v 0.384 c 2.304,0.704 4.384,1.728 6.24,3.072 1.856,1.28 3.296,2.912 4.32,4.896 1.024,1.984 1.536,4.288 1.536,6.912 0,3.776 -1.056,7.008 -3.168,9.696 -2.048,2.624 -4.8,4.64 -8.256,6.048 -3.392,1.344 -7.136,2.016 -11.232,2.016 z m 52.70399,0 c -6.528,0 -11.808,-2.72 -15.84,-8.16 -3.968,-5.44 -5.952,-13.344 -5.952,-23.712 0,-10.432 1.984,-18.272 5.952,-23.52 4.032,-5.248 9.312,-7.872 15.84,-7.872 6.528,0 11.776,2.656 15.744,7.968 4.032,5.248 6.048,13.056 6.048,23.424 0,10.368 -2.016,18.272 -6.048,23.712 -3.968,5.44 -9.216,8.16 -15.744,8.16 z m 0,-10.944 c 1.6,0 3.04,-0.576 4.32,-1.728 1.28,-1.216 2.272,-3.328 2.976,-6.336 0.768,-3.072 1.152,-7.36 1.152,-12.864 0,-5.568 -0.384,-9.824 -1.152,-12.768 -0.704,-2.944 -1.696,-4.96 -2.976,-6.048 -1.28,-1.088 -2.72,-1.632 -4.32,-1.632 -1.6,0 -3.04,0.544 -4.32,1.632 -1.28,1.088 -2.304,3.104 -3.072,6.048 -0.704,2.944 -1.056,7.2 -1.056,12.768 0,5.504 0.352,9.792 1.056,12.864 0.768,3.008 1.792,5.12 3.072,6.336 1.28,1.152 2.72,1.728 4.32,1.728 z m 49.05598,10.944 c -3.328,0 -6.336,-0.384 -9.024,-1.152 -2.624,-0.768 -4.96,-1.792 -7.008,-3.072 -2.048,-1.28 -3.872,-2.72 -5.472,-4.32 l 6.336,-8.928 c 1.856,1.664 3.872,3.104 6.048,4.32 2.176,1.152 4.544,1.728 7.104,1.728 2.048,0 3.84,-0.352 5.376,-1.056 1.536,-0.768 2.72,-1.856 3.552,-3.264 0.896,-1.408 1.344,-3.136 1.344,-5.184 0,-3.072 -0.896,-5.408 -2.688,-7.008 -1.792,-1.6 -4.096,-2.4 -6.912,-2.4 -1.728,0 -3.2,0.224 -4.416,0.672 -1.216,0.448 -2.752,1.248 -4.608,2.4 l -6.336,-4.032 1.728,-30.816 h 34.56 v 11.904 h -22.368 l -1.056,11.424 c 1.216,-0.512 2.336,-0.864 3.36,-1.056 1.024,-0.256 2.176,-0.384 3.456,-0.384 3.52,0 6.752,0.672 9.696,2.016 2.944,1.344 5.28,3.424 7.008,6.24 1.792,2.816 2.688,6.368 2.688,10.656 0,4.544 -1.056,8.416 -3.168,11.616 -2.048,3.136 -4.768,5.536 -8.16,7.2 -3.392,1.664 -7.072,2.496 -11.04,2.496 z M -796.124,34.10984 v -62.592 h 15.744 l 9.984,27.83999974 c 0.64,1.85599996 1.216,3.74399996 1.728,5.66399996 0.576,1.856 1.152,3.8080001 1.728,5.8560003 h 0.384 c 0.576,-2.0480002 1.12,-4.0000003 1.632,-5.8560003 0.512,-1.92 1.088,-3.808 1.728,-5.66399996 l 9.792,-27.83999974 h 15.744 v 62.592 h -12.96 v -22.944 c 0,-2.0480002 0.096,-4.4480003 0.288,-7.2000003 0.256,-2.816 0.512,-5.6 0.768,-8.352 0.32,-2.816 0.608,-5.2479999 0.864,-7.2959997 h -0.384 l -5.088,16.5119997 -8.832,23.9040003 h -8.256 l -8.736,-23.9040003 -4.896,-16.5119997 h -0.384 c 0.256,2.0479998 0.512,4.4799997 0.768,7.2959997 0.32,2.752 0.576,5.536 0.768,8.352 0.192,2.752 0.288,5.1520001 0.288,7.2000003 v 22.944 z m 69.21592,0 v -8.544 l 27.648,-42.144 h -25.056 v -11.904 h 42.432 v 8.544 l -27.648,42.144 h 27.936 v 11.904 z m -400.50902,600.5555 c -3.264,0 -6.24,-0.384 -8.928,-1.152 -2.624,-0.704 -4.96,-1.696 -7.008,-2.976 -2.048,-1.28 -3.808,-2.784 -5.28,-4.512 l 6.528,-8.928 c 1.856,1.792 3.904,3.264 6.144,4.416 2.24,1.152 4.64,1.728 7.2,1.728 2.944,0 5.312,-0.608 7.104,-1.824 1.856,-1.28 2.784,-3.072 2.784,-5.376 0,-1.792 -0.448,-3.328 -1.344,-4.608 -0.896,-1.344 -2.528,-2.368 -4.896,-3.072 -2.304,-0.704 -5.696,-1.056 -10.176,-1.056 v -9.984 c 3.648,0 6.528,-0.352 8.64,-1.056 2.112,-0.704 3.584,-1.664 4.416,-2.88 0.896,-1.216 1.344,-2.624 1.344,-4.224 0,-2.176 -0.672,-3.84 -2.016,-4.992 -1.28,-1.152 -3.104,-1.728 -5.472,-1.728 -2.176,0 -4.16,0.48 -5.952,1.44 -1.728,0.896 -3.552,2.208 -5.472,3.936 l -7.104,-8.64 c 2.816,-2.432 5.792,-4.32 8.928,-5.664 3.136,-1.408 6.56,-2.112 10.272,-2.112 4.16,0 7.808,0.672 10.944,2.016 3.2,1.28 5.664,3.168 7.392,5.664 1.792,2.432 2.688,5.44 2.688,9.024 0,3.136 -0.896,5.824 -2.688,8.064 -1.728,2.24 -4.224,4.064 -7.488,5.472 v 0.384 c 2.304,0.704 4.384,1.728 6.24,3.072 1.856,1.28 3.296,2.912 4.32,4.896 1.024,1.984 1.536,4.288 1.536,6.912 0,3.776 -1.056,7.008 -3.168,9.696 -2.048,2.624 -4.8,4.64 -8.256,6.048 -3.392,1.344 -7.136,2.016 -11.232,2.016 z m 52.704,0 c -6.528,0 -11.808,-2.72 -15.84,-8.16 -3.968,-5.44 -5.952,-13.344 -5.952,-23.712 0,-10.432 1.984,-18.272 5.952,-23.52 4.032,-5.248 9.312,-7.872 15.84,-7.872 6.528,0 11.776,2.656 15.744,7.968 4.032,5.248 6.048,13.056 6.048,23.424 0,10.368 -2.016,18.272 -6.048,23.712 -3.968,5.44 -9.216,8.16 -15.744,8.16 z m 0,-10.944 c 1.6,0 3.04,-0.576 4.32,-1.728 1.28,-1.216 2.272,-3.328 2.976,-6.336 0.768,-3.072 1.152,-7.36 1.152,-12.864 0,-5.568 -0.384,-9.824 -1.152,-12.768 -0.704,-2.944 -1.696,-4.96 -2.976,-6.048 -1.28,-1.088 -2.72,-1.632 -4.32,-1.632 -1.6,0 -3.04,0.544 -4.32,1.632 -1.28,1.088 -2.304,3.104 -3.072,6.048 -0.704,2.944 -1.056,7.2 -1.056,12.768 0,5.504 0.352,9.792 1.056,12.864 0.768,3.008 1.792,5.12 3.072,6.336 1.28,1.152 2.72,1.728 4.32,1.728 z m 52.32,10.944 c -2.944,0 -5.792,-0.576 -8.544,-1.728 -2.752,-1.152 -5.216,-2.944 -7.392,-5.376 -2.176,-2.432 -3.904,-5.536 -5.184,-9.312 -1.28,-3.84 -1.92,-8.448 -1.92,-13.824 0,-5.696 0.672,-10.624 2.016,-14.784 1.344,-4.16 3.168,-7.584 5.472,-10.272 2.304,-2.688 4.928,-4.672 7.872,-5.952 2.944,-1.344 6.048,-2.016 9.312,-2.016 4.032,0 7.52,0.736 10.464,2.208 2.944,1.408 5.376,3.104 7.296,5.088 l -7.392,8.448 c -1.088,-1.152 -2.496,-2.144 -4.224,-2.976 -1.728,-0.896 -3.488,-1.344 -5.28,-1.344 -2.304,0 -4.448,0.672 -6.432,2.016 -1.92,1.344 -3.456,3.616 -4.608,6.816 -1.088,3.136 -1.632,7.392 -1.632,12.768 0,5.056 0.448,9.024 1.344,11.904 0.96,2.816 2.208,4.832 3.744,6.048 1.536,1.152 3.136,1.728 4.8,1.728 1.408,0 2.688,-0.352 3.84,-1.056 1.152,-0.704 2.08,-1.76 2.784,-3.168 0.704,-1.472 1.056,-3.36 1.056,-5.664 0,-2.176 -0.352,-3.904 -1.056,-5.184 -0.704,-1.28 -1.664,-2.208 -2.88,-2.784 -1.152,-0.576 -2.496,-0.864 -4.032,-0.864 -1.6,0 -3.264,0.48 -4.992,1.44 -1.664,0.96 -3.168,2.656 -4.512,5.088 l -0.672,-9.216 c 1.6,-2.368 3.648,-4.16 6.144,-5.376 2.496,-1.28 4.736,-1.92 6.72,-1.92 3.456,0 6.56,0.672 9.312,2.016 2.752,1.344 4.896,3.424 6.432,6.24 1.6,2.752 2.4,6.272 2.4,10.56 0,4.224 -0.928,7.872 -2.784,10.944 -1.792,3.072 -4.224,5.44 -7.296,7.104 -3.072,1.6 -6.464,2.4 -10.176,2.4 z m -107.472,-121.152 v -62.592 h 15.744 l 9.984,27.84 c 0.64,1.856 1.216,3.744 1.728,5.664 0.576,1.856 1.152,3.808 1.728,5.856 h 0.384 c 0.576,-2.048 1.12,-4 1.632,-5.856 0.512,-1.92 1.088,-3.808 1.728,-5.664 l 9.792,-27.84 h 15.744 v 62.592 h -12.96 v -22.944 c 0,-2.048 0.096,-4.448 0.288,-7.2 0.256,-2.816 0.512,-5.6 0.768,-8.352 0.32,-2.816 0.608,-5.248 0.864,-7.296 h -0.384 l -5.088,16.512 -8.832,23.904 h -8.256 l -8.736,-23.904 -4.896,-16.512 h -0.384 c 0.256,2.048 0.512,4.48 0.768,7.296 0.32,2.752 0.576,5.536 0.768,8.352 0.192,2.752 0.288,5.152 0.288,7.2 v 22.944 z m 69.2159,0 v -8.544 l 27.648,-42.144 h -25.056 v -11.904 h 42.432 v 8.544 l -27.648,42.144 h 27.936 v 11.904 z M 148.3847,756.56059 c -3.264,0 -6.24,-0.384 -8.928,-1.152 -2.624,-0.704 -4.96,-1.696 -7.008,-2.976 -2.048,-1.28 -3.808,-2.784 -5.28,-4.512 l 6.528,-8.928 c 1.856,1.792 3.904,3.264 6.144,4.416 2.24,1.152 4.64,1.728 7.2,1.728 2.944,0 5.312,-0.608 7.104,-1.824 1.856,-1.28 2.784,-3.072 2.784,-5.376 0,-1.792 -0.448,-3.328 -1.344,-4.608 -0.896,-1.344 -2.528,-2.368 -4.896,-3.072 -2.304,-0.704 -5.696,-1.056 -10.176,-1.056 v -9.984 c 3.648,0 6.528,-0.352 8.64,-1.056 2.112,-0.704 3.584,-1.664 4.416,-2.88 0.896,-1.216 1.344,-2.624 1.344,-4.224 0,-2.176 -0.672,-3.84 -2.016,-4.992 -1.28,-1.152 -3.104,-1.728 -5.472,-1.728 -2.176,0 -4.16,0.48 -5.952,1.44 -1.728,0.896 -3.552,2.208 -5.472,3.936 l -7.104,-8.64 c 2.816,-2.432 5.792,-4.32 8.928,-5.664 3.136,-1.408 6.56,-2.112 10.272,-2.112 4.16,0 7.808,0.672 10.944,2.016 3.2,1.28 5.664,3.168 7.392,5.664 1.792,2.432 2.688,5.44 2.688,9.024 0,3.136 -0.896,5.824 -2.688,8.064 -1.728,2.24 -4.224,4.064 -7.488,5.472 v 0.384 c 2.304,0.704 4.384,1.728 6.24,3.072 1.856,1.28 3.296,2.912 4.32,4.896 1.024,1.984 1.536,4.288 1.536,6.912 0,3.776 -1.056,7.008 -3.168,9.696 -2.048,2.624 -4.8,4.64 -8.256,6.048 -3.392,1.344 -7.136,2.016 -11.232,2.016 z m 34.07999,-1.152 v -11.424 h 13.248 v -35.232 h -11.424 v -8.736 c 3.328,-0.64 6.144,-1.408 8.448,-2.304 2.368,-0.896 4.608,-1.984 6.72,-3.264 h 10.368 v 49.536 h 11.424 v 11.424 z m 72.19198,0 v -35.232 c 0,-1.92 0.064,-4.192 0.192,-6.816 0.192,-2.624 0.32,-4.896 0.384,-6.816 h -0.384 c -0.768,1.664 -1.568,3.36 -2.4,5.088 l -2.592,5.184 -8.064,13.248 h 33.024 v 10.752 h -46.56 v -9.696 l 22.272,-36.672 h 17.28 v 60.96 z m -108.71997,-120 v -62.592 h 15.744 l 9.984,27.84 c 0.64,1.856 1.216,3.744 1.728,5.664 0.576,1.856 1.152,3.808 1.728,5.856 h 0.384 c 0.576,-2.048 1.12,-4 1.632,-5.856 0.512,-1.92 1.088,-3.808 1.728,-5.664 l 9.792,-27.84 h 15.744 v 62.592 h -12.96 v -22.944 c 0,-2.048 0.096,-4.448 0.288,-7.2 0.256,-2.816 0.512,-5.6 0.768,-8.352 0.32,-2.816 0.608,-5.248 0.864,-7.296 h -0.384 l -5.088,16.512 -8.832,23.904 h -8.256 l -8.736,-23.904 -4.896,-16.512 h -0.384 c 0.256,2.048 0.512,4.48 0.768,7.296 0.32,2.752 0.576,5.536 0.768,8.352 0.192,2.752 0.288,5.152 0.288,7.2 v 22.944 z m 69.21592,0 v -8.544 l 27.648,-42.144 h -25.056 v -11.904 h 42.432 v 8.544 l -27.648,42.144 h 27.936 v 11.904 z M 690.3973,1402.49 c -3.264,0 -6.24,-0.384 -8.928,-1.152 -2.624,-0.704 -4.96,-1.696 -7.008,-2.976 -2.048,-1.28 -3.808,-2.784 -5.28,-4.512 l 6.528,-8.928 c 1.856,1.792 3.904,3.264 6.144,4.416 2.24,1.152 4.64,1.728 7.2,1.728 2.944,0 5.312,-0.608 7.104,-1.824 1.856,-1.28 2.784,-3.072 2.784,-5.376 0,-1.792 -0.448,-3.328 -1.344,-4.608 -0.896,-1.344 -2.528,-2.368 -4.896,-3.072 -2.304,-0.704 -5.696,-1.056 -10.176,-1.056 v -9.984 c 3.648,0 6.528,-0.352 8.64,-1.056 2.112,-0.704 3.584,-1.664 4.416,-2.88 0.896,-1.216 1.344,-2.624 1.344,-4.224 0,-2.176 -0.672,-3.84 -2.016,-4.992 -1.28,-1.152 -3.104,-1.728 -5.472,-1.728 -2.176,0 -4.16,0.48 -5.952,1.44 -1.728,0.896 -3.552,2.208 -5.472,3.936 l -7.104,-8.64 c 2.816,-2.432 5.792,-4.32 8.928,-5.664 3.136,-1.408 6.56,-2.112 10.272,-2.112 4.16,0 7.808,0.672 10.944,2.016 3.2,1.28 5.664,3.168 7.392,5.664 1.792,2.432 2.688,5.44 2.688,9.024 0,3.136 -0.896,5.824 -2.688,8.064 -1.728,2.24 -4.224,4.064 -7.488,5.472 v 0.384 c 2.304,0.704 4.384,1.728 6.24,3.072 1.856,1.28 3.296,2.912 4.32,4.896 1.024,1.984 1.536,4.288 1.536,6.912 0,3.776 -1.056,7.008 -3.168,9.696 -2.048,2.624 -4.8,4.64 -8.256,6.048 -3.392,1.344 -7.136,2.016 -11.232,2.016 z m 34.07999,-1.152 v -11.424 h 13.248 v -35.232 h -11.424 v -8.736 c 3.328,-0.64 6.144,-1.408 8.448,-2.304 2.368,-0.896 4.608,-1.984 6.72,-3.264 h 10.368 v 49.536 h 11.424 v 11.424 z m 50.68798,0 v -11.424 h 13.248 v -35.232 h -11.424 v -8.736 c 3.328,-0.64 6.144,-1.408 8.448,-2.304 2.368,-0.896 4.608,-1.984 6.72,-3.264 h 10.368 v 49.536 h 11.424 v 11.424 z m -87.21597,-120 v -62.592 h 15.744 l 9.984,27.84 c 0.64,1.856 1.216,3.744 1.728,5.664 0.576,1.856 1.152,3.808 1.728,5.856 h 0.384 c 0.576,-2.048 1.12,-4 1.632,-5.856 0.512,-1.92 1.088,-3.808 1.728,-5.664 l 9.792,-27.84 h 15.744 v 62.592 h -12.96 v -22.944 c 0,-2.048 0.096,-4.448 0.288,-7.2 0.256,-2.816 0.512,-5.6 0.768,-8.352 0.32,-2.816 0.608,-5.248 0.864,-7.296 h -0.384 l -5.088,16.512 -8.832,23.904 h -8.256 l -8.736,-23.904 -4.896,-16.512 h -0.384 c 0.256,2.048 0.512,4.48 0.768,7.296 0.32,2.752 0.576,5.536 0.768,8.352 0.192,2.752 0.288,5.152 0.288,7.2 v 22.944 z m 69.21592,0 v -8.544 l 27.648,-42.144 h -25.056 v -11.904 h 42.432 v 8.544 l -27.648,42.144 h 27.936 v 11.904 z M 395.3178,1402.49 c -3.264,0 -6.24,-0.384 -8.928,-1.152 -2.624,-0.704 -4.96,-1.696 -7.008,-2.976 -2.048,-1.28 -3.808,-2.784 -5.28,-4.512 l 6.528,-8.928 c 1.856,1.792 3.904,3.264 6.144,4.416 2.24,1.152 4.64,1.728 7.2,1.728 2.944,0 5.312,-0.608 7.104,-1.824 1.856,-1.28 2.784,-3.072 2.784,-5.376 0,-1.792 -0.448,-3.328 -1.344,-4.608 -0.896,-1.344 -2.528,-2.368 -4.896,-3.072 -2.304,-0.704 -5.696,-1.056 -10.176,-1.056 v -9.984 c 3.648,0 6.528,-0.352 8.64,-1.056 2.112,-0.704 3.584,-1.664 4.416,-2.88 0.896,-1.216 1.344,-2.624 1.344,-4.224 0,-2.176 -0.672,-3.84 -2.016,-4.992 -1.28,-1.152 -3.104,-1.728 -5.472,-1.728 -2.176,0 -4.16,0.48 -5.952,1.44 -1.728,0.896 -3.552,2.208 -5.472,3.936 l -7.104,-8.64 c 2.816,-2.432 5.792,-4.32 8.928,-5.664 3.136,-1.408 6.56,-2.112 10.272,-2.112 4.16,0 7.808,0.672 10.944,2.016 3.2,1.28 5.664,3.168 7.392,5.664 1.792,2.432 2.688,5.44 2.688,9.024 0,3.136 -0.896,5.824 -2.688,8.064 -1.728,2.24 -4.224,4.064 -7.488,5.472 v 0.384 c 2.304,0.704 4.384,1.728 6.24,3.072 1.856,1.28 3.296,2.912 4.32,4.896 1.024,1.984 1.536,4.288 1.536,6.912 0,3.776 -1.056,7.008 -3.168,9.696 -2.048,2.624 -4.8,4.64 -8.256,6.048 -3.392,1.344 -7.136,2.016 -11.232,2.016 z m 34.07999,-1.152 v -11.424 h 13.248 v -35.232 h -11.424 v -8.736 c 3.328,-0.64 6.144,-1.408 8.448,-2.304 2.368,-0.896 4.608,-1.984 6.72,-3.264 h 10.368 v 49.536 h 11.424 v 11.424 z m 69.31198,1.152 c -6.528,0 -11.808,-2.72 -15.84,-8.16 -3.968,-5.44 -5.952,-13.344 -5.952,-23.712 0,-10.432 1.984,-18.272 5.952,-23.52 4.032,-5.248 9.312,-7.872 15.84,-7.872 6.528,0 11.776,2.656 15.744,7.968 4.032,5.248 6.048,13.056 6.048,23.424 0,10.368 -2.016,18.272 -6.048,23.712 -3.968,5.44 -9.216,8.16 -15.744,8.16 z m 0,-10.944 c 1.6,0 3.04,-0.576 4.32,-1.728 1.28,-1.216 2.272,-3.328 2.976,-6.336 0.768,-3.072 1.152,-7.36 1.152,-12.864 0,-5.568 -0.384,-9.824 -1.152,-12.768 -0.704,-2.944 -1.696,-4.96 -2.976,-6.048 -1.28,-1.088 -2.72,-1.632 -4.32,-1.632 -1.6,0 -3.04,0.544 -4.32,1.632 -1.28,1.088 -2.304,3.104 -3.072,6.048 -0.704,2.944 -1.056,7.2 -1.056,12.768 0,5.504 0.352,9.792 1.056,12.864 0.768,3.008 1.792,5.12 3.072,6.336 1.28,1.152 2.72,1.728 4.32,1.728 z M 392.8698,1281.338 v -62.592 h 15.744 l 9.984,27.84 c 0.64,1.856 1.216,3.744 1.728,5.664 0.576,1.856 1.152,3.808 1.728,5.856 h 0.384 c 0.576,-2.048 1.12,-4 1.632,-5.856 0.512,-1.92 1.088,-3.808 1.728,-5.664 l 9.792,-27.84 h 15.744 v 62.592 h -12.96 v -22.944 c 0,-2.048 0.096,-4.448 0.288,-7.2 0.256,-2.816 0.512,-5.6 0.768,-8.352 0.32,-2.816 0.608,-5.248 0.864,-7.296 h -0.384 l -5.088,16.512 -8.832,23.904 h -8.256 l -8.736,-23.904 -4.896,-16.512 h -0.384 c 0.256,2.048 0.512,4.48 0.768,7.296 0.32,2.752 0.576,5.536 0.768,8.352 0.192,2.752 0.288,5.152 0.288,7.2 v 22.944 z m 69.21592,0 v -8.544 l 27.648,-42.144 h -25.056 v -11.904 h 42.432 v 8.544 l -27.648,42.144 h 27.936 v 11.904 z M -412.2867,756.56059 c -3.264,0 -6.24,-0.384 -8.928,-1.152 -2.624,-0.704 -4.96,-1.696 -7.008,-2.976 -2.048,-1.28 -3.808,-2.784 -5.28,-4.512 l 6.528,-8.928 c 1.856,1.792 3.904,3.264 6.144,4.416 2.24,1.152 4.64,1.728 7.2,1.728 2.944,0 5.312,-0.608 7.104,-1.824 1.856,-1.28 2.784,-3.072 2.784,-5.376 0,-1.792 -0.448,-3.328 -1.344,-4.608 -0.896,-1.344 -2.528,-2.368 -4.896,-3.072 -2.304,-0.704 -5.696,-1.056 -10.176,-1.056 v -9.984 c 3.648,0 6.528,-0.352 8.64,-1.056 2.112,-0.704 3.584,-1.664 4.416,-2.88 0.896,-1.216 1.344,-2.624 1.344,-4.224 0,-2.176 -0.672,-3.84 -2.016,-4.992 -1.28,-1.152 -3.104,-1.728 -5.472,-1.728 -2.176,0 -4.16,0.48 -5.952,1.44 -1.728,0.896 -3.552,2.208 -5.472,3.936 l -7.104,-8.64 c 2.816,-2.432 5.792,-4.32 8.928,-5.664 3.136,-1.408 6.56,-2.112 10.272,-2.112 4.16,0 7.808,0.672 10.944,2.016 3.2,1.28 5.664,3.168 7.392,5.664 1.792,2.432 2.688,5.44 2.688,9.024 0,3.136 -0.896,5.824 -2.688,8.064 -1.728,2.24 -4.224,4.064 -7.488,5.472 v 0.384 c 2.304,0.704 4.384,1.728 6.24,3.072 1.856,1.28 3.296,2.912 4.32,4.896 1.024,1.984 1.536,4.288 1.536,6.912 0,3.776 -1.056,7.008 -3.168,9.696 -2.048,2.624 -4.8,4.64 -8.256,6.048 -3.392,1.344 -7.136,2.016 -11.232,2.016 z m 34.07999,-1.152 v -11.424 h 13.248 v -35.232 h -11.424 v -8.736 c 3.328,-0.64 6.144,-1.408 8.448,-2.304 2.368,-0.896 4.608,-1.984 6.72,-3.264 h 10.368 v 49.536 h 11.424 v 11.424 z m 67.67998,1.152 c -3.328,0 -6.336,-0.384 -9.024,-1.152 -2.624,-0.768 -4.96,-1.792 -7.008,-3.072 -2.048,-1.28 -3.872,-2.72 -5.472,-4.32 l 6.336,-8.928 c 1.856,1.664 3.872,3.104 6.048,4.32 2.176,1.152 4.544,1.728 7.104,1.728 2.048,0 3.84,-0.352 5.376,-1.056 1.536,-0.768 2.72,-1.856 3.552,-3.264 0.896,-1.408 1.344,-3.136 1.344,-5.184 0,-3.072 -0.896,-5.408 -2.688,-7.008 -1.792,-1.6 -4.096,-2.4 -6.912,-2.4 -1.728,0 -3.2,0.224 -4.416,0.672 -1.216,0.448 -2.752,1.248 -4.608,2.4 l -6.336,-4.032 1.728,-30.816 h 34.56 v 11.904 h -22.368 l -1.056,11.424 c 1.216,-0.512 2.336,-0.864 3.36,-1.056 1.024,-0.256 2.176,-0.384 3.456,-0.384 3.52,0 6.752,0.672 9.696,2.016 2.944,1.344 5.28,3.424 7.008,6.24 1.792,2.816 2.688,6.368 2.688,10.656 0,4.544 -1.056,8.416 -3.168,11.616 -2.048,3.136 -4.768,5.536 -8.16,7.2 -3.392,1.664 -7.072,2.496 -11.04,2.496 z m -104.20797,-121.152 v -62.592 h 15.744 l 9.984,27.84 c 0.64,1.856 1.216,3.744 1.728,5.664 0.576,1.856 1.152,3.808 1.728,5.856 h 0.384 c 0.576,-2.048 1.12,-4 1.632,-5.856 0.512,-1.92 1.088,-3.808 1.728,-5.664 l 9.792,-27.84 h 15.744 v 62.592 h -12.96 v -22.944 c 0,-2.048 0.096,-4.448 0.288,-7.2 0.256,-2.816 0.512,-5.6 0.768,-8.352 0.32,-2.816 0.608,-5.248 0.864,-7.296 h -0.384 l -5.088,16.512 -8.832,23.904 h -8.256 l -8.736,-23.904 -4.896,-16.512 h -0.384 c 0.256,2.048 0.512,4.48 0.768,7.296 0.32,2.752 0.576,5.536 0.768,8.352 0.192,2.752 0.288,5.152 0.288,7.2 v 22.944 z m 69.21592,0 v -8.544 l 27.648,-42.144 h -25.056 v -11.904 h 42.432 v 8.544 l -27.648,42.144 h 27.936 v 11.904 z M 35.8529,1402.49 c -3.264,0 -6.24,-0.384 -8.928,-1.152 -2.624,-0.704 -4.96,-1.696 -7.008,-2.976 -2.048,-1.28 -3.808,-2.784 -5.28,-4.512 l 6.528,-8.928 c 1.856,1.792 3.904,3.264 6.144,4.416 2.24,1.152 4.64,1.728 7.2,1.728 2.944,0 5.312,-0.608 7.104,-1.824 1.856,-1.28 2.784,-3.072 2.784,-5.376 0,-1.792 -0.448,-3.328 -1.344,-4.608 -0.896,-1.344 -2.528,-2.368 -4.896,-3.072 -2.304,-0.704 -5.696,-1.056 -10.176,-1.056 v -9.984 c 3.648,0 6.528,-0.352 8.64,-1.056 2.112,-0.704 3.584,-1.664 4.416,-2.88 0.896,-1.216 1.344,-2.624 1.344,-4.224 0,-2.176 -0.672,-3.84 -2.016,-4.992 -1.28,-1.152 -3.104,-1.728 -5.472,-1.728 -2.176,0 -4.16,0.48 -5.952,1.44 -1.728,0.896 -3.552,2.208 -5.472,3.936 l -7.104,-8.64 c 2.816,-2.432 5.792,-4.32 8.928,-5.664 3.136,-1.408 6.56,-2.112 10.272,-2.112 4.16,0 7.808,0.672 10.944,2.016 3.2,1.28 5.664,3.168 7.392,5.664 1.792,2.432 2.688,5.44 2.688,9.024 0,3.136 -0.896,5.824 -2.688,8.064 -1.728,2.24 -4.224,4.064 -7.488,5.472 v 0.384 c 2.304,0.704 4.384,1.728 6.24,3.072 1.856,1.28 3.296,2.912 4.32,4.896 1.024,1.984 1.536,4.288 1.536,6.912 0,3.776 -1.056,7.008 -3.168,9.696 -2.048,2.624 -4.8,4.64 -8.256,6.048 -3.392,1.344 -7.136,2.016 -11.232,2.016 z m 52.70399,0 c -6.528,0 -11.808,-2.72 -15.84,-8.16 -3.968,-5.44 -5.952,-13.344 -5.952,-23.712 0,-10.432 1.984,-18.272 5.952,-23.52 4.032,-5.248 9.312,-7.872 15.84,-7.872 6.528,0 11.776,2.656 15.744,7.968 4.032,5.248 6.048,13.056 6.048,23.424 0,10.368 -2.016,18.272 -6.048,23.712 -3.968,5.44 -9.216,8.16 -15.744,8.16 z m 0,-10.944 c 1.6,0 3.04,-0.576 4.32,-1.728 1.28,-1.216 2.272,-3.328 2.976,-6.336 0.768,-3.072 1.152,-7.36 1.152,-12.864 0,-5.568 -0.384,-9.824 -1.152,-12.768 -0.704,-2.944 -1.696,-4.96 -2.976,-6.048 -1.28,-1.088 -2.72,-1.632 -4.32,-1.632 -1.6,0 -3.04,0.544 -4.32,1.632 -1.28,1.088 -2.304,3.104 -3.072,6.048 -0.704,2.944 -1.056,7.2 -1.056,12.768 0,5.504 0.352,9.792 1.056,12.864 0.768,3.008 1.792,5.12 3.072,6.336 1.28,1.152 2.72,1.728 4.32,1.728 z m 47.32798,10.944 c -4.032,0 -7.52,-0.736 -10.464,-2.208 -2.944,-1.472 -5.408,-3.168 -7.392,-5.088 l 7.488,-8.448 c 1.024,1.152 2.4,2.176 4.128,3.072 1.792,0.832 3.552,1.248 5.28,1.248 2.432,0 4.576,-0.672 6.432,-2.016 1.92,-1.344 3.424,-3.584 4.512,-6.72 1.152,-3.2 1.728,-7.488 1.728,-12.864 0,-5.056 -0.48,-8.992 -1.44,-11.808 -0.896,-2.88 -2.112,-4.896 -3.648,-6.048 -1.472,-1.216 -3.072,-1.824 -4.8,-1.824 -1.344,0 -2.624,0.352 -3.84,1.056 -1.152,0.704 -2.08,1.76 -2.784,3.168 -0.704,1.408 -1.056,3.296 -1.056,5.664 0,2.112 0.352,3.84 1.056,5.184 0.704,1.28 1.664,2.208 2.88,2.784 1.216,0.576 2.592,0.864 4.128,0.864 1.6,0 3.232,-0.48 4.896,-1.44 1.664,-1.024 3.168,-2.72 4.512,-5.088 l 0.672,9.216 c -1.536,2.24 -3.552,4.032 -6.048,5.376 -2.496,1.28 -4.768,1.92 -6.816,1.92 -3.456,0 -6.56,-0.672 -9.312,-2.016 -2.752,-1.344 -4.928,-3.392 -6.528,-6.144 -1.536,-2.816 -2.304,-6.368 -2.304,-10.656 0,-4.224 0.928,-7.872 2.784,-10.944 1.856,-3.072 4.32,-5.408 7.392,-7.008 3.072,-1.664 6.432,-2.496 10.08,-2.496 3.008,0 5.888,0.576 8.64,1.728 2.752,1.152 5.184,2.944 7.296,5.376 2.176,2.432 3.904,5.568 5.184,9.408 1.344,3.776 2.016,8.352 2.016,13.728 0,5.696 -0.704,10.624 -2.112,14.784 -1.344,4.16 -3.168,7.584 -5.472,10.272 -2.304,2.688 -4.928,4.704 -7.872,6.048 -2.944,1.28 -6.016,1.92 -9.216,1.92 z M 33.4049,1281.338 v -62.592 h 15.744 l 9.984,27.84 c 0.64,1.856 1.216,3.744 1.728,5.664 0.576,1.856 1.152,3.808 1.728,5.856 h 0.384 c 0.576,-2.048 1.12,-4 1.632,-5.856 0.512,-1.92 1.088,-3.808 1.728,-5.664 l 9.792,-27.84 h 15.744 v 62.592 h -12.96 v -22.944 c 0,-2.048 0.096,-4.448 0.288,-7.2 0.256,-2.816 0.512,-5.6 0.768,-8.352 0.32,-2.816 0.608,-5.248 0.864,-7.296 h -0.384 l -5.088,16.512 -8.832,23.904 h -8.256 l -8.736,-23.904 -4.896,-16.512 h -0.384 c 0.256,2.048 0.512,4.48 0.768,7.296 0.32,2.752 0.576,5.536 0.768,8.352 0.192,2.752 0.288,5.152 0.288,7.2 v 22.944 z m 69.21592,0 v -8.544 l 27.648,-42.144 h -25.056 v -11.904 h 42.432 v 8.544 l -27.648,42.144 h 27.936 v 11.904 z m -965.52863,-197.3984 v -2.912 c 1.70667,-1.5147 3.22133,-2.9333 4.544,-4.256 1.344,-1.3227 2.38933,-2.5493 3.136,-3.68 0.768,-1.1307 1.152,-2.1653 1.152,-3.104 0,-1.0027 -0.256,-1.76 -0.768,-2.272 -0.512,-0.5333 -1.216,-0.8 -2.112,-0.8 -0.72533,0 -1.38667,0.2133 -1.984,0.64 -0.576,0.4053 -1.12,0.8853 -1.632,1.44 l -2.464,-2.432 c 0.98133,-1.1093 1.984,-1.9413 3.008,-2.496 1.04533,-0.5547 2.28267,-0.832 3.712,-0.832 1.32267,0 2.48533,0.2667 3.488,0.8 1.024,0.5333 1.81333,1.28 2.368,2.24 0.576,0.96 0.864,2.0907 0.864,3.392 0,1.216 -0.33067,2.4107 -0.992,3.584 -0.64,1.152 -1.49333,2.304 -2.56,3.456 -1.06667,1.152 -2.19733,2.3253 -3.392,3.52 0.512,-0.064 1.088,-0.1173 1.728,-0.16 0.64,-0.064 1.19467,-0.096 1.664,-0.096 h 4.544 v 3.968 z m 24.15999,0.384 c -2.176,0 -3.936,-0.9067 -5.28,-2.72 -1.32267,-1.8133 -1.984,-4.448 -1.984,-7.904 0,-3.4773 0.66133,-6.0907 1.984,-7.84 1.344,-1.7493 3.104,-2.624 5.28,-2.624 2.176,0 3.92533,0.8853 5.248,2.656 1.344,1.7493 2.016,4.352 2.016,7.808 0,3.456 -0.672,6.0907 -2.016,7.904 -1.32267,1.8133 -3.072,2.72 -5.248,2.72 z m 0,-3.648 c 0.53333,0 1.01333,-0.192 1.44,-0.576 0.42667,-0.4053 0.75733,-1.1093 0.992,-2.112 0.256,-1.024 0.384,-2.4533 0.384,-4.288 0,-1.856 -0.128,-3.2747 -0.384,-4.256 -0.23467,-0.9813 -0.56533,-1.6533 -0.992,-2.016 -0.42667,-0.3627 -0.90667,-0.544 -1.44,-0.544 -0.53333,0 -1.01333,0.1813 -1.44,0.544 -0.42667,0.3627 -0.768,1.0347 -1.024,2.016 -0.23467,0.9813 -0.352,2.4 -0.352,4.256 0,1.8347 0.11733,3.264 0.352,4.288 0.256,1.0027 0.59733,1.7067 1.024,2.112 0.42667,0.384 0.90667,0.576 1.44,0.576 z m 13.248,3.264 c 0.10667,-1.6853 0.27733,-3.232 0.512,-4.64 0.23467,-1.4293 0.56533,-2.784 0.992,-4.064 0.448,-1.28 1.01333,-2.5387 1.696,-3.776 0.68267,-1.2373 1.52533,-2.528 2.528,-3.872 h -9.12 v -3.968 h 14.144 v 2.88 c -1.19467,1.4507 -2.176,2.8053 -2.944,4.064 -0.74667,1.2587 -1.32267,2.5387 -1.728,3.84 -0.40533,1.3013 -0.704,2.72 -0.896,4.256 -0.192,1.536 -0.34133,3.296 -0.448,5.28 z m -31.63199,-40 v -20.864 h 5.248 l 3.328,9.28 c 0.21333,0.6187 0.40533,1.248 0.576,1.888 0.192,0.6187 0.384,1.2693 0.576,1.952 h 0.128 c 0.192,-0.6827 0.37333,-1.3333 0.544,-1.952 0.17067,-0.64 0.36267,-1.2693 0.576,-1.888 l 3.264,-9.28 h 5.248 v 20.864 h -4.32 v -7.648 c 0,-0.6827 0.032,-1.4827 0.096,-2.4 0.0853,-0.9387 0.17067,-1.8667 0.256,-2.784 0.10667,-0.9387 0.20267,-1.7493 0.288,-2.432 h -0.128 l -1.696,5.504 -2.944,7.968 h -2.752 l -2.912,-7.968 -1.632,-5.504 h -0.128 c 0.0853,0.6827 0.17067,1.4933 0.256,2.432 0.10667,0.9173 0.192,1.8453 0.256,2.784 0.064,0.9173 0.096,1.7173 0.096,2.4 v 7.648 z m 23.07197,0 v -2.848 l 9.216,-14.048 h -8.352 v -3.968 h 14.144 v 2.848 l -9.216,14.048 h 9.312 v 3.968 z M -397.6191,1402.49 c -3.264,0 -6.24,-0.384 -8.928,-1.152 -2.624,-0.704 -4.96,-1.696 -7.008,-2.976 -2.048,-1.28 -3.808,-2.784 -5.28,-4.512 l 6.528,-8.928 c 1.856,1.792 3.904,3.264 6.144,4.416 2.24,1.152 4.64,1.728 7.2,1.728 2.944,0 5.312,-0.608 7.104,-1.824 1.856,-1.28 2.784,-3.072 2.784,-5.376 0,-1.792 -0.448,-3.328 -1.344,-4.608 -0.896,-1.344 -2.528,-2.368 -4.896,-3.072 -2.304,-0.704 -5.696,-1.056 -10.176,-1.056 v -9.984 c 3.648,0 6.528,-0.352 8.64,-1.056 2.112,-0.704 3.584,-1.664 4.416,-2.88 0.896,-1.216 1.344,-2.624 1.344,-4.224 0,-2.176 -0.672,-3.84 -2.016,-4.992 -1.28,-1.152 -3.104,-1.728 -5.472,-1.728 -2.176,0 -4.16,0.48 -5.952,1.44 -1.728,0.896 -3.552,2.208 -5.472,3.936 l -7.104,-8.64 c 2.816,-2.432 5.792,-4.32 8.928,-5.664 3.136,-1.408 6.56,-2.112 10.272,-2.112 4.16,0 7.808,0.672 10.944,2.016 3.2,1.28 5.664,3.168 7.392,5.664 1.792,2.432 2.688,5.44 2.688,9.024 0,3.136 -0.896,5.824 -2.688,8.064 -1.728,2.24 -4.224,4.064 -7.488,5.472 v 0.384 c 2.304,0.704 4.384,1.728 6.24,3.072 1.856,1.28 3.296,2.912 4.32,4.896 1.024,1.984 1.536,4.288 1.536,6.912 0,3.776 -1.056,7.008 -3.168,9.696 -2.048,2.624 -4.8,4.64 -8.256,6.048 -3.392,1.344 -7.136,2.016 -11.232,2.016 z m 52.70399,0 c -6.528,0 -11.808,-2.72 -15.84,-8.16 -3.968,-5.44 -5.952,-13.344 -5.952,-23.712 0,-10.432 1.984,-18.272 5.952,-23.52 4.032,-5.248 9.312,-7.872 15.84,-7.872 6.528,0 11.776,2.656 15.744,7.968 4.032,5.248 6.048,13.056 6.048,23.424 0,10.368 -2.016,18.272 -6.048,23.712 -3.968,5.44 -9.216,8.16 -15.744,8.16 z m 0,-10.944 c 1.6,0 3.04,-0.576 4.32,-1.728 1.28,-1.216 2.272,-3.328 2.976,-6.336 0.768,-3.072 1.152,-7.36 1.152,-12.864 0,-5.568 -0.384,-9.824 -1.152,-12.768 -0.704,-2.944 -1.696,-4.96 -2.976,-6.048 -1.28,-1.088 -2.72,-1.632 -4.32,-1.632 -1.6,0 -3.04,0.544 -4.32,1.632 -1.28,1.088 -2.304,3.104 -3.072,6.048 -0.704,2.944 -1.056,7.2 -1.056,12.768 0,5.504 0.352,9.792 1.056,12.864 0.768,3.008 1.792,5.12 3.072,6.336 1.28,1.152 2.72,1.728 4.32,1.728 z m 50.59198,10.944 c -4.032,0 -7.68,-0.704 -10.944,-2.112 -3.2,-1.408 -5.728,-3.36 -7.584,-5.856 -1.792,-2.56 -2.688,-5.472 -2.688,-8.736 0,-2.496 0.448,-4.64 1.344,-6.432 0.96,-1.856 2.208,-3.488 3.744,-4.896 1.6,-1.408 3.36,-2.624 5.28,-3.648 v -0.384 c -2.304,-1.792 -4.256,-3.84 -5.856,-6.144 -1.536,-2.304 -2.304,-5.056 -2.304,-8.256 0,-3.456 0.832,-6.432 2.496,-8.928 1.664,-2.56 3.968,-4.512 6.912,-5.856 2.944,-1.344 6.304,-2.016 10.08,-2.016 5.632,0 10.112,1.536 13.44,4.608 3.392,3.008 5.088,7.04 5.088,12.096 0,1.92 -0.384,3.744 -1.152,5.472 -0.704,1.664 -1.664,3.168 -2.88,4.512 -1.216,1.28 -2.528,2.4 -3.936,3.36 v 0.384 c 1.92,1.024 3.68,2.272 5.28,3.744 1.6,1.408 2.88,3.136 3.84,5.184 0.96,1.984 1.44,4.32 1.44,7.008 0,3.2 -0.896,6.08 -2.688,8.64 -1.792,2.496 -4.32,4.512 -7.584,6.048 -3.2,1.472 -6.976,2.208 -11.328,2.208 z m 3.84,-36.672 c 1.216,-1.408 2.144,-2.848 2.784,-4.32 0.64,-1.472 0.96,-3.008 0.96,-4.608 0,-1.6 -0.288,-2.976 -0.864,-4.128 -0.576,-1.152 -1.44,-2.048 -2.592,-2.688 -1.088,-0.704 -2.4,-1.056 -3.936,-1.056 -1.856,0 -3.456,0.608 -4.8,1.824 -1.344,1.152 -2.016,2.88 -2.016,5.184 0,1.664 0.448,3.072 1.344,4.224 0.896,1.152 2.112,2.176 3.648,3.072 1.6,0.896 3.424,1.728 5.472,2.496 z m -3.552,26.88 c 1.536,0 2.912,-0.256 4.128,-0.768 1.28,-0.576 2.272,-1.408 2.976,-2.496 0.704,-1.152 1.056,-2.592 1.056,-4.32 0,-1.792 -0.544,-3.264 -1.632,-4.416 -1.024,-1.216 -2.528,-2.272 -4.512,-3.168 -1.92,-0.96 -4.16,-1.984 -6.72,-3.072 -1.344,1.216 -2.464,2.688 -3.36,4.416 -0.896,1.664 -1.344,3.424 -1.344,5.28 0,1.792 0.416,3.328 1.248,4.608 0.896,1.28 2.048,2.272 3.456,2.976 1.472,0.64 3.04,0.96 4.704,0.96 z m -106.03197,-111.36 v -62.592 h 15.744 l 9.984,27.84 c 0.64,1.856 1.216,3.744 1.728,5.664 0.576,1.856 1.152,3.808 1.728,5.856 h 0.384 c 0.576,-2.048 1.12,-4 1.632,-5.856 0.512,-1.92 1.088,-3.808 1.728,-5.664 l 9.792,-27.84 h 15.744 v 62.592 h -12.96 v -22.944 c 0,-2.048 0.096,-4.448 0.288,-7.2 0.256,-2.816 0.512,-5.6 0.768,-8.352 0.32,-2.816 0.608,-5.248 0.864,-7.296 h -0.384 l -5.088,16.512 -8.832,23.904 h -8.256 l -8.736,-23.904 -4.896,-16.512 h -0.384 c 0.256,2.048 0.512,4.48 0.768,7.296 0.32,2.752 0.576,5.536 0.768,8.352 0.192,2.752 0.288,5.152 0.288,7.2 v 22.944 z m 69.21592,0 v -8.544 l 27.648,-42.144 h -25.056 v -11.904 h 42.432 v 8.544 l -27.648,42.144 h 27.936 v 11.904 z" style="font-size:96px;font-family:'Source Sans 3';-inkscape-font-specification:'Source Sans 3, @wght=700';font-variation-settings:'wght' 700;text-align:center;white-space:pre;display:inline;opacity:1;fill:#bec3c6;stroke-width:55" transform="matrix(0.02479171,0,0,0.02479171,32.231835,222.82367)"/>
  </g>
</svg>
