<svg width="3000" height="4100" viewBox="0 0 3000 4100" version="1.1" id="svg1" xml:space="preserve" xmlns="http://www.w3.org/2000/svg">
  <defs id="defs1">
    <linearGradient id="swatch446">
      <stop style="stop-color:#4c5a5f;stop-opacity:1" offset="0" id="stop446"/>
    </linearGradient>
    <marker style="overflow:visible" id="Triangle" refX="0" refY="0" orient="auto-start-reverse" markerWidth="1" markerHeight="1" viewBox="0 0 1 1" preserveAspectRatio="xMidYMid">
      <path transform="scale(0.5)" style="fill:context-stroke;fill-rule:evenodd;stroke:context-stroke;stroke-width:1pt" d="M 5.77,0 -2.88,5 V -5 Z" id="path597"/>
    </marker>
    <filter style="color-interpolation-filters:sRGB" id="filter65" x="-0.10076399" y="-0.10076398" width="1.201528" height="1.201528">
      <feFlood result="flood" flood-opacity="0.396078" flood-color="rgb(0,0,0)" id="feFlood64"/>
      <feGaussianBlur result="blur" in="SourceGraphic" stdDeviation="3.000000" id="feGaussianBlur64"/>
      <feOffset result="offset" in="blur" dx="0.000000" dy="0.000000" id="feOffset64"/>
      <feComposite result="comp1" operator="in" in="flood" in2="offset" id="feComposite64"/>
      <feComposite result="comp2" operator="over" in="SourceGraphic" in2="comp1" id="feComposite65"/>
    </filter>
    <filter style="color-interpolation-filters:sRGB" id="filter182-2-9" x="-0.10334908" y="-0.071999997" width="1.2066982" height="1.1440001">
      <feFlood result="flood" flood-opacity="0.396078" flood-color="rgb(0,0,0)" id="feFlood181-9-2"/>
      <feGaussianBlur result="blur" in="SourceGraphic" stdDeviation="3.000000" id="feGaussianBlur181-8-4"/>
      <feOffset result="offset" in="blur" dx="0.000000" dy="0.000000" id="feOffset181-4-8"/>
      <feComposite result="comp1" operator="in" in="flood" in2="offset" id="feComposite181-5-5"/>
      <feComposite result="comp2" operator="over" in="SourceGraphic" in2="comp1" id="feComposite182-1-8"/>
    </filter>
    <rect x="159.09903" y="-46.923126" width="532.995" height="528.08154" id="rect405"/>
    <filter style="color-interpolation-filters:sRGB" id="filter15-2" x="-0.15104346" y="-0.071999989" width="1.3020869" height="1.1440001">
      <feFlood result="flood" flood-opacity="0.396078" flood-color="rgb(0,0,0)" id="feFlood13-1"/>
      <feGaussianBlur result="blur" in="SourceGraphic" stdDeviation="3.000000" id="feGaussianBlur13-9"/>
      <feOffset result="offset" in="blur" dx="0.000000" dy="0.000000" id="feOffset13-6"/>
      <feComposite result="comp1" operator="in" in="flood" in2="offset" id="feComposite14-1"/>
      <feComposite result="comp2" operator="over" in="SourceGraphic" in2="comp1" id="feComposite15-3"/>
    </filter>
    <filter style="color-interpolation-filters:sRGB" id="filter17-2" x="-0.193" y="-0.071999989" width="1.386" height="1.1440001">
      <feFlood result="flood" flood-opacity="0.396078" flood-color="rgb(0,0,0)" id="feFlood15-7"/>
      <feGaussianBlur result="blur" in="SourceGraphic" stdDeviation="3.000000" id="feGaussianBlur15-1"/>
      <feOffset result="offset" in="blur" dx="0.000000" dy="0.000000" id="feOffset15-4"/>
      <feComposite result="comp1" operator="in" in="flood" in2="offset" id="feComposite16-05"/>
      <feComposite result="comp2" operator="over" in="SourceGraphic" in2="comp1" id="feComposite17-0"/>
    </filter>
    <rect x="159.09903" y="-46.923126" width="532.995" height="528.08154" id="rect188"/>
    <rect x="159.09903" y="-46.923126" width="532.995" height="528.08154" id="rect189"/>
    <rect x="159.09903" y="-46.923126" width="532.995" height="528.08154" id="rect190"/>
    <rect x="159.09903" y="-46.923126" width="532.995" height="528.08154" id="rect191"/>
    <rect x="159.09903" y="-46.923126" width="532.995" height="528.08154" id="rect192"/>
    <rect x="159.09903" y="-46.923126" width="532.995" height="528.08154" id="rect193"/>
    <rect x="159.09903" y="-46.923126" width="532.995" height="528.08154" id="rect461"/>
    <rect x="159.09903" y="-46.923126" width="532.995" height="528.08154" id="rect463"/>
    <rect x="159.09903" y="-46.923126" width="532.995" height="528.08154" id="rect464"/>
    <rect x="159.09903" y="-46.923126" width="532.995" height="528.08154" id="rect465"/>
    <rect x="159.09903" y="-46.923126" width="532.995" height="528.08154" id="rect648"/>
    <rect x="159.09903" y="-46.923126" width="532.995" height="528.08154" id="rect649"/>
    <rect x="159.09903" y="-46.923126" width="532.995" height="528.08154" id="rect650"/>
    <rect x="159.09903" y="-46.923126" width="532.995" height="528.08154" id="rect655"/>
    <rect x="159.09903" y="-46.923126" width="532.995" height="528.08154" id="rect844"/>
    <rect x="159.09903" y="-46.923126" width="532.995" height="528.08154" id="rect845"/>
    <rect x="159.09903" y="-46.923126" width="532.995" height="528.08154" id="rect846"/>
    <rect x="159.09903" y="-46.923126" width="532.995" height="528.08154" id="rect847"/>
    <rect x="159.09903" y="-46.923126" width="532.995" height="528.08154" id="rect859"/>
    <rect x="159.09903" y="-46.923126" width="532.995" height="528.08154" id="rect482"/>
    <rect x="159.09903" y="-46.923126" width="532.995" height="528.08154" id="rect484"/>
    <rect x="159.09903" y="-46.923126" width="532.995" height="528.08154" id="rect595"/>
    <rect x="159.09903" y="-46.923126" width="532.995" height="528.08154" id="rect596"/>
    <rect x="159.09903" y="-46.923126" width="532.995" height="528.08154" id="rect598"/>
    <rect x="159.09903" y="-46.923126" width="532.995" height="528.08154" id="rect600"/>
    <rect x="159.09903" y="-46.923126" width="532.995" height="528.08154" id="rect602"/>
    <rect x="159.09903" y="-46.923126" width="532.995" height="528.08154" id="rect610"/>
    <rect x="159.09903" y="-46.923126" width="532.995" height="528.08154" id="rect612"/>
    <rect x="159.09903" y="-46.923126" width="532.995" height="528.08154" id="rect614"/>
    <rect x="159.09903" y="-46.923126" width="532.995" height="528.08154" id="rect616"/>
    <rect x="159.09903" y="-46.923126" width="532.995" height="528.08154" id="rect618"/>
    <rect x="159.09903" y="-46.923126" width="532.995" height="528.08154" id="rect620"/>
    <rect x="159.09903" y="-46.923126" width="532.995" height="528.08154" id="rect623"/>
  </defs>
  <g id="floor_1" transform="matrix(40.336064,0,0,40.336064,9.0369973,-8773.6905)" style="display:inline;opacity:1">
    <path id="path45" style="font-variation-settings:'wdth' 70,'wght' 600;display:inline;opacity:1;fill:#4c5a5f;fill-opacity:1;stroke:none;stroke-width:.487874" d="m 1.1212466,245.97186 v 35.10316 H 19.614216 v 37.24436 h 5.760199 v -37.24431 h 15.226807 l 1.2e-5,1.49999 h 32.23626 l -0.0383,-26.21911 h -6.520711 v -10.38407 h -6.983 l -10e-7,10.48574 H 40.161936 v -10.48574 z"/>
    <g id="rooms_1" style="display:inline;opacity:1" transform="matrix(0.02439371,0,0,0.02439371,-0.02443957,255.98706)">
      <rect style="font-variation-settings:'wdth' 70,'wght' 600;display:inline;opacity:1;fill:#1b2022;fill-opacity:1;stroke-width:169.608;stroke-dasharray:none" id="rect51" width="188.1904" height="195.61456" x="1041.2047" y="1173.8719" transform="translate(-4.1005817e-8,-3.5908303e-5)"/>
      <rect style="font-variation-settings:'wdth' 70,'wght' 600;display:inline;opacity:1;fill:#1b2022;fill-opacity:1;stroke:none;stroke-width:13.8214;stroke-linecap:butt;stroke-linejoin:miter;stroke-dasharray:none;stroke-opacity:1" id="rect52" width="268.17389" height="425.68652" x="2718.0337" y="-410.56421"/>
      <path style="font-variation-settings:'wdth' 70,'wght' 600;display:inline;opacity:1;fill:#454c7f;fill-opacity:1;stroke:none;stroke-width:14.819;stroke-dasharray:none" d="M 1229.3951,1173.8719 H 1041.2047 V 1028.46 h 525.5788 v 358.812 h -337.3884 z" id="HB104" transform="translate(-4.1005817e-8,-3.5908303e-5)"/>
      <rect style="font-variation-settings:'wdth' 70,'wght' 600;display:inline;opacity:1;fill:#454c7f;fill-opacity:1;stroke-width:572.005;stroke-dasharray:none" id="HB106-2" width="758.10327" height="552.30225" x="46.967369" y="1405.0575"/>
      <rect style="font-variation-settings:'wdth' 70,'wght' 600;display:inline;opacity:1;fill:#454c7f;fill-opacity:1;stroke-width:583.657;stroke-dasharray:none" id="HB106-1" width="758.10327" height="575.03345" x="46.967369" y="1957.3597" transform="translate(-4.1005817e-8,-3.5908303e-5)"/>
      <rect style="font-variation-settings:'wdth' 70,'wght' 600;display:inline;opacity:1;fill:#454c7f;fill-opacity:1;stroke-width:520.656;stroke-dasharray:none" id="HB107" width="628.10822" height="552.30035" x="1041.2047" y="1405.0575"/>
      <rect style="font-variation-settings:'wdth' 70,'wght' 600;display:inline;opacity:1;fill:#454c7f;fill-opacity:1;stroke-width:531.265;stroke-dasharray:none" id="HB108" width="628.10822" height="575.03741" x="1041.2047" y="1957.3578"/>
      <rect style="font-variation-settings:'wdth' 70,'wght' 600;display:inline;opacity:1;fill:#454c7f;fill-opacity:1;stroke-width:198.013;stroke-dasharray:none" id="HB11" width="179.49779" height="279.53326" x="2784.6948" y="1089.9532"/>
      <rect style="font-variation-settings:'wdth' 70,'wght' 600;display:inline;opacity:1;fill:#454c7f;fill-opacity:1;stroke-width:200.714;stroke-dasharray:none" id="HB12" width="184.42914" height="279.53326" x="2600.2656" y="1089.9532"/>
      <rect style="font-variation-settings:'wdth' 70,'wght' 600;display:inline;opacity:1;fill:#454c7f;fill-opacity:1;stroke-width:200.714;stroke-dasharray:none" id="HB13" width="184.42914" height="279.53326" x="2415.8364" y="1089.9532"/>
      <rect style="font-variation-settings:'wdth' 70,'wght' 600;display:inline;opacity:1;fill:#454c7f;fill-opacity:1;stroke-width:200.714;stroke-dasharray:none" id="HB14" width="184.42914" height="279.53326" x="2231.4072" y="1089.9532"/>
      <rect style="font-variation-settings:'wdth' 70,'wght' 600;display:inline;opacity:1;fill:#454c7f;fill-opacity:1;stroke-width:200.714;stroke-dasharray:none" id="HB15" width="184.42914" height="279.53326" x="2046.978" y="1089.9532"/>
      <rect style="font-variation-settings:'wdth' 70,'wght' 600;display:inline;opacity:1;fill:#454c7f;fill-opacity:1;stroke-width:200.714;stroke-dasharray:none" id="HB16" width="184.42914" height="279.53326" x="1862.5488" y="1089.9532"/>
      <rect style="font-variation-settings:'wdth' 70,'wght' 600;display:inline;opacity:1;fill:#454c7f;fill-opacity:1;stroke-width:197.929;stroke-dasharray:none" id="HB17" width="179.34731" height="279.53326" x="1683.2014" y="1089.9532"/>
    </g>
    <g id="g485" transform="matrix(-0.02439371,0,0,-0.02439371,69.699341,295.13724)" style="display:inline">
      <path style="font-variation-settings:'wdth' 70,'wght' 600;display:inline;opacity:1;fill:#4c5a5f;fill-opacity:1;stroke:none;stroke-width:15.2447;stroke-dasharray:none;stroke-opacity:1" d="m 2053.1982,576.4691 h 296.646 l -1e-4,-154.55217 h -46.1584 v -49.70747 h 63.4358 V 217.65729 h -313.9233 z" id="path348" transform="translate(-2.3747411e-5)"/>
      <rect style="font-variation-settings:'wdth' 70,'wght' 600;display:inline;fill:#4f5e63;fill-opacity:1;stroke-width:5.71979;stroke-dasharray:none" id="rect382" width="136.76709" height="29.178997" x="-558.68402" y="2349.8442" transform="rotate(-90)"/>
      <rect style="font-variation-settings:'wdth' 70,'wght' 600;display:inline;fill:#516166;fill-opacity:1;stroke-width:5.71979;stroke-dasharray:none" id="rect384" width="136.76709" height="29.178997" x="-558.68402" y="2379.0232" transform="rotate(-90)"/>
      <rect style="font-variation-settings:'wdth' 70,'wght' 600;display:inline;fill:#546469;fill-opacity:1;stroke-width:5.71979;stroke-dasharray:none" id="rect385" width="136.76709" height="29.178997" x="-558.68402" y="2408.2021" transform="rotate(-90)"/>
      <rect style="font-variation-settings:'wdth' 70,'wght' 600;display:inline;fill:#56676c;fill-opacity:1;stroke-width:5.71979;stroke-dasharray:none" id="rect386" width="136.76709" height="29.178997" x="-558.68402" y="2437.3811" transform="rotate(-90)"/>
      <rect style="font-variation-settings:'wdth' 70,'wght' 600;display:inline;fill:#586a6f;fill-opacity:1;stroke-width:5.71979;stroke-dasharray:none" id="rect387" width="136.76709" height="29.178997" x="-558.68402" y="2466.5601" transform="rotate(-90)"/>
      <rect style="font-variation-settings:'wdth' 70,'wght' 600;display:inline;fill:#5a6d72;fill-opacity:1;stroke-width:5.71979;stroke-dasharray:none" id="rect407" width="136.76709" height="29.178997" x="-558.68402" y="2495.739" transform="rotate(-90)"/>
      <rect style="font-variation-settings:'wdth' 70,'wght' 600;display:inline;fill:#5c7075;fill-opacity:1;stroke-width:5.71979;stroke-dasharray:none" id="rect408" width="136.76709" height="29.178997" x="-558.68402" y="2524.9182" transform="rotate(-90)"/>
      <rect style="font-variation-settings:'wdth' 70,'wght' 600;display:inline;fill:#5e7378;fill-opacity:1;stroke-width:5.71979;stroke-dasharray:none" id="rect409" width="136.76709" height="29.178997" x="-558.68402" y="2554.0972" transform="rotate(-90)"/>
      <rect style="font-variation-settings:'wdth' 70,'wght' 600;display:inline;fill:#60767b;fill-opacity:1;stroke-width:5.71979;stroke-dasharray:none" id="rect410" width="136.76709" height="29.178997" x="-558.68402" y="2583.2761" transform="rotate(-90)"/>
      <rect style="font-variation-settings:'wdth' 70,'wght' 600;display:inline;fill:#000;fill-opacity:1;stroke-width:1.06746;stroke-dasharray:none" id="rect411" width="136.76709" height="1.0163157" x="-558.68402" y="2612.4551" transform="rotate(-90)"/>
      <rect style="font-variation-settings:'wdth' 70,'wght' 600;display:inline;fill:#000;fill-opacity:1;stroke-width:1.06746;stroke-dasharray:none" id="rect413" width="136.76709" height="1.0163157" x="-558.68402" y="2582.2598" transform="rotate(-90)"/>
      <rect style="font-variation-settings:'wdth' 70,'wght' 600;display:inline;fill:#000;fill-opacity:1;stroke-width:1.06746;stroke-dasharray:none" id="rect414" width="136.76709" height="1.0163157" x="-558.68402" y="2553.0808" transform="rotate(-90)"/>
      <rect style="font-variation-settings:'wdth' 70,'wght' 600;display:inline;fill:#000;fill-opacity:1;stroke-width:1.06746;stroke-dasharray:none" id="rect415" width="136.76709" height="1.0163157" x="-558.68402" y="2523.9016" transform="rotate(-90)"/>
      <rect style="font-variation-settings:'wdth' 70,'wght' 600;display:inline;fill:#000;fill-opacity:1;stroke-width:1.06746;stroke-dasharray:none" id="rect416" width="136.76709" height="1.0163157" x="-558.68402" y="2494.7227" transform="rotate(-90)"/>
      <rect style="font-variation-settings:'wdth' 70,'wght' 600;display:inline;fill:#000;fill-opacity:1;stroke-width:1.06746;stroke-dasharray:none" id="rect417" width="136.76709" height="1.0163157" x="-558.68402" y="2465.5437" transform="rotate(-90)"/>
      <rect style="font-variation-settings:'wdth' 70,'wght' 600;display:inline;fill:#000;fill-opacity:1;stroke-width:1.06746;stroke-dasharray:none" id="rect418" width="136.76709" height="1.0163157" x="-558.68402" y="2436.3647" transform="rotate(-90)"/>
      <rect style="font-variation-settings:'wdth' 70,'wght' 600;display:inline;fill:#000;fill-opacity:1;stroke-width:1.06746;stroke-dasharray:none" id="rect419" width="136.76709" height="1.0163157" x="-558.68402" y="2407.1858" transform="rotate(-90)"/>
      <rect style="font-variation-settings:'wdth' 70,'wght' 600;display:inline;fill:#000;fill-opacity:1;stroke-width:1.06746;stroke-dasharray:none" id="rect420" width="136.76709" height="1.0163157" x="-558.68402" y="2378.0068" transform="rotate(-90)"/>
      <rect style="font-variation-settings:'wdth' 70,'wght' 600;display:inline;fill:#000;fill-opacity:1;stroke-width:1.06746;stroke-dasharray:none" id="rect444" width="136.76709" height="1.0163157" x="-558.68402" y="2348.8279" transform="rotate(-90)"/>
      <path style="font-variation-settings:'wdth' 70,'wght' 600;display:inline;opacity:1;fill:none;fill-opacity:1;stroke:#bec3c6;stroke-width:5.30299;stroke-dasharray:none;stroke-opacity:1;marker-end:url(#Triangle)" d="m 2364.4336,486.74114 217.8262,-6e-5" id="path446"/>
      <rect style="font-variation-settings:'wdth' 70,'wght' 600;display:inline;fill:#3a4146;fill-opacity:1;stroke-width:5.71978;stroke-dasharray:none" id="rect446" width="136.76671" height="29.178997" x="235.44276" y="-2630.7488" transform="rotate(90)"/>
      <rect style="font-variation-settings:'wdth' 70,'wght' 600;display:inline;fill:#3c4449;fill-opacity:1;stroke-width:5.71978;stroke-dasharray:none" id="rect447" width="136.76671" height="29.178997" x="235.44276" y="-2601.5698" transform="rotate(90)"/>
      <rect style="font-variation-settings:'wdth' 70,'wght' 600;display:inline;fill:#3e474c;fill-opacity:1;stroke-width:5.71978;stroke-dasharray:none" id="rect448" width="136.76671" height="29.178997" x="235.44276" y="-2572.3909" transform="rotate(90)"/>
      <rect style="font-variation-settings:'wdth' 70,'wght' 600;display:inline;fill:#404a4f;fill-opacity:1;stroke-width:5.71978;stroke-dasharray:none" id="rect449" width="136.76671" height="29.178997" x="235.44276" y="-2543.2119" transform="rotate(90)"/>
      <rect style="font-variation-settings:'wdth' 70,'wght' 600;display:inline;fill:#424d52;fill-opacity:1;stroke-width:5.71978;stroke-dasharray:none" id="rect450" width="136.76671" height="29.178997" x="235.44276" y="-2514.033" transform="rotate(90)"/>
      <rect style="font-variation-settings:'wdth' 70,'wght' 600;display:inline;fill:#445055;fill-opacity:1;stroke-width:5.71978;stroke-dasharray:none" id="rect451" width="136.76671" height="29.178997" x="235.44276" y="-2484.854" transform="rotate(90)"/>
      <rect style="font-variation-settings:'wdth' 70,'wght' 600;display:inline;fill:#465358;fill-opacity:1;stroke-width:5.71978;stroke-dasharray:none" id="rect468" width="136.76671" height="29.178997" x="235.44276" y="-2455.6748" transform="rotate(90)"/>
      <rect style="font-variation-settings:'wdth' 70,'wght' 600;display:inline;fill:#48565b;fill-opacity:1;stroke-width:5.71978;stroke-dasharray:none" id="rect469" width="136.76671" height="29.178997" x="235.44276" y="-2426.4958" transform="rotate(90)"/>
      <rect style="font-variation-settings:'wdth' 70,'wght' 600;display:inline;fill:#4b595e;fill-opacity:1;stroke-width:5.71978;stroke-dasharray:none" id="rect470" width="136.76671" height="29.178997" x="235.44276" y="-2397.3169" transform="rotate(90)"/>
      <rect style="font-variation-settings:'wdth' 70,'wght' 600;display:inline;fill:#000;fill-opacity:1;stroke-width:1.06746;stroke-dasharray:none" id="rect471" width="136.76671" height="1.0163157" x="235.44276" y="-2368.1379" transform="rotate(90)"/>
      <rect style="font-variation-settings:'wdth' 70,'wght' 600;display:inline;fill:#000;fill-opacity:1;stroke-width:1.06746;stroke-dasharray:none" id="rect472" width="136.76671" height="1.0163157" x="235.44276" y="-2398.3333" transform="rotate(90)"/>
      <rect style="font-variation-settings:'wdth' 70,'wght' 600;display:inline;fill:#000;fill-opacity:1;stroke-width:1.06746;stroke-dasharray:none" id="rect473" width="136.76671" height="1.0163157" x="235.44276" y="-2427.5122" transform="rotate(90)"/>
      <rect style="font-variation-settings:'wdth' 70,'wght' 600;display:inline;fill:#000;fill-opacity:1;stroke-width:1.06746;stroke-dasharray:none" id="rect474" width="136.76671" height="1.0163157" x="235.44276" y="-2456.6914" transform="rotate(90)"/>
      <rect style="font-variation-settings:'wdth' 70,'wght' 600;display:inline;fill:#000;fill-opacity:1;stroke-width:1.06746;stroke-dasharray:none" id="rect475" width="136.76671" height="1.0163157" x="235.44276" y="-2485.8704" transform="rotate(90)"/>
      <rect style="font-variation-settings:'wdth' 70,'wght' 600;display:inline;fill:#000;fill-opacity:1;stroke-width:1.06746;stroke-dasharray:none" id="rect476" width="136.76671" height="1.0163157" x="235.44276" y="-2515.0493" transform="rotate(90)"/>
      <rect style="font-variation-settings:'wdth' 70,'wght' 600;display:inline;fill:#000;fill-opacity:1;stroke-width:1.06746;stroke-dasharray:none" id="rect477" width="136.76671" height="1.0163157" x="235.44276" y="-2544.2283" transform="rotate(90)"/>
      <rect style="font-variation-settings:'wdth' 70,'wght' 600;display:inline;fill:#000;fill-opacity:1;stroke-width:1.06746;stroke-dasharray:none" id="rect478" width="136.76671" height="1.0163157" x="235.44276" y="-2573.4072" transform="rotate(90)"/>
      <rect style="font-variation-settings:'wdth' 70,'wght' 600;display:inline;fill:#000;fill-opacity:1;stroke-width:1.06746;stroke-dasharray:none" id="rect479" width="136.76671" height="1.0163157" x="235.44276" y="-2602.5862" transform="rotate(90)"/>
      <rect style="font-variation-settings:'wdth' 70,'wght' 600;display:inline;fill:#000;fill-opacity:1;stroke-width:1.06746;stroke-dasharray:none" id="rect480" width="136.76671" height="1.0163157" x="235.44276" y="-2631.7651" transform="rotate(90)"/>
      <path style="font-variation-settings:'wdth' 70,'wght' 600;display:inline;opacity:1;fill:none;fill-opacity:1;stroke:#bec3c6;stroke-width:5.30299;stroke-dasharray:none;stroke-opacity:1;marker-end:url(#Triangle)" d="m 2616.1595,301.28527 -217.8262,6e-5" id="path484"/>
      <path style="font-variation-settings:'wdth' 70,'wght' 600;display:inline;opacity:1;fill:#62797e;fill-opacity:1;stroke:none;stroke-width:15.2447;stroke-dasharray:none;stroke-opacity:1" d="m 2811.3014,576.46929 -197.83,-1.9e-4 V 421.91693 h 17.2774 V 372.20947 212.51219 h 180.5526 z" id="path485"/>
      <rect style="font-variation-settings:'wght' 700;display:inline;fill:none;fill-opacity:1;stroke:#bec3c6;stroke-width:10.1632;stroke-dasharray:none;stroke-opacity:1" id="rect485" width="324.85214" height="49.70747" x="-2628.5378" y="-421.91693" transform="rotate(180,-1.1873705e-5,7.232918e-7)"/>
    </g>
    <g id="g594" transform="matrix(-0.02439371,0,0,-0.02439371,131.19323,222.78866)" style="display:inline">
      <rect style="font-variation-settings:'wdth' 70,'wght' 600;display:inline;fill:#4f5e63;fill-opacity:1;stroke-width:6.02459;stroke-dasharray:none" id="rect486" width="151.7321" height="29.178997" x="973.24078" y="3606.905" transform="rotate(-90)"/>
      <rect style="font-variation-settings:'wdth' 70,'wght' 600;display:inline;fill:#516166;fill-opacity:1;stroke-width:6.02459;stroke-dasharray:none" id="rect487" width="151.7321" height="29.178997" x="973.24078" y="3577.7258" transform="rotate(-90)"/>
      <rect style="font-variation-settings:'wdth' 70,'wght' 600;display:inline;fill:#546469;fill-opacity:1;stroke-width:6.02459;stroke-dasharray:none" id="rect488" width="151.7321" height="29.178997" x="973.24078" y="3548.5469" transform="rotate(-90)"/>
      <rect style="font-variation-settings:'wdth' 70,'wght' 600;display:inline;fill:#56676c;fill-opacity:1;stroke-width:6.02459;stroke-dasharray:none" id="rect489" width="151.7321" height="29.178997" x="973.24078" y="3519.3679" transform="rotate(-90)"/>
      <rect style="font-variation-settings:'wdth' 70,'wght' 600;display:inline;fill:#586a6f;fill-opacity:1;stroke-width:6.02459;stroke-dasharray:none" id="rect490" width="151.7321" height="29.178997" x="973.24078" y="3490.189" transform="rotate(-90)"/>
      <rect style="font-variation-settings:'wdth' 70,'wght' 600;display:inline;fill:#5a6d72;fill-opacity:1;stroke-width:6.02459;stroke-dasharray:none" id="rect491" width="151.7321" height="29.178997" x="973.24078" y="3461.0098" transform="rotate(-90)"/>
      <rect style="font-variation-settings:'wdth' 70,'wght' 600;display:inline;fill:#5c7075;fill-opacity:1;stroke-width:6.02459;stroke-dasharray:none" id="rect492" width="151.7321" height="29.178997" x="973.24078" y="3431.8308" transform="rotate(-90)"/>
      <rect style="font-variation-settings:'wdth' 70,'wght' 600;display:inline;fill:#5e7378;fill-opacity:1;stroke-width:6.02459;stroke-dasharray:none" id="rect493" width="151.7321" height="29.178997" x="973.24078" y="3402.6519" transform="rotate(-90)"/>
      <rect style="font-variation-settings:'wdth' 70,'wght' 600;display:inline;fill:#60767b;fill-opacity:1;stroke-width:6.02459;stroke-dasharray:none" id="rect494" width="151.7321" height="29.178997" x="973.24078" y="3373.4729" transform="rotate(-90)"/>
      <rect style="font-variation-settings:'wdth' 70,'wght' 600;display:inline;fill:#62797e;fill-opacity:1;stroke-width:12.7436;stroke-dasharray:none" id="rect495" width="151.7321" height="130.55656" x="973.24078" y="3242.9163" transform="rotate(-90)"/>
      <rect style="font-variation-settings:'wdth' 70,'wght' 600;display:inline;fill:#647c81;fill-opacity:1;stroke-width:6.02459;stroke-dasharray:none" id="rect496" width="151.7321" height="29.178997" x="973.24078" y="3213.7373" transform="rotate(-90)"/>
      <rect style="font-variation-settings:'wdth' 70,'wght' 600;display:inline;fill:#000;fill-opacity:1;stroke-width:1.12436;stroke-dasharray:none" id="rect497" width="151.7321" height="1.0163157" x="973.24078" y="3213.7373" transform="rotate(-90)"/>
      <rect style="font-variation-settings:'wdth' 70,'wght' 600;display:inline;fill:#000;fill-opacity:1;stroke-width:1.12436;stroke-dasharray:none" id="rect498" width="151.7321" height="1.0163157" x="973.24078" y="3242.9163" transform="rotate(-90)"/>
      <rect style="font-variation-settings:'wdth' 70,'wght' 600;display:inline;fill:#000;fill-opacity:1;stroke-width:1.12436;stroke-dasharray:none" id="rect499" width="151.7321" height="1.0163157" x="973.24078" y="3373.4729" transform="rotate(-90)"/>
      <rect style="font-variation-settings:'wdth' 70,'wght' 600;display:inline;fill:#000;fill-opacity:1;stroke-width:1.12436;stroke-dasharray:none" id="rect500" width="151.7321" height="1.0163157" x="973.24078" y="3402.6519" transform="rotate(-90)"/>
      <rect style="font-variation-settings:'wdth' 70,'wght' 600;display:inline;fill:#000;fill-opacity:1;stroke-width:1.12436;stroke-dasharray:none" id="rect501" width="151.7321" height="1.0163157" x="973.24078" y="3431.8308" transform="rotate(-90)"/>
      <rect style="font-variation-settings:'wdth' 70,'wght' 600;display:inline;fill:#000;fill-opacity:1;stroke-width:1.12436;stroke-dasharray:none" id="rect502" width="151.7321" height="1.0163157" x="973.24078" y="3461.0098" transform="rotate(-90)"/>
      <rect style="font-variation-settings:'wdth' 70,'wght' 600;display:inline;fill:#000;fill-opacity:1;stroke-width:1.12436;stroke-dasharray:none" id="rect503" width="151.7321" height="1.0163157" x="973.24078" y="3490.189" transform="rotate(-90)"/>
      <rect style="font-variation-settings:'wdth' 70,'wght' 600;display:inline;fill:#000;fill-opacity:1;stroke-width:1.12436;stroke-dasharray:none" id="rect504" width="151.7321" height="1.0163157" x="973.24078" y="3519.3682" transform="rotate(-90)"/>
      <rect style="font-variation-settings:'wdth' 70,'wght' 600;display:inline;fill:#000;fill-opacity:1;stroke-width:1.12436;stroke-dasharray:none" id="rect517" width="151.7321" height="1.0163157" x="973.24078" y="3548.5469" transform="rotate(-90)"/>
      <rect style="font-variation-settings:'wdth' 70,'wght' 600;display:inline;fill:#000;fill-opacity:1;stroke-width:1.12436;stroke-dasharray:none" id="rect518" width="151.7321" height="1.0163157" x="973.24078" y="3577.7258" transform="rotate(-90)"/>
      <rect style="font-variation-settings:'wdth' 70,'wght' 600;display:inline;fill:#000;fill-opacity:1;stroke-width:1.12436;stroke-dasharray:none" id="rect519" width="151.7321" height="1.0163157" x="973.24078" y="3606.9048" transform="rotate(-90)"/>
      <rect style="font-variation-settings:'wdth' 70,'wght' 600;display:inline;fill:#000;fill-opacity:1;stroke-width:1.12436;stroke-dasharray:none" id="rect520" width="151.7321" height="1.0163157" x="973.24078" y="3636.084" transform="rotate(-90)"/>
      <rect style="font-variation-settings:'wdth' 70,'wght' 600;display:inline;fill:#667f84;fill-opacity:1;stroke-width:6.02459;stroke-dasharray:none" id="rect521" width="151.7321" height="29.178997" x="973.24078" y="3184.5583" transform="rotate(-90)"/>
      <rect style="font-variation-settings:'wdth' 70,'wght' 600;display:inline;fill:#688287;fill-opacity:1;stroke-width:6.02459;stroke-dasharray:none" id="rect522" width="151.7321" height="29.178997" x="973.24078" y="3155.3794" transform="rotate(-90)"/>
      <rect style="font-variation-settings:'wdth' 70,'wght' 600;display:inline;fill:#6b858a;fill-opacity:1;stroke-width:6.02459;stroke-dasharray:none" id="rect523" width="151.7321" height="29.178997" x="973.24078" y="3126.2004" transform="rotate(-90)"/>
      <rect style="font-variation-settings:'wdth' 70,'wght' 600;display:inline;fill:#6d888d;fill-opacity:1;stroke-width:6.02459;stroke-dasharray:none" id="rect524" width="151.7321" height="29.178997" x="973.24078" y="3097.0215" transform="rotate(-90)"/>
      <rect style="font-variation-settings:'wdth' 70,'wght' 600;display:inline;fill:#6f8b90;fill-opacity:1;stroke-width:6.02459;stroke-dasharray:none" id="rect525" width="151.7321" height="29.178997" x="973.24078" y="3067.8425" transform="rotate(-90)"/>
      <rect style="font-variation-settings:'wdth' 70,'wght' 600;display:inline;fill:#728d92;fill-opacity:1;stroke-width:6.02459;stroke-dasharray:none" id="rect526" width="151.7321" height="29.178997" x="973.24078" y="3038.6636" transform="rotate(-90)"/>
      <rect style="font-variation-settings:'wdth' 70,'wght' 600;display:inline;fill:#758f94;fill-opacity:1;stroke-width:6.02459;stroke-dasharray:none" id="rect527" width="151.7321" height="29.178997" x="973.24078" y="3009.4846" transform="rotate(-90)"/>
      <rect style="font-variation-settings:'wdth' 70,'wght' 600;display:inline;fill:#789196;fill-opacity:1;stroke-width:6.02459;stroke-dasharray:none" id="rect528" width="151.7321" height="29.178997" x="973.24078" y="2980.3057" transform="rotate(-90)"/>
      <rect style="font-variation-settings:'wdth' 70,'wght' 600;display:inline;fill:#7b9398;fill-opacity:1;stroke-width:6.02459;stroke-dasharray:none" id="rect529" width="151.7321" height="29.178997" x="973.24078" y="2951.1267" transform="rotate(-90)"/>
      <rect style="font-variation-settings:'wdth' 70,'wght' 600;display:inline;fill:#000;fill-opacity:1;stroke-width:1.12436;stroke-dasharray:none" id="rect530" width="151.7321" height="1.0163157" x="973.24078" y="3184.5583" transform="rotate(-90)"/>
      <rect style="font-variation-settings:'wdth' 70,'wght' 600;display:inline;fill:#000;fill-opacity:1;stroke-width:1.12436;stroke-dasharray:none" id="rect531" width="151.7321" height="1.0163157" x="973.24078" y="3155.3794" transform="rotate(-90)"/>
      <rect style="font-variation-settings:'wdth' 70,'wght' 600;display:inline;fill:#000;fill-opacity:1;stroke-width:1.12436;stroke-dasharray:none" id="rect532" width="151.7321" height="1.0163157" x="973.24078" y="3126.2004" transform="rotate(-90)"/>
      <rect style="font-variation-settings:'wdth' 70,'wght' 600;display:inline;fill:#000;fill-opacity:1;stroke-width:1.12436;stroke-dasharray:none" id="rect533" width="151.7321" height="1.0163157" x="973.24078" y="3097.0215" transform="rotate(-90)"/>
      <rect style="font-variation-settings:'wdth' 70,'wght' 600;display:inline;fill:#000;fill-opacity:1;stroke-width:1.12436;stroke-dasharray:none" id="rect534" width="151.7321" height="1.0163157" x="973.24078" y="3067.8425" transform="rotate(-90)"/>
      <rect style="font-variation-settings:'wdth' 70,'wght' 600;display:inline;fill:#000;fill-opacity:1;stroke-width:1.12436;stroke-dasharray:none" id="rect535" width="151.7321" height="1.0163157" x="973.24078" y="3038.6636" transform="rotate(-90)"/>
      <rect style="font-variation-settings:'wdth' 70,'wght' 600;display:inline;fill:#000;fill-opacity:1;stroke-width:1.12436;stroke-dasharray:none" id="rect536" width="151.7321" height="1.0163157" x="973.24078" y="3009.4846" transform="rotate(-90)"/>
      <rect style="font-variation-settings:'wdth' 70,'wght' 600;display:inline;fill:#000;fill-opacity:1;stroke-width:1.12436;stroke-dasharray:none" id="rect537" width="151.7321" height="1.0163157" x="973.24078" y="2980.3057" transform="rotate(-90)"/>
      <rect style="font-variation-settings:'wdth' 70,'wght' 600;display:inline;fill:#4b595e;fill-opacity:1;stroke-width:5.91443;stroke-dasharray:none" id="rect538" width="146.23373" height="29.178997" x="1211.1305" y="3635.0679" transform="rotate(-90)"/>
      <rect style="font-variation-settings:'wdth' 70,'wght' 600;display:inline;fill:#48565b;fill-opacity:1;stroke-width:5.91443;stroke-dasharray:none" id="rect539" width="146.23373" height="29.178997" x="1211.1305" y="3605.8887" transform="rotate(-90)"/>
      <rect style="font-variation-settings:'wdth' 70,'wght' 600;display:inline;fill:#465358;fill-opacity:1;stroke-width:5.91443;stroke-dasharray:none" id="rect540" width="146.23373" height="29.178997" x="1211.1305" y="3576.7097" transform="rotate(-90)"/>
      <rect style="font-variation-settings:'wdth' 70,'wght' 600;display:inline;fill:#445055;fill-opacity:1;stroke-width:5.91443;stroke-dasharray:none" id="rect541" width="146.23373" height="29.178997" x="1211.1305" y="3547.5308" transform="rotate(-90)"/>
      <rect style="font-variation-settings:'wdth' 70,'wght' 600;display:inline;fill:#424d52;fill-opacity:1;stroke-width:5.91443;stroke-dasharray:none" id="rect542" width="146.23373" height="29.178997" x="1211.1305" y="3518.3518" transform="rotate(-90)"/>
      <rect style="font-variation-settings:'wdth' 70,'wght' 600;display:inline;fill:#404a4f;fill-opacity:1;stroke-width:5.91443;stroke-dasharray:none" id="rect543" width="146.23373" height="29.178997" x="1211.1305" y="3489.1726" transform="rotate(-90)"/>
      <rect style="font-variation-settings:'wdth' 70,'wght' 600;display:inline;fill:#3e474c;fill-opacity:1;stroke-width:5.91443;stroke-dasharray:none" id="rect544" width="146.23373" height="29.178997" x="1211.1305" y="3459.9937" transform="rotate(-90)"/>
      <rect style="font-variation-settings:'wdth' 70,'wght' 600;display:inline;fill:#3c4449;fill-opacity:1;stroke-width:5.91443;stroke-dasharray:none" id="rect545" width="146.23373" height="29.178997" x="1211.1305" y="3430.8147" transform="rotate(-90)"/>
      <rect style="font-variation-settings:'wdth' 70,'wght' 600;display:inline;fill:#3a4146;fill-opacity:1;stroke-width:5.91443;stroke-dasharray:none" id="rect546" width="146.23373" height="29.178997" x="1211.1305" y="3401.6357" transform="rotate(-90)"/>
      <rect style="font-variation-settings:'wdth' 70,'wght' 600;display:inline;fill:#26282b;fill-opacity:1;stroke-width:12.5106;stroke-dasharray:none" id="rect547" width="146.23373" height="130.55656" x="1211.1305" y="3037.6475" transform="rotate(-90)"/>
      <rect style="font-variation-settings:'wdth' 70,'wght' 600;display:inline;fill:#000;fill-opacity:1;stroke-width:1.1038;stroke-dasharray:none" id="rect548" width="146.23373" height="1.0163157" x="1211.1305" y="3401.6357" transform="rotate(-90)"/>
      <rect style="font-variation-settings:'wdth' 70,'wght' 600;display:inline;fill:#000;fill-opacity:1;stroke-width:1.1038;stroke-dasharray:none" id="rect549" width="146.23373" height="1.0163157" x="1211.1305" y="3430.8147" transform="rotate(-90)"/>
      <rect style="font-variation-settings:'wdth' 70,'wght' 600;display:inline;fill:#000;fill-opacity:1;stroke-width:1.1038;stroke-dasharray:none" id="rect550" width="146.23373" height="1.0163157" x="1211.1305" y="3459.9937" transform="rotate(-90)"/>
      <rect style="font-variation-settings:'wdth' 70,'wght' 600;display:inline;fill:#000;fill-opacity:1;stroke-width:1.1038;stroke-dasharray:none" id="rect551" width="146.23373" height="1.0163157" x="1211.1305" y="3489.1726" transform="rotate(-90)"/>
      <rect style="font-variation-settings:'wdth' 70,'wght' 600;display:inline;fill:#000;fill-opacity:1;stroke-width:1.1038;stroke-dasharray:none" id="rect552" width="146.23373" height="1.0163157" x="1211.1305" y="3518.3518" transform="rotate(-90)"/>
      <path style="font-variation-settings:'wght' 700;display:inline;opacity:1;fill:#4c5a5f;fill-opacity:1;stroke:none;stroke-width:6.70084;stroke-dasharray:none;stroke-opacity:1" d="m 3637.1003,-955.85225 h 97.2814 v -424.37895 h -70.1349 v 169.1006 h 6.7408 v 86.1576 l -33.8873,10e-5 z" id="path552"/>
      <rect style="font-variation-settings:'wdth' 70,'wght' 600;display:inline;fill:#000;fill-opacity:1;stroke-width:1.1038;stroke-dasharray:none" id="rect553" width="146.23373" height="1.0163157" x="1211.1305" y="3547.531" transform="rotate(-90)"/>
      <rect style="font-variation-settings:'wdth' 70,'wght' 600;display:inline;fill:#000;fill-opacity:1;stroke-width:1.1038;stroke-dasharray:none" id="rect554" width="146.23373" height="1.0163157" x="1211.1305" y="3576.7097" transform="rotate(-90)"/>
      <rect style="font-variation-settings:'wdth' 70,'wght' 600;display:inline;fill:#000;fill-opacity:1;stroke-width:1.1038;stroke-dasharray:none" id="rect555" width="146.23373" height="1.0163157" x="1211.1305" y="3605.8887" transform="rotate(-90)"/>
      <rect style="font-variation-settings:'wdth' 70,'wght' 600;display:inline;fill:#000;fill-opacity:1;stroke-width:1.1038;stroke-dasharray:none" id="rect556" width="146.23373" height="1.0163157" x="1211.1305" y="3635.0676" transform="rotate(-90)"/>
      <rect style="font-variation-settings:'wdth' 70,'wght' 600;display:inline;fill:#000;fill-opacity:1;stroke-width:1.1038;stroke-dasharray:none" id="rect557" width="146.23373" height="1.0163157" x="1211.1305" y="3664.2468" transform="rotate(-90)"/>
      <rect style="font-variation-settings:'wdth' 70,'wght' 600;display:inline;fill:#373e43;fill-opacity:1;stroke-width:5.91443;stroke-dasharray:none" id="rect558" width="146.23373" height="29.178997" x="1211.1305" y="3372.4568" transform="rotate(-90)"/>
      <rect style="font-variation-settings:'wdth' 70,'wght' 600;display:inline;fill:#353c40;fill-opacity:1;stroke-width:5.91443;stroke-dasharray:none" id="rect559" width="146.23373" height="29.178997" x="1211.1305" y="3343.2778" transform="rotate(-90)"/>
      <rect style="font-variation-settings:'wdth' 70,'wght' 600;display:inline;fill:#333a3d;fill-opacity:1;stroke-width:5.91443;stroke-dasharray:none" id="rect560" width="146.23373" height="29.178997" x="1211.1305" y="3314.0989" transform="rotate(-90)"/>
      <rect style="font-variation-settings:'wdth' 70,'wght' 600;display:inline;fill:#31373a;fill-opacity:1;stroke-width:5.91443;stroke-dasharray:none" id="rect561" width="146.23373" height="29.178997" x="1211.1305" y="3284.9199" transform="rotate(-90)"/>
      <rect style="font-variation-settings:'wdth' 70,'wght' 600;display:inline;opacity:1;fill:#1f2123;fill-opacity:1;stroke-width:5.91443;stroke-dasharray:none" id="rect654" width="146.23373" height="29.178997" x="1211.1305" y="2950.1106" transform="rotate(-90,8.7306385e-6,-1.052521e-5)"/>
      <rect style="font-variation-settings:'wdth' 70,'wght' 600;display:inline;fill:#2f3437;fill-opacity:1;stroke-width:5.91443;stroke-dasharray:none" id="rect562" width="146.23373" height="29.178997" x="1211.1305" y="3255.741" transform="rotate(-90)"/>
      <rect style="font-variation-settings:'wdth' 70,'wght' 600;display:inline;fill:#2d3134;fill-opacity:1;stroke-width:5.91443;stroke-dasharray:none" id="rect563" width="146.23373" height="29.178997" x="1211.1305" y="3226.562" transform="rotate(-90)"/>
      <rect style="font-variation-settings:'wdth' 70,'wght' 600;display:inline;fill:#2b2e31;fill-opacity:1;stroke-width:5.91443;stroke-dasharray:none" id="rect564" width="146.23373" height="29.178997" x="1211.1305" y="3197.3831" transform="rotate(-90)"/>
      <rect style="font-variation-settings:'wdth' 70,'wght' 600;display:inline;fill:#292b2e;fill-opacity:1;stroke-width:5.91443;stroke-dasharray:none" id="rect565" width="146.23373" height="29.178997" x="1211.1305" y="3168.2041" transform="rotate(-90)"/>
      <rect style="font-variation-settings:'wdth' 70,'wght' 600;display:inline;fill:#242629;fill-opacity:1;stroke-width:5.91443;stroke-dasharray:none" id="rect580" width="146.23373" height="29.178997" x="1211.1305" y="3008.4685" transform="rotate(-90)"/>
      <rect style="font-variation-settings:'wdth' 70,'wght' 600;display:inline;fill:#212326;fill-opacity:1;stroke-width:5.91443;stroke-dasharray:none" id="rect581" width="146.23373" height="29.178997" x="1211.1305" y="2979.2896" transform="rotate(-90)"/>
      <rect style="font-variation-settings:'wdth' 70,'wght' 600;display:inline;fill:#000;fill-opacity:1;stroke-width:1.1038;stroke-dasharray:none" id="rect582" width="146.23373" height="1.0163157" x="1211.1305" y="3372.4568" transform="rotate(-90)"/>
      <rect style="font-variation-settings:'wdth' 70,'wght' 600;display:inline;fill:#000;fill-opacity:1;stroke-width:1.1038;stroke-dasharray:none" id="rect583" width="146.23373" height="1.0163157" x="1211.1305" y="3343.2778" transform="rotate(-90)"/>
      <rect style="font-variation-settings:'wdth' 70,'wght' 600;display:inline;fill:#000;fill-opacity:1;stroke-width:1.1038;stroke-dasharray:none" id="rect584" width="146.23373" height="1.0163157" x="1211.1305" y="3314.0989" transform="rotate(-90)"/>
      <rect style="font-variation-settings:'wdth' 70,'wght' 600;display:inline;fill:#000;fill-opacity:1;stroke-width:1.1038;stroke-dasharray:none" id="rect585" width="146.23373" height="1.0163157" x="1211.1305" y="3284.9199" transform="rotate(-90)"/>
      <rect style="font-variation-settings:'wdth' 70,'wght' 600;display:inline;fill:#000;fill-opacity:1;stroke-width:1.1038;stroke-dasharray:none" id="rect586" width="146.23373" height="1.0163157" x="1211.1305" y="3255.741" transform="rotate(-90)"/>
      <rect style="font-variation-settings:'wdth' 70,'wght' 600;display:inline;fill:#000;fill-opacity:1;stroke-width:1.1038;stroke-dasharray:none" id="rect587" width="146.23373" height="1.0163157" x="1211.1305" y="3226.562" transform="rotate(-90)"/>
      <rect style="font-variation-settings:'wdth' 70,'wght' 600;display:inline;fill:#000;fill-opacity:1;stroke-width:1.1038;stroke-dasharray:none" id="rect588" width="146.23373" height="1.0163157" x="1211.1305" y="3197.3831" transform="rotate(-90)"/>
      <rect style="font-variation-settings:'wdth' 70,'wght' 600;display:inline;fill:#000;fill-opacity:1;stroke-width:1.1038;stroke-dasharray:none" id="rect589" width="146.23373" height="1.0163157" x="1211.1305" y="3168.2041" transform="rotate(-90)"/>
      <rect style="font-variation-settings:'wdth' 70,'wght' 600;display:inline;fill:#000;fill-opacity:1;stroke-width:1.1038;stroke-dasharray:none" id="rect590" width="146.23373" height="1.0163157" x="1211.1305" y="3037.6475" transform="rotate(-90)"/>
      <rect style="font-variation-settings:'wdth' 70,'wght' 600;display:inline;fill:#000;fill-opacity:1;stroke-width:1.1038;stroke-dasharray:none" id="rect591" width="146.23373" height="1.0163157" x="1211.1305" y="3008.4685" transform="rotate(-90)"/>
      <rect style="font-variation-settings:'wdth' 70,'wght' 600;display:inline;fill:#000;fill-opacity:1;stroke-width:1.1038;stroke-dasharray:none" id="rect592" width="146.23373" height="1.0163157" x="1211.1305" y="2979.2896" transform="rotate(-90)"/>
      <path style="font-variation-settings:'wdth' 70,'wght' 600;display:inline;opacity:1;fill:none;fill-opacity:1;stroke:#bec3c6;stroke-width:5.5382;stroke-dasharray:none;stroke-opacity:1;marker-end:url(#Triangle)" d="m 2993.879,-1286.7881 h 613.026" id="path592"/>
      <path style="font-variation-settings:'wdth' 70,'wght' 600;display:inline;opacity:1;fill:none;fill-opacity:1;stroke:#bec3c6;stroke-width:5.5382;stroke-dasharray:none;stroke-opacity:1;marker-end:url(#Triangle)" d="M 3621.4945,-1049.3153 H 3009.4846" id="path593"/>
      <rect style="font-variation-settings:'wdth' 70,'wght' 600;display:inline;fill:#000;fill-opacity:1;stroke-width:1.12436;stroke-dasharray:none" id="rect593" width="151.7321" height="1.0163157" x="973.24078" y="2951.1267" transform="rotate(-90)"/>
      <rect style="font-variation-settings:'wght' 700;display:inline;opacity:1;fill:none;fill-opacity:1;stroke:#bec3c6;stroke-width:10.1632;stroke-dasharray:none;stroke-opacity:1" id="rect594" width="722.6748" height="86.157593" x="-3670.0635" y="1124.9729" transform="rotate(180,9.6279241e-6,-8.9728556e-7)"/>
    </g>
    <g id="walls_1" transform="matrix(0.02439371,0,0,0.02439371,-0.07402299,244.39786)" style="display:inline">
      <path style="font-variation-settings:'wdth' 70,'wght' 600;fill:none;stroke:#bec3c6;stroke-width:35.571;stroke-linecap:butt;stroke-dasharray:none;stroke-opacity:1" d="M 2720.0663,173.75927 V 64.525476" id="path594"/>
      <path style="font-variation-settings:'wdth' 70,'wght' 600;fill:none;stroke:#bec3c6;stroke-width:35.571;stroke-linecap:butt;stroke-dasharray:none;stroke-opacity:1" d="M 1427.4669,517.24701 V 64.525476" id="path595"/>
      <path style="font-variation-settings:'wdth' 70,'wght' 600;fill:none;stroke:#bec3c6;stroke-width:45.7342;stroke-linecap:butt;stroke-dasharray:none;stroke-opacity:1" d="M 49.000001,64.525476 H 2987.3775 l 1.8864,1802.981324 H 1672.5467 l -1.8864,1162.8434 H 49.000001 Z" id="path596"/>
      <path style="font-variation-settings:'wdth' 70,'wght' 600;fill:none;stroke:#bec3c6;stroke-width:45.7342;stroke-linecap:butt;stroke-dasharray:none;stroke-opacity:1" d="M 472.92752,494.37991 H 49.000001" id="path602"/>
      <path style="font-variation-settings:'wdth' 70,'wght' 600;fill:none;stroke:#bec3c6;stroke-width:45.7342;stroke-linecap:butt;stroke-dasharray:none;stroke-opacity:1" d="M 1427.4669,494.37991 H 991.57766" id="path604"/>
      <path style="font-variation-settings:'wdth' 70,'wght' 600;fill:none;stroke:#bec3c6;stroke-width:35.571;stroke-linecap:butt;stroke-dasharray:none;stroke-opacity:1" d="M 2720.0663,560.38959 V 338.06978" id="path606"/>
      <path style="font-variation-settings:'wdth' 70,'wght' 600;fill:none;stroke:#bec3c6;stroke-width:45.7342;stroke-linecap:butt;stroke-dasharray:none;stroke-opacity:1" d="m 2720.0663,490.212 h 267.3112" id="path608"/>
      <path style="font-variation-settings:'wdth' 70,'wght' 600;fill:none;stroke:#bec3c6;stroke-width:35.571;stroke-linecap:butt;stroke-dasharray:none;stroke-opacity:1" d="M 49.000001,1503.5497 H 807.10325 v 32.0215" id="path609"/>
      <path style="font-variation-settings:'wdth' 70,'wght' 600;fill:none;stroke:#bec3c6;stroke-width:35.571;stroke-linecap:butt;stroke-dasharray:none;stroke-opacity:1" d="M 49.000001,1862.3617 H 840.8795" id="path610"/>
      <path style="font-variation-settings:'wdth' 70,'wght' 600;fill:none;stroke:#bec3c6;stroke-width:35.571;stroke-linecap:butt;stroke-dasharray:none;stroke-opacity:1" d="m 807.10325,1637.2027 v 415.0521" id="path611"/>
      <path style="font-variation-settings:'wdth' 70,'wght' 600;fill:none;stroke:#bec3c6;stroke-width:35.571;stroke-linecap:butt;stroke-dasharray:none;stroke-opacity:1" d="m 807.10325,2737.571 v 292.7792" id="path612"/>
      <path style="font-variation-settings:'wdth' 70,'wght' 600;fill:none;stroke:#bec3c6;stroke-width:35.571;stroke-linecap:butt;stroke-dasharray:none;stroke-opacity:1" d="m 1043.2373,2222.7202 v 351.2967" id="path613"/>
      <path style="font-variation-settings:'wdth' 70,'wght' 600;fill:none;stroke:#bec3c6;stroke-width:35.571;stroke-linecap:butt;stroke-dasharray:none;stroke-opacity:1" d="m 1043.2373,2737.571 v 292.7792" id="path614"/>
      <path style="font-variation-settings:'wdth' 70,'wght' 600;fill:none;stroke:#bec3c6;stroke-width:35.571;stroke-linecap:butt;stroke-dasharray:none;stroke-opacity:1" d="m 1043.2373,1816.926 v 235.3288" id="path616"/>
      <path style="font-variation-settings:'wdth' 70,'wght' 600;fill:none;stroke:#bec3c6;stroke-width:35.571;stroke-linecap:butt;stroke-dasharray:none;stroke-opacity:1" d="m 1008.7418,1862.3617 h 661.9185" id="path617"/>
      <path style="font-variation-settings:'wdth' 70,'wght' 600;fill:none;stroke:#bec3c6;stroke-width:35.571;stroke-linecap:butt;stroke-dasharray:none;stroke-opacity:1" d="m 1667.4486,1862.3617 v -358.812 h -624.2113 v 32.0215" id="path618"/>
      <path style="font-variation-settings:'wdth' 70,'wght' 600;fill:none;stroke:#bec3c6;stroke-width:10.1632;stroke-linecap:butt;stroke-dasharray:none;stroke-opacity:1" d="M 49.000001,2432.4494 H 807.10325" id="path619"/>
      <path style="font-variation-settings:'wdth' 70,'wght' 600;fill:none;stroke:#bec3c6;stroke-width:10.1632;stroke-linecap:butt;stroke-dasharray:none;stroke-opacity:1" d="m 1043.2373,2432.4494 h 628.1083" id="path620"/>
      <path style="font-variation-settings:'wdth' 70,'wght' 600;fill:none;stroke:#bec3c6;stroke-width:10.1632;stroke-linecap:butt;stroke-dasharray:none;stroke-opacity:1" d="m 1043.2373,1648.9616 h 188.1904 v 213.4001" id="path622"/>
      <rect style="font-variation-settings:'wght' 700;fill:#bec3c6;fill-opacity:1;stroke-width:37.6881;stroke-dasharray:none" id="rect622" width="98.632408" height="358.81204" x="1568.8162" y="1503.5497"/>
      <path style="font-variation-settings:'wdth' 70,'wght' 600;fill:none;stroke:#bec3c6;stroke-width:35.571;stroke-linecap:butt;stroke-dasharray:none;stroke-opacity:1" d="m 1043.2373,1637.2027 v 39.8084" id="path623"/>
      <rect style="font-variation-settings:'wght' 700;fill:#bec3c6;fill-opacity:1;stroke-width:8.90893;stroke-dasharray:none" id="rect626" width="91.468414" height="91.468414" x="2433.804" y="471.51282"/>
      <path style="font-variation-settings:'wdth' 70,'wght' 600;fill:none;stroke:#bec3c6;stroke-width:45.7342;stroke-linecap:butt;stroke-dasharray:none;stroke-opacity:1" d="m 1649.4399,494.37991 h 875.8324" id="path627"/>
      <path style="font-variation-settings:'wdth' 70,'wght' 600;fill:none;stroke:#bec3c6;stroke-width:10.1632;stroke-linecap:butt;stroke-dasharray:none;stroke-opacity:1" d="m 2049.0108,1867.5068 v -302.4639 h -77.7159" id="path631"/>
      <path style="font-variation-settings:'wdth' 70,'wght' 600;fill:none;stroke:#bec3c6;stroke-width:10.1632;stroke-linecap:butt;stroke-dasharray:none;stroke-opacity:1" d="m 2989.0692,1565.0429 h -95.6286" id="path632"/>
      <path style="font-variation-settings:'wdth' 70,'wght' 600;fill:none;stroke:#bec3c6;stroke-width:10.1632;stroke-linecap:butt;stroke-dasharray:none;stroke-opacity:1" d="m 1864.5817,1867.5068 v -302.4639 h -77.716" id="path633"/>
      <path style="font-variation-settings:'wdth' 70,'wght' 600;fill:none;stroke:#bec3c6;stroke-width:10.1632;stroke-linecap:butt;stroke-dasharray:none;stroke-opacity:1" d="m 2233.44,1867.5068 v -302.4639 h -77.716" id="path634"/>
      <path style="font-variation-settings:'wdth' 70,'wght' 600;fill:none;stroke:#bec3c6;stroke-width:10.1632;stroke-linecap:butt;stroke-dasharray:none;stroke-opacity:1" d="m 2417.8691,1867.5068 v -302.4639 h -77.716" id="path635"/>
      <path style="font-variation-settings:'wdth' 70,'wght' 600;fill:none;stroke:#bec3c6;stroke-width:10.1632;stroke-linecap:butt;stroke-dasharray:none;stroke-opacity:1" d="m 2602.2983,1867.5068 v -302.4639 h -77.716" id="path636"/>
      <path style="font-variation-settings:'wdth' 70,'wght' 600;fill:none;stroke:#bec3c6;stroke-width:10.1632;stroke-linecap:butt;stroke-dasharray:none;stroke-opacity:1" d="m 2786.7274,1867.5068 v -302.4639 h -77.7159" id="path637"/>
      <rect style="font-variation-settings:'wght' 700;fill:#bec3c6;fill-opacity:1;stroke-width:8.90893;stroke-dasharray:none" id="rect652" width="91.468414" height="91.468414" x="1353.7839" y="471.51282"/>
      <path style="font-variation-settings:'wdth' 70,'wght' 600;fill:none;stroke:#bec3c6;stroke-width:35.571;stroke-linecap:butt;stroke-dasharray:none;stroke-opacity:1" d="M 1649.4399,562.98123 V 471.51281" id="path652"/>
      <path style="font-variation-settings:'wdth' 70,'wght' 600;fill:none;stroke:#bec3c6;stroke-width:10.1632;stroke-linecap:butt;stroke-dasharray:none;stroke-opacity:1" d="M 2433.804,494.37991 V 64.525476" id="path653"/>
      <path style="font-variation-settings:'wdth' 70,'wght' 600;fill:none;stroke:#bec3c6;stroke-width:35.571;stroke-linecap:butt;stroke-dasharray:none;stroke-opacity:1" d="m 807.10325,2222.7202 v 351.2967" id="path654"/>
    </g>
    <g id="icons_1" transform="matrix(0.02439371,0,0,0.02439371,10.159623,263.62762)" style="display:inline">
      <g id="g638" style="filter:url(#filter65)" transform="translate(-18.039317,-1538.3503)">
        <rect style="font-variation-settings:'wdth' 70,'wght' 600;fill:none;fill-opacity:1;stroke:#d6d7de;stroke-width:4.78791;stroke-linejoin:miter;stroke-dasharray:none;stroke-opacity:1" id="rect637" width="95.212135" height="95.212151" x="2405.0667" y="979.80487" ry="9.1410179"/>
        <path d="m 2427.7505,1062.6135 h 12.6169 v -23.8318 h 6.2306 v -17.757 c 0,-2.6337 -0.8992,-4.8497 -2.6976,-6.6481 -1.7985,-1.7985 -4.0665,-2.6977 -6.804,-2.6977 h -6.2306 c -2.7375,0 -4.9794,0.8992 -6.7258,2.6977 -1.7466,1.7984 -2.6199,4.0144 -2.6199,6.6481 v 17.757 h 6.2304 z m 6.1958,-54.9845 c 2.1478,0 3.9626,-0.7033 5.4445,-2.1098 1.4819,-1.4064 2.2228,-3.2356 2.2228,-5.4875 0,-2.148 -0.7292,-3.93697 -2.1877,-5.3669 -1.4583,-1.42987 -3.2615,-2.1448 -5.4096,-2.1448 -2.1481,0 -3.937,0.70327 -5.3669,2.1098 -1.4299,1.4064 -2.1449,3.18367 -2.1449,5.3318 0,2.2518 0.7033,4.0926 2.11,5.5225 1.4064,1.4299 3.1837,2.1449 5.3318,2.1449 z m 28.3838,9.9689 h 20.0934 l -9.9688,-16.1994 z m 10.1246,35.6697 9.9688,-16.1993 h -20.0934 z" id="path638" style="fill:#d5d6dd;fill-opacity:1;stroke-width:0;stroke-dasharray:none"/>
      </g>
      <path d="m 2449.2988,284.88611 v -31.86527 h -10.1036 v -32.25391 q 0,-3.56217 2.5583,-6.12046 2.5583,-2.55829 6.1205,-2.55829 h 19.9482 q 3.5621,0 6.1204,2.55829 2.5583,2.55829 2.5583,6.12046 v 32.25391 h -10.1036 v 31.86527 z m 8.5596,-82.6425 q -3.6891,0 -6.1891,-2.5544 -2.5,-2.55454 -2.5,-6.11399 0,-3.68912 2.4896,-6.18912 2.4899,-2.5 6.1788,-2.5 3.6891,0 6.1891,2.48964 2.5,2.48976 2.5,6.17875 0,3.55959 -2.4896,6.12436 -2.4897,2.56476 -6.1788,2.56476 z" id="path639" style="display:inline;fill:#fff;fill-opacity:.798742;stroke-width:.129534;filter:url(#filter17-2)" transform="matrix(1.0163157,0,0,1.0163157,-1546.3472,655.92911)"/>
      <path d="m 2145.7669,282.41971 v -30.05182 h -14.7668 l 14.2098,-39.44586 q 1.121,-2.89831 3.8366,-4.58886 2.7155,-1.69067 5.7878,-1.69067 3.0723,0 5.7878,1.69067 2.7156,1.69055 3.8542,4.57785 l 14.1922,39.45687 h -14.7668 v 30.05182 z m 9.0778,-82.6425 q -3.6892,0 -6.1892,-2.55039 -2.5,-2.55039 -2.5,-6.118 0,-3.68912 2.4897,-6.18912 2.4899,-2.5 6.1787,-2.5 3.6892,0 6.1892,2.48963 2.5,2.48977 2.5,6.114 0,3.62435 -2.4897,6.18912 -2.4896,2.56476 -6.1787,2.56476 z" id="path640" style="display:inline;fill:#fff;fill-opacity:.803459;stroke-width:.129534;filter:url(#filter15-2)" transform="matrix(1.0163157,0,0,1.0163157,-1180.5744,658.43575)"/>
    </g>
    <g id="g619" transform="translate(-0.00103178)" style="display:inline;opacity:1">
      <rect style="font-variation-settings:'wght' 700;fill:#798387;fill-opacity:1;stroke-width:.340814" id="rect150" width="12.172729" height="4.0410485" x="3.4809062" y="249.0056"/>
      <rect style="font-variation-settings:'wght' 700;fill:#798387;fill-opacity:1;stroke-width:.212111" id="rect603" width="1.2395855" height="15.37086" x="5.9481091" y="261.83975"/>
      <rect style="font-variation-settings:'wght' 700;fill:#798387;fill-opacity:1;stroke-width:.295454" id="rect624" width="9.14814" height="4.0410485" x="22.200048" y="249.0056"/>
      <rect style="font-variation-settings:'wght' 700;fill:#798387;fill-opacity:1;stroke-width:.0602356" id="rect625" width="1.2395855" height="1.2395855" x="4.3786211" y="247.38503"/>
      <rect style="font-variation-settings:'wght' 700;fill:#798387;fill-opacity:1;stroke-width:.0602356" id="rect627" width="1.2395855" height="1.2395855" x="7.4245257" y="247.38503"/>
      <rect style="font-variation-settings:'wght' 700;fill:#798387;fill-opacity:1;stroke-width:.0602356" id="rect628" width="1.2395855" height="1.2395855" x="10.47043" y="247.38503"/>
      <rect style="font-variation-settings:'wght' 700;fill:#798387;fill-opacity:1;stroke-width:.0602356" id="rect629" width="1.2395855" height="1.2395855" x="13.516335" y="247.38503"/>
      <rect style="font-variation-settings:'wght' 700;fill:#798387;fill-opacity:1;stroke-width:.0602356" id="rect638" width="1.2395855" height="1.2395855" x="4.3786211" y="253.42764"/>
      <rect style="font-variation-settings:'wght' 700;fill:#798387;fill-opacity:1;stroke-width:.0602356" id="rect639" width="1.2395855" height="1.2395855" x="7.4245257" y="253.42764"/>
      <rect style="font-variation-settings:'wght' 700;fill:#798387;fill-opacity:1;stroke-width:.0602356" id="rect640" width="1.2395855" height="1.2395855" x="10.47043" y="253.42764"/>
      <rect style="font-variation-settings:'wght' 700;fill:#798387;fill-opacity:1;stroke-width:.0602356" id="rect641" width="1.2395855" height="1.2395855" x="13.516335" y="253.42764"/>
      <rect style="font-variation-settings:'wght' 700;fill:#798387;fill-opacity:1;stroke-width:.0602356" id="rect643" width="1.2395855" height="1.2395855" x="23.108421" y="247.38503"/>
      <rect style="font-variation-settings:'wght' 700;fill:#798387;fill-opacity:1;stroke-width:.0602356" id="rect644" width="1.2395855" height="1.2395855" x="26.154325" y="247.38503"/>
      <rect style="font-variation-settings:'wght' 700;fill:#798387;fill-opacity:1;stroke-width:.0602356" id="rect645" width="1.2395855" height="1.2395855" x="29.20023" y="247.38503"/>
      <rect style="font-variation-settings:'wght' 700;fill:#798387;fill-opacity:1;stroke-width:.0602356" id="rect646" width="1.2395855" height="1.2395855" x="23.108421" y="253.42764"/>
      <rect style="font-variation-settings:'wght' 700;fill:#798387;fill-opacity:1;stroke-width:.0602356" id="rect647" width="1.2395855" height="1.2395855" x="26.154325" y="253.42764"/>
      <rect style="font-variation-settings:'wght' 700;fill:#798387;fill-opacity:1;stroke-width:.0602356" id="rect653" width="1.2395855" height="1.2395855" x="29.20023" y="253.42764"/>
      <rect style="font-variation-settings:'wght' 700;fill:#798387;fill-opacity:1;stroke-width:.212111" id="rect656" width="1.2395855" height="15.37086" x="9.8093176" y="261.83975"/>
      <rect style="font-variation-settings:'wght' 700;fill:#798387;fill-opacity:1;stroke-width:.212111" id="rect657" width="1.2395855" height="15.37086" x="13.670526" y="261.83975"/>
      <rect style="font-variation-settings:'wght' 700;fill:#798387;fill-opacity:1;stroke-width:.212111" id="rect668" width="1.2395855" height="15.37086" x="17.531734" y="261.83975"/>
      <rect style="font-variation-settings:'wght' 700;fill:#798387;fill-opacity:1;stroke-width:.212111" id="rect672" width="1.2395855" height="15.37086" x="28.871622" y="261.83975"/>
      <rect style="font-variation-settings:'wght' 700;fill:#798387;fill-opacity:1;stroke-width:.212111" id="rect673" width="1.2395855" height="15.37086" x="32.686432" y="261.83975"/>
      <rect style="font-variation-settings:'wght' 700;fill:#798387;fill-opacity:1;stroke-width:.212111" id="rect676" width="1.2395855" height="15.37086" x="36.501244" y="261.83975"/>
      <rect style="font-variation-settings:'wght' 700;fill:#798387;fill-opacity:1;stroke-width:.212111" id="rect677" width="1.2395855" height="15.37086" x="40.316051" y="261.83975"/>
      <rect style="font-variation-settings:'wght' 700;fill:#798387;fill-opacity:1;stroke-width:.212111" id="rect678" width="1.2395855" height="15.37086" x="44.130863" y="261.83975"/>
      <rect style="font-variation-settings:'wght' 700;fill:#798387;fill-opacity:1;stroke-width:.212111" id="rect679" width="1.2395855" height="15.37086" x="47.945671" y="261.83975"/>
      <rect style="font-variation-settings:'wght' 700;fill:#798387;fill-opacity:1;stroke-width:.212111" id="rect720" width="1.2395855" height="15.37086" x="51.760483" y="261.83975"/>
      <rect style="font-variation-settings:'wght' 700;fill:#798387;fill-opacity:1;stroke-width:.212111" id="rect721" width="1.2395855" height="15.37086" x="55.575291" y="261.83975"/>
      <rect style="font-variation-settings:'wght' 700;fill:#798387;fill-opacity:1;stroke-width:.212111" id="rect722" width="1.2395855" height="15.37086" x="59.390102" y="261.83975"/>
      <rect style="font-variation-settings:'wght' 700;fill:#798387;fill-opacity:1;stroke-width:.212111" id="rect723" width="1.2395855" height="15.37086" x="63.20491" y="261.83975"/>
      <rect style="font-variation-settings:'wght' 700;fill:#798387;fill-opacity:1;stroke-width:.212111" id="rect724" width="1.2395855" height="15.37086" x="67.019722" y="261.83975"/>
      <rect style="font-variation-settings:'wght' 700;fill:#798387;fill-opacity:1;stroke-width:.240941" id="rect725" width="1.9833368" height="12.395855" x="22.829803" y="263.74872"/>
    </g>
    <path id="roomNames_1" d="m 396.28469,87.098644 v -7.616 h 8.832 v -23.488 h -7.616 v -5.824 q 3.328,-0.64 5.632,-1.536 2.368,-0.896 4.48,-2.176 h 6.912 v 33.024 h 7.616 v 7.616 z m 38.91199,0 q 0.32,-5.056 1.024,-9.28 0.704,-4.288 1.984,-8.128 1.344,-3.84 3.392,-7.552 2.048,-3.712 5.056,-7.744 h -18.24 v -7.936 h 28.288 v 5.76 q -3.584,4.352 -5.888,8.128 -2.24,3.776 -3.456,7.68 -1.216,3.904 -1.792,8.512 -0.576,4.608 -0.896,10.56 z M 389.5967,7.0986438 V -34.629356 h 9.408 v 16.064 h 14.4 v -16.064 h 9.472 V 7.0986438 h -9.472 V -10.309356 h -14.4 V 7.0986438 Z m 43.13599,0 V -34.629356 h 14.272 q 4.352,0 7.808,0.96 3.52,0.896 5.504,3.2 2.048,2.24 2.048,6.208 0,3.136 -1.408,5.632 -1.408,2.432 -4.032,3.392 v 0.256 q 3.52,0.768 5.504,3.072 1.984,2.2399998 1.984,6.2719998 0,4.416 -2.176,7.232 -2.176,2.816 -5.888,4.16 -3.648,1.344 -8.128,1.344 z m 9.408,-25.0239998 h 4.416 q 3.456,0 4.992,-1.344 1.6,-1.344 1.6,-3.584 0,-2.432 -1.6,-3.456 -1.6,-1.024 -4.928,-1.024 h -4.48 z m 0,17.72799979 h 5.312 q 3.84,0 5.76,-1.34399999 1.984,-1.408 1.984,-4.288 0,-2.688 -1.984,-3.904 -1.92,-1.2159998 -5.76,-1.2159998 h -5.312 z M 575.25299,86.714644 v -7.616 h 8.832 v -23.488 h -7.616 v -5.824 q 3.328,-0.64 5.632,-1.536 2.368,-0.896 4.48,-2.176 h 6.912 v 33.024 h 7.616 v 7.616 z m 47.29599,0.768 q -2.944,0 -5.696,-1.152 -2.752,-1.152 -4.928,-3.584 -2.176,-2.432 -3.456,-6.208 -1.28,-3.84 -1.28,-9.216 0,-5.696 1.344,-9.856 1.344,-4.16 3.648,-6.848 2.304,-2.688 5.248,-3.968 2.944,-1.344 6.208,-1.344 4.032,0 6.976,1.472 2.944,1.408 4.864,3.392 l -4.928,5.632 q -1.088,-1.152 -2.816,-1.984 -1.728,-0.896 -3.52,-0.896 -2.304,0 -4.288,1.344 -1.92,1.344 -3.072,4.544 -1.088,3.136 -1.088,8.512 0,5.056 0.896,7.936 0.96,2.816 2.496,4.032 1.536,1.152 3.2,1.152 1.408,0 2.56,-0.704 1.152,-0.704 1.856,-2.112 0.704,-1.472 0.704,-3.776 0,-2.176 -0.704,-3.456 -0.704,-1.28 -1.92,-1.856 -1.152,-0.576 -2.688,-0.576 -1.6,0 -3.328,0.96 -1.664,0.96 -3.008,3.392 l -0.448,-6.144 q 1.6,-2.368 4.096,-3.584 2.496,-1.28 4.48,-1.28 3.456,0 6.208,1.344 2.752,1.344 4.288,4.16 1.6,2.752 1.6,7.04 0,4.224 -1.856,7.296 -1.792,3.072 -4.864,4.736 -3.072,1.6 -6.784,1.6 z M 568.565,6.7146438 V -35.013356 h 9.408 v 16.064 h 14.4 v -16.064 h 9.472 V 6.7146438 h -9.472 V -10.693356 h -14.4 V 6.7146438 Z m 43.13599,0 V -35.013356 h 14.272 q 4.352,0 7.808,0.96 3.52,0.896 5.504,3.2 2.048,2.24 2.048,6.208 0,3.136 -1.408,5.632 -1.408,2.432 -4.032,3.392 v 0.256 q 3.52,0.768 5.504,3.072 1.984,2.24 1.984,6.2719998 0,4.416 -2.176,7.232 -2.176,2.816 -5.888,4.16 -3.648,1.344 -8.128,1.344 z m 9.408,-25.0239998 h 4.416 q 3.456,0 4.992,-1.344 1.6,-1.344 1.6,-3.584 0,-2.432 -1.6,-3.456 -1.6,-1.024 -4.928,-1.024 h -4.48 z m 0,17.72799979 h 5.312 q 3.84,0 5.76,-1.34399999 1.984,-1.408 1.984,-4.288 0,-2.688 -1.984,-3.9039998 -1.92,-1.216 -5.76,-1.216 h -5.312 z M 756.72139,86.714644 v -7.616 h 8.832 v -23.488 h -7.616 v -5.824 q 3.328,-0.64 5.632,-1.536 2.368,-0.896 4.48,-2.176 h 6.912 v 33.024 h 7.616 v 7.616 z m 45.11999,0.768 q -3.328,0 -6.016,-0.768 -2.624,-0.768 -4.672,-2.048 -2.048,-1.28 -3.648,-2.88 l 4.224,-5.952 q 1.856,1.664 4.032,2.88 2.176,1.152 4.736,1.152 2.048,0 3.584,-0.704 1.536,-0.768 2.368,-2.176 0.896,-1.408 0.896,-3.456 0,-3.072 -1.792,-4.672 -1.792,-1.6 -4.608,-1.6 -1.728,0 -2.944,0.448 -1.216,0.448 -3.072,1.6 l -4.224,-2.688 1.152,-20.544 h 23.04 v 7.936 h -14.912 l -0.704,7.616 q 1.216,-0.512 2.24,-0.704 1.024,-0.256 2.304,-0.256 3.52,0 6.464,1.344 2.944,1.344 4.672,4.16 1.792,2.816 1.792,7.104 0,4.544 -2.112,7.744 -2.048,3.136 -5.44,4.8 -3.392,1.664 -7.36,1.664 z M 750.0334,6.7146438 V -35.013356 h 9.408 v 16.064 h 14.4 v -16.064 h 9.472 V 6.7146438 h -9.472 V -10.693356 h -14.4 V 6.7146438 Z m 43.13599,0 V -35.013356 h 14.272 q 4.352,0 7.808,0.96 3.52,0.896 5.504,3.2 2.048,2.24 2.048,6.208 0,3.136 -1.408,5.632 -1.408,2.432 -4.032,3.392 v 0.256 q 3.52,0.768 5.504,3.072 1.984,2.24 1.984,6.2719998 0,4.416 -2.176,7.232 -2.176,2.816 -5.888,4.16 -3.648,1.344 -8.128,1.344 z m 9.408,-25.0239998 h 4.416 q 3.456,0 4.992,-1.344 1.6,-1.344 1.6,-3.584 0,-2.432 -1.6,-3.456 -1.6,-1.024 -4.928,-1.024 h -4.48 z m 0,17.72799979 h 5.312 q 3.84,0 5.76,-1.34399999 1.984,-1.408 1.984,-4.288 0,-2.688 -1.984,-3.9039998 -1.92,-1.216 -5.76,-1.216 h -5.312 z M 938.18979,87.098644 v -7.616 h 8.832 v -23.488 h -7.616 v -5.824 q 3.328,-0.64 5.632,-1.536 2.368,-0.896 4.48,-2.176 h 6.912 v 33.024 h 7.616 v 7.616 z m 48.12799,0 v -23.488 q 0,-1.92 0.128,-4.544 0.192,-2.624 0.256,-4.544 h -0.256 q -0.768,1.664 -1.6,3.392 -0.832,1.664 -1.728,3.456 l -5.376,8.832 h 22.016 v 7.168 h -31.04 v -6.464 l 14.848,-24.448 h 11.52 v 40.64 z M 931.5018,7.0986438 V -34.629356 h 9.408 v 16.064 h 14.4 v -16.064 h 9.472 V 7.0986438 h -9.472 V -10.309356 h -14.4 V 7.0986438 Z m 43.13599,0 V -34.629356 h 14.272 q 4.352,0 7.808,0.96 3.52001,0.896 5.50401,3.2 2.048,2.24 2.048,6.208 0,3.136 -1.408,5.632 -1.408,2.432 -4.03201,3.392 v 0.256 q 3.52001,0.768 5.50401,3.072 1.984,2.2399998 1.984,6.2719998 0,4.416 -2.176,7.232 -2.176,2.816 -5.88801,4.16 -3.648,1.344 -8.128,1.344 z m 9.408,-25.0239998 h 4.416 q 3.456,0 4.992,-1.344 1.6,-1.344 1.6,-3.584 0,-2.432 -1.6,-3.456 -1.6,-1.024 -4.928,-1.024 h -4.48 z m 0,17.72799979 h 5.312 q 3.84,0 5.76,-1.34399999 1.984,-1.408 1.984,-4.288 0,-2.688 -1.984,-3.904 -1.92,-1.2159998 -5.76,-1.2159998 h -5.312 z M 1119.6583,86.714644 v -7.616 h 8.832 v -23.488 h -7.616 v -5.824 q 3.328,-0.64 5.632,-1.536 2.368,-0.896 4.48,-2.176 h 6.912 v 33.024 h 7.616 v 7.616 z m 44.864,0.768 q -3.264,0 -5.952,-0.768 -2.624,-0.704 -4.672,-1.984 -2.048,-1.28 -3.52,-3.008 l 4.352,-5.952 q 1.856,1.792 4.096,2.944 2.24,1.152 4.8,1.152 2.944,0 4.736,-1.216 1.856,-1.28 1.856,-3.584 0,-1.792 -0.896,-3.072 -0.896,-1.344 -3.264,-2.048 -2.304,-0.704 -6.784,-0.704 v -6.656 q 3.648,0 5.76,-0.704 2.112,-0.704 2.944,-1.92 0.896,-1.216 0.896,-2.816 0,-2.176 -1.344,-3.328 -1.28,-1.152 -3.648,-1.152 -2.176,0 -3.968,0.96 -1.728,0.896 -3.648,2.624 l -4.736,-5.76 q 2.816,-2.432 5.952,-3.776 3.136,-1.408 6.848,-1.408 4.16,0 7.296,1.344 3.2,1.28 4.928,3.776 1.792,2.432 1.792,6.016 0,3.136 -1.792,5.376 -1.728,2.24 -4.992,3.648 v 0.256 q 2.304,0.704 4.16,2.048 1.856,1.28 2.88,3.264 1.024,1.984 1.024,4.608 0,3.776 -2.112,6.464 -2.048,2.624 -5.504,4.032 -3.392,1.344 -7.488,1.344 z M 1112.9703,6.7146438 V -35.013356 h 9.408 v 16.064 h 14.4 v -16.064 h 9.472 V 6.7146438 h -9.472 V -10.693356 h -14.4 V 6.7146438 Z m 43.136,0 V -35.013356 h 14.272 q 4.352,0 7.808,0.96 3.52,0.896 5.504,3.2 2.048,2.24 2.048,6.208 0,3.136 -1.408,5.632 -1.408,2.432 -4.032,3.392 v 0.256 q 3.52,0.768 5.504,3.072 1.984,2.24 1.984,6.2719998 0,4.416 -2.176,7.232 -2.176,2.816 -5.888,4.16 -3.648,1.344 -8.128,1.344 z m 9.408,-25.0239998 h 4.416 q 3.456,0 4.992,-1.344 1.6,-1.344 1.6,-3.584 0,-2.432 -1.6,-3.456 -1.6,-1.024 -4.928,-1.024 h -4.48 z m 0,17.72799979 h 5.312 q 3.84,0 5.76,-1.34399999 1.984,-1.408 1.984,-4.288 0,-2.688 -1.984,-3.9039998 -1.92,-1.216 -5.76,-1.216 h -5.312 z M 1301.1267,87.098644 v -7.616 h 8.832 v -23.488 h -7.616 v -5.824 q 3.328,-0.64 5.632,-1.536 2.368,-0.896 4.48,-2.176 h 6.912 v 33.024 h 7.616 v 7.616 z m 31.68,0 v -5.824 q 5.12,-4.544 9.088,-8.512 4.032,-3.968 6.272,-7.36 2.304,-3.392 2.304,-6.208 0,-3.008 -1.536,-4.544 -1.536,-1.6 -4.224,-1.6 -2.176,0 -3.968,1.28 -1.728,1.216 -3.264,2.88 l -4.928,-4.864 q 2.944,-3.328 6.016,-4.992 3.136,-1.664 7.424,-1.664 3.968,0 6.976,1.6 3.072,1.6 4.736,4.48 1.728,2.88 1.728,6.784 0,3.648 -1.984,7.168 -1.92,3.456 -5.12,6.912 -3.2,3.456 -6.784,7.04 1.536,-0.192 3.456,-0.32 1.92,-0.192 3.328,-0.192 h 9.088 v 7.936 z M 1294.4387,7.0986438 V -34.629356 h 9.408 v 16.064 h 14.4 v -16.064 h 9.472 V 7.0986438 h -9.472 V -10.309356 h -14.4 V 7.0986438 Z m 43.136,0 V -34.629356 h 14.272 q 4.352,0 7.808,0.96 3.52,0.896 5.504,3.2 2.048,2.24 2.048,6.208 0,3.136 -1.408,5.632 -1.408,2.432 -4.032,3.392 v 0.256 q 3.52,0.768 5.504,3.072 1.984,2.2399998 1.984,6.2719998 0,4.416 -2.176,7.232 -2.176,2.816 -5.888,4.16 -3.648,1.344 -8.128,1.344 z m 9.408,-25.0239998 h 4.416 q 3.456,0 4.992,-1.344 1.6,-1.344 1.6,-3.584 0,-2.432 -1.6,-3.456 -1.6,-1.024 -4.928,-1.024 h -4.48 z m 0,17.72799979 h 5.312 q 3.84,0 5.76,-1.34399999 1.984,-1.408 1.984,-4.288 0,-2.688 -1.984,-3.904 -1.92,-1.2159998 -5.76,-1.2159998 h -5.312 z M 1480.169,87.098644 v -7.616 h 8.832 v -23.488 h -7.616 v -5.824 q 3.328,-0.64 5.632,-1.536 2.368,-0.896 4.48,-2.176 h 6.912 v 33.024 h 7.616 v 7.616 z m 33.792,0 v -7.616 h 8.832 v -23.488 h -7.616 v -5.824 q 3.328,-0.64 5.632,-1.536 2.368,-0.896 4.48,-2.176 h 6.912 v 33.024 h 7.616 v 7.616 z M 1473.481,7.0986438 V -34.629356 h 9.408 v 16.064 h 14.4 v -16.064 h 9.472 V 7.0986438 h -9.472 V -10.309356 h -14.4 V 7.0986438 Z m 43.136,0 V -34.629356 h 14.272 q 4.352,0 7.808,0.96 3.52,0.896 5.504,3.2 2.048,2.24 2.048,6.208 0,3.136 -1.408,5.632 -1.408,2.432 -4.032,3.392 v 0.256 q 3.52,0.768 5.504,3.072 1.984,2.2399998 1.984,6.2719998 0,4.416 -2.176,7.232 -2.176,2.816 -5.888,4.16 -3.648,1.344 -8.128,1.344 z m 9.408,-25.0239998 h 4.416 q 3.456,0 4.992,-1.344 1.6,-1.344 1.6,-3.584 0,-2.432 -1.6,-3.456 -1.6,-1.024 -4.928,-1.024 h -4.48 z m 0,17.72799979 h 5.312 q 3.84,0 5.76,-1.34399999 1.984,-1.408 1.984,-4.288 0,-2.688 -1.984,-3.904 -1.92,-1.2159998 -5.76,-1.2159998 h -5.312 z M -1008.5333,1115.8141 v -11.424 h 13.24804 v -35.232 h -11.42404 v -8.736 q 4.992,-0.96 8.44804,-2.304 3.552,-1.344 6.72,-3.264 h 10.368 v 49.536 h 11.424 v 11.424 z m 69.31203,1.152 q -9.792,0 -15.84,-8.16 -5.952,-8.16 -5.952,-23.712 0,-15.648 5.952,-23.52 6.048,-7.872 15.84,-7.872 9.792,0 15.744,7.968 6.048,7.872 6.048,23.424 0,15.552 -6.048,23.712 -5.952,8.16 -15.744,8.16 z m 0,-10.944 q 2.4,0 4.32,-1.728 1.92,-1.824 2.976,-6.336 1.152,-4.608 1.152,-12.864 0,-8.352 -1.152,-12.768 -1.056,-4.416 -2.976,-6.048 -1.92,-1.632 -4.32,-1.632 -2.4,0 -4.32,1.632 -1.92,1.632 -3.072,6.048 -1.056,4.416 -1.056,12.768 0,8.256 1.056,12.864 1.152,4.512 3.072,6.336 1.92,1.728 4.32,1.728 z m 52.31999,10.944 q -4.416,0 -8.544,-1.728 -4.128,-1.728 -7.392,-5.376 -3.264,-3.648 -5.184,-9.312 -1.92,-5.76 -1.92,-13.824 0,-8.544 2.016,-14.784 2.016,-6.24 5.472,-10.272 3.456,-4.032 7.872,-5.952 4.416,-2.016 9.312,-2.016 6.048,0 10.464,2.208 4.416,2.112 7.296,5.088 l -7.392,8.448 q -1.632,-1.728 -4.224,-2.976 -2.592,-1.344 -5.28,-1.344 -3.456,0 -6.432,2.016 -2.88,2.016 -4.608,6.816 -1.632,4.704 -1.632,12.768 0,7.584 1.344,11.904 1.44,4.224 3.744,6.048 2.304,1.728 4.8,1.728 2.112,0 3.84,-1.056 1.728,-1.056 2.784,-3.168 1.056,-2.208 1.056,-5.664 0,-3.264 -1.056,-5.184 -1.056,-1.92 -2.88,-2.784 -1.728,-0.864 -4.032,-0.864 -2.4,0 -4.992,1.44 -2.496,1.44 -4.512,5.088 l -0.672,-9.216 q 2.4,-3.552 6.144,-5.376 3.744,-1.92 6.72,-1.92 5.184,0 9.312,2.016 4.128,2.016 6.432,6.24 2.4,4.128 2.4,10.56 0,6.336 -2.784,10.944 -2.688,4.608 -7.296,7.104 -4.608,2.4 -10.176,2.4 z m 38.11198,0 q -3.648,0 -6.144,-2.592 -2.4,-2.592 -2.4,-6.24 0,-3.84 2.4,-6.336 2.496,-2.592 6.144,-2.592 3.744,0 6.144,2.592 2.4,2.496 2.4,6.336 0,3.648 -2.4,6.24 -2.4,2.592 -6.144,2.592 z m 21.11993,-1.152 v -11.424 h 13.248 v -35.232 h -11.424 v -8.736 q 4.992,-0.96 8.448,-2.304 3.552,-1.344 6.72,-3.264 h 10.368 v 49.536 h 11.424 v 11.424 z M -953.47729,995.81408 v -62.592 h 14.112 v 24.096 h 21.6 v -24.096 h 14.208 v 62.592 h -14.208 v -26.112 h -21.6 v 26.112 z m 64.70398,0 v -62.592 h 21.408 q 6.528,0 11.712,1.44 5.28,1.344 8.256,4.8 3.072,3.36 3.072,9.312 0,4.704 -2.112,8.448 -2.112,3.648 -6.048,5.088 v 0.384 q 5.28,1.152 8.256,4.608 2.976,3.36 2.976,9.408 0,6.624 -3.264,10.848 -3.264,4.224 -8.832,6.24 -5.472,2.016 -12.192,2.016 z m 14.112,-37.536 h 6.624 q 5.184,0 7.488,-2.016 2.4,-2.016 2.4,-5.376 0,-3.648 -2.4,-5.184 -2.4,-1.536 -7.392,-1.536 h -6.72 z m 0,26.592 h 7.968 q 5.76,0 8.64,-2.016 2.976,-2.112 2.976,-6.432 0,-4.032 -2.976,-5.856 -2.88,-1.824 -8.64,-1.824 h -7.968 z M -54.6593,1115.8142 v -11.424 h 13.248 v -35.232 h -11.424 v -8.736 q 4.992,-0.96 8.448,-2.304 3.552,-1.344 6.72,-3.264 h 10.368 v 49.536 h 11.424 v 11.424 z m 69.31199,1.152 q -9.792,0 -15.84,-8.16 -5.952,-8.16 -5.952,-23.712 0,-15.648 5.952,-23.52 6.048,-7.872 15.84,-7.872 9.792,0 15.744,7.968 6.048,7.872 6.048,23.424 0,15.552 -6.048,23.712 -5.952,8.16 -15.744,8.16 z m 0,-10.944 q 2.4,0 4.32,-1.728 1.92,-1.824 2.976,-6.336 1.152,-4.608 1.152,-12.864 0,-8.352 -1.152,-12.768 -1.056,-4.416 -2.976,-6.048 -1.92,-1.632 -4.32,-1.632 -2.4,0 -4.32,1.632 -1.92,1.632 -3.072,6.048 -1.056,4.416 -1.056,12.768 0,8.256 1.056,12.864 1.152,4.512 3.072,6.336 1.92,1.728 4.32,1.728 z m 50.59198,10.944 q -6.048,0 -10.944,-2.112 -4.8,-2.112 -7.584,-5.856 -2.688,-3.84 -2.688,-8.736 0,-3.744 1.344,-6.432 1.44,-2.784 3.744,-4.896 2.4,-2.112 5.28,-3.648 v -0.384 q -3.456,-2.688 -5.856,-6.144 -2.304,-3.456 -2.304,-8.256 0,-5.184 2.496,-8.928 2.496,-3.84 6.912,-5.856 4.416,-2.016 10.08,-2.016 8.448,0 13.44,4.608 5.088,4.512 5.088,12.096 0,2.88 -1.152,5.472 -1.056,2.496 -2.88,4.512 -1.824,1.92 -3.936,3.36 v 0.384 q 2.88,1.536 5.28,3.744 2.4,2.112 3.84,5.184 1.44,2.976 1.44,7.008 0,4.8 -2.688,8.64 -2.688,3.744 -7.584,6.048 -4.8,2.208 -11.328,2.208 z m 3.84,-36.672 q 1.824,-2.112 2.784,-4.32 0.96,-2.208 0.96,-4.608 0,-2.4 -0.864,-4.128 -0.864,-1.728 -2.592,-2.688 -1.632,-1.056 -3.936,-1.056 -2.784,0 -4.8,1.824 -2.016,1.728 -2.016,5.184 0,2.496 1.344,4.224 1.344,1.728 3.648,3.072 2.4,1.344 5.472,2.496 z m -3.552,26.88 q 2.304,0 4.128,-0.768 1.92,-0.864 2.976,-2.496 1.056,-1.728 1.056,-4.32 0,-2.688 -1.632,-4.416 -1.536,-1.824 -4.512,-3.168 -2.88,-1.44 -6.72,-3.072 -2.016,1.824 -3.36,4.416 -1.344,2.496 -1.344,5.28 0,2.688 1.248,4.608 1.344,1.92 3.456,2.976 2.208,0.96 4.704,0.96 z M -39.34729,995.81418 v -62.592 h 14.112 v 24.096 h 21.6 v -24.096 h 14.208 v 62.592 h -14.208 v -26.112 h -21.6 v 26.112 z m 64.70398,0 v -62.592 h 21.408 q 6.528,0 11.712,1.44 5.28,1.344 8.256,4.8 3.072,3.36 3.072,9.312 0,4.704 -2.112,8.448 -2.112,3.648 -6.048,5.088 v 0.384 q 5.28,1.152 8.256,4.608 2.976,3.36 2.976,9.408 0,6.624 -3.264,10.848 -3.264,4.224 -8.832,6.24 -5.472,2.016 -12.192,2.016 z m 14.112,-37.536 h 6.624 q 5.184,0 7.488,-2.016 2.4,-2.016 2.4,-5.376 0,-3.648 -2.4,-5.184 -2.4,-1.536 -7.392,-1.536 h -6.72 z m 0,26.592 h 7.968 q 5.76,0 8.64,-2.016 2.976,-2.112 2.976,-6.432 0,-4.032 -2.976,-5.856 -2.88,-1.824 -8.64,-1.824 h -7.968 z M -54.5633,561.19428 v -11.424 h 13.248 v -35.232 h -11.424 v -8.736 q 4.992,-0.96 8.448,-2.304 3.552,-1.344 6.72,-3.264 h 10.368 v 49.536 h 11.424 v 11.424 z m 69.31199,1.152 q -9.792,0 -15.84,-8.16 -5.952,-8.16 -5.952,-23.712 0,-15.648 5.952,-23.52 6.048,-7.872 15.84,-7.872 9.792,0 15.744,7.968 6.048,7.872 6.048,23.424 0,15.552 -6.048,23.712 -5.952,8.16 -15.744,8.16 z m 0,-10.944 q 2.4,0 4.32,-1.728 1.92,-1.824 2.976,-6.336 1.152,-4.608 1.152,-12.864 0,-8.352 -1.152,-12.768 -1.056,-4.416 -2.976,-6.048 -1.92,-1.632 -4.32,-1.632 -2.4,0 -4.32,1.632 -1.92,1.632 -3.072,6.048 -1.056,4.416 -1.056,12.768 0,8.256 1.056,12.864 1.152,4.512 3.072,6.336 1.92,1.728 4.32,1.728 z m 39.74398,9.792 q 0.48,-7.584 1.536,-13.92 1.056,-6.432 2.976,-12.192 2.016,-5.76 5.088,-11.328 3.072,-5.568 7.584,-11.616 h -27.36 v -11.904 h 42.432 v 8.64 q -5.376,6.528 -8.832,12.192 -3.36,5.664 -5.184,11.52 -1.824,5.856 -2.688,12.768 -0.864,6.912 -1.344,15.84 z m -93.74396,-120 v -62.592 h 14.112 v 24.096 h 21.6 v -24.096 h 14.208 v 62.592 h -14.208 v -26.112 h -21.6 v 26.112 z m 64.70398,0 v -62.592 h 21.408 q 6.528,0 11.712,1.44 5.28,1.344 8.256,4.8 3.072,3.36 3.072,9.312 0,4.704 -2.112,8.448 -2.112,3.648 -6.048,5.088 v 0.384 q 5.28,1.152 8.256,4.608 2.976,3.36 2.976,9.408 0,6.624 -3.264,10.848 -3.264,4.224 -8.832,6.24 -5.472,2.016 -12.192,2.016 z m 14.112,-37.536 h 6.624 q 5.184,0 7.488,-2.016 2.4,-2.016 2.4,-5.376 0,-3.648 -2.4,-5.184 -2.4,-1.536 -7.392,-1.536 h -6.72 z m 0,26.592 h 7.968 q 5.76,0 8.64,-2.016 2.976,-2.112 2.976,-6.432 0,-4.032 -2.976,-5.856 -2.88,-1.824 -8.64,-1.824 h -7.968 z m -1047.61799,130.945 v -11.424 h 13.24804 v -35.232 h -11.42404 v -8.736 q 4.992,-0.96 8.44804,-2.304 3.552,-1.344 6.72,-3.264 h 10.368 v 49.536 h 11.424 v 11.424 z m 69.31203,1.152 q -9.792,0 -15.84,-8.16 -5.952,-8.16 -5.952,-23.712 0,-15.648 5.952,-23.52 6.048,-7.872 15.84,-7.872 9.792,0 15.744,7.968 6.048,7.872 6.048,23.424 0,15.552 -6.048,23.712 -5.952,8.16 -15.744,8.16 z m 0,-10.944 q 2.4,0 4.32,-1.728 1.92,-1.824 2.976,-6.336 1.152,-4.608 1.152,-12.864 0,-8.352 -1.152,-12.768 -1.056,-4.416 -2.976,-6.048 -1.92,-1.632 -4.32,-1.632 -2.4,0 -4.32,1.632 -1.92,1.632 -3.072,6.048 -1.056,4.416 -1.056,12.768 0,8.256 1.056,12.864 1.152,4.512 3.072,6.336 1.92,1.728 4.32,1.728 z m 52.31999,10.944 q -4.416,0 -8.544,-1.728 -4.128,-1.728 -7.392,-5.376 -3.264,-3.648 -5.184,-9.312 -1.92,-5.76 -1.92,-13.824 0,-8.544 2.016,-14.784 2.016,-6.24 5.472,-10.272 3.456,-4.032 7.872,-5.952 4.416,-2.016 9.312,-2.016 6.048,0 10.464,2.208 4.416,2.112 7.296,5.088 l -7.392,8.448 q -1.632,-1.728 -4.224,-2.976 -2.592,-1.344 -5.28,-1.344 -3.456,0 -6.432,2.016 -2.88,2.016 -4.608,6.816 -1.632,4.704 -1.632,12.768 0,7.584 1.344,11.904 1.44,4.224 3.744,6.048 2.304,1.728 4.8,1.728 2.112,0 3.84,-1.056 1.728,-1.056 2.784,-3.168 1.056,-2.208 1.056,-5.664 0,-3.264 -1.056,-5.184 -1.056,-1.92 -2.88,-2.784 -1.728,-0.864 -4.032,-0.864 -2.4,0 -4.992,1.44 -2.496,1.44 -4.512,5.088 l -0.672,-9.216 q 2.4,-3.552 6.144,-5.376 3.744,-1.92 6.72,-1.92 5.184,0 9.312,2.016 4.128,2.016 6.432,6.24 2.4,4.128 2.4,10.56 0,6.336 -2.784,10.944 -2.688,4.608 -7.296,7.104 -4.608,2.4 -10.176,2.4 z m 38.11198,0 q -3.648,0 -6.144,-2.592 -2.4,-2.592 -2.4,-6.24 0,-3.84 2.4,-6.336 2.496,-2.592 6.144,-2.592 3.744,0 6.144,2.592 2.4,2.496 2.4,6.336 0,3.648 -2.4,6.24 -2.4,2.592 -6.144,2.592 z m 17.95193,-1.152 v -8.736 q 7.68,-6.816 13.632,-12.768 6.048,-5.952 9.408,-11.04 3.456,-5.088 3.456,-9.312 0,-4.512 -2.304,-6.816 -2.304,-2.4 -6.336,-2.4 -3.264,0 -5.952,1.92 -2.592,1.824 -4.896,4.32 l -7.392,-7.296 q 4.416,-4.992 9.024,-7.488 4.704,-2.496 11.136,-2.496 5.952,0 10.464,2.4 4.608,2.4 7.104,6.72 2.592,4.32 2.592,10.176 0,5.472 -2.976,10.752 -2.88,5.184 -7.68,10.368 -4.8,5.184 -10.176,10.56 2.304,-0.288 5.184,-0.48 2.88,-0.288 4.992,-0.288 h 13.632 v 11.904 z m -122.63992,-120 v -62.592 h 14.112 v 24.096 h 21.6 v -24.096 h 14.208 v 62.592 h -14.208 v -26.112 h -21.6 v 26.112 z m 64.70398,0 v -62.592 h 21.408 q 6.528,0 11.712,1.44 5.28,1.344 8.256,4.8 3.072,3.36 3.072,9.312 0,4.704 -2.112,8.448 -2.112,3.648 -6.048,5.088 v 0.384 q 5.28,1.152 8.256,4.608 2.976,3.36 2.976,9.408 0,6.624 -3.264,10.848 -3.264,4.224 -8.832,6.24 -5.472,2.016 -12.192,2.016 z m 14.112,-37.536 h 6.624 q 5.184,0 7.488,-2.016 2.4,-2.016 2.4,-5.376 0,-3.648 -2.4,-5.184 -2.4,-1.536 -7.392,-1.536 h -6.72 z m 0,26.592 h 7.968 q 5.76,0 8.64,-2.016 2.976,-2.112 2.976,-6.432 0,-4.032 -2.976,-5.856 -2.88,-1.824 -8.64,-1.824 h -7.968 z" style="font-size:64px;font-family:'Source Sans 3';-inkscape-font-specification:'Source Sans 3, @wght=700';font-variation-settings:'wght' 700;text-align:center;white-space:pre;display:inline;opacity:1;fill:#bec3c6;stroke-width:55" transform="matrix(0.02479171,0,0,0.02479171,32.636385,285.33409)"/>
  </g>
</svg>
