<?xml version="1.0" encoding="UTF-8" standalone="no"?>
<!-- Created with Inkscape (http://www.inkscape.org/) -->

<svg
   width="512"
   height="512"
   viewBox="0 0 135.46666 135.46667"
   version="1.1"
   id="svg1"
   xml:space="preserve"
   inkscape:version="1.3.2 (091e20e, 2023-11-25, custom)"
   sodipodi:docname="logo.svg"
   inkscape:export-filename="logo192.png"
   inkscape:export-xdpi="36.000004"
   inkscape:export-ydpi="36.000004"
   xmlns:inkscape="http://www.inkscape.org/namespaces/inkscape"
   xmlns:sodipodi="http://sodipodi.sourceforge.net/DTD/sodipodi-0.dtd"
   xmlns="http://www.w3.org/2000/svg"
   xmlns:svg="http://www.w3.org/2000/svg">
  <sodipodi:namedview
   id="namedview1"
   pagecolor="#505050"
   bordercolor="#eeeeee"
   borderopacity="1"
   inkscape:showpageshadow="0"
   inkscape:pageopacity="0"
   inkscape:pagecheckerboard="0"
   inkscape:deskcolor="#505050"
   inkscape:document-units="px"
   inkscape:zoom="1"
   inkscape:cx="294.5"
   inkscape:cy="244"
   inkscape:window-width="1440"
   inkscape:window-height="890"
   inkscape:window-x="-6"
   inkscape:window-y="-6"
   inkscape:window-maximized="1"
   inkscape:current-layer="layer1" />
  <defs
   id="defs1" />
  <g
   inkscape:label="Ebene 1"
   inkscape:groupmode="layer"
   id="layer1">
    
    <g
   inkscape:groupmode="layer"
   id="layer2"
   inkscape:label="Plan"
   style="display:none">
      <path
   style="font-variation-settings:'wdth' 70, 'wght' 600;fill:none;fill-opacity:1;stroke:#bec3c6;stroke-width:1.84364;stroke-linecap:round;stroke-linejoin:round;stroke-miterlimit:4;stroke-dasharray:none;stroke-opacity:1"
   d="M 52.995157,108.80018 57.089615,26.958717"
   id="path2"
   sodipodi:nodetypes="cc" />
      <path
   style="display:inline;fill:#bec3c6;fill-opacity:1;stroke:none;stroke-width:0.285978;stroke-linejoin:bevel;stroke-dasharray:none;stroke-opacity:1"
   d="m 65.50813,29.087202 3.370525,0.164912 0.01908,-0.389997 7.990042,0.390935 -0.01908,0.389996 3.242723,0.158659 -0.02576,0.526482 26.86591,1.314488 -0.53335,10.900735 -27.557005,-1.348301 -0.665129,-0.666733 -1.355952,-0.05142 -1.331793,1.112969 -0.08368,1.57317 0.414009,0.339138 -0.723634,14.789868 0.312805,0.0153 -0.243258,4.971785 c 0,0 1.062862,1.202197 0.979653,3.542924 -0.08264,2.324523 -1.32234,3.461027 -1.32234,3.461027 l -0.257926,5.271563 -0.312805,-0.0153 -0.721633,14.748971 -0.443071,0.254843 -0.127298,1.58926 1.248327,1.281876 1.516237,0.05144 0.526933,-0.396458 27.60935,1.350863 -0.52179,10.664513 -27.247497,-1.37351 -0.0264,0.53948 -3.095925,-0.15147 -0.01359,0.27775 -2.295933,-0.11234 -0.01462,0.29875 -3.279784,-0.16047 0.01462,-0.29875 -2.476868,-0.12119 0.01359,-0.27775 -3.071223,-0.15026 1.398742,-28.587932 -1.956019,-0.0957 0.171516,-3.505494 0.469201,0.01305 0.0052,-0.146732 0.234785,0.0083 0.06035,-1.697338 -0.443991,-0.01902 0.01692,-0.47476 0.444215,0.01262 0.05322,-1.49701 -0.444106,-0.01582 0.01665,-0.467077 0.444104,0.01582 0.05947,-1.673132 -0.444105,-0.01582 0.01637,-0.459442 0.444103,0.01582 0.05349,-1.504668 -0.444103,-0.01582 0.01646,-0.463269 0.444106,0.01582 0.06677,-1.63836 -0.363618,-0.01289 0.01186,-0.332479 -0.210447,-0.0074 0.16287,-3.328784 1.956019,0.0957 z"
   id="path5-8"
   sodipodi:nodetypes="ccccccccccccccccccsccccccccccccccccccccccccccccccccccccccccccccccccccc"
   inkscape:label="LI_Lipsius" />
      <rect
   style="font-variation-settings:'wdth' 70, 'wght' 600;fill:#bec3c6;fill-opacity:1;stroke:none;stroke-width:2.13314;stroke-linecap:round;stroke-linejoin:round;stroke-miterlimit:4;stroke-dasharray:none;stroke-opacity:1"
   id="rect8"
   width="17.109499"
   height="70.861542"
   x="34.112095"
   y="28.379313"
   transform="matrix(0.99871754,0.05062897,-0.05062389,0.9987178,0,0)" />
      <rect
   style="font-variation-settings:'wdth' 70, 'wght' 600;fill:none;fill-opacity:1;stroke:#ffed00;stroke-width:1.85208;stroke-linecap:round;stroke-linejoin:round;stroke-miterlimit:4;stroke-dasharray:none;stroke-opacity:1"
   id="rect2"
   width="84.372032"
   height="83.065964"
   x="25.547314"
   y="26.200348"
   inkscape:label="border" />
    </g><rect
   style="font-variation-settings:'wght' 600;fill:#000000;fill-opacity:0.01;stroke-width:2.3799"
   id="rect6"
   width="135.46666"
   height="135.46666"
   x="0"
   y="0"
   inkscape:label="background" />
    <g
   inkscape:groupmode="layer"
   id="layer3"
   inkscape:label="Marker"
   transform="translate(0,4.3477797)">
      
      
      
      
      
      
      
      
      
      
      
      
      
      
      
      
    <path
   style="font-variation-settings:'wght' 600;fill:#009fe4;fill-opacity:1;stroke-width:0.264583"
   d="M 38.890039,52.194483 86.365876,24.784686 c -7.422938,-3.767267 -8.546443,-4.13003 -17.0728,-5.418737 L 42.73404,34.699425 c -3.094898,7.808972 -3.340517,8.909279 -3.844001,17.495058 z"
   id="path1"
   sodipodi:nodetypes="ccccc" /><path
   style="font-variation-settings:'wght' 600;fill:#e5007d;fill-opacity:1;stroke-width:0.264583"
   d="M 39.582849,59.432357 46.197411,70.889158 69.756799,57.287529 C 63.870815,55.5837 61.590922,51.216362 63.141888,45.830928 Z"
   id="path3"
   sodipodi:nodetypes="ccccc" /><path
   style="font-variation-settings:'wght' 600;fill:#02964f;fill-opacity:1;stroke-width:0.264583"
   d="m 48.965205,76.92904 6.614562,11.456802 39.312947,-22.696963 c 3.449857,-8.220316 3.935572,-10.343839 4.421104,-17.82824 z"
   id="path4"
   sodipodi:nodetypes="ccccc" /><path
   style="font-variation-settings:'wght' 600;fill:#e53212;fill-opacity:1;stroke-width:0.264583"
   d="M 58.347555,94.425714 64.962121,105.88252 78.190719,98.245366 89.325381,76.541044 Z"
   id="path5"
   sodipodi:nodetypes="ccccc" /><path
   style="font-variation-settings:'wght' 600;fill:#e5007d;fill-opacity:1;stroke-width:0.264583"
   d="m 69.686731,42.051872 c 6.72704,2.941661 7.277577,3.920779 6.614562,11.456802 l 21.91235,-12.650712 -6.61491,-11.456601 z"
   id="path6"
   sodipodi:nodetypes="ccccc" /><path
   style="font-variation-settings:'wdth' 70, 'wght' 600;fill:none;fill-opacity:1;stroke:#ffed00;stroke-width:1.85208;stroke-linecap:round;stroke-linejoin:round;stroke-miterlimit:4;stroke-dasharray:none;stroke-opacity:1"
   id="path8"
   sodipodi:type="arc"
   sodipodi:cx="-39.963219"
   sodipodi:cy="-75.100975"
   sodipodi:rx="30.291779"
   sodipodi:ry="30.291779"
   sodipodi:start="0"
   sodipodi:end="4.0516169"
   sodipodi:open="true"
   sodipodi:arc-type="arc"
   d="m -9.6714401,-75.100975 a 30.291779,30.291779 0 0 1 -23.6736069,29.559967 30.291779,30.291779 0 0 1 -34.018064,-16.643398 30.291779,30.291779 0 0 1 8.809022,-36.832492"
   transform="rotate(153.73026)" /><circle
   style="font-variation-settings:'wdth' 70, 'wght' 600;fill:none;fill-opacity:1;stroke:#ffed00;stroke-width:1.85208;stroke-linecap:round;stroke-linejoin:round;stroke-miterlimit:4;stroke-dasharray:none;stroke-opacity:1"
   id="path8-0"
   cx="69.720451"
   cy="49.668041"
   r="7.619575" /><path
   style="font-variation-settings:'wdth' 70, 'wght' 600;fill:none;fill-opacity:1;stroke:#ffed00;stroke-width:1.85208;stroke-linecap:round;stroke-linejoin:round;stroke-miterlimit:4;stroke-dasharray:none;stroke-opacity:1"
   d="M 42.34538,63.705699 69.720453,114.75609 95.910117,63.705699"
   id="path9"
   sodipodi:nodetypes="ccc" /></g>
  </g>
</svg>
