<?xml version="1.0" encoding="UTF-8" standalone="no"?>
<!-- Created with Inkscape (http://www.inkscape.org/) -->

<svg
   width="1000.0001"
   height="1000.0001"
   viewBox="0 0 264.58335 264.58335"
   version="1.1"
   id="svg1"
   inkscape:version="1.3 (0e150ed6c4, 2023-07-21)"
   sodipodi:docname="Buildings.svg"
   xml:space="preserve"
   inkscape:export-filename="Buildings\LI.svg"
   inkscape:export-xdpi="96"
   inkscape:export-ydpi="96"
   xmlns:inkscape="http://www.inkscape.org/namespaces/inkscape"
   xmlns:sodipodi="http://sodipodi.sourceforge.net/DTD/sodipodi-0.dtd"
   xmlns="http://www.w3.org/2000/svg"
   xmlns:svg="http://www.w3.org/2000/svg"><sodipodi:namedview
     id="namedview1"
     pagecolor="#505050"
     bordercolor="#eeeeee"
     borderopacity="1"
     inkscape:showpageshadow="0"
     inkscape:pageopacity="0"
     inkscape:pagecheckerboard="true"
     inkscape:deskcolor="#505050"
     inkscape:document-units="px"
     inkscape:zoom="1.3042753"
     inkscape:cx="491.84402"
     inkscape:cy="462.70906"
     inkscape:window-width="2560"
     inkscape:window-height="1351"
     inkscape:window-x="2391"
     inkscape:window-y="-9"
     inkscape:window-maximized="1"
     inkscape:current-layer="layer7" /><defs
     id="defs1" /><g
     inkscape:groupmode="layer"
     id="layer7"
     inkscape:label="Campus"
     style="display:inline"><path
       style="display:inline;fill:#ff0000;fill-opacity:1;stroke:#cbcbcb;stroke-width:0.264583;stroke-linejoin:bevel;stroke-dasharray:none;stroke-opacity:1"
       d="m 122.5239,103.84729 2.89939,-0.0177 0.003,-0.30483 7.40087,0.15242 0.0213,0.3757 2.97734,0.0213 0.0781,0.43952 24.79717,0.5104 -0.11346,9.91746 -25.54148,-0.42536 -0.63802,-0.51039 -1.25541,-0.003 -1.1948,1.07283 -0.0257,1.45731 0.39394,0.29996 -0.24345,13.69775 0.35838,0.0178 -0.0538,4.59202 c 0,0 1.00641,1.07641 1.00641,3.24339 0,2.15198 -1.12029,3.24339 -1.12029,3.24339 l -0.0538,4.88274 -0.39457,-0.0102 -0.23417,13.66489 -0.31118,0.2514 10e-4,1.47451 1.19634,1.14419 1.40361,-0.002 0.47388,-0.36188 3.17192,0.0204 -0.0667,9.87849 -2.90302,-0.076 v 0.49977 l -2.87455,-0.008 -0.003,0.22682 -2.12668,-0.0213 v 0.26937 l -3.04117,-0.0568 -0.008,-0.29065 -2.28265,-0.008 0.008,-0.27648 -2.84975,0.0355 0.38175,-26.5249 -1.985,-0.0101 0.009,-3.26375 0.61454,-0.001 v -0.13584 h 0.21736 v -1.57135 l -0.41114,-0.003 v -0.43952 l 0.41114,-0.003 v -1.38589 h -0.41114 v -0.43241 h 0.41114 v -1.54894 h -0.41114 v -0.42534 h 0.41114 v -1.39298 h -0.41114 v -0.42888 h 0.41114 l 0.008,-1.51703 h -0.33672 v -0.30838 H 120.093 v -3.08371 h 1.97074 z"
       id="path5-8"
       sodipodi:nodetypes="ccccccccccccccccccsccccccccccccccccccccccccccccccccccccccccccccccccccc"
       inkscape:label="LI_Lipsius" /></g></svg>
