<svg width="4000" height="1400" viewBox="0 0 4000 1400" version="1.1" id="svg1" xml:space="preserve" xmlns="http://www.w3.org/2000/svg">
  <defs id="defs1">
    <marker style="overflow:visible" id="Triangle" refX="0" refY="0" orient="auto-start-reverse" markerWidth="1" markerHeight="1" viewBox="0 0 1 1" preserveAspectRatio="xMidYMid">
      <path transform="scale(0.5)" style="fill:context-stroke;fill-rule:evenodd;stroke:context-stroke;stroke-width:1pt" d="M 5.77,0 -2.88,5 V -5 Z" id="path597"/>
    </marker>
  </defs>
  <g id="floor_1" transform="matrix(40.994169,0,0,40.994169,1.00188,-10510.757)" style="display:inline">
    <path style="font-variation-settings:'wdth' 70,'wght' 600;display:inline;fill:#4c5a5f;fill-opacity:1;stroke:none;stroke-width:.487874" d="m 55.403668,280.00909 v 9.30708 H 49.67053 v -9.30708 H 39.407195 v -5.4377 h 42.814823 v 1.73405 h 5.477983 l 0.07988,7.40159 h -5.68561 l -1e-6,-3.91539 h -8.72573 v 3.84079 H 62.827074 l 10e-7,-3.62334 z" id="path2"/>
    <g id="rooms_1" style="display:inline;opacity:1" transform="matrix(0.02439371,0,0,0.02439371,-0.02443957,255.98706)">
      <rect style="font-variation-settings:'wdth' 70,'wght' 600;display:inline;fill:#454c7f;fill-opacity:1;stroke-width:317.504;stroke-dasharray:none" id="TR_C153" width="340.20404" height="379.2113" x="3008.6846" y="959.58801"/>
      <path style="font-variation-settings:'wght' 700;fill:#454c7f;fill-opacity:1;stroke-width:10" d="m 3599.4651,976.67491 h 217.3427 V 1366.2992 H 3366.7122 V 1136.357 h 232.7529 z" id="TR_C154"/>
      <rect style="font-variation-settings:'wdth' 70,'wght' 600;display:inline;fill:#454c7f;fill-opacity:1;stroke-width:180.716;stroke-dasharray:none" id="TR_C155" width="193.11809" height="216.41789" x="3596.1909" y="742.75714"/>
      <path style="font-variation-settings:'wght' 700;fill:#454c7f;fill-opacity:1;stroke-width:10" d="M 3816.8083,154.67091 V 742.75714 H 3596.191 v 90.1779 H 3371.6256 V 154.67091 Z" id="TR_C156"/>
      <rect style="font-variation-settings:'wdth' 70,'wght' 600;display:inline;fill:#454c7f;fill-opacity:1;stroke-width:405.461;stroke-dasharray:none" id="TR_C157" width="362.94104" height="579.67511" x="3008.6846" y="182.17395"/>
      <rect style="font-variation-settings:'wdth' 70,'wght' 600;display:inline;opacity:1;fill:#454c7f;fill-opacity:1;stroke-width:479.598;stroke-dasharray:none" id="TR_C158" width="507.79889" height="579.67511" x="2500.8855" y="182.17395"/>
      <rect style="font-variation-settings:'wdth' 70,'wght' 600;display:inline;opacity:1;fill:#454c7f;fill-opacity:1;stroke-width:387.209;stroke-dasharray:none" id="TR_C159" width="330.99988" height="579.67511" x="2169.8855" y="182.17395"/>
      <rect style="font-variation-settings:'wdth' 70,'wght' 600;display:inline;fill:#454c7f;fill-opacity:1;stroke-width:352.752;stroke-dasharray:none" id="TR_C160" width="274.71109" height="579.67511" x="1895.1744" y="182.17395"/>
      <rect style="font-variation-settings:'wdth' 70,'wght' 600;display:inline;fill:#454c7f;fill-opacity:1;stroke-width:355.308;stroke-dasharray:none" id="TR_C161" width="278.70715" height="579.67511" x="1616.4673" y="182.17395"/>
      <path style="font-variation-settings:'wght' 700;display:inline;opacity:1;fill:#454c7f;fill-opacity:1;stroke-width:10" d="M 1616.4673,154.67091 V 984.76324 H 1399.8344 V 1366.2993 H 65.665479 V 154.67091 Z" id="TR_C162"/>
      <rect style="font-variation-settings:'wdth' 70,'wght' 600;display:inline;opacity:1;fill:#454c7f;fill-opacity:1;stroke-width:236.391;stroke-dasharray:none" id="TR_C164" width="304.31641" height="234.98909" x="2272.2295" y="984.76324"/>
      <rect style="font-variation-settings:'wdth' 70,'wght' 600;display:inline;opacity:1;fill:#454c7f;fill-opacity:1;stroke-width:168.254;stroke-dasharray:none" id="TR_C165" width="304.31641" height="119.04702" x="2272.2295" y="1219.7523"/>
    </g>
    <g id="staires_1" transform="matrix(0.02439371,0,0,0.02439371,-21.078295,285.8541)" style="display:inline">
      <rect style="font-variation-settings:'wdth' 70,'wght' 600;display:inline;fill:#4c5a5f;fill-opacity:1;stroke-width:9.51763;stroke-dasharray:none" id="rect86" width="380.18057" height="29.06435" x="-140.56917" y="2870.2253" transform="rotate(-90)"/>
      <rect style="font-variation-settings:'wdth' 70,'wght' 600;display:inline;fill:#4b595e;fill-opacity:1;stroke-width:9.51763;stroke-dasharray:none" id="rect87" width="380.18057" height="29.06435" x="-140.56917" y="2841.1609" transform="rotate(-90)"/>
      <rect style="font-variation-settings:'wdth' 70,'wght' 600;display:inline;fill:#000;fill-opacity:1;stroke-width:1.76543;stroke-dasharray:none" id="rect114" width="380.18036" height="1.0000001" x="-239.6114" y="-2842.1609" transform="rotate(90)"/>
      <rect style="font-variation-settings:'wdth' 70,'wght' 600;display:inline;fill:#000;fill-opacity:1;stroke-width:1.76857;stroke-dasharray:none" id="rect115" width="381.5361" height="1.0000001" x="-239.6114" y="-2871.2253" transform="rotate(90)"/>
      <rect style="font-variation-settings:'wdth' 70,'wght' 600;display:inline;fill:#000;fill-opacity:1;stroke-width:1.76857;stroke-dasharray:none" id="rect116" width="381.5361" height="1.0000001" x="-239.6114" y="-2900.2896" transform="rotate(90)"/>
      <rect style="font-variation-settings:'wdth' 70,'wght' 600;display:inline;fill:#48565b;fill-opacity:1;stroke-width:9.51763;stroke-dasharray:none" id="rect117" width="380.18057" height="29.06435" x="-140.56917" y="2812.0964" transform="rotate(-90)"/>
      <rect style="font-variation-settings:'wdth' 70,'wght' 600;display:inline;fill:#000;fill-opacity:1;stroke-width:1.76543;stroke-dasharray:none" id="rect118" width="380.18036" height="1.0000001" x="-239.6114" y="-2813.0964" transform="rotate(90)"/>
      <rect style="font-variation-settings:'wdth' 70,'wght' 600;display:inline;fill:#465358;fill-opacity:1;stroke-width:9.51763;stroke-dasharray:none" id="rect119" width="380.18057" height="29.06435" x="-140.56917" y="2783.032" transform="rotate(-90)"/>
      <rect style="font-variation-settings:'wdth' 70,'wght' 600;display:inline;fill:#000;fill-opacity:1;stroke-width:1.76543;stroke-dasharray:none" id="rect120" width="380.18036" height="1.0000001" x="-239.6114" y="-2784.032" transform="rotate(90)"/>
      <rect style="font-variation-settings:'wdth' 70,'wght' 600;display:inline;fill:#445055;fill-opacity:1;stroke-width:9.51763;stroke-dasharray:none" id="rect156" width="380.18057" height="29.06435" x="-140.56917" y="2753.9675" transform="rotate(-90)"/>
      <rect style="font-variation-settings:'wdth' 70,'wght' 600;display:inline;fill:#000;fill-opacity:1;stroke-width:1.76543;stroke-dasharray:none" id="rect157" width="380.18036" height="1.0000001" x="-239.6114" y="-2754.9675" transform="rotate(90)"/>
      <rect style="font-variation-settings:'wdth' 70,'wght' 600;display:inline;fill:#424d52;fill-opacity:1;stroke-width:9.51763;stroke-dasharray:none" id="rect158" width="380.18057" height="29.06435" x="-140.56917" y="2724.9031" transform="rotate(-90)"/>
      <rect style="font-variation-settings:'wdth' 70,'wght' 600;display:inline;fill:#000;fill-opacity:1;stroke-width:1.76543;stroke-dasharray:none" id="rect159" width="380.18036" height="1.0000001" x="-239.6114" y="-2725.9031" transform="rotate(90)"/>
      <rect style="font-variation-settings:'wdth' 70,'wght' 600;display:inline;fill:#404a4f;fill-opacity:1;stroke-width:9.51763;stroke-dasharray:none" id="rect160" width="380.18057" height="29.06435" x="-140.56917" y="2695.8386" transform="rotate(-90)"/>
      <rect style="font-variation-settings:'wdth' 70,'wght' 600;display:inline;fill:#000;fill-opacity:1;stroke-width:1.76543;stroke-dasharray:none" id="rect161" width="380.18036" height="1.0000001" x="-239.6114" y="-2696.8386" transform="rotate(90)"/>
      <rect style="font-variation-settings:'wdth' 70,'wght' 600;display:inline;fill:#3e474c;fill-opacity:1;stroke-width:9.51763;stroke-dasharray:none" id="rect162" width="380.18057" height="29.06435" x="-140.56917" y="2666.7742" transform="rotate(-90)"/>
      <rect style="font-variation-settings:'wdth' 70,'wght' 600;display:inline;fill:#000;fill-opacity:1;stroke-width:1.76543;stroke-dasharray:none" id="rect163" width="380.18036" height="1.0000001" x="-239.6114" y="-2667.7742" transform="rotate(90)"/>
      <rect style="font-variation-settings:'wdth' 70,'wght' 600;display:inline;fill:#3c4449;fill-opacity:1;stroke-width:9.51763;stroke-dasharray:none" id="rect164" width="380.18057" height="29.06435" x="-140.56917" y="2637.7097" transform="rotate(-90)"/>
      <rect style="font-variation-settings:'wdth' 70,'wght' 600;display:inline;fill:#000;fill-opacity:1;stroke-width:1.76543;stroke-dasharray:none" id="rect165" width="380.18036" height="1.0000001" x="-239.6114" y="-2638.7097" transform="rotate(90)"/>
      <rect style="font-variation-settings:'wdth' 70,'wght' 600;display:inline;fill:#3a4146;fill-opacity:1;stroke-width:9.51763;stroke-dasharray:none" id="rect166" width="380.18057" height="29.06435" x="-140.56906" y="2608.6453" transform="rotate(-90)"/>
      <rect style="font-variation-settings:'wdth' 70,'wght' 600;display:inline;fill:#000;fill-opacity:1;stroke-width:1.76543;stroke-dasharray:none" id="rect167" width="380.18036" height="1.0000001" x="-239.6114" y="-2609.6453" transform="rotate(90)"/>
      <rect style="font-variation-settings:'wdth' 70,'wght' 600;display:inline;fill:#3a4146;fill-opacity:1;stroke-width:18.772;stroke-dasharray:none" id="rect287" width="380.18057" height="113.06436" x="-140.56906" y="2495.5808" transform="rotate(-90)"/>
      <rect style="font-variation-settings:'wdth' 70,'wght' 600;display:inline;fill:#373e43;fill-opacity:1;stroke-width:9.51763;stroke-dasharray:none" id="rect288" width="380.18057" height="29.06435" x="-140.56906" y="2466.5164" transform="rotate(-90)"/>
      <rect style="font-variation-settings:'wdth' 70,'wght' 600;display:inline;fill:#353c40;fill-opacity:1;stroke-width:9.51763;stroke-dasharray:none" id="rect289" width="380.18057" height="29.06435" x="-140.56906" y="2437.4519" transform="rotate(-90)"/>
      <rect style="font-variation-settings:'wdth' 70,'wght' 600;display:inline;fill:#333a3d;fill-opacity:1;stroke-width:9.51763;stroke-dasharray:none" id="rect290" width="380.18057" height="29.06435" x="-140.56906" y="2408.3875" transform="rotate(-90)"/>
      <rect style="font-variation-settings:'wdth' 70,'wght' 600;display:inline;fill:#31373a;fill-opacity:1;stroke-width:9.51763;stroke-dasharray:none" id="rect291" width="380.18057" height="29.06435" x="-140.56906" y="2379.323" transform="rotate(-90)"/>
      <rect style="font-variation-settings:'wdth' 70,'wght' 600;display:inline;fill:#2f3437;fill-opacity:1;stroke-width:9.51763;stroke-dasharray:none" id="rect292" width="380.18057" height="29.06435" x="-140.56906" y="2350.2585" transform="rotate(-90)"/>
      <rect style="font-variation-settings:'wdth' 70,'wght' 600;display:inline;fill:#2d3134;fill-opacity:1;stroke-width:9.51763;stroke-dasharray:none" id="rect293" width="380.18057" height="29.06435" x="-140.56906" y="2321.1941" transform="rotate(-90)"/>
      <rect style="font-variation-settings:'wdth' 70,'wght' 600;display:inline;fill:#2b2e31;fill-opacity:1;stroke-width:13.4209;stroke-dasharray:none" id="rect294" width="380.18057" height="57.791924" x="-140.56906" y="2263.4021" transform="rotate(-90)"/>
      <rect style="font-variation-settings:'wdth' 70,'wght' 600;display:inline;fill:#000;fill-opacity:1;stroke-width:1.76543;stroke-dasharray:none" id="rect295" width="380.18036" height="1.0000001" x="-239.6114" y="-2495.5808" transform="rotate(90)"/>
      <rect style="font-variation-settings:'wdth' 70,'wght' 600;display:inline;fill:#000;fill-opacity:1;stroke-width:1.76543;stroke-dasharray:none" id="rect296" width="380.18036" height="1.0000001" x="-239.6114" y="-2466.5164" transform="rotate(90)"/>
      <rect style="font-variation-settings:'wdth' 70,'wght' 600;display:inline;fill:#000;fill-opacity:1;stroke-width:1.76543;stroke-dasharray:none" id="rect297" width="380.18036" height="1.0000001" x="-239.6114" y="-2437.4519" transform="rotate(90)"/>
      <rect style="font-variation-settings:'wdth' 70,'wght' 600;display:inline;fill:#000;fill-opacity:1;stroke-width:1.76543;stroke-dasharray:none" id="rect298" width="380.18036" height="1.0000001" x="-239.6114" y="-2408.3875" transform="rotate(90)"/>
      <rect style="font-variation-settings:'wdth' 70,'wght' 600;display:inline;fill:#000;fill-opacity:1;stroke-width:1.76543;stroke-dasharray:none" id="rect299" width="380.18036" height="1.0000001" x="-239.6114" y="-2379.323" transform="rotate(90)"/>
      <rect style="font-variation-settings:'wdth' 70,'wght' 600;display:inline;fill:#000;fill-opacity:1;stroke-width:1.76543;stroke-dasharray:none" id="rect300" width="380.18036" height="1.0000001" x="-239.6114" y="-2350.2585" transform="rotate(90)"/>
      <rect style="font-variation-settings:'wdth' 70,'wght' 600;display:inline;fill:#000;fill-opacity:1;stroke-width:1.76543;stroke-dasharray:none" id="rect301" width="380.18036" height="1.0000001" x="-239.6114" y="-2321.1941" transform="rotate(90)"/>
      <path style="font-variation-settings:'wdth' 70,'wght' 600;display:inline;opacity:1;fill:none;fill-opacity:1;stroke:#bec3c6;stroke-width:7.07107;stroke-dasharray:none;stroke-opacity:1;marker-end:url(#Triangle)" d="m 2303.1941,-49.521225 h 568.0315" id="path169"/>
    </g>
    <g id="staires_1M" transform="matrix(0,0.02439371,-0.02439371,0,70.911726,235.87776)" style="display:inline">
      <rect style="font-variation-settings:'wdth' 70,'wght' 600;display:inline;fill:#546469;fill-opacity:1;stroke-width:10.3191;stroke-dasharray:none" id="rect337" width="432.04745" height="30.064199" x="-331.3324" y="2014.7922" transform="rotate(-90)"/>
      <rect style="font-variation-settings:'wdth' 70,'wght' 600;display:inline;fill:#516166;fill-opacity:1;stroke-width:10.1461;stroke-dasharray:none" id="rect338" width="432.04745" height="29.06435" x="-331.3324" y="1985.7277" transform="rotate(-90)"/>
      <rect style="font-variation-settings:'wdth' 70,'wght' 600;display:inline;fill:#000;fill-opacity:1;stroke-width:1.882;stroke-dasharray:none" id="rect339" width="432.04715" height="1.0000001" x="-100.71507" y="-1986.7277" transform="rotate(90)"/>
      <rect style="font-variation-settings:'wdth' 70,'wght' 600;display:inline;fill:#000;fill-opacity:1;stroke-width:1.88535;stroke-dasharray:none" id="rect340" width="433.58789" height="1.0000001" x="-100.71507" y="-2015.7922" transform="rotate(90)"/>
      <rect style="font-variation-settings:'wdth' 70,'wght' 600;display:inline;fill:#000;fill-opacity:1;stroke-width:1.88535;stroke-dasharray:none" id="rect341" width="433.58789" height="1.0000001" x="-100.71507" y="-2044.8564" transform="rotate(90)"/>
      <rect style="font-variation-settings:'wdth' 70,'wght' 600;display:inline;fill:#4f5e63;fill-opacity:1;stroke-width:10.1461;stroke-dasharray:none" id="rect342" width="432.04745" height="29.06435" x="-331.3324" y="1956.6632" transform="rotate(-90)"/>
      <rect style="font-variation-settings:'wdth' 70,'wght' 600;display:inline;fill:#000;fill-opacity:1;stroke-width:1.882;stroke-dasharray:none" id="rect343" width="432.04715" height="1.0000001" x="-100.71507" y="-1957.6632" transform="rotate(90)"/>
      <rect style="font-variation-settings:'wdth' 70,'wght' 600;display:inline;fill:#56676c;fill-opacity:1;stroke-width:22.8782;stroke-dasharray:none" id="rect372" width="437.8887" height="145.80681" x="-331.42365" y="2044.8567" transform="rotate(-90)"/>
      <path style="font-variation-settings:'wdth' 70,'wght' 600;display:inline;opacity:1;fill:none;fill-opacity:1;stroke:#bec3c6;stroke-width:7.07107;stroke-dasharray:none;stroke-opacity:1;marker-end:url(#Triangle)" d="m 1917.6299,109.55867 h 162.0315" id="path372"/>
    </g>
    <g id="walls_1" transform="matrix(0.02439371,0,0,0.02439371,-0.02443957,244.19953)" style="display:inline">
      <path style="font-variation-settings:'wdth' 70,'wght' 600;fill:none;stroke:#bec3c6;stroke-width:55;stroke-linecap:butt;stroke-dasharray:none;stroke-opacity:1" d="M 623.87566,1849.5194 H 65.665479 V 637.89097 H 3816.8083 V 1849.5194 h -813.1198" id="path171"/>
      <path style="font-variation-settings:'wdth' 70,'wght' 600;fill:none;stroke:#bec3c6;stroke-width:55;stroke-linecap:butt;stroke-dasharray:none;stroke-opacity:1" d="m 2581.5459,1849.5194 -1759.04531,-10e-5" id="path173"/>
      <path style="font-variation-settings:'wdth' 70,'wght' 600;fill:none;stroke:#bec3c6;stroke-width:10;stroke-linecap:butt;stroke-dasharray:none;stroke-opacity:1" d="M 1895.1744,1245.0691 V 637.89097" id="path176"/>
      <path style="font-variation-settings:'wdth' 70,'wght' 600;fill:none;stroke:#bec3c6;stroke-width:10;stroke-linecap:butt;stroke-dasharray:none;stroke-opacity:1" d="M 2169.8855,1245.0691 V 637.89097" id="path177"/>
      <path style="font-variation-settings:'wdth' 70,'wght' 600;fill:none;stroke:#bec3c6;stroke-width:10;stroke-linecap:butt;stroke-dasharray:none;stroke-opacity:1" d="M 2500.8855,1245.0691 V 637.89097" id="path178"/>
      <path style="font-variation-settings:'wdth' 70,'wght' 600;fill:none;stroke:#bec3c6;stroke-width:10;stroke-linecap:butt;stroke-dasharray:none;stroke-opacity:1" d="M 3008.6846,1245.0691 V 637.89097" id="path179"/>
      <path style="font-variation-settings:'wdth' 70,'wght' 600;fill:none;stroke:#bec3c6;stroke-width:35;stroke-linecap:butt;stroke-dasharray:none;stroke-opacity:1" d="m 3371.6256,637.89097 v 678.26413 h 107.0001" id="path180"/>
      <path style="font-variation-settings:'wdth' 70,'wght' 600;fill:none;stroke:#bec3c6;stroke-width:10;stroke-linecap:butt;stroke-dasharray:none;stroke-opacity:1" d="m 2616.7954,1245.0691 h 407.205" id="path181"/>
      <path style="font-variation-settings:'wdth' 70,'wght' 600;fill:none;stroke:#bec3c6;stroke-width:10;stroke-linecap:butt;stroke-dasharray:none;stroke-opacity:1" d="m 2014.1159,1245.0691 h 370.8597" id="path182"/>
      <path style="font-variation-settings:'wdth' 70,'wght' 600;fill:none;stroke:#bec3c6;stroke-width:10;stroke-linecap:butt;stroke-dasharray:none;stroke-opacity:1" d="M 1779.2644,1245.0691 H 1616.4673 V 1097.7088" id="path184"/>
      <path style="font-variation-settings:'wdth' 70,'wght' 600;fill:none;stroke:#bec3c6;stroke-width:10;stroke-linecap:butt;stroke-dasharray:none;stroke-opacity:1" d="m 1879.2645,1245.0691 h 31.8198" id="path185"/>
      <path style="font-variation-settings:'wdth' 70,'wght' 600;fill:none;stroke:#bec3c6;stroke-width:10;stroke-linecap:butt;stroke-dasharray:none;stroke-opacity:1" d="M 3816.8083,1225.9772 H 3596.191 v 90.1779" id="path197"/>
      <path style="font-variation-settings:'wdth' 70,'wght' 600;fill:none;stroke:#bec3c6;stroke-width:35;stroke-linecap:butt;stroke-dasharray:none;stroke-opacity:1" d="m 3599.4656,1624.5772 v -164.6821 h 217.3427" id="path198"/>
      <path style="font-variation-settings:'wdth' 70,'wght' 600;fill:none;stroke:#bec3c6;stroke-width:35;stroke-linecap:butt;stroke-dasharray:none;stroke-opacity:1" d="m 3179.0004,1442.8081 h 187.3883 l -10e-5,389.2113" id="path200"/>
      <rect style="font-variation-settings:'wght' 700;fill:#bec3c6;fill-opacity:1;stroke-width:17.0011" id="rect202" width="106.91994" height="170.5081" x="3366.3887" y="1454.0691"/>
      <path style="font-variation-settings:'wdth' 70,'wght' 600;fill:none;stroke:#bec3c6;stroke-width:10;stroke-linecap:butt;stroke-dasharray:none;stroke-opacity:1" d="m 3366.3887,1619.5772 h 112.5709" id="path202"/>
      <path style="font-variation-settings:'wdth' 70,'wght' 600;fill:none;stroke:#bec3c6;stroke-width:10;stroke-linecap:butt;stroke-dasharray:none;stroke-opacity:1" d="m 3578.9596,1619.5772 h 20.506" id="path203"/>
      <path style="font-variation-settings:'wdth' 70,'wght' 600;fill:none;stroke:#bec3c6;stroke-width:35;stroke-linecap:butt;stroke-dasharray:none;stroke-opacity:1" d="m 3578.6256,1316.1551 h 22.5274" id="path206"/>
      <path style="font-variation-settings:'wdth' 70,'wght' 600;fill:none;stroke:#bec3c6;stroke-width:10;stroke-linecap:butt;stroke-dasharray:none;stroke-opacity:1" d="m 3124.0004,1245.0691 h 247.6252" id="path207"/>
      <path style="font-variation-settings:'wdth' 70,'wght' 600;fill:none;stroke:#bec3c6;stroke-width:35;stroke-linecap:butt;stroke-dasharray:none;stroke-opacity:1" d="m 2124.8855,1467.9833 h -725.0511 v 381.5361" id="path210"/>
      <path style="font-variation-settings:'wdth' 70,'wght' 600;fill:none;stroke:#bec3c6;stroke-width:35;stroke-linecap:butt;stroke-dasharray:none;stroke-opacity:1" d="m 2224.8855,1467.9833 h 94.688" id="path212"/>
      <path style="font-variation-settings:'wdth' 70,'wght' 600;fill:none;stroke:#bec3c6;stroke-width:35;stroke-linecap:butt;stroke-dasharray:none;stroke-opacity:1" d="m 2419.5736,1467.9833 h 161.9723" id="path213"/>
      <path style="font-variation-settings:'wdth' 70,'wght' 600;fill:none;stroke:#bec3c6;stroke-width:10;stroke-linecap:butt;stroke-dasharray:none;stroke-opacity:1" d="M 2272.2295,1849.5194 V 1467.9833" id="path214"/>
      <path style="font-variation-settings:'wdth' 70,'wght' 600;fill:none;stroke:#bec3c6;stroke-width:10;stroke-linecap:butt;stroke-dasharray:none;stroke-opacity:1" d="m 2576.5459,1849.5194 v -394.0361 h 123.3955" id="path216"/>
      <path style="font-variation-settings:'wdth' 70,'wght' 600;fill:none;stroke:#bec3c6;stroke-width:10;stroke-linecap:butt;stroke-dasharray:none;stroke-opacity:1" d="M 2576.5459,1702.9724 H 2392.7034" id="path217"/>
      <path style="font-variation-settings:'wdth' 70,'wght' 600;fill:none;stroke:#bec3c6;stroke-width:10;stroke-linecap:butt;stroke-dasharray:none;stroke-opacity:1" d="m 2899.9413,1455.4833 h 108.7433 v 394.0361" id="path280"/>
      <path style="font-variation-settings:'wdth' 70,'wght' 600;fill:none;stroke:#bec3c6;stroke-width:10;stroke-linecap:butt;stroke-dasharray:none;stroke-opacity:1" d="M 1616.4673,997.70888 V 637.89097" id="path281"/>
      <path style="font-variation-settings:'wdth' 70,'wght' 600;fill:none;stroke:#bec3c6;stroke-width:10;stroke-linecap:butt;stroke-dasharray:none;stroke-opacity:1" d="m 2484.9756,1245.0691 h 31.8198" id="path282"/>
      <path style="font-variation-settings:'wdth' 70,'wght' 600;fill:none;stroke:#bec3c6;stroke-width:10;stroke-linecap:butt;stroke-dasharray:none;stroke-opacity:1" d="m 2292.7034,1702.9724 h -20.4739" id="path283"/>
      <path style="font-variation-settings:'wdth' 70,'wght' 600;fill:none;stroke:#bec3c6;stroke-width:35;stroke-linecap:butt;stroke-dasharray:none;stroke-opacity:1" d="m 3008.6846,1442.8081 h 70.3158" id="path285"/>
    </g>
    <g id="icons_1" transform="matrix(0.02439371,0,0,0.02439371,-0.02443957,244.19953)" style="display:inline">
      <path d="m 3583.2107,1771.7071 v -31.8652 h -10.1036 v -32.2539 q 0,-3.5622 2.5583,-6.1205 2.5583,-2.5583 6.1205,-2.5583 h 19.9482 q 3.5621,0 6.1204,2.5583 2.5583,2.5583 2.5583,6.1205 v 32.2539 h -10.1036 v 31.8652 z m 8.5596,-82.6425 q -3.6891,0 -6.1891,-2.5544 -2.5,-2.5545 -2.5,-6.1139 0,-3.6892 2.4896,-6.1892 2.4899,-2.5 6.1788,-2.5 3.6891,0 6.1891,2.4897 2.5,2.4897 2.5,6.1787 0,3.5596 -2.4896,6.1244 -2.4897,2.5647 -6.1788,2.5647 z" id="path222" style="fill:#fff;fill-opacity:.798742;stroke-width:.129534;filter:url(#filter17)"/>
      <path d="m 3169.7192,1690.5443 v -30.0518 h -14.7668 l 14.2098,-39.4458 q 1.121,-2.8983 3.8366,-4.5889 2.7155,-1.6907 5.7878,-1.6907 3.0723,0 5.7878,1.6907 2.7156,1.6906 3.8542,4.5779 l 14.1922,39.4568 h -14.7668 v 30.0518 z m 9.0778,-82.6424 q -3.6892,0 -6.1892,-2.5504 -2.5,-2.5504 -2.5,-6.118 0,-3.6892 2.4897,-6.1892 2.4899,-2.5 6.1787,-2.5 3.6892,0 6.1892,2.4897 2.5,2.4897 2.5,6.114 0,3.6243 -2.4897,6.1891 -2.4896,2.5648 -6.1787,2.5648 z" id="path223" style="fill:#fff;fill-opacity:.803459;stroke-width:.129534;filter:url(#filter15)"/>
    </g>
    <path id="roomNames_1" style="font-size:48px;font-family:'Source Sans 3';-inkscape-font-specification:'Source Sans 3, @wght=700';font-variation-settings:'wght' 700;text-align:center;white-space:pre;display:inline;fill:#bec3c6;stroke-width:55" transform="matrix(0.02439371,0,0,0.02439371,48.732902,282.68141)" d="M 381.36465,-6.4069742 V -31.750974 h -8.592 v -5.952 h 24.288 v 5.952 h -8.592 v 25.3439998 z m 20.59199,0 V -37.702974 h 11.28 q 3.312,0 6.048,0.912 2.736,0.864 4.368,3.024 1.632,2.112 1.632,5.808 0,3.6 -1.632,5.856 -1.632,2.256 -4.368,3.36 -2.736,1.056 -6.048,1.056 h -4.224 v 11.2799998 z m 7.056,-16.8959998 h 3.648 q 2.784,0 4.224,-1.152 1.488,-1.2 1.488,-3.504 0,-2.304 -1.488,-3.216 -1.44,-0.912 -4.224,-0.912 h -3.648 z m 9.888,16.8959998 -6.96,-13.1039998 4.896,-4.56 9.984,17.6639998 z m 9.36004,6.72000001 V -3.6709742 h 22.848 v 3.98400001 z m 40.368,-6.14400001 q -4.032,0 -7.392,-1.776 -3.312,-1.824 -5.328,-5.4239998 -2.016,-3.6 -2.016,-8.832 0,-3.888 1.152,-6.912 1.2,-3.072 3.264,-5.184 2.064,-2.112 4.704,-3.216 2.688,-1.104 5.664,-1.104 3.024,0 5.424,1.2 2.4,1.2 3.984,2.88 l -3.744,4.272 q -1.152,-1.104 -2.496,-1.632 -1.344,-0.576 -3.024,-0.576 -2.064,0 -3.84,1.248 -1.728,1.2 -2.784,3.456 -1.056,2.256 -1.056,5.328 0,3.216 1.008,5.52 1.008,2.256 2.784,3.456 1.824,1.2 4.176,1.2 1.824,0 3.264,-0.768 1.44,-0.768 2.544,-1.824 l 3.552,4.176 q -2.016,2.2559998 -4.464,3.4079998 -2.448,1.104 -5.376,1.104 z M 390.94069,53.593026 v -5.712 h 6.624 v -17.616 h -5.712 v -4.368 q 2.496,-0.48 4.224,-1.152 1.776,-0.672 3.36,-1.632 h 5.184 v 24.768 h 5.712 v 5.712 z m 35.47199,0.576 q -2.208,0 -4.272,-0.864 -2.064,-0.864 -3.696,-2.688 -1.632,-1.824 -2.592,-4.656 -0.96,-2.88 -0.96,-6.912 0,-4.272 1.008,-7.392 1.008,-3.12 2.736,-5.136 1.728,-2.016 3.936,-2.976 2.208,-1.008 4.656,-1.008 3.024,0 5.232,1.104 2.208,1.056 3.648,2.544 l -3.696,4.224 q -0.816,-0.864 -2.112,-1.488 -1.296,-0.672 -2.64,-0.672 -1.728,0 -3.216,1.008 -1.44,1.008 -2.304,3.408 -0.816,2.352 -0.816,6.384 0,3.792 0.672,5.952 0.72,2.112 1.872,3.024 1.152,0.864 2.4,0.864 1.056,0 1.92,-0.528 0.864,-0.528 1.392,-1.584 0.528,-1.104 0.528,-2.832 0,-1.632 -0.528,-2.592 -0.528,-0.96 -1.44,-1.392 -0.864,-0.432 -2.016,-0.432 -1.2,0 -2.496,0.72 -1.248,0.72 -2.256,2.544 l -0.336,-4.608 q 1.2,-1.776 3.072,-2.688 1.872,-0.96 3.36,-0.96 2.592,0 4.656,1.008 2.064,1.008 3.216,3.12 1.2,2.064 1.2,5.28 0,3.168 -1.392,5.472 -1.344,2.304 -3.648,3.552 -2.304,1.2 -5.088,1.2 z m 25.968,-0.576 v -17.616 q 0,-1.44 0.096,-3.408 0.144,-1.968 0.192,-3.408 h -0.192 q -0.576,1.248 -1.2,2.544 -0.624,1.248 -1.296,2.592 l -4.032,6.624 h 16.512 v 5.376 h -23.28 v -4.848 l 11.136,-18.336 h 8.64 v 30.48 z M -1334.7247,-391.23561 v -101.376 h -34.368 v -23.808 h 97.152 v 23.808 h -34.368 v 101.376 z m 82.368,0 v -125.184 h 45.12 q 13.248,0 24.192,3.648 10.944,3.456 17.472,12.096 6.528,8.448 6.528,23.232 0,14.4 -6.528,23.424 -6.528,9.024 -17.472,13.44 -10.944,4.224 -24.192,4.224 h -16.896 v 45.12 z m 28.224,-67.584 h 14.592 q 11.136,0 16.896,-4.608 5.952,-4.8 5.952,-14.016 0,-9.216 -5.952,-12.864 -5.76,-3.648 -16.896,-3.648 h -14.592 z m 39.552,67.584 -27.84,-52.416 19.584,-18.24 39.936,70.656 z m 37.4402,26.88 v -15.936 h 91.392 v 15.936 z m 161.47195,-24.576 q -16.12795,0 -29.56795,-7.104 -13.2481,-7.296 -21.3121,-21.696 -8.0639,-14.4 -8.0639,-35.328 0,-15.552 4.608,-27.648 4.7999,-12.288 13.056,-20.736 8.256,-8.448 18.816,-12.864 10.75195,-4.416 22.65595,-4.416 12.096,0 21.696,4.8 9.6,4.8 15.936,11.52 l -14.976,17.088 q -4.608,-4.416 -9.984,-6.528 -5.376,-2.304 -12.096,-2.304 -8.256,0 -15.35995,4.992 -6.912,4.8 -11.136,13.824 -4.224,9.024 -4.224,21.312 0,12.864 4.032,22.08 4.032,9.024 11.136,13.824 7.29595,4.8 16.70395,4.8 7.296,0 13.056,-3.072 5.76,-3.072 10.176,-7.296 l 14.208,16.704 q -8.064,9.024 -17.856,13.632 -9.792,4.416 -21.504,4.416 z m -310.75195,237.696 v -22.848 h 26.496 v -70.464 h -22.848 v -17.472 q 9.984,-1.92 16.896,-4.608 7.104,-2.688 13.44,-6.528 h 20.736 v 99.072 h 22.848 v 22.848 z m 141.888,2.304 q -8.832,0 -17.088,-3.456 -8.256,-3.456 -14.784,-10.752 -6.528,-7.296 -10.368,-18.624 -3.84,-11.52 -3.84,-27.648 0,-17.088 4.032,-29.568 4.032,-12.48 10.944,-20.544 6.912,-8.064 15.744,-11.904 8.832,-4.032 18.624,-4.032 12.096,0 20.928,4.416 8.832,4.224 14.592,10.176 l -14.784,16.896 q -3.264,-3.456 -8.448,-5.952 -5.184,-2.688 -10.56,-2.688 -6.912,0 -12.864,4.032 -5.76,4.032 -9.216,13.632 -3.264,9.408 -3.264,25.536 0,15.168 2.688,23.808 2.88,8.448 7.488,12.096 4.608,3.456 9.6,3.456 4.224,0 7.68,-2.112 3.456,-2.112 5.568,-6.336 2.112,-4.416 2.112,-11.328 0,-6.528 -2.112,-10.368 -2.112,-3.84 -5.76,-5.568 -3.456,-1.728 -8.064,-1.728 -4.8,0 -9.984,2.88 -4.992,2.88 -9.024,10.176 l -1.344,-18.432 q 4.8,-7.104 12.288,-10.752 7.488,-3.84 13.44,-3.84 10.368,0 18.624,4.032 8.256,4.032 12.864,12.48 4.8,8.256 4.8,21.12 0,12.672 -5.568,21.888 -5.376,9.216 -14.592,14.208 -9.216,4.8 -20.352,4.8 z m 54.528,-2.304 v -17.472 q 15.36,-13.632 27.264,-25.536 12.0959,-11.904 18.816,-22.08 6.9119,-10.176 6.9119,-18.624 0,-9.024 -4.6079,-13.632 -4.608,-4.8 -12.672,-4.8 -6.5281,0 -11.904,3.84 -5.184,3.648 -9.792,8.64 l -14.784,-14.592 q 8.832,-9.984 18.048,-14.976 9.408,-4.992 22.272,-4.992 11.904,0 20.928,4.8 9.216,4.8 14.208,13.44 5.184,8.64 5.184,20.352 0,10.944 -5.952,21.504 -5.76,10.368 -15.36,20.736 -9.6,10.368 -20.352,21.12 4.608,-0.576 10.368,-0.96 5.76,-0.576 9.984,-0.576 h 27.264 v 23.808 z m 798.05034,-490.20165 v -33.792 h -11.456 v -7.936 h 32.384 v 7.936 h -11.456 v 33.792 z m 27.45598,0 v -41.728 h 15.04 q 4.416,0 8.064,1.216 3.648,1.152 5.824,4.032 2.176,2.816 2.176,7.744 0,4.8 -2.176,7.808 -2.176,3.008 -5.824,4.48 -3.648,1.408 -8.064,1.408 h -5.632 v 15.04 z m 9.408,-22.528 h 4.864 q 3.712,0 5.632,-1.536 1.984,-1.6 1.984,-4.672 0,-3.072 -1.984,-4.288 -1.92,-1.216 -5.632,-1.216 h -4.864 z m 13.184,22.528 -9.28,-17.472 6.528,-6.08 13.312,23.552 z m 12.48006,8.96 v -5.312 h 30.464 v 5.312 z m 53.824,-8.192 q -5.376,0 -9.856,-2.368 -4.416,-2.432 -7.104,-7.232 -2.688,-4.8 -2.688,-11.776 0,-5.184 1.536,-9.216 1.6,-4.096 4.352,-6.912 2.752,-2.816 6.272,-4.288 3.584,-1.472 7.552,-1.472 4.032,0 7.232,1.6 3.2,1.6 5.312,3.84 l -4.992,5.696 q -1.536,-1.472 -3.328,-2.176 -1.792,-0.768 -4.032,-0.768 -2.752,0 -5.12,1.664 -2.304,1.6 -3.712,4.608 -1.408,3.008 -1.408,7.104 0,4.288 1.344,7.36 1.344,3.008 3.712,4.608 2.432,1.6 5.568,1.6 2.432,0 4.352,-1.024 1.92,-1.024 3.392,-2.432 l 4.736,5.568 q -2.688,3.008 -5.952,4.544 -3.264,1.472 -7.168,1.472 z m -103.58399,79.232 v -7.616 h 8.832 v -23.488 h -7.616 v -5.824 q 3.328,-0.64 5.632,-1.536 2.368,-0.896 4.48,-2.176 h 6.912 v 33.024 h 7.616 v 7.616 z m 47.29599,0.768 q -2.944,0 -5.696,-1.152 -2.752,-1.152 -4.928,-3.584 -2.176,-2.432 -3.456,-6.208 -1.28,-3.84 -1.28,-9.216 0,-5.696 1.344,-9.856 1.344,-4.16 3.648,-6.848 2.304,-2.688 5.248,-3.968 2.944,-1.344 6.208,-1.344 4.032,0 6.976,1.472 2.944,1.408 4.864,3.392 l -4.928,5.632 q -1.088,-1.152 -2.816,-1.984 -1.728,-0.896 -3.52,-0.896 -2.304,0 -4.288,1.344 -1.92,1.344 -3.072,4.544 -1.088,3.136 -1.088,8.512 0,5.056 0.896,7.936 0.96,2.816 2.496,4.032 1.536,1.152 3.2,1.152 1.408,0 2.56,-0.704 1.152,-0.704 1.856,-2.112 0.704,-1.472 0.704,-3.776 0,-2.176 -0.704,-3.456 -0.704,-1.28 -1.92,-1.856 -1.152,-0.576 -2.688,-0.576 -1.6,0 -3.328,0.96 -1.664,0.96 -3.008,3.392 l -0.448,-6.144 q 1.6,-2.368 4.096,-3.584 2.496,-1.28 4.48,-1.28 3.456,0 6.208,1.344 2.752,1.344 4.288,4.16 1.6,2.752 1.6,7.04 0,4.224 -1.856,7.296 -1.792,3.072 -4.864,4.736 -3.072,1.6 -6.784,1.6 z m 20.288,-0.768 v -7.616 h 8.832 v -23.488 h -7.616 v -5.824 q 3.328,-0.64 5.632,-1.536 2.368,-0.896 4.48,-2.176 h 6.912 v 33.024 h 7.616 v 7.616 z m 196.35706,-80 v -33.792 h -11.456 v -7.936 h 32.384 v 7.936 h -11.456 v 33.792 z m 27.45598,0 v -41.728 h 15.04 q 4.416,0 8.064,1.216 3.648,1.152 5.824,4.032 2.176,2.816 2.176,7.744 0,4.8 -2.176,7.808 -2.176,3.008 -5.824,4.48 -3.648,1.408 -8.064,1.408 h -5.632 v 15.04 z m 9.408,-22.528 h 4.864 q 3.712,0 5.632,-1.536 1.984,-1.6 1.984,-4.672 0,-3.072 -1.984,-4.288 -1.92,-1.216 -5.632,-1.216 h -4.864 z m 13.184,22.528 -9.28,-17.472 6.528,-6.08 13.312,23.552 z m 12.48006,8.96 v -5.312 h 30.464 v 5.312 z m 53.824,-8.192 q -5.376,0 -9.856,-2.368 -4.416,-2.432 -7.104,-7.232 -2.688,-4.8 -2.688,-11.776 0,-5.184 1.536,-9.216 1.6,-4.096 4.352,-6.912 2.752,-2.816 6.272,-4.288 3.584,-1.472 7.552,-1.472 4.032,0 7.232,1.6 3.2,1.6 5.312,3.84 l -4.992,5.696 q -1.536,-1.472 -3.328,-2.176 -1.792,-0.768 -4.032,-0.768 -2.752,0 -5.12,1.664 -2.304,1.6 -3.712,4.608 -1.408,3.008 -1.408,7.104 0,4.288 1.344,7.36 1.344,3.008 3.712,4.608 2.432,1.6 5.568,1.6 2.432,0 4.352,-1.024 1.92,-1.024 3.392,-2.432 l 4.736,5.568 q -2.688,3.008 -5.952,4.544 -3.264,1.472 -7.168,1.472 z m -103.58399,79.232 v -7.616 h 8.832 v -23.488 h -7.616 v -5.824 q 3.328,-0.64 5.632,-1.536 2.368,-0.896 4.48,-2.176 h 6.912 v 33.024 h 7.616 v 7.616 z m 47.29599,0.768 q -2.944,0 -5.696,-1.152 -2.752,-1.152 -4.928,-3.584 -2.176,-2.432 -3.456,-6.208 -1.28,-3.84 -1.28,-9.216 0,-5.696 1.344,-9.856 1.344,-4.16 3.648,-6.848 2.304,-2.688 5.248,-3.968 2.944,-1.344 6.208,-1.344 4.032,0 6.976,1.472 2.944,1.408 4.864,3.392 l -4.928,5.632 q -1.088,-1.152 -2.816,-1.984 -1.728,-0.896 -3.52,-0.896 -2.304,0 -4.288,1.344 -1.92,1.344 -3.072,4.544 -1.088,3.136 -1.088,8.512 0,5.056 0.896,7.936 0.96,2.816 2.496,4.032 1.536,1.152 3.2,1.152 1.408,0 2.56,-0.704 1.152,-0.704 1.856,-2.112 0.704,-1.472 0.704,-3.776 0,-2.176 -0.704,-3.456 -0.704,-1.28 -1.92,-1.856 -1.152,-0.576 -2.688,-0.576 -1.6,0 -3.328,0.96 -1.664,0.96 -3.008,3.392 l -0.448,-6.144 q 1.6,-2.368 4.096,-3.584 2.496,-1.28 4.48,-1.28 3.456,0 6.208,1.344 2.752,1.344 4.288,4.16 1.6,2.752 1.6,7.04 0,4.224 -1.856,7.296 -1.792,3.072 -4.864,4.736 -3.072,1.6 -6.784,1.6 z m 32.704,0 q -6.528,0 -10.56,-5.44 -3.968,-5.44 -3.968,-15.808 0,-10.432 3.968,-15.68 4.032,-5.248 10.56,-5.248 6.528,0 10.496,5.312 4.032,5.248 4.032,15.616 0,10.368 -4.032,15.808 -3.968,5.44 -10.496,5.44 z m 0,-7.296 q 1.6,0 2.88,-1.152 1.28,-1.216 1.984,-4.224 0.768,-3.072 0.768,-8.576 0,-5.568 -0.768,-8.512 -0.704,-2.944 -1.984,-4.032 -1.28,-1.088 -2.88,-1.088 -1.6,0 -2.88,1.088 -1.28,1.088 -2.048,4.032 -0.704,2.944 -0.704,8.512 0,5.504 0.704,8.576 0.768,3.008 2.048,4.224 1.28,1.152 2.88,1.152 z m 210.08746,-73.472 v -33.792 h -11.456 v -7.936 h 32.384 v 7.936 h -11.456 v 33.792 z m 27.45598,0 v -41.728 h 15.04 q 4.416,0 8.064,1.216 3.648,1.152 5.824,4.032 2.176,2.816 2.176,7.744 0,4.8 -2.176,7.808 -2.176,3.008 -5.824,4.48 -3.648,1.408 -8.064,1.408 h -5.632 v 15.04 z m 9.408,-22.528 h 4.864 q 3.712,0 5.632,-1.536 1.984,-1.6 1.984,-4.672 0,-3.072 -1.984,-4.288 -1.92,-1.216 -5.632,-1.216 h -4.864 z m 13.184,22.528 -9.28,-17.472 6.528,-6.08 13.312,23.552 z m 12.48006,8.96 v -5.312 h 30.464 v 5.312 z m 53.824,-8.192 q -5.376,0 -9.856,-2.368 -4.416,-2.432 -7.104,-7.232 -2.688,-4.8 -2.688,-11.776 0,-5.184 1.536,-9.216 1.6,-4.096 4.352,-6.912 2.752,-2.816 6.272,-4.288 3.584,-1.472 7.552,-1.472 4.032,0 7.232,1.6 3.2,1.6 5.312,3.84 l -4.992,5.696 q -1.536,-1.472 -3.328,-2.176 -1.792,-0.768 -4.032,-0.768 -2.752,0 -5.12,1.664 -2.304,1.6 -3.712,4.608 -1.408,3.008 -1.408,7.104 0,4.288 1.344,7.36 1.344,3.008 3.712,4.608 2.432,1.6 5.568,1.6 2.432,0 4.352,-1.024 1.92,-1.024 3.392,-2.432 l 4.736,5.568 q -2.688,3.008 -5.952,4.544 -3.264,1.472 -7.168,1.472 z m -103.58399,79.232 v -7.616 h 8.832 v -23.488 h -7.616 v -5.824 q 3.328,-0.64 5.632,-1.536 2.368,-0.896 4.48,-2.176 h 6.912 v 33.024 h 7.616 v 7.616 z m 45.11999,0.768 q -3.328,0 -6.016,-0.768 -2.624,-0.768 -4.672,-2.048 -2.048,-1.28 -3.648,-2.88 l 4.224,-5.952 q 1.856,1.664 4.032,2.88 2.176,1.152 4.736,1.152 2.048,0 3.584,-0.704 1.536,-0.768 2.368,-2.176 0.896,-1.408 0.896,-3.456 0,-3.072 -1.792,-4.672 -1.792,-1.6 -4.608,-1.6 -1.728,0 -2.944,0.448 -1.216,0.448 -3.072,1.6 l -4.224,-2.688 1.152,-20.544 h 23.04 v 7.936 h -14.912 l -0.704,7.616 q 1.216,-0.512 2.24,-0.704 1.024,-0.256 2.304,-0.256 3.52,0 6.464,1.344 2.944,1.344 4.672,4.16 1.792,2.816 1.792,7.104 0,4.544 -2.112,7.744 -2.048,3.136 -5.44,4.8 -3.392,1.664 -7.36,1.664 z m 32.64,0 q -4.032,0 -6.976,-1.472 -2.944,-1.472 -4.928,-3.392 l 4.992,-5.632 q 1.024,1.152 2.752,2.048 1.792,0.832 3.52,0.832 2.432,0 4.288,-1.344 1.92,-1.344 3.008,-4.48 1.152,-3.2 1.152,-8.576 0,-5.056 -0.96,-7.872 -0.896,-2.88 -2.432,-4.032 -1.472,-1.216 -3.2,-1.216 -1.344,0 -2.56,0.704 -1.152,0.704 -1.856,2.112 -0.704,1.408 -0.704,3.776 0,2.112 0.704,3.456 0.704,1.28 1.92,1.856 1.216,0.576 2.752,0.576 1.6,0 3.264,-0.96 1.664,-1.024 3.008,-3.392 l 0.448,6.144 q -1.536,2.24 -4.032,3.584 -2.496,1.28 -4.544,1.28 -3.456,0 -6.208,-1.344 -2.752,-1.344 -4.352,-4.096 -1.536,-2.816 -1.536,-7.104 0,-4.224 1.856,-7.296 1.856,-3.072 4.928,-4.672 3.072,-1.664 6.72,-1.664 3.008,0 5.76,1.152 2.752,1.152 4.864,3.584 2.176,2.432 3.456,6.272 1.344,3.776 1.344,9.152 0,5.696 -1.408,9.856 -1.344,4.16 -3.648,6.848 -2.304,2.688 -5.248,4.032 -2.944,1.28 -6.144,1.28 z m 299.36753,-90.33596 v -50.688 h -17.184 v -11.904 h 48.576 v 11.904 h -17.184 v 50.688 z m 41.18398,0 v -62.592 h 22.56 q 6.624,0 12.096,1.824 5.472,1.728 8.736,6.048 3.264,4.224 3.264,11.616 0,7.2 -3.264,11.712 -3.264,4.512 -8.736,6.72 -5.472,2.112 -12.096,2.112 h -8.448 v 22.56 z m 14.112,-33.792 h 7.296 q 5.568,0 8.448,-2.304 2.976,-2.4 2.976,-7.008 0,-4.608 -2.976,-6.432 -2.88,-1.824 -8.448,-1.824 h -7.296 z m 19.776,33.792 -13.92,-26.208 9.792,-9.12 19.968,35.328 z m 18.72008,13.44 v -7.968 h 45.696 v 7.968 z m 80.736,-12.288 q -8.064,0 -14.784,-3.552 -6.624,-3.648 -10.656,-10.848 -4.032,-7.2 -4.032,-17.664 0,-7.776 2.304,-13.824 2.4,-6.144 6.528,-10.368 4.128,-4.224 9.408,-6.432 5.376,-2.208 11.328,-2.208 6.048,0 10.848,2.4 4.8,2.4 7.968,5.76 l -7.488,8.544 q -2.304,-2.208 -4.992,-3.264 -2.688,-1.152 -6.048,-1.152 -4.128,0 -7.68,2.496 -3.456,2.4 -5.568,6.912 -2.112,4.512 -2.112,10.656 0,6.432 2.016,11.04 2.016,4.512 5.568,6.912 3.648,2.4 8.352,2.4 3.648,0 6.528,-1.536 2.88,-1.536 5.088,-3.648 l 7.104,8.352 q -4.032,4.512 -8.928,6.816 -4.896,2.208 -10.752,2.208 z m -155.37597,118.848 v -11.424 h 13.248 v -35.232 h -11.424 v -8.736 q 4.992,-0.96 8.448,-2.304 3.552,-1.344 6.72,-3.264 h 10.368 v 49.536 h 11.424 v 11.424 z m 67.67999,1.152 q -4.992,0 -9.024,-1.152 -3.936,-1.152 -7.008,-3.072 -3.072,-1.92 -5.472,-4.32 l 6.336,-8.928 q 2.784,2.496 6.048,4.32 3.264,1.728 7.104,1.728 3.072,0 5.376,-1.056 2.304,-1.152 3.552,-3.264 1.344,-2.112 1.344,-5.184 0,-4.608 -2.688,-7.008 -2.688,-2.4 -6.912,-2.4 -2.592,0 -4.416,0.672 -1.824,0.672 -4.608,2.4 l -6.336,-4.032 1.728,-30.816 h 34.56 v 11.904 h -22.368 l -1.056,11.424 q 1.824,-0.768 3.36,-1.056 1.536,-0.384 3.456,-0.384 5.28,0 9.696,2.016 4.416,2.016 7.008,6.24 2.688,4.224 2.688,10.656 0,6.816 -3.168,11.616 -3.072,4.704 -8.16,7.2 -5.088,2.496 -11.04,2.496 z m 52.22398,0 q -6.048,0 -10.944,-2.112 -4.8,-2.112 -7.584,-5.856 -2.688,-3.84 -2.688,-8.736 0,-3.744 1.344,-6.432 1.44,-2.784 3.744,-4.896 2.4,-2.112 5.28,-3.648 v -0.384 q -3.456,-2.688 -5.856,-6.144 -2.304,-3.456 -2.304,-8.256 0,-5.184 2.496,-8.928 2.496,-3.84 6.912,-5.856 4.416,-2.016 10.08,-2.016 8.448,0 13.44,4.608 5.088,4.512 5.088,12.096 0,2.88 -1.152,5.472 -1.056,2.496 -2.88,4.512 -1.824,1.92 -3.936,3.36 v 0.384 q 2.88,1.536 5.28,3.744 2.4,2.112 3.84,5.184 1.44,2.976 1.44,7.008 0,4.8 -2.688,8.64 -2.688,3.744 -7.584,6.048 -4.8,2.208 -11.328,2.208 z m 3.84,-36.672 q 1.824,-2.112 2.784,-4.32 0.96,-2.208 0.96,-4.608 0,-2.4 -0.864,-4.128 -0.864,-1.728 -2.592,-2.688 -1.632,-1.056 -3.936,-1.056 -2.784,0 -4.8,1.824 -2.016,1.728 -2.016,5.184 0,2.496 1.344,4.224 1.344,1.728 3.648,3.072 2.4,1.344 5.472,2.496 z m -3.552,26.88 q 2.304,0 4.128,-0.768 1.92,-0.864 2.976,-2.496 1.056,-1.728 1.056,-4.32 0,-2.688 -1.632,-4.416 -1.536,-1.824 -4.512,-3.168 -2.88,-1.44 -6.72,-3.072 -2.016,1.824 -3.36,4.416 -1.344,2.496 -1.344,5.28 0,2.688 1.248,4.608 1.344,1.92 3.456,2.976 2.208,0.96 4.704,0.96 z m 296.02593,-111.36 v -50.688 h -17.184 v -11.904 h 48.576 v 11.904 h -17.184 v 50.688 z m 41.184,0 v -62.592 h 22.56 q 6.624,0 12.096,1.824 5.472,1.728 8.736,6.048 3.264,4.224 3.264,11.616 0,7.2 -3.264,11.712 -3.264,4.512 -8.736,6.72 -5.472,2.112 -12.096,2.112 h -8.448 v 22.56 z m 14.112,-33.792 h 7.296 q 5.568,0 8.448,-2.304 2.976,-2.4 2.976,-7.008 0,-4.608 -2.976,-6.432 -2.88,-1.824 -8.448,-1.824 h -7.296 z m 19.776,33.792 -13.92,-26.208 9.792,-9.12 19.968,35.328 z m 18.7201,13.44 v -7.968 h 45.696 v 7.968 z m 80.736,-12.288 q -8.064,0 -14.784,-3.552 -6.624,-3.648 -10.656,-10.848 -4.032,-7.2 -4.032,-17.664 0,-7.776 2.304,-13.824 2.4,-6.144 6.528,-10.368 4.128,-4.224 9.408,-6.432 5.376,-2.208 11.328,-2.208 6.048,0 10.848,2.4 4.8,2.4 7.968,5.76 l -7.488,8.544 q -2.304,-2.208 -4.992,-3.264 -2.688,-1.152 -6.048,-1.152 -4.128,0 -7.68,2.496 -3.456,2.4 -5.568,6.912 -2.112,4.512 -2.112,10.656 0,6.432 2.016,11.04 2.016,4.512 5.568,6.912 3.648,2.4 8.352,2.4 3.648,0 6.528,-1.536 2.88,-1.536 5.088,-3.648 l 7.104,8.352 q -4.032,4.512 -8.928,6.816 -4.896,2.208 -10.752,2.208 z m -155.376,118.848 v -11.424 h 13.248 v -35.232 h -11.424 v -8.736 q 4.992,-0.96 8.448,-2.304 3.552,-1.344 6.72,-3.264 h 10.368 v 49.536 h 11.424 v 11.424 z m 67.68,1.152 q -4.992,0 -9.024,-1.152 -3.936,-1.152 -7.008,-3.072 -3.072,-1.92 -5.472,-4.32 l 6.336,-8.928 q 2.784,2.496 6.048,4.32 3.264,1.728 7.104,1.728 3.072,0 5.376,-1.056 2.304,-1.152 3.552,-3.264 1.344,-2.112 1.344,-5.184 0,-4.608 -2.688,-7.008 -2.688,-2.4 -6.912,-2.4 -2.592,0 -4.416,0.672 -1.824,0.672 -4.608,2.4 l -6.336,-4.032 1.728,-30.816 h 34.56 v 11.904 h -22.368 l -1.056,11.424 q 1.824,-0.768 3.36,-1.056 1.536,-0.384 3.456,-0.384 5.28,0 9.696,2.016 4.416,2.016 7.008,6.24 2.688,4.224 2.688,10.656 0,6.816 -3.168,11.616 -3.072,4.704 -8.16,7.2 -5.088,2.496 -11.04,2.496 z m 41.376,-1.152 q 0.48,-7.584 1.536,-13.92 1.056,-6.432 2.976,-12.192 2.016,-5.76 5.088,-11.328 3.072,-5.568 7.584,-11.616 h -27.36 v -11.904 h 42.432 v 8.64 q -5.376,6.528 -8.832,12.192 -3.36,5.664 -5.184,11.52 -1.824,5.856 -2.688,12.768 -0.864,6.912 -1.344,15.84 z m 418.6429,273.30655 v -25.344 h -8.592 v -5.952 h 24.288 v 5.952 h -8.592 v 25.344 z m 20.5919,0 v -31.296 h 11.28 q 3.312,0 6.048,0.912 2.736,0.864 4.368,3.024 1.632,2.112 1.632,5.808 0,3.6 -1.632,5.856 -1.632,2.256 -4.368,3.36 -2.736,1.056 -6.048,1.056 h -4.224 v 11.28 z m 7.056,-16.896 h 3.648 q 2.784,0 4.224,-1.152 1.488,-1.2 1.488,-3.504 0,-2.304 -1.488,-3.216 -1.44,-0.912 -4.224,-0.912 h -3.648 z m 9.888,16.896 -6.96,-13.104 4.896,-4.56 9.984,17.664 z m 9.3601,6.72 v -3.984 h 22.848 v 3.984 z m 40.368,-6.144 q -4.032,0 -7.392,-1.776 -3.312,-1.824 -5.328,-5.424 -2.016,-3.6 -2.016,-8.832 0,-3.888 1.152,-6.912 1.2,-3.072 3.264,-5.184 2.064,-2.112 4.704,-3.216 2.688,-1.104 5.664,-1.104 3.024,0 5.424,1.2 2.4,1.2 3.984,2.88 l -3.744,4.272 q -1.152,-1.104 -2.496,-1.632 -1.344,-0.576 -3.024,-0.576 -2.064,0 -3.84,1.248 -1.728,1.2 -2.784,3.456 -1.056,2.256 -1.056,5.328 0,3.216 1.008,5.52 1.008,2.256 2.784,3.456 1.824,1.2 4.176,1.2 1.824,0 3.264,-0.768 1.44,-0.768 2.544,-1.824 l 3.552,4.176 q -2.016,2.256 -4.464,3.408 -2.448,1.104 -5.376,1.104 z m -77.688,59.424 v -5.712 h 6.624 v -17.616 h -5.712 v -4.368 q 2.496,-0.48 4.224,-1.152 1.776,-0.672 3.36,-1.632 h 5.184 v 24.768 h 5.712 v 5.712 z m 33.84,0.576 q -2.496,0 -4.512,-0.576 -1.968,-0.576 -3.504,-1.536 -1.536,-0.96 -2.736,-2.16 l 3.168,-4.464 q 1.392,1.248 3.024,2.16 1.632,0.864 3.552,0.864 1.536,0 2.688,-0.528 1.152,-0.576 1.776,-1.632 0.672,-1.056 0.672,-2.592 0,-2.304 -1.344,-3.504 -1.344,-1.2 -3.456,-1.2 -1.296,0 -2.208,0.336 -0.912,0.336 -2.304,1.2 l -3.168,-2.016 0.864,-15.408 h 17.28 v 5.952 h -11.184 l -0.528,5.712 q 0.912,-0.384 1.68,-0.528 0.768,-0.192 1.728,-0.192 2.64,0 4.848,1.008 2.208,1.008 3.504,3.12 1.344,2.112 1.344,5.328 0,3.408 -1.584,5.808 -1.536,2.352 -4.08,3.6 -2.544,1.248 -5.52,1.248 z m 25.344,0 q -2.496,0 -4.512,-0.576 -1.968,-0.576 -3.504,-1.536 -1.536,-0.96 -2.736,-2.16 l 3.168,-4.464 q 1.392,1.248 3.024,2.16 1.632,0.864 3.552,0.864 1.536,0 2.688,-0.528 1.152,-0.576 1.776,-1.632 0.672,-1.056 0.672,-2.592 0,-2.304 -1.344,-3.504 -1.344,-1.2 -3.456,-1.2 -1.296,0 -2.208,0.336 -0.912,0.336 -2.304,1.2 l -3.168,-2.016 0.864,-15.408 h 17.28 v 5.952 h -11.184 l -0.528,5.712 q 0.912,-0.384 1.68,-0.528 0.768,-0.192 1.728,-0.192 2.64,0 4.848,1.008 2.208,1.008 3.504,3.12 1.344,2.112 1.344,5.328 0,3.408 -1.584,5.808 -1.536,2.352 -4.08,3.6 -2.544,1.248 -5.52,1.248 z m -211.5491,-432.09105 v -50.688 h -17.184 v -11.904 h 48.576 v 11.904 h -17.184 v 50.688 z m 41.184,0 v -62.592 h 22.56 q 6.624,0 12.096,1.824 5.472,1.728 8.736,6.048 3.264,4.224 3.264,11.616 0,7.2 -3.264,11.712 -3.264,4.512 -8.736,6.72 -5.472,2.112 -12.096,2.112 h -8.448 v 22.56 z m 14.112,-33.792 h 7.296 q 5.568,0 8.448,-2.304 2.976,-2.4 2.976,-7.008 0,-4.608 -2.976,-6.432 -2.88,-1.824 -8.448,-1.824 h -7.296 z m 19.776,33.792 -13.92,-26.208 9.792,-9.12 19.968,35.328 z m 18.7201,13.44 v -7.968 h 45.696 v 7.968 z m 80.736,-12.288 q -8.064,0 -14.784,-3.552 -6.624,-3.648 -10.656,-10.848 -4.032,-7.2 -4.032,-17.664 0,-7.776 2.304,-13.824 2.4,-6.144 6.528,-10.368 4.128,-4.224 9.408,-6.432 5.376,-2.208 11.328,-2.208 6.048,0 10.848,2.4 4.8,2.4 7.968,5.76 l -7.488,8.544 q -2.304,-2.208 -4.992,-3.264 -2.688,-1.152 -6.048,-1.152 -4.128,0 -7.68,2.496 -3.456,2.4 -5.568,6.912 -2.112,4.512 -2.112,10.656 0,6.432 2.016,11.04 2.016,4.512 5.568,6.912 3.648,2.4 8.352,2.4 3.648,0 6.528,-1.536 2.88,-1.536 5.088,-3.648 l 7.104,8.352 q -4.032,4.512 -8.928,6.816 -4.896,2.208 -10.752,2.208 z m -155.376,118.848 v -11.424 h 13.248 v -35.232 h -11.424 v -8.736 q 4.992,-0.96 8.448,-2.304 3.552,-1.344 6.72,-3.264 h 10.368 v 49.536 h 11.424 v 11.424 z m 67.68,1.152 q -4.992,0 -9.024,-1.152 -3.936,-1.152 -7.008,-3.072 -3.072,-1.92 -5.472,-4.32 l 6.336,-8.928 q 2.784,2.496 6.048,4.32 3.264,1.728 7.104,1.728 3.072,0 5.376,-1.056 2.304,-1.152 3.552,-3.264 1.344,-2.112 1.344,-5.184 0,-4.608 -2.688,-7.008 -2.688,-2.4 -6.912,-2.4 -2.592,0 -4.416,0.672 -1.824,0.672 -4.608,2.4 l -6.336,-4.032 1.728,-30.816 h 34.56 v 11.904 h -22.368 l -1.056,11.424 q 1.824,-0.768 3.36,-1.056 1.536,-0.384 3.456,-0.384 5.28,0 9.696,2.016 4.416,2.016 7.008,6.24 2.688,4.224 2.688,10.656 0,6.816 -3.168,11.616 -3.072,4.704 -8.16,7.2 -5.088,2.496 -11.04,2.496 z m 53.952,0 q -4.416,0 -8.544,-1.728 -4.128,-1.728 -7.392,-5.376 -3.264,-3.648 -5.184,-9.312 -1.92,-5.76 -1.92,-13.824 0,-8.544 2.016,-14.784 2.016,-6.24 5.472,-10.272 3.456,-4.032 7.872,-5.952 4.416,-2.016 9.312,-2.016 6.048,0 10.464,2.208 4.416,2.112 7.296,5.088 l -7.392,8.448 q -1.632,-1.728 -4.224,-2.976 -2.592,-1.344 -5.28,-1.344 -3.456,0 -6.432,2.016 -2.88,2.016 -4.608,6.816 -1.632,4.704 -1.632,12.768 0,7.584 1.344,11.904 1.44,4.224 3.744,6.048 2.304,1.728 4.8,1.728 2.112,0 3.84,-1.056 1.728,-1.056 2.784,-3.168 1.056,-2.208 1.056,-5.664 0,-3.264 -1.056,-5.184 -1.056,-1.92 -2.88,-2.784 -1.728,-0.864 -4.032,-0.864 -2.4,0 -4.992,1.44 -2.496,1.44 -4.512,5.088 l -0.672,-9.216 q 2.4,-3.552 6.144,-5.376 3.744,-1.92 6.72,-1.92 5.184,0 9.312,2.016 4.128,2.016 6.432,6.24 2.4,4.128 2.4,10.56 0,6.336 -2.784,10.944 -2.688,4.608 -7.296,7.104 -4.608,2.4 -10.176,2.4 z M 396.11666,175.39511 v -16.896 h -5.728 v -3.968 h 16.192 v 3.968 h -5.728 v 16.896 z m 13.72799,0 v -20.864 h 7.52 q 2.208,0 4.032,0.608 1.824,0.576 2.912,2.016 1.088,1.408 1.088,3.872 0,2.4 -1.088,3.904 -1.088,1.504 -2.912,2.24 -1.824,0.704 -4.032,0.704 h -2.816 v 7.52 z m 4.704,-11.264 h 2.432 q 1.856,0 2.816,-0.768 0.992,-0.8 0.992,-2.336 0,-1.536 -0.992,-2.144 -0.96,-0.608 -2.816,-0.608 h -2.432 z m 6.592,11.264 -4.64,-8.736 3.264,-3.04 6.656,11.776 z m 6.24003,4.48 v -2.656 h 15.232 v 2.656 z m 26.912,-4.096 q -2.688,0 -4.928,-1.184 -2.208,-1.216 -3.552,-3.616 -1.344,-2.4 -1.344,-5.888 0,-2.592 0.768,-4.608 0.8,-2.048 2.176,-3.456 1.376,-1.408 3.136,-2.144 1.792,-0.736 3.776,-0.736 2.016,0 3.616,0.8 1.6,0.8 2.656,1.92 l -2.496,2.848 q -0.768,-0.736 -1.664,-1.088 -0.896,-0.384 -2.016,-0.384 -1.376,0 -2.56,0.832 -1.152,0.8 -1.856,2.304 -0.704,1.504 -0.704,3.552 0,2.144 0.672,3.68 0.672,1.504 1.856,2.304 1.216,0.8 2.784,0.8 1.216,0 2.176,-0.512 0.96,-0.512 1.696,-1.216 l 2.368,2.784 q -1.344,1.504 -2.976,2.272 -1.632,0.736 -3.584,0.736 z m -51.79199,39.616 v -3.808 h 4.416 v -11.744 h -3.808 v -2.912 q 1.664,-0.32 2.816,-0.768 1.184,-0.448 2.24,-1.088 h 3.456 v 16.512 h 3.808 v 3.808 z m 23.64799,0.384 q -1.472,0 -2.848,-0.576 -1.376,-0.576 -2.464,-1.792 -1.088,-1.216 -1.728,-3.104 -0.64,-1.92 -0.64,-4.608 0,-2.848 0.672,-4.928 0.672,-2.08 1.824,-3.424 1.152,-1.344 2.624,-1.984 1.472,-0.672 3.104,-0.672 2.016,0 3.488,0.736 1.472,0.704 2.432,1.696 l -2.464,2.816 q -0.544,-0.576 -1.408,-0.992 -0.864,-0.448 -1.76,-0.448 -1.152,0 -2.144,0.672 -0.96,0.672 -1.536,2.272 -0.544,1.568 -0.544,4.256 0,2.528 0.448,3.968 0.48,1.408 1.248,2.016 0.768,0.576 1.6,0.576 0.704,0 1.28,-0.352 0.576,-0.352 0.928,-1.056 0.352,-0.736 0.352,-1.888 0,-1.088 -0.352,-1.728 -0.352,-0.64 -0.96,-0.928 -0.576,-0.288 -1.344,-0.288 -0.8,0 -1.664,0.48 -0.832,0.48 -1.504,1.696 l -0.224,-3.072 q 0.8,-1.184 2.048,-1.792 1.248,-0.64 2.24,-0.64 1.728,0 3.104,0.672 1.376,0.672 2.144,2.08 0.8,1.376 0.8,3.52 0,2.112 -0.928,3.648 -0.896,1.536 -2.432,2.368 -1.536,0.8 -3.392,0.8 z m 15.808,0 q -1.664,0 -3.008,-0.384 -1.312,-0.384 -2.336,-1.024 -1.024,-0.64 -1.824,-1.44 l 2.112,-2.976 q 0.928,0.832 2.016,1.44 1.088,0.576 2.368,0.576 1.024,0 1.792,-0.352 0.768,-0.384 1.184,-1.088 0.448,-0.704 0.448,-1.728 0,-1.536 -0.896,-2.336 -0.896,-0.8 -2.304,-0.8 -0.864,0 -1.472,0.224 -0.608,0.224 -1.536,0.8 l -2.112,-1.344 0.576,-10.272 h 11.52 v 3.968 h -7.456 l -0.352,3.808 q 0.608,-0.256 1.12,-0.352 0.512,-0.128 1.152,-0.128 1.76,0 3.232,0.672 1.472,0.672 2.336,2.08 0.896,1.408 0.896,3.552 0,2.272 -1.056,3.872 -1.024,1.568 -2.72,2.4 -1.696,0.832 -3.68,0.832 z"/>
  </g>
</svg>
