<svg xmlns="http://www.w3.org/2000/svg" xml:space="preserve" id="svg1" width="3749.9419" height="1499.9012" version="1.1" viewBox="0 0 3749.9419 1499.9012">
  <defs id="defs1">
    <linearGradient id="swatch446">
      <stop id="stop446" offset="0" style="stop-color:#4c5a5f;stop-opacity:1"/>
    </linearGradient>
    <marker id="Triangle" markerHeight="1" markerWidth="1" orient="auto-start-reverse" preserveAspectRatio="xMidYMid" refX="0" refY="0" style="overflow:visible" viewBox="0 0 1 1">
      <path id="path597" d="M 5.77,0 -2.88,5 V -5 Z" style="fill:context-stroke;fill-rule:evenodd;stroke:context-stroke;stroke-width:1pt" transform="scale(0.5)"/>
    </marker>
    <marker id="Triangle-7" markerHeight="1" markerWidth="1" orient="auto-start-reverse" preserveAspectRatio="xMidYMid" refX="0" refY="0" style="overflow:visible" viewBox="0 0 1 1">
      <path id="path597-1" d="M 5.77,0 -2.88,5 V -5 Z" style="fill:context-stroke;fill-rule:evenodd;stroke:context-stroke;stroke-width:1pt" transform="scale(0.5)"/>
    </marker>
    <marker id="Triangle-5" markerHeight="1" markerWidth="1" orient="auto-start-reverse" preserveAspectRatio="xMidYMid" refX="0" refY="0" style="overflow:visible" viewBox="0 0 1 1">
      <path id="path597-6" d="M 5.77,0 -2.88,5 V -5 Z" style="fill:context-stroke;fill-rule:evenodd;stroke:context-stroke;stroke-width:1pt" transform="scale(0.5)"/>
    </marker>
    <marker id="Triangle-7-4" markerHeight="1" markerWidth="1" orient="auto-start-reverse" preserveAspectRatio="xMidYMid" refX="0" refY="0" style="overflow:visible" viewBox="0 0 1 1">
      <path id="path597-1-8" d="M 5.77,0 -2.88,5 V -5 Z" style="fill:context-stroke;fill-rule:evenodd;stroke:context-stroke;stroke-width:1pt" transform="scale(0.5)"/>
    </marker>
    <marker id="Triangle-5-3" markerHeight="1" markerWidth="1" orient="auto-start-reverse" preserveAspectRatio="xMidYMid" refX="0" refY="0" style="overflow:visible" viewBox="0 0 1 1">
      <path id="path597-6-0" d="M 5.77,0 -2.88,5 V -5 Z" style="fill:context-stroke;fill-rule:evenodd;stroke:context-stroke;stroke-width:1pt" transform="scale(0.5)"/>
    </marker>
    <marker id="Triangle-7-4-0" markerHeight="1" markerWidth="1" orient="auto-start-reverse" preserveAspectRatio="xMidYMid" refX="0" refY="0" style="overflow:visible" viewBox="0 0 1 1">
      <path id="path597-1-8-4" d="M 5.77,0 -2.88,5 V -5 Z" style="fill:context-stroke;fill-rule:evenodd;stroke:context-stroke;stroke-width:1pt" transform="scale(0.5)"/>
    </marker>
    <marker id="Triangle-5-3-7" markerHeight="1" markerWidth="1" orient="auto-start-reverse" preserveAspectRatio="xMidYMid" refX="0" refY="0" style="overflow:visible" viewBox="0 0 1 1">
      <path id="path597-6-0-6" d="M 5.77,0 -2.88,5 V -5 Z" style="fill:context-stroke;fill-rule:evenodd;stroke:context-stroke;stroke-width:1pt" transform="scale(0.5)"/>
    </marker>
    <marker id="Triangle-7-4-0-5" markerHeight="1" markerWidth="1" orient="auto-start-reverse" preserveAspectRatio="xMidYMid" refX="0" refY="0" style="overflow:visible" viewBox="0 0 1 1">
      <path id="path597-1-8-4-1" d="M 5.77,0 -2.88,5 V -5 Z" style="fill:context-stroke;fill-rule:evenodd;stroke:context-stroke;stroke-width:1pt" transform="scale(0.5)"/>
    </marker>
    <marker id="Triangle-2" markerHeight="1" markerWidth="1" orient="auto-start-reverse" preserveAspectRatio="xMidYMid" refX="0" refY="0" style="overflow:visible" viewBox="0 0 1 1">
      <path id="path597-9" d="M 5.77,0 -2.88,5 V -5 Z" style="fill:context-stroke;fill-rule:evenodd;stroke:context-stroke;stroke-width:1pt" transform="scale(0.5)"/>
    </marker>
    <marker id="Triangle-7-3" markerHeight="1" markerWidth="1" orient="auto-start-reverse" preserveAspectRatio="xMidYMid" refX="0" refY="0" style="overflow:visible" viewBox="0 0 1 1">
      <path id="path597-1-1" d="M 5.77,0 -2.88,5 V -5 Z" style="fill:context-stroke;fill-rule:evenodd;stroke:context-stroke;stroke-width:1pt" transform="scale(0.5)"/>
    </marker>
    <marker id="Triangle-9" markerHeight="1" markerWidth="1" orient="auto-start-reverse" preserveAspectRatio="xMidYMid" refX="0" refY="0" style="overflow:visible" viewBox="0 0 1 1">
      <path id="path597-18" d="M 5.77,0 -2.88,5 V -5 Z" style="fill:context-stroke;fill-rule:evenodd;stroke:context-stroke;stroke-width:1pt" transform="scale(0.5)"/>
    </marker>
    <marker id="Triangle-7-2" markerHeight="1" markerWidth="1" orient="auto-start-reverse" preserveAspectRatio="xMidYMid" refX="0" refY="0" style="overflow:visible" viewBox="0 0 1 1">
      <path id="path597-1-80" d="M 5.77,0 -2.88,5 V -5 Z" style="fill:context-stroke;fill-rule:evenodd;stroke:context-stroke;stroke-width:1pt" transform="scale(0.5)"/>
    </marker>
    <marker id="Triangle-9-2" markerHeight="1" markerWidth="1" orient="auto-start-reverse" preserveAspectRatio="xMidYMid" refX="0" refY="0" style="overflow:visible" viewBox="0 0 1 1">
      <path id="path597-18-5" d="M 5.77,0 -2.88,5 V -5 Z" style="fill:context-stroke;fill-rule:evenodd;stroke:context-stroke;stroke-width:1pt" transform="scale(0.5)"/>
    </marker>
    <marker id="Triangle-7-2-5" markerHeight="1" markerWidth="1" orient="auto-start-reverse" preserveAspectRatio="xMidYMid" refX="0" refY="0" style="overflow:visible" viewBox="0 0 1 1">
      <path id="path597-1-80-1" d="M 5.77,0 -2.88,5 V -5 Z" style="fill:context-stroke;fill-rule:evenodd;stroke:context-stroke;stroke-width:1pt" transform="scale(0.5)"/>
    </marker>
  </defs>
  <g id="floor_0" style="display:inline" transform="matrix(40.336064,0,0,40.336064,841.4482,-8776.3595)">
    <g id="rooms_0" style="display:inline;opacity:1" transform="matrix(0.02439371,0,0,0.02439371,-0.02443957,255.98706)">
      <rect id="rect1138-5" width="341.48203" height="298.24582" x="170.41531" y="2767.3357" style="font-variation-settings:&quot;wdth&quot;70,&quot;wght&quot;600;display:inline;fill:#60767b;fill-opacity:1;stroke-width:28.8952;stroke-dasharray:none" transform="rotate(-90,-2068.38,1541.4212)"/>
      <path id="FE010" d="m -544.68466,-1026.6886 v -30.4894 h -8.71765 l -1.09951,-185.9295 h 85.60184 408.346914 l -0.29838,218.9853 h 243.281176 866.97917 139.1167 l 1.7637,211.93263 -10e-5,456.83385 H 866.89641 v 12.70387 H 551.96274 l -1e-5,-12.70387 H -67.605768 l -290.392732,-3e-5 3e-5,-154.20461 h -306.37976 v -37.3711 h 160.48449 v -149.90629 l 114.6762,10e-6 -2e-5,-329.85086 z" style="fill:#4d5b60;fill-opacity:1;stroke:none;stroke-width:10.1632;stroke-dasharray:none;stroke-opacity:1"/>
      <rect id="FE001" width="318.10681" height="308.45178" x="-558.48627" y="-1068.3392" style="display:inline;fill:#454c7f;fill-opacity:1;stroke:none;stroke-width:35.571;stroke-dasharray:none;stroke-opacity:1" transform="translate(-4.004637e-6,-483.22003)"/>
      <rect id="FE002" width="179.82639" height="308.45178" x="-240.37944" y="-1551.5593" style="fill:#454c7f;fill-opacity:1;stroke:none;stroke-width:35.571;stroke-dasharray:none;stroke-opacity:1"/>
      <rect id="FE003" width="466.5094" height="527.43713" x="-60.753155" y="-1551.5593" style="fill:#454c7f;fill-opacity:1;stroke:none;stroke-width:38.2853;stroke-dasharray:none;stroke-opacity:1"/>
      <rect id="FE004" width="466.89301" height="527.43707" x="405.75629" y="-1551.5593" style="fill:#454c7f;fill-opacity:1;stroke:none;stroke-width:35.571;stroke-dasharray:none;stroke-opacity:1"/>
      <rect id="FE005" width="698.0459" height="527.43707" x="872.64929" y="-1551.5593" style="fill:#454c7f;fill-opacity:1;stroke:none;stroke-width:35.571;stroke-dasharray:none;stroke-opacity:1"/>
      <rect id="FE007" width="255.39909" height="739.01001" x="1190.2892" y="-812.18958" style="fill:#454c7f;fill-opacity:1;stroke:none;stroke-width:35.571;stroke-dasharray:none;stroke-opacity:1"/>
      <rect id="FE_LIFT" width="277.9057" height="328.7218" x="-831.30804" y="-1368.1143" style="fill:#1b2022;fill-opacity:1;stroke:none;stroke-width:35.571;stroke-dasharray:none;stroke-opacity:1"/>
      <path id="path34" d="m 1570.6951,-1551.5593 v 291.5614 l 268.1881,-103.1472 v -28.9254 l 674.9529,-3.0331 v 31.9585 l 268.188,103.1472 v -291.5614 h -943.1409 z" style="fill:#454c7f;fill-opacity:1;stroke-width:35.571"/>
      <rect id="FE_SCHACHT" width="152.05855" height="551.6886" x="2782.0242" y="-1068.3392" style="display:inline;fill:#bec3c6;fill-opacity:1;stroke-width:35.571" transform="translate(-4.004637e-6,-483.22003)"/>
      <path id="FE006" d="m 1188.5257,-1024.1222 382.1695,-10e-5 -1e-4,-235.8756 268.1881,-103.1472 v -31.9585 h 674.953 v 31.9585 l 268.1879,103.1472 10e-5,260.1272 h 152.0585 V -72.920162 L 1445.6883,-73.179526 V -812.18957 l -257.1626,10e-6 z" style="fill:#454c7f;fill-opacity:1;stroke-width:35.571"/>
    </g>
    <g id="g1138" style="display:inline" transform="matrix(0.02439371,0,0,0.02439371,-88.08088,243.13258)">
      <g id="g140">
        <rect id="rect1116" width="132.12082" height="29.178997" x="-614.64343" y="3098.4128" style="font-variation-settings:&quot;wdth&quot;70,&quot;wght&quot;600;display:inline;fill:#62797e;fill-opacity:1;stroke-width:5.62179;stroke-dasharray:none" transform="rotate(-90,-306.90496,-153.91518)"/>
        <rect id="rect1117" width="132.12082" height="29.178997" x="-614.64343" y="3127.5918" style="font-variation-settings:&quot;wdth&quot;70,&quot;wght&quot;600;display:inline;fill:#647c81;fill-opacity:1;stroke-width:5.62179;stroke-dasharray:none" transform="rotate(-90,-306.90493,-153.91515)"/>
        <rect id="rect1118" width="132.12082" height="29.178997" x="-614.64343" y="3156.7708" style="font-variation-settings:&quot;wdth&quot;70,&quot;wght&quot;600;display:inline;fill:#667f84;fill-opacity:1;stroke-width:5.62179;stroke-dasharray:none" transform="rotate(-90,-306.90493,-153.91515)"/>
        <rect id="rect1119" width="132.12082" height="29.178997" x="-614.64343" y="3185.9497" style="font-variation-settings:&quot;wdth&quot;70,&quot;wght&quot;600;display:inline;fill:#688287;fill-opacity:1;stroke-width:5.62179;stroke-dasharray:none" transform="rotate(-90,-306.90493,-153.91515)"/>
        <rect id="rect1120" width="132.12082" height="29.178997" x="-614.64343" y="3215.1287" style="font-variation-settings:&quot;wdth&quot;70,&quot;wght&quot;600;display:inline;fill:#6b8489;fill-opacity:1;stroke-width:5.62179;stroke-dasharray:none" transform="rotate(-90,-306.90493,-153.91515)"/>
        <rect id="rect1121" width="132.12082" height="29.178997" x="-614.64343" y="3244.3076" style="font-variation-settings:&quot;wdth&quot;70,&quot;wght&quot;600;display:inline;fill:#6e878c;fill-opacity:1;stroke-width:5.62179;stroke-dasharray:none" transform="rotate(-90,-306.90493,-153.91515)"/>
        <rect id="rect1122" width="132.12082" height="29.178997" x="-614.64343" y="3273.4868" style="font-variation-settings:&quot;wdth&quot;70,&quot;wght&quot;600;display:inline;fill:#6f8b90;fill-opacity:1;stroke-width:5.62179;stroke-dasharray:none" transform="rotate(-90,-306.90493,-153.91515)"/>
        <rect id="rect1123" width="132.12082" height="29.178997" x="-614.64343" y="3302.6658" style="font-variation-settings:&quot;wdth&quot;70,&quot;wght&quot;600;display:inline;fill:#728d92;fill-opacity:1;stroke-width:5.62179;stroke-dasharray:none" transform="rotate(-90,-306.90493,-153.91515)"/>
        <rect id="rect1124" width="132.12082" height="29.178997" x="-614.64343" y="3331.8447" style="font-variation-settings:&quot;wdth&quot;70,&quot;wght&quot;600;display:inline;fill:#758f94;fill-opacity:1;stroke-width:5.62179;stroke-dasharray:none" transform="rotate(-90,-306.90493,-153.91515)"/>
        <rect id="rect1125" width="132.12082" height="29.178997" x="-614.64343" y="3361.0237" style="font-variation-settings:&quot;wdth&quot;70,&quot;wght&quot;600;display:inline;fill:#789296;fill-opacity:1;stroke-width:5.62179;stroke-dasharray:none" transform="rotate(-90,-306.90493,-153.91515)"/>
        <rect id="rect1126" width="132.12082" height="29.178997" x="-614.64343" y="3390.2029" style="font-variation-settings:&quot;wdth&quot;70,&quot;wght&quot;600;display:inline;fill:#7b9398;fill-opacity:1;stroke-width:5.62179;stroke-dasharray:none" transform="rotate(-90,-306.90493,-153.91515)"/>
        <rect id="rect1137-0-9-7-93" width="139.28902" height="1.0163157" x="-160.99149" y="2945.4231" style="font-variation-settings:&quot;wdth&quot;70,&quot;wght&quot;600;display:inline;fill:#000;fill-opacity:1;stroke-width:1.07727;stroke-dasharray:none" transform="rotate(-90,-2.7699073e-5,2.0213788e-5)"/>
        <rect id="rect1137-0-9-7-93-9" width="139.28902" height="1.0163157" x="-160.99155" y="2973.5857" style="font-variation-settings:&quot;wdth&quot;70,&quot;wght&quot;600;display:inline;fill:#000;fill-opacity:1;stroke-width:1.07727;stroke-dasharray:none" transform="rotate(-90,-2.7699073e-5,2.0213788e-5)"/>
        <rect id="rect1137-0-9-7-93-9-9" width="139.28902" height="1.0163157" x="-160.99155" y="3002.7646" style="font-variation-settings:&quot;wdth&quot;70,&quot;wght&quot;600;display:inline;fill:#000;fill-opacity:1;stroke-width:1.07727;stroke-dasharray:none" transform="rotate(-90,-2.7699073e-5,2.0213788e-5)"/>
        <rect id="rect1137-0-9-7-93-9-9-6" width="139.28902" height="1.0163157" x="-160.99155" y="3031.9436" style="font-variation-settings:&quot;wdth&quot;70,&quot;wght&quot;600;display:inline;fill:#000;fill-opacity:1;stroke-width:1.07727;stroke-dasharray:none" transform="rotate(-90,-2.7699073e-5,2.0213788e-5)"/>
        <rect id="rect1137-0-9-7-93-9-9-6-2" width="139.28902" height="1.0163157" x="-160.99155" y="3061.1226" style="font-variation-settings:&quot;wdth&quot;70,&quot;wght&quot;600;display:inline;fill:#000;fill-opacity:1;stroke-width:1.07727;stroke-dasharray:none" transform="rotate(-90,-2.7699073e-5,2.0213788e-5)"/>
        <rect id="rect1137-0-9-7-93-9-9-6-2-1" width="139.28902" height="1.0163157" x="-160.99155" y="3090.3015" style="font-variation-settings:&quot;wdth&quot;70,&quot;wght&quot;600;display:inline;fill:#000;fill-opacity:1;stroke-width:1.07727;stroke-dasharray:none" transform="rotate(-90,-2.7699073e-5,2.0213788e-5)"/>
        <rect id="rect1137-0-9-7-93-9-9-6-2-1-3" width="139.28902" height="1.0163157" x="-160.99155" y="3119.4805" style="font-variation-settings:&quot;wdth&quot;70,&quot;wght&quot;600;display:inline;fill:#000;fill-opacity:1;stroke-width:1.07727;stroke-dasharray:none" transform="rotate(-90,-2.7699073e-5,2.0213788e-5)"/>
        <rect id="rect1137-0-9-7-93-9-9-6-2-1-3-3" width="139.28902" height="1.0163157" x="-160.99155" y="3149.676" style="font-variation-settings:&quot;wdth&quot;70,&quot;wght&quot;600;display:inline;fill:#000;fill-opacity:1;stroke-width:1.07727;stroke-dasharray:none" transform="rotate(-90,-2.7699073e-5,2.0213788e-5)"/>
        <rect id="rect1137-0-9-7-93-9-9-6-2-1-3-3-5" width="139.28902" height="1.0163157" x="-160.99155" y="3178.855" style="font-variation-settings:&quot;wdth&quot;70,&quot;wght&quot;600;display:inline;fill:#000;fill-opacity:1;stroke-width:1.07727;stroke-dasharray:none" transform="rotate(-90,-2.7699073e-5,2.0213788e-5)"/>
        <rect id="rect1137-0-9-7-93-9-9-6-2-1-3-3-5-8" width="139.28902" height="1.0163157" x="-157.40746" y="3208.0339" style="font-variation-settings:&quot;wdth&quot;70,&quot;wght&quot;600;display:inline;fill:#000;fill-opacity:1;stroke-width:1.07727;stroke-dasharray:none" transform="rotate(-90,-2.7699073e-5,2.0213788e-5)"/>
        <rect id="rect1137-0-9-7-93-9-9-6-2-1-3-3-5-8-4" width="139.28902" height="1.0163157" x="-160.99155" y="3236.1965" style="font-variation-settings:&quot;wdth&quot;70,&quot;wght&quot;600;display:inline;fill:#000;fill-opacity:1;stroke-width:1.07727;stroke-dasharray:none" transform="rotate(-90,-2.7699073e-5,2.0213788e-5)"/>
        <rect id="rect1137-0-9-7-93-9-9-6-2-1-3-3-5-8-4-1" width="139.28902" height="1.0163157" x="-160.99155" y="3266.3921" style="font-variation-settings:&quot;wdth&quot;70,&quot;wght&quot;600;display:inline;fill:#000;fill-opacity:1;stroke-width:1.07727;stroke-dasharray:none" transform="rotate(-90,-2.7699073e-5,2.0213788e-5)"/>
      </g>
      <g id="g7">
        <rect id="rect1127-5" width="132.12082" height="29.178997" x="-445.15152" y="3390.2029" style="font-variation-settings:&quot;wdth&quot;70,&quot;wght&quot;600;display:inline;fill:#4c5a5f;fill-opacity:1;stroke-width:5.62179;stroke-dasharray:none" transform="matrix(0,-2.4171094,1,0,-184.20886,-1257.461)"/>
        <rect id="rect1129-3" width="132.12082" height="29.178997" x="-445.15152" y="3331.8447" style="font-variation-settings:&quot;wdth&quot;70,&quot;wght&quot;600;display:inline;fill:#516166;fill-opacity:1;stroke-width:5.62179;stroke-dasharray:none" transform="matrix(0,-2.4171094,1,0,-155.02966,-1257.461)"/>
        <rect id="rect1131-7" width="132.12082" height="29.178997" x="-445.15152" y="3273.4868" style="font-variation-settings:&quot;wdth&quot;70,&quot;wght&quot;600;display:inline;fill:#56676c;fill-opacity:1;stroke-width:5.62179;stroke-dasharray:none" transform="matrix(0,-2.4171094,1,0,-125.8507,-1257.461)"/>
        <rect id="rect1133-7" width="132.12082" height="29.178997" x="-445.15152" y="3215.1287" style="font-variation-settings:&quot;wdth&quot;70,&quot;wght&quot;600;display:inline;fill:#5a6d72;fill-opacity:1;stroke-width:5.62179;stroke-dasharray:none" transform="matrix(0,-2.4171094,1,0,-96.671516,-1257.461)"/>
        <rect id="rect1135-2" width="132.12082" height="29.178997" x="-445.15152" y="3156.7708" style="font-variation-settings:&quot;wdth&quot;70,&quot;wght&quot;600;display:inline;fill:#5e7378;fill-opacity:1;stroke-width:5.62179;stroke-dasharray:none" transform="matrix(0,-2.4171094,1,0,-67.492556,-1257.461)"/>
        <rect id="rect1137-0" width="132.12082" height="29.178997" x="-445.15152" y="3098.4128" style="font-variation-settings:&quot;wdth&quot;70,&quot;wght&quot;600;display:inline;fill:#62797e;fill-opacity:1;stroke-width:5.62179;stroke-dasharray:none" transform="matrix(0,-2.4171094,1,0,-38.313596,-1257.461)"/>
        <g id="g8" style="display:inline" transform="translate(-4.7912861e-5)">
          <rect id="rect1137-0-9-7-9-6-0" width="306.98367" height="1.0163157" x="187.66447" y="3059.083" style="font-variation-settings:&quot;wdth&quot;70,&quot;wght&quot;600;display:inline;fill:#000;fill-opacity:1;stroke-width:1.59927;stroke-dasharray:none" transform="rotate(-90)"/>
          <rect id="rect1137-0-9-7-9-6-0-5" width="306.98367" height="1.0163157" x="187.66447" y="3088.2617" style="font-variation-settings:&quot;wdth&quot;70,&quot;wght&quot;600;display:inline;fill:#000;fill-opacity:1;stroke-width:1.59927;stroke-dasharray:none" transform="rotate(-90)"/>
          <rect id="rect1137-0-9-7-9-6-0-5-7" width="306.98367" height="1.0163157" x="187.66447" y="3117.4407" style="font-variation-settings:&quot;wdth&quot;70,&quot;wght&quot;600;display:inline;fill:#000;fill-opacity:1;stroke-width:1.59927;stroke-dasharray:none" transform="rotate(-90)"/>
          <rect id="rect1137-0-9-7-9-6-0-5-7-3" width="306.98367" height="1.0163157" x="187.66447" y="3146.6196" style="font-variation-settings:&quot;wdth&quot;70,&quot;wght&quot;600;display:inline;fill:#000;fill-opacity:1;stroke-width:1.59927;stroke-dasharray:none" transform="rotate(-90)"/>
          <rect id="rect1137-0-9-7-9-6-0-5-7-3-3" width="306.98367" height="1.0163157" x="187.66449" y="3175.7988" style="font-variation-settings:&quot;wdth&quot;70,&quot;wght&quot;600;display:inline;fill:#000;fill-opacity:1;stroke-width:1.59927;stroke-dasharray:none" transform="rotate(-90)"/>
          <rect id="rect1137-0-9-7-9-6-0-5-7-3-3-5" width="306.98367" height="1.0163157" x="187.66449" y="3234.1567" style="font-variation-settings:&quot;wdth&quot;70,&quot;wght&quot;600;display:inline;fill:#000;fill-opacity:1;stroke-width:1.59927;stroke-dasharray:none" transform="rotate(-90)"/>
          <rect id="rect1137-0-9-7-9-6-0-5-7-3-3-0" width="306.98367" height="1.0163157" x="187.66447" y="3205.9941" style="font-variation-settings:&quot;wdth&quot;70,&quot;wght&quot;600;display:inline;fill:#000;fill-opacity:1;stroke-width:1.59927;stroke-dasharray:none" transform="rotate(-90)"/>
        </g>
      </g>
      <rect id="rect1138" width="345.78033" height="166.0882" x="-171.60304" y="2779.335" style="font-variation-settings:&quot;wdth&quot;70,&quot;wght&quot;600;display:inline;fill:#60767b;fill-opacity:1;stroke-width:21.6982;stroke-dasharray:none" transform="rotate(-90)"/>
      <path id="path43" d="M 3246.2087,-499.72976 H 3065.1164" style="fill:none;fill-opacity:1;stroke:#bec3c6;stroke-width:10.1632;stroke-dasharray:none;stroke-opacity:1"/>
      <g id="g6" style="display:inline">
        <rect id="rect1127-5-1" width="132.12082" height="29.178997" x="-445.15152" y="3390.2029" style="font-variation-settings:&quot;wdth&quot;70,&quot;wght&quot;600;display:inline;fill:#4c5a5f;fill-opacity:1;stroke-width:5.62179;stroke-dasharray:none" transform="matrix(0,-1.0542549,1,0,-300.92472,-494.83267)"/>
        <rect id="rect1129-3-2" width="132.12082" height="29.178997" x="-445.15152" y="3331.8447" style="font-variation-settings:&quot;wdth&quot;70,&quot;wght&quot;600;display:inline;fill:#516166;fill-opacity:1;stroke-width:5.62179;stroke-dasharray:none" transform="matrix(0,-1.0542549,1,0,-271.74548,-494.83267)"/>
        <rect id="rect1131-7-9" width="132.12082" height="29.178997" x="-445.15152" y="3273.4868" style="font-variation-settings:&quot;wdth&quot;70,&quot;wght&quot;600;display:inline;fill:#56676c;fill-opacity:1;stroke-width:5.62179;stroke-dasharray:none" transform="matrix(0,-1.0542549,1,0,-242.56655,-494.83267)"/>
        <rect id="rect1133-7-2" width="132.12082" height="29.178997" x="-445.15152" y="3215.1287" style="font-variation-settings:&quot;wdth&quot;70,&quot;wght&quot;600;display:inline;fill:#5a6d72;fill-opacity:1;stroke-width:5.62179;stroke-dasharray:none" transform="matrix(0,-1.0542549,1,0,-213.38731,-494.83267)"/>
        <rect id="rect1135-2-8" width="132.12082" height="29.178997" x="-445.15152" y="3156.7708" style="font-variation-settings:&quot;wdth&quot;70,&quot;wght&quot;600;display:inline;fill:#5e7378;fill-opacity:1;stroke-width:5.62179;stroke-dasharray:none" transform="matrix(0,-1.0542549,1,0,-184.20838,-494.83267)"/>
        <rect id="rect1137-0-9" width="139.28902" height="29.178997" x="25.529503" y="2943.3833" style="font-variation-settings:&quot;wdth&quot;70,&quot;wght&quot;600;display:inline;fill:#62797e;fill-opacity:1;stroke-width:5.77228;stroke-dasharray:none" transform="rotate(-90,-2.7699073e-5,2.0213788e-5)"/>
        <rect id="rect1137-0-9-7" width="139.28902" height="1.0163157" x="16.38913" y="2942.698" style="font-variation-settings:&quot;wdth&quot;70,&quot;wght&quot;600;display:inline;fill:#000;fill-opacity:1;stroke-width:1.07727;stroke-dasharray:none" transform="rotate(-90)"/>
        <rect id="rect1137-0-9-7-9" width="139.28902" height="1.0163157" x="16.38913" y="2971.5459" style="font-variation-settings:&quot;wdth&quot;70,&quot;wght&quot;600;display:inline;fill:#000;fill-opacity:1;stroke-width:1.07727;stroke-dasharray:none" transform="rotate(-90)"/>
        <rect id="rect1137-0-9-7-9-6" width="139.28902" height="1.0163157" x="16.38913" y="3000.7249" style="font-variation-settings:&quot;wdth&quot;70,&quot;wght&quot;600;display:inline;fill:#000;fill-opacity:1;stroke-width:1.07727;stroke-dasharray:none" transform="rotate(-90)"/>
        <rect id="rect1137-0-9-7-5" width="139.28902" height="1.0163157" x="16.38913" y="3030.4121" style="font-variation-settings:&quot;wdth&quot;70,&quot;wght&quot;600;display:inline;fill:#000;fill-opacity:1;stroke-width:1.07727;stroke-dasharray:none" transform="rotate(-90)"/>
        <rect id="rect1137-0-9-7-9-5" width="139.28902" height="1.0163157" x="16.38913" y="3059.083" style="font-variation-settings:&quot;wdth&quot;70,&quot;wght&quot;600;display:inline;fill:#000;fill-opacity:1;stroke-width:1.07727;stroke-dasharray:none" transform="rotate(-90)"/>
        <rect id="rect1137-0-9-7-9-6-4" width="139.28902" height="1.0163157" x="16.38913" y="3088.262" style="font-variation-settings:&quot;wdth&quot;70,&quot;wght&quot;600;display:inline;fill:#000;fill-opacity:1;stroke-width:1.07727;stroke-dasharray:none" transform="rotate(-90)"/>
        <rect id="rect1137-0-9-7-9-6-4-5" width="139.28902" height="1.0163157" x="15.856875" y="3117.4409" style="font-variation-settings:&quot;wdth&quot;70,&quot;wght&quot;600;display:inline;fill:#000;fill-opacity:1;stroke-width:1.07727;stroke-dasharray:none" transform="rotate(-90)"/>
      </g>
      <path id="path1139" d="m 55.834272,224.88733 h 2.441486" style="font-variation-settings:&quot;wdth&quot;70,&quot;wght&quot;600;display:inline;opacity:.9;fill:none;fill-opacity:1;stroke:#bec3c6;stroke-width:.123959;stroke-dasharray:none;stroke-opacity:1;marker-end:url(#Triangle)" transform="matrix(-40.994174,0,0,-40.994174,5378.1581,9133.0367)"/>
      <path id="path1140" d="m 2960.0126,87.762867 262.6108,6e-5" style="font-variation-settings:&quot;wdth&quot;70,&quot;wght&quot;600;display:inline;opacity:.9;fill:none;fill-opacity:1;stroke:#bec3c6;stroke-width:5.0816;stroke-dasharray:none;stroke-opacity:1;marker-end:url(#Triangle)" transform="translate(-4.7912861e-5)"/>
    </g>
    <g id="walls_0" style="display:inline" transform="matrix(0.02439371,0,0,0.02439371,-0.02443957,244.19953)">
      <path id="path29" d="M 703.86224,-540.90217 H 947.77753" style="font-variation-settings:&quot;wdth&quot;70,&quot;wght&quot;600;display:inline;fill:none;stroke:#bec3c6;stroke-width:35.571;stroke-linecap:butt;stroke-dasharray:none;stroke-opacity:1"/>
      <path id="path29-2" d="m 182.42972,-540.90217 h 418.7521" style="font-variation-settings:&quot;wdth&quot;70,&quot;wght&quot;600;display:inline;fill:none;stroke:#bec3c6;stroke-width:35.571;stroke-linecap:butt;stroke-dasharray:none;stroke-opacity:1"/>
      <path id="path29-2-0" d="m -689.45503,-213.61772 h 493.79346" style="font-variation-settings:&quot;wdth&quot;70,&quot;wght&quot;600;display:inline;fill:none;stroke:#bec3c6;stroke-width:35.571;stroke-linecap:butt;stroke-dasharray:none;stroke-opacity:1"/>
      <path id="path29-2-0-2" d="m -831.30802,127.86431 h 635.64645" style="font-variation-settings:&quot;wdth&quot;70,&quot;wght&quot;600;display:inline;fill:none;stroke:#bec3c6;stroke-width:35.571;stroke-linecap:butt;stroke-dasharray:none;stroke-opacity:1"/>
      <path id="path29-2-0-2-7" d="M -67.605781,127.86431 H 569.74824" style="font-variation-settings:&quot;wdth&quot;70,&quot;wght&quot;600;display:inline;fill:none;stroke:#bec3c6;stroke-width:35.571;stroke-linecap:butt;stroke-dasharray:none;stroke-opacity:1"/>
      <path id="path29-2-0-2-7-2" d="M 849.11091,127.86431 H 1190.2891" style="font-variation-settings:&quot;wdth&quot;70,&quot;wght&quot;600;display:inline;fill:none;stroke:#bec3c6;stroke-width:35.571;stroke-linecap:butt;stroke-dasharray:none;stroke-opacity:1"/>
      <path id="path29-2-0-2-7-6" d="M 551.96274,-212.3169 V 127.86431" style="font-variation-settings:&quot;wdth&quot;70,&quot;wght&quot;600;display:inline;fill:none;stroke:#bec3c6;stroke-width:35.571;stroke-linecap:butt;stroke-dasharray:none;stroke-opacity:1"/>
      <path id="path29-2-0-2-7-6-1" d="M 866.89641,-212.3169 V 127.86431" style="font-variation-settings:&quot;wdth&quot;70,&quot;wght&quot;600;display:inline;fill:none;stroke:#bec3c6;stroke-width:35.571;stroke-linecap:butt;stroke-dasharray:none;stroke-opacity:1"/>
      <path id="path29-2-0-0" d="m -831.30802,-213.61772 h 40.22142" style="font-variation-settings:&quot;wdth&quot;70,&quot;wght&quot;600;display:inline;fill:none;stroke:#bec3c6;stroke-width:35.571;stroke-linecap:butt;stroke-dasharray:none;stroke-opacity:1"/>
      <path id="path29-4" d="m 872.64925,-1050.3324 v 509.43023" style="font-variation-settings:&quot;wdth&quot;70,&quot;wght&quot;600;display:inline;fill:none;stroke:#bec3c6;stroke-width:35.571;stroke-linecap:butt;stroke-dasharray:none;stroke-opacity:1"/>
      <path id="path29-4-8" d="m 405.75625,-1068.3392 v 527.43703" style="font-variation-settings:&quot;wdth&quot;70,&quot;wght&quot;600;display:inline;fill:none;stroke:#bec3c6;stroke-width:10.1632;stroke-linecap:butt;stroke-dasharray:none;stroke-opacity:1"/>
      <rect id="rect35" width="320.96899" height="37.371098" x="-664.37823" y="-63.711403" style="font-variation-settings:&quot;wdth&quot;70,&quot;wght&quot;600;display:inline;opacity:1;fill:none;fill-opacity:1;stroke:#bec3c6;stroke-width:15.2447;stroke-dasharray:none;stroke-opacity:1"/>
      <path id="path8" d="M 586.85446,-1068.3392 H 224.65804" style="fill:none;stroke:#bec3c6;stroke-width:45.7342;stroke-dasharray:none;stroke-opacity:1"/>
      <path id="path8-5" d="M 903.19159,-1068.3392 H 842.1069" style="display:inline;fill:none;stroke:#bec3c6;stroke-width:45.7342;stroke-dasharray:none;stroke-opacity:1"/>
      <path id="path16" d="M -31.788129,-1068.3392 H -558.48626 v 183.44499 h -272.82176 v 346.50729" style="display:inline;fill:none;stroke:#bec3c6;stroke-width:45.7342;stroke-dasharray:none;stroke-opacity:1"/>
      <path id="path17" d="M -831.30802,-231.40322 V 336.71726" style="display:inline;fill:none;stroke:#bec3c6;stroke-width:45.7342;stroke-dasharray:none;stroke-opacity:1"/>
      <path id="path18" d="m -60.132809,-1068.3392 -0.718647,527.43703 H 80.798129" style="fill:none;stroke:#bec3c6;stroke-width:35.571;stroke-dasharray:none;stroke-opacity:1"/>
      <path id="path19-1" d="m -240.37944,-1068.3392 v 308.45177 h 44.71787 -95.07129" style="display:inline;fill:none;stroke:#bec3c6;stroke-width:10.1632;stroke-dasharray:none;stroke-opacity:1"/>
      <path id="path19" d="M -392.36443,-759.88743 H -545.43555" style="fill:none;stroke:#bec3c6;stroke-width:10.1632;stroke-dasharray:none;stroke-opacity:1"/>
      <path id="path19-8" d="M -60.553083,-759.88743 H -94.03" style="display:inline;fill:none;stroke:#bec3c6;stroke-width:10.1632;stroke-dasharray:none;stroke-opacity:1"/>
      <path id="path19-8-2" d="M 604.00935,-207.2353 H 551.96274" style="display:inline;fill:none;stroke:#bec3c6;stroke-width:10.1632;stroke-dasharray:none;stroke-opacity:1"/>
      <path id="path19-8-2-5" d="M 866.89641,-207.2353 H 807.27228" style="display:inline;fill:none;stroke:#bec3c6;stroke-width:10.1632;stroke-dasharray:none;stroke-opacity:1"/>
      <path id="path19-8-2-9" d="M 604.00935,140.56821 H 551.96274" style="display:inline;fill:none;stroke:#bec3c6;stroke-width:10.1632;stroke-dasharray:none;stroke-opacity:1"/>
      <path id="path19-8-2-5-9" d="M 866.89641,140.56821 H 807.27228" style="display:inline;fill:none;stroke:#bec3c6;stroke-width:10.1632;stroke-dasharray:none;stroke-opacity:1"/>
      <path id="path27" d="m -94.029998,-213.61772 h 26.424217 v 341.48203 h -26.424217" style="fill:none;stroke:#bec3c6;stroke-width:35.571;stroke-dasharray:none;stroke-opacity:1"/>
      <path id="path25" d="m 1190.2891,-98.829251 10e-5,-285.290889 v 55.15062 h 255.3991 v 567.61231" style="fill:none;stroke:#bec3c6;stroke-width:35.571"/>
      <path id="path31" d="m 1445.6883,340.27436 v 69.76611" style="fill:none;stroke:#bec3c6;stroke-width:35.571"/>
      <path id="path33" d="M 1570.6951,-772.08297 V -1068.3392" style="display:inline;fill:none;stroke:#bec3c6;stroke-width:35.571"/>
      <path id="path2" d="M 1989.2157,22.5 H 3727.5 V 1477.4013 H 2011.701 v -400.9558" style="fill:none;stroke:#bec3c6;stroke-width:45;stroke-dasharray:none;stroke-opacity:1" transform="matrix(1.0163157,0,0,1.0163157,-854.23413,-1091.2063)"/>
      <path id="path23" d="M 296.00233,366.28575 V 200.92154" style="fill:none;stroke:#bec3c6;stroke-width:35;stroke-dasharray:none;stroke-opacity:1" transform="matrix(1.0163157,0,0,1.0163157,-854.23413,-1091.2063)"/>
      <path id="path23-6" d="M 22.558057,526.44458 H 142.55134" style="fill:none;stroke:#bec3c6;stroke-width:35;stroke-dasharray:none;stroke-opacity:1" transform="matrix(1.0163157,0,0,1.0163157,-854.23413,-1091.2063)"/>
      <path id="path24" d="m 296.00233,466.28575 v 60.15883 h -53.45099" style="fill:none;stroke:#bec3c6;stroke-width:35;stroke-dasharray:none;stroke-opacity:1" transform="matrix(1.0163157,0,0,1.0163157,-854.23413,-1091.2063)"/>
      <path id="path32" d="M 1873.0824,541.46971 H 2386 V 414" style="fill:none;stroke:#bec3c6;stroke-width:35" transform="matrix(1.0163157,0,0,1.0163157,-854.23413,-1091.2063)"/>
      <path id="path35" d="M 1086.3206,22.500024 909.24265,22.47618" style="fill:none;stroke:#bec3c6;stroke-width:10;stroke-dasharray:none" transform="matrix(1.0163157,0,0,1.0163157,-854.23413,-1091.2063)"/>
      <path id="path36" d="m 1517.5017,22.5 h 181.6587" style="fill:none;stroke:#bec3c6;stroke-width:10;stroke-dasharray:none" transform="matrix(1.0163157,0,0,1.0163157,-854.23413,-1091.2063)"/>
      <path id="path37" d="m 1829.2124,22.5 h 180.7533" style="fill:none;stroke:#bec3c6;stroke-width:10;stroke-dasharray:none" transform="matrix(1.0163157,0,0,1.0163157,-854.23413,-1091.2063)"/>
      <path id="path39" d="M 2386,309.38066 2649.8826,207.88939 V 144.99855" style="fill:none;stroke:#bec3c6;stroke-width:10;stroke-dasharray:none" transform="matrix(1.0163157,0,0,1.0163157,-854.23413,-1091.2063)"/>
      <path id="path40" d="M 2649.8826,179.42834 H 3314" style="fill:none;stroke:#bec3c6;stroke-width:35;stroke-dasharray:none" transform="matrix(1.0163157,0,0,1.0163157,-854.23413,-1091.2063)"/>
      <path id="path41" d="m 3314,144.99855 v 62.89084 l 263.8826,101.49127 V 22.5 565.33187 H 3727.5" style="fill:none;stroke:#bec3c6;stroke-width:10;stroke-dasharray:none" transform="matrix(1.0163157,0,0,1.0163157,-854.23413,-1091.2063)"/>
      <path id="path46" d="m 1190.2893,-485.75151 v -55.15063" style="fill:none;fill-opacity:1;stroke:#bec3c6;stroke-width:35.571;stroke-dasharray:none;stroke-opacity:1"/>
    </g>
    <g id="icons_0" style="display:inline" transform="matrix(0.02439371,0,0,0.02439371,-0.02443957,244.19953)">
      <g id="g264" transform="translate(-3111.2139,-1695.5395)">
        <rect id="rect263" width="95.212135" height="95.212151" x="2405.0667" y="979.80487" ry="9.1410179" style="font-variation-settings:&quot;wdth&quot;70,&quot;wght&quot;600;fill:none;fill-opacity:1;stroke:#d6d7de;stroke-width:4.78791;stroke-linejoin:miter;stroke-dasharray:none;stroke-opacity:1"/>
        <path id="path264" d="m 2427.7505,1062.6135 h 12.6169 v -23.8318 h 6.2306 v -17.757 c 0,-2.6337 -0.8992,-4.8497 -2.6976,-6.6481 -1.7985,-1.7985 -4.0665,-2.6977 -6.804,-2.6977 h -6.2306 c -2.7375,0 -4.9794,0.8992 -6.7258,2.6977 -1.7466,1.7984 -2.6199,4.0144 -2.6199,6.6481 v 17.757 h 6.2304 z m 6.1958,-54.9845 c 2.1478,0 3.9626,-0.7033 5.4445,-2.1098 1.4819,-1.4064 2.2228,-3.2356 2.2228,-5.4875 0,-2.148 -0.7292,-3.93697 -2.1877,-5.3669 -1.4583,-1.42987 -3.2615,-2.1448 -5.4096,-2.1448 -2.1481,0 -3.937,0.70327 -5.3669,2.1098 -1.4299,1.4064 -2.1449,3.18367 -2.1449,5.3318 0,2.2518 0.7033,4.0926 2.11,5.5225 1.4064,1.4299 3.1837,2.1449 5.3318,2.1449 z m 28.3838,9.9689 h 20.0934 l -9.9688,-16.1994 z m 10.1246,35.6697 9.9688,-16.1993 h -20.0934 z" style="fill:#d5d6dd;fill-opacity:1;stroke-width:0;stroke-dasharray:none"/>
      </g>
    </g>
    <g id="g28" style="display:inline;opacity:1" transform="matrix(0.02439371,0,0,0.02439371,-0.02443967,255.98706)">
      <text xml:space="preserve" id="text2" x="1222.7455" y="-1340.9828" style="font-style:normal;font-variant:normal;font-weight:700;font-stretch:normal;font-size:162.611px;font-family:&quot;Source Sans 3&quot;;-inkscape-font-specification:&quot;Source Sans 3, Bold&quot;;font-variant-ligatures:normal;font-variant-caps:normal;font-variant-numeric:normal;font-variant-east-asian:normal;text-align:start;writing-mode:lr-tb;direction:ltr;text-anchor:start;fill:#bec3c6;fill-opacity:1;stroke-width:0"><tspan id="tspan1" x="1222.7455" y="-1340.9828" style="font-style:normal;font-variant:normal;font-weight:700;font-stretch:normal;font-size:162.611px;font-family:&quot;Source Sans 3&quot;;-inkscape-font-specification:&quot;Source Sans 3, Bold&quot;;font-variant-ligatures:normal;font-variant-caps:normal;font-variant-numeric:normal;font-variant-east-asian:normal;text-align:center;text-anchor:middle;fill:#bec3c6;fill-opacity:1;stroke-width:0">FE</tspan><tspan id="tspan2" x="1222.7455" y="-1137.719" style="font-style:normal;font-variant:normal;font-weight:700;font-stretch:normal;font-size:162.611px;font-family:&quot;Source Sans 3&quot;;-inkscape-font-specification:&quot;Source Sans 3, Bold&quot;;font-variant-ligatures:normal;font-variant-caps:normal;font-variant-numeric:normal;font-variant-east-asian:normal;text-align:center;text-anchor:middle;fill:#bec3c6;fill-opacity:1;stroke-width:0">005</tspan></text>
      <text xml:space="preserve" id="text4" x="2172.7737" y="-853.69043" style="font-style:normal;font-variant:normal;font-weight:700;font-stretch:normal;font-size:406.526px;font-family:&quot;Source Sans 3&quot;;-inkscape-font-specification:&quot;Source Sans 3, Bold&quot;;font-variant-ligatures:normal;font-variant-caps:normal;font-variant-numeric:normal;font-variant-east-asian:normal;text-align:start;writing-mode:lr-tb;direction:ltr;text-anchor:start;display:inline;fill:#bec3c6;fill-opacity:1;stroke-width:0"><tspan id="tspan3" x="2172.7737" y="-853.69043" style="font-style:normal;font-variant:normal;font-weight:700;font-stretch:normal;font-size:406.526px;font-family:&quot;Source Sans 3&quot;;-inkscape-font-specification:&quot;Source Sans 3, Bold&quot;;font-variant-ligatures:normal;font-variant-caps:normal;font-variant-numeric:normal;font-variant-east-asian:normal;text-align:center;text-anchor:middle;fill:#bec3c6;fill-opacity:1;stroke-width:0">FE</tspan><tspan id="tspan4" x="2172.7737" y="-345.53293" style="font-style:normal;font-variant:normal;font-weight:700;font-stretch:normal;font-size:406.526px;font-family:&quot;Source Sans 3&quot;;-inkscape-font-specification:&quot;Source Sans 3, Bold&quot;;font-variant-ligatures:normal;font-variant-caps:normal;font-variant-numeric:normal;font-variant-east-asian:normal;text-align:center;text-anchor:middle;fill:#bec3c6;fill-opacity:1;stroke-width:0">006</tspan></text>
      <text xml:space="preserve" id="text6" x="640.09717" y="-1340.9827" style="font-style:normal;font-variant:normal;font-weight:700;font-stretch:normal;font-size:162.611px;font-family:&quot;Source Sans 3&quot;;-inkscape-font-specification:&quot;Source Sans 3, Bold&quot;;font-variant-ligatures:normal;font-variant-caps:normal;font-variant-numeric:normal;font-variant-east-asian:normal;text-align:start;writing-mode:lr-tb;direction:ltr;text-anchor:start;display:inline;fill:#bec3c6;fill-opacity:1;stroke-width:0"><tspan id="tspan5" x="640.09717" y="-1340.9827" style="font-style:normal;font-variant:normal;font-weight:700;font-stretch:normal;font-size:162.611px;font-family:&quot;Source Sans 3&quot;;-inkscape-font-specification:&quot;Source Sans 3, Bold&quot;;font-variant-ligatures:normal;font-variant-caps:normal;font-variant-numeric:normal;font-variant-east-asian:normal;text-align:center;text-anchor:middle;fill:#bec3c6;fill-opacity:1;stroke-width:0">FE</tspan><tspan id="tspan6" x="640.09717" y="-1137.7189" style="font-style:normal;font-variant:normal;font-weight:700;font-stretch:normal;font-size:162.611px;font-family:&quot;Source Sans 3&quot;;-inkscape-font-specification:&quot;Source Sans 3, Bold&quot;;font-variant-ligatures:normal;font-variant-caps:normal;font-variant-numeric:normal;font-variant-east-asian:normal;text-align:center;text-anchor:middle;fill:#bec3c6;fill-opacity:1;stroke-width:0">004</tspan></text>
      <text xml:space="preserve" id="text8" x="173.3959" y="-1340.9827" style="font-style:normal;font-variant:normal;font-weight:700;font-stretch:normal;font-size:162.611px;font-family:&quot;Source Sans 3&quot;;-inkscape-font-specification:&quot;Source Sans 3, Bold&quot;;font-variant-ligatures:normal;font-variant-caps:normal;font-variant-numeric:normal;font-variant-east-asian:normal;text-align:start;writing-mode:lr-tb;direction:ltr;text-anchor:start;display:inline;fill:#bec3c6;fill-opacity:1;stroke-width:0"><tspan id="tspan7" x="173.3959" y="-1340.9827" style="font-style:normal;font-variant:normal;font-weight:700;font-stretch:normal;font-size:162.611px;font-family:&quot;Source Sans 3&quot;;-inkscape-font-specification:&quot;Source Sans 3, Bold&quot;;font-variant-ligatures:normal;font-variant-caps:normal;font-variant-numeric:normal;font-variant-east-asian:normal;text-align:center;text-anchor:middle;fill:#bec3c6;fill-opacity:1;stroke-width:0">FE</tspan><tspan id="tspan8" x="173.3959" y="-1137.7189" style="font-style:normal;font-variant:normal;font-weight:700;font-stretch:normal;font-size:162.611px;font-family:&quot;Source Sans 3&quot;;-inkscape-font-specification:&quot;Source Sans 3, Bold&quot;;font-variant-ligatures:normal;font-variant-caps:normal;font-variant-numeric:normal;font-variant-east-asian:normal;text-align:center;text-anchor:middle;fill:#bec3c6;fill-opacity:1;stroke-width:0">003</tspan></text>
      <text xml:space="preserve" id="text24" x="-390.76575" y="-1418.9606" style="font-style:normal;font-variant:normal;font-weight:700;font-stretch:normal;font-size:97.5663px;font-family:&quot;Source Sans 3&quot;;-inkscape-font-specification:&quot;Source Sans 3, Bold&quot;;font-variant-ligatures:normal;font-variant-caps:normal;font-variant-numeric:normal;font-variant-east-asian:normal;text-align:start;writing-mode:lr-tb;direction:ltr;text-anchor:start;display:inline;fill:#bec3c6;fill-opacity:1;stroke-width:0"><tspan id="tspan23" x="-390.76575" y="-1418.9606" style="font-style:normal;font-variant:normal;font-weight:700;font-stretch:normal;font-size:97.5663px;font-family:&quot;Source Sans 3&quot;;-inkscape-font-specification:&quot;Source Sans 3, Bold&quot;;font-variant-ligatures:normal;font-variant-caps:normal;font-variant-numeric:normal;font-variant-east-asian:normal;text-align:center;text-anchor:middle;fill:#bec3c6;fill-opacity:1;stroke-width:0">FE</tspan><tspan id="tspan24" x="-390.76575" y="-1297.0027" style="font-style:normal;font-variant:normal;font-weight:700;font-stretch:normal;font-size:97.5663px;font-family:&quot;Source Sans 3&quot;;-inkscape-font-specification:&quot;Source Sans 3, Bold&quot;;font-variant-ligatures:normal;font-variant-caps:normal;font-variant-numeric:normal;font-variant-east-asian:normal;text-align:center;text-anchor:middle;fill:#bec3c6;fill-opacity:1;stroke-width:0">001</tspan></text>
      <text xml:space="preserve" id="text26" x="-159.38106" y="-1411.2141" style="font-style:normal;font-variant:normal;font-weight:700;font-stretch:normal;font-size:65.0442px;font-family:&quot;Source Sans 3&quot;;-inkscape-font-specification:&quot;Source Sans 3, Bold&quot;;font-variant-ligatures:normal;font-variant-caps:normal;font-variant-numeric:normal;font-variant-east-asian:normal;text-align:start;writing-mode:lr-tb;direction:ltr;text-anchor:start;display:inline;fill:#bec3c6;fill-opacity:1;stroke-width:0"><tspan id="tspan25" x="-159.38106" y="-1411.2141" style="font-style:normal;font-variant:normal;font-weight:700;font-stretch:normal;font-size:65.0442px;font-family:&quot;Source Sans 3&quot;;-inkscape-font-specification:&quot;Source Sans 3, Bold&quot;;font-variant-ligatures:normal;font-variant-caps:normal;font-variant-numeric:normal;font-variant-east-asian:normal;text-align:center;text-anchor:middle;fill:#bec3c6;fill-opacity:1;stroke-width:0">FE</tspan><tspan id="tspan26" x="-159.38106" y="-1329.9088" style="font-style:normal;font-variant:normal;font-weight:700;font-stretch:normal;font-size:65.0442px;font-family:&quot;Source Sans 3&quot;;-inkscape-font-specification:&quot;Source Sans 3, Bold&quot;;font-variant-ligatures:normal;font-variant-caps:normal;font-variant-numeric:normal;font-variant-east-asian:normal;text-align:center;text-anchor:middle;fill:#bec3c6;fill-opacity:1;stroke-width:0">002</tspan></text>
      <text xml:space="preserve" id="text28" x="1321.0051" y="-462.52304" style="font-style:normal;font-variant:normal;font-weight:700;font-stretch:normal;font-size:65.0442px;font-family:&quot;Source Sans 3&quot;;-inkscape-font-specification:&quot;Source Sans 3, Bold&quot;;font-variant-ligatures:normal;font-variant-caps:normal;font-variant-numeric:normal;font-variant-east-asian:normal;text-align:start;writing-mode:lr-tb;direction:ltr;text-anchor:start;display:inline;fill:#bec3c6;fill-opacity:1;stroke-width:0"><tspan id="tspan27" x="1321.0051" y="-462.52304" style="font-style:normal;font-variant:normal;font-weight:700;font-stretch:normal;font-size:65.0442px;font-family:&quot;Source Sans 3&quot;;-inkscape-font-specification:&quot;Source Sans 3, Bold&quot;;font-variant-ligatures:normal;font-variant-caps:normal;font-variant-numeric:normal;font-variant-east-asian:normal;text-align:center;text-anchor:middle;fill:#bec3c6;fill-opacity:1;stroke-width:0">FE</tspan><tspan id="tspan28" x="1321.0051" y="-381.2178" style="font-style:normal;font-variant:normal;font-weight:700;font-stretch:normal;font-size:65.0442px;font-family:&quot;Source Sans 3&quot;;-inkscape-font-specification:&quot;Source Sans 3, Bold&quot;;font-variant-ligatures:normal;font-variant-caps:normal;font-variant-numeric:normal;font-variant-east-asian:normal;text-align:center;text-anchor:middle;fill:#bec3c6;fill-opacity:1;stroke-width:0">007</tspan></text>
    </g>
    <path id="path30" d="m 1286.6618,-380.43726 q -6.6345,0 -10.7323,-5.52876 -4.0327,-5.52876 -4.0327,-16.06592 0,-10.6022 4.0327,-15.93583 4.0978,-5.33362 10.7323,-5.33362 6.6345,0 10.6673,5.39867 4.0977,5.33362 4.0977,15.87078 0,10.53716 -4.0977,16.06592 -4.0328,5.52876 -10.6673,5.52876 z m 0,-7.41504 q 1.6261,0 2.927,-1.1708 1.3009,-1.23584 2.0164,-4.29292 0.7805,-3.12212 0.7805,-8.71592 0,-5.65884 -0.7805,-8.65088 -0.7155,-2.99203 -2.0164,-4.09778 -1.3009,-1.10575 -2.927,-1.10575 -1.6261,0 -2.927,1.10575 -1.3009,1.10575 -2.0814,4.09778 -0.7155,2.99204 -0.7155,8.65088 0,5.5938 0.7155,8.71592 0.7805,3.05708 2.0814,4.29292 1.3009,1.1708 2.927,1.1708 z m 34.3433,7.41504 q -6.6345,0 -10.7323,-5.52876 -4.0327,-5.52876 -4.0327,-16.06592 0,-10.6022 4.0327,-15.93583 4.0978,-5.33362 10.7323,-5.33362 6.6345,0 10.6673,5.39867 4.0978,5.33362 4.0978,15.87078 0,10.53716 -4.0978,16.06592 -4.0328,5.52876 -10.6673,5.52876 z m 0,-7.41504 q 1.6261,0 2.927,-1.1708 1.3009,-1.23584 2.0164,-4.29292 0.7805,-3.12212 0.7805,-8.71592 0,-5.65884 -0.7805,-8.65088 -0.7155,-2.99203 -2.0164,-4.09778 -1.3009,-1.10575 -2.927,-1.10575 -1.6261,0 -2.927,1.10575 -1.3008,1.10575 -2.0814,4.09778 -0.7155,2.99204 -0.7155,8.65088 0,5.5938 0.7155,8.71592 0.7806,3.05708 2.0814,4.29292 1.3009,1.1708 2.927,1.1708 z m 26.9283,6.63451 q 0.3252,-5.1385 1.0407,-9.43141 0.7155,-4.35796 2.0164,-8.26062 1.3659,-3.90265 3.4473,-7.67521 2.0815,-3.77256 5.1385,-7.87035 h -18.5376 v -8.06548 h 28.7496 v 5.85398 q -3.6425,4.423 -5.9841,8.26061 -2.2765,3.83761 -3.5124,7.8053 -1.2358,3.9677 -1.8212,8.65088 -0.5854,4.68319 -0.9106,10.7323 z m -56.7836,-81.30525 v -42.40882 h 26.7332 v 8.06548 h -17.1717 v 9.82168 h 14.7 v 8.06548 h -14.7 v 16.45618 z m 34.0832,0 v -42.40882 h 26.538 v 8.06548 h -16.9765 v 8.52079 h 14.4398 v 8.00044 h -14.4398 v 9.75663 h 17.627 v 8.06548 z M -193.72438,-1329.1283 q -6.63451,0 -10.73229,-5.5288 -4.03274,-5.5287 -4.03274,-16.0659 0,-10.6022 4.03274,-15.9358 4.09778,-5.3337 10.73229,-5.3337 6.63451,0 10.66725,5.3987 4.09778,5.3336 4.09778,15.8708 0,10.5372 -4.09778,16.0659 -4.03274,5.5288 -10.66725,5.5288 z m 0,-7.4151 q 1.6261,0 2.92699,-1.1708 1.30088,-1.2358 2.01637,-4.2929 0.78053,-3.1221 0.78053,-8.7159 0,-5.6589 -0.78053,-8.6509 -0.71549,-2.992 -2.01637,-4.0978 -1.30089,-1.1057 -2.92699,-1.1057 -1.62611,0 -2.92699,1.1057 -1.30088,1.1058 -2.08142,4.0978 -0.71548,2.992 -0.71548,8.6509 0,5.5938 0.71548,8.7159 0.78054,3.0571 2.08142,4.2929 1.30088,1.1708 2.92699,1.1708 z m 34.34332,7.4151 q -6.6345,0 -10.73229,-5.5288 -4.03274,-5.5287 -4.03274,-16.0659 0,-10.6022 4.03274,-15.9358 4.09779,-5.3337 10.73229,-5.3337 6.63451,0 10.66725,5.3987 4.09779,5.3336 4.09779,15.8708 0,10.5372 -4.09779,16.0659 -4.03274,5.5288 -10.66725,5.5288 z m 0,-7.4151 q 1.62611,0 2.92699,-1.1708 1.30089,-1.2358 2.01637,-4.2929 0.78053,-3.1221 0.78053,-8.7159 0,-5.6589 -0.78053,-8.6509 -0.71548,-2.992 -2.01637,-4.0978 -1.30088,-1.1057 -2.92699,-1.1057 -1.6261,0 -2.92698,1.1057 -1.30089,1.1058 -2.08142,4.0978 -0.71548,2.992 -0.71548,8.6509 0,5.5938 0.71548,8.7159 0.78053,3.0571 2.08142,4.2929 1.30088,1.1708 2.92698,1.1708 z m 19.5783,6.6345 v -5.919 q 5.20353,-4.6181 9.23627,-8.6509 4.09779,-4.0327 6.37434,-7.48 2.34159,-3.4474 2.34159,-6.3093 0,-3.0571 -1.56106,-4.6182 -1.56106,-1.6261 -4.29292,-1.6261 -2.2115,0 -4.03274,1.3009 -1.75619,1.2358 -3.31726,2.927 l -5.0084,-4.9434 q 2.99203,-3.3823 6.11416,-5.0734 3.18716,-1.6912 7.54512,-1.6912 4.03274,0 7.08982,1.6261 3.12212,1.6261 4.81327,4.5531 1.75619,2.927 1.75619,6.8947 0,3.7075 -2.01637,7.285 -1.95132,3.5124 -5.20353,7.0247 -3.25221,3.5124 -6.89469,7.1549 1.56106,-0.1951 3.51239,-0.3252 1.95133,-0.1951 3.3823,-0.1951 h 9.23627 v 8.0654 z m -49.4336,-81.3052 v -42.4088 h 26.73316 v 8.0655 h -17.17166 v 9.8216 h 14.69998 v 8.0655 h -14.69998 v 16.4562 z m 34.08317,0 v -42.4088 h 26.53803 v 8.0655 h -16.97653 v 8.5207 h 14.43981 v 8.0005 h -14.43981 v 9.7566 h 17.62698 v 8.0655 z m -287.12755,115.3822 q -9.95176,0 -16.09843,-8.2931 -6.04912,-8.2932 -6.04912,-24.0989 0,-15.9033 6.04912,-23.9038 6.14667,-8.0004 16.09843,-8.0004 9.95177,0 16.00088,8.098 6.14667,8.0004 6.14667,23.8062 0,15.8057 -6.14667,24.0989 -6.04911,8.2931 -16.00088,8.2931 z m 0,-11.1226 q 2.43916,0 4.39049,-1.7562 1.95132,-1.8537 3.02455,-6.4393 1.1708,-4.6832 1.1708,-13.0739 0,-8.4883 -1.1708,-12.9763 -1.07323,-4.4881 -3.02455,-6.1467 -1.95133,-1.6586 -4.39049,-1.6586 -2.43915,0 -4.39048,1.6586 -1.95132,1.6586 -3.12212,6.1467 -1.07323,4.488 -1.07323,12.9763 0,8.3907 1.07323,13.0739 1.1708,4.5856 3.12212,6.4393 1.95133,1.7562 4.39048,1.7562 z m 51.515,11.1226 q -9.95176,0 -16.09844,-8.2931 -6.04911,-8.2932 -6.04911,-24.0989 0,-15.9033 6.04911,-23.9038 6.14668,-8.0004 16.09844,-8.0004 9.95176,0 16.00087,8.098 6.14668,8.0004 6.14668,23.8062 0,15.8057 -6.14668,24.0989 -6.04911,8.2931 -16.00087,8.2931 z m 0,-11.1226 q 2.43916,0 4.39048,-1.7562 1.95133,-1.8537 3.02456,-6.4393 1.17079,-4.6832 1.17079,-13.0739 0,-8.4883 -1.17079,-12.9763 -1.07323,-4.4881 -3.02456,-6.1467 -1.95132,-1.6586 -4.39048,-1.6586 -2.43916,0 -4.39048,1.6586 -1.95133,1.6586 -3.12212,6.1467 -1.07323,4.488 -1.07323,12.9763 0,8.3907 1.07323,13.0739 1.17079,4.5856 3.12212,6.4393 1.95132,1.7562 4.39048,1.7562 z m 32.58713,9.9518 v -11.6104 h 13.46415 v -35.8068 h -11.61039 v -8.8786 q 5.07345,-0.9756 8.58584,-2.3415 3.60995,-1.366 6.82964,-3.3173 h 10.53716 v 50.3442 h 11.61039 v 11.6104 z m -77.37009,-121.9579 v -63.6132 h 40.09975 v 12.0982 h -25.75751 v 14.7325 h 22.04999 v 12.0983 h -22.04999 v 24.6842 z m 51.12475,0 v -63.6132 h 39.80705 v 12.0982 h -25.4648 v 12.7812 h 21.65972 v 12.0007 h -21.65972 v 14.6349 h 26.44047 v 12.0982 z m 471.96128,283.193 q -16.586321,0 -26.830813,-13.8219 -10.081882,-13.822 -10.081882,-40.1649 0,-26.5056 10.081882,-39.8397 10.244492,-13.3341 26.830813,-13.3341 16.58632,0 26.6682,13.4967 10.2445,13.3341 10.2445,39.6771 0,26.3429 -10.2445,40.1649 -10.08188,13.8219 -26.6682,13.8219 z m 0,-18.5376 q 4.065275,0 7.317495,-2.927 3.25222,-3.0897 5.040941,-10.7324 1.951334,-7.8053 1.951334,-21.7898 0,-14.1472 -1.951334,-21.6273 -1.788721,-7.4801 -5.040941,-10.2445 -3.25222,-2.7644 -7.317495,-2.7644 -4.065274,0 -7.317494,2.7644 -3.25222,2.7644 -5.203552,10.2445 -1.788721,7.4801 -1.788721,21.6273 0,13.9845 1.788721,21.7898 1.951332,7.6427 5.203552,10.7324 3.25222,2.927 7.317494,2.927 z m 85.85858,18.5376 q -16.58632,0 -26.83081,-13.8219 -10.08188,-13.822 -10.08188,-40.1649 0,-26.5056 10.08188,-39.8397 10.24449,-13.3341 26.83081,-13.3341 16.58632,0 26.6682,13.4967 10.2445,13.3341 10.2445,39.6771 0,26.3429 -10.2445,40.1649 -10.08188,13.8219 -26.6682,13.8219 z m 0,-18.5376 q 4.06528,0 7.3175,-2.927 3.25222,-3.0897 5.04094,-10.7324 1.95133,-7.8053 1.95133,-21.7898 0,-14.1472 -1.95133,-21.6273 -1.78872,-7.4801 -5.04094,-10.2445 -3.25222,-2.7644 -7.3175,-2.7644 -4.06527,0 -7.31749,2.7644 -3.25222,2.7644 -5.20355,10.2445 -1.78873,7.4801 -1.78873,21.6273 0,13.9845 1.78873,21.7898 1.95133,7.6427 5.20355,10.7324 3.25222,2.927 7.31749,2.927 z m 82.44375,18.5376 q -8.29316,0 -15.12282,-1.9513 -6.66705,-1.7887 -11.8706,-5.041 -5.20355,-3.2522 -8.94361,-7.6427 l 11.05755,-15.1228 q 4.71572,4.5531 10.4071,7.4801 5.69139,2.927 12.19583,2.927 7.4801,0 12.03321,-3.0896 4.71572,-3.2522 4.71572,-9.1062 0,-4.5531 -2.27655,-7.8054 -2.27656,-3.4148 -8.29316,-5.2035 -5.854,-1.7887 -17.23677,-1.7887 v -16.9116 q 9.26883,0 14.63499,-1.7887 5.36616,-1.7887 7.48011,-4.8783 2.27655,-3.0896 2.27655,-7.1549 0,-5.5288 -3.41483,-8.4558 -3.25222,-2.927 -9.26883,-2.927 -5.52877,0 -10.08188,2.4392 -4.3905,2.2765 -9.26883,6.667 l -12.03321,-14.6349 q 7.15488,-6.1793 15.12282,-9.5941 7.96794,-3.5774 17.39938,-3.5774 10.56971,0 18.53765,3.4148 8.13055,3.2522 12.52105,9.594 4.55311,6.1793 4.55311,15.2855 0,7.9679 -4.55311,13.6593 -4.3905,5.6914 -12.68366,9.2688 v 0.6505 q 5.854,1.7887 10.56972,5.2035 4.71572,3.2522 7.31749,8.2932 2.60178,5.0409 2.60178,11.708 0,9.594 -5.36617,16.4237 -5.20355,6.667 -13.98454,10.2445 -8.61838,3.4148 -19.02549,3.4148 z M 98.757418,-1340.9827 v -106.0223 h 66.833122 v 20.1637 h -42.92931 v 24.5543 h 36.75009 v 20.1638 h -36.75009 v 41.1405 z m 85.208192,0 v -106.0223 h 66.34528 v 20.1637 h -42.44147 v 21.3021 h 36.09965 v 20.0011 h -36.09965 v 24.3917 H 251.937 v 20.1637 z m 370.27298,205.2151 q -16.58632,0 -26.83081,-13.8219 -10.08188,-13.822 -10.08188,-40.1649 0,-26.5056 10.08188,-39.8397 10.24449,-13.3341 26.83081,-13.3341 16.58632,0 26.66821,13.4967 10.24449,13.3341 10.24449,39.6771 0,26.3429 -10.24449,40.1649 -10.08189,13.8219 -26.66821,13.8219 z m 0,-18.5376 q 4.06528,0 7.3175,-2.927 3.25222,-3.0897 5.04094,-10.7324 1.95133,-7.8053 1.95133,-21.7898 0,-14.1472 -1.95133,-21.6273 -1.78872,-7.4801 -5.04094,-10.2445 -3.25222,-2.7644 -7.3175,-2.7644 -4.06527,0 -7.31749,2.7644 -3.25222,2.7644 -5.20355,10.2445 -1.78872,7.4801 -1.78872,21.6273 0,13.9845 1.78872,21.7898 1.95133,7.6427 5.20355,10.7324 3.25222,2.927 7.31749,2.927 z m 85.85859,18.5376 q -16.58633,0 -26.83082,-13.8219 -10.08188,-13.822 -10.08188,-40.1649 0,-26.5056 10.08188,-39.8397 10.24449,-13.3341 26.83082,-13.3341 16.58632,0 26.6682,13.4967 10.24449,13.3341 10.24449,39.6771 0,26.3429 -10.24449,40.1649 -10.08188,13.8219 -26.6682,13.8219 z m 0,-18.5376 q 4.06527,0 7.31749,-2.927 3.25222,-3.0897 5.04094,-10.7324 1.95133,-7.8053 1.95133,-21.7898 0,-14.1472 -1.95133,-21.6273 -1.78872,-7.4801 -5.04094,-10.2445 -3.25222,-2.7644 -7.31749,-2.7644 -4.06528,0 -7.3175,2.7644 -3.25222,2.7644 -5.20355,10.2445 -1.78872,7.4801 -1.78872,21.6273 0,13.9845 1.78872,21.7898 1.95133,7.6427 5.20355,10.7324 3.25222,2.927 7.3175,2.927 z m 90.73691,16.5863 v -59.6783 q 0,-4.8783 0.32522,-11.5453 0.48783,-6.6671 0.65044,-11.5454 h -0.65044 q -1.95133,4.2279 -4.06528,8.6184 -2.11394,4.2278 -4.39049,8.781 l -13.65933,22.4403 h 55.93819 v 18.2124 h -78.86634 v -16.4237 l 37.72575,-62.1174 h 29.26998 v 103.258 z m -165.37541,-203.2638 v -106.0223 h 66.83312 v 20.1637 h -42.9293 v 24.5543 h 36.75008 v 20.1638 H 589.3625 v 41.1405 z m 85.20819,0 v -106.0223 h 66.34529 v 20.1637 h -42.44147 v 21.3021 h 36.09964 v 20.0011 h -36.09964 v 24.3917 h 44.06758 v 20.1637 z M 1958.128,-340.65462 q -41.4656,0 -67.0768,-34.55471 -25.2046,-34.55471 -25.2046,-100.41192 0,-66.26374 25.2046,-99.59887 25.6112,-33.33513 67.0768,-33.33513 41.4657,0 66.6703,33.74166 25.6111,33.33513 25.6111,99.19234 0,65.85721 -25.6111,100.41192 -25.2046,34.55471 -66.6703,34.55471 z m 0,-46.34396 q 10.1632,0 18.2937,-7.31747 8.1305,-7.72399 12.6023,-26.83071 4.8783,-19.51325 4.8783,-54.47449 0,-35.36776 -4.8783,-54.06796 -4.4718,-18.70019 -12.6023,-25.61113 -8.1305,-6.91095 -18.2937,-6.91095 -10.1631,0 -18.2936,6.91095 -8.1306,6.91094 -13.0089,25.61113 -4.4718,18.7002 -4.4718,54.06796 0,34.96124 4.4718,54.47449 4.8783,19.10672 13.0089,26.83071 8.1305,7.31747 18.2936,7.31747 z m 214.6457,46.34396 q -41.4656,0 -67.0768,-34.55471 -25.2046,-34.55471 -25.2046,-100.41192 0,-66.26374 25.2046,-99.59887 25.6112,-33.33513 67.0768,-33.33513 41.4657,0 66.6703,33.74166 25.6111,33.33513 25.6111,99.19234 0,65.85721 -25.6111,100.41192 -25.2046,34.55471 -66.6703,34.55471 z m 0,-46.34396 q 10.1632,0 18.2937,-7.31747 8.1305,-7.72399 12.6023,-26.83071 4.8783,-19.51325 4.8783,-54.47449 0,-35.36776 -4.8783,-54.06796 -4.4718,-18.70019 -12.6023,-25.61113 -8.1305,-6.91095 -18.2937,-6.91095 -10.1631,0 -18.2937,6.91095 -8.1305,6.91094 -13.0088,25.61113 -4.4718,18.7002 -4.4718,54.06796 0,34.96124 4.4718,54.47449 4.8783,19.10672 13.0088,26.83071 8.1306,7.31747 18.2937,7.31747 z m 221.5566,46.34396 q -18.7002,0 -36.1808,-7.31746 -17.4806,-7.31747 -31.3025,-22.76546 -13.8219,-15.44799 -21.9524,-39.43302 -8.1305,-24.39156 -8.1305,-58.53975 0,-36.18081 8.537,-62.605 8.5371,-26.42419 23.172,-43.49828 14.6349,-17.0741 33.3351,-25.20462 18.7002,-8.53704 39.4331,-8.53704 25.6111,0 44.3113,9.3501 18.7002,8.94357 30.896,21.54587 l -31.3025,35.77429 q -6.911,-7.31746 -17.8872,-12.6023 -10.9762,-5.69137 -22.3589,-5.69137 -14.6349,0 -27.2372,8.53705 -12.1958,8.53705 -19.5133,28.86335 -6.9109,19.91977 -6.9109,54.06795 0,32.11556 5.6913,50.40923 6.0979,17.88714 15.8545,25.61114 9.7567,7.31746 20.3263,7.31746 8.9436,0 16.2611,-4.47178 7.3175,-4.47179 11.7892,-13.41536 4.4718,-9.3501 4.4718,-23.98503 0,-13.82189 -4.4718,-21.95241 -4.4717,-8.13052 -12.1957,-11.78925 -7.3175,-3.65874 -17.0741,-3.65874 -10.1632,0 -21.1394,6.09789 -10.5697,6.09789 -19.1067,21.54588 l -2.8457,-39.02649 q 10.1632,-15.04147 26.0177,-22.76546 15.8545,-8.13052 28.4568,-8.13052 21.9524,0 39.433,8.53705 17.4806,8.53704 27.2373,26.42419 10.1631,17.48061 10.1631,44.71786 0,26.83071 -11.7892,46.34396 -11.3828,19.51325 -30.896,30.08292 -19.5133,10.16315 -43.0918,10.16315 z m -408.1522,-513.03581 v -265.05497 h 167.0822 v 50.4092 h -107.3228 v 61.3855 h 91.8748 v 50.40919 h -91.8748 v 102.85108 z m 213.0197,0 v -265.05497 h 165.8627 v 50.4092 h -106.1033 v 53.2549 h 90.2487 v 50.00275 h -90.2487 v 60.9789 h 110.1685 v 50.40922 z M 1136.8869,-1135.7677 q -16.5863,0 -26.8308,-13.8219 -10.0819,-13.822 -10.0819,-40.165 0,-26.5056 10.0819,-39.8397 10.2445,-13.3341 26.8308,-13.3341 16.5863,0 26.6682,13.4968 10.2445,13.3341 10.2445,39.677 0,26.343 -10.2445,40.165 -10.0819,13.8219 -26.6682,13.8219 z m 0,-18.5377 q 4.0653,0 7.3175,-2.927 3.2522,-3.0896 5.0409,-10.7323 1.9514,-7.8053 1.9514,-21.7899 0,-14.1471 -1.9514,-21.6272 -1.7887,-7.4801 -5.0409,-10.2445 -3.2522,-2.7644 -7.3175,-2.7644 -4.0653,0 -7.3175,2.7644 -3.2522,2.7644 -5.2035,10.2445 -1.7888,7.4801 -1.7888,21.6272 0,13.9846 1.7888,21.7899 1.9513,7.6427 5.2035,10.7323 3.2522,2.927 7.3175,2.927 z m 85.8586,18.5377 q -16.5863,0 -26.8308,-13.8219 -10.0819,-13.822 -10.0819,-40.165 0,-26.5056 10.0819,-39.8397 10.2445,-13.3341 26.8308,-13.3341 16.5863,0 26.6682,13.4968 10.2445,13.3341 10.2445,39.677 0,26.343 -10.2445,40.165 -10.0819,13.8219 -26.6682,13.8219 z m 0,-18.5377 q 4.0653,0 7.3175,-2.927 3.2522,-3.0896 5.0409,-10.7323 1.9514,-7.8053 1.9514,-21.7899 0,-14.1471 -1.9514,-21.6272 -1.7887,-7.4801 -5.0409,-10.2445 -3.2522,-2.7644 -7.3175,-2.7644 -4.0653,0 -7.3175,2.7644 -3.2522,2.7644 -5.2036,10.2445 -1.7887,7.4801 -1.7887,21.6272 0,13.9846 1.7887,21.7899 1.9514,7.6427 5.2036,10.7323 3.2522,2.927 7.3175,2.927 z m 83.0942,18.5377 q -8.4558,0 -15.2854,-1.9513 -6.6671,-1.9514 -11.8707,-5.2036 -5.2035,-3.2522 -9.2688,-7.3175 l 10.7323,-15.1228 q 4.7158,4.2279 10.2445,7.3175 5.5288,2.927 12.0333,2.927 5.2035,0 9.1062,-1.7887 3.9026,-1.9514 6.0166,-5.5288 2.2765,-3.5775 2.2765,-8.781 0,-7.8053 -4.5531,-11.8706 -4.5531,-4.0653 -11.708,-4.0653 -4.3905,0 -7.4801,1.1383 -3.0896,1.1383 -7.8053,4.0653 l -10.7323,-6.8297 2.927,-52.1981 h 58.5399 v 20.1637 h -37.8883 l -1.7888,19.3507 q 3.0897,-1.3008 5.6914,-1.7887 2.6018,-0.6504 5.854,-0.6504 8.9436,0 16.4237,3.4148 7.4801,3.4148 11.8706,10.5697 4.5531,7.1549 4.5531,18.0498 0,11.5454 -5.3661,19.676 -5.2036,7.9679 -13.822,12.1958 -8.6183,4.2279 -18.7002,4.2279 z m -157.7327,-205.2151 v -106.0224 h 66.8331 v 20.1638 h -42.9293 v 24.5543 h 36.7501 v 20.1637 h -36.7501 v 41.1406 z m 85.2082,0 v -106.0224 h 66.3453 v 20.1638 h -42.4415 v 21.302 h 36.0996 v 20.0012 h -36.0996 v 24.3916 h 44.0676 v 20.1638 z" style="font-weight:700;font-size:65.0442px;font-family:&quot;Source Sans 3&quot;;-inkscape-font-specification:&quot;Source Sans 3, Bold&quot;;text-align:center;text-anchor:middle;display:inline;opacity:1;fill:#bec3c6;stroke-width:0" transform="matrix(0.02439371,0,0,0.02439371,-0.02443967,255.98706)"/>
  </g>
</svg>
