<svg width="2400" height="9800" viewBox="0 0 2400 9800" version="1.1" id="svg1" xml:space="preserve" xmlns="http://www.w3.org/2000/svg">
  <defs id="defs1">
    <linearGradient id="swatch446">
      <stop style="stop-color:#4c5a5f;stop-opacity:1" offset="0" id="stop446"/>
    </linearGradient>
    <marker style="overflow:visible" id="Triangle" refX="0" refY="0" orient="auto-start-reverse" markerWidth="1" markerHeight="1" viewBox="0 0 1 1" preserveAspectRatio="xMidYMid">
      <path transform="scale(0.5)" style="fill:context-stroke;fill-rule:evenodd;stroke:context-stroke;stroke-width:1pt" d="M 5.77,0 -2.88,5 V -5 Z" id="path597"/>
    </marker>
  </defs>
  <g id="floor_-1" transform="matrix(40.994169,0,0,40.994169,1.00188,-2110.757)" style="display:inline">
    <path id="path1147" style="font-variation-settings:'wdth' 70,'wght' 600;display:inline;fill:#4c5a5f;fill-opacity:1;stroke:none;stroke-width:.487874" d="m 23.236684,70.704212 -3e-6,160.565708 H 28.9221 l -4e-6,32.26153 h 4.690841 l -1e-6,-1.09925 h 0.506958 v 9.06201 h -0.506958 v -2.29086 h -4.690833 v 6.77587 h 9.888628 l -4e-6,-44.7093 h 4.440221 l 10e-7,-76.67112 -4.440171,-1e-5 v 10.08358 h -9.888697 l 1.7e-5,-87.538112 9.888649,3e-6 V 70.88378 l -4.690835,7.62e-4 v 0.961675 h -0.506959 v -9.062009 h 0.506959 v 1.010459 h 4.690859 v -7.354786 h -9.888667 v 14.264326 z m 5.6854,103.490798 h 9.888649 v 6.94244 h -9.888649 z m 1.9e-5,23.92821 5.184946,0.0244 v 12.76177 h 4.703681 v 6.74137 h -9.888627 z"/>
    <g id="rooms_-1" style="display:inline;opacity:1" transform="matrix(0.02439371,0,0,0.02439371,-0.02443957,255.98706)">
      <rect style="font-variation-settings:'wdth' 70,'wght' 600;display:inline;opacity:1;fill:#454c7f;fill-opacity:1;stroke-width:1244.95;stroke-dasharray:none" id="NI001_K" width="1082.1803" height="1832.8209" x="104.89009" y="-1013.2587"/>
      <rect style="font-variation-settings:'wdth' 70,'wght' 600;display:inline;opacity:1;fill:#454c7f;fill-opacity:1;stroke-width:686.145;stroke-dasharray:none" id="NIK01" width="1487.1256" height="405.13556" x="104.89014" y="819.56219"/>
      <rect style="font-variation-settings:'wdth' 70,'wght' 600;display:inline;opacity:1;fill:#454c7f;fill-opacity:1;stroke-width:608.485;stroke-dasharray:none" id="NIK02" width="848.6803" height="558.30688" x="104.89012" y="-1571.5656"/>
      <rect style="font-variation-settings:'wdth' 70,'wght' 600;display:inline;opacity:1;fill:#454c7f;fill-opacity:1;stroke-width:797.127;stroke-dasharray:none" id="NIK03" width="847.6015" height="959.3562" x="104.89012" y="-2529.8608"/>
      <rect style="font-variation-settings:'wdth' 70,'wght' 600;display:inline;opacity:1;fill:#454c7f;fill-opacity:1;stroke-width:233.008;stroke-dasharray:none" id="NIK04" width="258.57675" height="268.70056" x="694.99377" y="-2798.5615"/>
      <rect style="font-variation-settings:'wdth' 70,'wght' 600;display:inline;opacity:1;fill:#454c7f;fill-opacity:1;stroke-width:352.32;stroke-dasharray:none" id="NIK05" width="591.18262" height="268.70056" x="103.81119" y="-2798.5615"/>
      <rect style="font-variation-settings:'wdth' 70,'wght' 600;display:inline;opacity:1;fill:#454c7f;fill-opacity:1;stroke-width:796.771;stroke-dasharray:none" id="NIK06" width="849.7594" height="956.06396" x="103.81119" y="-3754.626"/>
      <rect style="font-variation-settings:'wdth' 70,'wght' 600;display:inline;opacity:1;fill:#454c7f;fill-opacity:1;stroke-width:1041.48;stroke-dasharray:none" id="NIK07" width="849.7594" height="1633.5052" x="103.81119" y="-5390.8945"/>
      <rect style="font-variation-settings:'wdth' 70,'wght' 600;display:inline;opacity:1;fill:#454c7f;fill-opacity:1;stroke-width:427.488;stroke-dasharray:none" id="NIK08" width="849.7594" height="275.21191" x="103.81119" y="-5666.1064"/>
      <rect style="font-variation-settings:'wdth' 70,'wght' 600;display:inline;opacity:1;fill:#454c7f;fill-opacity:1;stroke-width:741.443;stroke-dasharray:none" id="NIK09" width="849.7594" height="827.89404" x="103.81119" y="-6494.0005"/>
      <rect style="font-variation-settings:'wdth' 70,'wght' 600;display:inline;opacity:1;fill:#454c7f;fill-opacity:1;stroke-width:1049.5;stroke-dasharray:none" id="NIK10" width="849.7594" height="1658.7699" x="103.81119" y="-8152.7705"/>
      <path style="font-variation-settings:'wght' 700;display:inline;opacity:1;fill:#454c7f;fill-opacity:1;stroke-width:0" d="m 1774.0389,-1564.5656 v 551.3069 h -182.0232 v 2237.9565 l 718.9102,-10e-5 v -2789.2633 z" id="NIK31"/>
      <rect style="font-variation-settings:'wdth' 70,'wght' 600;display:inline;opacity:1;fill:#454c7f;fill-opacity:1;stroke-width:482.412;stroke-dasharray:none" id="NIK32" width="536.88696" height="554.71399" x="1774.0389" y="-2119.2795"/>
      <path style="font-variation-settings:'wght' 700;display:inline;opacity:1;fill:#454c7f;fill-opacity:1;stroke-width:0" d="m 2310.9259,-2476.0408 h -247.4435 v -190.9526 h -289.4435 v 545.1184 l 536.887,2.5955 z" id="NIK33"/>
      <rect style="font-variation-settings:'wdth' 70,'wght' 600;display:inline;opacity:1;fill:#454c7f;fill-opacity:1;stroke-width:172.658;stroke-dasharray:none" id="NIK34" width="219.94182" height="173.45265" x="2063.4824" y="-2649.4934"/>
      <rect style="font-variation-settings:'wdth' 70,'wght' 600;display:inline;opacity:1;fill:#454c7f;fill-opacity:1;stroke-width:171.952;stroke-dasharray:none" id="NIK35" width="219.94182" height="172.03838" x="2063.4824" y="-2856.5317"/>
      <path style="font-variation-settings:'wght' 700;display:inline;opacity:1;fill:#454c7f;fill-opacity:1;stroke-width:0" d="m 2310.9259,-2856.5317 h -247.4435 v 189.5383 h -289.4435 v -543.7041 h 536.887 z" id="NIK36"/>
      <rect style="font-variation-settings:'wdth' 70,'wght' 600;display:inline;opacity:1;fill:#454c7f;fill-opacity:1;stroke-width:475.098;stroke-dasharray:none" id="NIK37" width="536.88684" height="538.02545" x="1774.0389" y="-3748.7229"/>
      <rect style="font-variation-settings:'wdth' 70,'wght' 600;display:inline;opacity:1;fill:#454c7f;fill-opacity:1;stroke-width:413.525;stroke-dasharray:none" id="NIK38" width="536.88684" height="407.60513" x="1774.0389" y="-4156.3281"/>
      <rect style="font-variation-settings:'wdth' 70,'wght' 600;display:inline;opacity:1;fill:#454c7f;fill-opacity:1;stroke-width:478.008;stroke-dasharray:none" id="NIK39" width="718.90857" height="406.73706" x="1592.0173" y="-4563.0654"/>
      <rect style="font-variation-settings:'wdth' 70,'wght' 600;display:inline;opacity:1;fill:#454c7f;fill-opacity:1;stroke-width:351.691;stroke-dasharray:none" id="NIK61" width="405.37775" height="390.46188" x="1186.6396" y="-4564.2905"/>
      <rect style="font-variation-settings:'wdth' 70,'wght' 600;display:inline;opacity:1;fill:#454c7f;fill-opacity:1;stroke-width:1201.77;stroke-dasharray:none" id="NIK62" width="1124.2863" height="1643.9193" x="1186.6396" y="-6208.21"/>
      <rect style="font-variation-settings:'wdth' 70,'wght' 600;display:inline;opacity:1;fill:#454c7f;fill-opacity:1;stroke-width:856.302;stroke-dasharray:none" id="NIK63" width="1124.2864" height="834.6286" x="1186.6396" y="-7042.8384"/>
      <path style="font-variation-settings:'wght' 700;display:inline;opacity:1;fill:#454c7f;fill-opacity:1;stroke-width:0" d="m 1592.0172,-8180.2719 h 718.9084 v 1137.4334 H 1186.6394 v -288.6745 h 405.3778 z" id="NIK64"/>
      <rect style="font-variation-settings:'wdth' 70,'wght' 600;display:inline;opacity:1;fill:#454c7f;fill-opacity:1;stroke-width:328.326;stroke-dasharray:none" id="NIK65" width="235.91463" height="584.75458" x="950.72498" y="-8180.272"/>
      <rect style="font-variation-settings:'wdth' 70,'wght' 600;display:inline;opacity:1;fill:#1b2022;fill-opacity:1;stroke-width:274.494;stroke-dasharray:none" id="rect1168" width="223.79085" height="430.86758" x="1350.7278" y="-4173.8286"/>
      <rect style="font-variation-settings:'wdth' 70,'wght' 600;display:inline;opacity:1;fill:#1b2022;fill-opacity:1;stroke-width:212.31;stroke-dasharray:none" id="rect1169" width="202.68886" height="284.59903" x="1186.6388" y="-3352.9976"/>
      <rect style="font-variation-settings:'wdth' 70,'wght' 600;display:inline;opacity:1;fill:#1b2022;fill-opacity:1;stroke-width:212.31;stroke-dasharray:none" id="rect1170" width="202.68886" height="284.59903" x="1389.3276" y="-3352.9976"/>
    </g>
    <g id="g1446" transform="matrix(0.02439371,0,0,0.02439371,-6.8330385,253.2867)" style="display:inline">
      <rect style="font-variation-settings:'wdth' 70,'wght' 600;display:inline;fill:#5e7378;fill-opacity:1;stroke-width:6.76892;stroke-dasharray:none" id="rect1172" width="192.29695" height="29.06435" x="1465.7523" y="623.42572"/>
      <rect style="font-variation-settings:'wdth' 70,'wght' 600;display:inline;fill:#5c7075;fill-opacity:1;stroke-width:6.76892;stroke-dasharray:none" id="rect1173" width="192.29695" height="29.06435" x="1465.7523" y="594.36133"/>
      <rect style="font-variation-settings:'wdth' 70,'wght' 600;display:inline;fill:#5a6d72;fill-opacity:1;stroke-width:6.76892;stroke-dasharray:none" id="rect1174" width="192.29695" height="29.06435" x="1465.7523" y="565.297"/>
      <rect style="font-variation-settings:'wdth' 70,'wght' 600;display:inline;fill:#586a6f;fill-opacity:1;stroke-width:6.76892;stroke-dasharray:none" id="rect1175" width="192.29695" height="29.06435" x="1465.7523" y="536.2326"/>
      <rect style="font-variation-settings:'wdth' 70,'wght' 600;display:inline;fill:#56676c;fill-opacity:1;stroke-width:6.76892;stroke-dasharray:none" id="rect1176" width="192.2971" height="29.06435" x="1465.7522" y="507.16824"/>
      <rect style="font-variation-settings:'wdth' 70,'wght' 600;display:inline;fill:#000;fill-opacity:1;stroke-width:1.25556;stroke-dasharray:none" id="rect1179" width="192.29695" height="1.0000001" x="1465.7523" y="623.42572"/>
      <rect style="font-variation-settings:'wdth' 70,'wght' 600;display:inline;fill:#000;fill-opacity:1;stroke-width:1.25556;stroke-dasharray:none" id="rect1180" width="192.29695" height="1.0000001" x="1465.7523" y="594.36133"/>
      <rect style="font-variation-settings:'wdth' 70,'wght' 600;display:inline;fill:#000;fill-opacity:1;stroke-width:1.25556;stroke-dasharray:none" id="rect1181" width="192.29695" height="1.0000001" x="1465.7523" y="565.297"/>
      <rect style="font-variation-settings:'wdth' 70,'wght' 600;display:inline;fill:#000;fill-opacity:1;stroke-width:1.25556;stroke-dasharray:none" id="rect1182" width="192.29695" height="1.0000001" x="1465.7523" y="536.2326"/>
      <rect style="font-variation-settings:'wdth' 70,'wght' 600;display:inline;fill:#000;fill-opacity:1;stroke-width:1.25556;stroke-dasharray:none" id="rect1183" width="192.29718" height="1.0000001" x="1465.7522" y="507.16824"/>
      <rect style="font-variation-settings:'wdth' 70,'wght' 600;display:inline;fill:#546469;fill-opacity:1;stroke-width:6.76892;stroke-dasharray:none" id="rect1197" width="192.2971" height="29.06435" x="1465.7522" y="478.10388"/>
      <rect style="font-variation-settings:'wdth' 70,'wght' 600;display:inline;fill:#000;fill-opacity:1;stroke-width:1.25556;stroke-dasharray:none" id="rect1198" width="192.29718" height="1.0000001" x="1465.7522" y="478.10388"/>
      <rect style="font-variation-settings:'wdth' 70,'wght' 600;display:inline;fill:#516166;fill-opacity:1;stroke-width:6.76892;stroke-dasharray:none" id="rect1199" width="192.2971" height="29.06435" x="1465.7522" y="449.03952"/>
      <rect style="font-variation-settings:'wdth' 70,'wght' 600;display:inline;fill:#000;fill-opacity:1;stroke-width:1.25556;stroke-dasharray:none" id="rect1200" width="192.29718" height="1.0000001" x="1465.7522" y="449.03952"/>
      <rect style="font-variation-settings:'wdth' 70,'wght' 600;display:inline;fill:#4f5e63;fill-opacity:1;stroke-width:6.76892;stroke-dasharray:none" id="rect1201" width="192.2971" height="29.06435" x="1465.7522" y="419.97516"/>
      <rect style="font-variation-settings:'wdth' 70,'wght' 600;display:inline;fill:#000;fill-opacity:1;stroke-width:1.25556;stroke-dasharray:none" id="rect1277" width="192.29718" height="1.0000001" x="1465.7522" y="419.97516"/>
      <path style="font-variation-settings:'wdth' 70,'wght' 600;display:inline;opacity:1;fill:none;fill-opacity:1;stroke:#bec3c6;stroke-width:5;stroke-dasharray:none;stroke-opacity:1;marker-end:url(#Triangle)" d="M 1570.0711,434.50734 V 624.42572" id="path1325"/>
      <rect style="font-variation-settings:'wght' 700;display:inline;fill:none;stroke:#bec3c6;stroke-width:10;stroke-opacity:1" id="rect1446" width="20.782349" height="371.48959" x="1658.0493" y="374.91211" transform="translate(-4.9474942e-6,1.4747702e-5)"/>
    </g>
    <g id="g1813" transform="matrix(0.02439371,0,0,0.02439371,26.384665,210.96859)" style="display:inline">
      <rect style="font-variation-settings:'wdth' 70,'wght' 600;display:inline;fill:#647c81;fill-opacity:1;stroke-width:6.77818;stroke-dasharray:none" id="rect1447" width="192.82352" height="29.06435" x="-296.84369" y="176.8134" transform="scale(-1)"/>
      <rect style="font-variation-settings:'wdth' 70,'wght' 600;display:inline;fill:#62797e;fill-opacity:1;stroke-width:6.77818;stroke-dasharray:none" id="rect1448" width="192.82352" height="29.06435" x="-296.84369" y="205.87776" transform="scale(-1)"/>
      <rect style="font-variation-settings:'wdth' 70,'wght' 600;display:inline;fill:#60767b;fill-opacity:1;stroke-width:6.77818;stroke-dasharray:none" id="rect1449" width="192.82352" height="29.06435" x="-296.84369" y="234.94212" transform="scale(-1)"/>
      <rect style="font-variation-settings:'wdth' 70,'wght' 600;display:inline;fill:#5e7378;fill-opacity:1;stroke-width:6.77818;stroke-dasharray:none" id="rect1450" width="192.82352" height="29.06435" x="-296.84369" y="264.00647" transform="scale(-1)"/>
      <rect style="font-variation-settings:'wdth' 70,'wght' 600;display:inline;fill:#5c7075;fill-opacity:1;stroke-width:6.77818;stroke-dasharray:none" id="rect1451" width="192.82352" height="29.06435" x="-296.84369" y="293.0708" transform="scale(-1)"/>
      <rect style="font-variation-settings:'wdth' 70,'wght' 600;display:inline;fill:#5a6d72;fill-opacity:1;stroke-width:6.77818;stroke-dasharray:none" id="rect1452" width="192.82352" height="29.06435" x="-296.84369" y="322.13516" transform="scale(-1)"/>
      <rect style="font-variation-settings:'wdth' 70,'wght' 600;display:inline;fill:#586a6f;fill-opacity:1;stroke-width:6.77818;stroke-dasharray:none" id="rect1453" width="192.82352" height="29.06435" x="-296.84369" y="351.19949" transform="scale(-1)"/>
      <rect style="font-variation-settings:'wdth' 70,'wght' 600;display:inline;fill:#56676c;fill-opacity:1;stroke-width:6.77818;stroke-dasharray:none" id="rect1454" width="192.82352" height="29.06435" x="-296.84369" y="380.26376" transform="scale(-1)"/>
      <rect style="font-variation-settings:'wdth' 70,'wght' 600;display:inline;fill:#546469;fill-opacity:1;stroke-width:6.77818;stroke-dasharray:none" id="rect1455" width="192.82352" height="29.06435" x="-296.84369" y="409.32816" transform="scale(-1)"/>
      <rect style="font-variation-settings:'wdth' 70,'wght' 600;display:inline;fill:#516166;fill-opacity:1;stroke-width:6.77818;stroke-dasharray:none" id="rect1456" width="192.82352" height="29.06435" x="-296.84369" y="438.39249" transform="scale(-1)"/>
      <rect style="font-variation-settings:'wdth' 70,'wght' 600;display:inline;fill:#4f5e63;fill-opacity:1;stroke-width:6.77818;stroke-dasharray:none" id="rect1457" width="192.82352" height="29.06435" x="-296.84369" y="467.45682" transform="scale(-1)"/>
      <rect style="font-variation-settings:'wdth' 70,'wght' 600;display:inline;fill:#4c5a5f;fill-opacity:1;stroke-width:6.77818;stroke-dasharray:none" id="rect1458" width="192.82352" height="29.06435" x="-296.84369" y="496.52115" transform="scale(-1)"/>
      <rect style="font-variation-settings:'wdth' 70,'wght' 600;display:inline;fill:#000;fill-opacity:1;stroke-width:1.25729;stroke-dasharray:none" id="rect1459" width="192.82358" height="1.0000001" x="-296.84369" y="176.8134" transform="scale(-1)"/>
      <rect style="font-variation-settings:'wdth' 70,'wght' 600;display:inline;fill:#000;fill-opacity:1;stroke-width:1.25729;stroke-dasharray:none" id="rect1460" width="192.82358" height="1.0000001" x="-296.84369" y="205.87776" transform="scale(-1)"/>
      <rect style="font-variation-settings:'wdth' 70,'wght' 600;display:inline;fill:#000;fill-opacity:1;stroke-width:1.25729;stroke-dasharray:none" id="rect1461" width="192.82358" height="1.0000001" x="-296.84369" y="234.44212" transform="scale(-1)"/>
      <rect style="font-variation-settings:'wdth' 70,'wght' 600;display:inline;fill:#000;fill-opacity:1;stroke-width:1.25729;stroke-dasharray:none" id="rect1462" width="192.82358" height="1.0000001" x="-296.84369" y="264.00647" transform="scale(-1)"/>
      <rect style="font-variation-settings:'wdth' 70,'wght' 600;display:inline;fill:#000;fill-opacity:1;stroke-width:1.25729;stroke-dasharray:none" id="rect1463" width="192.82358" height="1.0000001" x="-296.84369" y="293.0708" transform="scale(-1)"/>
      <rect style="font-variation-settings:'wdth' 70,'wght' 600;display:inline;fill:#000;fill-opacity:1;stroke-width:1.25729;stroke-dasharray:none" id="rect1464" width="192.82358" height="1.0000001" x="-296.84369" y="322.13516" transform="scale(-1)"/>
      <rect style="font-variation-settings:'wdth' 70,'wght' 600;display:inline;fill:#000;fill-opacity:1;stroke-width:1.25729;stroke-dasharray:none" id="rect1564" width="192.82358" height="1.0000001" x="-296.84369" y="351.19949" transform="scale(-1)"/>
      <rect style="font-variation-settings:'wdth' 70,'wght' 600;display:inline;fill:#000;fill-opacity:1;stroke-width:1.25729;stroke-dasharray:none" id="rect1573" width="192.82358" height="1.0000001" x="-296.84369" y="380.26376" transform="scale(-1)"/>
      <rect style="font-variation-settings:'wdth' 70,'wght' 600;display:inline;fill:#000;fill-opacity:1;stroke-width:1.25729;stroke-dasharray:none" id="rect1574" width="192.82358" height="1.0000001" x="-296.84369" y="409.32816" transform="scale(-1)"/>
      <rect style="font-variation-settings:'wdth' 70,'wght' 600;display:inline;fill:#000;fill-opacity:1;stroke-width:1.25729;stroke-dasharray:none" id="rect1575" width="192.82358" height="1.0000001" x="-296.84369" y="438.39249" transform="scale(-1)"/>
      <rect style="font-variation-settings:'wdth' 70,'wght' 600;display:inline;fill:#000;fill-opacity:1;stroke-width:1.25729;stroke-dasharray:none" id="rect1576" width="192.82358" height="1.0000001" x="-296.84369" y="467.45682" transform="scale(-1)"/>
      <rect style="font-variation-settings:'wdth' 70,'wght' 600;display:inline;fill:#000;fill-opacity:1;stroke-width:1.25729;stroke-dasharray:none" id="rect1577" width="192.82358" height="1.0000001" x="-296.84369" y="496.52115" transform="scale(-1)"/>
      <rect style="font-variation-settings:'wdth' 70,'wght' 600;display:inline;fill:#000;fill-opacity:1;stroke-width:1.25728;stroke-dasharray:none" id="rect1578" width="192.82353" height="0.99998105" x="-296.84369" y="525.58551" transform="scale(-1)"/>
      <rect style="font-variation-settings:'wdth' 70,'wght' 600;display:inline;fill:#667f84;fill-opacity:1;stroke-width:6.77818;stroke-dasharray:none" id="rect1616" width="192.82352" height="29.06435" x="-296.84369" y="147.74905" transform="scale(-1)"/>
      <rect style="font-variation-settings:'wdth' 70,'wght' 600;display:inline;fill:#000;fill-opacity:1;stroke-width:1.25729;stroke-dasharray:none" id="rect1745" width="192.82358" height="1.0000001" x="-296.84369" y="147.74905" transform="scale(-1)"/>
      <rect style="font-variation-settings:'wdth' 70,'wght' 600;display:inline;fill:#688287;fill-opacity:1;stroke-width:6.77818;stroke-dasharray:none" id="rect1794" width="192.82352" height="29.06435" x="-296.84369" y="118.6847" transform="scale(-1)"/>
      <rect style="font-variation-settings:'wdth' 70,'wght' 600;display:inline;fill:#000;fill-opacity:1;stroke-width:1.25729;stroke-dasharray:none" id="rect1795" width="192.82358" height="1.0000001" x="-296.84369" y="118.6847" transform="scale(-1)"/>
      <rect style="font-variation-settings:'wdth' 70,'wght' 600;display:inline;fill:#6b858a;fill-opacity:1;stroke-width:6.77818;stroke-dasharray:none" id="rect1796" width="192.82352" height="29.06435" x="-296.84369" y="89.620346" transform="scale(-1)"/>
      <rect style="font-variation-settings:'wdth' 70,'wght' 600;display:inline;fill:#000;fill-opacity:1;stroke-width:1.25729;stroke-dasharray:none" id="rect1797" width="192.82358" height="1.0000001" x="-296.84369" y="89.620346" transform="scale(-1)"/>
      <rect style="font-variation-settings:'wdth' 70,'wght' 600;display:inline;fill:#6d888d;fill-opacity:1;stroke-width:6.77818;stroke-dasharray:none" id="rect1798" width="192.82352" height="29.06435" x="-296.84369" y="60.555996" transform="scale(-1)"/>
      <rect style="font-variation-settings:'wdth' 70,'wght' 600;display:inline;fill:#000;fill-opacity:1;stroke-width:1.25729;stroke-dasharray:none" id="rect1799" width="192.82358" height="1.0000001" x="-296.84369" y="60.555996" transform="scale(-1)"/>
      <rect style="font-variation-settings:'wdth' 70,'wght' 600;display:inline;fill:#6f8b90;fill-opacity:1;stroke-width:6.77818;stroke-dasharray:none" id="rect1800" width="192.82352" height="29.06435" x="-296.84369" y="31.491646" transform="scale(-1)"/>
      <rect style="font-variation-settings:'wdth' 70,'wght' 600;display:inline;fill:#000;fill-opacity:1;stroke-width:1.25729;stroke-dasharray:none" id="rect1801" width="192.82358" height="1.0000001" x="-296.84369" y="31.491646" transform="scale(-1)"/>
      <rect style="font-variation-settings:'wdth' 70,'wght' 600;display:inline;fill:#728d92;fill-opacity:1;stroke-width:6.77818;stroke-dasharray:none" id="rect1802" width="192.82352" height="29.06435" x="-296.84369" y="2.4272957" transform="scale(-1)"/>
      <rect style="font-variation-settings:'wdth' 70,'wght' 600;display:inline;fill:#000;fill-opacity:1;stroke-width:1.25729;stroke-dasharray:none" id="rect1803" width="192.82358" height="1.0000001" x="-296.84369" y="2.4272957" transform="scale(-1)"/>
      <rect style="font-variation-settings:'wdth' 70,'wght' 600;display:inline;fill:#758f94;fill-opacity:1;stroke-width:30.0298;stroke-dasharray:none" id="rect1804" width="405.3761" height="271.35675" x="-509.39627" y="-268.92944" transform="scale(-1)"/>
      <path style="font-variation-settings:'wght' 700;fill:#728d92;fill-opacity:1;stroke:#bec3c6;stroke-width:10;stroke-dasharray:none;stroke-opacity:1" d="m 104.02016,268.92945 h 405.3761" id="path1809"/>
      <path style="font-variation-settings:'wdth' 70,'wght' 600;display:inline;opacity:1;fill:none;fill-opacity:1;stroke:#bec3c6;stroke-width:5;stroke-dasharray:none;stroke-opacity:1;marker-end:url(#Triangle)" d="M 208.43197,-515.27652 V -32.491646" id="path1813"/>
      <rect style="font-variation-settings:'wght' 700;display:inline;fill:none;fill-opacity:1;stroke:#bec3c6;stroke-width:10;stroke-dasharray:none;stroke-opacity:1" id="rect1813" width="19.729061" height="523.15826" x="296.84369" y="-525.58551" transform="translate(3.9816157e-6,-3.2151715e-5)"/>
    </g>
    <g id="g1856" transform="matrix(-0.02439371,0,0,-0.02439371,74.565881,81.728828)" style="display:inline">
      <rect style="font-variation-settings:'wdth' 70,'wght' 600;display:inline;fill:#62797e;fill-opacity:1;stroke-width:6.76892;stroke-dasharray:none" id="rect1814" width="192.29695" height="29.06435" x="1465.7523" y="706.13177"/>
      <rect style="font-variation-settings:'wdth' 70,'wght' 600;display:inline;fill:#60767b;fill-opacity:1;stroke-width:6.76892;stroke-dasharray:none" id="rect1815" width="192.29695" height="29.06435" x="1465.7523" y="677.06744"/>
      <rect style="font-variation-settings:'wdth' 70,'wght' 600;display:inline;fill:#5e7378;fill-opacity:1;stroke-width:6.76892;stroke-dasharray:none" id="rect1816" width="192.29695" height="29.06435" x="1465.7523" y="648.00305"/>
      <rect style="font-variation-settings:'wdth' 70,'wght' 600;display:inline;fill:#5c7075;fill-opacity:1;stroke-width:6.76892;stroke-dasharray:none" id="rect1817" width="192.29695" height="29.06435" x="1465.7523" y="618.93872"/>
      <rect style="font-variation-settings:'wdth' 70,'wght' 600;display:inline;fill:#5a6d72;fill-opacity:1;stroke-width:6.76892;stroke-dasharray:none" id="rect1820" width="192.29695" height="29.06435" x="1465.7523" y="589.87433"/>
      <rect style="font-variation-settings:'wdth' 70,'wght' 600;display:inline;fill:#586a6f;fill-opacity:1;stroke-width:6.76892;stroke-dasharray:none" id="rect1821" width="192.2971" height="29.06435" x="1465.7522" y="560.81"/>
      <rect style="font-variation-settings:'wdth' 70,'wght' 600;display:inline;fill:#000;fill-opacity:1;stroke-width:1.25556;stroke-dasharray:none" id="rect1823" width="192.29695" height="1.0000001" x="1465.7523" y="706.13177"/>
      <rect style="font-variation-settings:'wdth' 70,'wght' 600;display:inline;fill:#000;fill-opacity:1;stroke-width:1.25556;stroke-dasharray:none" id="rect1824" width="192.29695" height="1.0000001" x="1465.7523" y="677.06744"/>
      <rect style="font-variation-settings:'wdth' 70,'wght' 600;display:inline;fill:#000;fill-opacity:1;stroke-width:1.25556;stroke-dasharray:none" id="rect1825" width="192.29695" height="1.0000001" x="1465.7523" y="648.00305"/>
      <rect style="font-variation-settings:'wdth' 70,'wght' 600;display:inline;fill:#000;fill-opacity:1;stroke-width:1.25556;stroke-dasharray:none" id="rect1826" width="192.29695" height="1.0000001" x="1465.7523" y="618.93872"/>
      <rect style="font-variation-settings:'wdth' 70,'wght' 600;display:inline;fill:#000;fill-opacity:1;stroke-width:1.25556;stroke-dasharray:none" id="rect1827" width="192.29695" height="1.0000001" x="1465.7523" y="589.87433"/>
      <rect style="font-variation-settings:'wdth' 70,'wght' 600;display:inline;fill:#000;fill-opacity:1;stroke-width:1.25556;stroke-dasharray:none" id="rect1828" width="192.29718" height="1.0000001" x="1465.7522" y="560.81"/>
      <rect style="font-variation-settings:'wdth' 70,'wght' 600;display:inline;fill:#56676c;fill-opacity:1;stroke-width:6.76892;stroke-dasharray:none" id="rect1842" width="192.2971" height="29.06435" x="1465.7522" y="531.74561"/>
      <rect style="font-variation-settings:'wdth' 70,'wght' 600;display:inline;fill:#000;fill-opacity:1;stroke-width:1.25556;stroke-dasharray:none" id="rect1843" width="192.29718" height="1.0000001" x="1465.7522" y="531.74561"/>
      <rect style="font-variation-settings:'wdth' 70,'wght' 600;display:inline;fill:#546469;fill-opacity:1;stroke-width:6.76892;stroke-dasharray:none" id="rect1844" width="192.2971" height="29.06435" x="1465.7522" y="502.68127"/>
      <rect style="font-variation-settings:'wdth' 70,'wght' 600;display:inline;fill:#000;fill-opacity:1;stroke-width:1.25556;stroke-dasharray:none" id="rect1845" width="192.29718" height="1.0000001" x="1465.7522" y="502.68127"/>
      <rect style="font-variation-settings:'wdth' 70,'wght' 600;display:inline;fill:#516166;fill-opacity:1;stroke-width:6.76892;stroke-dasharray:none" id="rect1846" width="192.2971" height="29.06435" x="1465.7522" y="473.61691"/>
      <rect style="font-variation-settings:'wdth' 70,'wght' 600;display:inline;fill:#000;fill-opacity:1;stroke-width:1.25556;stroke-dasharray:none" id="rect1847" width="192.29718" height="1.0000001" x="1465.7522" y="473.61691"/>
      <rect style="font-variation-settings:'wdth' 70,'wght' 600;display:inline;fill:#4f5e63;fill-opacity:1;stroke-width:6.76892;stroke-dasharray:none" id="rect1854" width="192.2971" height="29.06435" x="1465.7522" y="444.55255"/>
      <rect style="font-variation-settings:'wdth' 70,'wght' 600;display:inline;fill:#000;fill-opacity:1;stroke-width:1.25556;stroke-dasharray:none" id="rect1855" width="192.29718" height="1.0000001" x="1465.7522" y="444.55255"/>
      <path style="font-variation-settings:'wdth' 70,'wght' 600;display:inline;opacity:1;fill:none;fill-opacity:1;stroke:#bec3c6;stroke-width:5;stroke-dasharray:none;stroke-opacity:1;marker-end:url(#Triangle)" d="M 1570.0711,459.0848 V 707.13181" id="path1855" transform="translate(-1.9265214e-4,-7.2796078e-5)"/>
      <rect style="font-variation-settings:'wght' 700;display:inline;fill:none;stroke:#bec3c6;stroke-width:10;stroke-opacity:1" id="rect1856" width="20.782349" height="371.48959" x="1658.0493" y="405.12955" transform="translate(-1.9265214e-4,-7.2796078e-5)"/>
    </g>
    <g id="walls_-1" transform="matrix(0.02439371,0,0,0.02439371,-0.02443957,244.19953)" style="display:inline;opacity:1">
      <path style="font-variation-settings:'wdth' 70,'wght' 600;fill:none;stroke:#bec3c6;stroke-width:55;stroke-linecap:butt;stroke-dasharray:none;stroke-opacity:1" d="M 968.22498,-7697.0518 H 103.81119 v 9359.4643 h 864.41379" id="path1861"/>
      <path style="font-variation-settings:'wdth' 70,'wght' 600;fill:none;stroke:#bec3c6;stroke-width:55;stroke-linecap:butt;stroke-dasharray:none;stroke-opacity:1" d="M 950.72502,1707.9178 H 2310.9259 V -7697.0518 H 950.72502" id="path1862"/>
      <path style="font-variation-settings:'wdth' 70,'wght' 600;fill:none;stroke:#bec3c6;stroke-width:35;stroke-linecap:butt;stroke-dasharray:none;stroke-opacity:1" d="m 953.57054,-5849.3312 v -582.591" id="path1864"/>
      <path style="font-variation-settings:'wdth' 70,'wght' 600;fill:none;stroke:#bec3c6;stroke-width:35;stroke-linecap:butt;stroke-dasharray:none;stroke-opacity:1" d="M 953.57054,-6531.9222 V -7697.0518" id="path1866"/>
      <path style="font-variation-settings:'wdth' 70,'wght' 600;fill:none;stroke:#bec3c6;stroke-width:35;stroke-linecap:butt;stroke-dasharray:none;stroke-opacity:1" d="M 953.57054,-6010.7804 H 103.81119" id="path1868"/>
      <path style="font-variation-settings:'wdth' 70,'wght' 600;fill:none;stroke:#bec3c6;stroke-width:35;stroke-linecap:butt;stroke-dasharray:none;stroke-opacity:1" d="m 1186.6396,-6848.2928 h 405.3778 v -848.759" id="path1893"/>
      <path style="font-variation-settings:'wdth' 70,'wght' 600;fill:none;stroke:#bec3c6;stroke-width:35;stroke-linecap:butt;stroke-dasharray:none;stroke-opacity:1" d="m 1186.6396,-6970.2928 v -749.259" id="path1904"/>
      <path style="font-variation-settings:'wdth' 70,'wght' 600;fill:none;stroke:#bec3c6;stroke-width:35;stroke-linecap:butt;stroke-dasharray:none;stroke-opacity:1" d="m 1186.6396,-6803.9556 v -66.3372" id="path1905"/>
      <path style="font-variation-settings:'wdth' 70,'wght' 600;fill:none;stroke:#bec3c6;stroke-width:35;stroke-linecap:butt;stroke-dasharray:none;stroke-opacity:1" d="M 1186.6396,-5282.8862 V -6335.4577" id="path1906"/>
      <path style="font-variation-settings:'wdth' 70,'wght' 600;fill:none;stroke:#bec3c6;stroke-width:35;stroke-linecap:butt;stroke-dasharray:none;stroke-opacity:1" d="m 1186.6396,-4730.1805 v -352.7057" id="path1907"/>
      <path style="font-variation-settings:'wdth' 70,'wght' 600;fill:none;stroke:#bec3c6;stroke-width:35;stroke-linecap:butt;stroke-dasharray:none;stroke-opacity:1" d="m 1592.0174,-4081.0703 v 821.3293 h -49.3413" id="path1912"/>
      <path style="font-variation-settings:'wdth' 70,'wght' 600;fill:none;stroke:#bec3c6;stroke-width:35;stroke-linecap:butt;stroke-dasharray:none;stroke-opacity:1" d="m 1186.6396,-3917.802 v 658.061 h 199.3764" id="path1913"/>
      <path style="font-variation-settings:'wdth' 70,'wght' 600;fill:none;stroke:#bec3c6;stroke-width:35;stroke-linecap:butt;stroke-dasharray:none;stroke-opacity:1" d="M 1592.0174,-3690.6083 H 1186.6396" id="path1914"/>
      <path style="font-variation-settings:'wdth' 70,'wght' 600;fill:none;stroke:#bec3c6;stroke-width:35;stroke-linecap:butt;stroke-dasharray:none;stroke-opacity:1" d="M 2310.9259,-4081.0703 H 1186.6396" id="path1915"/>
      <path style="font-variation-settings:'wdth' 70,'wght' 600;fill:none;stroke:#bec3c6;stroke-width:35;stroke-linecap:butt;stroke-dasharray:none;stroke-opacity:1" d="m 953.57054,-5079.6217 v -569.7094" id="path1917"/>
      <path style="font-variation-settings:'wdth' 70,'wght' 600;fill:none;stroke:#bec3c6;stroke-width:35;stroke-linecap:butt;stroke-dasharray:none;stroke-opacity:1" d="m 2310.9259,-3265.5028 -577.8978,-10e-5" id="path1925"/>
      <path style="font-variation-settings:'wdth' 70,'wght' 600;fill:none;stroke:#bec3c6;stroke-width:35;stroke-linecap:butt;stroke-dasharray:none;stroke-opacity:1" d="M 2310.9259,-3673.1083 H 1733.0281" id="path1927"/>
      <rect style="font-variation-settings:'wght' 700;fill:#bec3c6;fill-opacity:1;stroke-width:23.3358;stroke-dasharray:none" id="rect1930" width="164.0881" height="430.86752" x="1186.6396" y="-3690.6084"/>
      <path style="font-variation-settings:'wdth' 70,'wght' 600;fill:none;stroke:#bec3c6;stroke-width:35;stroke-linecap:butt;stroke-dasharray:none;stroke-opacity:1" d="M 953.57054,-3274.1689 H 103.81119" id="path1931"/>
      <path style="font-variation-settings:'wdth' 70,'wght' 600;fill:none;stroke:#bec3c6;stroke-width:35;stroke-linecap:butt;stroke-dasharray:none;stroke-opacity:1" d="M 720.2738,-2046.6409 H 103.81119" id="path1938"/>
      <rect style="font-variation-settings:'wght' 700;fill:#bec3c6;fill-opacity:1;stroke-width:12.6859;stroke-dasharray:none" id="rect1943" width="891.91382" height="165.99995" x="76.311188" y="-7863.0518"/>
      <rect style="font-variation-settings:'wght' 700;fill:#bec3c6;fill-opacity:1;stroke-width:14.0286;stroke-dasharray:none" id="rect1944" width="891.91382" height="202.99995" x="76.311188" y="1662.4125"/>
      <path style="font-variation-settings:'wdth' 70,'wght' 600;fill:none;stroke:#bec3c6;stroke-width:35;stroke-linecap:butt;stroke-dasharray:none;stroke-opacity:1" d="m 395.22537,-530.03866 h 791.41423 v 170.84571" id="path1944"/>
      <path style="font-variation-settings:'wdth' 70,'wght' 600;fill:none;stroke:#bec3c6;stroke-width:35;stroke-linecap:butt;stroke-dasharray:none;stroke-opacity:1" d="m 1252.7449,-2585.1784 h -66.1053 v -284.5981 h 405.3761 v 284.5981 h -79.7046" id="path1958"/>
      <path style="font-variation-settings:'wdth' 70,'wght' 600;fill:none;stroke:#bec3c6;stroke-width:35;stroke-linecap:butt;stroke-dasharray:none;stroke-opacity:1" d="m 1389.3277,-2585.1784 v -284.5981" id="path1959"/>
      <path style="font-variation-settings:'wdth' 70,'wght' 600;fill:none;stroke:#bec3c6;stroke-width:35;stroke-linecap:butt;stroke-dasharray:none;stroke-opacity:1" d="m 1419.1438,-2585.1784 h -59.6323" id="path1960"/>
      <path style="font-variation-settings:'wdth' 70,'wght' 600;fill:none;stroke:#bec3c6;stroke-width:35;stroke-linecap:butt;stroke-dasharray:none;stroke-opacity:1" d="M 1592.0157,1452.6227 V -530.03866 h 182.0232 v -182.20463" id="path1961"/>
      <path style="font-variation-settings:'wdth' 70,'wght' 600;fill:none;stroke:#bec3c6;stroke-width:35;stroke-linecap:butt;stroke-dasharray:none;stroke-opacity:1" d="m 1592.0157,1552.6227 v 155.2951" id="path1963"/>
      <path style="font-variation-settings:'wdth' 70,'wght' 600;fill:none;stroke:#bec3c6;stroke-width:35;stroke-linecap:butt;stroke-dasharray:none;stroke-opacity:1" d="m 1186.6396,-1088.3455 v -1095.4278 m 405.3761,0 v 1095.4278" id="path1965"/>
      <path style="font-variation-settings:'wdth' 70,'wght' 600;fill:none;stroke:#bec3c6;stroke-width:35;stroke-linecap:butt;stroke-dasharray:none;stroke-opacity:1" d="m 1186.6396,-6535.6367 v -68.3189" id="path2061"/>
      <path style="font-variation-settings:'wdth' 70,'wght' 600;fill:none;stroke:#bec3c6;stroke-width:35;stroke-linecap:butt;stroke-dasharray:none;stroke-opacity:1" d="m 1186.6396,-4017.802 v -512.3785" id="path2062"/>
      <path style="font-variation-settings:'wdth' 70,'wght' 600;fill:none;stroke:#bec3c6;stroke-width:35;stroke-linecap:butt;stroke-dasharray:none;stroke-opacity:1" d="m 953.57054,-4834.9627 v -144.6589" id="path2063"/>
      <path style="font-variation-settings:'wdth' 70,'wght' 600;fill:none;stroke:#bec3c6;stroke-width:35;stroke-linecap:butt;stroke-dasharray:none;stroke-opacity:1" d="m 953.57054,-3745.0017 v -989.961" id="path2064"/>
      <path style="font-variation-settings:'wdth' 70,'wght' 600;fill:none;stroke:#bec3c6;stroke-width:35;stroke-linecap:butt;stroke-dasharray:none;stroke-opacity:1" d="m 1774.0389,-3515.541 v -157.5673" id="path2065"/>
      <path style="font-variation-settings:'wdth' 70,'wght' 600;fill:none;stroke:#bec3c6;stroke-width:35;stroke-linecap:butt;stroke-dasharray:none;stroke-opacity:1" d="m 1774.0389,-3145.5409 v -270" id="path2066"/>
      <path style="font-variation-settings:'wdth' 70,'wght' 600;fill:#aba79a;fill-opacity:1;stroke:#bec3c6;stroke-width:35;stroke-linecap:butt;stroke-dasharray:none;stroke-opacity:1" d="m 1774.0389,-2490.8117 v -554.7292" id="path2067"/>
      <path style="font-variation-settings:'wdth' 70,'wght' 600;fill:none;stroke:#bec3c6;stroke-width:35;stroke-linecap:butt;stroke-dasharray:none;stroke-opacity:1" d="M 2310.9259,-6559.6183 H 1186.6396" id="path2068"/>
      <path style="font-variation-settings:'wdth' 70,'wght' 600;fill:none;stroke:#bec3c6;stroke-width:35;stroke-linecap:butt;stroke-dasharray:none;stroke-opacity:1" d="M 2310.9259,-5724.9896 H 1186.6396" id="path2069"/>
      <path style="font-variation-settings:'wdth' 70,'wght' 600;fill:none;stroke:#bec3c6;stroke-width:35;stroke-linecap:butt;stroke-dasharray:none;stroke-opacity:1" d="M 436.84595,-2315.3415 H 103.81119" id="path2070"/>
      <path style="font-variation-settings:'wdth' 70,'wght' 600;fill:none;stroke:#bec3c6;stroke-width:35;stroke-linecap:butt;stroke-dasharray:none;stroke-opacity:1" d="M 953.57054,-2315.3415 H 607.3129" id="path2071"/>
      <path style="font-variation-settings:'wdth' 70,'wght' 600;fill:none;stroke:#bec3c6;stroke-width:35;stroke-linecap:butt;stroke-dasharray:none;stroke-opacity:1" d="m 694.99384,-2046.6409 v -268.7006" id="path2072"/>
      <path style="font-variation-settings:'wdth' 70,'wght' 600;fill:none;stroke:#bec3c6;stroke-width:35;stroke-linecap:butt;stroke-dasharray:none;stroke-opacity:1" d="M 953.57054,-1087.2848 H 103.81119" id="path2073"/>
      <path style="font-variation-settings:'wdth' 70,'wght' 600;fill:none;stroke:#bec3c6;stroke-width:35;stroke-linecap:butt;stroke-dasharray:none;stroke-opacity:1" d="m 103.81119,-530.03866 h 91.41416" id="path2074"/>
      <path style="font-variation-settings:'wdth' 70,'wght' 600;fill:none;stroke:#bec3c6;stroke-width:35;stroke-linecap:butt;stroke-dasharray:none;stroke-opacity:1" d="M 317.85665,1302.7823 H 1592.0157" id="path2075"/>
      <path style="font-variation-settings:'wdth' 70,'wght' 600;fill:none;stroke:#bec3c6;stroke-width:35;stroke-linecap:butt;stroke-dasharray:none;stroke-opacity:1" d="M 1186.6396,1302.7823 V 1138.9651" id="path2076"/>
      <path style="font-variation-settings:'wdth' 70,'wght' 600;fill:none;stroke:#bec3c6;stroke-width:35;stroke-linecap:butt;stroke-dasharray:none;stroke-opacity:1" d="M 103.81119,1302.7823 H 217.85664" id="path2077"/>
      <path style="font-variation-settings:'wdth' 70,'wght' 600;fill:none;stroke:#bec3c6;stroke-width:35;stroke-linecap:butt;stroke-dasharray:none;stroke-opacity:1" d="m 953.57054,-2283.7733 v -612.6868" id="path2078"/>
      <path style="font-variation-settings:'wdth' 70,'wght' 600;fill:none;stroke:#bec3c6;stroke-width:35;stroke-linecap:butt;stroke-dasharray:none;stroke-opacity:1" d="m 953.57054,-3545.0017 v 448.5416" id="path2079"/>
      <path style="font-variation-settings:'wdth' 70,'wght' 600;fill:none;stroke:#bec3c6;stroke-width:35;stroke-linecap:butt;stroke-dasharray:none;stroke-opacity:1" d="M 953.57054,-912.24332 V -2083.7733" id="path2080"/>
      <path style="font-variation-settings:'wdth' 70,'wght' 600;fill:none;stroke:#bec3c6;stroke-width:35;stroke-linecap:butt;stroke-dasharray:none;stroke-opacity:1" d="M 953.57054,-530.03866 V -712.24329" id="path2081"/>
      <path style="font-variation-settings:'wdth' 70,'wght' 600;fill:none;stroke:#bec3c6;stroke-width:35;stroke-linecap:butt;stroke-dasharray:none;stroke-opacity:1" d="m 1020.105,-7112.2975 -66.53446,2e-4" id="path2082"/>
      <path style="font-variation-settings:'wdth' 70,'wght' 600;fill:none;stroke:#bec3c6;stroke-width:35;stroke-linecap:butt;stroke-dasharray:none;stroke-opacity:1" d="M 1186.6396,-7112.2973 H 1120.105" id="path2083"/>
      <path style="font-variation-settings:'wdth' 70,'wght' 600;fill:none;stroke:#bec3c6;stroke-width:35;stroke-linecap:butt;stroke-dasharray:none;stroke-opacity:1" d="m 2310.9259,-2727.4774 h -536.887" id="path2084"/>
      <path style="font-variation-settings:'wdth' 70,'wght' 600;fill:none;stroke:#bec3c6;stroke-width:35;stroke-linecap:butt;stroke-dasharray:none;stroke-opacity:1" d="m 2310.9259,-2183.7733 h -536.887" id="path2085"/>
      <path style="font-variation-settings:'wdth' 70,'wght' 600;fill:none;stroke:#bec3c6;stroke-width:35;stroke-linecap:butt;stroke-dasharray:none;stroke-opacity:1" d="m 1774.0389,-1978.8664 v -411.9453" id="path2086"/>
      <path style="font-variation-settings:'wdth' 70,'wght' 600;fill:none;stroke:#bec3c6;stroke-width:35;stroke-linecap:butt;stroke-dasharray:none;stroke-opacity:1" d="m 1774.0389,-1560.2434 v -318.6229" id="path2087"/>
      <path style="font-variation-settings:'wdth' 70,'wght' 600;fill:none;stroke:#bec3c6;stroke-width:35;stroke-linecap:butt;stroke-dasharray:none;stroke-opacity:1" d="m 2310.9259,-1636.0594 h -536.887" id="path2088"/>
      <path style="font-variation-settings:'wdth' 70,'wght' 600;fill:none;stroke:#bec3c6;stroke-width:35;stroke-linecap:butt;stroke-dasharray:none;stroke-opacity:1" d="m 2310.9259,-1081.3455 h -536.887" id="path2089"/>
      <path style="font-variation-settings:'wdth' 70,'wght' 600;fill:none;stroke:#bec3c6;stroke-width:35;stroke-linecap:butt;stroke-dasharray:none;stroke-opacity:1" d="M 1774.0389,-912.24332 V -1360.2434" id="path2090"/>
      <path style="font-variation-settings:'wdth' 70,'wght' 600;fill:none;stroke:#bec3c6;stroke-width:35;stroke-linecap:butt;stroke-dasharray:none;stroke-opacity:1" d="M 1186.6396,-159.19292 V 1038.9651" id="path2092"/>
      <path style="font-variation-settings:'wdth' 70,'wght' 600;fill:none;stroke:#bec3c6;stroke-width:35;stroke-linecap:butt;stroke-dasharray:none;stroke-opacity:1" d="M 953.57054,-5182.8862 H 103.81119" id="path2093"/>
      <path style="font-variation-settings:'wdth' 70,'wght' 600;fill:none;stroke:#bec3c6;stroke-width:35;stroke-linecap:butt;stroke-dasharray:none;stroke-opacity:1" d="M 953.57054,-4907.6744 H 103.81119" id="path2094"/>
      <path style="font-variation-settings:'wdth' 70,'wght' 600;fill:none;stroke:#bec3c6;stroke-width:35;stroke-linecap:butt;stroke-dasharray:none;stroke-opacity:1" d="M 953.57054,-2046.6409 H 920.27383" id="path2095"/>
      <path style="font-variation-settings:'wdth' 70,'wght' 600;fill:none;stroke:#bec3c6;stroke-width:35;stroke-linecap:butt;stroke-dasharray:none;stroke-opacity:1" d="m 1633.0281,-3673.1083 h -41.0107" id="path2096"/>
      <path style="font-variation-settings:'wdth' 70,'wght' 600;fill:none;stroke:#bec3c6;stroke-width:10;stroke-linecap:butt;stroke-dasharray:none;stroke-opacity:1" d="m 1948.3388,-2373.3116 -174.2999,-1e-4" id="path2098"/>
      <path style="font-variation-settings:'wdth' 70,'wght' 600;fill:none;stroke:#bec3c6;stroke-width:10;stroke-linecap:butt;stroke-dasharray:none;stroke-opacity:1" d="M 2310.9259,-2373.3117 H 2178.626" id="path2099"/>
      <path style="font-variation-settings:'wdth' 70,'wght' 600;fill:none;stroke:#bec3c6;stroke-width:10;stroke-linecap:butt;stroke-dasharray:none;stroke-opacity:1" d="M 1948.3388,-1992.8207 H 1774.0389" id="path2100"/>
      <path style="font-variation-settings:'wdth' 70,'wght' 600;fill:none;stroke:#bec3c6;stroke-width:10;stroke-linecap:butt;stroke-dasharray:none;stroke-opacity:1" d="M 2310.9259,-1992.8207 H 2178.626" id="path2101"/>
      <path style="font-variation-settings:'wdth' 70,'wght' 600;fill:none;stroke:#bec3c6;stroke-width:10;stroke-linecap:butt;stroke-dasharray:none;stroke-opacity:1" d="m 2063.4824,-2373.3116 v 380.4909" id="path2102"/>
      <path style="font-variation-settings:'wdth' 70,'wght' 600;fill:none;stroke:#bec3c6;stroke-width:10;stroke-linecap:butt;stroke-dasharray:none;stroke-opacity:1" d="m 2078.626,-2373.3117 h -30.2872" id="path2104"/>
      <path style="font-variation-settings:'wdth' 70,'wght' 600;fill:none;stroke:#bec3c6;stroke-width:10;stroke-linecap:butt;stroke-dasharray:none;stroke-opacity:1" d="m 2078.626,-1992.8207 h -30.2872" id="path2106"/>
      <path style="font-variation-settings:'wdth' 70,'wght' 600;fill:none;stroke:#bec3c6;stroke-width:35;stroke-linecap:butt;stroke-dasharray:none;stroke-opacity:1" d="m 1633.0281,-3265.5028 h -41.0107" id="path2114"/>
    </g>
    <g id="icons_-1" transform="matrix(0.02439371,0,0,0.02439371,-0.02443957,51.489201)" style="display:inline">
      <g id="g2040" style="display:inline;filter:url(#filter65-0)" transform="matrix(0.98394638,0,0,0.98394638,-950.67522,3413.9088)">
        <rect style="font-variation-settings:'wdth' 70,'wght' 600;fill:none;fill-opacity:1;stroke:#d6d7de;stroke-width:4.78791;stroke-linejoin:miter;stroke-dasharray:none;stroke-opacity:1" id="rect2024" width="95.212135" height="95.212151" x="2405.0667" y="979.80487" ry="9.1410179"/>
        <path d="m 2427.7505,1062.6135 h 12.6169 v -23.8318 h 6.2306 v -17.757 c 0,-2.6337 -0.8992,-4.8497 -2.6976,-6.6481 -1.7985,-1.7985 -4.0665,-2.6977 -6.804,-2.6977 h -6.2306 c -2.7375,0 -4.9794,0.8992 -6.7258,2.6977 -1.7466,1.7984 -2.6199,4.0144 -2.6199,6.6481 v 17.757 h 6.2304 z m 6.1958,-54.9845 c 2.1478,0 3.9626,-0.7033 5.4445,-2.1098 1.4819,-1.4064 2.2228,-3.2356 2.2228,-5.4875 0,-2.148 -0.7292,-3.93697 -2.1877,-5.3669 -1.4583,-1.42987 -3.2615,-2.1448 -5.4096,-2.1448 -2.1481,0 -3.937,0.70327 -5.3669,2.1098 -1.4299,1.4064 -2.1449,3.18367 -2.1449,5.3318 0,2.2518 0.7033,4.0926 2.11,5.5225 1.4064,1.4299 3.1837,2.1449 5.3318,2.1449 z m 28.3838,9.9689 h 20.0934 l -9.9688,-16.1994 z m 10.1246,35.6697 9.9688,-16.1993 h -20.0934 z" id="path2040" style="fill:#d5d6dd;fill-opacity:1;stroke-width:0;stroke-dasharray:none"/>
      </g>
      <g id="g2041" style="display:inline;filter:url(#filter65-0)" transform="matrix(0.98394638,0,0,0.98394638,-1125.3152,4161.6056)">
        <rect style="font-variation-settings:'wdth' 70,'wght' 600;fill:none;fill-opacity:1;stroke:#d6d7de;stroke-width:4.78791;stroke-linejoin:miter;stroke-dasharray:none;stroke-opacity:1" id="rect2041" width="95.212135" height="95.212151" x="2405.0667" y="979.80487" ry="9.1410179"/>
        <path d="m 2427.7505,1062.6135 h 12.6169 v -23.8318 h 6.2306 v -17.757 c 0,-2.6337 -0.8992,-4.8497 -2.6976,-6.6481 -1.7985,-1.7985 -4.0665,-2.6977 -6.804,-2.6977 h -6.2306 c -2.7375,0 -4.9794,0.8992 -6.7258,2.6977 -1.7466,1.7984 -2.6199,4.0144 -2.6199,6.6481 v 17.757 h 6.2304 z m 6.1958,-54.9845 c 2.1478,0 3.9626,-0.7033 5.4445,-2.1098 1.4819,-1.4064 2.2228,-3.2356 2.2228,-5.4875 0,-2.148 -0.7292,-3.93697 -2.1877,-5.3669 -1.4583,-1.42987 -3.2615,-2.1448 -5.4096,-2.1448 -2.1481,0 -3.937,0.70327 -5.3669,2.1098 -1.4299,1.4064 -2.1449,3.18367 -2.1449,5.3318 0,2.2518 0.7033,4.0926 2.11,5.5225 1.4064,1.4299 3.1837,2.1449 5.3318,2.1449 z m 28.3838,9.9689 h 20.0934 l -9.9688,-16.1994 z m 10.1246,35.6697 9.9688,-16.1993 h -20.0934 z" id="path2041" style="fill:#d5d6dd;fill-opacity:1;stroke-width:0;stroke-dasharray:none"/>
      </g>
      <g id="g2042" style="display:inline;filter:url(#filter65-0)" transform="matrix(0.98394638,0,0,0.98394638,-922.62638,4161.6056)">
        <rect style="font-variation-settings:'wdth' 70,'wght' 600;fill:none;fill-opacity:1;stroke:#d6d7de;stroke-width:4.78791;stroke-linejoin:miter;stroke-dasharray:none;stroke-opacity:1" id="rect2042" width="95.212135" height="95.212151" x="2405.0667" y="979.80487" ry="9.1410179"/>
        <path d="m 2427.7505,1062.6135 h 12.6169 v -23.8318 h 6.2306 v -17.757 c 0,-2.6337 -0.8992,-4.8497 -2.6976,-6.6481 -1.7985,-1.7985 -4.0665,-2.6977 -6.804,-2.6977 h -6.2306 c -2.7375,0 -4.9794,0.8992 -6.7258,2.6977 -1.7466,1.7984 -2.6199,4.0144 -2.6199,6.6481 v 17.757 h 6.2304 z m 6.1958,-54.9845 c 2.1478,0 3.9626,-0.7033 5.4445,-2.1098 1.4819,-1.4064 2.2228,-3.2356 2.2228,-5.4875 0,-2.148 -0.7292,-3.93697 -2.1877,-5.3669 -1.4583,-1.42987 -3.2615,-2.1448 -5.4096,-2.1448 -2.1481,0 -3.937,0.70327 -5.3669,2.1098 -1.4299,1.4064 -2.1449,3.18367 -2.1449,5.3318 0,2.2518 0.7033,4.0926 2.11,5.5225 1.4064,1.4299 3.1837,2.1449 5.3318,2.1449 z m 28.3838,9.9689 h 20.0934 l -9.9688,-16.1994 z m 10.1246,35.6697 9.9688,-16.1993 h -20.0934 z" id="path2042" style="fill:#d5d6dd;fill-opacity:1;stroke-width:0;stroke-dasharray:none"/>
      </g>
      <path d="m 1920.704,5867.9538 v -31.8653 h -10.1036 v -32.2539 q 0,-3.5621 2.5583,-6.1204 2.5583,-2.5583 6.1205,-2.5583 h 19.9482 q 3.5621,0 6.1204,2.5583 2.5583,2.5583 2.5583,6.1204 v 32.2539 h -10.1036 v 31.8653 z m 8.5596,-82.6425 q -3.6891,0 -6.1891,-2.5544 -2.5,-2.5545 -2.5,-6.114 0,-3.6891 2.4896,-6.1891 2.4899,-2.5 6.1788,-2.5 3.6891,0 6.1891,2.4896 2.5,2.4898 2.5,6.1788 0,3.5596 -2.4896,6.1244 -2.4897,2.5647 -6.1788,2.5647 z" id="path2044" style="display:inline;fill:#fff;fill-opacity:.798742;stroke-width:.129534"/>
      <path d="m 1920.1858,5664.5012 v -30.0518 h -14.7668 l 14.2098,-39.4459 q 1.121,-2.8983 3.8366,-4.5888 2.7155,-1.6907 5.7878,-1.6907 3.0723,0 5.7878,1.6907 2.7156,1.6905 3.8543,4.5778 l 14.1922,39.4569 h -14.7668 v 30.0518 z m 9.0778,-82.6425 q -3.6892,0 -6.1892,-2.5504 -2.5,-2.5504 -2.5,-6.118 0,-3.6891 2.4897,-6.1891 2.4899,-2.5 6.1787,-2.5 3.6892,0 6.1892,2.4896 2.5,2.4898 2.5,6.114 0,3.6244 -2.4897,6.1892 -2.4896,2.5647 -6.1787,2.5647 z" id="path2045" style="display:inline;fill:#fff;fill-opacity:.803459;stroke-width:.129534"/>
    </g>
    <path id="path453" d="m 352.82868,154.10988 v -62.592 h 14.112 v 25.632 h 0.384 l 18.624,-25.632 h 15.552 l -18.912,24.96 22.368,37.632 h -15.456 l -15.264,-26.4 -7.296,9.6 v 16.8 z m 78.52803,1.152 q -4.416,0 -8.544,-1.728 -4.128,-1.728 -7.392,-5.376 -3.264,-3.648 -5.184,-9.312 -1.92,-5.76 -1.92,-13.824 0,-8.544 2.016,-14.784 2.016,-6.24 5.472,-10.272 3.456,-4.032 7.872,-5.952 4.416,-2.016 9.312,-2.016 6.048,0 10.464,2.208 4.416,2.112 7.296,5.088 l -7.392,8.448 q -1.632,-1.728 -4.224,-2.976 -2.592,-1.344 -5.28,-1.344 -3.456,0 -6.432,2.016 -2.88,2.016 -4.608,6.816 -1.632,4.704 -1.632,12.768 0,7.584 1.344,11.904 1.44,4.224 3.744,6.048 2.304,1.728 4.8,1.728 2.112,0 3.84,-1.056 1.728,-1.056 2.784,-3.168 1.056,-2.208 1.056,-5.664 0,-3.264 -1.056,-5.184 -1.056,-1.92 -2.88,-2.784 -1.728,-0.864 -4.032,-0.864 -2.4,0 -4.992,1.44 -2.496,1.44 -4.512,5.088 l -0.672,-9.216 q 2.4,-3.552 6.144,-5.376 3.744,-1.92 6.72,-1.92 5.184,0 9.312,2.016 4.128,2.016 6.432,6.24 2.4,4.128 2.4,10.56 0,6.336 -2.784,10.944 -2.688,4.608 -7.296,7.104 -4.608,2.4 -10.176,2.4 z m 47.42399,0 q -4.992,0 -9.024,-1.152 -3.936,-1.152 -7.008,-3.072 -3.072,-1.92 -5.472,-4.32 l 6.336,-8.928 q 2.784,2.496 6.048,4.32 3.264,1.728 7.104,1.728 3.072,0 5.376,-1.056 2.304,-1.152 3.552,-3.264 1.344,-2.112 1.344,-5.184 0,-4.608 -2.688,-7.008 -2.688,-2.4 -6.912,-2.4 -2.592,0 -4.416,0.672 -1.824,0.672 -4.608,2.4 l -6.336,-4.032 1.728,-30.816 h 34.56 v 11.904 h -22.368 l -1.056,11.424 q 1.824,-0.768 3.36,-1.056 1.536,-0.384 3.456,-0.384 5.28,0 9.696,2.016 4.416,2.016 7.008,6.24 2.688,4.224 2.688,10.656 0,6.816 -3.168,11.616 -3.072,4.704 -8.16,7.2 -5.088,2.496 -11.04,2.496 z m -92.16009,-121.152 v -62.592 h 14.784 l 16.032,30.8159997 q 1.728,3.168 3.168,6.816 1.536,3.5520003 2.976,7.2960003 h 0.384 q -0.48,-5.088 -1.152,-11.1360003 -0.672,-6.04799996 -0.672,-11.616 V -28.48212 h 13.536 v 62.592 h -14.784 l -16.032,-30.8160003 q -1.632,-3.16799996 -3.264,-6.816 -1.536,-3.648 -2.976,-7.2959997 h -0.384 q 0.576,5.1839997 1.248,11.23199974 0.672,5.95199996 0.672,11.52000026 v 22.176 z m 63.84009,0 v -62.592 h 14.112 v 62.592 z m 711.5724,7928.68092 v -125.184 h 28.224 v 51.264 h 0.768 l 37.248,-51.264 h 31.104 l -37.824,49.92 44.736,75.264 h -30.912 l -30.528,-52.8 -14.592,19.2 v 33.6 z m 149.7601,2.304 q -9.792,0 -17.856,-2.304 -7.872,-2.112 -14.016,-5.952 -6.144,-3.84 -10.56,-9.024 l 13.056,-17.856 q 5.568,5.376 12.288,8.832 6.72,3.456 14.4,3.456 8.832,0 14.208,-3.648 5.568,-3.84 5.568,-10.752 0,-5.376 -2.688,-9.216 -2.688,-4.032 -9.792,-6.144 -6.912,-2.112 -20.352,-2.112 v -19.968 q 10.944,0 17.28,-2.112 6.336,-2.112 8.832,-5.76 2.688,-3.648 2.688,-8.448 0,-6.528 -4.032,-9.984 -3.84,-3.456 -10.944,-3.456 -6.528,0 -11.904,2.88 -5.184,2.688 -10.944,7.872 l -14.208,-17.28 q 8.448,-7.296 17.856,-11.328 9.408,-4.224 20.544,-4.224 12.48,0 21.888,4.032 9.6,3.84 14.784,11.328 5.376,7.296 5.376,18.048 0,9.408 -5.376,16.128 -5.184,6.72 -14.976,10.944 v 0.768 q 6.912,2.112 12.48,6.144 5.568,3.84 8.64,9.792 3.072,5.952 3.072,13.824 0,11.328 -6.336,19.392 -6.144,7.872 -16.512,12.096 -10.176,4.032 -22.464,4.032 z m 68.16,-2.304 v -22.848 h 26.496 v -70.464 h -22.848 v -17.472 q 9.984,-1.92 16.896,-4.608 7.104,-2.688 13.44,-6.528 h 20.736 v 99.072 h 22.848 v 22.848 z m -150.3362,-240 v -125.184 h 29.568 l 32.064,61.632 q 3.456,6.336 6.336,13.632 3.072,7.104 5.952,14.592 h 0.768 q -0.96,-10.176 -2.304,-22.272 -1.344,-12.096 -1.344,-23.232 v -44.352 h 27.072 v 125.184 h -29.568 l -32.064,-61.632 q -3.264,-6.336 -6.528,-13.632 -3.072,-7.296 -5.952,-14.592 h -0.768 q 1.152,10.368 2.496,22.464 1.344,11.904 1.344,23.04 v 44.352 z m 127.6802,0 v -125.184 h 28.224 v 125.184 z M -260.04989,6841.6866 v -126.132 h 28.01191 v 51.6522 h 0.76223 l 36.96808,-51.6522 h 30.87026 l -37.53976,50.298 44.39981,75.834 h -30.6797 l -30.29858,-53.1999 -14.48234,19.3454 v 33.8545 z m 152.63634,2.3214 q -19.43683,0 -31.44193,-16.4436 -11.81455,-16.4436 -11.81455,-47.7831 0,-31.533 11.81455,-47.3962 12.0051,-15.8633 31.44193,-15.8633 19.436816,0 31.251361,16.0567 12.005097,15.8632 12.005097,47.2028 0,31.3395 -12.005097,47.7831 -11.814545,16.4436 -31.251361,16.4436 z m 0,-22.0537 q 4.76392,0 8.575067,-3.4822 3.811143,-3.6756 5.907268,-12.768 2.286687,-9.2858 2.286687,-25.9228 0,-16.8305 -2.286687,-25.7294 -2.096125,-8.8989 -5.907268,-12.1876 -3.811147,-3.2887 -8.575067,-3.2887 -4.76393,0 -8.57507,3.2887 -3.81115,3.2887 -6.09784,12.1876 -2.09613,8.8989 -2.09613,25.7294 0,16.637 2.09613,25.9228 2.28669,9.0924 6.09784,12.768 3.81114,3.4822 8.57507,3.4822 z m 57.357661,19.7323 v -17.6044 q 15.244571,-13.7352 27.059115,-25.7293 12.005098,-11.9942 18.6745977,-22.2472 6.8600629,-10.2531 6.8600629,-18.7651 0,-9.0923 -4.5733753,-13.7352 -4.5733752,-4.8364 -12.5767673,-4.8364 -6.478946,0 -11.814544,3.8691 -5.145045,3.6756 -9.71841,8.7054 l -14.672902,-14.7025 q 8.765625,-10.0596 17.912365,-15.0894 9.337304,-5.0298 22.104634,-5.0298 11.8145346,0 20.770722,4.8364 9.146741,4.8363 14.101232,13.5418 5.145045,8.7054 5.145045,20.5061 0,11.0269 -5.907277,21.6668 -5.716715,10.4465 -15.2445714,20.8931 -9.5278568,10.4465 -20.1990526,21.2799 4.5733654,-0.5804 10.2900795,-0.9673 5.7167141,-0.5803 9.9089731,-0.5803 H 35.123153 v 23.9883 z M -192.97391,6599.8691 v -126.132 h 29.3458 l 31.82304,62.0987 q 3.43003,6.384 6.28839,13.7352 3.04891,7.1578 5.90727,14.7025 h 0.76223 q -0.95278,-10.253 -2.28669,-22.4406 -1.3339,-12.1876 -1.3339,-23.408 v -44.6878 h 26.868554 v 126.132 h -29.345794 l -31.82304,-62.0988 q -3.23948,-6.3839 -6.47895,-13.7352 -3.04891,-7.3512 -5.90727,-14.7025 h -0.76222 q 1.14334,10.4465 2.47724,22.6341 1.33389,11.9942 1.33389,23.2145 v 44.6879 z m 126.720664,0 v -126.132 h 28.011901 v 126.132 z M 132.38052,5347.5534 v -41.728 h 9.408 v 17.088 h 0.256 l 12.416,-17.088 h 10.368 l -12.608,16.64 14.912,25.088 h -10.304 l -10.176,-17.6 -4.864,6.4 v 11.2 z m 51.26402,0.768 q -6.528,0 -10.56,-5.44 -3.968,-5.44 -3.968,-15.808 0,-10.432 3.968,-15.68 4.032,-5.248 10.56,-5.248 6.528,0 10.496,5.312 4.032,5.248 4.032,15.616 0,10.368 -4.032,15.808 -3.968,5.44 -10.496,5.44 z m 0,-7.296 q 1.6,0 2.88,-1.152 1.28,-1.216 1.984,-4.224 0.768,-3.072 0.768,-8.576 0,-5.568 -0.768,-8.512 -0.704,-2.944 -1.984,-4.032 -1.28,-1.088 -2.88,-1.088 -1.6,0 -2.88,1.088 -1.28,1.088 -2.048,4.032 -0.704,2.944 -0.704,8.512 0,5.504 0.704,8.576 0.768,3.008 2.048,4.224 1.28,1.152 2.88,1.152 z m 35.71199,6.528 v -23.488 q 0,-1.92 0.128,-4.544 0.192,-2.624 0.256,-4.544 h -0.256 q -0.768,1.664 -1.6,3.392 -0.832,1.664 -1.728,3.456 l -5.376,8.832 h 22.016 v 7.168 h -31.04 v -6.464 l 14.848,-24.448 h 11.52 v 40.64 z m -64.44806,-80 v -41.728 h 9.856 l 10.688,20.544 q 1.152,2.112 2.112,4.544 1.024,2.368 1.984,4.864 h 0.256 q -0.32,-3.392 -0.768,-7.424 -0.448,-4.032 -0.448,-7.744 v -14.784 h 9.024 v 41.728 h -9.856 l -10.688,-20.544 q -1.088,-2.112 -2.176,-4.544 -1.024,-2.432 -1.984,-4.864 h -0.256 q 0.384,3.456 0.832,7.488 0.448,3.968 0.448,7.68 v 14.784 z m 42.56006,0 v -41.728 h 9.408 v 41.728 z m -513.91967,110.24 v -62.592 h 14.112 v 25.632 h 0.384 l 18.624,-25.632 h 15.552 l -18.912,24.96 22.368,37.632 h -15.456 l -15.264,-26.4 -7.296,9.6 v 16.8 z m 76.89603,1.152 q -9.792,0 -15.84,-8.16 -5.952,-8.16 -5.952,-23.712 0,-15.648 5.952,-23.52 6.048,-7.872 15.84,-7.872 9.792,0 15.744,7.968 6.048,7.872 6.048,23.424 0,15.552 -6.048,23.712 -5.952,8.16 -15.744,8.16 z m 0,-10.944 q 2.4,0 4.32,-1.728 1.92,-1.824 2.976,-6.336 1.152,-4.608 1.152,-12.864 0,-8.352 -1.152,-12.768 -1.056,-4.416 -2.976,-6.048 -1.92,-1.632 -4.32,-1.632 -2.4,0 -4.32,1.632 -1.92,1.632 -3.072,6.048 -1.056,4.416 -1.056,12.768 0,8.256 1.056,12.864 1.152,4.512 3.072,6.336 1.92,1.728 4.32,1.728 z m 49.05599,10.944 q -4.992,0 -9.024,-1.152 -3.936,-1.152 -7.008,-3.072 -3.072,-1.92 -5.472,-4.32 l 6.336,-8.928 q 2.784,2.496 6.048,4.32 3.264,1.728 7.104,1.728 3.072,0 5.376,-1.056 2.304,-1.152 3.552,-3.264 1.344,-2.112 1.344,-5.184 0,-4.608 -2.688,-7.008 -2.688,-2.4 -6.912,-2.4 -2.592,0 -4.416,0.672 -1.824,0.672 -4.608,2.4 l -6.336,-4.032 1.728,-30.816 h 34.56 v 11.904 h -22.368 l -1.056,11.424 q 1.824,-0.768 3.36,-1.056 1.536,-0.384 3.456,-0.384 5.28,0 9.696,2.016 4.416,2.016 7.008,6.24 2.688,4.224 2.688,10.656 0,6.816 -3.168,11.616 -3.072,4.704 -8.16,7.2 -5.088,2.496 -11.04,2.496 z m -92.16009,-121.152 v -62.592 h 14.784 l 16.032,30.816 q 1.728,3.168 3.168,6.816 1.536,3.552 2.976,7.296 h 0.384 q -0.48,-5.088 -1.152,-11.136 -0.672,-6.048 -0.672,-11.616 v -22.176 h 13.536 v 62.592 h -14.784 l -16.032,-30.816 q -1.632,-3.168 -3.264,-6.816 -1.536,-3.648 -2.976,-7.296 h -0.384 q 0.576,5.184 1.248,11.232 0.672,5.952 0.672,11.52 v 22.176 z m 63.84009,0 v -62.592 h 14.112 v 62.592 z m 1545.25592,942.2888 v -62.592 h 14.112 v 25.632 h 0.384 l 18.624,-25.632 h 15.552 l -18.912,24.96 22.368,37.632 h -15.456 l -15.264,-26.4 -7.296,9.6 v 16.8 z m 74.88,1.152 q -4.896,0 -8.928,-1.152 -3.936,-1.056 -7.008,-2.976 -3.072,-1.92 -5.28,-4.512 l 6.528,-8.928 q 2.784,2.688 6.144,4.416 3.36,1.728 7.2,1.728 4.416,0 7.104,-1.824 2.784,-1.92 2.784,-5.376 0,-2.688 -1.344,-4.608 -1.344,-2.016 -4.896,-3.072 -3.456,-1.056 -10.176,-1.056 v -9.984 q 5.472,0 8.64,-1.056 3.168,-1.056 4.416,-2.88 1.344,-1.824 1.344,-4.224 0,-3.264 -2.016,-4.992 -1.92,-1.728 -5.472,-1.728 -3.264,0 -5.952,1.44 -2.592,1.344 -5.472,3.936 l -7.104,-8.64 q 4.224,-3.648 8.928,-5.664 4.704,-2.112 10.272,-2.112 6.24,0 10.944,2.016 4.8,1.92 7.392,5.664 2.688,3.648 2.688,9.024 0,4.704 -2.688,8.064 -2.592,3.36 -7.488,5.472 v 0.384 q 3.456,1.056 6.24,3.072 2.784,1.92 4.32,4.896 1.536,2.976 1.536,6.912 0,5.664 -3.168,9.696 -3.072,3.936 -8.256,6.048 -5.088,2.016 -11.232,2.016 z m 30.912,-1.152 v -8.736 q 7.68,-6.816 13.632,-12.768 6.048,-5.952 9.408,-11.04 3.456,-5.088 3.456,-9.312 0,-4.512 -2.304,-6.816 -2.304,-2.4 -6.336,-2.4 -3.264,0 -5.952,1.92 -2.592,1.824 -4.896,4.32 l -7.392,-7.296 q 4.416,-4.992 9.024,-7.488 4.704,-2.496 11.136,-2.496 5.952,0 10.464,2.4 4.608,2.4 7.104,6.72 2.592,4.32 2.592,10.176 0,5.472 -2.976,10.752 -2.88,5.184 -7.68,10.368 -4.8,5.184 -10.176,10.56 2.304,-0.288 5.184,-0.48 2.88,-0.288 4.992,-0.288 h 13.632 v 11.904 z m -72.0001,-120 v -62.592 h 14.784 l 16.032,30.816 q 1.728,3.168 3.168,6.816 1.536,3.552 2.976,7.296 h 0.384 q -0.48,-5.088 -1.152,-11.136 -0.672,-6.048 -0.672,-11.616 v -22.176 h 13.536 v 62.592 h -14.784 l -16.032,-30.816 q -1.632,-3.168 -3.264,-6.816 -1.536,-3.648 -2.976,-7.296 h -0.384 q 0.576,5.184 1.248,11.232 0.672,5.952 0.672,11.52 v 22.176 z m 63.8401,0 v -62.592 h 14.112 v 62.592 z m 58.2509,-838.8301 v -41.728 h 9.408 v 17.088 h 0.2559 l 12.416,-17.088 h 10.3681 l -12.608,16.64 14.9119,25.088 h -10.3039 l -10.1761,-17.6 -4.8639,6.4 v 11.2 z m 49.92,0.768 q -3.264,0 -5.952,-0.768 -2.624,-0.704 -4.672,-1.984 -2.048,-1.28 -3.52,-3.008 l 4.352,-5.952 q 1.856,1.792 4.096,2.944 2.24,1.152 4.8,1.152 2.944,0 4.736,-1.216 1.856,-1.28 1.856,-3.584 0,-1.792 -0.896,-3.072 -0.896,-1.344 -3.264,-2.048 -2.304,-0.704 -6.784,-0.704 v -6.656 q 3.648,0 5.76,-0.704 2.112,-0.704 2.944,-1.92 0.896,-1.216 0.896,-2.816 0,-2.176 -1.344,-3.328 -1.28,-1.152 -3.648,-1.152 -2.176,0 -3.968,0.96 -1.728,0.896 -3.648,2.624 l -4.736,-5.76 q 2.816,-2.432 5.952,-3.776 3.136,-1.408 6.848,-1.408 4.16,0 7.296,1.344 3.2,1.28 4.928,3.776 1.792,2.432 1.792,6.016 0,3.136 -1.792,5.376 -1.728,2.24 -4.992,3.648 v 0.256 q 2.304,0.704 4.16,2.048 1.856,1.28 2.88,3.264 1.024,1.984 1.024,4.608 0,3.776 -2.112,6.464 -2.048,2.624 -5.504,4.032 -3.392,1.344 -7.488,1.344 z m 34.048,0 q -3.328,0 -6.016,-0.768 -2.624,-0.768 -4.672,-2.048 -2.048,-1.28 -3.648,-2.88 l 4.224,-5.952 q 1.856,1.664 4.032,2.88 2.176,1.152 4.736,1.152 2.048,0 3.584,-0.704 1.536,-0.768 2.368,-2.176 0.896,-1.408 0.896,-3.456 0,-3.072 -1.792,-4.672 -1.792,-1.6 -4.608,-1.6 -1.728,0 -2.944,0.448 -1.216,0.448 -3.072,1.6 l -4.224,-2.688 1.152,-20.544 h 23.04 v 7.936 h -14.912 l -0.704,7.616 q 1.216,-0.512 2.24,-0.704 1.024,-0.256 2.304,-0.256 3.52,0 6.464,1.344 2.944,1.344 4.672,4.16 1.792,2.816 1.792,7.104 0,4.544 -2.112,7.744 -2.048,3.136 -5.44,4.8 -3.392,1.664 -7.36,1.664 z m -61.4401,-80.768 v -41.728 h 9.856 l 10.688,20.544 q 1.152,2.112 2.112,4.544 1.024,2.368 1.984,4.864 h 0.256 q -0.32,-3.392 -0.768,-7.424 -0.448,-4.032 -0.448,-7.744 v -14.784 h 9.024 v 41.728 h -9.856 l -10.688,-20.544 q -1.088,-2.112 -2.176,-4.544 -1.024,-2.432 -1.984,-4.864 h -0.256 q 0.384,3.456 0.832,7.488 0.448,3.968 0.448,7.68 v 14.784 z m 42.5601,0 v -41.728 h 9.408 v 41.728 z m -65.8561,287.7455 v -41.728 h 9.4081 v 17.088 h 0.2559 l 12.416,-17.088 h 10.3681 l -12.608,16.64 14.9119,25.088 h -10.3039 l -10.1761,-17.6 -4.8639,6.4 v 11.2 z m 49.9201,0.768 q -3.264,0 -5.952,-0.768 -2.624,-0.704 -4.672,-1.984 -2.048,-1.28 -3.52,-3.008 l 4.352,-5.952 q 1.856,1.792 4.096,2.944 2.24,1.152 4.8,1.152 2.944,0 4.736,-1.216 1.856,-1.28 1.856,-3.584 0,-1.792 -0.896,-3.072 -0.896,-1.344 -3.264,-2.048 -2.304,-0.704 -6.784,-0.704 v -6.656 q 3.648,0 5.76,-0.704 2.112,-0.704 2.944,-1.92 0.896,-1.216 0.896,-2.816 0,-2.176 -1.344,-3.328 -1.28,-1.152 -3.648,-1.152 -2.176,0 -3.968,0.96 -1.728,0.896 -3.648,2.624 l -4.736,-5.76 q 2.816,-2.432 5.952,-3.776 3.136,-1.408 6.848,-1.408 4.16,0 7.296,1.344 3.2,1.28 4.928,3.776 1.792,2.432 1.792,6.016 0,3.136 -1.792,5.376 -1.728,2.24 -4.992,3.648 v 0.256 q 2.304,0.704 4.16,2.048 1.856,1.28 2.88,3.264 1.024,1.984 1.024,4.608 0,3.776 -2.112,6.464 -2.048,2.624 -5.504,4.032 -3.392,1.344 -7.488,1.344 z m 37.056,-0.768 v -23.488 q 0,-1.92 0.128,-4.544 0.192,-2.624 0.256,-4.544 h -0.256 q -0.768,1.664 -1.6,3.392 -0.832,1.664 -1.728,3.456 l -5.376,8.832 h 22.016 v 7.168 h -31.04 v -6.464 l 14.848,-24.448 h 11.52 v 40.64 z m -64.4481,-80 v -41.728 h 9.856 l 10.688,20.544 q 1.152,2.112 2.112,4.544 1.024,2.368 1.984,4.864 h 0.256 q -0.32,-3.392 -0.768,-7.424 -0.448,-4.032 -0.448,-7.744 v -14.784 h 9.024 v 41.728 h -9.856 l -10.688,-20.544 q -1.088,-2.112 -2.176,-4.544 -1.024,-2.432 -1.984,-4.864 h -0.256 q 0.384,3.456 0.832,7.488 0.448,3.968 0.448,7.68 v 14.784 z m 42.5601,0 v -41.728 h 9.408 v 41.728 z m -220.5869,369.097 v -62.592 h 14.112 v 25.632 h 0.384 l 18.624,-25.632 h 15.552 l -18.912,24.96 22.368,37.632 h -15.456 l -15.264,-26.4 -7.296,9.6 v 16.8 z m 74.88,1.152 q -4.896,0 -8.928,-1.152 -3.936,-1.056 -7.008,-2.976 -3.072,-1.92 -5.28,-4.512 l 6.528,-8.928 q 2.784,2.688 6.144,4.416 3.36,1.728 7.2,1.728 4.416,0 7.104,-1.824 2.784,-1.92 2.784,-5.376 0,-2.688 -1.344,-4.608 -1.344,-2.016 -4.896,-3.072 -3.456,-1.056 -10.176,-1.056 v -9.984 q 5.472,0 8.64,-1.056 3.168,-1.056 4.416,-2.88 1.344,-1.824 1.344,-4.224 0,-3.264 -2.016,-4.992 -1.92,-1.728 -5.472,-1.728 -3.264,0 -5.952,1.44 -2.592,1.344 -5.472,3.936 l -7.104,-8.64 q 4.224,-3.648 8.928,-5.664 4.704,-2.112 10.272,-2.112 6.24,0 10.944,2.016 4.8,1.92 7.392,5.664 2.688,3.648 2.688,9.024 0,4.704 -2.688,8.064 -2.592,3.36 -7.488,5.472 v 0.384 q 3.456,1.056 6.24,3.072 2.784,1.92 4.32,4.896 1.536,2.976 1.536,6.912 0,5.664 -3.168,9.696 -3.072,3.936 -8.256,6.048 -5.088,2.016 -11.232,2.016 z m 50.688,0 q -4.896,0 -8.928,-1.152 -3.936,-1.056 -7.008,-2.976 -3.072,-1.92 -5.28,-4.512 l 6.528,-8.928 q 2.784,2.688 6.144,4.416 3.36,1.728 7.2,1.728 4.416,0 7.104,-1.824 2.784,-1.92 2.784,-5.376 0,-2.688 -1.344,-4.608 -1.344,-2.016 -4.896,-3.072 -3.456,-1.056 -10.176,-1.056 v -9.984 q 5.472,0 8.64,-1.056 3.168,-1.056 4.416,-2.88 1.344,-1.824 1.344,-4.224 0,-3.264 -2.016,-4.992 -1.92,-1.728 -5.472,-1.728 -3.264,0 -5.952,1.44 -2.592,1.344 -5.472,3.936 l -7.104,-8.64 q 4.224,-3.648 8.928,-5.664 4.704,-2.112 10.272,-2.112 6.24,0 10.944,2.016 4.8,1.92 7.392,5.664 2.688,3.648 2.688,9.024 0,4.704 -2.688,8.064 -2.592,3.36 -7.488,5.472 v 0.384 q 3.456,1.056 6.24,3.072 2.784,1.92 4.32,4.896 1.536,2.976 1.536,6.912 0,5.664 -3.168,9.696 -3.072,3.936 -8.256,6.048 -5.088,2.016 -11.232,2.016 z m -91.7761,-121.152 v -62.592 h 14.784 l 16.032,30.816 q 1.728,3.168 3.168,6.816 1.536,3.552 2.976,7.296 h 0.384 q -0.48,-5.088 -1.152,-11.136 -0.672,-6.048 -0.672,-11.616 v -22.176 h 13.536 v 62.592 h -14.784 l -16.032,-30.816 q -1.632,-3.168 -3.264,-6.816 -1.536,-3.648 -2.976,-7.296 h -0.384 q 0.576,5.184 1.248,11.232 0.672,5.952 0.672,11.52 v 22.176 z m 63.8401,0 v -62.592 h 14.112 v 62.592 z m -97.632,-596.9354 v -62.592 h 14.112 v 25.632 h 0.384 l 18.624,-25.632 h 15.552 l -18.912,24.96 22.368,37.632 h -15.456 l -15.264,-26.4 -7.296,9.6 v 16.8 z m 74.88,1.152 q -4.896,0 -8.928,-1.152 -3.936,-1.056 -7.008,-2.976 -3.072,-1.92 -5.28,-4.512 l 6.528,-8.928 q 2.784,2.688 6.144,4.416 3.36,1.728 7.2,1.728 4.416,0 7.104,-1.824 2.784,-1.92 2.784,-5.376 0,-2.688 -1.344,-4.608 -1.344,-2.016 -4.896,-3.072 -3.456,-1.056 -10.176,-1.056 v -9.984 q 5.472,0 8.64,-1.056 3.168,-1.056 4.416,-2.88 1.344,-1.824 1.344,-4.224 0,-3.264 -2.016,-4.992 -1.92,-1.728 -5.472,-1.728 -3.264,0 -5.952,1.44 -2.592,1.344 -5.472,3.936 l -7.104,-8.64 q 4.224,-3.648 8.928,-5.664 4.704,-2.112 10.272,-2.112 6.24,0 10.944,2.016 4.8,1.92 7.392,5.664 2.688,3.648 2.688,9.024 0,4.704 -2.688,8.064 -2.592,3.36 -7.488,5.472 v 0.384 q 3.456,1.056 6.24,3.072 2.784,1.92 4.32,4.896 1.536,2.976 1.536,6.912 0,5.664 -3.168,9.696 -3.072,3.936 -8.256,6.048 -5.088,2.016 -11.232,2.016 z m 54.336,0 q -4.416,0 -8.544,-1.728 -4.128,-1.728 -7.392,-5.376 -3.264,-3.648 -5.184,-9.312 -1.92,-5.76 -1.92,-13.824 0,-8.544 2.016,-14.784 2.016,-6.24 5.472,-10.272 3.456,-4.032 7.872,-5.952 4.416,-2.016 9.312,-2.016 6.048,0 10.464,2.208 4.416,2.112 7.296,5.088 l -7.392,8.448 q -1.632,-1.728 -4.224,-2.976 -2.592,-1.344 -5.28,-1.344 -3.456,0 -6.432,2.016 -2.88,2.016 -4.608,6.816 -1.632,4.704 -1.632,12.768 0,7.584 1.344,11.904 1.44,4.224 3.744,6.048 2.304,1.728 4.8,1.728 2.112,0 3.84,-1.056 1.728,-1.056 2.784,-3.168 1.056,-2.208 1.056,-5.664 0,-3.264 -1.056,-5.184 -1.056,-1.92 -2.88,-2.784 -1.728,-0.864 -4.032,-0.864 -2.4,0 -4.992,1.44 -2.496,1.44 -4.512,5.088 l -0.672,-9.216 q 2.4,-3.552 6.144,-5.376 3.744,-1.92 6.72,-1.92 5.184,0 9.312,2.016 4.128,2.016 6.432,6.24 2.4,4.128 2.4,10.56 0,6.336 -2.784,10.944 -2.688,4.608 -7.296,7.104 -4.608,2.4 -10.176,2.4 z m -95.4241,-121.152 v -62.592 h 14.784 l 16.032,30.816 q 1.728,3.168 3.168,6.816 1.536,3.552 2.976,7.296 h 0.384 q -0.48,-5.088 -1.152,-11.136 -0.672,-6.048 -0.672,-11.616 v -22.176 h 13.536 v 62.592 h -14.784 l -16.032,-30.816 q -1.632,-3.168 -3.264,-6.816 -1.536,-3.648 -2.976,-7.296 h -0.384 q 0.576,5.184 1.248,11.232 0.672,5.952 0.672,11.52 v 22.176 z m 63.8401,0 v -62.592 h 14.112 v 62.592 z m -97.344,-338.8647 v -62.592 h 14.112 v 25.632 h 0.384 l 18.624,-25.632 h 15.552 l -18.912,24.96 22.368,37.632 h -15.456 l -15.264,-26.4 -7.296,9.6 v 16.8 z m 74.88,1.152 q -4.896,0 -8.928,-1.152 -3.936,-1.056 -7.008,-2.976 -3.072,-1.92 -5.28,-4.512 l 6.528,-8.928 q 2.784,2.688 6.144,4.416 3.36,1.728 7.2,1.728 4.416,0 7.104,-1.824 2.784,-1.92 2.784,-5.376 0,-2.688 -1.344,-4.608 -1.344,-2.016 -4.896,-3.072 -3.456,-1.056 -10.176,-1.056 v -9.984 q 5.472,0 8.64,-1.056 3.168,-1.056 4.416,-2.88 1.344,-1.824 1.344,-4.224 0,-3.264 -2.016,-4.992 -1.92,-1.728 -5.472,-1.728 -3.264,0 -5.952,1.44 -2.592,1.344 -5.472,3.936 l -7.104,-8.64 q 4.224,-3.648 8.928,-5.664 4.704,-2.112 10.272,-2.112 6.24,0 10.944,2.016 4.8,1.92 7.392,5.664 2.688,3.648 2.688,9.024 0,4.704 -2.688,8.064 -2.592,3.36 -7.488,5.472 v 0.384 q 3.456,1.056 6.24,3.072 2.784,1.92 4.32,4.896 1.536,2.976 1.536,6.912 0,5.664 -3.168,9.696 -3.072,3.936 -8.256,6.048 -5.088,2.016 -11.232,2.016 z m 41.76,-1.152 q 0.48,-7.584 1.536,-13.92 1.056,-6.432 2.976,-12.192 2.016,-5.76 5.088,-11.328 3.072,-5.568 7.584,-11.616 h -27.36 v -11.904 h 42.432 v 8.64 q -5.376,6.528 -8.832,12.192 -3.36,5.664 -5.184,11.52 -1.824,5.856 -2.688,12.768 -0.864,6.912 -1.344,15.84 z m -82.8481,-120 v -62.592 h 14.784 l 16.032,30.816 q 1.728,3.168 3.168,6.816 1.536,3.552 2.976,7.296 h 0.384 q -0.48,-5.088 -1.152,-11.136 -0.672,-6.048 -0.672,-11.616 v -22.176 h 13.536 v 62.592 h -14.784 l -16.032,-30.816 q -1.632,-3.168 -3.264,-6.816 -1.536,-3.648 -2.976,-7.296 h -0.384 q 0.576,5.184 1.248,11.232 0.672,5.952 0.672,11.52 v 22.176 z m 63.8401,0 v -62.592 h 14.112 v 62.592 z M 1235.33,3682.3078 v -62.592 h 14.112 v 25.632 h 0.384 l 18.624,-25.632 h 15.552 l -18.912,24.96 22.368,37.632 h -15.456 l -15.264,-26.4 -7.296,9.6 v 16.8 z m 74.88,1.152 q -4.896,0 -8.928,-1.152 -3.936,-1.056 -7.008,-2.976 -3.072,-1.92 -5.28,-4.512 l 6.528,-8.928 q 2.784,2.688 6.144,4.416 3.36,1.728 7.2,1.728 4.416,0 7.104,-1.824 2.784,-1.92 2.784,-5.376 0,-2.688 -1.344,-4.608 -1.344,-2.016 -4.896,-3.072 -3.456,-1.056 -10.176,-1.056 v -9.984 q 5.472,0 8.64,-1.056 3.168,-1.056 4.416,-2.88 1.344,-1.824 1.344,-4.224 0,-3.264 -2.016,-4.992 -1.92,-1.728 -5.472,-1.728 -3.264,0 -5.952,1.44 -2.592,1.344 -5.472,3.936 l -7.104,-8.64 q 4.224,-3.648 8.928,-5.664 4.704,-2.112 10.272,-2.112 6.24,0 10.944,2.016 4.8,1.92 7.392,5.664 2.688,3.648 2.688,9.024 0,4.704 -2.688,8.064 -2.592,3.36 -7.488,5.472 v 0.384 q 3.456,1.056 6.24,3.072 2.784,1.92 4.32,4.896 1.536,2.976 1.536,6.912 0,5.664 -3.168,9.696 -3.072,3.936 -8.256,6.048 -5.088,2.016 -11.232,2.016 z m 49.344,0 q -6.048,0 -10.464,-2.208 -4.416,-2.208 -7.392,-5.088 l 7.488,-8.448 q 1.536,1.728 4.128,3.072 2.688,1.248 5.28,1.248 3.648,0 6.432,-2.016 2.88,-2.016 4.512,-6.72 1.728,-4.8 1.728,-12.864 0,-7.584 -1.44,-11.808 -1.344,-4.32 -3.648,-6.048 -2.208,-1.824 -4.8,-1.824 -2.016,0 -3.84,1.056 -1.728,1.056 -2.784,3.168 -1.056,2.112 -1.056,5.664 0,3.168 1.056,5.184 1.056,1.92 2.88,2.784 1.824,0.864 4.128,0.864 2.4,0 4.896,-1.44 2.496,-1.536 4.512,-5.088 l 0.672,9.216 q -2.304,3.36 -6.048,5.376 -3.744,1.92 -6.816,1.92 -5.184,0 -9.312,-2.016 -4.128,-2.016 -6.528,-6.144 -2.304,-4.224 -2.304,-10.656 0,-6.336 2.784,-10.944 2.784,-4.608 7.392,-7.008 4.608,-2.496 10.08,-2.496 4.512,0 8.64,1.728 4.128,1.728 7.296,5.376 3.264,3.648 5.184,9.408 2.016,5.664 2.016,13.728 0,8.544 -2.112,14.784 -2.016,6.24 -5.472,10.272 -3.456,4.032 -7.872,6.048 -4.416,1.92 -9.216,1.92 z m -90.4321,-121.152 v -62.592 h 14.784 l 16.032,30.816 q 1.728,3.168 3.168,6.816 1.536,3.552 2.976,7.296 h 0.384 q -0.48,-5.088 -1.152,-11.136 -0.672,-6.048 -0.672,-11.616 v -22.176 h 13.536 v 62.592 h -14.784 l -16.032,-30.816 q -1.632,-3.168 -3.264,-6.816 -1.536,-3.648 -2.976,-7.296 h -0.384 q 0.576,5.184 1.248,11.232 0.672,5.952 0.672,11.52 v 22.176 z m 63.8401,0 v -62.592 h 14.112 v 62.592 z M -187.54675,2513.5042 v -62.592 h 14.112 v 25.632 h 0.384 l 18.624,-25.632 h 15.552 l -18.912,24.96 22.368,37.632 h -15.456 l -15.264,-26.4 -7.296,9.6 v 16.8 z m 76.89603,1.152 q -9.792,0 -15.84,-8.16 -5.952,-8.16 -5.952,-23.712 0,-15.648 5.952,-23.52 6.048,-7.872 15.84,-7.872 9.792,0 15.744,7.968 6.048,7.872 6.048,23.424 0,15.552 -6.048,23.712 -5.952,8.16 -15.744,8.16 z m 0,-10.944 q 2.4,0 4.32,-1.728 1.92,-1.824 2.976,-6.336 1.152,-4.608 1.152,-12.864 0,-8.352 -1.152,-12.768 -1.056,-4.416 -2.976,-6.048 -1.92,-1.632 -4.32,-1.632 -2.4,0 -4.32,1.632 -1.92,1.632 -3.072,6.048 -1.056,4.416 -1.056,12.768 0,8.256 1.056,12.864 1.152,4.512 3.072,6.336 1.92,1.728 4.32,1.728 z m 50.59199,10.944 q -6.048,0 -10.944,-2.112 -4.8,-2.112 -7.584,-5.856 -2.688,-3.84 -2.688,-8.736 0,-3.744 1.344,-6.432 1.44,-2.784 3.744,-4.896 2.4,-2.112 5.28,-3.648 v -0.384 q -3.456,-2.688 -5.856,-6.144 -2.304,-3.456 -2.304,-8.256 0,-5.184 2.496,-8.928 2.496,-3.84 6.912,-5.856 4.416,-2.016 10.08,-2.016 8.448,0 13.44,4.608 5.088,4.512 5.088,12.096 0,2.88 -1.152,5.472 -1.056,2.496 -2.88,4.512 -1.824,1.92 -3.936,3.36 v 0.384 q 2.88,1.536 5.28,3.744 2.4,2.112 3.84,5.184 1.44,2.976 1.44,7.008 0,4.8 -2.688,8.64 -2.688,3.744 -7.584,6.048 -4.8,2.208 -11.328,2.208 z m 3.84,-36.672 q 1.824,-2.112 2.784,-4.32 0.96,-2.208 0.96,-4.608 0,-2.4 -0.864,-4.128 -0.864,-1.728 -2.592,-2.688 -1.632,-1.056 -3.936,-1.056 -2.784,0 -4.8,1.824 -2.016,1.728 -2.016,5.184 0,2.496 1.344,4.224 1.344,1.728 3.648,3.072 2.4,1.344 5.472,2.496 z m -3.552,26.88 q 2.304,0 4.128,-0.768 1.92,-0.864 2.976,-2.496 1.056,-1.728 1.056,-4.32 0,-2.688 -1.632,-4.416 -1.536,-1.824 -4.512,-3.168 -2.88,-1.44 -6.72,-3.072 -2.016,1.824 -3.36,4.416 -1.344,2.496 -1.344,5.28 0,2.688 1.248,4.608 1.344,1.92 3.456,2.976 2.208,0.96 4.704,0.96 z m -93.98409,-111.36 v -62.592 h 14.784 l 16.032,30.816 q 1.728,3.168 3.168,6.816 1.536,3.552 2.976,7.296 h 0.384 q -0.48,-5.088 -1.152,-11.136 -0.672,-6.048 -0.672,-11.616 v -22.176 h 13.536 v 62.592 h -14.784 l -16.032,-30.816 q -1.632,-3.168 -3.264,-6.816 -1.536,-3.648 -2.976,-7.296 h -0.384 q 0.576,5.184 1.248,11.232 0.672,5.952 0.672,11.52 v 22.176 z m 63.84009,0 v -62.592 h 14.112 v 62.592 z m -171.98403,-340.833 v -125.184 h 28.224 v 51.264 h 0.768 l 37.248,-51.264 h 31.104 l -37.824,49.92 44.736,75.264 h -30.912 l -30.528,-52.8 -14.592,19.2 v 33.6 z m 153.79206,2.304 q -19.584,0 -31.68,-16.32 -11.904,-16.32 -11.904,-47.424 0,-31.296 11.904,-47.04 12.096,-15.744 31.68,-15.744 19.583996,0 31.487996,15.936 12.096,15.744 12.096,46.848 0,31.104 -12.096,47.424 -11.904,16.32 -31.487996,16.32 z m 0,-21.888 q 4.8,0 8.639996,-3.456 3.84,-3.648 5.952,-12.672 2.304,-9.216 2.304,-25.728 0,-16.704 -2.304,-25.536 -2.112,-8.832 -5.952,-12.096 -3.839996,-3.264 -8.639996,-3.264 -4.8,0 -8.64,3.264 -3.84,3.264 -6.144,12.096 -2.112,8.832 -2.112,25.536 0,16.512 2.112,25.728 2.304,9.024 6.144,12.672 3.84,3.456 8.64,3.456 z m 94.655976,21.888 q -12.096,0 -20.928,-4.416 -8.832,-4.416 -14.784,-10.176 l 14.976,-16.896 q 3.072,3.456 8.256,6.144 5.376,2.496 10.56,2.496 7.296,0 12.864,-4.032 5.76,-4.032 9.024,-13.44 3.456,-9.6 3.456,-25.728 0,-15.168 -2.88,-23.616 -2.688,-8.64 -7.296,-12.096 -4.416,-3.648 -9.6,-3.648 -4.032,0 -7.68,2.112 -3.456,2.112 -5.568,6.336 -2.112,4.224 -2.112,11.328 0,6.336 2.112,10.368 2.112,3.84 5.76,5.568 3.648,1.728 8.256,1.728 4.8,0 9.792,-2.88 4.992,-3.072 9.024,-10.176 l 1.344,18.432 q -4.608,6.72 -12.096,10.752 -7.488,3.84 -13.632,3.84 -10.368,0 -18.624,-4.032 -8.256,-4.032 -13.056,-12.288 -4.608,-8.448 -4.608,-21.312 0,-12.672 5.568,-21.888 5.568,-9.216 14.784,-14.016 9.216,-4.992 20.16,-4.992 9.024,0 17.28,3.456 8.256,3.456 14.592,10.752 6.528,7.296 10.368,18.816 4.032,11.328 4.032,27.456 0,17.088 -4.224,29.568 -4.032,12.48 -10.944,20.544 -6.912,8.064 -15.744,12.096 -8.832,3.84 -18.432,3.84 z M -194.3149,1812.6712 v -125.184 h 29.568 l 32.064,61.632 q 3.456,6.336 6.336,13.632 3.072,7.104 5.952,14.592 h 0.768 q -0.96,-10.176 -2.304,-22.272 -1.344,-12.096 -1.344,-23.232 v -44.352 h 27.071996 v 125.184 H -125.7709 l -32.064,-61.632 q -3.264,-6.336 -6.528,-13.632 -3.072,-7.296 -5.952,-14.592 h -0.768 q 1.152,10.368 2.496,22.464 1.344,11.904 1.344,23.04 v 44.352 z m 127.680176,0 v -125.184 h 28.224 v 125.184 z M 132.88731,9041.6467 v -62.592 h 14.112 v 25.632 h 0.384 l 18.624,-25.632 h 15.552 l -18.912,24.96 22.368,37.632 h -15.456 l -15.264,-26.4 -7.296,9.6 v 16.8 z m 76.89603,1.152 q -9.792,0 -15.84,-8.16 -5.952,-8.16 -5.952,-23.712 0,-15.648 5.952,-23.52 6.048,-7.872 15.84,-7.872 9.792,0 15.744,7.968 6.048,7.872 6.048,23.424 0,15.552 -6.048,23.712 -5.952,8.16 -15.744,8.16 z m 0,-10.944 q 2.4,0 4.32,-1.728 1.92,-1.824 2.976,-6.336 1.152,-4.608 1.152,-12.864 0,-8.352 -1.152,-12.768 -1.056,-4.416 -2.976,-6.048 -1.92,-1.632 -4.32,-1.632 -2.4,0 -4.32,1.632 -1.92,1.632 -3.072,6.048 -1.056,4.416 -1.056,12.768 0,8.256 1.056,12.864 1.152,4.512 3.072,6.336 1.92,1.728 4.32,1.728 z m 32.06399,9.792 v -11.424 h 13.248 v -35.232 h -11.424 v -8.736 q 4.992,-0.96 8.448,-2.304 3.552,-1.344 6.72,-3.264 h 10.368 v 49.536 h 11.424 v 11.424 z m -75.16809,-120 v -62.592 h 14.784 l 16.032,30.816 q 1.728,3.168 3.168,6.816 1.536,3.552 2.976,7.296 h 0.384 q -0.48,-5.088 -1.152,-11.136 -0.672,-6.048 -0.672,-11.616 v -22.176 h 13.536 v 62.592 h -14.784 l -16.032,-30.816 q -1.632,-3.168 -3.264,-6.816 -1.536,-3.648 -2.976,-7.296 h -0.384 q 0.576,5.184 1.248,11.232 0.672,5.952 0.672,11.52 v 22.176 z m 63.84009,0 v -62.592 h 14.112 v 62.592 z M 1326.2448,4089.4791 v -62.592 h 14.112 v 25.632 h 0.384 l 18.624,-25.632 h 15.552 l -18.912,24.96 22.368,37.632 h -15.456 l -15.264,-26.4 -7.296,9.6 v 16.8 z m 74.88,1.152 q -4.896,0 -8.928,-1.152 -3.936,-1.056 -7.008,-2.976 -3.072,-1.92 -5.28,-4.512 l 6.528,-8.928 q 2.784,2.688 6.144,4.416 3.36,1.728 7.2,1.728 4.416,0 7.104,-1.824 2.784,-1.92 2.784,-5.376 0,-2.688 -1.344,-4.608 -1.344,-2.016 -4.896,-3.072 -3.456,-1.056 -10.176,-1.056 v -9.984 q 5.472,0 8.64,-1.056 3.168,-1.056 4.416,-2.88 1.344,-1.824 1.344,-4.224 0,-3.264 -2.016,-4.992 -1.92,-1.728 -5.472,-1.728 -3.264,0 -5.952,1.44 -2.592,1.344 -5.472,3.936 l -7.104,-8.64 q 4.224,-3.648 8.928,-5.664 4.704,-2.112 10.272,-2.112 6.24,0 10.944,2.016 4.8,1.92 7.392,5.664 2.688,3.648 2.688,9.024 0,4.704 -2.688,8.064 -2.592,3.36 -7.488,5.472 v 0.384 q 3.456,1.056 6.24,3.072 2.784,1.92 4.32,4.896 1.536,2.976 1.536,6.912 0,5.664 -3.168,9.696 -3.072,3.936 -8.256,6.048 -5.088,2.016 -11.232,2.016 z m 52.608,0 q -6.048,0 -10.944,-2.112 -4.8,-2.112 -7.584,-5.856 -2.688,-3.84 -2.688,-8.736 0,-3.744 1.344,-6.432 1.44,-2.784 3.744,-4.896 2.4,-2.112 5.28,-3.648 v -0.384 q -3.456,-2.688 -5.856,-6.144 -2.304,-3.456 -2.304,-8.256 0,-5.184 2.496,-8.928 2.496,-3.84 6.912,-5.856 4.416,-2.016 10.08,-2.016 8.448,0 13.44,4.608 5.088,4.512 5.088,12.096 0,2.88 -1.152,5.472 -1.056,2.496 -2.88,4.512 -1.824,1.92 -3.936,3.36 v 0.384 q 2.88,1.536 5.28,3.744 2.4,2.112 3.84,5.184 1.44,2.976 1.44,7.008 0,4.8 -2.688,8.64 -2.688,3.744 -7.584,6.048 -4.8,2.208 -11.328,2.208 z m 3.84,-36.672 q 1.824,-2.112 2.784,-4.32 0.96,-2.208 0.96,-4.608 0,-2.4 -0.864,-4.128 -0.864,-1.728 -2.592,-2.688 -1.632,-1.056 -3.936,-1.056 -2.784,0 -4.8,1.824 -2.016,1.728 -2.016,5.184 0,2.496 1.344,4.224 1.344,1.728 3.648,3.072 2.4,1.344 5.472,2.496 z m -3.552,26.88 q 2.304,0 4.128,-0.768 1.92,-0.864 2.976,-2.496 1.056,-1.728 1.056,-4.32 0,-2.688 -1.632,-4.416 -1.536,-1.824 -4.512,-3.168 -2.88,-1.44 -6.72,-3.072 -2.016,1.824 -3.36,4.416 -1.344,2.496 -1.344,5.28 0,2.688 1.248,4.608 1.344,1.92 3.456,2.976 2.208,0.96 4.704,0.96 z m -93.9841,-111.36 v -62.592 h 14.784 l 16.032,30.816 q 1.728,3.168 3.168,6.816 1.536,3.552 2.976,7.296 h 0.384 q -0.48,-5.088 -1.152,-11.136 -0.672,-6.048 -0.672,-11.616 v -22.176 h 13.536 v 62.592 h -14.784 l -16.032,-30.816 q -1.632,-3.168 -3.264,-6.816 -1.536,-3.648 -2.976,-7.296 h -0.384 q 0.576,5.184 1.248,11.232 0.672,5.952 0.672,11.52 v 22.176 z m 63.8401,0 v -62.592 h 14.112 v 62.592 z m -750.11391,-296.534 v -62.592 h 14.112 v 25.632 h 0.384 l 18.624,-25.632 h 15.552 l -18.912,24.96 22.368,37.632 h -15.456 l -15.264,-26.4 -7.296,9.6 v 16.8 z m 78.52803,1.152 q -4.416,0 -8.544,-1.728 -4.128,-1.728 -7.392,-5.376 -3.264,-3.648 -5.184,-9.312 -1.92,-5.76 -1.92,-13.824 0,-8.544 2.016,-14.784 2.016,-6.24 5.472,-10.272 3.456,-4.032 7.872,-5.952 4.416,-2.016 9.312,-2.016 6.048,0 10.464,2.208 4.416,2.112 7.296,5.088 l -7.392,8.448 q -1.632,-1.728 -4.224,-2.976 -2.592,-1.344 -5.28,-1.344 -3.456,0 -6.432,2.016 -2.88,2.016 -4.608,6.816 -1.632,4.704 -1.632,12.768 0,7.584 1.344,11.904 1.44,4.224 3.744,6.048 2.304,1.728 4.8,1.728 2.112,0 3.84,-1.056 1.728,-1.056 2.784,-3.168 1.056,-2.208 1.056,-5.664 0,-3.264 -1.056,-5.184 -1.056,-1.92 -2.88,-2.784 -1.728,-0.864 -4.032,-0.864 -2.4,0 -4.992,1.44 -2.496,1.44 -4.512,5.088 l -0.672,-9.216 q 2.4,-3.552 6.144,-5.376 3.744,-1.92 6.72,-1.92 5.184,0 9.312,2.016 4.128,2.016 6.432,6.24 2.4,4.128 2.4,10.56 0,6.336 -2.784,10.944 -2.688,4.608 -7.296,7.104 -4.608,2.4 -10.176,2.4 z m 30.43199,-1.152 v -11.424 h 13.248 v -35.232 h -11.424 v -8.736 q 4.992,-0.96 8.448,-2.304 3.552,-1.344 6.72,-3.264 h 10.368 v 49.536 h 11.424 v 11.424 z m -75.16809,-120 v -62.592 h 14.784 l 16.032,30.816 q 1.728,3.168 3.168,6.816 1.536,3.552 2.976,7.296 h 0.384 q -0.48,-5.088 -1.152,-11.136 -0.672,-6.048 -0.672,-11.616 v -22.176 h 13.536 v 62.592 h -14.784 l -16.032,-30.816 q -1.632,-3.168 -3.264,-6.816 -1.536,-3.648 -2.976,-7.296 h -0.384 q 0.576,5.184 1.248,11.232 0.672,5.952 0.672,11.52 v 22.176 z m 63.84009,0 v -62.592 h 14.112 v 62.592 z m 186.99023,-806.4707 v -125.184 h 28.224 v 51.264 h 0.768 l 37.24796,-51.264 h 31.104 l -37.824,49.92 44.736,75.264 h -30.912 l -30.528,-52.8 -14.59196,19.2 v 33.6 z m 157.05606,2.304 q -8.832,0 -17.088,-3.456 -8.256,-3.456 -14.784,-10.752 -6.528,-7.296 -10.368,-18.624 -3.84,-11.52 -3.84,-27.648 0,-17.088 4.032,-29.568 4.032,-12.48 10.944,-20.544 6.912,-8.064 15.744,-11.904 8.832,-4.032 18.624,-4.032 12.096,0 20.928,4.416 8.832,4.224 14.592,10.176 l -14.784,16.896 q -3.264,-3.456 -8.448,-5.952 -5.184,-2.688 -10.56,-2.688 -6.912,0 -12.864,4.032 -5.76,4.032 -9.216,13.632 -3.264,9.408 -3.264,25.536 0,15.168 2.688,23.808 2.88,8.448 7.488,12.096 4.608,3.456 9.6,3.456 4.224,0 7.68,-2.112 3.456,-2.112 5.568,-6.336 2.112,-4.416 2.112,-11.328 0,-6.528 -2.112,-10.368 -2.112,-3.84 -5.76,-5.568 -3.456,-1.728 -8.064,-1.728 -4.8,0 -9.984,2.88 -4.992,2.88 -9.024,10.176 l -1.344,-18.432 q 4.8,-7.104 12.288,-10.752 7.488,-3.84 13.44,-3.84 10.368,0 18.624,4.032 8.256,4.032 12.864,12.48 4.8,8.256 4.8,21.12 0,12.672 -5.568,21.888 -5.376,9.216 -14.592,14.208 -9.216,4.8 -20.352,4.8 z m 54.528,-2.304 v -17.472 q 15.36,-13.632 27.264,-25.536 12.096,-11.904 18.816,-22.08 6.912,-10.176 6.912,-18.624 0,-9.024 -4.608,-13.632 -4.608,-4.8 -12.672,-4.8 -6.528,0 -11.904,3.84 -5.184,3.648 -9.792,8.64 l -14.784,-14.592 q 8.832,-9.984 18.048,-14.976 9.408,-4.992 22.272,-4.992 11.904,0 20.928,4.8 9.216,4.8 14.208,13.44 5.184,8.64 5.184,20.352 0,10.944 -5.952,21.504 -5.76,10.368 -15.36,20.736 -9.6,10.368 -20.352,21.12 4.608,-0.576 10.368,-0.96 5.76,-0.576 9.984,-0.576 h 27.264 v 23.808 z m -144.0002,-240 v -125.184 h 29.568 l 32.064,61.632 q 3.456,6.336 6.336,13.632 3.072,7.104 5.952,14.592 h 0.768 q -0.96,-10.176 -2.304,-22.272 -1.344,-12.096 -1.344,-23.232 v -44.352 h 27.072 v 125.184 h -29.568 l -32.064,-61.632 q -3.264,-6.336 -6.528,-13.632 -3.072,-7.296 -5.952,-14.592 h -0.768 q 1.152,10.368 2.496,22.464 1.344,11.904 1.344,23.04 v 44.352 z m 127.6802,0 v -125.184 h 28.224 v 125.184 z M 958.86514,1507.2006 v -125.184 h 28.224 v 51.264 h 0.768 l 37.24796,-51.264 h 31.104 l -37.824,49.92 44.736,75.264 h -30.912 l -30.528,-52.8 -14.59196,19.2 v 33.6 z m 157.05606,2.304 q -8.832,0 -17.088,-3.456 -8.256,-3.456 -14.784,-10.752 -6.528,-7.296 -10.368,-18.624 -3.84,-11.52 -3.84,-27.648 0,-17.088 4.032,-29.568 4.032,-12.48 10.944,-20.544 6.912,-8.064 15.744,-11.904 8.832,-4.032 18.624,-4.032 12.096,0 20.928,4.416 8.832,4.224 14.592,10.176 l -14.784,16.896 q -3.264,-3.456 -8.448,-5.952 -5.184,-2.688 -10.56,-2.688 -6.912,0 -12.864,4.032 -5.76,4.032 -9.216,13.632 -3.264,9.408 -3.264,25.536 0,15.168 2.688,23.808 2.88,8.448 7.488,12.096 4.608,3.456 9.6,3.456 4.224,0 7.68,-2.112 3.456,-2.112 5.568,-6.336 2.112,-4.416 2.112,-11.328 0,-6.528 -2.112,-10.368 -2.112,-3.84 -5.76,-5.568 -3.456,-1.728 -8.064,-1.728 -4.8,0 -9.984,2.88 -4.992,2.88 -9.024,10.176 l -1.344,-18.432 q 4.8,-7.104 12.288,-10.752 7.488,-3.84 13.44,-3.84 10.368,0 18.624,4.032 8.256,4.032 12.864,12.48 4.8,8.256 4.8,21.12 0,12.672 -5.568,21.888 -5.376,9.216 -14.592,14.208 -9.216,4.8 -20.352,4.8 z m 94.08,0 q -9.792,0 -17.856,-2.304 -7.872,-2.112 -14.016,-5.952 -6.144,-3.84 -10.56,-9.024 l 13.056,-17.856 q 5.568,5.376 12.288,8.832 6.72,3.456 14.4,3.456 8.832,0 14.208,-3.648 5.568,-3.84 5.568,-10.752 0,-5.376 -2.688,-9.216 -2.688,-4.032 -9.792,-6.144 -6.912,-2.112 -20.352,-2.112 v -19.968 q 10.944,0 17.28,-2.112 6.336,-2.112 8.832,-5.76 2.688,-3.648 2.688,-8.448 0,-6.528 -4.032,-9.984 -3.84,-3.456 -10.944,-3.456 -6.528,0 -11.904,2.88 -5.184,2.688 -10.944,7.872 l -14.208,-17.28 q 8.448,-7.296 17.856,-11.328 9.408,-4.224 20.544,-4.224 12.48,0 21.888,4.032 9.6,3.84 14.784,11.328 5.376,7.296 5.376,18.048 0,9.408 -5.376,16.128 -5.184,6.72 -14.976,10.944 v 0.768 q 6.912,2.112 12.48,6.144 5.568,3.84 8.64,9.792 3.072,5.952 3.072,13.824 0,11.328 -6.336,19.392 -6.144,7.872 -16.512,12.096 -10.176,4.032 -22.464,4.032 z m -183.5522,-242.304 v -125.184 h 29.568 l 32.064,61.632 q 3.456,6.336 6.336,13.632 3.072,7.104 5.952,14.592 h 0.768 q -0.96,-10.176 -2.304,-22.272 -1.344,-12.096 -1.344,-23.232 v -44.352 h 27.072 v 125.184 h -29.568 l -32.064,-61.632 q -3.264,-6.336 -6.528,-13.632 -3.072,-7.296 -5.952,-14.592 h -0.768 q 1.152,10.368 2.496,22.464 1.344,11.904 1.344,23.04 v 44.352 z m 127.6802,0 v -125.184 h 28.224 v 125.184 z m 8.2637,-746.03111 v -125.184 h 28.224 v 51.264 h 0.768 l 37.248,-51.264 h 31.104 l -37.824,49.92 44.736,75.264 h -30.912 l -30.528,-52.8 -14.592,19.2 v 33.6 z m 157.0561,2.304 q -8.832,0 -17.088,-3.456 -8.256,-3.456 -14.784,-10.752 -6.528,-7.296 -10.368,-18.624 -3.84,-11.52 -3.84,-27.648 0,-17.088 4.032,-29.568 4.032,-12.48 10.944,-20.544 6.912,-8.064 15.744,-11.904 8.832,-4.032 18.624,-4.032 12.096,0 20.928,4.416 8.832,4.224 14.592,10.176 l -14.784,16.896 q -3.264,-3.456 -8.448,-5.952 -5.184,-2.688 -10.56,-2.688 -6.912,0 -12.864,4.032 -5.76,4.032 -9.216,13.632 -3.264,9.408 -3.264,25.536 0,15.168 2.688,23.808 2.88,8.448 7.488,12.096 4.608,3.456 9.6,3.456 4.224,0 7.68,-2.112 3.456,-2.112 5.568,-6.336 2.112,-4.416 2.112,-11.328 0,-6.528 -2.112,-10.368 -2.112,-3.84 -5.76,-5.568 -3.456,-1.728 -8.064,-1.728 -4.8,0 -9.984,2.88 -4.992,2.88 -9.024,10.176 l -1.344,-18.432 q 4.8,-7.104 12.288,-10.752 7.488,-3.84 13.44,-3.84 10.368,0 18.624,4.032 8.256,4.032 12.864,12.48 4.8,8.256 4.8,21.12 0,12.672 -5.568,21.888 -5.376,9.216 -14.592,14.208 -9.216,4.8 -20.352,4.8 z m 103.872,-2.304 v -70.464 q 0,-5.76 0.384,-13.632 0.576,-7.872 0.768,-13.632 h -0.768 q -2.304,4.992 -4.8,10.176 -2.496,4.992 -5.184,10.368 l -16.128,26.496 h 66.048 v 21.504 h -93.12 v -19.392 l 44.544,-73.344 h 34.56 v 121.92 z m -193.3442,-240 v -125.184 h 29.568 l 32.064,61.632 q 3.456,6.336 6.336,13.632 3.072,7.104 5.952,14.592 h 0.768 q -0.96,-10.176 -2.304,-22.272 -1.344,-12.096 -1.344,-23.232 v -44.352 h 27.072 v 125.184 h -29.568 l -32.064,-61.632 q -3.264,-6.336 -6.528,-13.632 -3.072,-7.296 -5.952,-14.592 h -0.768 q 1.152,10.368 2.496,22.464 1.344,11.904 1.344,23.04 v 44.352 z m 127.6802,0 v -125.184 h 28.224 v 125.184 z m -1620.03576,528.1696 v -125.184 h 28.224 v 51.264 h 0.768 l 37.248,-51.264 h 31.104 l -37.824,49.92 44.736,75.264 h -30.912 l -30.528,-52.8 -14.592,19.2 v 33.6 z m 116.54406,0 v -22.848 h 26.496 v -70.464 h -22.848 v -17.472 q 9.984,-1.92 16.896,-4.608 7.104,-2.688 13.44,-6.528 h 20.735996 v 99.072 h 22.848 v 22.848 z m 138.623976,2.304 q -19.584,0 -31.68,-16.32 -11.904,-16.32 -11.904,-47.424 0,-31.296 11.904,-47.04 12.096,-15.744 31.68,-15.744 19.584,0 31.488,15.936 12.096,15.744 12.096,46.848 0,31.104 -12.096,47.424 -11.904,16.32 -31.488,16.32 z m 0,-21.888 q 4.8,0 8.64,-3.456 3.84,-3.648 5.952,-12.672 2.304,-9.216 2.304,-25.728 0,-16.704 -2.304,-25.536 -2.112,-8.832 -5.952,-12.096 -3.84,-3.264 -8.64,-3.264 -4.8,0 -8.64,3.264 -3.84,3.264 -6.144,12.096 -2.112,8.832 -2.112,25.536 0,16.512 2.112,25.728 2.304,9.024 6.144,12.672 3.84,3.456 8.64,3.456 z M -194.7949,569.33909 v -125.184 h 29.568 l 32.064,61.632 q 3.456,6.336 6.336,13.632 3.072,7.104 5.952,14.592 h 0.768 q -0.96,-10.176 -2.304,-22.272 -1.344,-12.096 -1.344,-23.232 v -44.352 h 27.071996 v 125.184 H -126.2509 l -32.064,-61.632 q -3.264,-6.336 -6.528,-13.632 -3.072,-7.296 -5.952,-14.592 h -0.768 q 1.152,10.368 2.496,22.464 1.344,11.904 1.344,23.04 v 44.352 z m 127.680176,0 v -125.184 h 28.224 v 125.184 z M -261.89876,3558.5828 v -125.184 h 28.224 v 51.264 h 0.768 l 37.248,-51.264 h 31.104 l -37.824,49.92 44.736,75.264 h -30.912 l -30.528,-52.8 -14.592,19.2 v 33.6 z m 153.79206,2.304 q -19.584,0 -31.68,-16.32 -11.904,-16.32 -11.904,-47.424 0,-31.296 11.904,-47.04 12.096,-15.744 31.68,-15.744 19.583996,0 31.487996,15.936 12.096,15.744 12.096,46.848 0,31.104 -12.096,47.424 -11.904,16.32 -31.487996,16.32 z m 0,-21.888 q 4.8,0 8.639996,-3.456 3.84,-3.648 5.952,-12.672 2.304,-9.216 2.304,-25.728 0,-16.704 -2.304,-25.536 -2.112,-8.832 -5.952,-12.096 -3.839996,-3.264 -8.639996,-3.264 -4.8,0 -8.64,3.264 -3.84,3.264 -6.144,12.096 -2.112,8.832 -2.112,25.536 0,16.512 2.112,25.728 2.304,9.024 6.144,12.672 3.84,3.456 8.64,3.456 z m 79.487976,19.584 q 0.96,-15.168 3.072,-27.84 2.112,-12.864 5.952,-24.384 4.032,-11.52 10.176,-22.656 6.144,-11.136 15.168,-23.232 h -54.72 v -23.808 h 84.864 v 17.28 q -10.752,13.056 -17.664,24.384 -6.72,11.328 -10.368,23.04 -3.648,11.712 -5.376,25.536 -1.728,13.824 -2.688,31.68 z m -165.696176,-240 v -125.184 h 29.568 l 32.064,61.632 q 3.456,6.336 6.336,13.632 3.072,7.104 5.952,14.592 h 0.768 q -0.96,-10.176 -2.304,-22.272 -1.344,-12.096 -1.344,-23.232 v -44.352 h 27.071996 v 125.184 H -125.7709 l -32.064,-61.632 q -3.264,-6.336 -6.528,-13.632 -3.072,-7.296 -5.952,-14.592 h -0.768 q 1.152,10.368 2.496,22.464 1.344,11.904 1.344,23.04 v 44.352 z m 127.680176,0 v -125.184 h 28.224 v 125.184 z M -95.45737,8038.1804 q -19.584,0 -31.68,-16.32 -11.904,-16.32 -11.904,-47.424 0,-31.296 11.904,-47.04 12.096,-15.744 31.68,-15.744 19.584,0 31.488,15.936 12.096,15.744 12.096,46.848 0,31.104 -12.096,47.424 -11.904,16.32 -31.488,16.32 z m 0,-21.888 q 4.8,0 8.64,-3.456 3.84,-3.648 5.952,-12.672 2.304,-9.216 2.304,-25.728 0,-16.704 -2.304,-25.536 -2.112,-8.832 -5.952,-12.096 -3.84,-3.264 -8.64,-3.264 -4.8,0 -8.64,3.264 -3.84,3.264 -6.144,12.096 -2.112,8.832 -2.112,25.536 0,16.512 2.112,25.728 2.304,9.024 6.144,12.672 3.84,3.456 8.64,3.456 z m 101.37598,21.888 q -19.584,0 -31.68,-16.32 -11.904,-16.32 -11.904,-47.424 0,-31.296 11.904,-47.04 12.096,-15.744 31.68,-15.744 19.584,0 31.488,15.936 12.096,15.744 12.096,46.848 0,31.104 -12.096,47.424 -11.904,16.32 -31.488,16.32 z m 0,-21.888 q 4.8,0 8.64,-3.456 3.84,-3.648 5.952,-12.672 2.304,-9.216 2.304,-25.728 0,-16.704 -2.304,-25.536 -2.112,-8.832 -5.952,-12.096 -3.84,-3.264 -8.64,-3.264 -4.8,0 -8.64,3.264 -3.84,3.264 -6.144,12.096 -2.112,8.832 -2.112,25.536 0,16.512 2.112,25.728 2.304,9.024 6.144,12.672 3.84,3.456 8.64,3.456 z m 64.12798,19.584 v -22.848 h 26.496 v -70.464 h -22.848 v -17.472 q 9.984,-1.92 16.896,-4.608 7.104,-2.688 13.44,-6.528 h 20.736 v 99.072 h 22.848 v 22.848 z m -142.08014,-240 v -125.184 h 29.568 l 32.064,61.632 q 3.456,6.336 6.336,13.632 3.072,7.104 5.952,14.592 h 0.768 q -0.96,-10.176 -2.304,-22.272 -1.344,-12.096 -1.344,-23.232 v -44.352 h 27.072 v 125.184 h -29.568 l -32.064,-61.632 q -3.264,-6.336 -6.528,-13.632 -3.072,-7.296 -5.952,-14.592 h -0.768 q 1.152,10.368 2.496,22.464 1.344,11.904 1.344,23.04 v 44.352 z m 127.68018,0 v -125.184 h 28.224 v 125.184 z M -262.47476,4856.1307 v -125.184 h 28.224 v 51.264 h 0.768 l 37.248,-51.264 h 31.104 l -37.824,49.92 44.736,75.264 h -30.912 l -30.528,-52.8 -14.592,19.2 v 33.6 z m 153.79206,2.304 q -19.584,0 -31.68,-16.32 -11.904,-16.32 -11.904,-47.424 0,-31.296 11.904,-47.04 12.096,-15.744 31.68,-15.744 19.583996,0 31.487996,15.936 12.096,15.744 12.096,46.848 0,31.104 -12.096,47.424 -11.904,16.32 -31.487996,16.32 z m 0,-21.888 q 4.8,0 8.64,-3.456 3.839996,-3.648 5.951996,-12.672 2.304,-9.216 2.304,-25.728 0,-16.704 -2.304,-25.536 -2.112,-8.832 -5.951996,-12.096 -3.84,-3.264 -8.64,-3.264 -4.8,0 -8.64,3.264 -3.84,3.264 -6.144,12.096 -2.112,8.832 -2.112,25.536 0,16.512 2.112,25.728 2.304,9.024 6.144,12.672 3.84,3.456 8.64,3.456 z m 104.639976,21.888 q -8.832,0 -17.088,-3.456 -8.256,-3.456 -14.784,-10.752 -6.528,-7.296 -10.368,-18.624 -3.84,-11.52 -3.84,-27.648 0,-17.088 4.032,-29.568 4.032,-12.48 10.944,-20.544 6.912,-8.064 15.744,-11.904 8.832,-4.032 18.624,-4.032 12.096,0 20.928,4.416 8.832,4.224 14.592,10.176 l -14.784,16.896 q -3.264,-3.456 -8.448,-5.952 -5.184,-2.688 -10.56,-2.688 -6.912,0 -12.864,4.032 -5.76,4.032 -9.216,13.632 -3.264,9.408 -3.264,25.536 0,15.168 2.688,23.808 2.88,8.448 7.488,12.096 4.608,3.456 9.6,3.456 4.224,0 7.68,-2.112 3.456,-2.112 5.568,-6.336 2.112,-4.416 2.112,-11.328 0,-6.528 -2.112,-10.368 -2.112,-3.84 -5.76,-5.568 -3.456,-1.728 -8.064,-1.728 -4.8,0 -9.984,2.88 -4.992,2.88 -9.024,10.176 l -1.344,-18.432 q 4.8,-7.104 12.288,-10.752 7.488,-3.84 13.44,-3.84 10.368,0 18.624,4.032 8.256,4.032 12.864,12.48 4.8,8.256 4.8,21.12 0,12.672 -5.568,21.888 -5.376,9.216 -14.592,14.208 -9.216,4.8 -20.352,4.8 z M -194.8909,4616.1307 v -125.184 h 29.568 l 32.064,61.632 q 3.456,6.336 6.336,13.632 3.072,7.104 5.952,14.592 h 0.768 q -0.96,-10.176 -2.304,-22.272 -1.344,-12.096 -1.344,-23.232 v -44.352 h 27.071996 v 125.184 H -126.3469 l -32.064,-61.632 q -3.264,-6.336 -6.528,-13.632 -3.072,-7.296 -5.952,-14.592 h -0.768 q 1.152,10.368 2.496,22.464 1.344,11.904 1.344,23.04 v 44.352 z m 127.680176,0 v -125.184 h 28.224 v 125.184 z M -261.22678,6082.542 v -125.184 h 28.224 v 51.264 h 0.768 l 37.248,-51.264 h 31.104 l -37.824,49.92 44.736,75.264 h -30.912 l -30.528,-52.8 -14.592,19.2 v 33.6 z m 153.79206,2.304 q -19.584,0 -31.68,-16.32 -11.904,-16.32 -11.904,-47.424 0,-31.296 11.904,-47.04 12.096,-15.744 31.68,-15.744 19.584,0 31.488,15.936 12.096,15.744 12.096,46.848 0,31.104 -12.096,47.424 -11.904,16.32 -31.488,16.32 z m 0,-21.888 q 4.8,0 8.64,-3.456 3.84,-3.648 5.952,-12.672 2.304,-9.216 2.304,-25.728 0,-16.704 -2.304,-25.536 -2.112,-8.832 -5.952,-12.096 -3.84,-3.264 -8.64,-3.264 -4.8,0 -8.64,3.264 -3.84,3.264 -6.144,12.096 -2.112,8.832 -2.112,25.536 0,16.512 2.112,25.728 2.304,9.024 6.144,12.672 3.84,3.456 8.64,3.456 z m 97.34398,21.888 q -9.792,0 -17.856,-2.304 -7.872,-2.112 -14.016,-5.952 -6.144,-3.84 -10.56,-9.024 l 13.056,-17.856 q 5.568,5.376 12.288,8.832 6.72,3.456 14.4,3.456 8.832,0 14.208,-3.648 5.568,-3.84 5.568,-10.752 0,-5.376 -2.688,-9.216 -2.688,-4.032 -9.792,-6.144 -6.912,-2.112 -20.352,-2.112 v -19.968 q 10.944,0 17.28,-2.112 6.336,-2.112 8.832,-5.76 2.688,-3.648 2.688,-8.448 0,-6.528 -4.032,-9.984 -3.84,-3.456 -10.944,-3.456 -6.528,0 -11.904,2.88 -5.184,2.688 -10.944,7.872 l -14.208,-17.28 q 8.448,-7.296 17.856,-11.328 9.408,-4.224 20.544,-4.224 12.48,0 21.888,4.032 9.6,3.84 14.784,11.328 5.376,7.296 5.376,18.048 0,9.408 -5.376,16.128 -5.184,6.72 -14.976,10.944 v 0.768 q 6.912,2.112 12.48,6.144 5.568,3.84 8.64,9.792 3.072,5.952 3.072,13.824 0,11.328 -6.336,19.392 -6.144,7.872 -16.512,12.096 -10.176,4.032 -22.464,4.032 z m -183.55218,-242.304 v -125.184 h 29.568 l 32.064,61.632 q 3.456,6.336 6.336,13.632 3.072,7.104 5.952,14.592 h 0.768 q -0.96,-10.176 -2.304,-22.272 -1.344,-12.096 -1.344,-23.232 v -44.352 h 27.072 v 125.184 h -29.568 l -32.064,-61.632 q -3.264,-6.336 -6.528,-13.632 -3.072,-7.296 -5.952,-14.592 h -0.768 q 1.152,10.368 2.496,22.464 1.344,11.904 1.344,23.04 v 44.352 z m 127.68018,0 v -125.184 h 28.224 v 125.184 z" style="font-size:96px;font-family:'Source Sans 3';-inkscape-font-specification:'Source Sans 3, @wght=700';font-variation-settings:'wght' 700;text-align:center;white-space:pre;display:inline;fill:#bec3c6;stroke-width:55" transform="matrix(0.02439371,0,0,0.02439371,15.628849,62.025727)"/>
  </g>
</svg>
