<svg width="5700" height="2100" viewBox="0 0 5700 2100" version="1.1" id="svg1" xml:space="preserve" xmlns="http://www.w3.org/2000/svg">
  <g id="floor_1" transform="matrix(40.994169,0,0,40.994169,1.00188,-9810.757)" style="display:inline">
    <g id="staires_0L" transform="matrix(0.02439371,0,0,0.02439371,-24.102728,278.55684)" style="display:inline">
      <rect style="font-variation-settings:'wdth' 70,'wght' 600;display:inline;fill:#424d52;fill-opacity:1;stroke-width:6.20208;stroke-dasharray:none" id="rect262" width="161.43871" height="29.06435" x="2357.9353" y="72.09034" transform="matrix(1.2277933,0,0,1,-536.02835,0)"/>
      <rect style="font-variation-settings:'wdth' 70,'wght' 600;display:inline;fill:#445055;fill-opacity:1;stroke-width:6.20208;stroke-dasharray:none" id="rect264" width="161.43871" height="29.06435" x="2357.9353" y="43.025982" transform="matrix(1.2277933,0,0,1,-536.02835,0)"/>
      <rect style="font-variation-settings:'wdth' 70,'wght' 600;display:inline;fill:#465358;fill-opacity:1;stroke-width:6.20208;stroke-dasharray:none" id="rect265" width="161.43871" height="29.06435" x="2357.9353" y="13.961617" transform="matrix(1.2277933,0,0,1,-536.02835,0)"/>
      <rect style="font-variation-settings:'wdth' 70,'wght' 600;display:inline;fill:#48565b;fill-opacity:1;stroke-width:6.20208;stroke-dasharray:none" id="rect266" width="161.43871" height="29.06435" x="2357.9353" y="-15.102767" transform="matrix(1.2277933,0,0,1,-536.02835,0)"/>
      <rect style="font-variation-settings:'wdth' 70,'wght' 600;display:inline;fill:#4b595e;fill-opacity:1;stroke-width:6.20208;stroke-dasharray:none" id="rect267" width="161.43871" height="29.06435" x="2357.9353" y="-44.167122" transform="matrix(1.2277933,0,0,1,-536.02835,0)"/>
      <rect style="font-variation-settings:'wdth' 70,'wght' 600;display:inline;fill:#424d52;fill-opacity:1;stroke-width:13.2122;stroke-dasharray:none" id="rect284" width="210" height="101.39615" x="2353.1355" y="101.15469"/>
      <rect style="font-variation-settings:'wdth' 70,'wght' 600;display:inline;fill:#000;fill-opacity:1;stroke-width:1.27473;stroke-dasharray:none" id="rect414" width="198.21336" height="1.0000001" x="2359.0288" y="43.025982"/>
      <rect style="font-variation-settings:'wdth' 70,'wght' 600;display:inline;fill:#000;fill-opacity:1;stroke-width:1.27473;stroke-dasharray:none" id="rect415" width="198.21336" height="1.0000001" x="2359.0288" y="13.961617"/>
      <rect style="font-variation-settings:'wdth' 70,'wght' 600;display:inline;fill:#000;fill-opacity:1;stroke-width:1.27473;stroke-dasharray:none" id="rect416" width="198.21336" height="1.0000001" x="2359.0288" y="72.09034"/>
      <rect style="font-variation-settings:'wdth' 70,'wght' 600;display:inline;fill:#000;fill-opacity:1;stroke-width:1.27473;stroke-dasharray:none" id="rect417" width="198.21336" height="1.0000001" x="2359.0288" y="-15.102767"/>
      <rect style="font-variation-settings:'wdth' 70,'wght' 600;display:inline;fill:#000;fill-opacity:1;stroke-width:1.27473;stroke-dasharray:none" id="rect418" width="198.21336" height="1.0000001" x="2359.0288" y="-44.167122"/>
      <rect style="font-variation-settings:'wdth' 70,'wght' 600;display:inline;fill:#000;fill-opacity:1;stroke-width:1.27473;stroke-dasharray:none" id="rect419" width="198.21336" height="1.0000001" x="2359.0288" y="101.15469"/>
    </g>
    <g id="staires_0R" transform="matrix(0.02353247,0,0,0.02439376,45.505905,278.55684)" style="display:inline">
      <rect style="font-variation-settings:'wdth' 70,'wght' 600;display:inline;fill:#424d52;fill-opacity:1;stroke-width:6.20208;stroke-dasharray:none" id="rect285" width="161.43871" height="29.06435" x="2357.9353" y="72.09034" transform="matrix(1.2277933,0,0,1,-536.02835,0)"/>
      <rect style="font-variation-settings:'wdth' 70,'wght' 600;display:inline;fill:#445055;fill-opacity:1;stroke-width:6.20208;stroke-dasharray:none" id="rect286" width="161.43871" height="29.06435" x="2357.9353" y="43.025982" transform="matrix(1.2277933,0,0,1,-536.02835,0)"/>
      <rect style="font-variation-settings:'wdth' 70,'wght' 600;display:inline;fill:#465358;fill-opacity:1;stroke-width:6.20208;stroke-dasharray:none" id="rect287" width="161.43871" height="29.06435" x="2357.9353" y="13.961617" transform="matrix(1.2277933,0,0,1,-536.02835,0)"/>
      <rect style="font-variation-settings:'wdth' 70,'wght' 600;display:inline;fill:#48565b;fill-opacity:1;stroke-width:6.20208;stroke-dasharray:none" id="rect288" width="161.43871" height="29.06435" x="2357.9353" y="-15.102767" transform="matrix(1.2277933,0,0,1,-536.02835,0)"/>
      <rect style="font-variation-settings:'wdth' 70,'wght' 600;display:inline;fill:#4b595e;fill-opacity:1;stroke-width:6.20208;stroke-dasharray:none" id="rect289" width="161.43871" height="29.06435" x="2357.9353" y="-44.167122" transform="matrix(1.2277933,0,0,1,-536.02835,0)"/>
      <rect style="font-variation-settings:'wdth' 70,'wght' 600;display:inline;fill:#424d52;fill-opacity:1;stroke-width:13.2122;stroke-dasharray:none" id="rect290" width="210" height="101.39615" x="2353.1355" y="101.15469"/>
      <rect style="font-variation-settings:'wdth' 70,'wght' 600;display:inline;fill:#000;fill-opacity:1;stroke-width:1.27473;stroke-dasharray:none" id="rect408" width="198.2131" height="0.99999809" x="2359.0288" y="13.961617"/>
      <rect style="font-variation-settings:'wdth' 70,'wght' 600;display:inline;fill:#000;fill-opacity:1;stroke-width:1.27473;stroke-dasharray:none" id="rect409" width="198.2131" height="0.99999809" x="2359.0288" y="-15.102767"/>
      <rect style="font-variation-settings:'wdth' 70,'wght' 600;display:inline;fill:#000;fill-opacity:1;stroke-width:1.27473;stroke-dasharray:none" id="rect410" width="198.2131" height="0.99999809" x="2359.0288" y="-43.965752"/>
      <rect style="font-variation-settings:'wdth' 70,'wght' 600;display:inline;fill:#000;fill-opacity:1;stroke-width:1.27473;stroke-dasharray:none" id="rect411" width="198.2131" height="0.99999809" x="2359.0288" y="43.026001"/>
      <rect style="font-variation-settings:'wdth' 70,'wght' 600;display:inline;fill:#000;fill-opacity:1;stroke-width:1.27473;stroke-dasharray:none" id="rect412" width="198.2131" height="0.99999809" x="2359.0288" y="72.09034"/>
      <rect style="font-variation-settings:'wdth' 70,'wght' 600;display:inline;fill:#000;fill-opacity:1;stroke-width:1.27473;stroke-dasharray:none" id="rect413" width="198.2131" height="0.99999809" x="2359.0288" y="101.15469"/>
    </g>
    <path style="font-variation-settings:'wdth' 70,'wght' 600;display:inline;fill:#4c5a5f;fill-opacity:1;stroke:none;stroke-width:.487874" d="M 105.82283,277.48435 H 100.881 v -0.20291 h -3.389327 v -3.44903 l -7.063545,0.0305 v 9.63489 l -14.322792,1e-5 -0.243937,-8.65623 H 63.542507 v 8.65623 l -14.399816,-1e-5 -10e-7,-9.63489 H 38.421655 l -0.02439,3.61653 h -5.122679 l 0.02439,-4.67301 H 13.659551 l 10e-7,-6.81804 h 2.135332 v -16.80381 h 6.544571 l 10e-7,15.53311 h 25.939185 v -10.00122 h 10.862724 v 10.00122 h 21.691248 l 3e-6,-9.57003 H 91.55277 v 9.57003 h 25.56591 v -15.88435 h 5.66707 v 17.1246 h 15.45747 v 6.84849 l -32.42039,1e-5 z" id="path1"/>
    <g id="rooms_1" style="display:inline;opacity:1" transform="matrix(0.02439371,0,0,0.02439371,-0.02443957,255.98706)">
      <rect style="font-variation-settings:'wdth' 70,'wght' 600;display:inline;fill:#1b2022;fill-opacity:1;stroke:none;stroke-width:8.85259;stroke-linecap:butt;stroke-linejoin:miter;stroke-dasharray:none;stroke-opacity:1" id="rect5" width="180.96605" height="258.81171" x="2768.4727" y="868.78033"/>
      <rect style="font-variation-settings:'wdth' 70,'wght' 600;display:inline;opacity:1;fill:#454c7f;fill-opacity:1;stroke-width:260.429;stroke-dasharray:none" id="TR_L101" width="219.74998" height="394.97479" x="1795.8159" y="732.80554"/>
      <rect style="font-variation-settings:'wdth' 70,'wght' 600;display:inline;fill:#454c7f;fill-opacity:1;stroke-width:260.429;stroke-dasharray:none" id="TR_L102" width="219.74997" height="394.97479" x="1576.0659" y="732.80554"/>
      <rect style="font-variation-settings:'wdth' 70,'wght' 600;display:inline;opacity:1;fill:#454c7f;fill-opacity:1;stroke-width:319.074;stroke-dasharray:none" id="TR_L103" width="297.51688" height="437.909" x="1068.549" y="689.49615"/>
      <rect style="font-variation-settings:'wdth' 70,'wght' 600;display:inline;opacity:1;fill:#454c7f;fill-opacity:1;stroke-width:416.764;stroke-dasharray:none" id="TR_L104" width="507.58502" height="437.909" x="560.96393" y="689.49615"/>
      <rect style="font-variation-settings:'wdth' 70,'wght' 600;display:inline;fill:#454c7f;fill-opacity:1;stroke-width:539.001;stroke-dasharray:none" id="TR_L105" width="517.96393" height="717.78424" x="43" y="409.99612"/>
      <rect style="font-variation-settings:'wdth' 70,'wght' 600;display:inline;fill:#454c7f;fill-opacity:1;stroke-width:685.822;stroke-dasharray:none" id="TR_L106" width="873.78943" height="688.85797" x="43" y="-278.86188"/>
      <rect style="font-variation-settings:'wdth' 70,'wght' 600;display:inline;opacity:1;fill:#454c7f;fill-opacity:1;stroke-width:394.146;stroke-dasharray:none" id="TR_L106.1" width="540.46393" height="367.84332" x="43" y="-646.7052"/>
      <rect style="font-variation-settings:'wdth' 70,'wght' 600;display:inline;opacity:1;fill:#454c7f;fill-opacity:1;stroke-width:309.534;stroke-dasharray:none" id="TR_L106.2" width="333.32547" height="367.84332" x="583.46393" y="-646.7052"/>
      <rect style="font-variation-settings:'wdth' 70,'wght' 600;display:inline;fill:#454c7f;fill-opacity:1;stroke-width:913.651;stroke-dasharray:none" id="TR_L107" width="1063.3555" height="1004.6103" x="916.78943" y="-646.7052"/>
      <rect style="font-variation-settings:'wdth' 70,'wght' 600;display:inline;fill:#454c7f;fill-opacity:1;stroke-width:390.057;stroke-dasharray:none" id="TR_L108" width="445.30847" height="437.22903" x="1980.1449" y="-489.31583"/>
      <rect style="font-variation-settings:'wdth' 70,'wght' 600;display:inline;fill:#454c7f;fill-opacity:1;stroke-width:460.667;stroke-dasharray:none" id="TR_L109" width="430.13083" height="631.37555" x="2425.4534" y="-489.31583"/>
      <rect style="font-variation-settings:'wdth' 70,'wght' 600;display:inline;opacity:1;fill:#454c7f;fill-opacity:1;stroke-width:241.479;stroke-dasharray:none" id="TR_L110" width="412.63083" height="180.84328" x="2425.4534" y="159.55971"/>
      <rect style="font-variation-settings:'wdth' 70,'wght' 600;display:inline;opacity:1;fill:#454c7f;fill-opacity:1;stroke-width:162.532;stroke-dasharray:none" id="TR_L111" width="282.6676" height="119.59328" x="3032.0005" y="220.80971"/>
      <rect style="font-variation-settings:'wdth' 70,'wght' 600;display:inline;fill:#454c7f;fill-opacity:1;stroke-width:498.469;stroke-dasharray:none" id="TR_L112" width="459.08395" height="692.62543" x="2855.5842" y="-489.31583"/>
      <rect style="font-variation-settings:'wdth' 70,'wght' 600;display:inline;fill:#454c7f;fill-opacity:1;stroke-width:375.405;stroke-dasharray:none" id="TR_L113" width="421.96378" height="427.40308" x="3314.6682" y="-461.81369"/>
      <rect style="font-variation-settings:'wdth' 70,'wght' 600;display:inline;fill:#454c7f;fill-opacity:1;stroke-width:907.053;stroke-dasharray:none" id="TR_L114" width="1048.0532" height="1004.6103" x="3754.1321" y="-646.7052"/>
      <rect style="font-variation-settings:'wdth' 70,'wght' 600;display:inline;fill:#454c7f;fill-opacity:1;stroke-width:469.639;stroke-dasharray:none" id="TR_L115" width="865.98285" height="325.94055" x="4802.1855" y="-619.20129"/>
      <rect style="font-variation-settings:'wdth' 70,'wght' 600;display:inline;fill:#454c7f;fill-opacity:1;stroke-width:396.733;stroke-dasharray:none" id="TR_L115.1" width="606.16754" height="332.29477" x="5034.5024" y="-293.26074"/>
      <rect style="font-variation-settings:'wdth' 70,'wght' 600;display:inline;opacity:1;fill:#454c7f;fill-opacity:1;stroke-width:408.452;stroke-dasharray:none" id="TR_L116" width="606.16754" height="352.21454" x="5034.5024" y="39.034027"/>
      <rect style="font-variation-settings:'wdth' 70,'wght' 600;display:inline;opacity:1;fill:#454c7f;fill-opacity:1;stroke-width:405.115;stroke-dasharray:none" id="TR_L117" width="479.20398" height="438.28412" x="5161.4678" y="689.49615"/>
      <rect style="font-variation-settings:'wdth' 70,'wght' 600;display:inline;opacity:1;fill:#454c7f;fill-opacity:1;stroke-width:411.269;stroke-dasharray:none" id="TR_L118" width="493.87531" height="438.28412" x="4667.5928" y="689.49615"/>
      <rect style="font-variation-settings:'wdth' 70,'wght' 600;display:inline;fill:#454c7f;fill-opacity:1;stroke-width:326.348;stroke-dasharray:none" id="TR_L119" width="310.9675" height="438.28418" x="4356.6255" y="689.49615"/>
      <rect style="font-variation-settings:'wdth' 70,'wght' 600;display:inline;opacity:1;fill:#454c7f;fill-opacity:1;stroke-width:155.469;stroke-dasharray:none" id="TR_L120" width="121.38208" height="254.83479" x="3997.6492" y="872.95728"/>
      <rect style="font-variation-settings:'wdth' 70,'wght' 600;display:inline;opacity:1;fill:#454c7f;fill-opacity:1;stroke-width:289.772;stroke-dasharray:none" id="TR_L121" width="272.0618" height="394.97479" x="3725.5305" y="732.80554"/>
    </g>
    <g id="staires_1" transform="matrix(0.02439371,0,0,0.02439371,6.8274409,267.46124)" style="display:inline">
      <rect style="font-variation-settings:'wdth' 70,'wght' 600;display:inline;fill:#373e43;fill-opacity:1;stroke-width:15.3108;stroke-dasharray:none" id="rect255" width="194.27029" height="147.19138" x="2652.0105" y="667.4671" transform="translate(3.9078884e-6,2.6490444e-5)"/>
      <rect style="font-variation-settings:'wdth' 70,'wght' 600;display:inline;fill:#373e43;fill-opacity:1;stroke-width:6.20208;stroke-dasharray:none" id="rect209" width="161.43871" height="29.06435" x="2668.5515" y="638.40271" transform="translate(3.9078884e-6,2.6490444e-5)"/>
      <rect style="font-variation-settings:'wdth' 70,'wght' 600;display:inline;fill:#3a4146;fill-opacity:1;stroke-width:6.20208;stroke-dasharray:none" id="rect208" width="161.43871" height="29.06435" x="2668.5515" y="609.33838" transform="translate(3.9078884e-6,2.6490444e-5)"/>
      <rect style="font-variation-settings:'wdth' 70,'wght' 600;display:inline;fill:#3c4449;fill-opacity:1;stroke-width:6.20208;stroke-dasharray:none" id="rect207" width="161.43871" height="29.06435" x="2668.5515" y="580.27405" transform="translate(3.9078884e-6,2.6490444e-5)"/>
      <rect style="font-variation-settings:'wdth' 70,'wght' 600;display:inline;fill:#3e474c;fill-opacity:1;stroke-width:6.20208;stroke-dasharray:none" id="rect206" width="161.43871" height="29.06435" x="2668.5515" y="551.20972" transform="translate(3.9078884e-6,2.6490444e-5)"/>
      <rect style="font-variation-settings:'wdth' 70,'wght' 600;display:inline;fill:#404a4f;fill-opacity:1;stroke-width:6.20208;stroke-dasharray:none" id="rect205" width="161.43871" height="29.06435" x="2668.5515" y="522.14532" transform="translate(3.9078884e-6,2.6490444e-5)"/>
      <rect style="font-variation-settings:'wdth' 70,'wght' 600;display:inline;fill:#424d52;fill-opacity:1;stroke-width:6.20208;stroke-dasharray:none" id="rect204" width="161.43871" height="29.06435" x="2668.5515" y="493.08096" transform="translate(3.9078884e-6,2.6490444e-5)"/>
      <rect style="font-variation-settings:'wdth' 70,'wght' 600;display:inline;fill:#445055;fill-opacity:1;stroke-width:6.20208;stroke-dasharray:none" id="rect203" width="161.43871" height="29.06435" x="2668.5515" y="464.0166" transform="translate(3.9078884e-6,2.6490444e-5)"/>
      <rect style="font-variation-settings:'wdth' 70,'wght' 600;display:inline;fill:#465358;fill-opacity:1;stroke-width:6.20208;stroke-dasharray:none" id="rect202" width="161.43871" height="29.06435" x="2668.5515" y="434.95224" transform="translate(3.9078884e-6,2.6490444e-5)"/>
      <rect style="font-variation-settings:'wdth' 70,'wght' 600;display:inline;fill:#48565b;fill-opacity:1;stroke-width:6.20208;stroke-dasharray:none" id="rect71" width="161.43871" height="29.06435" x="2668.5515" y="405.88785" transform="translate(2.4414661e-6,3.7913352e-5)"/>
      <rect style="font-variation-settings:'wdth' 70,'wght' 600;display:inline;fill:#4b595e;fill-opacity:1;stroke-width:6.20208;stroke-dasharray:none" id="rect72" width="161.43871" height="29.06435" x="2668.5515" y="376.82349" transform="translate(2.4414661e-6,3.7913352e-5)"/>
      <path style="font-variation-settings:'wdth' 70,'wght' 600;display:inline;opacity:1;fill:#4c5a5f;fill-opacity:1;stroke-width:35;stroke-dasharray:none" d="m 2668.5515,398.40591 h -180.966 l -1e-4,-21.58242 h -162.5983 l 2e-4,-74.27257 h 505.0028 l 1e-4,74.27257 h -161.4387 z" id="path72" transform="translate(2.4414661e-6,3.7913352e-5)"/>
      <rect style="font-variation-settings:'wdth' 70,'wght' 600;display:inline;fill:#4c5a5f;fill-opacity:1;stroke-width:6.22431;stroke-dasharray:none" id="rect73" width="162.5983" height="29.06435" x="-2487.5854" y="-405.88785" transform="scale(-1)"/>
      <rect style="font-variation-settings:'wdth' 70,'wght' 600;display:inline;fill:#4f5e63;fill-opacity:1;stroke-width:6.22431;stroke-dasharray:none" id="rect74" width="162.5983" height="29.06435" x="-2487.5854" y="-434.95221" transform="scale(-1)"/>
      <rect style="font-variation-settings:'wdth' 70,'wght' 600;display:inline;fill:#516166;fill-opacity:1;stroke-width:6.22431;stroke-dasharray:none" id="rect75" width="162.5983" height="29.06435" x="-2487.5854" y="-464.01657" transform="scale(-1)"/>
      <rect style="font-variation-settings:'wdth' 70,'wght' 600;display:inline;fill:#546469;fill-opacity:1;stroke-width:6.22431;stroke-dasharray:none" id="rect76" width="162.5983" height="29.06435" x="-2487.5854" y="-493.08093" transform="scale(-1)"/>
      <rect style="font-variation-settings:'wdth' 70,'wght' 600;display:inline;fill:#56676c;fill-opacity:1;stroke-width:6.22431;stroke-dasharray:none" id="rect77" width="162.5983" height="29.06435" x="-2487.5854" y="-522.14532" transform="scale(-1)"/>
      <rect style="font-variation-settings:'wdth' 70,'wght' 600;display:inline;fill:#586a6f;fill-opacity:1;stroke-width:6.22431;stroke-dasharray:none" id="rect78" width="162.5983" height="29.06435" x="-2487.5854" y="-551.20966" transform="scale(-1)"/>
      <rect style="font-variation-settings:'wdth' 70,'wght' 600;display:inline;fill:#5a6d72;fill-opacity:1;stroke-width:6.22431;stroke-dasharray:none" id="rect79" width="162.5983" height="29.06435" x="-2487.5854" y="-580.27399" transform="scale(-1)"/>
      <rect style="font-variation-settings:'wdth' 70,'wght' 600;display:inline;fill:#5c7075;fill-opacity:1;stroke-width:6.22431;stroke-dasharray:none" id="rect80" width="162.5983" height="29.06435" x="-2487.5854" y="-609.33838" transform="scale(-1)"/>
      <rect style="font-variation-settings:'wdth' 70,'wght' 600;display:inline;fill:#5e7378;fill-opacity:1;stroke-width:6.22431;stroke-dasharray:none" id="rect81" width="162.5983" height="29.06435" x="-2487.5854" y="-638.40277" transform="scale(-1)"/>
      <rect style="font-variation-settings:'wdth' 70,'wght' 600;display:inline;fill:#60767b;fill-opacity:1;stroke-width:6.22431;stroke-dasharray:none" id="rect82" width="162.5983" height="29.06435" x="-2487.5854" y="-667.4671" transform="scale(-1)"/>
      <rect style="font-variation-settings:'wdth' 70,'wght' 600;display:inline;fill:#60767b;fill-opacity:1;stroke-width:15.7203;stroke-dasharray:none" id="rect83" width="157.25233" height="191.69824" x="667.4671" y="-2506.6882" transform="rotate(90,1.7264055e-5,7.5177413e-5)"/>
      <rect style="font-variation-settings:'wdth' 70,'wght' 600;display:inline;fill:#60767b;fill-opacity:1;stroke-width:6.31392;stroke-dasharray:none" id="rect84" width="167.31334" height="29.06435" x="657.40607" y="-2535.7527" transform="rotate(90)"/>
      <rect style="font-variation-settings:'wdth' 70,'wght' 600;display:inline;fill:#62797e;fill-opacity:1;stroke-width:6.31392;stroke-dasharray:none" id="rect85" width="167.31334" height="29.06435" x="657.40607" y="-2564.8171" transform="rotate(90)"/>
      <rect style="font-variation-settings:'wdth' 70,'wght' 600;display:inline;fill:#647c81;fill-opacity:1;stroke-width:6.31392;stroke-dasharray:none" id="rect86" width="167.31334" height="29.06435" x="657.40607" y="-2593.8816" transform="rotate(90)"/>
      <rect style="font-variation-settings:'wdth' 70,'wght' 600;display:inline;fill:#667f84;fill-opacity:1;stroke-width:6.31392;stroke-dasharray:none" id="rect87" width="167.31334" height="29.06435" x="657.40607" y="-2622.946" transform="rotate(90)"/>
      <rect style="font-variation-settings:'wdth' 70,'wght' 600;display:inline;fill:#688287;fill-opacity:1;stroke-width:6.31392;stroke-dasharray:none" id="rect88" width="167.31334" height="29.06435" x="657.40607" y="-2652.0105" transform="rotate(90)"/>
      <rect style="font-variation-settings:'wdth' 70,'wght' 600;display:inline;fill:#000;fill-opacity:1;stroke-width:1.15454;stroke-dasharray:none" id="rect380" width="162.59802" height="1.0000001" x="-2487.5852" y="-376.82349" transform="scale(-1)"/>
      <rect style="font-variation-settings:'wdth' 70,'wght' 600;display:inline;fill:#000;fill-opacity:1;stroke-width:1.15454;stroke-dasharray:none" id="rect381" width="162.59802" height="1.0000001" x="-2487.5852" y="-405.88785" transform="scale(-1)"/>
      <rect style="font-variation-settings:'wdth' 70,'wght' 600;display:inline;fill:#000;fill-opacity:1;stroke-width:1.15454;stroke-dasharray:none" id="rect382" width="162.59802" height="1.0000001" x="-2487.5852" y="-434.95221" transform="scale(-1)"/>
      <rect style="font-variation-settings:'wdth' 70,'wght' 600;display:inline;fill:#000;fill-opacity:1;stroke-width:1.15454;stroke-dasharray:none" id="rect383" width="162.59802" height="1.0000001" x="-2487.5852" y="-464.01657" transform="scale(-1)"/>
      <rect style="font-variation-settings:'wdth' 70,'wght' 600;display:inline;fill:#000;fill-opacity:1;stroke-width:1.15454;stroke-dasharray:none" id="rect384" width="162.59802" height="1.0000001" x="-2487.5852" y="-493.08093" transform="scale(-1)"/>
      <rect style="font-variation-settings:'wdth' 70,'wght' 600;display:inline;fill:#000;fill-opacity:1;stroke-width:1.15454;stroke-dasharray:none" id="rect385" width="162.59802" height="1.0000001" x="-2487.5852" y="-522.14532" transform="scale(-1)"/>
      <rect style="font-variation-settings:'wdth' 70,'wght' 600;display:inline;fill:#000;fill-opacity:1;stroke-width:1.15454;stroke-dasharray:none" id="rect386" width="162.59802" height="1.0000001" x="-2487.5852" y="-551.20966" transform="scale(-1)"/>
      <rect style="font-variation-settings:'wdth' 70,'wght' 600;display:inline;fill:#000;fill-opacity:1;stroke-width:1.15454;stroke-dasharray:none" id="rect387" width="162.59802" height="1.0000001" x="-2487.5852" y="-580.27399" transform="scale(-1)"/>
      <rect style="font-variation-settings:'wdth' 70,'wght' 600;display:inline;fill:#000;fill-opacity:1;stroke-width:1.15454;stroke-dasharray:none" id="rect388" width="162.59802" height="1.0000001" x="-2487.5852" y="-609.33838" transform="scale(-1)"/>
      <rect style="font-variation-settings:'wdth' 70,'wght' 600;display:inline;fill:#000;fill-opacity:1;stroke-width:1.15454;stroke-dasharray:none" id="rect389" width="162.59802" height="1.0000001" x="-2487.5852" y="-638.40277" transform="scale(-1)"/>
      <rect style="font-variation-settings:'wdth' 70,'wght' 600;display:inline;fill:#000;fill-opacity:1;stroke-width:1.15454;stroke-dasharray:none" id="rect390" width="162.59802" height="1.0000001" x="-2487.5852" y="-667.4671" transform="scale(-1)"/>
      <rect style="font-variation-settings:'wdth' 70,'wght' 600;display:inline;fill:#000;fill-opacity:1;stroke-width:1.15454;stroke-dasharray:none" id="rect391" width="162.59802" height="1.0000001" x="-2830.5698" y="-639.40277" transform="scale(-1)"/>
      <rect style="font-variation-settings:'wdth' 70,'wght' 600;display:inline;fill:#000;fill-opacity:1;stroke-width:1.15454;stroke-dasharray:none" id="rect392" width="162.59802" height="1.0000001" x="-2830.5698" y="-610.33844" transform="scale(-1)"/>
      <rect style="font-variation-settings:'wdth' 70,'wght' 600;display:inline;fill:#000;fill-opacity:1;stroke-width:1.15454;stroke-dasharray:none" id="rect393" width="162.59802" height="1.0000001" x="-2830.5698" y="-581.27411" transform="scale(-1)"/>
      <rect style="font-variation-settings:'wdth' 70,'wght' 600;display:inline;fill:#000;fill-opacity:1;stroke-width:1.15454;stroke-dasharray:none" id="rect394" width="162.59802" height="1.0000001" x="-2830.5698" y="-668.4671" transform="scale(-1)"/>
      <rect style="font-variation-settings:'wdth' 70,'wght' 600;display:inline;fill:#000;fill-opacity:1;stroke-width:1.15454;stroke-dasharray:none" id="rect395" width="162.59802" height="1.0000001" x="-2830.5698" y="-552.20972" transform="scale(-1)"/>
      <rect style="font-variation-settings:'wdth' 70,'wght' 600;display:inline;fill:#000;fill-opacity:1;stroke-width:1.15454;stroke-dasharray:none" id="rect396" width="162.59802" height="1.0000001" x="-2830.5698" y="-523.14532" transform="scale(-1)"/>
      <rect style="font-variation-settings:'wdth' 70,'wght' 600;display:inline;fill:#000;fill-opacity:1;stroke-width:1.15454;stroke-dasharray:none" id="rect397" width="162.59802" height="1.0000001" x="-2830.5698" y="-494.08099" transform="scale(-1)"/>
      <rect style="font-variation-settings:'wdth' 70,'wght' 600;display:inline;fill:#000;fill-opacity:1;stroke-width:1.15454;stroke-dasharray:none" id="rect398" width="162.59802" height="1.0000001" x="-2830.5698" y="-465.01663" transform="scale(-1)"/>
      <rect style="font-variation-settings:'wdth' 70,'wght' 600;display:inline;fill:#000;fill-opacity:1;stroke-width:1.15454;stroke-dasharray:none" id="rect399" width="162.59802" height="1.0000001" x="-2830.5698" y="-435.95227" transform="scale(-1)"/>
      <rect style="font-variation-settings:'wdth' 70,'wght' 600;display:inline;fill:#000;fill-opacity:1;stroke-width:1.15454;stroke-dasharray:none" id="rect400" width="162.59802" height="1.0000001" x="-2830.5698" y="-406.88788" transform="scale(-1)"/>
      <rect style="font-variation-settings:'wdth' 70,'wght' 600;display:inline;fill:#000;fill-opacity:1;stroke-width:1.15454;stroke-dasharray:none" id="rect401" width="162.59802" height="1.0000001" x="-2830.5698" y="-377.82352" transform="scale(-1)"/>
      <rect style="font-variation-settings:'wdth' 70,'wght' 600;display:inline;fill:#000;fill-opacity:1;stroke-width:1.17117;stroke-dasharray:none" id="rect402" width="167.31334" height="1.0000001" x="657.40607" y="-2535.7527" transform="rotate(90)"/>
      <rect style="font-variation-settings:'wdth' 70,'wght' 600;display:inline;fill:#000;fill-opacity:1;stroke-width:1.17117;stroke-dasharray:none" id="rect403" width="167.31334" height="1.0000001" x="657.40607" y="-2564.8171" transform="rotate(90)"/>
      <rect style="font-variation-settings:'wdth' 70,'wght' 600;display:inline;fill:#000;fill-opacity:1;stroke-width:1.17117;stroke-dasharray:none" id="rect404" width="167.31334" height="1.0000001" x="657.40607" y="-2593.8816" transform="rotate(90)"/>
      <rect style="font-variation-settings:'wdth' 70,'wght' 600;display:inline;fill:#000;fill-opacity:1;stroke-width:1.17117;stroke-dasharray:none" id="rect406" width="167.31334" height="1.0000001" x="657.40607" y="-2622.946" transform="rotate(90)"/>
      <rect style="font-variation-settings:'wdth' 70,'wght' 600;display:inline;fill:#000;fill-opacity:1;stroke-width:1.17117;stroke-dasharray:none" id="rect407" width="167.31334" height="1.0000001" x="657.40607" y="-2506.6882" transform="rotate(90)"/>
      <path style="font-variation-settings:'wdth' 70,'wght' 600;display:inline;opacity:1;fill:none;fill-opacity:1;stroke:#bec3c6;stroke-width:5;stroke-dasharray:none;stroke-opacity:1;marker-end:url(#Triangle)" d="m 2406.2863,391.35563 v 349.70708 h 202.1276" id="path91" transform="translate(3.9078884e-6,2.6490444e-5)"/>
      <path style="font-variation-settings:'wdth' 70,'wght' 600;display:inline;opacity:1;fill:none;fill-opacity:1;stroke:#bec3c6;stroke-width:5;stroke-dasharray:none;stroke-opacity:1;marker-end:url(#Triangle)" d="M 2749.2709,652.93489 V 405.88786" id="path92" transform="translate(3.9078884e-6,2.6490444e-5)"/>
    </g>
    <g id="g168" transform="matrix(0.02439371,0,0,0.02439371,-0.02443957,244.19953)" style="display:inline">
      <path style="font-variation-settings:'wdth' 70,'wght' 600;fill:none;stroke:#bec3c6;stroke-width:55;stroke-linecap:butt;stroke-dasharray:none;stroke-opacity:1" d="m 4302.8775,1611.0004 h 1365.291 v -601.5322" id="path93"/>
      <path style="font-variation-settings:'wdth' 70,'wght' 600;fill:none;stroke:#bec3c6;stroke-width:35;stroke-linecap:butt;stroke-dasharray:none;stroke-opacity:1" d="M 4802.1854,841.12515 H 3975.3651" id="path94"/>
      <path style="font-variation-settings:'wdth' 70,'wght' 600;fill:none;stroke:#bec3c6;stroke-width:35;stroke-linecap:butt;stroke-dasharray:none;stroke-opacity:1" d="M 3128.3773,1114.1032 H 2588.3745" id="path95"/>
      <path style="font-variation-settings:'wdth' 70,'wght' 600;fill:none;stroke:#bec3c6;stroke-width:35;stroke-linecap:butt;stroke-dasharray:none;stroke-opacity:1" d="M 916.7894,-163.48517 V 919.67173" id="path96"/>
      <path style="font-variation-settings:'wdth' 70,'wght' 600;fill:none;stroke:#bec3c6;stroke-width:35;stroke-linecap:butt;stroke-dasharray:none;stroke-opacity:1" d="M 4802.1854,-163.48517 V 662.74155" id="path97"/>
      <path style="font-variation-settings:'wdth' 70,'wght' 600;fill:none;stroke:#bec3c6;stroke-width:35;stroke-linecap:butt;stroke-dasharray:none;stroke-opacity:1" d="m 4339.1213,1611.0004 v -438.2842 h 215.9285" id="path98"/>
      <path style="font-variation-settings:'wdth' 70,'wght' 600;fill:none;stroke:#bec3c6;stroke-width:10;stroke-linecap:butt;stroke-dasharray:none;stroke-opacity:1" d="M 5034.5022,304.60672 V 189.95935" id="path100"/>
      <path style="font-variation-settings:'wdth' 70,'wght' 600;fill:none;stroke:#bec3c6;stroke-width:10;stroke-linecap:butt;stroke-dasharray:none;stroke-opacity:1" d="m 4872.1624,189.95935 h -69.977" id="path101"/>
      <path style="font-variation-settings:'wdth' 70,'wght' 600;fill:none;stroke:#bec3c6;stroke-width:55;stroke-linecap:butt;stroke-dasharray:none;stroke-opacity:1" d="m 4176.1683,1611.0004 h -1055.291 v 166.8135 H 2595.8772 V 1611.0004 H 1523.5659" id="path102"/>
      <path style="font-variation-settings:'wdth' 70,'wght' 600;fill:none;stroke:#bec3c6;stroke-width:55;stroke-linecap:butt;stroke-dasharray:none;stroke-opacity:1" d="M 1423.5659,1611.0004 H 43 V -163.48517 H 1990.1426 V -6.095757 H 3744.1308 V -163.48517 H 5668.1685 V 909.44378" id="path104"/>
      <path style="font-variation-settings:'wdth' 70,'wght' 600;fill:none;stroke:#bec3c6;stroke-width:10;stroke-linecap:butt;stroke-dasharray:none;stroke-opacity:1" d="M 5161.4677,1611.0004 V 1172.7162" id="path105"/>
      <path style="font-variation-settings:'wdth' 70,'wght' 600;fill:none;stroke:#bec3c6;stroke-width:35;stroke-linecap:butt;stroke-dasharray:none;stroke-opacity:1" d="m 5029.5022,891.96819 h 633.6663" id="path108"/>
      <path style="font-variation-settings:'wdth' 70,'wght' 600;fill:none;stroke:#bec3c6;stroke-width:35;stroke-linecap:butt;stroke-dasharray:none;stroke-opacity:1" d="m 5363.5709,1172.7162 h 304.5976" id="path109"/>
      <path style="font-variation-settings:'wdth' 70,'wght' 600;fill:none;stroke:#bec3c6;stroke-width:35;stroke-linecap:butt;stroke-dasharray:none;stroke-opacity:1" d="m 5010.0174,1172.7162 h 253.5535" id="path110"/>
      <path style="font-variation-settings:'wdth' 70,'wght' 600;fill:none;stroke:#bec3c6;stroke-width:35;stroke-linecap:butt;stroke-dasharray:none;stroke-opacity:1" d="M 4136.5351,1611.0004 V 1324.5162" id="path113"/>
      <path style="font-variation-settings:'wdth' 70,'wght' 600;fill:none;stroke:#bec3c6;stroke-width:10;stroke-linecap:butt;stroke-dasharray:none;stroke-opacity:1" d="M 5668.1685,189.95935 H 4972.1624" id="path115"/>
      <path style="font-variation-settings:'wdth' 70,'wght' 600;fill:none;stroke:#bec3c6;stroke-width:35;stroke-linecap:butt;stroke-dasharray:none;stroke-opacity:1" d="m 2605.8745,1611.0004 v -354.855" id="path117"/>
      <path style="font-variation-settings:'wdth' 70,'wght' 600;fill:none;stroke:#bec3c6;stroke-width:35;stroke-linecap:butt;stroke-dasharray:none;stroke-opacity:1" d="m 2767.3129,1320.4566 v 290.0438 h 182.1259 v -290.0438" id="path118"/>
      <path style="font-variation-settings:'wdth' 70,'wght' 600;fill:none;stroke:#bec3c6;stroke-width:35;stroke-linecap:butt;stroke-dasharray:none;stroke-opacity:1" d="m 3110.8773,1611.0004 v -354.855" id="path119"/>
      <path style="font-variation-settings:'wdth' 70,'wght' 600;fill:none;stroke:#bec3c6;stroke-width:35;stroke-linecap:butt;stroke-dasharray:none;stroke-opacity:1" d="M 3875.3651,841.12515 H 3754.132 V 5.141383" id="path120"/>
      <path style="font-variation-settings:'wdth' 70,'wght' 600;fill:none;stroke:#bec3c6;stroke-width:35;stroke-linecap:butt;stroke-dasharray:none;stroke-opacity:1" d="M 2855.5842,841.12515 V 5.141383" id="path122"/>
      <path style="font-variation-settings:'wdth' 70,'wght' 600;fill:none;stroke:#bec3c6;stroke-width:35;stroke-linecap:butt;stroke-dasharray:none;stroke-opacity:1" d="M 1980.1449,841.12515 V 5.141383" id="path123"/>
      <path style="font-variation-settings:'wdth' 70,'wght' 600;fill:none;stroke:#bec3c6;stroke-width:35;stroke-linecap:butt;stroke-dasharray:none;stroke-opacity:1" d="M 2027.566,841.12515 H 1843.5659" id="path124"/>
      <path style="font-variation-settings:'wdth' 70,'wght' 600;fill:none;stroke:#bec3c6;stroke-width:10;stroke-linecap:butt;stroke-dasharray:none;stroke-opacity:1" d="M 3314.6681,514.02974 V -6.095757" id="path126"/>
      <path style="font-variation-settings:'wdth' 70,'wght' 600;fill:none;stroke:#bec3c6;stroke-width:10;stroke-linecap:butt;stroke-dasharray:none;stroke-opacity:1" d="M 3754.132,448.80945 H 3632.5662" id="path127"/>
      <path style="font-variation-settings:'wdth' 70,'wght' 600;fill:none;stroke:#bec3c6;stroke-width:10;stroke-linecap:butt;stroke-dasharray:none;stroke-opacity:1" d="M 3532.5662,448.80945 H 3314.6681" id="path128"/>
      <path style="font-variation-settings:'wdth' 70,'wght' 600;fill:none;stroke:#bec3c6;stroke-width:10;stroke-linecap:butt;stroke-dasharray:none;stroke-opacity:1" d="M 2425.4533,507.7797 V -6.095757" id="path131"/>
      <path style="font-variation-settings:'wdth' 70,'wght' 600;fill:none;stroke:#bec3c6;stroke-width:10;stroke-linecap:butt;stroke-dasharray:none;stroke-opacity:1" d="M 2425.4533,841.12515 V 789.7416" id="path132"/>
      <path style="font-variation-settings:'wdth' 70,'wght' 600;fill:none;stroke:#bec3c6;stroke-width:35;stroke-linecap:butt;stroke-dasharray:none;stroke-opacity:1" d="m 2855.5842,686.52977 h 459.0839" id="path134"/>
      <path style="font-variation-settings:'wdth' 70,'wght' 600;fill:none;stroke:#bec3c6;stroke-width:10;stroke-linecap:butt;stroke-dasharray:none;stroke-opacity:1" d="M 3482.5662,853.62515 H 3314.6681" id="path136"/>
      <path style="font-variation-settings:'wdth' 70,'wght' 600;fill:none;stroke:#bec3c6;stroke-width:10;stroke-linecap:butt;stroke-dasharray:none;stroke-opacity:1" d="M 3754.132,853.62515 H 3582.5662" id="path137"/>
      <path style="font-variation-settings:'wdth' 70,'wght' 600;fill:none;stroke:#bec3c6;stroke-width:35;stroke-linecap:butt;stroke-dasharray:none;stroke-opacity:1" d="m 1743.5659,841.12515 h -600.517" id="path142"/>
      <path style="font-variation-settings:'wdth' 70,'wght' 600;fill:none;stroke:#bec3c6;stroke-width:35;stroke-linecap:butt;stroke-dasharray:none;stroke-opacity:1" d="m 807.2894,1172.7162 h 342" id="path144"/>
      <path style="font-variation-settings:'wdth' 70,'wght' 600;fill:none;stroke:#bec3c6;stroke-width:35;stroke-linecap:butt;stroke-dasharray:none;stroke-opacity:1" d="M 1366.0659,1611.0004 V 1172.7162 H 1249.2895" id="path146"/>
      <path style="font-variation-settings:'wdth' 70,'wght' 600;fill:none;stroke:#bec3c6;stroke-width:10;stroke-linecap:butt;stroke-dasharray:none;stroke-opacity:1" d="m 1068.5489,1172.7162 v 438.2842" id="path147"/>
      <path style="font-variation-settings:'wdth' 70,'wght' 600;fill:none;stroke:#bec3c6;stroke-width:35;stroke-linecap:butt;stroke-dasharray:none;stroke-opacity:1" d="m 560.9639,1089.1216 v 169.5001" id="path149"/>
      <path style="font-variation-settings:'wdth' 70,'wght' 600;fill:none;stroke:#bec3c6;stroke-width:35;stroke-linecap:butt;stroke-dasharray:none;stroke-opacity:1" d="M 560.9639,1172.7162 H 707.28939" id="path150"/>
      <path style="font-variation-settings:'wdth' 70,'wght' 600;fill:none;stroke:#bec3c6;stroke-width:35;stroke-linecap:butt;stroke-dasharray:none;stroke-opacity:1" d="M 43,893.21617 H 699.28939" id="path151"/>
      <path style="font-variation-settings:'wdth' 70,'wght' 600;fill:none;stroke:#bec3c6;stroke-width:35;stroke-linecap:butt;stroke-dasharray:none;stroke-opacity:1" d="M 583.4639,204.35816 V -163.48517" id="path154"/>
      <path style="font-variation-settings:'wdth' 70,'wght' 600;fill:none;stroke:#bec3c6;stroke-width:35;stroke-linecap:butt;stroke-dasharray:none;stroke-opacity:1" d="M 43,204.35816 H 453.41365" id="path155"/>
      <path style="font-variation-settings:'wdth' 70,'wght' 600;fill:none;stroke:#bec3c6;stroke-width:35;stroke-linecap:butt;stroke-dasharray:none;stroke-opacity:1" d="M 713.51415,204.35816 H 916.7894" id="path156"/>
      <path style="font-variation-settings:'wdth' 70,'wght' 600;fill:none;stroke:#bec3c6;stroke-width:35;stroke-linecap:butt;stroke-dasharray:none;stroke-opacity:1" d="m 560.9639,893.21617 v 95.90546" id="path157"/>
      <path style="font-variation-settings:'wdth' 70,'wght' 600;fill:none;stroke:#bec3c6;stroke-width:35;stroke-linecap:butt;stroke-dasharray:none;stroke-opacity:1" d="m 1576.0659,1333.5256 v 277.4748" id="path158"/>
      <path style="font-variation-settings:'wdth' 70,'wght' 600;fill:none;stroke:#bec3c6;stroke-width:35;stroke-linecap:butt;stroke-dasharray:none;stroke-opacity:1" d="m 1576.0659,1155.3929 v 78.1327" id="path159"/>
      <path style="font-variation-settings:'wdth' 70,'wght' 600;fill:none;stroke:#bec3c6;stroke-width:35;stroke-linecap:butt;stroke-dasharray:none;stroke-opacity:1" d="m 2015.5659,1155.3929 v 78.1327" id="path160"/>
      <path style="font-variation-settings:'wdth' 70,'wght' 600;fill:none;stroke:#bec3c6;stroke-width:35;stroke-linecap:butt;stroke-dasharray:none;stroke-opacity:1" d="m 1576.0659,1216.0256 h 439.5" id="path162"/>
      <path style="font-variation-settings:'wdth' 70,'wght' 600;fill:none;stroke:#bec3c6;stroke-width:35;stroke-linecap:butt;stroke-dasharray:none;stroke-opacity:1" d="M 3708.0283,1611.0004 V 1155.295" id="path163"/>
      <path style="font-variation-settings:'wdth' 70,'wght' 600;fill:none;stroke:#bec3c6;stroke-width:35;stroke-linecap:butt;stroke-dasharray:none;stroke-opacity:1" d="m 3708.0283,1216.0256 h 428.5068 v -60.7306" id="path164"/>
      <path style="font-variation-settings:'wdth' 70,'wght' 600;fill:none;stroke:#bec3c6;stroke-width:35;stroke-linecap:butt;stroke-dasharray:none;stroke-opacity:1" d="m 2769.8745,1352.0004 h 43.6259" id="path167"/>
      <path style="font-variation-settings:'wdth' 70,'wght' 600;fill:none;stroke:#bec3c6;stroke-width:35;stroke-linecap:butt;stroke-dasharray:none;stroke-opacity:1" d="m 2908.3745,1352.0004 h 43.6259" id="path168"/>
      <path style="font-variation-settings:'wdth' 70,'wght' 600;fill:none;stroke:#bec3c6;stroke-width:10;stroke-linecap:butt;stroke-dasharray:none;stroke-opacity:1" d="M 5034.5022,680.82802 V 404.60673" id="path173"/>
      <path style="font-variation-settings:'wdth' 70,'wght' 600;fill:none;stroke:#bec3c6;stroke-width:10;stroke-linecap:butt;stroke-dasharray:none;stroke-opacity:1" d="M 5668.1685,522.2541 H 4972.1624" id="path175"/>
      <path style="font-variation-settings:'wdth' 70,'wght' 600;fill:none;stroke:#bec3c6;stroke-width:10;stroke-linecap:butt;stroke-dasharray:none;stroke-opacity:1" d="m 4872.1624,522.2541 h -69.977" id="path176"/>
      <path style="font-variation-settings:'wdth' 70,'wght' 600;fill:none;stroke:#bec3c6;stroke-width:10;stroke-linecap:butt;stroke-dasharray:none;stroke-opacity:1" d="M 5034.5022,891.96819 V 780.82803" id="path177"/>
      <path style="font-variation-settings:'wdth' 70,'wght' 600;fill:none;stroke:#bec3c6;stroke-width:35;stroke-linecap:butt;stroke-dasharray:none;stroke-opacity:1" d="M 4802.1854,762.74157 V 891.96819" id="path178"/>
      <path style="font-variation-settings:'wdth' 70,'wght' 600;fill:none;stroke:#bec3c6;stroke-width:35;stroke-linecap:butt;stroke-dasharray:none;stroke-opacity:1" d="m 4655.0498,1172.7162 h 254.9676" id="path179"/>
      <path style="font-variation-settings:'wdth' 70,'wght' 600;fill:none;stroke:#bec3c6;stroke-width:10;stroke-linecap:butt;stroke-dasharray:none;stroke-opacity:1" d="M 4667.5926,1611.0004 V 1172.7162" id="path180"/>
      <path style="font-variation-settings:'wdth' 70,'wght' 600;fill:none;stroke:#bec3c6;stroke-width:35;stroke-linecap:butt;stroke-dasharray:none;stroke-opacity:1" d="m 2420.4533,841.12515 h 894.2148 V 804.0298" id="path181"/>
      <path style="font-variation-settings:'wdth' 70,'wght' 600;fill:none;stroke:#bec3c6;stroke-width:35;stroke-linecap:butt;stroke-dasharray:none;stroke-opacity:1" d="M 3314.6681,704.02977 V 614.02976" id="path182"/>
      <path style="font-variation-settings:'wdth' 70,'wght' 600;fill:none;stroke:#bec3c6;stroke-width:35;stroke-linecap:butt;stroke-dasharray:none;stroke-opacity:1" d="m 2425.4533,625.27976 h 430.1309" id="path183"/>
      <path style="font-variation-settings:'wdth' 70,'wght' 600;fill:none;stroke:#bec3c6;stroke-width:10;stroke-linecap:butt;stroke-dasharray:none;stroke-opacity:1" d="M 2425.4533,689.74155 V 607.77976" id="path184"/>
      <path style="font-variation-settings:'wdth' 70,'wght' 600;fill:none;stroke:#bec3c6;stroke-width:10;stroke-linecap:butt;stroke-dasharray:none;stroke-opacity:1" d="M 2425.4533,431.13327 H 2219.0491" id="path185"/>
      <path style="font-variation-settings:'wdth' 70,'wght' 600;fill:none;stroke:#bec3c6;stroke-width:10;stroke-linecap:butt;stroke-dasharray:none;stroke-opacity:1" d="M 2119.0491,431.13327 H 1980.1449" id="path186"/>
      <path style="font-variation-settings:'wdth' 70,'wght' 600;fill:none;stroke:#bec3c6;stroke-width:10;stroke-linecap:butt;stroke-dasharray:none;stroke-opacity:1" d="M 2160.0491,853.62515 H 1980.1449" id="path187"/>
      <path style="font-variation-settings:'wdth' 70,'wght' 600;fill:none;stroke:#bec3c6;stroke-width:10;stroke-linecap:butt;stroke-dasharray:none;stroke-opacity:1" d="M 2425.4533,853.62515 H 2260.0491" id="path188"/>
      <rect style="font-variation-settings:'wdth' 70,'wght' 600;fill:#bec3c6;fill-opacity:1;stroke:none;stroke-width:36.6971;stroke-dasharray:none" id="rect188" width="191.73981" height="144.79768" x="2855.5842" y="686.52966"/>
      <path style="font-variation-settings:'wdth' 70,'wght' 600;fill:none;stroke:#bec3c6;stroke-width:35;stroke-linecap:butt;stroke-dasharray:none;stroke-opacity:1" d="M 1043.0489,841.12515 H 916.7894" id="path189"/>
      <path style="font-variation-settings:'wdth' 70,'wght' 600;fill:none;stroke:#bec3c6;stroke-width:35;stroke-linecap:butt;stroke-dasharray:none;stroke-opacity:1" d="m 553.41366,204.35816 h 60.10048" id="path190"/>
      <path style="font-variation-settings:'wdth' 70,'wght' 600;fill:none;stroke:#bec3c6;stroke-width:35;stroke-linecap:butt;stroke-dasharray:none;stroke-opacity:1" d="m 799.2894,893.21617 h 117.5" id="path191"/>
      <path style="font-variation-settings:'wdth' 70,'wght' 600;fill:none;stroke:#bec3c6;stroke-width:35;stroke-linecap:butt;stroke-dasharray:none;stroke-opacity:1" d="m 560.9639,1358.6217 v 252.3787" id="path192"/>
      <path style="font-variation-settings:'wdth' 70,'wght' 600;fill:none;stroke:#bec3c6;stroke-width:35;stroke-linecap:butt;stroke-dasharray:none;stroke-opacity:1" d="m 2015.5659,1333.5256 v 277.4748" id="path193"/>
      <path style="font-variation-settings:'wdth' 70,'wght' 600;fill:none;stroke:#bec3c6;stroke-width:10;stroke-linecap:butt;stroke-dasharray:none;stroke-opacity:1" d="m 1795.8159,1216.0256 v 394.9748" id="path194"/>
      <path style="font-variation-settings:'wdth' 70,'wght' 600;fill:none;stroke:#bec3c6;stroke-width:10;stroke-linecap:butt;stroke-dasharray:none;stroke-opacity:1" d="M 3997.5925,1611.0004 V 1340.7756" id="path195"/>
      <path style="font-variation-settings:'wdth' 70,'wght' 600;fill:none;stroke:#bec3c6;stroke-width:10;stroke-linecap:butt;stroke-dasharray:none;stroke-opacity:1" d="m 3997.5925,1356.1656 h 15.1526" id="path196"/>
      <path style="font-variation-settings:'wdth' 70,'wght' 600;fill:none;stroke:#bec3c6;stroke-width:10;stroke-linecap:butt;stroke-dasharray:none;stroke-opacity:1" d="m 4112.7451,1356.1656 h 23.79" id="path197"/>
      <path style="font-variation-settings:'wdth' 70,'wght' 600;fill:none;stroke:#bec3c6;stroke-width:10;stroke-linecap:butt;stroke-dasharray:none;stroke-opacity:1" d="m 3997.5925,1240.7756 v -24.75" id="path255"/>
    </g>
    <g id="g172" transform="matrix(0.02439371,0,0,0.02439371,-0.02443957,244.19953)" style="display:inline">
      <path d="m 1686.3917,1463.513 v -31.8652 h -10.1036 v -32.2539 q 0,-3.5622 2.5583,-6.1205 2.5583,-2.5583 6.1205,-2.5583 h 19.9482 q 3.5621,0 6.1204,2.5583 2.5583,2.5583 2.5583,6.1205 v 32.2539 h -10.1036 v 31.8652 z m 8.5596,-82.6425 q -3.6891,0 -6.1891,-2.5544 -2.5,-2.5545 -2.5,-6.1139 0,-3.6892 2.4896,-6.1892 2.4899,-2.5 6.1788,-2.5 3.6891,0 6.1891,2.4897 2.5,2.4897 2.5,6.1787 0,3.5596 -2.4896,6.1244 -2.4897,2.5647 -6.1788,2.5647 z" id="path169" style="fill:#fff;fill-opacity:.798742;stroke-width:.129534;filter:url(#filter17)"/>
      <path d="m 1892.8048,1463.513 v -30.0518 h -14.7668 l 14.2098,-39.4458 q 1.121,-2.8983 3.8366,-4.5889 2.7155,-1.6907 5.7878,-1.6907 3.0723,0 5.7878,1.6907 2.7156,1.6906 3.8542,4.5779 l 14.1922,39.4568 h -14.7668 v 30.0518 z m 9.0778,-82.6424 q -3.6892,0 -6.1892,-2.5504 -2.5,-2.5504 -2.5,-6.118 0,-3.6892 2.4897,-6.1892 2.4899,-2.5 6.1787,-2.5 3.6892,0 6.1892,2.4897 2.5,2.4897 2.5,6.114 0,3.6243 -2.4897,6.1891 -2.4896,2.5648 -6.1787,2.5648 z" id="path170" style="fill:#fff;fill-opacity:.803459;stroke-width:.129534;filter:url(#filter15)"/>
      <g id="g171" style="filter:url(#filter65)" transform="translate(406.28296,453.9953)">
        <rect style="font-variation-settings:'wdth' 70,'wght' 600;fill:none;fill-opacity:1;stroke:#d6d7de;stroke-width:4.78791;stroke-linejoin:miter;stroke-dasharray:none;stroke-opacity:1" id="rect170" width="95.212135" height="95.212151" x="2405.0667" y="979.80487" ry="9.1410179"/>
        <path d="m 2427.7505,1062.6135 h 12.6169 v -23.8318 h 6.2306 v -17.757 c 0,-2.6337 -0.8992,-4.8497 -2.6976,-6.6481 -1.7985,-1.7985 -4.0665,-2.6977 -6.804,-2.6977 h -6.2306 c -2.7375,0 -4.9794,0.8992 -6.7258,2.6977 -1.7466,1.7984 -2.6199,4.0144 -2.6199,6.6481 v 17.757 h 6.2304 z m 6.1958,-54.9845 c 2.1478,0 3.9626,-0.7033 5.4445,-2.1098 1.4819,-1.4064 2.2228,-3.2356 2.2228,-5.4875 0,-2.148 -0.7292,-3.93697 -2.1877,-5.3669 -1.4583,-1.42987 -3.2615,-2.1448 -5.4096,-2.1448 -2.1481,0 -3.937,0.70327 -5.3669,2.1098 -1.4299,1.4064 -2.1449,3.18367 -2.1449,5.3318 0,2.2518 0.7033,4.0926 2.11,5.5225 1.4064,1.4299 3.1837,2.1449 5.3318,2.1449 z m 28.3838,9.9689 h 20.0934 l -9.9688,-16.1994 z m 10.1246,35.6697 9.9688,-16.1993 h -20.0934 z" id="path171" style="fill:#d5d6dd;fill-opacity:1;stroke-width:0;stroke-dasharray:none"/>
      </g>
      <path d="m 3861.9517,1381.9765 q -3.9473,0 -6.5946,-2.7239 -2.6471,-2.7239 -2.6471,-6.4979 0,-3.8221 2.6373,-6.532 2.6373,-2.7097 6.5844,-2.7097 3.7739,0 6.5078,2.6999 2.7339,2.6998 2.7339,6.5219 0,3.7738 -2.7239,6.5077 -2.7239,2.734 -6.4978,2.734 z m 26.7422,81.5365 v -24.9615 q 0,-0.5777 -0.3371,-0.9146 -0.3369,-0.337 -0.9146,-0.337 h -25.4041 q -3.8324,0 -6.4262,-2.6564 -2.594,-2.6563 -2.594,-6.3154 v -30.5738 q 0,-3.8323 2.5272,-6.5031 2.5269,-2.6709 6.4579,-2.6709 2.0239,0 4.2542,0.9434 2.2306,0.9435 4.7623,4.1779 4.611,6.161 11.0465,10.4158 6.4352,4.255 14.3288,4.7171 v 7.3063 q -7.1908,-0.385 -13.655,-3.4847 -6.4643,-3.0997 -12.4617,-8.5966 v 23.6911 h 16.7021 q 3.7553,0 6.3876,2.6323 2.6323,2.6325 2.6323,6.3396 v 26.7905 z m -37.4473,0 q -10.406,0 -17.4624,-7.0563 -7.0562,-7.0561 -7.0562,-17.4624 0,-8.635 5.824,-15.3832 5.824,-6.7482 15.2484,-8.4038 v 8.1342 q -6.1899,0.6545 -9.9395,5.3764 -3.7494,4.7218 -3.7494,10.2764 0,7.3451 4.8324,12.2787 4.8326,4.9335 12.3027,4.9335 5.5547,0 10.2524,-3.7495 4.6976,-3.7496 5.2753,-9.9394 h 8.1344 q -1.4827,9.2991 -8.2548,15.1473 -6.7723,5.848 -15.4073,5.848 z" id="path1-9" style="display:inline;fill:#fff;fill-opacity:.803459;stroke-width:.125;stroke-dasharray:none;filter:url(#filter182-0)"/>
    </g>
    <path id="roomNames_1" d="m 394.79133,42.424554 v -5.077337 h 5.88801 V 21.688539 H 395.602 v -3.88267 q 2.21867,-0.426667 3.75467,-1.024001 1.57867,-0.597334 2.98667,-1.450668 h 4.608 v 22.016017 h 5.07734 v 5.077337 z m 21.12001,0 v -3.88267 q 3.41334,-3.029335 6.05867,-5.67467 2.688,-2.645336 4.18134,-4.906671 1.536,-2.261335 1.536,-4.13867 0,-2.005334 -1.024,-3.029335 -1.024,-1.066668 -2.816,-1.066668 -1.45067,0 -2.64534,0.853334 -1.152,0.810668 -2.176,1.920002 l -3.28534,-3.242669 q 1.96267,-2.218669 4.01067,-3.328003 2.09067,-1.109334 4.94934,-1.109334 2.64534,0 4.65067,1.066668 2.048,1.066667 3.15734,2.986668 1.152,1.920002 1.152,4.52267 0,2.432002 -1.32267,4.778671 -1.28,2.304001 -3.41334,4.608003 -2.13333,2.304002 -4.52267,4.693337 1.02401,-0.128 2.30401,-0.213334 1.28,-0.128 2.21866,-0.128 h 6.05868 v 5.290671 z m 32.21335,0.512 q -4.352,0 -7.04,-3.626669 -2.64534,-3.626669 -2.64534,-10.538675 0,-6.954671 2.64534,-10.453341 2.688,-3.498669 7.04,-3.498669 4.35201,0 6.99734,3.541336 2.688,3.498669 2.688,10.410674 0,6.912006 -2.688,10.538675 -2.64533,3.626669 -6.99734,3.626669 z m 0,-4.864003 q 1.06667,0 1.92,-0.768001 0.85334,-0.810667 1.32267,-2.816002 0.512,-2.048001 0.512,-5.717338 0,-3.712002 -0.512,-5.67467 -0.46933,-1.962669 -1.32267,-2.688002 -0.85333,-0.725334 -1.92,-0.725334 -1.06666,0 -1.92,0.725334 -0.85333,0.725333 -1.36533,2.688002 -0.46934,1.962668 -0.46934,5.67467 0,3.669337 0.46934,5.717338 0.512,2.005335 1.36533,2.816002 0.85334,0.768001 1.92,0.768001 z M 387.64465,-10.90882 v -22.528017 h -7.63734 v -5.29067 h 21.58935 v 5.29067 h -7.63734 v 22.528017 z m 18.304,0 v -27.818687 h 10.02667 q 2.944,0 5.37601,0.810667 2.432,0.768 3.88267,2.688002 1.45066,1.877335 1.45066,5.16267 0,3.200003 -1.45066,5.205338 -1.45067,2.005334 -3.88267,2.986668 -2.43201,0.938668 -5.37601,0.938668 h -3.75467 v 10.026674 z m 6.272,-15.018678 h 3.24267 q 2.47467,0 3.75467,-1.024001 1.32267,-1.066667 1.32267,-3.114669 0,-2.048001 -1.32267,-2.858668 -1.28,-0.810668 -3.75467,-0.810668 h -3.24267 z m 8.78934,15.018678 -6.18667,-11.648009 4.352,-4.053336 8.87468,15.701345 z m 8.32005,5.9733378 v -3.541336 h 20.30934 v 3.541336 z m 24.10668,-5.9733378 v -27.818687 h 6.27201 v 22.528016 h 11.008 v 5.290671 z M 1636.0587,-692.40883 v -11.424 h 13.248 v -35.232 h -11.424 v -8.736 q 4.992,-0.96 8.448,-2.304 3.552,-1.344 6.72,-3.264 h 10.368 v 49.536 h 11.424 v 11.424 z m 50.688,0 v -11.424 h 13.248 v -35.232 h -11.424 v -8.736 q 4.992,-0.96 8.448,-2.304 3.552,-1.344 6.72,-3.264 h 10.368 v 49.536 h 11.424 v 11.424 z m 70.944,1.152 q -4.416,0 -8.544,-1.728 -4.128,-1.728 -7.392,-5.376 -3.264,-3.648 -5.184,-9.312 -1.92,-5.76 -1.92,-13.824 0,-8.544 2.016,-14.784 2.016,-6.24 5.472,-10.272 3.456,-4.032 7.872,-5.952 4.416,-2.016 9.312,-2.016 6.048,0 10.464,2.208 4.416,2.112 7.296,5.088 l -7.392,8.448 q -1.632,-1.728 -4.224,-2.976 -2.592,-1.344 -5.28,-1.344 -3.456,0 -6.432,2.016 -2.88,2.016 -4.608,6.816 -1.632,4.704 -1.632,12.768 0,7.584 1.344,11.904 1.44,4.224 3.744,6.048 2.304,1.728 4.8,1.728 2.112,0 3.84,-1.056 1.728,-1.056 2.784,-3.168 1.056,-2.208 1.056,-5.664 0,-3.264 -1.056,-5.184 -1.056,-1.92 -2.88,-2.784 -1.728,-0.864 -4.032,-0.864 -2.4,0 -4.992,1.44 -2.496,1.44 -4.512,5.088 l -0.672,-9.216 q 2.4,-3.552 6.144,-5.376 3.744,-1.92 6.72,-1.92 5.184,0 9.312,2.016 4.128,2.016 6.432,6.24 2.4,4.128 2.4,10.56 0,6.336 -2.784,10.944 -2.688,4.608 -7.296,7.104 -4.608,2.4 -10.176,2.4 z m -137.712,-121.152 v -50.688 h -17.184 v -11.904 h 48.576 v 11.904 h -17.184 v 50.688 z m 41.1839,0 v -62.592 h 22.56 q 6.624,0 12.096,1.824 5.472,1.728 8.736,6.048 3.264,4.224 3.264,11.616 0,7.2 -3.264,11.712 -3.264,4.512 -8.736,6.72 -5.472,2.112 -12.096,2.112 h -8.448 v 22.56 z m 14.112,-33.792 h 7.296 q 5.568,0 8.448,-2.304 2.976,-2.4 2.976,-7.008 0,-4.608 -2.976,-6.432 -2.88,-1.824 -8.448,-1.824 h -7.296 z m 19.776,33.792 -13.92,-26.208 9.792,-9.12 19.968,35.328 z m 18.7201,13.44 v -7.968 h 45.696 v 7.968 z m 54.24,-13.44 v -62.592 h 14.112 v 50.688 h 24.768 v 11.904 z m -4724.1635,-588.16487 v -7.616 h 8.832 v -23.488 h -7.616 v -5.824 q 3.328,-0.64 5.632,-1.536 2.368,-0.896 4.48,-2.176 h 6.912 v 33.024 h 7.616 v 7.616 z m 46.208,0.768 q -6.528,0 -10.56,-5.44 -3.968,-5.44 -3.968,-15.808 0,-10.432 3.968,-15.68 4.032,-5.248 10.56,-5.248 6.528,0 10.496,5.312 4.032,5.248 4.032,15.616 0,10.368 -4.032,15.808 -3.968,5.44 -10.496,5.44 z m 0,-7.296 q 1.6,0 2.88,-1.152 1.28,-1.216 1.984,-4.224 0.768,-3.072 0.768,-8.576 0,-5.568 -0.768,-8.512 -0.704,-2.944 -1.984,-4.032 -1.28,-1.088 -2.88,-1.088 -1.6,0 -2.88,1.088 -1.28,1.088 -2.048,4.032 -0.704,2.944 -0.704,8.512 0,5.504 0.704,8.576 0.768,3.008 2.048,4.224 1.28,1.152 2.88,1.152 z m 34.88,7.296 q -2.944,0 -5.696,-1.152 -2.752,-1.152 -4.928,-3.584 -2.176,-2.432 -3.456,-6.208 -1.28,-3.84 -1.28,-9.216 0,-5.696 1.344,-9.856 1.344,-4.16 3.648,-6.848 2.304,-2.688 5.248,-3.968 2.944,-1.344 6.208,-1.344 4.032,0 6.976,1.472 2.944,1.408 4.864,3.392 l -4.928,5.632 q -1.088,-1.152 -2.816,-1.984 -1.728,-0.896 -3.52,-0.896 -2.304,0 -4.288,1.344 -1.92,1.344 -3.072,4.544 -1.088,3.136 -1.088,8.512 0,5.056 0.896,7.936 0.96,2.816 2.496,4.032 1.536,1.152 3.2,1.152 1.408,0 2.56,-0.704 1.152,-0.704 1.856,-2.112 0.704,-1.472 0.704,-3.776 0,-2.176 -0.704,-3.456 -0.704,-1.28 -1.92,-1.856 -1.152,-0.576 -2.688,-0.576 -1.6,0 -3.328,0.96 -1.664,0.96 -3.008,3.392 l -0.448,-6.144 q 1.6,-2.368 4.096,-3.584 2.496,-1.28 4.48,-1.28 3.456,0 6.208,1.344 2.752,1.344 4.288,4.16 1.6,2.752 1.6,7.04 0,4.224 -1.856,7.296 -1.792,3.072 -4.864,4.736 -3.072,1.6 -6.784,1.6 z m 25.408,0 q -2.432,0 -4.096,-1.728 -1.6,-1.728 -1.6,-4.16 0,-2.56 1.6,-4.224 1.664,-1.728 4.096,-1.728 2.496,0 4.096,1.728 1.6,1.664 1.6,4.224 0,2.432 -1.6,4.16 -1.6,1.728 -4.096,1.728 z m 11.9679,-0.768 v -5.824 q 5.12,-4.544 9.088,-8.512 4.032,-3.968 6.272,-7.36 2.304,-3.392 2.304,-6.208 0,-3.008 -1.536,-4.544 -1.536,-1.6 -4.224,-1.6 -2.176,0 -3.968,1.28 -1.728,1.216 -3.264,2.88 l -4.928,-4.864 q 2.944,-3.328 6.016,-4.992 3.136,-1.664 7.424,-1.664 3.968,0 6.976,1.6 3.072,1.6 4.736,4.48 1.728,2.88 1.728,6.784 0,3.648 -1.984,7.168 -1.92,3.456 -5.12,6.912 -3.2,3.456 -6.784,7.04 1.536,-0.192 3.456,-0.32 1.92,-0.192 3.328,-0.192 h 9.088 v 7.936 z m -102.688,-80 v -33.792 h -11.456 v -7.936 h 32.384 v 7.936 h -11.4559 v 33.792 z m 27.456,0 v -41.728 h 15.04 q 4.416,0 8.064,1.216 3.648,1.152 5.824,4.032 2.176,2.816 2.176,7.744 0,4.8 -2.176,7.808 -2.176,3.008 -5.824,4.48 -3.648,1.408 -8.064,1.408 h -5.632 v 15.04 z m 9.408,-22.528 h 4.864 q 3.712,0 5.632,-1.536 1.984,-1.6 1.984,-4.672 0,-3.072 -1.984,-4.288 -1.92,-1.216 -5.632,-1.216 h -4.864 z m 13.184,22.528 -9.28,-17.472 6.528,-6.08 13.312,23.552 z m 12.4801,8.96 v -5.312 h 30.464 v 5.312 z m 36.16,-8.96 v -41.728 h 9.408 v 33.792 h 16.512 v 7.936 z m -587.6467,110.24 v -11.424 h 13.248 v -35.232 h -11.424 v -8.736 q 4.992,-0.96 8.448,-2.304 3.552,-1.344 6.72,-3.264 h 10.368 v 49.536 h 11.424 v 11.424 z m 69.312,1.152 q -9.792,0 -15.84,-8.16 -5.952,-8.16 -5.952,-23.712 0,-15.648 5.952,-23.52 6.048,-7.872 15.84,-7.872 9.792,0 15.744,7.968 6.048,7.872 6.048,23.424 0,15.552 -6.048,23.712 -5.952,8.16 -15.744,8.16 z m 0,-10.944 q 2.4,0 4.32,-1.728 1.92,-1.824 2.976,-6.336 1.152,-4.608 1.152,-12.864 0,-8.352 -1.152,-12.768 -1.056,-4.416 -2.976,-6.048 -1.92,-1.632 -4.32,-1.632 -2.4,0 -4.32,1.632 -1.92,1.632 -3.072,6.048 -1.056,4.416 -1.056,12.768 0,8.256 1.056,12.864 1.152,4.512 3.072,6.336 1.92,1.728 4.32,1.728 z m 52.32,10.944 q -4.416,0 -8.544,-1.728 -4.128,-1.728 -7.392,-5.376 -3.264,-3.648 -5.184,-9.312 -1.92,-5.76 -1.92,-13.824 0,-8.544 2.016,-14.784 2.016,-6.24 5.472,-10.272 3.456,-4.032 7.872,-5.952 4.416,-2.016 9.312,-2.016 6.048,0 10.464,2.208 4.416,2.112 7.296,5.088 l -7.392,8.448 q -1.632,-1.728 -4.224,-2.976 -2.592,-1.344 -5.28,-1.344 -3.456,0 -6.432,2.016 -2.88,2.016 -4.608,6.816 -1.632,4.704 -1.632,12.768 0,7.584 1.344,11.904 1.44,4.224 3.744,6.048 2.304,1.728 4.8,1.728 2.112,0 3.84,-1.056 1.728,-1.056 2.784,-3.168 1.056,-2.208 1.056,-5.664 0,-3.264 -1.056,-5.184 -1.056,-1.92 -2.88,-2.784 -1.728,-0.864 -4.032,-0.864 -2.4,0 -4.992,1.44 -2.496,1.44 -4.512,5.088 l -0.672,-9.216 q 2.4,-3.552 6.144,-5.376 3.744,-1.92 6.72,-1.92 5.184,0 9.312,2.016 4.128,2.016 6.432,6.24 2.4,4.128 2.4,10.56 0,6.336 -2.784,10.944 -2.688,4.608 -7.296,7.104 -4.608,2.4 -10.176,2.4 z m 38.112,0 q -3.648,0 -6.144,-2.592 -2.4,-2.592 -2.4,-6.24 0,-3.84 2.4,-6.336 2.496,-2.592 6.144,-2.592 3.744,0 6.144,2.592 2.4,2.496 2.4,6.336 0,3.648 -2.4,6.24 -2.4,2.592 -6.144,2.592 z m 21.1199,-1.152 v -11.424 h 13.248 v -35.232 h -11.424 v -8.736 q 4.992,-0.96 8.448,-2.304 3.552,-1.344 6.72,-3.264 h 10.368 v 49.536 h 11.424 v 11.424 z m -157.2,-120 v -50.688 h -17.184 v -11.904 h 48.576 v 11.904 h -17.184 v 50.688 z m 41.184,0 v -62.592 h 22.56 q 6.624,0 12.096,1.824 5.472,1.728 8.736,6.048 3.264,4.224 3.264,11.616 0,7.2 -3.264,11.712 -3.264,4.512 -8.736,6.72 -5.472,2.112 -12.096,2.112 h -8.448 v 22.56 z m 14.112,-33.792 h 7.296 q 5.568,0 8.448,-2.304 2.976,-2.4 2.976,-7.008 0,-4.608 -2.976,-6.432 -2.88,-1.824 -8.448,-1.824 h -7.296 z m 19.776,33.792 -13.92,-26.208 9.792,-9.12 19.968,35.328 z m 18.7201,13.44 v -7.968 h 45.696 v 7.968 z m 54.24,-13.44 v -62.592 h 14.112 v 50.688 h 24.768 v 11.904 z m -32.7773,739.07069 v -22.848 h 26.496 v -70.464 h -22.848 v -17.472 q 9.984,-1.92 16.896,-4.608 7.104,-2.688 13.44,-6.528 h 20.736 v 99.072 h 22.848 v 22.848 z m 138.624,2.304 q -19.584,0 -31.68,-16.32 -11.904,-16.32 -11.904,-47.424 0,-31.296 11.904,-47.04 12.096,-15.744 31.68,-15.744 19.584,0 31.488,15.936 12.096,15.744 12.096,46.848 0,31.104 -12.096,47.424 -11.904,16.32 -31.488,16.32 z m 0,-21.888 q 4.8,0 8.64,-3.456 3.84,-3.648 5.952,-12.672 2.304,-9.216 2.304,-25.728 0,-16.704 -2.304,-25.536 -2.112,-8.832 -5.952,-12.096 -3.84,-3.264 -8.64,-3.264 -4.8,0 -8.64,3.264 -3.84,3.264 -6.144,12.096 -2.112,8.832 -2.112,25.536 0,16.512 2.112,25.728 2.304,9.024 6.144,12.672 3.84,3.456 8.64,3.456 z m 104.64,21.888 q -8.832,0 -17.088,-3.456 -8.256,-3.456 -14.784,-10.752 -6.528,-7.296 -10.368,-18.624 -3.84,-11.52 -3.84,-27.648 0,-17.088 4.032,-29.568 4.032,-12.48 10.944,-20.544 6.912,-8.064 15.744,-11.904 8.832,-4.032 18.624,-4.032 12.096,0 20.928,4.416 8.832,4.224 14.592,10.176 l -14.784,16.896 q -3.264,-3.456 -8.448,-5.952 -5.184,-2.688 -10.56,-2.688 -6.912,0 -12.864,4.032 -5.76,4.032 -9.216,13.632 -3.264,9.408 -3.264,25.536 0,15.168 2.688,23.808 2.88,8.448 7.488,12.096 4.608,3.456 9.6,3.456 4.224,0 7.68,-2.112 3.456,-2.112 5.568,-6.336 2.112,-4.416 2.112,-11.328 0,-6.528 -2.112,-10.368 -2.112,-3.84 -5.76,-5.568 -3.456,-1.728 -8.064,-1.728 -4.8,0 -9.984,2.88 -4.992,2.88 -9.024,10.176 l -1.344,-18.432 q 4.8,-7.104 12.288,-10.752 7.488,-3.84 13.44,-3.84 10.368,0 18.624,4.032 8.256,4.032 12.864,12.48 4.8,8.256 4.8,21.12 0,12.672 -5.568,21.888 -5.376,9.216 -14.592,14.208 -9.216,4.8 -20.352,4.8 z m -275.424,-242.304 V -1092.639 h -34.368 v -23.808 h 97.152 v 23.808 h -34.368 v 101.37599 z m 82.3679,0 V -1116.447 h 45.12 q 13.248,0 24.192,3.648 10.944,3.456 17.472,12.096 6.528,8.448 6.528,23.232 0,14.4 -6.528,23.424 -6.528,9.024 -17.472,13.44 -10.944,4.224 -24.192,4.224 h -16.896 v 45.11999 z m 28.224,-67.58399 h 14.592 q 11.136,0 16.896,-4.608 5.952,-4.8 5.952,-14.016 0,-9.216 -5.952,-12.864 -5.76,-3.648 -16.896,-3.648 h -14.592 z m 39.552,67.58399 -27.84,-52.41599 19.584,-18.24 39.936,70.65599 z m 37.4402,26.88 v -15.936 h 91.392 v 15.936 z m 108.48,-26.88 V -1116.447 h 28.224 v 101.376 h 49.536 v 23.80799 z m -373.0328,852.60109 v -11.424 h 13.248 v -35.232 h -11.424 v -8.736 q 4.992,-0.96 8.448,-2.304 3.552,-1.344 6.72,-3.264 h 10.368 v 49.536 h 11.424 v 11.424 z m 69.312,1.152 q -9.792,0 -15.84,-8.16 -5.952,-8.16 -5.952,-23.712 0,-15.648 5.952,-23.52 6.048,-7.872 15.84,-7.872 9.792,0 15.744,7.968 6.048,7.872 6.048,23.424 0,15.552 -6.048,23.712 -5.952,8.16 -15.744,8.16 z m 0,-10.944 q 2.4,0 4.32,-1.728 1.92,-1.824 2.976,-6.336 1.152,-4.608 1.152,-12.864 0,-8.352 -1.152,-12.768 -1.056,-4.416 -2.976,-6.048 -1.92,-1.632 -4.32,-1.632 -2.4,0 -4.32,1.632 -1.92,1.632 -3.072,6.048 -1.056,4.416 -1.056,12.768 0,8.256 1.056,12.864 1.152,4.512 3.072,6.336 1.92,1.728 4.32,1.728 z m 49.0559,10.944 q -4.992,0 -9.024,-1.152 -3.936,-1.152 -7.008,-3.072 -3.072,-1.92 -5.472,-4.32 l 6.336,-8.928 q 2.784,2.496 6.048,4.32 3.264,1.728 7.104,1.728 3.072,0 5.376,-1.056 2.304,-1.152 3.552,-3.264 1.344,-2.112 1.344,-5.184 0,-4.608 -2.688,-7.008 -2.688,-2.4 -6.912,-2.4 -2.592,0 -4.416,0.672 -1.824,0.672 -4.608,2.4 l -6.336,-4.032 1.728,-30.816 h 34.56 v 11.904 h -22.368 l -1.056,11.424 q 1.824,-0.768 3.36,-1.056 1.536,-0.384 3.456,-0.384 5.28,0 9.696,2.016 4.416,2.016 7.008,6.24 2.688,4.224 2.688,10.656 0,6.816 -3.168,11.616 -3.072,4.704 -8.16,7.2 -5.088,2.496 -11.04,2.496 z m -134.448,-121.152 v -50.688 h -17.184 v -11.904 h 48.576 v 11.904 h -17.184 v 50.688 z m 41.184,0 v -62.592 h 22.56 q 6.624,0 12.096,1.824 5.472,1.728 8.736,6.048 3.264,4.224 3.264,11.616 0,7.2 -3.264,11.712 -3.264,4.512 -8.736,6.72 -5.472,2.112 -12.096,2.112 h -8.448 v 22.56 z m 14.112,-33.792 h 7.296 q 5.568,0 8.448,-2.304 2.976,-2.4 2.976,-7.008 0,-4.608 -2.976,-6.432 -2.88,-1.824 -8.448,-1.824 h -7.296 z m 19.776,33.792 -13.92,-26.208 9.792,-9.12 19.968,35.328 z m 18.7201,13.44 v -7.968 h 45.696 v 7.968 z m 54.24,-13.44 v -62.592 h 14.112 v 50.688 h 24.768 v 11.904 z m 806.3014,229.322464 v -7.616 h 8.832 v -23.488 h -7.616 v -5.824 q 3.328,-0.64 5.632,-1.536 2.368,-0.896 4.48,-2.176 h 6.912 v 33.024 h 7.616 v 7.616 z m 46.208,0.768 q -6.528,0 -10.56,-5.44 -3.968,-5.44 -3.968,-15.808 0,-10.432 3.968,-15.68 4.032,-5.248 10.56,-5.248 6.528,0 10.496,5.312 4.032,5.248 4.032,15.616 0,10.368 -4.032,15.808 -3.968,5.44 -10.496,5.44 z m 0,-7.296 q 1.6,0 2.88,-1.152 1.28,-1.216 1.984,-4.224 0.768,-3.072 0.768,-8.576 0,-5.568 -0.768,-8.512 -0.704,-2.944 -1.984,-4.032 -1.28,-1.088 -2.88,-1.088 -1.6,0 -2.88,1.088 -1.28,1.088 -2.048,4.032 -0.704,2.944 -0.704,8.512 0,5.504 0.704,8.576 0.768,3.008 2.048,4.224 1.28,1.152 2.88,1.152 z m 32.448,7.296 q -3.264,0 -5.952,-0.768 -2.624,-0.704 -4.672,-1.984 -2.048,-1.28 -3.52,-3.008 l 4.352,-5.952 q 1.856,1.792 4.096,2.944 2.24,1.152 4.8,1.152 2.944,0 4.736,-1.216 1.856,-1.28 1.856,-3.584 0,-1.792 -0.896,-3.072 -0.896,-1.344 -3.264,-2.048 -2.304,-0.704 -6.784,-0.704 v -6.656 q 3.648,0 5.76,-0.704 2.112,-0.704 2.944,-1.92 0.896,-1.216 0.896,-2.816 0,-2.176 -1.344,-3.328 -1.28,-1.152 -3.648,-1.152 -2.176,0 -3.968,0.96 -1.728,0.896 -3.648,2.624 l -4.736,-5.76 q 2.816,-2.432 5.952,-3.776 3.136,-1.408 6.848,-1.408 4.16,0 7.296,1.344 3.2,1.28 4.928,3.776 1.792,2.432 1.792,6.016 0,3.136 -1.792,5.376 -1.728,2.24 -4.992,3.648 v 0.256 q 2.304,0.704 4.16,2.048 1.856,1.28 2.88,3.264 1.024,1.984 1.024,4.608 0,3.776 -2.112,6.464 -2.048,2.624 -5.504,4.032 -3.392,1.344 -7.488,1.344 z m -89.376,-80.768004 v -33.792 h -11.456 v -7.936 h 32.384 v 7.936 h -11.456 v 33.792 z m 27.456,0 v -41.728 h 15.04 q 4.416,0 8.064,1.216 3.648,1.152 5.824,4.032 2.176,2.816 2.176,7.744 0,4.8 -2.176,7.808 -2.176,3.008 -5.824,4.48 -3.648,1.408 -8.064,1.408 h -5.632 v 15.04 z m 9.408,-22.528 h 4.864 q 3.712,0 5.632,-1.536 1.984,-1.6 1.984,-4.672 0,-3.072 -1.984,-4.288 -1.92,-1.216 -5.632,-1.216 h -4.864 z m 13.184,22.528 -9.28,-17.472 6.528,-6.08 13.312,23.552 z m 12.48,8.96 v -5.312 h 30.464 v 5.312 z m 36.16,-8.96 v -41.728 h 9.408 v 33.792 h 16.512 v 7.936 z m -513.447,110.24004 v -11.424 h 13.248 v -35.232 h -11.424 v -8.736 q 4.992,-0.96 8.448,-2.304 3.552,-1.344 6.72,-3.264 h 10.368 v 49.536 h 11.424 v 11.424 z m 69.312,1.152 q -9.792,0 -15.84,-8.16 -5.952,-8.16 -5.952,-23.712 0,-15.648 5.952,-23.52 6.048,-7.872 15.84,-7.872 9.792,0 15.744,7.968 6.048,7.872 6.048,23.424 0,15.552 -6.048,23.712 -5.952,8.16 -15.744,8.16 z m 0,-10.944 q 2.4,0 4.32,-1.728 1.92,-1.824 2.976,-6.336 1.152,-4.608 1.152,-12.864 0,-8.352 -1.152,-12.768 -1.056,-4.416 -2.976,-6.048 -1.92,-1.632 -4.32,-1.632 -2.4,0 -4.32,1.632 -1.92,1.632 -3.072,6.048 -1.056,4.416 -1.056,12.768 0,8.256 1.056,12.864 1.152,4.512 3.072,6.336 1.92,1.728 4.32,1.728 z m 53.568,9.792 v -35.232 q 0,-2.88 0.192,-6.816 0.288,-3.936 0.384,-6.816 h -0.384 q -1.152,2.496 -2.4,5.088 -1.248,2.496 -2.592,5.184 l -8.064,13.248 h 33.024 v 10.752 h -46.56 v -9.696 l 22.272,-36.672 h 17.28 v 60.96 z m -138.96,-120 v -50.688 h -17.184 v -11.904 h 48.576 v 11.904 h -17.184 v 50.688 z m 41.184,0 v -62.592 h 22.56 q 6.624,0 12.096,1.824 5.472,1.728 8.736,6.048 3.264,4.224 3.264,11.616 0,7.2 -3.264,11.712 -3.264,4.512 -8.736,6.72 -5.472,2.112 -12.096,2.112 h -8.448 v 22.56 z m 14.112,-33.792 h 7.296 q 5.568,0 8.448,-2.304 2.976,-2.4 2.976,-7.008 0,-4.608 -2.976,-6.432 -2.88,-1.824 -8.448,-1.824 h -7.296 z m 19.776,33.792 -13.92,-26.208 9.792,-9.12 19.968,35.328 z m 18.7201,13.44 v -7.968 h 45.696 v 7.968 z m 54.24,-13.44 v -62.592 h 14.112 v 50.688 h 24.768 v 11.904 z M 810.5817,1.08808 v -11.424 h 13.248 v -35.232 h -11.424 v -8.736 q 4.992,-0.96 8.448,-2.304 3.552,-1.344 6.72,-3.264 h 10.368 v 49.536 h 11.424 v 11.424 z m 50.68799,0 v -11.424 h 13.248 v -35.232 h -11.424 v -8.736 q 4.992,-0.96 8.448,-2.304 3.552,-1.344 6.72,-3.264 h 10.368 v 49.536 h 11.424 v 11.424 z m 65.95198,1.152 q -6.048,0 -10.464,-2.208 -4.416,-2.208 -7.392,-5.088 l 7.488,-8.448 q 1.536,1.728 4.128,3.072 2.688,1.248 5.28,1.248 3.648,0 6.432,-2.016 2.88,-2.016 4.512,-6.72 1.728,-4.8 1.728,-12.864 0,-7.584 -1.44,-11.808 -1.344,-4.32 -3.648,-6.048 -2.208,-1.824 -4.8,-1.824 -2.016,0 -3.84,1.056 -1.728,1.056 -2.784,3.168 -1.056,2.112 -1.056,5.664 0,3.168 1.056,5.184 1.056,1.92 2.88,2.784 1.824,0.864 4.128,0.864 2.4,0 4.896,-1.44 2.496,-1.536 4.512,-5.088 l 0.672,9.216 q -2.304,3.36 -6.048,5.376 -3.744,1.92 -6.816,1.92 -5.184,0 -9.312,-2.016 -4.128,-2.016 -6.528,-6.144 -2.304,-4.224 -2.304,-10.656 0,-6.336 2.784,-10.944 2.784,-4.608 7.392,-7.008 4.608,-2.496 10.08,-2.496 4.512,0 8.64,1.728 4.128,1.728 7.296,5.376 3.264,3.648 5.184,9.408 2.016,5.664 2.016,13.728 0,8.544 -2.112,14.784 -2.016,6.24 -5.472,10.272 -3.456,4.032 -7.872,6.048 -4.416,1.92 -9.216,1.92 z m -132.72,-121.152 v -50.688 h -17.184 v -11.904 h 48.576 v 11.904 h -17.184 v 50.688 z m 41.18397,0 v -62.592 h 22.56 q 6.624,0 12.096,1.824 5.472,1.728 8.736,6.048 3.264,4.224 3.264,11.616 0,7.2 -3.264,11.712 -3.264,4.512 -8.736,6.72 -5.472,2.112 -12.096,2.112 h -8.448 v 22.56 z m 14.112,-33.792 h 7.296 q 5.568,0 8.448,-2.304 2.976,-2.4 2.976,-7.008 0,-4.608 -2.976,-6.432 -2.88,-1.824 -8.448,-1.824 h -7.296 z m 19.776,33.792 -13.92,-26.208 9.792,-9.12 19.968,35.328 z m 18.72009,13.44 v -7.968 h 45.696 v 7.968 z m 54.24,-13.44 v -62.592 h 14.112 v 50.688 h 24.768 v 11.904 z m 270.46917,120 v -11.424 h 13.248 v -35.232 h -11.424 v -8.736 q 4.992,-0.96 8.448,-2.304 3.552,-1.344 6.72,-3.264 h 10.368 v 49.536 h 11.424 v 11.424 z m 50.688,0 v -11.424 h 13.248 v -35.232 h -11.424 v -8.736 q 4.992,-0.96 8.448,-2.304 3.552,-1.344 6.72,-3.264 h 10.368 v 49.536 h 11.424 v 11.424 z m 69.216,1.152 q -6.048,0 -10.944,-2.112 -4.8,-2.112 -7.584,-5.856 -2.688,-3.84 -2.688,-8.736 0,-3.744 1.344,-6.432 1.44,-2.784 3.744,-4.896 2.4,-2.112 5.28,-3.648 v -0.384 q -3.456,-2.688 -5.856,-6.144 -2.304,-3.456 -2.304,-8.256 0,-5.184 2.496,-8.928 2.496,-3.84 6.912,-5.856 4.416,-2.016 10.08,-2.016 8.448,0 13.44,4.608 5.088,4.512 5.088,12.096 0,2.88 -1.152,5.472 -1.056,2.496 -2.88,4.512 -1.824,1.92 -3.936,3.36 v 0.384 q 2.88,1.536 5.28,3.744 2.4,2.112 3.84,5.184 1.44,2.976 1.44,7.008 0,4.8 -2.688,8.64 -2.688,3.744 -7.584,6.048 -4.8,2.208 -11.328,2.208 z m 3.84,-36.672 q 1.824,-2.112 2.784,-4.32 0.96,-2.208 0.96,-4.608 0,-2.4 -0.864,-4.128 -0.864,-1.728 -2.592,-2.688 -1.632,-1.056 -3.936,-1.056 -2.784,0 -4.8,1.824 -2.016,1.728 -2.016,5.184 0,2.496 1.344,4.224 1.344,1.728 3.648,3.072 2.4,1.344 5.472,2.496 z m -3.552,26.88 q 2.304,0 4.128,-0.768 1.92,-0.864 2.976,-2.496 1.056,-1.728 1.056,-4.32 0,-2.688 -1.632,-4.416 -1.536,-1.824 -4.512,-3.168 -2.88,-1.44 -6.72,-3.072 -2.016,1.824 -3.36,4.416 -1.344,2.496 -1.344,5.28 0,2.688 1.248,4.608 1.344,1.92 3.456,2.976 2.208,0.96 4.704,0.96 z m -136.272,-111.36 v -50.688 h -17.184 v -11.904 h 48.576 v 11.904 h -17.184 v 50.688 z m 41.1839,0 v -62.592 h 22.56 q 6.624,0 12.096,1.824 5.472,1.728 8.736,6.048 3.264,4.224 3.264,11.616 0,7.2 -3.264,11.712 -3.264,4.512 -8.736,6.72 -5.472,2.112 -12.096,2.112 h -8.448 v 22.56 z m 14.112,-33.792 h 7.296 q 5.568,0 8.448,-2.304 2.976,-2.4 2.976,-7.008 0,-4.608 -2.976,-6.432 -2.88,-1.824 -8.448,-1.824 h -7.296 z m 19.776,33.792 -13.92,-26.208 9.792,-9.12 19.968,35.328 z m 18.7201,13.44 v -7.968 h 45.696 v 7.968 z m 54.24,-13.44 v -62.592 h 14.112 v 50.688 h 24.768 v 11.904 z m 354.5874,120.576 v -11.424 h 13.248 v -35.232 h -11.424 v -8.736 q 4.992,-0.96 8.448,-2.304 3.552,-1.344 6.72,-3.264 h 10.368 v 49.536 h 11.424 v 11.424 z m 50.688,0 v -11.424 h 13.248 v -35.232 h -11.424 v -8.736 q 4.992,-0.96 8.448,-2.304 3.552,-1.344 6.72,-3.264 h 10.368 v 49.536 h 11.424 v 11.424 z m 58.368,0 q 0.48,-7.584 1.536,-13.92 1.056,-6.432 2.976,-12.192 2.016,-5.76 5.088,-11.328 3.072,-5.568 7.584,-11.616 h -27.36 v -11.904 h 42.432 v 8.64 q -5.376,6.528 -8.832,12.192 -3.36,5.664 -5.184,11.52 -1.824,5.856 -2.688,12.768 -0.864,6.912 -1.344,15.84 z m -125.136,-120 v -50.688 h -17.184 v -11.904 h 48.576 v 11.904 h -17.184 v 50.688 z m 41.1839,0 v -62.592 h 22.56 q 6.624,0 12.096,1.824 5.472,1.728 8.736,6.048 3.264,4.224 3.264,11.616 0,7.2 -3.264,11.712 -3.264,4.512 -8.736,6.72 -5.472,2.112 -12.096,2.112 h -8.448 v 22.56 z m 14.112,-33.792 h 7.296 q 5.568,0 8.448,-2.304 2.976,-2.4 2.976,-7.008 0,-4.608 -2.976,-6.432 -2.88,-1.824 -8.448,-1.824 h -7.296 z m 19.776,33.792 -13.92,-26.208 9.792,-9.12 19.968,35.328 z m 18.7201,13.44 v -7.968 h 45.696 v 7.968 z m 54.24,-13.44 v -62.592 h 14.112 v 50.688 h 24.768 v 11.904 z m -236.4756,-916.32758 v -11.424 h 13.248 v -35.232 h -11.424 v -8.736 q 4.992,-0.96 8.448,-2.304 3.552,-1.344 6.72,-3.264 h 10.368 v 49.536 h 11.424 v 11.424 z m 50.688,0 v -11.424 h 13.248 v -35.232 h -11.424 v -8.736 q 4.992,-0.96 8.448,-2.304 3.552,-1.344 6.72,-3.264 h 10.368 v 49.536 h 11.424 v 11.424 z m 67.68,1.152 q -4.992,0 -9.024,-1.152 -3.936,-1.152 -7.008,-3.072 -3.072,-1.92 -5.472,-4.32 l 6.336,-8.928 q 2.784,2.496 6.048,4.32 3.264,1.728 7.104,1.728 3.072,0 5.376,-1.056 2.304,-1.152 3.552,-3.264 1.344,-2.112 1.344,-5.184 0,-4.608 -2.688,-7.008 -2.688,-2.4 -6.912,-2.4 -2.592,0 -4.416,0.672 -1.824,0.672 -4.608,2.4 l -6.336,-4.032 1.728,-30.816 h 34.56 v 11.904 h -22.368 l -1.056,11.424 q 1.824,-0.768 3.36,-1.056 1.536,-0.384 3.456,-0.384 5.28,0 9.696,2.016 4.416,2.016 7.008,6.24 2.688,4.224 2.688,10.656 0,6.816 -3.168,11.616 -3.072,4.704 -8.16,7.2 -5.088,2.496 -11.04,2.496 z m 41.376,0 q -3.648,0 -6.144,-2.592 -2.4,-2.592 -2.4,-6.24 0,-3.84 2.4,-6.336 2.496,-2.592 6.144,-2.592 3.744,0 6.144,2.592 2.4,2.496 2.4,6.336 0,3.648 -2.4,6.24 -2.4,2.592 -6.144,2.592 z m 21.1199,-1.152 v -11.424 h 13.248 v -35.232 h -11.424 v -8.736 q 4.992,-0.96 8.448,-2.304 3.552,-1.344 6.72,-3.264 h 10.368 v 49.536 h 11.424 v 11.424 z m -157.1999,-120 v -50.688 h -17.184 v -11.904 h 48.576 v 11.904 h -17.184 v 50.688 z m 41.1839,0 v -62.592 h 22.56 q 6.624,0 12.096,1.824 5.472,1.728 8.736,6.048 3.264,4.224 3.264,11.616 0,7.2 -3.264,11.712 -3.264,4.512 -8.736,6.72 -5.472,2.112 -12.096,2.112 h -8.448 v 22.56 z m 14.112,-33.792 h 7.296 q 5.568,0 8.448,-2.304 2.976,-2.4 2.976,-7.008 0,-4.608 -2.976,-6.432 -2.88,-1.824 -8.448,-1.824 h -7.296 z m 19.776,33.792 -13.92,-26.208 9.792,-9.12 19.968,35.328 z m 18.7201,13.44 v -7.968 h 45.696 v 7.968 z m 54.24,-13.44 v -62.592 h 14.112 v 50.688 h 24.768 v 11.904 z m -233.0652,-209.1176 v -11.424 h 13.248 v -35.232 h -11.424 v -8.736 q 4.992,-0.96 8.448,-2.304 3.552,-1.344 6.72,-3.264 h 10.368 v 49.536 h 11.424 v 11.424 z m 50.688,0 v -11.424 h 13.248 v -35.232 h -11.424 v -8.736 q 4.992,-0.96 8.448,-2.304 3.552,-1.344 6.72,-3.264 h 10.368 v 49.536 h 11.424 v 11.424 z m 67.68,1.152 q -4.992,0 -9.024,-1.152 -3.936,-1.152 -7.008,-3.072 -3.072,-1.92 -5.472,-4.32 l 6.336,-8.928 q 2.784,2.496 6.048,4.32 3.264,1.728 7.104,1.728 3.072,0 5.376,-1.056 2.304,-1.152 3.552,-3.264 1.344,-2.112 1.344,-5.184 0,-4.608 -2.688,-7.008 -2.688,-2.4 -6.912,-2.4 -2.592,0 -4.416,0.672 -1.824,0.672 -4.608,2.4 l -6.336,-4.032 1.728,-30.816 h 34.56 v 11.904 h -22.368 l -1.056,11.424 q 1.824,-0.768 3.36,-1.056 1.536,-0.384 3.456,-0.384 5.28,0 9.696,2.016 4.416,2.016 7.008,6.24 2.688,4.224 2.688,10.656 0,6.816 -3.168,11.616 -3.072,4.704 -8.16,7.2 -5.088,2.496 -11.04,2.496 z m -134.448,-121.152 v -50.688 h -17.184 v -11.904 h 48.576 v 11.904 h -17.184 v 50.688 z m 41.1839,0 v -62.592 h 22.56 q 6.624,0 12.096,1.824 5.472,1.728 8.736,6.048 3.264,4.224 3.264,11.616 0,7.2 -3.264,11.712 -3.264,4.512 -8.736,6.72 -5.472,2.112 -12.096,2.112 h -8.448 v 22.56 z m 14.112,-33.792 h 7.296 q 5.568,0 8.448,-2.304 2.976,-2.4 2.976,-7.008 0,-4.608 -2.976,-6.432 -2.88,-1.824 -8.448,-1.824 h -7.296 z m 19.776,33.792 -13.92,-26.208 9.792,-9.12 19.968,35.328 z m 18.7201,13.44 v -7.968 h 45.696 v 7.968 z m 54.24,-13.44 v -62.592 h 14.112 v 50.688 h 24.768 v 11.904 z m -2712.4322,795.97232 v -7.616 h 8.832 v -23.488 h -7.616 v -5.824 q 3.328,-0.64 5.632,-1.536 2.368,-0.896 4.48,-2.176 h 6.912 v 33.024 h 7.616 v 7.616 z m 33.792,0 v -7.616 h 8.832 v -23.488 h -7.616 v -5.824 q 3.328,-0.64 5.632,-1.536 2.368,-0.896 4.48,-2.176 h 6.91198 v 33.024 h 7.616 v 7.616 z m 46.20798,0.768 q -6.528,0 -10.56,-5.44 -3.968,-5.44 -3.968,-15.808 0,-10.432 3.968,-15.68 4.032,-5.248 10.56,-5.248 6.528,0 10.496,5.312 4.032,5.248 4.032,15.616 0,10.368 -4.032,15.808 -3.968,5.44 -10.496,5.44 z m 0,-7.296 q 1.6,0 2.88,-1.152 1.28,-1.216 1.984,-4.224 0.768,-3.072 0.768,-8.576 0,-5.568 -0.768,-8.512 -0.704,-2.944 -1.984,-4.032 -1.28,-1.088 -2.88,-1.088 -1.6,0 -2.88,1.088 -1.28,1.088 -2.048,4.032 -0.704,2.944 -0.704,8.512 0,5.504 0.704,8.576 0.768,3.008 2.048,4.224 1.28,1.152 2.88,1.152 z m -90.71998,-73.472 v -33.792 h -11.456 v -7.936 h 32.384 v 7.936 h -11.456 v 33.792 z m 27.456,0 v -41.728 h 15.04 q 4.416,0 8.064,1.216 3.648,1.152 5.824,4.032 2.17596,2.816 2.17596,7.744 0,4.8 -2.17596,7.808 -2.176,3.008 -5.824,4.48 -3.648,1.408 -8.064,1.408 h -5.632 v 15.04 z m 9.408,-22.528 h 4.864 q 3.712,0 5.632,-1.536 1.984,-1.6 1.984,-4.672 0,-3.072 -1.984,-4.288 -1.92,-1.216 -5.632,-1.216 h -4.864 z m 13.184,22.528 -9.28,-17.472 6.528,-6.08 13.31196,23.552 z m 12.48001,8.96 v -5.312 h 30.464 v 5.312 z m 36.16,-8.96 v -41.728 h 9.408 v 33.792 h 16.512 v 7.936 z m 465.06148,95.79301 v -5.712 h 6.624 v -17.616 h -5.712 v -4.368 q 2.496,-0.48 4.224,-1.152 1.776,-0.672 3.36,-1.632 h 5.184 v 24.768 h 5.712 v 5.712 z m 25.34399,0 v -5.712 h 6.624 v -17.616 h -5.712 v -4.368 q 2.496,-0.48 4.224,-1.152 1.776,-0.672 3.36,-1.632 h 5.184 v 24.768 h 5.712 v 5.712 z m 25.344,0 v -5.712 h 6.624 v -17.616 h -5.712 v -4.368 q 2.496,-0.48 4.224,-1.152 1.776,-0.672 3.36,-1.632 h 5.184 v 24.768 h 5.712 v 5.712 z m -58.72801,-60 v -25.344 h -8.592 v -5.952 h 24.288 v 5.952 h -8.592 v 25.344 z m 20.59199,0 v -31.296 h 11.28 q 3.312,0 6.048,0.912 2.736,0.864 4.368,3.024 1.632,2.112 1.632,5.808 0,3.6 -1.632,5.856 -1.632,2.256 -4.368,3.36 -2.736,1.056 -6.048,1.056 h -4.224 v 11.28 z m 7.056,-16.896 h 3.648 q 2.784,0 4.224,-1.152 1.488,-1.2 1.488,-3.504 0,-2.304 -1.488,-3.216 -1.44,-0.912 -4.224,-0.912 h -3.648 z m 9.888,16.896 -6.96,-13.104 4.896,-4.56 9.984,17.664 z m 9.36004,6.72 v -3.984 h 22.848 v 3.984 z m 27.12,-6.72 v -31.296 h 7.056 v 25.344 h 12.384 v 5.952 z m 251.9478,-423.64653 v -11.424 h 13.248 v -35.232 h -11.424 v -8.736 q 4.992,-0.96 8.448,-2.304 3.552,-1.344 6.72,-3.264 h 10.368 v 49.536 h 11.424 v 11.424 z m 50.68799,0 v -11.424 h 13.248 v -35.232 h -11.424 v -8.736 q 4.992,-0.96 8.448,-2.304 3.552,-1.344 6.72,-3.264 h 10.368 v 49.536 h 11.424 v 11.424 z m 67.29598,1.152 q -4.896,0 -8.928,-1.152 -3.936,-1.056 -7.008,-2.976 -3.072,-1.92 -5.28,-4.512 l 6.528,-8.928 q 2.784,2.688 6.144,4.416 3.36,1.728 7.2,1.728 4.416,0 7.104,-1.824 2.784,-1.92 2.784,-5.376 0,-2.688 -1.344,-4.608 -1.344,-2.016 -4.896,-3.072 -3.456,-1.056 -10.176,-1.056 v -9.984 q 5.472,0 8.64,-1.056 3.168,-1.056 4.416,-2.88 1.344,-1.824 1.344,-4.224 0,-3.264 -2.016,-4.992 -1.92,-1.728 -5.472,-1.728 -3.264,0 -5.952,1.44 -2.592,1.344 -5.472,3.936 l -7.104,-8.64 q 4.224,-3.648 8.928,-5.664 4.704,-2.112 10.272,-2.112 6.24,0 10.944,2.016 4.8,1.92 7.392,5.664 2.688,3.648 2.688,9.024 0,4.704 -2.688,8.064 -2.592,3.36 -7.488,5.472 v 0.384 q 3.456,1.056 6.24,3.072 2.784,1.92 4.32,4.896 1.536,2.976 1.536,6.912 0,5.664 -3.168,9.696 -3.072,3.936 -8.256,6.048 -5.088,2.016 -11.232,2.016 z m -134.064,-121.152 v -50.688 h -17.184 v -11.904 h 48.576 v 11.904 h -17.184 v 50.688 z m 41.18397,0 v -62.592 h 22.56 q 6.624,0 12.096,1.824 5.472,1.728 8.736,6.048 3.264,4.224 3.264,11.616 0,7.2 -3.264,11.712 -3.264,4.512 -8.736,6.72 -5.472,2.112 -12.096,2.112 h -8.448 v 22.56 z m 14.112,-33.792 h 7.296 q 5.568,0 8.448,-2.304 2.976,-2.4 2.976,-7.008 0,-4.608 -2.976,-6.432 -2.88,-1.824 -8.448,-1.824 h -7.296 z m 19.776,33.792 -13.92,-26.208 9.792,-9.12 19.968,35.328 z m 18.72009,13.44 v -7.968 h 45.696 v 7.968 z m 54.24,-13.44 v -62.592 h 14.112 v 50.688 h 24.768 v 11.904 z m -572.47593,225.6851 v -11.424 h 13.248 v -35.232 h -11.424 v -8.736 q 4.992,-0.96 8.448,-2.304 3.552,-1.344 6.72,-3.264 h 10.368 v 49.536 h 11.424 v 11.424 z m 50.68799,0 v -11.424 h 13.248 v -35.232 h -11.424 v -8.736 q 4.992,-0.96 8.448,-2.304 3.552,-1.344 6.72,-3.264 h 10.368 v 49.536 h 11.424 v 11.424 z m 47.51998,0 v -8.736 q 7.68,-6.816 13.632,-12.768 6.048,-5.952 9.408,-11.04 3.456,-5.088 3.456,-9.312 0,-4.512 -2.304,-6.816 -2.304,-2.4 -6.336,-2.4 -3.264,0 -5.952,1.92 -2.592,1.824 -4.896,4.32 l -7.392,-7.296 q 4.416,-4.992 9.024,-7.488 4.704,-2.496 11.136,-2.496 5.952,0 10.464,2.4 4.608,2.4 7.104,6.72 2.592,4.32 2.592,10.176 0,5.472 -2.976,10.752 -2.88,5.184 -7.68,10.368 -4.8,5.184 -10.176,10.56 2.304,-0.288 5.184,-0.48 2.88,-0.288 4.992,-0.288 h 13.632 v 11.904 z m -114.288,-120 v -50.688 h -17.184 v -11.904 h 48.576 v 11.904 h -17.184 v 50.688 z m 41.18397,0 v -62.592 h 22.56 q 6.624,0 12.096,1.824 5.472,1.728 8.736,6.048 3.264,4.224 3.264,11.616 0,7.2 -3.264,11.712 -3.264,4.512 -8.736,6.72 -5.472,2.112 -12.096,2.112 h -8.448 v 22.56 z m 14.112,-33.792 h 7.296 q 5.568,0 8.448,-2.304 2.976,-2.4 2.976,-7.008 0,-4.608 -2.976,-6.432 -2.88,-1.824 -8.448,-1.824 h -7.296 z m 19.776,33.792 -13.92,-26.208 9.792,-9.12 19.968,35.328 z m 18.72009,13.44 v -7.968 h 45.696 v 7.968 z m 54.24,-13.44 v -62.592 h 14.112 v 50.688 h 24.768 v 11.904 z m -576.55943,88.799 v -11.424 h 13.248 v -35.232 h -11.424 v -8.736 q 4.992,-0.96 8.448,-2.304 3.552,-1.344 6.72,-3.264 h 10.368 v 49.536 h 11.424 v 11.424 z m 69.31199,1.152 q -9.79199,0 -15.83999,-8.16 -5.952,-8.16 -5.952,-23.712 0,-15.648 5.952,-23.52 6.048,-7.872 15.83999,-7.872 9.792,0 15.744,7.968 6.048,7.872 6.048,23.424 0,15.552 -6.048,23.712 -5.952,8.16 -15.744,8.16 z m 0,-10.944 q 2.4,0 4.32,-1.728 1.92,-1.824 2.976,-6.336 1.152,-4.608 1.152,-12.864 0,-8.352 -1.152,-12.768 -1.056,-4.416 -2.976,-6.048 -1.92,-1.632 -4.32,-1.632 -2.4,0 -4.32,1.632 -1.92,1.632 -3.072,6.048 -1.05599,4.416 -1.05599,12.768 0,8.256 1.05599,12.864 1.152,4.512 3.072,6.336 1.92,1.728 4.32,1.728 z m 47.32798,10.944 q -6.048,0 -10.464,-2.208 -4.416,-2.208 -7.392,-5.088 l 7.488,-8.448 q 1.536,1.728 4.128,3.072 2.688,1.248 5.28,1.248 3.648,0 6.432,-2.016 2.88,-2.016 4.512,-6.72 1.728,-4.8 1.728,-12.864 0,-7.584 -1.44,-11.808 -1.344,-4.32 -3.648,-6.048 -2.208,-1.824 -4.8,-1.824 -2.016,0 -3.84,1.056 -1.728,1.056 -2.784,3.168 -1.056,2.112 -1.056,5.664 0,3.168 1.056,5.184 1.056,1.92 2.88,2.784 1.824,0.864 4.128,0.864 2.4,0 4.896,-1.44 2.496,-1.536 4.512,-5.088 l 0.672,9.216 q -2.304,3.36 -6.048,5.376 -3.744,1.92 -6.816,1.92 -5.184,0 -9.312,-2.016 -4.128,-2.016 -6.528,-6.144 -2.304,-4.224 -2.304,-10.656 0,-6.336 2.784,-10.944 2.784,-4.608 7.392,-7.008 4.608,-2.496 10.08,-2.496 4.512,0 8.64,1.728 4.128,1.728 7.296,5.376 3.264,3.648 5.184,9.408 2.016,5.664 2.016,13.728 0,8.544 -2.112,14.784 -2.016,6.24 -5.472,10.272 -3.456,4.032 -7.872,6.048 -4.416,1.92 -9.216,1.92 z m -132.71997,-121.152 v -50.688 h -17.184 v -11.904 h 48.576 v 11.904 h -17.184 v 50.688 z m 41.1839,0 v -62.592 h 22.56 q 6.624,0 12.096,1.824 5.47204,1.728 8.73604,6.048 3.264,4.224 3.264,11.616 0,7.2 -3.264,11.712 -3.264,4.512 -8.73604,6.72 -5.472,2.112 -12.096,2.112 h -8.448 v 22.56 z m 14.112,-33.792 h 7.296 q 5.568,0 8.448,-2.304 2.976,-2.4 2.976,-7.008 0,-4.608 -2.976,-6.432 -2.88,-1.824 -8.448,-1.824 h -7.296 z m 19.776,33.792 -13.92,-26.208 9.792,-9.12 19.96804,35.328 z m 18.72013,13.44 v -7.968 h 45.696 v 7.968 z m 54.24,-13.44 v -62.592 h 14.112 v 50.688 h 24.768 v 11.904 z m -569.67173,22.9268 v -11.424 h 13.248 v -35.232 h -11.424 v -8.736 q 4.992,-0.96 8.448,-2.304 3.552,-1.344 6.72,-3.264 h 10.368 v 49.536 h 11.424 v 11.424 z m 69.312,1.152 q -9.792,0 -15.84,-8.16 -5.952,-8.16 -5.952,-23.712 0,-15.648 5.952,-23.52 6.048,-7.872 15.84,-7.872 9.792,0 15.744,7.968 6.048,7.872 6.048,23.424 0,15.552 -6.048,23.712 -5.952,8.16 -15.744,8.16 z m 0,-10.944 q 2.4,0 4.32,-1.728 1.92,-1.824 2.976,-6.336 1.152,-4.608 1.152,-12.864 0,-8.352 -1.152,-12.768 -1.056,-4.416 -2.976,-6.048 -1.92,-1.632 -4.32,-1.632 -2.4,0 -4.32,1.632 -1.92,1.632 -3.072,6.048 -1.056,4.416 -1.056,12.768 0,8.256 1.056,12.864 1.152,4.512 3.072,6.336 1.92,1.728 4.32,1.728 z m 50.592,10.944 q -6.048,0 -10.944,-2.112 -4.8,-2.112 -7.584,-5.856 -2.688,-3.84 -2.688,-8.736 0,-3.744 1.344,-6.432 1.44,-2.784 3.744,-4.896 2.4,-2.112 5.28,-3.648 v -0.384 q -3.456,-2.688 -5.856,-6.144 -2.304,-3.456 -2.304,-8.256 0,-5.184 2.496,-8.928 2.496,-3.84 6.912,-5.856 4.416,-2.016 10.08,-2.016 8.448,0 13.44,4.608 5.088,4.512 5.088,12.096 0,2.88 -1.152,5.472 -1.056,2.496 -2.88,4.512 -1.824,1.92 -3.936,3.36 v 0.384 q 2.88,1.536 5.28,3.744 2.4,2.112 3.84,5.184 1.44,2.976 1.44,7.008 0,4.8 -2.688,8.64 -2.688,3.744 -7.584,6.048 -4.8,2.208 -11.328,2.208 z m 3.84,-36.672 q 1.824,-2.112 2.784,-4.32 0.96,-2.208 0.96,-4.608 0,-2.4 -0.864,-4.128 -0.864,-1.728 -2.592,-2.688 -1.632,-1.056 -3.936,-1.056 -2.784,0 -4.8,1.824 -2.016,1.728 -2.016,5.184 0,2.496 1.344,4.224 1.344,1.728 3.648,3.072 2.4,1.344 5.472,2.496 z m -3.552,26.88 q 2.304,0 4.128,-0.768 1.92,-0.864 2.976,-2.496 1.056,-1.728 1.056,-4.32 0,-2.688 -1.632,-4.416 -1.536,-1.824 -4.512,-3.168 -2.88,-1.44 -6.72,-3.072 -2.016,1.824 -3.36,4.416 -1.344,2.496 -1.344,5.28 0,2.688 1.248,4.608 1.344,1.92 3.456,2.976 2.208,0.96 4.704,0.96 z m -136.272,-111.36 v -50.688 h -17.184 v -11.904 h 48.576 v 11.904 h -17.184 v 50.688 z m 41.1839,0 v -62.592 h 22.56 q 6.624,0 12.096,1.824 5.472,1.728 8.736,6.048 3.264,4.224 3.264,11.616 0,7.2 -3.264,11.712 -3.264,4.512 -8.736,6.72 -5.472,2.112 -12.096,2.112 h -8.448 v 22.56 z m 14.112,-33.792 h 7.296 q 5.568,0 8.448,-2.304 2.976,-2.4 2.976,-7.008 0,-4.608 -2.976,-6.432 -2.88,-1.824 -8.448,-1.824 h -7.296 z m 19.776,33.792 -13.92,-26.208 9.792,-9.12 19.968,35.328 z m 18.7201,13.44 v -7.968 h 45.696 v 7.968 z m 54.24,-13.44 v -62.592 h 14.112 v 50.688 h 24.768 v 11.904 z m 1874.62361,338.17323 v -22.848 h 26.496 v -70.46403 h -22.848 v -17.472 q 9.984,-1.92 16.896,-4.608 7.104,-2.688 13.44,-6.528 h 20.736 v 99.07203 h 22.848 v 22.848 z m 101.37598,0 v -22.848 h 26.496 v -70.46403 h -22.848 v -17.472 q 9.984,-1.92 16.896,-4.608 7.104,-2.688 13.44,-6.528 h 20.736 v 99.07203 h 22.848 v 22.848 z m 144.38398,0 v -70.46403 q 0,-5.76 0.384,-13.632 0.576,-7.872 0.768,-13.632 h -0.768 q -2.304,4.992 -4.8,10.176 -2.496,4.992 -5.184,10.368 l -16.128,26.496 h 66.048 v 21.50403 h -93.12 v -19.39203 l 44.544,-73.344 h 34.56 v 121.92003 z M 475.68715,-1200.0782 v -101.376 h -34.368 v -23.808 h 97.152 v 23.808 h -34.368 v 101.376 z m 82.36796,0 v -125.184 h 45.12 q 13.248,0 24.192,3.648 10.944,3.456 17.472,12.096 6.528,8.448 6.528,23.232 0,14.4 -6.528,23.424 -6.528,9.024 -17.472,13.44 -10.944,4.224 -24.192,4.224 h -16.896 v 45.12 z m 28.224,-67.584 h 14.592 q 11.136,0 16.896,-4.608 5.952,-4.8 5.952,-14.016 0,-9.216 -5.952,-12.864 -5.76,-3.648 -16.896,-3.648 h -14.592 z m 39.552,67.584 -27.84,-52.416 19.584,-18.24 39.936,70.656 z m 37.44016,26.88 v -15.936 h 91.392 v 15.936 z m 108.48,-26.88 v -125.184 h 28.224 v 101.376 h 49.536 v 23.808 z m -3093.59567,238.84803 v -22.848 h 26.496 v -70.46403 h -22.848 v -17.472 q 9.984,-1.92 16.896,-4.608 7.104,-2.688 13.44,-6.528 h 20.736 v 99.07203 h 22.848 v 22.848 z m 138.624,2.304 q -19.584,0 -31.68,-16.32 -11.904,-16.32 -11.904,-47.42403 0,-31.296 11.904,-47.04 12.096,-15.744 31.68,-15.744 19.584,0 31.488,15.936 12.096,15.744 12.096,46.848 0,31.10403 -12.096,47.42403 -11.904,16.32 -31.488,16.32 z m 0,-21.888 q 4.8,0 8.64,-3.456 3.84,-3.648 5.952,-12.672 2.304,-9.21603 2.304,-25.72803 0,-16.704 -2.304,-25.536 -2.112,-8.832 -5.952,-12.096 -3.84,-3.264 -8.64,-3.264 -4.8,0 -8.64,3.264 -3.84,3.264 -6.144,12.096 -2.112,8.832 -2.112,25.536 0,16.512 2.112,25.72803 2.304,9.024 6.144,12.672 3.84,3.456 8.64,3.456 z m 79.488,19.584 q 0.96,-15.168 3.072,-27.84 2.112,-12.86403 5.952,-24.38403 4.032,-11.52 10.176,-22.656 6.144,-11.136 15.168,-23.232 h -54.72 v -23.808 h 84.864 v 17.28 q -10.752,13.056 -17.664,24.384 -6.72,11.328 -10.368,23.04 -3.648,11.712 -5.376,25.53603 -1.728,13.824 -2.688,31.68 z m -250.2721,-240.00003 v -101.376 h -34.368 v -23.808 h 97.152 v 23.808 h -34.368 v 101.376 z m 82.368,0 v -125.184 h 45.12 q 13.248,0 24.192,3.648 10.944,3.456 17.472,12.096 6.528,8.448 6.528,23.232 0,14.4 -6.528,23.424 -6.528,9.024 -17.472,13.44 -10.944,4.224 -24.192,4.224 h -16.896 v 45.12 z m 28.224,-67.584 h 14.592 q 11.136,0 16.896,-4.608 5.952,-4.8 5.952,-14.016 0,-9.216 -5.952,-12.864 -5.76,-3.648 -16.896,-3.648 h -14.592 z m 39.552,67.584 -27.84,-52.416 19.584,-18.24 39.936,70.656 z m 37.4402,26.88 v -15.936 h 91.392 v 15.936 z m 108.48,-26.88 v -125.184 h 28.224 v 101.376 h 49.536 v 23.808 z" style="font-size:42.6667px;font-family:'Source Sans 3';-inkscape-font-specification:'Source Sans 3, @wght=700';font-variation-settings:'wght' 700;text-align:center;white-space:pre;display:inline;fill:#bec3c6;stroke-width:55" transform="matrix(0.02439371,0,0,0.02439371,88.591651,280.33857)"/>
  </g>
</svg>
