<svg width="4000" height="1400" viewBox="0 0 4000 1400" version="1.1" id="svg1" xml:space="preserve" xmlns="http://www.w3.org/2000/svg">
  <defs id="defs1">
    <linearGradient id="swatch446">
      <stop style="stop-color:#4c5a5f;stop-opacity:1" offset="0" id="stop446"/>
    </linearGradient>
    <marker style="overflow:visible" id="Triangle" refX="0" refY="0" orient="auto-start-reverse" markerWidth="1" markerHeight="1" viewBox="0 0 1 1" preserveAspectRatio="xMidYMid">
      <path transform="scale(0.5)" style="fill:context-stroke;fill-rule:evenodd;stroke:context-stroke;stroke-width:1pt" d="M 5.77,0 -2.88,5 V -5 Z" id="path597"/>
    </marker>
    <filter style="color-interpolation-filters:sRGB" id="filter15" x="-0.15104346" y="-0.071999997" width="1.3020869" height="1.1440001">
      <feFlood result="flood" flood-opacity="0.396078" flood-color="rgb(0,0,0)" id="feFlood13"/>
      <feGaussianBlur result="blur" in="SourceGraphic" stdDeviation="3.000000" id="feGaussianBlur13"/>
      <feOffset result="offset" in="blur" dx="0.000000" dy="0.000000" id="feOffset13"/>
      <feComposite result="comp1" operator="in" in="flood" in2="offset" id="feComposite14"/>
      <feComposite result="comp2" operator="over" in="SourceGraphic" in2="comp1" id="feComposite15"/>
    </filter>
    <filter style="color-interpolation-filters:sRGB" id="filter17" x="-0.193" y="-0.071999997" width="1.386" height="1.1440001">
      <feFlood result="flood" flood-opacity="0.396078" flood-color="rgb(0,0,0)" id="feFlood15"/>
      <feGaussianBlur result="blur" in="SourceGraphic" stdDeviation="3.000000" id="feGaussianBlur15"/>
      <feOffset result="offset" in="blur" dx="0.000000" dy="0.000000" id="feOffset15"/>
      <feComposite result="comp1" operator="in" in="flood" in2="offset" id="feComposite16"/>
      <feComposite result="comp2" operator="over" in="SourceGraphic" in2="comp1" id="feComposite17"/>
    </filter>
    <rect x="159.09903" y="-46.923126" width="532.995" height="528.08154" id="rect17"/>
    <rect x="159.09903" y="-46.923126" width="532.995" height="528.08154" id="rect18"/>
    <rect x="159.09903" y="-46.923126" width="532.995" height="528.08154" id="rect34"/>
    <rect x="159.09903" y="-46.923126" width="532.995" height="528.08154" id="rect35"/>
    <rect x="159.09903" y="-46.923126" width="532.995" height="528.08154" id="rect37"/>
    <rect x="159.09903" y="-46.923126" width="532.995" height="528.08154" id="rect41"/>
    <rect x="159.09903" y="-46.923126" width="532.995" height="528.08154" id="rect42"/>
    <rect x="159.09903" y="-46.923126" width="532.995" height="528.08154" id="rect44"/>
    <rect x="159.09903" y="-46.923126" width="532.995" height="528.08154" id="rect72"/>
    <rect x="159.09903" y="-46.923126" width="532.995" height="528.08154" id="rect73"/>
    <rect x="159.09903" y="-46.923126" width="532.995" height="528.08154" id="rect5"/>
    <rect x="159.09903" y="-46.923126" width="532.995" height="528.08154" id="rect43"/>
    <rect x="159.09903" y="-46.923126" width="532.995" height="528.08154" id="rect45"/>
    <rect x="159.09903" y="-46.923126" width="532.995" height="528.08154" id="rect74"/>
    <rect x="159.09903" y="-46.923126" width="532.995" height="528.08154" id="rect75"/>
    <rect x="159.09903" y="-46.923126" width="532.995" height="528.08154" id="rect77"/>
    <rect x="159.09903" y="-46.923126" width="532.995" height="528.08154" id="rect79"/>
  </defs>
  <g id="floor_0" transform="matrix(40.994169,0,0,40.994169,1.00188,-10510.757)" style="display:inline">
    <path style="font-variation-settings:'wdth' 70,'wght' 600;display:inline;fill:#4c5a5f;fill-opacity:1;stroke:none;stroke-width:.487874" d="m 51.302487,280.00909 3e-6,9.30708 h -5.952573 v -4.65354 h 0.56424 l 2e-6,-4.65354 H 32.054896 v 9.30708 h -9.380335 v -9.85594 H 11.643538 v -9.29359 h 11.031023 v 4.40474 l 59.547457,1e-5 v 1.73405 h 5.477983 l 0.07988,7.40159 h -5.68561 l -1e-6,-3.91539 h -8.72573 l 10e-7,9.52453 H 62.827075 v -9.30708 z" id="path455"/>
    <g id="rooms_0" style="display:inline;opacity:1" transform="matrix(0.02439371,0,0,0.02439371,-0.02443957,255.98706)">
      <rect style="font-variation-settings:'wdth' 70,'wght' 600;display:inline;fill:#454c7f;fill-opacity:1;stroke-width:310.622;stroke-dasharray:none" id="TR_C074" width="340.20404" height="362.95029" x="3008.6846" y="975.84906"/>
      <path style="font-variation-settings:'wght' 700;fill:#454c7f;fill-opacity:1;stroke-width:10" d="m 3599.4651,976.67491 h 217.3427 V 1366.2992 H 3366.7122 V 1136.357 h 232.7529 z" id="TR_C075"/>
      <rect style="font-variation-settings:'wdth' 70,'wght' 600;display:inline;fill:#454c7f;fill-opacity:1;stroke-width:180.716;stroke-dasharray:none" id="TR_C076" width="193.11809" height="216.41789" x="3596.1909" y="742.75714"/>
      <path style="font-variation-settings:'wght' 700;fill:#454c7f;fill-opacity:1;stroke-width:10" d="M 3816.8083,154.67091 V 742.75714 H 3596.191 v 90.1779 H 3371.6256 V 154.67091 Z" id="TR_C077"/>
      <rect style="font-variation-settings:'wdth' 70,'wght' 600;display:inline;fill:#454c7f;fill-opacity:1;stroke-width:405.461;stroke-dasharray:none" id="TR_C078" width="362.94104" height="579.67511" x="3008.6846" y="182.17395"/>
      <path style="font-variation-settings:'wght' 700;fill:#454c7f;fill-opacity:1;stroke-width:9.77089" d="M 3008.6846,182.17397 V 761.84904 H 2576.5459 V 593.85875 h -75.6604 V 182.17397 Z" id="TR_C078a"/>
      <path style="font-variation-settings:'wght' 700;fill:#454c7f;fill-opacity:1;stroke-width:9.77089" d="m 2500.8855,182.17397 v 411.68478 h 75.6604 V 761.84904 H 2169.8855 V 182.17397 Z" id="TR_C079"/>
      <rect style="font-variation-settings:'wdth' 70,'wght' 600;display:inline;fill:#454c7f;fill-opacity:1;stroke-width:352.752;stroke-dasharray:none" id="TR_C080" width="274.71109" height="579.67511" x="1895.1744" y="182.17395"/>
      <rect style="font-variation-settings:'wdth' 70,'wght' 600;display:inline;fill:#454c7f;fill-opacity:1;stroke-width:355.308;stroke-dasharray:none" id="TR_C081" width="278.70715" height="579.67511" x="1616.4673" y="182.17395"/>
      <rect style="font-variation-settings:'wdth' 70,'wght' 600;display:inline;fill:#454c7f;fill-opacity:1;stroke-width:386.11;stroke-dasharray:none" id="TR_C082" width="329.12524" height="579.67511" x="1287.342" y="182.17395"/>
      <rect style="font-variation-settings:'wdth' 70,'wght' 600;display:inline;fill:#454c7f;fill-opacity:1;stroke-width:394.92;stroke-dasharray:none" id="TR_C083" width="344.31641" height="579.67511" x="943.02563" y="182.17395"/>
      <rect style="font-variation-settings:'wdth' 70,'wght' 600;display:inline;fill:#454c7f;fill-opacity:1;stroke-width:317.936;stroke-dasharray:none" id="TR_C084" width="324.12537" height="399.10638" x="618.90027" y="182.17395"/>
      <rect style="font-variation-settings:'wdth' 70,'wght' 600;display:inline;fill:#454c7f;fill-opacity:1;stroke-width:404.916;stroke-dasharray:none" id="TR_C085" width="525.7323" height="399.10638" x="93.167976" y="182.17395"/>
      <rect style="font-variation-settings:'wdth' 70,'wght' 600;display:inline;fill:#454c7f;fill-opacity:1;stroke-width:471.804;stroke-dasharray:none" id="TR_C086" width="385.15332" height="739.62378" x="93.165756" y="599.17401"/>
      <rect style="font-variation-settings:'wdth' 70,'wght' 600;display:inline;fill:#454c7f;fill-opacity:1;stroke-width:357.636;stroke-dasharray:none" id="TR_C087" width="434.7077" height="376.53464" x="478.31909" y="962.26324"/>
      <rect style="font-variation-settings:'wdth' 70,'wght' 600;display:inline;opacity:1;fill:#454c7f;fill-opacity:1;stroke-width:237.438;stroke-dasharray:none" id="TR_C088" width="203.78055" height="354.0361" x="2104.105" y="984.76324"/>
      <rect style="font-variation-settings:'wdth' 70,'wght' 600;display:inline;opacity:1;fill:#454c7f;fill-opacity:1;stroke-width:222.111;stroke-dasharray:none" id="TR_C089" width="268.6604" height="234.98909" x="2307.8855" y="984.76324"/>
      <rect style="font-variation-settings:'wdth' 70,'wght' 600;display:inline;opacity:1;fill:#454c7f;fill-opacity:1;stroke-width:158.09;stroke-dasharray:none" id="TR_C090" width="268.6604" height="119.04702" x="2307.8855" y="1219.7523"/>
      <rect style="font-variation-settings:'wdth' 70,'wght' 600;display:inline;opacity:1;fill:#454c7f;fill-opacity:1;stroke-width:231.559;stroke-dasharray:none" id="TR_C091" width="359.69791" height="190.76799" x="1523.517" y="984.76324"/>
    </g>
    <g id="staires_0" transform="matrix(0.02439371,0,0,0.02439371,-21.078295,285.8541)" style="display:inline">
      <rect style="font-variation-settings:'wdth' 70,'wght' 600;display:inline;fill:#4c5a5f;fill-opacity:1;stroke-width:6.72998;stroke-dasharray:none" id="rect104" width="190.09035" height="29.06435" x="-141.24693" y="2693.1055" transform="rotate(-90)"/>
      <rect style="font-variation-settings:'wdth' 70,'wght' 600;display:inline;fill:#4b595e;fill-opacity:1;stroke-width:6.72998;stroke-dasharray:none" id="rect105" width="190.09035" height="29.06435" x="-141.24693" y="2664.041" transform="rotate(-90)"/>
      <rect style="font-variation-settings:'wdth' 70,'wght' 600;display:inline;fill:#4c5a5f;fill-opacity:1;stroke-width:9.53457;stroke-dasharray:none" id="rect147" width="381.53601" height="29.06435" x="-239.6114" y="-2207.2158" transform="rotate(90)"/>
      <rect style="font-variation-settings:'wdth' 70,'wght' 600;display:inline;fill:#4f5e63;fill-opacity:1;stroke-width:9.53457;stroke-dasharray:none" id="rect89" width="381.53601" height="29.06435" x="-239.6114" y="-2236.2803" transform="rotate(90)"/>
      <rect style="font-variation-settings:'wdth' 70,'wght' 600;display:inline;fill:#516166;fill-opacity:1;stroke-width:9.53457;stroke-dasharray:none" id="rect90" width="381.53601" height="29.06435" x="-239.6114" y="-2265.3447" transform="rotate(90)"/>
      <rect style="font-variation-settings:'wdth' 70,'wght' 600;display:inline;fill:#546469;fill-opacity:1;stroke-width:9.53457;stroke-dasharray:none" id="rect91" width="381.53601" height="29.06435" x="-239.6114" y="-2294.4089" transform="rotate(90)"/>
      <rect style="font-variation-settings:'wdth' 70,'wght' 600;display:inline;fill:#56676c;fill-opacity:1;stroke-width:9.53457;stroke-dasharray:none" id="rect92" width="381.53601" height="29.06435" x="-239.6114" y="-2323.4734" transform="rotate(90)"/>
      <rect style="font-variation-settings:'wdth' 70,'wght' 600;display:inline;fill:#586a6f;fill-opacity:1;stroke-width:9.53457;stroke-dasharray:none" id="rect93" width="381.53601" height="29.06435" x="-239.6114" y="-2352.5378" transform="rotate(90)"/>
      <rect style="font-variation-settings:'wdth' 70,'wght' 600;display:inline;fill:#5a6d72;fill-opacity:1;stroke-width:9.53457;stroke-dasharray:none" id="rect94" width="381.53619" height="29.06435" x="-239.6115" y="-2381.6023" transform="rotate(90)"/>
      <rect style="font-variation-settings:'wdth' 70,'wght' 600;display:inline;fill:#000;fill-opacity:1;stroke-width:1.76857;stroke-dasharray:none" id="rect27" width="381.53601" height="1.0000001" x="-239.6114" y="-2178.1516" transform="rotate(90)"/>
      <rect style="font-variation-settings:'wdth' 70,'wght' 600;display:inline;fill:#000;fill-opacity:1;stroke-width:1.76857;stroke-dasharray:none" id="rect28" width="381.53601" height="1.0000001" x="-239.6114" y="-2207.2158" transform="rotate(90)"/>
      <rect style="font-variation-settings:'wdth' 70,'wght' 600;display:inline;fill:#000;fill-opacity:1;stroke-width:1.76857;stroke-dasharray:none" id="rect29" width="381.53601" height="1.0000001" x="-239.6114" y="-2236.2803" transform="rotate(90)"/>
      <rect style="font-variation-settings:'wdth' 70,'wght' 600;display:inline;fill:#000;fill-opacity:1;stroke-width:1.76857;stroke-dasharray:none" id="rect30" width="381.53601" height="1.0000001" x="-239.6114" y="-2265.3447" transform="rotate(90)"/>
      <rect style="font-variation-settings:'wdth' 70,'wght' 600;display:inline;fill:#000;fill-opacity:1;stroke-width:1.76857;stroke-dasharray:none" id="rect31" width="381.53601" height="1.0000001" x="-239.6114" y="-2294.4089" transform="rotate(90)"/>
      <rect style="font-variation-settings:'wdth' 70,'wght' 600;display:inline;fill:#000;fill-opacity:1;stroke-width:1.76857;stroke-dasharray:none" id="rect32" width="381.53601" height="1.0000001" x="-239.6114" y="-2323.4734" transform="rotate(90)"/>
      <rect style="font-variation-settings:'wdth' 70,'wght' 600;display:inline;fill:#000;fill-opacity:1;stroke-width:1.76857;stroke-dasharray:none" id="rect33" width="381.53601" height="1.0000001" x="-239.6114" y="-2352.5378" transform="rotate(90)"/>
      <rect style="font-variation-settings:'wdth' 70,'wght' 600;display:inline;fill:#000;fill-opacity:1;stroke-width:1.24835;stroke-dasharray:none" id="rect38" width="190.09024" height="1.0000001" x="-48.84341" y="-2665.041" transform="rotate(90)"/>
      <rect style="font-variation-settings:'wdth' 70,'wght' 600;display:inline;fill:#000;fill-opacity:1;stroke-width:1.25057;stroke-dasharray:none" id="rect39" width="190.76811" height="1.0000001" x="-48.84341" y="-2694.1055" transform="rotate(90)"/>
      <rect style="font-variation-settings:'wdth' 70,'wght' 600;display:inline;fill:#000;fill-opacity:1;stroke-width:1.25057;stroke-dasharray:none" id="rect40" width="190.76811" height="1.0000001" x="-48.84341" y="-2723.1697" transform="rotate(90)"/>
      <rect style="font-variation-settings:'wdth' 70,'wght' 600;display:inline;fill:#48565b;fill-opacity:1;stroke-width:6.72998;stroke-dasharray:none" id="rect121" width="190.09035" height="29.06435" x="-141.24693" y="2634.9766" transform="rotate(-90)"/>
      <rect style="font-variation-settings:'wdth' 70,'wght' 600;display:inline;fill:#000;fill-opacity:1;stroke-width:1.24835;stroke-dasharray:none" id="rect122" width="190.09024" height="1.0000001" x="-48.84341" y="-2635.9766" transform="rotate(90)"/>
      <rect style="font-variation-settings:'wdth' 70,'wght' 600;display:inline;fill:#465358;fill-opacity:1;stroke-width:6.72998;stroke-dasharray:none" id="rect123" width="190.09035" height="29.06435" x="-141.24693" y="2605.9121" transform="rotate(-90)"/>
      <rect style="font-variation-settings:'wdth' 70,'wght' 600;display:inline;fill:#000;fill-opacity:1;stroke-width:1.24835;stroke-dasharray:none" id="rect124" width="190.09024" height="1.0000001" x="-48.84341" y="-2606.9121" transform="rotate(90)"/>
      <rect style="font-variation-settings:'wdth' 70,'wght' 600;display:inline;fill:#445055;fill-opacity:1;stroke-width:6.72998;stroke-dasharray:none" id="rect125" width="190.09035" height="29.06435" x="-141.24693" y="2576.8477" transform="rotate(-90)"/>
      <rect style="font-variation-settings:'wdth' 70,'wght' 600;display:inline;fill:#000;fill-opacity:1;stroke-width:1.24835;stroke-dasharray:none" id="rect126" width="190.09024" height="1.0000001" x="-48.84341" y="-2577.8477" transform="rotate(90)"/>
      <rect style="font-variation-settings:'wdth' 70,'wght' 600;display:inline;fill:#424d52;fill-opacity:1;stroke-width:6.72998;stroke-dasharray:none" id="rect127" width="190.09035" height="29.06435" x="-141.24693" y="2547.7832" transform="rotate(-90)"/>
      <rect style="font-variation-settings:'wdth' 70,'wght' 600;display:inline;fill:#000;fill-opacity:1;stroke-width:1.24835;stroke-dasharray:none" id="rect128" width="190.09024" height="1.0000001" x="-48.84341" y="-2548.7832" transform="rotate(90)"/>
      <rect style="font-variation-settings:'wdth' 70,'wght' 600;display:inline;fill:#404a4f;fill-opacity:1;stroke-width:6.72998;stroke-dasharray:none" id="rect129" width="190.09035" height="29.06435" x="-141.24693" y="2518.7188" transform="rotate(-90)"/>
      <rect style="font-variation-settings:'wdth' 70,'wght' 600;display:inline;fill:#000;fill-opacity:1;stroke-width:1.24835;stroke-dasharray:none" id="rect130" width="190.09024" height="1.0000001" x="-48.84341" y="-2519.7188" transform="rotate(90)"/>
      <rect style="font-variation-settings:'wdth' 70,'wght' 600;display:inline;fill:#3e474c;fill-opacity:1;stroke-width:6.72998;stroke-dasharray:none" id="rect131" width="190.09035" height="29.06435" x="-141.24693" y="2489.6543" transform="rotate(-90)"/>
      <rect style="font-variation-settings:'wdth' 70,'wght' 600;display:inline;fill:#000;fill-opacity:1;stroke-width:1.24835;stroke-dasharray:none" id="rect132" width="190.09024" height="1.0000001" x="-48.84341" y="-2490.6543" transform="rotate(90)"/>
      <rect style="font-variation-settings:'wdth' 70,'wght' 600;display:inline;fill:#3c4449;fill-opacity:1;stroke-width:6.72998;stroke-dasharray:none" id="rect133" width="190.09035" height="29.06435" x="-141.24693" y="2460.5898" transform="rotate(-90)"/>
      <rect style="font-variation-settings:'wdth' 70,'wght' 600;display:inline;fill:#000;fill-opacity:1;stroke-width:1.24835;stroke-dasharray:none" id="rect134" width="190.09024" height="1.0000001" x="-48.84341" y="-2461.5898" transform="rotate(90)"/>
      <rect style="font-variation-settings:'wdth' 70,'wght' 600;display:inline;fill:#3a4146;fill-opacity:1;stroke-width:6.72998;stroke-dasharray:none" id="rect135" width="190.09035" height="29.06435" x="-141.24693" y="2431.5254" transform="rotate(-90)"/>
      <rect style="font-variation-settings:'wdth' 70,'wght' 600;display:inline;fill:#000;fill-opacity:1;stroke-width:1.24835;stroke-dasharray:none" id="rect136" width="190.09024" height="1.0000001" x="-48.84341" y="-2432.5254" transform="rotate(90)"/>
      <rect style="font-variation-settings:'wdth' 70,'wght' 600;display:inline;fill:#373e43;fill-opacity:1;stroke-width:8.82031;stroke-dasharray:none" id="rect137" width="190.09035" height="49.923004" x="-141.24693" y="2381.6023" transform="rotate(-90)"/>
      <path style="font-variation-settings:'wdth' 70,'wght' 600;display:inline;opacity:1;fill:none;fill-opacity:1;stroke:#bec3c6;stroke-width:5;stroke-dasharray:none;stroke-opacity:1;marker-end:url(#Triangle)" d="m 2192.6836,-48.843399 h 159.8543" id="path161" transform="translate(-2.5381454e-6,1.52571e-5)"/>
      <path style="font-variation-settings:'wdth' 70,'wght' 600;display:inline;opacity:1;fill:none;fill-opacity:1;stroke:#bec3c6;stroke-width:5;stroke-dasharray:none;stroke-opacity:1;marker-end:url(#Triangle)" d="m 2406.5638,41.667698 h 287.5417" id="path141"/>
    </g>
    <g id="walls_0" transform="matrix(0.02439371,0,0,0.02439371,-0.02443957,244.19953)" style="display:inline">
      <path style="font-variation-settings:'wdth' 70,'wght' 600;fill:none;stroke:#bec3c6;stroke-width:10;stroke-linecap:butt;stroke-dasharray:none;stroke-opacity:1" d="M 1616.4673,1245.0691 V 637.89097" id="path272"/>
      <path style="font-variation-settings:'wdth' 70,'wght' 600;fill:none;stroke:#bec3c6;stroke-width:55;stroke-linecap:butt;stroke-dasharray:none;stroke-opacity:1" d="M 1061.0303,1849.5194 H 65.665479 V 637.89097 H 3816.8083 V 1849.5194 h -933.7777" id="path6"/>
      <path style="font-variation-settings:'wdth' 70,'wght' 600;fill:none;stroke:#bec3c6;stroke-width:35;stroke-linecap:butt;stroke-dasharray:none;stroke-opacity:1" d="m 930.52678,1467.9833 h 51.30759" id="path23"/>
      <path style="font-variation-settings:'wdth' 70,'wght' 600;fill:none;stroke:#bec3c6;stroke-width:55;stroke-linecap:butt;stroke-dasharray:none;stroke-opacity:1" d="M 2683.0305,1849.5194 H 1261.0304" id="path1"/>
      <path style="font-variation-settings:'wdth' 70,'wght' 600;fill:none;stroke:#bec3c6;stroke-width:35;stroke-linecap:butt;stroke-dasharray:none;stroke-opacity:1" d="M 930.52678,1849.5194 V 1445.4833" id="path4"/>
      <path style="font-variation-settings:'wdth' 70,'wght' 600;fill:none;stroke:#bec3c6;stroke-width:10;stroke-linecap:butt;stroke-dasharray:none;stroke-opacity:1" d="M 1895.1744,1245.0691 V 637.89097" id="path5"/>
      <path style="font-variation-settings:'wdth' 70,'wght' 600;fill:none;stroke:#bec3c6;stroke-width:10;stroke-linecap:butt;stroke-dasharray:none;stroke-opacity:1" d="M 2169.8855,1245.0691 V 637.89097" id="path18"/>
      <path style="font-variation-settings:'wdth' 70,'wght' 600;fill:none;stroke:#bec3c6;stroke-width:10;stroke-linecap:butt;stroke-dasharray:none;stroke-opacity:1" d="M 2500.8855,1069.1084 V 637.89097" id="path19"/>
      <path style="font-variation-settings:'wdth' 70,'wght' 600;fill:none;stroke:#bec3c6;stroke-width:10;stroke-linecap:butt;stroke-dasharray:none;stroke-opacity:1" d="M 3008.6846,1245.0691 V 637.89097" id="path20"/>
      <path style="font-variation-settings:'wdth' 70,'wght' 600;fill:none;stroke:#bec3c6;stroke-width:35;stroke-linecap:butt;stroke-dasharray:none;stroke-opacity:1" d="m 3371.6256,637.89097 v 678.26413 h 107.0001" id="path21"/>
      <path style="font-variation-settings:'wdth' 70,'wght' 600;fill:none;stroke:#bec3c6;stroke-width:10;stroke-linecap:butt;stroke-dasharray:none;stroke-opacity:1" d="m 2892.0678,1245.0691 h 355.8078" id="path22"/>
      <path style="font-variation-settings:'wdth' 70,'wght' 600;fill:none;stroke:#bec3c6;stroke-width:10;stroke-linecap:butt;stroke-dasharray:none;stroke-opacity:1" d="m 2280.0054,1245.0691 h 412.0623" id="path24"/>
      <path style="font-variation-settings:'wdth' 70,'wght' 600;fill:none;stroke:#bec3c6;stroke-width:10;stroke-linecap:butt;stroke-dasharray:none;stroke-opacity:1" d="m 2011.0844,1245.0691 h 168.921" id="path25"/>
      <path style="font-variation-settings:'wdth' 70,'wght' 600;fill:none;stroke:#bec3c6;stroke-width:10;stroke-linecap:butt;stroke-dasharray:none;stroke-opacity:1" d="m 1403.2519,1245.0691 h 376.0125" id="path26"/>
      <path style="font-variation-settings:'wdth' 70,'wght' 600;fill:none;stroke:#bec3c6;stroke-width:10;stroke-linecap:butt;stroke-dasharray:none;stroke-opacity:1" d="m 1879.2645,1245.0691 h 31.8198" id="path27"/>
      <path style="font-variation-settings:'wdth' 70,'wght' 600;fill:none;stroke:#bec3c6;stroke-width:10;stroke-linecap:butt;stroke-dasharray:none;stroke-opacity:1" d="M 1287.342,1245.0691 V 637.89097" id="path29"/>
      <path style="font-variation-settings:'wdth' 70,'wght' 600;fill:none;stroke:#bec3c6;stroke-width:10;stroke-linecap:butt;stroke-dasharray:none;stroke-opacity:1" d="M 943.02562,1064.5004 V 637.89097" id="path30"/>
      <path style="font-variation-settings:'wdth' 70,'wght' 600;fill:none;stroke:#bec3c6;stroke-width:10;stroke-linecap:butt;stroke-dasharray:none;stroke-opacity:1" d="M 618.487,1064.5004 V 637.89097" id="path31"/>
      <path style="font-variation-settings:'wdth' 70,'wght' 600;fill:none;stroke:#bec3c6;stroke-width:35;stroke-linecap:butt;stroke-dasharray:none;stroke-opacity:1" d="M 65.665479,1064.5004 H 499.63347" id="path32"/>
      <path style="font-variation-settings:'wdth' 70,'wght' 600;fill:none;stroke:#bec3c6;stroke-width:35;stroke-linecap:butt;stroke-dasharray:none;stroke-opacity:1" d="M 599.63349,1064.5004 H 726.6335" id="path33"/>
      <path style="font-variation-settings:'wdth' 70,'wght' 600;fill:none;stroke:#bec3c6;stroke-width:35;stroke-linecap:butt;stroke-dasharray:none;stroke-opacity:1" d="m 826.63352,1064.5004 h 103.89326 v 180.5687" id="path34"/>
      <path style="font-variation-settings:'wdth' 70,'wght' 600;fill:none;stroke:#bec3c6;stroke-width:10;stroke-linecap:butt;stroke-dasharray:none;stroke-opacity:1" d="M 478.31909,1232.2381 V 1063.3468" id="path35"/>
      <path style="font-variation-settings:'wdth' 70,'wght' 600;fill:none;stroke:#bec3c6;stroke-width:10;stroke-linecap:butt;stroke-dasharray:none;stroke-opacity:1" d="M 478.31909,1710.0749 V 1332.238" id="path36"/>
      <path style="font-variation-settings:'wdth' 70,'wght' 600;fill:none;stroke:#bec3c6;stroke-width:10;stroke-linecap:butt;stroke-dasharray:none;stroke-opacity:1" d="m 478.31909,1849.5194 v -39.4446" id="path37"/>
      <path style="font-variation-settings:'wdth' 70,'wght' 600;fill:none;stroke:#bec3c6;stroke-width:10;stroke-linecap:butt;stroke-dasharray:none;stroke-opacity:1" d="M 633.63349,1445.4833 H 948.02678" id="path38"/>
      <path style="font-variation-settings:'wdth' 70,'wght' 600;fill:none;stroke:#bec3c6;stroke-width:10;stroke-linecap:butt;stroke-dasharray:none;stroke-opacity:1" d="m 478.31909,1445.4833 h 55.31439" id="path40"/>
      <path style="font-variation-settings:'wdth' 70,'wght' 600;fill:none;stroke:#bec3c6;stroke-width:10;stroke-linecap:butt;stroke-dasharray:none;stroke-opacity:1" d="M 3816.8083,1225.9772 H 3596.191 v 90.1779" id="path41"/>
      <path style="font-variation-settings:'wdth' 70,'wght' 600;fill:none;stroke:#bec3c6;stroke-width:35;stroke-linecap:butt;stroke-dasharray:none;stroke-opacity:1" d="m 3599.4656,1624.5772 v -164.6821 h 217.3427" id="path42"/>
      <path style="font-variation-settings:'wdth' 70,'wght' 600;fill:none;stroke:#bec3c6;stroke-width:10;stroke-linecap:butt;stroke-dasharray:none;stroke-opacity:1" d="m 3008.6846,1849.5194 v -390.4503 h 62.3158" id="path44"/>
      <path style="font-variation-settings:'wdth' 70,'wght' 600;fill:none;stroke:#bec3c6;stroke-width:10;stroke-linecap:butt;stroke-dasharray:none;stroke-opacity:1" d="m 3222.1388,1459.0691 h 144.2498" id="path45"/>
      <path style="font-variation-settings:'wdth' 70,'wght' 600;fill:none;stroke:#bec3c6;stroke-width:35;stroke-linecap:butt;stroke-dasharray:none;stroke-opacity:1" d="m 3366.3886,1454.0691 v 377.9503" id="path46"/>
      <rect style="font-variation-settings:'wght' 700;fill:#bec3c6;fill-opacity:1;stroke-width:17.0011" id="rect71" width="106.91994" height="170.5081" x="3366.3887" y="1454.0691"/>
      <path style="font-variation-settings:'wdth' 70,'wght' 600;fill:none;stroke:#bec3c6;stroke-width:10;stroke-linecap:butt;stroke-dasharray:none;stroke-opacity:1" d="m 3366.3887,1619.5772 h 112.5709" id="path71"/>
      <path style="font-variation-settings:'wdth' 70,'wght' 600;fill:none;stroke:#bec3c6;stroke-width:10;stroke-linecap:butt;stroke-dasharray:none;stroke-opacity:1" d="m 3578.9596,1619.5772 h 20.506" id="path72"/>
      <path style="font-variation-settings:'wdth' 70,'wght' 600;fill:none;stroke:#bec3c6;stroke-width:10;stroke-linecap:butt;stroke-dasharray:none;stroke-opacity:1" d="M 2576.5459,1245.0691 V 1069.1084" id="path73"/>
      <path style="font-variation-settings:'wdth' 70,'wght' 600;fill:none;stroke:#bec3c6;stroke-width:35;stroke-linecap:butt;stroke-dasharray:none;stroke-opacity:1" d="m 2495.8855,1069.1084 h 85.6604" id="path74"/>
      <path style="font-variation-settings:'wdth' 70,'wght' 600;fill:none;stroke:#bec3c6;stroke-width:35;stroke-linecap:butt;stroke-dasharray:none;stroke-opacity:1" d="m 3578.6256,1316.1551 h 22.5274" id="path75"/>
      <path style="font-variation-settings:'wdth' 70,'wght' 600;fill:none;stroke:#bec3c6;stroke-width:10;stroke-linecap:butt;stroke-dasharray:none;stroke-opacity:1" d="m 3347.8756,1245.0691 h 23.75" id="path76"/>
      <path style="font-variation-settings:'wdth' 70,'wght' 600;fill:none;stroke:#bec3c6;stroke-width:10;stroke-linecap:butt;stroke-dasharray:none;stroke-opacity:1" d="m 1271.4321,1245.0691 h 31.8198" id="path77"/>
      <path style="font-variation-settings:'wdth' 70,'wght' 600;fill:none;stroke:#bec3c6;stroke-width:10;stroke-linecap:butt;stroke-dasharray:none;stroke-opacity:1" d="M 913.02832,1245.0691 H 1171.4321" id="path78"/>
      <path style="font-variation-settings:'wdth' 70,'wght' 600;fill:none;stroke:#bec3c6;stroke-width:35;stroke-linecap:butt;stroke-dasharray:none;stroke-opacity:1" d="m 1181.8344,1467.9833 h 743.8805" id="path79"/>
      <path style="font-variation-settings:'wdth' 70,'wght' 600;fill:none;stroke:#bec3c6;stroke-width:35;stroke-linecap:butt;stroke-dasharray:none;stroke-opacity:1" d="m 2025.715,1467.9833 h 131.931" id="path80"/>
      <path style="font-variation-settings:'wdth' 70,'wght' 600;fill:none;stroke:#bec3c6;stroke-width:35;stroke-linecap:butt;stroke-dasharray:none;stroke-opacity:1" d="m 2257.6461,1467.9833 h 61.9274" id="path81"/>
      <path style="font-variation-settings:'wdth' 70,'wght' 600;fill:none;stroke:#bec3c6;stroke-width:35;stroke-linecap:butt;stroke-dasharray:none;stroke-opacity:1" d="m 2419.5736,1467.9833 h 161.9723" id="path82"/>
      <path style="font-variation-settings:'wdth' 70,'wght' 600;fill:none;stroke:#bec3c6;stroke-width:10;stroke-linecap:butt;stroke-dasharray:none;stroke-opacity:1" d="M 2307.8855,1849.5194 V 1467.9833" id="path83"/>
      <path style="font-variation-settings:'wdth' 70,'wght' 600;fill:none;stroke:#bec3c6;stroke-width:10;stroke-linecap:butt;stroke-dasharray:none;stroke-opacity:1" d="M 2104.1051,1849.5194 V 1467.9833" id="path84"/>
      <path style="font-variation-settings:'wdth' 70,'wght' 600;fill:none;stroke:#bec3c6;stroke-width:10;stroke-linecap:butt;stroke-dasharray:none;stroke-opacity:1" d="M 2576.5459,1849.5194 V 1467.9833" id="path85"/>
      <path style="font-variation-settings:'wdth' 70,'wght' 600;fill:none;stroke:#bec3c6;stroke-width:10;stroke-linecap:butt;stroke-dasharray:none;stroke-opacity:1" d="M 2576.5459,1702.9724 H 2412.8855" id="path86"/>
      <path style="font-variation-settings:'wdth' 70,'wght' 600;fill:none;stroke:#bec3c6;stroke-width:35.5082;stroke-linecap:butt;stroke-dasharray:none;stroke-opacity:1" d="m 1518.517,1658.7513 h 369.6979" id="path87"/>
      <path style="font-variation-settings:'wdth' 70,'wght' 600;fill:none;stroke:#bec3c6;stroke-width:10;stroke-linecap:butt;stroke-dasharray:none;stroke-opacity:1" d="m 1523.517,1658.7513 v -190.768" id="path88"/>
      <path style="font-variation-settings:'wdth' 70,'wght' 600;fill:none;stroke:#bec3c6;stroke-width:10;stroke-linecap:butt;stroke-dasharray:none;stroke-opacity:1" d="m 1883.2149,1658.7513 v -45.3841" id="path89"/>
      <path style="font-variation-settings:'wdth' 70,'wght' 600;fill:none;stroke:#bec3c6;stroke-width:10;stroke-linecap:butt;stroke-dasharray:none;stroke-opacity:1" d="m 1883.2149,1513.3673 v -45.384" id="path90"/>
    </g>
    <g id="icons_0" transform="matrix(0.02439371,0,0,0.02439371,-0.02443957,244.19953)" style="display:inline">
      <path d="m 3583.2107,1771.7071 v -31.8652 h -10.1036 v -32.2539 q 0,-3.5622 2.5583,-6.1205 2.5583,-2.5583 6.1205,-2.5583 h 19.9482 q 3.5621,0 6.1204,2.5583 2.5583,2.5583 2.5583,6.1205 v 32.2539 h -10.1036 v 31.8652 z m 8.5596,-82.6425 q -3.6891,0 -6.1891,-2.5544 -2.5,-2.5545 -2.5,-6.1139 0,-3.6892 2.4896,-6.1892 2.4899,-2.5 6.1788,-2.5 3.6891,0 6.1891,2.4897 2.5,2.4897 2.5,6.1787 0,3.5596 -2.4896,6.1244 -2.4897,2.5647 -6.1788,2.5647 z" id="path260" style="fill:#fff;fill-opacity:.798742;stroke-width:.129534;filter:url(#filter17)"/>
      <path d="m 3169.7192,1690.5443 v -30.0518 h -14.7668 l 14.2098,-39.4458 q 1.121,-2.8983 3.8366,-4.5889 2.7155,-1.6907 5.7878,-1.6907 3.0723,0 5.7878,1.6907 2.7156,1.6906 3.8542,4.5779 l 14.1922,39.4568 h -14.7668 v 30.0518 z m 9.0778,-82.6424 q -3.6892,0 -6.1892,-2.5504 -2.5,-2.5504 -2.5,-6.118 0,-3.6892 2.4897,-6.1892 2.4899,-2.5 6.1787,-2.5 3.6892,0 6.1892,2.4897 2.5,2.4897 2.5,6.114 0,3.6243 -2.4897,6.1891 -2.4896,2.5648 -6.1787,2.5648 z" id="path261" style="fill:#fff;fill-opacity:.803459;stroke-width:.129534;filter:url(#filter15)"/>
    </g>
    <path id="roomNames_0" d="m 408.70069,20.471408 q -3.264,0 -5.28,-2.72 -1.984,-2.72 -1.984,-7.9040002 0,-5.216 1.984,-7.84 2.016,-2.62399997 5.28,-2.62399997 3.264,0 5.248,2.65599997 2.016,2.624 2.016,7.808 0,5.1840002 -2.016,7.9040002 -1.984,2.72 -5.248,2.72 z m 0,-3.648 q 0.8,0 1.44,-0.576 0.64,-0.608 0.992,-2.112 0.384,-1.536 0.384,-4.2880002 0,-2.784 -0.384,-4.256 -0.352,-1.472 -0.992,-2.016 -0.64,-0.544 -1.44,-0.544 -0.8,0 -1.44,0.544 -0.64,0.544 -1.024,2.016 -0.352,1.472 -0.352,4.256 0,2.7520002 0.352,4.2880002 0.384,1.504 1.024,2.112 0.64,0.576 1.44,0.576 z m 15.77599,3.648 q -2.016,0 -3.488,-0.736 -1.472,-0.736 -2.464,-1.696 l 2.496,-2.816 q 0.512,0.576 1.376,1.024 0.896,0.416 1.76,0.416 1.216,0 2.144,-0.672 0.96,-0.672 1.504,-2.24 0.576,-1.6 0.576,-4.2880002 0,-2.528 -0.48,-3.936 -0.448,-1.44 -1.216,-2.016 -0.736,-0.608 -1.6,-0.608 -0.672,0 -1.28,0.352 -0.576,0.352 -0.928,1.056 -0.352,0.704 -0.352,1.888 0,1.056 0.352,1.728 0.352,0.64 0.96,0.928 0.608,0.288 1.376,0.288 0.8,0 1.632,-0.48 0.832,-0.512 1.504,-1.696 l 0.224,3.0720002 q -0.768,1.12 -2.016,1.792 -1.248,0.64 -2.272,0.64 -1.728,0 -3.104,-0.672 -1.376,-0.672 -2.176,-2.0480002 -0.768,-1.408 -0.768,-3.552 0,-2.112 0.928,-3.648 0.928,-1.536 2.464,-2.33599997 1.536,-0.832 3.36,-0.832 1.504,0 2.88,0.576 1.376,0.576 2.432,1.79199997 1.088,1.216 1.728,3.136 0.672,1.888 0.672,4.576 0,2.8480002 -0.704,4.9280002 -0.672,2.08 -1.824,3.424 -1.152,1.344 -2.624,2.016 -1.472,0.64 -3.072,0.64 z m 18.016,0 q -3.264,0 -5.28,-2.72 -1.984,-2.72 -1.984,-7.9040002 0,-5.216 1.984,-7.84 2.016,-2.62399997 5.28,-2.62399997 3.264,0 5.248,2.65599997 2.016,2.624 2.016,7.808 0,5.1840002 -2.016,7.9040002 -1.984,2.72 -5.248,2.72 z m 0,-3.648 q 0.8,0 1.44,-0.576 0.64,-0.608 0.992,-2.112 0.384,-1.536 0.384,-4.2880002 0,-2.784 -0.384,-4.256 -0.352,-1.472 -0.992,-2.016 -0.64,-0.544 -1.44,-0.544 -0.8,0 -1.44,0.544 -0.64,0.544 -1.024,2.016 -0.352,1.472 -0.352,4.256 0,2.7520002 0.352,4.2880002 0.384,1.504 1.024,2.112 0.64,0.576 1.44,0.576 z m -46.38402,-36.736 v -16.896 h -5.728 v -3.968 h 16.192 v 3.968 h -5.728 v 16.896 z m 13.72799,0 v -20.864 h 7.52 q 2.208,0 4.032,0.608 1.824,0.576 2.912,2.016 1.088,1.408 1.088,3.872 0,2.4 -1.088,3.904 -1.088,1.504 -2.912,2.24 -1.824,0.704 -4.032,0.704 h -2.816 v 7.52 z m 4.704,-11.264 h 2.432 q 1.856,0 2.816,-0.768 0.992,-0.8 0.992,-2.336 0,-1.536 -0.992,-2.144 -0.96,-0.608 -2.816,-0.608 h -2.432 z m 6.592,11.264 -4.64,-8.736 3.264,-3.04 6.656,11.776 z m 6.24003,4.48 v -2.656 h 15.232 v 2.656 z m 26.912,-4.096 q -2.688,0 -4.928,-1.184 -2.208,-1.216 -3.552,-3.616 -1.344,-2.4 -1.344,-5.888 0,-2.592 0.768,-4.608 0.8,-2.048 2.176,-3.456 1.376,-1.408 3.136,-2.144 1.792,-0.736 3.776,-0.736 2.016,0 3.616,0.8 1.6,0.8 2.656,1.92 l -2.496,2.848 q -0.768,-0.736 -1.664,-1.088 -0.896,-0.384 -2.016,-0.384 -1.376,0 -2.56,0.832 -1.152,0.8 -1.856,2.304 -0.704,1.504 -0.704,3.552 0,2.144 0.672,3.68 0.672,1.504 1.856,2.304 1.216,0.8 2.784,0.8 1.216,0 2.176,-0.512 0.96,-0.512 1.696,-1.216 l 2.368,2.784 q -1.344,1.504 -2.976,2.272 -1.632,0.736 -3.584,0.736 z M 400.24469,-141.13867 q -4.896,0 -7.92,-4.08 -2.976,-4.08 -2.976,-11.856 0,-7.824 2.976,-11.76 3.024,-3.936 7.92,-3.936 4.896,0 7.872,3.984 3.024,3.936 3.024,11.712 0,7.776 -3.024,11.856 -2.976,4.08 -7.872,4.08 z m 0,-5.472 q 1.2,0 2.16,-0.864 0.96,-0.912 1.488,-3.168 0.576,-2.304 0.576,-6.432 0,-4.176 -0.576,-6.384 -0.528,-2.208 -1.488,-3.024 -0.96,-0.816 -2.16,-0.816 -1.2,0 -2.16,0.816 -0.96,0.816 -1.536,3.024 -0.528,2.208 -0.528,6.384 0,4.128 0.528,6.432 0.576,2.256 1.536,3.168 0.96,0.864 2.16,0.864 z m 25.29599,5.472 q -3.024,0 -5.472,-1.056 -2.4,-1.056 -3.792,-2.928 -1.344,-1.92 -1.344,-4.368 0,-1.872 0.672,-3.216 0.72,-1.392 1.872,-2.448 1.2,-1.056 2.64,-1.824 v -0.192 q -1.728,-1.344 -2.928,-3.072 -1.152,-1.728 -1.152,-4.128 0,-2.592 1.248,-4.464 1.248,-1.92 3.456,-2.928 2.208,-1.008 5.04,-1.008 4.224,0 6.72,2.304 2.544,2.256 2.544,6.048 0,1.44 -0.576,2.736 -0.528,1.248 -1.44,2.256 -0.912,0.96 -1.968,1.68 v 0.192 q 1.44,0.768 2.64,1.872 1.2,1.056 1.92,2.592 0.72,1.488 0.72,3.504 0,2.4 -1.344,4.32 -1.344,1.872 -3.792,3.024 -2.4,1.104 -5.664,1.104 z m 1.92,-18.336 q 0.912,-1.056 1.392,-2.16 0.48,-1.104 0.48,-2.304 0,-1.2 -0.432,-2.064 -0.432,-0.864 -1.296,-1.344 -0.816,-0.528 -1.968,-0.528 -1.392,0 -2.4,0.912 -1.008,0.864 -1.008,2.592 0,1.248 0.672,2.112 0.672,0.864 1.824,1.536 1.2,0.672 2.736,1.248 z m -1.776,13.44 q 1.152,0 2.064,-0.384 0.96,-0.432 1.488,-1.248 0.528,-0.864 0.528,-2.16 0,-1.344 -0.816,-2.208 -0.768,-0.912 -2.256,-1.584 -1.44,-0.72 -3.36,-1.536 -1.008,0.912 -1.68,2.208 -0.672,1.248 -0.672,2.64 0,1.344 0.624,2.304 0.672,0.96 1.728,1.488 1.104,0.48 2.352,0.48 z m 23.568,4.896 q -3.024,0 -5.232,-1.104 -2.208,-1.104 -3.696,-2.544 l 3.744,-4.224 q 0.768,0.864 2.064,1.536 1.344,0.624 2.64,0.624 1.824,0 3.216,-1.008 1.44,-1.008 2.256,-3.36 0.864,-2.4 0.864,-6.432 0,-3.792 -0.72,-5.904 -0.672,-2.16 -1.824,-3.024 -1.104,-0.912 -2.4,-0.912 -1.008,0 -1.92,0.528 -0.864,0.528 -1.392,1.584 -0.528,1.056 -0.528,2.832 0,1.584 0.528,2.592 0.528,0.96 1.44,1.392 0.912,0.432 2.064,0.432 1.2,0 2.448,-0.72 1.248,-0.768 2.256,-2.544 l 0.336,4.608 q -1.152,1.68 -3.024,2.688 -1.872,0.96 -3.408,0.96 -2.592,0 -4.656,-1.008 -2.064,-1.008 -3.264,-3.072 -1.152,-2.112 -1.152,-5.328 0,-3.168 1.392,-5.472 1.392,-2.304 3.696,-3.504 2.304,-1.248 5.04,-1.248 2.256,0 4.32,0.864 2.064,0.864 3.648,2.688 1.632,1.824 2.592,4.704 1.008,2.832 1.008,6.864 0,4.272 -1.056,7.392 -1.008,3.12 -2.736,5.136 -1.728,2.016 -3.936,3.024 -2.208,0.96 -4.608,0.96 z m -67.89603,-60.576 v -25.344 h -8.592 v -5.952 h 24.288 v 5.952 h -8.592 v 25.344 z m 20.59199,0 v -31.296 h 11.28 q 3.312,0 6.048,0.912 2.736,0.864 4.368,3.024 1.632,2.112 1.632,5.808 0,3.6 -1.632,5.856 -1.632,2.256 -4.368,3.36 -2.736,1.056 -6.048,1.056 h -4.224 v 11.28 z m 7.056,-16.896 h 3.648 q 2.784,0 4.224,-1.152 1.488,-1.2 1.488,-3.504 0,-2.304 -1.488,-3.216 -1.44,-0.912 -4.224,-0.912 h -3.648 z m 9.888,16.896 -6.96,-13.104 4.896,-4.56 9.984,17.664 z m 9.36004,6.72 v -3.984 h 22.848 v 3.984 z m 40.368,-6.144 q -4.032,0 -7.392,-1.776 -3.312,-1.824 -5.328,-5.424 -2.016,-3.6 -2.016,-8.832 0,-3.888 1.152,-6.912 1.2,-3.072 3.264,-5.184 2.064,-2.112 4.704,-3.216 2.688,-1.104 5.664,-1.104 3.024,0 5.424,1.2 2.4,1.2 3.984,2.88 l -3.744,4.272 q -1.152,-1.104 -2.496,-1.632 -1.344,-0.576 -3.024,-0.576 -2.064,0 -3.84,1.248 -1.728,1.2 -2.784,3.456 -1.056,2.256 -1.056,5.328 0,3.216 1.008,5.52 1.008,2.256 2.784,3.456 1.824,1.2 4.176,1.2 1.824,0 3.264,-0.768 1.44,-0.768 2.544,-1.824 l 3.552,4.176 q -2.016,2.256 -4.464,3.408 -2.448,1.104 -5.376,1.104 z M 164.02429,-81.615174 q -4.896,0 -7.92,-4.08 -2.976,-4.08 -2.976,-11.856 0,-7.823996 2.976,-11.759996 3.024,-3.936 7.92,-3.936 4.896,0 7.872,3.984 3.024,3.936 3.024,11.711996 0,7.776 -3.024,11.856 -2.976,4.08 -7.872,4.08 z m 0,-5.472 q 1.2,0 2.16,-0.864 0.96,-0.912 1.488,-3.168 0.576,-2.304 0.576,-6.432 0,-4.175996 -0.576,-6.383996 -0.528,-2.208 -1.488,-3.024 -0.96,-0.816 -2.16,-0.816 -1.2,0 -2.16,0.816 -0.96,0.816 -1.536,3.024 -0.528,2.208 -0.528,6.383996 0,4.128 0.528,6.432 0.576,2.256 1.536,3.168 0.96,0.864 2.16,0.864 z m 25.29599,5.472 q -3.024,0 -5.472,-1.056 -2.4,-1.056 -3.792,-2.928 -1.344,-1.92 -1.344,-4.368 0,-1.872 0.672,-3.216 0.72,-1.392 1.872,-2.448 1.2,-1.056 2.64,-1.824 v -0.192 q -1.728,-1.344 -2.928,-3.071996 -1.152,-1.728 -1.152,-4.128 0,-2.592 1.248,-4.464 1.248,-1.92 3.456,-2.928 2.208,-1.008 5.04,-1.008 4.224,0 6.72,2.304 2.544,2.256 2.544,6.048 0,1.44 -0.576,2.736 -0.528,1.248 -1.44,2.255996 -0.912,0.96 -1.968,1.68 v 0.192 q 1.44,0.768 2.64,1.872 1.2,1.056 1.92,2.592 0.72,1.488 0.72,3.504 0,2.4 -1.344,4.32 -1.344,1.872 -3.792,3.024 -2.4,1.104 -5.664,1.104 z m 1.92,-18.336 q 0.912,-1.055996 1.392,-2.159996 0.48,-1.104 0.48,-2.304 0,-1.2 -0.432,-2.064 -0.432,-0.864 -1.296,-1.344 -0.816,-0.528 -1.968,-0.528 -1.392,0 -2.4,0.912 -1.008,0.864 -1.008,2.592 0,1.248 0.672,2.112 0.672,0.864 1.824,1.536 1.2,0.672 2.736,1.247996 z m -1.776,13.44 q 1.152,0 2.064,-0.384 0.96,-0.432 1.488,-1.248 0.528,-0.864 0.528,-2.16 0,-1.344 -0.816,-2.208 -0.768,-0.912 -2.256,-1.584 -1.44,-0.72 -3.36,-1.536 -1.008,0.912 -1.68,2.208 -0.672,1.248 -0.672,2.64 0,1.344 0.624,2.304 0.672,0.96 1.728,1.488 1.104,0.48 2.352,0.48 z m 25.2,4.896 q -3.024,0 -5.472,-1.056 -2.4,-1.056 -3.792,-2.928 -1.344,-1.92 -1.344,-4.368 0,-1.872 0.672,-3.216 0.72,-1.392 1.872,-2.448 1.2,-1.056 2.64,-1.824 v -0.192 q -1.728,-1.344 -2.928,-3.071996 -1.152,-1.728 -1.152,-4.128 0,-2.592 1.248,-4.464 1.248,-1.92 3.456,-2.928 2.208,-1.008 5.04,-1.008 4.224,0 6.72,2.304 2.544,2.256 2.544,6.048 0,1.44 -0.576,2.736 -0.528,1.248 -1.44,2.255996 -0.912,0.96 -1.968,1.68 v 0.192 q 1.44,0.768 2.64,1.872 1.2,1.056 1.92,2.592 0.72,1.488 0.72,3.504 0,2.4 -1.344,4.32 -1.344,1.872 -3.792,3.024 -2.4,1.104 -5.664,1.104 z m 1.92,-18.336 q 0.912,-1.055996 1.392,-2.159996 0.48,-1.104 0.48,-2.304 0,-1.2 -0.432,-2.064 -0.432,-0.864 -1.296,-1.344 -0.816,-0.528 -1.968,-0.528 -1.392,0 -2.4,0.912 -1.008,0.864 -1.008,2.592 0,1.248 0.672,2.112 0.672,0.864 1.824,1.536 1.2,0.672 2.736,1.247996 z m -1.776,13.44 q 1.152,0 2.064,-0.384 0.96,-0.432 1.488,-1.248 0.528,-0.864 0.528,-2.16 0,-1.344 -0.816,-2.208 -0.768,-0.912 -2.256,-1.584 -1.44,-0.72 -3.36,-1.536 -1.008,0.912 -1.68,2.208 -0.672,1.248 -0.672,2.64 0,1.344 0.624,2.304 0.672,0.96 1.728,1.488 1.104,0.48 2.352,0.48 z m -69.67203,-55.679996 v -25.344 h -8.592 v -5.952 h 24.288 v 5.952 h -8.592 v 25.344 z m 20.59199,0 v -31.296 h 11.28 q 3.312,0 6.048,0.912 2.736,0.864 4.368,3.024 1.632,2.112 1.632,5.808 0,3.6 -1.632,5.856 -1.632,2.256 -4.368,3.36 -2.736,1.056 -6.048,1.056 h -4.224 v 11.28 z m 7.056,-16.896 h 3.648 q 2.784,0 4.224,-1.152 1.488,-1.2 1.488,-3.504 0,-2.304 -1.488,-3.216 -1.44,-0.912 -4.224,-0.912 h -3.648 z m 9.888,16.896 -6.96,-13.104 4.896,-4.56 9.984,17.664 z m 9.36004,6.72 v -3.984 h 22.848 v 3.984 z m 40.368,-6.144 q -4.032,0 -7.392,-1.776 -3.312,-1.824 -5.328,-5.424 -2.016,-3.6 -2.016,-8.832 0,-3.888 1.152,-6.912 1.2,-3.072 3.264,-5.184 2.064,-2.112 4.704,-3.216 2.688,-1.104 5.664,-1.104 3.024,0 5.424,1.2 2.4,1.2 3.984,2.88 l -3.744,4.272 q -1.152,-1.104 -2.496,-1.632 -1.344,-0.576 -3.024,-0.576 -2.064,0 -3.84,1.248 -1.728,1.2 -2.784,3.456 -1.056,2.256 -1.056,5.328 0,3.216 1.008,5.52 1.008,2.256 2.784,3.456 1.824,1.2 4.176,1.2 1.824,0 3.264,-0.768 1.44,-0.768 2.544,-1.824 l 3.552,4.176 q -2.016,2.256 -4.464,3.408 -2.448,1.104 -5.376,1.104 z m -571.00529,-21.634 q -4.896,0 -7.92,-4.08 -2.976,-4.08 -2.976,-11.856 0,-7.824 2.976,-11.76 3.024,-3.936 7.92,-3.936 4.896,0 7.872,3.984 3.024,3.936 3.024,11.712 0,7.776 -3.024,11.856 -2.976,4.08 -7.872,4.08 z m 0,-5.472 q 1.2,0 2.16,-0.864 0.96,-0.912 1.488,-3.168 0.576,-2.304 0.576,-6.432 0,-4.176 -0.576,-6.384 -0.528,-2.208 -1.488,-3.024 -0.96,-0.816 -2.16,-0.816 -1.2,0 -2.16,0.816 -0.96,0.816 -1.536,3.024 -0.528,2.208 -0.528,6.384 0,4.128 0.528,6.432 0.576,2.256 1.536,3.168 0.96,0.864 2.16,0.864 z m 23.66399,5.472 q -3.024,0 -5.232,-1.104 -2.208,-1.104 -3.696,-2.544 l 3.744,-4.224 q 0.768,0.864 2.064,1.536 1.344,0.624 2.64,0.624 1.824,0 3.216,-1.008 1.44,-1.008 2.256,-3.36 0.864,-2.4 0.864,-6.432 0,-3.792 -0.72,-5.904 -0.672,-2.16 -1.824,-3.024 -1.104,-0.912 -2.4,-0.912 -1.008,0 -1.92,0.528 -0.864,0.528 -1.392,1.584 -0.528,1.056 -0.528,2.832 0,1.584 0.528,2.592 0.528,0.96 1.44,1.392 0.912,0.432 2.064,0.432 1.2,0 2.448,-0.72 1.248,-0.768 2.256,-2.544 l 0.336,4.608 q -1.152,1.68 -3.024,2.688 -1.872,0.96 -3.408,0.96 -2.592,0 -4.656,-1.008 -2.064,-1.008 -3.264,-3.072 -1.152,-2.112 -1.152,-5.328 0,-3.168 1.392,-5.472 1.392,-2.304 3.696,-3.504 2.304,-1.248 5.04,-1.248 2.256,0 4.32,0.864 2.064,0.864 3.648,2.688 1.632,1.824 2.592,4.704 1.008,2.832 1.008,6.864 0,4.272 -1.056,7.392 -1.008,3.12 -2.736,5.136 -1.728,2.016 -3.936,3.024 -2.208,0.96 -4.608,0.96 z m 17.712,-0.576 v -5.712 h 6.624 v -17.616 h -5.712 v -4.368 q 2.496,-0.48 4.224,-1.152 1.776,-0.672 3.36,-1.632 h 5.184 v 24.768 h 5.712 v 5.712 z m -60.26403,-60 v -25.344 h -8.592 v -5.952 h 24.288 v 5.952 h -8.592 v 25.344 z m 20.59199,0 v -31.296 h 11.28 q 3.312,0 6.048,0.912 2.736,0.864 4.368,3.024 1.632,2.112 1.632,5.808 0,3.6 -1.632,5.856 -1.632,2.256 -4.368,3.36 -2.736,1.056 -6.048,1.056 h -4.224 v 11.28 z m 7.056,-16.896 h 3.648 q 2.784,0 4.224,-1.152 1.488,-1.2 1.488,-3.504 0,-2.304 -1.488,-3.216 -1.44,-0.912 -4.224,-0.912 h -3.648 z m 9.888,16.896 -6.96,-13.104 4.896,-4.56 9.984,17.664 z m 9.36004,6.72 v -3.984 h 22.848 v 3.984 z m 40.368,-6.144 q -4.032,0 -7.392,-1.776 -3.312,-1.824 -5.328,-5.424 -2.016,-3.6 -2.016,-8.832 0,-3.888 1.152,-6.912 1.2,-3.072 3.264,-5.184 2.064,-2.112 4.704,-3.216 2.688,-1.104 5.664,-1.104 3.024,0 5.424,1.2 2.4,1.2 3.984,2.88 l -3.744,4.272 q -1.152,-1.104 -2.496,-1.632 -1.344,-0.576 -3.024,-0.576 -2.064,0 -3.84,1.248 -1.728,1.2 -2.784,3.456 -1.056,2.256 -1.056,5.328 0,3.216 1.008,5.52 1.008,2.256 2.784,3.456 1.824,1.2 4.176,1.2 1.824,0 3.264,-0.768 1.44,-0.768 2.544,-1.824 l 3.552,4.176 q -2.016,2.256 -4.464,3.408 -2.448,1.104 -5.376,1.104 z M -1354.754,-77.457856 q -6.528,0 -10.56,-5.44 -3.968,-5.44 -3.968,-15.808 0,-10.432004 3.968,-15.680004 4.032,-5.248 10.56,-5.248 6.528,0 10.496,5.312 4.032,5.248 4.032,15.616004 0,10.368 -4.032,15.808 -3.968,5.44 -10.496,5.44 z m 0,-7.296 q 1.6,0 2.88,-1.152 1.28,-1.216 1.984,-4.224 0.768,-3.072 0.768,-8.576 0,-5.568004 -0.768,-8.512004 -0.704,-2.944 -1.984,-4.032 -1.28,-1.088 -2.88,-1.088 -1.6,0 -2.88,1.088 -1.28,1.088 -2.048,4.032 -0.704,2.944 -0.704,8.512004 0,5.504 0.704,8.576 0.768,3.008 2.048,4.224 1.28,1.152 2.88,1.152 z m 33.728,7.296 q -4.032,0 -7.296,-1.408 -3.2,-1.408 -5.056,-3.904 -1.792,-2.56 -1.792,-5.824 0,-2.496 0.896,-4.288 0.96,-1.856 2.496,-3.264 1.6,-1.408 3.52,-2.432 v -0.256 q -2.304,-1.792004 -3.904,-4.096004 -1.536,-2.304 -1.536,-5.504 0,-3.456 1.664,-5.952 1.664,-2.56 4.608,-3.904 2.944,-1.344 6.72,-1.344 5.632,0 8.96,3.072 3.392,3.008 3.392,8.064 0,1.92 -0.768,3.648 -0.704,1.664 -1.92,3.008 -1.216,1.28 -2.624,2.240004 v 0.256 q 1.92,1.024 3.52,2.496 1.6,1.408 2.56,3.456 0.96,1.984 0.96,4.672 0,3.2 -1.792,5.76 -1.792,2.496 -5.056,4.032 -3.2,1.472 -7.552,1.472 z m 2.56,-24.448004 q 1.216,-1.408 1.856,-2.88 0.64,-1.472 0.64,-3.072 0,-1.6 -0.576,-2.752 -0.576,-1.152 -1.728,-1.792 -1.088,-0.704 -2.624,-0.704 -1.856,0 -3.2,1.216 -1.344,1.152 -1.344,3.456 0,1.664 0.896,2.816 0.896,1.152 2.432,2.048 1.6,0.896 3.648,1.664 z m -2.368,17.920004 q 1.536,0 2.752,-0.512 1.28,-0.576 1.984,-1.664 0.704,-1.152 0.704,-2.88 0,-1.792 -1.088,-2.944 -1.024,-1.216 -3.008,-2.112 -1.92,-0.96 -4.48,-2.048 -1.344,1.216 -2.24,2.944 -0.896,1.664 -0.896,3.52 0,1.792 0.832,3.072 0.896,1.28 2.304,1.984 1.472,0.64 3.136,0.64 z m 26.368,5.76 q 0.32,-5.056 1.024,-9.28 0.704,-4.288 1.984,-8.128 1.344,-3.84 3.392,-7.552004 2.048,-3.712 5.056,-7.744 h -18.24 v -7.936 h 28.288 v 5.76 q -3.584,4.352 -5.888,8.128 -2.24,3.776 -3.456,7.680004 -1.216,3.904 -1.792,8.512 -0.576,4.608 -0.896,10.56 z m -85.4721,-80.000004 v -33.792 h -11.456 v -7.936 h 32.384 v 7.936 h -11.456 v 33.792 z m 27.456,0 v -41.728 h 15.04 q 4.416,0 8.064,1.216 3.648,1.152 5.824,4.032 2.176,2.816 2.176,7.744 0,4.8 -2.176,7.808 -2.176,3.008 -5.824,4.48 -3.648,1.408 -8.064,1.408 h -5.632 v 15.04 z m 9.408,-22.528 h 4.864 q 3.712,0 5.632,-1.536 1.984,-1.6 1.984,-4.672 0,-3.072 -1.984,-4.288 -1.92,-1.216 -5.632,-1.216 h -4.864 z m 13.184,22.528 -9.28,-17.472 6.528,-6.08 13.312,23.552 z m 12.4801,8.96 v -5.312 h 30.464 v 5.312 z m 53.824,-8.192 q -5.376,0 -9.856,-2.368 -4.416,-2.432 -7.104,-7.232 -2.688,-4.8 -2.688,-11.776 0,-5.184 1.536,-9.216 1.6,-4.096 4.352,-6.912 2.752,-2.816 6.272,-4.288 3.584,-1.472 7.552,-1.472 4.032,0 7.232,1.6 3.2,1.6 5.312,3.84 l -4.992,5.696 q -1.536,-1.472 -3.328,-2.176 -1.792,-0.768 -4.032,-0.768 -2.752,0 -5.12,1.664 -2.304,1.6 -3.712,4.608 -1.408,3.008 -1.408,7.104 0,4.288 1.344,7.36 1.344,3.008 3.712,4.608 2.432,1.6 5.568,1.6 2.432,0 4.352,-1.024 1.92,-1.024 3.392,-2.432 l 4.736,5.568 q -2.688,3.008 -5.952,4.544 -3.264,1.472 -7.168,1.472 z m -518.0105,-70.72866 q -9.792,0 -15.84,-8.16 -5.952,-8.16 -5.952,-23.712 0,-15.648 5.952,-23.52 6.048,-7.872 15.84,-7.872 9.792,0 15.744,7.968 6.048,7.872 6.048,23.424 0,15.552 -6.048,23.712 -5.952,8.16 -15.744,8.16 z m 0,-10.944 q 2.4,0 4.32,-1.728 1.92,-1.824 2.976,-6.336 1.152,-4.608 1.152,-12.864 0,-8.352 -1.152,-12.768 -1.056,-4.416 -2.976,-6.048 -1.92,-1.632 -4.32,-1.632 -2.4,0 -4.32,1.632 -1.92,1.632 -3.072,6.048 -1.056,4.416 -1.056,12.768 0,8.256 1.056,12.864 1.152,4.512 3.072,6.336 1.92,1.728 4.32,1.728 z m 50.592,10.944 q -6.048,0 -10.944,-2.112 -4.8,-2.112 -7.584,-5.856 -2.688,-3.84 -2.688,-8.736 0,-3.744 1.344,-6.432 1.44,-2.784 3.744,-4.896 2.4,-2.112 5.28,-3.648 v -0.384 q -3.456,-2.688 -5.856,-6.144 -2.304,-3.456 -2.304,-8.256 0,-5.184 2.496,-8.928 2.496,-3.84 6.912,-5.856 4.416,-2.016 10.08,-2.016 8.448,0 13.44,4.608 5.088,4.512 5.088,12.096 0,2.88 -1.152,5.472 -1.056,2.496 -2.88,4.512 -1.824,1.92 -3.936,3.36 v 0.384 q 2.88,1.536 5.28,3.744 2.4,2.112 3.84,5.184 1.44,2.976 1.44,7.008 0,4.8 -2.688,8.64 -2.688,3.744 -7.584,6.048 -4.8,2.208 -11.328,2.208 z m 3.84,-36.672 q 1.824,-2.112 2.784,-4.32 0.96,-2.208 0.96,-4.608 0,-2.4 -0.864,-4.128 -0.864,-1.728 -2.592,-2.688 -1.632,-1.056 -3.936,-1.056 -2.784,0 -4.8,1.824 -2.016,1.728 -2.016,5.184 0,2.496 1.344,4.224 1.344,1.728 3.648,3.072 2.4,1.344 5.472,2.496 z m -3.552,26.88 q 2.304,0 4.128,-0.768 1.92,-0.864 2.976,-2.496 1.056,-1.728 1.056,-4.32 0,-2.688 -1.632,-4.416 -1.536,-1.824 -4.512,-3.168 -2.88,-1.44 -6.72,-3.072 -2.016,1.824 -3.36,4.416 -1.344,2.496 -1.344,5.28 0,2.688 1.248,4.608 1.344,1.92 3.456,2.976 2.208,0.96 4.704,0.96 z m 52.1279,9.792 q -4.416,0 -8.544,-1.728 -4.128,-1.728 -7.392,-5.376 -3.264,-3.648 -5.184,-9.312 -1.92,-5.76 -1.92,-13.824 0,-8.544 2.016,-14.784 2.016,-6.24 5.472,-10.272 3.456,-4.032 7.872,-5.952 4.416,-2.016 9.312,-2.016 6.048,0 10.464,2.208 4.416,2.112 7.296,5.088 l -7.392,8.448 q -1.632,-1.728 -4.224,-2.976 -2.592,-1.344 -5.28,-1.344 -3.456,0 -6.432,2.016 -2.88,2.016 -4.608,6.816 -1.632,4.704 -1.632,12.768 0,7.584 1.344,11.904 1.44,4.224 3.744,6.048 2.304,1.728 4.8,1.728 2.112,0 3.84,-1.056 1.728,-1.056 2.784,-3.168 1.056,-2.208 1.056,-5.664 0,-3.264 -1.056,-5.184 -1.056,-1.92 -2.88,-2.784 -1.728,-0.864 -4.032,-0.864 -2.4,0 -4.992,1.44 -2.496,1.44 -4.512,5.088 l -0.672,-9.216 q 2.4,-3.552 6.144,-5.376 3.744,-1.92 6.72,-1.92 5.184,0 9.312,2.016 4.128,2.016 6.432,6.24 2.4,4.128 2.4,10.56 0,6.336 -2.784,10.944 -2.688,4.608 -7.296,7.104 -4.608,2.4 -10.176,2.4 z m -140.784,-121.152 v -50.688 h -17.184 v -11.904 h 48.576 v 11.904 h -17.184 v 50.688 z m 41.184,0 v -62.592 h 22.56 q 6.624,0 12.096,1.824 5.472,1.728 8.736,6.048 3.264,4.224 3.264,11.616 0,7.2 -3.264,11.712 -3.264,4.512 -8.736,6.72 -5.472,2.112 -12.096,2.112 h -8.448 v 22.56 z m 14.112,-33.792 h 7.296 q 5.568,0 8.448,-2.304 2.976,-2.4 2.976,-7.008 0,-4.608 -2.976,-6.432 -2.88,-1.824 -8.448,-1.824 h -7.296 z m 19.776,33.792 -13.92,-26.208 9.792,-9.12 19.968,35.328 z m 18.72,13.44 v -7.968 h 45.696 v 7.968 z m 80.736,-12.288 q -8.064,0 -14.784,-3.552 -6.624,-3.648 -10.656,-10.848 -4.032,-7.2 -4.032,-17.664 0,-7.776 2.304,-13.824 2.4,-6.144 6.528,-10.368 4.128,-4.224 9.408,-6.432 5.376,-2.208 11.328,-2.208 6.048,0 10.848,2.4 4.8,2.4 7.968,5.76 l -7.488,8.544 q -2.304,-2.208 -4.992,-3.264 -2.688,-1.152 -6.048,-1.152 -4.128,0 -7.68,2.496 -3.456,2.4 -5.568,6.912 -2.112,4.512 -2.112,10.656 0,6.432 2.016,11.04 2.016,4.512 5.568,6.912 3.648,2.4 8.352,2.4 3.648,0 6.528,-1.536 2.88,-1.536 5.088,-3.648 l 7.104,8.352 q -4.032,4.512 -8.928,6.816 -4.896,2.208 -10.752,2.208 z m -66.4602,-467.2588 q -9.792,0 -15.84,-8.16 -5.952,-8.16 -5.952,-23.712 0,-15.648 5.952,-23.52 6.048,-7.872 15.84,-7.872 9.792,0 15.744,7.968 6.048,7.872 6.048,23.424 0,15.552 -6.048,23.712 -5.952,8.16 -15.744,8.16 z m 0,-10.944 q 2.4,0 4.32,-1.728 1.92,-1.824 2.976,-6.336 1.152,-4.608 1.152,-12.864 0,-8.352 -1.152,-12.768 -1.056,-4.416 -2.976,-6.048 -1.92,-1.632 -4.32,-1.632 -2.4,0 -4.32,1.632 -1.92,1.632 -3.072,6.048 -1.056,4.416 -1.056,12.768 0,8.256 1.056,12.864 1.152,4.512 3.072,6.336 1.92,1.728 4.32,1.728 z m 50.592,10.944 q -6.048,0 -10.944,-2.112 -4.8,-2.112 -7.584,-5.856 -2.688,-3.84 -2.688,-8.736 0,-3.744 1.344,-6.432 1.44,-2.784 3.744,-4.896 2.4,-2.112 5.28,-3.648 v -0.384 q -3.456,-2.688 -5.856,-6.144 -2.304,-3.456 -2.304,-8.256 0,-5.184 2.496,-8.928 2.496,-3.84 6.912,-5.856 4.416,-2.016 10.08,-2.016 8.448,0 13.44,4.608 5.088,4.512 5.088,12.096 0,2.88 -1.152,5.472 -1.056,2.496 -2.88,4.512 -1.824,1.92 -3.936,3.36 v 0.384 q 2.88,1.536 5.28,3.744 2.4,2.112 3.84,5.184 1.44,2.976 1.44,7.008 0,4.8 -2.688,8.64 -2.688,3.744 -7.584,6.048 -4.8,2.208 -11.328,2.208 z m 3.84,-36.672 q 1.824,-2.112 2.784,-4.32 0.96,-2.208 0.96,-4.608 0,-2.4 -0.864,-4.128 -0.864,-1.728 -2.592,-2.688 -1.632,-1.056 -3.936,-1.056 -2.784,0 -4.8,1.824 -2.016,1.728 -2.016,5.184 0,2.496 1.344,4.224 1.344,1.728 3.648,3.072 2.4,1.344 5.472,2.496 z m -3.552,26.88 q 2.304,0 4.128,-0.768 1.92,-0.864 2.976,-2.496 1.056,-1.728 1.056,-4.32 0,-2.688 -1.632,-4.416 -1.536,-1.824 -4.512,-3.168 -2.88,-1.44 -6.72,-3.072 -2.016,1.824 -3.36,4.416 -1.344,2.496 -1.344,5.28 0,2.688 1.248,4.608 1.344,1.92 3.456,2.976 2.208,0.96 4.704,0.96 z m 48.864,9.792 q -4.992,0 -9.024,-1.152 -3.936,-1.152 -7.008,-3.072 -3.072,-1.92 -5.472,-4.32 l 6.336,-8.928 q 2.784,2.496 6.048,4.32 3.264,1.728 7.104,1.728 3.072,0 5.376,-1.056 2.304,-1.152 3.552,-3.264 1.344,-2.112 1.344,-5.184 0,-4.608 -2.688,-7.008 -2.688,-2.4 -6.912,-2.4 -2.592,0 -4.416,0.672 -1.824,0.672 -4.608,2.4 l -6.336,-4.032 1.728,-30.816 h 34.56 v 11.904 h -22.368 l -1.056,11.424 q 1.824,-0.768 3.36,-1.056 1.536,-0.384 3.456,-0.384 5.28,0 9.696,2.016 4.416,2.016 7.008,6.24 2.688,4.224 2.688,10.656 0,6.816 -3.168,11.616 -3.072,4.704 -8.16,7.2 -5.088,2.496 -11.04,2.496 z m -137.5201,-121.152 v -50.688 h -17.184 v -11.904 h 48.576 v 11.904 h -17.184 v 50.688 z m 41.184,0 v -62.592 h 22.56 q 6.624,0 12.096,1.824 5.472,1.728 8.736,6.048 3.264,4.224 3.264,11.616 0,7.2 -3.264,11.712 -3.264,4.512 -8.736,6.72 -5.472,2.112 -12.096,2.112 h -8.448 v 22.56 z m 14.112,-33.792 h 7.296 q 5.568,0 8.448,-2.304 2.976,-2.4 2.976,-7.008 0,-4.608 -2.976,-6.432 -2.88,-1.824 -8.448,-1.824 h -7.296 z m 19.776,33.792 -13.92,-26.208 9.792,-9.12 19.968,35.328 z m 18.7201,13.44 v -7.968 h 45.696 v 7.968 z m 80.736,-12.288 q -8.064,0 -14.784,-3.552 -6.624,-3.648 -10.656,-10.848 -4.032,-7.2 -4.032,-17.664 0,-7.776 2.304,-13.824 2.4,-6.144 6.528,-10.368 4.128,-4.224 9.408,-6.432 5.376,-2.20798 11.328,-2.20798 6.048,0 10.848,2.39998 4.8,2.4 7.968,5.76 l -7.488,8.544 q -2.304,-2.208 -4.992,-3.264 -2.688,-1.152 -6.048,-1.152 -4.128,0 -7.68,2.496 -3.456,2.4 -5.568,6.912 -2.112,4.512 -2.112,10.656 0,6.432 2.016,11.04 2.016,4.512 5.568,6.912 3.648,2.4 8.352,2.4 3.648,0 6.528,-1.536 2.88,-1.536 5.088,-3.648 l 7.104,8.352 q -4.032,4.512 -8.928,6.816 -4.896,2.208 -10.752,2.208 z m 305.0888,89.18406 q -6.528,0 -10.56,-5.44 -3.968,-5.44 -3.968,-15.808 0,-10.432 3.968,-15.68 4.032,-5.248 10.56,-5.248 6.528,0 10.496,5.312 4.032,5.248 4.032,15.616 0,10.368 -4.032,15.808 -3.968,5.44 -10.496,5.44 z m 0,-7.296 q 1.6,0 2.88,-1.152 1.28,-1.216 1.984,-4.224 0.768,-3.072 0.768,-8.576 0,-5.568 -0.768,-8.512 -0.704,-2.944 -1.984,-4.032 -1.28,-1.088 -2.88,-1.088 -1.6,0 -2.88,1.088 -1.28,1.088 -2.048,4.032 -0.704,2.944 -0.704,8.512 0,5.504 0.704,8.576 0.768,3.008 2.048,4.224 1.28,1.152 2.88,1.152 z m 33.728,7.296 q -4.032,0 -7.296,-1.408 -3.2,-1.408 -5.056,-3.904 -1.792,-2.56 -1.792,-5.824 0,-2.496 0.896,-4.288 0.96,-1.856 2.496,-3.264 1.6,-1.408 3.52,-2.432 v -0.256 q -2.304,-1.792 -3.904,-4.096 -1.536,-2.304 -1.536,-5.504 0,-3.456 1.664,-5.952 1.664,-2.56 4.608,-3.904 2.944,-1.344 6.72,-1.344 5.632,0 8.96,3.072 3.392,3.008 3.392,8.064 0,1.92 -0.768,3.648 -0.704,1.664 -1.92,3.008 -1.216,1.28 -2.624,2.24 v 0.256 q 1.92,1.024 3.52,2.496 1.6,1.408 2.56,3.456 0.96,1.984 0.96,4.672 0,3.2 -1.792,5.76 -1.792,2.496 -5.056,4.032 -3.2,1.472 -7.552,1.472 z m 2.56,-24.448 q 1.216,-1.408 1.856,-2.88 0.64,-1.472 0.64,-3.072 0,-1.6 -0.576,-2.752 -0.576,-1.152 -1.728,-1.792 -1.088,-0.704 -2.624,-0.704 -1.856,0 -3.2,1.216 -1.344,1.152 -1.344,3.456 0,1.664 0.896,2.816 0.896,1.152 2.432,2.048 1.6,0.896 3.648,1.664 z m -2.368,17.92 q 1.536,0 2.752,-0.512 1.28,-0.576 1.984,-1.664 0.704,-1.152 0.704,-2.88 0,-1.792 -1.088,-2.944 -1.024,-1.216 -3.008,-2.112 -1.92,-0.96 -4.48,-2.048 -1.344,1.216 -2.24,2.944 -0.896,1.664 -0.896,3.52 0,1.792 0.832,3.072 0.896,1.28 2.304,1.984 1.472,0.64 3.136,0.64 z m 35.584,5.76 v -23.488 q 0,-1.92 0.128,-4.544 0.192,-2.624 0.256,-4.544 h -0.256 q -0.768,1.664 -1.6,3.392 -0.832,1.664 -1.728,3.456 l -5.376,8.832 h 22.016 v 7.168 h -31.04 v -6.464 l 14.848,-24.448 h 11.52 v 40.64 z m -94.6881,-80 v -33.792 h -11.456 v -7.936 h 32.384 v 7.936 h -11.456 v 33.792 z m 27.456,0 v -41.728 h 15.04 q 4.416,0 8.064,1.216 3.648,1.152 5.824,4.032 2.176,2.816 2.176,7.744 0,4.8 -2.176,7.808 -2.176,3.008 -5.824,4.48 -3.648,1.408 -8.064,1.408 h -5.632 v 15.04 z m 9.408,-22.528 h 4.864 q 3.712,0 5.632,-1.536 1.984,-1.6 1.984,-4.672 0,-3.072 -1.984,-4.288 -1.92,-1.216 -5.632,-1.216 h -4.864 z m 13.184,22.528 -9.28,-17.472 6.528,-6.08 13.312,23.552 z m 12.4801,8.96 v -5.312 h 30.464 v 5.312 z m 53.824,-8.192 q -5.376,0 -9.856,-2.368 -4.416,-2.432 -7.104,-7.232 -2.688,-4.8 -2.688,-11.776 0,-5.184 1.536,-9.216 1.6,-4.096 4.352,-6.912 2.752,-2.816 6.272,-4.288 3.584,-1.472 7.552,-1.472 4.032,0 7.232,1.6 3.2,1.6 5.312,3.84 l -4.992,5.696 q -1.536,-1.472 -3.328,-2.176 -1.792,-0.768 -4.032,-0.768 -2.752,0 -5.12,1.664 -2.304,1.6 -3.712,4.608 -1.408,3.008 -1.408,7.104 0,4.288 1.344,7.36 1.344,3.008 3.712,4.608 2.432,1.6 5.568,1.6 2.432,0 4.352,-1.024 1.92,-1.024 3.392,-2.432 l 4.736,5.568 q -2.688,3.008 -5.952,4.544 -3.264,1.472 -7.168,1.472 z m 579.77369,170.2843 q -6.528,0 -10.56,-5.44 -3.968,-5.44 -3.968,-15.808 0,-10.432 3.968,-15.68 4.032,-5.248 10.56,-5.248 6.528,0 10.496,5.312 4.032,5.248 4.032,15.616 0,10.368 -4.032,15.808 -3.968,5.44 -10.496,5.44 z m 0,-7.296 q 1.6,0 2.88,-1.152 1.28,-1.216 1.984,-4.224 0.768,-3.072 0.768,-8.576 0,-5.568 -0.768,-8.512 -0.704,-2.944 -1.984,-4.032 -1.28,-1.088 -2.88,-1.088 -1.6,0 -2.88,1.088 -1.28,1.088 -2.048,4.032 -0.704,2.944 -0.704,8.512 0,5.504 0.704,8.576 0.768,3.008 2.048,4.224 1.28,1.152 2.88,1.152 z m 33.72799,7.296 q -4.032,0 -7.296,-1.408 -3.2,-1.408 -5.056,-3.904 -1.792,-2.56 -1.792,-5.824 0,-2.496 0.896,-4.288 0.96,-1.856 2.496,-3.264 1.6,-1.408 3.52,-2.432 v -0.256 q -2.304,-1.792 -3.904,-4.096 -1.536,-2.304 -1.536,-5.504 0,-3.456 1.664,-5.952 1.664,-2.56 4.608,-3.904 2.944,-1.344 6.72,-1.344 5.632,0 8.96,3.072 3.392,3.008 3.392,8.064 0,1.92 -0.768,3.648 -0.704,1.664 -1.92,3.008 -1.216,1.28 -2.624,2.24 v 0.256 q 1.92,1.024 3.52,2.496 1.6,1.408 2.56,3.456 0.96,1.984 0.96,4.672 0,3.2 -1.792,5.76 -1.792,2.496 -5.056,4.032 -3.2,1.472 -7.552,1.472 z m 2.56,-24.448 q 1.216,-1.408 1.856,-2.88 0.64,-1.472 0.64,-3.072 0,-1.6 -0.576,-2.752 -0.576,-1.152 -1.728,-1.792 -1.088,-0.704 -2.624,-0.704 -1.856,0 -3.2,1.216 -1.344,1.152 -1.344,3.456 0,1.664 0.896,2.816 0.896,1.152 2.432,2.048 1.6,0.896 3.648,1.664 z m -2.368,17.92 q 1.536,0 2.752,-0.512 1.28,-0.576 1.984,-1.664 0.704,-1.152 0.704,-2.88 0,-1.792 -1.088,-2.944 -1.024,-1.216 -3.008,-2.112 -1.92,-0.96 -4.48,-2.048 -1.344,1.216 -2.24,2.944 -0.896,1.664 -0.896,3.52 0,1.792 0.832,3.072 0.896,1.28 2.304,1.984 1.472,0.64 3.136,0.64 z m 19.136,5.76 v -5.824 q 5.12,-4.544 9.088,-8.512 4.032,-3.968 6.272,-7.36 2.304,-3.392 2.304,-6.208 0,-3.008 -1.536,-4.544 -1.536,-1.6 -4.224,-1.6 -2.176,0 -3.968,1.28 -1.728,1.216 -3.264,2.88 l -4.928,-4.864 q 2.944,-3.328 6.016,-4.992 3.136,-1.664 7.424,-1.664 3.968,0 6.976,1.6 3.072,1.6 4.736,4.48 1.728,2.88 1.728,6.784 0,3.648 -1.984,7.168 -1.92,3.456 -5.12,6.912 -3.2,3.456 -6.784,7.04 1.536,-0.192 3.456,-0.32 1.92,-0.192 3.328,-0.192 h 9.088 v 7.936 z m -78.24004,-80 v -33.792 h -11.456 v -7.936 h 32.384 v 7.936 h -11.456 v 33.792 z m 27.45598,0 v -41.728 h 15.04 q 4.416,0 8.064,1.216 3.648,1.152 5.824,4.032 2.176,2.816 2.176,7.744 0,4.8 -2.176,7.808 -2.176,3.008 -5.824,4.48 -3.648,1.408 -8.064,1.408 h -5.632 v 15.04 z m 9.408,-22.528 h 4.864 q 3.712,0 5.632,-1.536 1.984,-1.6 1.984,-4.672 0,-3.072 -1.984,-4.288 -1.92,-1.216 -5.632,-1.216 h -4.864 z m 13.184,22.528 -9.28,-17.472 6.528,-6.08 13.312,23.552 z m 12.48006,8.96 v -5.312 h 30.464 v 5.312 z m 53.824,-8.192 q -5.376,0 -9.856,-2.368 -4.416,-2.432 -7.104,-7.232 -2.688,-4.8 -2.688,-11.776 0,-5.184 1.536,-9.216 1.6,-4.096 4.352,-6.912 2.752,-2.816 6.272,-4.288 3.584,-1.472 7.552,-1.472 4.032,0 7.232,1.6 3.2,1.6 5.312,3.84 l -4.992,5.696 q -1.536,-1.472 -3.328,-2.176 -1.792,-0.768 -4.032,-0.768 -2.752,0 -5.12,1.664 -2.304,1.6 -3.712,4.608 -1.408,3.008 -1.408,7.104 0,4.288 1.344,7.36 1.344,3.008 3.712,4.608 2.432,1.6 5.568,1.6 2.432,0 4.352,-1.024 1.92,-1.024 3.392,-2.432 l 4.736,5.568 q -2.688,3.008 -5.952,4.544 -3.264,1.472 -7.168,1.472 z m -427.88881,80 q -6.528,0 -10.56,-5.44 -3.968,-5.44 -3.968,-15.808 0,-10.432 3.968,-15.68 4.032,-5.248 10.56,-5.248 6.528,0 10.496,5.312 4.032,5.248 4.032,15.616 0,10.368 -4.032,15.808 -3.968,5.44 -10.496,5.44 z m 0,-7.296 q 1.6,0 2.88,-1.152 1.28,-1.216 1.984,-4.224 0.768,-3.072 0.768,-8.576 0,-5.568 -0.768,-8.512 -0.704,-2.944 -1.984,-4.032 -1.28,-1.088 -2.88,-1.088 -1.6,0 -2.88,1.088 -1.28,1.088 -2.048,4.032 -0.704,2.944 -0.704,8.512 0,5.504 0.704,8.576 0.768,3.008 2.048,4.224 1.28,1.152 2.88,1.152 z m 33.72799,7.296 q -4.032,0 -7.296,-1.408 -3.2,-1.408 -5.056,-3.904 -1.792,-2.56 -1.792,-5.824 0,-2.496 0.896,-4.288 0.96,-1.856 2.496,-3.264 1.6,-1.408 3.52,-2.432 v -0.256 q -2.304,-1.792 -3.904,-4.096 -1.536,-2.304 -1.536,-5.504 0,-3.456 1.664,-5.952 1.664,-2.56 4.608,-3.904 2.944,-1.344 6.72,-1.344 5.632,0 8.96,3.072 3.392,3.008 3.392,8.064 0,1.92 -0.768,3.648 -0.704,1.664 -1.92,3.008 -1.216,1.28 -2.624,2.24 v 0.256 q 1.92,1.024 3.52,2.496 1.6,1.408 2.56,3.456 0.96,1.984 0.96,4.672 0,3.2 -1.792,5.76 -1.792,2.496 -5.056,4.032 -3.2,1.472 -7.552,1.472 z m 2.56,-24.448 q 1.216,-1.408 1.856,-2.88 0.64,-1.472 0.64,-3.072 0,-1.6 -0.576,-2.752 -0.576,-1.152 -1.728,-1.792 -1.088,-0.704 -2.624,-0.704 -1.856,0 -3.2,1.216 -1.344,1.152 -1.344,3.456 0,1.664 0.896,2.816 0.896,1.152 2.432,2.048 1.6,0.896 3.648,1.664 z m -2.368,17.92 q 1.536,0 2.752,-0.512 1.28,-0.576 1.984,-1.664 0.704,-1.152 0.704,-2.88 0,-1.792 -1.088,-2.944 -1.024,-1.216 -3.008,-2.112 -1.92,-0.96 -4.48,-2.048 -1.344,1.216 -2.24,2.944 -0.896,1.664 -0.896,3.52 0,1.792 0.832,3.072 0.896,1.28 2.304,1.984 1.472,0.64 3.136,0.64 z m 32.32,6.528 q -3.264,0 -5.952,-0.768 -2.624,-0.704 -4.672,-1.984 -2.048,-1.28 -3.52,-3.008 l 4.352,-5.952 q 1.856,1.792 4.096,2.944 2.24,1.152 4.8,1.152 2.944,0 4.736,-1.216 1.856,-1.28 1.856,-3.584 0,-1.792 -0.896,-3.072 -0.896,-1.344 -3.264,-2.048 -2.304,-0.704 -6.784,-0.704 v -6.656 q 3.648,0 5.76,-0.704 2.112,-0.704 2.944,-1.92 0.896,-1.216 0.896,-2.816 0,-2.176 -1.344,-3.328 -1.28,-1.152 -3.648,-1.152 -2.176,0 -3.968,0.96 -1.728,0.896 -3.648,2.624 l -4.736,-5.76 q 2.816,-2.432 5.952,-3.776 3.136,-1.408 6.848,-1.408 4.16,0 7.296,1.344 3.2,1.28 4.928,3.776 1.792,2.432 1.792,6.016 0,3.136 -1.792,5.376 -1.728,2.24 -4.992,3.648 v 0.256 q 2.304,0.704 4.16,2.048 1.856,1.28 2.88,3.264 1.024,1.984 1.024,4.608 0,3.776 -2.112,6.464 -2.048,2.624 -5.504,4.032 -3.392,1.344 -7.488,1.344 z m -91.42404,-80.768 v -33.792 h -11.456 v -7.936 h 32.384 v 7.936 h -11.456 v 33.792 z m 27.45598,0 v -41.728 h 15.04 q 4.416,0 8.064,1.216 3.648,1.152 5.824,4.032 2.176,2.816 2.176,7.744 0,4.8 -2.176,7.808 -2.176,3.008 -5.824,4.48 -3.648,1.408 -8.064,1.408 h -5.632 v 15.04 z m 9.408,-22.528 h 4.864 q 3.712,0 5.632,-1.536 1.984,-1.6 1.984,-4.672 0,-3.072 -1.984,-4.288 -1.92,-1.216 -5.632,-1.216 h -4.864 z m 13.184,22.528 -9.28,-17.472 6.528,-6.08 13.312,23.552 z m 12.48006,8.96 v -5.312 h 30.464 v 5.312 z m 53.824,-8.192 q -5.376,0 -9.856,-2.368 -4.416,-2.432 -7.104,-7.232 -2.688,-4.8 -2.688,-11.776 0,-5.184 1.536,-9.216 1.6,-4.096 4.352,-6.912 2.752,-2.816 6.272,-4.288 3.584,-1.472 7.552,-1.472 4.032,0 7.232,1.6 3.2,1.6 5.312,3.84 l -4.992,5.696 q -1.536,-1.472 -3.328,-2.176 -1.792,-0.768 -4.032,-0.768 -2.752,0 -5.12,1.664 -2.304,1.6 -3.712,4.608 -1.408,3.008 -1.408,7.104 0,4.288 1.344,7.36 1.344,3.008 3.712,4.608 2.432,1.6 5.568,1.6 2.432,0 4.352,-1.024 1.92,-1.024 3.392,-2.432 l 4.736,5.568 q -2.688,3.008 -5.952,4.544 -3.264,1.472 -7.168,1.472 z m 549.46903,80 q -6.528,0 -10.56,-5.44 -3.968,-5.44 -3.968,-15.808 0,-10.432 3.968,-15.68 4.032,-5.248 10.56,-5.248 6.528,0 10.496,5.312 4.032,5.248 4.032,15.616 0,10.368 -4.032,15.808 -3.968,5.44 -10.496,5.44 z m 0,-7.296 q 1.6,0 2.88,-1.152 1.28,-1.216 1.984,-4.224 0.768,-3.072 0.768,-8.576 0,-5.568 -0.768,-8.512 -0.704,-2.944 -1.984,-4.032 -1.28,-1.088 -2.88,-1.088 -1.6,0 -2.88,1.088 -1.28,1.088 -2.048,4.032 -0.704,2.944 -0.704,8.512 0,5.504 0.704,8.576 0.768,3.008 2.048,4.224 1.28,1.152 2.88,1.152 z m 33.72799,7.296 q -4.032,0 -7.296,-1.408 -3.2,-1.408 -5.056,-3.904 -1.792,-2.56 -1.792,-5.824 0,-2.496 0.896,-4.288 0.96,-1.856 2.496,-3.264 1.6,-1.408 3.52,-2.432 v -0.256 q -2.304,-1.792 -3.904,-4.096 -1.536,-2.304 -1.536,-5.504 0,-3.456 1.664,-5.952 1.664,-2.56 4.608,-3.904 2.944,-1.344 6.72,-1.344 5.632,0 8.96,3.072 3.392,3.008 3.392,8.064 0,1.92 -0.768,3.648 -0.704,1.664 -1.92,3.008 -1.216,1.28 -2.624,2.24 v 0.256 q 1.92,1.024 3.52,2.496 1.6,1.408 2.56,3.456 0.96,1.984 0.96,4.672 0,3.2 -1.792,5.76 -1.792,2.496 -5.056,4.032 -3.2,1.472 -7.552,1.472 z m 2.56,-24.448 q 1.216,-1.408 1.856,-2.88 0.64,-1.472 0.64,-3.072 0,-1.6 -0.576,-2.752 -0.576,-1.152 -1.728,-1.792 -1.088,-0.704 -2.624,-0.704 -1.856,0 -3.2,1.216 -1.344,1.152 -1.344,3.456 0,1.664 0.896,2.816 0.896,1.152 2.432,2.048 1.6,0.896 3.648,1.664 z m -2.368,17.92 q 1.536,0 2.752,-0.512 1.28,-0.576 1.984,-1.664 0.704,-1.152 0.704,-2.88 0,-1.792 -1.088,-2.944 -1.024,-1.216 -3.008,-2.112 -1.92,-0.96 -4.48,-2.048 -1.344,1.216 -2.24,2.944 -0.896,1.664 -0.896,3.52 0,1.792 0.832,3.072 0.896,1.28 2.304,1.984 1.472,0.64 3.136,0.64 z m 21.248,5.76 v -7.616 h 8.832 v -23.488 h -7.616 v -5.824 q 3.328,-0.64 5.632,-1.536 2.368,-0.896 4.48,-2.176 h 6.912 v 33.024 h 7.616 v 7.616 z m -80.35204,-80 v -33.792 h -11.456 v -7.936 h 32.384 v 7.936 h -11.456 v 33.792 z m 27.45598,0 v -41.728 h 15.04 q 4.416,0 8.064,1.216 3.648,1.152 5.824,4.032 2.176,2.816 2.176,7.744 0,4.8 -2.176,7.808 -2.176,3.008 -5.824,4.48 -3.648,1.408 -8.064,1.408 h -5.632 v 15.04 z m 9.408,-22.528 h 4.864 q 3.712,0 5.632,-1.536 1.984,-1.6 1.984,-4.672 0,-3.072 -1.984,-4.288 -1.92,-1.216 -5.632,-1.216 h -4.864 z m 13.184,22.528 -9.28,-17.472 6.528,-6.08 13.312,23.552 z m 12.48006,8.96 v -5.312 h 30.464 v 5.312 z m 53.824,-8.192 q -5.376,0 -9.856,-2.368 -4.416,-2.432 -7.104,-7.232 -2.688,-4.8 -2.688,-11.776 0,-5.184 1.536,-9.216 1.6,-4.096 4.352,-6.912 2.752,-2.816 6.272,-4.288 3.584,-1.472 7.552,-1.472 4.032,0 7.232,1.6 3.2,1.6 5.312,3.84 l -4.992,5.696 q -1.536,-1.472 -3.328,-2.176 -1.792,-0.768 -4.032,-0.768 -2.752,0 -5.12,1.664 -2.304,1.6 -3.712,4.608 -1.408,3.008 -1.408,7.104 0,4.288 1.344,7.36 1.344,3.008 3.712,4.608 2.432,1.6 5.568,1.6 2.432,0 4.352,-1.024 1.92,-1.024 3.392,-2.432 l 4.736,5.568 q -2.688,3.008 -5.952,4.544 -3.264,1.472 -7.168,1.472 z m 185.54111,80 q -6.528,0 -10.56,-5.44 -3.968,-5.44 -3.968,-15.808 0,-10.432 3.968,-15.68 4.032,-5.248 10.56,-5.248 6.528,0 10.496,5.312 4.032,5.248 4.032,15.616 0,10.368 -4.032,15.808 -3.968,5.44 -10.496,5.44 z m 0,-7.296 q 1.6,0 2.88,-1.152 1.28,-1.216 1.984,-4.224 0.768,-3.072 0.768,-8.576 0,-5.568 -0.768,-8.512 -0.704,-2.944 -1.984,-4.032 -1.28,-1.088 -2.88,-1.088 -1.6,0 -2.88,1.088 -1.28,1.088 -2.048,4.032 -0.704,2.944 -0.704,8.512 0,5.504 0.704,8.576 0.768,3.008 2.048,4.224 1.28,1.152 2.88,1.152 z m 33.72799,7.296 q -4.032,0 -7.296,-1.408 -3.2,-1.408 -5.056,-3.904 -1.792,-2.56 -1.792,-5.824 0,-2.496 0.896,-4.288 0.96,-1.856 2.496,-3.264 1.6,-1.408 3.52,-2.432 v -0.256 q -2.304,-1.792 -3.904,-4.096 -1.536,-2.304 -1.536,-5.504 0,-3.456 1.664,-5.952 1.664,-2.56 4.608,-3.904 2.944,-1.344 6.72,-1.344 5.632,0 8.96,3.072 3.392,3.008 3.392,8.064 0,1.92 -0.768,3.648 -0.704,1.664 -1.92,3.008 -1.216,1.28 -2.624,2.24 v 0.256 q 1.92,1.024 3.52,2.496 1.6,1.408 2.56,3.456 0.96,1.984 0.96,4.672 0,3.2 -1.792,5.76 -1.792,2.496 -5.056,4.032 -3.2,1.472 -7.552,1.472 z m 2.56,-24.448 q 1.216,-1.408 1.856,-2.88 0.64,-1.472 0.64,-3.072 0,-1.6 -0.576,-2.752 -0.576,-1.152 -1.728,-1.792 -1.088,-0.704 -2.624,-0.704 -1.856,0 -3.2,1.216 -1.344,1.152 -1.344,3.456 0,1.664 0.896,2.816 0.896,1.152 2.432,2.048 1.6,0.896 3.648,1.664 z m -2.368,17.92 q 1.536,0 2.752,-0.512 1.28,-0.576 1.984,-1.664 0.704,-1.152 0.704,-2.88 0,-1.792 -1.088,-2.944 -1.024,-1.216 -3.008,-2.112 -1.92,-0.96 -4.48,-2.048 -1.344,1.216 -2.24,2.944 -0.896,1.664 -0.896,3.52 0,1.792 0.832,3.072 0.896,1.28 2.304,1.984 1.472,0.64 3.136,0.64 z m 33.664,6.528 q -6.528,0 -10.56,-5.44 -3.968,-5.44 -3.968,-15.808 0,-10.432 3.968,-15.68 4.032,-5.248 10.56,-5.248 6.528,0 10.496,5.312 4.032,5.248 4.032,15.616 0,10.368 -4.032,15.808 -3.968,5.44 -10.496,5.44 z m 0,-7.296 q 1.6,0 2.88,-1.152 1.28,-1.216 1.984,-4.224 0.768,-3.072 0.768,-8.576 0,-5.568 -0.768,-8.512 -0.704,-2.944 -1.984,-4.032 -1.28,-1.088 -2.88,-1.088 -1.6,0 -2.88,1.088 -1.28,1.088 -2.048,4.032 -0.704,2.944 -0.704,8.512 0,5.504 0.704,8.576 0.768,3.008 2.048,4.224 1.28,1.152 2.88,1.152 z m -92.76804,-73.472 v -33.792 h -11.456 v -7.936 h 32.384 v 7.936 h -11.456 v 33.792 z m 27.45598,0 v -41.728 h 15.04 q 4.416,0 8.064,1.216 3.648,1.152 5.824,4.032 2.176,2.816 2.176,7.744 0,4.8 -2.176,7.808 -2.176,3.008 -5.824,4.48 -3.648,1.408 -8.064,1.408 h -5.632 v 15.04 z m 9.408,-22.528 h 4.864 q 3.712,0 5.632,-1.536 1.984,-1.6 1.984,-4.672 0,-3.072 -1.984,-4.288 -1.92,-1.216 -5.632,-1.216 h -4.864 z m 13.184,22.528 -9.28,-17.472 6.528,-6.08 13.312,23.552 z m 12.48006,8.96 v -5.312 h 30.464 v 5.312 z m 53.824,-8.192 q -5.376,0 -9.856,-2.368 -4.416,-2.432 -7.104,-7.232 -2.688,-4.8 -2.688,-11.776 0,-5.184 1.536,-9.216 1.6,-4.096 4.352,-6.912 2.752,-2.816 6.272,-4.288 3.584,-1.472 7.552,-1.472 4.032,0 7.232,1.6 3.2,1.6 5.312,3.84 l -4.992,5.696 q -1.536,-1.472 -3.328,-2.176 -1.792,-0.768 -4.032,-0.768 -2.752,0 -5.12,1.664 -2.304,1.6 -3.712,4.608 -1.408,3.008 -1.408,7.104 0,4.288 1.344,7.36 1.344,3.008 3.712,4.608 2.432,1.6 5.568,1.6 2.432,0 4.352,-1.024 1.92,-1.024 3.392,-2.432 l 4.736,5.568 q -2.688,3.008 -5.952,4.544 -3.264,1.472 -7.168,1.472 z m 211.68751,80 q -6.528,0 -10.56,-5.44 -3.968,-5.44 -3.968,-15.808 0,-10.432 3.968,-15.68 4.032,-5.248 10.56,-5.248 6.528,0 10.496,5.312 4.032,5.248 4.032,15.616 0,10.368 -4.032,15.808 -3.968,5.44 -10.496,5.44 z m 0,-7.296 q 1.6,0 2.88,-1.152 1.28,-1.216 1.984,-4.224 0.768,-3.072 0.768,-8.576 0,-5.568 -0.768,-8.512 -0.704,-2.944 -1.984,-4.032 -1.28,-1.088 -2.88,-1.088 -1.6,0 -2.88,1.088 -1.28,1.088 -2.048,4.032 -0.704,2.944 -0.704,8.512 0,5.504 0.704,8.576 0.768,3.008 2.048,4.224 1.28,1.152 2.88,1.152 z m 26.49599,6.528 q 0.32,-5.056 1.024,-9.28 0.704,-4.288 1.984,-8.128 1.344,-3.84 3.392,-7.552 2.048,-3.712 5.056,-7.744 h -18.24 v -7.936 h 28.288 v 5.76 q -3.584,4.352 -5.888,8.128 -2.24,3.776 -3.456,7.68 -1.216,3.904 -1.792,8.512 -0.576,4.608 -0.896,10.56 z m 38.848,0.768 q -4.032,0 -6.976,-1.472 -2.944,-1.472 -4.928,-3.392 l 4.992,-5.632 q 1.024,1.152 2.752,2.048 1.792,0.832 3.52,0.832 2.432,0 4.288,-1.344 1.92,-1.344 3.008,-4.48 1.152,-3.2 1.152,-8.576 0,-5.056 -0.96,-7.872 -0.896,-2.88 -2.432,-4.032 -1.472,-1.216 -3.2,-1.216 -1.344,0 -2.56,0.704 -1.152,0.704 -1.856,2.112 -0.704,1.408 -0.704,3.776 0,2.112 0.704,3.456 0.704,1.28 1.92,1.856 1.216,0.576 2.752,0.576 1.6,0 3.264,-0.96 1.664,-1.024 3.008,-3.392 l 0.448,6.144 q -1.536,2.24 -4.032,3.584 -2.496,1.28 -4.544,1.28 -3.456,0 -6.208,-1.344 -2.752,-1.344 -4.352,-4.096 -1.536,-2.816 -1.536,-7.104 0,-4.224 1.856,-7.296 1.856,-3.072 4.928,-4.672 3.072,-1.664 6.72,-1.664 3.008,0 5.76,1.152 2.752,1.152 4.864,3.584 2.176,2.432 3.456,6.272 1.344,3.776 1.344,9.152 0,5.696 -1.408,9.856 -1.344,4.16 -3.648,6.848 -2.304,2.688 -5.248,4.032 -2.944,1.28 -6.144,1.28 z m -90.52804,-80.768 v -33.792 h -11.456 v -7.936 h 32.384 v 7.936 h -11.456 v 33.792 z m 27.45598,0 v -41.728 h 15.04 q 4.416,0 8.064,1.216 3.648,1.152 5.824,4.032 2.176,2.816 2.176,7.744 0,4.8 -2.176,7.808 -2.176,3.008 -5.824,4.48 -3.648,1.408 -8.064,1.408 h -5.632 v 15.04 z m 9.408,-22.528 h 4.864 q 3.712,0 5.632,-1.536 1.984,-1.6 1.984,-4.672 0,-3.072 -1.984,-4.288 -1.92,-1.216 -5.632,-1.216 h -4.864 z m 13.184,22.528 -9.28,-17.472 6.528,-6.08 13.312,23.552 z m 12.48006,8.96 v -5.312 h 30.464 v 5.312 z m 53.824,-8.192 q -5.376,0 -9.856,-2.368 -4.416,-2.432 -7.104,-7.232 -2.688,-4.8 -2.688,-11.776 0,-5.184 1.536,-9.216 1.6,-4.096 4.352,-6.912 2.752,-2.816 6.272,-4.288 3.584,-1.472 7.552,-1.472 4.032,0 7.232,1.6 3.2,1.6 5.312,3.84 l -4.992,5.696 q -1.536,-1.472 -3.328,-2.176 -1.792,-0.768 -4.032,-0.768 -2.752,0 -5.12,1.664 -2.304,1.6 -3.712,4.608 -1.408,3.008 -1.408,7.104 0,4.288 1.344,7.36 1.344,3.008 3.712,4.608 2.432,1.6 5.568,1.6 2.432,0 4.352,-1.024 1.92,-1.024 3.392,-2.432 l 4.736,5.568 q -2.688,3.008 -5.952,4.544 -3.264,1.472 -7.168,1.472 z m 286.0236,110.81604 q -9.792,0 -15.84,-8.16 -5.952,-8.16 -5.952,-23.712 0,-15.648 5.952,-23.52 6.048,-7.872 15.84,-7.872 9.792,0 15.744,7.968 6.048,7.872 6.048,23.424 0,15.552 -6.048,23.712 -5.952,8.16 -15.744,8.16 z m 0,-10.944 q 2.4,0 4.32,-1.728 1.92,-1.824 2.976,-6.336 1.152,-4.608 1.152,-12.864 0,-8.352 -1.152,-12.768 -1.056,-4.416 -2.976,-6.048 -1.92,-1.632 -4.32,-1.632 -2.4,0 -4.32,1.632 -1.92,1.632 -3.072,6.048 -1.056,4.416 -1.056,12.768 0,8.256 1.056,12.864 1.152,4.512 3.072,6.336 1.92,1.728 4.32,1.728 z m 39.74399,9.792 q 0.48,-7.584 1.536,-13.92 1.056,-6.432 2.976,-12.192 2.016,-5.76 5.088,-11.328 3.072,-5.568 7.584,-11.616 h -27.36 v -11.904 h 42.432 v 8.64 q -5.376,6.528 -8.832,12.192 -3.36,5.664 -5.184,11.52 -1.824,5.856 -2.688,12.768 -0.864,6.912 -1.344,15.84 z m 61.53598,1.152 q -6.048,0 -10.944,-2.112 -4.8,-2.112 -7.584,-5.856 -2.688,-3.84 -2.688,-8.736 0,-3.744 1.344,-6.432 1.44,-2.784 3.744,-4.896 2.4,-2.112 5.28,-3.648 v -0.384 q -3.456,-2.688 -5.856,-6.144 -2.304,-3.456 -2.304,-8.256 0,-5.184 2.496,-8.928 2.496,-3.84 6.912,-5.856 4.416,-2.016 10.08,-2.016 8.448,0 13.44,4.608 5.088,4.512 5.088,12.096 0,2.88 -1.152,5.472 -1.056,2.496 -2.88,4.512 -1.824,1.92 -3.936,3.36 v 0.384 q 2.88,1.536 5.28,3.744 2.4,2.112 3.84,5.184 1.44,2.976 1.44,7.008 0,4.8 -2.688,8.64 -2.688,3.744 -7.584,6.048 -4.8,2.208 -11.328,2.208 z m 3.84,-36.672 q 1.824,-2.112 2.784,-4.32 0.96,-2.208 0.96,-4.608 0,-2.4 -0.864,-4.128 -0.864,-1.728 -2.592,-2.688 -1.632,-1.056 -3.936,-1.056 -2.784,0 -4.8,1.824 -2.016,1.728 -2.016,5.184 0,2.496 1.344,4.224 1.344,1.728 3.648,3.072 2.4,1.344 5.472,2.496 z m -3.552,26.88 q 2.304,0 4.128,-0.768 1.92,-0.864 2.976,-2.496 1.056,-1.728 1.056,-4.32 0,-2.688 -1.632,-4.416 -1.536,-1.824 -4.512,-3.168 -2.88,-1.44 -6.72,-3.072 -2.016,1.824 -3.36,4.416 -1.344,2.496 -1.344,5.28 0,2.688 1.248,4.608 1.344,1.92 3.456,2.976 2.208,0.96 4.704,0.96 z m 43.39199,9.792 q -4.32,0 -7.584,-1.92 -3.168,-1.92 -4.896,-5.184 -1.728,-3.264 -1.728,-7.296 0,-7.68 6.336,-11.808 6.336,-4.224 20.448,-5.664 -0.096,-2.112 -0.96,-3.552 -0.768,-1.536 -2.4,-2.304 -1.632,-0.864 -4.128,-0.864 -2.976,0 -6.048,1.056 -3.072,1.056 -6.624,3.072 l -4.992,-9.216 q 3.072,-1.92 6.336,-3.264 3.264,-1.44 6.72,-2.208 3.552,-0.768 7.296,-0.768 6.144,0 10.272,2.4 4.224,2.304 6.432,7.104 2.208,4.704 2.208,12.096 v 27.168 h -11.52 l -0.96,-4.896 h -0.384 q -3.072,2.688 -6.432,4.416 -3.36,1.632 -7.392,1.632 z m 4.704,-11.04 q 2.4,0 4.224,-1.056 1.824,-1.056 3.648,-2.88 v -8.064 q -4.992,0.672 -7.968,1.728 -2.88,1.056 -4.128,2.592 -1.152,1.44 -1.152,3.264 0,2.208 1.44,3.36 1.536,1.056 3.936,1.056 z m -162.14403,-110.112 v -50.688 h -17.184 v -11.904 h 48.576 v 11.904 h -17.184 v 50.688 z m 41.18398,0 v -62.592 h 22.56 q 6.624,0 12.096,1.824 5.472,1.728 8.736,6.048 3.264,4.224 3.264,11.616 0,7.2 -3.264,11.712 -3.264,4.512 -8.736,6.72 -5.472,2.112 -12.096,2.112 h -8.448 v 22.56 z m 14.112,-33.792 h 7.296 q 5.568,0 8.448,-2.304 2.976,-2.4 2.976,-7.008 0,-4.608 -2.976,-6.432 -2.88,-1.824 -8.448,-1.824 h -7.296 z m 19.776,33.792 -13.92,-26.208 9.792,-9.12 19.968,35.328 z m 18.72008,13.44 v -7.968 h 45.696 v 7.968 z m 80.736,-12.288 q -8.064,0 -14.784,-3.552 -6.624,-3.648 -10.656,-10.848 -4.032,-7.2 -4.032,-17.664 0,-7.776 2.304,-13.824 2.4,-6.144 6.528,-10.368 4.128,-4.224 9.408,-6.432 5.376,-2.208 11.328,-2.208 6.048,0 10.848,2.4 4.8,2.4 7.968,5.76 l -7.488,8.544 q -2.304,-2.208 -4.992,-3.264 -2.688,-1.152 -6.048,-1.152 -4.128,0 -7.68,2.496 -3.456,2.4 -5.568,6.912 -2.112,4.512 -2.112,10.656 0,6.432 2.016,11.04 2.016,4.512 5.568,6.912 3.648,2.4 8.352,2.4 3.648,0 6.528,-1.536 2.88,-1.536 5.088,-3.648 l 7.104,8.352 q -4.032,4.512 -8.928,6.816 -4.896,2.208 -10.752,2.208 z m 298.61803,120 q -9.792,0 -15.84,-8.16 -5.952,-8.16 -5.952,-23.712 0,-15.648 5.952,-23.52 6.048,-7.872 15.84,-7.872 9.792,0 15.744,7.968 6.048,7.872 6.048,23.424 0,15.552 -6.048,23.712 -5.952,8.16 -15.744,8.16 z m 0,-10.944 q 2.4,0 4.32,-1.728 1.92,-1.824 2.976,-6.336 1.152,-4.608 1.152,-12.864 0,-8.352 -1.152,-12.768 -1.056,-4.416 -2.976,-6.048 -1.92,-1.632 -4.32,-1.632 -2.4,0 -4.32,1.632 -1.92,1.632 -3.072,6.048 -1.056,4.416 -1.056,12.768 0,8.256 1.056,12.864 1.152,4.512 3.072,6.336 1.92,1.728 4.32,1.728 z m 39.744,9.792 q 0.48,-7.584 1.536,-13.92 1.056,-6.432 2.976,-12.192 2.016,-5.76 5.088,-11.328 3.072,-5.568 7.584,-11.616 h -27.36 v -11.904 h 42.432 v 8.64 q -5.376,6.528 -8.832,12.192 -3.36,5.664 -5.184,11.52 -1.824,5.856 -2.688,12.768 -0.864,6.912 -1.344,15.84 z m 61.536,1.152 q -6.048,0 -10.944,-2.112 -4.8,-2.112 -7.584,-5.856 -2.688,-3.84 -2.688,-8.736 0,-3.744 1.344,-6.432 1.44,-2.784 3.744,-4.896 2.4,-2.112 5.28,-3.648 v -0.384 q -3.456,-2.688 -5.856,-6.144 -2.304,-3.456 -2.304,-8.256 0,-5.184 2.496,-8.928 2.496,-3.84 6.912,-5.856 4.416,-2.016 10.08,-2.016 8.448,0 13.44,4.608 5.088,4.512 5.088,12.096 0,2.88 -1.152,5.472 -1.056,2.496 -2.88,4.512 -1.824,1.92 -3.936,3.36 v 0.384 q 2.88,1.536 5.28,3.744 2.4,2.112 3.84,5.184 1.44,2.976 1.44,7.008 0,4.8 -2.688,8.64 -2.688,3.744 -7.584,6.048 -4.8,2.208 -11.328,2.208 z m 3.84,-36.672 q 1.824,-2.112 2.784,-4.32 0.96,-2.208 0.96,-4.608 0,-2.4 -0.864,-4.128 -0.864,-1.728 -2.592,-2.688 -1.632,-1.056 -3.936,-1.056 -2.784,0 -4.8,1.824 -2.016,1.728 -2.016,5.184 0,2.496 1.344,4.224 1.344,1.728 3.648,3.072 2.4,1.344 5.472,2.496 z m -3.552,26.88 q 2.304,0 4.128,-0.768 1.92,-0.864 2.976,-2.496 1.056,-1.728 1.056,-4.32 0,-2.688 -1.632,-4.416 -1.536,-1.824 -4.512,-3.168 -2.88,-1.44 -6.72,-3.072 -2.016,1.824 -3.36,4.416 -1.344,2.496 -1.344,5.28 0,2.688 1.248,4.608 1.344,1.92 3.456,2.976 2.208,0.96 4.704,0.96 z m -139.3441,-111.36 v -50.688 h -17.184 v -11.904 h 48.576 v 11.904 h -17.184 v 50.688 z m 41.184,0 v -62.592 h 22.56 q 6.624,0 12.096,1.824 5.472,1.728 8.736,6.048 3.264,4.224 3.264,11.616 0,7.2 -3.264,11.712 -3.264,4.512 -8.736,6.72 -5.472,2.112 -12.096,2.112 h -8.448 v 22.56 z m 14.112,-33.792 h 7.296 q 5.568,0 8.448,-2.304 2.976,-2.4 2.976,-7.008 0,-4.608 -2.976,-6.432 -2.88,-1.824 -8.448,-1.824 h -7.296 z m 19.776,33.792 -13.92,-26.208 9.792,-9.12 19.968,35.328 z m 18.7201,13.44 v -7.968 h 45.696 v 7.968 z m 80.736,-12.288 q -8.064,0 -14.784,-3.552 -6.624,-3.648 -10.656,-10.848 -4.032,-7.2 -4.032,-17.664 0,-7.776 2.304,-13.824 2.4,-6.144 6.528,-10.368 4.128,-4.224 9.408,-6.432 5.376,-2.208 11.328,-2.208 6.048,0 10.848,2.4 4.8,2.4 7.968,5.76 l -7.488,8.544 q -2.304,-2.208 -4.992,-3.264 -2.688,-1.152 -6.048,-1.152 -4.128,0 -7.68,2.496 -3.456,2.4 -5.568,6.912 -2.112,4.512 -2.112,10.656 0,6.432 2.016,11.04 2.016,4.512 5.568,6.912 3.648,2.4 8.352,2.4 3.648,0 6.528,-1.536 2.88,-1.536 5.088,-3.648 l 7.104,8.352 q -4.032,4.512 -8.928,6.816 -4.896,2.208 -10.752,2.208 z m 391.2109,452.73055 q -4.896,0 -7.92,-4.08 -2.976,-4.08 -2.976,-11.856 0,-7.824 2.976,-11.76 3.024,-3.936 7.92,-3.936 4.896,0 7.872,3.984 3.024,3.936 3.024,11.712 0,7.776 -3.024,11.856 -2.976,4.08 -7.872,4.08 z m 0,-5.472 q 1.2,0 2.16,-0.864 0.96,-0.912 1.488,-3.168 0.576,-2.304 0.576,-6.432 0,-4.176 -0.576,-6.384 -0.528,-2.208 -1.488,-3.024 -0.96,-0.816 -2.16,-0.816 -1.2,0 -2.16,0.816 -0.96,0.816 -1.536,3.024 -0.528,2.208 -0.528,6.384 0,4.128 0.528,6.432 0.576,2.256 1.536,3.168 0.96,0.864 2.16,0.864 z m 19.872,4.896 q 0.24,-3.792 0.768,-6.96 0.528,-3.216 1.488,-6.096 1.008,-2.88 2.544,-5.664 1.536,-2.784 3.792,-5.808 h -13.68 v -5.952 h 21.216 v 4.32 q -2.688,3.264 -4.416,6.096 -1.68,2.832 -2.592,5.76 -0.912,2.928 -1.344,6.384 -0.432,3.456 -0.672,7.92 z m 31.632,0.576 q -2.208,0 -4.272,-0.864 -2.064,-0.864 -3.696,-2.688 -1.632,-1.824 -2.592,-4.656 -0.96,-2.88 -0.96,-6.912 0,-4.272 1.008,-7.392 1.008,-3.12 2.736,-5.136 1.728,-2.016 3.936,-2.976 2.208,-1.008 4.656,-1.008 3.024,0 5.232,1.104 2.208,1.056 3.648,2.544 l -3.696,4.224 q -0.816,-0.864 -2.112,-1.488 -1.296,-0.672 -2.64,-0.672 -1.728,0 -3.216,1.008 -1.44,1.008 -2.304,3.408 -0.816,2.352 -0.816,6.384 0,3.792 0.672,5.952 0.72,2.112 1.872,3.024 1.152,0.864 2.4,0.864 1.056,0 1.92,-0.528 0.864,-0.528 1.392,-1.584 0.528,-1.104 0.528,-2.832 0,-1.632 -0.528,-2.592 -0.528,-0.96 -1.44,-1.392 -0.864,-0.432 -2.016,-0.432 -1.2,0 -2.496,0.72 -1.248,0.72 -2.256,2.544 l -0.336,-4.608 q 1.2,-1.776 3.072,-2.688 1.872,-0.96 3.36,-0.96 2.592,0 4.656,1.008 2.064,1.008 3.216,3.12 1.2,2.064 1.2,5.28 0,3.168 -1.392,5.472 -1.344,2.304 -3.648,3.552 -2.304,1.2 -5.088,1.2 z m -70.392,-60.576 v -25.344 h -8.5921 v -5.952 h 24.288 v 5.952 h -8.5919 v 25.344 z m 20.5919,0 v -31.296 h 11.28 q 3.312,0 6.048,0.912 2.736,0.864 4.368,3.024 1.632,2.112 1.632,5.808 0,3.6 -1.632,5.856 -1.632,2.256 -4.368,3.36 -2.736,1.056 -6.048,1.056 h -4.224 v 11.28 z m 7.056,-16.896 h 3.648 q 2.784,0 4.224,-1.152 1.488,-1.2 1.488,-3.504 0,-2.304 -1.488,-3.216 -1.44,-0.912 -4.224,-0.912 h -3.648 z m 9.888,16.896 -6.96,-13.104 4.896,-4.56 9.984,17.664 z m 9.3601,6.72 v -3.984 h 22.848 v 3.984 z m 40.368,-6.144 q -4.032,0 -7.392,-1.776 -3.312,-1.824 -5.328,-5.424 -2.016,-3.6 -2.016,-8.832 0,-3.888 1.152,-6.912 1.2,-3.072 3.264,-5.184 2.064,-2.112 4.704,-3.216 2.688,-1.104 5.664,-1.104 3.024,0 5.424,1.2 2.4,1.2 3.984,2.88 l -3.744,4.272 q -1.152,-1.104 -2.496,-1.632 -1.344,-0.576 -3.024,-0.576 -2.064,0 -3.84,1.248 -1.728,1.2 -2.784,3.456 -1.056,2.256 -1.056,5.328 0,3.216 1.008,5.52 1.008,2.256 2.784,3.456 1.824,1.2 4.176,1.2 1.824,0 3.264,-0.768 1.44,-0.768 2.544,-1.824 l 3.552,4.176 q -2.016,2.256 -4.464,3.408 -2.448,1.104 -5.376,1.104 z m -192.277,-250.93905 q -9.792,0 -15.84,-8.16 -5.952,-8.16 -5.952,-23.712 0,-15.648 5.952,-23.52 6.048,-7.872 15.84,-7.872 9.792,0 15.744,7.968 6.048,7.872 6.048,23.424 0,15.552 -6.048,23.712 -5.952,8.16 -15.744,8.16 z m 0,-10.944 q 2.4,0 4.32,-1.728 1.92,-1.824 2.976,-6.336 1.152,-4.608 1.152,-12.864 0,-8.352 -1.152,-12.768 -1.056,-4.416 -2.976,-6.048 -1.92,-1.632 -4.32,-1.632 -2.4,0 -4.32,1.632 -1.92,1.632 -3.072,6.048 -1.056,4.416 -1.056,12.768 0,8.256 1.056,12.864 1.152,4.512 3.072,6.336 1.92,1.728 4.32,1.728 z m 39.744,9.792 q 0.48,-7.584 1.536,-13.92 1.056,-6.432 2.976,-12.192 2.016,-5.76 5.088,-11.328 3.072,-5.568 7.584,-11.616 h -27.36 v -11.904 h 42.432 v 8.64 q -5.376,6.528 -8.832,12.192 -3.36,5.664 -5.184,11.52 -1.824,5.856 -2.688,12.768 -0.864,6.912 -1.344,15.84 z m 50.688,0 q 0.48,-7.584 1.536,-13.92 1.056,-6.432 2.976,-12.192 2.016,-5.76 5.088,-11.328 3.072,-5.568 7.584,-11.616 h -27.36 v -11.904 h 42.432 v 8.64 q -5.376,6.528 -8.832,12.192 -3.36,5.664 -5.184,11.52 -1.824,5.856 -2.688,12.768 -0.864,6.912 -1.344,15.84 z m -128.2081,-120 v -50.688 h -17.184 v -11.904 h 48.576 v 11.904 h -17.184 v 50.688 z m 41.184,0 v -62.592 h 22.56 q 6.624,0 12.096,1.824 5.472,1.728 8.736,6.048 3.264,4.224 3.264,11.616 0,7.2 -3.264,11.712 -3.264,4.512 -8.736,6.72 -5.472,2.112 -12.096,2.112 h -8.448 v 22.56 z m 14.112,-33.792 h 7.296 q 5.568,0 8.448,-2.304 2.976,-2.4 2.976,-7.008 0,-4.608 -2.976,-6.432 -2.88,-1.824 -8.448,-1.824 h -7.296 z m 19.776,33.792 -13.92,-26.208 9.792,-9.12 19.968,35.328 z m 18.7201,13.44 v -7.968 h 45.696 v 7.968 z m 80.736,-12.288 q -8.064,0 -14.784,-3.552 -6.624,-3.648 -10.656,-10.848 -4.032,-7.2 -4.032,-17.664 0,-7.776 2.304,-13.824 2.4,-6.144 6.528,-10.368 4.128,-4.224 9.408,-6.432 5.376,-2.208 11.328,-2.208 6.048,0 10.848,2.4 4.8,2.4 7.968,5.76 l -7.488,8.544 q -2.304,-2.208 -4.992,-3.264 -2.688,-1.152 -6.048,-1.152 -4.128,0 -7.68,2.496 -3.456,2.4 -5.568,6.912 -2.112,4.512 -2.112,10.656 0,6.432 2.016,11.04 2.016,4.512 5.568,6.912 3.648,2.4 8.352,2.4 3.648,0 6.528,-1.536 2.88,-1.536 5.088,-3.648 l 7.104,8.352 q -4.032,4.512 -8.928,6.816 -4.896,2.208 -10.752,2.208 z" style="font-size:32px;font-family:'Source Sans 3';-inkscape-font-specification:'Source Sans 3, @wght=700';font-variation-settings:'wght' 700;text-align:center;white-space:pre;display:inline;fill:#bec3c6;stroke-width:55" transform="matrix(0.02439371,0,0,0.02439371,49.167988,287.44569)"/>
  </g>
</svg>
