<svg width="4000" height="1400" version="1.1" id="svg1" xml:space="preserve" xmlns="http://www.w3.org/2000/svg">
  <defs id="defs1">
    <marker style="overflow:visible" id="Triangle" refX="0" refY="0" orient="auto-start-reverse" markerWidth="1" markerHeight="1" viewBox="0 0 1 1" preserveAspectRatio="xMidYMid">
      <path transform="scale(.5)" style="fill:context-stroke;fill-rule:evenodd;stroke:context-stroke;stroke-width:1pt" d="m5.77 0-8.65 5V-5Z" id="path597"/>
    </marker>
  </defs>
  <g id="floor_-1" transform="matrix(40.99417 0 0 40.99417 1.002 -10510.757)" style="display:inline">
    <path style="font-variation-settings:'wdth' 70, 'wght' 600;display:inline;fill:#4c5a5f;fill-opacity:1;stroke:none;stroke-width:0.487874" d="M22.675 280.01v-6.584h33.25v6.583h.348v9.307h-4.97v-9.307H37.14v.726h-3.903v-.726z" id="path3"/>
    <g id="rooms_-1" style="display:inline;opacity:1" transform="matrix(.0244 0 0 .0244 -.024 255.987)">
      <path style="font-variation-settings:'wght' 700;display:inline;opacity:1;fill:#454c7f;fill-opacity:1;stroke-width:0" d="M65.665 154.67h1221.677V408.85H930.527v957.45H65.665Z" id="TR_CK20"/>
      <rect style="font-variation-settings:'wght' 700;display:inline;opacity:1;fill:#454c7f;fill-opacity:1;stroke-width:0" id="TR_CK20a" width="427.94662" height="381.53604" x="935.57037" y="984.76324"/>
      <path style="font-variation-settings:'wght' 700;display:inline;opacity:1;fill:#454c7f;fill-opacity:1;stroke-width:10" d="M1523.517 984.763h580.588V1366.3h-220.89v-190.768h-359.698Z" id="TR_CK20b"/>
      <path style="font-variation-settings:'wght' 700;fill:#454c7f;fill-opacity:1;stroke-width:10" d="M3816.808 154.67v830.093h-352.692V832.935h-92.49V154.671Z" id="TR_CK21"/>
      <path style="font-variation-settings:'wght' 700;display:inline;opacity:1;fill:#454c7f;fill-opacity:1;stroke-width:10" d="M2293.61 714.905h757.075V154.671h320.94v830.092h227.84V1366.3h-1291.58V984.763h-14.275z" id="TR_CK22"/>
      <rect style="font-variation-settings:'wght' 700;fill:#454c7f;fill-opacity:1;stroke-width:0" id="TR_CK22a" width="187.99998" height="381.53604" x="3599.4656" y="984.76324"/>
      <path style="font-variation-settings:'wght' 700;display:inline;opacity:1;fill:#454c7f;fill-opacity:1;stroke-width:10" d="m2293.61 563.388 282.936-.177V182.17h474.139v532.734H2293.61z" id="TR_CK23"/>
      <rect style="font-variation-settings:'wght' 700;display:inline;opacity:1;fill:#454c7f;fill-opacity:1;stroke-width:0" id="TR_CK23-1" width="282.93604" height="381.04391" x="2293.6099" y="182.16701"/>
      <rect style="font-variation-settings:'wght' 700;display:inline;opacity:1;fill:#454c7f;fill-opacity:1;stroke-width:0" id="TR_CK23-2" width="248.97147" height="381.68158" x="1712.2029" y="182.16748"/>
      <path style="font-variation-settings:'wght' 700;display:inline;opacity:1;fill:#454c7f;fill-opacity:1;stroke-width:10" d="M1287.342 154.67h407.36v292.09h-205.36v103.96h-202Z" id="TR_CK23-3"/>
      <path style="font-variation-settings:'wght' 700;display:inline;opacity:1;fill:#454c7f;fill-opacity:1;stroke-width:10" d="M930.527 408.849h356.815v141.872h407.36v13.128h266.472V154.671h332.436v560.234H930.527z" id="TR_CK23-5"/>
      <rect style="font-variation-settings:'wght' 700;display:inline;opacity:1;fill:#454c7f;fill-opacity:1;stroke-width:0" id="TR_CK23-6" width="170.35912" height="86.45665" x="1506.8438" y="464.26389"/>
    </g>
    <g id="staires_-1" transform="matrix(.0244 0 0 .0244 -19.761 298.28)" style="display:inline">
      <rect style="font-variation-settings:'wdth' 70, 'wght' 600;display:inline;fill:#4c5a5f;fill-opacity:1;stroke-width:6.17437;stroke-dasharray:none" id="rect98" width="159.99973" height="29.06435" x="-2332.6023" y="690.21747" transform="scale(-1)"/>
      <rect style="font-variation-settings:'wdth' 70, 'wght' 600;display:inline;fill:#4f5e63;fill-opacity:1;stroke-width:6.17437;stroke-dasharray:none" id="rect99" width="159.99973" height="29.06435" x="-2332.6023" y="661.15302" transform="scale(-1)"/>
      <rect style="font-variation-settings:'wdth' 70, 'wght' 600;display:inline;fill:#516166;fill-opacity:1;stroke-width:6.17437;stroke-dasharray:none" id="rect100" width="159.99973" height="29.06435" x="-2332.6023" y="632.08856" transform="scale(-1)"/>
      <rect style="font-variation-settings:'wdth' 70, 'wght' 600;display:inline;fill:#546469;fill-opacity:1;stroke-width:6.17437;stroke-dasharray:none" id="rect101" width="159.99973" height="29.06435" x="-2332.6023" y="603.02435" transform="scale(-1)"/>
      <rect style="font-variation-settings:'wdth' 70, 'wght' 600;display:inline;fill:#56676c;fill-opacity:1;stroke-width:6.17437;stroke-dasharray:none" id="rect102" width="159.99973" height="29.06435" x="-2332.6023" y="573.9599" transform="scale(-1)"/>
      <rect style="font-variation-settings:'wdth' 70, 'wght' 600;display:inline;fill:#000000;fill-opacity:1;stroke-width:1.14529;stroke-dasharray:none" id="rect107" width="159.99973" height="1.0000001" x="-2332.6023" y="719.28168" transform="scale(-1)"/>
      <rect style="font-variation-settings:'wdth' 70, 'wght' 600;display:inline;fill:#000000;fill-opacity:1;stroke-width:1.14529;stroke-dasharray:none" id="rect110" width="159.99973" height="1.0000001" x="-2332.6023" y="690.21747" transform="scale(-1)"/>
      <rect style="font-variation-settings:'wdth' 70, 'wght' 600;display:inline;fill:#000000;fill-opacity:1;stroke-width:1.14529;stroke-dasharray:none" id="rect112" width="159.99973" height="1.0000001" x="-2332.6023" y="661.15302" transform="scale(-1)"/>
      <rect style="font-variation-settings:'wdth' 70, 'wght' 600;display:inline;fill:#000000;fill-opacity:1;stroke-width:1.14529;stroke-dasharray:none" id="rect113" width="159.99973" height="1.0000001" x="-2332.6023" y="632.08856" transform="scale(-1)"/>
      <rect style="font-variation-settings:'wdth' 70, 'wght' 600;display:inline;fill:#000000;fill-opacity:1;stroke-width:1.14529;stroke-dasharray:none" id="rect168" width="159.99973" height="1.0000001" x="-2332.6023" y="603.02435" transform="scale(-1)"/>
      <rect style="font-variation-settings:'wdth' 70, 'wght' 600;display:inline;fill:#000000;fill-opacity:1;stroke-width:1.14529;stroke-dasharray:none" id="rect170" width="159.99973" height="1.0000001" x="-2332.6023" y="573.9599" transform="scale(-1)"/>
      <rect style="font-variation-settings:'wdth' 70, 'wght' 600;display:inline;fill:#56676c;fill-opacity:1;stroke-width:16.8871;stroke-dasharray:none" id="rect388" width="168.485" height="206.46437" x="-2341.0876" y="367.49557" transform="scale(-1)"/>
      <rect style="font-variation-settings:'wdth' 70, 'wght' 600;display:inline;fill:#586a6f;fill-opacity:1;stroke-width:6.74196;stroke-dasharray:none" id="rect389" width="190.76813" height="29.06435" x="-558.26367" y="-2370.1521" transform="rotate(90)"/>
      <rect style="font-variation-settings:'wdth' 70, 'wght' 600;display:inline;fill:#5a6d72;fill-opacity:1;stroke-width:6.74196;stroke-dasharray:none" id="rect390" width="190.76813" height="29.06435" x="-558.26367" y="-2399.2166" transform="rotate(90)"/>
      <rect style="font-variation-settings:'wdth' 70, 'wght' 600;display:inline;fill:#5c7075;fill-opacity:1;stroke-width:6.74196;stroke-dasharray:none" id="rect391" width="190.76813" height="29.06435" x="-558.26367" y="-2428.281" transform="rotate(90)"/>
      <rect style="font-variation-settings:'wdth' 70, 'wght' 600;display:inline;fill:#5e7378;fill-opacity:1;stroke-width:6.74196;stroke-dasharray:none" id="rect392" width="190.76813" height="29.06435" x="-558.26367" y="-2457.3455" transform="rotate(90)"/>
      <rect style="font-variation-settings:'wdth' 70, 'wght' 600;display:inline;fill:#60767b;fill-opacity:1;stroke-width:6.74196;stroke-dasharray:none" id="rect393" width="190.76813" height="29.06435" x="-558.26367" y="-2486.4099" transform="rotate(90)"/>
      <rect style="font-variation-settings:'wdth' 70, 'wght' 600;display:inline;fill:#62797e;fill-opacity:1;stroke-width:6.74196;stroke-dasharray:none" id="rect394" width="190.76813" height="29.06435" x="-558.26367" y="-2515.4744" transform="rotate(90)"/>
      <rect style="font-variation-settings:'wdth' 70, 'wght' 600;display:inline;fill:#647c81;fill-opacity:1;stroke-width:6.74196;stroke-dasharray:none" id="rect395" width="190.76813" height="29.06435" x="-558.26367" y="-2544.5388" transform="rotate(90)"/>
      <rect style="font-variation-settings:'wdth' 70, 'wght' 600;display:inline;fill:#667f84;fill-opacity:1;stroke-width:6.74196;stroke-dasharray:none" id="rect396" width="190.76813" height="29.06435" x="-558.26367" y="-2573.6033" transform="rotate(90)"/>
      <rect style="font-variation-settings:'wdth' 70, 'wght' 600;display:inline;fill:#688287;fill-opacity:1;stroke-width:6.74196;stroke-dasharray:none" id="rect397" width="190.76813" height="29.06435" x="-558.26367" y="-2602.6677" transform="rotate(90)"/>
      <rect style="font-variation-settings:'wdth' 70, 'wght' 600;display:inline;fill:#6b858a;fill-opacity:1;stroke-width:6.74196;stroke-dasharray:none" id="rect398" width="190.76813" height="29.06435" x="-558.26367" y="-2631.7322" transform="rotate(90)"/>
      <rect style="font-variation-settings:'wdth' 70, 'wght' 600;display:inline;fill:#6d888d;fill-opacity:1;stroke-width:6.74196;stroke-dasharray:none" id="rect399" width="190.76813" height="29.06435" x="-558.26367" y="-2660.7966" transform="rotate(90)"/>
      <rect style="font-variation-settings:'wdth' 70, 'wght' 600;display:inline;fill:#6f8b90;fill-opacity:1;stroke-width:7.01917;stroke-dasharray:none" id="rect400" width="190.76813" height="31.503559" x="-558.26367" y="-2692.3003" transform="rotate(90)"/>
      <rect style="font-variation-settings:'wdth' 70, 'wght' 600;display:inline;fill:#000000;fill-opacity:1;stroke-width:1.25056;stroke-dasharray:none" id="rect401" width="190.76813" height="1.0000001" x="-558.26367" y="-2341.0876" transform="rotate(90)"/>
      <rect style="font-variation-settings:'wdth' 70, 'wght' 600;display:inline;fill:#000000;fill-opacity:1;stroke-width:1.25056;stroke-dasharray:none" id="rect402" width="190.76813" height="1.0000001" x="-558.26367" y="-2370.1521" transform="rotate(90)"/>
      <rect style="font-variation-settings:'wdth' 70, 'wght' 600;display:inline;fill:#000000;fill-opacity:1;stroke-width:1.25056;stroke-dasharray:none" id="rect403" width="190.76813" height="1.0000001" x="-558.26367" y="-2399.2166" transform="rotate(90)"/>
      <rect style="font-variation-settings:'wdth' 70, 'wght' 600;display:inline;fill:#000000;fill-opacity:1;stroke-width:1.25056;stroke-dasharray:none" id="rect404" width="190.76813" height="1.0000001" x="-558.26367" y="-2428.281" transform="rotate(90)"/>
      <rect style="font-variation-settings:'wdth' 70, 'wght' 600;display:inline;fill:#000000;fill-opacity:1;stroke-width:1.25056;stroke-dasharray:none" id="rect406" width="190.76813" height="1.0000001" x="-558.26367" y="-2457.3455" transform="rotate(90)"/>
      <rect style="font-variation-settings:'wdth' 70, 'wght' 600;display:inline;fill:#000000;fill-opacity:1;stroke-width:1.25056;stroke-dasharray:none" id="rect407" width="190.76813" height="1.0000001" x="-558.26367" y="-2486.4099" transform="rotate(90)"/>
      <rect style="font-variation-settings:'wdth' 70, 'wght' 600;display:inline;fill:#000000;fill-opacity:1;stroke-width:1.25056;stroke-dasharray:none" id="rect408" width="190.76813" height="1.0000001" x="-558.26367" y="-2515.4744" transform="rotate(90)"/>
      <rect style="font-variation-settings:'wdth' 70, 'wght' 600;display:inline;fill:#000000;fill-opacity:1;stroke-width:1.25056;stroke-dasharray:none" id="rect409" width="190.76813" height="1.0000001" x="-558.26367" y="-2544.5388" transform="rotate(90)"/>
      <rect style="font-variation-settings:'wdth' 70, 'wght' 600;display:inline;fill:#000000;fill-opacity:1;stroke-width:1.25056;stroke-dasharray:none" id="rect410" width="190.76813" height="1.0000001" x="-558.26367" y="-2573.6033" transform="rotate(90)"/>
      <rect style="font-variation-settings:'wdth' 70, 'wght' 600;display:inline;fill:#000000;fill-opacity:1;stroke-width:1.25056;stroke-dasharray:none" id="rect411" width="190.76813" height="1.0000001" x="-558.26367" y="-2602.6677" transform="rotate(90)"/>
      <rect style="font-variation-settings:'wdth' 70, 'wght' 600;display:inline;fill:#000000;fill-opacity:1;stroke-width:1.25056;stroke-dasharray:none" id="rect412" width="190.76813" height="1.0000001" x="-558.26367" y="-2631.7322" transform="rotate(90)"/>
      <rect style="font-variation-settings:'wdth' 70, 'wght' 600;display:inline;fill:#000000;fill-opacity:1;stroke-width:1.25056;stroke-dasharray:none" id="rect413" width="190.76813" height="1.0000001" x="-558.26367" y="-2660.7966" transform="rotate(90)"/>
      <path style="font-variation-settings:'wdth' 70, 'wght' 600;display:inline;opacity:1;fill:none;fill-opacity:1;stroke:#bec3c6;stroke-width:5;stroke-dasharray:none;stroke-opacity:1;marker-end:url(#Triangle)" d="M2261.102-704.75v241.87h385.162" id="path208"/>
    </g>
    <g id="walls_-1" transform="matrix(.0244 0 0 .0244 -.024 244.2)" style="display:inline">
      <path style="font-variation-settings:'wdth' 70, 'wght' 600;fill:none;stroke:#bec3c6;stroke-width:35;stroke-linecap:butt;stroke-dasharray:none;stroke-opacity:1" d="M930.527 1467.983h99.043" id="path218"/>
      <path style="font-variation-settings:'wdth' 70, 'wght' 600;fill:none;stroke:#bec3c6;stroke-width:55;stroke-linecap:butt;stroke-dasharray:none;stroke-opacity:1" d="M2127.532 637.891h1689.276v1211.628h-1565.45m-100 0H65.664V637.891h1961.867" id="path219"/>
      <path style="font-variation-settings:'wdth' 70, 'wght' 600;fill:none;stroke:#bec3c6;stroke-width:35;stroke-linecap:butt;stroke-dasharray:none;stroke-opacity:1" d="M930.527 1849.52v-436.748" id="path220"/>
      <path style="font-variation-settings:'wdth' 70, 'wght' 600;fill:none;stroke:#bec3c6;stroke-width:10;stroke-linecap:butt;stroke-dasharray:none;stroke-opacity:1" d="M1961.174 637.891v409.178H1948" id="path221"/>
      <path style="font-variation-settings:'wdth' 70, 'wght' 600;fill:none;stroke:#bec3c6;stroke-width:10;stroke-linecap:butt;stroke-dasharray:none;stroke-opacity:1" d="M2293.61 777.903V637.891" id="path224"/>
      <path style="font-variation-settings:'wdth' 70, 'wght' 600;fill:none;stroke:#bec3c6;stroke-width:10;stroke-linecap:butt;stroke-dasharray:none;stroke-opacity:1" d="M2576.546 730.653v-92.762" id="path225"/>
      <path style="font-variation-settings:'wdth' 70, 'wght' 600;fill:none;stroke:#bec3c6;stroke-width:35;stroke-linecap:butt;stroke-dasharray:none;stroke-opacity:1" d="M3371.626 637.891v456.926" id="path227"/>
      <path style="font-variation-settings:'wdth' 70, 'wght' 600;fill:none;stroke:#bec3c6;stroke-width:10;stroke-linecap:butt;stroke-dasharray:none;stroke-opacity:1" d="M1287.342 925.069V637.891" id="path233"/>
      <path style="font-variation-settings:'wdth' 70, 'wght' 600;fill:none;stroke:#bec3c6;stroke-width:35;stroke-linecap:butt;stroke-dasharray:none;stroke-opacity:1" d="M65.665 1064.5h641.51" id="path236"/>
      <path style="font-variation-settings:'wdth' 70, 'wght' 600;fill:none;stroke:#bec3c6;stroke-width:35;stroke-linecap:butt;stroke-dasharray:none;stroke-opacity:1" d="M807.175 1064.5h123.352" id="path238"/>
      <path style="font-variation-settings:'wdth' 70, 'wght' 600;fill:none;stroke:#bec3c6;stroke-width:35;stroke-linecap:butt;stroke-dasharray:none;stroke-opacity:1" d="M3599.466 1665.577v-205.682" id="path245"/>
      <rect style="font-variation-settings:'wght' 700;fill:#bec3c6;fill-opacity:1;stroke-width:23.0413" id="rect255" width="106.91994" height="313.18771" x="3366.3887" y="1311.3895"/>
      <path style="font-variation-settings:'wdth' 70, 'wght' 600;fill:none;stroke:#bec3c6;stroke-width:10;stroke-linecap:butt;stroke-dasharray:none;stroke-opacity:1" d="M2576.546 830.653v215.778H2293.61" id="path257"/>
      <path style="font-variation-settings:'wdth' 70, 'wght' 600;fill:none;stroke:#bec3c6;stroke-width:10;stroke-linecap:butt;stroke-dasharray:none;stroke-opacity:1" d="M930.527 1198.125H1952.25" id="path264"/>
      <path style="font-variation-settings:'wdth' 70, 'wght' 600;fill:none;stroke:#bec3c6;stroke-width:35;stroke-linecap:butt;stroke-dasharray:none;stroke-opacity:1" d="M1500.486 1467.983h425.229" id="path265"/>
      <path style="font-variation-settings:'wdth' 70, 'wght' 600;fill:none;stroke:#bec3c6;stroke-width:35;stroke-linecap:butt;stroke-dasharray:none;stroke-opacity:1" d="M2025.715 1467.983h131.931" id="path266"/>
      <path style="font-variation-settings:'wdth' 70, 'wght' 600;fill:none;stroke:#bec3c6;stroke-width:35;stroke-linecap:butt;stroke-dasharray:none;stroke-opacity:1" d="M2257.646 1467.983h61.927" id="path267"/>
      <path style="font-variation-settings:'wdth' 70, 'wght' 600;fill:none;stroke:#bec3c6;stroke-width:10;stroke-linecap:butt;stroke-dasharray:none;stroke-opacity:1" d="M2307.885 1849.52v-381.537" id="path269"/>
      <path style="font-variation-settings:'wdth' 70, 'wght' 600;fill:none;stroke:#bec3c6;stroke-width:10;stroke-linecap:butt;stroke-dasharray:none;stroke-opacity:1" d="M2104.105 1849.52v-381.537" id="path270"/>
      <path style="font-variation-settings:'wdth' 70, 'wght' 600;fill:none;stroke:#bec3c6;stroke-width:35.5082;stroke-linecap:butt;stroke-dasharray:none;stroke-opacity:1" d="M1518.517 1658.751h369.698" id="path274"/>
      <path style="font-variation-settings:'wdth' 70, 'wght' 600;fill:none;stroke:#bec3c6;stroke-width:10;stroke-linecap:butt;stroke-dasharray:none;stroke-opacity:1" d="M1523.517 1658.751v-190.768" id="path275"/>
      <path style="font-variation-settings:'wdth' 70, 'wght' 600;fill:none;stroke:#bec3c6;stroke-width:10;stroke-linecap:butt;stroke-dasharray:none;stroke-opacity:1" d="M1883.215 1849.52v-236.153" id="path276"/>
      <path style="font-variation-settings:'wdth' 70, 'wght' 600;fill:none;stroke:#bec3c6;stroke-width:10;stroke-linecap:butt;stroke-dasharray:none;stroke-opacity:1" d="M1883.215 1513.367v-45.384" id="path277"/>
      <path style="font-variation-settings:'wdth' 70, 'wght' 600;fill:none;stroke:#bec3c6;stroke-width:35;stroke-linecap:butt;stroke-dasharray:none;stroke-opacity:1" d="M930.527 637.891v277.59" id="path360"/>
      <path style="font-variation-settings:'wdth' 70, 'wght' 600;fill:none;stroke:#bec3c6;stroke-width:35;stroke-linecap:butt;stroke-dasharray:none;stroke-opacity:1" d="M930.527 1015.48v297.292" id="path361"/>
      <path style="font-variation-settings:'wdth' 70, 'wght' 600;fill:none;stroke:#bec3c6;stroke-width:35;stroke-linecap:butt;stroke-dasharray:none;stroke-opacity:1" d="M1129.57 1467.983h270.916" id="path362"/>
      <path style="font-variation-settings:'wdth' 70, 'wght' 600;fill:none;stroke:#bec3c6;stroke-width:35;stroke-linecap:butt;stroke-dasharray:none;stroke-opacity:1" d="M1363.517 1849.52v-381.537" id="path364"/>
      <path style="font-variation-settings:'wdth' 70, 'wght' 600;fill:none;stroke:#bec3c6;stroke-width:10;stroke-linecap:butt;stroke-dasharray:none;stroke-opacity:1" d="M2052.25 1198.125h998.435V637.891" id="path365"/>
      <path style="font-variation-settings:'wdth' 70, 'wght' 600;fill:none;stroke:#bec3c6;stroke-width:10;stroke-linecap:butt;stroke-dasharray:none;stroke-opacity:1" d="M2293.61 1090.217V877.903" id="path366"/>
      <path style="font-variation-settings:'wdth' 70, 'wght' 600;fill:none;stroke:#bec3c6;stroke-width:35;stroke-linecap:butt;stroke-dasharray:none;stroke-opacity:1" d="M3371.626 1769.276v80.243" id="path367"/>
      <path style="font-variation-settings:'wdth' 70, 'wght' 600;fill:none;stroke:#bec3c6;stroke-width:35;stroke-linecap:butt;stroke-dasharray:none;stroke-opacity:1" d="M3366.389 1467.983h450.42" id="path368"/>
      <path style="font-variation-settings:'wdth' 70, 'wght' 600;fill:none;stroke:#bec3c6;stroke-width:35;stroke-linecap:butt;stroke-dasharray:none;stroke-opacity:1" d="M3599.466 1849.52v-45.683" id="path369"/>
      <path style="font-variation-settings:'wdth' 70, 'wght' 600;fill:none;stroke:#bec3c6;stroke-width:35;stroke-linecap:butt;stroke-dasharray:none;stroke-opacity:1" d="M3371.626 1194.817v474.46" id="path370"/>
      <path style="font-variation-settings:'wdth' 70, 'wght' 600;fill:none;stroke:#bec3c6;stroke-width:10;stroke-linecap:butt;stroke-dasharray:none;stroke-opacity:1" d="M2293.61 1281.306v-83.18" id="path371"/>
      <path style="font-variation-settings:'wdth' 70, 'wght' 600;fill:none;stroke:#bec3c6;stroke-width:10;stroke-linecap:butt;stroke-dasharray:none;stroke-opacity:1" d="M2293.61 1467.983v-83.18" id="path373"/>
      <path style="font-variation-settings:'wdth' 70, 'wght' 600;fill:none;stroke:#bec3c6;stroke-width:10;stroke-linecap:butt;stroke-dasharray:none;stroke-opacity:1" d="M1865.674 1047.07h-188.471" id="path374"/>
      <path style="font-variation-settings:'wdth' 70, 'wght' 600;fill:none;stroke:#bec3c6;stroke-width:35;stroke-linecap:butt;stroke-dasharray:none;stroke-opacity:1" d="M1694.703 1047.07V637.89" id="path375"/>
      <path style="font-variation-settings:'wdth' 70, 'wght' 600;fill:none;stroke:#bec3c6;stroke-width:10;stroke-linecap:butt;stroke-dasharray:none;stroke-opacity:1" d="M1076.827 892.07h-146.3" id="path376"/>
      <path style="font-variation-settings:'wdth' 70, 'wght' 600;fill:none;stroke:#bec3c6;stroke-width:10;stroke-linecap:butt;stroke-dasharray:none;stroke-opacity:1" d="M1287.342 892.07h-110.515" id="path378"/>
      <path style="font-variation-settings:'wdth' 70, 'wght' 600;fill:none;stroke:#bec3c6;stroke-width:10;stroke-linecap:butt;stroke-dasharray:none;stroke-opacity:1" d="M1287.342 1016.17v17.77h231.805" id="path379"/>
      <path style="font-variation-settings:'wdth' 70, 'wght' 600;fill:none;stroke:#bec3c6;stroke-width:35;stroke-linecap:butt;stroke-dasharray:none;stroke-opacity:1" d="M1489.343 1038.94V929.98h205.36" id="path380"/>
      <path style="font-variation-settings:'wdth' 70, 'wght' 600;fill:none;stroke:#bec3c6;stroke-width:10;stroke-linecap:butt;stroke-dasharray:none;stroke-opacity:1" d="M1619.147 1033.94h79.126" id="path381"/>
    </g>
    <g id="icons_-1" transform="matrix(.0244 0 0 .0244 -.024 244.2)" style="display:inline">
      <path d="M1828.14 906.228v-31.865h-10.104V842.11q0-3.562 2.558-6.12 2.558-2.559 6.12-2.559h19.949q3.562 0 6.12 2.559 2.559 2.558 2.559 6.12v32.254h-10.104v31.865zm8.559-82.642q-3.69 0-6.19-2.555-2.5-2.554-2.5-6.113 0-3.69 2.49-6.19 2.49-2.5 6.18-2.5 3.688 0 6.188 2.49 2.5 2.49 2.5 6.179 0 3.56-2.49 6.124-2.489 2.565-6.178 2.565z" id="path278" style="fill:#ffffff;fill-opacity:0.798742;stroke-width:0.129534"/>
      <path d="M1475.705 831.48v-30.052h-14.767l14.21-39.446q1.121-2.898 3.837-4.588 2.715-1.691 5.787-1.691 3.073 0 5.788 1.69 2.716 1.691 3.854 4.578l14.193 39.457h-14.767v30.052zm9.078-82.642q-3.69 0-6.19-2.55-2.5-2.551-2.5-6.119 0-3.689 2.49-6.189t6.179-2.5q3.69 0 6.19 2.49 2.5 2.49 2.5 6.114 0 3.624-2.49 6.189t-6.18 2.565z" id="path279" style="fill:#ffffff;fill-opacity:0.803459;stroke-width:0.129534"/>
    </g>
    <path id="text74" style="font-size:32px;font-family:'Source Sans 3';-inkscape-font-specification:'Source Sans 3, @wght=700';font-variation-settings:'wght' 700;text-align:center;white-space:pre;display:inline;fill:#bec3c6;stroke-width:55" transform="matrix(.0244 0 0 .0244 28.413 268.619)" d="M396.109-19.913v-16.896h-5.728v-3.968h16.192v3.968h-5.728v16.896zm13.728 0v-20.864h7.52q2.208 0 4.032.608 1.824.576 2.912 2.016 1.088 1.408 1.088 3.872 0 2.4-1.088 3.904t-2.912 2.24q-1.824.704-4.032.704h-2.816v7.52zm4.704-11.264h2.432q1.856 0 2.816-.768.992-.8.992-2.336 0-1.536-.992-2.144-.96-.608-2.816-.608h-2.432zm6.592 11.264-4.64-8.736 3.264-3.04 6.656 11.776zm6.24 4.48v-2.656h15.232v2.656zm26.912-4.096q-2.688 0-4.928-1.184-2.208-1.216-3.552-3.616-1.344-2.4-1.344-5.888 0-2.592.768-4.608.8-2.048 2.176-3.456 1.376-1.408 3.136-2.144 1.792-.736 3.776-.736 2.016 0 3.616.8t2.656 1.92l-2.496 2.848q-.768-.736-1.664-1.088-.896-.384-2.016-.384-1.376 0-2.56.832-1.152.8-1.856 2.304-.704 1.504-.704 3.552 0 2.144.672 3.68.672 1.504 1.856 2.304 1.216.8 2.784.8 1.216 0 2.176-.512.96-.512 1.696-1.216l2.368 2.784q-1.344 1.504-2.976 2.272-1.632.736-3.584.736zm-66.192 39.616V-.777h4.704v8.544h.128l6.208-8.544h5.184l-6.304 8.32 7.456 12.544h-5.152l-5.088-8.8-2.432 3.2v5.6zm18.368 0v-2.912q2.56-2.272 4.544-4.256 2.016-1.984 3.136-3.68 1.152-1.696 1.152-3.104 0-1.504-.768-2.272-.768-.8-2.112-.8-1.088 0-1.984.64-.864.608-1.632 1.44l-2.464-2.432q1.472-1.664 3.008-2.496 1.568-.832 3.712-.832 1.984 0 3.488.8 1.536.8 2.368 2.24.864 1.44.864 3.392 0 1.824-.992 3.584-.96 1.728-2.56 3.456t-3.392 3.52q.768-.096 1.728-.16.96-.096 1.664-.096h4.544v3.968zm23.488.384q-1.632 0-2.976-.384-1.312-.352-2.336-.992-1.024-.64-1.76-1.504l2.176-2.976q.928.896 2.048 1.472t2.4.576q1.472 0 2.368-.608.928-.64.928-1.792 0-.896-.448-1.536-.448-.672-1.632-1.024-1.152-.352-3.392-.352V8.023q1.824 0 2.88-.352 1.056-.352 1.472-.96.448-.608.448-1.408 0-1.088-.672-1.664-.64-.576-1.824-.576-1.088 0-1.984.48-.864.448-1.824 1.312l-2.368-2.88Q424.86.76 426.429.087q1.568-.704 3.424-.704 2.08 0 3.648.672 1.6.64 2.464 1.888.896 1.216.896 3.008 0 1.568-.896 2.688-.864 1.12-2.496 1.824v.128q1.152.352 2.08 1.024.928.64 1.44 1.632.512.992.512 2.304 0 1.888-1.056 3.232-1.024 1.312-2.752 2.016-1.696.672-3.744.672zm13.92 0q-1.216 0-2.048-.864-.8-.864-.8-2.08 0-1.28.8-2.112.832-.864 2.048-.864 1.248 0 2.048.864.8.832.8 2.112 0 1.216-.8 2.08-.8.864-2.048.864zm13.792 0q-1.472 0-2.848-.576t-2.464-1.792Q451.26 16.887 450.62 15q-.64-1.92-.64-4.608 0-2.848.672-4.928t1.824-3.424Q453.629.695 455.1.055q1.472-.672 3.104-.672 2.016 0 3.488.736 1.472.704 2.432 1.696l-2.464 2.816q-.544-.576-1.408-.992-.864-.448-1.76-.448-1.152 0-2.144.672-.96.672-1.536 2.272-.544 1.568-.544 4.256 0 2.528.448 3.968.48 1.408 1.248 2.016.768.576 1.6.576.704 0 1.28-.352.576-.352.928-1.056.352-.736.352-1.888 0-1.088-.352-1.728-.352-.64-.96-.928-.576-.288-1.344-.288-.8 0-1.664.48-.832.48-1.504 1.696l-.224-3.072q.8-1.184 2.048-1.792 1.248-.64 2.24-.64 1.728 0 3.104.672 1.376.672 2.144 2.08.8 1.376.8 3.52 0 2.112-.928 3.648-.896 1.536-2.432 2.368-1.536.8-3.392.8zm331.504 622.871v-25.344h-8.592v-5.952h24.288v5.952h-8.592v25.344zm20.592 0v-31.296h11.28q3.312 0 6.048.912 2.736.864 4.368 3.024 1.632 2.112 1.632 5.808 0 3.6-1.632 5.856t-4.368 3.36q-2.736 1.056-6.048 1.056h-4.224v11.28zm7.056-16.896h3.648q2.784 0 4.224-1.152 1.488-1.2 1.488-3.504 0-2.304-1.488-3.216-1.44-.912-4.224-.912h-3.648zm9.888 16.896-6.96-13.104 4.896-4.56 9.984 17.664zm9.36 6.72v-3.984h22.848v3.984zm40.368-6.144q-4.032 0-7.392-1.776-3.312-1.824-5.328-5.424-2.016-3.6-2.016-8.832 0-3.888 1.152-6.912 1.2-3.072 3.264-5.184t4.704-3.216q2.688-1.104 5.664-1.104 3.024 0 5.424 1.2 2.4 1.2 3.984 2.88l-3.744 4.272q-1.152-1.104-2.496-1.632-1.344-.576-3.024-.576-2.064 0-3.84 1.248-1.728 1.2-2.784 3.456-1.056 2.256-1.056 5.328 0 3.216 1.008 5.52 1.008 2.256 2.784 3.456 1.824 1.2 4.176 1.2 1.824 0 3.264-.768 1.44-.768 2.544-1.824l3.552 4.176q-2.016 2.256-4.464 3.408-2.448 1.104-5.376 1.104zm-93.168 59.424v-31.296h7.056v12.816h.192l9.312-12.816h7.776l-9.456 12.48 11.184 18.816h-7.728l-7.632-13.2-3.648 4.8v8.4zm27.552 0v-4.368q3.84-3.408 6.816-6.384 3.024-2.976 4.704-5.52 1.728-2.544 1.728-4.656 0-2.256-1.152-3.408-1.152-1.2-3.168-1.2-1.632 0-2.976.96-1.296.912-2.448 2.16l-3.696-3.648q2.208-2.496 4.512-3.744 2.352-1.248 5.568-1.248 2.976 0 5.232 1.2 2.304 1.2 3.552 3.36 1.296 2.16 1.296 5.088 0 2.736-1.488 5.376-1.44 2.592-3.84 5.184t-5.088 5.28q1.152-.144 2.592-.24 1.44-.144 2.496-.144h6.816v5.952zm36.24.576q-4.896 0-7.92-4.08-2.976-4.08-2.976-11.856 0-7.824 2.976-11.76 3.024-3.936 7.92-3.936t7.872 3.984q3.024 3.936 3.024 11.712t-3.024 11.856q-2.976 4.08-7.872 4.08zm0-5.472q1.2 0 2.16-.864.96-.912 1.488-3.168.576-2.304.576-6.432 0-4.176-.576-6.384-.528-2.208-1.488-3.024-.96-.816-2.16-.816-1.2 0-2.16.816-.96.816-1.536 3.024-.528 2.208-.528 6.384 0 4.128.528 6.432.576 2.256 1.536 3.168.96.864 2.16.864zm28.272 5.472q-1.584 0-3.168-.768-1.584-.816-3.024-2.352h-.192l-.576 2.544h-5.52v-33.648h7.056v8.256l-.192 3.648q1.344-1.248 2.976-1.92 1.632-.72 3.312-.72 2.88 0 4.992 1.488t3.216 4.224q1.152 2.688 1.152 6.336 0 4.08-1.44 7.008-1.44 2.88-3.744 4.416-2.256 1.488-4.848 1.488zm-1.632-5.76q1.2 0 2.208-.72 1.056-.72 1.632-2.256.576-1.584.576-4.032 0-2.16-.48-3.552-.432-1.44-1.344-2.16-.912-.72-2.304-.72-1.056 0-2.064.528-.96.48-2.016 1.632v9.744q.912.816 1.92 1.2 1.008.336 1.872.336zm-948.928-59.6v-33.792H-86.69v-7.936h32.384v7.936h-11.456v33.792zm27.456 0V596.83h15.04q4.416 0 8.064 1.216 3.648 1.152 5.824 4.032 2.176 2.816 2.176 7.744 0 4.8-2.176 7.808t-5.824 4.48q-3.648 1.408-8.064 1.408h-5.632v15.04zm9.408-22.528h4.864q3.712 0 5.632-1.536 1.984-1.6 1.984-4.672 0-3.072-1.984-4.288-1.92-1.216-5.632-1.216h-4.864zm13.184 22.528-9.28-17.472 6.528-6.08 13.312 23.552zm12.48 8.96v-5.312h30.464v5.312zm53.824-8.192q-5.376 0-9.856-2.368-4.416-2.432-7.104-7.232-2.688-4.8-2.688-11.776 0-5.184 1.536-9.216 1.6-4.096 4.352-6.912 2.752-2.816 6.272-4.288 3.584-1.472 7.552-1.472 4.032 0 7.232 1.6t5.312 3.84l-4.992 5.696q-1.536-1.472-3.328-2.176-1.792-.768-4.032-.768-2.752 0-5.12 1.664-2.304 1.6-3.712 4.608-1.408 3.008-1.408 7.104 0 4.288 1.344 7.36 1.344 3.008 3.712 4.608 2.432 1.6 5.568 1.6 2.432 0 4.352-1.024 1.92-1.024 3.392-2.432l4.736 5.568q-2.688 3.008-5.952 4.544-3.264 1.472-7.168 1.472zm-122.752 79.232V676.83h9.408v17.088h.256l12.416-17.088h10.368l-12.608 16.64 14.912 25.088h-10.304l-10.176-17.6-4.864 6.4v11.2zm36.736 0v-5.824q5.12-4.544 9.088-8.512 4.032-3.968 6.272-7.36 2.304-3.392 2.304-6.208 0-3.008-1.536-4.544-1.536-1.6-4.224-1.6-2.176 0-3.968 1.28-1.728 1.216-3.264 2.88l-4.928-4.864q2.944-3.328 6.016-4.992 3.136-1.664 7.424-1.664 3.968 0 6.976 1.6 3.072 1.6 4.736 4.48 1.728 2.88 1.728 6.784 0 3.648-1.984 7.168-1.92 3.456-5.12 6.912t-6.784 7.04q1.536-.192 3.456-.32 1.92-.192 3.328-.192h9.088v7.936zm48.32.768q-6.528 0-10.56-5.44-3.968-5.44-3.968-15.808 0-10.432 3.968-15.68 4.032-5.248 10.56-5.248 6.528 0 10.496 5.312 4.032 5.248 4.032 15.616 0 10.368-4.032 15.808-3.968 5.44-10.496 5.44zm0-7.296q1.6 0 2.88-1.152 1.28-1.216 1.984-4.224.768-3.072.768-8.576 0-5.568-.768-8.512-.704-2.944-1.984-4.032t-2.88-1.088q-1.6 0-2.88 1.088-1.28 1.088-2.048 4.032-.704 2.944-.704 8.512 0 5.504.704 8.576.768 3.008 2.048 4.224 1.28 1.152 2.88 1.152zm29.056 7.296q-2.88 0-5.056-1.28-2.112-1.28-3.264-3.456-1.152-2.176-1.152-4.864 0-5.12 4.224-7.872 4.224-2.816 13.632-3.776-.064-1.408-.64-2.368-.512-1.024-1.6-1.536-1.088-.576-2.752-.576-1.984 0-4.032.704t-4.416 2.048l-3.328-6.144q2.048-1.28 4.224-2.176 2.176-.96 4.48-1.472 2.368-.512 4.864-.512 4.096 0 6.848 1.6 2.816 1.536 4.288 4.736 1.472 3.136 1.472 8.064v18.112h-7.68l-.64-3.264h-.256q-2.048 1.792-4.288 2.944-2.24 1.088-4.928 1.088zm3.136-7.36q1.6 0 2.816-.704 1.216-.704 2.432-1.92v-5.376q-3.328.448-5.312 1.152-1.92.704-2.752 1.728-.768.96-.768 2.176 0 1.472.96 2.24 1.024.704 2.624.704zm-869.172-310.048V300.542h-34.368v-23.808h97.152v23.808h-34.368v101.376zm82.368 0V276.734h45.12q13.248 0 24.192 3.648 10.944 3.456 17.472 12.096 6.528 8.448 6.528 23.232 0 14.4-6.528 23.424t-17.472 13.44q-10.944 4.224-24.192 4.224h-16.896v45.12zm28.224-67.584h14.592q11.136 0 16.896-4.608 5.952-4.8 5.952-14.016 0-9.216-5.952-12.864-5.76-3.648-16.896-3.648h-14.592zm39.552 67.584-27.84-52.416 19.584-18.24 39.936 70.656zm37.44 26.88v-15.936h91.393v15.936zm161.473-24.576q-16.128 0-29.568-7.104-13.248-7.296-21.312-21.696-8.064-14.4-8.064-35.328 0-15.552 4.608-27.648 4.8-12.288 13.056-20.736t18.816-12.864q10.752-4.416 22.656-4.416 12.096 0 21.696 4.8 9.6 4.8 15.936 11.52l-14.976 17.088q-4.608-4.416-9.984-6.528-5.376-2.304-12.096-2.304-8.256 0-15.36 4.992-6.912 4.8-11.136 13.824-4.224 9.024-4.224 21.312 0 12.864 4.032 22.08 4.032 9.024 11.136 13.824 7.296 4.8 16.704 4.8 7.296 0 13.056-3.072 5.76-3.072 10.176-7.296l14.208 16.704q-8.064 9.024-17.856 13.632-9.792 4.416-21.504 4.416zm-317.664 237.696V516.734h28.224v51.264h.768l37.248-51.264h31.104l-37.824 49.92 44.736 75.264h-30.912l-30.528-52.8-14.592 19.2v33.6zm110.208 0v-17.472q15.36-13.632 27.264-25.536 12.096-11.904 18.816-22.08 6.912-10.176 6.912-18.624 0-9.024-4.608-13.632-4.608-4.8-12.672-4.8-6.528 0-11.904 3.84-5.184 3.648-9.792 8.64l-14.784-14.592q8.832-9.984 18.048-14.976 9.408-4.992 22.272-4.992 11.904 0 20.928 4.8 9.216 4.8 14.208 13.44 5.184 8.64 5.184 20.352 0 10.944-5.952 21.504-5.76 10.368-15.36 20.736t-20.352 21.12q4.608-.576 10.368-.96 5.76-.576 9.984-.576h27.264v23.808zm144.96 2.304q-19.584 0-31.68-16.32-11.904-16.32-11.904-47.424 0-31.296 11.904-47.04 12.096-15.744 31.68-15.744t31.488 15.936q12.096 15.744 12.096 46.848t-12.096 47.424q-11.904 16.32-31.488 16.32zm0-21.888q4.8 0 8.64-3.456 3.84-3.648 5.952-12.672 2.304-9.216 2.304-25.728 0-16.704-2.304-25.536-2.112-8.832-5.952-12.096-3.84-3.264-8.64-3.264-4.8 0-8.64 3.264-3.84 3.264-6.144 12.096-2.112 8.832-2.112 25.536 0 16.512 2.112 25.728 2.304 9.024 6.144 12.672 3.84 3.456 8.64 3.456zm-198.048-803.148v-50.688h-17.184v-11.904h48.576v11.904h-17.184v50.688zm41.184 0v-62.592h22.56q6.624 0 12.096 1.824 5.472 1.728 8.736 6.048 3.264 4.224 3.264 11.616 0 7.2-3.264 11.712t-8.736 6.72q-5.472 2.112-12.096 2.112h-8.448v22.56zm14.112-33.792h7.296q5.568 0 8.448-2.304 2.976-2.4 2.976-7.008 0-4.608-2.976-6.432-2.88-1.824-8.448-1.824h-7.296zm19.776 33.792-13.92-26.208 9.792-9.12 19.968 35.328zm18.72 13.44v-7.968h45.696v7.968zm80.736-12.288q-8.064 0-14.784-3.552-6.624-3.648-10.656-10.848-4.032-7.2-4.032-17.664 0-7.776 2.304-13.824 2.4-6.144 6.528-10.368t9.408-6.432q5.376-2.208 11.328-2.208 6.048 0 10.848 2.4 4.8 2.4 7.968 5.76l-7.488 8.544q-2.304-2.208-4.992-3.264-2.688-1.152-6.048-1.152-4.128 0-7.68 2.496-3.456 2.4-5.568 6.912-2.112 4.512-2.112 10.656 0 6.432 2.016 11.04 2.016 4.512 5.568 6.912 3.648 2.4 8.352 2.4 3.648 0 6.528-1.536 2.88-1.536 5.088-3.648l7.104 8.352q-4.032 4.512-8.928 6.816-4.896 2.208-10.752 2.208zM-729.35-60.814v-62.592h14.112v25.632h.384l18.624-25.632h15.552l-18.912 24.96 22.368 37.632h-15.456l-15.264-26.4-7.296 9.6v16.8zm55.104 0v-8.736q7.68-6.816 13.632-12.768 6.048-5.952 9.408-11.04 3.456-5.088 3.456-9.312 0-4.512-2.304-6.816-2.304-2.4-6.336-2.4-3.264 0-5.952 1.92-2.592 1.824-4.896 4.32l-7.392-7.296q4.416-4.992 9.024-7.488 4.704-2.496 11.136-2.496 5.952 0 10.464 2.4 4.608 2.4 7.104 6.72 2.592 4.32 2.592 10.176 0 5.472-2.976 10.752-2.88 5.184-7.68 10.368t-10.176 10.56q2.304-.288 5.184-.48 2.88-.288 4.992-.288h13.632v11.904zm72.48 1.152q-9.792 0-15.84-8.16-5.952-8.16-5.952-23.712 0-15.648 5.952-23.52 6.048-7.872 15.84-7.872t15.744 7.968q6.048 7.872 6.048 23.424t-6.048 23.712q-5.952 8.16-15.744 8.16zm0-10.944q2.4 0 4.32-1.728 1.92-1.824 2.976-6.336 1.152-4.608 1.152-12.864 0-8.352-1.152-12.768-1.056-4.416-2.976-6.048-1.92-1.632-4.32-1.632-2.4 0-4.32 1.632-1.92 1.632-3.072 6.048-1.056 4.416-1.056 12.768 0 8.256 1.056 12.864 1.152 4.512 3.072 6.336 1.92 1.728 4.32 1.728zm492.172-172.901V-277.3h-11.456v-7.936h32.384v7.936h-11.456v33.792zm27.456 0v-41.728h15.04q4.416 0 8.064 1.216 3.648 1.152 5.824 4.032 2.176 2.816 2.176 7.744 0 4.8-2.176 7.808t-5.824 4.48q-3.648 1.408-8.064 1.408h-5.632v15.04zm9.408-22.528h4.864q3.712 0 5.632-1.536 1.984-1.6 1.984-4.672 0-3.072-1.984-4.288-1.92-1.216-5.632-1.216h-4.864zm13.184 22.528-9.28-17.472 6.528-6.08 13.312 23.552zm12.48 8.96v-5.312h30.464v5.312zm53.824-8.192q-5.376 0-9.856-2.368-4.416-2.432-7.104-7.232-2.688-4.8-2.688-11.776 0-5.184 1.536-9.216 1.6-4.096 4.352-6.912 2.752-2.816 6.272-4.288 3.584-1.472 7.552-1.472 4.032 0 7.232 1.6t5.312 3.84l-4.992 5.696q-1.536-1.472-3.328-2.176-1.792-.768-4.032-.768-2.752 0-5.12 1.664-2.304 1.6-3.712 4.608-1.408 3.008-1.408 7.104 0 4.288 1.344 7.36 1.344 3.008 3.712 4.608 2.432 1.6 5.568 1.6 2.432 0 4.352-1.024 1.92-1.024 3.392-2.432l4.736 5.568q-2.688 3.008-5.952 4.544-3.264 1.472-7.168 1.472zM-99.13-163.507v-41.728h9.408v17.088h.256l12.416-17.088h10.368l-12.608 16.64 14.912 25.088h-10.304l-10.176-17.6-4.864 6.4v11.2zm36.736 0v-5.824q5.12-4.544 9.088-8.512 4.032-3.968 6.272-7.36 2.304-3.392 2.304-6.208 0-3.008-1.536-4.544-1.536-1.6-4.224-1.6-2.176 0-3.968 1.28-1.728 1.216-3.264 2.88l-4.928-4.864q2.944-3.328 6.016-4.992 3.136-1.664 7.424-1.664 3.968 0 6.976 1.6 3.072 1.6 4.736 4.48 1.728 2.88 1.728 6.784 0 3.648-1.984 7.168-1.92 3.456-5.12 6.912t-6.784 7.04q1.536-.192 3.456-.32 1.92-.192 3.328-.192h9.088v7.936zm48.32.768q-6.528 0-10.56-5.44-3.968-5.44-3.968-15.808 0-10.432 3.968-15.68 4.032-5.248 10.56-5.248 6.528 0 10.496 5.312 4.032 5.248 4.032 15.616 0 10.368-4.032 15.808-3.968 5.44-10.496 5.44zm0-7.296q1.6 0 2.88-1.152 1.28-1.216 1.984-4.224.768-3.072.768-8.576 0-5.568-.768-8.512-.704-2.944-1.984-4.032t-2.88-1.088q-1.6 0-2.88 1.088-1.28 1.088-2.048 4.032-.704 2.944-.704 8.512 0 5.504.704 8.576.768 3.008 2.048 4.224 1.28 1.152 2.88 1.152zm915.791 67.85v-33.792h-11.456v-7.936h32.384v7.936H911.19v33.792zm27.456 0v-41.728h15.04q4.416 0 8.064 1.216 3.648 1.152 5.824 4.032 2.176 2.816 2.176 7.744 0 4.8-2.176 7.808t-5.824 4.48q-3.648 1.408-8.064 1.408h-5.632v15.04zm9.408-22.528h4.864q3.712 0 5.632-1.536 1.984-1.6 1.984-4.672 0-3.072-1.984-4.288-1.92-1.216-5.632-1.216h-4.864zm13.184 22.528-9.28-17.472 6.528-6.08 13.312 23.552zm12.48 8.96v-5.312h30.464v5.312zm53.824-8.192q-5.376 0-9.856-2.368-4.416-2.432-7.104-7.232-2.688-4.8-2.688-11.776 0-5.184 1.536-9.216 1.6-4.096 4.352-6.912 2.752-2.816 6.272-4.288 3.584-1.472 7.552-1.472 4.032 0 7.232 1.6t5.312 3.84l-4.992 5.696q-1.536-1.472-3.328-2.176-1.792-.768-4.032-.768-2.752 0-5.12 1.664-2.304 1.6-3.712 4.608-1.408 3.008-1.408 7.104 0 4.288 1.344 7.36 1.344 3.008 3.712 4.608 2.432 1.6 5.568 1.6 2.432 0 4.352-1.024 1.92-1.024 3.392-2.432l4.736 5.568q-2.688 3.008-5.952 4.544-3.264 1.472-7.168 1.472zM885.686-22.185v-41.728h9.408v17.088h.256l12.416-17.088h10.368l-12.608 16.64 14.912 25.088h-10.304l-10.176-17.6-4.864 6.4v11.2zm36.736 0v-5.824q5.12-4.544 9.088-8.512 4.032-3.968 6.272-7.36 2.304-3.392 2.304-6.208 0-3.008-1.536-4.544-1.536-1.6-4.224-1.6-2.176 0-3.968 1.28-1.728 1.216-3.264 2.88l-4.928-4.864q2.944-3.328 6.016-4.992 3.136-1.664 7.424-1.664 3.968 0 6.976 1.6 3.072 1.6 4.736 4.48 1.728 2.88 1.728 6.784 0 3.648-1.984 7.168-1.92 3.456-5.12 6.912t-6.784 7.04q1.536-.192 3.456-.32 1.92-.192 3.328-.192h9.088v7.936zm46.976.768q-3.264 0-5.952-.768-2.624-.704-4.672-1.984-2.048-1.28-3.52-3.008l4.352-5.952q1.856 1.792 4.096 2.944t4.8 1.152q2.944 0 4.736-1.216 1.856-1.28 1.856-3.584 0-1.792-.896-3.072-.896-1.344-3.264-2.048-2.304-.704-6.784-.704v-6.656q3.648 0 5.76-.704 2.112-.704 2.944-1.92.896-1.216.896-2.816 0-2.176-1.344-3.328-1.28-1.152-3.648-1.152-2.176 0-3.968.96-1.728.896-3.648 2.624l-4.736-5.76q2.816-2.432 5.952-3.776 3.136-1.408 6.848-1.408 4.16 0 7.296 1.344 3.2 1.28 4.928 3.776 1.792 2.432 1.792 6.016 0 3.136-1.792 5.376-1.728 2.24-4.992 3.648v.256q2.304.704 4.16 2.048 1.856 1.28 2.88 3.264 1.024 1.984 1.024 4.608 0 3.776-2.112 6.464-2.048 2.624-5.504 4.032-3.392 1.344-7.488 1.344zm27.84 0q-2.432 0-4.096-1.728-1.6-1.728-1.6-4.16 0-2.56 1.6-4.224 1.664-1.728 4.096-1.728 2.496 0 4.095 1.728 1.6 1.664 1.6 4.224 0 2.432-1.6 4.16-1.6 1.728-4.095 1.728zm25.407 0q-3.328 0-6.016-.768-2.624-.768-4.672-2.048-2.048-1.28-3.648-2.88l4.224-5.952q1.856 1.664 4.032 2.88 2.176 1.152 4.736 1.152 2.048 0 3.584-.704 1.537-.768 2.369-2.176.896-1.408.896-3.456 0-3.072-1.793-4.672-1.791-1.6-4.607-1.6-1.728 0-2.944.448t-3.072 1.6l-4.224-2.688 1.152-20.544h23.04v7.936h-14.912l-.704 7.616q1.216-.512 2.24-.704 1.024-.256 2.304-.256 3.52 0 6.464 1.344 2.944 1.344 4.672 4.16 1.792 2.816 1.792 7.104 0 4.544-2.112 7.744-2.048 3.136-5.44 4.8-3.393 1.664-7.36 1.664zm186.95-142.867v-33.792h-11.456v-7.936h32.384v7.936h-11.456v33.792zm27.456 0v-41.728h15.04q4.416 0 8.064 1.216 3.648 1.152 5.824 4.032 2.176 2.816 2.176 7.744 0 4.8-2.176 7.808t-5.824 4.48q-3.648 1.408-8.064 1.408h-5.632v15.04zm9.408-22.528h4.864q3.712 0 5.632-1.536 1.984-1.6 1.984-4.672 0-3.072-1.984-4.288-1.92-1.216-5.632-1.216h-4.864zm13.184 22.528-9.28-17.472 6.528-6.08 13.312 23.552zm12.48 8.96v-5.312h30.464v5.312zm53.824-8.192q-5.376 0-9.856-2.368-4.416-2.432-7.104-7.232-2.688-4.8-2.688-11.776 0-5.184 1.536-9.216 1.6-4.096 4.352-6.912 2.752-2.816 6.272-4.288 3.584-1.472 7.552-1.472 4.032 0 7.232 1.6t5.312 3.84l-4.992 5.696q-1.536-1.472-3.328-2.176-1.792-.768-4.032-.768-2.752 0-5.12 1.664-2.304 1.6-3.712 4.608-1.408 3.008-1.408 7.104 0 4.288 1.344 7.36 1.344 3.008 3.712 4.608 2.432 1.6 5.568 1.6 2.432 0 4.352-1.024 1.92-1.024 3.392-2.432l4.736 5.568q-2.688 3.008-5.952 4.544-3.264 1.472-7.168 1.472zm-132.384 79.232v-41.728h9.408v17.088h.256l12.416-17.088h10.368l-12.608 16.64 14.912 25.088h-10.304l-10.176-17.6-4.864 6.4v11.2zm36.736 0v-5.824q5.12-4.544 9.088-8.512 4.032-3.968 6.272-7.36 2.304-3.392 2.304-6.208 0-3.008-1.536-4.544-1.536-1.6-4.224-1.6-2.176 0-3.968 1.28-1.728 1.216-3.264 2.88l-4.928-4.864q2.944-3.328 6.016-4.992 3.136-1.664 7.424-1.664 3.968 0 6.976 1.6 3.072 1.6 4.736 4.48 1.728 2.88 1.728 6.784 0 3.648-1.984 7.168-1.92 3.456-5.12 6.912t-6.784 7.04q1.536-.192 3.456-.32 1.92-.192 3.328-.192h9.088v7.936zm46.976.768q-3.264 0-5.952-.768-2.624-.704-4.672-1.984-2.048-1.28-3.52-3.008l4.352-5.952q1.856 1.792 4.096 2.944t4.8 1.152q2.944 0 4.736-1.216 1.856-1.28 1.856-3.584 0-1.792-.896-3.072-.896-1.344-3.264-2.048-2.304-.704-6.784-.704v-6.656q3.648 0 5.76-.704 2.112-.704 2.944-1.92.896-1.216.896-2.816 0-2.176-1.344-3.328-1.28-1.152-3.648-1.152-2.176 0-3.968.96-1.728.896-3.648 2.624l-4.736-5.76q2.816-2.432 5.952-3.776 3.136-1.408 6.848-1.408 4.16 0 7.296 1.344 3.2 1.28 4.928 3.776 1.792 2.432 1.792 6.016 0 3.136-1.792 5.376-1.728 2.24-4.992 3.648v.256q2.304.704 4.16 2.048 1.856 1.28 2.88 3.264 1.024 1.984 1.024 4.608 0 3.776-2.112 6.464-2.048 2.624-5.504 4.032-3.392 1.344-7.488 1.344zm27.84 0q-2.432 0-4.096-1.728-1.6-1.728-1.6-4.16 0-2.56 1.6-4.224 1.664-1.728 4.096-1.728 2.496 0 4.096 1.728 1.6 1.664 1.6 4.224 0 2.432-1.6 4.16-1.6 1.728-4.096 1.728zm14.08-.768V-91.9h8.832v-23.488h-7.616v-5.824q3.328-.64 5.632-1.536 2.368-.896 4.48-2.176h6.912V-91.9h7.616v7.616zm236.462-13.719v-50.688h-17.184v-11.904h48.576v11.904h-17.184v50.688zm41.184 0v-62.592h22.56q6.624 0 12.096 1.824 5.472 1.728 8.736 6.048 3.264 4.224 3.264 11.616 0 7.2-3.264 11.712t-8.736 6.72q-5.472 2.112-12.096 2.112h-8.448v22.56zm14.112-33.792h7.296q5.568 0 8.448-2.304 2.976-2.4 2.976-7.008 0-4.608-2.976-6.432-2.88-1.824-8.448-1.824h-7.296zm19.776 33.792-13.92-26.208 9.792-9.12 19.968 35.328zm18.72 13.44v-7.968h45.696v7.968zm80.736-12.288q-8.064 0-14.784-3.552-6.624-3.648-10.656-10.848-4.032-7.2-4.032-17.664 0-7.776 2.304-13.824 2.4-6.144 6.528-10.368t9.408-6.432q5.376-2.208 11.328-2.208 6.048 0 10.848 2.4 4.8 2.4 7.968 5.76l-7.488 8.544q-2.304-2.208-4.992-3.264-2.688-1.152-6.048-1.152-4.128 0-7.68 2.496-3.456 2.4-5.568 6.912-2.112 4.512-2.112 10.656 0 6.432 2.016 11.04 2.016 4.512 5.568 6.912 3.648 2.4 8.352 2.4 3.648 0 6.528-1.536 2.88-1.536 5.088-3.648l7.104 8.352q-4.032 4.512-8.928 6.816-4.896 2.208-10.752 2.208zM1571.353 21.997v-62.592h14.112v25.632h.384l18.624-25.632h15.552l-18.912 24.96 22.368 37.632h-15.456l-15.264-26.4-7.296 9.6v16.8zm55.104 0v-8.736q7.68-6.816 13.632-12.768 6.048-5.952 9.408-11.04 3.456-5.088 3.456-9.312 0-4.512-2.304-6.816-2.304-2.4-6.336-2.4-3.264 0-5.952 1.92-2.592 1.824-4.896 4.32l-7.392-7.296q4.416-4.992 9.024-7.488 4.704-2.496 11.136-2.496 5.952 0 10.464 2.4 4.608 2.4 7.104 6.72 2.592 4.32 2.592 10.176 0 5.472-2.976 10.752-2.88 5.184-7.68 10.368t-10.176 10.56q2.304-.288 5.184-.48 2.88-.288 4.992-.288h13.632v11.904zm70.464 1.152q-4.896 0-8.928-1.152-3.936-1.056-7.008-2.976t-5.28-4.512l6.528-8.928q2.784 2.688 6.144 4.416 3.36 1.728 7.2 1.728 4.416 0 7.104-1.824 2.784-1.92 2.784-5.376 0-2.688-1.344-4.608-1.344-2.016-4.896-3.072-3.456-1.056-10.176-1.056v-9.984q5.472 0 8.64-1.056t4.416-2.88q1.344-1.824 1.344-4.224 0-3.264-2.016-4.992-1.92-1.728-5.472-1.728-3.264 0-5.952 1.44-2.592 1.344-5.472 3.936l-7.104-8.64q4.224-3.648 8.928-5.664 4.704-2.112 10.272-2.112 6.24 0 10.944 2.016 4.8 1.92 7.392 5.664 2.688 3.648 2.688 9.024 0 4.704-2.688 8.064-2.592 3.36-7.488 5.472v.384q3.456 1.056 6.24 3.072 2.784 1.92 4.32 4.896 1.536 2.976 1.536 6.912 0 5.664-3.168 9.696-3.072 3.936-8.256 6.048-5.088 2.016-11.232 2.016zm-202.736 459.378V381.15h-34.368v-23.808h97.152v23.808h-34.368v101.376zm82.368 0V357.343h45.12q13.248 0 24.192 3.648 10.944 3.456 17.472 12.096 6.528 8.448 6.528 23.232 0 14.4-6.528 23.424t-17.472 13.44q-10.944 4.224-24.192 4.224h-16.896v45.12zm28.224-67.584h14.592q11.136 0 16.896-4.608 5.952-4.8 5.952-14.016 0-9.216-5.952-12.864-5.76-3.648-16.896-3.648h-14.592zm39.552 67.584-27.84-52.416 19.584-18.24 39.936 70.656zm37.44 26.88V493.47h91.393v15.936zm161.473-24.576q-16.128 0-29.568-7.104-13.248-7.296-21.312-21.696-8.064-14.4-8.064-35.328 0-15.552 4.608-27.648 4.8-12.288 13.056-20.736t18.816-12.864q10.752-4.416 22.656-4.416 12.096 0 21.696 4.8 9.6 4.8 15.936 11.52l-14.976 17.088q-4.608-4.416-9.984-6.528-5.376-2.304-12.096-2.304-8.256 0-15.36 4.992-6.912 4.8-11.136 13.824-4.224 9.024-4.224 21.312 0 12.864 4.032 22.08 4.032 9.024 11.136 13.824 7.296 4.8 16.704 4.8 7.296 0 13.056-3.072 5.76-3.072 10.176-7.296l14.208 16.704q-8.064 9.024-17.856 13.632-9.792 4.416-21.504 4.416zm-317.664 237.696V597.343h28.224v51.264h.768l37.248-51.264h31.104l-37.824 49.92 44.736 75.264h-30.912l-30.528-52.8-14.592 19.2v33.6zm110.208 0v-17.472q15.36-13.632 27.264-25.536 12.096-11.904 18.816-22.08 6.912-10.176 6.912-18.624 0-9.024-4.608-13.632-4.608-4.8-12.672-4.8-6.528 0-11.904 3.84-5.184 3.648-9.792 8.64l-14.784-14.592q8.832-9.984 18.048-14.976 9.408-4.992 22.272-4.992 11.904 0 20.928 4.8 9.216 4.8 14.208 13.44 5.184 8.64 5.184 20.352 0 10.944-5.952 21.504-5.76 10.368-15.36 20.736t-20.352 21.12q4.608-.576 10.368-.96 5.76-.576 9.984-.576h27.264v23.808zm101.376 0v-17.472q15.36-13.632 27.264-25.536 12.096-11.904 18.816-22.08 6.912-10.176 6.912-18.624 0-9.024-4.608-13.632-4.608-4.8-12.672-4.8-6.528 0-11.904 3.84-5.184 3.648-9.792 8.64l-14.784-14.592q8.832-9.984 18.048-14.976 9.408-4.992 22.272-4.992 11.904 0 20.928 4.8 9.216 4.8 14.208 13.44 5.184 8.64 5.184 20.352 0 10.944-5.952 21.504-5.76 10.368-15.36 20.736t-20.352 21.12q4.608-.576 10.368-.96 5.76-.576 9.984-.576h27.264v23.808zm752.724-79.185v-25.344h-8.592v-5.952h24.288v5.952h-8.592v25.344zm20.592 0v-31.296h11.28q3.312 0 6.048.912 2.736.864 4.368 3.024 1.632 2.112 1.632 5.808 0 3.6-1.632 5.856t-4.368 3.36q-2.736 1.056-6.048 1.056h-4.224v11.28zm7.056-16.896h3.648q2.784 0 4.224-1.152 1.488-1.2 1.488-3.504 0-2.304-1.488-3.216-1.44-.912-4.224-.912h-3.648zm9.888 16.896-6.96-13.104 4.896-4.56 9.984 17.664zm9.36 6.72v-3.984h22.848v3.984zm40.368-6.144q-4.032 0-7.392-1.776-3.312-1.824-5.328-5.424-2.016-3.6-2.016-8.832 0-3.888 1.152-6.912 1.2-3.072 3.264-5.184t4.704-3.216q2.688-1.104 5.664-1.104 3.024 0 5.424 1.2 2.4 1.2 3.984 2.88l-3.744 4.272q-1.152-1.104-2.496-1.632-1.344-.576-3.024-.576-2.064 0-3.84 1.248-1.728 1.2-2.784 3.456-1.056 2.256-1.056 5.328 0 3.216 1.008 5.52 1.008 2.256 2.784 3.456 1.824 1.2 4.176 1.2 1.824 0 3.264-.768 1.44-.768 2.544-1.824l3.552 4.176q-2.016 2.256-4.464 3.408-2.448 1.104-5.376 1.104zm-92.064 59.424v-31.296h7.056v12.816h.192l9.312-12.816h7.776l-9.456 12.48 11.184 18.816h-7.728l-7.632-13.2-3.648 4.8v8.4zm27.552 0v-4.368q3.84-3.408 6.816-6.384 3.024-2.976 4.704-5.52 1.728-2.544 1.728-4.656 0-2.256-1.152-3.408-1.152-1.2-3.168-1.2-1.632 0-2.976.96-1.296.912-2.448 2.16l-3.696-3.648q2.208-2.496 4.512-3.744 2.352-1.248 5.568-1.248 2.976 0 5.232 1.2 2.304 1.2 3.552 3.36 1.296 2.16 1.296 5.088 0 2.736-1.488 5.376-1.44 2.592-3.84 5.184t-5.088 5.28q1.152-.144 2.592-.24 1.44-.144 2.496-.144h6.816v5.952zm25.344 0v-4.368q3.84-3.408 6.816-6.384 3.024-2.976 4.704-5.52 1.728-2.544 1.728-4.656 0-2.256-1.152-3.408-1.152-1.2-3.168-1.2-1.632 0-2.976.96-1.296.912-2.448 2.16l-3.696-3.648q2.208-2.496 4.512-3.744 2.352-1.248 5.568-1.248 2.976 0 5.232 1.2 2.304 1.2 3.552 3.36 1.296 2.16 1.296 5.088 0 2.736-1.488 5.376-1.44 2.592-3.84 5.184t-5.088 5.28q1.152-.144 2.592-.24 1.44-.144 2.496-.144h6.816v5.952zm32.688.576q-2.16 0-3.792-.96-1.584-.96-2.448-2.592-.864-1.632-.864-3.648 0-3.84 3.168-5.904 3.168-2.112 10.224-2.832-.048-1.056-.48-1.776-.384-.768-1.2-1.152-.816-.432-2.064-.432-1.488 0-3.024.528t-3.312 1.536l-2.496-4.608q1.536-.96 3.168-1.632 1.632-.72 3.36-1.104 1.776-.384 3.648-.384 3.072 0 5.136 1.2 2.112 1.152 3.216 3.552 1.104 2.352 1.104 6.048v13.584h-5.76l-.48-2.448h-.192q-1.536 1.344-3.216 2.208-1.68.816-3.696.816zm2.352-5.52q1.2 0 2.112-.528.912-.528 1.824-1.44v-4.032q-2.496.336-3.984.864-1.44.528-2.064 1.296-.576.72-.576 1.632 0 1.104.72 1.68.768.528 1.968.528zM2339.934 23.752v-50.688h-17.184V-38.84h48.576v11.904h-17.184v50.688zm41.184 0V-38.84h22.56q6.624 0 12.096 1.824 5.472 1.728 8.736 6.048 3.264 4.224 3.264 11.616 0 7.2-3.264 11.712t-8.736 6.72q-5.472 2.112-12.096 2.112h-8.448v22.56zm14.112-33.792h7.296q5.568 0 8.448-2.304 2.976-2.4 2.976-7.008 0-4.608-2.976-6.432-2.88-1.824-8.448-1.824h-7.296zm19.776 33.792-13.92-26.208 9.792-9.12 19.968 35.328zm18.72 13.44v-7.968h45.696v7.968zm80.736-12.288q-8.064 0-14.784-3.552-6.624-3.648-10.656-10.848-4.032-7.2-4.032-17.664 0-7.776 2.304-13.824 2.4-6.144 6.528-10.368t9.408-6.432q5.376-2.208 11.328-2.208 6.048 0 10.848 2.4 4.8 2.4 7.968 5.76l-7.488 8.544q-2.304-2.208-4.992-3.264-2.688-1.152-6.048-1.152-4.128 0-7.68 2.496-3.456 2.4-5.568 6.912-2.112 4.512-2.112 10.656 0 6.432 2.016 11.04 2.016 4.512 5.568 6.912 3.648 2.4 8.352 2.4 3.648 0 6.528-1.536 2.88-1.536 5.088-3.648l7.104 8.352q-4.032 4.512-8.928 6.816-4.896 2.208-10.752 2.208zM2355.63 143.752V81.16h14.112v25.632h.384l18.624-25.632h15.552l-18.912 24.96 22.368 37.632h-15.456l-15.264-26.4-7.296 9.6v16.8zm55.104 0v-8.736q7.68-6.816 13.632-12.768 6.048-5.952 9.408-11.04 3.456-5.088 3.456-9.312 0-4.512-2.304-6.816-2.304-2.4-6.336-2.4-3.264 0-5.952 1.92-2.592 1.824-4.896 4.32l-7.392-7.296q4.416-4.992 9.024-7.488 4.704-2.496 11.136-2.496 5.952 0 10.464 2.4 4.608 2.4 7.104 6.72 2.592 4.32 2.592 10.176 0 5.472-2.976 10.752-2.88 5.184-7.68 10.368t-10.176 10.56q2.304-.288 5.184-.48 2.88-.288 4.992-.288h13.632v11.904zm53.856 0v-11.424h13.248V97.096h-11.424V88.36q4.992-.96 8.448-2.304 3.552-1.344 6.72-3.264h10.368v49.536h11.424v11.424zm-186.096 564.71V683.12h-8.592v-5.952h24.288v5.952h-8.592v25.344zm20.592 0v-31.295h11.28q3.312 0 6.048.912 2.736.864 4.368 3.024 1.632 2.112 1.632 5.808 0 3.6-1.632 5.856t-4.368 3.36q-2.736 1.056-6.048 1.056h-4.224v11.28zm7.056-16.895h3.648q2.784 0 4.224-1.152 1.488-1.2 1.488-3.504 0-2.304-1.488-3.216-1.44-.912-4.224-.912h-3.648zm9.888 16.896-6.96-13.104 4.896-4.56 9.984 17.664zm9.36 6.72v-3.984h22.848v3.984zm40.368-6.144q-4.032 0-7.392-1.776-3.312-1.824-5.328-5.424-2.016-3.6-2.016-8.832 0-3.888 1.152-6.912 1.2-3.072 3.264-5.184t4.704-3.216q2.688-1.104 5.664-1.104 3.024 0 5.424 1.2 2.4 1.2 3.984 2.88l-3.744 4.272q-1.152-1.104-2.496-1.632-1.344-.576-3.024-.576-2.064 0-3.84 1.248-1.728 1.2-2.784 3.456-1.056 2.256-1.056 5.328 0 3.216 1.008 5.52 1.008 2.256 2.784 3.456 1.824 1.2 4.176 1.2 1.824 0 3.264-.768 1.44-.768 2.544-1.824l3.552 4.176q-2.016 2.256-4.464 3.408-2.448 1.104-5.376 1.104zm-79.416 59.424v-31.296h7.056v12.816h.192l9.312-12.816h7.776l-9.456 12.48 11.184 18.816h-7.728l-7.632-13.2-3.648 4.8v8.4zm27.552 0v-4.368q3.84-3.408 6.816-6.384 3.024-2.976 4.704-5.52 1.728-2.544 1.728-4.656 0-2.256-1.152-3.408-1.152-1.2-3.168-1.2-1.632 0-2.976.96-1.296.912-2.448 2.16l-3.696-3.648q2.208-2.496 4.512-3.744 2.352-1.248 5.568-1.248 2.976 0 5.232 1.2 2.304 1.2 3.552 3.36 1.296 2.16 1.296 5.088 0 2.736-1.488 5.376-1.44 2.592-3.84 5.184t-5.088 5.28q1.152-.144 2.592-.24 1.44-.144 2.496-.144h6.816v5.952zm25.344 0v-4.368q3.84-3.408 6.816-6.384 3.024-2.976 4.704-5.52 1.728-2.544 1.728-4.656 0-2.256-1.152-3.408-1.152-1.2-3.168-1.2-1.632 0-2.976.96-1.296.912-2.448 2.16l-3.696-3.648q2.208-2.496 4.512-3.744 2.352-1.248 5.568-1.248 2.976 0 5.232 1.2 2.304 1.2 3.552 3.36 1.296 2.16 1.296 5.088 0 2.736-1.488 5.376-1.44 2.592-3.84 5.184t-5.088 5.28q1.152-.144 2.592-.24 1.44-.144 2.496-.144h6.816v5.952z"/>
  </g>
</svg>
