<svg width="2500" height="4300" viewBox="0 0 2500 4300" version="1.1" id="svg1" xml:space="preserve" xmlns="http://www.w3.org/2000/svg">
  <defs id="defs1">
    <linearGradient id="swatch446">
      <stop style="stop-color:#4c5a5f;stop-opacity:1" offset="0" id="stop446"/>
    </linearGradient>
    <marker style="overflow:visible" id="Triangle" refX="0" refY="0" orient="auto-start-reverse" markerWidth="1" markerHeight="1" viewBox="0 0 1 1" preserveAspectRatio="xMidYMid">
      <path transform="scale(0.5)" style="fill:context-stroke;fill-rule:evenodd;stroke:context-stroke;stroke-width:1pt" d="M 5.77,0 -2.88,5 V -5 Z" id="path597"/>
    </marker>
  </defs>
  <g id="floor_0" transform="matrix(40.994169,0,0,40.994169,1.00188,-7610.757)" style="display:inline">
    <path style="font-variation-settings:'wdth' 70,'wght' 600;display:inline;fill:#4c5a5f;fill-opacity:1;stroke:none;stroke-width:.487874" d="m 37.653253,279.71539 h 20.91948 v 9.49074 H 2.5079005 v -9.49074 h 5.8909927 v -1.95214 h 8.0072018 l 1e-6,1.95214 h 6.830589 l -1e-6,-76.43947 h -7.248806 v -2.39058 l 1.170898,-11.29077 h 26.77285 l 1.170898,11.29077 -0.0098,2.39058 h -7.439503 z" id="path455"/>
    <g id="rooms_0" style="display:inline;opacity:1" transform="matrix(0.02439371,0,0,0.02439371,-0.02443957,255.98706)">
      <rect style="font-variation-settings:'wdth' 70,'wght' 600;display:inline;opacity:1;fill:#454c7f;fill-opacity:1;stroke-width:359.596;stroke-dasharray:none" id="TR_B062" width="292.5788" height="565.59515" x="2082.0659" y="407.31351"/>
      <rect style="font-variation-settings:'wdth' 70,'wght' 600;display:inline;opacity:1;fill:#454c7f;fill-opacity:1;stroke-width:344.16;stroke-dasharray:none" id="TR_B063" width="267.99997" height="565.59515" x="1814.066" y="407.31351"/>
      <rect style="font-variation-settings:'wdth' 70,'wght' 600;display:inline;opacity:1;fill:#454c7f;fill-opacity:1;stroke-width:250.205;stroke-dasharray:none" id="TR_B064" width="251.99788" height="317.90961" x="1562.0681" y="654.81354"/>
      <rect style="font-variation-settings:'wdth' 70,'wght' 600;display:inline;opacity:1;fill:#454c7f;fill-opacity:1;stroke-width:212.818;stroke-dasharray:none" id="TR_B064-1" width="251.99789" height="230.00003" x="1562.0681" y="424.81351"/>
      <rect style="font-variation-settings:'wdth' 70,'wght' 600;display:inline;opacity:1;fill:#454c7f;fill-opacity:1;stroke-width:263.746;stroke-dasharray:none" id="TR_B065" width="280.01437" height="317.90961" x="673.55621" y="654.81354"/>
      <rect style="font-variation-settings:'wdth' 70,'wght' 600;display:inline;opacity:1;fill:#454c7f;fill-opacity:1;stroke-width:224.335;stroke-dasharray:none" id="TR_B065-1" width="280.01434" height="230.00003" x="673.55621" y="424.81351"/>
      <rect style="font-variation-settings:'wdth' 70,'wght' 600;display:inline;fill:#454c7f;fill-opacity:1;stroke-width:814.023;stroke-dasharray:none" id="TR_B066" width="857.57678" height="988.81726" x="1544.5659" y="-581.50372"/>
      <rect style="font-variation-settings:'wdth' 70,'wght' 600;display:inline;opacity:1;fill:#454c7f;fill-opacity:1;stroke-width:810.307;stroke-dasharray:none" id="TR_B067" width="849.7594" height="988.8172" x="103.81119" y="-581.50366"/>
      <rect style="font-variation-settings:'wdth' 70,'wght' 600;display:inline;opacity:1;fill:#454c7f;fill-opacity:1;stroke-width:639.713;stroke-dasharray:none" id="TR_B068" width="857.57678" height="610.67999" x="1544.5659" y="-1192.1837"/>
      <rect style="font-variation-settings:'wdth' 70,'wght' 600;display:inline;opacity:1;fill:#454c7f;fill-opacity:1;stroke-width:636.791;stroke-dasharray:none" id="TR_B069" width="849.75934" height="610.68005" x="103.81119" y="-1192.1837"/>
      <rect style="font-variation-settings:'wdth' 70,'wght' 600;display:inline;fill:#454c7f;fill-opacity:1;stroke-width:805.685;stroke-dasharray:none" id="TR_B070" width="857.5766" height="968.66589" x="1544.5659" y="-2160.8496"/>
      <rect style="font-variation-settings:'wdth' 70,'wght' 600;display:inline;opacity:1;fill:#454c7f;fill-opacity:1;stroke-width:802.006;stroke-dasharray:none" id="TR_B071" width="849.75934" height="968.66595" x="103.81119" y="-2160.8496"/>
      <path style="font-variation-settings:'wght' 700;fill:#454c7f;fill-opacity:1;stroke:#bec3c6;stroke-width:0" d="m 2402.1427,-2721.7055 h -600.2001 l 48,462.8559 144.0113,-1e-4 v 98 h 408.1888 z" id="TR_B072"/>
      <rect style="font-variation-settings:'wdth' 70,'wght' 600;display:inline;fill:#454c7f;fill-opacity:1;stroke-width:105.161;stroke-dasharray:none" id="TR_B072-1" width="144.41167" height="97.999908" x="1849.5422" y="-2258.8496"/>
      <path style="font-variation-settings:'wght' 700;display:inline;opacity:1;fill:#454c7f;fill-opacity:1;stroke:#bec3c6;stroke-width:0" d="m 103.81119,-2721.7055 h 600.60045 l -47.99991,462.8559 -144.41173,-1e-4 v 98 H 103.81118 Z" id="TR_B073"/>
      <rect style="font-variation-settings:'wdth' 70,'wght' 600;display:inline;opacity:1;fill:#454c7f;fill-opacity:1;stroke-width:105.161;stroke-dasharray:none" id="TR_B073-1" width="144.41167" height="97.999908" x="512.00006" y="-2258.8496"/>
    </g>
    <g id="staires_0" transform="matrix(0.02439371,0,0,0.02439371,-68.59792,259.07228)" style="display:inline">
      <rect style="font-variation-settings:'wdth' 70,'wght' 600;display:inline;fill:#4c5a5f;fill-opacity:1;stroke-width:8.84371;stroke-dasharray:none" id="rect147" width="328.24835" height="29.06435" x="3156.4209" y="737.15656"/>
      <rect style="font-variation-settings:'wdth' 70,'wght' 600;display:inline;fill:#4f5e63;fill-opacity:1;stroke-width:8.84371;stroke-dasharray:none" id="rect89" width="328.24835" height="29.06435" x="3156.4209" y="708.09222"/>
      <rect style="font-variation-settings:'wdth' 70,'wght' 600;display:inline;fill:#516166;fill-opacity:1;stroke-width:8.84371;stroke-dasharray:none" id="rect90" width="328.24835" height="29.06435" x="3156.4209" y="679.02783"/>
      <rect style="font-variation-settings:'wdth' 70,'wght' 600;display:inline;fill:#546469;fill-opacity:1;stroke-width:8.84371;stroke-dasharray:none" id="rect91" width="328.24835" height="29.06435" x="3156.4209" y="649.9635"/>
      <rect style="font-variation-settings:'wdth' 70,'wght' 600;display:inline;fill:#56676c;fill-opacity:1;stroke-width:8.84371;stroke-dasharray:none" id="rect92" width="328.24835" height="29.06435" x="3156.4209" y="620.89911"/>
      <rect style="font-variation-settings:'wdth' 70,'wght' 600;display:inline;fill:#586a6f;fill-opacity:1;stroke-width:8.67369;stroke-dasharray:none" id="rect93" width="315.74847" height="29.06435" x="3168.9209" y="591.83478"/>
      <rect style="font-variation-settings:'wdth' 70,'wght' 600;display:inline;fill:#000;fill-opacity:1;stroke-width:1.64042;stroke-dasharray:none" id="rect27" width="328.24835" height="1.0000001" x="3156.4209" y="766.22095"/>
      <rect style="font-variation-settings:'wdth' 70,'wght' 600;display:inline;fill:#000;fill-opacity:1;stroke-width:1.64042;stroke-dasharray:none" id="rect28" width="328.24835" height="1.0000001" x="3156.4209" y="737.15656"/>
      <rect style="font-variation-settings:'wdth' 70,'wght' 600;display:inline;fill:#000;fill-opacity:1;stroke-width:1.64042;stroke-dasharray:none" id="rect29" width="328.24835" height="1.0000001" x="3156.4209" y="708.09222"/>
      <rect style="font-variation-settings:'wdth' 70,'wght' 600;display:inline;fill:#000;fill-opacity:1;stroke-width:1.64042;stroke-dasharray:none" id="rect30" width="328.24835" height="1.0000001" x="3156.4209" y="679.02783"/>
      <rect style="font-variation-settings:'wdth' 70,'wght' 600;display:inline;fill:#000;fill-opacity:1;stroke-width:1.64042;stroke-dasharray:none" id="rect31" width="328.24835" height="1.0000001" x="3156.4209" y="649.9635"/>
      <rect style="font-variation-settings:'wdth' 70,'wght' 600;display:inline;fill:#000;fill-opacity:1;stroke-width:1.64042;stroke-dasharray:none" id="rect32" width="328.24835" height="1.0000001" x="3156.4209" y="620.89911"/>
      <path style="font-variation-settings:'wght' 700;fill:#586a6f;fill-opacity:1;stroke:#bec3c6;stroke-width:0" d="m 2914.9244,280.8371 h 569.7449 l -2e-4,311.9972 H 3170.6132 V 462.9889 h -255.6888 z" id="path111"/>
      <rect style="font-variation-settings:'wdth' 70,'wght' 600;display:inline;fill:#000;fill-opacity:1;stroke-width:1.60888;stroke-dasharray:none" id="rect33" width="315.74847" height="1.0000001" x="3168.9209" y="591.83478"/>
      <rect style="font-variation-settings:'wdth' 70,'wght' 600;display:inline;fill:#5a6d72;fill-opacity:1;stroke-width:7.77942;stroke-dasharray:none" id="rect112" width="253.99646" height="29.06435" x="2914.9243" y="462.98889"/>
      <rect style="font-variation-settings:'wdth' 70,'wght' 600;display:inline;fill:#5c7075;fill-opacity:1;stroke-width:7.77942;stroke-dasharray:none" id="rect113" width="253.99646" height="29.06435" x="2914.9243" y="492.05325"/>
      <rect style="font-variation-settings:'wdth' 70,'wght' 600;display:inline;fill:#5e7378;fill-opacity:1;stroke-width:7.77942;stroke-dasharray:none" id="rect114" width="253.99646" height="29.06435" x="2914.9243" y="521.11761"/>
      <rect style="font-variation-settings:'wdth' 70,'wght' 600;display:inline;fill:#60767b;fill-opacity:1;stroke-width:7.77942;stroke-dasharray:none" id="rect115" width="253.99646" height="29.06435" x="2914.9243" y="550.18195"/>
      <rect style="font-variation-settings:'wdth' 70,'wght' 600;display:inline;fill:#62797e;fill-opacity:1;stroke-width:7.77942;stroke-dasharray:none" id="rect116" width="253.99646" height="29.06435" x="2914.9243" y="579.24628"/>
      <rect style="font-variation-settings:'wdth' 70,'wght' 600;display:inline;fill:#647c81;fill-opacity:1;stroke-width:7.77942;stroke-dasharray:none" id="rect117" width="253.99646" height="29.06435" x="2914.9243" y="608.31061"/>
      <rect style="font-variation-settings:'wdth' 70,'wght' 600;display:inline;fill:#667f84;fill-opacity:1;stroke-width:7.77942;stroke-dasharray:none" id="rect118" width="253.99646" height="29.06435" x="2914.9243" y="637.37494"/>
      <rect style="font-variation-settings:'wdth' 70,'wght' 600;display:inline;fill:#688287;fill-opacity:1;stroke-width:7.77942;stroke-dasharray:none" id="rect119" width="253.99646" height="29.06435" x="2914.9243" y="666.43927"/>
      <rect style="font-variation-settings:'wdth' 70,'wght' 600;display:inline;fill:#6b858a;fill-opacity:1;stroke-width:7.77942;stroke-dasharray:none" id="rect120" width="253.99646" height="29.06435" x="2914.9243" y="695.5036"/>
      <rect style="font-variation-settings:'wdth' 70,'wght' 600;display:inline;fill:#6d888d;fill-opacity:1;stroke-width:7.77942;stroke-dasharray:none" id="rect121" width="253.99646" height="29.06435" x="2914.9243" y="724.56793"/>
      <rect style="font-variation-settings:'wdth' 70,'wght' 600;display:inline;fill:#6f8b90;fill-opacity:1;stroke-width:7.77942;stroke-dasharray:none" id="rect122" width="253.99646" height="29.06435" x="2914.9243" y="753.63226"/>
      <rect style="font-variation-settings:'wdth' 70,'wght' 600;display:inline;fill:#728d92;fill-opacity:1;stroke-width:11.5034;stroke-dasharray:none" id="rect123" width="253.99646" height="63.550499" x="2914.9243" y="782.69659"/>
      <rect style="font-variation-settings:'wdth' 70,'wght' 600;display:inline;fill:#000;fill-opacity:1;stroke-width:1.42873;stroke-dasharray:none" id="rect124" width="248.99646" height="1" x="2914.9243" y="461.98889"/>
      <rect style="font-variation-settings:'wdth' 70,'wght' 600;display:inline;fill:#000;fill-opacity:1;stroke-width:1.42873;stroke-dasharray:none" id="rect125" width="248.99646" height="1" x="2914.9243" y="491.05325"/>
      <rect style="font-variation-settings:'wdth' 70,'wght' 600;display:inline;fill:#000;fill-opacity:1;stroke-width:1.42873;stroke-dasharray:none" id="rect126" width="248.99646" height="1" x="2914.9243" y="520.11761"/>
      <rect style="font-variation-settings:'wdth' 70,'wght' 600;display:inline;fill:#000;fill-opacity:1;stroke-width:1.42873;stroke-dasharray:none" id="rect127" width="248.99646" height="1" x="2914.9243" y="549.18195"/>
      <rect style="font-variation-settings:'wdth' 70,'wght' 600;display:inline;fill:#000;fill-opacity:1;stroke-width:1.42873;stroke-dasharray:none" id="rect128" width="248.99646" height="1" x="2914.9243" y="578.24628"/>
      <rect style="font-variation-settings:'wdth' 70,'wght' 600;display:inline;fill:#000;fill-opacity:1;stroke-width:1.42873;stroke-dasharray:none" id="rect129" width="248.99646" height="1" x="2914.9243" y="607.31061"/>
      <rect style="font-variation-settings:'wdth' 70,'wght' 600;display:inline;fill:#000;fill-opacity:1;stroke-width:1.42873;stroke-dasharray:none" id="rect130" width="248.99646" height="1" x="2914.9243" y="636.37494"/>
      <rect style="font-variation-settings:'wdth' 70,'wght' 600;display:inline;fill:#000;fill-opacity:1;stroke-width:1.42873;stroke-dasharray:none" id="rect131" width="248.99646" height="1" x="2914.9243" y="665.43927"/>
      <rect style="font-variation-settings:'wdth' 70,'wght' 600;display:inline;fill:#000;fill-opacity:1;stroke-width:1.42873;stroke-dasharray:none" id="rect132" width="248.99646" height="1" x="2914.9243" y="694.5036"/>
      <rect style="font-variation-settings:'wdth' 70,'wght' 600;display:inline;fill:#000;fill-opacity:1;stroke-width:1.42873;stroke-dasharray:none" id="rect133" width="248.99646" height="1" x="2914.9243" y="723.56793"/>
      <rect style="font-variation-settings:'wdth' 70,'wght' 600;display:inline;fill:#000;fill-opacity:1;stroke-width:1.42873;stroke-dasharray:none" id="rect134" width="248.99646" height="1" x="2914.9243" y="752.63226"/>
      <rect style="font-variation-settings:'wdth' 70,'wght' 600;display:inline;fill:#000;fill-opacity:1;stroke-width:1.42873;stroke-dasharray:none" id="rect135" width="248.99646" height="1" x="2914.9243" y="781.69659"/>
      <path style="font-variation-settings:'wdth' 70,'wght' 600;display:inline;opacity:1;fill:none;fill-opacity:1;stroke:#bec3c6;stroke-width:5;stroke-dasharray:none;stroke-opacity:1;marker-end:url(#Triangle)" d="M 3039.4226,477.5211 V 782.69664" id="path161" transform="translate(4.5528486e-5,-2.9535324e-5)"/>
      <path style="font-variation-settings:'wdth' 70,'wght' 600;display:inline;opacity:1;fill:none;fill-opacity:1;stroke:#bec3c6;stroke-width:5;stroke-dasharray:none;stroke-opacity:1;marker-end:url(#Triangle)" d="M 3320.545,751.68876 V 620.89914" id="path141" transform="translate(4.5528486e-5,-2.9535324e-5)"/>
    </g>
    <g id="g524" transform="matrix(0.02439371,0,0,0.02439371,-5.4914132,228.05514)" style="display:inline">
      <rect style="font-variation-settings:'wdth' 70,'wght' 600;display:inline;fill:#728d92;fill-opacity:1;stroke-width:5.94608;stroke-dasharray:none" id="rect451" width="148.3868" height="29.06435" x="1398.9889" y="105.93293"/>
      <rect style="font-variation-settings:'wdth' 70,'wght' 600;display:inline;fill:#758f94;fill-opacity:1;stroke-width:5.94608;stroke-dasharray:none" id="rect452" width="148.3868" height="29.06435" x="1398.9889" y="76.868599"/>
      <rect style="font-variation-settings:'wdth' 70,'wght' 600;display:inline;fill:#789196;fill-opacity:1;stroke-width:5.94608;stroke-dasharray:none" id="rect453" width="148.3868" height="29.06435" x="1398.9889" y="47.804203"/>
      <rect style="font-variation-settings:'wdth' 70,'wght' 600;display:inline;fill:#7b9398;fill-opacity:1;stroke-width:5.94608;stroke-dasharray:none" id="rect454" width="148.3868" height="29.06435" x="1398.9889" y="18.739864"/>
      <rect style="font-variation-settings:'wdth' 70,'wght' 600;display:inline;fill:#7e969a;fill-opacity:1;stroke-width:5.94608;stroke-dasharray:none" id="rect455" width="148.3868" height="29.06435" x="1398.9889" y="-10.324534"/>
      <rect style="font-variation-settings:'wdth' 70,'wght' 600;display:inline;fill:#81999c;fill-opacity:1;stroke-width:5.94608;stroke-dasharray:none" id="rect456" width="148.38684" height="29.06435" x="1398.9889" y="-39.388859" transform="translate(4.8690483e-6,4.9521346e-5)"/>
      <rect style="font-variation-settings:'wdth' 70,'wght' 600;display:inline;fill:#6f8b90;fill-opacity:1;stroke-width:5.94608;stroke-dasharray:none" id="rect458" width="148.3868" height="29.06435" x="1398.9889" y="134.99728"/>
      <rect style="font-variation-settings:'wdth' 70,'wght' 600;display:inline;fill:#6d888d;fill-opacity:1;stroke-width:5.94608;stroke-dasharray:none" id="rect459" width="148.3868" height="29.06435" x="1398.9889" y="164.06163"/>
      <rect style="font-variation-settings:'wdth' 70,'wght' 600;display:inline;fill:#6b858a;fill-opacity:1;stroke-width:5.94608;stroke-dasharray:none" id="rect481" width="148.3868" height="29.06435" x="1398.9889" y="193.12598"/>
      <rect style="font-variation-settings:'wdth' 70,'wght' 600;display:inline;fill:#688287;fill-opacity:1;stroke-width:5.94608;stroke-dasharray:none" id="rect482" width="148.3868" height="29.06435" x="1398.9889" y="222.19032"/>
      <rect style="font-variation-settings:'wdth' 70,'wght' 600;display:inline;fill:#667f84;fill-opacity:1;stroke-width:5.94608;stroke-dasharray:none" id="rect483" width="148.3868" height="29.06435" x="1398.9889" y="251.25467"/>
      <rect style="font-variation-settings:'wdth' 70,'wght' 600;display:inline;fill:#647c81;fill-opacity:1;stroke-width:5.94608;stroke-dasharray:none" id="rect484" width="148.3868" height="29.06435" x="1398.9889" y="280.31903"/>
      <rect style="font-variation-settings:'wdth' 70,'wght' 600;display:inline;fill:#647c81;fill-opacity:1;stroke-width:13.0209;stroke-dasharray:none" id="rect485" width="148.3868" height="139.37302" x="1398.9889" y="309.38339"/>
      <rect style="font-variation-settings:'wdth' 70,'wght' 600;display:inline;fill:#647c81;fill-opacity:1;stroke-width:5.94608;stroke-dasharray:none" id="rect486" width="148.3868" height="29.06435" x="1398.9889" y="448.75641"/>
      <rect style="font-variation-settings:'wdth' 70,'wght' 600;display:inline;fill:#62797e;fill-opacity:1;stroke-width:5.94608;stroke-dasharray:none" id="rect487" width="148.3868" height="29.06435" x="1398.9889" y="477.82077"/>
      <rect style="font-variation-settings:'wdth' 70,'wght' 600;display:inline;fill:#60767b;fill-opacity:1;stroke-width:5.94608;stroke-dasharray:none" id="rect488" width="148.3868" height="29.06435" x="1398.9889" y="506.88513"/>
      <rect style="font-variation-settings:'wdth' 70,'wght' 600;display:inline;fill:#5e7378;fill-opacity:1;stroke-width:5.94608;stroke-dasharray:none" id="rect489" width="148.3868" height="29.06435" x="1398.9889" y="535.94946"/>
      <rect style="font-variation-settings:'wdth' 70,'wght' 600;display:inline;fill:#5c7075;fill-opacity:1;stroke-width:5.94608;stroke-dasharray:none" id="rect490" width="148.3868" height="29.06435" x="1398.9889" y="565.01379"/>
      <rect style="font-variation-settings:'wdth' 70,'wght' 600;display:inline;fill:#5a6d72;fill-opacity:1;stroke-width:5.94608;stroke-dasharray:none" id="rect491" width="148.3868" height="29.06435" x="1398.9889" y="594.07812"/>
      <rect style="font-variation-settings:'wdth' 70,'wght' 600;display:inline;fill:#586a6f;fill-opacity:1;stroke-width:5.94608;stroke-dasharray:none" id="rect492" width="148.3868" height="29.06435" x="1398.9889" y="623.14246"/>
      <rect style="font-variation-settings:'wdth' 70,'wght' 600;display:inline;fill:#56676c;fill-opacity:1;stroke-width:5.94608;stroke-dasharray:none" id="rect493" width="148.3868" height="29.06435" x="1398.9889" y="652.20679"/>
      <rect style="font-variation-settings:'wdth' 70,'wght' 600;display:inline;fill:#546469;fill-opacity:1;stroke-width:5.94608;stroke-dasharray:none" id="rect494" width="148.3868" height="29.06435" x="1398.9889" y="681.27112"/>
      <rect style="font-variation-settings:'wdth' 70,'wght' 600;display:inline;fill:#516166;fill-opacity:1;stroke-width:5.94608;stroke-dasharray:none" id="rect495" width="148.3868" height="29.06435" x="1398.9889" y="710.33545"/>
      <rect style="font-variation-settings:'wdth' 70,'wght' 600;display:inline;fill:#4f5e63;fill-opacity:1;stroke-width:5.94608;stroke-dasharray:none" id="rect496" width="148.3868" height="29.06435" x="1398.9889" y="739.39978"/>
      <rect style="font-variation-settings:'wdth' 70,'wght' 600;display:inline;fill:#4c5a5f;fill-opacity:1;stroke-width:5.94608;stroke-dasharray:none" id="rect497" width="148.3868" height="29.06435" x="1398.9889" y="768.46411"/>
      <rect style="font-variation-settings:'wdth' 70,'wght' 600;display:inline;fill:#000;fill-opacity:1;stroke-width:1.10294;stroke-dasharray:none" id="rect499" width="148.38684" height="1.0000001" x="1398.9889" y="-10.324534"/>
      <rect style="font-variation-settings:'wdth' 70,'wght' 600;display:inline;fill:#000;fill-opacity:1;stroke-width:1.10294;stroke-dasharray:none" id="rect500" width="148.38684" height="1.0000001" x="1398.9889" y="18.739864"/>
      <rect style="font-variation-settings:'wdth' 70,'wght' 600;display:inline;fill:#000;fill-opacity:1;stroke-width:1.10294;stroke-dasharray:none" id="rect501" width="148.38684" height="1.0000001" x="1398.9889" y="47.804214"/>
      <rect style="font-variation-settings:'wdth' 70,'wght' 600;display:inline;fill:#000;fill-opacity:1;stroke-width:1.10294;stroke-dasharray:none" id="rect502" width="148.38684" height="1.0000001" x="1398.9889" y="76.868599"/>
      <rect style="font-variation-settings:'wdth' 70,'wght' 600;display:inline;fill:#000;fill-opacity:1;stroke-width:1.10294;stroke-dasharray:none" id="rect503" width="148.38684" height="1.0000001" x="1398.9889" y="105.93295"/>
      <rect style="font-variation-settings:'wdth' 70,'wght' 600;display:inline;fill:#000;fill-opacity:1;stroke-width:1.10294;stroke-dasharray:none" id="rect504" width="148.38684" height="1.0000001" x="1398.9889" y="134.99728"/>
      <rect style="font-variation-settings:'wdth' 70,'wght' 600;display:inline;fill:#000;fill-opacity:1;stroke-width:1.10294;stroke-dasharray:none" id="rect505" width="148.38684" height="1.0000001" x="1398.9889" y="164.06163"/>
      <rect style="font-variation-settings:'wdth' 70,'wght' 600;display:inline;fill:#000;fill-opacity:1;stroke-width:1.10294;stroke-dasharray:none" id="rect506" width="148.38684" height="1.0000001" x="1398.9889" y="193.12598"/>
      <rect style="font-variation-settings:'wdth' 70,'wght' 600;display:inline;fill:#000;fill-opacity:1;stroke-width:1.10294;stroke-dasharray:none" id="rect507" width="148.38684" height="1.0000001" x="1398.9889" y="222.19032"/>
      <rect style="font-variation-settings:'wdth' 70,'wght' 600;display:inline;fill:#000;fill-opacity:1;stroke-width:1.10294;stroke-dasharray:none" id="rect508" width="148.38684" height="1.0000001" x="1398.9889" y="251.25467"/>
      <rect style="font-variation-settings:'wdth' 70,'wght' 600;display:inline;fill:#000;fill-opacity:1;stroke-width:1.10294;stroke-dasharray:none" id="rect509" width="148.38684" height="1.0000001" x="1398.9889" y="280.31903"/>
      <rect style="font-variation-settings:'wdth' 70,'wght' 600;display:inline;fill:#000;fill-opacity:1;stroke-width:1.10294;stroke-dasharray:none" id="rect510" width="148.38684" height="1.0000001" x="1398.9889" y="309.38339"/>
      <rect style="font-variation-settings:'wdth' 70,'wght' 600;display:inline;fill:#000;fill-opacity:1;stroke-width:1.10294;stroke-dasharray:none" id="rect511" width="148.38684" height="1.0000001" x="1398.9889" y="448.75641"/>
      <rect style="font-variation-settings:'wdth' 70,'wght' 600;display:inline;fill:#000;fill-opacity:1;stroke-width:1.10294;stroke-dasharray:none" id="rect512" width="148.38684" height="1.0000001" x="1398.9889" y="477.82077"/>
      <rect style="font-variation-settings:'wdth' 70,'wght' 600;display:inline;fill:#000;fill-opacity:1;stroke-width:1.10294;stroke-dasharray:none" id="rect513" width="148.38684" height="1.0000001" x="1398.9889" y="506.38513"/>
      <rect style="font-variation-settings:'wdth' 70,'wght' 600;display:inline;fill:#000;fill-opacity:1;stroke-width:1.10294;stroke-dasharray:none" id="rect514" width="148.38684" height="1.0000001" x="1398.9889" y="535.94946"/>
      <rect style="font-variation-settings:'wdth' 70,'wght' 600;display:inline;fill:#000;fill-opacity:1;stroke-width:1.10294;stroke-dasharray:none" id="rect515" width="148.38684" height="1.0000001" x="1398.9889" y="565.01379"/>
      <rect style="font-variation-settings:'wdth' 70,'wght' 600;display:inline;fill:#000;fill-opacity:1;stroke-width:1.10294;stroke-dasharray:none" id="rect516" width="148.38684" height="1.0000001" x="1398.9889" y="594.07812"/>
      <rect style="font-variation-settings:'wdth' 70,'wght' 600;display:inline;fill:#000;fill-opacity:1;stroke-width:1.10294;stroke-dasharray:none" id="rect517" width="148.38684" height="1.0000001" x="1398.9889" y="623.14246"/>
      <rect style="font-variation-settings:'wdth' 70,'wght' 600;display:inline;fill:#000;fill-opacity:1;stroke-width:1.10294;stroke-dasharray:none" id="rect518" width="148.38684" height="1.0000001" x="1398.9889" y="652.20679"/>
      <rect style="font-variation-settings:'wdth' 70,'wght' 600;display:inline;fill:#000;fill-opacity:1;stroke-width:1.10294;stroke-dasharray:none" id="rect519" width="148.38684" height="1.0000001" x="1398.9889" y="681.27112"/>
      <rect style="font-variation-settings:'wdth' 70,'wght' 600;display:inline;fill:#000;fill-opacity:1;stroke-width:1.10294;stroke-dasharray:none" id="rect520" width="148.38684" height="1.0000001" x="1398.9889" y="710.33545"/>
      <rect style="font-variation-settings:'wdth' 70,'wght' 600;display:inline;fill:#000;fill-opacity:1;stroke-width:1.10294;stroke-dasharray:none" id="rect521" width="148.38684" height="1.0000001" x="1398.9889" y="739.39978"/>
      <rect style="font-variation-settings:'wdth' 70,'wght' 600;display:inline;fill:#000;fill-opacity:1;stroke-width:1.10294;stroke-dasharray:none" id="rect522" width="148.38684" height="1.0000001" x="1398.9889" y="768.46411"/>
      <rect style="font-variation-settings:'wdth' 70,'wght' 600;display:inline;fill:#000;fill-opacity:1;stroke-width:1.064;stroke-dasharray:none" id="rect523" width="138.09387" height="1.0000001" x="1404.1373" y="797.52844"/>
      <path style="font-variation-settings:'wght' 700;display:inline;fill:none;fill-opacity:1;stroke:#bec3c6;stroke-width:10.2899;stroke-dasharray:none" d="M 1398.9889,797.52846 V -39.388859 m 148.3868,0 V 797.52844" id="path523" transform="translate(4.8690483e-6,4.9521346e-5)"/>
      <path style="font-variation-settings:'wdth' 70,'wght' 600;display:inline;opacity:1;fill:none;fill-opacity:1;stroke:#bec3c6;stroke-width:5;stroke-dasharray:none;stroke-opacity:1;marker-end:url(#Triangle)" d="M 1473.1823,782.99628 V -10.324459" id="path524" transform="translate(4.8690483e-6,4.9521346e-5)"/>
    </g>
    <g id="walls_0" transform="matrix(0.02439371,0,0,0.02439371,-0.02443957,244.19953)" style="display:inline">
      <path style="font-variation-settings:'wdth' 70,'wght' 600;fill:none;stroke:#bec3c6;stroke-width:55;stroke-linecap:butt;stroke-dasharray:none;stroke-opacity:1" d="M 103.81119,1499.0674 V -2238.4854 H 1149.0682" id="path6"/>
      <path style="font-variation-settings:'wdth' 70,'wght' 600;fill:none;stroke:#bec3c6;stroke-width:10;stroke-linecap:butt;stroke-dasharray:none;stroke-opacity:1" d="M 2425.4533,581.52975 V -6.095757" id="path32"/>
      <path style="font-variation-settings:'wdth' 70,'wght' 600;fill:none;stroke:#bec3c6;stroke-width:35;stroke-linecap:butt;stroke-dasharray:none;stroke-opacity:1" d="m 1544.5659,-878.81602 v 420.43076" id="path46"/>
      <path style="font-variation-settings:'wdth' 70,'wght' 600;fill:none;stroke:#bec3c6;stroke-width:35;stroke-linecap:butt;stroke-dasharray:none;stroke-opacity:1" d="m 1544.5659,-978.81593 v -698.81357 h 857.5768" id="path47"/>
      <path style="font-variation-settings:'wdth' 70,'wght' 600;fill:none;stroke:#bec3c6;stroke-width:10;stroke-linecap:butt;stroke-dasharray:none;stroke-opacity:1" d="M 2082.066,890.53357 V 1456.1287" id="path48"/>
      <path style="font-variation-settings:'wdth' 70,'wght' 600;fill:none;stroke:#bec3c6;stroke-width:35;stroke-linecap:butt;stroke-dasharray:none;stroke-opacity:1" d="M 953.57055,163.45952 V 1455.9432 h -95.49636" id="path49"/>
      <path style="font-variation-settings:'wdth' 70,'wght' 600;fill:none;stroke:#bec3c6;stroke-width:35;stroke-linecap:butt;stroke-dasharray:none;stroke-opacity:1" d="m 103.81119,-98.283582 h 857.5768" id="path51"/>
      <path style="font-variation-settings:'wdth' 70,'wght' 600;fill:none;stroke:#bec3c6;stroke-width:35;stroke-linecap:butt;stroke-dasharray:none;stroke-opacity:1" d="M 103.81119,-708.96361 H 953.57055" id="path53"/>
      <path style="font-variation-settings:'wdth' 70,'wght' 600;fill:none;stroke:#bec3c6;stroke-width:35;stroke-linecap:butt;stroke-dasharray:none;stroke-opacity:1" d="m 1544.5659,-98.283582 h 857.5768" id="path55"/>
      <path style="font-variation-settings:'wdth' 70,'wght' 600;fill:none;stroke:#bec3c6;stroke-width:35;stroke-linecap:butt;stroke-dasharray:none;stroke-opacity:1" d="M 1544.5659,-358.38535 V 63.459606" id="path58"/>
      <path style="font-variation-settings:'wdth' 70,'wght' 600;fill:none;stroke:#bec3c6;stroke-width:35;stroke-linecap:butt;stroke-dasharray:none;stroke-opacity:1" d="M 1544.5659,163.45952 V 1455.9432 h 84.449" id="path59"/>
      <path style="font-variation-settings:'wdth' 70,'wght' 600;fill:none;stroke:#bec3c6;stroke-width:35;stroke-linecap:butt;stroke-dasharray:none;stroke-opacity:1" d="m 1544.5659,-708.96361 h 857.5768" id="path4"/>
      <path style="font-variation-settings:'wdth' 70,'wght' 600;fill:none;stroke:#bec3c6;stroke-width:55;stroke-linecap:butt;stroke-dasharray:none;stroke-opacity:1" d="M 1349.0683,-2238.4854 H 2402.1427 V 1499.0674" id="path5"/>
      <path style="font-variation-settings:'wdth' 70,'wght' 600;fill:none;stroke:#bec3c6;stroke-width:35;stroke-linecap:butt;stroke-dasharray:none;stroke-opacity:1" d="M 953.57055,-358.38535 V 63.459606" id="path7"/>
      <path style="font-variation-settings:'wdth' 70,'wght' 600;fill:none;stroke:#bec3c6;stroke-width:35;stroke-linecap:butt;stroke-dasharray:none;stroke-opacity:1" d="m 953.57055,-878.81602 v 420.43076" id="path9"/>
      <path style="font-variation-settings:'wdth' 70,'wght' 600;fill:none;stroke:#bec3c6;stroke-width:35;stroke-linecap:butt;stroke-dasharray:none;stroke-opacity:1" d="M 953.57055,-978.81593 V -1677.6295 H 103.81119" id="path10"/>
      <path style="font-variation-settings:'wdth' 70,'wght' 600;fill:none;stroke:#bec3c6;stroke-width:35;stroke-linecap:butt;stroke-dasharray:none;stroke-opacity:1" d="m 103.81119,890.53357 h 857.5768" id="path11"/>
      <path style="font-variation-settings:'wdth' 70,'wght' 600;fill:none;stroke:#bec3c6;stroke-width:35;stroke-linecap:butt;stroke-dasharray:none;stroke-opacity:1" d="m 1544.5659,890.53357 h 857.5768" id="path12"/>
      <path style="font-variation-settings:'wdth' 70,'wght' 600;fill:none;stroke:#bec3c6;stroke-width:10;stroke-linecap:butt;stroke-dasharray:none;stroke-opacity:1" d="M 1814.066,890.53357 V 1456.1287" id="path15"/>
      <path style="font-variation-settings:'wdth' 70,'wght' 600;fill:none;stroke:#bec3c6;stroke-width:10;stroke-linecap:butt;stroke-dasharray:none;stroke-opacity:1" d="m 1544.5659,1138.0336 h 56.949" id="path17"/>
      <path style="font-variation-settings:'wdth' 70,'wght' 600;fill:none;stroke:#bec3c6;stroke-width:10;stroke-linecap:butt;stroke-dasharray:none;stroke-opacity:1" d="M 1701.5149,1138.0336 H 1814.066" id="path18"/>
      <path style="font-variation-settings:'wdth' 70,'wght' 600;fill:none;stroke:#bec3c6;stroke-width:35;stroke-linecap:butt;stroke-dasharray:none;stroke-opacity:1" d="m 1729.0149,1455.9432 h 169.051" id="path19"/>
      <path style="font-variation-settings:'wdth' 70,'wght' 600;fill:none;stroke:#bec3c6;stroke-width:35;stroke-linecap:butt;stroke-dasharray:none;stroke-opacity:1" d="M 1998.0659,1455.9432 H 2189.066" id="path20"/>
      <path style="font-variation-settings:'wdth' 70,'wght' 600;fill:none;stroke:#bec3c6;stroke-width:35;stroke-linecap:butt;stroke-dasharray:none;stroke-opacity:1" d="m 2289.066,1455.9432 h 113.0767" id="path21"/>
      <path style="font-variation-settings:'wdth' 70,'wght' 600;fill:none;stroke:#bec3c6;stroke-width:35;stroke-linecap:butt;stroke-dasharray:none;stroke-opacity:1" d="m 673.55623,890.53357 v 565.40963 h 84.51795" id="path22"/>
      <path style="font-variation-settings:'wdth' 70,'wght' 600;fill:none;stroke:#bec3c6;stroke-width:10;stroke-linecap:butt;stroke-dasharray:none;stroke-opacity:1" d="m 673.55623,1138.0336 h 89.51795" id="path23"/>
      <path style="font-variation-settings:'wdth' 70,'wght' 600;fill:none;stroke:#bec3c6;stroke-width:10;stroke-linecap:butt;stroke-dasharray:none;stroke-opacity:1" d="m 863.07419,1138.0336 h 90.49636" id="path24"/>
      <path style="font-variation-settings:'wdth' 70,'wght' 600;fill:none;stroke:#bec3c6;stroke-width:55;stroke-linecap:butt;stroke-dasharray:none;stroke-opacity:1" d="m 103.81119,1699.0674 v 145.9412 H 1149.0682" id="path25"/>
      <path style="font-variation-settings:'wdth' 70,'wght' 600;fill:none;stroke:#bec3c6;stroke-width:55;stroke-linecap:butt;stroke-dasharray:none;stroke-opacity:1" d="m 2402.1427,1699.0674 v 145.9412 h -402.5683" id="path26"/>
      <path style="font-variation-settings:'wdth' 70,'wght' 600;fill:none;stroke:#bec3c6;stroke-width:55;stroke-linecap:butt;stroke-dasharray:none;stroke-opacity:1" d="m 1349.0683,1845.0086 h 550.506" id="path27"/>
      <path style="font-variation-settings:'wdth' 70,'wght' 600;fill:none;stroke:#bec3c6;stroke-width:10;stroke-linecap:butt;stroke-dasharray:none;stroke-opacity:1" d="m 661.05623,1450.6305 v 66.2622" id="path28"/>
      <path style="font-variation-settings:'wdth' 70,'wght' 600;fill:none;stroke:#bec3c6;stroke-width:10;stroke-linecap:butt;stroke-dasharray:none;stroke-opacity:1" d="m 661.05623,1716.8927 v 128.1159" id="path29"/>
      <path style="font-variation-settings:'wdth' 70,'wght' 600;fill:none;stroke:#bec3c6;stroke-width:10;stroke-linecap:butt;stroke-dasharray:none;stroke-opacity:1" d="M 953.57055,1468.4432 H 1149.0682" id="path30"/>
      <path style="font-variation-settings:'wdth' 70,'wght' 600;fill:none;stroke:#bec3c6;stroke-width:10;stroke-linecap:butt;stroke-dasharray:none;stroke-opacity:1" d="m 1349.0683,1468.4432 h 186.9339" id="path31"/>
      <path style="font-variation-settings:'wdth' 70,'wght' 600;fill:none;stroke:#bec3c6;stroke-width:35;stroke-linecap:butt;stroke-dasharray:none;stroke-opacity:1" d="m 345.30757,1229.4231 v 226.5201 H 103.81119" id="path33"/>
      <path style="font-variation-settings:'wdth' 70,'wght' 600;fill:none;stroke:#bec3c6;stroke-width:35;stroke-linecap:butt;stroke-dasharray:none;stroke-opacity:1" d="m 669.78673,-1908.2714 34.625,-330.214 m -43.875,420.6419 -4.125,42.214 H 512.00007 v 98" id="path34"/>
      <path style="font-variation-settings:'wdth' 70,'wght' 600;fill:none;stroke:#bec3c6;stroke-width:35;stroke-linecap:butt;stroke-dasharray:none;stroke-opacity:1" d="m 1836.5676,-1908.2714 -34.625,-330.214 m 43.875,420.6419 4.125,42.214 h 144.4117 v 98" id="path36"/>
      <path style="font-variation-settings:'wdth' 70,'wght' 600;fill:none;stroke:#bec3c6;stroke-width:10;stroke-linecap:butt;stroke-dasharray:none;stroke-opacity:1" d="m 357.80757,1072.685 v 158.9102" id="path112"/>
    </g>
    <path id="roomNames_0" d="m 374.9087,155.26188 q -9.792,0 -15.84,-8.16 -5.952,-8.16 -5.952,-23.712 0,-15.648 5.952,-23.52 6.048,-7.872 15.84,-7.872 9.792,0 15.744,7.968 6.048,7.872 6.048,23.424 0,15.552 -6.048,23.712 -5.952,8.16 -15.744,8.16 z m 0,-10.944 q 2.4,0 4.32,-1.728 1.92,-1.824 2.976,-6.336 1.152,-4.608 1.152,-12.864 0,-8.352 -1.152,-12.768 -1.056,-4.416 -2.976,-6.048 -1.92,-1.632 -4.32,-1.632 -2.4,0 -4.32,1.632 -1.92,1.632 -3.072,6.048 -1.056,4.416 -1.056,12.768 0,8.256 1.056,12.864 1.152,4.512 3.072,6.336 1.92,1.728 4.32,1.728 z m 39.74399,9.792 q 0.48,-7.584 1.536,-13.92 1.056,-6.432 2.976,-12.192 2.016,-5.76 5.088,-11.328 3.072,-5.568 7.584,-11.616 h -27.36 v -11.904 h 42.432 v 8.64 q -5.376,6.528 -8.832,12.192 -3.36,5.664 -5.184,11.52 -1.824,5.856 -2.688,12.768 -0.864,6.912 -1.344,15.84 z m 39.83998,0 v -8.736 q 7.68,-6.816 13.632,-12.768 6.048,-5.952 9.408,-11.04 3.456,-5.088 3.456,-9.312 0,-4.512 -2.304,-6.816 -2.304,-2.4 -6.336,-2.4 -3.264,0 -5.952,1.92 -2.592,1.824 -4.896,4.32 l -7.392,-7.296 q 4.416,-4.992 9.024,-7.488 4.704,-2.496 11.136,-2.496 5.952,0 10.464,2.4 4.608,2.4 7.104,6.72 2.592,4.32 2.592,10.176 0,5.472 -2.976,10.752 -2.88,5.184 -7.68,10.368 -4.8,5.184 -10.176,10.56 2.304,-0.288 5.184,-0.48 2.88,-0.288 4.992,-0.288 h 13.632 v 11.904 z m -118.464,-120 v -50.688 h -17.184 v -11.904 h 48.576 v 11.904 h -17.184 v 50.688 z m 41.18398,0 v -62.592 h 22.56 q 6.624,0 12.096,1.824 5.472,1.728 8.736,6.048 3.264,4.224 3.264,11.6159997 0,7.2 -3.264,11.712 -3.264,4.512 -8.736,6.72 -5.472,2.1120003 -12.096,2.1120003 h -8.448 v 22.56 z m 14.112,-33.79200026 h 7.296 q 5.568,0 8.448,-2.30400004 2.976,-2.4 2.976,-7.008 0,-4.6079997 -2.976,-6.4319997 -2.88,-1.824 -8.448,-1.824 h -7.296 z m 19.776,33.79200026 -13.92,-26.2080003 9.792,-9.12 19.968,35.3280003 z m 18.72008,13.44 v -7.968 h 45.696 v 7.968 z m 54.24,-13.44 v -62.592 h 21.408 q 6.528,0 11.712,1.44 5.28,1.344 8.256,4.8 3.072,3.36 3.072,9.312 0,4.7039997 -2.112,8.4479997 -2.112,3.64800004 -6.048,5.08800004 v 0.384 q 5.28,1.15199996 8.256,4.60799996 2.976,3.36 2.976,9.4080003 0,6.624 -3.264,10.848 -3.264,4.224 -8.832,6.24 -5.472,2.016 -12.192,2.016 z m 14.112,-37.5360003 h 6.624 q 5.184,0 7.488,-2.016 2.4,-2.016 2.4,-5.3759997 0,-3.648 -2.4,-5.184 -2.4,-1.536 -7.392,-1.536 h -6.72 z m 0,26.5920003 h 7.968 q 5.76,0 8.64,-2.016 2.976,-2.112 2.976,-6.432 0,-4.032 -2.976,-5.8560003 -2.88,-1.824 -8.64,-1.824 h -7.968 z m -1821.19523,132.096 q -9.792,0 -15.84,-8.16 -5.952,-8.16 -5.952,-23.712 0,-15.648 5.952,-23.52 6.048,-7.872 15.84,-7.872 9.792,0 15.744,7.968 6.048,7.872 6.048,23.424 0,15.552 -6.048,23.712 -5.952,8.16 -15.744,8.16 z m 0,-10.944 q 2.4,0 4.32,-1.728 1.92,-1.824 2.976,-6.336 1.152,-4.608 1.152,-12.864 0,-8.352 -1.152,-12.768 -1.056,-4.416 -2.976,-6.048 -1.92,-1.632 -4.32,-1.632 -2.4,0 -4.32,1.632 -1.92,1.632 -3.072,6.048 -1.056,4.416 -1.056,12.768 0,8.256 1.056,12.864 1.152,4.512 3.072,6.336 1.92,1.728 4.32,1.728 z m 39.744,9.792 q 0.48,-7.584 1.536,-13.92 1.056,-6.432 2.976,-12.192 2.016,-5.76 5.088,-11.328 3.072,-5.568 7.584,-11.616 h -27.36 v -11.904 h 42.432 v 8.64 q -5.376,6.528 -8.832,12.192 -3.36,5.664 -5.184,11.52 -1.824,5.856 -2.688,12.768 -0.864,6.912 -1.344,15.84 z m 59.616,1.152 q -4.896,0 -8.928,-1.152 -3.936,-1.056 -7.008,-2.976 -3.072,-1.92 -5.28,-4.512 l 6.528,-8.928 q 2.784,2.688 6.144,4.416 3.36,1.728 7.2,1.728 4.416,0 7.104,-1.824 2.784,-1.92 2.784,-5.376 0,-2.688 -1.344,-4.608 -1.344,-2.016 -4.896,-3.072 -3.456,-1.056 -10.176,-1.056 v -9.984 q 5.472,0 8.64,-1.056 3.168,-1.056 4.416,-2.88 1.344,-1.824 1.344,-4.224 0,-3.264 -2.016,-4.992 -1.92,-1.728 -5.472,-1.728 -3.264,0 -5.952,1.44 -2.592,1.344 -5.472,3.936 l -7.104,-8.64 q 4.224,-3.648 8.928,-5.664 4.704,-2.112 10.272,-2.112 6.24,0 10.944,2.016 4.8,1.92 7.392,5.664 2.688,3.648 2.688,9.024 0,4.704 -2.688,8.064 -2.592,3.36 -7.488,5.472 v 0.384 q 3.456,1.056 6.24,3.072 2.784,1.92 4.32,4.896 1.536,2.976 1.536,6.912 0,5.664 -3.168,9.696 -3.072,3.936 -8.256,6.048 -5.088,2.016 -11.232,2.016 z m -138.24,-121.152 v -50.688 h -17.184 v -11.904 h 48.576 v 11.904 h -17.184 v 50.688 z m 41.184,0 v -62.592 h 22.56 q 6.624,0 12.096,1.824 5.472,1.728 8.736,6.048 3.264,4.224 3.264,11.6159997 0,7.2 -3.264,11.712 -3.264,4.512 -8.736,6.72 -5.472,2.1120003 -12.096,2.1120003 h -8.448 v 22.56 z m 14.112,-33.79200026 h 7.296 q 5.568,0 8.448,-2.30400004 2.976,-2.4 2.976,-7.008 0,-4.6079997 -2.976,-6.4319997 -2.88,-1.824 -8.448,-1.824 h -7.296 z m 19.776,33.79200026 -13.92,-26.2080003 9.792,-9.12 19.968,35.3280003 z m 18.72,13.44 v -7.968 h 45.696 v 7.968 z m 54.24,-13.44 v -62.592 h 21.408 q 6.528,0 11.712,1.44 5.28,1.344 8.256,4.8 3.072,3.36 3.072,9.312 0,4.7039997 -2.112,8.4479997 -2.112,3.64800004 -6.048,5.08800004 v 0.384 q 5.28,1.15199996 8.256,4.60799996 2.976,3.36 2.976,9.4080003 0,6.624 -3.264,10.848 -3.264,4.224 -8.832,6.24 -5.472,2.016 -12.192,2.016 z m 14.112,-37.5360003 h 6.624 q 5.184,0 7.488,-2.016 2.4,-2.016 2.4,-5.3759997 0,-3.648 -2.4,-5.184 -2.4,-1.536 -7.392,-1.536 h -6.72 z m 0,26.5920003 h 7.968 q 5.76,0 8.64,-2.016 2.976,-2.112 2.976,-6.432 0,-4.032 -2.976,-5.8560003 -2.88,-1.824 -8.64,-1.824 h -7.968 z M -901.06653,3090.417 q -4.896,0 -7.92,-4.08 -2.976,-4.08 -2.976,-11.856 0,-7.824 2.976,-11.76 3.024,-3.936 7.92,-3.936 4.896,0 7.872,3.984 3.024,3.936 3.024,11.712 0,7.776 -3.024,11.856 -2.976,4.08 -7.872,4.08 z m 0,-5.472 q 1.2,0 2.16,-0.864 0.96,-0.912 1.488,-3.168 0.576,-2.304 0.576,-6.432 0,-4.176 -0.576,-6.384 -0.528,-2.208 -1.488,-3.024 -0.96,-0.816 -2.16,-0.816 -1.2,0 -2.16,0.816 -0.96,0.816 -1.536,3.024 -0.528,2.208 -0.528,6.384 0,4.128 0.528,6.432 0.576,2.256 1.536,3.168 0.96,0.864 2.16,0.864 z m 26.15999,5.472 q -2.208,0 -4.272,-0.864 -2.064,-0.864 -3.696,-2.688 -1.632,-1.824 -2.592,-4.656 -0.96,-2.88 -0.96,-6.912 0,-4.272 1.008,-7.392 1.008,-3.12 2.736,-5.136 1.728,-2.016 3.936,-2.976 2.208,-1.008 4.656,-1.008 3.024,0 5.232,1.104 2.208,1.056 3.648,2.544 l -3.696,4.224 q -0.816,-0.864 -2.112,-1.488 -1.296,-0.672 -2.64,-0.672 -1.728,0 -3.216,1.008 -1.44,1.008 -2.304,3.408 -0.816,2.352 -0.816,6.384 0,3.792 0.672,5.952 0.72,2.112 1.872,3.024 1.152,0.864 2.4,0.864 1.056,0 1.92,-0.528 0.864,-0.528 1.392,-1.584 0.528,-1.104 0.528,-2.832 0,-1.632 -0.528,-2.592 -0.528,-0.96 -1.44,-1.392 -0.864,-0.432 -2.016,-0.432 -1.2,0 -2.496,0.72 -1.248,0.72 -2.256,2.544 l -0.336,-4.608 q 1.2,-1.776 3.072,-2.688 1.872,-0.96 3.36,-0.96 2.592,0 4.656,1.008 2.064,1.008 3.216,3.12 1.2,2.064 1.2,5.28 0,3.168 -1.392,5.472 -1.344,2.304 -3.648,3.552 -2.304,1.2 -5.088,1.2 z m 23.712,0 q -2.496,0 -4.512,-0.576 -1.968,-0.576 -3.504,-1.536 -1.536,-0.96 -2.736,-2.16 l 3.168,-4.464 q 1.392,1.248 3.024,2.16 1.632,0.864 3.552,0.864 1.536,0 2.688,-0.528 1.152,-0.576 1.776,-1.632 0.672,-1.056 0.672,-2.592 0,-2.304 -1.344,-3.504 -1.344,-1.2 -3.456,-1.2 -1.296,0 -2.208,0.336 -0.912,0.336 -2.304,1.2 l -3.168,-2.016 0.864,-15.408 h 17.28 v 5.952 h -11.184 l -0.528,5.712 q 0.912,-0.384 1.68,-0.528 0.768,-0.192 1.728,-0.192 2.64,0 4.848,1.008 2.208,1.008 3.504,3.12 1.344,2.112 1.344,5.328 0,3.408 -1.584,5.808 -1.536,2.352 -4.08,3.6 -2.544,1.248 -5.52,1.248 z m 22.60799,0 q -2.16,0 -3.792,-0.96 -1.584,-0.96 -2.448,-2.592 -0.864,-1.632 -0.864,-3.648 0,-3.84 3.168,-5.904 3.168,-2.112 10.224,-2.832 -0.048,-1.056 -0.48,-1.776 -0.384,-0.768 -1.2,-1.152 -0.816,-0.432 -2.064,-0.432 -1.488,0 -3.024,0.528 -1.536,0.528 -3.312,1.536 l -2.496,-4.608 q 1.536,-0.96 3.168,-1.632 1.632,-0.72 3.36,-1.104 1.776,-0.384 3.648,-0.384 3.072,0 5.136,1.2 2.112,1.152 3.216,3.552 1.104,2.352 1.104,6.048 v 13.584 h -5.76 l -0.48,-2.448 h -0.192 q -1.536,1.344 -3.216,2.208 -1.68,0.816 -3.696,0.816 z m 2.352,-5.52 q 1.2,0 2.112,-0.528 0.912,-0.528 1.824,-1.44 v -4.032 q -2.496,0.336 -3.984,0.864 -1.44,0.528 -2.064,1.296 -0.576,0.72 -0.576,1.632 0,1.104 0.72,1.68 0.768,0.528 1.968,0.528 z m -81.62398,-55.056 v -25.344 h -8.592 v -5.952 h 24.288 v 5.952 h -8.592 v 25.344 z m 20.59198,0 v -31.296 h 11.28 q 3.312,0 6.048,0.912 2.736,0.864 4.368,3.024 1.632,2.112 1.632,5.808 0,3.6 -1.632,5.856 -1.632,2.256 -4.368,3.36 -2.736,1.056 -6.048,1.056 h -4.224 v 11.28 z m 7.056,-16.896 h 3.648 q 2.784,0 4.224,-1.152 1.488,-1.2 1.488,-3.504 0,-2.304 -1.488,-3.216 -1.44,-0.912 -4.224,-0.912 h -3.648 z m 9.888,16.896 -6.96,-13.104 4.896,-4.56 9.984,17.664 z m 9.36005,6.72 v -3.984 h 22.848 v 3.984 z m 27.12,-6.72 v -31.296 h 10.704 q 3.264,0 5.856,0.72 2.64,0.672 4.128,2.4 1.536,1.68 1.536,4.656 0,2.352 -1.056,4.224 -1.056,1.824 -3.024,2.544 v 0.192 q 2.64,0.576 4.128,2.304 1.488,1.68 1.488,4.704 0,3.312 -1.632,5.424 -1.632,2.112 -4.416,3.12 -2.736,1.008 -6.096,1.008 z m 7.056,-18.768 h 3.312 q 2.592,0 3.744,-1.008 1.2,-1.008 1.2,-2.688 0,-1.824 -1.2,-2.592 -1.2,-0.768 -3.696,-0.768 h -3.36 z m 0,13.296 h 3.984 q 2.88,0 4.32,-1.008 1.488,-1.056 1.488,-3.216 0,-2.016 -1.488,-2.928 -1.44,-0.912 -4.32,-0.912 h -3.984 z m 800.22368,66.048 q -4.896,0 -7.92,-4.08 -2.976,-4.08 -2.976,-11.856 0,-7.824 2.976,-11.76 3.024,-3.936 7.92,-3.936 4.896,0 7.872,3.984 3.024,3.936 3.024,11.712 0,7.776 -3.024,11.856 -2.976,4.08 -7.872,4.08 z m 0,-5.472 q 1.2,0 2.16,-0.864 0.96,-0.912 1.488,-3.168 0.576,-2.304 0.576,-6.432 0,-4.176 -0.576,-6.384 -0.528,-2.208 -1.488,-3.024 -0.96,-0.816 -2.16,-0.816 -1.2,0 -2.16,0.816 -0.96,0.816 -1.536,3.024 -0.528,2.208 -0.528,6.384 0,4.128 0.528,6.432 0.576,2.256 1.536,3.168 0.96,0.864 2.16,0.864 z m 26.15999,5.472 q -2.208,0 -4.272,-0.864 -2.064,-0.864 -3.696,-2.688 -1.632,-1.824 -2.592,-4.656 -0.96,-2.88 -0.96,-6.912 0,-4.272 1.008,-7.392 1.008,-3.12 2.736,-5.136 1.728,-2.016 3.936,-2.976 2.208,-1.008 4.656,-1.008 3.024,0 5.232,1.104 2.208,1.056 3.648,2.544 l -3.696,4.224 q -0.816,-0.864 -2.112,-1.488 -1.296,-0.672 -2.64,-0.672 -1.728,0 -3.216,1.008 -1.44,1.008 -2.304,3.408 -0.816,2.352 -0.816,6.384 0,3.792 0.672,5.952 0.72,2.112 1.872,3.024 1.152,0.864 2.4,0.864 1.056,0 1.92,-0.528 0.864,-0.528 1.392,-1.584 0.528,-1.104 0.528,-2.832 0,-1.632 -0.528,-2.592 -0.528,-0.96 -1.44,-1.392 -0.864,-0.432 -2.016,-0.432 -1.2,0 -2.496,0.72 -1.248,0.72 -2.256,2.544 l -0.336,-4.608 q 1.2,-1.776 3.072,-2.688 1.872,-0.96 3.36,-0.96 2.592,0 4.656,1.008 2.064,1.008 3.216,3.12 1.2,2.064 1.2,5.28 0,3.168 -1.392,5.472 -1.344,2.304 -3.648,3.552 -2.304,1.2 -5.088,1.2 z m 25.968,-0.576 v -17.616 q 0,-1.44 0.096,-3.408 0.144,-1.968 0.192,-3.408 h -0.192 q -0.576,1.248 -1.2,2.544 -0.624,1.248 -1.296,2.592 l -4.032,6.624 h 16.512 v 5.376 h -23.28 v -4.848 l 11.136,-18.336 h 8.64 v 30.48 z m 20.35199,0.576 q -2.16,0 -3.792,-0.96 -1.584,-0.96 -2.448,-2.592 -0.864,-1.632 -0.864,-3.648 0,-3.84 3.168,-5.904 3.168,-2.112 10.224,-2.832 -0.048,-1.056 -0.48,-1.776 -0.384,-0.768 -1.2,-1.152 -0.816,-0.432 -2.064,-0.432 -1.488,0 -3.024,0.528 -1.536,0.528 -3.312,1.536 l -2.496,-4.608 q 1.536,-0.96 3.168,-1.632 1.632,-0.72 3.36,-1.104 1.776,-0.384 3.648,-0.384 3.072,0 5.136,1.2 2.112,1.152 3.216,3.552 1.104,2.352 1.104,6.048 v 13.584 h -5.76 l -0.48,-2.448 h -0.192 q -1.536,1.344 -3.216,2.208 -1.68,0.816 -3.696,0.816 z m 2.352,-5.52 q 1.2,0 2.112,-0.528 0.912,-0.528 1.824,-1.44 v -4.032 q -2.496,0.336 -3.984,0.864 -1.44,0.528 -2.064,1.296 -0.576,0.72 -0.576,1.632 0,1.104 0.72,1.68 0.768,0.528 1.968,0.528 z m -81.62398,-55.056 v -25.344 h -8.592 v -5.952 h 24.288 v 5.952 h -8.592 v 25.344 z m 20.59198,0 v -31.296 h 11.28 q 3.312,0 6.048,0.912 2.736,0.864 4.368,3.024 1.632,2.112 1.632,5.808 0,3.6 -1.632,5.856 -1.632,2.256 -4.368,3.36 -2.736,1.056 -6.048,1.056 h -4.224 v 11.28 z m 7.056,-16.896 h 3.648 q 2.784,0 4.224,-1.152 1.488,-1.2 1.488,-3.504 0,-2.304 -1.488,-3.216 -1.44,-0.912 -4.224,-0.912 h -3.648 z m 9.888,16.896 -6.96,-13.104 4.896,-4.56 9.984,17.664 z m 9.36005,6.72 v -3.984 h 22.848 v 3.984 z m 27.12,-6.72 v -31.296 h 10.704 q 3.264,0 5.856,0.72 2.64,0.672 4.128,2.4 1.536,1.68 1.536,4.656 0,2.352 -1.056,4.224 -1.056,1.824 -3.024,2.544 v 0.192 q 2.64,0.576 4.128,2.304 1.488,1.68 1.488,4.704 0,3.312 -1.632,5.424 -1.632,2.112 -4.416,3.12 -2.736,1.008 -6.096,1.008 z m 7.056,-18.768 h 3.312 q 2.592,0 3.744,-1.008 1.2,-1.008 1.2,-2.688 0,-1.824 -1.2,-2.592 -1.2,-0.768 -3.696,-0.768 h -3.36 z m 0,13.296 h 3.984 q 2.88,0 4.32,-1.008 1.488,-1.056 1.488,-3.216 0,-2.016 -1.488,-2.928 -1.44,-0.912 -4.32,-0.912 h -3.984 z m 470.27218,231.6575 q -6.528,0 -10.56,-5.44 -3.968,-5.44 -3.968,-15.808 0,-10.432 3.968,-15.68 4.032,-5.248 10.56,-5.248 6.528,0 10.496,5.312 4.032,5.248 4.032,15.616 0,10.368 -4.032,15.808 -3.968,5.44 -10.496,5.44 z m 0,-7.296 q 1.6,0 2.88,-1.152 1.28,-1.216 1.984,-4.224 0.768,-3.072 0.768,-8.576 0,-5.568 -0.768,-8.512 -0.704,-2.944 -1.984,-4.032 -1.28,-1.088 -2.88,-1.088 -1.6,0 -2.88,1.088 -1.28,1.088 -2.048,4.032 -0.704,2.944 -0.704,8.512 0,5.504 0.704,8.576 0.768,3.008 2.048,4.224 1.28,1.152 2.88,1.152 z m 34.87999,7.296 q -2.944,0 -5.696,-1.152 -2.752,-1.152 -4.928,-3.584 -2.176,-2.432 -3.456,-6.208 -1.28,-3.84 -1.28,-9.216 0,-5.696 1.344,-9.856 1.344,-4.16 3.648,-6.848 2.304,-2.688 5.248,-3.968 2.944,-1.344 6.208,-1.344 4.032,0 6.976,1.472 2.944,1.408 4.864,3.392 l -4.928,5.632 q -1.088,-1.152 -2.816,-1.984 -1.728,-0.896 -3.52,-0.896 -2.304,0 -4.288,1.344 -1.92,1.344 -3.072,4.544 -1.088,3.136 -1.088,8.512 0,5.056 0.896,7.936 0.96,2.816 2.496,4.032 1.536,1.152 3.2,1.152 1.408,0 2.56,-0.704 1.152,-0.704 1.856,-2.112 0.704,-1.472 0.704,-3.776 0,-2.176 -0.704,-3.456 -0.704,-1.28 -1.92,-1.856 -1.152,-0.576 -2.688,-0.576 -1.6,0 -3.328,0.96 -1.664,0.96 -3.008,3.392 l -0.448,-6.144 q 1.6,-2.368 4.096,-3.584 2.496,-1.28 4.48,-1.28 3.456,0 6.208,1.344 2.752,1.344 4.288,4.16 1.6,2.752 1.6,7.04 0,4.224 -1.856,7.296 -1.792,3.072 -4.864,4.736 -3.072,1.6 -6.784,1.6 z m 18.176,-0.768 v -5.824 q 5.12,-4.544 9.088,-8.512 4.032,-3.968 6.272,-7.36 2.304,-3.392 2.304,-6.208 0,-3.008 -1.536,-4.544 -1.536,-1.6 -4.224,-1.6 -2.176,0 -3.968,1.28 -1.728,1.216 -3.264,2.88 l -4.928,-4.864 q 2.944,-3.328 6.016,-4.992 3.136,-1.664 7.424,-1.664 3.968,0 6.976,1.6 3.072,1.6 4.736,4.48 1.728,2.88 1.728,6.784 0,3.648 -1.984,7.168 -1.92,3.456 -5.12,6.912 -3.2,3.456 -6.784,7.04 1.536,-0.192 3.456,-0.32 1.92,-0.192 3.328,-0.192 h 9.088 v 7.936 z m -78.97601,-80 v -33.792 h -11.456 v -7.936 h 32.384 v 7.936 h -11.456 v 33.792 z m 27.45599,0 v -41.728 h 15.04 q 4.416,0 8.064,1.216 3.648,1.152 5.824,4.032 2.176,2.816 2.176,7.744 0,4.8 -2.176,7.808 -2.176,3.008 -5.824,4.48 -3.648,1.408 -8.064,1.408 h -5.632 v 15.04 z m 9.408,-22.528 h 4.864 q 3.712,0 5.632,-1.536 1.984,-1.6 1.984,-4.672 0,-3.072 -1.984,-4.288 -1.92,-1.216 -5.632,-1.216 h -4.864 z m 13.184,22.528 -9.28,-17.472 6.528,-6.08 13.312,23.552 z m 12.48005,8.96 v -5.312 h 30.464 v 5.312 z m 36.16,-8.96 v -41.728 h 14.272 q 4.352,0 7.808,0.96 3.52,0.896 5.504,3.2 2.048,2.24 2.048,6.208 0,3.136 -1.408,5.632 -1.408,2.432 -4.032,3.392 v 0.256 q 3.52,0.768 5.504,3.072 1.984,2.24 1.984,6.272 0,4.416 -2.176,7.232 -2.176,2.816 -5.888,4.16 -3.648,1.344 -8.128,1.344 z m 9.408,-25.024 h 4.416 q 3.456,0 4.992,-1.344 1.6,-1.344 1.6,-3.584 0,-2.432 -1.6,-3.456 -1.6,-1.024 -4.928,-1.024 h -4.48 z m 0,17.728 h 5.312 q 3.84,0 5.76,-1.344 1.984,-1.408 1.984,-4.288 0,-2.688 -1.984,-3.904 -1.92,-1.216 -5.76,-1.216 h -5.312 z m -362.46532,88.064 q -6.528,0 -10.56,-5.44 -3.968,-5.44 -3.968,-15.808 0,-10.432 3.968,-15.68 4.032,-5.248 10.56,-5.248 6.528,0 10.496,5.312 4.032,5.248 4.032,15.616 0,10.368 -4.032,15.808 -3.968,5.44 -10.496,5.44 z m 0,-7.296 q 1.6,0 2.88,-1.152 1.28,-1.216 1.984,-4.224 0.768,-3.072 0.768,-8.576 0,-5.568 -0.768,-8.512 -0.704,-2.944 -1.984,-4.032 -1.28,-1.088 -2.88,-1.088 -1.6,0 -2.88,1.088 -1.28,1.088 -2.048,4.032 -0.704,2.944 -0.704,8.512 0,5.504 0.704,8.576 0.768,3.008 2.048,4.224 1.28,1.152 2.88,1.152 z m 34.87999,7.296 q -2.944,0 -5.696,-1.152 -2.752,-1.152 -4.928,-3.584 -2.176,-2.432 -3.456,-6.208 -1.28,-3.84 -1.28,-9.216 0,-5.696 1.344,-9.856 1.344,-4.16 3.648,-6.848 2.304,-2.688 5.248,-3.968 2.944,-1.344 6.208,-1.344 4.032,0 6.976,1.472 2.944,1.408 4.864,3.392 l -4.928,5.632 q -1.088,-1.152 -2.816,-1.984 -1.728,-0.896 -3.52,-0.896 -2.304,0 -4.288,1.344 -1.92,1.344 -3.072,4.544 -1.088,3.136 -1.088,8.512 0,5.056 0.896,7.936 0.96,2.816 2.496,4.032 1.536,1.152 3.2,1.152 1.408,0 2.56,-0.704 1.152,-0.704 1.856,-2.112 0.704,-1.472 0.704,-3.776 0,-2.176 -0.704,-3.456 -0.704,-1.28 -1.92,-1.856 -1.152,-0.576 -2.688,-0.576 -1.6,0 -3.328,0.96 -1.664,0.96 -3.008,3.392 l -0.448,-6.144 q 1.6,-2.368 4.096,-3.584 2.496,-1.28 4.48,-1.28 3.456,0 6.208,1.344 2.752,1.344 4.288,4.16 1.6,2.752 1.6,7.04 0,4.224 -1.856,7.296 -1.792,3.072 -4.864,4.736 -3.072,1.6 -6.784,1.6 z m 31.36,0 q -3.264,0 -5.952,-0.768 -2.624,-0.704 -4.672,-1.984 -2.048,-1.28 -3.52,-3.008 l 4.352,-5.952 q 1.856,1.792 4.096,2.944 2.24,1.152 4.8,1.152 2.944,0 4.736,-1.216 1.856,-1.28 1.856,-3.584 0,-1.792 -0.896,-3.072 -0.896,-1.344 -3.264,-2.048 -2.304,-0.704 -6.784,-0.704 v -6.656 q 3.648,0 5.76,-0.704 2.112,-0.704 2.944,-1.92 0.896,-1.216 0.896,-2.816 0,-2.176 -1.344,-3.328 -1.28,-1.152 -3.648,-1.152 -2.176,0 -3.968,0.96 -1.728,0.896 -3.648,2.624 l -4.736,-5.76 q 2.816,-2.432 5.952,-3.776 3.136,-1.408 6.848,-1.408 4.16,0 7.296,1.344 3.2,1.28 4.928,3.776 1.792,2.432 1.792,6.016 0,3.136 -1.792,5.376 -1.728,2.24 -4.992,3.648 v 0.256 q 2.304,0.704 4.16,2.048 1.856,1.28 2.88,3.264 1.024,1.984 1.024,4.608 0,3.776 -2.112,6.464 -2.048,2.624 -5.504,4.032 -3.392,1.344 -7.488,1.344 z m -92.16001,-80.768 v -33.792 h -11.456 v -7.936 h 32.384 v 7.936 h -11.456 v 33.792 z m 27.45599,0 v -41.728 h 15.04 q 4.416,0 8.064,1.216 3.648,1.152 5.824,4.032 2.176,2.816 2.176,7.744 0,4.8 -2.176,7.808 -2.176,3.008 -5.824,4.48 -3.648,1.408 -8.064,1.408 h -5.632 v 15.04 z m 9.408,-22.528 h 4.864 q 3.712,0 5.632,-1.536 1.984,-1.6 1.984,-4.672 0,-3.072 -1.984,-4.288 -1.92,-1.216 -5.632,-1.216 h -4.864 z m 13.184,22.528 -9.28,-17.472 6.528,-6.08 13.312,23.552 z m 12.48005,8.96 v -5.312 h 30.464 v 5.312 z m 36.16,-8.96 v -41.728 h 14.272 q 4.352,0 7.808,0.96 3.52,0.896 5.504,3.2 2.048,2.24 2.048,6.208 0,3.136 -1.408,5.632 -1.408,2.432 -4.032,3.392 v 0.256 q 3.52,0.768 5.504,3.072 1.984,2.24 1.984,6.272 0,4.416 -2.176,7.232 -2.176,2.816 -5.888,4.16 -3.648,1.344 -8.128,1.344 z m 9.408,-25.024 h 4.416 q 3.456,0 4.992,-1.344 1.6,-1.344 1.6,-3.584 0,-2.432 -1.6,-3.456 -1.6,-1.024 -4.928,-1.024 h -4.48 z m 0,17.728 h 5.312 q 3.84,0 5.76,-1.344 1.984,-1.408 1.984,-4.288 0,-2.688 -1.984,-3.904 -1.92,-1.216 -5.76,-1.216 h -5.312 z m -342.17492,211.7213 q -6.528,0 -10.56,-5.44 -3.968,-5.44 -3.968,-15.808 0,-10.432 3.968,-15.68 4.032,-5.248 10.56,-5.248 6.528,0 10.496,5.312 4.032,5.248 4.032,15.616 0,10.368 -4.032,15.808 -3.968,5.44 -10.496,5.44 z m 0,-7.296 q 1.6,0 2.88,-1.152 1.28,-1.216 1.984,-4.224 0.768,-3.072 0.768,-8.576 0,-5.568 -0.768,-8.512 -0.704,-2.944 -1.984,-4.032 -1.28,-1.088 -2.88,-1.088 -1.6,0 -2.88,1.088 -1.28,1.088 -2.048,4.032 -0.704,2.944 -0.704,8.512 0,5.504 0.704,8.576 0.768,3.008 2.048,4.224 1.28,1.152 2.88,1.152 z m 34.87999,7.296 q -2.944,0 -5.696,-1.152 -2.752,-1.152 -4.928,-3.584 -2.176,-2.432 -3.456,-6.208 -1.28,-3.84 -1.28,-9.216 0,-5.696 1.344,-9.856 1.344,-4.16 3.648,-6.848 2.304,-2.688 5.248,-3.968 2.944,-1.344 6.208,-1.344 4.032,0 6.976,1.472 2.944,1.408 4.864,3.392 l -4.928,5.632 q -1.088,-1.152 -2.816,-1.984 -1.728,-0.896 -3.52,-0.896 -2.304,0 -4.288,1.344 -1.92,1.344 -3.072,4.544 -1.088,3.136 -1.088,8.512 0,5.056 0.896,7.936 0.96,2.816 2.496,4.032 1.536,1.152 3.2,1.152 1.408,0 2.56,-0.704 1.152,-0.704 1.856,-2.112 0.704,-1.472 0.704,-3.776 0,-2.176 -0.704,-3.456 -0.704,-1.28 -1.92,-1.856 -1.152,-0.576 -2.688,-0.576 -1.6,0 -3.328,0.96 -1.664,0.96 -3.008,3.392 l -0.448,-6.144 q 1.6,-2.368 4.096,-3.584 2.496,-1.28 4.48,-1.28 3.456,0 6.208,1.344 2.752,1.344 4.288,4.16 1.6,2.752 1.6,7.04 0,4.224 -1.856,7.296 -1.792,3.072 -4.864,4.736 -3.072,1.6 -6.784,1.6 z m 34.624,-0.768 v -23.488 q 0,-1.92 0.128,-4.544 0.192,-2.624 0.256,-4.544 h -0.256 q -0.768,1.664 -1.6,3.392 -0.832,1.664 -1.728,3.456 l -5.376,8.832 h 22.016 v 7.168 h -31.04 v -6.464 l 14.848,-24.448 h 11.52 v 40.64 z m -95.42401,-80 v -33.792 h -11.456 v -7.936 h 32.384 v 7.936 h -11.456 v 33.792 z m 27.45599,0 v -41.728 h 15.04 q 4.416,0 8.064,1.216 3.648,1.152 5.824,4.032 2.176,2.816 2.176,7.744 0,4.8 -2.176,7.808 -2.176,3.008 -5.824,4.48 -3.648,1.408 -8.064,1.408 h -5.632 v 15.04 z m 9.408,-22.528 h 4.864 q 3.712,0 5.632,-1.536 1.984,-1.6 1.984,-4.672 0,-3.072 -1.984,-4.288 -1.92,-1.216 -5.632,-1.216 h -4.864 z m 13.184,22.528 -9.28,-17.472 6.528,-6.08 13.312,23.552 z m 12.48005,8.96 v -5.312 h 30.464 v 5.312 z m 36.16,-8.96 v -41.728 h 14.272 q 4.352,0 7.808,0.96 3.52,0.896 5.504,3.2 2.048,2.24 2.048,6.208 0,3.136 -1.408,5.632 -1.408,2.432 -4.032,3.392 v 0.256 q 3.52,0.768 5.504,3.072 1.984,2.24 1.984,6.272 0,4.416 -2.176,7.232 -2.176,2.816 -5.888,4.16 -3.648,1.344 -8.128,1.344 z m 9.408,-25.024 h 4.416 q 3.456,0 4.992,-1.344 1.6,-1.344 1.6,-3.584 0,-2.432 -1.6,-3.456 -1.6,-1.024 -4.928,-1.024 h -4.48 z m 0,17.728 h 5.312 q 3.84,0 5.76,-1.344 1.984,-1.408 1.984,-4.288 0,-2.688 -1.984,-3.904 -1.92,-1.216 -5.76,-1.216 h -5.312 z m 136.0392,-690.3034 q -19.584,0 -31.68,-16.32 -11.904,-16.32 -11.904,-47.424 0,-31.296 11.904,-47.04 12.096,-15.744 31.68,-15.744 19.584,0 31.488,15.936 12.096,15.744 12.096,46.848 0,31.104 -12.096,47.424 -11.904,16.32 -31.488,16.32 z m 0,-21.888 q 4.8,0 8.64,-3.456 3.84,-3.648 5.952,-12.672 2.304,-9.216 2.304,-25.728 0,-16.704 -2.304,-25.536 -2.112,-8.832 -5.952,-12.096 -3.84,-3.264 -8.64,-3.264 -4.8,0 -8.64,3.264 -3.84,3.264 -6.144,12.096 -2.112,8.832 -2.112,25.536 0,16.512 2.112,25.728 2.304,9.024 6.144,12.672 3.84,3.456 8.64,3.456 z m 104.63998,21.888 q -8.832,0 -17.088,-3.456 -8.256,-3.456 -14.784,-10.752 -6.528,-7.296 -10.368,-18.624 -3.84,-11.52 -3.84,-27.648 0,-17.088 4.032,-29.568 4.032,-12.48 10.944,-20.544 6.912,-8.064 15.744,-11.904 8.832,-4.032 18.624,-4.032 12.096,0 20.928,4.416 8.832,4.224 14.592,10.176 l -14.784,16.896 q -3.264,-3.456 -8.448,-5.952 -5.184,-2.688 -10.56,-2.688 -6.912,0 -12.864,4.032 -5.76,4.032 -9.216,13.632 -3.264,9.408 -3.264,25.536 0,15.168 2.688,23.808 2.88,8.448 7.488,12.096 4.608,3.456 9.6,3.456 4.224,0 7.68,-2.112 3.456,-2.112 5.568,-6.336 2.112,-4.416 2.112,-11.328 0,-6.528 -2.112,-10.368 -2.112,-3.84 -5.76,-5.568 -3.456,-1.728 -8.064,-1.728 -4.8,0 -9.984,2.88 -4.992,2.88 -9.024,10.176 l -1.344,-18.432 q 4.8,-7.104 12.288,-10.752 7.488,-3.84 13.44,-3.84 10.368,0 18.624,4.032 8.256,4.032 12.864,12.48 4.8,8.256 4.8,21.12 0,12.672 -5.568,21.888 -5.376,9.216 -14.592,14.208 -9.216,4.8 -20.352,4.8 z m 101.37598,0 q -8.832,0 -17.088,-3.456 -8.256,-3.456 -14.784,-10.752 -6.528,-7.296 -10.368,-18.624 -3.84,-11.52 -3.84,-27.648 0,-17.088 4.032,-29.568 4.032,-12.48 10.944,-20.544 6.912,-8.064 15.744,-11.904 8.832,-4.032 18.624,-4.032 12.096,0 20.928,4.416 8.832,4.224 14.592,10.176 l -14.784,16.896 q -3.264,-3.456 -8.448,-5.952 -5.184,-2.688 -10.56,-2.688 -6.912,0 -12.864,4.032 -5.76,4.032 -9.216,13.632 -3.264,9.408 -3.264,25.536 0,15.168 2.688,23.808 2.88,8.448 7.488,12.096 4.608,3.456 9.6,3.456 4.224,0 7.68,-2.112 3.456,-2.112 5.568,-6.336 2.112,-4.416 2.112,-11.328 0,-6.528 -2.112,-10.368 -2.112,-3.84 -5.76,-5.568 -3.456,-1.728 -8.064,-1.728 -4.8,0 -9.984,2.88 -4.992,2.88 -9.024,10.176 l -1.344,-18.432 q 4.8,-7.104 12.288,-10.752 7.488,-3.84 13.44,-3.84 10.368,0 18.624,4.032 8.256,4.032 12.864,12.48 4.8,8.256 4.8,21.12 0,12.672 -5.568,21.888 -5.376,9.216 -14.592,14.208 -9.216,4.8 -20.352,4.8 z m -283.77601,-242.304 v -101.376 h -34.368 v -23.808 h 97.152 v 23.808 h -34.368 v 101.376 z m 82.36796,0 v -125.184 h 45.12 q 13.248,0 24.192,3.648 10.944,3.456 17.472,12.096 6.528,8.448 6.528,23.232 0,14.4 -6.528,23.424 -6.528,9.024 -17.472,13.44 -10.944,4.224 -24.192,4.224 h -16.896 v 45.12 z m 28.224,-67.584 h 14.592 q 11.136,0 16.896,-4.608 5.952,-4.8 5.952,-14.016 0,-9.216 -5.952,-12.864 -5.76,-3.648 -16.896,-3.648 h -14.592 z m 39.552,67.584 -27.84,-52.416 19.584,-18.24 39.936,70.656 z m 37.44016,26.88 v -15.936 h 91.392 v 15.936 z m 108.48,-26.88 v -125.184 h 42.816 q 13.056,0 23.424,2.88 10.56,2.688 16.512,9.6 6.144,6.72 6.144,18.624 0,9.408 -4.224,16.896 -4.224,7.296 -12.096,10.176 v 0.768 q 10.56,2.304 16.512,9.216 5.952,6.72 5.952,18.816 0,13.248 -6.528,21.696 -6.528,8.448 -17.664,12.48 -10.944,4.032 -24.384,4.032 z m 28.224,-75.072 h 13.248 q 10.368,0 14.976,-4.032 4.8,-4.032 4.8,-10.752 0,-7.296 -4.8,-10.368 -4.8,-3.072 -14.784,-3.072 h -13.44 z m 0,53.184 h 15.936 q 11.52,0 17.28,-4.032 5.952,-4.224 5.952,-12.864 0,-8.064 -5.952,-11.712 -5.76,-3.648 -17.28,-3.648 h -15.936 z m -1691.19148,264.192 q -19.584,0 -31.68,-16.32 -11.904,-16.32 -11.904,-47.424 0,-31.296 11.904,-47.04 12.096,-15.744 31.68,-15.744 19.584,0 31.488,15.936 12.096,15.744 12.096,46.848 0,31.104 -12.096,47.424 -11.904,16.32 -31.488,16.32 z m 0,-21.888 q 4.8,0 8.64,-3.456 3.84,-3.648 5.952,-12.672 2.304,-9.216 2.304,-25.728 0,-16.704 -2.304,-25.536 -2.112,-8.832 -5.952,-12.096 -3.84,-3.264 -8.64,-3.264 -4.8,0 -8.64,3.264 -3.84,3.264 -6.144,12.096 -2.112,8.832 -2.112,25.536 0,16.512 2.112,25.728 2.304,9.024 6.144,12.672 3.84,3.456 8.64,3.456 z m 104.6399,21.888 q -8.832,0 -17.088,-3.456 -8.256,-3.456 -14.784,-10.752 -6.528,-7.296 -10.368,-18.624 -3.84,-11.52 -3.84,-27.648 0,-17.088 4.032,-29.568 4.032,-12.48 10.944,-20.544 6.912,-8.064 15.744,-11.904 8.832,-4.032 18.624,-4.032 12.096,0 20.928,4.416 8.832,4.224 14.592,10.176 l -14.784,16.896 q -3.264,-3.456 -8.448,-5.952 -5.184,-2.688 -10.56,-2.688 -6.912,0 -12.864,4.032 -5.76,4.032 -9.216,13.632 -3.264,9.408 -3.264,25.536 0,15.168 2.688,23.808 2.88,8.448 7.488,12.096 4.608,3.456 9.6,3.456 4.224,0 7.68,-2.112 3.456,-2.112 5.568,-6.336 2.112,-4.416 2.112,-11.328 0,-6.528 -2.112,-10.368 -2.112,-3.84 -5.76,-5.568 -3.456,-1.728 -8.064,-1.728 -4.8,0 -9.984,2.88 -4.992,2.88 -9.024,10.176 l -1.344,-18.432 q 4.8,-7.104 12.288,-10.752 7.488,-3.84 13.44,-3.84 10.368,0 18.624,4.032 8.256,4.032 12.864,12.48 4.8,8.256 4.8,21.12 0,12.672 -5.568,21.888 -5.3759,9.216 -14.592,14.208 -9.216,4.8 -20.352,4.8 z m 76.224,-2.304 q 0.96,-15.168 3.072,-27.84 2.112,-12.864 5.952,-24.384 4.032,-11.52 10.176,-22.656 6.144,-11.136 15.168,-23.232 h -54.72 v -23.808 h 84.864 v 17.28 q -10.752,13.056 -17.664,24.384 -6.72,11.328 -10.368,23.04 -3.648,11.712 -5.376,25.536 -1.728,13.824 -2.688,31.68 z m -258.624,-240 v -101.376 h -34.368 v -23.808 h 97.152 v 23.808 h -34.368 v 101.376 z m 82.368,0 v -125.184 h 45.12 q 13.248,0 24.192,3.648 10.944,3.456 17.472,12.096 6.528,8.448 6.528,23.232 0,14.4 -6.528,23.424 -6.528,9.024 -17.472,13.44 -10.944,4.224 -24.192,4.224 h -16.896 v 45.12 z m 28.224,-67.584 h 14.592 q 11.136,0 16.896,-4.608 5.952,-4.8 5.952,-14.016 0,-9.216 -5.952,-12.864 -5.76,-3.648 -16.896,-3.648 h -14.592 z m 39.552,67.584 -27.84,-52.416 19.584,-18.24 39.936,70.656 z m 37.4401,26.88 v -15.936 h 91.392 v 15.936 z m 108.48,-26.88 v -125.184 h 42.81604 q 13.056,0 23.424,2.88 10.56,2.688 16.512,9.6 6.144,6.72 6.144,18.624 0,9.408 -4.224,16.896 -4.224,7.296 -12.096,10.176 v 0.768 q 10.56,2.304 16.512,9.216 5.952,6.72 5.952,18.816 0,13.248 -6.528,21.696 -6.528,8.448 -17.664,12.48 -10.944,4.032 -24.384,4.032 z m 28.224,-75.072 h 13.24804 q 10.368,0 14.976,-4.032 4.8,-4.032 4.8,-10.752 0,-7.296 -4.8,-10.368 -4.8,-3.072 -14.784,-3.072 h -13.44004 z m 0,53.184 h 15.93604 q 11.52,0 17.28,-4.032 5.952,-4.224 5.952,-12.864 0,-8.064 -5.952,-11.712 -5.76,-3.648 -17.28,-3.648 h -15.93604 z m -196.224,-627.4286 q -9.792,0 -15.84,-8.16 -5.952,-8.16 -5.952,-23.712 0,-15.648 5.952,-23.52 6.048,-7.872 15.84,-7.872 9.792,0 15.744,7.968 6.048,7.872 6.048,23.424 0,15.552 -6.048,23.712 -5.952,8.16 -15.744,8.16 z m 0,-10.944 q 2.4,0 4.32,-1.728 1.92,-1.824 2.976,-6.336 1.152,-4.608 1.152,-12.864 0,-8.352 -1.152,-12.768 -1.056,-4.416 -2.976,-6.048 -1.92,-1.632 -4.32,-1.632 -2.4,0 -4.32,1.632 -1.92,1.632 -3.072,6.048 -1.056,4.416 -1.056,12.768 0,8.256 1.056,12.864 1.152,4.512 3.072,6.336 1.92,1.728 4.32,1.728 z m 52.3199,10.944 q -4.416,0 -8.544,-1.728 -4.128,-1.728 -7.392,-5.376 -3.264,-3.648 -5.184,-9.312 -1.92,-5.76 -1.92,-13.824 0,-8.544 2.016,-14.784 2.016,-6.24 5.472,-10.272 3.456,-4.032 7.872,-5.952 4.416,-2.016 9.312,-2.016 6.048,0 10.464,2.208 4.416,2.112 7.296,5.088 l -7.392,8.448 q -1.632,-1.728 -4.224,-2.976 -2.592,-1.344 -5.28,-1.344 -3.456,0 -6.432,2.016 -2.88,2.016 -4.608,6.816 -1.632,4.704 -1.632,12.768 0,7.584 1.344,11.904 1.44,4.224 3.7441,6.048 2.3039,1.728 4.7999,1.728 2.112,0 3.84,-1.056 1.728,-1.056 2.784,-3.168 1.056,-2.208 1.056,-5.664 0,-3.264 -1.056,-5.184 -1.056,-1.92 -2.88,-2.784 -1.728,-0.864 -4.032,-0.864 -2.4,0 -4.992,1.44 -2.496,1.44 -4.512,5.088 l -0.672,-9.216 q 2.4,-3.552 6.144,-5.376 3.744,-1.92 6.72,-1.92 5.1841,0 9.312,2.016 4.128,2.016 6.432,6.24 2.4,4.128 2.4,10.56 0,6.336 -2.784,10.944 -2.688,4.608 -7.296,7.104 -4.608,2.4 -10.176,2.4 z m 45.696,0 q -6.048,0 -10.464,-2.208 -4.416,-2.208 -7.392,-5.088 l 7.488,-8.448 q 1.536,1.728 4.128,3.072 2.688,1.248 5.28,1.248 3.648,0 6.432,-2.016 2.88,-2.016 4.512,-6.72 1.728,-4.8 1.728,-12.864 0,-7.584 -1.44,-11.808 -1.344,-4.32 -3.648,-6.048 -2.208,-1.824 -4.8,-1.824 -2.016,0 -3.84,1.056 -1.728,1.056 -2.784,3.168 -1.056,2.112 -1.056,5.664 0,3.168 1.056,5.184 1.056,1.92 2.88,2.784 1.824,0.864 4.128,0.864 2.4,0 4.896,-1.44 2.496,-1.536 4.512,-5.088 l 0.672,9.216 q -2.304,3.36 -6.048,5.376 -3.744,1.92 -6.816,1.92 -5.184,0 -9.312,-2.016 -4.128,-2.016 -6.528,-6.144 -2.304,-4.224 -2.304,-10.656 0,-6.336 2.784,-10.944 2.784,-4.608 7.392,-7.008 4.608,-2.496 10.08,-2.496 4.512,0 8.64,1.728 4.128,1.728 7.296,5.376 3.264,3.648 5.184,9.408 2.016,5.664 2.016,13.728 0,8.544 -2.112,14.784 -2.016,6.24 -5.472,10.272 -3.456,4.032 -7.872,6.048 -4.416,1.92 -9.216,1.92 z m -136.896,-121.152 v -50.688 h -17.184 v -11.904 h 48.576 v 11.904 h -17.184 v 50.688 z m 41.184,0 v -62.592 h 22.56 q 6.624,0 12.096,1.824 5.472,1.728 8.736,6.048 3.264,4.224 3.264,11.616 0,7.2 -3.264,11.712 -3.264,4.512 -8.736,6.72 -5.472,2.112 -12.096,2.112 h -8.448 v 22.56 z m 14.112,-33.792 h 7.296 q 5.568,0 8.448,-2.304 2.976,-2.4 2.976,-7.008 0,-4.608 -2.976,-6.432 -2.88,-1.824 -8.448,-1.824 h -7.296 z m 19.776,33.792 -13.92,-26.208 9.792,-9.12 19.968,35.328 z m 18.7201,13.44 v -7.968 h 45.696 v 7.968 z m 54.24,-13.44 v -62.592 h 21.408 q 6.528,0 11.712,1.44 5.28,1.344 8.256,4.8 3.072,3.36 3.072,9.312 0,4.704 -2.112,8.448 -2.112,3.648 -6.048,5.088 v 0.384 q 5.28,1.152 8.256,4.608 2.976,3.36 2.976,9.408 0,6.624 -3.264,10.848 -3.264,4.224 -8.832,6.24 -5.472,2.016 -12.192,2.016 z m 14.112,-37.536 h 6.624 q 5.184,0 7.488,-2.016 2.4,-2.016 2.4,-5.376 0,-3.648 -2.4,-5.184 -2.4,-1.536 -7.392,-1.536 h -6.72 z m 0,26.592 h 7.968 q 5.76,0 8.64,-2.016 2.976,-2.112 2.976,-6.432 0,-4.032 -2.976,-5.856 -2.88,-1.824 -8.64,-1.824 h -7.968 z m 1271.09531,-565.705 q -19.584,0 -31.68,-16.32001 -11.904,-16.32 -11.904,-47.424 0,-31.296 11.904,-47.04 12.096,-15.744 31.68,-15.744 19.584,0 31.488,15.936 12.096,15.744 12.096,46.848 0,31.104 -12.096,47.424 -11.904,16.32001 -31.488,16.32001 z m 0,-21.88801 q 4.8,0 8.64,-3.456 3.84,-3.648 5.952,-12.672 2.304,-9.216 2.304,-25.728 0,-16.704 -2.304,-25.536 -2.112,-8.832 -5.952,-12.096 -3.84,-3.264 -8.64,-3.264 -4.8,0 -8.64,3.264 -3.84,3.264 -6.144,12.096 -2.112,8.832 -2.112,25.536 0,16.512 2.112,25.728 2.304,9.024 6.144,12.672 3.84,3.456 8.64,3.456 z m 79.48798,19.58401 q 0.96,-15.16801 3.072,-27.84001 2.112,-12.864 5.952,-24.384 4.032,-11.52 10.176,-22.656 6.144,-11.136 15.168,-23.232 h -54.72 v -23.808 h 84.864 v 17.28 q -10.752,13.056 -17.664,24.384 -6.72,11.328 -10.368,23.04 -3.648,11.712 -5.376,25.536 -1.728,13.824 -2.688,31.68001 z m 123.26398,2.304 q -19.584,0 -31.68,-16.32001 -11.904,-16.32 -11.904,-47.424 0,-31.296 11.904,-47.04 12.096,-15.744 31.68,-15.744 19.584,0 31.488,15.936 12.096,15.744 12.096,46.848 0,31.104 -12.096,47.424 -11.904,16.32001 -31.488,16.32001 z m 0,-21.88801 q 4.8,0 8.64,-3.456 3.84,-3.648 5.952,-12.672 2.304,-9.216 2.304,-25.728 0,-16.704 -2.304,-25.536 -2.112,-8.832 -5.952,-12.096 -3.84,-3.264 -8.64,-3.264 -4.8,0 -8.64,3.264 -3.84,3.264 -6.144,12.096 -2.112,8.832 -2.112,25.536 0,16.512 2.112,25.728 2.304,9.024 6.144,12.672 3.84,3.456 8.64,3.456 z m -280.51201,-220.416 v -101.376 h -34.368 v -23.808 h 97.152 v 23.808 h -34.368 v 101.376 z m 82.36796,0 v -125.184 h 45.12 q 13.248,0 24.192,3.648 10.944,3.456 17.472,12.096 6.528,8.448 6.528,23.232 0,14.4 -6.528,23.424 -6.528,9.024 -17.472,13.44 -10.944,4.224 -24.192,4.224 h -16.896 v 45.12 z m 28.224,-67.584 h 14.592 q 11.136,0 16.896,-4.608 5.952,-4.8 5.952,-14.016 0,-9.216 -5.952,-12.864 -5.76,-3.648 -16.896,-3.648 h -14.592 z m 39.552,67.584 -27.84,-52.416 19.584,-18.24 39.936,70.656 z m 37.44016,26.88 v -15.936 h 91.392 v 15.936 z m 108.48,-26.88 v -125.184 h 42.816 q 13.056,0 23.424,2.88 10.56,2.688 16.512,9.6 6.144,6.72 6.144,18.624 0,9.408 -4.224,16.896 -4.224,7.296 -12.096,10.176 v 0.768 q 10.56,2.304 16.512,9.216 5.952,6.72 5.952,18.816 0,13.248 -6.528,21.696 -6.528,8.448 -17.664,12.48 -10.944,4.032 -24.384,4.032 z m 28.224,-75.072 h 13.248 q 10.368,0 14.976,-4.032 4.8,-4.032 4.8,-10.752 0,-7.296 -4.8,-10.368 -4.8,-3.072 -14.784,-3.072 h -13.44 z m 0,53.184 h 15.936 q 11.52,0 17.28,-4.032 5.952,-4.224 5.952,-12.864 0,-8.064 -5.952,-11.712 -5.76,-3.648 -17.28,-3.648 h -15.936 z M -896.8025,3379.6838 q -6.528,0 -10.56,-5.44 -3.968,-5.44 -3.968,-15.808 0,-10.432 3.968,-15.68 4.032,-5.248 10.56,-5.248 6.528,0 10.496,5.312 4.032,5.248 4.032,15.616 0,10.368 -4.032,15.808 -3.968,5.44 -10.496,5.44 z m 0,-7.296 q 1.6,0 2.88,-1.152 1.28,-1.216 1.984,-4.224 0.768,-3.072 0.768,-8.576 0,-5.568 -0.768,-8.512 -0.704,-2.944 -1.984,-4.032 -1.28,-1.088 -2.88,-1.088 -1.6,0 -2.88,1.088 -1.28,1.088 -2.048,4.032 -0.704,2.944 -0.704,8.512 0,5.504 0.704,8.576 0.768,3.008 2.048,4.224 1.28,1.152 2.88,1.152 z m 34.87999,7.296 q -2.944,0 -5.696,-1.152 -2.752,-1.152 -4.928,-3.584 -2.176,-2.432 -3.456,-6.208 -1.28,-3.84 -1.28,-9.216 0,-5.696 1.344,-9.856 1.344,-4.16 3.648,-6.848 2.304,-2.688 5.248,-3.968 2.944,-1.344 6.208,-1.344 4.032,0 6.976,1.472 2.944,1.408 4.864,3.392 l -4.928,5.632 q -1.088,-1.152 -2.816,-1.984 -1.728,-0.896 -3.52,-0.896 -2.304,0 -4.288,1.344 -1.92,1.344 -3.072,4.544 -1.088,3.136 -1.088,8.512 0,5.056 0.896,7.936 0.96,2.816 2.496,4.032 1.536,1.152 3.2,1.152 1.408,0 2.56,-0.704 1.152,-0.704 1.856,-2.112 0.704,-1.472 0.704,-3.776 0,-2.176 -0.704,-3.456 -0.704,-1.28 -1.92,-1.856 -1.152,-0.576 -2.688,-0.576 -1.6,0 -3.328,0.96 -1.664,0.96 -3.008,3.392 l -0.448,-6.144 q 1.6,-2.368 4.096,-3.584 2.496,-1.28 4.48,-1.28 3.456,0 6.208,1.344 2.752,1.344 4.288,4.16 1.6,2.752 1.6,7.04 0,4.224 -1.856,7.296 -1.792,3.072 -4.864,4.736 -3.072,1.6 -6.784,1.6 z m 31.616,0 q -3.328,0 -6.016,-0.768 -2.624,-0.768 -4.672,-2.048 -2.048,-1.28 -3.648,-2.88 l 4.224,-5.952 q 1.856,1.664 4.032,2.88 2.176,1.152 4.736,1.152 2.048,0 3.584,-0.704 1.536,-0.768 2.368,-2.176 0.896,-1.408 0.896,-3.456 0,-3.072 -1.792,-4.672 -1.792,-1.6 -4.608,-1.6 -1.728,0 -2.944,0.448 -1.216,0.448 -3.072,1.6 l -4.224,-2.688 1.152,-20.544 h 23.04 v 7.936 h -14.912 l -0.704,7.616 q 1.216,-0.512 2.24,-0.704 1.024,-0.256 2.304,-0.256 3.52,0 6.464,1.344 2.944,1.344 4.672,4.16 1.792,2.816 1.792,7.104 0,4.544 -2.112,7.744 -2.048,3.136 -5.44,4.8 -3.392,1.664 -7.36,1.664 z m -92.41601,-80.768 v -33.792 h -11.456 v -7.936 h 32.384 v 7.936 h -11.456 v 33.792 z m 27.45599,0 v -41.728 h 15.04 q 4.416,0 8.064,1.216 3.648,1.152 5.824,4.032 2.176,2.816 2.176,7.744 0,4.8 -2.176,7.808 -2.176,3.008 -5.824,4.48 -3.648,1.408 -8.064,1.408 h -5.632 v 15.04 z m 9.408,-22.528 h 4.864 q 3.712,0 5.632,-1.536 1.984,-1.6 1.984,-4.672 0,-3.072 -1.984,-4.288 -1.92,-1.216 -5.632,-1.216 h -4.864 z m 13.184,22.528 -9.28,-17.472 6.528,-6.08 13.312,23.552 z m 12.48005,8.96 v -5.312 h 30.464 v 5.312 z m 36.16,-8.96 v -41.728 h 14.272 q 4.352,0 7.808,0.96 3.52,0.896 5.504,3.2 2.048,2.24 2.048,6.208 0,3.136 -1.408,5.632 -1.408,2.432 -4.032,3.392 v 0.256 q 3.52,0.768 5.504,3.072 1.984,2.24 1.984,6.272 0,4.416 -2.176,7.232 -2.176,2.816 -5.888,4.16 -3.648,1.344 -8.128,1.344 z m 9.408,-25.024 h 4.416 q 3.456,0 4.992,-1.344 1.6,-1.344 1.6,-3.584 0,-2.432 -1.6,-3.456 -1.6,-1.024 -4.928,-1.024 h -4.48 z m 0,17.728 h 5.312 q 3.84,0 5.76,-1.344 1.984,-1.408 1.984,-4.288 0,-2.688 -1.984,-3.904 -1.92,-1.216 -5.76,-1.216 h -5.312 z M 246.2204,1709.6958 q -9.792,0 -15.84,-8.16 -5.952,-8.16 -5.952,-23.712 0,-15.648 5.952,-23.52 6.048,-7.872 15.84,-7.872 9.792,0 15.744,7.968 6.048,7.872 6.048,23.424 0,15.552 -6.048,23.712 -5.952,8.16 -15.744,8.16 z m 0,-10.944 q 2.4,0 4.32,-1.728 1.92,-1.824 2.976,-6.336 1.152,-4.608 1.152,-12.864 0,-8.352 -1.152,-12.768 -1.056,-4.416 -2.976,-6.048 -1.92,-1.632 -4.32,-1.632 -2.4,0 -4.32,1.632 -1.92,1.632 -3.072,6.048 -1.056,4.416 -1.056,12.768 0,8.256 1.056,12.864 1.152,4.512 3.072,6.336 1.92,1.728 4.32,1.728 z m 52.31999,10.944 q -4.416,0 -8.544,-1.728 -4.128,-1.728 -7.392,-5.376 -3.264,-3.648 -5.184,-9.312 -1.92,-5.76 -1.92,-13.824 0,-8.544 2.016,-14.784 2.016,-6.24 5.472,-10.272 3.456,-4.032 7.872,-5.952 4.416,-2.016 9.312,-2.016 6.048,0 10.464,2.208 4.416,2.112 7.296,5.088 l -7.392,8.448 q -1.632,-1.728 -4.224,-2.976 -2.592,-1.344 -5.28,-1.344 -3.456,0 -6.432,2.016 -2.88,2.016 -4.608,6.816 -1.632,4.704 -1.632,12.768 0,7.584 1.344,11.904 1.44,4.224 3.744,6.048 2.304,1.728 4.8,1.728 2.112,0 3.84,-1.056 1.728,-1.056 2.784,-3.168 1.056,-2.208 1.056,-5.664 0,-3.264 -1.056,-5.184 -1.056,-1.92 -2.88,-2.784 -1.728,-0.864 -4.032,-0.864 -2.4,0 -4.992,1.44 -2.496,1.44 -4.512,5.088 l -0.672,-9.216 q 2.4,-3.552 6.144,-5.376 3.744,-1.92 6.72,-1.92 5.184,0 9.312,2.016 4.128,2.016 6.432,6.24 2.4,4.128 2.4,10.56 0,6.336 -2.784,10.944 -2.688,4.608 -7.296,7.104 -4.608,2.4 -10.176,2.4 z m 48.95998,0 q -6.048,0 -10.944,-2.112 -4.8,-2.112 -7.584,-5.856 -2.688,-3.84 -2.688,-8.736 0,-3.744 1.344,-6.432 1.44,-2.784 3.744,-4.896 2.4,-2.112 5.28,-3.648 v -0.384 q -3.456,-2.688 -5.856,-6.144 -2.304,-3.456 -2.304,-8.256 0,-5.184 2.496,-8.928 2.496,-3.84 6.912,-5.856 4.416,-2.016 10.08,-2.016 8.448,0 13.44,4.608 5.088,4.512 5.088,12.096 0,2.88 -1.152,5.472 -1.056,2.496 -2.88,4.512 -1.824,1.92 -3.936,3.36 v 0.384 q 2.88,1.536 5.28,3.744 2.4,2.112 3.84,5.184 1.44,2.976 1.44,7.008 0,4.8 -2.688,8.64 -2.688,3.744 -7.584,6.048 -4.8,2.208 -11.328,2.208 z m 3.84,-36.672 q 1.824,-2.112 2.784,-4.32 0.96,-2.208 0.96,-4.608 0,-2.4 -0.864,-4.128 -0.864,-1.728 -2.592,-2.688 -1.632,-1.056 -3.936,-1.056 -2.784,0 -4.8,1.824 -2.016,1.728 -2.016,5.184 0,2.496 1.344,4.224 1.344,1.728 3.648,3.072 2.4,1.344 5.472,2.496 z m -3.552,26.88 q 2.304,0 4.128,-0.768 1.92,-0.864 2.976,-2.496 1.056,-1.728 1.056,-4.32 0,-2.688 -1.632,-4.416 -1.536,-1.824 -4.512,-3.168 -2.88,-1.44 -6.72,-3.072 -2.016,1.824 -3.36,4.416 -1.344,2.496 -1.344,5.28 0,2.688 1.248,4.608 1.344,1.92 3.456,2.976 2.208,0.96 4.704,0.96 z m -140.448,-111.36 v -50.688 h -17.184 v -11.904 h 48.576 v 11.904 h -17.184 v 50.688 z m 41.18398,0 v -62.592 h 22.56 q 6.624,0 12.096,1.824 5.472,1.728 8.736,6.048 3.264,4.224 3.264,11.616 0,7.2 -3.264,11.712 -3.264,4.512 -8.736,6.72 -5.472,2.112 -12.096,2.112 h -8.448 v 22.56 z m 14.112,-33.792 h 7.296 q 5.568,0 8.448,-2.304 2.976,-2.4 2.976,-7.008 0,-4.608 -2.976,-6.432 -2.88,-1.824 -8.448,-1.824 h -7.296 z m 19.776,33.792 -13.92,-26.208 9.792,-9.12 19.968,35.328 z m 18.72008,13.44 v -7.968 h 45.696 v 7.968 z m 54.24,-13.44 v -62.592 h 21.408 q 6.528,0 11.712,1.44 5.28,1.344 8.256,4.8 3.072,3.36 3.072,9.312 0,4.704 -2.112,8.448 -2.112,3.648 -6.048,5.088 v 0.384 q 5.28,1.152 8.256,4.608 2.976,3.36 2.976,9.408 0,6.624 -3.264,10.848 -3.264,4.224 -8.832,6.24 -5.472,2.016 -12.192,2.016 z m 14.112,-37.536 h 6.624 q 5.184,0 7.488,-2.016 2.4,-2.016 2.4,-5.376 0,-3.648 -2.4,-5.184 -2.4,-1.536 -7.392,-1.536 h -6.72 z m 0,26.592 h 7.968 q 5.76,0 8.64,-2.016 2.976,-2.112 2.976,-6.432 0,-4.032 -2.976,-5.856 -2.88,-1.824 -8.64,-1.824 h -7.968 z M -1248.7471,1011.8949 q -19.584,0 -31.68,-16.32001 -11.904,-16.32 -11.904,-47.424 0,-31.296 11.904,-47.04 12.096,-15.744 31.68,-15.744 19.584,0 31.488,15.936 12.096,15.744 12.096,46.848 0,31.104 -12.096,47.424 -11.904,16.32001 -31.488,16.32001 z m 0,-21.88801 q 4.8,0 8.64,-3.456 3.84,-3.648 5.952,-12.672 2.304,-9.216 2.304,-25.728 0,-16.704 -2.304,-25.536 -2.112,-8.832 -5.952,-12.096 -3.84,-3.264 -8.64,-3.264 -4.8,0 -8.64,3.264 -3.84,3.264 -6.144,12.096 -2.112,8.832 -2.112,25.536 0,16.512 2.112,25.728 2.304,9.024 6.144,12.672 3.84,3.456 8.64,3.456 z m 79.488,19.58401 q 0.96,-15.16801 3.072,-27.84001 2.112,-12.864 5.952,-24.384 4.032,-11.52 10.176,-22.656 6.144,-11.136 15.168,-23.232 h -54.72 v -23.808 h 84.864 v 17.28 q -10.752,13.056 -17.664,24.384 -6.72,11.328 -10.368,23.04 -3.648,11.712 -5.376,25.536 -1.728,13.824 -2.688,31.68001 z m 86.016,0 v -22.84801 h 26.496 v -70.464 h -22.848 v -17.472 q 9.984,-1.92 16.896,-4.608 7.104,-2.688 13.44,-6.528 h 20.736 v 99.072 h 22.848 v 22.84801 z m -243.264,-240.00001 v -101.376 h -34.368 v -23.808 h 97.152 v 23.808 h -34.368 v 101.376 z m 82.3679,0 v -125.184 h 45.12 q 13.248,0 24.192,3.648 10.9441,3.456 17.4721,12.096 6.5279,8.448 6.5279,23.232 0,14.4 -6.5279,23.424 -6.5281,9.024 -17.4721,13.44 -10.944,4.224 -24.192,4.224 h -16.896 v 45.12 z m 28.224,-67.584 h 14.592 q 11.136,0 16.896,-4.608 5.952,-4.8 5.952,-14.016 0,-9.216 -5.952,-12.864 -5.76,-3.648 -16.896,-3.648 h -14.592 z m 39.552,67.584 -27.8399,-52.416 19.5839,-18.24 39.9361,70.656 z m 37.4402,26.88 v -15.936 h 91.392 v 15.936 z m 108.48,-26.88 v -125.184 h 42.81601 q 13.056,0 23.424,2.88 10.56,2.688 16.512,9.6 6.144,6.72 6.144,18.624 0,9.408 -4.224,16.896 -4.224,7.296 -12.096,10.176 v 0.768 q 10.56,2.304 16.512,9.216 5.952,6.72 5.952,18.816 0,13.248 -6.528,21.696 -6.528,8.448 -17.664,12.48 -10.944,4.032 -24.384,4.032 z m 28.224,-75.072 h 13.24801 q 10.368,0 14.976,-4.032 4.8,-4.032 4.8,-10.752 0,-7.296 -4.8,-10.368 -4.8,-3.072 -14.784,-3.072 h -13.44001 z m 0,53.184 h 15.93601 q 11.52,0 17.28,-4.032 5.952,-4.224 5.952,-12.864 0,-8.064 -5.952,-11.712 -5.76,-3.648 -17.28,-3.648 h -15.93601 z" style="font-size:96px;font-family:'Source Sans 3';-inkscape-font-specification:'Source Sans 3, @wght=700';font-variation-settings:'wght' 700;text-align:center;white-space:pre;display:inline;fill:#bec3c6;stroke-width:55" transform="matrix(0.02439371,0,0,0.02439371,40.879663,194.88893)"/>
  </g>
</svg>
