<svg width="7300" height="2300" viewBox="0 0 7300 2300" version="1.1" id="svg1" xml:space="preserve" xmlns="http://www.w3.org/2000/svg">
  <g id="floor_1" transform="matrix(40.994169,0,0,40.994169,1.00188,-9610.757)" style="display:inline">
    <path style="font-variation-settings:'wdth' 70,'wght' 600;display:inline;fill:#4c5a5f;fill-opacity:1;stroke:none;stroke-width:.487874" d="m 1.02449,264.33654 h 60.628317 v -19.14906 l 15.581338,-0.0488 v 19.19785 h 99.498235 l 1e-5,8.48901 H 1.02449 Z" id="path454"/>
    <g id="rooms_1" style="display:inline" transform="matrix(0.02439371,0,0,0.02439371,-0.02443957,255.98706)">
      <rect style="font-variation-settings:'wdth' 70,'wght' 600;fill:#1b2022;fill-opacity:1;stroke:none;stroke-width:10.0166;stroke-linecap:butt;stroke-linejoin:miter;stroke-dasharray:none;stroke-opacity:1" id="lift_1" width="205.00011" height="292.49988" x="2629.9058" y="690.28015"/>
      <rect style="font-variation-settings:'wdth' 70,'wght' 600;display:inline;fill:#454c7f;fill-opacity:1;stroke-width:710.07;stroke-dasharray:none" id="GU115" width="943.99963" height="683.50006" x="43" y="-341.21991"/>
      <rect style="font-variation-settings:'wdth' 70,'wght' 600;display:inline;opacity:1;fill:#454c7f;fill-opacity:1;stroke-width:972.385;stroke-dasharray:none" id="GU116" width="1541.4084" height="785.00018" x="986.99963" y="-442.72003"/>
      <rect style="font-variation-settings:'wdth' 70,'wght' 600;display:inline;fill:#454c7f;fill-opacity:1;stroke-width:975.496;stroke-dasharray:none" id="GU101" width="1547.3518" height="787.00006" x="3167.1523" y="-444.71991"/>
      <rect style="font-variation-settings:'wdth' 70,'wght' 600;display:inline;fill:#454c7f;fill-opacity:1;stroke-width:725.873;stroke-dasharray:none" id="GU102" width="986.49506" height="683.5" x="4714.5039" y="-341.21991"/>
      <rect style="font-variation-settings:'wdth' 70,'wght' 600;display:inline;fill:#454c7f;fill-opacity:1;stroke-width:298.435;stroke-dasharray:none" id="GU104" width="252.99983" height="450.50006" x="6488.8071" y="690.28009"/>
      <rect style="font-variation-settings:'wdth' 70,'wght' 600;display:inline;fill:#454c7f;fill-opacity:1;stroke-width:530.287;stroke-dasharray:none" id="GU105" width="798.80713" height="450.49988" x="5690" y="690.28021"/>
      <rect style="font-variation-settings:'wdth' 70,'wght' 600;display:inline;fill:#454c7f;fill-opacity:1;stroke-width:421.296;stroke-dasharray:none" id="GU103" width="504.19318" height="450.50012" x="6741.8071" y="690.28003"/>
      <rect style="font-variation-settings:'wdth' 70,'wght' 600;display:inline;fill:#454c7f;fill-opacity:1;stroke-width:313.095;stroke-dasharray:none" id="GU112_A" width="326.00006" height="384.81381" x="2519.4058" y="982.78003"/>
      <rect style="font-variation-settings:'wdth' 70,'wght' 600;display:inline;fill:#454c7f;fill-opacity:1;stroke-width:220.747;stroke-dasharray:none" id="GU106" width="219.7052" height="283.83566" x="5453.7939" y="690.28015"/>
      <rect style="font-variation-settings:'wdth' 70,'wght' 600;display:inline;fill:#454c7f;fill-opacity:1;stroke-width:308.334;stroke-dasharray:none" id="GU106_A" width="332.43655" height="365.97827" x="5341.062" y="974.11584"/>
      <rect style="font-variation-settings:'wdth' 70,'wght' 600;display:inline;fill:#454c7f;fill-opacity:1;stroke-width:241.377;stroke-dasharray:none" id="GU107" width="262.69073" height="283.83566" x="5191.1035" y="690.28015"/>
      <rect style="font-variation-settings:'wdth' 70,'wght' 600;display:inline;fill:#454c7f;fill-opacity:1;stroke-width:206.492;stroke-dasharray:none" id="GU108" width="192.24576" height="283.83566" x="4998.8579" y="690.28015"/>
      <rect style="font-variation-settings:'wdth' 70,'wght' 600;display:inline;fill:#454c7f;fill-opacity:1;stroke-width:300.461;stroke-dasharray:none" id="GU108_A" width="315.67584" height="365.97827" x="5025.3857" y="974.11584"/>
      <path style="font-variation-settings:'wdth' 70,'wght' 600;display:inline;fill:#454c7f;fill-opacity:1;stroke:none;stroke-width:0;stroke-linecap:butt;stroke-dasharray:none;stroke-opacity:1" d="m 4716.8663,690.28003 h 281.9916 v 283.83581 h 26.5278 v 75.66036 h -308.5194 z" id="GU109"/>
      <rect style="font-variation-settings:'wdth' 70,'wght' 600;display:inline;fill:#454c7f;fill-opacity:1;stroke-width:257.04;stroke-dasharray:none" id="GU109_A" width="291.23856" height="290.31787" x="4734.3662" y="1049.7762"/>
      <rect style="font-variation-settings:'wdth' 70,'wght' 600;display:inline;fill:#454c7f;fill-opacity:1;stroke-width:705.248;stroke-dasharray:none" id="GU110" width="939.74493" height="677.31378" x="3777.1213" y="690.28003"/>
      <rect style="font-variation-settings:'wdth' 70,'wght' 600;display:inline;fill:#454c7f;fill-opacity:1;stroke-width:701.333;stroke-dasharray:none" id="GU111" width="929.34119" height="677.31384" x="2847.7803" y="690.28003"/>
      <rect style="font-variation-settings:'wdth' 70,'wght' 600;display:inline;fill:#454c7f;fill-opacity:1;stroke-width:562.134;stroke-dasharray:none" id="GU112" width="595.12146" height="679.50006" x="1924.2843" y="690.28009"/>
      <rect style="font-variation-settings:'wdth' 70,'wght' 600;display:inline;fill:#454c7f;fill-opacity:1;stroke-width:705.763;stroke-dasharray:none" id="GU113" width="938.09326" height="679.5" x="986.19104" y="690.28009"/>
      <rect style="font-variation-settings:'wdth' 70,'wght' 600;display:inline;fill:#454c7f;fill-opacity:1;stroke-width:707.679;stroke-dasharray:none" id="GU114" width="943.19104" height="679.5" x="42.999996" y="690.28009"/>
    </g>
    <g id="staires_1" transform="matrix(-0.02439371,0,0,-0.02439371,133.40036,264.73227)" style="display:inline">
      <rect style="font-variation-settings:'wdth' 70,'wght' 600;display:inline;fill:#333a3d;fill-opacity:1;stroke-width:8.08545;stroke-dasharray:none" id="rect88" width="274.3721" height="29.06435" x="-2918.7314" y="-709.45197" transform="rotate(180,-8.7495808e-6,8.0668158e-6)"/>
      <rect style="font-variation-settings:'wdth' 70,'wght' 600;display:inline;fill:#353c40;fill-opacity:1;stroke-width:8.08543;stroke-dasharray:none" id="rect87" width="274.3718" height="29.06435" x="-2918.7314" y="-680.38763" transform="rotate(180,-8.7495808e-6,8.0668158e-6)"/>
      <rect style="font-variation-settings:'wdth' 70,'wght' 600;display:inline;fill:#373e43;fill-opacity:1;stroke-width:8.08543;stroke-dasharray:none" id="rect86" width="274.3718" height="29.06435" x="-2918.7314" y="-651.3233" transform="rotate(180,-8.7495808e-6,8.0668158e-6)"/>
      <rect style="font-variation-settings:'wdth' 70,'wght' 600;display:inline;fill:#3a4146;fill-opacity:1;stroke-width:8.08543;stroke-dasharray:none" id="rect85" width="274.3718" height="29.06435" x="-2918.7314" y="-622.25897" transform="rotate(180,-8.7495808e-6,8.0668158e-6)"/>
      <rect style="font-variation-settings:'wdth' 70,'wght' 600;display:inline;fill:#3c4449;fill-opacity:1;stroke-width:8.08543;stroke-dasharray:none" id="rect84" width="274.3718" height="29.06435" x="-2918.7314" y="-593.19464" transform="rotate(180,-8.7495808e-6,8.0668158e-6)"/>
      <rect style="font-variation-settings:'wdth' 70,'wght' 600;display:inline;fill:#3e474c;fill-opacity:1;stroke-width:8.08543;stroke-dasharray:none" id="rect83" width="274.3718" height="29.06435" x="-2918.7314" y="-564.13031" transform="rotate(180,-8.7495808e-6,8.0668158e-6)"/>
      <rect style="font-variation-settings:'wdth' 70,'wght' 600;display:inline;fill:#404a4f;fill-opacity:1;stroke-width:8.08543;stroke-dasharray:none" id="rect82" width="274.3718" height="29.06435" x="-2918.7314" y="-535.06598" transform="rotate(180,-8.7495808e-6,8.0668158e-6)"/>
      <rect style="font-variation-settings:'wdth' 70,'wght' 600;display:inline;fill:#424d52;fill-opacity:1;stroke-width:8.08543;stroke-dasharray:none" id="rect81" width="274.3718" height="29.06435" x="-2918.7314" y="-506.00159" transform="rotate(180,-8.7495808e-6,8.0668158e-6)"/>
      <rect style="font-variation-settings:'wdth' 70,'wght' 600;display:inline;fill:#445055;fill-opacity:1;stroke-width:8.08543;stroke-dasharray:none" id="rect80" width="274.3718" height="29.06435" x="-2918.7314" y="-476.93723" transform="rotate(180,-8.7495808e-6,8.0668158e-6)"/>
      <rect style="font-variation-settings:'wdth' 70,'wght' 600;display:inline;fill:#465358;fill-opacity:1;stroke-width:8.08543;stroke-dasharray:none" id="rect79" width="274.3718" height="29.06435" x="-2918.7314" y="-447.87286" transform="rotate(180,-8.7495808e-6,8.0668158e-6)"/>
      <rect style="font-variation-settings:'wdth' 70,'wght' 600;display:inline;fill:#48565b;fill-opacity:1;stroke-width:8.08543;stroke-dasharray:none" id="rect78" width="274.3718" height="29.06435" x="-2918.7314" y="-418.8085" transform="rotate(180,-8.7495808e-6,8.0668158e-6)"/>
      <rect style="font-variation-settings:'wdth' 70,'wght' 600;display:inline;fill:#4b595e;fill-opacity:1;stroke-width:8.08543;stroke-dasharray:none" id="rect77" width="274.3718" height="29.06435" x="-2918.7314" y="-389.74414" transform="rotate(180,-8.7495808e-6,8.0668158e-6)"/>
      <rect style="font-variation-settings:'wdth' 70,'wght' 600;display:inline;fill:#4c5a5f;fill-opacity:1;stroke-width:8.08543;stroke-dasharray:none" id="rect516" width="274.3718" height="29.06435" x="-2918.7314" y="-360.67978" transform="scale(-1)"/>
      <path style="font-variation-settings:'wdth' 70,'wght' 600;display:inline;fill:#31373a;fill-opacity:1;stroke:none;stroke-width:0;stroke-linecap:butt;stroke-dasharray:none;stroke-opacity:1" d="m 2941.2314,709.45196 c -60.9027,234.25144 -60.752,234.04548 -218.372,337.29574 h -200 C 2351.8998,929.8753 2351.903,929.8753 2302.4873,709.45193 Z" id="path99" transform="translate(-4.1749921e-4,-8.386638e-5)"/>
      <rect style="font-variation-settings:'wdth' 70,'wght' 600;display:inline;fill:#4c5a5f;fill-opacity:1;stroke-width:8.08545;stroke-dasharray:none" id="rect89" width="274.37241" height="29.06435" x="-2599.3596" y="-331.61542" transform="scale(-1)"/>
      <rect style="font-variation-settings:'wdth' 70,'wght' 600;display:inline;fill:#4f5e63;fill-opacity:1;stroke-width:8.08545;stroke-dasharray:none" id="rect90" width="274.37241" height="29.06435" x="-2599.3596" y="-360.67978" transform="scale(-1)"/>
      <rect style="font-variation-settings:'wdth' 70,'wght' 600;display:inline;fill:#516166;fill-opacity:1;stroke-width:8.08545;stroke-dasharray:none" id="rect91" width="274.37241" height="29.06435" x="-2599.3596" y="-389.74414" transform="scale(-1)"/>
      <rect style="font-variation-settings:'wdth' 70,'wght' 600;display:inline;fill:#546469;fill-opacity:1;stroke-width:8.08545;stroke-dasharray:none" id="rect92" width="274.37241" height="29.06435" x="-2599.3596" y="-418.8085" transform="scale(-1)"/>
      <rect style="font-variation-settings:'wdth' 70,'wght' 600;display:inline;fill:#56676c;fill-opacity:1;stroke-width:8.08545;stroke-dasharray:none" id="rect93" width="274.37241" height="29.06435" x="-2599.3596" y="-447.87286" transform="scale(-1)"/>
      <rect style="font-variation-settings:'wdth' 70,'wght' 600;display:inline;fill:#586a6f;fill-opacity:1;stroke-width:8.08545;stroke-dasharray:none" id="rect94" width="274.37241" height="29.06435" x="-2599.3596" y="-476.93723" transform="scale(-1)"/>
      <rect style="font-variation-settings:'wdth' 70,'wght' 600;display:inline;fill:#5a6d72;fill-opacity:1;stroke-width:8.08545;stroke-dasharray:none" id="rect95" width="274.37241" height="29.06435" x="-2599.3596" y="-506.00159" transform="scale(-1)"/>
      <rect style="font-variation-settings:'wdth' 70,'wght' 600;display:inline;fill:#5c7075;fill-opacity:1;stroke-width:8.08545;stroke-dasharray:none" id="rect96" width="274.37241" height="29.06435" x="-2599.3596" y="-535.06592" transform="scale(-1)"/>
      <rect style="font-variation-settings:'wdth' 70,'wght' 600;display:inline;fill:#5e7378;fill-opacity:1;stroke-width:8.08545;stroke-dasharray:none" id="rect97" width="274.37241" height="29.06435" x="-2599.3596" y="-564.13025" transform="scale(-1)"/>
      <rect style="font-variation-settings:'wdth' 70,'wght' 600;display:inline;fill:#60767b;fill-opacity:1;stroke-width:8.08545;stroke-dasharray:none" id="rect98" width="274.37241" height="29.06435" x="-2599.3596" y="-593.19458" transform="scale(-1)"/>
      <rect style="font-variation-settings:'wdth' 70,'wght' 600;display:inline;fill:#62797e;fill-opacity:1;stroke-width:8.08545;stroke-dasharray:none" id="rect99" width="274.37241" height="29.06435" x="-2599.3596" y="-622.25891" transform="scale(-1)"/>
      <rect style="font-variation-settings:'wdth' 70,'wght' 600;display:inline;fill:#60767b;fill-opacity:1;stroke-width:14.0051;stroke-dasharray:none" id="rect100" width="274.37241" height="87.202682" x="-2599.3596" y="-709.46161" transform="scale(-1)"/>
      <rect style="font-variation-settings:'wdth' 70,'wght' 600;display:inline;fill:#000;fill-opacity:1;stroke-width:1.49977;stroke-dasharray:none" id="rect674" width="274.37241" height="1.0000001" x="-2599.3596" y="-332.61542" transform="scale(-1)"/>
      <rect style="font-variation-settings:'wdth' 70,'wght' 600;display:inline;fill:#000;fill-opacity:1;stroke-width:1.49977;stroke-dasharray:none" id="rect675" width="274.37241" height="1.0000001" x="-2599.3596" y="-361.69714" transform="scale(-1)"/>
      <rect style="font-variation-settings:'wdth' 70,'wght' 600;display:inline;fill:#000;fill-opacity:1;stroke-width:1.49977;stroke-dasharray:none" id="rect676" width="274.37241" height="1.0000001" x="-2599.3596" y="-390.74414" transform="scale(-1)"/>
      <rect style="font-variation-settings:'wdth' 70,'wght' 600;display:inline;fill:#000;fill-opacity:1;stroke-width:1.49977;stroke-dasharray:none" id="rect677" width="274.37241" height="1.0000001" x="-2599.3596" y="-419.81241" transform="scale(-1)"/>
      <rect style="font-variation-settings:'wdth' 70,'wght' 600;display:inline;fill:#000;fill-opacity:1;stroke-width:1.49977;stroke-dasharray:none" id="rect678" width="274.37241" height="1.0000001" x="-2599.3596" y="-448.90616" transform="scale(-1)"/>
      <rect style="font-variation-settings:'wdth' 70,'wght' 600;display:inline;fill:#000;fill-opacity:1;stroke-width:1.49977;stroke-dasharray:none" id="rect679" width="274.37241" height="1.0000001" x="-2599.3596" y="-477.93741" transform="scale(-1)"/>
      <rect style="font-variation-settings:'wdth' 70,'wght' 600;display:inline;fill:#000;fill-opacity:1;stroke-width:1.49977;stroke-dasharray:none" id="rect680" width="274.37241" height="1.0000001" x="-2599.3596" y="-507.00381" transform="scale(-1)"/>
      <rect style="font-variation-settings:'wdth' 70,'wght' 600;display:inline;fill:#000;fill-opacity:1;stroke-width:1.49977;stroke-dasharray:none" id="rect682" width="274.37241" height="1.0000001" x="-2599.3596" y="-536.06592" transform="scale(-1)"/>
      <rect style="font-variation-settings:'wdth' 70,'wght' 600;display:inline;fill:#000;fill-opacity:1;stroke-width:1.49977;stroke-dasharray:none" id="rect683" width="274.37241" height="1.0000001" x="-2599.3596" y="-565.13025" transform="scale(-1)"/>
      <rect style="font-variation-settings:'wdth' 70,'wght' 600;display:inline;fill:#000;fill-opacity:1;stroke-width:1.49977;stroke-dasharray:none" id="rect684" width="274.37241" height="1.0000001" x="-2599.3596" y="-594.19458" transform="scale(-1)"/>
      <rect style="font-variation-settings:'wdth' 70,'wght' 600;display:inline;fill:#000;fill-opacity:1;stroke-width:1.49977;stroke-dasharray:none" id="rect685" width="274.37241" height="1.0000001" x="-2599.3596" y="-623.25891" transform="scale(-1)"/>
      <path style="font-variation-settings:'wdth' 70,'wght' 600;display:inline;opacity:1;fill:none;fill-opacity:1;stroke:#bec3c6;stroke-width:5;stroke-dasharray:none;stroke-opacity:1;marker-end:url(#Triangle)" d="M 2462.1733,317.08324 V 622.25891" id="path596" transform="translate(-4.1749921e-4,-8.386638e-5)"/>
      <rect style="font-variation-settings:'wdth' 70,'wght' 600;display:inline;fill:#000;fill-opacity:1;stroke-width:1.49977;stroke-dasharray:none" id="rect686" width="274.37241" height="1.0000001" x="-2918.7314" y="-390.74417" transform="scale(-1)"/>
      <rect style="font-variation-settings:'wdth' 70,'wght' 600;display:inline;fill:#000;fill-opacity:1;stroke-width:1.49977;stroke-dasharray:none" id="rect687" width="274.37241" height="1.0000001" x="-2918.7314" y="-419.80853" transform="scale(-1)"/>
      <rect style="font-variation-settings:'wdth' 70,'wght' 600;display:inline;fill:#000;fill-opacity:1;stroke-width:1.49977;stroke-dasharray:none" id="rect688" width="274.37241" height="1.0000001" x="-2918.7314" y="-448.87289" transform="scale(-1)"/>
      <rect style="font-variation-settings:'wdth' 70,'wght' 600;display:inline;fill:#000;fill-opacity:1;stroke-width:1.49977;stroke-dasharray:none" id="rect689" width="274.37241" height="1.0000001" x="-2918.7314" y="-477.93726" transform="scale(-1)"/>
      <rect style="font-variation-settings:'wdth' 70,'wght' 600;display:inline;fill:#000;fill-opacity:1;stroke-width:1.49977;stroke-dasharray:none" id="rect690" width="274.37241" height="1.0000001" x="-2918.7314" y="-507.00165" transform="scale(-1)"/>
      <rect style="font-variation-settings:'wdth' 70,'wght' 600;display:inline;fill:#000;fill-opacity:1;stroke-width:1.49977;stroke-dasharray:none" id="rect691" width="274.37241" height="1.0000001" x="-2918.7314" y="-536.06598" transform="scale(-1)"/>
      <rect style="font-variation-settings:'wdth' 70,'wght' 600;display:inline;fill:#000;fill-opacity:1;stroke-width:1.49977;stroke-dasharray:none" id="rect692" width="274.37241" height="1.0000001" x="-2918.7314" y="-565.13031" transform="scale(-1)"/>
      <rect style="font-variation-settings:'wdth' 70,'wght' 600;display:inline;fill:#000;fill-opacity:1;stroke-width:1.49977;stroke-dasharray:none" id="rect693" width="274.37241" height="1.0000001" x="-2918.7314" y="-594.19464" transform="scale(-1)"/>
      <rect style="font-variation-settings:'wdth' 70,'wght' 600;display:inline;fill:#000;fill-opacity:1;stroke-width:1.49977;stroke-dasharray:none" id="rect694" width="274.37241" height="1.0000001" x="-2918.7314" y="-623.25897" transform="scale(-1)"/>
      <rect style="font-variation-settings:'wdth' 70,'wght' 600;display:inline;fill:#000;fill-opacity:1;stroke-width:1.49977;stroke-dasharray:none" id="rect695" width="274.37241" height="1.0000001" x="-2918.7314" y="-652.3233" transform="scale(-1)"/>
      <rect style="font-variation-settings:'wdth' 70,'wght' 600;display:inline;fill:#000;fill-opacity:1;stroke-width:1.49977;stroke-dasharray:none" id="rect696" width="274.37241" height="1.0000001" x="-2918.7314" y="-681.38763" transform="scale(-1)"/>
      <rect style="font-variation-settings:'wdth' 70,'wght' 600;display:inline;fill:#000;fill-opacity:1;stroke-width:1.49977;stroke-dasharray:none" id="rect697" width="274.37241" height="1.0000001" x="-2918.7314" y="-710.45197" transform="scale(-1)"/>
      <path style="font-variation-settings:'wdth' 70,'wght' 600;display:inline;opacity:1;fill:none;fill-opacity:1;stroke:#bec3c6;stroke-width:5;stroke-dasharray:none;stroke-opacity:1;marker-end:url(#Triangle)" d="M 2781.5454,694.76263 V 360.67978" id="path100" transform="translate(-8.1749927e-4,-1.6386639e-4)"/>
    </g>
    <g id="walls_1" transform="matrix(0.02439371,0,0,0.02439371,-0.02443957,244.19953)" style="display:inline">
      <path style="font-variation-settings:'wdth' 70,'wght' 600;fill:none;stroke:#bec3c6;stroke-width:55;stroke-linecap:butt;stroke-dasharray:none;stroke-opacity:1" d="M 2746.7802,-205.02502 C 2665.2875,-205.13333 2553.0213,-97.648566 2528,38.50014 H 976.99999 v 103.5 H 43 v 757.49997" id="path3"/>
      <path style="font-variation-settings:'wdth' 70,'wght' 600;fill:none;stroke:#bec3c6;stroke-width:55;stroke-dasharray:none;stroke-opacity:1" d="M 7246.0001,932.50015 V 820.51325 H 5701 V 142.00014 h -976.5 v -103.5 H 3167 c -28.9609,-139.18442 -144.55,-243.52516 -220.2198,-243.52516" id="path4"/>
      <path style="font-variation-settings:'wdth' 70,'wght' 600;fill:none;stroke:#bec3c6;stroke-width:55;stroke-linecap:butt;stroke-dasharray:none;stroke-opacity:1" d="m 43,1099.5001 v 751.3138 h 5658 v -226.8137 h 1545.0001 v -510.3027" id="path5"/>
      <path style="font-variation-settings:'wdth' 70,'wght' 600;fill:none;stroke:#bec3c6;stroke-width:45;stroke-linecap:butt;stroke-dasharray:none;stroke-opacity:1" d="M 163.14831,1225.5 H 42.999995" id="path6" transform="translate(-1.3713269e-7,-399.99985)"/>
      <path style="font-variation-settings:'wdth' 70,'wght' 600;fill:none;stroke:#bec3c6;stroke-width:45;stroke-linecap:butt;stroke-dasharray:none;stroke-opacity:1" d="M 784.94518,1225.5 H 263.14831" id="path7" transform="translate(-1.3713269e-7,-399.99985)"/>
      <path style="font-variation-settings:'wdth' 70,'wght' 600;fill:none;stroke:#bec3c6;stroke-width:45;stroke-linecap:butt;stroke-dasharray:none;stroke-opacity:1" d="M 2033.349,1225.5 H 884.94518" id="path9" transform="translate(-1.3713269e-7,-399.99985)"/>
      <path style="font-variation-settings:'wdth' 70,'wght' 600;fill:none;stroke:#bec3c6;stroke-width:45;stroke-linecap:butt;stroke-dasharray:none;stroke-opacity:1" d="M 2587.0561,1225.5 H 2133.349" id="path10" transform="translate(-1.3713269e-7,-399.99985)"/>
      <path style="font-variation-settings:'wdth' 70,'wght' 600;fill:none;stroke:#bec3c6;stroke-width:45;stroke-linecap:butt;stroke-dasharray:none;stroke-opacity:1" d="M 3569.75,1225.5 H 3115.0351" id="path11" transform="translate(-1.3713269e-7,-399.99985)"/>
      <path style="font-variation-settings:'wdth' 70,'wght' 600;fill:none;stroke:#bec3c6;stroke-width:45;stroke-linecap:butt;stroke-dasharray:none;stroke-opacity:1" d="M 4830.8689,1225.5 H 3669.75" id="path12" transform="translate(-1.3713269e-7,-399.99985)"/>
      <path style="font-variation-settings:'wdth' 70,'wght' 600;fill:none;stroke:#bec3c6;stroke-width:45;stroke-linecap:butt;stroke-dasharray:none;stroke-opacity:1" d="M 5487.1306,1225.5 H 4930.8689" id="path13" transform="translate(-1.3713269e-7,-399.99985)"/>
      <path style="font-variation-settings:'wdth' 70,'wght' 600;fill:none;stroke:#bec3c6;stroke-width:45;stroke-linecap:butt;stroke-dasharray:none;stroke-opacity:1" d="M 5700.9993,1225.5 H 5587.1306" id="path14" transform="translate(-1.3713269e-7,-399.99985)"/>
      <path style="font-variation-settings:'wdth' 70,'wght' 600;fill:none;stroke:#bec3c6;stroke-width:45;stroke-linecap:butt;stroke-dasharray:none;stroke-opacity:1" d="M 481.82491,1573.5 H 42.999995" id="path15" transform="translate(-1.3713269e-7,-399.99985)"/>
      <path style="font-variation-settings:'wdth' 70,'wght' 600;fill:none;stroke:#bec3c6;stroke-width:45;stroke-linecap:butt;stroke-dasharray:none;stroke-opacity:1" d="M 1389.143,1573.5 H 581.82491" id="path16" transform="translate(-1.3713269e-7,-399.99985)"/>
      <path style="font-variation-settings:'wdth' 70,'wght' 600;fill:none;stroke:#bec3c6;stroke-width:45;stroke-linecap:butt;stroke-dasharray:none;stroke-opacity:1" d="M 2335.7394,1573.5 H 1489.143" id="path17" transform="translate(-1.3713269e-7,-399.99985)"/>
      <path style="font-variation-settings:'wdth' 70,'wght' 600;fill:none;stroke:#bec3c6;stroke-width:45;stroke-linecap:butt;stroke-dasharray:none;stroke-opacity:1" d="m 3263.1601,1573.5 h -515.89" id="path18" transform="translate(-1.3713269e-7,-399.99985)"/>
      <path style="font-variation-settings:'wdth' 70,'wght' 600;fill:none;stroke:#bec3c6;stroke-width:45;stroke-linecap:butt;stroke-dasharray:none;stroke-opacity:1" d="M 4191.0825,1573.5 H 3363.1601" id="path19" transform="translate(-1.3713269e-7,-399.99985)"/>
      <path style="font-variation-settings:'wdth' 70,'wght' 600;fill:none;stroke:#bec3c6;stroke-width:45;stroke-linecap:butt;stroke-dasharray:none;stroke-opacity:1" d="M 4830.7283,1573.5 H 4291.0825" id="path20" transform="translate(-1.3713269e-7,-399.99985)"/>
      <path style="font-variation-settings:'wdth' 70,'wght' 600;fill:none;stroke:#bec3c6;stroke-width:45;stroke-linecap:butt;stroke-dasharray:none;stroke-opacity:1" d="M 5496.3806,1573.5 H 5341.7689" id="path21" transform="translate(-1.3713269e-7,-399.99985)"/>
      <path style="font-variation-settings:'wdth' 70,'wght' 600;fill:none;stroke:#bec3c6;stroke-width:45;stroke-linecap:butt;stroke-dasharray:none;stroke-opacity:1" d="M 6033.3611,1573.5 H 5596.3806" id="path22" transform="translate(-1.3713269e-7,-399.99985)"/>
      <path style="font-variation-settings:'wdth' 70,'wght' 600;fill:none;stroke:#bec3c6;stroke-width:45;stroke-linecap:butt;stroke-dasharray:none;stroke-opacity:1" d="m 5241.7689,1573.5 h -82.7693" id="path24" transform="translate(-1.3713269e-7,-399.99985)"/>
      <path style="font-variation-settings:'wdth' 70,'wght' 600;fill:none;stroke:#bec3c6;stroke-width:45;stroke-linecap:butt;stroke-dasharray:none;stroke-opacity:1" d="M 5058.9996,1573.5 H 4930.7283" id="path25" transform="translate(-1.3713269e-7,-399.99985)"/>
      <path style="font-variation-settings:'wdth' 70,'wght' 600;fill:none;stroke:#bec3c6;stroke-width:45;stroke-linecap:butt;stroke-dasharray:none;stroke-opacity:1" d="M 2647.2701,1573.5 H 2435.7394" id="path26" transform="translate(-1.3713269e-7,-399.99985)"/>
      <path style="font-variation-settings:'wdth' 70,'wght' 600;fill:none;stroke:#bec3c6;stroke-width:45;stroke-linecap:butt;stroke-dasharray:none;stroke-opacity:1" d="m 6532.9321,1573.5 h -399.571" id="path27" transform="translate(-1.3713269e-7,-399.99985)"/>
      <path style="font-variation-settings:'wdth' 70,'wght' 600;fill:none;stroke:#bec3c6;stroke-width:45;stroke-linecap:butt;stroke-dasharray:none;stroke-opacity:1" d="m 6924.1821,1573.5 h -291.25" id="path28" transform="translate(-1.3713269e-7,-399.99985)"/>
      <path style="font-variation-settings:'wdth' 70,'wght' 600;fill:none;stroke:#bec3c6;stroke-width:45;stroke-linecap:butt;stroke-dasharray:none;stroke-opacity:1" d="M 7245.9992,1573.5 H 7024.1821" id="path29" transform="translate(-1.3713269e-7,-399.99985)"/>
      <path style="font-variation-settings:'wdth' 70,'wght' 600;fill:none;stroke:#bec3c6;stroke-width:35;stroke-linecap:butt;stroke-dasharray:none;stroke-opacity:1" d="M 986.99966,146.00014 V 825.50015" id="path30"/>
      <path style="font-variation-settings:'wdth' 70,'wght' 600;fill:none;stroke:#bec3c6;stroke-width:35;stroke-linecap:butt;stroke-dasharray:none;stroke-opacity:1" d="M 4714.5041,142.00015 V 821.50016" id="path31"/>
      <path style="font-variation-settings:'wdth' 70,'wght' 600;fill:none;stroke:#bec3c6;stroke-width:35;stroke-linecap:butt;stroke-dasharray:none;stroke-opacity:1" d="m 986.19107,1173.5001 v 679.5001" id="path32"/>
      <path style="font-variation-settings:'wdth' 70,'wght' 600;fill:none;stroke:#bec3c6;stroke-width:35;stroke-linecap:butt;stroke-dasharray:none;stroke-opacity:1" d="m 1924.2843,1173.5001 v 679.5001" id="path33"/>
      <path style="font-variation-settings:'wdth' 70,'wght' 600;fill:none;stroke:#bec3c6;stroke-width:35;stroke-linecap:butt;stroke-dasharray:none;stroke-opacity:1" d="m 2847.7802,1171.3138 v 679.5001" id="path34"/>
      <path style="font-variation-settings:'wdth' 70,'wght' 600;fill:none;stroke:#bec3c6;stroke-width:35;stroke-linecap:butt;stroke-dasharray:none;stroke-opacity:1" d="m 3777.1213,1173.5001 v 679.5001" id="path35"/>
      <path style="font-variation-settings:'wdth' 70,'wght' 600;fill:none;stroke:#bec3c6;stroke-width:35;stroke-linecap:butt;stroke-dasharray:none;stroke-opacity:1" d="m 4716.8663,1173.5001 v 679.5001" id="path36"/>
      <path style="font-variation-settings:'wdth' 70,'wght' 600;fill:none;stroke:#bec3c6;stroke-width:55;stroke-linecap:butt;stroke-dasharray:none;stroke-opacity:1" d="m 5701,1173.5001 v 450.5001" id="path37"/>
      <path style="font-variation-settings:'wdth' 70,'wght' 600;fill:none;stroke:#bec3c6;stroke-width:35;stroke-linecap:butt;stroke-dasharray:none;stroke-opacity:1" d="m 6741.8071,1173.5001 v 450.5001" id="path38"/>
      <path style="font-variation-settings:'wdth' 70,'wght' 600;fill:none;stroke:#bec3c6;stroke-width:35;stroke-linecap:butt;stroke-dasharray:none;stroke-opacity:1" d="m 6488.8071,1173.5001 v 450.5001" id="path40"/>
      <path style="font-variation-settings:'wdth' 70,'wght' 600;fill:none;stroke:#bec3c6;stroke-width:10;stroke-linecap:butt;stroke-dasharray:none;stroke-opacity:1" d="m 2519.4057,1173.5001 v 292.5 h 333" id="path41"/>
      <path style="font-variation-settings:'wdth' 70,'wght' 600;fill:none;stroke:#bec3c6;stroke-width:10;stroke-linecap:butt;stroke-dasharray:none;stroke-opacity:1" d="m 2624.9057,1173.5002 v 292.4999" id="path43"/>
      <path style="font-variation-settings:'wdth' 70,'wght' 600;fill:none;stroke:#bec3c6;stroke-width:10;stroke-linecap:butt;stroke-dasharray:none;stroke-opacity:1" d="m 2519.4057,1466.0001 v 127.7513" id="path44"/>
      <path style="font-variation-settings:'wdth' 70,'wght' 600;fill:none;stroke:#bec3c6;stroke-width:10;stroke-linecap:butt;stroke-dasharray:none;stroke-opacity:1" d="m 2519.4057,1699.1279 v 151.686" id="path45"/>
      <path style="font-variation-settings:'wdth' 70,'wght' 600;fill:none;stroke:#bec3c6;stroke-width:45;stroke-linecap:butt;stroke-dasharray:none;stroke-opacity:1" d="M 2528.4081,719.87659 V 825.50015" id="path46"/>
      <path style="font-variation-settings:'wdth' 70,'wght' 600;fill:none;stroke:#bec3c6;stroke-width:45;stroke-linecap:butt;stroke-dasharray:none;stroke-opacity:1" d="M 2528.4081,40.500034 V 614.50012" id="path47"/>
      <path style="font-variation-settings:'wdth' 70,'wght' 600;fill:none;stroke:#bec3c6;stroke-width:45;stroke-linecap:butt;stroke-dasharray:none;stroke-opacity:1" d="M 3167.1524,719.87659 V 825.50015" id="path48"/>
      <path style="font-variation-settings:'wdth' 70,'wght' 600;fill:none;stroke:#bec3c6;stroke-width:45;stroke-linecap:butt;stroke-dasharray:none;stroke-opacity:1" d="M 3167.1524,40.500034 V 614.50012" id="path49"/>
      <path style="font-variation-settings:'wdth' 70,'wght' 600;fill:none;stroke:#bec3c6;stroke-width:10;stroke-linecap:butt;stroke-dasharray:none;stroke-opacity:1" d="m 5052.3512,1457.3359 h -53.4935 v -283.8357" id="path50"/>
      <path style="font-variation-settings:'wdth' 70,'wght' 600;fill:none;stroke:#bec3c6;stroke-width:10;stroke-linecap:butt;stroke-dasharray:none;stroke-opacity:1" d="M 5545.212,1457.3359 H 5152.3512" id="path51"/>
      <path style="font-variation-settings:'wdth' 70,'wght' 600;fill:none;stroke:#bec3c6;stroke-width:10;stroke-linecap:butt;stroke-dasharray:none;stroke-opacity:1" d="m 5690,1457.3359 h -44.788" id="path52"/>
      <path style="font-variation-settings:'wdth' 70,'wght' 600;fill:none;stroke:#bec3c6;stroke-width:10;stroke-linecap:butt;stroke-dasharray:none;stroke-opacity:1" d="M 5191.1039,1457.3359 V 1173.5002" id="path53"/>
      <path style="font-variation-settings:'wdth' 70,'wght' 600;fill:none;stroke:#bec3c6;stroke-width:10;stroke-linecap:butt;stroke-dasharray:none;stroke-opacity:1" d="M 5453.7941,1457.3359 V 1173.5002" id="path54"/>
      <path style="font-variation-settings:'wdth' 70,'wght' 600;fill:none;stroke:#bec3c6;stroke-width:10;stroke-linecap:butt;stroke-dasharray:none;stroke-opacity:1" d="m 5341.0618,1850.8139 v -393.478" id="path55"/>
      <path style="font-variation-settings:'wdth' 70,'wght' 600;fill:none;stroke:#bec3c6;stroke-width:10;stroke-linecap:butt;stroke-dasharray:none;stroke-opacity:1" d="m 5341.0618,1850.8139 v -393.478" id="path56"/>
      <path style="font-variation-settings:'wdth' 70,'wght' 600;fill:none;stroke:#bec3c6;stroke-width:10;stroke-linecap:butt;stroke-dasharray:none;stroke-opacity:1" d="m 5025.6045,1850.8139 v -393.478" id="path57"/>
      <path style="font-variation-settings:'wdth' 70,'wght' 600;fill:none;stroke:#bec3c6;stroke-width:10;stroke-linecap:butt;stroke-dasharray:none;stroke-opacity:1" d="M 4860.0254,1532.9963 H 4716.8663" id="path58"/>
      <path style="font-variation-settings:'wdth' 70,'wght' 600;fill:none;stroke:#bec3c6;stroke-width:10;stroke-linecap:butt;stroke-dasharray:none;stroke-opacity:1" d="m 5025.6045,1532.9963 h -65.5791" id="path59"/>
      <path style="font-variation-settings:'wdth' 70,'wght' 600;fill:none;stroke:#bec3c6;stroke-width:45;stroke-linecap:butt;stroke-dasharray:none;stroke-opacity:1" d="m 2847.7802,448.39324 v 90.79112" id="path60"/>
      <path style="font-variation-settings:'wdth' 70,'wght' 600;fill:none;stroke:#bec3c6;stroke-width:45;stroke-linecap:butt;stroke-dasharray:none;stroke-opacity:1" d="m 2847.7802,132.27078 v 87.18338" id="path61"/>
      <path style="font-variation-settings:'wdth' 70,'wght' 600;fill:none;stroke:#bec3c6;stroke-width:10;stroke-linecap:butt;stroke-dasharray:none;stroke-opacity:1" d="m 2655.3548,843.00015 h -68.2987" id="path62"/>
      <path style="font-variation-settings:'wdth' 70,'wght' 600;fill:none;stroke:#bec3c6;stroke-width:10;stroke-linecap:butt;stroke-dasharray:none;stroke-opacity:1" d="m 3115.0351,843.00015 h -68.2987" id="path63"/>
      <path style="font-variation-settings:'wdth' 70,'wght' 600;fill:none;stroke:#bec3c6;stroke-width:10;stroke-linecap:butt;stroke-dasharray:none;stroke-opacity:1" d="m 2881.9295,843.00015 h -68.2987" id="path65"/>
      <rect style="font-variation-settings:'wdth' 70,'wght' 600;fill:#bec3c6;fill-opacity:1;stroke:none;stroke-width:0;stroke-linecap:butt;stroke-dasharray:none;stroke-opacity:1" id="rect72" width="105.50003" height="292.49976" x="2519.4058" y="1173.5002"/>
    </g>
    <g id="icons_1" transform="matrix(0.02439371,0,0,0.02439371,-0.02443957,244.19953)" style="display:inline">
      <path d="m 5498.731,1690.325 v -31.8652 h -10.1036 v -32.2539 q 0,-3.5622 2.5583,-6.1205 2.5583,-2.5583 6.1205,-2.5583 h 19.9482 q 3.5621,0 6.1204,2.5583 2.5583,2.5583 2.5583,6.1205 v 32.2539 h -10.1036 v 31.8652 z m 8.5596,-82.6425 q -3.6891,0 -6.1891,-2.5544 -2.5,-2.5545 -2.5,-6.1139 0,-3.6892 2.4896,-6.1892 2.4899,-2.5 6.1788,-2.5 3.6891,0 6.1891,2.4897 2.5,2.4897 2.5,6.1787 0,3.5596 -2.4896,6.1244 -2.4897,2.5647 -6.1788,2.5647 z" id="path1-7" style="fill:#fff;fill-opacity:.798742;stroke-width:.129534;filter:url(#filter17)"/>
      <path d="m 5174.1563,1690.325 v -30.0518 h -14.7668 l 14.2098,-39.4458 q 1.121,-2.8983 3.8366,-4.5889 2.7155,-1.6907 5.7878,-1.6907 3.0723,0 5.7878,1.6907 2.7156,1.6906 3.8542,4.5779 l 14.1922,39.4568 h -14.7668 v 30.0518 z m 9.0778,-82.6424 q -3.6892,0 -6.1892,-2.5504 -2.5,-2.5504 -2.5,-6.118 0,-3.6892 2.4897,-6.1892 2.4899,-2.5 6.1787,-2.5 3.6892,0 6.1892,2.4897 2.5,2.4897 2.5,6.114 0,3.6243 -2.4897,6.1891 -2.4896,2.5648 -6.1787,2.5648 z" id="path1-8" style="fill:#fff;fill-opacity:.803459;stroke-width:.129534;filter:url(#filter15)"/>
      <g id="elevator_1" style="filter:url(#filter65)" transform="translate(279.7331,292.3392)">
        <rect style="font-variation-settings:'wdth' 70,'wght' 600;fill:none;fill-opacity:1;stroke:#d6d7de;stroke-width:4.78791;stroke-linejoin:miter;stroke-dasharray:none;stroke-opacity:1" id="rect64" width="95.212135" height="95.212151" x="2405.0667" y="979.80487" ry="9.1410179"/>
        <path d="m 2427.7505,1062.6135 h 12.6169 v -23.8318 h 6.2306 v -17.757 c 0,-2.6337 -0.8992,-4.8497 -2.6976,-6.6481 -1.7985,-1.7985 -4.0665,-2.6977 -6.804,-2.6977 h -6.2306 c -2.7375,0 -4.9794,0.8992 -6.7258,2.6977 -1.7466,1.7984 -2.6199,4.0144 -2.6199,6.6481 v 17.757 h 6.2304 z m 6.1958,-54.9845 c 2.1478,0 3.9626,-0.7033 5.4445,-2.1098 1.4819,-1.4064 2.2228,-3.2356 2.2228,-5.4875 0,-2.148 -0.7292,-3.93697 -2.1877,-5.3669 -1.4583,-1.42987 -3.2615,-2.1448 -5.4096,-2.1448 -2.1481,0 -3.937,0.70327 -5.3669,2.1098 -1.4299,1.4064 -2.1449,3.18367 -2.1449,5.3318 0,2.2518 0.7033,4.0926 2.11,5.5225 1.4064,1.4299 3.1837,2.1449 5.3318,2.1449 z m 28.3838,9.9689 h 20.0934 l -9.9688,-16.1994 z m 10.1246,35.6697 9.9688,-16.1993 h -20.0934 z" id="path64" style="fill:#d5d6dd;fill-opacity:1;stroke-width:0;stroke-dasharray:none"/>
      </g>
      <path d="m 5322.8392,1283.8815 q -3.9473,0 -6.5946,-2.7239 -2.6471,-2.7239 -2.6471,-6.4979 0,-3.822 2.6373,-6.5319 2.6373,-2.7098 6.5844,-2.7098 3.7739,0 6.5078,2.6999 2.7339,2.6999 2.7339,6.5219 0,3.7739 -2.7239,6.5078 -2.7239,2.7339 -6.4978,2.7339 z m 26.7422,81.5365 v -24.9615 q 0,-0.5776 -0.3371,-0.9145 -0.3369,-0.337 -0.9146,-0.337 h -25.4041 q -3.8324,0 -6.4262,-2.6565 -2.594,-2.6563 -2.594,-6.3154 v -30.5737 q 0,-3.8323 2.5272,-6.5032 2.5269,-2.6708 6.4579,-2.6708 2.0239,0 4.2542,0.9433 2.2306,0.9435 4.7623,4.178 4.611,6.161 11.0465,10.4158 6.4352,4.2549 14.3288,4.7171 v 7.3063 q -7.1908,-0.3851 -13.655,-3.4848 -6.4643,-3.0997 -12.4617,-8.5966 v 23.6912 h 16.7021 q 3.7553,0 6.3876,2.6323 2.6323,2.6324 2.6323,6.3396 v 26.7904 z m -37.4473,0 q -10.406,0 -17.4624,-7.0562 -7.0562,-7.0562 -7.0562,-17.4625 0,-8.635 5.824,-15.3832 5.824,-6.7481 15.2484,-8.4038 v 8.1343 q -6.1899,0.6545 -9.9395,5.3763 -3.7494,4.7219 -3.7494,10.2764 0,7.3451 4.8324,12.2787 4.8326,4.9336 12.3027,4.9336 5.5547,0 10.2524,-3.7496 4.6976,-3.7496 5.2753,-9.9394 h 8.1344 q -1.4827,9.2992 -8.2548,15.1473 -6.7723,5.848 -15.4073,5.848 z" id="path1-9" style="display:inline;fill:#fff;fill-opacity:.803459;stroke-width:.125;stroke-dasharray:none;filter:url(#filter182-2)"/>
    </g>
    <path id="roomNames_1" d="m 379.38869,87.098644 v -7.616 h 8.832 v -23.488 h -7.616 v -5.824 q 3.328,-0.64 5.632,-1.536 2.368,-0.896 4.48,-2.176 h 6.912 v 33.024 h 7.616 v 7.616 z m 46.20799,0.768 q -6.528,0 -10.56,-5.44 -3.968,-5.44 -3.968,-15.808 0,-10.432 3.968,-15.68 4.032,-5.248 10.56,-5.248 6.528,0 10.496,5.312 4.032,5.248 4.032,15.616 0,10.368 -4.032,15.808 -3.968,5.44 -10.496,5.44 z m 0,-7.296 q 1.6,0 2.88,-1.152 1.28,-1.216 1.984,-4.224 0.768,-3.072 0.768,-8.576 0,-5.568 -0.768,-8.512 -0.704,-2.944 -1.984,-4.032 -1.28,-1.088 -2.88,-1.088 -1.6,0 -2.88,1.088 -1.28,1.088 -2.048,4.032 -0.704,2.944 -0.704,8.512 0,5.504 0.704,8.576 0.768,3.008 2.048,4.224 1.28,1.152 2.88,1.152 z m 35.712,6.528 v -23.488 q 0,-1.92 0.128,-4.544 0.192,-2.624 0.256,-4.544 h -0.256 q -0.768,1.664 -1.6,3.392 -0.832,1.664 -1.728,3.456 l -5.376,8.832 h 22.016 v 7.168 h -31.04 v -6.464 l 14.848,-24.448 h 11.52 v 40.64 z M 407.26063,7.8666438 q -5.696,0 -10.368,-2.368 -4.608,-2.432 -7.36,-7.168 -2.688,-4.8 -2.688,-11.8399998 0,-5.184 1.6,-9.216 1.6,-4.096 4.416,-6.912 2.816,-2.816 6.464,-4.288 3.712,-1.472 7.872,-1.472 4.544,0 7.808,1.6 3.264,1.6 5.312,3.84 l -4.928,5.696 q -1.536,-1.408 -3.392,-2.176 -1.792,-0.832 -4.48,-0.832 -3.2,0 -5.696,1.664 -2.496,1.6 -3.904,4.608 -1.408,3.008 -1.408,7.168 0,4.2879998 1.28,7.3599998 1.344,3.008 3.904,4.608 2.624,1.59999999 6.528,1.59999999 1.28,0 2.496,-0.32 1.216,-0.32 1.984,-0.95999999 v -7.168 h -6.912 v -7.6799998 h 15.232 V 2.8106438 q -2.112,2.112 -5.76,3.584 -3.584,1.472 -8,1.472 z m 38.84804,0 q -4.096,0 -7.232,-1.088 -3.072,-1.152 -5.184,-3.52 -2.112,-2.43200001 -3.2,-6.144 -1.088,-3.712 -1.088,-8.8319998 v -22.912 h 9.472 v 23.872 q 0,3.9039998 0.832,6.2079998 0.832,2.24 2.432,3.264 1.6,1.02399999 3.968,1.02399999 2.304,0 3.968,-1.02399999 1.664,-1.024 2.496,-3.264 0.896,-2.304 0.896,-6.2079998 v -23.872 h 9.088 v 22.912 q 0,5.1199998 -1.088,8.8319998 -1.024,3.71199999 -3.136,6.144 -2.048,2.368 -5.12,3.52 -3.072,1.088 -7.104,1.088 z M 735.3453,117.53061 v -11.424 h 13.248 v -35.232 h -11.424 v -8.736 q 4.992,-0.96 8.448,-2.304 3.552,-1.344 6.72,-3.264 h 10.368 v 49.536 h 11.424 v 11.424 z m 69.31199,1.152 q -9.792,0 -15.84,-8.16 -5.952,-8.16 -5.952,-23.712 0,-15.648 5.952,-23.52 6.048,-7.872 15.84,-7.872 9.792,0 15.744,7.968 6.048,7.872 6.048,23.424 0,15.552 -6.048,23.712 -5.952,8.16 -15.744,8.16 z m 0,-10.944 q 2.4,0 4.32,-1.728 1.92,-1.824 2.976,-6.336 1.152,-4.608 1.152,-12.864 0,-8.352 -1.152,-12.768 -1.056,-4.416 -2.976,-6.048 -1.92,-1.632 -4.32,-1.632 -2.4,0 -4.32,1.632 -1.92,1.632 -3.072,6.048 -1.056,4.416 -1.056,12.768 0,8.256 1.056,12.864 1.152,4.512 3.072,6.336 1.92,1.728 4.32,1.728 z m 48.67198,10.944 q -4.896,0 -8.928,-1.152 -3.936,-1.056 -7.008,-2.976 -3.072,-1.92 -5.28,-4.512 l 6.528,-8.928 q 2.784,2.688 6.144,4.416 3.36,1.728 7.2,1.728 4.416,0 7.104,-1.824 2.784,-1.92 2.784,-5.376 0,-2.688 -1.344,-4.608 -1.344,-2.016 -4.896,-3.072 -3.456,-1.056 -10.176,-1.056 v -9.984 q 5.472,0 8.64,-1.056 3.168,-1.056 4.416,-2.88 1.344,-1.824 1.344,-4.224 0,-3.264 -2.016,-4.992 -1.92,-1.728 -5.472,-1.728 -3.264,0 -5.952,1.44 -2.592,1.344 -5.472,3.936 l -7.104,-8.64 q 4.224,-3.648 8.928,-5.664 4.704,-2.112 10.272,-2.112 6.24,0 10.944,2.016 4.8,1.92 7.392,5.664 2.688,3.648 2.688,9.024 0,4.704 -2.688,8.064 -2.592,3.36 -7.488,5.472 v 0.384 q 3.456,1.056 6.24,3.072 2.784,1.92 4.32,4.896 1.536,2.976 1.536,6.912 0,5.664 -3.168,9.696 -3.072,3.936 -8.256,6.048 -5.088,2.016 -11.232,2.016 z m -76.17606,-120 q -8.544,0 -15.552,-3.552 -6.912,-3.648 -11.04,-10.752 -4.032,-7.2 -4.032,-17.76 0,-7.776 2.4,-13.824 2.4,-6.144 6.624,-10.368 4.224,-4.224 9.696,-6.432 5.568,-2.208 11.808,-2.208 6.816,0 11.712,2.4 4.896,2.4 7.968,5.76 l -7.392,8.544 q -2.304,-2.112 -5.088,-3.264 -2.688,-1.248 -6.72,-1.248 -4.8,0 -8.544,2.496 -3.744,2.4 -5.856,6.912 -2.112,4.512 -2.112,10.752 0,6.432 1.92,11.04 2.016,4.512 5.856,6.912 3.936,2.4 9.792,2.4 1.92,0 3.744,-0.48 1.824,-0.48 2.976,-1.44 v -10.752 h -10.368 v -11.52 h 22.848 v 28.8 q -3.168,3.168 -8.64,5.376 -5.376,2.208 -12,2.208 z m 58.27205,0 q -6.144,0 -10.848,-1.632 -4.608,-1.728 -7.776,-5.28 -3.168,-3.648 -4.8,-9.216 -1.632,-5.568 -1.632,-13.248 v -34.368 h 14.208 v 35.808 q 0,5.856 1.248,9.312 1.248,3.36 3.648,4.896 2.4,1.536 5.952,1.536 3.456,0 5.952,-1.536 2.496,-1.536 3.744,-4.896 1.344,-3.456 1.344,-9.312 v -35.808 h 13.632 v 34.368 q 0,7.68 -1.632,13.248 -1.536,5.568 -4.704,9.216 -3.072,3.552 -7.68,5.28 -4.608,1.632 -10.656,1.632 z M -1391.2289,362.40772 v -7.616 h 8.832 v -23.488 h -7.616 v -5.824 q 3.328,-0.64 5.632,-1.536 2.368,-0.896 4.48,-2.176 h 6.912 v 33.024 h 7.616 v 7.616 z m 46.208,0.768 q -6.528,0 -10.56,-5.44 -3.968,-5.44 -3.968,-15.808 0,-10.432 3.968,-15.68 4.032,-5.248 10.56,-5.248 6.528,0 10.496,5.312 4.032,5.248 4.032,15.616 0,10.368 -4.032,15.808 -3.968,5.44 -10.496,5.44 z m 0,-7.296 q 1.6,0 2.88,-1.152 1.28,-1.216 1.984,-4.224 0.768,-3.072 0.768,-8.576 0,-5.568 -0.768,-8.512 -0.704,-2.944 -1.984,-4.032 -1.28,-1.088 -2.88,-1.088 -1.6,0 -2.88,1.088 -1.28,1.088 -2.048,4.032 -0.704,2.944 -0.704,8.512 0,5.504 0.704,8.576 0.768,3.008 2.048,4.224 1.28,1.152 2.88,1.152 z m 31.552,7.296 q -4.032,0 -6.976,-1.472 -2.944,-1.472 -4.928,-3.392 l 4.992,-5.632 q 1.024,1.152 2.752,2.048 1.792,0.832 3.52,0.832 2.432,0 4.288,-1.344 1.92,-1.344 3.008,-4.48 1.152,-3.2 1.152,-8.576 0,-5.056 -0.96,-7.872 -0.896,-2.88 -2.432,-4.032 -1.472,-1.216 -3.2,-1.216 -1.344,0 -2.56,0.704 -1.152,0.704 -1.856,2.112 -0.704,1.408 -0.704,3.776 0,2.112 0.704,3.456 0.704,1.28 1.92,1.856 1.216,0.576 2.752,0.576 1.6,0 3.264,-0.96 1.664,-1.024 3.008,-3.392 l 0.448,6.144 q -1.536,2.24 -4.032,3.584 -2.496,1.28 -4.544,1.28 -3.456,0 -6.208,-1.344 -2.752,-1.344 -4.352,-4.096 -1.536,-2.816 -1.536,-7.104 0,-4.224 1.856,-7.296 1.856,-3.072 4.928,-4.672 3.072,-1.664 6.72,-1.664 3.008,0 5.76,1.152 2.752,1.152 4.864,3.584 2.176,2.432 3.456,6.272 1.344,3.776 1.344,9.152 0,5.696 -1.408,9.856 -1.344,4.16 -3.648,6.848 -2.304,2.688 -5.248,4.032 -2.944,1.28 -6.144,1.28 z m 19.904,8.192 v -5.312 h 30.464 v 5.312 z m 30.848,-8.96 13.056,-41.728 h 11.264 l 13.12,41.728 h -9.984 l -5.44,-21.12 q -0.896,-3.136 -1.728,-6.656 -0.832,-3.52 -1.664,-6.784 h -0.256 q -0.704,3.264 -1.536,6.784 -0.832,3.52 -1.728,6.656 l -5.504,21.12 z m 8.576,-9.92 v -7.36 h 20.096 v 7.36 z m -74.8801,-69.312 q -5.696,0 -10.368,-2.368 -4.608,-2.432 -7.36,-7.168 -2.688,-4.8 -2.688,-11.84 0,-5.184 1.6,-9.216 1.6,-4.096 4.416,-6.912 2.816,-2.816 6.464,-4.288 3.712,-1.472 7.872,-1.472 4.544,0 7.808,1.6 3.264,1.6 5.312,3.84 l -4.928,5.696 q -1.536,-1.408 -3.392,-2.176 -1.792,-0.832 -4.48,-0.832 -3.2,0 -5.696,1.664 -2.496,1.6 -3.904,4.608 -1.408,3.008 -1.408,7.168 0,4.288 1.28,7.36 1.344,3.008 3.904,4.608 2.624,1.6 6.528,1.6 1.28,0 2.496,-0.32 1.216,-0.32 1.984,-0.96 v -7.168 h -6.912 v -7.68 h 15.232 v 19.2 q -2.112,2.112 -5.76,3.584 -3.584,1.472 -8,1.472 z m 38.8481,0 q -4.096,0 -7.232,-1.088 -3.072,-1.152 -5.184,-3.52 -2.112,-2.432 -3.2,-6.144 -1.088,-3.712 -1.088,-8.832 v -22.912 h 9.472 v 23.872 q 0,3.904 0.832,6.208 0.832,2.24 2.432,3.264 1.6,1.024 3.968,1.024 2.304,0 3.968,-1.024 1.664,-1.024 2.496,-3.264 0.896,-2.304 0.896,-6.208 v -23.872 h 9.088 v 22.912 q 0,5.12 -1.088,8.832 -1.024,3.712 -3.136,6.144 -2.048,2.368 -5.12,3.52 -3.072,1.088 -7.104,1.088 z M -169.2028,117.53068 v -11.424 h 13.248 v -35.232 h -11.424 v -8.736 q 4.992,-0.96 8.448,-2.304 3.552,-1.344 6.72,-3.264 h 10.368 v 49.536 h 11.424 v 11.424 z m 69.31199,1.152 q -9.792,0 -15.84,-8.16 -5.952,-8.16 -5.952,-23.712 0,-15.648 5.952,-23.52 6.048,-7.872 15.84,-7.872 9.792,0 15.744,7.968 6.048,7.872 6.048,23.424 0,15.552 -6.048,23.712 -5.952,8.16 -15.744,8.16 z m 0,-10.944 q 2.4,0 4.32,-1.728 1.92,-1.824 2.976,-6.336 1.152,-4.608 1.152,-12.864 0,-8.352 -1.152,-12.768 -1.056,-4.416 -2.976,-6.048 -1.92,-1.632 -4.32,-1.632 -2.4,0 -4.32,1.632 -1.92,1.632 -3.072,6.048 -1.056,4.416 -1.056,12.768 0,8.256 1.056,12.864 1.152,4.512 3.072,6.336 1.92,1.728 4.32,1.728 z m 49.05598,10.944 q -4.992,0 -9.024,-1.152 -3.936,-1.152 -7.008,-3.072 -3.072,-1.92 -5.472,-4.32 l 6.336,-8.928 q 2.784,2.496 6.048,4.32 3.264,1.728 7.104,1.728 3.072,0 5.376,-1.056 2.304,-1.152 3.552,-3.264 1.344,-2.112 1.344,-5.184 0,-4.608 -2.688,-7.008 -2.688,-2.4 -6.912,-2.4 -2.592,0 -4.416,0.672 -1.824,0.672 -4.608,2.4 l -6.336,-4.032 1.728,-30.816 h 34.56 v 11.904 h -22.368 l -1.056,11.424 q 1.824,-0.768 3.36,-1.056 1.536,-0.384 3.456,-0.384 5.28,0 9.696,2.016 4.416,2.016 7.008,6.24 2.688,4.224 2.688,10.656 0,6.816 -3.168,11.616 -3.072,4.704 -8.16,7.2 -5.088,2.496 -11.04,2.496 z m -76.56006,-120 q -8.544,0 -15.552,-3.552 -6.912,-3.648 -11.04,-10.752 -4.032,-7.2 -4.032,-17.76 0,-7.776 2.4,-13.824 2.4,-6.144 6.624,-10.368 4.224,-4.224 9.696,-6.432 5.568,-2.208 11.808,-2.208 6.816,0 11.712,2.4 4.896,2.4 7.968,5.76 l -7.392,8.544 q -2.304,-2.112 -5.088,-3.264 -2.688,-1.248 -6.72,-1.248 -4.8,0 -8.544,2.496 -3.744,2.4 -5.856,6.912 -2.112,4.512 -2.112,10.752 0,6.432 1.92,11.04 2.016,4.512 5.856,6.912 3.936,2.4 9.792,2.4 1.92,0 3.744,-0.48 1.824,-0.48 2.976,-1.44 v -10.752 h -10.368 v -11.52 h 22.848 v 28.8 q -3.168,3.168 -8.64,5.376 -5.376,2.208 -12,2.208 z m 58.27205,0 q -6.144,0 -10.848,-1.632 -4.608,-1.728 -7.776,-5.28 -3.168,-3.648 -4.8,-9.216 -1.632,-5.568 -1.632,-13.248 v -34.368 h 14.208 v 35.808 q 0,5.856 1.248,9.312 1.248,3.36 3.648,4.896 2.4,1.536 5.952,1.536 3.456,0 5.952,-1.536 2.496,-1.536 3.744,-4.896 1.344,-3.456 1.344,-9.312 v -35.808 h 13.632 v 34.368 q 0,7.68 -1.632,13.248 -1.536,5.568 -4.704,9.216 -3.072,3.552 -7.68,5.28 -4.608,1.632 -10.656,1.632 z M -3588.8086,342.65942 v -7.616 h 8.832 v -23.488 h -7.616 v -5.824 q 3.328,-0.64 5.632,-1.536 2.368,-0.896 4.48,-2.176 h 6.912 v 33.024 h 7.616 v 7.616 z m 33.792,0 v -7.616 h 8.832 v -23.488 h -7.616 v -5.824 q 3.328,-0.64 5.632,-1.536 2.368,-0.896 4.48,-2.176 h 6.912 v 33.024 h 7.616 v 7.616 z m 31.68,0 v -5.824 q 5.12,-4.544 9.088,-8.512 4.032,-3.968 6.272,-7.36 2.304,-3.392 2.304,-6.208 0,-3.008 -1.536,-4.544 -1.536,-1.6 -4.224,-1.6 -2.176,0 -3.968,1.28 -1.728,1.216 -3.264,2.88 l -4.928,-4.864 q 2.944,-3.328 6.016,-4.992 3.136,-1.664 7.424,-1.664 3.968,0 6.976,1.6 3.072,1.6 4.736,4.48 1.728,2.88 1.728,6.784 0,3.648 -1.984,7.168 -1.92,3.456 -5.12,6.912 -3.2,3.456 -6.784,7.04 1.536,-0.192 3.456,-0.32 1.92,-0.192 3.328,-0.192 h 9.088 v 7.936 z m 32.192,8.96 v -5.312 h 30.464 v 5.312 z m 30.848,-8.96 13.056,-41.728 h 11.264 l 13.12,41.728 h -9.984 l -5.44,-21.12 q -0.896,-3.136 -1.728,-6.656 -0.832,-3.52 -1.664,-6.784 h -0.256 q -0.704,3.264 -1.536,6.784 -0.832,3.52 -1.728,6.656 l -5.504,21.12 z m 8.576,-9.92 v -7.36 h 20.096 v 7.36 z m -74.8801,-69.312 q -5.696,0 -10.368,-2.368 -4.608,-2.432 -7.36,-7.168 -2.688,-4.8 -2.688,-11.84 0,-5.184 1.6,-9.216 1.6,-4.096 4.416,-6.912 2.816,-2.816 6.464,-4.288 3.712,-1.472 7.872,-1.472 4.544,0 7.808,1.6 3.264,1.6 5.312,3.84 l -4.928,5.696 q -1.536,-1.408 -3.392,-2.176 -1.792,-0.832 -4.48,-0.832 -3.2,0 -5.696,1.664 -2.496,1.6 -3.904,4.608 -1.408,3.008 -1.408,7.168 0,4.288 1.28,7.36 1.344,3.008 3.904,4.608 2.624,1.6 6.528,1.6 1.28,0 2.496,-0.32 1.216,-0.32 1.984,-0.96 v -7.168 h -6.912 v -7.68 h 15.232 v 19.2 q -2.112,2.112 -5.76,3.584 -3.584,1.472 -8,1.472 z m 38.8481,0 q -4.096,0 -7.232,-1.088 -3.072,-1.152 -5.184,-3.52 -2.112,-2.432 -3.2,-6.144 -1.088,-3.712 -1.088,-8.832 v -22.912 h 9.472 v 23.872 q 0,3.904 0.832,6.208 0.832,2.24 2.432,3.264 1.6,1.024 3.968,1.024 2.304,0 3.968,-1.024 1.664,-1.024 2.496,-3.264 0.896,-2.304 0.896,-6.208 v -23.872 h 9.088 v 22.912 q 0,5.12 -1.088,8.832 -1.024,3.712 -3.136,6.144 -2.048,2.368 -5.12,3.52 -3.072,1.088 -7.104,1.088 z m -2326.2219,-969.60077 v -22.848 h 26.496 v -70.464 h -22.848 v -17.472 q 9.984,-1.92 16.896,-4.608 7.104,-2.688 13.44,-6.528 h 20.736 v 99.072 h 22.848 v 22.848 z m 101.3759,0 v -22.848 h 26.496 v -70.464 h -22.848 v -17.472 q 9.984,-1.92 16.896,-4.608 7.104,-2.688 13.44,-6.528 h 20.736 v 99.072 h 22.848 v 22.848 z m 135.36,2.304 q -9.984,0 -18.048,-2.304 -7.872,-2.304 -14.016,-6.144 -6.144,-3.84 -10.944,-8.64 l 12.672,-17.856 q 5.568,4.992 12.096,8.64 6.528,3.456 14.208,3.456 6.144,0 10.752,-2.112 4.608,-2.304 7.104,-6.528 2.688,-4.224 2.688,-10.368 0,-9.216 -5.376,-14.016 -5.376,-4.8 -13.824,-4.8 -5.184,0 -8.832,1.344 -3.648,1.344 -9.216,4.8 l -12.672,-8.064 3.456,-61.632 h 69.12 v 23.808 h -44.736 l -2.112,22.848 q 3.648,-1.536 6.72,-2.112 3.072,-0.768 6.912,-0.768 10.56,0 19.392,4.032 8.832,4.032 14.016,12.48 5.376,8.448 5.376,21.312 0,13.632 -6.336,23.232 -6.144,9.408 -16.32,14.4 -10.176,4.992 -22.08,4.992 z m -153.1201,-240 q -17.088,0 -31.104,-7.104 -13.824,-7.296 -22.08,-21.504 -8.064,-14.4 -8.064,-35.52005 0,-15.552 4.8,-27.648 4.8,-12.288 13.248,-20.736 8.448,-8.448 19.392,-12.864 11.136,-4.416 23.616,-4.416 13.632,0 23.424,4.8 9.792,4.8 15.936,11.52 l -14.784,17.088 q -4.608,-4.224 -10.176,-6.528 -5.376,-2.496 -13.44,-2.496 -9.6,0 -17.088,4.992 -7.488,4.8 -11.712,13.824 -4.224,9.024 -4.224,21.504 0,12.86405 3.84,22.08005 4.032,9.024 11.712,13.824 7.872,4.8 19.584,4.8 3.84,0 7.488,-0.96 3.648,-0.96 5.952,-2.88 v -21.504 h -20.736 v -23.04005 h 45.696 v 57.60005 q -6.336,6.336 -17.28,10.752 -10.752,4.416 -24,4.416 z m 116.5441,0 q -12.288,0 -21.696,-3.264 -9.216,-3.456 -15.552,-10.56 -6.336,-7.296 -9.6,-18.432 -3.264,-11.136 -3.264,-26.49605 v -68.736 h 28.416 v 71.61605 q 0,11.712 2.496,18.624 2.496,6.72 7.296,9.792 4.8,3.072 11.904,3.072 6.912,0 11.904,-3.072 4.992,-3.072 7.488,-9.792 2.688,-6.912 2.688,-18.624 v -71.61605 h 27.264 v 68.736 q 0,15.36005 -3.264,26.49605 -3.072,11.136 -9.408,18.432 -6.144,7.104 -15.36,10.56 -9.216,3.264 -21.312,3.264 z m -202.8682,1268.34797 v -22.848 h 26.496 v -70.464 h -22.848 v -17.472 q 9.984,-1.92 16.896,-4.608 7.104,-2.688 13.44,-6.528 h 20.736 v 99.072 h 22.848 v 22.848 z m 101.3759,0 v -22.848 h 26.496 v -70.464 h -22.848 v -17.472 q 9.984,-1.92 16.896,-4.608 7.104,-2.688 13.44,-6.528 h 20.736 v 99.072 h 22.848 v 22.848 z m 144.384,0 v -70.464 q 0,-5.76 0.384,-13.632 0.576,-7.872 0.768,-13.632 h -0.768 q -2.304,4.992 -4.8,10.176 -2.496,4.992 -5.184,10.368 l -16.128,26.496 h 66.048 v 21.504 h -93.12 v -19.392 l 44.544,-73.344 h 34.56 v 121.92 z m -162.1441,-237.696 q -17.088,0 -31.104,-7.104 -13.824,-7.296 -22.08,-21.504002 -8.064,-14.4 -8.064,-35.52 0,-15.552 4.8,-27.648 4.8,-12.288 13.248,-20.736 8.448,-8.448 19.392,-12.864 11.136,-4.416 23.616,-4.416 13.632,0 23.424,4.8 9.792,4.8 15.936,11.52 l -14.784,17.088 q -4.608,-4.224 -10.176,-6.528 -5.376,-2.496 -13.44,-2.496 -9.6,0 -17.088,4.992 -7.488,4.8 -11.712,13.824 -4.224,9.024 -4.224,21.504 0,12.864 3.84,22.08 4.032,9.024 11.712,13.824 7.872,4.8 19.584,4.8 3.84,0 7.488,-0.96 3.648,-0.96 5.952,-2.88 v -21.504 h -20.736 v -23.04 h 45.696 V 71.61462 q -6.336,6.336 -17.28,10.752 -10.752,4.416 -24,4.416 z m 116.5441,0 q -12.288,0 -21.696,-3.264 -9.216,-3.456 -15.552,-10.56 -6.336,-7.296002 -9.6,-18.432002 -3.264,-11.136 -3.264,-26.496 v -68.736 h 28.416 v 71.616 q 0,11.712 2.496,18.624 2.496,6.72 7.296,9.792 4.8,3.072 11.904,3.072 6.912,0 11.904,-3.072 4.992,-3.072 7.488,-9.792 2.688,-6.912 2.688,-18.624 v -71.616 h 27.264 v 68.736 q 0,15.36 -3.264,26.496 -3.072,11.136 -9.408,18.432002 -6.144,7.104 -15.36,10.56 -9.216,3.264 -21.312,3.264 z m 742.8822,236.544 v -22.848 h 26.496 v -70.464 h -22.848 v -17.472 q 9.984,-1.92 16.896,-4.608 7.104,-2.688 13.44,-6.528 h 20.736 v 99.072 h 22.848 v 22.848 z m 101.376,0 v -22.848 h 26.496 v -70.464 h -22.848 v -17.472 q 9.984,-1.92 16.896,-4.608 7.104,-2.688 13.44,-6.528 h 20.736 v 99.072 h 22.848 v 22.848 z m 134.592,2.304 q -9.792,0 -17.856,-2.304 -7.872,-2.112 -14.016,-5.952 -6.144,-3.84 -10.56,-9.024 l 13.056,-17.856 q 5.568,5.376 12.288,8.832 6.72,3.456 14.4,3.456 8.832,0 14.208,-3.648 5.568,-3.84 5.568,-10.752 0,-5.376 -2.688,-9.216 -2.688,-4.032 -9.792,-6.144 -6.912,-2.112 -20.352,-2.112 v -19.968 q 10.944,0 17.28,-2.112 6.336,-2.112 8.832,-5.76 2.688,-3.648 2.688,-8.448 0,-6.528 -4.032,-9.984 -3.84,-3.456 -10.944,-3.456 -6.528,0 -11.904,2.88 -5.184,2.688 -10.944,7.872 l -14.208,-17.28 q 8.448,-7.296 17.856,-11.328 9.408,-4.224 20.544,-4.224 12.48,0 21.888,4.032 9.6,3.84 14.784,11.328 5.376,7.296 5.376,18.048 0,9.408 -5.376,16.128 -5.184,6.72 -14.976,10.944 v 0.768 q 6.912,2.112 12.48,6.144 5.568,3.84 8.64,9.792 3.072,5.952 3.072,13.824 0,11.328 -6.336,19.392 -6.144,7.872 -16.512,12.096 -10.176,4.032 -22.464,4.032 z m -152.3522,-240 q -17.088,0 -31.104,-7.104 -13.824,-7.296 -22.08,-21.504002 -8.064,-14.4 -8.064,-35.52 0,-15.552 4.8,-27.648 4.8,-12.288 13.248,-20.736 8.448,-8.448 19.392,-12.864 11.136,-4.416 23.616,-4.416 13.632,0 23.424,4.8 9.792,4.8 15.936,11.52 l -14.784,17.088 q -4.608,-4.224 -10.176,-6.528 -5.376,-2.496 -13.44,-2.496 -9.6,0 -17.088,4.992 -7.488,4.8 -11.712,13.824 -4.224,9.024 -4.224,21.504 0,12.864 3.84,22.08 4.032,9.024 11.712,13.824 7.872,4.8 19.584,4.8 3.84,0 7.488,-0.96 3.648,-0.96 5.952,-2.88 v -21.504 h -20.736 v -23.04 h 45.696 V 70.46262 q -6.336,6.336 -17.28,10.752 -10.752,4.416 -24,4.416 z m 116.5441,0 q -12.288,0 -21.696,-3.264 -9.216,-3.456 -15.552,-10.56 -6.336,-7.296002 -9.6,-18.432002 -3.264,-11.136 -3.264,-26.496 v -68.736 h 28.416 v 71.616 q 0,11.712 2.496,18.624 2.496,6.72 7.296,9.792 4.8,3.072 11.904,3.072 6.912,0 11.904,-3.072 4.992,-3.072 7.488,-9.792 2.688,-6.912 2.688,-18.624 v -71.616 h 27.264 v 68.736 q 0,15.36 -3.264,26.496 -3.072,11.136 -9.408,18.432002 -6.144,7.104 -15.36,10.56 -9.216,3.264 -21.312,3.264 z m 565.9675,238.84803 v -22.848 h 26.496 v -70.464 h -22.848 v -17.472 q 9.984,-1.92 16.896,-4.608 7.104,-2.688 13.44,-6.528 h 20.736 v 99.072 h 22.848 v 22.848 z m 101.376,0 v -22.848 h 26.496 v -70.464 h -22.848 v -17.472 q 9.984,-1.92 16.896,-4.608 7.104,-2.688 13.44,-6.528 h 20.736 v 99.072 h 22.848 v 22.848 z m 95.04,0 v -17.472 q 15.36,-13.632 27.264,-25.536 12.096,-11.904 18.816,-22.08 6.912,-10.176 6.912,-18.624 0,-9.024 -4.608,-13.632 -4.608,-4.8 -12.672,-4.8 -6.528,0 -11.904,3.84 -5.184,3.648 -9.792,8.64 l -14.784,-14.592 q 8.832,-9.984 18.048,-14.976 9.408,-4.992 22.272,-4.992 11.904,0 20.928,4.8 9.216,4.8 14.208,13.44 5.184,8.64 5.184,20.352 0,10.944 -5.952,21.504 -5.76,10.368 -15.36,20.736 -9.6,10.368 -20.352,21.12 4.608,-0.576 10.368,-0.96 5.76,-0.576 9.984,-0.576 h 27.264 v 23.808 z m -112.8002,-237.696 q -17.088,0 -31.104,-7.104 -13.824,-7.296 -22.08,-21.504002 -8.064,-14.4 -8.064,-35.52 0,-15.552 4.8,-27.648 4.8,-12.288 13.248,-20.736 8.448,-8.448 19.392,-12.864 11.136,-4.416 23.616,-4.416 13.632,0 23.424,4.8 9.792,4.8 15.936,11.52 l -14.784,17.088 q -4.608,-4.224 -10.176,-6.528 -5.376,-2.496 -13.44,-2.496 -9.6,0 -17.088,4.992 -7.488,4.8 -11.712,13.824 -4.224,9.024 -4.224,21.504 0,12.864 3.84,22.08 4.032,9.024 11.712,13.824 7.872,4.8 19.584,4.8 3.84,0 7.488,-0.96 3.648,-0.96 5.952,-2.88 v -21.504 h -20.736 v -23.04 h 45.696 V 71.61465 q -6.336,6.336 -17.28,10.752 -10.752,4.416 -24,4.416 z m 116.5441,0 q -12.288,0 -21.696,-3.264 -9.216,-3.456 -15.552,-10.56 -6.336,-7.296002 -9.6,-18.432002 -3.264,-11.136 -3.264,-26.496 v -68.736 h 28.416 v 71.616 q 0,11.712 2.496,18.624 2.496,6.72 7.296,9.792 4.8,3.072 11.904,3.072 6.912,0 11.904,-3.072 4.992,-3.072 7.488,-9.792 2.688,-6.912 2.688,-18.624 v -71.616 h 27.264 v 68.736 q 0,15.36 -3.264,26.496 -3.072,11.136 -9.408,18.432002 -6.144,7.104 -15.36,10.56 -9.216,3.264 -21.312,3.264 z m 891.4059,236.60283 v -22.848 h 26.496 v -70.464 h -22.848 v -17.472 q 9.984,-1.92 16.896,-4.608 7.104,-2.688 13.44,-6.528 h 20.736 v 99.072 h 22.848 v 22.848 z m 101.376,0 v -22.848 h 26.496 v -70.464 h -22.848 v -17.472 q 9.984,-1.92 16.896,-4.608 7.104,-2.688 13.44,-6.528 h 20.736 v 99.072 h 22.848 v 22.848 z m 101.376,0 v -22.848 h 26.496 v -70.464 h -22.848 v -17.472 q 9.984,-1.92 16.896,-4.608 7.104,-2.688 13.44,-6.528 h 20.736 v 99.072 h 22.848 v 22.848 z m -119.1362,-237.696 q -17.088,0 -31.104,-7.104 -13.824,-7.296 -22.08,-21.504002 -8.064,-14.4 -8.064,-35.52 0,-15.552 4.8,-27.648 4.8,-12.288 13.248,-20.736 8.448,-8.448 19.392,-12.864 11.136,-4.416 23.616,-4.416 13.632,0 23.424,4.8 9.792,4.8 15.936,11.52 l -14.784,17.088 q -4.608,-4.224 -10.176,-6.528 -5.376,-2.496 -13.44,-2.496 -9.6,0 -17.088,4.992 -7.488,4.8 -11.712,13.824 -4.224,9.024 -4.224,21.504 0,12.864 3.84,22.08 4.032,9.024 11.712,13.824 7.872,4.8 19.584,4.8 3.84,0 7.488,-0.96 3.648,-0.96 5.952,-2.88 v -21.504 h -20.736 v -23.04 h 45.696 V 70.52148 q -6.336,6.336 -17.28,10.752 -10.752,4.416 -24,4.416 z m 116.5441,0 q -12.288,0 -21.696,-3.264 -9.216,-3.456 -15.552,-10.56 -6.336,-7.296002 -9.6,-18.432002 -3.264,-11.136 -3.264,-26.496 v -68.736 h 28.416 v 71.616 q 0,11.712 2.496,18.624 2.496,6.72 7.296,9.792 4.8,3.072 11.904,3.072 6.912,0 11.904,-3.072 4.992,-3.072 7.488,-9.792 2.688,-6.912 2.688,-18.624 v -71.616 h 27.264 v 68.736 q 0,15.36 -3.264,26.496 -3.072,11.136 -9.408,18.432002 -6.144,7.104 -15.36,10.56 -9.216,3.264 -21.312,3.264 z m 732.751,236.54397 v -22.848 h 26.496 v -70.464 h -22.848 v -17.472 q 9.984,-1.92 16.896,-4.608 7.104,-2.688 13.44,-6.528 h 20.736 v 99.072 h 22.848 v 22.848 z m 101.376,0 v -22.848 h 26.496 v -70.464 h -22.848 v -17.472 q 9.984,-1.92 16.896,-4.608 7.104,-2.688 13.44,-6.528 h 20.736 v 99.072 h 22.848 v 22.848 z m 138.624,2.304 q -19.584,0 -31.68,-16.32 -11.904,-16.32 -11.904,-47.424 0,-31.296 11.904,-47.04 12.096,-15.744 31.68,-15.744 19.584,0 31.488,15.936 12.096,15.744 12.096,46.848 0,31.104 -12.096,47.424 -11.904,16.32 -31.488,16.32 z m 0,-21.888 q 4.8,0 8.64,-3.456 3.84,-3.648 5.952,-12.672 2.304,-9.216 2.304,-25.728 0,-16.704 -2.304,-25.536 -2.112,-8.832 -5.952,-12.096 -3.84,-3.264 -8.64,-3.264 -4.8,0 -8.64,3.264 -3.84,3.264 -6.144,12.096 -2.112,8.832 -2.112,25.536 0,16.512 2.112,25.728 2.304,9.024 6.144,12.672 3.84,3.456 8.64,3.456 z m -156.3842,-218.112 q -17.088,0 -31.104,-7.104 -13.824,-7.296 -22.08,-21.504002 -8.064,-14.4 -8.064,-35.52 0,-15.552 4.8,-27.648 4.8,-12.288 13.248,-20.736 8.448,-8.448 19.392,-12.864 11.136,-4.416 23.616,-4.416 13.632,0 23.424,4.8 9.792,4.8 15.936,11.52 l -14.784,17.088 q -4.608,-4.224 -10.176,-6.528 -5.376,-2.496 -13.44,-2.496 -9.6,0 -17.088,4.992 -7.488,4.8 -11.712,13.824 -4.224,9.024 -4.224,21.504 0,12.864 3.84,22.08 4.032,9.024 11.712,13.824 7.872,4.8 19.584,4.8 3.84,0 7.488,-0.96 3.648,-0.96 5.952,-2.88 v -21.504 h -20.736 v -23.04 h 45.696 V 69.36945 q -6.336,6.336 -17.28,10.752 -10.752,4.416 -24,4.416 z m 116.5441,0 q -12.288,0 -21.696,-3.264 -9.216,-3.456 -15.552,-10.56 -6.336,-7.296002 -9.6,-18.432002 -3.264,-11.136 -3.264,-26.496 v -68.736 h 28.416 v 71.616 q 0,11.712 2.496,18.624 2.496,6.72 7.296,9.792 4.8,3.072 11.904,3.072 6.912,0 11.904,-3.072 4.992,-3.072 7.488,-9.792 2.688,-6.912 2.688,-18.624 v -71.616 h 27.264 v 68.736 q 0,15.36 -3.264,26.496 -3.072,11.136 -9.408,18.432002 -6.144,7.104 -15.36,10.56 -9.216,3.264 -21.312,3.264 z m 495.1083,-12.50881 v -11.424 h 13.248 v -35.232 h -11.424 v -8.736 q 4.992,-0.96 8.448,-2.304 3.552,-1.344 6.72,-3.264 h 10.368 v 49.536 h 11.424 v 11.424 z m 69.312,1.152 q -9.792,0 -15.84,-8.16 -5.952,-8.16 -5.952,-23.712 0,-15.648 5.952,-23.52 6.048,-7.872 15.84,-7.872 9.792,0 15.744,7.968 6.048,7.872 6.048,23.424 0,15.552 -6.048,23.712 -5.952,8.16 -15.744,8.16 z m 0,-10.944 q 2.4,0 4.32,-1.728 1.92,-1.824 2.976,-6.336 1.152,-4.608 1.152,-12.864 0,-8.352 -1.152,-12.768 -1.056,-4.416 -2.976,-6.048 -1.92,-1.632 -4.32,-1.632 -2.4,0 -4.32,1.632 -1.92,1.632 -3.072,6.048 -1.056,4.416 -1.056,12.768 0,8.256 1.056,12.864 1.152,4.512 3.072,6.336 1.92,1.728 4.32,1.728 z m 47.328,10.944 q -6.048,0 -10.464,-2.208 -4.416,-2.208 -7.392,-5.088 l 7.488,-8.448 q 1.536,1.728 4.128,3.072 2.688,1.248 5.28,1.248 3.648,0 6.432,-2.016 2.88,-2.016 4.512,-6.72 1.728,-4.8 1.728,-12.864 0,-7.584 -1.44,-11.808 -1.344,-4.32 -3.648,-6.048 -2.208,-1.824 -4.8,-1.824 -2.016,0 -3.84,1.056 -1.728,1.056 -2.784,3.168 -1.056,2.112 -1.056,5.664 0,3.168 1.056,5.184 1.056,1.92 2.88,2.784 1.824,0.864 4.128,0.864 2.4,0 4.896,-1.44 2.496,-1.536 4.512,-5.088 l 0.672,9.216 q -2.304,3.36 -6.048,5.376 -3.744,1.92 -6.816,1.92 -5.184,0 -9.312,-2.016 -4.128,-2.016 -6.528,-6.144 -2.304,-4.224 -2.304,-10.656 0,-6.336 2.784,-10.944 2.784,-4.608 7.392,-7.008 4.608,-2.496 10.08,-2.496 4.512,0 8.64,1.728 4.128,1.728 7.296,5.376 3.264,3.648 5.184,9.408 2.016,5.664 2.016,13.728 0,8.544 -2.112,14.784 -2.016,6.24 -5.472,10.272 -3.456,4.032 -7.872,6.048 -4.416,1.92 -9.216,1.92 z m -74.8321,-120 q -8.544,0 -15.552,-3.552 -6.912,-3.648 -11.04,-10.752 -4.032,-7.2 -4.032,-17.76 0,-7.776 2.4,-13.824 2.4,-6.144 6.624,-10.368 4.224,-4.224 9.696,-6.432 5.568,-2.208 11.808,-2.208 6.816,0 11.712,2.4 4.896,2.4 7.968,5.76 l -7.392,8.544 q -2.304,-2.112 -5.088,-3.264 -2.688,-1.248 -6.72,-1.248 -4.8,0 -8.544,2.496 -3.744,2.4 -5.856,6.912 -2.112,4.512 -2.112,10.752 0,6.432 1.92,11.04 2.016,4.512 5.856,6.912 3.936,2.4 9.792,2.4 1.92,0 3.744,-0.48 1.824,-0.48 2.976,-1.44 v -10.752 h -10.368 v -11.52 h 22.848 v 28.8 q -3.168,3.168 -8.64,5.376 -5.376,2.208 -12,2.208 z m 58.2721,0 q -6.144,0 -10.848,-1.632 -4.608,-1.728 -7.776,-5.28 -3.168,-3.648 -4.8,-9.216 -1.632,-5.568 -1.632,-13.248 v -34.368 h 14.208 v 35.808 q 0,5.856 1.248,9.312 1.248,3.36 3.648,4.896 2.4,1.536 5.952,1.536 3.456,0 5.952,-1.536 2.496,-1.536 3.744,-4.896 1.344,-3.456 1.344,-9.312 v -35.808 h 13.632 v 34.368 q 0,7.68 -1.632,13.248 -1.536,5.568 -4.704,9.216 -3.072,3.552 -7.68,5.28 -4.608,1.632 -10.656,1.632 z m 166.0815,-659.35402 v -22.848 h 26.496 v -70.464 h -22.848 v -17.472 q 9.984,-1.92 16.896,-4.608 7.104,-2.688 13.44,-6.528 h 20.736 v 99.072 h 22.848 v 22.848 z m 138.62399,2.304 q -19.58399,0 -31.67999,-16.32 -11.904,-16.32 -11.904,-47.424 0,-31.296 11.904,-47.04 12.096,-15.744 31.67999,-15.744 19.584,0 31.488,15.936 12.096,15.744 12.096,46.848 0,31.104 -12.096,47.424 -11.904,16.32 -31.488,16.32 z m 0,-21.888 q 4.8,0 8.64,-3.456 3.84,-3.648 5.952,-12.672 2.304,-9.216 2.304,-25.728 0,-16.704 -2.304,-25.536 -2.112,-8.832 -5.952,-12.096 -3.84,-3.264 -8.64,-3.264 -4.8,0 -8.64,3.264 -3.84,3.264 -6.144,12.096 -2.112,8.832 -2.112,25.536 0,16.512 2.112,25.728 2.304,9.024 6.144,12.672 3.84,3.456 8.64,3.456 z m 57.79198,19.584 v -17.472 q 15.36,-13.632 27.264,-25.536 12.096,-11.904 18.816,-22.08 6.912,-10.176 6.912,-18.624 0,-9.024 -4.608,-13.632 -4.608,-4.8 -12.672,-4.8 -6.528,0 -11.904,3.84 -5.184,3.648 -9.792,8.64 l -14.784,-14.592 q 8.832,-9.984 18.048,-14.976 9.408,-4.992 22.272,-4.992 11.904,0 20.928,4.8 9.216,4.8 14.208,13.44 5.184,8.64 5.184,20.352 0,10.944 -5.952,21.504 -5.76,10.368 -15.36,20.736 -9.6,10.368 -20.352,21.12 4.608,-0.576 10.368,-0.96 5.76,-0.576 9.984,-0.576 h 27.264 v 23.808 z m -112.80017,-237.696 q -17.088,0 -31.104,-7.104 -13.824,-7.296 -22.08,-21.504 -8.064,-14.4 -8.064,-35.52002 0,-15.552 4.8,-27.648 4.8,-12.288 13.248,-20.736 8.448,-8.448 19.392,-12.864 11.136,-4.416 23.616,-4.416 13.632,0 23.424,4.8 9.792,4.8 15.93604,11.52 l -14.78404,17.088 q -4.608,-4.224 -10.176,-6.528 -5.376,-2.496 -13.44,-2.496 -9.6,0 -17.088,4.992 -7.488,4.8 -11.712,13.824 -4.224,9.024 -4.224,21.504 0,12.86402 3.84,22.08002 4.032,9.024 11.712,13.824 7.872,4.8 19.584,4.8 3.84,0 7.488,-0.96 3.648,-0.96 5.952,-2.88 v -21.504 h -20.736 v -23.04002 h 45.69604 v 57.60002 q -6.33604,6.336 -17.28004,10.752 -10.752,4.416 -24,4.416 z m 116.54414,0 q -12.288,0 -21.696,-3.264 -9.216,-3.456 -15.552,-10.56 -6.336,-7.296 -9.6,-18.432 -3.264,-11.136 -3.264,-26.49602 v -68.736 h 28.416 v 71.61602 q 0,11.712 2.496,18.624 2.496,6.72 7.296,9.792 4.8,3.072 11.904,3.072 6.912,0 11.904,-3.072 4.992,-3.072 7.488,-9.792 2.688,-6.912 2.688,-18.624 v -71.61602 h 27.264 v 68.736 q 0,15.36002 -3.264,26.49602 -3.072,11.136 -9.408,18.432 -6.144,7.104 -15.36,10.56 -9.216,3.264 -21.312,3.264 z m -3650.97554,186.94597 v -22.848 h 26.496 v -70.464 h -22.848 v -17.472 q 9.984,-1.92 16.896,-4.608 7.104,-2.688 13.44,-6.528 h 20.736 v 99.072 h 22.848 v 22.848 z m 101.376,0 v -22.848 h 26.496 v -70.464 h -22.848 v -17.472 q 9.984,-1.92 16.896,-4.608 7.104,-2.688 13.44,-6.528 h 20.736 v 99.072 h 22.848 v 22.848 z m 141.888,2.304 q -8.832,0 -17.088,-3.456 -8.256,-3.456 -14.784,-10.752 -6.528,-7.296 -10.368,-18.624 -3.84,-11.52 -3.84,-27.648 0,-17.088 4.032,-29.568 4.032,-12.48 10.944,-20.544 6.912,-8.064 15.744,-11.904 8.832,-4.032 18.624,-4.032 12.096,0 20.928,4.416 8.832,4.224 14.592,10.176 l -14.784,16.896 q -3.264,-3.456 -8.448,-5.952 -5.184,-2.688 -10.56,-2.688 -6.912,0 -12.864,4.032 -5.76,4.032 -9.216,13.632 -3.264,9.408 -3.264,25.536 0,15.168 2.688,23.808 2.88,8.448 7.488,12.096 4.608,3.456 9.6,3.456 4.224,0 7.68,-2.112 3.456,-2.112 5.568,-6.336 2.112,-4.416 2.112,-11.328 0,-6.528 -2.112,-10.368 -2.112,-3.84 -5.76,-5.568 -3.456,-1.728 -8.064,-1.728 -4.8,0 -9.984,2.88 -4.992,2.88 -9.024,10.176 l -1.344,-18.432 q 4.8,-7.104 12.288,-10.752 7.488,-3.84 13.44,-3.84 10.368,0 18.624,4.032 8.256,4.032 12.864,12.48 4.8,8.256 4.8,21.12 0,12.672 -5.568,21.888 -5.376,9.216 -14.592,14.208 -9.216,4.8 -20.352,4.8 z m -159.6482,-240 q -17.088,0 -31.104,-7.10399 -13.824,-7.296 -22.08,-21.504 -8.064,-14.4 -8.064,-35.52 0,-15.552 4.8,-27.648 4.8,-12.288 13.248,-20.736 8.448,-8.448 19.392,-12.864 11.136,-4.416 23.616,-4.416 13.632,0 23.424,4.8 9.792,4.8 15.936,11.52 l -14.784,17.088 q -4.608,-4.224 -10.176,-6.528 -5.376,-2.496 -13.44,-2.496 -9.6,0 -17.088,4.992 -7.488,4.8 -11.712,13.824 -4.224,9.024 -4.224,21.504 0,12.864 3.84,22.08 4.032,9.024 11.712,13.824 7.872,4.8 19.584,4.8 3.84,0 7.488,-0.96 3.648,-0.96 5.952,-2.88 v -21.504 h -20.736 v -23.04 h 45.696 v 57.6 q -6.336,6.336 -17.28,10.75199 -10.752,4.416 -24,4.416 z m 116.5441,0 q -12.288,0 -21.696,-3.264 -9.216,-3.45599 -15.552,-10.55999 -6.336,-7.296 -9.6,-18.432 -3.264,-11.136 -3.264,-26.496 v -68.736 h 28.416 v 71.616 q 0,11.712 2.496,18.624 2.496,6.72 7.296,9.792 4.8,3.072 11.904,3.072 6.912,0 11.904,-3.072 4.992,-3.072 7.488,-9.792 2.688,-6.912 2.688,-18.624 v -71.616 h 27.264 v 68.736 q 0,15.36 -3.264,26.496 -3.072,11.136 -9.408,18.432 -6.144,7.104 -15.36,10.55999 -9.216,3.264 -21.312,3.264 z m 1984.6925,236.69606 v -22.848 h 26.496 v -70.464 h -22.848 v -17.472 q 9.984,-1.92 16.896,-4.608 7.104,-2.688 13.44,-6.528 h 20.736 v 99.072 h 22.848 v 22.848 z m 138.624,2.304 q -19.584,0 -31.68,-16.32 -11.904,-16.32 -11.904,-47.424 0,-31.296 11.904,-47.04 12.096,-15.744 31.68,-15.744 19.584,0 31.488,15.936 12.096,15.744 12.096,46.848 0,31.104 -12.096,47.424 -11.904,16.32 -31.488,16.32 z m 0,-21.888 q 4.8,0 8.64,-3.456 3.84,-3.648 5.952,-12.672 2.304,-9.216 2.304,-25.728 0,-16.704 -2.304,-25.536 -2.112,-8.832 -5.952,-12.096 -3.84,-3.264 -8.64,-3.264 -4.8,0 -8.64,3.264 -3.84,3.264 -6.144,12.096 -2.112,8.832 -2.112,25.536 0,16.512 2.112,25.728 2.304,9.024 6.144,12.672 3.84,3.456 8.64,3.456 z m 64.128,19.584 v -22.848 h 26.496 v -70.464 h -22.848 v -17.472 q 9.984,-1.92 16.896,-4.608 7.104,-2.688 13.44,-6.528 h 20.736 v 99.072 h 22.848 v 22.848 z m -119.1362,-237.696 q -17.088,0 -31.104,-7.10395 -13.824,-7.296 -22.08,-21.5041 -8.064,-14.4 -8.064,-35.52 0,-15.552 4.8,-27.648 4.8,-12.288 13.248,-20.736 8.448,-8.448 19.392,-12.864 11.136,-4.416 23.616,-4.416 13.632,0 23.424,4.8 9.792,4.8 15.936,11.52 l -14.784,17.088 q -4.608,-4.224 -10.176,-6.528 -5.376,-2.496 -13.44,-2.496 -9.6,0 -17.088,4.992 -7.488,4.8 -11.712,13.824 -4.224,9.024 -4.224,21.504 0,12.864 3.84,22.08 4.032,9.024 11.712,13.824 7.872,4.8 19.584,4.8 3.84,0 7.488,-0.96 3.648,-0.96 5.952,-2.88 v -21.504 h -20.736 v -23.04 h 45.696 v 57.6001 q -6.336,6.336 -17.28,10.752 -10.752,4.41595 -24,4.41595 z m 116.5441,0 q -12.288,0 -21.696,-3.264 -9.216,-3.45595 -15.552,-10.55995 -6.336,-7.2961 -9.6,-18.4321 -3.264,-11.136 -3.264,-26.496 v -68.736 h 28.416 v 71.616 q 0,11.712 2.496,18.624 2.496,6.72 7.296,9.792 4.8,3.072 11.904,3.072 6.912,0 11.904,-3.072 4.992,-3.072 7.488,-9.792 2.688,-6.912 2.688,-18.624 v -71.616 h 27.264 v 68.736 q 0,15.36 -3.264,26.496 -3.072,11.136 -9.408,18.4321 -6.144,7.104 -15.36,10.55995 -9.216,3.264 -21.312,3.264 z" style="font-size:64px;font-family:'Source Sans 3';-inkscape-font-specification:'Source Sans 3, @wght=700';font-variation-settings:'wght' 700;text-align:center;white-space:pre;display:inline;fill:#bec3c6;stroke-width:55" transform="matrix(0.02439371,0,0,0.02439371,150.92965,277.68028)"/>
  </g>
</svg>
