<svg width="10000" height="3000" viewBox="0 0 10000 3000" version="1.1" id="svg1" xml:space="preserve" xmlns="http://www.w3.org/2000/svg">
  <defs id="defs1">
    <marker style="overflow:visible" id="Triangle" refX="0" refY="0" orient="auto-start-reverse" markerWidth="1" markerHeight="1" viewBox="0 0 1 1" preserveAspectRatio="xMidYMid">
      <path transform="scale(0.5)" style="fill:context-stroke;fill-rule:evenodd;stroke:context-stroke;stroke-width:1pt" d="M 5.77,0 -2.88,5 V -5 Z" id="path597"/>
    </marker>
  </defs>
  <g id="roof" style="display:inline" transform="translate(0,700)">
    <rect style="font-variation-settings:'wdth' 70,'wght' 600;display:inline;opacity:1;fill:#90a1c1;fill-opacity:1;stroke-width:0" id="rect281" width="369.41519" height="1527.7498" x="6710.9404" y="-647.99878"/>
    <rect style="font-variation-settings:'wdth' 70,'wght' 600;display:inline;opacity:1;fill:#90a1c1;fill-opacity:1;stroke-width:0" id="rect328" width="428.40009" height="1527.7498" x="8152.8794" y="-647.99878"/>
    <rect style="font-variation-settings:'wdth' 70,'wght' 600;opacity:1;fill:#a2b3cd;fill-opacity:1;stroke-width:0" id="rect275" width="561.25098" height="1527.4651" x="655.94788" y="-647.99878"/>
    <rect style="font-variation-settings:'wdth' 70,'wght' 600;opacity:1;fill:#99aac7;fill-opacity:1;stroke-width:0" id="rect276" width="561.25098" height="1527.4651" x="94.696899" y="-647.99878"/>
    <rect style="font-variation-settings:'wdth' 70,'wght' 600;opacity:1;fill:#99aac7;fill-opacity:1;stroke-width:0" id="rect277" width="546.3775" height="1527.7498" x="2873.7556" y="-647.99878"/>
    <rect style="font-variation-settings:'wdth' 70,'wght' 600;opacity:1;fill:#a2b3cd;fill-opacity:1;stroke-width:0" id="rect278" width="546.3775" height="1527.7498" x="3420.1331" y="-647.99878"/>
    <rect style="font-variation-settings:'wdth' 70,'wght' 600;opacity:1;fill:#a2b3cd;fill-opacity:1;stroke-width:0" id="rect279" width="546.3775" height="1527.7498" x="6164.563" y="-647.99878"/>
    <rect style="font-variation-settings:'wdth' 70,'wght' 600;opacity:1;fill:#99aac7;fill-opacity:1;stroke-width:0" id="rect280" width="546.3775" height="1527.7498" x="5618.1855" y="-647.99878"/>
    <path style="font-variation-settings:'wdth' 70,'wght' 600;opacity:1;fill:#90a1c1;fill-opacity:1;stroke-width:0" d="m 5618.1855,-647.99878 h 1092.7549 l -545.7527,534.87216 z" id="path281"/>
    <path style="font-variation-settings:'wdth' 70,'wght' 600;opacity:1;fill:#90a1c1;fill-opacity:1;stroke-width:0" d="m 8581.2789,-647.99878 h 1092.7549 l -545.7527,534.87216 z" id="path330"/>
    <path style="font-variation-settings:'wdth' 70,'wght' 600;opacity:1;fill:#a2b3cd;fill-opacity:1;stroke-width:0" d="m 9128.2804,-113.12662 545.7541,-534.87216 V 2112.1964 l -546.3766,-328.4191 z" id="path331"/>
    <path style="font-variation-settings:'wdth' 70,'wght' 600;opacity:1;fill:#99aac7;fill-opacity:1;stroke-width:0" d="m 8581.2789,-647.99878 547.0022,534.87216 -0.6232,1896.90392 -546.3778,-314.0064 z" id="path332"/>
    <path style="font-variation-settings:'wdth' 70,'wght' 600;opacity:1;fill:#abbbd2;fill-opacity:1;stroke-width:0" d="m 8680.1425,1783.7773 456.2071,-1.7127 546.3766,328.4191 -1519.4331,1.7127 z" id="path333"/>
    <path style="font-variation-settings:'wdth' 70,'wght' 600;opacity:1;fill:#90a1c1;fill-opacity:1;stroke-width:0" d="m 8680.1425,1783.7773 h 447.5154 l -546.3778,-331.5064 h -417.987 z" id="path334"/>
    <path style="font-variation-settings:'wdth' 70,'wght' 600;opacity:1;fill:#99aac7;fill-opacity:1;stroke-width:0" d="m 8680.1425,1783.7773 -516.8494,-331.5064 v 659.9255 z" id="path335"/>
    <path style="font-variation-settings:'wdth' 70,'wght' 600;opacity:1;fill:#abbbd2;fill-opacity:1;stroke-width:0" d="m 921.39546,1435.8965 5498.53484,-0.4104 657.4252,556.01 -5500.3204,0.01 z" id="path336"/>
    <path style="font-variation-settings:'wdth' 70,'wght' 600;opacity:1;fill:#90a1c1;fill-opacity:1;stroke-width:0" d="m 1272.878,879.46631 5807.4775,0.28467 -660.4252,555.73512 -5498.53484,0.4104 z" id="path337"/>
    <path style="font-variation-settings:'wdth' 70,'wght' 600;opacity:1;fill:#a2b3cd;fill-opacity:1;stroke-width:0" d="m 6419.9303,1435.4861 660.4252,-555.73512 -3,1111.74512 z" id="path338"/>
    <path style="font-variation-settings:'wdth' 70,'wght' 600;opacity:1;fill:#99aac7;fill-opacity:1;stroke-width:0" d="M 47.453322,879.76318 822.7058,1592.1316 47.453322,2256.5 Z" id="path339"/>
    <path style="font-variation-settings:'wdth' 70,'wght' 600;opacity:1;fill:#abbbd2;fill-opacity:1;stroke-width:0" d="M 47.453322,2256.5 822.7058,1592.1316 1577.0312,2256.5 Z" id="path340"/>
    <path style="font-variation-settings:'wdth' 70,'wght' 600;opacity:1;fill:#a2b3cd;fill-opacity:1;stroke-width:0" d="m 822.7058,1592.1316 98.68966,-156.2351 655.63964,555.6096 V 2256.5 Z" id="path341"/>
    <path style="font-variation-settings:'wdth' 70,'wght' 600;opacity:1;fill:#90a1c1;fill-opacity:1;stroke-width:0" d="M 1272.878,879.46631 822.7058,1592.1316 47.453322,879.76318 Z" id="path342"/>
    <path style="font-variation-settings:'wdth' 70,'wght' 600;opacity:1;fill:#76777e;fill-opacity:1;stroke-width:0" d="m 7080.3555,879.75098 h 1500.9238 l 8e-4,572.51992 h -417.987 l -0.8689,539.2042 -1085.0687,0.021 z" id="path343"/>
    <rect style="font-variation-settings:'wdth' 70,'wght' 600;opacity:1;fill:#4d4f61;fill-opacity:1;stroke-width:0" id="rect343" width="1278.449" height="327.75696" x="7302.8306" y="1007.6899"/>
    <path style="font-variation-settings:'wdth' 70,'wght' 600;opacity:1;fill:none;fill-opacity:1;stroke:#bec3c6;stroke-width:30;stroke-dasharray:none;stroke-opacity:1" d="m 7317.8306,1335.4468 v 351.8305" id="path344"/>
    <path style="font-variation-settings:'wdth' 70,'wght' 600;opacity:1;fill:none;fill-opacity:1;stroke:#bec3c6;stroke-width:30;stroke-dasharray:none;stroke-opacity:1" d="m 7622.3875,1335.4468 v 351.8305" id="path345"/>
    <path style="font-variation-settings:'wdth' 70,'wght' 600;opacity:1;fill:none;fill-opacity:1;stroke:#bec3c6;stroke-width:30;stroke-dasharray:none;stroke-opacity:1" d="m 8014.3666,1335.4468 v 351.8305" id="path346"/>
    <path style="font-variation-settings:'wdth' 70,'wght' 600;opacity:1;fill:none;fill-opacity:1;stroke:#bec3c6;stroke-width:30;stroke-dasharray:none;stroke-opacity:1" d="m 7317.8306,1618.0241 h 696.536" id="path347"/>
  </g>
</svg>
