<?xml version="1.0" encoding="UTF-8" standalone="no"?>
<!-- Created with Inkscape (http://www.inkscape.org/) -->

<svg
   width="512"
   height="512"
   viewBox="0 0 135.46666 135.46667"
   version="1.1"
   id="svg1"
   xml:space="preserve"
   inkscape:version="1.3 (0e150ed6c4, 2023-07-21)"
   sodipodi:docname="HTWKarte Logo.svg"
   inkscape:export-filename="..\..\..\..\..\Documents\GitHub\HTWKarte\src\logo.png"
   inkscape:export-xdpi="96"
   inkscape:export-ydpi="96"
   xmlns:inkscape="http://www.inkscape.org/namespaces/inkscape"
   xmlns:sodipodi="http://sodipodi.sourceforge.net/DTD/sodipodi-0.dtd"
   xmlns="http://www.w3.org/2000/svg"
   xmlns:svg="http://www.w3.org/2000/svg"><sodipodi:namedview
     id="namedview1"
     pagecolor="#505050"
     bordercolor="#eeeeee"
     borderopacity="1"
     inkscape:showpageshadow="0"
     inkscape:pageopacity="0"
     inkscape:pagecheckerboard="0"
     inkscape:deskcolor="#505050"
     inkscape:document-units="px"
     inkscape:zoom="1.5702742"
     inkscape:cx="168.1235"
     inkscape:cy="280.52425"
     inkscape:window-width="2560"
     inkscape:window-height="1351"
     inkscape:window-x="2391"
     inkscape:window-y="-9"
     inkscape:window-maximized="1"
     inkscape:current-layer="layer3" /><defs
     id="defs1" /><g
     inkscape:label="Ebene 1"
     inkscape:groupmode="layer"
     id="layer1"><rect
       style="font-variation-settings:'wdth' 70, 'wght' 600;display:inline;fill:#31383b;fill-opacity:1;stroke-width:0.563851;stroke-linecap:round;stroke-linejoin:bevel"
       id="rect1"
       width="135.46666"
       height="135.46666"
       x="0"
       y="0"
       inkscape:label="background"
       sodipodi:insensitive="true" /><g
       inkscape:groupmode="layer"
       id="layer2"
       inkscape:label="Plan"
       style="display:none"><path
         style="font-variation-settings:'wdth' 70, 'wght' 600;fill:none;fill-opacity:1;stroke:#bec3c6;stroke-width:1.84364;stroke-linecap:round;stroke-linejoin:round;stroke-miterlimit:4;stroke-dasharray:none;stroke-opacity:1"
         d="M 52.995157,108.80018 57.089615,26.958717"
         id="path2"
         sodipodi:nodetypes="cc" /><path
         style="display:inline;fill:#bec3c6;fill-opacity:1;stroke:none;stroke-width:0.285978;stroke-linejoin:bevel;stroke-dasharray:none;stroke-opacity:1"
         d="m 65.50813,29.087202 3.370525,0.164912 0.01908,-0.389997 7.990042,0.390935 -0.01908,0.389996 3.242723,0.158659 -0.02576,0.526482 26.86591,1.314488 -0.53335,10.900735 -27.557005,-1.348301 -0.665129,-0.666733 -1.355952,-0.05142 -1.331793,1.112969 -0.08368,1.57317 0.414009,0.339138 -0.723634,14.789868 0.312805,0.0153 -0.243258,4.971785 c 0,0 1.062862,1.202197 0.979653,3.542924 -0.08264,2.324523 -1.32234,3.461027 -1.32234,3.461027 l -0.257926,5.271563 -0.312805,-0.0153 -0.721633,14.748971 -0.443071,0.254843 -0.127298,1.58926 1.248327,1.281876 1.516237,0.05144 0.526933,-0.396458 27.60935,1.350863 -0.52179,10.664513 -27.247497,-1.37351 -0.0264,0.53948 -3.095925,-0.15147 -0.01359,0.27775 -2.295933,-0.11234 -0.01462,0.29875 -3.279784,-0.16047 0.01462,-0.29875 -2.476868,-0.12119 0.01359,-0.27775 -3.071223,-0.15026 1.398742,-28.587932 -1.956019,-0.0957 0.171516,-3.505494 0.469201,0.01305 0.0052,-0.146732 0.234785,0.0083 0.06035,-1.697338 -0.443991,-0.01902 0.01692,-0.47476 0.444215,0.01262 0.05322,-1.49701 -0.444106,-0.01582 0.01665,-0.467077 0.444104,0.01582 0.05947,-1.673132 -0.444105,-0.01582 0.01637,-0.459442 0.444103,0.01582 0.05349,-1.504668 -0.444103,-0.01582 0.01646,-0.463269 0.444106,0.01582 0.06677,-1.63836 -0.363618,-0.01289 0.01186,-0.332479 -0.210447,-0.0074 0.16287,-3.328784 1.956019,0.0957 z"
         id="path5-8"
         sodipodi:nodetypes="ccccccccccccccccccsccccccccccccccccccccccccccccccccccccccccccccccccccc"
         inkscape:label="LI_Lipsius" /><rect
         style="font-variation-settings:'wdth' 70, 'wght' 600;fill:#bec3c6;fill-opacity:1;stroke:none;stroke-width:2.13314;stroke-linecap:round;stroke-linejoin:round;stroke-miterlimit:4;stroke-dasharray:none;stroke-opacity:1"
         id="rect8"
         width="17.109499"
         height="70.861542"
         x="34.112095"
         y="28.379313"
         transform="matrix(0.99871754,0.05062897,-0.05062389,0.9987178,0,0)" /><rect
         style="font-variation-settings:'wdth' 70, 'wght' 600;fill:none;fill-opacity:1;stroke:#ffed00;stroke-width:1.85208;stroke-linecap:round;stroke-linejoin:round;stroke-miterlimit:4;stroke-dasharray:none;stroke-opacity:1"
         id="rect2"
         width="84.372032"
         height="83.065964"
         x="25.547314"
         y="26.200348"
         inkscape:label="border" /></g><g
       inkscape:groupmode="layer"
       id="layer3"
       inkscape:label="Marker"
       transform="translate(0,4.3477797)"><rect
         style="font-variation-settings:'wdth' 70, 'wght' 600;fill:#e5007d;fill-opacity:1;stroke:none;stroke-width:2.36701;stroke-linecap:round;stroke-linejoin:round;stroke-miterlimit:4;stroke-dasharray:none;stroke-opacity:1"
         id="rect9"
         width="13.229166"
         height="91.99588"
         x="66.723564"
         y="-73.960892"
         transform="rotate(60.388186)" /><rect
         style="font-variation-settings:'wdth' 70, 'wght' 600;fill:#009fe4;fill-opacity:1;stroke:none;stroke-width:2.36701;stroke-linecap:round;stroke-linejoin:round;stroke-miterlimit:4;stroke-dasharray:none;stroke-opacity:1"
         id="rect9-3"
         width="13.229166"
         height="91.99588"
         x="46.879814"
         y="-73.960892"
         transform="rotate(60.388186)" /><rect
         style="font-variation-settings:'wdth' 70, 'wght' 600;fill:#02964f;fill-opacity:1;stroke:none;stroke-width:2.36701;stroke-linecap:round;stroke-linejoin:round;stroke-miterlimit:4;stroke-dasharray:none;stroke-opacity:1"
         id="rect9-3-3"
         width="13.229166"
         height="91.99588"
         x="86.567314"
         y="-73.960892"
         inkscape:transform-center-x="0.44160996"
         inkscape:transform-center-y="-89.877835"
         transform="rotate(60.388186)" /><rect
         style="font-variation-settings:'wdth' 70, 'wght' 600;fill:#e53212;fill-opacity:1;stroke:none;stroke-width:2.36701;stroke-linecap:round;stroke-linejoin:round;stroke-miterlimit:4;stroke-dasharray:none;stroke-opacity:1"
         id="rect9-3-3-0"
         width="13.229166"
         height="91.99588"
         x="106.41106"
         y="-73.960892"
         inkscape:transform-center-x="0.44161008"
         inkscape:transform-center-y="-89.877835"
         transform="rotate(60.388186)" /><rect
         style="font-variation-settings:'wdth' 70, 'wght' 600;display:inline;fill:#31383b;fill-opacity:1;stroke-width:0.370531;stroke-linecap:round;stroke-linejoin:bevel"
         id="rect1-8"
         width="58.499672"
         height="135.46666"
         x="112.0079"
         y="-40.344429"
         inkscape:label="background"
         transform="rotate(29.096959)" /><rect
         style="font-variation-settings:'wdth' 70, 'wght' 600;display:inline;fill:#31383b;fill-opacity:1;stroke-width:0.370531;stroke-linecap:round;stroke-linejoin:bevel"
         id="rect1-8-5"
         width="58.499672"
         height="135.46666"
         x="-51.597103"
         y="15.175983"
         inkscape:label="background"
         transform="rotate(-28.507696)" /><rect
         style="font-variation-settings:'wdth' 70, 'wght' 600;display:inline;fill:#31383b;fill-opacity:1;stroke-width:0.210025;stroke-linecap:round;stroke-linejoin:bevel"
         id="rect1-8-5-7"
         width="32.754967"
         height="77.732407"
         x="-49.542007"
         y="-120.76881"
         inkscape:label="background"
         transform="matrix(-0.45481367,0.89058662,-0.90454947,-0.42636869,0,0)" /><rect
         style="font-variation-settings:'wdth' 70, 'wght' 600;display:inline;fill:#31383b;fill-opacity:1;stroke-width:0.210025;stroke-linecap:round;stroke-linejoin:bevel"
         id="rect1-8-5-7-1"
         width="32.754967"
         height="77.732407"
         x="-99.377869"
         y="-105.87"
         inkscape:label="background"
         transform="matrix(-0.89233554,0.45137266,-0.47941811,-0.87758662,0,0)" /><rect
         style="font-variation-settings:'wdth' 70, 'wght' 600;display:inline;fill:#31383b;fill-opacity:1;stroke-width:0.210025;stroke-linecap:round;stroke-linejoin:bevel"
         id="rect1-8-5-7-1-0"
         width="32.754967"
         height="77.732407"
         x="-129.07602"
         y="-86.76725"
         inkscape:label="background"
         transform="matrix(-0.99985497,-0.01703032,-0.01465685,-0.99989258,0,0)" /><rect
         style="font-variation-settings:'wdth' 70, 'wght' 600;display:inline;fill:#31383b;fill-opacity:1;stroke-width:0.0782746;stroke-linecap:round;stroke-linejoin:bevel"
         id="rect1-8-5-7-1-0-0"
         width="20.315639"
         height="17.40799"
         x="7.6353073"
         y="-127.88042"
         inkscape:label="background"
         transform="matrix(-0.39884099,0.9170201,-0.93465853,-0.35554666,0,0)" /><rect
         style="font-variation-settings:'wdth' 70, 'wght' 600;display:inline;fill:#31383b;fill-opacity:1;stroke-width:0.0782746;stroke-linecap:round;stroke-linejoin:bevel"
         id="rect1-8-5-7-1-0-0-6"
         width="20.315639"
         height="17.40799"
         x="-11.606971"
         y="-76.9981"
         inkscape:label="background"
         transform="matrix(-0.15770349,0.98748651,-0.99377797,-0.11137929,0,0)" /><rect
         style="font-variation-settings:'wdth' 70, 'wght' 600;display:inline;fill:#31383b;fill-opacity:1;stroke-width:0.0782746;stroke-linecap:round;stroke-linejoin:bevel"
         id="rect1-8-5-7-1-0-0-6-5"
         width="20.315639"
         height="17.40799"
         x="27.128792"
         y="-43.396286"
         inkscape:label="background"
         transform="matrix(-0.15770349,0.98748651,-0.99377797,-0.11137929,0,0)" /><rect
         style="font-variation-settings:'wdth' 70, 'wght' 600;display:inline;fill:#31383b;fill-opacity:1;stroke-width:0.0782746;stroke-linecap:round;stroke-linejoin:bevel"
         id="rect1-8-5-7-1-0-0-6-9"
         width="20.315639"
         height="17.40799"
         x="1.951456"
         y="-49.688412"
         inkscape:label="background"
         transform="matrix(-0.3909477,0.9204129,-0.93767872,-0.34750342,0,0)" /><path
         style="font-variation-settings:'wdth' 70, 'wght' 600;fill:none;fill-opacity:1;stroke:#ffed00;stroke-width:1.85208;stroke-linecap:round;stroke-linejoin:round;stroke-miterlimit:4;stroke-dasharray:none;stroke-opacity:1"
         id="path8"
         sodipodi:type="arc"
         sodipodi:cx="-39.808426"
         sodipodi:cy="-70.924911"
         sodipodi:rx="30.291779"
         sodipodi:ry="30.291779"
         sodipodi:start="0"
         sodipodi:end="4.0516169"
         sodipodi:open="true"
         sodipodi:arc-type="arc"
         d="m -9.5166473,-70.924911 a 30.291779,30.291779 0 0 1 -23.6736077,29.559967 30.291779,30.291779 0 0 1 -34.018063,-16.643399 30.291779,30.291779 0 0 1 8.809022,-36.832492"
         transform="rotate(153.73026)" /><circle
         style="font-variation-settings:'wdth' 70, 'wght' 600;fill:#31383b;fill-opacity:1;stroke:#ffed00;stroke-width:1.85208;stroke-linecap:round;stroke-linejoin:round;stroke-miterlimit:4;stroke-dasharray:none;stroke-opacity:1"
         id="path8-0"
         cx="67.73333"
         cy="45.991787"
         r="7.619575" /><path
         style="font-variation-settings:'wdth' 70, 'wght' 600;fill:none;fill-opacity:1;stroke:#ffed00;stroke-width:1.85208;stroke-linecap:round;stroke-linejoin:round;stroke-miterlimit:4;stroke-dasharray:none;stroke-opacity:1"
         d="M 40.358259,60.029446 67.733332,111.07984 93.922996,60.029446"
         id="path9"
         sodipodi:nodetypes="ccc" /></g></g></svg>
