<svg width="5000" height="6400" viewBox="0 0 5000 6400" version="1.1" id="svg1" xml:space="preserve" xmlns="http://www.w3.org/2000/svg">
  <defs id="defs1">
    <marker style="overflow:visible" id="Triangle" refX="0" refY="0" orient="auto-start-reverse" markerWidth="1" markerHeight="1" viewBox="0 0 1 1" preserveAspectRatio="xMidYMid">
      <path transform="scale(0.5)" style="fill:context-stroke;fill-rule:evenodd;stroke:context-stroke;stroke-width:1pt" d="M 5.77,0 -2.88,5 V -5 Z" id="path597"/>
    </marker>
  </defs>
  <g id="floor_3" transform="matrix(40.994169,0,0,40.994169,1.00188,-5510.757)" style="display:inline;opacity:1">
    <g id="g786" style="display:inline" transform="matrix(0.02439371,0,0,0.02439371,381.50053,218.26719)">
      <path style="font-variation-settings:'wght' 700;display:inline;fill:#9b9151;fill-opacity:1;stroke:#dfdfe2;stroke-width:70;stroke-dasharray:none;stroke-opacity:1" d="m -14417.845,-1669.0382 401.58,10e-5 V -3391.46 l 1502.914,1e-4 v 1947.2724 l -1361.571,-7.5001 v 3209.6358 l -542.923,2e-4 z" id="path543" transform="translate(-8.040958e-5,2.5984892e-5)"/>
      <path style="font-variation-settings:'wght' 700;display:inline;fill:#3e474c;fill-opacity:1;stroke:none;stroke-width:70;stroke-dasharray:none;stroke-opacity:1" d="m -14618.201,-2468.46 h 324.914 l 0.283,161.8686 -325.197,-1.4142 z" id="path544" transform="translate(-97.341093,-948)"/>
      <rect style="font-variation-settings:'wght' 700;display:inline;fill:#a9a2a2;fill-opacity:1;stroke:none;stroke-width:14.4669;stroke-dasharray:none;stroke-opacity:1" id="rect675" width="980.77167" height="925.19781" x="-13981.265" y="-3148.9529" transform="translate(-8.040958e-5,2.5984892e-5)"/>
      <rect style="font-variation-settings:'wght' 700;display:inline;fill:#cbc4ba;fill-opacity:1;stroke:none;stroke-width:4.91887;stroke-dasharray:none;stroke-opacity:1" id="rect676" width="280.35751" height="374.1713" x="-13771.236" y="-2223.7551" transform="translate(-8.040958e-5,2.5984892e-5)"/>
      <rect style="font-variation-settings:'wght' 700;display:inline;fill:#55576b;fill-opacity:1;stroke:#dfdfe2;stroke-width:26.0864;stroke-dasharray:none;stroke-opacity:1" id="rect677" width="1870.6688" height="1577.1973" x="3104.5222" y="2005.5453" transform="translate(-15640.299,-3436.9252)"/>
      <path style="font-variation-settings:'wght' 700;display:inline;fill:#55576b;fill-opacity:1;stroke:#84879f;stroke-width:8.327;stroke-dasharray:none;stroke-opacity:1" d="M 3117.5652,2794.1439 H 4962.1537" id="path685" transform="translate(-15640.299,-3436.9252)"/>
      <path style="font-variation-settings:'wght' 700;display:inline;fill:#55576b;fill-opacity:1;stroke:#84879f;stroke-width:8.327;stroke-dasharray:none;stroke-opacity:1" d="m 4039.8566,2005.5453 v 1564.16" id="path686" transform="translate(-15640.299,-3436.9252)"/>
      <circle style="font-variation-settings:'wght' 700;display:inline;fill:#e7e7e7;fill-opacity:1;stroke:none;stroke-width:8.62631;stroke-dasharray:none;stroke-opacity:1" id="circle686" cx="-13631.058" cy="-1992.4713" r="125" transform="translate(-8.040958e-5,2.5984892e-5)"/>
      <rect style="font-variation-settings:'wght' 700;display:inline;fill:#cbc4ba;fill-opacity:1;stroke:none;stroke-width:4.91887;stroke-dasharray:none;stroke-opacity:1" id="rect745" width="280.35751" height="374.1713" x="-13280.851" y="-2223.7551" transform="translate(-8.040958e-5,2.5984892e-5)"/>
      <circle style="font-variation-settings:'wght' 700;display:inline;fill:#e7e7e7;fill-opacity:1;stroke:none;stroke-width:8.62631;stroke-dasharray:none;stroke-opacity:1" id="circle745" cx="-13140.672" cy="-1992.4713" r="125" transform="translate(-8.040958e-5,2.5984892e-5)"/>
      <rect style="font-variation-settings:'wght' 700;display:inline;fill:#becad0;fill-opacity:1;stroke:none;stroke-width:20.961;stroke-dasharray:none;stroke-opacity:1" id="rect746" width="948.12982" height="2009.1379" x="-12548.352" y="-3426.46" transform="translate(-8.040958e-5,2.5984892e-5)"/>
      <rect style="font-variation-settings:'wght' 700;display:inline;fill:#cad2d8;fill-opacity:1;stroke:none;stroke-width:20.961;stroke-dasharray:none;stroke-opacity:1" id="rect747" width="948.12976" height="2009.1379" x="-11600.222" y="-3426.46" transform="translate(-8.040958e-5,2.5984892e-5)"/>
      <rect style="font-variation-settings:'wght' 700;display:inline;fill:#d7eeee;fill-opacity:1;stroke:#f7f7f9;stroke-width:10;stroke-dasharray:none;stroke-opacity:1" id="rect748" width="246.30969" height="132.53984" x="-11723.377" y="-3163.4019" transform="translate(-8.040958e-5,2.5984892e-5)"/>
      <rect style="font-variation-settings:'wght' 700;display:inline;fill:#d7eeee;fill-opacity:1;stroke:#f7f7f9;stroke-width:10;stroke-dasharray:none;stroke-opacity:1" id="rect749" width="246.30969" height="132.53984" x="-11723.377" y="-3030.8621" transform="translate(-8.040958e-5,2.5984892e-5)"/>
      <rect style="font-variation-settings:'wght' 700;display:inline;fill:#d7eeee;fill-opacity:1;stroke:#f7f7f9;stroke-width:10;stroke-dasharray:none;stroke-opacity:1" id="rect750" width="246.30969" height="132.53984" x="-11723.377" y="-2898.3223" transform="translate(-8.040958e-5,2.5984892e-5)"/>
      <rect style="font-variation-settings:'wght' 700;display:inline;fill:#d7eeee;fill-opacity:1;stroke:#f7f7f9;stroke-width:10;stroke-dasharray:none;stroke-opacity:1" id="rect751" width="246.30969" height="132.53984" x="-11723.377" y="-2765.7825" transform="translate(-8.040958e-5,2.5984892e-5)"/>
      <rect style="font-variation-settings:'wght' 700;display:inline;fill:#d7eeee;fill-opacity:1;stroke:#f7f7f9;stroke-width:10;stroke-dasharray:none;stroke-opacity:1" id="rect752" width="246.30969" height="132.53984" x="-11723.377" y="-2633.2427" transform="translate(-8.040958e-5,2.5984892e-5)"/>
      <rect style="font-variation-settings:'wght' 700;display:inline;fill:#d7eeee;fill-opacity:1;stroke:#f7f7f9;stroke-width:10;stroke-dasharray:none;stroke-opacity:1" id="rect753" width="246.30969" height="132.53984" x="-11723.377" y="-2500.7029" transform="translate(-8.040958e-5,2.5984892e-5)"/>
      <rect style="font-variation-settings:'wght' 700;display:inline;fill:#d7eeee;fill-opacity:1;stroke:#f7f7f9;stroke-width:10;stroke-dasharray:none;stroke-opacity:1" id="rect780" width="246.30969" height="132.53984" x="-11723.377" y="-2368.1631" transform="translate(-8.040958e-5,2.5984892e-5)"/>
      <rect style="font-variation-settings:'wght' 700;display:inline;fill:#d7eeee;fill-opacity:1;stroke:#f7f7f9;stroke-width:10;stroke-dasharray:none;stroke-opacity:1" id="rect781" width="246.30969" height="132.53984" x="-11723.377" y="-2235.6233" transform="translate(-8.040958e-5,2.5984892e-5)"/>
      <rect style="font-variation-settings:'wght' 700;display:inline;fill:#d7eeee;fill-opacity:1;stroke:#f7f7f9;stroke-width:10;stroke-dasharray:none;stroke-opacity:1" id="rect782" width="246.30969" height="132.53984" x="-11723.377" y="-2103.0835" transform="translate(-8.040958e-5,2.5984892e-5)"/>
      <rect style="font-variation-settings:'wght' 700;display:inline;fill:#d7eeee;fill-opacity:1;stroke:#f7f7f9;stroke-width:10;stroke-dasharray:none;stroke-opacity:1" id="rect784" width="246.30969" height="132.53984" x="-11723.377" y="-1970.5437" transform="translate(-8.040958e-5,2.5984892e-5)"/>
      <rect style="font-variation-settings:'wght' 700;display:inline;fill:#d7eeee;fill-opacity:1;stroke:#f7f7f9;stroke-width:10;stroke-dasharray:none;stroke-opacity:1" id="rect786" width="246.30969" height="132.53984" x="-11723.377" y="-1838.0039" transform="translate(-8.040958e-5,2.5984892e-5)"/>
    </g>
    <path id="path786" style="font-variation-settings:'wdth' 70,'wght' 600;display:inline;fill:#4c5a5f;fill-opacity:1;stroke:none;stroke-width:.487874" d="m 22.965168,147.52098 -2.325386,10.20547 3.2e-5,11.92777 H 22.9607 v 6.03851 h -2.320886 v 30.53256 l 2.320886,1e-5 v 16.7246 h -2.320886 v 5.8415 H 22.9607 v 19.43856 h -2.320886 v 5.8415 H 22.9607 l 0.06074,13.78703 h -2.381621 v 7.02539 h 19.773175 l 0.176396,-2.80416 4.092288,0.19081 0.0316,-0.69292 0.506409,0.0236 -0.0834,2.74745 4.015223,0.24052 0.805033,-13.43911 h -8.659581 l -0.415723,6.70841 H 29.795754 L 29.796,158.32524 h 4.63863 v -0.8086 h 0.501342 l 2e-6,0.8086 h 4.638896 v -10.80427 z"/>
    <g id="rooms_3" style="display:inline;opacity:1" transform="matrix(0.02439371,0,0,0.02439371,-0.02443957,255.98706)">
      <rect style="font-variation-settings:'wdth' 70,'wght' 600;display:inline;opacity:1;fill:#1b2022;fill-opacity:1;stroke-width:264.646;stroke-dasharray:none" id="rect788" width="280.19748" height="319.87988" x="942.25684" y="-4766.3574"/>
      <path style="font-variation-settings:'wght' 700;display:inline;opacity:1;fill:#454c7f;fill-opacity:1;stroke:#bec3c6;stroke-width:0" d="m 103.81119,-3783.6609 h 743.30282 v -264.4212 h 95.14282 v -718.2752 H 103.81119 Z" id="FO301"/>
      <path style="font-variation-settings:'wght' 700;display:inline;opacity:1;fill:#454c7f;fill-opacity:1;stroke:#bec3c6;stroke-width:0" d="m 103.81119,-3539.1434 h 743.30282 v -244.5175 H 103.81119 Z" id="FO302"/>
      <path style="font-variation-settings:'wght' 700;display:inline;opacity:1;fill:#454c7f;fill-opacity:1;stroke:#bec3c6;stroke-width:0" d="m 103.81119,-2554.2365 h 743.30282 v -737.3634 h 95.14282 v -247.5435 H 103.81119 Z" id="FO303"/>
      <path style="font-variation-settings:'wght' 700;display:inline;opacity:1;fill:#454c7f;fill-opacity:1;stroke:#bec3c6;stroke-width:0" d="m 103.81119,-2554.2365 h 743.30282 v 514.294 h 95.14282 v 475.9404 l -838.44564,-10e-5 z" id="FO304"/>
      <path style="font-variation-settings:'wght' 700;display:inline;opacity:1;fill:#454c7f;fill-opacity:1;stroke:#bec3c6;stroke-width:0" d="m 103.81119,-1564.0022 h 838.44564 v 209.6709 h -95.14282 v 239.4675 h 95.14282 v 415.93404 H 103.81119 Z" id="FO305"/>
      <path style="font-variation-settings:'wght' 700;display:inline;opacity:1;fill:#454c7f;fill-opacity:1;stroke:#bec3c6;stroke-width:0" d="m 103.81119,-698.92976 h 838.44564 v 380.93398 h -95.14282 v 239.46747 h 95.14282 l -2e-5,351.32404 H 103.81119 Z" id="FO306"/>
      <path style="font-variation-settings:'wght' 700;display:inline;opacity:1;fill:#454c7f;fill-opacity:1;stroke:#bec3c6;stroke-width:0" d="m 103.81119,272.79573 h 838.44562 l 2e-5,213.86378 h -95.14282 v 288.00003 h 95.14282 V 1323.489 l -586.25679,-29.7087 0.99726,-303.27831 -253.18611,-0.83255 z" id="FO307"/>
      <rect style="font-variation-settings:'wdth' 70,'wght' 600;display:inline;opacity:1;fill:#454c7f;fill-opacity:1;stroke-width:248.659;stroke-dasharray:none" id="FO308" width="400.88666" height="197.37975" x="1222.4543" y="-3412.7129"/>
      <rect style="font-variation-settings:'wdth' 70,'wght' 600;display:inline;opacity:1;fill:#454c7f;fill-opacity:1;stroke-width:206.052;stroke-dasharray:none" id="FO309" width="282.57516" height="175.50569" x="1222.4543" y="211.65381"/>
      <rect style="font-variation-settings:'wdth' 70,'wght' 600;display:inline;opacity:1;fill:#454c7f;fill-opacity:1;stroke-width:155.147;stroke-dasharray:none" id="FO309a" width="282.57516" height="99.500015" x="1222.4543" y="387.15948"/>
      <path style="font-variation-settings:'wght' 700;display:inline;opacity:1;fill:#454c7f;fill-opacity:1;stroke:#bec3c6;stroke-width:0" d="m 1505.0295,211.65382 h 188.9071 l -17.0422,275.00569 -171.8649,-2.65255 z" id="FO310"/>
      <path style="font-variation-settings:'wght' 700;display:inline;opacity:1;fill:#454c7f;fill-opacity:1;stroke:#bec3c6;stroke-width:0" d="M 942.25683,774.65954 H 1325.819 V 1342.9261 L 942.25683,1323.489 Z" id="FO312"/>
      <path style="font-variation-settings:'wght' 700;display:inline;opacity:1;fill:#454c7f;fill-opacity:1;stroke:#bec3c6;stroke-width:0" d="m 1328.6694,774.65954 h 329.0296 l -32.6963,583.42776 -299.1837,-15.1612 z" id="FO314"/>
    </g>
    <g id="g956" transform="matrix(0.02439371,0,0,0.02439371,18.93475,263.23933)" style="display:inline">
      <path style="font-variation-settings:'wght' 700;display:inline;fill:#62797e;fill-opacity:1;stroke:none;stroke-width:10" d="m 862.05774,740.62738 172.10076,8.0244 -2.0283,43.81214 21.1725,0.98719 3.6021,-47.75379 157.9792,7.366 -10.2453,219.7337 -347.52573,-20.8175 z" id="path853"/>
      <rect style="font-variation-settings:'wdth' 70,'wght' 600;display:inline;fill:#60767b;fill-opacity:1;stroke-width:6.40868;stroke-dasharray:none" id="rect853" width="172.37357" height="29.06435" x="1090.4893" y="637.53333" transform="rotate(2.6695564)"/>
      <rect style="font-variation-settings:'wdth' 70,'wght' 600;display:inline;fill:#5e7378;fill-opacity:1;stroke-width:6.40868;stroke-dasharray:none" id="rect854" width="172.37357" height="29.06435" x="1090.4893" y="608.46899" transform="rotate(2.6695564)"/>
      <rect style="font-variation-settings:'wdth' 70,'wght' 600;display:inline;fill:#5c7075;fill-opacity:1;stroke-width:6.40868;stroke-dasharray:none" id="rect855" width="172.37357" height="29.06435" x="1090.4893" y="579.40454" transform="rotate(2.6695564)"/>
      <rect style="font-variation-settings:'wdth' 70,'wght' 600;display:inline;fill:#5a6d72;fill-opacity:1;stroke-width:6.40868;stroke-dasharray:none" id="rect857" width="172.37357" height="29.06435" x="1090.4893" y="550.34021" transform="rotate(2.6695564)"/>
      <rect style="font-variation-settings:'wdth' 70,'wght' 600;display:inline;fill:#586a6f;fill-opacity:1;stroke-width:6.40868;stroke-dasharray:none" id="rect884" width="172.37357" height="29.06435" x="1090.4893" y="521.27582" transform="rotate(2.6695564)"/>
      <rect style="font-variation-settings:'wdth' 70,'wght' 600;display:inline;fill:#56676c;fill-opacity:1;stroke-width:6.40868;stroke-dasharray:none" id="rect885" width="172.3737" height="29.06435" x="1090.4891" y="492.21143" transform="rotate(2.6695564)"/>
      <rect style="font-variation-settings:'wdth' 70,'wght' 600;display:inline;fill:#000;fill-opacity:1;stroke-width:1.18874;stroke-dasharray:none" id="rect888" width="172.37357" height="1.0000001" x="1090.4893" y="637.53333" transform="rotate(2.6695564)"/>
      <rect style="font-variation-settings:'wdth' 70,'wght' 600;display:inline;fill:#000;fill-opacity:1;stroke-width:1.18915;stroke-dasharray:none" id="rect889" width="172.37357" height="1.0000001" x="1090.4893" y="608.46899" transform="rotate(2.6695564)"/>
      <rect style="font-variation-settings:'wdth' 70,'wght' 600;display:inline;fill:#000;fill-opacity:1;stroke-width:1.18874;stroke-dasharray:none" id="rect890" width="172.37357" height="1.0000001" x="1090.4893" y="579.40454" transform="rotate(2.6695564)"/>
      <rect style="font-variation-settings:'wdth' 70,'wght' 600;display:inline;fill:#000;fill-opacity:1;stroke-width:1.18874;stroke-dasharray:none" id="rect891" width="172.37357" height="1.0000001" x="1090.4893" y="550.34021" transform="rotate(2.6695564)"/>
      <rect style="font-variation-settings:'wdth' 70,'wght' 600;display:inline;fill:#000;fill-opacity:1;stroke-width:1.18874;stroke-dasharray:none" id="rect892" width="172.37357" height="1.0000001" x="1090.4893" y="521.27582" transform="rotate(2.6695564)"/>
      <rect style="font-variation-settings:'wdth' 70,'wght' 600;display:inline;fill:#000;fill-opacity:1;stroke-width:1.18874;stroke-dasharray:none" id="rect893" width="172.37378" height="1.0000001" x="1090.4891" y="492.21143" transform="rotate(2.6695564)"/>
      <rect style="font-variation-settings:'wdth' 70,'wght' 600;display:inline;fill:#546469;fill-opacity:1;stroke-width:6.40868;stroke-dasharray:none" id="rect894" width="172.3737" height="29.06435" x="1090.4891" y="463.14706" transform="rotate(2.6695564)"/>
      <rect style="font-variation-settings:'wdth' 70,'wght' 600;display:inline;fill:#000;fill-opacity:1;stroke-width:1.18874;stroke-dasharray:none" id="rect895" width="172.37378" height="1.0000001" x="1090.4891" y="463.14706" transform="rotate(2.6695564)"/>
      <rect style="font-variation-settings:'wdth' 70,'wght' 600;display:inline;fill:#516166;fill-opacity:1;stroke-width:6.40868;stroke-dasharray:none" id="rect896" width="172.3737" height="29.06435" x="1090.4891" y="434.0827" transform="rotate(2.6695564)"/>
      <rect style="font-variation-settings:'wdth' 70,'wght' 600;display:inline;fill:#000;fill-opacity:1;stroke-width:1.18874;stroke-dasharray:none" id="rect897" width="172.37378" height="1.0000001" x="1090.4891" y="434.0827" transform="rotate(2.6695564)"/>
      <rect style="font-variation-settings:'wdth' 70,'wght' 600;display:inline;fill:#4f5e63;fill-opacity:1;stroke-width:6.40868;stroke-dasharray:none" id="rect898" width="172.3737" height="29.06435" x="1090.4891" y="405.01834" transform="rotate(2.6695564)"/>
      <rect style="font-variation-settings:'wdth' 70,'wght' 600;display:inline;fill:#000;fill-opacity:1;stroke-width:1.18874;stroke-dasharray:none" id="rect899" width="172.37378" height="1.0000001" x="1090.4891" y="405.01834" transform="rotate(2.6695564)"/>
      <rect style="font-variation-settings:'wdth' 70,'wght' 600;display:inline;fill:#000;fill-opacity:1;stroke-width:1.18874;stroke-dasharray:none" id="rect900" width="172.37378" height="1.0000001" x="895.53137" y="408.02936" transform="rotate(2.6695564)"/>
      <rect style="font-variation-settings:'wdth' 70,'wght' 600;display:inline;fill:#465358;fill-opacity:1;stroke-width:6.40868;stroke-dasharray:none" id="rect928" width="172.3737" height="29.06435" x="895.53137" y="378.96509" transform="rotate(2.6695564)"/>
      <rect style="font-variation-settings:'wdth' 70,'wght' 600;display:inline;fill:#000;fill-opacity:1;stroke-width:1.18874;stroke-dasharray:none" id="rect929" width="172.37378" height="1.0000001" x="895.53137" y="378.96509" transform="rotate(2.6695564)"/>
      <rect style="font-variation-settings:'wdth' 70,'wght' 600;display:inline;fill:#48565b;fill-opacity:1;stroke-width:6.40868;stroke-dasharray:none" id="rect930" width="172.3737" height="29.06435" x="895.53137" y="349.90073" transform="rotate(2.6695564)"/>
      <rect style="font-variation-settings:'wdth' 70,'wght' 600;display:inline;fill:#000;fill-opacity:1;stroke-width:1.18874;stroke-dasharray:none" id="rect931" width="172.37378" height="1.0000001" x="895.53137" y="349.90073" transform="rotate(2.6695564)"/>
      <rect style="font-variation-settings:'wdth' 70,'wght' 600;display:inline;fill:#4b595e;fill-opacity:1;stroke-width:6.40868;stroke-dasharray:none" id="rect932" width="172.3737" height="29.06435" x="895.53137" y="320.83636" transform="rotate(2.6695564)"/>
      <rect style="font-variation-settings:'wdth' 70,'wght' 600;display:inline;fill:#000;fill-opacity:1;stroke-width:1.18874;stroke-dasharray:none" id="rect933" width="172.37378" height="1.0000001" x="895.53137" y="320.83636" transform="rotate(2.6695564)"/>
      <rect style="font-variation-settings:'wdth' 70,'wght' 600;display:inline;fill:#62797e;fill-opacity:1;stroke-width:6.40868;stroke-dasharray:none" id="rect934" width="172.37357" height="29.06435" x="1090.4891" y="666.59766" transform="rotate(2.6695564)"/>
      <rect style="font-variation-settings:'wdth' 70,'wght' 600;display:inline;fill:#445055;fill-opacity:1;stroke-width:6.40868;stroke-dasharray:none" id="rect935" width="172.3737" height="29.06435" x="895.53143" y="409.02936" transform="rotate(2.6695564)"/>
      <rect style="font-variation-settings:'wdth' 70,'wght' 600;display:inline;fill:#424d52;fill-opacity:1;stroke-width:6.40868;stroke-dasharray:none" id="rect936" width="172.3737" height="29.06435" x="895.53143" y="438.09372" transform="rotate(2.6695564)"/>
      <rect style="font-variation-settings:'wdth' 70,'wght' 600;display:inline;fill:#404a4f;fill-opacity:1;stroke-width:6.40868;stroke-dasharray:none" id="rect937" width="172.3737" height="29.06435" x="895.53143" y="467.15805" transform="rotate(2.6695564)"/>
      <rect style="font-variation-settings:'wdth' 70,'wght' 600;display:inline;fill:#3e474c;fill-opacity:1;stroke-width:6.40868;stroke-dasharray:none" id="rect938" width="172.3737" height="29.06435" x="895.53143" y="496.22238" transform="rotate(2.6695564)"/>
      <rect style="font-variation-settings:'wdth' 70,'wght' 600;display:inline;fill:#3c4449;fill-opacity:1;stroke-width:6.40868;stroke-dasharray:none" id="rect939" width="172.3737" height="29.06435" x="895.53143" y="525.28668" transform="rotate(2.6695564)"/>
      <rect style="font-variation-settings:'wdth' 70,'wght' 600;display:inline;fill:#3a4146;fill-opacity:1;stroke-width:6.40868;stroke-dasharray:none" id="rect940" width="172.3737" height="29.06435" x="895.53143" y="554.35101" transform="rotate(2.6695564)"/>
      <rect style="font-variation-settings:'wdth' 70,'wght' 600;display:inline;fill:#373e43;fill-opacity:1;stroke-width:6.40868;stroke-dasharray:none" id="rect941" width="172.3737" height="29.06435" x="895.53143" y="583.41534" transform="rotate(2.6695564)"/>
      <rect style="font-variation-settings:'wdth' 70,'wght' 600;display:inline;fill:#000;fill-opacity:1;stroke-width:1.18874;stroke-dasharray:none" id="rect942" width="172.37378" height="1.0000001" x="895.53137" y="437.09372" transform="rotate(2.6695564)"/>
      <rect style="font-variation-settings:'wdth' 70,'wght' 600;display:inline;fill:#000;fill-opacity:1;stroke-width:1.18874;stroke-dasharray:none" id="rect943" width="172.37378" height="1.0000001" x="895.53137" y="466.15805" transform="rotate(2.6695564)"/>
      <rect style="font-variation-settings:'wdth' 70,'wght' 600;display:inline;fill:#000;fill-opacity:1;stroke-width:1.18874;stroke-dasharray:none" id="rect944" width="172.37378" height="1.0000001" x="895.53137" y="495.22238" transform="rotate(2.6695564)"/>
      <rect style="font-variation-settings:'wdth' 70,'wght' 600;display:inline;fill:#000;fill-opacity:1;stroke-width:1.18874;stroke-dasharray:none" id="rect945" width="172.37378" height="1.0000001" x="895.53137" y="524.28668" transform="rotate(2.6695564)"/>
      <rect style="font-variation-settings:'wdth' 70,'wght' 600;display:inline;fill:#000;fill-opacity:1;stroke-width:1.18874;stroke-dasharray:none" id="rect946" width="172.37378" height="1.0000001" x="895.53137" y="553.35101" transform="rotate(2.6695564)"/>
      <rect style="font-variation-settings:'wdth' 70,'wght' 600;display:inline;fill:#000;fill-opacity:1;stroke-width:1.18874;stroke-dasharray:none" id="rect947" width="172.37378" height="1.0000001" x="895.53137" y="582.41534" transform="rotate(2.6695564)"/>
      <rect style="font-variation-settings:'wdth' 70,'wght' 600;display:inline;fill:#000;fill-opacity:1;stroke-width:1.18874;stroke-dasharray:none" id="rect948" width="172.37378" height="1.0000001" x="895.53137" y="611.47968" transform="rotate(2.6695564)"/>
      <rect style="font-variation-settings:'wdth' 70,'wght' 600;display:inline;fill:#000;fill-opacity:1;stroke-width:1.18874;stroke-dasharray:none" id="rect949" width="172.37357" height="1.0000001" x="1090.4893" y="665.59766" transform="rotate(2.6695564)"/>
      <rect style="font-variation-settings:'wdth' 70,'wght' 600;display:inline;fill:#373e43;fill-opacity:1;stroke-width:6.40868;stroke-dasharray:none" id="rect950" width="172.3737" height="29.06435" x="895.53143" y="612.47968" transform="rotate(2.6695564)"/>
      <rect style="font-variation-settings:'wdth' 70,'wght' 600;display:inline;fill:#373e43;fill-opacity:1;stroke-width:6.40868;stroke-dasharray:none" id="rect951" width="172.3737" height="29.06435" x="895.53143" y="641.54401" transform="rotate(2.6695564)"/>
      <rect style="font-variation-settings:'wdth' 70,'wght' 600;display:inline;fill:#373e43;fill-opacity:1;stroke-width:6.40868;stroke-dasharray:none" id="rect952" width="172.3737" height="29.06435" x="895.53143" y="670.60834" transform="rotate(2.6695564)"/>
      <rect style="font-variation-settings:'wdth' 70,'wght' 600;display:inline;fill:#000;fill-opacity:1;stroke-width:1.18874;stroke-dasharray:none" id="rect953" width="172.37378" height="1.0000001" x="895.53137" y="640.54401" transform="rotate(2.6695564)"/>
      <rect style="font-variation-settings:'wdth' 70,'wght' 600;display:inline;fill:#000;fill-opacity:1;stroke-width:1.18874;stroke-dasharray:none" id="rect954" width="172.37378" height="1.0000001" x="895.53137" y="669.60834" transform="rotate(2.6695564)"/>
      <rect style="font-variation-settings:'wdth' 70,'wght' 600;display:inline;fill:#000;fill-opacity:1;stroke-width:1.18874;stroke-dasharray:none" id="rect955" width="172.37357" height="1.0000001" x="1090.4891" y="694.66199" transform="rotate(2.6695564,0.04715316,0.31543)"/>
      <path style="font-variation-settings:'wdth' 70,'wght' 600;display:inline;opacity:1;fill:none;fill-opacity:1;stroke:#bec3c6;stroke-width:5;stroke-dasharray:none;stroke-opacity:1;marker-end:url(#Triangle)" d="m 1140.3582,473.39979 -11.496,246.55673" id="path955" transform="translate(3.6758074e-6,1.8533232e-5)"/>
      <path style="font-variation-settings:'wdth' 70,'wght' 600;display:inline;opacity:1;fill:none;fill-opacity:1;stroke:#bec3c6;stroke-width:5;stroke-dasharray:none;stroke-opacity:1;marker-end:url(#Triangle)" d="M 957.56425,731.88892 976.00868,395.78851" id="path956" transform="translate(3.6758074e-6,1.8533232e-5)"/>
      <rect style="font-variation-settings:'wght' 700;display:inline;fill:none;stroke:#bec3c6;stroke-width:10;stroke-opacity:1" id="rect956" width="21.19548" height="451.13837" x="1067.8757" y="292.40125" transform="rotate(2.6695564,0.19715053,1.2634305)"/>
    </g>
    <g id="g1010" transform="matrix(-0.02439371,0,0,-0.02439371,77.016142,134.51683)" style="display:inline">
      <rect style="font-variation-settings:'wdth' 70,'wght' 600;display:inline;fill:#4b595e;fill-opacity:1;stroke-width:6.73132;stroke-dasharray:none" id="rect957" width="190.16679" height="29.06435" x="1745.594" y="-1006.071"/>
      <rect style="font-variation-settings:'wdth' 70,'wght' 600;display:inline;fill:#48565b;fill-opacity:1;stroke-width:6.73132;stroke-dasharray:none" id="rect958" width="190.16679" height="29.06435" x="1745.594" y="-1035.1354"/>
      <rect style="font-variation-settings:'wdth' 70,'wght' 600;display:inline;fill:#465358;fill-opacity:1;stroke-width:6.73132;stroke-dasharray:none" id="rect959" width="190.16679" height="29.06435" x="1745.594" y="-1064.1997"/>
      <rect style="font-variation-settings:'wdth' 70,'wght' 600;display:inline;fill:#445055;fill-opacity:1;stroke-width:6.73132;stroke-dasharray:none" id="rect960" width="190.16679" height="29.06435" x="1745.594" y="-1093.264"/>
      <rect style="font-variation-settings:'wdth' 70,'wght' 600;display:inline;fill:#424d52;fill-opacity:1;stroke-width:6.73132;stroke-dasharray:none" id="rect961" width="190.16679" height="29.06435" x="1745.594" y="-1122.3285"/>
      <rect style="font-variation-settings:'wdth' 70,'wght' 600;display:inline;fill:#404a4f;fill-opacity:1;stroke-width:6.73132;stroke-dasharray:none" id="rect962" width="190.16695" height="29.06435" x="1745.5939" y="-1151.3928"/>
      <rect style="font-variation-settings:'wdth' 70,'wght' 600;display:inline;fill:#000;fill-opacity:1;stroke-width:1.24859;stroke-dasharray:none" id="rect963" width="190.16679" height="1.0000001" x="1745.594" y="-977.00659"/>
      <rect style="font-variation-settings:'wdth' 70,'wght' 600;display:inline;fill:#000;fill-opacity:1;stroke-width:1.24859;stroke-dasharray:none" id="rect964" width="190.16679" height="1.0000001" x="1745.594" y="-1006.071"/>
      <rect style="font-variation-settings:'wdth' 70,'wght' 600;display:inline;fill:#000;fill-opacity:1;stroke-width:1.24859;stroke-dasharray:none" id="rect965" width="190.16679" height="1.0000001" x="1745.594" y="-1035.1354"/>
      <rect style="font-variation-settings:'wdth' 70,'wght' 600;display:inline;fill:#000;fill-opacity:1;stroke-width:1.24859;stroke-dasharray:none" id="rect966" width="190.16679" height="1.0000001" x="1745.594" y="-1064.1997"/>
      <rect style="font-variation-settings:'wdth' 70,'wght' 600;display:inline;fill:#000;fill-opacity:1;stroke-width:1.24859;stroke-dasharray:none" id="rect967" width="190.16679" height="1.0000001" x="1745.594" y="-1093.264"/>
      <rect style="font-variation-settings:'wdth' 70,'wght' 600;display:inline;fill:#000;fill-opacity:1;stroke-width:1.24859;stroke-dasharray:none" id="rect968" width="190.16679" height="1.0000001" x="1745.594" y="-1122.3285"/>
      <rect style="font-variation-settings:'wdth' 70,'wght' 600;display:inline;fill:#000;fill-opacity:1;stroke-width:1.24859;stroke-dasharray:none" id="rect969" width="190.16702" height="1.0000001" x="1745.5939" y="-1151.3928"/>
      <rect style="font-variation-settings:'wdth' 70,'wght' 600;display:inline;fill:#4f5e63;fill-opacity:1;stroke-width:6.73132;stroke-dasharray:none" id="rect970" width="190.16679" height="29.06435" x="1534.8741" y="-1006.0711"/>
      <rect style="font-variation-settings:'wdth' 70,'wght' 600;display:inline;fill:#516166;fill-opacity:1;stroke-width:6.73132;stroke-dasharray:none" id="rect971" width="190.16679" height="29.06435" x="1534.8741" y="-1035.1354"/>
      <rect style="font-variation-settings:'wdth' 70,'wght' 600;display:inline;fill:#546469;fill-opacity:1;stroke-width:6.73132;stroke-dasharray:none" id="rect972" width="190.16679" height="29.06435" x="1534.8741" y="-1064.1997"/>
      <rect style="font-variation-settings:'wdth' 70,'wght' 600;display:inline;fill:#56676c;fill-opacity:1;stroke-width:6.73132;stroke-dasharray:none" id="rect973" width="190.16679" height="29.06435" x="1534.8741" y="-1093.2642"/>
      <rect style="font-variation-settings:'wdth' 70,'wght' 600;display:inline;fill:#586a6f;fill-opacity:1;stroke-width:6.73132;stroke-dasharray:none" id="rect974" width="190.16679" height="29.06435" x="1534.8741" y="-1122.3285"/>
      <rect style="font-variation-settings:'wdth' 70,'wght' 600;display:inline;fill:#5a6d72;fill-opacity:1;stroke-width:6.73132;stroke-dasharray:none" id="rect975" width="190.16695" height="29.06435" x="1534.874" y="-1151.3929"/>
      <rect style="font-variation-settings:'wdth' 70,'wght' 600;display:inline;fill:#000;fill-opacity:1;stroke-width:1.24859;stroke-dasharray:none" id="rect976" width="190.16679" height="1.0000001" x="1534.8741" y="-977.00665"/>
      <rect style="font-variation-settings:'wdth' 70,'wght' 600;display:inline;fill:#000;fill-opacity:1;stroke-width:1.24859;stroke-dasharray:none" id="rect977" width="190.16679" height="1.0000001" x="1534.8741" y="-1006.0711"/>
      <rect style="font-variation-settings:'wdth' 70,'wght' 600;display:inline;fill:#000;fill-opacity:1;stroke-width:1.24902;stroke-dasharray:none" id="rect978" width="190.16679" height="1.0000001" x="1534.8741" y="-1035.1354"/>
      <rect style="font-variation-settings:'wdth' 70,'wght' 600;display:inline;fill:#000;fill-opacity:1;stroke-width:1.24859;stroke-dasharray:none" id="rect979" width="190.16679" height="1.0000001" x="1534.8741" y="-1064.1997"/>
      <rect style="font-variation-settings:'wdth' 70,'wght' 600;display:inline;fill:#000;fill-opacity:1;stroke-width:1.24859;stroke-dasharray:none" id="rect980" width="190.16679" height="1.0000001" x="1534.8741" y="-1093.2642"/>
      <rect style="font-variation-settings:'wdth' 70,'wght' 600;display:inline;fill:#000;fill-opacity:1;stroke-width:1.24859;stroke-dasharray:none" id="rect981" width="190.16679" height="1.0000001" x="1534.8741" y="-1122.3285"/>
      <rect style="font-variation-settings:'wdth' 70,'wght' 600;display:inline;fill:#000;fill-opacity:1;stroke-width:1.24859;stroke-dasharray:none" id="rect982" width="190.16702" height="1.0000001" x="1534.874" y="-1151.3929"/>
      <rect style="font-variation-settings:'wdth' 70,'wght' 600;display:inline;fill:#3e474c;fill-opacity:1;stroke-width:6.73132;stroke-dasharray:none" id="rect983" width="190.16695" height="29.06435" x="1745.5939" y="-1180.4572"/>
      <rect style="font-variation-settings:'wdth' 70,'wght' 600;display:inline;fill:#000;fill-opacity:1;stroke-width:1.24859;stroke-dasharray:none" id="rect984" width="190.16702" height="1.0000001" x="1745.5939" y="-1180.4572"/>
      <rect style="font-variation-settings:'wdth' 70,'wght' 600;display:inline;fill:#3c4449;fill-opacity:1;stroke-width:6.73132;stroke-dasharray:none" id="rect985" width="190.16695" height="29.06435" x="1745.5939" y="-1209.5215"/>
      <rect style="font-variation-settings:'wdth' 70,'wght' 600;display:inline;fill:#000;fill-opacity:1;stroke-width:1.24859;stroke-dasharray:none" id="rect986" width="190.16702" height="1.0000001" x="1745.5939" y="-1209.5215"/>
      <rect style="font-variation-settings:'wdth' 70,'wght' 600;display:inline;fill:#3a4146;fill-opacity:1;stroke-width:6.73132;stroke-dasharray:none" id="rect987" width="190.16695" height="29.06435" x="1745.5939" y="-1238.5858"/>
      <rect style="font-variation-settings:'wdth' 70,'wght' 600;display:inline;fill:#000;fill-opacity:1;stroke-width:1.24859;stroke-dasharray:none" id="rect988" width="190.16702" height="1.0000001" x="1745.5939" y="-1238.5858"/>
      <rect style="font-variation-settings:'wdth' 70,'wght' 600;display:inline;fill:#5c7075;fill-opacity:1;stroke-width:6.73132;stroke-dasharray:none" id="rect989" width="190.16695" height="29.06435" x="1534.874" y="-1180.4573"/>
      <rect style="font-variation-settings:'wdth' 70,'wght' 600;display:inline;fill:#000;fill-opacity:1;stroke-width:1.24859;stroke-dasharray:none" id="rect990" width="190.16702" height="1.0000001" x="1534.874" y="-1180.4573"/>
      <rect style="font-variation-settings:'wdth' 70,'wght' 600;display:inline;fill:#5e7378;fill-opacity:1;stroke-width:6.73132;stroke-dasharray:none" id="rect991" width="190.16695" height="29.06435" x="1534.874" y="-1209.5216"/>
      <rect style="font-variation-settings:'wdth' 70,'wght' 600;display:inline;fill:#000;fill-opacity:1;stroke-width:1.24859;stroke-dasharray:none" id="rect992" width="190.16702" height="1.0000001" x="1534.874" y="-1209.5216"/>
      <rect style="font-variation-settings:'wdth' 70,'wght' 600;display:inline;fill:#60767b;fill-opacity:1;stroke-width:6.73132;stroke-dasharray:none" id="rect993" width="190.16695" height="29.06435" x="1534.874" y="-1238.5859"/>
      <rect style="font-variation-settings:'wdth' 70,'wght' 600;display:inline;fill:#000;fill-opacity:1;stroke-width:1.24859;stroke-dasharray:none" id="rect994" width="190.16702" height="1.0000001" x="1534.874" y="-1238.5859"/>
      <path style="font-variation-settings:'wght' 700;fill:#6b858a;fill-opacity:1;stroke:#bec3c6;stroke-width:0" d="m 1725.0418,-1397.046 v 42.2027 h -190.168 l 0.4275,-212.0156 h 397.547 l 2.9124,212.0156 h -190.1669 l 2e-4,-42.2027 z" id="path994"/>
      <rect style="font-variation-settings:'wdth' 70,'wght' 600;display:inline;fill:#373e43;fill-opacity:1;stroke-width:6.73132;stroke-dasharray:none" id="rect995" width="190.16695" height="29.06435" x="1745.5939" y="-1267.6503"/>
      <rect style="font-variation-settings:'wdth' 70,'wght' 600;display:inline;fill:#000;fill-opacity:1;stroke-width:1.24859;stroke-dasharray:none" id="rect996" width="190.16702" height="1.0000001" x="1745.5939" y="-1267.6503"/>
      <rect style="font-variation-settings:'wdth' 70,'wght' 600;display:inline;fill:#62797e;fill-opacity:1;stroke-width:6.73132;stroke-dasharray:none" id="rect997" width="190.16695" height="29.06435" x="1534.874" y="-1267.6503"/>
      <rect style="font-variation-settings:'wdth' 70,'wght' 600;display:inline;fill:#647c81;fill-opacity:1;stroke-width:6.73132;stroke-dasharray:none" id="rect998" width="190.16695" height="29.06435" x="1534.874" y="-1296.7146"/>
      <rect style="font-variation-settings:'wdth' 70,'wght' 600;display:inline;fill:#667f84;fill-opacity:1;stroke-width:6.73132;stroke-dasharray:none" id="rect999" width="190.16695" height="29.06435" x="1534.874" y="-1325.7789"/>
      <rect style="font-variation-settings:'wdth' 70,'wght' 600;display:inline;fill:#688287;fill-opacity:1;stroke-width:6.73132;stroke-dasharray:none" id="rect1000" width="190.16695" height="29.06435" x="1534.874" y="-1354.8433"/>
      <rect style="font-variation-settings:'wdth' 70,'wght' 600;display:inline;fill:#353c40;fill-opacity:1;stroke-width:6.73132;stroke-dasharray:none" id="rect1001" width="190.16695" height="29.06435" x="1745.5939" y="-1296.7146"/>
      <rect style="font-variation-settings:'wdth' 70,'wght' 600;display:inline;fill:#333a3d;fill-opacity:1;stroke-width:6.73132;stroke-dasharray:none" id="rect1002" width="190.16695" height="29.06435" x="1745.5939" y="-1325.7789"/>
      <rect style="font-variation-settings:'wdth' 70,'wght' 600;display:inline;fill:#31373a;fill-opacity:1;stroke-width:6.73132;stroke-dasharray:none" id="rect1003" width="190.16695" height="29.06435" x="1745.5939" y="-1354.8433"/>
      <rect style="font-variation-settings:'wdth' 70,'wght' 600;display:inline;fill:#000;fill-opacity:1;stroke-width:1.24859;stroke-dasharray:none" id="rect1004" width="190.16702" height="1.0000001" x="1745.5939" y="-1296.7146"/>
      <rect style="font-variation-settings:'wdth' 70,'wght' 600;display:inline;fill:#000;fill-opacity:1;stroke-width:1.24859;stroke-dasharray:none" id="rect1005" width="190.16702" height="1.0000001" x="1745.5939" y="-1325.7789"/>
      <rect style="font-variation-settings:'wdth' 70,'wght' 600;display:inline;fill:#000;fill-opacity:1;stroke-width:1.24859;stroke-dasharray:none" id="rect1006" width="190.16702" height="1.0000001" x="1534.874" y="-1267.6503"/>
      <rect style="font-variation-settings:'wdth' 70,'wght' 600;display:inline;fill:#000;fill-opacity:1;stroke-width:1.24859;stroke-dasharray:none" id="rect1007" width="190.16702" height="1.0000001" x="1534.874" y="-1296.7146"/>
      <rect style="font-variation-settings:'wdth' 70,'wght' 600;display:inline;fill:#000;fill-opacity:1;stroke-width:1.24859;stroke-dasharray:none" id="rect1008" width="190.16702" height="1.0000001" x="1534.874" y="-1325.7789"/>
      <rect style="font-variation-settings:'wdth' 70,'wght' 600;display:inline;fill:#000;fill-opacity:1;stroke-width:1.24859;stroke-dasharray:none" id="rect1009" width="190.16702" height="1.0000001" x="1534.874" y="-1354.8433"/>
      <path style="font-variation-settings:'wdth' 70,'wght' 600;display:inline;opacity:1;fill:none;fill-opacity:1;stroke:#bec3c6;stroke-width:5;stroke-dasharray:none;stroke-opacity:1;marker-end:url(#Triangle)" d="m 1834.4278,-1340.3111 10e-5,334.2401" id="path1009"/>
      <path style="font-variation-settings:'wdth' 70,'wght' 600;display:inline;opacity:1;fill:none;fill-opacity:1;stroke:#bec3c6;stroke-width:5;stroke-dasharray:none;stroke-opacity:1;marker-end:url(#Triangle)" d="M 1636.2079,-991.53894 V -1324.7789" id="path1010"/>
      <rect style="font-variation-settings:'wght' 700;display:inline;fill:none;stroke:#bec3c6;stroke-width:10;stroke-opacity:1" id="rect1010" width="20.552124" height="454.18738" x="1725.042" y="-1397.046" transform="translate(-1.7912403e-4)"/>
    </g>
    <g id="walls_3" transform="matrix(0.02439371,0,0,0.02439371,-0.02443957,244.19953)" style="display:inline">
      <path style="font-variation-settings:'wdth' 70,'wght' 600;fill:none;stroke:#bec3c6;stroke-width:35;stroke-linecap:butt;stroke-dasharray:none;stroke-opacity:1" d="m 847.11401,-3485.0348 v -79.8272 h 95.14282 v -718.2752" id="path1011"/>
      <path style="font-variation-settings:'wdth' 70,'wght' 600;fill:none;stroke:#bec3c6;stroke-width:55;stroke-linecap:butt;stroke-dasharray:none;stroke-opacity:1" d="m 1222.4543,-3963.2574 v -319.8798 H 103.81119 v 5756.0267 h 253.18885 l -1,304.1109 1274.84576,64.6031 7.1544,-109.1031" id="path1012"/>
      <path style="font-variation-settings:'wdth' 70,'wght' 600;fill:none;stroke:#bec3c6;stroke-width:35;stroke-linecap:butt;stroke-dasharray:none;stroke-opacity:1" d="m 1222.4543,-3963.2574 v 135.7645" id="path1013"/>
      <path style="font-variation-settings:'wdth' 70,'wght' 600;fill:none;stroke:#bec3c6;stroke-width:35;stroke-linecap:butt;stroke-dasharray:none;stroke-opacity:1" d="m 1222.4543,-3677.4929 v 808.5294" id="path1014"/>
      <path style="font-variation-settings:'wdth' 70,'wght' 600;fill:none;stroke:#bec3c6;stroke-width:35;stroke-linecap:butt;stroke-dasharray:none;stroke-opacity:1" d="m 847.11401,-2777.475 v -30.9048 h 95.14282 v -247.5435 0 H 826.60791" id="path1015"/>
      <path style="font-variation-settings:'wdth' 70,'wght' 600;fill:none;stroke:#bec3c6;stroke-width:35;stroke-linecap:butt;stroke-dasharray:none;stroke-opacity:1" d="m 942.25683,-2185.7454 v -396.9959 h -95.14282" id="path1016"/>
      <path style="font-variation-settings:'wdth' 70,'wght' 600;fill:none;stroke:#bec3c6;stroke-width:35;stroke-linecap:butt;stroke-dasharray:none;stroke-opacity:1" d="M 1042.3792,-2071.0164 H 103.81119" id="path1017"/>
      <path style="font-variation-settings:'wdth' 70,'wght' 600;fill:none;stroke:#bec3c6;stroke-width:35;stroke-linecap:butt;stroke-dasharray:none;stroke-opacity:1" d="M 1222.4543,-2768.9635 V 747.72699" id="path1018"/>
      <path style="font-variation-settings:'wdth' 70,'wght' 600;fill:none;stroke:#bec3c6;stroke-width:35;stroke-linecap:butt;stroke-dasharray:none;stroke-opacity:1" d="m 942.25683,-1950.6306 v 156.5796 h -95.14282" id="path1019"/>
      <path style="font-variation-settings:'wdth' 70,'wght' 600;fill:none;stroke:#bec3c6;stroke-width:35;stroke-linecap:butt;stroke-dasharray:none;stroke-opacity:1" d="m 847.11401,-1599.3173 v 42.5949 h 95.14282 v 685.61119 h -95.14282 v 44.7338" id="path1021"/>
      <path style="font-variation-settings:'wdth' 70,'wght' 600;fill:none;stroke:#bec3c6;stroke-width:35;stroke-linecap:butt;stroke-dasharray:none;stroke-opacity:1" d="m 847.11401,-676.37743 v 44.7337 h 95.14282 v 796.86801 h -95.14282 v 44.73375" id="path1022"/>
      <path style="font-variation-settings:'wdth' 70,'wght' 600;fill:none;stroke:#bec3c6;stroke-width:35;stroke-linecap:butt;stroke-dasharray:none;stroke-opacity:1" d="M 942.25683,-215.7097 H 103.81119" id="path1023"/>
      <path style="font-variation-settings:'wdth' 70,'wght' 600;fill:none;stroke:#bec3c6;stroke-width:35;stroke-linecap:butt;stroke-dasharray:none;stroke-opacity:1" d="m 847.11401,-2627.475 v 878.1577" id="path1025"/>
      <path style="font-variation-settings:'wdth' 70,'wght' 600;fill:none;stroke:#bec3c6;stroke-width:35;stroke-linecap:butt;stroke-dasharray:none;stroke-opacity:1" d="m 942.25683,-2029.3516 v -83.3296" id="path1026"/>
      <path style="font-variation-settings:'wdth' 70,'wght' 600;fill:none;stroke:#bec3c6;stroke-width:35;stroke-linecap:butt;stroke-dasharray:none;stroke-opacity:1" d="m 942.43998,-3963.2574 h 60.23752" id="path1027"/>
      <path style="font-variation-settings:'wdth' 70,'wght' 600;fill:none;stroke:#bec3c6;stroke-width:35;stroke-linecap:butt;stroke-dasharray:none;stroke-opacity:1" d="M 1222.4543,-2929.4928 H 1623.341" id="path1028"/>
      <path style="font-variation-settings:'wdth' 70,'wght' 600;fill:none;stroke:#bec3c6;stroke-width:35;stroke-linecap:butt;stroke-dasharray:none;stroke-opacity:1" d="M 1222.4543,-2732.113 H 1623.341 V -3963.2574 H 1137.0278" id="path1029"/>
      <path style="font-variation-settings:'wdth' 70,'wght' 600;fill:none;stroke:#bec3c6;stroke-width:35;stroke-linecap:butt;stroke-dasharray:none;stroke-opacity:1" d="M 1042.3792,969.87957 H 847.11401 v 87.62073" id="path1030"/>
      <path style="font-variation-settings:'wdth' 70,'wght' 600;fill:none;stroke:#bec3c6;stroke-width:35;stroke-linecap:butt;stroke-dasharray:none;stroke-opacity:1" d="m 1222.4543,870.37956 h 282.5752" id="path1031"/>
      <path style="font-variation-settings:'wdth' 70,'wght' 600;fill:none;stroke:#bec3c6;stroke-width:35;stroke-linecap:butt;stroke-dasharray:none;stroke-opacity:1" d="m 1148.8792,1257.8796 h 362.0804" id="path1032"/>
      <path style="font-variation-settings:'wdth' 70,'wght' 600;fill:none;stroke:#bec3c6;stroke-width:35;stroke-linecap:butt;stroke-dasharray:none;stroke-opacity:1" d="m 1622.7243,1813.872 45.6061,-724.9991 m 8.564,-97.24949 17.0422,-296.74953" id="path1033"/>
      <path style="font-variation-settings:'wdth' 70,'wght' 600;fill:none;stroke:#bec3c6;stroke-width:35;stroke-linecap:butt;stroke-dasharray:none;stroke-opacity:1" d="M 1505.0295,694.87388 V 967.22702" id="path1034"/>
      <path style="font-variation-settings:'wdth' 70,'wght' 600;fill:none;stroke:#bec3c6;stroke-width:35;stroke-linecap:butt;stroke-dasharray:none;stroke-opacity:1" d="m 1192.3793,969.87957 h 345.1503" id="path1035"/>
      <path style="font-variation-settings:'wdth' 70,'wght' 600;fill:none;stroke:#bec3c6;stroke-width:35;stroke-linecap:butt;stroke-dasharray:none;stroke-opacity:1" d="m 1637.5296,969.87957 h 39.3648" id="path1036"/>
      <path style="font-variation-settings:'wdth' 70,'wght' 600;fill:none;stroke:#bec3c6;stroke-width:55;stroke-linecap:butt;stroke-dasharray:none;stroke-opacity:1" d="M 1977.7416,1883.2679 2055.6067,583.39683" id="path1037"/>
      <path style="font-variation-settings:'wdth' 70,'wght' 600;fill:none;stroke:#bec3c6;stroke-width:35;stroke-linecap:butt;stroke-dasharray:none;stroke-opacity:1" d="m 1985.5259,1753.3179 -347.5257,-20.8175" id="path1038"/>
      <path style="font-variation-settings:'wdth' 70,'wght' 600;fill:none;stroke:#bec3c6;stroke-width:35;stroke-linecap:butt;stroke-dasharray:none;stroke-opacity:1" d="M 2048.929,694.87388 H 1222.4543" id="path1039"/>
      <path style="font-variation-settings:'wdth' 70,'wght' 600;fill:none;stroke:#bec3c6;stroke-width:35;stroke-linecap:butt;stroke-dasharray:none;stroke-opacity:1" d="m 1610.9596,1257.8796 h 46.7394" id="path1040"/>
      <path style="font-variation-settings:'wdth' 70,'wght' 600;fill:none;stroke:#bec3c6;stroke-width:35;stroke-linecap:butt;stroke-dasharray:none;stroke-opacity:1" d="m 1325.819,1257.8796 v 568.2666" id="path1041"/>
      <path style="font-variation-settings:'wdth' 70,'wght' 600;fill:none;stroke:#bec3c6;stroke-width:35;stroke-linecap:butt;stroke-dasharray:none;stroke-opacity:1" d="m 847.11401,-3195.5238 v -139.5109" id="path1042"/>
      <path style="font-variation-settings:'wdth' 70,'wght' 600;fill:none;stroke:#bec3c6;stroke-width:35;stroke-linecap:butt;stroke-dasharray:none;stroke-opacity:1" d="M 1222.4543,892.87956 V 847.72701" id="path1043"/>
      <path style="font-variation-settings:'wdth' 70,'wght' 600;fill:none;stroke:#bec3c6;stroke-width:35;stroke-linecap:butt;stroke-dasharray:none;stroke-opacity:1" d="M 1222.4543,969.87957 V 942.72702" id="path1044"/>
      <path style="font-variation-settings:'wdth' 70,'wght' 600;fill:none;stroke:#bec3c6;stroke-width:35;stroke-linecap:butt;stroke-dasharray:none;stroke-opacity:1" d="M 942.25683,756.01579 H 103.81119" id="path1046"/>
      <path style="font-variation-settings:'wdth' 70,'wght' 600;fill:none;stroke:#bec3c6;stroke-width:35;stroke-linecap:butt;stroke-dasharray:none;stroke-opacity:1" d="m 847.11401,-3095.5238 v 39.6005" id="path1047"/>
      <path style="font-variation-settings:'wdth' 70,'wght' 600;fill:none;stroke:#bec3c6;stroke-width:35;stroke-linecap:butt;stroke-dasharray:none;stroke-opacity:1" d="m 942.25683,-1080.782 -838.44564,-10e-5" id="path1049"/>
      <path style="font-variation-settings:'wdth' 70,'wght' 600;fill:none;stroke:#bec3c6;stroke-width:35;stroke-linecap:butt;stroke-dasharray:none;stroke-opacity:1" d="m 847.11401,359.95804 v 44.73371 h 95.14282 v 565.18782" id="path1050"/>
      <path style="font-variation-settings:'wdth' 70,'wght' 600;fill:none;stroke:#bec3c6;stroke-width:35;stroke-linecap:butt;stroke-dasharray:none;stroke-opacity:1" d="M 942.25683,1806.7091 V 1257.8796" id="path1051"/>
      <path style="font-variation-settings:'wdth' 70,'wght' 600;fill:none;stroke:#bec3c6;stroke-width:35;stroke-linecap:butt;stroke-dasharray:none;stroke-opacity:1" d="M 726.60789,-3055.9233 H 103.81119" id="path1086"/>
      <path style="font-variation-settings:'wdth' 70,'wght' 600;fill:none;stroke:#bec3c6;stroke-width:35;stroke-linecap:butt;stroke-dasharray:none;stroke-opacity:1" d="M 726.60789,-3300.4408 H 103.81119" id="path1087"/>
      <path style="font-variation-settings:'wdth' 70,'wght' 600;fill:none;stroke:#bec3c6;stroke-width:35;stroke-linecap:butt;stroke-dasharray:none;stroke-opacity:1" d="m 847.11401,-3300.4408 h -20.5061" id="path1088"/>
      <path style="font-variation-settings:'wdth' 70,'wght' 600;fill:none;stroke:#bec3c6;stroke-width:35;stroke-linecap:butt;stroke-dasharray:none;stroke-opacity:1" d="M 1048.8792,1257.8796 H 847.11401 v -50.3792" id="path1089"/>
    </g>
    <g id="g1075" transform="matrix(0.02439371,0,0,0.02439371,-0.02443957,51.489201)" style="display:inline">
      <g id="g1073" style="display:inline" transform="matrix(0.98394638,0,0,0.98394638,-1330.9429,2765.8861)">
        <rect style="font-variation-settings:'wdth' 70,'wght' 600;fill:none;fill-opacity:1;stroke:#d6d7de;stroke-width:4.78791;stroke-linejoin:miter;stroke-dasharray:none;stroke-opacity:1" id="rect1073" width="95.212135" height="95.212151" x="2405.0667" y="979.80487" ry="9.1410179"/>
        <path d="m 2427.7505,1062.6135 h 12.6169 v -23.8318 h 6.2306 v -17.757 c 0,-2.6337 -0.8992,-4.8497 -2.6976,-6.6481 -1.7985,-1.7985 -4.0665,-2.6977 -6.804,-2.6977 h -6.2306 c -2.7375,0 -4.9794,0.8992 -6.7258,2.6977 -1.7466,1.7984 -2.6199,4.0144 -2.6199,6.6481 v 17.757 h 6.2304 z m 6.1958,-54.9845 c 2.1478,0 3.9626,-0.7033 5.4445,-2.1098 1.4819,-1.4064 2.2228,-3.2356 2.2228,-5.4875 0,-2.148 -0.7292,-3.93697 -2.1877,-5.3669 -1.4583,-1.42987 -3.2615,-2.1448 -5.4096,-2.1448 -2.1481,0 -3.937,0.70327 -5.3669,2.1098 -1.4299,1.4064 -2.1449,3.18367 -2.1449,5.3318 0,2.2518 0.7033,4.0926 2.11,5.5225 1.4064,1.4299 3.1837,2.1449 5.3318,2.1449 z m 28.3838,9.9689 h 20.0934 l -9.9688,-16.1994 z m 10.1246,35.6697 9.9688,-16.1993 h -20.0934 z" id="path1073" style="fill:#d5d6dd;fill-opacity:1;stroke-width:0;stroke-dasharray:none"/>
      </g>
      <path d="m 1125.4887,9492.0137 v -31.8653 h -10.1036 v -32.2539 q 0,-3.5621 2.5583,-6.1204 2.5583,-2.5583 6.1205,-2.5583 h 19.9482 q 3.5621,0 6.1204,2.5583 2.5583,2.5583 2.5583,6.1204 v 32.2539 h -10.1036 v 31.8653 z m 8.5596,-82.6425 q -3.6891,0 -6.1891,-2.5544 -2.5,-2.5545 -2.5,-6.114 0,-3.6891 2.4896,-6.1891 2.4899,-2.5 6.1788,-2.5 3.6891,0 6.1891,2.4896 2.5,2.4898 2.5,6.1788 0,3.5596 -2.4896,6.1244 -2.4897,2.5647 -6.1788,2.5647 z" id="path1074" style="display:inline;fill:#fff;fill-opacity:.798742;stroke-width:.129534"/>
      <path d="m 1482.6916,9492.0137 v -30.052 h -14.7668 l 14.2098,-39.446 q 1.121,-2.898 3.8366,-4.588 2.7155,-1.691 5.7878,-1.691 3.0723,0 5.7878,1.691 2.7156,1.69 3.8542,4.577 l 14.1922,39.457 h -14.7668 v 30.052 z m 9.0778,-82.642 q -3.6892,0 -6.1892,-2.551 -2.5,-2.5502 -2.5,-6.1178 0,-3.6891 2.4897,-6.1891 2.4899,-2.5 6.1787,-2.5 3.6892,0 6.1892,2.4896 2.5,2.4898 2.5,6.114 0,3.6244 -2.4897,6.1893 -2.4896,2.565 -6.1787,2.565 z" id="path1075" style="display:inline;fill:#fff;fill-opacity:.803459;stroke-width:.129534"/>
    </g>
    <path id="path1118" d="m 425.59669,357.44759 q -19.584,0 -31.68,-16.32 -11.904,-16.32 -11.904,-47.424 0,-31.296 11.904,-47.04 12.096,-15.744 31.68,-15.744 19.584,0 31.488,15.936 12.096,15.744 12.096,46.848 0,31.104 -12.096,47.424 -11.904,16.32 -31.488,16.32 z m 0,-21.888 q 4.8,0 8.64,-3.456 3.84,-3.648 5.952,-12.672 2.304,-9.216 2.304,-25.728 0,-16.704 -2.304,-25.536 -2.112,-8.832 -5.952,-12.096 -3.84,-3.264 -8.64,-3.264 -4.8,0 -8.64,3.264 -3.84,3.264 -6.144,12.096 -2.112,8.832 -2.112,25.536 0,16.512 2.112,25.728 2.304,9.024 6.144,12.672 3.84,3.456 8.64,3.456 z m 104.63998,21.888 q -8.832,0 -17.088,-3.456 -8.256,-3.456 -14.784,-10.752 -6.528,-7.296 -10.368,-18.624 -3.84,-11.52 -3.84,-27.648 0,-17.088 4.032,-29.568 4.032,-12.48 10.944,-20.544 6.912,-8.064 15.744,-11.904 8.832,-4.032 18.624,-4.032 12.096,0 20.928,4.416 8.832,4.224 14.592,10.176 l -14.784,16.896 q -3.264,-3.456 -8.448,-5.952 -5.184,-2.688 -10.56,-2.688 -6.912,0 -12.864,4.032 -5.76,4.032 -9.216,13.632 -3.264,9.408 -3.264,25.536 0,15.168 2.688,23.808 2.88,8.448 7.488,12.096 4.608,3.456 9.6,3.456 4.224,0 7.68,-2.112 3.456,-2.112 5.568,-6.336 2.112,-4.416 2.112,-11.328 0,-6.528 -2.112,-10.368 -2.112,-3.84 -5.76,-5.568 -3.456,-1.728 -8.064,-1.728 -4.8,0 -9.984,2.88 -4.992,2.88 -9.024,10.176 l -1.344,-18.432 q 4.8,-7.104 12.288,-10.752 7.488,-3.84 13.44,-3.84 10.368,0 18.624,4.032 8.256,4.032 12.864,12.48 4.8,8.256 4.8,21.12 0,12.672 -5.568,21.888 -5.376,9.216 -14.592,14.208 -9.216,4.8 -20.352,4.8 z M 325.37268,115.14359 V -10.040412 h 78.912 v 23.808 h -50.688 v 28.992 h 43.392 v 23.808 h -43.392 v 48.576002 z m 149.56799,2.304 q -16.896,0 -29.76,-7.872 -12.672,-7.872 -19.968,-22.464002 -7.104,-14.592 -7.104,-35.136 0,-20.352 7.104,-34.752 7.296,-14.4000004 19.968,-21.8880004 12.864,-7.6799996 29.76,-7.6799996 16.896,0 29.76,7.6799996 12.864,7.488 19.968,21.8880004 7.104,14.4 7.104,34.752 0,20.544 -7.104,35.136 -7.104,14.592002 -19.968,22.464002 -12.864,7.872 -29.76,7.872 z m 0,-24.384002 q 8.64,0 14.784,-4.992 6.336,-5.184 9.6,-14.4 3.456,-9.216 3.456,-21.696 0,-12.48 -3.456,-21.312 -3.264,-9.024 -9.6,-13.632 -6.144,-4.8 -14.784,-4.8 -8.448,0 -14.784,4.8 -6.336,4.608 -9.792,13.632 -3.264,8.832 -3.264,21.312 0,12.48 3.264,21.696 3.456,9.216 9.792,14.4 6.336,4.992 14.784,4.992 z m -21.312,-112.32 q -5.76,0 -9.6,-3.84 -3.84,-3.84 -3.84,-9.6 0,-5.76 3.84,-9.6 3.84,-3.84 9.6,-3.84 5.952,0 9.6,3.84 3.84,3.84 3.84,9.6 0,5.76 -3.84,9.6 -3.648,3.84 -9.6,3.84 z m 42.624,0 q -5.76,0 -9.6,-3.84 -3.84,-3.84 -3.84,-9.6 0,-5.76 3.84,-9.6 3.84,-3.84 9.6,-3.84 5.952,0 9.6,3.84 3.84,3.84 3.84,9.6 0,5.76 -3.84,9.6 -3.648,3.84 -9.6,3.84 z M 320.18871,357.44759 q -9.792,0 -17.856,-2.304 -7.872,-2.112 -14.016,-5.952 -6.144,-3.84 -10.56,-9.024 l 13.056,-17.856 q 5.568,5.376 12.288,8.832 6.72,3.456 14.4,3.456 8.832,0 14.208,-3.648 5.568,-3.84 5.568,-10.752 0,-5.376 -2.688,-9.216 -2.688,-4.032 -9.792,-6.144 -6.912,-2.112 -20.352,-2.112 v -19.968 q 10.944,0 17.28,-2.112 6.336,-2.112 8.832,-5.76 2.688,-3.648 2.688,-8.448 0,-6.528 -4.032,-9.984 -3.84,-3.456 -10.944,-3.456 -6.528,0 -11.904,2.88 -5.184,2.688 -10.944,7.872 l -14.208,-17.28 q 8.448,-7.296 17.856,-11.328 9.408,-4.224 20.544,-4.224 12.48,0 21.888,4.032 9.6,3.84 14.784,11.328 5.376,7.296 5.376,18.048 0,9.408 -5.376,16.128 -5.184,6.72 -14.976,10.944 v 0.768 q 6.912,2.112 12.48,6.144 5.568,3.84 8.64,9.792 3.072,5.952 3.072,13.824 0,11.328 -6.336,19.392 -6.144,7.872 -16.512,12.096 -10.176,4.032 -22.464,4.032 z m 106.55998,-918.39897 q -19.584,0 -31.68,-16.32 -11.904,-16.32 -11.904,-47.424 0,-31.296 11.904,-47.04 12.096,-15.744 31.68,-15.744 19.584,0 31.488,15.936 12.096,15.744 12.096,46.848 0,31.104 -12.096,47.424 -11.904,16.32 -31.488,16.32 z m 0,-21.888 q 4.8,0 8.64,-3.456 3.84,-3.648 5.952,-12.672 2.304,-9.216 2.304,-25.728 0,-16.704 -2.304,-25.536 -2.112,-8.832 -5.952,-12.096 -3.84,-3.264 -8.64,-3.264 -4.8,0 -8.64,3.264 -3.84,3.264 -6.144,12.096 -2.112,8.832 -2.112,25.536 0,16.512 2.112,25.728 2.304,9.024 6.144,12.672 3.84,3.456 8.64,3.456 z m 98.11198,21.888 q -9.984,0 -18.048,-2.304 -7.872,-2.304 -14.016,-6.144 -6.144,-3.84 -10.944,-8.64 l 12.672,-17.856 q 5.568,4.992 12.096,8.64 6.528,3.456 14.208,3.456 6.144,0 10.752,-2.112 4.608,-2.304 7.104,-6.528 2.688,-4.224 2.688,-10.368 0,-9.216 -5.376,-14.016 -5.376,-4.8 -13.824,-4.8 -5.184,0 -8.832,1.344 -3.648,1.344 -9.216,4.8 l -12.672,-8.064 3.456,-61.632 h 69.12 v 23.808 h -44.736 l -2.112,22.848 q 3.648,-1.536 6.72,-2.112 3.072,-0.768 6.912,-0.768 10.56,0 19.392,4.032 8.832,4.032 14.016,12.48 5.376,8.448 5.376,21.312 0,13.632 -6.336,23.232 -6.144,9.408 -16.32,14.4 -10.176,4.992 -22.08,4.992 z m -198.33599,-242.304 v -125.184 h 78.912 v 23.808 h -50.688 v 28.992 h 43.392 v 23.808 h -43.392 v 48.576 z m 149.56799,2.304 q -16.896,0 -29.76,-7.872 -12.672,-7.872 -19.968,-22.464 -7.104,-14.592 -7.104,-35.136 0,-20.352 7.104,-34.752 7.296,-14.4 19.968,-21.888 12.864,-7.68 29.76,-7.68 16.896,0 29.76,7.68 12.864,7.488 19.968,21.888 7.104,14.4 7.104,34.752 0,20.544 -7.104,35.136 -7.104,14.592 -19.968,22.464 -12.864,7.872 -29.76,7.872 z m 0,-24.384 q 8.64,0 14.784,-4.992 6.336,-5.184 9.6,-14.4 3.456,-9.216 3.456,-21.696 0,-12.48 -3.456,-21.312 -3.264,-9.024 -9.6,-13.632 -6.144,-4.8 -14.784,-4.8 -8.448,0 -14.784,4.8 -6.336,4.608 -9.792,13.632 -3.264,8.832 -3.264,21.312 0,12.48 3.264,21.696 3.456,9.216 9.792,14.4 6.336,4.992 14.784,4.992 z m -21.312,-112.32 q -5.76,0 -9.6,-3.84 -3.84,-3.84 -3.84,-9.6 0,-5.76 3.84,-9.6 3.84,-3.84 9.6,-3.84 5.952,0 9.6,3.84 3.84,3.84 3.84,9.6 0,5.76 -3.84,9.6 -3.648,3.84 -9.6,3.84 z m 42.624,0 q -5.76,0 -9.6,-3.84 -3.84,-3.84 -3.84,-9.6 0,-5.76 3.84,-9.6 3.84,-3.84 9.6,-3.84 5.952,0 9.6,3.84 3.84,3.84 3.84,9.6 0,5.76 -3.84,9.6 -3.648,3.84 -9.6,3.84 z m -176.06396,376.704 q -9.792,0 -17.856,-2.304 -7.872,-2.112 -14.016,-5.952 -6.144,-3.84 -10.56,-9.024 l 13.056,-17.856 q 5.568,5.376 12.288,8.832 6.72,3.456 14.4,3.456 8.832,0 14.208,-3.648 5.568,-3.84 5.568,-10.752 0,-5.376 -2.688,-9.216 -2.688,-4.032 -9.792,-6.144 -6.912,-2.112 -20.352,-2.112 v -19.968 q 10.944,0 17.28,-2.112 6.336,-2.112 8.832,-5.76 2.688,-3.648 2.688,-8.448 0,-6.528 -4.032,-9.984 -3.84,-3.456 -10.944,-3.456 -6.528,0 -11.904,2.88 -5.184,2.688 -10.944,7.872 l -14.208,-17.28 q 8.448,-7.296 17.856,-11.328 9.408,-4.224 20.544,-4.224 12.48,0 21.888,4.032 9.6,3.84 14.784,11.328 5.376,7.296 5.376,18.048 0,9.408 -5.376,16.128 -5.184,6.72 -14.976,10.944 v 0.768 q 6.912,2.112 12.48,6.144 5.568,3.84 8.64,9.792 3.072,5.952 3.072,13.824 0,11.328 -6.336,19.392 -6.144,7.872 -16.512,12.096 -10.176,4.032 -22.464,4.032 z m 103.10398,-927.65332 q -19.584,0 -31.68,-16.32 -11.904,-16.32 -11.904,-47.424 0,-31.296 11.904,-47.04 12.096,-15.744 31.68,-15.744 19.584,0 31.488,15.936 12.096,15.744 12.096,46.848 0,31.104 -12.096,47.424 -11.904,16.32 -31.488,16.32 z m 0,-21.888 q 4.8,0 8.64,-3.456 3.84,-3.648 5.952,-12.672 2.304,-9.216 2.304,-25.728 0,-16.704 -2.304,-25.536 -2.112,-8.832 -5.952,-12.096 -3.84,-3.264 -8.64,-3.264 -4.8,0 -8.64,3.264 -3.84,3.264 -6.144,12.096 -2.112,8.832 -2.112,25.536 0,16.512 2.112,25.728 2.304,9.024 6.144,12.672 3.84,3.456 8.64,3.456 z m 107.13598,19.584 v -70.464 q 0,-5.76 0.384,-13.632 0.576,-7.872 0.768,-13.632 h -0.768 q -2.304,4.992 -4.8,10.176 -2.496,4.992 -5.184,10.368 l -16.128,26.496 h 66.048 v 21.504 h -93.12 v -19.392 l 44.544,-73.344 h 34.56 v 121.92 z m -207.35999,-240 v -125.184 h 78.912 v 23.808 h -50.688 v 28.992 h 43.392 v 23.808 h -43.392 v 48.576 z m 149.56799,2.304 q -16.896,0 -29.76,-7.872 -12.672,-7.872 -19.968,-22.464 -7.104,-14.592 -7.104,-35.136 0,-20.352 7.104,-34.752 7.296,-14.4 19.968,-21.888 12.864,-7.68 29.76,-7.68 16.896,0 29.76,7.68 12.864,7.488 19.968,21.888 7.104,14.4 7.104,34.752 0,20.544 -7.104,35.136 -7.104,14.592 -19.968,22.464 -12.864,7.872 -29.76,7.872 z m 0,-24.384 q 8.64,0 14.784,-4.992 6.336,-5.184 9.6,-14.4 3.456,-9.216 3.456,-21.696 0,-12.48 -3.456,-21.312 -3.264,-9.024 -9.6,-13.632 -6.144,-4.8 -14.784,-4.8 -8.448,0 -14.784,4.8 -6.336,4.608 -9.792,13.632 -3.264,8.832 -3.264,21.312 0,12.48 3.264,21.696 3.456,9.216 9.792,14.4 6.336,4.992 14.784,4.992 z m -21.312,-112.32 q -5.76,0 -9.6,-3.84 -3.84,-3.84 -3.84,-9.6 0,-5.76 3.84,-9.6 3.84,-3.84 9.6,-3.84 5.952,0 9.6,3.84 3.84,3.84 3.84,9.6 0,5.76 -3.84,9.6 -3.648,3.84 -9.6,3.84 z m 42.624,0 q -5.76,0 -9.6,-3.84 -3.84,-3.84 -3.84,-9.6 0,-5.76 3.84,-9.6 3.84,-3.84 9.6,-3.84 5.952,0 9.6,3.84 3.84,3.84 3.84,9.6 0,5.76 -3.84,9.6 -3.648,3.84 -9.6,3.84 z m -176.06396,376.704 q -9.792,0 -17.856,-2.304 -7.872,-2.112 -14.016,-5.952 -6.144,-3.84 -10.56,-9.024 l 13.056,-17.856 q 5.568,5.376 12.288,8.832 6.72,3.456 14.4,3.456 8.832,0 14.208,-3.648 5.568,-3.84 5.568,-10.752 0,-5.376 -2.688,-9.216 -2.688,-4.032 -9.792,-6.144 -6.912,-2.112 -20.352,-2.112 v -19.968 q 10.944,0 17.28,-2.112 6.336,-2.112 8.832,-5.76 2.688,-3.648 2.688,-8.448 0,-6.528 -4.032,-9.984 -3.84,-3.456 -10.944,-3.456 -6.528,0 -11.904,2.88 -5.184,2.688 -10.944,7.872 l -14.208,-17.28 q 8.448,-7.296 17.856,-11.328 9.408,-4.224 20.544,-4.224 12.48,0 21.888,4.032 9.6,3.84 14.784,11.328 5.376,7.296 5.376,18.048 0,9.408 -5.376,16.128 -5.184,6.72 -14.976,10.944 v 0.768 q 6.912,2.112 12.48,6.144 5.568,3.84 8.64,9.792 3.072,5.952 3.072,13.824 0,11.328 -6.336,19.392 -6.144,7.872 -16.512,12.096 -10.176,4.032 -22.464,4.032 z m 58.34857,-1736.8108 q -6.528,0 -10.56,-5.44 -3.968,-5.44 -3.968,-15.808 0,-10.432 3.968,-15.68 4.032,-5.248 10.56,-5.248 6.528,0 10.496,5.312 4.032,5.248 4.032,15.616 0,10.368 -4.032,15.808 -3.968,5.44 -10.496,5.44 z m 0,-7.296 q 1.6,0 2.88,-1.152 1.28,-1.216 1.984,-4.224 0.768,-3.072 0.768,-8.576 0,-5.568 -0.768,-8.512 -0.704,-2.944 -1.984,-4.032 -1.28,-1.088 -2.88,-1.088 -1.6,0 -2.88,1.088 -1.28,1.088 -2.048,4.032 -0.704,2.944 -0.704,8.512 0,5.504 0.704,8.576 0.768,3.008 2.048,4.224 1.28,1.152 2.88,1.152 z m 19.264,6.528 v -5.824 q 5.12,-4.544 9.088,-8.512 4.032,-3.968 6.272,-7.36 2.304,-3.392 2.304,-6.208 0,-3.008 -1.536,-4.544 -1.536,-1.6 -4.224,-1.6 -2.176,0 -3.968,1.28 -1.728,1.216 -3.264,2.88 l -4.928,-4.864 q 2.944,-3.328 6.016,-4.992 3.136,-1.664 7.424,-1.664 3.968,0 6.976,1.6 3.072,1.6 4.736,4.48 1.728,2.88 1.728,6.784 0,3.648 -1.984,7.168 -1.92,3.456 -5.12,6.912 -3.2,3.456 -6.784,7.04 1.536,-0.192 3.456,-0.32 1.92,-0.192 3.328,-0.192 h 9.088 v 7.936 z m -52.672,-80 v -41.728 h 26.304 v 7.936 h -16.896 v 9.664 h 14.464 v 7.936 h -14.464 v 16.192 z m 49.856,0.768 q -5.632,0 -9.92,-2.624 -4.224,-2.624 -6.656,-7.488 -2.368,-4.864 -2.368,-11.712 0,-6.784 2.368,-11.584 2.432,-4.8 6.656,-7.296 4.288,-2.56 9.92,-2.56 5.632,0 9.92,2.56 4.288,2.496 6.656,7.296 2.368,4.8 2.368,11.584 0,6.848 -2.368,11.712 -2.368,4.864 -6.656,7.488 -4.288,2.624 -9.92,2.624 z m 0,-8.128 q 2.88,0 4.928,-1.664 2.112,-1.728 3.2,-4.8 1.152,-3.072 1.152,-7.232 0,-4.16 -1.152,-7.104 -1.088,-3.008 -3.2,-4.544 -2.048,-1.6 -4.928,-1.6 -2.816,0 -4.928,1.6 -2.112,1.536 -3.264,4.544 -1.088,2.944 -1.088,7.104 0,4.16 1.088,7.232 1.152,3.072 3.264,4.8 2.112,1.664 4.928,1.664 z m -7.104,-37.44 q -1.92,0 -3.2,-1.28 -1.28,-1.28 -1.28,-3.2 0,-1.92 1.28,-3.2 1.28,-1.28 3.2,-1.28 1.984,0 3.2,1.28 1.28,1.28 1.28,3.2 0,1.92 -1.28,3.2 -1.216,1.28 -3.2,1.28 z m 14.208,0 q -1.92,0 -3.2,-1.28 -1.28,-1.28 -1.28,-3.2 0,-1.92 1.28,-3.2 1.28,-1.28 3.2,-1.28 1.984,0 3.2,1.28 1.28,1.28 1.28,3.2 0,1.92 -1.28,3.2 -1.216,1.28 -3.2,1.28 z m -58.68799,125.568 q -3.264,0 -5.952,-0.768 -2.624,-0.704 -4.672,-1.984 -2.048,-1.28 -3.52,-3.008 l 4.352,-5.952 q 1.856,1.792 4.096,2.944 2.24,1.152 4.8,1.152 2.944,0 4.736,-1.216 1.856,-1.28 1.856,-3.584 0,-1.792 -0.896,-3.072 -0.896,-1.344 -3.264,-2.048 -2.304,-0.704 -6.784,-0.704 v -6.656 q 3.648,0 5.76,-0.704 2.112,-0.704 2.944,-1.92 0.896,-1.216 0.896,-2.816 0,-2.176 -1.344,-3.328 -1.28,-1.152 -3.648,-1.152 -2.176,0 -3.968,0.96 -1.728,0.896 -3.648,2.624 l -4.736,-5.76 q 2.816,-2.432 5.952,-3.776 3.136,-1.408 6.848,-1.408 4.16,0 7.296,1.344 3.2,1.28 4.928,3.776 1.792,2.432 1.792,6.016 0,3.136 -1.792,5.376 -1.728,2.24 -4.992,3.648 v 0.256 q 2.304,0.704 4.16,2.048 1.856,1.28 2.88,3.264 1.024,1.984 1.024,4.608 0,3.776 -2.112,6.464 -2.048,2.624 -5.504,4.032 -3.392,1.344 -7.488,1.344 z m 982.02711,347.3791 q -6.528,0 -10.56,-5.44 -3.968,-5.44 -3.968,-15.808 0,-10.432 3.968,-15.68 4.032,-5.248 10.56,-5.248 6.528,0 10.496,5.312 4.032,5.248 4.032,15.616 0,10.368 -4.032,15.808 -3.968,5.44 -10.496,5.44 z m 0,-7.296 q 1.6,0 2.88,-1.152 1.28,-1.216 1.984,-4.224 0.768,-3.072 0.768,-8.576 0,-5.568 -0.768,-8.512 -0.704,-2.944 -1.984,-4.032 -1.28,-1.088 -2.88,-1.088 -1.6,0 -2.88,1.088 -1.28,1.088 -2.048,4.032 -0.704,2.944 -0.704,8.512 0,5.504 0.704,8.576 0.768,3.008 2.048,4.224 1.28,1.152 2.88,1.152 z m 33.728,7.296 q -4.032,0 -7.296,-1.408 -3.2,-1.408 -5.056,-3.904 -1.792,-2.56 -1.792,-5.824 0,-2.496 0.896,-4.288 0.96,-1.856 2.496,-3.264 1.6,-1.408 3.52,-2.432 v -0.256 q -2.304,-1.792 -3.904,-4.096 -1.536,-2.304 -1.536,-5.504 0,-3.456 1.664,-5.952 1.664,-2.56 4.608,-3.904 2.944,-1.344 6.72,-1.344 5.632,0 8.96,3.072 3.392,3.008 3.392,8.064 0,1.92 -0.768,3.648 -0.704,1.664 -1.92,3.008 -1.216,1.28 -2.624,2.24 v 0.256 q 1.92,1.024 3.52,2.496 1.6,1.408 2.56,3.456 0.96,1.984 0.96,4.672 0,3.2 -1.792,5.76 -1.792,2.496 -5.056,4.032 -3.2,1.472 -7.552,1.472 z m 2.56,-24.448 q 1.216,-1.408 1.856,-2.88 0.64,-1.472 0.64,-3.072 0,-1.6 -0.576,-2.752 -0.576,-1.152 -1.728,-1.792 -1.088,-0.704 -2.624,-0.704 -1.856,0 -3.2,1.216 -1.344,1.152 -1.344,3.456 0,1.664 0.896,2.816 0.896,1.152 2.432,2.048 1.6,0.896 3.648,1.664 z m -2.368,17.92 q 1.536,0 2.752,-0.512 1.28,-0.576 1.984,-1.664 0.704,-1.152 0.704,-2.88 0,-1.792 -1.088,-2.944 -1.024,-1.216 -3.008,-2.112 -1.92,-0.96 -4.48,-2.048 -1.344,1.216 -2.24,2.944 -0.896,1.664 -0.896,3.52 0,1.792 0.832,3.072 0.896,1.28 2.304,1.984 1.472,0.64 3.136,0.64 z m -67.328,-74.24 v -41.728 h 26.304 v 7.936 h -16.896 v 9.664 h 14.464 v 7.936 h -14.464 v 16.192 z m 49.856,0.768 q -5.632,0 -9.92,-2.624 -4.224,-2.624 -6.656,-7.488 -2.368,-4.864 -2.368,-11.712 0,-6.784 2.368,-11.584 2.432,-4.8 6.656,-7.296 4.288,-2.56 9.92,-2.56 5.632,0 9.92,2.56 4.288,2.496 6.656,7.296 2.368,4.8 2.368,11.584 0,6.848 -2.368,11.712 -2.368,4.864 -6.656,7.488 -4.288,2.624 -9.92,2.624 z m 0,-8.128 q 2.88,0 4.928,-1.664 2.112,-1.728 3.2,-4.8 1.152,-3.072 1.152,-7.232 0,-4.16 -1.152,-7.104 -1.088,-3.008 -3.2,-4.544 -2.048,-1.6 -4.928,-1.6 -2.816,0 -4.928,1.6 -2.112,1.536 -3.264,4.544 -1.088,2.944 -1.088,7.104 0,4.16 1.088,7.232 1.152,3.072 3.264,4.8 2.112,1.664 4.928,1.664 z m -7.104,-37.44 q -1.92,0 -3.2,-1.28 -1.28,-1.28 -1.28,-3.2 0,-1.92 1.28,-3.2 1.28,-1.28 3.2,-1.28 1.984,0 3.2,1.28 1.28,1.28 1.28,3.2 0,1.92 -1.28,3.2 -1.216,1.28 -3.2,1.28 z m 14.208,0 q -1.92,0 -3.2,-1.28 -1.28,-1.28 -1.28,-3.2 0,-1.92 1.28,-3.2 1.28,-1.28 3.2,-1.28 1.984,0 3.2,1.28 1.28,1.28 1.28,3.2 0,1.92 -1.28,3.2 -1.216,1.28 -3.2,1.28 z m -58.688,125.568 q -3.264,0 -5.952,-0.768 -2.624,-0.704 -4.672,-1.984 -2.048,-1.28 -3.52,-3.008 l 4.352,-5.952 q 1.856,1.792 4.096,2.944 2.24,1.152 4.8,1.152 2.944,0 4.736,-1.216 1.856,-1.28 1.856,-3.584 0,-1.792 -0.896,-3.072 -0.896,-1.344 -3.264,-2.048 -2.304,-0.704 -6.784,-0.704 v -6.656 q 3.648,0 5.76,-0.704 2.112,-0.704 2.944,-1.92 0.896,-1.216 0.896,-2.816 0,-2.176 -1.344,-3.328 -1.28,-1.152 -3.648,-1.152 -2.176,0 -3.968,0.96 -1.728,0.896 -3.648,2.624 l -4.736,-5.76 q 2.816,-2.432 5.952,-3.776 3.136,-1.408 6.848,-1.408 4.16,0 7.296,1.344 3.2,1.28 4.928,3.776 1.792,2.432 1.792,6.016 0,3.136 -1.792,5.376 -1.728,2.24 -4.992,3.648 v 0.256 q 2.304,0.704 4.16,2.048 1.856,1.28 2.88,3.264 1.024,1.984 1.024,4.608 0,3.776 -2.112,6.464 -2.048,2.624 -5.504,4.032 -3.392,1.344 -7.488,1.344 z m -24.8038,3596.90165 q -4.896,0 -7.92,-4.08 -2.976,-4.08 -2.976,-11.856 0,-7.824 2.976,-11.76 3.024,-3.936 7.92,-3.936 4.896,0 7.872,3.984 3.024,3.936 3.024,11.712 0,7.776 -3.024,11.856 -2.976,4.08 -7.872,4.08 z m 0,-5.472 q 1.2,0 2.16,-0.864 0.96,-0.912 1.488,-3.168 0.576,-2.304 0.576,-6.432 0,-4.176 -0.576,-6.384 -0.528,-2.208 -1.488,-3.024 -0.96,-0.816 -2.16,-0.816 -1.2,0 -2.16,0.816 -0.96,0.816 -1.536,3.024 -0.528,2.208 -0.528,6.384 0,4.128 0.528,6.432 0.576,2.256 1.536,3.168 0.96,0.864 2.16,0.864 z m 23.664,5.472 q -3.024,0 -5.232,-1.104 -2.208,-1.104 -3.696,-2.544 l 3.744,-4.224 q 0.768,0.864 2.064,1.536 1.344,0.624 2.64,0.624 1.824,0 3.216,-1.008 1.44,-1.008 2.256,-3.36 0.864,-2.4 0.864,-6.432 0,-3.792 -0.72,-5.904 -0.672,-2.16 -1.824,-3.024 -1.104,-0.912 -2.4,-0.912 -1.008,0 -1.92,0.528 -0.864,0.528 -1.392,1.584 -0.528,1.056 -0.528,2.832 0,1.584 0.528,2.592 0.528,0.96 1.44,1.392 0.912,0.432 2.064,0.432 1.2,0 2.448,-0.72 1.248,-0.768 2.256,-2.544 l 0.336,4.608 q -1.152,1.68 -3.024,2.688 -1.872,0.96 -3.408,0.96 -2.592,0 -4.656,-1.008 -2.064,-1.008 -3.264,-3.072 -1.152,-2.112 -1.152,-5.328 0,-3.168 1.392,-5.472 1.392,-2.304 3.696,-3.504 2.304,-1.248 5.04,-1.248 2.256,0 4.32,0.864 2.064,0.864 3.648,2.688 1.632,1.824 2.592,4.704 1.008,2.832 1.008,6.864 0,4.272 -1.056,7.392 -1.008,3.12 -2.736,5.136 -1.728,2.016 -3.936,3.024 -2.208,0.96 -4.608,0.96 z m -48.72,-60.576 v -31.296 h 19.728 v 5.952 h -12.672 v 7.248 h 10.848 v 5.952 h -10.848 v 12.144 z m 37.392,0.576 q -4.224,0 -7.44,-1.968 -3.168,-1.968 -4.992,-5.616 -1.776,-3.648 -1.776,-8.784 0,-5.088 1.776,-8.688 1.824,-3.6 4.992,-5.472 3.216,-1.92 7.44,-1.92 4.224,0 7.44,1.92 3.216,1.872 4.992,5.472 1.776,3.6 1.776,8.688 0,5.136 -1.776,8.784 -1.776,3.648 -4.992,5.616 -3.216,1.968 -7.44,1.968 z m 0,-6.096 q 2.16,0 3.696,-1.248 1.584,-1.296 2.4,-3.6 0.864,-2.304 0.864,-5.424 0,-3.12 -0.864,-5.328 -0.816,-2.256 -2.4,-3.408 -1.536,-1.2 -3.696,-1.2 -2.112,0 -3.696,1.2 -1.584,1.152 -2.448,3.408 -0.816,2.208 -0.816,5.328 0,3.12 0.816,5.424 0.864,2.304 2.448,3.6 1.584,1.248 3.696,1.248 z m -5.328,-28.08 q -1.44,0 -2.4,-0.96 -0.96,-0.96 -0.96,-2.4 0,-1.44 0.96,-2.4 0.96,-0.96 2.4,-0.96 1.488,0 2.4,0.96 0.96,0.96 0.96,2.4 0,1.44 -0.96,2.4 -0.912,0.96 -2.4,0.96 z m 10.656,0 q -1.44,0 -2.4,-0.96 -0.96,-0.96 -0.96,-2.4 0,-1.44 0.96,-2.4 0.96,-0.96 2.4,-0.96 1.488,0 2.4,0.96 0.96,0.96 0.96,2.4 0,1.44 -0.96,2.4 -0.912,0.96 -2.4,0.96 z m -44.016,94.176 q -2.448,0 -4.464,-0.576 -1.968,-0.528 -3.504,-1.488 -1.536,-0.96 -2.64,-2.256 l 3.264,-4.464 q 1.392,1.344 3.072,2.208 1.68,0.864 3.6,0.864 2.208,0 3.552,-0.912 1.392,-0.96 1.392,-2.688 0,-1.344 -0.672,-2.304 -0.672,-1.008 -2.448,-1.536 -1.728,-0.528 -5.088,-0.528 v -4.992 q 2.736,0 4.32,-0.528 1.584,-0.528 2.208,-1.44 0.672,-0.912 0.672,-2.112 0,-1.632 -1.008,-2.496 -0.96,-0.864 -2.736,-0.864 -1.632,0 -2.976,0.72 -1.296,0.672 -2.736,1.968 l -3.552,-4.32 q 2.112,-1.824 4.464,-2.832 2.352,-1.056 5.136,-1.056 3.12,0 5.472,1.008 2.4,0.96 3.696,2.832 1.344,1.824 1.344,4.512 0,2.352 -1.344,4.032 -1.296,1.68 -3.744,2.736 v 0.192 q 1.728,0.528 3.12,1.536 1.392,0.96 2.16,2.448 0.768,1.488 0.768,3.456 0,2.832 -1.584,4.848 -1.536,1.968 -4.128,3.024 -2.544,1.008 -5.616,1.008 z M 519.51079,1368.657 q -19.584,0 -31.68,-16.32 -11.904,-16.32 -11.904,-47.424 0,-31.296 11.904,-47.04 12.096,-15.744 31.68,-15.744 19.584,0 31.488,15.936 12.096,15.744 12.096,46.848 0,31.104 -12.096,47.424 -11.904,16.32 -31.488,16.32 z m 0,-21.888 q 4.8,0 8.64,-3.456 3.84,-3.648 5.952,-12.672 2.304,-9.216 2.304,-25.728 0,-16.704 -2.304,-25.536 -2.112,-8.832 -5.952,-12.096 -3.84,-3.264 -8.64,-3.264 -4.8,0 -8.64,3.264 -3.84,3.264 -6.144,12.096 -2.112,8.832 -2.112,25.536 0,16.512 2.112,25.728 2.304,9.024 6.144,12.672 3.84,3.456 8.64,3.456 z m 79.48798,19.584 q 0.96,-15.168 3.072,-27.84 2.112,-12.864 5.952,-24.384 4.032,-11.52 10.176,-22.656 6.144,-11.136 15.168,-23.232 h -54.72 v -23.808 h 84.864 v 17.28 q -10.752,13.056 -17.664,24.384 -6.72,11.328 -10.368,23.04 -3.648,11.712 -5.376,25.536 -1.728,13.824 -2.688,31.68 z m -179.71199,-240 v -125.184 h 78.912 v 23.808 h -50.688 v 28.992 h 43.392 v 23.808 h -43.392 v 48.576 z m 149.56799,2.304 q -16.896,0 -29.76,-7.872 -12.672,-7.872 -19.968,-22.464 -7.104,-14.592 -7.104,-35.136 0,-20.352 7.104,-34.752 7.296,-14.4 19.968,-21.888 12.864,-7.67999 29.76,-7.67999 16.896,0 29.76,7.67999 12.864,7.488 19.968,21.888 7.104,14.4 7.104,34.752 0,20.544 -7.104,35.136 -7.104,14.592 -19.968,22.464 -12.864,7.872 -29.76,7.872 z m 0,-24.384 q 8.64,0 14.784,-4.992 6.336,-5.184 9.6,-14.4 3.456,-9.216 3.456,-21.696 0,-12.48 -3.456,-21.312 -3.264,-9.024 -9.6,-13.632 -6.144,-4.8 -14.784,-4.8 -8.448,0 -14.784,4.8 -6.336,4.608 -9.792,13.632 -3.264,8.832 -3.264,21.312 0,12.48 3.264,21.696 3.456,9.216 9.792,14.4 6.336,4.992 14.784,4.992 z m -21.312,-112.31999 q -5.76,0 -9.6,-3.84 -3.84,-3.84 -3.84,-9.6 0,-5.76 3.84,-9.6 3.84,-3.84 9.6,-3.84 5.952,0 9.6,3.84 3.84,3.84 3.84,9.6 0,5.76 -3.84,9.6 -3.648,3.84 -9.6,3.84 z m 42.624,0 q -5.76,0 -9.6,-3.84 -3.84,-3.84 -3.84,-9.6 0,-5.76 3.84,-9.6 3.84,-3.84 9.6,-3.84 5.952,0 9.6,3.84 3.84,3.84 3.84,9.6 0,5.76 -3.84,9.6 -3.648,3.84 -9.6,3.84 z M 414.10281,1368.657 q -9.792,0 -17.856,-2.304 -7.872,-2.112 -14.016,-5.952 -6.144,-3.84 -10.56,-9.024 l 13.056,-17.856 q 5.568,5.376 12.288,8.832 6.72,3.456 14.4,3.456 8.832,0 14.208,-3.648 5.568,-3.84 5.568,-10.752 0,-5.376 -2.688,-9.216 -2.688,-4.032 -9.792,-6.144 -6.912,-2.112 -20.352,-2.112 v -19.968 q 10.944,0 17.28,-2.112 6.336,-2.112 8.832,-5.76 2.688,-3.648 2.688,-8.448 0,-6.528 -4.032,-9.984 -3.84,-3.456 -10.944,-3.456 -6.528,0 -11.904,2.88 -5.184,2.688 -10.944,7.872 l -14.208,-17.28 q 8.448,-7.296 17.856,-11.328 9.408,-4.224 20.544,-4.224 12.48,0 21.888,4.032 9.6,3.84 14.784,11.328 5.376,7.296 5.376,18.048 0,9.408 -5.376,16.128 -5.184,6.72 -14.976,10.944 v 0.768 q 6.912,2.112 12.48,6.144 5.568,3.84 8.64,9.792 3.072,5.952 3.072,13.824 0,11.328 -6.336,19.392 -6.144,7.872 -16.512,12.096 -10.176,4.032 -22.464,4.032 z m 12.74188,-3844.8324 q -19.584,0 -31.68,-16.32 -11.904,-16.32 -11.904,-47.424 0,-31.296 11.904,-47.04 12.096,-15.744 31.68,-15.744 19.584,0 31.488,15.936 12.096,15.744 12.096,46.848 0,31.104 -12.096,47.424 -11.904,16.32 -31.488,16.32 z m 0,-21.888 q 4.8,0 8.64,-3.456 3.84,-3.648 5.952,-12.672 2.304,-9.216 2.304,-25.728 0,-16.704 -2.304,-25.536 -2.112,-8.832 -5.952,-12.096 -3.84,-3.264 -8.64,-3.264 -4.8,0 -8.64,3.264 -3.84,3.264 -6.144,12.096 -2.112,8.832 -2.112,25.536 0,16.512 2.112,25.728 2.304,9.024 6.144,12.672 3.84,3.456 8.64,3.456 z m 97.34398,21.888 q -9.792,0 -17.856,-2.304 -7.872,-2.112 -14.016,-5.952 -6.144,-3.84 -10.56,-9.024 l 13.056,-17.856 q 5.568,5.376 12.288,8.832 6.72,3.456 14.4,3.456 8.832,0 14.208,-3.648 5.568,-3.84 5.568,-10.752 0,-5.376 -2.688,-9.216 -2.688,-4.032 -9.792,-6.144 -6.912,-2.112 -20.352,-2.112 v -19.968 q 10.944,0 17.28,-2.112 6.336,-2.112 8.832,-5.76 2.688,-3.648 2.688,-8.448 0,-6.528 -4.032,-9.984 -3.84,-3.456 -10.944,-3.456 -6.528,0 -11.904,2.88 -5.184,2.688 -10.944,7.872 l -14.208,-17.28 q 8.448,-7.296 17.856,-11.328 9.408,-4.224 20.544,-4.224 12.48,0 21.888,4.032 9.6,3.84 14.784,11.328 5.376,7.296 5.376,18.048 0,9.408 -5.376,16.128 -5.184,6.72 -14.976,10.944 v 0.768 q 6.912,2.112 12.48,6.144 5.568,3.84 8.64,9.792 3.072,5.952 3.072,13.824 0,11.328 -6.336,19.392 -6.144,7.872 -16.512,12.096 -10.176,4.032 -22.464,4.032 z m -197.56799,-242.304 v -125.184 h 78.912 v 23.808 h -50.688 v 28.992 h 43.392 v 23.808 h -43.392 v 48.576 z m 149.56799,2.304 q -16.896,0 -29.76,-7.872 -12.672,-7.872 -19.968,-22.464 -7.104,-14.592 -7.104,-35.136 0,-20.352 7.104,-34.752 7.296,-14.4 19.968,-21.888 12.864,-7.68 29.76,-7.68 16.896,0 29.76,7.68 12.864,7.488 19.968,21.888 7.104,14.4 7.104,34.752 0,20.544 -7.104,35.136 -7.104,14.592 -19.968,22.464 -12.864,7.872 -29.76,7.872 z m 0,-24.384 q 8.64,0 14.784,-4.992 6.336,-5.184 9.6,-14.4 3.456,-9.216 3.456,-21.696 0,-12.48 -3.456,-21.312 -3.264,-9.024 -9.6,-13.632 -6.144,-4.8 -14.784,-4.8 -8.448,0 -14.784,4.8 -6.336,4.608 -9.792,13.632 -3.264,8.832 -3.264,21.312 0,12.48 3.264,21.696 3.456,9.216 9.792,14.4 6.336,4.992 14.784,4.992 z m -21.312,-112.32 q -5.76,0 -9.6,-3.84 -3.84,-3.84 -3.84,-9.6 0,-5.76 3.84,-9.6 3.84,-3.84 9.6,-3.84 5.952,0 9.6,3.84 3.84,3.84 3.84,9.6 0,5.76 -3.84,9.6 -3.648,3.84 -9.6,3.84 z m 42.624,0 q -5.76,0 -9.6,-3.84 -3.84,-3.84 -3.84,-9.6 0,-5.76 3.84,-9.6 3.84,-3.84 9.6,-3.84 5.952,0 9.6,3.84 3.84,3.84 3.84,9.6 0,5.76 -3.84,9.6 -3.648,3.84 -9.6,3.84 z m -176.06396,376.704 q -9.792,0 -17.856,-2.304 -7.872,-2.112 -14.016,-5.952 -6.144,-3.84 -10.56,-9.024 l 13.056,-17.856 q 5.568,5.376 12.288,8.832 6.72,3.456 14.4,3.456 8.832,0 14.208,-3.648 5.568,-3.84 5.568,-10.752 0,-5.376 -2.688,-9.216 -2.688,-4.032 -9.792,-6.144 -6.912,-2.112 -20.352,-2.112 v -19.968 q 10.944,0 17.28,-2.112 6.336,-2.112 8.832,-5.76 2.688,-3.648 2.688,-8.448 0,-6.528 -4.032,-9.984 -3.84,-3.456 -10.944,-3.456 -6.528,0 -11.904,2.88 -5.184,2.688 -10.944,7.872 l -14.208,-17.28 q 8.448,-7.296 17.856,-11.328 9.408,-4.224 20.544,-4.224 12.48,0 21.888,4.032 9.6,3.84 14.784,11.328 5.376,7.296 5.376,18.048 0,9.408 -5.376,16.128 -5.184,6.72 -14.976,10.944 v 0.768 q 6.912,2.112 12.48,6.144 5.568,3.84 8.64,9.792 3.072,5.952 3.072,13.824 0,11.328 -6.336,19.392 -6.144,7.872 -16.512,12.096 -10.176,4.032 -22.464,4.032 z m 105.88798,-1228.3191 q -19.584,0 -31.68,-16.32 -11.904,-16.32 -11.904,-47.424 0,-31.296 11.904,-47.04 12.096,-15.744 31.68,-15.744 19.584,0 31.488,15.936 12.096,15.744 12.096,46.848 0,31.104 -12.096,47.424 -11.904,16.32 -31.488,16.32 z m 0,-21.888 q 4.8,0 8.64,-3.456 3.84,-3.648 5.952,-12.672 2.304,-9.216 2.304,-25.728 0,-16.704 -2.304,-25.536 -2.112,-8.832 -5.952,-12.096 -3.84,-3.264 -8.64,-3.264 -4.8,0 -8.64,3.264 -3.84,3.264 -6.144,12.096 -2.112,8.832 -2.112,25.536 0,16.512 2.112,25.728 2.304,9.024 6.144,12.672 3.84,3.456 8.64,3.456 z m 64.12798,19.584 v -22.848 h 26.496 v -70.464 h -22.848 v -17.472 q 9.984,-1.92 16.896,-4.608 7.104,-2.688 13.44,-6.528 h 20.736 v 99.072 h 22.848 v 22.848 z m -164.35199,-240 v -125.184 h 78.912 v 23.808 h -50.688 v 28.992 h 43.392 v 23.808 h -43.392 v 48.576 z m 149.56799,2.304 q -16.896,0 -29.76,-7.872 -12.672,-7.872 -19.968,-22.464 -7.104,-14.592 -7.104,-35.136 0,-20.352 7.104,-34.752 7.296,-14.4 19.968,-21.888 12.864,-7.68 29.76,-7.68 16.896,0 29.76,7.68 12.864,7.488 19.968,21.888 7.104,14.4 7.104,34.752 0,20.544 -7.104,35.136 -7.104,14.592 -19.968,22.464 -12.864,7.872 -29.76,7.872 z m 0,-24.384 q 8.64,0 14.784,-4.992 6.336,-5.184 9.6,-14.4 3.456,-9.216 3.456,-21.696 0,-12.48 -3.456,-21.312 -3.264,-9.024 -9.6,-13.632 -6.144,-4.8 -14.784,-4.8 -8.448,0 -14.784,4.8 -6.336,4.608 -9.792,13.632 -3.264,8.832 -3.264,21.312 0,12.48 3.264,21.696 3.456,9.216 9.792,14.4 6.336,4.992 14.784,4.992 z m -21.312,-112.32 q -5.76,0 -9.6,-3.84 -3.84,-3.84 -3.84,-9.6 0,-5.76 3.84,-9.6 3.84,-3.84 9.6,-3.84 5.952,0 9.6,3.84 3.84,3.84 3.84,9.6 0,5.76 -3.84,9.6 -3.648,3.84 -9.6,3.84 z m 42.624,0 q -5.76,0 -9.6,-3.84 -3.84,-3.84 -3.84,-9.6 0,-5.76 3.84,-9.6 3.84,-3.84 9.6,-3.84 5.952,0 9.6,3.84 3.84,3.84 3.84,9.6 0,5.76 -3.84,9.6 -3.648,3.84 -9.6,3.84 z m -176.06396,376.704 q -9.792,0 -17.856,-2.304 -7.872,-2.112 -14.016,-5.952 -6.144,-3.84 -10.56,-9.024 l 13.056,-17.856 q 5.568,5.376 12.288,8.832 6.72,3.456 14.4,3.456 8.832,0 14.208,-3.648 5.568,-3.84 5.568,-10.752 0,-5.376 -2.688,-9.216 -2.688,-4.032 -9.792,-6.144 -6.912,-2.112 -20.352,-2.112 v -19.968 q 10.944,0 17.28,-2.112 6.336,-2.112 8.832,-5.76 2.688,-3.648 2.688,-8.448 0,-6.528 -4.032,-9.984 -3.84,-3.456 -10.944,-3.456 -6.528,0 -11.904,2.88 -5.184,2.688 -10.944,7.872 l -14.208,-17.28 q 8.448,-7.296 17.856,-11.328 9.408,-4.224 20.544,-4.224 12.48,0 21.888,4.032 9.6,3.84 14.784,11.328 5.376,7.296 5.376,18.048 0,9.408 -5.376,16.128 -5.184,6.72 -14.976,10.944 v 0.768 q 6.912,2.112 12.48,6.144 5.568,3.84 8.64,9.792 3.072,5.952 3.072,13.824 0,11.328 -6.336,19.392 -6.144,7.872 -16.512,12.096 -10.176,4.032 -22.464,4.032 z M 1474.8538,707.75125 v -31.296 h 19.728 v 5.952 h -12.672 v 7.248 h 10.848 v 5.952 h -10.848 v 12.144 z m 37.392,0.576 q -4.224,0 -7.44,-1.968 -3.168,-1.968 -4.992,-5.616 -1.776,-3.648 -1.776,-8.784 0,-5.088 1.776,-8.688 1.824,-3.6 4.992,-5.472 3.216,-1.92 7.44,-1.92 4.224,0 7.44,1.92 3.216,1.872 4.992,5.472 1.776,3.6 1.776,8.688 0,5.136 -1.776,8.784 -1.776,3.648 -4.992,5.616 -3.216,1.968 -7.44,1.968 z m 0,-6.096 q 2.16,0 3.696,-1.248 1.584,-1.296 2.4,-3.6 0.864,-2.304 0.864,-5.424 0,-3.12 -0.864,-5.328 -0.816,-2.256 -2.4,-3.408 -1.536,-1.2 -3.696,-1.2 -2.112,0 -3.696,1.2 -1.584,1.152 -2.448,3.408 -0.816,2.208 -0.816,5.328 0,3.12 0.816,5.424 0.864,2.304 2.448,3.6 1.584,1.248 3.696,1.248 z m -5.328,-28.08 q -1.44,0 -2.4,-0.96 -0.96,-0.96 -0.96,-2.4 0,-1.44 0.96,-2.4 0.96,-0.96 2.4,-0.96 1.488,0 2.4,0.96 0.96,0.96 0.96,2.4 0,1.44 -0.96,2.4 -0.912,0.96 -2.4,0.96 z m 10.656,0 q -1.44,0 -2.4,-0.96 -0.96,-0.96 -0.96,-2.4 0,-1.44 0.96,-2.4 0.96,-0.96 2.4,-0.96 1.488,0 2.4,0.96 0.96,0.96 0.96,2.4 0,1.44 -0.96,2.4 -0.912,0.96 -2.4,0.96 z m -44.016,94.176 q -2.448,0 -4.464,-0.576 -1.968,-0.528 -3.504,-1.488 -1.536,-0.96 -2.64,-2.256 l 3.264,-4.464 q 1.392,1.344 3.072,2.208 1.68,0.864 3.6,0.864 2.208,0 3.552,-0.912 1.392,-0.96 1.392,-2.688 0,-1.344 -0.672,-2.304 -0.672,-1.008 -2.448,-1.536 -1.728,-0.528 -5.088,-0.528 v -4.992 q 2.736,0 4.32,-0.528 1.584,-0.528 2.208,-1.44 0.672,-0.912 0.672,-2.112 0,-1.632 -1.008,-2.496 -0.96,-0.864 -2.736,-0.864 -1.632,0 -2.976,0.72 -1.296,0.672 -2.736,1.968 l -3.552,-4.32 q 2.112,-1.824 4.464,-2.832 2.352,-1.056 5.136,-1.056 3.12,0 5.472,1.008 2.4,0.96 3.696,2.832 1.344,1.824 1.344,4.512 0,2.352 -1.344,4.032 -1.296,1.68 -3.744,2.736 v 0.192 q 1.728,0.528 3.12,1.536 1.392,0.96 2.16,2.448 0.768,1.488 0.768,3.456 0,2.832 -1.584,4.848 -1.536,1.968 -4.128,3.024 -2.544,1.008 -5.616,1.008 z m 17.04,-0.576 v -5.712 h 6.624 v -17.616 h -5.712 v -4.368 q 2.496,-0.48 4.224,-1.152 1.776,-0.672 3.36,-1.632 h 5.184 v 24.768 h 5.712 v 5.712 z m 34.656,0.576 q -4.896,0 -7.92,-4.08 -2.976,-4.08 -2.976,-11.856 0,-7.824 2.976,-11.76 3.024,-3.936 7.92,-3.936 4.896,0 7.872,3.984 3.024,3.936 3.024,11.712 0,7.776 -3.024,11.856 -2.976,4.08 -7.872,4.08 z m 0,-5.472 q 1.2,0 2.16,-0.864 0.96,-0.912 1.488,-3.168 0.576,-2.304 0.576,-6.432 0,-4.176 -0.576,-6.384 -0.528,-2.208 -1.488,-3.024 -0.96,-0.816 -2.16,-0.816 -1.2,0 -2.16,0.816 -0.96,0.816 -1.536,3.024 -0.528,2.208 -0.528,6.384 0,4.128 0.528,6.432 0.576,2.256 1.536,3.168 0.96,0.864 2.16,0.864 z" style="font-size:192px;font-family:'Source Sans 3';-inkscape-font-specification:'Source Sans 3, @wght=700';font-variation-settings:'wght' 700;text-align:center;white-space:pre;display:inline;opacity:1;fill:#bec3c6;stroke-width:55" transform="matrix(0.02439371,0,0,0.02439371,2.3852033,246.99255)"/>
  </g>
</svg>
