<svg width="5000" height="6400" viewBox="0 0 5000 6400" version="1.1" id="svg1" xml:space="preserve" xmlns="http://www.w3.org/2000/svg">
  <defs id="defs1">
    <marker style="overflow:visible" id="Triangle" refX="0" refY="0" orient="auto-start-reverse" markerWidth="1" markerHeight="1" viewBox="0 0 1 1" preserveAspectRatio="xMidYMid">
      <path transform="scale(0.5)" style="fill:context-stroke;fill-rule:evenodd;stroke:context-stroke;stroke-width:1pt" d="M 5.77,0 -2.88,5 V -5 Z" id="path597"/>
    </marker>
  </defs>
  <g id="floor_1" transform="matrix(40.994169,0,0,40.994169,1.00188,-5510.757)" style="display:inline">
    <g id="g844" style="display:inline" transform="matrix(0.02439371,0,0,0.02439371,381.50053,218.26719)">
      <path style="font-variation-settings:'wght' 700;display:inline;fill:#9b9151;fill-opacity:1;stroke:#dfdfe2;stroke-width:70;stroke-dasharray:none;stroke-opacity:1" d="m -14417.845,-1669.0382 401.58,10e-5 V -3391.46 l 1502.914,1e-4 v 1947.2724 l -1361.571,-7.5001 v 3209.6358 l -542.923,2e-4 z" id="path788" transform="translate(-8.040958e-5,2.5984892e-5)"/>
      <path style="font-variation-settings:'wght' 700;display:inline;fill:#3e474c;fill-opacity:1;stroke:none;stroke-width:70;stroke-dasharray:none;stroke-opacity:1" d="m -14618.201,-2468.46 h 324.914 l 0.283,161.8686 -325.197,-1.4142 z" id="path789" transform="translate(-97.341093,-948)"/>
      <rect style="font-variation-settings:'wght' 700;display:inline;fill:#a9a2a2;fill-opacity:1;stroke:none;stroke-width:14.4669;stroke-dasharray:none;stroke-opacity:1" id="rect790" width="980.77167" height="925.19781" x="-13981.265" y="-3148.9529" transform="translate(-8.040958e-5,2.5984892e-5)"/>
      <rect style="font-variation-settings:'wght' 700;display:inline;fill:#cbc4ba;fill-opacity:1;stroke:none;stroke-width:4.91887;stroke-dasharray:none;stroke-opacity:1" id="rect792" width="280.35751" height="374.1713" x="-13771.236" y="-2223.7551" transform="translate(-8.040958e-5,2.5984892e-5)"/>
      <rect style="font-variation-settings:'wght' 700;display:inline;fill:#55576b;fill-opacity:1;stroke:#dfdfe2;stroke-width:26.0864;stroke-dasharray:none;stroke-opacity:1" id="rect794" width="1870.6688" height="1577.1973" x="3104.5222" y="2005.5453" transform="translate(-15640.299,-3436.9252)"/>
      <path style="font-variation-settings:'wght' 700;display:inline;fill:#55576b;fill-opacity:1;stroke:#84879f;stroke-width:8.327;stroke-dasharray:none;stroke-opacity:1" d="M 3117.5652,2794.1439 H 4962.1537" id="path794" transform="translate(-15640.299,-3436.9252)"/>
      <path style="font-variation-settings:'wght' 700;display:inline;fill:#55576b;fill-opacity:1;stroke:#84879f;stroke-width:8.327;stroke-dasharray:none;stroke-opacity:1" d="m 4039.8566,2005.5453 v 1564.16" id="path795" transform="translate(-15640.299,-3436.9252)"/>
      <circle style="font-variation-settings:'wght' 700;display:inline;fill:#e7e7e7;fill-opacity:1;stroke:none;stroke-width:8.62631;stroke-dasharray:none;stroke-opacity:1" id="circle795" cx="-13631.058" cy="-1992.4713" r="125" transform="translate(-8.040958e-5,2.5984892e-5)"/>
      <rect style="font-variation-settings:'wght' 700;display:inline;fill:#cbc4ba;fill-opacity:1;stroke:none;stroke-width:4.91887;stroke-dasharray:none;stroke-opacity:1" id="rect796" width="280.35751" height="374.1713" x="-13280.851" y="-2223.7551" transform="translate(-8.040958e-5,2.5984892e-5)"/>
      <circle style="font-variation-settings:'wght' 700;display:inline;fill:#e7e7e7;fill-opacity:1;stroke:none;stroke-width:8.62631;stroke-dasharray:none;stroke-opacity:1" id="circle796" cx="-13140.672" cy="-1992.4713" r="125" transform="translate(-8.040958e-5,2.5984892e-5)"/>
      <rect style="font-variation-settings:'wght' 700;display:inline;fill:#becad0;fill-opacity:1;stroke:none;stroke-width:20.961;stroke-dasharray:none;stroke-opacity:1" id="rect798" width="948.12982" height="2009.1379" x="-12548.352" y="-3426.46" transform="translate(-8.040958e-5,2.5984892e-5)"/>
      <rect style="font-variation-settings:'wght' 700;display:inline;fill:#cad2d8;fill-opacity:1;stroke:none;stroke-width:20.961;stroke-dasharray:none;stroke-opacity:1" id="rect800" width="948.12976" height="2009.1379" x="-11600.222" y="-3426.46" transform="translate(-8.040958e-5,2.5984892e-5)"/>
      <rect style="font-variation-settings:'wght' 700;display:inline;fill:#d7eeee;fill-opacity:1;stroke:#f7f7f9;stroke-width:10;stroke-dasharray:none;stroke-opacity:1" id="rect823" width="246.30969" height="132.53984" x="-11723.377" y="-3163.4019" transform="translate(-8.040958e-5,2.5984892e-5)"/>
      <rect style="font-variation-settings:'wght' 700;display:inline;fill:#d7eeee;fill-opacity:1;stroke:#f7f7f9;stroke-width:10;stroke-dasharray:none;stroke-opacity:1" id="rect824" width="246.30969" height="132.53984" x="-11723.377" y="-3030.8621" transform="translate(-8.040958e-5,2.5984892e-5)"/>
      <rect style="font-variation-settings:'wght' 700;display:inline;fill:#d7eeee;fill-opacity:1;stroke:#f7f7f9;stroke-width:10;stroke-dasharray:none;stroke-opacity:1" id="rect825" width="246.30969" height="132.53984" x="-11723.377" y="-2898.3223" transform="translate(-8.040958e-5,2.5984892e-5)"/>
      <rect style="font-variation-settings:'wght' 700;display:inline;fill:#d7eeee;fill-opacity:1;stroke:#f7f7f9;stroke-width:10;stroke-dasharray:none;stroke-opacity:1" id="rect826" width="246.30969" height="132.53984" x="-11723.377" y="-2765.7825" transform="translate(-8.040958e-5,2.5984892e-5)"/>
      <rect style="font-variation-settings:'wght' 700;display:inline;fill:#d7eeee;fill-opacity:1;stroke:#f7f7f9;stroke-width:10;stroke-dasharray:none;stroke-opacity:1" id="rect827" width="246.30969" height="132.53984" x="-11723.377" y="-2633.2427" transform="translate(-8.040958e-5,2.5984892e-5)"/>
      <rect style="font-variation-settings:'wght' 700;display:inline;fill:#d7eeee;fill-opacity:1;stroke:#f7f7f9;stroke-width:10;stroke-dasharray:none;stroke-opacity:1" id="rect828" width="246.30969" height="132.53984" x="-11723.377" y="-2500.7029" transform="translate(-8.040958e-5,2.5984892e-5)"/>
      <rect style="font-variation-settings:'wght' 700;display:inline;fill:#d7eeee;fill-opacity:1;stroke:#f7f7f9;stroke-width:10;stroke-dasharray:none;stroke-opacity:1" id="rect829" width="246.30969" height="132.53984" x="-11723.377" y="-2368.1631" transform="translate(-8.040958e-5,2.5984892e-5)"/>
      <rect style="font-variation-settings:'wght' 700;display:inline;fill:#d7eeee;fill-opacity:1;stroke:#f7f7f9;stroke-width:10;stroke-dasharray:none;stroke-opacity:1" id="rect830" width="246.30969" height="132.53984" x="-11723.377" y="-2235.6233" transform="translate(-8.040958e-5,2.5984892e-5)"/>
      <rect style="font-variation-settings:'wght' 700;display:inline;fill:#d7eeee;fill-opacity:1;stroke:#f7f7f9;stroke-width:10;stroke-dasharray:none;stroke-opacity:1" id="rect831" width="246.30969" height="132.53984" x="-11723.377" y="-2103.0835" transform="translate(-8.040958e-5,2.5984892e-5)"/>
      <rect style="font-variation-settings:'wght' 700;display:inline;fill:#d7eeee;fill-opacity:1;stroke:#f7f7f9;stroke-width:10;stroke-dasharray:none;stroke-opacity:1" id="rect832" width="246.30969" height="132.53984" x="-11723.377" y="-1970.5437" transform="translate(-8.040958e-5,2.5984892e-5)"/>
      <rect style="font-variation-settings:'wght' 700;display:inline;fill:#d7eeee;fill-opacity:1;stroke:#f7f7f9;stroke-width:10;stroke-dasharray:none;stroke-opacity:1" id="rect833" width="246.30969" height="132.53984" x="-11723.377" y="-1838.0039" transform="translate(-8.040958e-5,2.5984892e-5)"/>
    </g>
    <path id="path96" style="font-variation-settings:'wdth' 70,'wght' 600;display:inline;fill:#4c5a5f;fill-opacity:1;stroke:none;stroke-width:.487874" d="m 22.965168,147.52098 -0.0045,2.41303 h -2.320886 v 5.52383 h 2.320886 l 3.2e-5,5.11751 h -2.320886 v 4.36919 h 2.320854 l 1e-6,4.70968 h -2.320855 v 4.30219 H 22.9607 v 4.7225 l -2.320886,1e-5 v 27.54637 l 2.320886,1e-5 v 10.84555 h -2.320886 v 5.78933 H 22.9607 v 7.94773 h -2.320886 v 8.65482 H 22.9607 v 13.96779 h -2.320886 v 5.8415 H 22.9607 v 15.61186 h 17.452289 l 0.176396,-2.80416 4.092288,0.19081 0.0316,-0.69292 0.506409,0.0236 -0.0834,2.74745 4.015223,0.24052 0.805033,-13.43911 h -8.659581 l -0.415723,6.70841 H 29.795754 L 29.796,158.32524 h 4.63863 v -0.8086 h 0.501342 l 2e-6,0.8086 h 4.638896 v -10.80427 z"/>
    <g id="rooms_1" style="display:inline;opacity:1" transform="matrix(0.02439371,0,0,0.02439371,-0.02443957,255.98706)">
      <rect style="font-variation-settings:'wdth' 70,'wght' 600;display:inline;opacity:1;fill:#1b2022;fill-opacity:1;stroke-width:264.646;stroke-dasharray:none" id="rect206" width="280.19748" height="319.87988" x="942.25684" y="-4766.3574"/>
      <path style="font-variation-settings:'wght' 700;display:inline;opacity:1;fill:#454c7f;fill-opacity:1;stroke:#bec3c6;stroke-width:0" d="m 103.81119,-3911.3243 h 838.44564 v -209.7882 h -95.14282 v -226.4448 h 95.14282 v -418.8 H 103.81119 Z" id="FO101"/>
      <path style="font-variation-settings:'wght' 700;display:inline;opacity:1;fill:#454c7f;fill-opacity:1;stroke:#bec3c6;stroke-width:0" d="m 103.81119,-3539.1434 838.44565,10e-5 -10e-6,-193.0696 h -95.14282 v -179.1114 H 103.81119 Z" id="FO102"/>
      <path style="font-variation-settings:'wght' 700;display:inline;opacity:1;fill:#454c7f;fill-opacity:1;stroke:#bec3c6;stroke-width:0" d="m 103.81119,-3169.1836 h 838.44564 v -193.5953 h -95.14282 v -176.3645 H 103.81119 Z" id="FO103"/>
      <rect style="font-variation-settings:'wdth' 70,'wght' 600;display:inline;opacity:1;fill:#454c7f;fill-opacity:1;stroke-width:597.647;stroke-dasharray:none" id="FO104" width="743.3028" height="614.94702" x="103.81119" y="-3169.1836"/>
      <path style="font-variation-settings:'wght' 700;display:inline;opacity:1;fill:#454c7f;fill-opacity:1;stroke:#bec3c6;stroke-width:0" d="m 103.81119,-2554.2365 h 743.30282 v 514.294 h 95.14282 v 208.9403 H 103.81119 Z" id="FO105"/>
      <path style="font-variation-settings:'wght' 700;display:inline;opacity:1;fill:#454c7f;fill-opacity:1;stroke:#bec3c6;stroke-width:0" d="m 103.81119,-1831.0022 838.44564,10e-5 v 235.6642 h -95.14282 v 237.3287 h 95.14282 v 139.661 H 103.81119 Z" id="FO106"/>
      <rect style="font-variation-settings:'wdth' 70,'wght' 600;display:inline;opacity:1;fill:#454c7f;fill-opacity:1;stroke-width:326.783;stroke-dasharray:none" id="FO107" width="373.99991" height="365.39355" x="103.81119" y="-1218.3483"/>
      <path style="font-variation-settings:'wght' 700;display:inline;opacity:1;fill:#454c7f;fill-opacity:1;stroke:#bec3c6;stroke-width:0" d="m 477.8111,-1218.3482 h 464.44573 v 186.1497 h -95.14282 v 179.24379 H 477.8111 Z" id="FO108"/>
      <path style="font-variation-settings:'wght' 700;display:inline;opacity:1;fill:#454c7f;fill-opacity:1;stroke:#bec3c6;stroke-width:0" d="m 103.81119,-852.95471 h 743.30282 v 175.5534 h 95.14282 v 439.62958 H 103.81119 Z" id="FO109"/>
      <path style="font-variation-settings:'wght' 700;display:inline;opacity:1;fill:#454c7f;fill-opacity:1;stroke:#bec3c6;stroke-width:0" d="m 103.81119,-237.77173 h 838.44564 v 132.96867 h -95.14282 v 239.46747 h 95.14282 V 1323.489 l -586.25679,-29.7087 1,-304.11086 H 103.81119 Z" id="FO110"/>
      <rect style="font-variation-settings:'wdth' 70,'wght' 600;display:inline;opacity:1;fill:#454c7f;fill-opacity:1;stroke-width:248.659;stroke-dasharray:none" id="FO111" width="400.88666" height="197.37975" x="1222.4543" y="-3412.7129"/>
      <rect style="font-variation-settings:'wdth' 70,'wght' 600;display:inline;opacity:1;fill:#454c7f;fill-opacity:1;stroke-width:206.052;stroke-dasharray:none" id="FO112" width="282.57516" height="175.50569" x="1222.4543" y="211.65381"/>
      <rect style="font-variation-settings:'wdth' 70,'wght' 600;display:inline;opacity:1;fill:#454c7f;fill-opacity:1;stroke-width:155.147;stroke-dasharray:none" id="FO113" width="282.57516" height="99.500015" x="1222.4543" y="387.15948"/>
      <path style="font-variation-settings:'wght' 700;display:inline;opacity:1;fill:#454c7f;fill-opacity:1;stroke:#bec3c6;stroke-width:0" d="m 1505.0295,211.65382 h 188.9071 l -17.0422,275.00569 -171.8649,-2.65255 z" id="FO114"/>
      <path style="font-variation-settings:'wght' 700;display:inline;opacity:1;fill:#454c7f;fill-opacity:1;stroke:#bec3c6;stroke-width:0" d="M 942.25683,774.65954 H 1325.819 V 1342.9261 L 942.25683,1323.489 Z" id="FO116"/>
      <path style="font-variation-settings:'wght' 700;display:inline;opacity:1;fill:#454c7f;fill-opacity:1;stroke:#bec3c6;stroke-width:0" d="m 1328.6694,774.65954 h 329.0296 l -32.6963,583.42776 -299.1837,-15.1612 z" id="FO117"/>
    </g>
    <g id="g330" transform="matrix(0.02439371,0,0,0.02439371,18.93475,263.23933)" style="display:inline">
      <path style="font-variation-settings:'wght' 700;display:inline;fill:#62797e;fill-opacity:1;stroke:none;stroke-width:10" d="m 862.05774,740.62738 172.10076,8.0244 -2.0283,43.81214 21.1725,0.98719 3.6021,-47.75379 157.9792,7.366 -10.2453,219.7337 -347.52573,-20.8175 z" id="path304"/>
      <rect style="font-variation-settings:'wdth' 70,'wght' 600;display:inline;fill:#60767b;fill-opacity:1;stroke-width:6.40868;stroke-dasharray:none" id="rect304" width="172.37357" height="29.06435" x="1090.4893" y="637.53333" transform="rotate(2.6695564)"/>
      <rect style="font-variation-settings:'wdth' 70,'wght' 600;display:inline;fill:#5e7378;fill-opacity:1;stroke-width:6.40868;stroke-dasharray:none" id="rect305" width="172.37357" height="29.06435" x="1090.4893" y="608.46899" transform="rotate(2.6695564)"/>
      <rect style="font-variation-settings:'wdth' 70,'wght' 600;display:inline;fill:#5c7075;fill-opacity:1;stroke-width:6.40868;stroke-dasharray:none" id="rect306" width="172.37357" height="29.06435" x="1090.4893" y="579.40454" transform="rotate(2.6695564)"/>
      <rect style="font-variation-settings:'wdth' 70,'wght' 600;display:inline;fill:#5a6d72;fill-opacity:1;stroke-width:6.40868;stroke-dasharray:none" id="rect307" width="172.37357" height="29.06435" x="1090.4893" y="550.34021" transform="rotate(2.6695564)"/>
      <rect style="font-variation-settings:'wdth' 70,'wght' 600;display:inline;fill:#586a6f;fill-opacity:1;stroke-width:6.40868;stroke-dasharray:none" id="rect308" width="172.37357" height="29.06435" x="1090.4893" y="521.27582" transform="rotate(2.6695564)"/>
      <rect style="font-variation-settings:'wdth' 70,'wght' 600;display:inline;fill:#56676c;fill-opacity:1;stroke-width:6.40868;stroke-dasharray:none" id="rect309" width="172.3737" height="29.06435" x="1090.4891" y="492.21143" transform="rotate(2.6695564)"/>
      <rect style="font-variation-settings:'wdth' 70,'wght' 600;display:inline;fill:#000;fill-opacity:1;stroke-width:1.18874;stroke-dasharray:none" id="rect310" width="172.37357" height="1.0000001" x="1090.4893" y="637.53333" transform="rotate(2.6695564)"/>
      <rect style="font-variation-settings:'wdth' 70,'wght' 600;display:inline;fill:#000;fill-opacity:1;stroke-width:1.18915;stroke-dasharray:none" id="rect311" width="172.37357" height="1.0000001" x="1090.4893" y="608.46899" transform="rotate(2.6695564)"/>
      <rect style="font-variation-settings:'wdth' 70,'wght' 600;display:inline;fill:#000;fill-opacity:1;stroke-width:1.18874;stroke-dasharray:none" id="rect312" width="172.37357" height="1.0000001" x="1090.4893" y="579.40454" transform="rotate(2.6695564)"/>
      <rect style="font-variation-settings:'wdth' 70,'wght' 600;display:inline;fill:#000;fill-opacity:1;stroke-width:1.18874;stroke-dasharray:none" id="rect313" width="172.37357" height="1.0000001" x="1090.4893" y="550.34021" transform="rotate(2.6695564)"/>
      <rect style="font-variation-settings:'wdth' 70,'wght' 600;display:inline;fill:#000;fill-opacity:1;stroke-width:1.18874;stroke-dasharray:none" id="rect314" width="172.37357" height="1.0000001" x="1090.4893" y="521.27582" transform="rotate(2.6695564)"/>
      <rect style="font-variation-settings:'wdth' 70,'wght' 600;display:inline;fill:#000;fill-opacity:1;stroke-width:1.18874;stroke-dasharray:none" id="rect315" width="172.37378" height="1.0000001" x="1090.4891" y="492.21143" transform="rotate(2.6695564)"/>
      <rect style="font-variation-settings:'wdth' 70,'wght' 600;display:inline;fill:#546469;fill-opacity:1;stroke-width:6.40868;stroke-dasharray:none" id="rect316" width="172.3737" height="29.06435" x="1090.4891" y="463.14706" transform="rotate(2.6695564)"/>
      <rect style="font-variation-settings:'wdth' 70,'wght' 600;display:inline;fill:#000;fill-opacity:1;stroke-width:1.18874;stroke-dasharray:none" id="rect317" width="172.37378" height="1.0000001" x="1090.4891" y="463.14706" transform="rotate(2.6695564)"/>
      <rect style="font-variation-settings:'wdth' 70,'wght' 600;display:inline;fill:#516166;fill-opacity:1;stroke-width:6.40868;stroke-dasharray:none" id="rect319" width="172.3737" height="29.06435" x="1090.4891" y="434.0827" transform="rotate(2.6695564)"/>
      <rect style="font-variation-settings:'wdth' 70,'wght' 600;display:inline;fill:#000;fill-opacity:1;stroke-width:1.18874;stroke-dasharray:none" id="rect320" width="172.37378" height="1.0000001" x="1090.4891" y="434.0827" transform="rotate(2.6695564)"/>
      <rect style="font-variation-settings:'wdth' 70,'wght' 600;display:inline;fill:#4f5e63;fill-opacity:1;stroke-width:6.40868;stroke-dasharray:none" id="rect321" width="172.3737" height="29.06435" x="1090.4891" y="405.01834" transform="rotate(2.6695564)"/>
      <rect style="font-variation-settings:'wdth' 70,'wght' 600;display:inline;fill:#000;fill-opacity:1;stroke-width:1.18874;stroke-dasharray:none" id="rect322" width="172.37378" height="1.0000001" x="1090.4891" y="405.01834" transform="rotate(2.6695564)"/>
      <rect style="font-variation-settings:'wdth' 70,'wght' 600;display:inline;fill:#000;fill-opacity:1;stroke-width:1.18874;stroke-dasharray:none" id="rect323" width="172.37378" height="1.0000001" x="895.53137" y="408.02936" transform="rotate(2.6695564)"/>
      <rect style="font-variation-settings:'wdth' 70,'wght' 600;display:inline;fill:#465358;fill-opacity:1;stroke-width:6.40868;stroke-dasharray:none" id="rect324" width="172.3737" height="29.06435" x="895.53137" y="378.96509" transform="rotate(2.6695564)"/>
      <rect style="font-variation-settings:'wdth' 70,'wght' 600;display:inline;fill:#000;fill-opacity:1;stroke-width:1.18874;stroke-dasharray:none" id="rect325" width="172.37378" height="1.0000001" x="895.53137" y="378.96509" transform="rotate(2.6695564)"/>
      <rect style="font-variation-settings:'wdth' 70,'wght' 600;display:inline;fill:#48565b;fill-opacity:1;stroke-width:6.40868;stroke-dasharray:none" id="rect326" width="172.3737" height="29.06435" x="895.53137" y="349.90073" transform="rotate(2.6695564)"/>
      <rect style="font-variation-settings:'wdth' 70,'wght' 600;display:inline;fill:#000;fill-opacity:1;stroke-width:1.18874;stroke-dasharray:none" id="rect327" width="172.37378" height="1.0000001" x="895.53137" y="349.90073" transform="rotate(2.6695564)"/>
      <rect style="font-variation-settings:'wdth' 70,'wght' 600;display:inline;fill:#4b595e;fill-opacity:1;stroke-width:6.40868;stroke-dasharray:none" id="rect328" width="172.3737" height="29.06435" x="895.53137" y="320.83636" transform="rotate(2.6695564)"/>
      <rect style="font-variation-settings:'wdth' 70,'wght' 600;display:inline;fill:#000;fill-opacity:1;stroke-width:1.18874;stroke-dasharray:none" id="rect329" width="172.37378" height="1.0000001" x="895.53137" y="320.83636" transform="rotate(2.6695564)"/>
      <rect style="font-variation-settings:'wdth' 70,'wght' 600;display:inline;fill:#62797e;fill-opacity:1;stroke-width:6.40868;stroke-dasharray:none" id="rect686" width="172.37357" height="29.06435" x="1090.4891" y="666.59766" transform="rotate(2.6695564)"/>
      <rect style="font-variation-settings:'wdth' 70,'wght' 600;display:inline;fill:#445055;fill-opacity:1;stroke-width:6.40868;stroke-dasharray:none" id="rect690" width="172.3737" height="29.06435" x="895.53143" y="409.02936" transform="rotate(2.6695564)"/>
      <rect style="font-variation-settings:'wdth' 70,'wght' 600;display:inline;fill:#424d52;fill-opacity:1;stroke-width:6.40868;stroke-dasharray:none" id="rect691" width="172.3737" height="29.06435" x="895.53143" y="438.09372" transform="rotate(2.6695564)"/>
      <rect style="font-variation-settings:'wdth' 70,'wght' 600;display:inline;fill:#404a4f;fill-opacity:1;stroke-width:6.40868;stroke-dasharray:none" id="rect692" width="172.3737" height="29.06435" x="895.53143" y="467.15805" transform="rotate(2.6695564)"/>
      <rect style="font-variation-settings:'wdth' 70,'wght' 600;display:inline;fill:#3e474c;fill-opacity:1;stroke-width:6.40868;stroke-dasharray:none" id="rect693" width="172.3737" height="29.06435" x="895.53143" y="496.22238" transform="rotate(2.6695564)"/>
      <rect style="font-variation-settings:'wdth' 70,'wght' 600;display:inline;fill:#3c4449;fill-opacity:1;stroke-width:6.40868;stroke-dasharray:none" id="rect694" width="172.3737" height="29.06435" x="895.53143" y="525.28668" transform="rotate(2.6695564)"/>
      <rect style="font-variation-settings:'wdth' 70,'wght' 600;display:inline;fill:#3a4146;fill-opacity:1;stroke-width:6.40868;stroke-dasharray:none" id="rect695" width="172.3737" height="29.06435" x="895.53143" y="554.35101" transform="rotate(2.6695564)"/>
      <rect style="font-variation-settings:'wdth' 70,'wght' 600;display:inline;fill:#373e43;fill-opacity:1;stroke-width:6.40868;stroke-dasharray:none" id="rect696" width="172.3737" height="29.06435" x="895.53143" y="583.41534" transform="rotate(2.6695564)"/>
      <rect style="font-variation-settings:'wdth' 70,'wght' 600;display:inline;fill:#000;fill-opacity:1;stroke-width:1.18874;stroke-dasharray:none" id="rect697" width="172.37378" height="1.0000001" x="895.53137" y="437.09372" transform="rotate(2.6695564)"/>
      <rect style="font-variation-settings:'wdth' 70,'wght' 600;display:inline;fill:#000;fill-opacity:1;stroke-width:1.18874;stroke-dasharray:none" id="rect714" width="172.37378" height="1.0000001" x="895.53137" y="466.15805" transform="rotate(2.6695564)"/>
      <rect style="font-variation-settings:'wdth' 70,'wght' 600;display:inline;fill:#000;fill-opacity:1;stroke-width:1.18874;stroke-dasharray:none" id="rect715" width="172.37378" height="1.0000001" x="895.53137" y="495.22238" transform="rotate(2.6695564)"/>
      <rect style="font-variation-settings:'wdth' 70,'wght' 600;display:inline;fill:#000;fill-opacity:1;stroke-width:1.18874;stroke-dasharray:none" id="rect716" width="172.37378" height="1.0000001" x="895.53137" y="524.28668" transform="rotate(2.6695564)"/>
      <rect style="font-variation-settings:'wdth' 70,'wght' 600;display:inline;fill:#000;fill-opacity:1;stroke-width:1.18874;stroke-dasharray:none" id="rect717" width="172.37378" height="1.0000001" x="895.53137" y="553.35101" transform="rotate(2.6695564)"/>
      <rect style="font-variation-settings:'wdth' 70,'wght' 600;display:inline;fill:#000;fill-opacity:1;stroke-width:1.18874;stroke-dasharray:none" id="rect718" width="172.37378" height="1.0000001" x="895.53137" y="582.41534" transform="rotate(2.6695564)"/>
      <rect style="font-variation-settings:'wdth' 70,'wght' 600;display:inline;fill:#000;fill-opacity:1;stroke-width:1.18874;stroke-dasharray:none" id="rect719" width="172.37378" height="1.0000001" x="895.53137" y="611.47968" transform="rotate(2.6695564)"/>
      <rect style="font-variation-settings:'wdth' 70,'wght' 600;display:inline;fill:#000;fill-opacity:1;stroke-width:1.18874;stroke-dasharray:none" id="rect720" width="172.37357" height="1.0000001" x="1090.4893" y="665.59766" transform="rotate(2.6695564)"/>
      <rect style="font-variation-settings:'wdth' 70,'wght' 600;display:inline;fill:#373e43;fill-opacity:1;stroke-width:6.40868;stroke-dasharray:none" id="rect724" width="172.3737" height="29.06435" x="895.53143" y="612.47968" transform="rotate(2.6695564)"/>
      <rect style="font-variation-settings:'wdth' 70,'wght' 600;display:inline;fill:#373e43;fill-opacity:1;stroke-width:6.40868;stroke-dasharray:none" id="rect725" width="172.3737" height="29.06435" x="895.53143" y="641.54401" transform="rotate(2.6695564)"/>
      <rect style="font-variation-settings:'wdth' 70,'wght' 600;display:inline;fill:#373e43;fill-opacity:1;stroke-width:6.40868;stroke-dasharray:none" id="rect726" width="172.3737" height="29.06435" x="895.53143" y="670.60834" transform="rotate(2.6695564)"/>
      <rect style="font-variation-settings:'wdth' 70,'wght' 600;display:inline;fill:#000;fill-opacity:1;stroke-width:1.18874;stroke-dasharray:none" id="rect727" width="172.37378" height="1.0000001" x="895.53137" y="640.54401" transform="rotate(2.6695564)"/>
      <rect style="font-variation-settings:'wdth' 70,'wght' 600;display:inline;fill:#000;fill-opacity:1;stroke-width:1.18874;stroke-dasharray:none" id="rect728" width="172.37378" height="1.0000001" x="895.53137" y="669.60834" transform="rotate(2.6695564)"/>
      <rect style="font-variation-settings:'wdth' 70,'wght' 600;display:inline;fill:#000;fill-opacity:1;stroke-width:1.18874;stroke-dasharray:none" id="rect729" width="172.37357" height="1.0000001" x="1090.4891" y="694.66199" transform="rotate(2.6695564,0.04715316,0.31543)"/>
      <path style="font-variation-settings:'wdth' 70,'wght' 600;display:inline;opacity:1;fill:none;fill-opacity:1;stroke:#bec3c6;stroke-width:5;stroke-dasharray:none;stroke-opacity:1;marker-end:url(#Triangle)" d="m 1140.3582,473.39979 -11.496,246.55673" id="path329" transform="translate(3.6758074e-6,1.8533232e-5)"/>
      <path style="font-variation-settings:'wdth' 70,'wght' 600;display:inline;opacity:1;fill:none;fill-opacity:1;stroke:#bec3c6;stroke-width:5;stroke-dasharray:none;stroke-opacity:1;marker-end:url(#Triangle)" d="M 957.56425,731.88892 976.00868,395.78851" id="path330" transform="translate(3.6758074e-6,1.8533232e-5)"/>
      <rect style="font-variation-settings:'wght' 700;display:inline;fill:none;stroke:#bec3c6;stroke-width:10;stroke-opacity:1" id="rect330" width="21.19548" height="451.13837" x="1067.8757" y="292.40125" transform="rotate(2.6695564,0.19715053,1.2634305)"/>
    </g>
    <g id="g493" transform="matrix(-0.02439371,0,0,-0.02439371,77.016142,134.51683)" style="display:inline">
      <rect style="font-variation-settings:'wdth' 70,'wght' 600;display:inline;fill:#4b595e;fill-opacity:1;stroke-width:6.73132;stroke-dasharray:none" id="rect331" width="190.16679" height="29.06435" x="1745.594" y="-1006.071"/>
      <rect style="font-variation-settings:'wdth' 70,'wght' 600;display:inline;fill:#48565b;fill-opacity:1;stroke-width:6.73132;stroke-dasharray:none" id="rect332" width="190.16679" height="29.06435" x="1745.594" y="-1035.1354"/>
      <rect style="font-variation-settings:'wdth' 70,'wght' 600;display:inline;fill:#465358;fill-opacity:1;stroke-width:6.73132;stroke-dasharray:none" id="rect333" width="190.16679" height="29.06435" x="1745.594" y="-1064.1997"/>
      <rect style="font-variation-settings:'wdth' 70,'wght' 600;display:inline;fill:#445055;fill-opacity:1;stroke-width:6.73132;stroke-dasharray:none" id="rect334" width="190.16679" height="29.06435" x="1745.594" y="-1093.264"/>
      <rect style="font-variation-settings:'wdth' 70,'wght' 600;display:inline;fill:#424d52;fill-opacity:1;stroke-width:6.73132;stroke-dasharray:none" id="rect335" width="190.16679" height="29.06435" x="1745.594" y="-1122.3285"/>
      <rect style="font-variation-settings:'wdth' 70,'wght' 600;display:inline;fill:#404a4f;fill-opacity:1;stroke-width:6.73132;stroke-dasharray:none" id="rect336" width="190.16695" height="29.06435" x="1745.5939" y="-1151.3928"/>
      <rect style="font-variation-settings:'wdth' 70,'wght' 600;display:inline;fill:#000;fill-opacity:1;stroke-width:1.24859;stroke-dasharray:none" id="rect337" width="190.16679" height="1.0000001" x="1745.594" y="-977.00659"/>
      <rect style="font-variation-settings:'wdth' 70,'wght' 600;display:inline;fill:#000;fill-opacity:1;stroke-width:1.24859;stroke-dasharray:none" id="rect338" width="190.16679" height="1.0000001" x="1745.594" y="-1006.071"/>
      <rect style="font-variation-settings:'wdth' 70,'wght' 600;display:inline;fill:#000;fill-opacity:1;stroke-width:1.24859;stroke-dasharray:none" id="rect339" width="190.16679" height="1.0000001" x="1745.594" y="-1035.1354"/>
      <rect style="font-variation-settings:'wdth' 70,'wght' 600;display:inline;fill:#000;fill-opacity:1;stroke-width:1.24859;stroke-dasharray:none" id="rect340" width="190.16679" height="1.0000001" x="1745.594" y="-1064.1997"/>
      <rect style="font-variation-settings:'wdth' 70,'wght' 600;display:inline;fill:#000;fill-opacity:1;stroke-width:1.24859;stroke-dasharray:none" id="rect341" width="190.16679" height="1.0000001" x="1745.594" y="-1093.264"/>
      <rect style="font-variation-settings:'wdth' 70,'wght' 600;display:inline;fill:#000;fill-opacity:1;stroke-width:1.24859;stroke-dasharray:none" id="rect342" width="190.16679" height="1.0000001" x="1745.594" y="-1122.3285"/>
      <rect style="font-variation-settings:'wdth' 70,'wght' 600;display:inline;fill:#000;fill-opacity:1;stroke-width:1.24859;stroke-dasharray:none" id="rect343" width="190.16702" height="1.0000001" x="1745.5939" y="-1151.3928"/>
      <rect style="font-variation-settings:'wdth' 70,'wght' 600;display:inline;fill:#4f5e63;fill-opacity:1;stroke-width:6.73132;stroke-dasharray:none" id="rect401" width="190.16679" height="29.06435" x="1534.8741" y="-1006.0711"/>
      <rect style="font-variation-settings:'wdth' 70,'wght' 600;display:inline;fill:#516166;fill-opacity:1;stroke-width:6.73132;stroke-dasharray:none" id="rect404" width="190.16679" height="29.06435" x="1534.8741" y="-1035.1354"/>
      <rect style="font-variation-settings:'wdth' 70,'wght' 600;display:inline;fill:#546469;fill-opacity:1;stroke-width:6.73132;stroke-dasharray:none" id="rect406" width="190.16679" height="29.06435" x="1534.8741" y="-1064.1997"/>
      <rect style="font-variation-settings:'wdth' 70,'wght' 600;display:inline;fill:#56676c;fill-opacity:1;stroke-width:6.73132;stroke-dasharray:none" id="rect407" width="190.16679" height="29.06435" x="1534.8741" y="-1093.2642"/>
      <rect style="font-variation-settings:'wdth' 70,'wght' 600;display:inline;fill:#586a6f;fill-opacity:1;stroke-width:6.73132;stroke-dasharray:none" id="rect408" width="190.16679" height="29.06435" x="1534.8741" y="-1122.3285"/>
      <rect style="font-variation-settings:'wdth' 70,'wght' 600;display:inline;fill:#5a6d72;fill-opacity:1;stroke-width:6.73132;stroke-dasharray:none" id="rect409" width="190.16695" height="29.06435" x="1534.874" y="-1151.3929"/>
      <rect style="font-variation-settings:'wdth' 70,'wght' 600;display:inline;fill:#000;fill-opacity:1;stroke-width:1.24859;stroke-dasharray:none" id="rect410" width="190.16679" height="1.0000001" x="1534.8741" y="-977.00665"/>
      <rect style="font-variation-settings:'wdth' 70,'wght' 600;display:inline;fill:#000;fill-opacity:1;stroke-width:1.24859;stroke-dasharray:none" id="rect411" width="190.16679" height="1.0000001" x="1534.8741" y="-1006.0711"/>
      <rect style="font-variation-settings:'wdth' 70,'wght' 600;display:inline;fill:#000;fill-opacity:1;stroke-width:1.24902;stroke-dasharray:none" id="rect413" width="190.16679" height="1.0000001" x="1534.8741" y="-1035.1354"/>
      <rect style="font-variation-settings:'wdth' 70,'wght' 600;display:inline;fill:#000;fill-opacity:1;stroke-width:1.24859;stroke-dasharray:none" id="rect414" width="190.16679" height="1.0000001" x="1534.8741" y="-1064.1997"/>
      <rect style="font-variation-settings:'wdth' 70,'wght' 600;display:inline;fill:#000;fill-opacity:1;stroke-width:1.24859;stroke-dasharray:none" id="rect415" width="190.16679" height="1.0000001" x="1534.8741" y="-1093.2642"/>
      <rect style="font-variation-settings:'wdth' 70,'wght' 600;display:inline;fill:#000;fill-opacity:1;stroke-width:1.24859;stroke-dasharray:none" id="rect416" width="190.16679" height="1.0000001" x="1534.8741" y="-1122.3285"/>
      <rect style="font-variation-settings:'wdth' 70,'wght' 600;display:inline;fill:#000;fill-opacity:1;stroke-width:1.24859;stroke-dasharray:none" id="rect417" width="190.16702" height="1.0000001" x="1534.874" y="-1151.3929"/>
      <rect style="font-variation-settings:'wdth' 70,'wght' 600;display:inline;fill:#3e474c;fill-opacity:1;stroke-width:6.73132;stroke-dasharray:none" id="rect418" width="190.16695" height="29.06435" x="1745.5939" y="-1180.4572"/>
      <rect style="font-variation-settings:'wdth' 70,'wght' 600;display:inline;fill:#000;fill-opacity:1;stroke-width:1.24859;stroke-dasharray:none" id="rect419" width="190.16702" height="1.0000001" x="1745.5939" y="-1180.4572"/>
      <rect style="font-variation-settings:'wdth' 70,'wght' 600;display:inline;fill:#3c4449;fill-opacity:1;stroke-width:6.73132;stroke-dasharray:none" id="rect420" width="190.16695" height="29.06435" x="1745.5939" y="-1209.5215"/>
      <rect style="font-variation-settings:'wdth' 70,'wght' 600;display:inline;fill:#000;fill-opacity:1;stroke-width:1.24859;stroke-dasharray:none" id="rect421" width="190.16702" height="1.0000001" x="1745.5939" y="-1209.5215"/>
      <rect style="font-variation-settings:'wdth' 70,'wght' 600;display:inline;fill:#3a4146;fill-opacity:1;stroke-width:6.73132;stroke-dasharray:none" id="rect432" width="190.16695" height="29.06435" x="1745.5939" y="-1238.5858"/>
      <rect style="font-variation-settings:'wdth' 70,'wght' 600;display:inline;fill:#000;fill-opacity:1;stroke-width:1.24859;stroke-dasharray:none" id="rect433" width="190.16702" height="1.0000001" x="1745.5939" y="-1238.5858"/>
      <rect style="font-variation-settings:'wdth' 70,'wght' 600;display:inline;fill:#5c7075;fill-opacity:1;stroke-width:6.73132;stroke-dasharray:none" id="rect434" width="190.16695" height="29.06435" x="1534.874" y="-1180.4573"/>
      <rect style="font-variation-settings:'wdth' 70,'wght' 600;display:inline;fill:#000;fill-opacity:1;stroke-width:1.24859;stroke-dasharray:none" id="rect435" width="190.16702" height="1.0000001" x="1534.874" y="-1180.4573"/>
      <rect style="font-variation-settings:'wdth' 70,'wght' 600;display:inline;fill:#5e7378;fill-opacity:1;stroke-width:6.73132;stroke-dasharray:none" id="rect453" width="190.16695" height="29.06435" x="1534.874" y="-1209.5216"/>
      <rect style="font-variation-settings:'wdth' 70,'wght' 600;display:inline;fill:#000;fill-opacity:1;stroke-width:1.24859;stroke-dasharray:none" id="rect454" width="190.16702" height="1.0000001" x="1534.874" y="-1209.5216"/>
      <rect style="font-variation-settings:'wdth' 70,'wght' 600;display:inline;fill:#60767b;fill-opacity:1;stroke-width:6.73132;stroke-dasharray:none" id="rect455" width="190.16695" height="29.06435" x="1534.874" y="-1238.5859"/>
      <rect style="font-variation-settings:'wdth' 70,'wght' 600;display:inline;fill:#000;fill-opacity:1;stroke-width:1.24859;stroke-dasharray:none" id="rect456" width="190.16702" height="1.0000001" x="1534.874" y="-1238.5859"/>
      <path style="font-variation-settings:'wght' 700;fill:#6b858a;fill-opacity:1;stroke:#bec3c6;stroke-width:0" d="m 1725.0418,-1397.046 v 42.2027 h -190.168 l 0.4275,-212.0156 h 397.547 l 2.9124,212.0156 h -190.1669 l 2e-4,-42.2027 z" id="path456"/>
      <rect style="font-variation-settings:'wdth' 70,'wght' 600;display:inline;fill:#373e43;fill-opacity:1;stroke-width:6.73132;stroke-dasharray:none" id="rect457" width="190.16695" height="29.06435" x="1745.5939" y="-1267.6503"/>
      <rect style="font-variation-settings:'wdth' 70,'wght' 600;display:inline;fill:#000;fill-opacity:1;stroke-width:1.24859;stroke-dasharray:none" id="rect458" width="190.16702" height="1.0000001" x="1745.5939" y="-1267.6503"/>
      <rect style="font-variation-settings:'wdth' 70,'wght' 600;display:inline;fill:#62797e;fill-opacity:1;stroke-width:6.73132;stroke-dasharray:none" id="rect459" width="190.16695" height="29.06435" x="1534.874" y="-1267.6503"/>
      <rect style="font-variation-settings:'wdth' 70,'wght' 600;display:inline;fill:#647c81;fill-opacity:1;stroke-width:6.73132;stroke-dasharray:none" id="rect481" width="190.16695" height="29.06435" x="1534.874" y="-1296.7146"/>
      <rect style="font-variation-settings:'wdth' 70,'wght' 600;display:inline;fill:#667f84;fill-opacity:1;stroke-width:6.73132;stroke-dasharray:none" id="rect482" width="190.16695" height="29.06435" x="1534.874" y="-1325.7789"/>
      <rect style="font-variation-settings:'wdth' 70,'wght' 600;display:inline;fill:#688287;fill-opacity:1;stroke-width:6.73132;stroke-dasharray:none" id="rect483" width="190.16695" height="29.06435" x="1534.874" y="-1354.8433"/>
      <rect style="font-variation-settings:'wdth' 70,'wght' 600;display:inline;fill:#353c40;fill-opacity:1;stroke-width:6.73132;stroke-dasharray:none" id="rect484" width="190.16695" height="29.06435" x="1745.5939" y="-1296.7146"/>
      <rect style="font-variation-settings:'wdth' 70,'wght' 600;display:inline;fill:#333a3d;fill-opacity:1;stroke-width:6.73132;stroke-dasharray:none" id="rect485" width="190.16695" height="29.06435" x="1745.5939" y="-1325.7789"/>
      <rect style="font-variation-settings:'wdth' 70,'wght' 600;display:inline;fill:#31373a;fill-opacity:1;stroke-width:6.73132;stroke-dasharray:none" id="rect486" width="190.16695" height="29.06435" x="1745.5939" y="-1354.8433"/>
      <rect style="font-variation-settings:'wdth' 70,'wght' 600;display:inline;fill:#000;fill-opacity:1;stroke-width:1.24859;stroke-dasharray:none" id="rect487" width="190.16702" height="1.0000001" x="1745.5939" y="-1296.7146"/>
      <rect style="font-variation-settings:'wdth' 70,'wght' 600;display:inline;fill:#000;fill-opacity:1;stroke-width:1.24859;stroke-dasharray:none" id="rect488" width="190.16702" height="1.0000001" x="1745.5939" y="-1325.7789"/>
      <rect style="font-variation-settings:'wdth' 70,'wght' 600;display:inline;fill:#000;fill-opacity:1;stroke-width:1.24859;stroke-dasharray:none" id="rect489" width="190.16702" height="1.0000001" x="1534.874" y="-1267.6503"/>
      <rect style="font-variation-settings:'wdth' 70,'wght' 600;display:inline;fill:#000;fill-opacity:1;stroke-width:1.24859;stroke-dasharray:none" id="rect490" width="190.16702" height="1.0000001" x="1534.874" y="-1296.7146"/>
      <rect style="font-variation-settings:'wdth' 70,'wght' 600;display:inline;fill:#000;fill-opacity:1;stroke-width:1.24859;stroke-dasharray:none" id="rect491" width="190.16702" height="1.0000001" x="1534.874" y="-1325.7789"/>
      <rect style="font-variation-settings:'wdth' 70,'wght' 600;display:inline;fill:#000;fill-opacity:1;stroke-width:1.24859;stroke-dasharray:none" id="rect492" width="190.16702" height="1.0000001" x="1534.874" y="-1354.8433"/>
      <path style="font-variation-settings:'wdth' 70,'wght' 600;display:inline;opacity:1;fill:none;fill-opacity:1;stroke:#bec3c6;stroke-width:5;stroke-dasharray:none;stroke-opacity:1;marker-end:url(#Triangle)" d="m 1834.4278,-1340.3111 10e-5,334.2401" id="path492"/>
      <path style="font-variation-settings:'wdth' 70,'wght' 600;display:inline;opacity:1;fill:none;fill-opacity:1;stroke:#bec3c6;stroke-width:5;stroke-dasharray:none;stroke-opacity:1;marker-end:url(#Triangle)" d="M 1636.2079,-991.53894 V -1324.7789" id="path493"/>
      <rect style="font-variation-settings:'wght' 700;display:inline;fill:none;stroke:#bec3c6;stroke-width:10;stroke-opacity:1" id="rect493" width="20.552124" height="454.18738" x="1725.042" y="-1397.046" transform="translate(-1.7912403e-4)"/>
    </g>
    <g id="walls_1" transform="matrix(0.02439371,0,0,0.02439371,-0.02443957,244.19953)" style="display:inline">
      <path style="font-variation-settings:'wdth' 70,'wght' 600;fill:none;stroke:#bec3c6;stroke-width:35;stroke-linecap:butt;stroke-dasharray:none;stroke-opacity:1" d="m 847.11401,-3827.4929 v -36.8443 h 95.14282 v -418.8" id="path495"/>
      <path style="font-variation-settings:'wdth' 70,'wght' 600;fill:none;stroke:#bec3c6;stroke-width:55;stroke-linecap:butt;stroke-dasharray:none;stroke-opacity:1" d="m 1222.4543,-3963.2574 v -319.8798 H 103.81119 v 5756.0267 h 253.18885 l -1,304.1109 1274.84576,64.6031 7.1544,-109.1031" id="path496"/>
      <path style="font-variation-settings:'wdth' 70,'wght' 600;fill:none;stroke:#bec3c6;stroke-width:35;stroke-linecap:butt;stroke-dasharray:none;stroke-opacity:1" d="m 1222.4543,-3963.2574 v 135.7645" id="path497"/>
      <path style="font-variation-settings:'wdth' 70,'wght' 600;fill:none;stroke:#bec3c6;stroke-width:35;stroke-linecap:butt;stroke-dasharray:none;stroke-opacity:1" d="m 1222.4543,-3677.4929 v 808.5294" id="path498"/>
      <path style="font-variation-settings:'wdth' 70,'wght' 600;fill:none;stroke:#bec3c6;stroke-width:35;stroke-linecap:butt;stroke-dasharray:none;stroke-opacity:1" d="m 847.11401,-3428.1042 v 39.5109" id="path499"/>
      <path style="font-variation-settings:'wdth' 70,'wght' 600;fill:none;stroke:#bec3c6;stroke-width:35;stroke-linecap:butt;stroke-dasharray:none;stroke-opacity:1" d="M 483.25677,-2685.9635 H 103.81119" id="path501"/>
      <path style="font-variation-settings:'wdth' 70,'wght' 600;fill:none;stroke:#bec3c6;stroke-width:35;stroke-linecap:butt;stroke-dasharray:none;stroke-opacity:1" d="m 847.11401,-2918.6679 v 39.1091 h 95.14282 v 193.5953 H 680.81127" id="path502"/>
      <path style="font-variation-settings:'wdth' 70,'wght' 600;fill:none;stroke:#bec3c6;stroke-width:35;stroke-linecap:butt;stroke-dasharray:none;stroke-opacity:1" d="M 942.25683,-2185.7454 V -2342.325 H 847.11401" id="path503"/>
      <path style="font-variation-settings:'wdth' 70,'wght' 600;fill:none;stroke:#bec3c6;stroke-width:35;stroke-linecap:butt;stroke-dasharray:none;stroke-opacity:1" d="M 1042.3792,-2071.0164 H 103.81119" id="path504"/>
      <path style="font-variation-settings:'wdth' 70,'wght' 600;fill:none;stroke:#bec3c6;stroke-width:35;stroke-linecap:butt;stroke-dasharray:none;stroke-opacity:1" d="M 1222.4543,-2768.9635 V 747.72699" id="path506"/>
      <path style="font-variation-settings:'wdth' 70,'wght' 600;fill:none;stroke:#bec3c6;stroke-width:35;stroke-linecap:butt;stroke-dasharray:none;stroke-opacity:1" d="m 942.25683,-1950.6306 v 156.5796 h -95.14282" id="path507"/>
      <path style="font-variation-settings:'wdth' 70,'wght' 600;fill:none;stroke:#bec3c6;stroke-width:35;stroke-linecap:butt;stroke-dasharray:none;stroke-opacity:1" d="m 942.25683,-1347.782 -838.44564,-10e-5" id="path508"/>
      <path style="font-variation-settings:'wdth' 70,'wght' 600;fill:none;stroke:#bec3c6;stroke-width:35;stroke-linecap:butt;stroke-dasharray:none;stroke-opacity:1" d="m 847.11401,-1599.3173 v 42.5949 h 95.14282 v 444.6046 h -95.14282 v 44.7338" id="path509"/>
      <path style="font-variation-settings:'wdth' 70,'wght' 600;fill:none;stroke:#bec3c6;stroke-width:35;stroke-linecap:butt;stroke-dasharray:none;stroke-opacity:1" d="M 340.98592,-369.73465 H 103.81119" id="path511"/>
      <path style="font-variation-settings:'wdth' 70,'wght' 600;fill:none;stroke:#bec3c6;stroke-width:35;stroke-linecap:butt;stroke-dasharray:none;stroke-opacity:1" d="M 847.11401,-369.73465 H 440.98594" id="path512"/>
      <path style="font-variation-settings:'wdth' 70,'wght' 600;fill:none;stroke:#bec3c6;stroke-width:35;stroke-linecap:butt;stroke-dasharray:none;stroke-opacity:1" d="m 847.11401,-238.91495 v 44.7337 h 95.14282 V 378.417 h -95.14282 v 44.73375" id="path513"/>
      <path style="font-variation-settings:'wdth' 70,'wght' 600;fill:none;stroke:#bec3c6;stroke-width:35;stroke-linecap:butt;stroke-dasharray:none;stroke-opacity:1" d="M 942.25683,-735.12815 H 103.81119" id="path514"/>
      <path style="font-variation-settings:'wdth' 70,'wght' 600;fill:none;stroke:#bec3c6;stroke-width:35;stroke-linecap:butt;stroke-dasharray:none;stroke-opacity:1" d="m 847.11401,573.15077 v 44.7337 h 95.14282 V 1806.7091" id="path515"/>
      <path style="font-variation-settings:'wdth' 70,'wght' 600;fill:none;stroke:#bec3c6;stroke-width:35;stroke-linecap:butt;stroke-dasharray:none;stroke-opacity:1" d="m 847.11401,-2387.0587 v 637.7414" id="path518"/>
      <path style="font-variation-settings:'wdth' 70,'wght' 600;fill:none;stroke:#bec3c6;stroke-width:35;stroke-linecap:butt;stroke-dasharray:none;stroke-opacity:1" d="m 942.25683,-2029.3516 v -83.3296" id="path519"/>
      <path style="font-variation-settings:'wdth' 70,'wght' 600;fill:none;stroke:#bec3c6;stroke-width:35;stroke-linecap:butt;stroke-dasharray:none;stroke-opacity:1" d="m 942.43998,-3963.2574 h 60.23752" id="path520"/>
      <path style="font-variation-settings:'wdth' 70,'wght' 600;fill:none;stroke:#bec3c6;stroke-width:35;stroke-linecap:butt;stroke-dasharray:none;stroke-opacity:1" d="m 1137.0278,-3963.2574 h 486.3132 v 135.7645" id="path521"/>
      <path style="font-variation-settings:'wdth' 70,'wght' 600;fill:none;stroke:#bec3c6;stroke-width:35;stroke-linecap:butt;stroke-dasharray:none;stroke-opacity:1" d="M 1222.4543,-2929.4928 H 1623.341" id="path541"/>
      <path style="font-variation-settings:'wdth' 70,'wght' 600;fill:none;stroke:#bec3c6;stroke-width:35;stroke-linecap:butt;stroke-dasharray:none;stroke-opacity:1" d="m 1222.4543,-2732.113 h 400.8867 v -945.3799" id="path542"/>
      <path style="font-variation-settings:'wdth' 70,'wght' 600;fill:none;stroke:#bec3c6;stroke-width:35;stroke-linecap:butt;stroke-dasharray:none;stroke-opacity:1" d="M 942.25683,969.87957 H 1042.3792" id="path558"/>
      <path style="font-variation-settings:'wdth' 70,'wght' 600;fill:none;stroke:#bec3c6;stroke-width:35;stroke-linecap:butt;stroke-dasharray:none;stroke-opacity:1" d="m 1222.4543,870.37956 h 282.5752" id="path559"/>
      <path style="font-variation-settings:'wdth' 70,'wght' 600;fill:none;stroke:#bec3c6;stroke-width:35;stroke-linecap:butt;stroke-dasharray:none;stroke-opacity:1" d="M 942.25683,1257.8796 H 1046.3792" id="path560"/>
      <path style="font-variation-settings:'wdth' 70,'wght' 600;fill:none;stroke:#bec3c6;stroke-width:35;stroke-linecap:butt;stroke-dasharray:none;stroke-opacity:1" d="m 1146.3792,1257.8796 h 364.5804" id="path561"/>
      <path style="font-variation-settings:'wdth' 70,'wght' 600;fill:none;stroke:#bec3c6;stroke-width:35;stroke-linecap:butt;stroke-dasharray:none;stroke-opacity:1" d="m 1622.7243,1813.872 45.6061,-724.9991 m 8.564,-97.24949 17.0422,-296.74953" id="path562"/>
      <path style="font-variation-settings:'wdth' 70,'wght' 600;fill:none;stroke:#bec3c6;stroke-width:35;stroke-linecap:butt;stroke-dasharray:none;stroke-opacity:1" d="M 1505.0295,694.87388 V 967.22702" id="path564"/>
      <path style="font-variation-settings:'wdth' 70,'wght' 600;fill:none;stroke:#bec3c6;stroke-width:35;stroke-linecap:butt;stroke-dasharray:none;stroke-opacity:1" d="m 1192.3793,969.87957 h 345.1503" id="path565"/>
      <path style="font-variation-settings:'wdth' 70,'wght' 600;fill:none;stroke:#bec3c6;stroke-width:35;stroke-linecap:butt;stroke-dasharray:none;stroke-opacity:1" d="m 1637.5296,969.87957 h 39.3648" id="path566"/>
      <path style="font-variation-settings:'wdth' 70,'wght' 600;fill:none;stroke:#bec3c6;stroke-width:55;stroke-linecap:butt;stroke-dasharray:none;stroke-opacity:1" d="M 1977.7416,1883.2679 2055.6067,583.39683" id="path567"/>
      <path style="font-variation-settings:'wdth' 70,'wght' 600;fill:none;stroke:#bec3c6;stroke-width:35;stroke-linecap:butt;stroke-dasharray:none;stroke-opacity:1" d="m 1985.5259,1753.3179 -347.5257,-20.8175" id="path568"/>
      <path style="font-variation-settings:'wdth' 70,'wght' 600;fill:none;stroke:#bec3c6;stroke-width:35;stroke-linecap:butt;stroke-dasharray:none;stroke-opacity:1" d="M 2048.929,694.87388 H 1222.4543" id="path569"/>
      <path style="font-variation-settings:'wdth' 70,'wght' 600;fill:none;stroke:#bec3c6;stroke-width:35;stroke-linecap:butt;stroke-dasharray:none;stroke-opacity:1" d="m 1610.9596,1257.8796 h 46.7394" id="path579"/>
      <path style="font-variation-settings:'wdth' 70,'wght' 600;fill:none;stroke:#bec3c6;stroke-width:35;stroke-linecap:butt;stroke-dasharray:none;stroke-opacity:1" d="m 1325.819,1257.8796 v 568.2666" id="path580"/>
      <path style="font-variation-settings:'wdth' 70,'wght' 600;fill:none;stroke:#bec3c6;stroke-width:35;stroke-linecap:butt;stroke-dasharray:none;stroke-opacity:1" d="M 718.12261,-3428.1042 H 103.81119" id="path670"/>
      <path style="font-variation-settings:'wdth' 70,'wght' 600;fill:none;stroke:#bec3c6;stroke-width:35;stroke-linecap:butt;stroke-dasharray:none;stroke-opacity:1" d="m 847.11401,-3288.5933 v 39.6005 h 95.14282 v 193.0695 H 103.81119" id="path673"/>
      <path style="font-variation-settings:'wdth' 70,'wght' 600;fill:none;stroke:#bec3c6;stroke-width:35;stroke-linecap:butt;stroke-dasharray:none;stroke-opacity:1" d="m 847.11401,-3677.4929 v 39.6005 h 95.14282 v 209.7882 h -124.1342" id="path674"/>
      <path style="font-variation-settings:'wdth' 70,'wght' 600;fill:none;stroke:#bec3c6;stroke-width:35;stroke-linecap:butt;stroke-dasharray:none;stroke-opacity:1" d="m 847.11401,-3055.9233 v 37.2554" id="path675"/>
      <path style="font-variation-settings:'wdth' 70,'wght' 600;fill:none;stroke:#bec3c6;stroke-width:35;stroke-linecap:butt;stroke-dasharray:none;stroke-opacity:1" d="m 847.11401,-2537.0587 v -148.9048" id="path676"/>
      <path style="font-variation-settings:'wdth' 70,'wght' 600;fill:none;stroke:#bec3c6;stroke-width:35;stroke-linecap:butt;stroke-dasharray:none;stroke-opacity:1" d="m 847.11401,-399.89865 v 60.9837" id="path677"/>
      <path style="font-variation-settings:'wdth' 70,'wght' 600;fill:none;stroke:#bec3c6;stroke-width:35;stroke-linecap:butt;stroke-dasharray:none;stroke-opacity:1" d="m 847.11401,-917.384 v 42.5949 h 95.14282 v 325.81065 h -95.14282 v 44.7338" id="path678"/>
      <path style="font-variation-settings:'wdth' 70,'wght' 600;fill:none;stroke:#bec3c6;stroke-width:35;stroke-linecap:butt;stroke-dasharray:none;stroke-opacity:1" d="m 477.8111,-735.12815 v 230.8704" id="path679"/>
      <path style="font-variation-settings:'wdth' 70,'wght' 600;fill:none;stroke:#bec3c6;stroke-width:35;stroke-linecap:butt;stroke-dasharray:none;stroke-opacity:1" d="M 1222.4543,892.87956 V 847.72701" id="path680"/>
      <path style="font-variation-settings:'wdth' 70,'wght' 600;fill:none;stroke:#bec3c6;stroke-width:35;stroke-linecap:butt;stroke-dasharray:none;stroke-opacity:1" d="M 1222.4543,969.87957 V 942.72702" id="path681"/>
      <path style="font-variation-settings:'wdth' 70,'wght' 600;fill:none;stroke:#bec3c6;stroke-width:35;stroke-linecap:butt;stroke-dasharray:none;stroke-opacity:1" d="M 249.37594,245.44833 H 103.81119" id="path682"/>
      <path style="font-variation-settings:'wdth' 70,'wght' 600;fill:none;stroke:#bec3c6;stroke-width:35;stroke-linecap:butt;stroke-dasharray:none;stroke-opacity:1" d="M 942.25683,245.44833 H 349.37596" id="path683"/>
    </g>
    <g id="icons_1" transform="matrix(0.02439371,0,0,0.02439371,-0.02443957,51.489201)" style="display:inline">
      <g id="g639" style="display:inline" transform="matrix(0.98394638,0,0,0.98394638,-1330.9429,2765.8861)">
        <rect style="font-variation-settings:'wdth' 70,'wght' 600;fill:none;fill-opacity:1;stroke:#d6d7de;stroke-width:4.78791;stroke-linejoin:miter;stroke-dasharray:none;stroke-opacity:1" id="rect638" width="95.212135" height="95.212151" x="2405.0667" y="979.80487" ry="9.1410179"/>
        <path d="m 2427.7505,1062.6135 h 12.6169 v -23.8318 h 6.2306 v -17.757 c 0,-2.6337 -0.8992,-4.8497 -2.6976,-6.6481 -1.7985,-1.7985 -4.0665,-2.6977 -6.804,-2.6977 h -6.2306 c -2.7375,0 -4.9794,0.8992 -6.7258,2.6977 -1.7466,1.7984 -2.6199,4.0144 -2.6199,6.6481 v 17.757 h 6.2304 z m 6.1958,-54.9845 c 2.1478,0 3.9626,-0.7033 5.4445,-2.1098 1.4819,-1.4064 2.2228,-3.2356 2.2228,-5.4875 0,-2.148 -0.7292,-3.93697 -2.1877,-5.3669 -1.4583,-1.42987 -3.2615,-2.1448 -5.4096,-2.1448 -2.1481,0 -3.937,0.70327 -5.3669,2.1098 -1.4299,1.4064 -2.1449,3.18367 -2.1449,5.3318 0,2.2518 0.7033,4.0926 2.11,5.5225 1.4064,1.4299 3.1837,2.1449 5.3318,2.1449 z m 28.3838,9.9689 h 20.0934 l -9.9688,-16.1994 z m 10.1246,35.6697 9.9688,-16.1993 h -20.0934 z" id="path638" style="fill:#d5d6dd;fill-opacity:1;stroke-width:0;stroke-dasharray:none"/>
      </g>
      <path d="m 1125.4887,9492.0137 v -31.8653 h -10.1036 v -32.2539 q 0,-3.5621 2.5583,-6.1204 2.5583,-2.5583 6.1205,-2.5583 h 19.9482 q 3.5621,0 6.1204,2.5583 2.5583,2.5583 2.5583,6.1204 v 32.2539 h -10.1036 v 31.8653 z m 8.5596,-82.6425 q -3.6891,0 -6.1891,-2.5544 -2.5,-2.5545 -2.5,-6.114 0,-3.6891 2.4896,-6.1891 2.4899,-2.5 6.1788,-2.5 3.6891,0 6.1891,2.4896 2.5,2.4898 2.5,6.1788 0,3.5596 -2.4896,6.1244 -2.4897,2.5647 -6.1788,2.5647 z" id="path642" style="display:inline;fill:#fff;fill-opacity:.798742;stroke-width:.129534"/>
      <path d="m 1482.6916,9492.0137 v -30.052 h -14.7668 l 14.2098,-39.446 q 1.121,-2.898 3.8366,-4.588 2.7155,-1.691 5.7878,-1.691 3.0723,0 5.7878,1.691 2.7156,1.69 3.8542,4.577 l 14.1922,39.457 h -14.7668 v 30.052 z m 9.0778,-82.642 q -3.6892,0 -6.1892,-2.551 -2.5,-2.5502 -2.5,-6.1178 0,-3.6891 2.4897,-6.1891 2.4899,-2.5 6.1787,-2.5 3.6892,0 6.1892,2.4896 2.5,2.4898 2.5,6.114 0,3.6244 -2.4897,6.1893 -2.4896,2.565 -6.1787,2.565 z" id="path643" style="display:inline;fill:#fff;fill-opacity:.803459;stroke-width:.129534"/>
    </g>
    <path id="path780" d="m 425.59669,155.26188 q -9.792,0 -15.84,-8.16 -5.952,-8.16 -5.952,-23.712 0,-15.648 5.952,-23.52 6.048,-7.872 15.84,-7.872 9.792,0 15.744,7.968 6.048,7.872 6.048,23.424 0,15.552 -6.048,23.712 -5.952,8.16 -15.744,8.16 z m 0,-10.944 q 2.4,0 4.32,-1.728 1.92,-1.824 2.976,-6.336 1.152,-4.608 1.152,-12.864 0,-8.352 -1.152,-12.768 -1.056,-4.416 -2.976,-6.048 -1.92,-1.632 -4.32,-1.632 -2.4,0 -4.32,1.632 -1.92,1.632 -3.072,6.048 -1.056,4.416 -1.056,12.768 0,8.256 1.056,12.864 1.152,4.512 3.072,6.336 1.92,1.728 4.32,1.728 z m 50.59198,10.944 q -6.048,0 -10.944,-2.112 -4.8,-2.112 -7.584,-5.856 -2.688,-3.84 -2.688,-8.736 0,-3.744 1.344,-6.432 1.44,-2.784 3.744,-4.896 2.4,-2.112 5.28,-3.648 v -0.384 q -3.456,-2.688 -5.856,-6.144 -2.304,-3.456 -2.304,-8.256 0,-5.184 2.496,-8.928 2.496,-3.84 6.912,-5.856 4.416,-2.016 10.08,-2.016 8.448,0 13.44,4.608 5.088,4.512 5.088,12.096 0,2.88 -1.152,5.472 -1.056,2.496 -2.88,4.512 -1.824,1.92 -3.936,3.36 v 0.384 q 2.88,1.536 5.28,3.744 2.4,2.112 3.84,5.184 1.44,2.976 1.44,7.008 0,4.8 -2.688,8.64 -2.688,3.744 -7.584,6.048 -4.8,2.208 -11.328,2.208 z m 3.84,-36.672 q 1.824,-2.112 2.784,-4.32 0.96,-2.208 0.96,-4.608 0,-2.4 -0.864,-4.128 -0.864,-1.728 -2.592,-2.688 -1.632,-1.056 -3.936,-1.056 -2.784,0 -4.8,1.824 -2.016,1.728 -2.016,5.184 0,2.496 1.344,4.224 1.344,1.728 3.648,3.072 2.4,1.344 5.472,2.496 z m -3.552,26.88 q 2.304,0 4.128,-0.768 1.92,-0.864 2.976,-2.496 1.056,-1.728 1.056,-4.32 0,-2.688 -1.632,-4.416 -1.536,-1.824 -4.512,-3.168 -2.88,-1.44 -6.72,-3.072 -2.016,1.824 -3.36,4.416 -1.344,2.496 -1.344,5.28 0,2.688 1.248,4.608 1.344,1.92 3.456,2.976 2.208,0.96 4.704,0.96 z m -100.99199,-111.36 v -62.592 h 39.456 v 11.904 h -25.344 v 14.4959997 h 21.696 v 11.904 h -21.696 V 34.10988 Z m 74.784,1.152 q -8.448,0 -14.88,-3.936 -6.336,-3.936 -9.984,-11.232 -3.552,-7.296 -3.552,-17.5680003 0,-10.176 3.552,-17.3759997 3.648,-7.2 9.984,-10.944 6.432,-3.84 14.88,-3.84 8.448,0 14.88,3.84 6.432,3.744 9.984,10.944 3.552,7.1999997 3.552,17.3759997 0,10.2720003 -3.552,17.5680003 -3.552,7.296 -9.984,11.232 -6.432,3.936 -14.88,3.936 z m 0,-12.192 q 4.32,0 7.392,-2.496 3.168,-2.592 4.8,-7.2 1.728,-4.6080003 1.728,-10.8480003 0,-6.24 -1.728,-10.656 -1.632,-4.5119997 -4.8,-6.8159997 -3.072,-2.4 -7.392,-2.4 -4.224,0 -7.392,2.4 -3.168,2.304 -4.896,6.8159997 -1.632,4.416 -1.632,10.656 0,6.24 1.632,10.8480003 1.728,4.608 4.896,7.2 3.168,2.496 7.392,2.496 z m -10.656,-56.16 q -2.88,0 -4.8,-1.92 -1.92,-1.92 -1.92,-4.8 0,-2.88 1.92,-4.8 1.92,-1.92 4.8,-1.92 2.976,0 4.8,1.92 1.92,1.92 1.92,4.8 0,2.88 -1.92,4.8 -1.824,1.92 -4.8,1.92 z m 21.312,0 q -2.88,0 -4.8,-1.92 -1.92,-1.92 -1.92,-4.8 0,-2.88 1.92,-4.8 1.92,-1.92 4.8,-1.92 2.976,0 4.8,1.92 1.92,1.92 1.92,4.8 0,2.88 -1.92,4.8 -1.824,1.92 -4.8,1.92 z m -104.63998,187.2 v -11.424 h 13.248 v -35.232 h -11.424 v -8.736 q 4.992,-0.96 8.448,-2.304 3.552,-1.344 6.72,-3.264 h 10.368 v 49.536 h 11.424 v 11.424 z m -304.68792,1.15197 q -9.792,0 -15.84,-8.16 -5.952,-8.16 -5.952,-23.712 0,-15.648 5.952,-23.52 6.048,-7.872 15.84,-7.872 9.792,0 15.744,7.968 6.048,7.872 6.048,23.424 0,15.552 -6.048,23.712 -5.952,8.16 -15.744,8.16 z m 0,-10.944 q 2.4,0 4.32,-1.728 1.92,-1.824 2.976,-6.336 1.152,-4.608 1.152,-12.864 0,-8.352 -1.152,-12.768 -1.056,-4.416 -2.976,-6.048 -1.92,-1.632 -4.32,-1.632 -2.4,0 -4.32,1.632 -1.92,1.632 -3.072,6.048 -1.056,4.416 -1.056,12.768 0,8.256 1.056,12.864 1.152,4.512 3.072,6.336 1.92,1.728 4.32,1.728 z m 39.74398,9.792 q 0.48,-7.584 1.536,-13.92 1.056,-6.432 2.976,-12.192 2.016,-5.76 5.088,-11.328 3.072,-5.568 7.584,-11.616 h -27.36 v -11.904 h 42.432 v 8.64 q -5.376,6.528 -8.832,12.192 -3.36,5.664 -5.184,11.52 -1.824,5.856 -2.688,12.768 -0.864,6.912 -1.344,15.84 z m -89.85599,-120 v -62.592 h 39.456 v 11.904 h -25.344 v 14.4959997 h 21.696 v 11.904 h -21.696 V 34.10985 Z m 74.784,1.152 q -8.448,0 -14.88,-3.936 -6.336,-3.936 -9.984,-11.232 -3.552,-7.296 -3.552,-17.5680003 0,-10.176 3.552,-17.3759997 3.648,-7.2 9.984,-10.944 6.432,-3.84 14.88,-3.84 8.448,0 14.88,3.84 6.432,3.744 9.984,10.944 3.552,7.1999997 3.552,17.3759997 0,10.2720003 -3.552,17.5680003 -3.552,7.296 -9.984,11.232 -6.432,3.936 -14.88,3.936 z m 0,-12.192 q 4.32,0 7.392,-2.496 3.168,-2.592 4.8,-7.2 1.728,-4.6080003 1.728,-10.8480003 0,-6.24 -1.728,-10.656 -1.632,-4.5119997 -4.8,-6.8159997 -3.072,-2.4 -7.392,-2.4 -4.224,0 -7.392,2.4 -3.168,2.304 -4.896,6.8159997 -1.632,4.416 -1.632,10.656 0,6.24 1.632,10.8480003 1.728,4.608 4.896,7.2 3.168,2.496 7.392,2.496 z m -10.656,-56.16 q -2.88,0 -4.8,-1.92 -1.92,-1.92 -1.92,-4.8 0,-2.88 1.92,-4.8 1.92,-1.92 4.8,-1.92 2.976,0 4.8,1.92 1.92,1.92 1.92,4.8 0,2.88 -1.92,4.8 -1.824,1.92 -4.8,1.92 z m 21.312,0 q -2.88,0 -4.8,-1.92 -1.92,-1.92 -1.92,-4.8 0,-2.88 1.92,-4.8 1.92,-1.92 4.8,-1.92 2.976,0 4.8,1.92 1.92,1.92 1.92,4.8 0,2.88 -1.92,4.8 -1.824,1.92 -4.8,1.92 z m -104.63998,187.2 v -11.424 h 13.248 v -35.232 h -11.424 v -8.736 q 4.992,-0.96 8.448,-2.304 3.552,-1.344 6.72,-3.264 h 10.368 v 49.536 h 11.424 v 11.424 z M 134.1042,-475.16986 v -125.184 h 78.912 v 23.808 h -50.688 v 28.992 h 43.392 v 23.808 h -43.392 v 48.576 z m 149.56799,2.304 q -16.896,0 -29.76,-7.872 -12.672,-7.872 -19.968,-22.464 -7.104,-14.592 -7.104,-35.136 0,-20.352 7.104,-34.752 7.296,-14.4 19.968,-21.888 12.864,-7.68 29.76,-7.68 16.896,0 29.76,7.68 12.864,7.488 19.968,21.888 7.104,14.4 7.104,34.752 0,20.544 -7.104,35.136 -7.104,14.592 -19.968,22.464 -12.864,7.872 -29.76,7.872 z m 0,-24.384 q 8.64,0 14.784,-4.992 6.336,-5.184 9.6,-14.4 3.456,-9.216 3.456,-21.696 0,-12.48 -3.456,-21.312 -3.264,-9.024 -9.6,-13.632 -6.144,-4.8 -14.784,-4.8 -8.448,0 -14.784,4.8 -6.336,4.608 -9.792,13.632 -3.264,8.832 -3.264,21.312 0,12.48 3.264,21.696 3.456,9.216 9.792,14.4 6.336,4.992 14.784,4.992 z m -21.312,-112.32 q -5.76,0 -9.6,-3.84 -3.84,-3.84 -3.84,-9.6 0,-5.76 3.84,-9.6 3.84,-3.84 9.6,-3.84 5.952,0 9.6,3.84 3.84,3.84 3.84,9.6 0,5.76 -3.84,9.6 -3.648,3.84 -9.6,3.84 z m 42.624,0 q -5.76,0 -9.6,-3.84 -3.84,-3.84 -3.84,-9.6 0,-5.76 3.84,-9.6 3.84,-3.84 9.6,-3.84 5.952,0 9.6,3.84 3.84,3.84 3.84,9.6 0,5.76 -3.84,9.6 -3.648,3.84 -9.6,3.84 z m -209.279956,374.4 v -22.848 h 26.495996 v -70.464 H 99.352234 v -17.472 q 9.983996,-1.92 16.895996,-4.608 7.104,-2.688 13.44,-6.528 h 20.736 v 99.072 h 22.848 v 22.848 z m 138.623976,2.304 q -19.584,0 -31.68,-16.32 -11.904,-16.32 -11.904,-47.424 0,-31.296 11.904,-47.04 12.096,-15.744 31.68,-15.744 19.584,0 31.488,15.936 12.096,15.744 12.096,46.848 0,31.104 -12.096,47.424 -11.904,16.32 -31.488,16.32 z m 0,-21.888 q 4.8,0 8.64,-3.456 3.84,-3.648 5.952,-12.672 2.304,-9.216 2.304,-25.728 0,-16.704 -2.304,-25.536 -2.112,-8.832 -5.952,-12.096 -3.84,-3.264 -8.64,-3.264 -4.8,0 -8.64,3.264 -3.84,3.264 -6.144,12.096 -2.112,8.832 -2.112,25.536 0,16.512 2.112,25.728 2.304,9.024 6.144,12.672 3.84,3.456 8.64,3.456 z m 104.63998,21.888 q -8.832,0 -17.088,-3.456 -8.256,-3.456 -14.784,-10.752 -6.528,-7.296 -10.368,-18.624 -3.84,-11.52 -3.84,-27.648 0,-17.088 4.032,-29.568 4.032,-12.48 10.944,-20.544 6.912,-8.064 15.744,-11.904 8.832,-4.032 18.624,-4.032 12.096,0 20.928,4.416 8.832,4.224 14.592,10.176 l -14.784,16.896 q -3.264,-3.456 -8.448,-5.952 -5.184,-2.688 -10.56,-2.688 -6.912,0 -12.864,4.032 -5.76,4.032 -9.216,13.632 -3.264,9.408 -3.264,25.536 0,15.168 2.688,23.808 2.88,8.448 7.488,12.096 4.608,3.456 9.6,3.456 4.224,0 7.68,-2.112 3.456,-2.112 5.568,-6.336 2.112,-4.416 2.112,-11.328 0,-6.528 -2.112,-10.368 -2.112,-3.84 -5.76,-5.568 -3.456,-1.728 -8.064,-1.728 -4.8,0 -9.984,2.88 -4.992,2.88 -9.024,10.176 l -1.344,-18.432 q 4.8,-7.104 12.288,-10.752 7.488,-3.84 13.44,-3.84 10.368,0 18.624,4.032 8.256,4.032 12.864,12.48 4.8,8.256 4.8,21.12 0,12.672 -5.568,21.888 -5.376,9.216 -14.592,14.208 -9.216,4.8 -20.352,4.8 z M 135.2562,-1143.1141 v -125.184 h 78.912 v 23.808 h -50.688 v 28.992 h 43.392 v 23.808 h -43.392 v 48.576 z m 149.56799,2.304 q -16.896,0 -29.76,-7.872 -12.672,-7.872 -19.968,-22.464 -7.104,-14.592 -7.104,-35.136 0,-20.352 7.104,-34.752 7.296,-14.4 19.968,-21.888 12.864,-7.68 29.76,-7.68 16.896,0 29.76,7.68 12.864,7.488 19.968,21.888 7.104,14.4 7.104,34.752 0,20.544 -7.104,35.136 -7.104,14.592 -19.968,22.464 -12.864,7.872 -29.76,7.872 z m 0,-24.384 q 8.64,0 14.784,-4.992 6.336,-5.184 9.6,-14.4 3.456,-9.216 3.456,-21.696 0,-12.48 -3.456,-21.312 -3.264,-9.024 -9.6,-13.632 -6.144,-4.8 -14.784,-4.8 -8.448,0 -14.784,4.8 -6.336,4.608 -9.792,13.632 -3.264,8.832 -3.264,21.312 0,12.48 3.264,21.696 3.456,9.216 9.792,14.4 6.336,4.992 14.784,4.992 z m -21.312,-112.32 q -5.76,0 -9.6,-3.84 -3.84,-3.84 -3.84,-9.6 0,-5.76 3.84,-9.6 3.84,-3.84 9.6,-3.84 5.952,0 9.6,3.84 3.84,3.84 3.84,9.6 0,5.76 -3.84,9.6 -3.648,3.84 -9.6,3.84 z m 42.624,0 q -5.76,0 -9.6,-3.84 -3.84,-3.84 -3.84,-9.6 0,-5.76 3.84,-9.6 3.84,-3.84 9.6,-3.84 5.952,0 9.6,3.84 3.84,3.84 3.84,9.6 0,5.76 -3.84,9.6 -3.648,3.84 -9.6,3.84 z M 96.856234,-903.11405 v -22.848 h 26.495996 v -70.464 h -22.848 v -17.47195 q 9.984,-1.9201 16.896,-4.6081 7.104,-2.688 13.44,-6.528 h 20.736 v 99.07205 h 22.848 v 22.848 z m 138.623976,2.304 q -19.584,0 -31.68,-16.32 -11.904,-16.32 -11.904,-47.424 0,-31.296 11.904,-47.04005 12.096,-15.744 31.68,-15.744 19.584,0 31.488,15.936 12.096,15.74405 12.096,46.84805 0,31.104 -12.096,47.424 -11.904,16.32 -31.488,16.32 z m 0,-21.888 q 4.8,0 8.64,-3.456 3.84,-3.648 5.952,-12.672 2.304,-9.216 2.304,-25.728 0,-16.704 -2.304,-25.536 -2.112,-8.832 -5.952,-12.09605 -3.84,-3.264 -8.64,-3.264 -4.8,0 -8.64,3.264 -3.84,3.26405 -6.144,12.09605 -2.112,8.832 -2.112,25.536 0,16.512 2.112,25.728 2.304,9.024 6.144,12.672 3.84,3.456 8.64,3.456 z m 98.11198,21.888 q -9.984,0 -18.048,-2.304 -7.872,-2.304 -14.016,-6.144 -6.144,-3.84 -10.944,-8.64 l 12.672,-17.856 q 5.568,4.992 12.096,8.64 6.528,3.456 14.208,3.456 6.144,0 10.752,-2.112 4.608,-2.304 7.104,-6.528 2.688,-4.224 2.688,-10.368 0,-9.216 -5.376,-14.016 -5.376,-4.8 -13.824,-4.8 -5.184,0 -8.832,1.344 -3.648,1.344 -9.216,4.8 l -12.672,-8.064 3.456,-61.63205 h 69.12 v 23.808 h -44.736 l -2.112,22.84805 q 3.648,-1.536 6.72,-2.112 3.072,-0.768 6.912,-0.768 10.56,0 19.392,4.032 8.832,4.032 14.016,12.48 5.376,8.448 5.376,21.312 0,13.632 -6.336,23.232 -6.144,9.408 -16.32,14.4 -10.176,4.992 -22.08,4.992 z M 284.15564,-2163.2502 q -9.792,0 -15.84,-8.16 -5.952,-8.16 -5.952,-23.712 0,-15.648 5.952,-23.52 6.048,-7.872 15.84,-7.872 9.792,0 15.744,7.968 6.048,7.872 6.048,23.424 0,15.552 -6.048,23.712 -5.952,8.16 -15.744,8.16 z m 0,-10.944 q 2.4,0 4.32,-1.728 1.92,-1.824 2.976,-6.336 1.152,-4.608 1.152,-12.864 0,-8.352 -1.152,-12.768 -1.056,-4.416 -2.976,-6.048 -1.92,-1.632 -4.32,-1.632 -2.4,0 -4.32,1.632 -1.92,1.632 -3.072,6.048 -1.056,4.416 -1.056,12.768 0,8.256 1.056,12.864 1.152,4.512 3.072,6.336 1.92,1.728 4.32,1.728 z m 48.67198,10.944 q -4.896,0 -8.928,-1.152 -3.936,-1.056 -7.008,-2.976 -3.072,-1.92 -5.28,-4.512 l 6.528,-8.928 q 2.784,2.688 6.144,4.416 3.36,1.728 7.2,1.728 4.416,0 7.104,-1.824 2.784,-1.92 2.784,-5.376 0,-2.688 -1.344,-4.608 -1.344,-2.016 -4.896,-3.072 -3.456,-1.056 -10.176,-1.056 v -9.984 q 5.472,0 8.64,-1.056 3.168,-1.056 4.416,-2.88 1.344,-1.824 1.344,-4.224 0,-3.264 -2.016,-4.992 -1.92,-1.728 -5.472,-1.728 -3.264,0 -5.952,1.44 -2.592,1.344 -5.472,3.936 l -7.104,-8.64 q 4.224,-3.648 8.928,-5.664 4.704,-2.112 10.272,-2.112 6.24,0 10.944,2.016 4.8,1.92 7.392,5.664 2.688,3.648 2.688,9.024 0,4.704 -2.688,8.064 -2.592,3.36 -7.488,5.472 v 0.384 q 3.456,1.056 6.24,3.072 2.784,1.92 4.32,4.896 1.536,2.976 1.536,6.912 0,5.664 -3.168,9.696 -3.072,3.936 -8.256,6.048 -5.088,2.016 -11.232,2.016 z m -98.78399,-121.152 v -62.592 h 39.456 v 11.904 h -25.344 v 14.496 h 21.696 v 11.904 h -21.696 v 24.288 z m 74.784,1.152 q -8.448,0 -14.88,-3.936 -6.336,-3.936 -9.984,-11.232 -3.552,-7.296 -3.552,-17.568 0,-10.176 3.552,-17.376 3.648,-7.2 9.984,-10.944 6.432,-3.84 14.88,-3.84 8.448,0 14.88,3.84 6.432,3.744 9.984,10.944 3.552,7.2 3.552,17.376 0,10.272 -3.552,17.568 -3.552,7.296 -9.984,11.232 -6.432,3.936 -14.88,3.936 z m 0,-12.192 q 4.32,0 7.392,-2.496 3.168,-2.592 4.8,-7.2 1.728,-4.608 1.728,-10.848 0,-6.24 -1.728,-10.656 -1.632,-4.512 -4.8,-6.816 -3.072,-2.4 -7.392,-2.4 -4.224,0 -7.392,2.4 -3.168,2.304 -4.896,6.816 -1.632,4.416 -1.632,10.656 0,6.24 1.632,10.848 1.728,4.608 4.896,7.2 3.168,2.496 7.392,2.496 z m -10.656,-56.16 q -2.88,0 -4.8,-1.92 -1.92,-1.92 -1.92,-4.8 0,-2.88 1.92,-4.8 1.92,-1.92 4.8,-1.92 2.976,0 4.8,1.92 1.92,1.92 1.92,4.8 0,2.88 -1.92,4.8 -1.824,1.92 -4.8,1.92 z m 21.312,0 q -2.88,0 -4.8,-1.92 -1.92,-1.92 -1.92,-4.8 0,-2.88 1.92,-4.8 1.92,-1.92 4.8,-1.92 2.976,0 4.8,1.92 1.92,1.92 1.92,4.8 0,2.88 -1.92,4.8 -1.824,1.92 -4.8,1.92 z m -104.63998,187.2 v -11.424 h 13.248 v -35.232 h -11.424 v -8.736 q 4.992,-0.96 8.448,-2.304 3.552,-1.344 6.72,-3.264 h 10.368 v 49.536 h 11.424 v 11.424 z m 69.072,-369.9183 q -9.792,0 -15.84,-8.16 -5.952,-8.16 -5.952,-23.712 0,-15.648 5.952,-23.52 6.048,-7.872 15.84,-7.872 9.792,0 15.744,7.968 6.048,7.872 6.048,23.424 0,15.552 -6.048,23.712 -5.952,8.16 -15.744,8.16 z m 0,-10.944 q 2.4,0 4.32,-1.728 1.92,-1.824 2.976,-6.336 1.152,-4.608 1.152,-12.864 0,-8.352 -1.152,-12.768 -1.056,-4.416 -2.976,-6.048 -1.92,-1.632 -4.32,-1.632 -2.4,0 -4.32,1.632 -1.92,1.632 -3.072,6.048 -1.056,4.416 -1.056,12.768 0,8.256 1.056,12.864 1.152,4.512 3.072,6.336 1.92,1.728 4.32,1.728 z m 28.89598,9.792 v -8.736 q 7.68,-6.816 13.632,-12.768 6.048,-5.952 9.408,-11.04 3.456,-5.088 3.456,-9.312 0,-4.512 -2.304,-6.816 -2.304,-2.4 -6.336,-2.4 -3.264,0 -5.952,1.92 -2.592,1.824 -4.896,4.32 l -7.392,-7.296 q 4.416,-4.992 9.024,-7.488 4.704,-2.496 11.136,-2.496 5.952,0 10.464,2.4 4.608,2.4 7.104,6.72 2.592,4.32 2.592,10.176 0,5.472 -2.976,10.752 -2.88,5.184 -7.68,10.368 -4.8,5.184 -10.176,10.56 2.304,-0.288 5.184,-0.48 2.88,-0.288 4.992,-0.288 h 13.632 v 11.904 z m -79.00799,-120 v -62.592 h 39.456 v 11.904 h -25.344 v 14.496 h 21.696 v 11.904 h -21.696 v 24.288 z m 74.784,1.152 q -8.448,0 -14.88,-3.936 -6.336,-3.936 -9.984,-11.232 -3.552,-7.296 -3.552,-17.568 0,-10.176 3.552,-17.376 3.648,-7.2 9.984,-10.944 6.432,-3.84 14.88,-3.84 8.448,0 14.88,3.84 6.432,3.744 9.984,10.944 3.552,7.2 3.552,17.376 0,10.272 -3.552,17.568 -3.552,7.296 -9.984,11.232 -6.432,3.936 -14.88,3.936 z m 0,-12.192 q 4.32,0 7.392,-2.496 3.168,-2.592 4.8,-7.2 1.728,-4.608 1.728,-10.848 0,-6.24 -1.728,-10.656 -1.632,-4.512 -4.8,-6.816 -3.072,-2.4 -7.392,-2.4 -4.224,0 -7.392,2.4 -3.168,2.304 -4.896,6.816 -1.632,4.416 -1.632,10.656 0,6.24 1.632,10.848 1.728,4.608 4.896,7.2 3.168,2.496 7.392,2.496 z m -10.656,-56.16 q -2.88,0 -4.8,-1.92 -1.92,-1.92 -1.92,-4.8 0,-2.88 1.92,-4.8 1.92,-1.92 4.8,-1.92 2.976,0 4.8,1.92 1.92,1.92 1.92,4.8 0,2.88 -1.92,4.8 -1.824,1.92 -4.8,1.92 z m 21.312,0 q -2.88,0 -4.8,-1.92 -1.92,-1.92 -1.92,-4.8 0,-2.88 1.92,-4.8 1.92,-1.92 4.8,-1.92 2.976,0 4.8,1.92 1.92,1.92 1.92,4.8 0,2.88 -1.92,4.8 -1.824,1.92 -4.8,1.92 z m -104.63998,187.2 v -11.424 h 13.248 v -35.232 h -11.424 v -8.736 q 4.992,-0.96 8.448,-2.304 3.552,-1.344 6.72,-3.264 h 10.368 v 49.536 h 11.424 v 11.424 z m 937.17564,297.9628 v -41.728 h 26.304 v 7.936 h -16.896 v 9.664 h 14.464 v 7.936 h -14.464 v 16.192 z m 49.856,0.768 q -5.632,0 -9.92,-2.624 -4.224,-2.624 -6.656,-7.488 -2.368,-4.864 -2.368,-11.712 0,-6.784 2.368,-11.584 2.432,-4.8 6.656,-7.296 4.288,-2.56 9.92,-2.56 5.632,0 9.92,2.56 4.288,2.496 6.656,7.296 2.368,4.8 2.368,11.584 0,6.848 -2.368,11.712 -2.368,4.864 -6.656,7.488 -4.288,2.624 -9.92,2.624 z m 0,-8.128 q 2.88,0 4.928,-1.664 2.112,-1.728 3.2,-4.8 1.152,-3.072 1.152,-7.232 0,-4.16 -1.152,-7.104 -1.088,-3.008 -3.2,-4.544 -2.048,-1.6 -4.928,-1.6 -2.816,0 -4.928,1.6 -2.112,1.536 -3.264,4.544 -1.088,2.944 -1.088,7.104 0,4.16 1.088,7.232 1.152,3.072 3.264,4.8 2.112,1.664 4.928,1.664 z m -7.104,-37.44 q -1.92,0 -3.2,-1.28 -1.28,-1.28 -1.28,-3.2 0,-1.92 1.28,-3.2 1.28,-1.28 3.2,-1.28 1.984,0 3.2,1.28 1.28,1.28 1.28,3.2 0,1.92 -1.28,3.2 -1.216,1.28 -3.2,1.28 z m 14.208,0 q -1.92,0 -3.2,-1.28 -1.28,-1.28 -1.28,-3.2 0,-1.92 1.28,-3.2 1.28,-1.28 3.2,-1.28 1.984,0 3.2,1.28 1.28,1.28 1.28,3.2 0,1.92 -1.28,3.2 -1.216,1.28 -3.2,1.28 z m -69.76,124.8 v -7.616 h 8.832 v -23.488 h -7.616 v -5.824 q 3.328,-0.64 5.632,-1.536 2.368,-0.896 4.48,-2.176 h 6.912 v 33.024 h 7.616 v 7.616 z m 33.792,0 v -7.616 h 8.832 v -23.488 h -7.616 v -5.824 q 3.328,-0.64 5.632,-1.536 2.368,-0.896 4.48,-2.176 h 6.912 v 33.024 h 7.616 v 7.616 z m 33.792,0 v -7.616 h 8.832 v -23.488 h -7.616 v -5.824 q 3.328,-0.64 5.632,-1.536 2.368,-0.896 4.48,-2.176 h 6.912 v 33.024 h 7.616 v 7.616 z M 1100.1916,1379.584 v -31.296 h 19.728 v 5.952 h -12.672 v 7.248 h 10.848 v 5.952 h -10.848 v 12.144 z m 37.392,0.576 q -4.224,0 -7.44,-1.968 -3.168,-1.968 -4.992,-5.616 -1.776,-3.648 -1.776,-8.784 0,-5.088 1.776,-8.688 1.824,-3.6 4.992,-5.472 3.216,-1.92 7.44,-1.92 4.224,0 7.44,1.92 3.216,1.872 4.992,5.472 1.776,3.6 1.776,8.688 0,5.136 -1.776,8.784 -1.776,3.648 -4.992,5.616 -3.216,1.968 -7.44,1.968 z m 0,-6.096 q 2.16,0 3.696,-1.248 1.584,-1.296 2.4,-3.6 0.864,-2.304 0.864,-5.424 0,-3.12 -0.864,-5.328 -0.816,-2.256 -2.4,-3.408 -1.536,-1.2 -3.696,-1.2 -2.112,0 -3.696,1.2 -1.584,1.152 -2.448,3.408 -0.816,2.208 -0.816,5.328 0,3.12 0.816,5.424 0.864,2.304 2.448,3.6 1.584,1.248 3.696,1.248 z m -5.328,-28.08 q -1.44,0 -2.4,-0.96 -0.96,-0.96 -0.96,-2.4 0,-1.44 0.96,-2.4 0.96,-0.96 2.4,-0.96 1.488,0 2.4,0.96 0.96,0.96 0.96,2.4 0,1.44 -0.96,2.4 -0.912,0.96 -2.4,0.96 z m 10.656,0 q -1.44,0 -2.4,-0.96 -0.96,-0.96 -0.96,-2.4 0,-1.44 0.96,-2.4 0.96,-0.96 2.4,-0.96 1.488,0 2.4,0.96 0.96,0.96 0.96,2.4 0,1.44 -0.96,2.4 -0.912,0.96 -2.4,0.96 z m -52.32,93.6 v -5.712 h 6.624 v -17.616 h -5.712 v -4.368 q 2.496,-0.48 4.224,-1.152 1.776,-0.672 3.36,-1.632 h 5.184 v 24.768 h 5.712 v 5.712 z m 25.344,0 v -5.712 h 6.624 v -17.616 h -5.712 v -4.368 q 2.496,-0.48 4.224,-1.152 1.776,-0.672 3.36,-1.632 h 5.184 v 24.768 h 5.712 v 5.712 z m 23.76,0 v -4.368 q 3.84,-3.408 6.816,-6.384 3.024,-2.976 4.704,-5.52 1.728,-2.544 1.728,-4.656 0,-2.256 -1.152,-3.408 -1.152,-1.2 -3.168,-1.2 -1.632,0 -2.976,0.96 -1.296,0.912 -2.448,2.16 l -3.696,-3.648 q 2.208,-2.496 4.512,-3.744 2.352,-1.248 5.568,-1.248 2.976,0 5.232,1.2 2.304,1.2 3.552,3.36 1.296,2.16 1.296,5.088 0,2.736 -1.488,5.376 -1.44,2.592 -3.84,5.184 -2.4,2.592 -5.088,5.28 1.152,-0.144 2.592,-0.24 1.44,-0.144 2.496,-0.144 h 6.816 v 5.952 z m -957.92397,5.8672 v -125.184 h 78.912 v 23.808 h -50.688 v 28.992 h 43.392 v 23.808 h -43.392 v 48.576 z m 149.56799,2.304 q -16.896,0 -29.76,-7.872 -12.672,-7.872 -19.968,-22.464 -7.104,-14.592 -7.104,-35.136 0,-20.352 7.104,-34.752 7.296,-14.4 19.968,-21.888 12.864,-7.68 29.76,-7.68 16.896,0 29.76,7.68 12.864,7.488 19.968,21.888 7.104,14.4 7.104,34.752 0,20.544 -7.104,35.136 -7.104,14.592 -19.968,22.464 -12.864,7.872 -29.76,7.872 z m 0,-24.384 q 8.64,0 14.784,-4.992 6.336,-5.184 9.6,-14.4 3.456,-9.216 3.456,-21.696 0,-12.48 -3.456,-21.312 -3.264,-9.024 -9.6,-13.632 -6.144,-4.8 -14.784,-4.8 -8.448,0 -14.784,4.8 -6.336,4.608 -9.792,13.632 -3.264,8.832 -3.264,21.312 0,12.48 3.264,21.696 3.456,9.216 9.792,14.4 6.336,4.992 14.784,4.992 z m -21.312,-112.32 q -5.76,0 -9.6,-3.84 -3.84,-3.84 -3.84,-9.6 0,-5.76 3.84,-9.6 3.84,-3.84 9.6,-3.84 5.952,0 9.6,3.84 3.84,3.84 3.84,9.6 0,5.76 -3.84,9.6 -3.648,3.84 -9.6,3.84 z m 42.624,0 q -5.76,0 -9.6,-3.84 -3.84,-3.84 -3.84,-9.6 0,-5.76 3.84,-9.6 3.84,-3.84 9.6,-3.84 5.952,0 9.6,3.84 3.84,3.84 3.84,9.6 0,5.76 -3.84,9.6 -3.648,3.84 -9.6,3.84 z m -209.27996,374.4 v -22.848 h 26.496 v -70.464 h -22.848 v -17.472 q 9.984,-1.92 16.896,-4.608 7.104,-2.688 13.44,-6.528 h 20.736 v 99.072 h 22.848 v 22.848 z m 101.37598,0 v -22.848 h 26.496 v -70.464 h -22.848 v -17.472 q 9.984,-1.92 16.896,-4.608 7.104,-2.688 13.44,-6.528 h 20.736 v 99.072 h 22.848 v 22.848 z m 138.62398,2.304 q -19.584,0 -31.68,-16.32 -11.904,-16.32 -11.904,-47.424 0,-31.296 11.904,-47.04 12.096,-15.744 31.68,-15.744 19.584,0 31.488,15.936 12.096,15.744 12.096,46.848 0,31.104 -12.096,47.424 -11.904,16.32 -31.488,16.32 z m 0,-21.888 q 4.8,0 8.64,-3.456 3.84,-3.648 5.952,-12.672 2.304,-9.216 2.304,-25.728 0,-16.704 -2.304,-25.536 -2.112,-8.832 -5.952,-12.096 -3.84,-3.264 -8.64,-3.264 -4.8,0 -8.64,3.264 -3.84,3.264 -6.144,12.096 -2.112,8.832 -2.112,25.536 0,16.512 2.112,25.728 2.304,9.024 6.144,12.672 3.84,3.456 8.64,3.456 z M 132.9522,-1812.2048 v -125.184 h 78.912 v 23.808 h -50.688 v 28.992 h 43.392 v 23.808 h -43.392 v 48.576 z m 149.56799,2.304 q -16.896,0 -29.76,-7.872 -12.672,-7.872 -19.968,-22.464 -7.104,-14.592 -7.104,-35.136 0,-20.352 7.104,-34.752 7.296,-14.4 19.968,-21.888 12.864,-7.68 29.76,-7.68 16.896,0 29.76,7.68 12.864,7.488 19.968,21.888 7.104,14.4 7.104,34.752 0,20.544 -7.104,35.136 -7.104,14.592 -19.968,22.464 -12.864,7.872 -29.76,7.872 z m 0,-24.384 q 8.64,0 14.784,-4.992 6.336,-5.184 9.6,-14.4 3.456,-9.216 3.456,-21.696 0,-12.48 -3.456,-21.312 -3.264,-9.024 -9.6,-13.632 -6.144,-4.8 -14.784,-4.8 -8.448,0 -14.784,4.8 -6.336,4.608 -9.792,13.632 -3.264,8.832 -3.264,21.312 0,12.48 3.264,21.696 3.456,9.216 9.792,14.4 6.336,4.992 14.784,4.992 z m -21.312,-112.32 q -5.76,0 -9.6,-3.84 -3.84,-3.84 -3.84,-9.6 0,-5.76 3.84,-9.6 3.84,-3.84 9.6,-3.84 5.952,0 9.6,3.84 3.84,3.84 3.84,9.6 0,5.76 -3.84,9.6 -3.648,3.84 -9.6,3.84 z m 42.624,0 q -5.76,0 -9.6,-3.84 -3.84,-3.84 -3.84,-9.6 0,-5.76 3.84,-9.6 3.84,-3.84 9.6,-3.84 5.952,0 9.6,3.84 3.84,3.84 3.84,9.6 0,5.76 -3.84,9.6 -3.648,3.84 -9.6,3.84 z m -209.279956,374.4001 v -22.8481 h 26.495996 v -70.464 H 98.200234 v -17.472 q 9.983996,-1.92 16.895996,-4.608 7.104,-2.688 13.44,-6.528 h 20.736 v 99.072 h 22.848 v 22.8481 z m 138.623976,2.3039 q -19.584,0 -31.68,-16.32 -11.904,-16.32 -11.904,-47.424 0,-31.296 11.904,-47.0399 12.096,-15.7441 31.68,-15.7441 19.584,0 31.488,15.9361 12.096,15.7439 12.096,46.8479 0,31.104 -12.096,47.424 -11.904,16.32 -31.488,16.32 z m 0,-21.888 q 4.8,0 8.64,-3.456 3.84,-3.648 5.952,-12.672 2.304,-9.216 2.304,-25.728 0,-16.704 -2.304,-25.536 -2.112,-8.832 -5.952,-12.096 -3.84,-3.264 -8.64,-3.264 -4.8,0 -8.64,3.264 -3.84,3.264 -6.144,12.096 -2.112,8.832 -2.112,25.536 0,16.512 2.112,25.728 2.304,9.024 6.144,12.672 3.84,3.456 8.64,3.456 z m 107.13598,19.5841 v -70.4641 q 0,-5.76 0.384,-13.6319 0.576,-7.8721 0.768,-13.6321 h -0.768 q -2.304,4.992 -4.8,10.176 -2.496,4.992 -5.184,10.368 l -16.128,26.496 h 66.048 v 21.504 h -93.12 v -19.3919 l 44.544,-73.3441 h 34.56 v 121.9201 z m -56.68455,-1474.8268 q -19.584,0 -31.68,-16.32 -11.904,-16.32 -11.904,-47.424 0,-31.296 11.904,-47.04 12.096,-15.744 31.68,-15.744 19.584,0 31.488,15.936 12.096,15.744 12.096,46.848 0,31.104 -12.096,47.424 -11.904,16.32 -31.488,16.32 z m 0,-21.888 q 4.8,0 8.64,-3.456 3.84,-3.648 5.952,-12.672 2.304,-9.216 2.304,-25.728 0,-16.704 -2.304,-25.536 -2.112,-8.832 -5.952,-12.096 -3.84,-3.264 -8.64,-3.264 -4.8,0 -8.64,3.264 -3.84,3.264 -6.144,12.096 -2.112,8.832 -2.112,25.536 0,16.512 2.112,25.728 2.304,9.024 6.144,12.672 3.84,3.456 8.64,3.456 z m 64.12798,19.584 v -22.848 h 26.496 v -70.464 h -22.848 v -17.472 q 9.984,-1.92 16.896,-4.608 7.104,-2.688 13.44,-6.528 h 20.736 v 99.072 h 22.848 v 22.848 z m -164.35199,-240 v -125.184 h 78.912 v 23.808 h -50.688 v 28.992 h 43.392 v 23.808 h -43.392 v 48.576 z m 149.56799,2.304 q -16.896,0 -29.76,-7.872 -12.672,-7.872 -19.968,-22.464 -7.104,-14.592 -7.104,-35.136 0,-20.352 7.104,-34.752 7.296,-14.4 19.968,-21.888 12.864,-7.68 29.76,-7.68 16.896,0 29.76,7.68 12.864,7.488 19.968,21.888 7.104,14.4 7.104,34.752 0,20.544 -7.104,35.136 -7.104,14.592 -19.968,22.464 -12.864,7.872 -29.76,7.872 z m 0,-24.384 q 8.64,0 14.784,-4.992 6.336,-5.184 9.6,-14.4 3.456,-9.216 3.456,-21.696 0,-12.48 -3.456,-21.312 -3.264,-9.024 -9.6,-13.632 -6.144,-4.8 -14.784,-4.8 -8.448,0 -14.784,4.8 -6.336,4.608 -9.792,13.632 -3.264,8.832 -3.264,21.312 0,12.48 3.264,21.696 3.456,9.216 9.792,14.4 6.336,4.992 14.784,4.992 z m -21.312,-112.32 q -5.76,0 -9.6,-3.84 -3.84,-3.84 -3.84,-9.6 0,-5.76 3.84,-9.6 3.84,-3.84 9.6,-3.84 5.952,0 9.6,3.84 3.84,3.84 3.84,9.6 0,5.76 -3.84,9.6 -3.648,3.84 -9.6,3.84 z m 42.624,0 q -5.76,0 -9.6,-3.84 -3.84,-3.84 -3.84,-9.6 0,-5.76 3.84,-9.6 3.84,-3.84 9.6,-3.84 5.952,0 9.6,3.84 3.84,3.84 3.84,9.6 0,5.76 -3.84,9.6 -3.648,3.84 -9.6,3.84 z m -209.27996,374.4 v -22.848 h 26.496 v -70.464 h -22.848 v -17.472 q 9.984,-1.92 16.896,-4.608 7.104,-2.688 13.44,-6.528 h 20.736 v 99.072 h 22.848 v 22.848 z M 134.6802,504.14212 v -125.184 h 78.912 v 23.808 h -50.688 v 28.992 h 43.392 v 23.808 h -43.392 v 48.576 z m 149.56799,2.304 q -16.896,0 -29.76,-7.872 -12.672,-7.872 -19.968,-22.464 -7.104,-14.592 -7.104,-35.136 0,-20.352 7.104,-34.752 7.296,-14.4 19.968,-21.888 12.864,-7.68 29.76,-7.68 16.896,0 29.76,7.68 12.864,7.488 19.968,21.888 7.104,14.4 7.104,34.752 0,20.544 -7.104,35.136 -7.104,14.592 -19.968,22.464 -12.864,7.872 -29.76,7.872 z m 0,-24.384 q 8.64,0 14.784,-4.992 6.336,-5.184 9.6,-14.4 3.456,-9.216 3.456,-21.696 0,-12.48 -3.456,-21.312 -3.264,-9.024 -9.6,-13.632 -6.144,-4.8 -14.784,-4.8 -8.448,0 -14.784,4.8 -6.336,4.608 -9.792,13.632 -3.264,8.832 -3.264,21.312 0,12.48 3.264,21.696 3.456,9.216 9.792,14.4 6.336,4.992 14.784,4.992 z m -21.312,-112.32 q -5.76,0 -9.6,-3.84 -3.84,-3.84 -3.84,-9.6 0,-5.76 3.84,-9.6 3.84,-3.84 9.6,-3.84 5.952,0 9.6,3.84 3.84,3.84 3.84,9.6 0,5.76 -3.84,9.6 -3.648,3.84 -9.6,3.84 z m 42.624,0 q -5.76,0 -9.6,-3.84 -3.84,-3.84 -3.84,-9.6 0,-5.76 3.84,-9.6 3.84,-3.84 9.6,-3.84 5.952,0 9.6,3.84 3.84,3.84 3.84,9.6 0,5.76 -3.84,9.6 -3.648,3.84 -9.6,3.84 z m -209.279956,374.4 v -22.848 h 26.495996 v -70.464 H 99.928234 v -17.472 q 9.983996,-1.92 16.895996,-4.608 7.104,-2.688 13.44,-6.528 h 20.736 v 99.072 h 22.848 v 22.848 z m 138.623976,2.304 q -19.584,0 -31.68,-16.32 -11.904,-16.32 -11.904,-47.424 0,-31.296 11.904,-47.04 12.096,-15.744 31.68,-15.744 19.584,0 31.488,15.936 12.096,15.744 12.096,46.848 0,31.104 -12.096,47.424 -11.904,16.32 -31.488,16.32 z m 0,-21.888 q 4.8,0 8.64,-3.456 3.84,-3.648 5.952,-12.672 2.304,-9.216 2.304,-25.728 0,-16.704 -2.304,-25.536 -2.112,-8.832 -5.952,-12.096 -3.84,-3.264 -8.64,-3.264 -4.8,0 -8.64,3.264 -3.84,3.264 -6.144,12.096 -2.112,8.832 -2.112,25.536 0,16.512 2.112,25.728 2.304,9.024 6.144,12.672 3.84,3.456 8.64,3.456 z m 94.65598,21.888 q -12.096,0 -20.928,-4.416 -8.832,-4.416 -14.784,-10.176 l 14.976,-16.896 q 3.072,3.456 8.256,6.144 5.376,2.496 10.56,2.496 7.296,0 12.864,-4.032 5.76,-4.032 9.024,-13.44 3.456,-9.6 3.456,-25.728 0,-15.168 -2.88,-23.616 -2.688,-8.64 -7.296,-12.096 -4.416,-3.648 -9.6,-3.648 -4.032,0 -7.68,2.112 -3.456,2.112 -5.568,6.336 -2.112,4.224 -2.112,11.328 0,6.336 2.112,10.368 2.112,3.84 5.76,5.568 3.648,1.728 8.256,1.728 4.8,0 9.792,-2.88 4.992,-3.072 9.024,-10.176 l 1.344,18.432 q -4.608,6.72 -12.096,10.752 -7.488,3.84 -13.632,3.84 -10.368,0 -18.624,-4.032 -8.256,-4.032 -13.056,-12.288 -4.608,-8.448 -4.608,-21.312 0,-12.672 5.568,-21.888 5.568,-9.216 14.784,-14.016 9.216,-4.992 20.16,-4.992 9.024,0 17.28,3.456 8.256,3.456 14.592,10.752 6.528,7.296 10.368,18.816 4.032,11.328 4.032,27.456 0,17.088 -4.224,29.568 -4.032,12.48 -10.944,20.544 -6.912,8.064 -15.744,12.096 -8.832,3.84 -18.432,3.84 z" style="font-size:96px;font-family:'Source Sans 3';-inkscape-font-specification:'Source Sans 3, @wght=700';font-variation-settings:'wght' 700;text-align:center;white-space:pre;display:inline;fill:#bec3c6;stroke-width:55" transform="matrix(0.02439371,0,0,0.02439371,5.7781013,229.39749)"/>
  </g>
</svg>
