<svg width="5000" height="6400" viewBox="0 0 5000 6400" version="1.1" id="svg1" xml:space="preserve" xmlns="http://www.w3.org/2000/svg">
  <defs id="defs1">
    <marker style="overflow:visible" id="Triangle" refX="0" refY="0" orient="auto-start-reverse" markerWidth="1" markerHeight="1" viewBox="0 0 1 1" preserveAspectRatio="xMidYMid">
      <path transform="scale(0.5)" style="fill:context-stroke;fill-rule:evenodd;stroke:context-stroke;stroke-width:1pt" d="M 5.77,0 -2.88,5 V -5 Z" id="path597"/>
    </marker>
  </defs>
  <g id="floor_2" transform="matrix(40.994169,0,0,40.994169,1.00188,-5510.757)" style="display:inline;opacity:1">
    <g id="g302" style="display:inline" transform="matrix(0.02439371,0,0,0.02439371,381.50053,218.26719)">
      <path style="font-variation-settings:'wght' 700;display:inline;fill:#9b9151;fill-opacity:1;stroke:#dfdfe2;stroke-width:70;stroke-dasharray:none;stroke-opacity:1" d="m -14417.845,-1669.0382 401.58,10e-5 V -3391.46 l 1502.914,1e-4 v 1947.2724 l -1361.571,-7.5001 v 3209.6358 l -542.923,2e-4 z" id="path95" transform="translate(-8.040958e-5,2.5984892e-5)"/>
      <path style="font-variation-settings:'wght' 700;display:inline;fill:#3e474c;fill-opacity:1;stroke:none;stroke-width:70;stroke-dasharray:none;stroke-opacity:1" d="m -14618.201,-2468.46 h 324.914 l 0.283,161.8686 -325.197,-1.4142 z" id="path103" transform="translate(-97.341093,-948)"/>
      <rect style="font-variation-settings:'wght' 700;display:inline;fill:#a9a2a2;fill-opacity:1;stroke:none;stroke-width:14.4669;stroke-dasharray:none;stroke-opacity:1" id="rect132" width="980.77167" height="925.19781" x="-13981.265" y="-3148.9529" transform="translate(-8.040958e-5,2.5984892e-5)"/>
      <rect style="font-variation-settings:'wght' 700;display:inline;fill:#cbc4ba;fill-opacity:1;stroke:none;stroke-width:4.91887;stroke-dasharray:none;stroke-opacity:1" id="rect151" width="280.35751" height="374.1713" x="-13771.236" y="-2223.7551" transform="translate(-8.040958e-5,2.5984892e-5)"/>
      <rect style="font-variation-settings:'wght' 700;display:inline;fill:#55576b;fill-opacity:1;stroke:#dfdfe2;stroke-width:26.0864;stroke-dasharray:none;stroke-opacity:1" id="rect187" width="1870.6688" height="1577.1973" x="3104.5222" y="2005.5453" transform="translate(-15640.299,-3436.9252)"/>
      <path style="font-variation-settings:'wght' 700;display:inline;fill:#55576b;fill-opacity:1;stroke:#84879f;stroke-width:8.327;stroke-dasharray:none;stroke-opacity:1" d="M 3117.5652,2794.1439 H 4962.1537" id="path187" transform="translate(-15640.299,-3436.9252)"/>
      <path style="font-variation-settings:'wght' 700;display:inline;fill:#55576b;fill-opacity:1;stroke:#84879f;stroke-width:8.327;stroke-dasharray:none;stroke-opacity:1" d="m 4039.8566,2005.5453 v 1564.16" id="path188" transform="translate(-15640.299,-3436.9252)"/>
      <circle style="font-variation-settings:'wght' 700;display:inline;fill:#e7e7e7;fill-opacity:1;stroke:none;stroke-width:8.62631;stroke-dasharray:none;stroke-opacity:1" id="circle188" cx="-13631.058" cy="-1992.4713" r="125" transform="translate(-8.040958e-5,2.5984892e-5)"/>
      <rect style="font-variation-settings:'wght' 700;display:inline;fill:#cbc4ba;fill-opacity:1;stroke:none;stroke-width:4.91887;stroke-dasharray:none;stroke-opacity:1" id="rect204" width="280.35751" height="374.1713" x="-13280.851" y="-2223.7551" transform="translate(-8.040958e-5,2.5984892e-5)"/>
      <circle style="font-variation-settings:'wght' 700;display:inline;fill:#e7e7e7;fill-opacity:1;stroke:none;stroke-width:8.62631;stroke-dasharray:none;stroke-opacity:1" id="circle204" cx="-13140.672" cy="-1992.4713" r="125" transform="translate(-8.040958e-5,2.5984892e-5)"/>
      <rect style="font-variation-settings:'wght' 700;display:inline;fill:#becad0;fill-opacity:1;stroke:none;stroke-width:20.961;stroke-dasharray:none;stroke-opacity:1" id="rect208" width="948.12982" height="2009.1379" x="-12548.352" y="-3426.46" transform="translate(-8.040958e-5,2.5984892e-5)"/>
      <rect style="font-variation-settings:'wght' 700;display:inline;fill:#cad2d8;fill-opacity:1;stroke:none;stroke-width:20.961;stroke-dasharray:none;stroke-opacity:1" id="rect266" width="948.12976" height="2009.1379" x="-11600.222" y="-3426.46" transform="translate(-8.040958e-5,2.5984892e-5)"/>
      <rect style="font-variation-settings:'wght' 700;display:inline;fill:#d7eeee;fill-opacity:1;stroke:#f7f7f9;stroke-width:10;stroke-dasharray:none;stroke-opacity:1" id="rect276" width="246.30969" height="132.53984" x="-11723.377" y="-3163.4019" transform="translate(-8.040958e-5,2.5984892e-5)"/>
      <rect style="font-variation-settings:'wght' 700;display:inline;fill:#d7eeee;fill-opacity:1;stroke:#f7f7f9;stroke-width:10;stroke-dasharray:none;stroke-opacity:1" id="rect278" width="246.30969" height="132.53984" x="-11723.377" y="-3030.8621" transform="translate(-8.040958e-5,2.5984892e-5)"/>
      <rect style="font-variation-settings:'wght' 700;display:inline;fill:#d7eeee;fill-opacity:1;stroke:#f7f7f9;stroke-width:10;stroke-dasharray:none;stroke-opacity:1" id="rect280" width="246.30969" height="132.53984" x="-11723.377" y="-2898.3223" transform="translate(-8.040958e-5,2.5984892e-5)"/>
      <rect style="font-variation-settings:'wght' 700;display:inline;fill:#d7eeee;fill-opacity:1;stroke:#f7f7f9;stroke-width:10;stroke-dasharray:none;stroke-opacity:1" id="rect282" width="246.30969" height="132.53984" x="-11723.377" y="-2765.7825" transform="translate(-8.040958e-5,2.5984892e-5)"/>
      <rect style="font-variation-settings:'wght' 700;display:inline;fill:#d7eeee;fill-opacity:1;stroke:#f7f7f9;stroke-width:10;stroke-dasharray:none;stroke-opacity:1" id="rect284" width="246.30969" height="132.53984" x="-11723.377" y="-2633.2427" transform="translate(-8.040958e-5,2.5984892e-5)"/>
      <rect style="font-variation-settings:'wght' 700;display:inline;fill:#d7eeee;fill-opacity:1;stroke:#f7f7f9;stroke-width:10;stroke-dasharray:none;stroke-opacity:1" id="rect286" width="246.30969" height="132.53984" x="-11723.377" y="-2500.7029" transform="translate(-8.040958e-5,2.5984892e-5)"/>
      <rect style="font-variation-settings:'wght' 700;display:inline;fill:#d7eeee;fill-opacity:1;stroke:#f7f7f9;stroke-width:10;stroke-dasharray:none;stroke-opacity:1" id="rect288" width="246.30969" height="132.53984" x="-11723.377" y="-2368.1631" transform="translate(-8.040958e-5,2.5984892e-5)"/>
      <rect style="font-variation-settings:'wght' 700;display:inline;fill:#d7eeee;fill-opacity:1;stroke:#f7f7f9;stroke-width:10;stroke-dasharray:none;stroke-opacity:1" id="rect297" width="246.30969" height="132.53984" x="-11723.377" y="-2235.6233" transform="translate(-8.040958e-5,2.5984892e-5)"/>
      <rect style="font-variation-settings:'wght' 700;display:inline;fill:#d7eeee;fill-opacity:1;stroke:#f7f7f9;stroke-width:10;stroke-dasharray:none;stroke-opacity:1" id="rect299" width="246.30969" height="132.53984" x="-11723.377" y="-2103.0835" transform="translate(-8.040958e-5,2.5984892e-5)"/>
      <rect style="font-variation-settings:'wght' 700;display:inline;fill:#d7eeee;fill-opacity:1;stroke:#f7f7f9;stroke-width:10;stroke-dasharray:none;stroke-opacity:1" id="rect301" width="246.30969" height="132.53984" x="-11723.377" y="-1970.5437" transform="translate(-8.040958e-5,2.5984892e-5)"/>
      <rect style="font-variation-settings:'wght' 700;display:inline;fill:#d7eeee;fill-opacity:1;stroke:#f7f7f9;stroke-width:10;stroke-dasharray:none;stroke-opacity:1" id="rect302" width="246.30969" height="132.53984" x="-11723.377" y="-1838.0039" transform="translate(-8.040958e-5,2.5984892e-5)"/>
    </g>
    <path id="path302" style="font-variation-settings:'wdth' 70,'wght' 600;display:inline;fill:#4c5a5f;fill-opacity:1;stroke:none;stroke-width:.487874" d="m 22.965168,147.52098 -0.0045,4.68164 h -2.320886 v 5.52383 H 22.9607 v 7.55858 h -2.320886 v 4.36919 H 22.9607 v 11.90315 h -2.320886 v 24.66792 l 2.320886,1e-5 v 24.58261 h -2.320886 v 4.72783 H 22.9607 v 12.69422 h -2.320886 v 5.8415 H 22.9607 v 20.81242 h 17.452289 l 0.176396,-2.80416 4.092288,0.19081 0.0316,-0.69292 0.506409,0.0236 -0.0834,2.74745 4.015223,0.24052 0.805033,-13.43911 h -8.659581 l -0.415723,6.70841 H 29.795754 L 29.796,158.32524 h 4.63863 v -0.8086 h 0.501342 l 2e-6,0.8086 h 4.638896 v -10.80427 z"/>
    <g id="rooms_2" style="display:inline;opacity:1" transform="matrix(0.02439371,0,0,0.02439371,-0.02443957,255.98706)">
      <rect style="font-variation-settings:'wdth' 70,'wght' 600;display:inline;opacity:1;fill:#1b2022;fill-opacity:1;stroke-width:264.646;stroke-dasharray:none" id="rect303" width="280.19748" height="319.87988" x="942.25684" y="-4766.3574"/>
      <path style="font-variation-settings:'wght' 700;display:inline;opacity:1;fill:#454c7f;fill-opacity:1;stroke:#bec3c6;stroke-width:0" d="m 103.81119,-4028.1125 h 743.30282 v -226.4448 h 95.14282 v -511.8 H 103.81119 Z" id="FO201"/>
      <path style="font-variation-settings:'wght' 700;display:inline;opacity:1;fill:#454c7f;fill-opacity:1;stroke:#bec3c6;stroke-width:0" d="m 103.81119,-3539.1434 h 743.30282 v -179.1114 h 95.14282 v -309.8577 H 103.81119 Z" id="FO202"/>
      <path style="font-variation-settings:'wght' 700;display:inline;opacity:1;fill:#454c7f;fill-opacity:1;stroke:#bec3c6;stroke-width:0" d="m 103.81119,-2554.2365 h 743.30282 v -496.9471 h 95.14282 v -487.9598 H 103.81119 Z" id="FO203"/>
      <path style="font-variation-settings:'wght' 700;display:inline;opacity:1;fill:#454c7f;fill-opacity:1;stroke:#bec3c6;stroke-width:0" d="m 103.81119,-2554.2365 h 743.30282 v 514.294 h 95.14282 v 475.9404 l -838.44564,-10e-5 z" id="FO204"/>
      <path style="font-variation-settings:'wght' 700;display:inline;opacity:1;fill:#454c7f;fill-opacity:1;stroke:#bec3c6;stroke-width:0" d="m 103.81119,-1564.0022 h 838.44564 v 531.8037 h -95.14282 v 193.81349 h 95.14282 v 248.03687 H 103.81119 Z" id="FO205"/>
      <path style="font-variation-settings:'wght' 700;display:inline;opacity:1;fill:#454c7f;fill-opacity:1;stroke:#bec3c6;stroke-width:0" d="m 103.81119,-590.34814 h 838.44564 v 272.35236 h -95.14282 v 239.46747 h 95.14282 V 140.79572 H 103.81119 Z" id="FO206"/>
      <rect style="font-variation-settings:'wdth' 70,'wght' 600;display:inline;opacity:1;fill:#454c7f;fill-opacity:1;stroke-width:248.659;stroke-dasharray:none" id="FO209" width="400.88666" height="197.37975" x="1222.4543" y="-3412.7129"/>
      <rect style="font-variation-settings:'wdth' 70,'wght' 600;display:inline;opacity:1;fill:#454c7f;fill-opacity:1;stroke-width:206.052;stroke-dasharray:none" id="FO210" width="282.57516" height="175.50569" x="1222.4543" y="211.65381"/>
      <rect style="font-variation-settings:'wdth' 70,'wght' 600;display:inline;opacity:1;fill:#454c7f;fill-opacity:1;stroke-width:155.147;stroke-dasharray:none" id="FO210a" width="282.57516" height="99.500015" x="1222.4543" y="387.15948"/>
      <path style="font-variation-settings:'wght' 700;display:inline;opacity:1;fill:#454c7f;fill-opacity:1;stroke:#bec3c6;stroke-width:0" d="m 1505.0295,211.65382 h 188.9071 l -17.0422,275.00569 -171.8649,-2.65255 z" id="FO211"/>
      <path style="font-variation-settings:'wght' 700;display:inline;opacity:1;fill:#454c7f;fill-opacity:1;stroke:#bec3c6;stroke-width:0" d="M 942.25683,774.65954 H 1325.819 V 1342.9261 L 942.25683,1323.489 Z" id="FO213"/>
      <path style="font-variation-settings:'wght' 700;display:inline;opacity:1;fill:#454c7f;fill-opacity:1;stroke:#bec3c6;stroke-width:0" d="m 1328.6694,774.65954 h 329.0296 l -32.6963,583.42776 -299.1837,-15.1612 z" id="FO215"/>
      <rect style="font-variation-settings:'wdth' 70,'wght' 600;display:inline;opacity:1;fill:#454c7f;fill-opacity:1;stroke-width:592.916;stroke-dasharray:none" id="FO207" width="838.44562" height="489.7597" x="103.81119" y="140.79572"/>
      <path style="font-variation-settings:'wght' 700;display:inline;opacity:1;fill:#454c7f;fill-opacity:1;stroke:#bec3c6;stroke-width:0" d="m 103.81119,630.55544 838.44565,-2e-5 -10e-6,692.93358 -586.25679,-29.7087 0.99726,-303.27831 -253.18611,-0.83255 z" id="FO208"/>
    </g>
    <g id="g588" transform="matrix(0.02439371,0,0,0.02439371,18.93475,263.23933)" style="display:inline">
      <path style="font-variation-settings:'wght' 700;display:inline;fill:#62797e;fill-opacity:1;stroke:none;stroke-width:10" d="m 862.05774,740.62738 172.10076,8.0244 -2.0283,43.81214 21.1725,0.98719 3.6021,-47.75379 157.9792,7.366 -10.2453,219.7337 -347.52573,-20.8175 z" id="path525"/>
      <rect style="font-variation-settings:'wdth' 70,'wght' 600;display:inline;fill:#60767b;fill-opacity:1;stroke-width:6.40868;stroke-dasharray:none" id="rect525" width="172.37357" height="29.06435" x="1090.4893" y="637.53333" transform="rotate(2.6695564)"/>
      <rect style="font-variation-settings:'wdth' 70,'wght' 600;display:inline;fill:#5e7378;fill-opacity:1;stroke-width:6.40868;stroke-dasharray:none" id="rect526" width="172.37357" height="29.06435" x="1090.4893" y="608.46899" transform="rotate(2.6695564)"/>
      <rect style="font-variation-settings:'wdth' 70,'wght' 600;display:inline;fill:#5c7075;fill-opacity:1;stroke-width:6.40868;stroke-dasharray:none" id="rect527" width="172.37357" height="29.06435" x="1090.4893" y="579.40454" transform="rotate(2.6695564)"/>
      <rect style="font-variation-settings:'wdth' 70,'wght' 600;display:inline;fill:#5a6d72;fill-opacity:1;stroke-width:6.40868;stroke-dasharray:none" id="rect528" width="172.37357" height="29.06435" x="1090.4893" y="550.34021" transform="rotate(2.6695564)"/>
      <rect style="font-variation-settings:'wdth' 70,'wght' 600;display:inline;fill:#586a6f;fill-opacity:1;stroke-width:6.40868;stroke-dasharray:none" id="rect529" width="172.37357" height="29.06435" x="1090.4893" y="521.27582" transform="rotate(2.6695564)"/>
      <rect style="font-variation-settings:'wdth' 70,'wght' 600;display:inline;fill:#56676c;fill-opacity:1;stroke-width:6.40868;stroke-dasharray:none" id="rect530" width="172.3737" height="29.06435" x="1090.4891" y="492.21143" transform="rotate(2.6695564)"/>
      <rect style="font-variation-settings:'wdth' 70,'wght' 600;display:inline;fill:#000;fill-opacity:1;stroke-width:1.18874;stroke-dasharray:none" id="rect531" width="172.37357" height="1.0000001" x="1090.4893" y="637.53333" transform="rotate(2.6695564)"/>
      <rect style="font-variation-settings:'wdth' 70,'wght' 600;display:inline;fill:#000;fill-opacity:1;stroke-width:1.18915;stroke-dasharray:none" id="rect532" width="172.37357" height="1.0000001" x="1090.4893" y="608.46899" transform="rotate(2.6695564)"/>
      <rect style="font-variation-settings:'wdth' 70,'wght' 600;display:inline;fill:#000;fill-opacity:1;stroke-width:1.18874;stroke-dasharray:none" id="rect533" width="172.37357" height="1.0000001" x="1090.4893" y="579.40454" transform="rotate(2.6695564)"/>
      <rect style="font-variation-settings:'wdth' 70,'wght' 600;display:inline;fill:#000;fill-opacity:1;stroke-width:1.18874;stroke-dasharray:none" id="rect534" width="172.37357" height="1.0000001" x="1090.4893" y="550.34021" transform="rotate(2.6695564)"/>
      <rect style="font-variation-settings:'wdth' 70,'wght' 600;display:inline;fill:#000;fill-opacity:1;stroke-width:1.18874;stroke-dasharray:none" id="rect535" width="172.37357" height="1.0000001" x="1090.4893" y="521.27582" transform="rotate(2.6695564)"/>
      <rect style="font-variation-settings:'wdth' 70,'wght' 600;display:inline;fill:#000;fill-opacity:1;stroke-width:1.18874;stroke-dasharray:none" id="rect536" width="172.37378" height="1.0000001" x="1090.4891" y="492.21143" transform="rotate(2.6695564)"/>
      <rect style="font-variation-settings:'wdth' 70,'wght' 600;display:inline;fill:#546469;fill-opacity:1;stroke-width:6.40868;stroke-dasharray:none" id="rect537" width="172.3737" height="29.06435" x="1090.4891" y="463.14706" transform="rotate(2.6695564)"/>
      <rect style="font-variation-settings:'wdth' 70,'wght' 600;display:inline;fill:#000;fill-opacity:1;stroke-width:1.18874;stroke-dasharray:none" id="rect538" width="172.37378" height="1.0000001" x="1090.4891" y="463.14706" transform="rotate(2.6695564)"/>
      <rect style="font-variation-settings:'wdth' 70,'wght' 600;display:inline;fill:#516166;fill-opacity:1;stroke-width:6.40868;stroke-dasharray:none" id="rect539" width="172.3737" height="29.06435" x="1090.4891" y="434.0827" transform="rotate(2.6695564)"/>
      <rect style="font-variation-settings:'wdth' 70,'wght' 600;display:inline;fill:#000;fill-opacity:1;stroke-width:1.18874;stroke-dasharray:none" id="rect540" width="172.37378" height="1.0000001" x="1090.4891" y="434.0827" transform="rotate(2.6695564)"/>
      <rect style="font-variation-settings:'wdth' 70,'wght' 600;display:inline;fill:#4f5e63;fill-opacity:1;stroke-width:6.40868;stroke-dasharray:none" id="rect541" width="172.3737" height="29.06435" x="1090.4891" y="405.01834" transform="rotate(2.6695564)"/>
      <rect style="font-variation-settings:'wdth' 70,'wght' 600;display:inline;fill:#000;fill-opacity:1;stroke-width:1.18874;stroke-dasharray:none" id="rect542" width="172.37378" height="1.0000001" x="1090.4891" y="405.01834" transform="rotate(2.6695564)"/>
      <rect style="font-variation-settings:'wdth' 70,'wght' 600;display:inline;fill:#000;fill-opacity:1;stroke-width:1.18874;stroke-dasharray:none" id="rect543" width="172.37378" height="1.0000001" x="895.53137" y="408.02936" transform="rotate(2.6695564)"/>
      <rect style="font-variation-settings:'wdth' 70,'wght' 600;display:inline;fill:#465358;fill-opacity:1;stroke-width:6.40868;stroke-dasharray:none" id="rect544" width="172.3737" height="29.06435" x="895.53137" y="378.96509" transform="rotate(2.6695564)"/>
      <rect style="font-variation-settings:'wdth' 70,'wght' 600;display:inline;fill:#000;fill-opacity:1;stroke-width:1.18874;stroke-dasharray:none" id="rect545" width="172.37378" height="1.0000001" x="895.53137" y="378.96509" transform="rotate(2.6695564)"/>
      <rect style="font-variation-settings:'wdth' 70,'wght' 600;display:inline;fill:#48565b;fill-opacity:1;stroke-width:6.40868;stroke-dasharray:none" id="rect546" width="172.3737" height="29.06435" x="895.53137" y="349.90073" transform="rotate(2.6695564)"/>
      <rect style="font-variation-settings:'wdth' 70,'wght' 600;display:inline;fill:#000;fill-opacity:1;stroke-width:1.18874;stroke-dasharray:none" id="rect547" width="172.37378" height="1.0000001" x="895.53137" y="349.90073" transform="rotate(2.6695564)"/>
      <rect style="font-variation-settings:'wdth' 70,'wght' 600;display:inline;fill:#4b595e;fill-opacity:1;stroke-width:6.40868;stroke-dasharray:none" id="rect548" width="172.3737" height="29.06435" x="895.53137" y="320.83636" transform="rotate(2.6695564)"/>
      <rect style="font-variation-settings:'wdth' 70,'wght' 600;display:inline;fill:#000;fill-opacity:1;stroke-width:1.18874;stroke-dasharray:none" id="rect549" width="172.37378" height="1.0000001" x="895.53137" y="320.83636" transform="rotate(2.6695564)"/>
      <rect style="font-variation-settings:'wdth' 70,'wght' 600;display:inline;fill:#62797e;fill-opacity:1;stroke-width:6.40868;stroke-dasharray:none" id="rect550" width="172.37357" height="29.06435" x="1090.4891" y="666.59766" transform="rotate(2.6695564)"/>
      <rect style="font-variation-settings:'wdth' 70,'wght' 600;display:inline;fill:#445055;fill-opacity:1;stroke-width:6.40868;stroke-dasharray:none" id="rect551" width="172.3737" height="29.06435" x="895.53143" y="409.02936" transform="rotate(2.6695564)"/>
      <rect style="font-variation-settings:'wdth' 70,'wght' 600;display:inline;fill:#424d52;fill-opacity:1;stroke-width:6.40868;stroke-dasharray:none" id="rect552" width="172.3737" height="29.06435" x="895.53143" y="438.09372" transform="rotate(2.6695564)"/>
      <rect style="font-variation-settings:'wdth' 70,'wght' 600;display:inline;fill:#404a4f;fill-opacity:1;stroke-width:6.40868;stroke-dasharray:none" id="rect553" width="172.3737" height="29.06435" x="895.53143" y="467.15805" transform="rotate(2.6695564)"/>
      <rect style="font-variation-settings:'wdth' 70,'wght' 600;display:inline;fill:#3e474c;fill-opacity:1;stroke-width:6.40868;stroke-dasharray:none" id="rect554" width="172.3737" height="29.06435" x="895.53143" y="496.22238" transform="rotate(2.6695564)"/>
      <rect style="font-variation-settings:'wdth' 70,'wght' 600;display:inline;fill:#3c4449;fill-opacity:1;stroke-width:6.40868;stroke-dasharray:none" id="rect555" width="172.3737" height="29.06435" x="895.53143" y="525.28668" transform="rotate(2.6695564)"/>
      <rect style="font-variation-settings:'wdth' 70,'wght' 600;display:inline;fill:#3a4146;fill-opacity:1;stroke-width:6.40868;stroke-dasharray:none" id="rect556" width="172.3737" height="29.06435" x="895.53143" y="554.35101" transform="rotate(2.6695564)"/>
      <rect style="font-variation-settings:'wdth' 70,'wght' 600;display:inline;fill:#373e43;fill-opacity:1;stroke-width:6.40868;stroke-dasharray:none" id="rect557" width="172.3737" height="29.06435" x="895.53143" y="583.41534" transform="rotate(2.6695564)"/>
      <rect style="font-variation-settings:'wdth' 70,'wght' 600;display:inline;fill:#000;fill-opacity:1;stroke-width:1.18874;stroke-dasharray:none" id="rect558" width="172.37378" height="1.0000001" x="895.53137" y="437.09372" transform="rotate(2.6695564)"/>
      <rect style="font-variation-settings:'wdth' 70,'wght' 600;display:inline;fill:#000;fill-opacity:1;stroke-width:1.18874;stroke-dasharray:none" id="rect559" width="172.37378" height="1.0000001" x="895.53137" y="466.15805" transform="rotate(2.6695564)"/>
      <rect style="font-variation-settings:'wdth' 70,'wght' 600;display:inline;fill:#000;fill-opacity:1;stroke-width:1.18874;stroke-dasharray:none" id="rect560" width="172.37378" height="1.0000001" x="895.53137" y="495.22238" transform="rotate(2.6695564)"/>
      <rect style="font-variation-settings:'wdth' 70,'wght' 600;display:inline;fill:#000;fill-opacity:1;stroke-width:1.18874;stroke-dasharray:none" id="rect561" width="172.37378" height="1.0000001" x="895.53137" y="524.28668" transform="rotate(2.6695564)"/>
      <rect style="font-variation-settings:'wdth' 70,'wght' 600;display:inline;fill:#000;fill-opacity:1;stroke-width:1.18874;stroke-dasharray:none" id="rect562" width="172.37378" height="1.0000001" x="895.53137" y="553.35101" transform="rotate(2.6695564)"/>
      <rect style="font-variation-settings:'wdth' 70,'wght' 600;display:inline;fill:#000;fill-opacity:1;stroke-width:1.18874;stroke-dasharray:none" id="rect563" width="172.37378" height="1.0000001" x="895.53137" y="582.41534" transform="rotate(2.6695564)"/>
      <rect style="font-variation-settings:'wdth' 70,'wght' 600;display:inline;fill:#000;fill-opacity:1;stroke-width:1.18874;stroke-dasharray:none" id="rect564" width="172.37378" height="1.0000001" x="895.53137" y="611.47968" transform="rotate(2.6695564)"/>
      <rect style="font-variation-settings:'wdth' 70,'wght' 600;display:inline;fill:#000;fill-opacity:1;stroke-width:1.18874;stroke-dasharray:none" id="rect567" width="172.37357" height="1.0000001" x="1090.4893" y="665.59766" transform="rotate(2.6695564)"/>
      <rect style="font-variation-settings:'wdth' 70,'wght' 600;display:inline;fill:#373e43;fill-opacity:1;stroke-width:6.40868;stroke-dasharray:none" id="rect582" width="172.3737" height="29.06435" x="895.53143" y="612.47968" transform="rotate(2.6695564)"/>
      <rect style="font-variation-settings:'wdth' 70,'wght' 600;display:inline;fill:#373e43;fill-opacity:1;stroke-width:6.40868;stroke-dasharray:none" id="rect583" width="172.3737" height="29.06435" x="895.53143" y="641.54401" transform="rotate(2.6695564)"/>
      <rect style="font-variation-settings:'wdth' 70,'wght' 600;display:inline;fill:#373e43;fill-opacity:1;stroke-width:6.40868;stroke-dasharray:none" id="rect584" width="172.3737" height="29.06435" x="895.53143" y="670.60834" transform="rotate(2.6695564)"/>
      <rect style="font-variation-settings:'wdth' 70,'wght' 600;display:inline;fill:#000;fill-opacity:1;stroke-width:1.18874;stroke-dasharray:none" id="rect585" width="172.37378" height="1.0000001" x="895.53137" y="640.54401" transform="rotate(2.6695564)"/>
      <rect style="font-variation-settings:'wdth' 70,'wght' 600;display:inline;fill:#000;fill-opacity:1;stroke-width:1.18874;stroke-dasharray:none" id="rect586" width="172.37378" height="1.0000001" x="895.53137" y="669.60834" transform="rotate(2.6695564)"/>
      <rect style="font-variation-settings:'wdth' 70,'wght' 600;display:inline;fill:#000;fill-opacity:1;stroke-width:1.18874;stroke-dasharray:none" id="rect587" width="172.37357" height="1.0000001" x="1090.4891" y="694.66199" transform="rotate(2.6695564,0.04715316,0.31543)"/>
      <path style="font-variation-settings:'wdth' 70,'wght' 600;display:inline;opacity:1;fill:none;fill-opacity:1;stroke:#bec3c6;stroke-width:5;stroke-dasharray:none;stroke-opacity:1;marker-end:url(#Triangle)" d="m 1140.3582,473.39979 -11.496,246.55673" id="path587" transform="translate(3.6758074e-6,1.8533232e-5)"/>
      <path style="font-variation-settings:'wdth' 70,'wght' 600;display:inline;opacity:1;fill:none;fill-opacity:1;stroke:#bec3c6;stroke-width:5;stroke-dasharray:none;stroke-opacity:1;marker-end:url(#Triangle)" d="M 957.56425,731.88892 976.00868,395.78851" id="path588" transform="translate(3.6758074e-6,1.8533232e-5)"/>
      <rect style="font-variation-settings:'wght' 700;display:inline;fill:none;stroke:#bec3c6;stroke-width:10;stroke-opacity:1" id="rect588" width="21.19548" height="451.13837" x="1067.8757" y="292.40125" transform="rotate(2.6695564,0.19715053,1.2634305)"/>
    </g>
    <g id="g744" transform="matrix(-0.02439371,0,0,-0.02439371,77.016142,134.51683)" style="display:inline">
      <rect style="font-variation-settings:'wdth' 70,'wght' 600;display:inline;fill:#4b595e;fill-opacity:1;stroke-width:6.73132;stroke-dasharray:none" id="rect589" width="190.16679" height="29.06435" x="1745.594" y="-1006.071"/>
      <rect style="font-variation-settings:'wdth' 70,'wght' 600;display:inline;fill:#48565b;fill-opacity:1;stroke-width:6.73132;stroke-dasharray:none" id="rect590" width="190.16679" height="29.06435" x="1745.594" y="-1035.1354"/>
      <rect style="font-variation-settings:'wdth' 70,'wght' 600;display:inline;fill:#465358;fill-opacity:1;stroke-width:6.73132;stroke-dasharray:none" id="rect591" width="190.16679" height="29.06435" x="1745.594" y="-1064.1997"/>
      <rect style="font-variation-settings:'wdth' 70,'wght' 600;display:inline;fill:#445055;fill-opacity:1;stroke-width:6.73132;stroke-dasharray:none" id="rect592" width="190.16679" height="29.06435" x="1745.594" y="-1093.264"/>
      <rect style="font-variation-settings:'wdth' 70,'wght' 600;display:inline;fill:#424d52;fill-opacity:1;stroke-width:6.73132;stroke-dasharray:none" id="rect593" width="190.16679" height="29.06435" x="1745.594" y="-1122.3285"/>
      <rect style="font-variation-settings:'wdth' 70,'wght' 600;display:inline;fill:#404a4f;fill-opacity:1;stroke-width:6.73132;stroke-dasharray:none" id="rect594" width="190.16695" height="29.06435" x="1745.5939" y="-1151.3928"/>
      <rect style="font-variation-settings:'wdth' 70,'wght' 600;display:inline;fill:#000;fill-opacity:1;stroke-width:1.24859;stroke-dasharray:none" id="rect595" width="190.16679" height="1.0000001" x="1745.594" y="-977.00659"/>
      <rect style="font-variation-settings:'wdth' 70,'wght' 600;display:inline;fill:#000;fill-opacity:1;stroke-width:1.24859;stroke-dasharray:none" id="rect596" width="190.16679" height="1.0000001" x="1745.594" y="-1006.071"/>
      <rect style="font-variation-settings:'wdth' 70,'wght' 600;display:inline;fill:#000;fill-opacity:1;stroke-width:1.24859;stroke-dasharray:none" id="rect597" width="190.16679" height="1.0000001" x="1745.594" y="-1035.1354"/>
      <rect style="font-variation-settings:'wdth' 70,'wght' 600;display:inline;fill:#000;fill-opacity:1;stroke-width:1.24859;stroke-dasharray:none" id="rect598" width="190.16679" height="1.0000001" x="1745.594" y="-1064.1997"/>
      <rect style="font-variation-settings:'wdth' 70,'wght' 600;display:inline;fill:#000;fill-opacity:1;stroke-width:1.24859;stroke-dasharray:none" id="rect599" width="190.16679" height="1.0000001" x="1745.594" y="-1093.264"/>
      <rect style="font-variation-settings:'wdth' 70,'wght' 600;display:inline;fill:#000;fill-opacity:1;stroke-width:1.24859;stroke-dasharray:none" id="rect600" width="190.16679" height="1.0000001" x="1745.594" y="-1122.3285"/>
      <rect style="font-variation-settings:'wdth' 70,'wght' 600;display:inline;fill:#000;fill-opacity:1;stroke-width:1.24859;stroke-dasharray:none" id="rect601" width="190.16702" height="1.0000001" x="1745.5939" y="-1151.3928"/>
      <rect style="font-variation-settings:'wdth' 70,'wght' 600;display:inline;fill:#4f5e63;fill-opacity:1;stroke-width:6.73132;stroke-dasharray:none" id="rect602" width="190.16679" height="29.06435" x="1534.8741" y="-1006.0711"/>
      <rect style="font-variation-settings:'wdth' 70,'wght' 600;display:inline;fill:#516166;fill-opacity:1;stroke-width:6.73132;stroke-dasharray:none" id="rect603" width="190.16679" height="29.06435" x="1534.8741" y="-1035.1354"/>
      <rect style="font-variation-settings:'wdth' 70,'wght' 600;display:inline;fill:#546469;fill-opacity:1;stroke-width:6.73132;stroke-dasharray:none" id="rect604" width="190.16679" height="29.06435" x="1534.8741" y="-1064.1997"/>
      <rect style="font-variation-settings:'wdth' 70,'wght' 600;display:inline;fill:#56676c;fill-opacity:1;stroke-width:6.73132;stroke-dasharray:none" id="rect605" width="190.16679" height="29.06435" x="1534.8741" y="-1093.2642"/>
      <rect style="font-variation-settings:'wdth' 70,'wght' 600;display:inline;fill:#586a6f;fill-opacity:1;stroke-width:6.73132;stroke-dasharray:none" id="rect606" width="190.16679" height="29.06435" x="1534.8741" y="-1122.3285"/>
      <rect style="font-variation-settings:'wdth' 70,'wght' 600;display:inline;fill:#5a6d72;fill-opacity:1;stroke-width:6.73132;stroke-dasharray:none" id="rect607" width="190.16695" height="29.06435" x="1534.874" y="-1151.3929"/>
      <rect style="font-variation-settings:'wdth' 70,'wght' 600;display:inline;fill:#000;fill-opacity:1;stroke-width:1.24859;stroke-dasharray:none" id="rect608" width="190.16679" height="1.0000001" x="1534.8741" y="-977.00665"/>
      <rect style="font-variation-settings:'wdth' 70,'wght' 600;display:inline;fill:#000;fill-opacity:1;stroke-width:1.24859;stroke-dasharray:none" id="rect609" width="190.16679" height="1.0000001" x="1534.8741" y="-1006.0711"/>
      <rect style="font-variation-settings:'wdth' 70,'wght' 600;display:inline;fill:#000;fill-opacity:1;stroke-width:1.24902;stroke-dasharray:none" id="rect610" width="190.16679" height="1.0000001" x="1534.8741" y="-1035.1354"/>
      <rect style="font-variation-settings:'wdth' 70,'wght' 600;display:inline;fill:#000;fill-opacity:1;stroke-width:1.24859;stroke-dasharray:none" id="rect611" width="190.16679" height="1.0000001" x="1534.8741" y="-1064.1997"/>
      <rect style="font-variation-settings:'wdth' 70,'wght' 600;display:inline;fill:#000;fill-opacity:1;stroke-width:1.24859;stroke-dasharray:none" id="rect612" width="190.16679" height="1.0000001" x="1534.8741" y="-1093.2642"/>
      <rect style="font-variation-settings:'wdth' 70,'wght' 600;display:inline;fill:#000;fill-opacity:1;stroke-width:1.24859;stroke-dasharray:none" id="rect613" width="190.16679" height="1.0000001" x="1534.8741" y="-1122.3285"/>
      <rect style="font-variation-settings:'wdth' 70,'wght' 600;display:inline;fill:#000;fill-opacity:1;stroke-width:1.24859;stroke-dasharray:none" id="rect634" width="190.16702" height="1.0000001" x="1534.874" y="-1151.3929"/>
      <rect style="font-variation-settings:'wdth' 70,'wght' 600;display:inline;fill:#3e474c;fill-opacity:1;stroke-width:6.73132;stroke-dasharray:none" id="rect635" width="190.16695" height="29.06435" x="1745.5939" y="-1180.4572"/>
      <rect style="font-variation-settings:'wdth' 70,'wght' 600;display:inline;fill:#000;fill-opacity:1;stroke-width:1.24859;stroke-dasharray:none" id="rect636" width="190.16702" height="1.0000001" x="1745.5939" y="-1180.4572"/>
      <rect style="font-variation-settings:'wdth' 70,'wght' 600;display:inline;fill:#3c4449;fill-opacity:1;stroke-width:6.73132;stroke-dasharray:none" id="rect637" width="190.16695" height="29.06435" x="1745.5939" y="-1209.5215"/>
      <rect style="font-variation-settings:'wdth' 70,'wght' 600;display:inline;fill:#000;fill-opacity:1;stroke-width:1.24859;stroke-dasharray:none" id="rect639" width="190.16702" height="1.0000001" x="1745.5939" y="-1209.5215"/>
      <rect style="font-variation-settings:'wdth' 70,'wght' 600;display:inline;fill:#3a4146;fill-opacity:1;stroke-width:6.73132;stroke-dasharray:none" id="rect640" width="190.16695" height="29.06435" x="1745.5939" y="-1238.5858"/>
      <rect style="font-variation-settings:'wdth' 70,'wght' 600;display:inline;fill:#000;fill-opacity:1;stroke-width:1.24859;stroke-dasharray:none" id="rect641" width="190.16702" height="1.0000001" x="1745.5939" y="-1238.5858"/>
      <rect style="font-variation-settings:'wdth' 70,'wght' 600;display:inline;fill:#5c7075;fill-opacity:1;stroke-width:6.73132;stroke-dasharray:none" id="rect642" width="190.16695" height="29.06435" x="1534.874" y="-1180.4573"/>
      <rect style="font-variation-settings:'wdth' 70,'wght' 600;display:inline;fill:#000;fill-opacity:1;stroke-width:1.24859;stroke-dasharray:none" id="rect643" width="190.16702" height="1.0000001" x="1534.874" y="-1180.4573"/>
      <rect style="font-variation-settings:'wdth' 70,'wght' 600;display:inline;fill:#5e7378;fill-opacity:1;stroke-width:6.73132;stroke-dasharray:none" id="rect671" width="190.16695" height="29.06435" x="1534.874" y="-1209.5216"/>
      <rect style="font-variation-settings:'wdth' 70,'wght' 600;display:inline;fill:#000;fill-opacity:1;stroke-width:1.24859;stroke-dasharray:none" id="rect672" width="190.16702" height="1.0000001" x="1534.874" y="-1209.5216"/>
      <rect style="font-variation-settings:'wdth' 70,'wght' 600;display:inline;fill:#60767b;fill-opacity:1;stroke-width:6.73132;stroke-dasharray:none" id="rect673" width="190.16695" height="29.06435" x="1534.874" y="-1238.5859"/>
      <rect style="font-variation-settings:'wdth' 70,'wght' 600;display:inline;fill:#000;fill-opacity:1;stroke-width:1.24859;stroke-dasharray:none" id="rect674" width="190.16702" height="1.0000001" x="1534.874" y="-1238.5859"/>
      <path style="font-variation-settings:'wght' 700;fill:#6b858a;fill-opacity:1;stroke:#bec3c6;stroke-width:0" d="m 1725.0418,-1397.046 v 42.2027 h -190.168 l 0.4275,-212.0156 h 397.547 l 2.9124,212.0156 h -190.1669 l 2e-4,-42.2027 z" id="path684"/>
      <rect style="font-variation-settings:'wdth' 70,'wght' 600;display:inline;fill:#373e43;fill-opacity:1;stroke-width:6.73132;stroke-dasharray:none" id="rect684" width="190.16695" height="29.06435" x="1745.5939" y="-1267.6503"/>
      <rect style="font-variation-settings:'wdth' 70,'wght' 600;display:inline;fill:#000;fill-opacity:1;stroke-width:1.24859;stroke-dasharray:none" id="rect685" width="190.16702" height="1.0000001" x="1745.5939" y="-1267.6503"/>
      <rect style="font-variation-settings:'wdth' 70,'wght' 600;display:inline;fill:#62797e;fill-opacity:1;stroke-width:6.73132;stroke-dasharray:none" id="rect687" width="190.16695" height="29.06435" x="1534.874" y="-1267.6503"/>
      <rect style="font-variation-settings:'wdth' 70,'wght' 600;display:inline;fill:#647c81;fill-opacity:1;stroke-width:6.73132;stroke-dasharray:none" id="rect688" width="190.16695" height="29.06435" x="1534.874" y="-1296.7146"/>
      <rect style="font-variation-settings:'wdth' 70,'wght' 600;display:inline;fill:#667f84;fill-opacity:1;stroke-width:6.73132;stroke-dasharray:none" id="rect689" width="190.16695" height="29.06435" x="1534.874" y="-1325.7789"/>
      <rect style="font-variation-settings:'wdth' 70,'wght' 600;display:inline;fill:#688287;fill-opacity:1;stroke-width:6.73132;stroke-dasharray:none" id="rect721" width="190.16695" height="29.06435" x="1534.874" y="-1354.8433"/>
      <rect style="font-variation-settings:'wdth' 70,'wght' 600;display:inline;fill:#353c40;fill-opacity:1;stroke-width:6.73132;stroke-dasharray:none" id="rect722" width="190.16695" height="29.06435" x="1745.5939" y="-1296.7146"/>
      <rect style="font-variation-settings:'wdth' 70,'wght' 600;display:inline;fill:#333a3d;fill-opacity:1;stroke-width:6.73132;stroke-dasharray:none" id="rect723" width="190.16695" height="29.06435" x="1745.5939" y="-1325.7789"/>
      <rect style="font-variation-settings:'wdth' 70,'wght' 600;display:inline;fill:#31373a;fill-opacity:1;stroke-width:6.73132;stroke-dasharray:none" id="rect731" width="190.16695" height="29.06435" x="1745.5939" y="-1354.8433"/>
      <rect style="font-variation-settings:'wdth' 70,'wght' 600;display:inline;fill:#000;fill-opacity:1;stroke-width:1.24859;stroke-dasharray:none" id="rect733" width="190.16702" height="1.0000001" x="1745.5939" y="-1296.7146"/>
      <rect style="font-variation-settings:'wdth' 70,'wght' 600;display:inline;fill:#000;fill-opacity:1;stroke-width:1.24859;stroke-dasharray:none" id="rect737" width="190.16702" height="1.0000001" x="1745.5939" y="-1325.7789"/>
      <rect style="font-variation-settings:'wdth' 70,'wght' 600;display:inline;fill:#000;fill-opacity:1;stroke-width:1.24859;stroke-dasharray:none" id="rect739" width="190.16702" height="1.0000001" x="1534.874" y="-1267.6503"/>
      <rect style="font-variation-settings:'wdth' 70,'wght' 600;display:inline;fill:#000;fill-opacity:1;stroke-width:1.24859;stroke-dasharray:none" id="rect741" width="190.16702" height="1.0000001" x="1534.874" y="-1296.7146"/>
      <rect style="font-variation-settings:'wdth' 70,'wght' 600;display:inline;fill:#000;fill-opacity:1;stroke-width:1.24859;stroke-dasharray:none" id="rect742" width="190.16702" height="1.0000001" x="1534.874" y="-1325.7789"/>
      <rect style="font-variation-settings:'wdth' 70,'wght' 600;display:inline;fill:#000;fill-opacity:1;stroke-width:1.24859;stroke-dasharray:none" id="rect743" width="190.16702" height="1.0000001" x="1534.874" y="-1354.8433"/>
      <path style="font-variation-settings:'wdth' 70,'wght' 600;display:inline;opacity:1;fill:none;fill-opacity:1;stroke:#bec3c6;stroke-width:5;stroke-dasharray:none;stroke-opacity:1;marker-end:url(#Triangle)" d="m 1834.4278,-1340.3111 10e-5,334.2401" id="path743"/>
      <path style="font-variation-settings:'wdth' 70,'wght' 600;display:inline;opacity:1;fill:none;fill-opacity:1;stroke:#bec3c6;stroke-width:5;stroke-dasharray:none;stroke-opacity:1;marker-end:url(#Triangle)" d="M 1636.2079,-991.53894 V -1324.7789" id="path744"/>
      <rect style="font-variation-settings:'wght' 700;display:inline;fill:none;stroke:#bec3c6;stroke-width:10;stroke-opacity:1" id="rect744" width="20.552124" height="454.18738" x="1725.042" y="-1397.046" transform="translate(-1.7912403e-4)"/>
    </g>
    <g id="walls_2" transform="matrix(0.02439371,0,0,0.02439371,-0.02443957,244.19953)" style="display:inline">
      <path style="font-variation-settings:'wdth' 70,'wght' 600;fill:none;stroke:#bec3c6;stroke-width:35;stroke-linecap:butt;stroke-dasharray:none;stroke-opacity:1" d="m 847.11401,-3734.4929 v -36.8443 h 95.14282 v -511.8" id="path745"/>
      <path style="font-variation-settings:'wdth' 70,'wght' 600;fill:none;stroke:#bec3c6;stroke-width:55;stroke-linecap:butt;stroke-dasharray:none;stroke-opacity:1" d="m 1222.4543,-3963.2574 v -319.8798 H 103.81119 v 5756.0267 h 253.18885 l -1,304.1109 1274.84576,64.6031 7.1544,-109.1031" id="path746"/>
      <path style="font-variation-settings:'wdth' 70,'wght' 600;fill:none;stroke:#bec3c6;stroke-width:35;stroke-linecap:butt;stroke-dasharray:none;stroke-opacity:1" d="m 1222.4543,-3963.2574 v 135.7645" id="path747"/>
      <path style="font-variation-settings:'wdth' 70,'wght' 600;fill:none;stroke:#bec3c6;stroke-width:35;stroke-linecap:butt;stroke-dasharray:none;stroke-opacity:1" d="m 1222.4543,-3677.4929 v 808.5294" id="path748"/>
      <path style="font-variation-settings:'wdth' 70,'wght' 600;fill:none;stroke:#bec3c6;stroke-width:35;stroke-linecap:butt;stroke-dasharray:none;stroke-opacity:1" d="m 847.11401,-2537.0587 v -30.9048 h 95.14282 v -487.9598 0 H 103.81119" id="path751"/>
      <path style="font-variation-settings:'wdth' 70,'wght' 600;fill:none;stroke:#bec3c6;stroke-width:35;stroke-linecap:butt;stroke-dasharray:none;stroke-opacity:1" d="M 942.25683,-2185.7454 V -2342.325 H 847.11401" id="path752"/>
      <path style="font-variation-settings:'wdth' 70,'wght' 600;fill:none;stroke:#bec3c6;stroke-width:35;stroke-linecap:butt;stroke-dasharray:none;stroke-opacity:1" d="M 1042.3792,-2071.0164 H 103.81119" id="path753"/>
      <path style="font-variation-settings:'wdth' 70,'wght' 600;fill:none;stroke:#bec3c6;stroke-width:35;stroke-linecap:butt;stroke-dasharray:none;stroke-opacity:1" d="M 1222.4543,-2768.9635 V 747.72699" id="path754"/>
      <path style="font-variation-settings:'wdth' 70,'wght' 600;fill:none;stroke:#bec3c6;stroke-width:35;stroke-linecap:butt;stroke-dasharray:none;stroke-opacity:1" d="m 942.25683,-1950.6306 v 156.5796 h -95.14282" id="path755"/>
      <path style="font-variation-settings:'wdth' 70,'wght' 600;fill:none;stroke:#bec3c6;stroke-width:35;stroke-linecap:butt;stroke-dasharray:none;stroke-opacity:1" d="m 454.25678,-1080.782 -350.44559,-10e-5" id="path756"/>
      <path style="font-variation-settings:'wdth' 70,'wght' 600;fill:none;stroke:#bec3c6;stroke-width:35;stroke-linecap:butt;stroke-dasharray:none;stroke-opacity:1" d="m 847.11401,-1599.3173 v 42.5949 h 95.14282 v 1007.74395 h -95.14282 v 44.7338" id="path757"/>
      <path style="font-variation-settings:'wdth' 70,'wght' 600;fill:none;stroke:#bec3c6;stroke-width:35;stroke-linecap:butt;stroke-dasharray:none;stroke-opacity:1" d="m 847.11401,-399.89865 v 44.7337 h 95.14282 v 520.38923 h -95.14282 v 44.73375" id="path760"/>
      <path style="font-variation-settings:'wdth' 70,'wght' 600;fill:none;stroke:#bec3c6;stroke-width:35;stroke-linecap:butt;stroke-dasharray:none;stroke-opacity:1" d="M 942.25683,-107.12808 H 103.81119" id="path761"/>
      <path style="font-variation-settings:'wdth' 70,'wght' 600;fill:none;stroke:#bec3c6;stroke-width:35;stroke-linecap:butt;stroke-dasharray:none;stroke-opacity:1" d="m 942.25683,805.0177 v 335.3618" id="path762"/>
      <path style="font-variation-settings:'wdth' 70,'wght' 600;fill:none;stroke:#bec3c6;stroke-width:35;stroke-linecap:butt;stroke-dasharray:none;stroke-opacity:1" d="m 847.11401,-2387.0587 v 637.7414" id="path763"/>
      <path style="font-variation-settings:'wdth' 70,'wght' 600;fill:none;stroke:#bec3c6;stroke-width:35;stroke-linecap:butt;stroke-dasharray:none;stroke-opacity:1" d="m 942.25683,-2029.3516 v -83.3296" id="path764"/>
      <path style="font-variation-settings:'wdth' 70,'wght' 600;fill:none;stroke:#bec3c6;stroke-width:35;stroke-linecap:butt;stroke-dasharray:none;stroke-opacity:1" d="m 942.43998,-3963.2574 h 60.23752" id="path765"/>
      <path style="font-variation-settings:'wdth' 70,'wght' 600;fill:none;stroke:#bec3c6;stroke-width:35;stroke-linecap:butt;stroke-dasharray:none;stroke-opacity:1" d="M 1222.4543,-2929.4928 H 1623.341" id="path767"/>
      <path style="font-variation-settings:'wdth' 70,'wght' 600;fill:none;stroke:#bec3c6;stroke-width:35;stroke-linecap:butt;stroke-dasharray:none;stroke-opacity:1" d="M 1222.4543,-2732.113 H 1623.341 V -3963.2574 H 1137.0278" id="path768"/>
      <path style="font-variation-settings:'wdth' 70,'wght' 600;fill:none;stroke:#bec3c6;stroke-width:35;stroke-linecap:butt;stroke-dasharray:none;stroke-opacity:1" d="M 942.25683,969.87957 H 1042.3792" id="path769"/>
      <path style="font-variation-settings:'wdth' 70,'wght' 600;fill:none;stroke:#bec3c6;stroke-width:35;stroke-linecap:butt;stroke-dasharray:none;stroke-opacity:1" d="m 1222.4543,870.37956 h 282.5752" id="path770"/>
      <path style="font-variation-settings:'wdth' 70,'wght' 600;fill:none;stroke:#bec3c6;stroke-width:35;stroke-linecap:butt;stroke-dasharray:none;stroke-opacity:1" d="m 1196.3793,1257.8796 h 314.5803" id="path772"/>
      <path style="font-variation-settings:'wdth' 70,'wght' 600;fill:none;stroke:#bec3c6;stroke-width:35;stroke-linecap:butt;stroke-dasharray:none;stroke-opacity:1" d="m 1622.7243,1813.872 45.6061,-724.9991 m 8.564,-97.24949 17.0422,-296.74953" id="path773"/>
      <path style="font-variation-settings:'wdth' 70,'wght' 600;fill:none;stroke:#bec3c6;stroke-width:35;stroke-linecap:butt;stroke-dasharray:none;stroke-opacity:1" d="M 1505.0295,694.87388 V 967.22702" id="path774"/>
      <path style="font-variation-settings:'wdth' 70,'wght' 600;fill:none;stroke:#bec3c6;stroke-width:35;stroke-linecap:butt;stroke-dasharray:none;stroke-opacity:1" d="m 1192.3793,969.87957 h 345.1503" id="path775"/>
      <path style="font-variation-settings:'wdth' 70,'wght' 600;fill:none;stroke:#bec3c6;stroke-width:35;stroke-linecap:butt;stroke-dasharray:none;stroke-opacity:1" d="m 1637.5296,969.87957 h 39.3648" id="path776"/>
      <path style="font-variation-settings:'wdth' 70,'wght' 600;fill:none;stroke:#bec3c6;stroke-width:55;stroke-linecap:butt;stroke-dasharray:none;stroke-opacity:1" d="M 1977.7416,1883.2679 2055.6067,583.39683" id="path777"/>
      <path style="font-variation-settings:'wdth' 70,'wght' 600;fill:none;stroke:#bec3c6;stroke-width:35;stroke-linecap:butt;stroke-dasharray:none;stroke-opacity:1" d="m 1985.5259,1753.3179 -347.5257,-20.8175" id="path778"/>
      <path style="font-variation-settings:'wdth' 70,'wght' 600;fill:none;stroke:#bec3c6;stroke-width:35;stroke-linecap:butt;stroke-dasharray:none;stroke-opacity:1" d="M 2048.929,694.87388 H 1222.4543" id="path779"/>
      <path style="font-variation-settings:'wdth' 70,'wght' 600;fill:none;stroke:#bec3c6;stroke-width:35;stroke-linecap:butt;stroke-dasharray:none;stroke-opacity:1" d="m 1610.9596,1257.8796 h 46.7394" id="path781"/>
      <path style="font-variation-settings:'wdth' 70,'wght' 600;fill:none;stroke:#bec3c6;stroke-width:35;stroke-linecap:butt;stroke-dasharray:none;stroke-opacity:1" d="m 1325.819,1257.8796 v 568.2666" id="path782"/>
      <path style="font-variation-settings:'wdth' 70,'wght' 600;fill:none;stroke:#bec3c6;stroke-width:35;stroke-linecap:butt;stroke-dasharray:none;stroke-opacity:1" d="m 847.11401,-3195.5238 v -39.5109 h 95.14282 v -309.8577 H 103.81119" id="path785"/>
      <path style="font-variation-settings:'wdth' 70,'wght' 600;fill:none;stroke:#bec3c6;stroke-width:35;stroke-linecap:butt;stroke-dasharray:none;stroke-opacity:1" d="M 1222.4543,892.87956 V 847.72701" id="path793"/>
      <path style="font-variation-settings:'wdth' 70,'wght' 600;fill:none;stroke:#bec3c6;stroke-width:35;stroke-linecap:butt;stroke-dasharray:none;stroke-opacity:1" d="M 1222.4543,969.87957 V 942.72702" id="path796"/>
      <path style="font-variation-settings:'wdth' 70,'wght' 600;fill:none;stroke:#bec3c6;stroke-width:35;stroke-linecap:butt;stroke-dasharray:none;stroke-opacity:1" d="M 942.25683,1113.7755 H 103.81119" id="path797"/>
      <path style="font-variation-settings:'wdth' 70,'wght' 600;fill:none;stroke:#bec3c6;stroke-width:35;stroke-linecap:butt;stroke-dasharray:none;stroke-opacity:1" d="M 942.25683,624.01578 H 103.81119" id="path798"/>
      <path style="font-variation-settings:'wdth' 70,'wght' 600;fill:none;stroke:#bec3c6;stroke-width:35;stroke-linecap:butt;stroke-dasharray:none;stroke-opacity:1" d="m 847.11401,-3095.5238 v 39.6005" id="path104"/>
      <path style="font-variation-settings:'wdth' 70,'wght' 600;fill:none;stroke:#bec3c6;stroke-width:35;stroke-linecap:butt;stroke-dasharray:none;stroke-opacity:1" d="m 847.11401,-3584.4929 v 39.6005" id="path105"/>
      <path style="font-variation-settings:'wdth' 70,'wght' 600;fill:none;stroke:#bec3c6;stroke-width:35;stroke-linecap:butt;stroke-dasharray:none;stroke-opacity:1" d="m 942.25683,-1080.782 -190.44557,-10e-5" id="path106"/>
      <path style="font-variation-settings:'wdth' 70,'wght' 600;fill:none;stroke:#bec3c6;stroke-width:35;stroke-linecap:butt;stroke-dasharray:none;stroke-opacity:1" d="m 847.11401,359.95804 v 44.73371 h 95.14282 v 250.32589" id="path107"/>
      <path style="font-variation-settings:'wdth' 70,'wght' 600;fill:none;stroke:#bec3c6;stroke-width:35;stroke-linecap:butt;stroke-dasharray:none;stroke-opacity:1" d="M 942.25683,1806.7091 V 1257.8796 H 1096.3792" id="path108"/>
    </g>
    <g id="g836" transform="matrix(0.02439371,0,0,0.02439371,-0.02443957,51.489201)" style="display:inline">
      <g id="g834" style="display:inline" transform="matrix(0.98394638,0,0,0.98394638,-1330.9429,2765.8861)">
        <rect style="font-variation-settings:'wdth' 70,'wght' 600;fill:none;fill-opacity:1;stroke:#d6d7de;stroke-width:4.78791;stroke-linejoin:miter;stroke-dasharray:none;stroke-opacity:1" id="rect834" width="95.212135" height="95.212151" x="2405.0667" y="979.80487" ry="9.1410179"/>
        <path d="m 2427.7505,1062.6135 h 12.6169 v -23.8318 h 6.2306 v -17.757 c 0,-2.6337 -0.8992,-4.8497 -2.6976,-6.6481 -1.7985,-1.7985 -4.0665,-2.6977 -6.804,-2.6977 h -6.2306 c -2.7375,0 -4.9794,0.8992 -6.7258,2.6977 -1.7466,1.7984 -2.6199,4.0144 -2.6199,6.6481 v 17.757 h 6.2304 z m 6.1958,-54.9845 c 2.1478,0 3.9626,-0.7033 5.4445,-2.1098 1.4819,-1.4064 2.2228,-3.2356 2.2228,-5.4875 0,-2.148 -0.7292,-3.93697 -2.1877,-5.3669 -1.4583,-1.42987 -3.2615,-2.1448 -5.4096,-2.1448 -2.1481,0 -3.937,0.70327 -5.3669,2.1098 -1.4299,1.4064 -2.1449,3.18367 -2.1449,5.3318 0,2.2518 0.7033,4.0926 2.11,5.5225 1.4064,1.4299 3.1837,2.1449 5.3318,2.1449 z m 28.3838,9.9689 h 20.0934 l -9.9688,-16.1994 z m 10.1246,35.6697 9.9688,-16.1993 h -20.0934 z" id="path834" style="fill:#d5d6dd;fill-opacity:1;stroke-width:0;stroke-dasharray:none"/>
      </g>
      <path d="m 1125.4887,9492.0137 v -31.8653 h -10.1036 v -32.2539 q 0,-3.5621 2.5583,-6.1204 2.5583,-2.5583 6.1205,-2.5583 h 19.9482 q 3.5621,0 6.1204,2.5583 2.5583,2.5583 2.5583,6.1204 v 32.2539 h -10.1036 v 31.8653 z m 8.5596,-82.6425 q -3.6891,0 -6.1891,-2.5544 -2.5,-2.5545 -2.5,-6.114 0,-3.6891 2.4896,-6.1891 2.4899,-2.5 6.1788,-2.5 3.6891,0 6.1891,2.4896 2.5,2.4898 2.5,6.1788 0,3.5596 -2.4896,6.1244 -2.4897,2.5647 -6.1788,2.5647 z" id="path835" style="display:inline;fill:#fff;fill-opacity:.798742;stroke-width:.129534"/>
      <path d="m 1482.6916,9492.0137 v -30.052 h -14.7668 l 14.2098,-39.446 q 1.121,-2.898 3.8366,-4.588 2.7155,-1.691 5.7878,-1.691 3.0723,0 5.7878,1.691 2.7156,1.69 3.8542,4.577 l 14.1922,39.457 h -14.7668 v 30.052 z m 9.0778,-82.642 q -3.6892,0 -6.1892,-2.551 -2.5,-2.5502 -2.5,-6.1178 0,-3.6891 2.4897,-6.1891 2.4899,-2.5 6.1787,-2.5 3.6892,0 6.1892,2.4896 2.5,2.4898 2.5,6.114 0,3.6244 -2.4897,6.1893 -2.4896,2.565 -6.1787,2.565 z" id="path836" style="display:inline;fill:#fff;fill-opacity:.803459;stroke-width:.129534"/>
    </g>
    <path id="roomsNames_2" d="m 389.35669,53.593026 v -4.368 q 3.84,-3.408 6.816,-6.384 3.024,-2.976 4.704,-5.52 1.728,-2.544 1.728,-4.656 0,-2.256 -1.152,-3.408 -1.152,-1.2 -3.168,-1.2 -1.632,0 -2.976,0.96 -1.296,0.912 -2.448,2.16 l -3.696,-3.648 q 2.208,-2.496 4.512,-3.744 2.352,-1.248 5.568,-1.248 2.976,0 5.232,1.2 2.304,1.2 3.552,3.36 1.296,2.16 1.296,5.088 0,2.736 -1.488,5.376 -1.44,2.592 -3.84,5.184 -2.4,2.592 -5.088,5.28 1.152,-0.144 2.592,-0.24 1.44,-0.144 2.496,-0.144 h 6.816 v 5.952 z m 26.92799,0 v -5.712 h 6.624 v -17.616 h -5.712 v -4.368 q 2.496,-0.48 4.224,-1.152 1.776,-0.672 3.36,-1.632 h 5.184 v 24.768 h 5.712 v 5.712 z m 25.344,0 v -5.712 h 6.624 v -17.616 h -5.712 v -4.368 q 2.496,-0.48 4.224,-1.152 1.776,-0.672 3.36,-1.632 h 5.184 v 24.768 h 5.712 v 5.712 z m -41.088,-60.0000002 V -37.702974 h 19.728 v 5.952 h -12.672 v 7.248 h 10.848 v 5.952 h -10.848 v 12.1439998 z m 37.392,0.576 q -4.224,0 -7.44,-1.968 -3.168,-1.968 -4.992,-5.6159998 -1.776,-3.648 -1.776,-8.784 0,-5.088 1.776,-8.688 1.824,-3.6 4.992,-5.472 3.216,-1.92 7.44,-1.92 4.224,0 7.44,1.92 3.216,1.872 4.992,5.472 1.776,3.6 1.776,8.688 0,5.136 -1.776,8.784 -1.776,3.6479998 -4.992,5.6159998 -3.216,1.968 -7.44,1.968 z m 0,-6.0959998 q 2.16,0 3.696,-1.248 1.584,-1.296 2.4,-3.6 0.864,-2.304 0.864,-5.424 0,-3.12 -0.864,-5.328 -0.816,-2.256 -2.4,-3.408 -1.536,-1.2 -3.696,-1.2 -2.112,0 -3.696,1.2 -1.584,1.152 -2.448,3.408 -0.816,2.208 -0.816,5.328 0,3.12 0.816,5.424 0.864,2.304 2.448,3.6 1.584,1.248 3.696,1.248 z m -5.328,-28.08 q -1.44,0 -2.4,-0.96 -0.96,-0.96 -0.96,-2.4 0,-1.44 0.96,-2.4 0.96,-0.96 2.4,-0.96 1.488,0 2.4,0.96 0.96,0.96 0.96,2.4 0,1.44 -0.96,2.4 -0.912,0.96 -2.4,0.96 z m 10.656,0 q -1.44,0 -2.4,-0.96 -0.96,-0.96 -0.96,-2.4 0,-1.44 0.96,-2.4 0.96,-0.96 2.4,-0.96 1.488,0 2.4,0.96 0.96,0.96 0.96,2.4 0,1.44 -0.96,2.4 -0.912,0.96 -2.4,0.96 z M -794.73237,-370.72383 v -17.472 q 15.36,-13.632 27.264,-25.536 12.096,-11.904 18.816,-22.08 6.912,-10.176 6.912,-18.624 0,-9.024 -4.608,-13.632 -4.608,-4.8 -12.672,-4.8 -6.528,0 -11.904,3.84 -5.184,3.648 -9.792,8.64 l -14.784,-14.592 q 8.832,-9.984 18.048,-14.976 9.408,-4.992 22.272,-4.992 11.904,0 20.928,4.8 9.216,4.8 14.208,13.44 5.184,8.64 5.184,20.352 0,10.944 -5.952,21.504 -5.76,10.368 -15.36,20.736 -9.6,10.368 -20.352,21.12 4.608,-0.576 10.368,-0.96 5.76,-0.576 9.984,-0.576 h 27.264 v 23.808 z m 144.95998,2.304 q -19.584,0 -31.68,-16.32 -11.904,-16.32 -11.904,-47.424 0,-31.296 11.904,-47.04 12.096,-15.744 31.68,-15.744 19.584,0 31.488,15.936 12.096,15.744 12.096,46.848 0,31.104 -12.096,47.424 -11.904,16.32 -31.488,16.32 z m 0,-21.888 q 4.8,0 8.64,-3.456 3.84,-3.648 5.952,-12.672 2.304,-9.216 2.304,-25.728 0,-16.704 -2.304,-25.536 -2.112,-8.832 -5.952,-12.096 -3.84,-3.264 -8.64,-3.264 -4.8,0 -8.64,3.264 -3.84,3.264 -6.144,12.096 -2.112,8.832 -2.112,25.536 0,16.512 2.112,25.728 2.304,9.024 6.144,12.672 3.84,3.456 8.64,3.456 z m 104.63998,21.888 q -8.832,0 -17.088,-3.456 -8.256,-3.456 -14.784,-10.752 -6.528,-7.296 -10.368,-18.624 -3.84,-11.52 -3.84,-27.648 0,-17.088 4.032,-29.568 4.032,-12.48 10.944,-20.544 6.912,-8.064 15.744,-11.904 8.832,-4.032 18.624,-4.032 12.096,0 20.928,4.416 8.832,4.224 14.592,10.176 l -14.784,16.896 q -3.264,-3.456 -8.448,-5.952 -5.184,-2.688 -10.56,-2.688 -6.912,0 -12.864,4.032 -5.76,4.032 -9.216,13.632 -3.264,9.408 -3.264,25.536 0,15.168 2.688,23.808 2.88,8.448 7.488,12.096 4.608,3.456 9.6,3.456 4.224,0 7.68,-2.112 3.456,-2.112 5.568,-6.336 2.112,-4.416 2.112,-11.328 0,-6.528 -2.112,-10.368 -2.112,-3.84 -5.76,-5.568 -3.456,-1.728 -8.064,-1.728 -4.8,0 -9.984,2.88 -4.992,2.88 -9.024,10.176 l -1.344,-18.432 q 4.8,-7.104 12.288,-10.752 7.488,-3.84 13.44,-3.84 10.368,0 18.624,4.032 8.256,4.032 12.864,12.48 4.8,8.256 4.8,21.12 0,12.672 -5.568,21.888 -5.376,9.216 -14.592,14.208 -9.216,4.8 -20.352,4.8 z m -204.86399,-242.304 v -125.184 h 78.912 v 23.808 h -50.688 v 28.992 h 43.392 v 23.808 h -43.392 v 48.576 z m 149.56799,2.304 q -16.896,0 -29.76,-7.872 -12.672,-7.872 -19.968,-22.464 -7.104,-14.592 -7.104,-35.136 0,-20.352 7.104,-34.752 7.296,-14.4 19.968,-21.888 12.864,-7.68 29.76,-7.68 16.896,0 29.76,7.68 12.864,7.488 19.968,21.888 7.104,14.4 7.104,34.752 0,20.544 -7.104,35.136 -7.104,14.592 -19.968,22.464 -12.864,7.872 -29.76,7.872 z m 0,-24.384 q 8.64,0 14.784,-4.992 6.336,-5.184 9.6,-14.4 3.456,-9.216 3.456,-21.696 0,-12.48 -3.456,-21.312 -3.264,-9.024 -9.6,-13.632 -6.144,-4.8 -14.784,-4.8 -8.448,0 -14.784,4.8 -6.336,4.608 -9.792,13.632 -3.264,8.832 -3.264,21.312 0,12.48 3.264,21.696 3.456,9.216 9.792,14.4 6.336,4.992 14.784,4.992 z m -21.312,-112.32 q -5.76,0 -9.6,-3.84 -3.84,-3.84 -3.84,-9.6 0,-5.76 3.84,-9.6 3.84,-3.84 9.6,-3.84 5.952,0 9.6,3.84 3.84,3.84 3.84,9.6 0,5.76 -3.84,9.6 -3.648,3.84 -9.6,3.84 z m 42.624,0 q -5.76,0 -9.6,-3.84 -3.84,-3.84 -3.84,-9.6 0,-5.76 3.84,-9.6 3.84,-3.84 9.6,-3.84 5.952,0 9.6,3.84 3.84,3.84 3.84,9.6 0,5.76 -3.84,9.6 -3.648,3.84 -9.6,3.84 z m -142.99198,885.10781 v -8.736 q 7.68,-6.816 13.632,-12.768 6.048,-5.952 9.408,-11.04 3.456,-5.088 3.456,-9.312 0,-4.512 -2.304,-6.816 -2.304,-2.4 -6.336,-2.4 -3.264,0 -5.952,1.92 -2.592,1.824 -4.896,4.32 l -7.392,-7.296 q 4.416,-4.992 9.024,-7.488 4.704,-2.496 11.136,-2.496 5.952,0 10.464,2.4 4.608,2.4 7.104,6.72 2.592,4.32 2.592,10.176 0,5.472 -2.976,10.752 -2.88,5.184 -7.68,10.368 -4.8,5.184 -10.176,10.56 2.304,-0.288 5.184,-0.48 2.88,-0.288 4.992,-0.288 h 13.632 v 11.904 z m 72.47999,1.152 q -9.792,0 -15.84,-8.16 -5.952,-8.16 -5.952,-23.712 0,-15.648 5.952,-23.52 6.048,-7.872 15.84,-7.872 9.792,0 15.744,7.968 6.048,7.872 6.048,23.424 0,15.552 -6.048,23.712 -5.952,8.16 -15.744,8.16 z m 0,-10.944 q 2.4,0 4.32,-1.728 1.92,-1.824 2.976,-6.336 1.152,-4.608 1.152,-12.864 0,-8.352 -1.152,-12.768 -1.056,-4.416 -2.976,-6.048 -1.92,-1.632 -4.32,-1.632 -2.4,0 -4.32,1.632 -1.92,1.632 -3.072,6.048 -1.056,4.416 -1.056,12.768 0,8.256 1.056,12.864 1.152,4.512 3.072,6.336 1.92,1.728 4.32,1.728 z m 39.74398,9.792 q 0.48,-7.584 1.536,-13.92 1.056,-6.432 2.976,-12.192 2.016,-5.76 5.088,-11.328 3.072,-5.568 7.584,-11.616 h -27.36 v -11.904 h 42.432 v 8.64 q -5.376,6.528 -8.832,12.192 -3.36,5.664 -5.184,11.52 -1.824,5.856 -2.688,12.768 -0.864,6.912 -1.344,15.84 z m -89.85599,-120 v -62.592 h 39.456 v 11.904 h -25.344 v 14.496 h 21.696 v 11.9039997 h -21.696 V 19.98398 Z m 74.784,1.152 q -8.448,0 -14.88,-3.936 -6.336,-3.936 -9.984,-11.232 -3.552,-7.296 -3.552,-17.568 0,-10.176 3.552,-17.376 3.648,-7.2 9.984,-10.944 6.432,-3.84 14.88,-3.84 8.448,0 14.88,3.84 6.432,3.744 9.984,10.944 3.552,7.2 3.552,17.376 0,10.272 -3.552,17.568 -3.552,7.296 -9.984,11.232 -6.432,3.936 -14.88,3.936 z m 0,-12.192 q 4.32,0 7.392,-2.496 3.168,-2.592 4.8,-7.2 1.728,-4.6080003 1.728,-10.848 0,-6.24 -1.728,-10.656 -1.632,-4.512 -4.8,-6.816 -3.072,-2.4 -7.392,-2.4 -4.224,0 -7.392,2.4 -3.168,2.304 -4.896,6.816 -1.632,4.416 -1.632,10.656 0,6.2399997 1.632,10.848 1.728,4.608 4.896,7.2 3.168,2.496 7.392,2.496 z m -10.656,-56.16 q -2.88,0 -4.8,-1.92 -1.92,-1.92 -1.92,-4.8 0,-2.88 1.92,-4.8 1.92,-1.92 4.8,-1.92 2.976,0 4.8,1.92 1.92,1.92 1.92,4.8 0,2.88 -1.92,4.8 -1.824,1.92 -4.8,1.92 z m 21.312,0 q -2.88,0 -4.8,-1.92 -1.92,-1.92 -1.92,-4.8 0,-2.88 1.92,-4.8 1.92,-1.92 4.8,-1.92 2.976,0 4.8,1.92 1.92,1.92 1.92,4.8 0,2.88 -1.92,4.8 -1.824,1.92 -4.8,1.92 z M -793.58037,-1223.1228 v -17.472 q 15.36,-13.632 27.264,-25.536 12.096,-11.904 18.816,-22.08 6.912,-10.176 6.912,-18.624 0,-9.024 -4.608,-13.632 -4.608,-4.8 -12.672,-4.8 -6.528,0 -11.904,3.84 -5.184,3.648 -9.792,8.64 l -14.784,-14.592 q 8.832,-9.984 18.048,-14.976 9.408,-4.992 22.272,-4.992 11.904,0 20.928,4.8 9.216,4.8 14.208,13.44 5.184,8.64 5.184,20.352 0,10.944 -5.952,21.504 -5.76,10.368 -15.36,20.736 -9.6,10.368 -20.352,21.12 4.608,-0.576 10.368,-0.96 5.76,-0.576 9.984,-0.576 h 27.264 v 23.808 z m 144.95998,2.304 q -19.584,0 -31.68,-16.32 -11.904,-16.32 -11.904,-47.424 0,-31.296 11.904,-47.04 12.096,-15.744 31.68,-15.744 19.584,0 31.488,15.936 12.096,15.744 12.096,46.848 0,31.104 -12.096,47.424 -11.904,16.32 -31.488,16.32 z m 0,-21.888 q 4.8,0 8.64,-3.456 3.84,-3.648 5.952,-12.672 2.304,-9.216 2.304,-25.728 0,-16.704 -2.304,-25.536 -2.112,-8.832 -5.952,-12.096 -3.84,-3.264 -8.64,-3.264 -4.8,0 -8.64,3.264 -3.84,3.264 -6.144,12.096 -2.112,8.832 -2.112,25.536 0,16.512 2.112,25.728 2.304,9.024 6.144,12.672 3.84,3.456 8.64,3.456 z m 98.11198,21.888 q -9.984,0 -18.048,-2.304 -7.872,-2.304 -14.016,-6.144 -6.144,-3.84 -10.944,-8.64 l 12.672,-17.856 q 5.568,4.992 12.096,8.64 6.528,3.456 14.208,3.456 6.144,0 10.752,-2.112 4.608,-2.304 7.104,-6.528 2.688,-4.224 2.688,-10.368 0,-9.216 -5.376,-14.016 -5.376,-4.8 -13.824,-4.8 -5.184,0 -8.832,1.344 -3.648,1.344 -9.216,4.8 l -12.672,-8.064 3.456,-61.632 h 69.12 v 23.808 h -44.736 l -2.112,22.848 q 3.648,-1.536 6.72,-2.112 3.072,-0.768 6.912,-0.768 10.56,0 19.392,4.032 8.832,4.032 14.016,12.48 5.376,8.448 5.376,21.312 0,13.632 -6.336,23.232 -6.144,9.408 -16.32,14.4 -10.176,4.992 -22.08,4.992 z m -198.33599,-242.304 v -125.184 h 78.912 v 23.808 h -50.688 v 28.992 h 43.392 v 23.808 h -43.392 v 48.576 z m 149.56799,2.304 q -16.896,0 -29.76,-7.872 -12.672,-7.872 -19.968,-22.464 -7.104,-14.592 -7.104,-35.136 0,-20.352 7.104,-34.752 7.296,-14.4 19.968,-21.888 12.864,-7.68 29.76,-7.68 16.896,0 29.76,7.68 12.864,7.488 19.968,21.888 7.104,14.4 7.104,34.752 0,20.544 -7.104,35.136 -7.104,14.592 -19.968,22.464 -12.864,7.872 -29.76,7.872 z m 0,-24.384 q 8.64,0 14.784,-4.992 6.336,-5.184 9.6,-14.4 3.456,-9.216 3.456,-21.696 0,-12.48 -3.456,-21.312 -3.264,-9.024 -9.6,-13.632 -6.144,-4.8 -14.784,-4.8 -8.448,0 -14.784,4.8 -6.336,4.608 -9.792,13.632 -3.264,8.832 -3.264,21.312 0,12.48 3.264,21.696 3.456,9.216 9.792,14.4 6.336,4.992 14.784,4.992 z m -21.312,-112.32 q -5.76,0 -9.6,-3.84 -3.84,-3.84 -3.84,-9.6 0,-5.76 3.84,-9.6 3.84,-3.84 9.6,-3.84 5.952,0 9.6,3.84 3.84,3.84 3.84,9.6 0,5.76 -3.84,9.6 -3.648,3.84 -9.6,3.84 z m 42.624,0 q -5.76,0 -9.6,-3.84 -3.84,-3.84 -3.84,-9.6 0,-5.76 3.84,-9.6 3.84,-3.84 9.6,-3.84 5.952,0 9.6,3.84 3.84,3.84 3.84,9.6 0,5.76 -3.84,9.6 -3.648,3.84 -9.6,3.84 z m -217.91996,-607.5441 v -17.472 q 15.36,-13.632 27.264,-25.536 12.096,-11.904 18.816,-22.08 6.912,-10.176 6.912,-18.624 0,-9.024 -4.608,-13.632 -4.608,-4.8 -12.672,-4.8 -6.528,0 -11.904,3.84 -5.184,3.648 -9.792,8.64 l -14.784,-14.592 q 8.832,-9.984 18.048,-14.976 9.408,-4.992 22.272,-4.992 11.904,0 20.928,4.8 9.216,4.8 14.208,13.44 5.184,8.64 5.184,20.352 0,10.944 -5.952,21.504 -5.76,10.368 -15.36,20.736 -9.6,10.368 -20.352,21.12 4.608,-0.576 10.368,-0.96 5.76,-0.576 9.984,-0.576 h 27.264 v 23.808 z m 144.95998,2.304 q -19.584,0 -31.68,-16.32 -11.904,-16.32 -11.904,-47.424 0,-31.296 11.904,-47.04 12.096,-15.744 31.68,-15.744 19.584,0 31.488,15.936 12.096,15.744 12.096,46.848 0,31.104 -12.096,47.424 -11.904,16.32 -31.488,16.32 z m 0,-21.888 q 4.8,0 8.64,-3.456 3.84,-3.648 5.952,-12.672 2.304,-9.216 2.304,-25.728 0,-16.704 -2.304,-25.536 -2.112,-8.832 -5.952,-12.096 -3.84,-3.264 -8.64,-3.264 -4.8,0 -8.64,3.264 -3.84,3.264 -6.144,12.096 -2.112,8.832 -2.112,25.536 0,16.512 2.112,25.728 2.304,9.024 6.144,12.672 3.84,3.456 8.64,3.456 z m 107.13598,19.584 v -70.464 q 0,-5.76 0.384,-13.632 0.576,-7.872 0.768,-13.632 h -0.768 q -2.304,4.992 -4.8,10.176 -2.496,4.992 -5.184,10.368 l -16.128,26.496 h 66.048 v 21.504 h -93.12 v -19.392 l 44.544,-73.344 h 34.56 v 121.92 z m -207.35999,-240 v -125.184 h 78.912 v 23.808 h -50.688 v 28.992 h 43.392 v 23.808 h -43.392 v 48.576 z m 149.56799,2.304 q -16.896,0 -29.76,-7.872 -12.672,-7.872 -19.968,-22.464 -7.104,-14.592 -7.104,-35.136 0,-20.352 7.104,-34.752 7.296,-14.4 19.968,-21.888 12.864,-7.68 29.76,-7.68 16.896,0 29.76,7.68 12.864,7.488 19.968,21.888 7.104,14.4 7.104,34.752 0,20.544 -7.104,35.136 -7.104,14.592 -19.968,22.464 -12.864,7.872 -29.76,7.872 z m 0,-24.384 q 8.64,0 14.784,-4.992 6.336,-5.184 9.6,-14.4 3.456,-9.216 3.456,-21.696 0,-12.48 -3.456,-21.312 -3.264,-9.024 -9.6,-13.632 -6.144,-4.8 -14.784,-4.8 -8.448,0 -14.784,4.8 -6.336,4.608 -9.792,13.632 -3.264,8.832 -3.264,21.312 0,12.48 3.264,21.696 3.456,9.216 9.792,14.4 6.336,4.992 14.784,4.992 z m -21.312,-112.32 q -5.76,0 -9.6,-3.84 -3.84,-3.84 -3.84,-9.6 0,-5.76 3.84,-9.6 3.84,-3.84 9.6,-3.84 5.952,0 9.6,3.84 3.84,3.84 3.84,9.6 0,5.76 -3.84,9.6 -3.648,3.84 -9.6,3.84 z m 42.624,0 q -5.76,0 -9.6,-3.84 -3.84,-3.84 -3.84,-9.6 0,-5.76 3.84,-9.6 3.84,-3.84 9.6,-3.84 5.952,0 9.6,3.84 3.84,3.84 3.84,9.6 0,5.76 -3.84,9.6 -3.648,3.84 -9.6,3.84 z m -141.74397,-1449.8527 v -8.736 q 7.68,-6.816 13.632,-12.768 6.048,-5.952 9.408,-11.04 3.456,-5.088 3.456,-9.312 0,-4.512 -2.304,-6.816 -2.304,-2.4 -6.336,-2.4 -3.264,0 -5.952,1.92 -2.592,1.824 -4.896,4.32 l -7.392,-7.296 q 4.416,-4.992 9.024,-7.488 4.704,-2.496 11.136,-2.496 5.952,0 10.464,2.4 4.608,2.4 7.104,6.72 2.592,4.32 2.592,10.176 0,5.472 -2.976,10.752 -2.88,5.184 -7.68,10.368 -4.8,5.184 -10.176,10.56 2.304,-0.288 5.184,-0.48 2.88,-0.288 4.992,-0.288 h 13.632 v 11.904 z m 72.47999,1.152 q -9.792,0 -15.84,-8.16 -5.952,-8.16 -5.952,-23.712 0,-15.648 5.952,-23.52 6.048,-7.872 15.84,-7.872 9.792,0 15.744,7.968 6.048,7.872 6.048,23.424 0,15.552 -6.048,23.712 -5.952,8.16 -15.744,8.16 z m 0,-10.944 q 2.4,0 4.32,-1.728 1.92,-1.824 2.976,-6.336 1.152,-4.608 1.152,-12.864 0,-8.352 -1.152,-12.768 -1.056,-4.416 -2.976,-6.048 -1.92,-1.632 -4.32,-1.632 -2.4,0 -4.32,1.632 -1.92,1.632 -3.072,6.048 -1.056,4.416 -1.056,12.768 0,8.256 1.056,12.864 1.152,4.512 3.072,6.336 1.92,1.728 4.32,1.728 z m 28.89598,9.792 v -8.736 q 7.68,-6.816 13.632,-12.768 6.048,-5.952 9.408,-11.04 3.456,-5.088 3.456,-9.312 0,-4.512 -2.304,-6.816 -2.304,-2.4 -6.336,-2.4 -3.264,0 -5.952,1.92 -2.592,1.824 -4.896,4.32 l -7.392,-7.296 q 4.416,-4.992 9.024,-7.488 4.704,-2.496 11.136,-2.496 5.952,0 10.464,2.4 4.608,2.4 7.104,6.72 2.592,4.32 2.592,10.176 0,5.472 -2.976,10.752 -2.88,5.184 -7.68,10.368 -4.8,5.184 -10.176,10.56 2.304,-0.288 5.184,-0.48 2.88,-0.288 4.992,-0.288 h 13.632 v 11.904 z m -79.00799,-120 v -62.592 h 39.456 v 11.904 h -25.344 v 14.496 h 21.696 v 11.904 h -21.696 v 24.288 z m 74.784,1.152 q -8.448,0 -14.88,-3.936 -6.336,-3.936 -9.984,-11.232 -3.552,-7.296 -3.552,-17.568 0,-10.176 3.552,-17.376 3.648,-7.2 9.984,-10.944 6.432,-3.84 14.88,-3.84 8.448,0 14.88,3.84 6.432,3.744 9.984,10.944 3.552,7.2 3.552,17.376 0,10.272 -3.552,17.568 -3.552,7.296 -9.984,11.232 -6.432,3.936 -14.88,3.936 z m 0,-12.192 q 4.32,0 7.392,-2.496 3.168,-2.592 4.8,-7.2 1.728,-4.608 1.728,-10.848 0,-6.24 -1.728,-10.656 -1.632,-4.512 -4.8,-6.816 -3.072,-2.4 -7.392,-2.4 -4.224,0 -7.392,2.4 -3.168,2.304 -4.896,6.816 -1.632,4.416 -1.632,10.656 0,6.24 1.632,10.848 1.728,4.608 4.896,7.2 3.168,2.496 7.392,2.496 z m -10.656,-56.16 q -2.88,0 -4.8,-1.92 -1.92,-1.92 -1.92,-4.8 0,-2.88 1.92,-4.8 1.92,-1.92 4.8,-1.92 2.976,0 4.8,1.92 1.92,1.92 1.92,4.8 0,2.88 -1.92,4.8 -1.824,1.92 -4.8,1.92 z m 21.312,0 q -2.88,0 -4.8,-1.92 -1.92,-1.92 -1.92,-4.8 0,-2.88 1.92,-4.8 1.92,-1.92 4.8,-1.92 2.976,0 4.8,1.92 1.92,1.92 1.92,4.8 0,2.88 -1.92,4.8 -1.824,1.92 -4.8,1.92 z m 815.84768,623.5569 v -5.824 q 5.12,-4.544 9.088,-8.512 4.032,-3.968 6.272,-7.36 2.304,-3.392 2.304,-6.208 0,-3.008 -1.536,-4.544 -1.536,-1.6 -4.224,-1.6 -2.176,0 -3.968,1.28 -1.728,1.216 -3.264,2.88 l -4.928,-4.864 q 2.944,-3.328 6.016,-4.992 3.136,-1.664 7.424,-1.664 3.968,0 6.976,1.6 3.072,1.6 4.736,4.48 1.728,2.88 1.728,6.784 0,3.648 -1.984,7.168 -1.92,3.456 -5.12,6.912 -3.2,3.456 -6.784,7.04 1.536,-0.192 3.456,-0.32 1.92,-0.192 3.328,-0.192 h 9.088 v 7.936 z m 48.31999,0.768 q -6.528,0 -10.56,-5.44 -3.968,-5.44 -3.968,-15.808 0,-10.432 3.968,-15.68 4.032,-5.248 10.56,-5.248 6.528,0 10.496,5.312 4.032,5.248 4.032,15.616 0,10.368 -4.032,15.808 -3.968,5.44 -10.496,5.44 z m 0,-7.296 q 1.6,0 2.88,-1.152 1.28,-1.216 1.984,-4.224 0.768,-3.072 0.768,-8.576 0,-5.568 -0.768,-8.512 -0.704,-2.944 -1.984,-4.032 -1.28,-1.088 -2.88,-1.088 -1.6,0 -2.88,1.088 -1.28,1.088 -2.048,4.032 -0.704,2.944 -0.704,8.512 0,5.504 0.704,8.576 0.768,3.008 2.048,4.224 1.28,1.152 2.88,1.152 z m 31.552,7.296 q -4.032,0 -6.976,-1.472 -2.944,-1.472 -4.928,-3.392 l 4.992,-5.632 q 1.024,1.152 2.752,2.048 1.792,0.832 3.52,0.832 2.432,0 4.288,-1.344 1.92,-1.344 3.008,-4.48 1.152,-3.2 1.152,-8.576 0,-5.056 -0.96,-7.872 -0.896,-2.88 -2.432,-4.032 -1.472,-1.216 -3.2,-1.216 -1.344,0 -2.56,0.704 -1.152,0.704 -1.856,2.112 -0.704,1.408 -0.704,3.776 0,2.112 0.704,3.456 0.704,1.28 1.92,1.856 1.216,0.576 2.752,0.576 1.6,0 3.264,-0.96 1.664,-1.024 3.008,-3.392 l 0.448,6.144 q -1.536,2.24 -4.032,3.584 -2.496,1.28 -4.544,1.28 -3.456,0 -6.208,-1.344 -2.752,-1.344 -4.352,-4.096 -1.536,-2.816 -1.536,-7.104 0,-4.224 1.856,-7.296 1.856,-3.072 4.928,-4.672 3.072,-1.664 6.72,-1.664 3.008,0 5.76,1.152 2.752,1.152 4.864,3.584 2.176,2.432 3.456,6.272 1.344,3.776 1.344,9.152 0,5.696 -1.408,9.856 -1.344,4.16 -3.648,6.848 -2.304,2.688 -5.248,4.032 -2.944,1.28 -6.144,1.28 z m -64.96,-80.768 v -41.728 h 26.304 v 7.936 h -16.896 v 9.664 h 14.464 v 7.936 h -14.464 v 16.192 z m 49.856,0.768 q -5.632,0 -9.92,-2.624 -4.224,-2.624 -6.656,-7.488 -2.368,-4.864 -2.368,-11.712 0,-6.784 2.368,-11.584 2.432,-4.8 6.656,-7.296 4.288,-2.56 9.92,-2.56 5.632,0 9.92,2.56 4.288,2.496 6.656,7.296 2.368,4.8 2.368,11.584 0,6.848 -2.368,11.712 -2.368,4.864 -6.656,7.488 -4.288,2.624 -9.92,2.624 z m 0,-8.128 q 2.88,0 4.928,-1.664 2.112,-1.728 3.2,-4.8 1.152,-3.072 1.152,-7.232 0,-4.16 -1.152,-7.104 -1.088,-3.008 -3.2,-4.544 -2.048,-1.6 -4.928,-1.6 -2.816,0 -4.928,1.6 -2.112,1.536 -3.264,4.544 -1.088,2.944 -1.088,7.104 0,4.16 1.088,7.232 1.152,3.072 3.264,4.8 2.112,1.664 4.928,1.664 z m -7.104,-37.44 q -1.92,0 -3.2,-1.28 -1.28,-1.28 -1.28,-3.2 0,-1.92 1.28,-3.2 1.28,-1.28 3.2,-1.28 1.984,0 3.2,1.28 1.28,1.28 1.28,3.2 0,1.92 -1.28,3.2 -1.216,1.28 -3.2,1.28 z m 14.208,0 q -1.92,0 -3.2,-1.28 -1.28,-1.28 -1.28,-3.2 0,-1.92 1.28,-3.2 1.28,-1.28 3.2,-1.28 1.984,0 3.2,1.28 1.28,1.28 1.28,3.2 0,1.92 -1.28,3.2 -1.216,1.28 -3.2,1.28 z M 153.78354,4.131026 v -4.368 q 3.84,-3.408 6.816,-6.384 3.024,-2.976 4.704,-5.52 1.728,-2.544 1.728,-4.656 0,-2.256 -1.152,-3.408 -1.152,-1.2 -3.168,-1.2 -1.632,0 -2.976,0.96 -1.296,0.912 -2.448,2.16 l -3.696,-3.648 q 2.208,-2.496 4.512,-3.744 2.352,-1.248 5.568,-1.248 2.976,0 5.232,1.2 2.304,1.2 3.552,3.36 1.296,2.16 1.296,5.088 0,2.736 -1.488,5.376 -1.44,2.592 -3.84,5.184 -2.4,2.592 -5.088,5.28 1.152,-0.144 2.592,-0.24 1.44,-0.144 2.496,-0.144 h 6.816 v 5.952 z m 26.92799,0 v -5.712 h 6.624 v -17.616 h -5.712 v -4.368 q 2.496,-0.48 4.224,-1.152 1.776,-0.672 3.36,-1.632 h 5.184 v 24.768 h 5.712 v 5.712 z m 34.656,0.576 q -4.896,0 -7.92,-4.08 -2.976,-4.08 -2.976,-11.856 0,-7.824 2.976,-11.76 3.024,-3.936 7.92,-3.936 4.896,0 7.872,3.984 3.024,3.936 3.024,11.712 0,7.776 -3.024,11.856 -2.976,4.08 -7.872,4.08 z m 0,-5.472 q 1.2,0 2.16,-0.864 0.96,-0.912 1.488,-3.168 0.576,-2.304 0.576,-6.432 0,-4.176 -0.576,-6.384 -0.528,-2.208 -1.488,-3.024 -0.96,-0.816 -2.16,-0.816 -1.2,0 -2.16,0.816 -0.96,0.816 -1.536,3.024 -0.528,2.208 -0.528,6.384 0,4.128 0.528,6.432 0.576,2.256 1.536,3.168 0.96,0.864 2.16,0.864 z m -50.4,-55.104 v -31.296 h 19.728 v 5.952 h -12.672 v 7.248 h 10.848 v 5.952 h -10.848 v 12.144 z m 37.392,0.576 q -4.224,0 -7.44,-1.968 -3.168,-1.968 -4.992,-5.616 -1.776,-3.648 -1.776,-8.784 0,-5.088 1.776,-8.688 1.824,-3.6 4.992,-5.472 3.216,-1.92 7.44,-1.92 4.224,0 7.44,1.92 3.216,1.872 4.992,5.472 1.776,3.6 1.776,8.688 0,5.136 -1.776,8.784 -1.776,3.648 -4.992,5.616 -3.216,1.968 -7.44,1.968 z m 0,-6.096 q 2.16,0 3.696,-1.248 1.584,-1.296 2.4,-3.6 0.864,-2.304 0.864,-5.424 0,-3.12 -0.864,-5.328 -0.816,-2.256 -2.4,-3.408 -1.536,-1.2 -3.696,-1.2 -2.112,0 -3.696,1.2 -1.584,1.152 -2.448,3.408 -0.816,2.208 -0.816,5.328 0,3.12 0.816,5.424 0.864,2.304 2.448,3.6 1.584,1.248 3.696,1.248 z m -5.328,-28.08 q -1.44,0 -2.4,-0.96 -0.96,-0.96 -0.96,-2.4 0,-1.44 0.96,-2.4 0.96,-0.96 2.4,-0.96 1.488,0 2.4,0.96 0.96,0.96 0.96,2.4 0,1.44 -0.96,2.4 -0.912,0.96 -2.4,0.96 z m 10.656,0 q -1.44,0 -2.4,-0.96 -0.96,-0.96 -0.96,-2.4 0,-1.44 0.96,-2.4 0.96,-0.96 2.4,-0.96 1.488,0 2.4,0.96 0.96,0.96 0.96,2.4 0,1.44 -0.96,2.4 -0.912,0.96 -2.4,0.96 z M -663.06063,831.07459 v -17.472 q 15.36,-13.632 27.264,-25.536 12.096,-11.904 18.816,-22.08 6.912,-10.176 6.912,-18.624 0,-9.024 -4.608,-13.632 -4.608,-4.8 -12.672,-4.8 -6.528,0 -11.904,3.84 -5.184,3.648 -9.792,8.64 l -14.784,-14.592 q 8.832,-9.984 18.048,-14.976 9.408,-4.992 22.272,-4.992 11.904,0 20.928,4.8 9.216,4.8 14.208,13.44 5.184,8.64 5.184,20.352 0,10.944 -5.952,21.504 -5.76,10.368 -15.36,20.736 -9.6,10.368 -20.352,21.12 4.608,-0.576 10.368,-0.96 5.76,-0.576 9.984,-0.576 h 27.264 v 23.808 z m 144.95998,2.304 q -19.584,0 -31.68,-16.32 -11.904,-16.32 -11.904,-47.424 0,-31.296 11.904,-47.04 12.096,-15.744 31.68,-15.744 19.584,0 31.488,15.936 12.096,15.744 12.096,46.848 0,31.104 -12.096,47.424 -11.904,16.32 -31.488,16.32 z m 0,-21.888 q 4.8,0 8.64,-3.456 3.84,-3.648 5.952,-12.672 2.304,-9.216 2.304,-25.728 0,-16.704 -2.304,-25.536 -2.112,-8.832 -5.952,-12.096 -3.84,-3.264 -8.64,-3.264 -4.8,0 -8.64,3.264 -3.84,3.264 -6.144,12.096 -2.112,8.832 -2.112,25.536 0,16.512 2.112,25.728 2.304,9.024 6.144,12.672 3.84,3.456 8.64,3.456 z m 101.18398,21.888 q -12.096,0 -21.888,-4.224 -9.6,-4.224 -15.168,-11.712 -5.376,-7.68 -5.376,-17.472 0,-7.488 2.688,-12.864 2.88,-5.568 7.488,-9.792 4.8,-4.224 10.56,-7.296 v -0.768 q -6.912,-5.376 -11.712,-12.288 -4.608,-6.912 -4.608,-16.512 0,-10.368 4.992,-17.856 4.992,-7.68 13.824,-11.712 8.832,-4.032 20.16,-4.032 16.896,0 26.88,9.216 10.176,9.024 10.176,24.192 0,5.76 -2.304,10.944 -2.112,4.992 -5.76,9.024 -3.648,3.84 -7.872,6.72 v 0.768 q 5.76,3.072 10.56,7.488 4.8,4.224 7.68,10.368 2.88,5.952 2.88,14.016 0,9.6 -5.376,17.28 -5.376,7.488 -15.168,12.096 -9.6,4.416 -22.656,4.416 z m 7.68,-73.344 q 3.648,-4.224 5.568,-8.64 1.92,-4.416 1.92,-9.216 0,-4.8 -1.728,-8.256 -1.728,-3.456 -5.184,-5.376 -3.264,-2.112 -7.872,-2.112 -5.568,0 -9.6,3.648 -4.032,3.456 -4.032,10.368 0,4.992 2.688,8.448 2.688,3.456 7.296,6.144 4.8,2.688 10.944,4.992 z m -7.104,53.76 q 4.608,0 8.256,-1.536 3.84,-1.728 5.952,-4.992 2.112,-3.456 2.112,-8.64 0,-5.376 -3.264,-8.832 -3.072,-3.648 -9.024,-6.336 -5.76,-2.88 -13.44,-6.144 -4.032,3.648 -6.72,8.832 -2.688,4.992 -2.688,10.56 0,5.376 2.496,9.216 2.688,3.84 6.912,5.952 4.416,1.92 9.408,1.92 z m -201.98399,-222.72 v -125.184 h 78.912 v 23.808 h -50.688 v 28.992 h 43.392 v 23.808 h -43.392 v 48.576 z m 149.56799,2.304 q -16.896,0 -29.76,-7.872 -12.672,-7.872 -19.968,-22.464 -7.104,-14.592 -7.104,-35.136 0,-20.352 7.104,-34.752 7.296,-14.4 19.968,-21.888 12.864,-7.68 29.76,-7.68 16.896,0 29.76,7.68 12.864,7.488 19.968,21.888 7.104,14.4 7.104,34.752 0,20.544 -7.104,35.136 -7.104,14.592 -19.968,22.464 -12.864,7.872 -29.76,7.872 z m 0,-24.384 q 8.64,0 14.784,-4.992 6.336,-5.184 9.6,-14.4 3.456,-9.216 3.456,-21.696 0,-12.48 -3.456,-21.312 -3.264,-9.024 -9.6,-13.632 -6.144,-4.8 -14.784,-4.8 -8.448,0 -14.784,4.8 -6.336,4.608 -9.792,13.632 -3.264,8.832 -3.264,21.312 0,12.48 3.264,21.696 3.456,9.216 9.792,14.4 6.336,4.992 14.784,4.992 z m -21.312,-112.32 q -5.76,0 -9.6,-3.84 -3.84,-3.84 -3.84,-9.6 0,-5.76 3.84,-9.6 3.84,-3.84 9.6,-3.84 5.952,0 9.6,3.84 3.84,3.84 3.84,9.6 0,5.76 -3.84,9.6 -3.648,3.84 -9.6,3.84 z m 42.624,0 q -5.76,0 -9.6,-3.84 -3.84,-3.84 -3.84,-9.6 0,-5.76 3.84,-9.6 3.84,-3.84 9.6,-3.84 5.952,0 9.6,3.84 3.84,3.84 3.84,9.6 0,5.76 -3.84,9.6 -3.648,3.84 -9.6,3.84 z m -346.0397,-3649.31219 v -17.472 q 15.36,-13.632 27.264,-25.536 12.096,-11.904 18.816,-22.08 6.912,-10.176 6.912,-18.624 0,-9.024 -4.608,-13.632 -4.608,-4.8 -12.672,-4.8 -6.528,0 -11.904,3.84 -5.184,3.648 -9.792,8.64 l -14.784,-14.592 q 8.832,-9.984 18.048,-14.976 9.408,-4.992 22.272,-4.992 11.904,0 20.928,4.8 9.216,4.8 14.208,13.44 5.184,8.64 5.184,20.352 0,10.944 -5.952,21.504 -5.76,10.368 -15.36,20.736 -9.6,10.368 -20.352,21.12 4.608,-0.576 10.368,-0.96 5.76,-0.576 9.984,-0.576 h 27.264 v 23.808 z m 144.95998,2.304 q -19.584,0 -31.68,-16.32 -11.904,-16.32 -11.904,-47.424 0,-31.296 11.904,-47.04 12.096,-15.744 31.68,-15.744 19.584,0 31.488,15.936 12.096,15.744 12.096,46.848 0,31.104 -12.096,47.424 -11.904,16.32 -31.488,16.32 z m 0,-21.888 q 4.8,0 8.64,-3.456 3.84,-3.648 5.952,-12.672 2.304,-9.216 2.304,-25.728 0,-16.704 -2.304,-25.536 -2.112,-8.832 -5.952,-12.096 -3.84,-3.264 -8.64,-3.264 -4.8,0 -8.64,3.264 -3.84,3.264 -6.144,12.096 -2.112,8.832 -2.112,25.536 0,16.512 2.112,25.728 2.304,9.024 6.144,12.672 3.84,3.456 8.64,3.456 z m 97.34398,21.888 q -9.792,0 -17.856,-2.304 -7.872,-2.112 -14.016,-5.952 -6.144,-3.84 -10.56,-9.024 l 13.056,-17.856 q 5.568,5.376 12.288,8.832 6.72,3.456 14.4,3.456 8.832,0 14.208,-3.648 5.568,-3.84 5.568,-10.752 0,-5.376 -2.688,-9.216 -2.688,-4.032 -9.792,-6.144 -6.912,-2.112 -20.352,-2.112 v -19.968 q 10.944,0 17.28,-2.112 6.336,-2.112 8.832,-5.76 2.688,-3.648 2.688,-8.448 0,-6.528 -4.032,-9.984 -3.84,-3.456 -10.944,-3.456 -6.528,0 -11.904,2.88 -5.184,2.688 -10.944,7.872 l -14.208,-17.28 q 8.448,-7.296 17.856,-11.328 9.408,-4.224 20.544,-4.224 12.48,0 21.888,4.032 9.6,3.84 14.784,11.328 5.376,7.296 5.376,18.048 0,9.408 -5.376,16.128 -5.184,6.72 -14.976,10.944 v 0.768 q 6.912,2.112 12.48,6.144 5.568,3.84 8.64,9.792 3.072,5.952 3.072,13.824 0,11.328 -6.336,19.392 -6.144,7.872 -16.512,12.096 -10.176,4.032 -22.464,4.032 z m -197.56799,-242.304 v -125.184 h 78.912 v 23.808 h -50.688 v 28.992 h 43.392 v 23.808 h -43.392 v 48.576 z m 149.56799,2.304 q -16.896,0 -29.76,-7.872 -12.672,-7.872 -19.968,-22.464 -7.104,-14.592 -7.104,-35.136 0,-20.352 7.104,-34.752 7.296,-14.4 19.968,-21.888 12.864,-7.68 29.76,-7.68 16.896,0 29.76,7.68 12.864,7.488 19.968,21.888 7.104,14.4 7.104,34.752 0,20.544 -7.104,35.136 -7.104,14.592 -19.968,22.464 -12.864,7.872 -29.76,7.872 z m 0,-24.384 q 8.64,0 14.784,-4.992 6.336,-5.184 9.6,-14.4 3.456,-9.216 3.456,-21.696 0,-12.48 -3.456,-21.312 -3.264,-9.024 -9.6,-13.632 -6.144,-4.8 -14.784,-4.8 -8.448,0 -14.784,4.8 -6.336,4.608 -9.792,13.632 -3.264,8.832 -3.264,21.312 0,12.48 3.264,21.696 3.456,9.216 9.792,14.4 6.336,4.992 14.784,4.992 z m -21.312,-112.32 q -5.76,0 -9.6,-3.84 -3.84,-3.84 -3.84,-9.6 0,-5.76 3.84,-9.6 3.84,-3.84 9.6,-3.84 5.952,0 9.6,3.84 3.84,3.84 3.84,9.6 0,5.76 -3.84,9.6 -3.648,3.84 -9.6,3.84 z m 42.624,0 q -5.76,0 -9.6,-3.84 -3.84,-3.84 -3.84,-9.6 0,-5.76 3.84,-9.6 3.84,-3.84 9.6,-3.84 5.952,0 9.6,3.84 3.84,3.84 3.84,9.6 0,5.76 -3.84,9.6 -3.648,3.84 -9.6,3.84 z m -215.13596,-976.1449 v -17.472 q 15.36,-13.632 27.264,-25.536 12.096,-11.904 18.816,-22.08 6.912,-10.176 6.912,-18.624 0,-9.024 -4.608,-13.632 -4.608,-4.8 -12.672,-4.8 -6.528,0 -11.904,3.84 -5.184,3.648 -9.792,8.64 l -14.784,-14.592 q 8.832,-9.984 18.048,-14.976 9.408,-4.992 22.272,-4.992 11.904,0 20.928,4.8 9.216,4.8 14.208,13.44 5.184,8.64 5.184,20.352 0,10.944 -5.952,21.504 -5.76,10.368 -15.36,20.736 -9.6,10.368 -20.352,21.12 4.608,-0.576 10.368,-0.96 5.76,-0.576 9.984,-0.576 h 27.264 v 23.808 z m 144.95998,2.304 q -19.584,0 -31.68,-16.32 -11.904,-16.32 -11.904,-47.424 0,-31.296 11.904,-47.04 12.096,-15.744 31.68,-15.744 19.584,0 31.488,15.936 12.096,15.744 12.096,46.848 0,31.104 -12.096,47.424 -11.904,16.32 -31.488,16.32 z m 0,-21.888 q 4.8,0 8.64,-3.456 3.84,-3.648 5.952,-12.672 2.304,-9.216 2.304,-25.728 0,-16.704 -2.304,-25.536 -2.112,-8.832 -5.952,-12.096 -3.84,-3.264 -8.64,-3.264 -4.8,0 -8.64,3.264 -3.84,3.264 -6.144,12.096 -2.112,8.832 -2.112,25.536 0,16.512 2.112,25.728 2.304,9.024 6.144,12.672 3.84,3.456 8.64,3.456 z m 64.12798,19.584 v -22.848 h 26.496 v -70.464 h -22.848 v -17.472 q 9.984,-1.92 16.896,-4.608 7.104,-2.688 13.44,-6.528 h 20.736 v 99.072 h 22.848 v 22.848 z m -164.35199,-240 v -125.184 h 78.912 v 23.808 h -50.688 v 28.992 h 43.392 v 23.808 h -43.392 v 48.576 z m 149.56799,2.304 q -16.896,0 -29.76,-7.872 -12.672,-7.872 -19.968,-22.464 -7.104,-14.592 -7.104,-35.136 0,-20.352 7.104,-34.752 7.296,-14.4 19.968,-21.888 12.864,-7.68 29.76,-7.68 16.896,0 29.76,7.68 12.864,7.488 19.968,21.888 7.104,14.4 7.104,34.752 0,20.544 -7.104,35.136 -7.104,14.592 -19.968,22.464 -12.864,7.872 -29.76,7.872 z m 0,-24.384 q 8.64,0 14.784,-4.992 6.336,-5.184 9.6,-14.4 3.456,-9.216 3.456,-21.696 0,-12.48 -3.456,-21.312 -3.264,-9.024 -9.6,-13.632 -6.144,-4.8 -14.784,-4.8 -8.448,0 -14.784,4.8 -6.336,4.608 -9.792,13.632 -3.264,8.832 -3.264,21.312 0,12.48 3.264,21.696 3.456,9.216 9.792,14.4 6.336,4.992 14.784,4.992 z m -21.312,-112.32 q -5.76,0 -9.6,-3.84 -3.84,-3.84 -3.84,-9.6 0,-5.76 3.84,-9.6 3.84,-3.84 9.6,-3.84 5.952,0 9.6,3.84 3.84,3.84 3.84,9.6 0,5.76 -3.84,9.6 -3.648,3.84 -9.6,3.84 z m 42.624,0 q -5.76,0 -9.6,-3.84 -3.84,-3.84 -3.84,-9.6 0,-5.76 3.84,-9.6 3.84,-3.84 9.6,-3.84 5.952,0 9.6,3.84 3.84,3.84 3.84,9.6 0,5.76 -3.84,9.6 -3.648,3.84 -9.6,3.84 z" style="font-size:48px;font-family:'Source Sans 3';-inkscape-font-specification:'Source Sans 3, @wght=700';font-variation-settings:'wght' 700;text-align:center;white-space:pre;display:inline;opacity:1;fill:#bec3c6;stroke-width:55" transform="matrix(0.02439371,0,0,0.02439371,28.591684,264.41352)"/>
  </g>
</svg>
