<svg width="3000" height="4100" viewBox="0 0 3000 4100" version="1.1" id="svg1" xml:space="preserve" xmlns="http://www.w3.org/2000/svg">
  <defs id="defs1">
    <linearGradient id="swatch446">
      <stop style="stop-color:#4c5a5f;stop-opacity:1" offset="0" id="stop446"/>
    </linearGradient>
    <marker style="overflow:visible" id="Triangle" refX="0" refY="0" orient="auto-start-reverse" markerWidth="1" markerHeight="1" viewBox="0 0 1 1" preserveAspectRatio="xMidYMid">
      <path transform="scale(0.5)" style="fill:context-stroke;fill-rule:evenodd;stroke:context-stroke;stroke-width:1pt" d="M 5.77,0 -2.88,5 V -5 Z" id="path597"/>
    </marker>
    <filter style="color-interpolation-filters:sRGB" id="filter65" x="-0.10076399" y="-0.10076398" width="1.201528" height="1.201528">
      <feFlood result="flood" flood-opacity="0.396078" flood-color="rgb(0,0,0)" id="feFlood64"/>
      <feGaussianBlur result="blur" in="SourceGraphic" stdDeviation="3.000000" id="feGaussianBlur64"/>
      <feOffset result="offset" in="blur" dx="0.000000" dy="0.000000" id="feOffset64"/>
      <feComposite result="comp1" operator="in" in="flood" in2="offset" id="feComposite64"/>
      <feComposite result="comp2" operator="over" in="SourceGraphic" in2="comp1" id="feComposite65"/>
    </filter>
    <filter style="color-interpolation-filters:sRGB" id="filter182-2-9" x="-0.10334908" y="-0.071999997" width="1.2066982" height="1.1440001">
      <feFlood result="flood" flood-opacity="0.396078" flood-color="rgb(0,0,0)" id="feFlood181-9-2"/>
      <feGaussianBlur result="blur" in="SourceGraphic" stdDeviation="3.000000" id="feGaussianBlur181-8-4"/>
      <feOffset result="offset" in="blur" dx="0.000000" dy="0.000000" id="feOffset181-4-8"/>
      <feComposite result="comp1" operator="in" in="flood" in2="offset" id="feComposite181-5-5"/>
      <feComposite result="comp2" operator="over" in="SourceGraphic" in2="comp1" id="feComposite182-1-8"/>
    </filter>
    <rect x="159.09903" y="-46.923126" width="532.995" height="528.08154" id="rect405"/>
    <filter style="color-interpolation-filters:sRGB" id="filter15-2" x="-0.15104346" y="-0.071999989" width="1.3020869" height="1.1440001">
      <feFlood result="flood" flood-opacity="0.396078" flood-color="rgb(0,0,0)" id="feFlood13-1"/>
      <feGaussianBlur result="blur" in="SourceGraphic" stdDeviation="3.000000" id="feGaussianBlur13-9"/>
      <feOffset result="offset" in="blur" dx="0.000000" dy="0.000000" id="feOffset13-6"/>
      <feComposite result="comp1" operator="in" in="flood" in2="offset" id="feComposite14-1"/>
      <feComposite result="comp2" operator="over" in="SourceGraphic" in2="comp1" id="feComposite15-3"/>
    </filter>
    <filter style="color-interpolation-filters:sRGB" id="filter17-2" x="-0.193" y="-0.071999989" width="1.386" height="1.1440001">
      <feFlood result="flood" flood-opacity="0.396078" flood-color="rgb(0,0,0)" id="feFlood15-7"/>
      <feGaussianBlur result="blur" in="SourceGraphic" stdDeviation="3.000000" id="feGaussianBlur15-1"/>
      <feOffset result="offset" in="blur" dx="0.000000" dy="0.000000" id="feOffset15-4"/>
      <feComposite result="comp1" operator="in" in="flood" in2="offset" id="feComposite16-05"/>
      <feComposite result="comp2" operator="over" in="SourceGraphic" in2="comp1" id="feComposite17-0"/>
    </filter>
    <rect x="159.09903" y="-46.923126" width="532.995" height="528.08154" id="rect188"/>
    <rect x="159.09903" y="-46.923126" width="532.995" height="528.08154" id="rect189"/>
    <rect x="159.09903" y="-46.923126" width="532.995" height="528.08154" id="rect190"/>
    <rect x="159.09903" y="-46.923126" width="532.995" height="528.08154" id="rect191"/>
    <rect x="159.09903" y="-46.923126" width="532.995" height="528.08154" id="rect192"/>
    <rect x="159.09903" y="-46.923126" width="532.995" height="528.08154" id="rect193"/>
    <rect x="159.09903" y="-46.923126" width="532.995" height="528.08154" id="rect461"/>
    <rect x="159.09903" y="-46.923126" width="532.995" height="528.08154" id="rect463"/>
    <rect x="159.09903" y="-46.923126" width="532.995" height="528.08154" id="rect464"/>
    <rect x="159.09903" y="-46.923126" width="532.995" height="528.08154" id="rect465"/>
    <rect x="159.09903" y="-46.923126" width="532.995" height="528.08154" id="rect648"/>
    <rect x="159.09903" y="-46.923126" width="532.995" height="528.08154" id="rect649"/>
    <rect x="159.09903" y="-46.923126" width="532.995" height="528.08154" id="rect650"/>
    <rect x="159.09903" y="-46.923126" width="532.995" height="528.08154" id="rect655"/>
    <rect x="159.09903" y="-46.923126" width="532.995" height="528.08154" id="rect844"/>
    <rect x="159.09903" y="-46.923126" width="532.995" height="528.08154" id="rect845"/>
    <rect x="159.09903" y="-46.923126" width="532.995" height="528.08154" id="rect846"/>
    <rect x="159.09903" y="-46.923126" width="532.995" height="528.08154" id="rect847"/>
    <rect x="159.09903" y="-46.923126" width="532.995" height="528.08154" id="rect859"/>
    <rect x="159.09903" y="-46.923126" width="532.995" height="528.08154" id="rect482"/>
    <rect x="159.09903" y="-46.923126" width="532.995" height="528.08154" id="rect484"/>
    <rect x="159.09903" y="-46.923126" width="532.995" height="528.08154" id="rect595"/>
    <rect x="159.09903" y="-46.923126" width="532.995" height="528.08154" id="rect596"/>
    <rect x="159.09903" y="-46.923126" width="532.995" height="528.08154" id="rect598"/>
    <rect x="159.09903" y="-46.923126" width="532.995" height="528.08154" id="rect600"/>
    <rect x="159.09903" y="-46.923126" width="532.995" height="528.08154" id="rect602"/>
    <rect x="159.09903" y="-46.923126" width="532.995" height="528.08154" id="rect610"/>
    <rect x="159.09903" y="-46.923126" width="532.995" height="528.08154" id="rect612"/>
    <rect x="159.09903" y="-46.923126" width="532.995" height="528.08154" id="rect614"/>
    <rect x="159.09903" y="-46.923126" width="532.995" height="528.08154" id="rect616"/>
    <rect x="159.09903" y="-46.923126" width="532.995" height="528.08154" id="rect618"/>
    <rect x="159.09903" y="-46.923126" width="532.995" height="528.08154" id="rect620"/>
    <rect x="159.09903" y="-46.923126" width="532.995" height="528.08154" id="rect623"/>
  </defs>
  <g id="floor_0" transform="matrix(40.336064,0,0,40.336064,9.0369973,-8773.6905)" style="display:inline;opacity:1">
    <path id="path674" style="font-variation-settings:'wdth' 70,'wght' 600;display:inline;opacity:1;fill:#4c5a5f;fill-opacity:1;stroke:none;stroke-width:.487874" d="m 1.1212688,245.53802 -2.22e-5,35.537 H 19.614216 v 37.24436 h 5.760199 v -23.88114 h 15.305152 l -0.07834,-4.61044 32.243894,-0.0208 -0.0459,-33.45104 h -6.520712 v -10.81794 z m 40.6873872,6.79461 h 17.420431 v 4.10749 l -17.445223,0.0175 z m -16.434241,28.74244 h 15.226807 v 8.75268 H 25.374415 Z"/>
    <g id="rooms_0" style="display:inline;opacity:1" transform="matrix(0.02439371,0,0,0.02439371,-0.02443957,255.98706)">
      <rect style="font-variation-settings:'wdth' 70,'wght' 600;display:inline;opacity:1;fill:#1b2022;fill-opacity:1;stroke-width:169.608;stroke-dasharray:none" id="rect674" width="188.1904" height="195.61456" x="1041.2047" y="1173.8719" transform="translate(-4.1005817e-8,-3.5908303e-5)"/>
      <rect style="font-variation-settings:'wdth' 70,'wght' 600;display:inline;opacity:1;fill:#1b2022;fill-opacity:1;stroke:none;stroke-width:13.8214;stroke-linecap:butt;stroke-linejoin:miter;stroke-dasharray:none;stroke-opacity:1" id="rect675" width="268.17389" height="425.68652" x="2718.0337" y="-410.56421"/>
      <rect style="font-variation-settings:'wdth' 70,'wght' 600;display:inline;opacity:1;fill:#454c7f;fill-opacity:1;stroke-width:136.999;stroke-dasharray:none" id="HB003" width="188.19002" height="127.6264" x="1041.2051" y="1046.2455" transform="translate(-4.1005817e-8,-3.5908303e-5)"/>
      <path style="font-variation-settings:'wdth' 70,'wght' 600;display:inline;opacity:1;fill:#454c7f;fill-opacity:1;stroke:none;stroke-width:14.819;stroke-dasharray:none" d="m 1229.3951,1028.4623 h 337.3884 v 358.812 h -337.3884 z" id="HB004" transform="translate(-4.1005817e-8,-3.5908303e-5)"/>
      <rect style="font-variation-settings:'wdth' 70,'wght' 600;display:inline;opacity:1;fill:#454c7f;fill-opacity:1;stroke-width:817.218;stroke-dasharray:none" id="HB006" width="758.10327" height="1127.3357" x="46.967369" y="1405.0575"/>
      <rect style="font-variation-settings:'wdth' 70,'wght' 600;display:inline;opacity:1;fill:#454c7f;fill-opacity:1;stroke-width:411.031;stroke-dasharray:none" id="HB008" width="628.10822" height="344.20889" x="1041.2047" y="1594.0608"/>
      <rect style="font-variation-settings:'wdth' 70,'wght' 600;display:inline;opacity:1;fill:#454c7f;fill-opacity:1;stroke-width:304.541;stroke-dasharray:none" id="HB009" width="628.10822" height="188.95819" x="1041.2047" y="1938.2697"/>
      <rect style="font-variation-settings:'wdth' 70,'wght' 600;display:inline;opacity:1;fill:#454c7f;fill-opacity:1;stroke-width:445.943;stroke-dasharray:none" id="HB010" width="628.10822" height="405.16541" x="1041.2047" y="2127.2278"/>
    </g>
    <g id="g719" transform="matrix(-0.02439371,0,0,-0.02439371,69.699341,295.13724)" style="display:inline">
      <path style="font-variation-settings:'wdth' 70,'wght' 600;display:inline;opacity:1;fill:#4c5a5f;fill-opacity:1;stroke:none;stroke-width:15.2447;stroke-dasharray:none;stroke-opacity:1" d="m 2053.1982,576.4691 h 296.646 l -1e-4,-154.55217 h -46.1584 v -49.70747 h 63.4358 V 217.65729 h -313.9233 z" id="path679" transform="translate(-2.3747411e-5)"/>
      <rect style="font-variation-settings:'wdth' 70,'wght' 600;display:inline;fill:#4f5e63;fill-opacity:1;stroke-width:5.71979;stroke-dasharray:none" id="rect680" width="136.76709" height="29.178997" x="-558.68402" y="2349.8442" transform="rotate(-90)"/>
      <rect style="font-variation-settings:'wdth' 70,'wght' 600;display:inline;fill:#516166;fill-opacity:1;stroke-width:5.71979;stroke-dasharray:none" id="rect682" width="136.76709" height="29.178997" x="-558.68402" y="2379.0232" transform="rotate(-90)"/>
      <rect style="font-variation-settings:'wdth' 70,'wght' 600;display:inline;fill:#546469;fill-opacity:1;stroke-width:5.71979;stroke-dasharray:none" id="rect683" width="136.76709" height="29.178997" x="-558.68402" y="2408.2021" transform="rotate(-90)"/>
      <rect style="font-variation-settings:'wdth' 70,'wght' 600;display:inline;fill:#56676c;fill-opacity:1;stroke-width:5.71979;stroke-dasharray:none" id="rect684" width="136.76709" height="29.178997" x="-558.68402" y="2437.3811" transform="rotate(-90)"/>
      <rect style="font-variation-settings:'wdth' 70,'wght' 600;display:inline;fill:#586a6f;fill-opacity:1;stroke-width:5.71979;stroke-dasharray:none" id="rect685" width="136.76709" height="29.178997" x="-558.68402" y="2466.5601" transform="rotate(-90)"/>
      <rect style="font-variation-settings:'wdth' 70,'wght' 600;display:inline;fill:#5a6d72;fill-opacity:1;stroke-width:5.71979;stroke-dasharray:none" id="rect686" width="136.76709" height="29.178997" x="-558.68402" y="2495.739" transform="rotate(-90)"/>
      <rect style="font-variation-settings:'wdth' 70,'wght' 600;display:inline;fill:#5c7075;fill-opacity:1;stroke-width:5.71979;stroke-dasharray:none" id="rect687" width="136.76709" height="29.178997" x="-558.68402" y="2524.9182" transform="rotate(-90)"/>
      <rect style="font-variation-settings:'wdth' 70,'wght' 600;display:inline;fill:#5e7378;fill-opacity:1;stroke-width:5.71979;stroke-dasharray:none" id="rect688" width="136.76709" height="29.178997" x="-558.68402" y="2554.0972" transform="rotate(-90)"/>
      <rect style="font-variation-settings:'wdth' 70,'wght' 600;display:inline;fill:#60767b;fill-opacity:1;stroke-width:5.71979;stroke-dasharray:none" id="rect689" width="136.76709" height="29.178997" x="-558.68402" y="2583.2761" transform="rotate(-90)"/>
      <rect style="font-variation-settings:'wdth' 70,'wght' 600;display:inline;fill:#000;fill-opacity:1;stroke-width:1.06746;stroke-dasharray:none" id="rect690" width="136.76709" height="1.0163157" x="-558.68402" y="2612.4551" transform="rotate(-90)"/>
      <rect style="font-variation-settings:'wdth' 70,'wght' 600;display:inline;fill:#000;fill-opacity:1;stroke-width:1.06746;stroke-dasharray:none" id="rect691" width="136.76709" height="1.0163157" x="-558.68402" y="2582.2598" transform="rotate(-90)"/>
      <rect style="font-variation-settings:'wdth' 70,'wght' 600;display:inline;fill:#000;fill-opacity:1;stroke-width:1.06746;stroke-dasharray:none" id="rect692" width="136.76709" height="1.0163157" x="-558.68402" y="2553.0808" transform="rotate(-90)"/>
      <rect style="font-variation-settings:'wdth' 70,'wght' 600;display:inline;fill:#000;fill-opacity:1;stroke-width:1.06746;stroke-dasharray:none" id="rect693" width="136.76709" height="1.0163157" x="-558.68402" y="2523.9016" transform="rotate(-90)"/>
      <rect style="font-variation-settings:'wdth' 70,'wght' 600;display:inline;fill:#000;fill-opacity:1;stroke-width:1.06746;stroke-dasharray:none" id="rect694" width="136.76709" height="1.0163157" x="-558.68402" y="2494.7227" transform="rotate(-90)"/>
      <rect style="font-variation-settings:'wdth' 70,'wght' 600;display:inline;fill:#000;fill-opacity:1;stroke-width:1.06746;stroke-dasharray:none" id="rect695" width="136.76709" height="1.0163157" x="-558.68402" y="2465.5437" transform="rotate(-90)"/>
      <rect style="font-variation-settings:'wdth' 70,'wght' 600;display:inline;fill:#000;fill-opacity:1;stroke-width:1.06746;stroke-dasharray:none" id="rect696" width="136.76709" height="1.0163157" x="-558.68402" y="2436.3647" transform="rotate(-90)"/>
      <rect style="font-variation-settings:'wdth' 70,'wght' 600;display:inline;fill:#000;fill-opacity:1;stroke-width:1.06746;stroke-dasharray:none" id="rect697" width="136.76709" height="1.0163157" x="-558.68402" y="2407.1858" transform="rotate(-90)"/>
      <rect style="font-variation-settings:'wdth' 70,'wght' 600;display:inline;fill:#000;fill-opacity:1;stroke-width:1.06746;stroke-dasharray:none" id="rect698" width="136.76709" height="1.0163157" x="-558.68402" y="2378.0068" transform="rotate(-90)"/>
      <rect style="font-variation-settings:'wdth' 70,'wght' 600;display:inline;fill:#000;fill-opacity:1;stroke-width:1.06746;stroke-dasharray:none" id="rect699" width="136.76709" height="1.0163157" x="-558.68402" y="2348.8279" transform="rotate(-90)"/>
      <path style="font-variation-settings:'wdth' 70,'wght' 600;display:inline;opacity:1;fill:none;fill-opacity:1;stroke:#bec3c6;stroke-width:5.30299;stroke-dasharray:none;stroke-opacity:1;marker-end:url(#Triangle)" d="m 2364.4336,486.74114 217.8262,-6e-5" id="path699"/>
      <rect style="font-variation-settings:'wdth' 70,'wght' 600;display:inline;fill:#3a4146;fill-opacity:1;stroke-width:5.71978;stroke-dasharray:none" id="rect700" width="136.76671" height="29.178997" x="235.44276" y="-2630.7488" transform="rotate(90)"/>
      <rect style="font-variation-settings:'wdth' 70,'wght' 600;display:inline;fill:#3c4449;fill-opacity:1;stroke-width:5.71978;stroke-dasharray:none" id="rect701" width="136.76671" height="29.178997" x="235.44276" y="-2601.5698" transform="rotate(90)"/>
      <rect style="font-variation-settings:'wdth' 70,'wght' 600;display:inline;fill:#3e474c;fill-opacity:1;stroke-width:5.71978;stroke-dasharray:none" id="rect702" width="136.76671" height="29.178997" x="235.44276" y="-2572.3909" transform="rotate(90)"/>
      <rect style="font-variation-settings:'wdth' 70,'wght' 600;display:inline;fill:#404a4f;fill-opacity:1;stroke-width:5.71978;stroke-dasharray:none" id="rect703" width="136.76671" height="29.178997" x="235.44276" y="-2543.2119" transform="rotate(90)"/>
      <rect style="font-variation-settings:'wdth' 70,'wght' 600;display:inline;fill:#424d52;fill-opacity:1;stroke-width:5.71978;stroke-dasharray:none" id="rect704" width="136.76671" height="29.178997" x="235.44276" y="-2514.033" transform="rotate(90)"/>
      <rect style="font-variation-settings:'wdth' 70,'wght' 600;display:inline;fill:#445055;fill-opacity:1;stroke-width:5.71978;stroke-dasharray:none" id="rect705" width="136.76671" height="29.178997" x="235.44276" y="-2484.854" transform="rotate(90)"/>
      <rect style="font-variation-settings:'wdth' 70,'wght' 600;display:inline;fill:#465358;fill-opacity:1;stroke-width:5.71978;stroke-dasharray:none" id="rect706" width="136.76671" height="29.178997" x="235.44276" y="-2455.6748" transform="rotate(90)"/>
      <rect style="font-variation-settings:'wdth' 70,'wght' 600;display:inline;fill:#48565b;fill-opacity:1;stroke-width:5.71978;stroke-dasharray:none" id="rect707" width="136.76671" height="29.178997" x="235.44276" y="-2426.4958" transform="rotate(90)"/>
      <rect style="font-variation-settings:'wdth' 70,'wght' 600;display:inline;fill:#4b595e;fill-opacity:1;stroke-width:5.71978;stroke-dasharray:none" id="rect708" width="136.76671" height="29.178997" x="235.44276" y="-2397.3169" transform="rotate(90)"/>
      <rect style="font-variation-settings:'wdth' 70,'wght' 600;display:inline;fill:#000;fill-opacity:1;stroke-width:1.06746;stroke-dasharray:none" id="rect709" width="136.76671" height="1.0163157" x="235.44276" y="-2368.1379" transform="rotate(90)"/>
      <rect style="font-variation-settings:'wdth' 70,'wght' 600;display:inline;fill:#000;fill-opacity:1;stroke-width:1.06746;stroke-dasharray:none" id="rect710" width="136.76671" height="1.0163157" x="235.44276" y="-2398.3333" transform="rotate(90)"/>
      <rect style="font-variation-settings:'wdth' 70,'wght' 600;display:inline;fill:#000;fill-opacity:1;stroke-width:1.06746;stroke-dasharray:none" id="rect711" width="136.76671" height="1.0163157" x="235.44276" y="-2427.5122" transform="rotate(90)"/>
      <rect style="font-variation-settings:'wdth' 70,'wght' 600;display:inline;fill:#000;fill-opacity:1;stroke-width:1.06746;stroke-dasharray:none" id="rect712" width="136.76671" height="1.0163157" x="235.44276" y="-2456.6914" transform="rotate(90)"/>
      <rect style="font-variation-settings:'wdth' 70,'wght' 600;display:inline;fill:#000;fill-opacity:1;stroke-width:1.06746;stroke-dasharray:none" id="rect713" width="136.76671" height="1.0163157" x="235.44276" y="-2485.8704" transform="rotate(90)"/>
      <rect style="font-variation-settings:'wdth' 70,'wght' 600;display:inline;fill:#000;fill-opacity:1;stroke-width:1.06746;stroke-dasharray:none" id="rect714" width="136.76671" height="1.0163157" x="235.44276" y="-2515.0493" transform="rotate(90)"/>
      <rect style="font-variation-settings:'wdth' 70,'wght' 600;display:inline;fill:#000;fill-opacity:1;stroke-width:1.06746;stroke-dasharray:none" id="rect715" width="136.76671" height="1.0163157" x="235.44276" y="-2544.2283" transform="rotate(90)"/>
      <rect style="font-variation-settings:'wdth' 70,'wght' 600;display:inline;fill:#000;fill-opacity:1;stroke-width:1.06746;stroke-dasharray:none" id="rect716" width="136.76671" height="1.0163157" x="235.44276" y="-2573.4072" transform="rotate(90)"/>
      <rect style="font-variation-settings:'wdth' 70,'wght' 600;display:inline;fill:#000;fill-opacity:1;stroke-width:1.06746;stroke-dasharray:none" id="rect717" width="136.76671" height="1.0163157" x="235.44276" y="-2602.5862" transform="rotate(90)"/>
      <rect style="font-variation-settings:'wdth' 70,'wght' 600;display:inline;fill:#000;fill-opacity:1;stroke-width:1.06746;stroke-dasharray:none" id="rect718" width="136.76671" height="1.0163157" x="235.44276" y="-2631.7651" transform="rotate(90)"/>
      <path style="font-variation-settings:'wdth' 70,'wght' 600;display:inline;opacity:1;fill:none;fill-opacity:1;stroke:#bec3c6;stroke-width:5.30299;stroke-dasharray:none;stroke-opacity:1;marker-end:url(#Triangle)" d="m 2616.1595,301.28527 -217.8262,6e-5" id="path718"/>
      <path style="font-variation-settings:'wdth' 70,'wght' 600;display:inline;opacity:1;fill:#62797e;fill-opacity:1;stroke:none;stroke-width:15.2447;stroke-dasharray:none;stroke-opacity:1" d="m 2811.3014,576.46929 -197.83,-1.9e-4 V 421.91693 h 17.2774 V 372.20947 212.51219 h 180.5526 z" id="path719"/>
      <rect style="font-variation-settings:'wght' 700;display:inline;fill:none;fill-opacity:1;stroke:#bec3c6;stroke-width:10.1632;stroke-dasharray:none;stroke-opacity:1" id="rect719" width="324.85214" height="49.70747" x="-2628.5378" y="-421.91693" transform="rotate(180,-1.1873705e-5,7.232918e-7)"/>
    </g>
    <g id="g803" transform="matrix(-0.02439371,0,0,-0.02439371,131.19323,222.78866)" style="display:inline">
      <rect style="font-variation-settings:'wdth' 70,'wght' 600;display:inline;fill:#81999c;fill-opacity:1;stroke-width:5.91443;stroke-dasharray:none" id="rect760" width="146.23373" height="29.178997" x="1211.1305" y="3635.0679" transform="rotate(-90)"/>
      <rect style="font-variation-settings:'wdth' 70,'wght' 600;display:inline;fill:#7e969a;fill-opacity:1;stroke-width:5.91443;stroke-dasharray:none" id="rect761" width="146.23373" height="29.178997" x="1211.1305" y="3605.8887" transform="rotate(-90)"/>
      <rect style="font-variation-settings:'wdth' 70,'wght' 600;display:inline;fill:#7b9398;fill-opacity:1;stroke-width:5.91443;stroke-dasharray:none" id="rect762" width="146.23373" height="29.178997" x="1211.1305" y="3576.7097" transform="rotate(-90)"/>
      <rect style="font-variation-settings:'wdth' 70,'wght' 600;display:inline;fill:#789196;fill-opacity:1;stroke-width:5.91443;stroke-dasharray:none" id="rect763" width="146.23373" height="29.178997" x="1211.1305" y="3547.5308" transform="rotate(-90)"/>
      <rect style="font-variation-settings:'wdth' 70,'wght' 600;display:inline;fill:#758f94;fill-opacity:1;stroke-width:5.91443;stroke-dasharray:none" id="rect764" width="146.23373" height="29.178997" x="1211.1305" y="3518.3518" transform="rotate(-90)"/>
      <rect style="font-variation-settings:'wdth' 70,'wght' 600;display:inline;fill:#728d92;fill-opacity:1;stroke-width:5.91443;stroke-dasharray:none" id="rect765" width="146.23373" height="29.178997" x="1211.1305" y="3489.1726" transform="rotate(-90)"/>
      <rect style="font-variation-settings:'wdth' 70,'wght' 600;display:inline;fill:#6f8b90;fill-opacity:1;stroke-width:5.91443;stroke-dasharray:none" id="rect766" width="146.23373" height="29.178997" x="1211.1305" y="3459.9937" transform="rotate(-90)"/>
      <rect style="font-variation-settings:'wdth' 70,'wght' 600;display:inline;fill:#6d888d;fill-opacity:1;stroke-width:5.91443;stroke-dasharray:none" id="rect767" width="146.23373" height="29.178997" x="1211.1305" y="3430.8147" transform="rotate(-90)"/>
      <rect style="font-variation-settings:'wdth' 70,'wght' 600;display:inline;fill:#6b858a;fill-opacity:1;stroke-width:5.91443;stroke-dasharray:none" id="rect768" width="146.23373" height="29.178997" x="1211.1305" y="3401.6357" transform="rotate(-90)"/>
      <rect style="font-variation-settings:'wdth' 70,'wght' 600;display:inline;fill:#56676c;fill-opacity:1;stroke-width:12.5106;stroke-dasharray:none" id="rect769" width="146.23373" height="130.55656" x="1211.1305" y="3037.6475" transform="rotate(-90)"/>
      <rect style="font-variation-settings:'wdth' 70,'wght' 600;display:inline;fill:#000;fill-opacity:1;stroke-width:1.1038;stroke-dasharray:none" id="rect770" width="146.23373" height="1.0163157" x="1211.1305" y="3401.6357" transform="rotate(-90)"/>
      <rect style="font-variation-settings:'wdth' 70,'wght' 600;display:inline;fill:#000;fill-opacity:1;stroke-width:1.1038;stroke-dasharray:none" id="rect771" width="146.23373" height="1.0163157" x="1211.1305" y="3430.8147" transform="rotate(-90)"/>
      <rect style="font-variation-settings:'wdth' 70,'wght' 600;display:inline;fill:#000;fill-opacity:1;stroke-width:1.1038;stroke-dasharray:none" id="rect772" width="146.23373" height="1.0163157" x="1211.1305" y="3459.9937" transform="rotate(-90)"/>
      <rect style="font-variation-settings:'wdth' 70,'wght' 600;display:inline;fill:#000;fill-opacity:1;stroke-width:1.1038;stroke-dasharray:none" id="rect773" width="146.23373" height="1.0163157" x="1211.1305" y="3489.1726" transform="rotate(-90)"/>
      <rect style="font-variation-settings:'wdth' 70,'wght' 600;display:inline;fill:#000;fill-opacity:1;stroke-width:1.1038;stroke-dasharray:none" id="rect774" width="146.23373" height="1.0163157" x="1211.1305" y="3518.3518" transform="rotate(-90)"/>
      <rect style="font-variation-settings:'wdth' 70,'wght' 600;display:inline;fill:#000;fill-opacity:1;stroke-width:1.1038;stroke-dasharray:none" id="rect775" width="146.23373" height="1.0163157" x="1211.1305" y="3547.531" transform="rotate(-90)"/>
      <rect style="font-variation-settings:'wdth' 70,'wght' 600;display:inline;fill:#000;fill-opacity:1;stroke-width:1.1038;stroke-dasharray:none" id="rect776" width="146.23373" height="1.0163157" x="1211.1305" y="3576.7097" transform="rotate(-90)"/>
      <rect style="font-variation-settings:'wdth' 70,'wght' 600;display:inline;fill:#000;fill-opacity:1;stroke-width:1.1038;stroke-dasharray:none" id="rect777" width="146.23373" height="1.0163157" x="1211.1305" y="3605.8887" transform="rotate(-90)"/>
      <rect style="font-variation-settings:'wdth' 70,'wght' 600;display:inline;fill:#000;fill-opacity:1;stroke-width:1.1038;stroke-dasharray:none" id="rect778" width="146.23373" height="1.0163157" x="1211.1305" y="3635.0676" transform="rotate(-90)"/>
      <rect style="font-variation-settings:'wdth' 70,'wght' 600;display:inline;fill:#000;fill-opacity:1;stroke-width:1.1038;stroke-dasharray:none" id="rect779" width="146.23373" height="1.0163157" x="1211.1305" y="3664.2468" transform="rotate(-90)"/>
      <rect style="font-variation-settings:'wdth' 70,'wght' 600;display:inline;fill:#688287;fill-opacity:1;stroke-width:5.91443;stroke-dasharray:none" id="rect780" width="146.23373" height="29.178997" x="1211.1305" y="3372.4568" transform="rotate(-90)"/>
      <rect style="font-variation-settings:'wdth' 70,'wght' 600;display:inline;fill:#667f84;fill-opacity:1;stroke-width:5.91443;stroke-dasharray:none" id="rect781" width="146.23373" height="29.178997" x="1211.1305" y="3343.2778" transform="rotate(-90)"/>
      <rect style="font-variation-settings:'wdth' 70,'wght' 600;display:inline;fill:#647c81;fill-opacity:1;stroke-width:5.91443;stroke-dasharray:none" id="rect782" width="146.23373" height="29.178997" x="1211.1305" y="3314.0989" transform="rotate(-90)"/>
      <rect style="font-variation-settings:'wdth' 70,'wght' 600;display:inline;fill:#62797e;fill-opacity:1;stroke-width:5.91443;stroke-dasharray:none" id="rect783" width="146.23373" height="29.178997" x="1211.1305" y="3284.9199" transform="rotate(-90)"/>
      <rect style="font-variation-settings:'wdth' 70,'wght' 600;display:inline;opacity:1;fill:#4f5e63;fill-opacity:1;stroke-width:5.91443;stroke-dasharray:none" id="rect784" width="146.23373" height="29.178997" x="1211.1305" y="2950.1106" transform="rotate(-90,8.7306385e-6,-1.052521e-5)"/>
      <rect style="font-variation-settings:'wdth' 70,'wght' 600;display:inline;fill:#60767b;fill-opacity:1;stroke-width:5.91443;stroke-dasharray:none" id="rect785" width="146.23373" height="29.178997" x="1211.1305" y="3255.741" transform="rotate(-90)"/>
      <rect style="font-variation-settings:'wdth' 70,'wght' 600;display:inline;fill:#5e7378;fill-opacity:1;stroke-width:5.91443;stroke-dasharray:none" id="rect786" width="146.23373" height="29.178997" x="1211.1305" y="3226.562" transform="rotate(-90)"/>
      <rect style="font-variation-settings:'wdth' 70,'wght' 600;display:inline;fill:#5a6d72;fill-opacity:1;stroke-width:5.91443;stroke-dasharray:none" id="rect787" width="146.23373" height="29.178997" x="1211.1305" y="3197.3831" transform="rotate(-90)"/>
      <rect style="font-variation-settings:'wdth' 70,'wght' 600;display:inline;fill:#586a6f;fill-opacity:1;stroke-width:5.91443;stroke-dasharray:none" id="rect788" width="146.23373" height="29.178997" x="1211.1305" y="3168.2041" transform="rotate(-90)"/>
      <rect style="font-variation-settings:'wdth' 70,'wght' 600;display:inline;fill:#546469;fill-opacity:1;stroke-width:5.91443;stroke-dasharray:none" id="rect789" width="146.23373" height="29.178997" x="1211.1305" y="3008.4685" transform="rotate(-90)"/>
      <rect style="font-variation-settings:'wdth' 70,'wght' 600;display:inline;fill:#516166;fill-opacity:1;stroke-width:5.91443;stroke-dasharray:none" id="rect790" width="146.23373" height="29.178997" x="1211.1305" y="2979.2896" transform="rotate(-90)"/>
      <rect style="font-variation-settings:'wdth' 70,'wght' 600;display:inline;fill:#000;fill-opacity:1;stroke-width:1.1038;stroke-dasharray:none" id="rect791" width="146.23373" height="1.0163157" x="1211.1305" y="3372.4568" transform="rotate(-90)"/>
      <rect style="font-variation-settings:'wdth' 70,'wght' 600;display:inline;fill:#000;fill-opacity:1;stroke-width:1.1038;stroke-dasharray:none" id="rect792" width="146.23373" height="1.0163157" x="1211.1305" y="3343.2778" transform="rotate(-90)"/>
      <rect style="font-variation-settings:'wdth' 70,'wght' 600;display:inline;fill:#000;fill-opacity:1;stroke-width:1.1038;stroke-dasharray:none" id="rect793" width="146.23373" height="1.0163157" x="1211.1305" y="3314.0989" transform="rotate(-90)"/>
      <rect style="font-variation-settings:'wdth' 70,'wght' 600;display:inline;fill:#000;fill-opacity:1;stroke-width:1.1038;stroke-dasharray:none" id="rect794" width="146.23373" height="1.0163157" x="1211.1305" y="3284.9199" transform="rotate(-90)"/>
      <rect style="font-variation-settings:'wdth' 70,'wght' 600;display:inline;fill:#000;fill-opacity:1;stroke-width:1.1038;stroke-dasharray:none" id="rect795" width="146.23373" height="1.0163157" x="1211.1305" y="3255.741" transform="rotate(-90)"/>
      <rect style="font-variation-settings:'wdth' 70,'wght' 600;display:inline;fill:#000;fill-opacity:1;stroke-width:1.1038;stroke-dasharray:none" id="rect796" width="146.23373" height="1.0163157" x="1211.1305" y="3226.562" transform="rotate(-90)"/>
      <rect style="font-variation-settings:'wdth' 70,'wght' 600;display:inline;fill:#000;fill-opacity:1;stroke-width:1.1038;stroke-dasharray:none" id="rect797" width="146.23373" height="1.0163157" x="1211.1305" y="3197.3831" transform="rotate(-90)"/>
      <rect style="font-variation-settings:'wdth' 70,'wght' 600;display:inline;fill:#000;fill-opacity:1;stroke-width:1.1038;stroke-dasharray:none" id="rect798" width="146.23373" height="1.0163157" x="1211.1305" y="3168.2041" transform="rotate(-90)"/>
      <rect style="font-variation-settings:'wdth' 70,'wght' 600;display:inline;fill:#000;fill-opacity:1;stroke-width:1.1038;stroke-dasharray:none" id="rect799" width="146.23373" height="1.0163157" x="1211.1305" y="3037.6475" transform="rotate(-90)"/>
      <rect style="font-variation-settings:'wdth' 70,'wght' 600;display:inline;fill:#000;fill-opacity:1;stroke-width:1.1038;stroke-dasharray:none" id="rect800" width="146.23373" height="1.0163157" x="1211.1305" y="3008.4685" transform="rotate(-90)"/>
      <rect style="font-variation-settings:'wdth' 70,'wght' 600;display:inline;fill:#000;fill-opacity:1;stroke-width:1.1038;stroke-dasharray:none" id="rect801" width="146.23373" height="1.0163157" x="1211.1305" y="2979.2896" transform="rotate(-90)"/>
      <path style="font-variation-settings:'wdth' 70,'wght' 600;display:inline;opacity:1;fill:none;fill-opacity:1;stroke:#bec3c6;stroke-width:5.5382;stroke-dasharray:none;stroke-opacity:1;marker-end:url(#Triangle)" d="m 2993.879,-1286.7881 h 613.026" id="path801"/>
      <rect style="font-variation-settings:'wdth' 70,'wght' 600;display:inline;fill:#000;fill-opacity:1;stroke-width:1.1038;stroke-dasharray:none" id="rect860" width="146.23373" height="1.0163157" x="1211.1305" y="2949.0942" transform="rotate(-90)"/>
      <path style="font-variation-settings:'wdth' 70,'wght' 600;display:inline;opacity:1;fill:none;stroke:#bec3c6;stroke-width:10.1632;stroke-linecap:butt;stroke-dasharray:none;stroke-opacity:1" d="m 2950.1106,-1211.1407 h 714.1363" id="path860"/>
    </g>
    <g id="walls_0" transform="matrix(0.02439371,0,0,0.02439371,-0.07402299,244.39786)" style="display:inline">
      <path style="font-variation-settings:'wdth' 70,'wght' 600;fill:none;stroke:#bec3c6;stroke-width:35.571;stroke-linecap:butt;stroke-dasharray:none;stroke-opacity:1" d="M 2720.0663,173.75927 V 64.525476" id="path803"/>
      <path style="font-variation-settings:'wdth' 70,'wght' 600;fill:none;stroke:#bec3c6;stroke-width:35.571;stroke-linecap:butt;stroke-dasharray:none;stroke-opacity:1" d="M 1427.4669,562.98123 V 64.525476" id="path804"/>
      <path style="font-variation-settings:'wdth' 70,'wght' 600;fill:none;stroke:#bec3c6;stroke-width:45.7342;stroke-linecap:butt;stroke-dasharray:none;stroke-opacity:1" d="m 1409.6814,64.525476 h 1577.6961 l 1.8864,1802.981324 H 1672.5467 l -0.4716,58.665 m -0.4716,101.6315 -0.9432,1002.5469 H 49.000001 V 64.525476 H 1039.9373" id="path805"/>
      <path style="font-variation-settings:'wdth' 70,'wght' 600;fill:none;stroke:#bec3c6;stroke-width:45.7342;stroke-linecap:butt;stroke-dasharray:none;stroke-opacity:1" d="M 1039.9373,494.37991 H 49.000001" id="path806"/>
      <path style="font-variation-settings:'wdth' 70,'wght' 600;fill:none;stroke:#bec3c6;stroke-width:35.571;stroke-linecap:butt;stroke-dasharray:none;stroke-opacity:1" d="M 2720.0663,560.38959 V 338.06978" id="path808"/>
      <path style="font-variation-settings:'wdth' 70,'wght' 600;fill:none;stroke:#bec3c6;stroke-width:45.7342;stroke-linecap:butt;stroke-dasharray:none;stroke-opacity:1" d="m 2720.0663,490.212 h 267.3112" id="path809"/>
      <path style="font-variation-settings:'wdth' 70,'wght' 600;fill:none;stroke:#bec3c6;stroke-width:35.571;stroke-linecap:butt;stroke-dasharray:none;stroke-opacity:1" d="M 49.000001,1503.5497 H 874.35447" id="path810"/>
      <path style="font-variation-settings:'wdth' 70,'wght' 600;fill:none;stroke:#bec3c6;stroke-width:35.571;stroke-linecap:butt;stroke-dasharray:none;stroke-opacity:1" d="M 49.000001,1862.3617 H 807.10325" id="path811"/>
      <path style="font-variation-settings:'wdth' 70,'wght' 600;fill:none;stroke:#bec3c6;stroke-width:35.571;stroke-linecap:butt;stroke-dasharray:none;stroke-opacity:1" d="m 807.10325,1637.2027 v 483.8859" id="path812"/>
      <path style="font-variation-settings:'wdth' 70,'wght' 600;fill:none;stroke:#bec3c6;stroke-width:35.571;stroke-linecap:butt;stroke-dasharray:none;stroke-opacity:1" d="m 807.10325,2590.3294 v 440.0208" id="path813"/>
      <path style="font-variation-settings:'wdth' 70,'wght' 600;fill:none;stroke:#bec3c6;stroke-width:35.571;stroke-linecap:butt;stroke-dasharray:none;stroke-opacity:1" d="m 1043.2373,2222.7202 v 441.8002" id="path814"/>
      <path style="font-variation-settings:'wdth' 70,'wght' 600;fill:none;stroke:#bec3c6;stroke-width:35.571;stroke-linecap:butt;stroke-dasharray:none;stroke-opacity:1" d="m 1043.2373,2766.152 v 264.1982" id="path815"/>
      <path style="font-variation-settings:'wdth' 70,'wght' 600;fill:none;stroke:#bec3c6;stroke-width:35.571;stroke-linecap:butt;stroke-dasharray:none;stroke-opacity:1" d="m 1043.2373,2051.365 v 69.7236" id="path816"/>
      <path style="font-variation-settings:'wdth' 70,'wght' 600;fill:none;stroke:#bec3c6;stroke-width:35.571;stroke-linecap:butt;stroke-dasharray:none;stroke-opacity:1" d="m 1008.7418,1862.3617 h 661.9185" id="path817"/>
      <path style="font-variation-settings:'wdth' 70,'wght' 600;fill:none;stroke:#bec3c6;stroke-width:35.571;stroke-linecap:butt;stroke-dasharray:none;stroke-opacity:1" d="m 1043.2373,1503.5497 v 32.0215" id="path818"/>
      <path style="font-variation-settings:'wdth' 70,'wght' 600;fill:none;stroke:#bec3c6;stroke-width:10.1632;stroke-linecap:butt;stroke-dasharray:none;stroke-opacity:1" d="m 1043.2373,2602.3174 h 628.1083" id="path820"/>
      <path style="font-variation-settings:'wdth' 70,'wght' 600;fill:none;stroke:#bec3c6;stroke-width:10.1632;stroke-linecap:butt;stroke-dasharray:none;stroke-opacity:1" d="m 1043.2373,1648.9616 h 188.1904" id="path821"/>
      <rect style="font-variation-settings:'wght' 700;fill:#bec3c6;fill-opacity:1;stroke-width:37.6881;stroke-dasharray:none" id="rect821" width="98.632408" height="358.81204" x="1568.8162" y="1503.5497"/>
      <path style="font-variation-settings:'wdth' 70,'wght' 600;fill:none;stroke:#bec3c6;stroke-width:35.571;stroke-linecap:butt;stroke-dasharray:none;stroke-opacity:1" d="m 1043.2373,1637.2027 v 39.8084" id="path822"/>
      <rect style="font-variation-settings:'wght' 700;fill:#bec3c6;fill-opacity:1;stroke-width:8.90893;stroke-dasharray:none" id="rect822" width="91.468414" height="91.468414" x="2433.804" y="471.51282"/>
      <path style="font-variation-settings:'wdth' 70,'wght' 600;fill:none;stroke:#bec3c6;stroke-width:45.7342;stroke-linecap:butt;stroke-dasharray:none;stroke-opacity:1" d="m 1665.0334,494.37991 h 860.2389" id="path823"/>
      <rect style="font-variation-settings:'wght' 700;fill:#bec3c6;fill-opacity:1;stroke-width:8.90893;stroke-dasharray:none" id="rect830" width="91.468414" height="91.468414" x="948.46887" y="471.51282"/>
      <path style="font-variation-settings:'wdth' 70,'wght' 600;fill:none;stroke:#bec3c6;stroke-width:35.571;stroke-linecap:butt;stroke-dasharray:none;stroke-opacity:1" d="m 807.10325,2222.7202 v 265.9776" id="path833"/>
      <path style="font-variation-settings:'wdth' 70,'wght' 600;fill:none;stroke:#bec3c6;stroke-width:10.1632;stroke-linecap:butt;stroke-dasharray:none;stroke-opacity:1" d="m 1119.9987,557.89963 h -90.2246" id="path847"/>
      <path style="font-variation-settings:'wdth' 70,'wght' 600;fill:none;stroke:#bec3c6;stroke-width:10.1632;stroke-linecap:butt;stroke-dasharray:none;stroke-opacity:1" d="M 1427.4669,557.89963 H 1323.2618" id="path848"/>
      <rect style="font-variation-settings:'wght' 700;fill:#bec3c6;fill-opacity:1;stroke-width:8.90893;stroke-dasharray:none" id="rect848" width="91.468414" height="91.468414" x="1619.2992" y="471.51282"/>
      <path style="font-variation-settings:'wdth' 70,'wght' 600;fill:none;stroke:#bec3c6;stroke-width:10.1632;stroke-linecap:butt;stroke-dasharray:none;stroke-opacity:1" d="m 1228.7691,2413.3593 h 442.5765" id="path849"/>
      <path style="font-variation-settings:'wdth' 70,'wght' 600;fill:none;stroke:#bec3c6;stroke-width:10.1632;stroke-linecap:butt;stroke-dasharray:none;stroke-opacity:1" d="m 1043.2373,2413.3593 h 83.9002" id="path850"/>
      <path style="font-variation-settings:'wdth' 70,'wght' 600;fill:none;stroke:#bec3c6;stroke-width:35.571;stroke-linecap:butt;stroke-dasharray:none;stroke-opacity:1" d="M 975.98608,2051.365 H 1670.6603" id="path851"/>
      <path style="font-variation-settings:'wdth' 70,'wght' 600;fill:none;stroke:#bec3c6;stroke-width:35.571;stroke-linecap:butt;stroke-dasharray:none;stroke-opacity:1" d="m 807.10325,2051.365 h 67.25122" id="path852"/>
      <path style="font-variation-settings:'wdth' 70,'wght' 600;fill:none;stroke:#bec3c6;stroke-width:10.1632;stroke-linecap:butt;stroke-dasharray:none;stroke-opacity:1" d="m 1231.4277,1503.5497 v 358.812" id="path853"/>
      <path style="font-variation-settings:'wdth' 70,'wght' 600;fill:none;stroke:#bec3c6;stroke-width:35.571;stroke-linecap:butt;stroke-dasharray:none;stroke-opacity:1" d="m 807.10325,1503.5497 v 32.0215" id="path854"/>
      <path style="font-variation-settings:'wdth' 70,'wght' 600;fill:none;stroke:#bec3c6;stroke-width:35.571;stroke-linecap:butt;stroke-dasharray:none;stroke-opacity:1" d="M 1310.0297,1503.5497 H 975.98608" id="path855"/>
      <path style="font-variation-settings:'wdth' 70,'wght' 600;fill:none;stroke:#bec3c6;stroke-width:35.571;stroke-linecap:butt;stroke-dasharray:none;stroke-opacity:1" d="M 1667.4486,1503.5497 H 1411.6613" id="path856"/>
      <path style="font-variation-settings:'wdth' 70,'wght' 600;fill:none;stroke:#bec3c6;stroke-width:10.1632;stroke-linecap:butt;stroke-dasharray:none;stroke-opacity:1" d="m 1119.9987,46.739976 h -90.2246" id="path857"/>
      <path style="font-variation-settings:'wdth' 70,'wght' 600;fill:none;stroke:#bec3c6;stroke-width:10.1632;stroke-linecap:butt;stroke-dasharray:none;stroke-opacity:1" d="M 1427.4669,46.739976 H 1323.2618" id="path858"/>
    </g>
    <g id="icons_0" transform="matrix(0.02439371,0,0,0.02439371,10.159623,263.62762)" style="display:inline">
      <path d="m 5322.8392,1283.8815 q -3.9473,0 -6.5946,-2.7239 -2.6471,-2.7239 -2.6471,-6.4979 0,-3.822 2.6373,-6.5319 2.6373,-2.7098 6.5844,-2.7098 3.7739,0 6.5078,2.6999 2.7339,2.6999 2.7339,6.5219 0,3.7739 -2.7239,6.5078 -2.7239,2.7339 -6.4978,2.7339 z m 26.7422,81.5365 v -24.9615 q 0,-0.5776 -0.3371,-0.9145 -0.3369,-0.337 -0.9146,-0.337 h -25.4041 q -3.8324,0 -6.4262,-2.6565 -2.594,-2.6563 -2.594,-6.3154 v -30.5737 q 0,-3.8323 2.5272,-6.5032 2.5269,-2.6708 6.4579,-2.6708 2.0239,0 4.2542,0.9433 2.2306,0.9435 4.7623,4.178 4.611,6.161 11.0465,10.4158 6.4352,4.2549 14.3288,4.7171 v 7.3063 q -7.1908,-0.3851 -13.655,-3.4848 -6.4643,-3.0997 -12.4617,-8.5966 v 23.6912 h 16.7021 q 3.7553,0 6.3876,2.6323 2.6323,2.6324 2.6323,6.3396 v 26.7904 z m -37.4473,0 q -10.406,0 -17.4624,-7.0562 -7.0562,-7.0562 -7.0562,-17.4625 0,-8.635 5.824,-15.3832 5.824,-6.7481 15.2484,-8.4038 v 8.1343 q -6.1899,0.6545 -9.9395,5.3763 -3.7494,4.7219 -3.7494,10.2764 0,7.3451 4.8324,12.2787 4.8326,4.9336 12.3027,4.9336 5.5547,0 10.2524,-3.7496 4.6976,-3.7496 5.2753,-9.9394 h 8.1344 q -1.4827,9.2992 -8.2548,15.1473 -6.7723,5.848 -15.4073,5.848 z" id="path1-9" style="display:inline;fill:#fff;fill-opacity:.803459;stroke-width:.125;stroke-dasharray:none;filter:url(#filter182-2-9)" transform="matrix(1.0163157,0,0,1.0163157,-4428.6863,-442.23015)"/>
      <g id="g834" style="filter:url(#filter65)" transform="translate(-18.039317,-1538.3503)">
        <rect style="font-variation-settings:'wdth' 70,'wght' 600;fill:none;fill-opacity:1;stroke:#d6d7de;stroke-width:4.78791;stroke-linejoin:miter;stroke-dasharray:none;stroke-opacity:1" id="rect833" width="95.212135" height="95.212151" x="2405.0667" y="979.80487" ry="9.1410179"/>
        <path d="m 2427.7505,1062.6135 h 12.6169 v -23.8318 h 6.2306 v -17.757 c 0,-2.6337 -0.8992,-4.8497 -2.6976,-6.6481 -1.7985,-1.7985 -4.0665,-2.6977 -6.804,-2.6977 h -6.2306 c -2.7375,0 -4.9794,0.8992 -6.7258,2.6977 -1.7466,1.7984 -2.6199,4.0144 -2.6199,6.6481 v 17.757 h 6.2304 z m 6.1958,-54.9845 c 2.1478,0 3.9626,-0.7033 5.4445,-2.1098 1.4819,-1.4064 2.2228,-3.2356 2.2228,-5.4875 0,-2.148 -0.7292,-3.93697 -2.1877,-5.3669 -1.4583,-1.42987 -3.2615,-2.1448 -5.4096,-2.1448 -2.1481,0 -3.937,0.70327 -5.3669,2.1098 -1.4299,1.4064 -2.1449,3.18367 -2.1449,5.3318 0,2.2518 0.7033,4.0926 2.11,5.5225 1.4064,1.4299 3.1837,2.1449 5.3318,2.1449 z m 28.3838,9.9689 h 20.0934 l -9.9688,-16.1994 z m 10.1246,35.6697 9.9688,-16.1993 h -20.0934 z" id="path834" style="fill:#d5d6dd;fill-opacity:1;stroke-width:0;stroke-dasharray:none"/>
      </g>
    </g>
    <g id="g46" transform="translate(-0.00103178)">
      <path style="font-variation-settings:'wght' 700;fill:#798387;fill-opacity:1;stroke-width:.247917" d="m 23.972666,263.90008 h 13.63544 l 10e-7,9.02418 h -2.479171 v -6.61938 h -8.677099 v 6.61938 h -2.479171 z" id="path46"/>
      <rect style="font-variation-settings:'wght' 700;fill:#798387;fill-opacity:1;stroke-width:10" id="rect53" width="550" height="77" x="975.95837" y="2305.5" transform="matrix(0.02479171,0,0,0.02479171,-0.22301084,217.51479)"/>
      <rect style="font-variation-settings:'wght' 700;fill:#798387;fill-opacity:1;stroke-width:.127494" id="rect1" width="1.7354198" height="3.9666736" x="42.938324" y="262.27621"/>
      <rect style="font-variation-settings:'wght' 700;fill:#798387;fill-opacity:1;stroke-width:.294903" id="rect8" width="3.3468809" height="11.004466" x="62.717655" y="265.51459"/>
      <rect style="font-variation-settings:'wght' 700;fill:#798387;fill-opacity:1;stroke-width:.127494" id="rect9" width="1.7354198" height="3.9666736" x="43.211033" y="272.61438"/>
      <rect style="font-variation-settings:'wght' 700;fill:#798387;fill-opacity:1;stroke-width:.127494" id="rect10" width="1.7354198" height="3.9666736" x="52.086464" y="272.61438"/>
      <rect style="font-variation-settings:'wght' 700;fill:#798387;fill-opacity:1;stroke-width:.127494" id="rect11" width="1.7354198" height="3.9666736" x="51.88813" y="262.87125"/>
      <rect style="font-variation-settings:'wght' 700;fill:#798387;fill-opacity:1;stroke-width:.127494" id="rect12" width="1.7354198" height="3.9666736" x="47.338852" y="266.96808"/>
      <rect style="font-variation-settings:'wght' 700;fill:#798387;fill-opacity:1;stroke-width:.127494" id="rect13" width="1.7354198" height="3.9666736" x="-263.93726" y="59.445267" transform="rotate(-90)"/>
      <rect style="font-variation-settings:'wght' 700;fill:#798387;fill-opacity:1;stroke-width:.127494" id="rect21" width="1.7354198" height="3.9666736" x="-263.93726" y="63.895378" transform="rotate(-90)"/>
      <rect style="font-variation-settings:'wght' 700;fill:#798387;fill-opacity:1;stroke-width:.156509" id="rect22" width="1.2395855" height="8.368557" x="44.153118" y="281.02536"/>
      <rect style="font-variation-settings:'wght' 700;fill:#798387;fill-opacity:1;stroke-width:.156509" id="rect23" width="1.2395855" height="8.368557" x="47.971043" y="281.02536"/>
      <rect style="font-variation-settings:'wght' 700;fill:#798387;fill-opacity:1;stroke-width:.156509" id="rect24" width="1.2395855" height="8.368557" x="51.788967" y="281.02536"/>
      <rect style="font-variation-settings:'wght' 700;fill:#798387;fill-opacity:1;stroke-width:.156509" id="rect26" width="1.2395855" height="8.368557" x="55.606892" y="281.02536"/>
      <rect style="font-variation-settings:'wght' 700;fill:#798387;fill-opacity:1;stroke-width:.156509" id="rect27" width="1.2395855" height="8.368557" x="59.424816" y="281.02536"/>
      <rect style="font-variation-settings:'wght' 700;fill:#798387;fill-opacity:1;stroke-width:.156509" id="rect28" width="1.2395855" height="8.368557" x="63.242741" y="281.02536"/>
      <rect style="font-variation-settings:'wght' 700;fill:#798387;fill-opacity:1;stroke-width:.156509" id="rect29" width="1.2395855" height="8.368557" x="67.215569" y="281.02536"/>
      <rect style="font-variation-settings:'wght' 700;fill:#798387;fill-opacity:1;stroke-width:.192752" id="rect30" width="3.9666736" height="3.9666736" x="8.6641111" y="261.24722"/>
      <rect style="font-variation-settings:'wght' 700;fill:#798387;fill-opacity:1;stroke-width:.192752" id="rect31" width="3.9666736" height="3.9666736" x="5.2519832" y="268.31198"/>
      <rect style="font-variation-settings:'wght' 700;fill:#798387;fill-opacity:1;stroke-width:.192752" id="rect32" width="3.9666736" height="3.9666736" x="14.152207" y="271.95636"/>
      <rect style="font-variation-settings:'wght' 700;fill:#798387;fill-opacity:1;stroke-width:.0925661" id="rect35" width="1.7850031" height="2.0329201" x="14.970334" y="265.36176"/>
      <rect style="font-variation-settings:'wght' 700;fill:#798387;fill-opacity:1;stroke-width:.0925661" id="rect39" width="1.7850031" height="2.0329201" x="4.4545579" y="274.56686"/>
      <rect style="font-variation-settings:'wght' 700;fill:#798387;fill-opacity:1;stroke-width:.337786" id="rect1576" width="17.733105" height="2.724915" x="6.2395611" y="249.93478"/>
    </g>
    <path id="roomNames_0" d="m 400.25269,54.169026 q -4.896,0 -7.92,-4.08 -2.976,-4.08 -2.976,-11.856 0,-7.824 2.976,-11.76 3.024,-3.936 7.92,-3.936 4.896,0 7.872,3.984 3.024,3.936 3.024,11.712 0,7.776 -3.024,11.856 -2.976,4.08 -7.872,4.08 z m 0,-5.472 q 1.2,0 2.16,-0.864 0.96,-0.912 1.488,-3.168 0.576,-2.304 0.576,-6.432 0,-4.176 -0.576,-6.384 -0.528,-2.208 -1.488,-3.024 -0.96,-0.816 -2.16,-0.816 -1.2,0 -2.16,0.816 -0.96,0.816 -1.536,3.024 -0.528,2.208 -0.528,6.384 0,4.128 0.528,6.432 0.576,2.256 1.536,3.168 0.96,0.864 2.16,0.864 z m 25.34399,5.472 q -4.896,0 -7.92,-4.08 -2.976,-4.08 -2.976,-11.856 0,-7.824 2.976,-11.76 3.024,-3.936 7.92,-3.936 4.896,0 7.872,3.984 3.024,3.936 3.024,11.712 0,7.776 -3.024,11.856 -2.976,4.08 -7.872,4.08 z m 0,-5.472 q 1.2,0 2.16,-0.864 0.96,-0.912 1.488,-3.168 0.576,-2.304 0.576,-6.432 0,-4.176 -0.576,-6.384 -0.528,-2.208 -1.488,-3.024 -0.96,-0.816 -2.16,-0.816 -1.2,0 -2.16,0.816 -0.96,0.816 -1.536,3.024 -0.528,2.208 -0.528,6.384 0,4.128 0.528,6.432 0.576,2.256 1.536,3.168 0.96,0.864 2.16,0.864 z m 24.336,5.472 q -2.448,0 -4.464,-0.576 -1.968,-0.528 -3.504,-1.488 -1.536,-0.96 -2.64,-2.256 l 3.264,-4.464 q 1.392,1.344 3.072,2.208 1.68,0.864 3.6,0.864 2.208,0 3.552,-0.912 1.392,-0.96 1.392,-2.688 0,-1.344 -0.672,-2.304 -0.672,-1.008 -2.448,-1.536 -1.728,-0.528 -5.088,-0.528 v -4.992 q 2.736,0 4.32,-0.528 1.584,-0.528 2.208,-1.44 0.672,-0.912 0.672,-2.112 0,-1.632 -1.008,-2.496 -0.96,-0.864 -2.736,-0.864 -1.632,0 -2.976,0.72 -1.296,0.672 -2.736,1.968 l -3.552,-4.32 q 2.112,-1.824 4.464,-2.832 2.352,-1.056 5.136,-1.056 3.12,0 5.472,1.008 2.4,0.96 3.696,2.832 1.344,1.824 1.344,4.512 0,2.352 -1.344,4.032 -1.296,1.68 -3.744,2.736 v 0.192 q 1.728,0.528 3.12,1.536 1.392,0.96 2.16,2.448 0.768,1.488 0.768,3.456 0,2.832 -1.584,4.848 -1.536,1.968 -4.128,3.024 -2.544,1.008 -5.616,1.008 z M 398.5967,-6.4069742 V -37.702974 h 7.056 v 12.048 h 10.8 v -12.048 h 7.104 v 31.2959998 h -7.104 V -19.462974 h -10.8 v 13.0559998 z m 32.35199,0 V -37.702974 h 10.704 q 3.264,0 5.856,0.72 2.64,0.672 4.128,2.4 1.536,1.68 1.536,4.656 0,2.352 -1.056,4.224 -1.056,1.824 -3.024,2.544 v 0.192 q 2.64,0.576 4.128,2.304 1.488,1.68 1.488,4.704 0,3.312 -1.632,5.424 -1.632,2.1119998 -4.416,3.1199998 -2.736,1.008 -6.096,1.008 z m 7.056,-18.7679998 h 3.312 q 2.592,0 3.744,-1.008 1.2,-1.008 1.2,-2.688 0,-1.824 -1.2,-2.592 -1.2,-0.768 -3.696,-0.768 h -3.36 z m 0,13.296 h 3.984 q 2.88,0 4.32,-1.008 1.488,-1.056 1.488,-3.216 0,-2.016 -1.488,-2.928 -1.44,-0.912 -4.32,-0.912 h -3.984 z m 170.6515,989.237414 q -6.528,0 -10.56,-5.44 -3.968,-5.44 -3.968,-15.808 0,-10.432 3.968,-15.68 4.032,-5.248 10.56,-5.248 6.528,0 10.496,5.312 4.032,5.248 4.032,15.616 0,10.368 -4.032,15.808 -3.968,5.44 -10.496,5.44 z m 0,-7.296 q 1.6,0 2.88,-1.152 1.28,-1.216 1.984,-4.224 0.768,-3.072 0.768,-8.576 0,-5.568 -0.768,-8.512 -0.704,-2.944 -1.984,-4.032 -1.28,-1.088 -2.88,-1.088 -1.6,0 -2.88,1.088 -1.28,1.088 -2.048,4.032 -0.704,2.944 -0.704,8.512 0,5.504 0.704,8.576 0.768,3.008 2.048,4.224 1.28,1.152 2.88,1.152 z m 33.79199,7.296 q -6.528,0 -10.56,-5.44 -3.968,-5.44 -3.968,-15.808 0,-10.432 3.968,-15.68 4.032,-5.248 10.56,-5.248 6.528,0 10.496,5.312 4.032,5.248 4.032,15.616 0,10.368 -4.032,15.808 -3.968,5.44 -10.496,5.44 z m 0,-7.296 q 1.6,0 2.88,-1.152 1.28,-1.216 1.984,-4.224 0.768,-3.072 0.768,-8.576 0,-5.568 -0.768,-8.512 -0.704,-2.944 -1.984,-4.032 -1.28,-1.088 -2.88,-1.088 -1.6,0 -2.88,1.088 -1.28,1.088 -2.048,4.032 -0.704,2.944 -0.704,8.512 0,5.504 0.704,8.576 0.768,3.008 2.048,4.224 1.28,1.152 2.88,1.152 z m 31.552,7.296 q -4.032,0 -6.976,-1.472 -2.944,-1.472 -4.928,-3.392 l 4.992,-5.632 q 1.024,1.152 2.752,2.048 1.792,0.832 3.52,0.832 2.432,0 4.288,-1.344 1.92,-1.344 3.008,-4.48 1.152,-3.2 1.152,-8.576 0,-5.056 -0.96,-7.872 -0.896,-2.88 -2.432,-4.032 -1.472,-1.216 -3.2,-1.216 -1.344,0 -2.56,0.704 -1.152,0.704 -1.856,2.112 -0.704,1.408 -0.704,3.776 0,2.112 0.704,3.456 0.704,1.28 1.92,1.856 1.216,0.576 2.752,0.576 1.6,0 3.264,-0.96 1.664,-1.024 3.008,-3.392 l 0.448,6.144 q -1.536,2.24 -4.032,3.584 -2.496,1.28 -4.544,1.28 -3.456,0 -6.208,-1.344 -2.752,-1.344 -4.352,-4.096 -1.536,-2.816 -1.536,-7.104 0,-4.224 1.856,-7.296 1.856,-3.072 4.928,-4.672 3.072,-1.664 6.72,-1.664 3.008,0 5.76,1.152 2.752,1.152 4.864,3.584 2.176,2.432 3.456,6.272 1.344,3.776 1.344,9.152 0,5.696 -1.408,9.856 -1.344,4.16 -3.648,6.848 -2.304,2.688 -5.248,4.032 -2.944,1.28 -6.144,1.28 z m -67.55198,-80.768 v -41.728 h 9.408 v 16.064 h 14.4 v -16.064 h 9.472 v 41.728 h -9.472 v -17.408 h -14.4 v 17.408 z m 43.13599,0 v -41.728 h 14.272 q 4.352,0 7.808,0.96 3.52,0.896 5.504,3.2 2.048,2.24 2.048,6.208 0,3.136 -1.408,5.632 -1.408,2.432 -4.032,3.392 v 0.256 q 3.52,0.768 5.504,3.072 1.984,2.24 1.984,6.272 0,4.416 -2.176,7.232 -2.176,2.816 -5.888,4.16 -3.648,1.344 -8.128,1.344 z m 9.408,-25.024 h 4.416 q 3.456,0 4.992,-1.344 1.6,-1.344 1.6,-3.584 0,-2.432 -1.6,-3.456 -1.6,-1.024 -4.928,-1.024 h -4.48 z m 0,17.728 h 5.312 q 3.84,0 5.76,-1.344 1.984,-1.408 1.984,-4.288 0,-2.688 -1.984,-3.904 -1.92,-1.216 -5.76,-1.216 h -5.312 z M 591.2162,1300.2752 q -9.792,0 -15.84,-8.16 -5.952,-8.16 -5.952,-23.712 0,-15.648 5.952,-23.52 6.048,-7.872 15.84,-7.872 9.792,0 15.744,7.968 6.048,7.872 6.048,23.424 0,15.552 -6.048,23.712 -5.952,8.16 -15.744,8.16 z m 0,-10.944 q 2.4,0 4.32,-1.728 1.92,-1.824 2.976,-6.336 1.152,-4.608 1.152,-12.864 0,-8.352 -1.152,-12.768 -1.056,-4.416 -2.976,-6.048 -1.92,-1.632 -4.32,-1.632 -2.4,0 -4.32,1.632 -1.92,1.632 -3.072,6.048 -1.056,4.416 -1.056,12.768 0,8.256 1.056,12.864 1.152,4.512 3.072,6.336 1.92,1.728 4.32,1.728 z m 32.06399,9.792 v -11.424 h 13.248 v -35.232 h -11.424 v -8.736 q 4.992,-0.96 8.448,-2.304 3.552,-1.344 6.72,-3.264 h 10.368 v 49.536 h 11.424 v 11.424 z m 69.31198,1.152 q -9.792,0 -15.84,-8.16 -5.952,-8.16 -5.952,-23.712 0,-15.648 5.952,-23.52 6.048,-7.872 15.84,-7.872 9.792,0 15.744,7.968 6.048,7.872 6.048,23.424 0,15.552 -6.048,23.712 -5.952,8.16 -15.744,8.16 z m 0,-10.944 q 2.4,0 4.32,-1.728 1.92,-1.824 2.976,-6.336 1.152,-4.608 1.152,-12.864 0,-8.352 -1.152,-12.768 -1.056,-4.416 -2.976,-6.048 -1.92,-1.632 -4.32,-1.632 -2.4,0 -4.32,1.632 -1.92,1.632 -3.072,6.048 -1.056,4.416 -1.056,12.768 0,8.256 1.056,12.864 1.152,4.512 3.072,6.336 1.92,1.728 4.32,1.728 z m -104.68796,-110.208 v -62.592 h 14.112 v 24.096 h 21.6 v -24.096 h 14.208 v 62.592 h -14.208 v -26.112 h -21.6 v 26.112 z m 64.70398,0 v -62.592 h 21.408 q 6.528,0 11.712,1.44 5.28,1.344 8.256,4.8 3.072,3.36 3.072,9.312 0,4.704 -2.112,8.448 -2.112,3.648 -6.048,5.088 v 0.384 q 5.28,1.152 8.256,4.608 2.976,3.36 2.976,9.408 0,6.624 -3.264,10.848 -3.264,4.224 -8.832,6.24 -5.472,2.016 -12.192,2.016 z m 14.112,-37.536 h 6.624 q 5.184,0 7.488,-2.016 2.4,-2.016 2.4,-5.376 0,-3.648 -2.4,-5.184 -2.4,-1.536 -7.392,-1.536 h -6.72 z m 0,26.592 h 7.968 q 5.76,0 8.64,-2.016 2.976,-2.112 2.976,-6.432 0,-4.032 -2.976,-5.856 -2.88,-1.824 -8.64,-1.824 h -7.968 z M 591.3602,745.67858 q -9.792,0 -15.84,-8.16 -5.952,-8.16 -5.952,-23.712 0,-15.648 5.952,-23.52 6.048,-7.872 15.84,-7.872 9.792,0 15.744,7.968 6.048,7.872 6.048,23.424 0,15.552 -6.048,23.712 -5.952,8.16 -15.744,8.16 z m 0,-10.944 q 2.4,0 4.32,-1.728 1.92,-1.824 2.976,-6.336 1.152,-4.608 1.152,-12.864 0,-8.352 -1.152,-12.768 -1.056,-4.416 -2.976,-6.048 -1.92,-1.632 -4.32,-1.632 -2.4,0 -4.32,1.632 -1.92,1.632 -3.072,6.048 -1.056,4.416 -1.056,12.768 0,8.256 1.056,12.864 1.152,4.512 3.072,6.336 1.92,1.728 4.32,1.728 z m 50.68799,10.944 q -9.792,0 -15.84,-8.16 -5.952,-8.16 -5.952,-23.712 0,-15.648 5.952,-23.52 6.048,-7.872 15.84,-7.872 9.792,0 15.744,7.968 6.048,7.872 6.048,23.424 0,15.552 -6.048,23.712 -5.952,8.16 -15.744,8.16 z m 0,-10.944 q 2.4,0 4.32,-1.728 1.92,-1.824 2.976,-6.336 1.152,-4.608 1.152,-12.864 0,-8.352 -1.152,-12.768 -1.056,-4.416 -2.976,-6.048 -1.92,-1.632 -4.32,-1.632 -2.4,0 -4.32,1.632 -1.92,1.632 -3.072,6.048 -1.056,4.416 -1.056,12.768 0,8.256 1.056,12.864 1.152,4.512 3.072,6.336 1.92,1.728 4.32,1.728 z m 50.59198,10.944 q -6.048,0 -10.944,-2.112 -4.8,-2.112 -7.584,-5.856 -2.688,-3.84 -2.688,-8.736 0,-3.744 1.344,-6.432 1.44,-2.784 3.744,-4.896 2.4,-2.112 5.28,-3.648 v -0.384 q -3.456,-2.688 -5.856,-6.144 -2.304,-3.456 -2.304,-8.256 0,-5.184 2.496,-8.928 2.496,-3.84 6.912,-5.856 4.416,-2.016 10.08,-2.016 8.448,0 13.44,4.608 5.088,4.512 5.088,12.096 0,2.88 -1.152,5.472 -1.056,2.496 -2.88,4.512 -1.824,1.92 -3.936,3.36 v 0.384 q 2.88,1.536 5.28,3.744 2.4,2.112 3.84,5.184 1.44,2.976 1.44,7.008 0,4.8 -2.688,8.64 -2.688,3.744 -7.584,6.048 -4.8,2.208 -11.328,2.208 z m 3.84,-36.672 q 1.824,-2.112 2.784,-4.32 0.96,-2.208 0.96,-4.608 0,-2.4 -0.864,-4.128 -0.864,-1.728 -2.592,-2.688 -1.632,-1.056 -3.936,-1.056 -2.784,0 -4.8,1.824 -2.016,1.728 -2.016,5.184 0,2.496 1.344,4.224 1.344,1.728 3.648,3.072 2.4,1.344 5.472,2.496 z m -3.552,26.88 q 2.304,0 4.128,-0.768 1.92,-0.864 2.976,-2.496 1.056,-1.728 1.056,-4.32 0,-2.688 -1.632,-4.416 -1.536,-1.824 -4.512,-3.168 -2.88,-1.44 -6.72,-3.072 -2.016,1.824 -3.36,4.416 -1.344,2.496 -1.344,5.28 0,2.688 1.248,4.608 1.344,1.92 3.456,2.976 2.208,0.96 4.704,0.96 z m -104.87996,-111.36 v -62.592 h 14.112 v 24.096 h 21.6 v -24.096 h 14.208 v 62.592 h -14.208 v -26.112 h -21.6 v 26.112 z m 64.70398,0 v -62.592 h 21.408 q 6.528,0 11.712,1.44 5.28,1.344 8.256,4.8 3.072,3.36 3.072,9.312 0,4.704 -2.112,8.448 -2.112,3.648 -6.048,5.088 v 0.384 q 5.28,1.152 8.256,4.608 2.976,3.36 2.976,9.408 0,6.624 -3.264,10.848 -3.264,4.224 -8.832,6.24 -5.472,2.016 -12.192,2.016 z m 14.112,-37.536 h 6.624 q 5.184,0 7.488,-2.016 2.4,-2.016 2.4,-5.376 0,-3.648 -2.4,-5.184 -2.4,-1.536 -7.392,-1.536 h -6.72 z m 0,26.592 h 7.968 q 5.76,0 8.64,-2.016 2.976,-2.112 2.976,-6.432 0,-4.032 -2.976,-5.856 -2.88,-1.824 -8.64,-1.824 h -7.968 z M -373.88979,1036.8589 q -19.584,0 -31.68,-16.32 -11.904,-16.32 -11.904,-47.42401 0,-31.296 11.904,-47.04 12.096,-15.744 31.68,-15.744 19.584,0 31.488,15.936 12.096,15.744 12.096,46.848 0,31.10401 -12.096,47.42401 -11.904,16.32 -31.488,16.32 z m 0,-21.888 q 4.8,0 8.64,-3.456 3.84,-3.648 5.952,-12.67201 2.304,-9.216 2.304,-25.728 0,-16.704 -2.304,-25.536 -2.112,-8.832 -5.952,-12.096 -3.84,-3.264 -8.64,-3.264 -4.8,0 -8.64,3.264 -3.84,3.264 -6.144,12.096 -2.112,8.832 -2.112,25.536 0,16.512 2.112,25.728 2.304,9.02401 6.144,12.67201 3.84,3.456 8.64,3.456 z m 101.37598,21.888 q -19.584,0 -31.68,-16.32 -11.904,-16.32 -11.904,-47.42401 0,-31.296 11.904,-47.04 12.096,-15.744 31.68,-15.744 19.584,0 31.488,15.936 12.096,15.744 12.096,46.848 0,31.10401 -12.096,47.42401 -11.904,16.32 -31.488,16.32 z m 0,-21.888 q 4.8,0 8.64,-3.456 3.84,-3.648 5.952,-12.67201 2.304,-9.216 2.304,-25.728 0,-16.704 -2.304,-25.536 -2.112,-8.832 -5.952,-12.096 -3.84,-3.264 -8.64,-3.264 -4.8,0 -8.64,3.264 -3.84,3.264 -6.144,12.096 -2.112,8.832 -2.112,25.536 0,16.512 2.112,25.728 2.304,9.02401 6.144,12.67201 3.84,3.456 8.64,3.456 z m 104.63998,21.888 q -8.832,0 -17.088,-3.456 -8.256,-3.456 -14.784,-10.752 -6.528,-7.296 -10.368,-18.624 -3.84,-11.52001 -3.84,-27.64801 0,-17.088 4.032,-29.568 4.032,-12.48 10.944,-20.544 6.912,-8.064 15.744,-11.904 8.832,-4.032 18.624,-4.032 12.096,0 20.928,4.416 8.832,4.224 14.592,10.176 l -14.784,16.896 q -3.264,-3.456 -8.448,-5.952 -5.184,-2.688 -10.56,-2.688 -6.912,0 -12.864,4.032 -5.76,4.032 -9.216,13.632 -3.264,9.408 -3.264,25.536 0,15.168 2.688,23.80801 2.88,8.448 7.488,12.096 4.608,3.456 9.6,3.456 4.224,0 7.68,-2.112 3.456,-2.112 5.568,-6.336 2.112,-4.416 2.112,-11.32801 0,-6.528 -2.112,-10.368 -2.112,-3.84 -5.76,-5.568 -3.456,-1.728 -8.064,-1.728 -4.8,0 -9.984,2.88 -4.992,2.88 -9.024,10.176 l -1.344,-18.432 q 4.8,-7.104 12.288,-10.752 7.488,-3.84 13.44,-3.84 10.368,0 18.624,4.032 8.256,4.032 12.864,12.48 4.8,8.256 4.8,21.12 0,12.67201 -5.568,21.88801 -5.376,9.216 -14.592,14.208 -9.216,4.8 -20.352,4.8 z M -380.51376,794.55489 v -125.184 h 28.224 v 48.192 h 43.2 v -48.192 h 28.416 v 125.184 h -28.416 v -52.224 h -43.2 v 52.224 z m 129.40796,0 v -125.184 h 42.816 q 13.056,0 23.424,2.88 10.56,2.688 16.512,9.6 6.144,6.72 6.144,18.624 0,9.408 -4.224,16.896 -4.224,7.296 -12.096,10.176 v 0.768 q 10.56,2.304 16.512,9.216 5.952,6.72 5.952,18.816 0,13.248 -6.528,21.696 -6.528,8.448 -17.664,12.48 -10.944,4.032 -24.384,4.032 z m 28.224,-75.072 h 13.248 q 10.368,0 14.976,-4.032 4.8,-4.032 4.8,-10.752 0,-7.296 -4.8,-10.368 -4.8,-3.072 -14.784,-3.072 h -13.44 z m 0,53.184 h 15.936 q 11.52,0 17.28,-4.032 5.952,-4.224 5.952,-12.864 0,-8.064 -5.952,-11.712 -5.76,-3.648 -17.28,-3.648 h -15.936 z" style="font-size:48px;font-family:'Source Sans 3';-inkscape-font-specification:'Source Sans 3, @wght=700';font-variation-settings:'wght' 700;text-align:center;white-space:pre;display:inline;opacity:1;fill:#bec3c6;stroke-width:55" transform="matrix(0.02479171,0,0,0.02479171,17.121448,282.8614)"/>
  </g>
</svg>
