<svg width="3000" height="4100" viewBox="0 0 3000 4100" version="1.1" id="svg1" xml:space="preserve" xmlns="http://www.w3.org/2000/svg">
  <defs id="defs1">
    <linearGradient id="swatch446">
      <stop style="stop-color:#4c5a5f;stop-opacity:1" offset="0" id="stop446"/>
    </linearGradient>
    <marker style="overflow:visible" id="Triangle" refX="0" refY="0" orient="auto-start-reverse" markerWidth="1" markerHeight="1" viewBox="0 0 1 1" preserveAspectRatio="xMidYMid">
      <path transform="scale(0.5)" style="fill:context-stroke;fill-rule:evenodd;stroke:context-stroke;stroke-width:1pt" d="M 5.77,0 -2.88,5 V -5 Z" id="path597"/>
    </marker>
    <filter style="color-interpolation-filters:sRGB" id="filter65" x="-0.10076399" y="-0.10076398" width="1.201528" height="1.201528">
      <feFlood result="flood" flood-opacity="0.396078" flood-color="rgb(0,0,0)" id="feFlood64"/>
      <feGaussianBlur result="blur" in="SourceGraphic" stdDeviation="3.000000" id="feGaussianBlur64"/>
      <feOffset result="offset" in="blur" dx="0.000000" dy="0.000000" id="feOffset64"/>
      <feComposite result="comp1" operator="in" in="flood" in2="offset" id="feComposite64"/>
      <feComposite result="comp2" operator="over" in="SourceGraphic" in2="comp1" id="feComposite65"/>
    </filter>
    <filter style="color-interpolation-filters:sRGB" id="filter182-2-9" x="-0.10334908" y="-0.071999997" width="1.2066982" height="1.1440001">
      <feFlood result="flood" flood-opacity="0.396078" flood-color="rgb(0,0,0)" id="feFlood181-9-2"/>
      <feGaussianBlur result="blur" in="SourceGraphic" stdDeviation="3.000000" id="feGaussianBlur181-8-4"/>
      <feOffset result="offset" in="blur" dx="0.000000" dy="0.000000" id="feOffset181-4-8"/>
      <feComposite result="comp1" operator="in" in="flood" in2="offset" id="feComposite181-5-5"/>
      <feComposite result="comp2" operator="over" in="SourceGraphic" in2="comp1" id="feComposite182-1-8"/>
    </filter>
    <rect x="159.09903" y="-46.923126" width="532.995" height="528.08154" id="rect405"/>
    <filter style="color-interpolation-filters:sRGB" id="filter15-2" x="-0.15104346" y="-0.071999989" width="1.3020869" height="1.1440001">
      <feFlood result="flood" flood-opacity="0.396078" flood-color="rgb(0,0,0)" id="feFlood13-1"/>
      <feGaussianBlur result="blur" in="SourceGraphic" stdDeviation="3.000000" id="feGaussianBlur13-9"/>
      <feOffset result="offset" in="blur" dx="0.000000" dy="0.000000" id="feOffset13-6"/>
      <feComposite result="comp1" operator="in" in="flood" in2="offset" id="feComposite14-1"/>
      <feComposite result="comp2" operator="over" in="SourceGraphic" in2="comp1" id="feComposite15-3"/>
    </filter>
    <filter style="color-interpolation-filters:sRGB" id="filter17-2" x="-0.193" y="-0.071999989" width="1.386" height="1.1440001">
      <feFlood result="flood" flood-opacity="0.396078" flood-color="rgb(0,0,0)" id="feFlood15-7"/>
      <feGaussianBlur result="blur" in="SourceGraphic" stdDeviation="3.000000" id="feGaussianBlur15-1"/>
      <feOffset result="offset" in="blur" dx="0.000000" dy="0.000000" id="feOffset15-4"/>
      <feComposite result="comp1" operator="in" in="flood" in2="offset" id="feComposite16-05"/>
      <feComposite result="comp2" operator="over" in="SourceGraphic" in2="comp1" id="feComposite17-0"/>
    </filter>
    <rect x="159.09903" y="-46.923126" width="532.995" height="528.08154" id="rect188"/>
    <rect x="159.09903" y="-46.923126" width="532.995" height="528.08154" id="rect189"/>
    <rect x="159.09903" y="-46.923126" width="532.995" height="528.08154" id="rect190"/>
    <rect x="159.09903" y="-46.923126" width="532.995" height="528.08154" id="rect191"/>
    <rect x="159.09903" y="-46.923126" width="532.995" height="528.08154" id="rect192"/>
    <rect x="159.09903" y="-46.923126" width="532.995" height="528.08154" id="rect193"/>
    <rect x="159.09903" y="-46.923126" width="532.995" height="528.08154" id="rect461"/>
    <rect x="159.09903" y="-46.923126" width="532.995" height="528.08154" id="rect463"/>
    <rect x="159.09903" y="-46.923126" width="532.995" height="528.08154" id="rect464"/>
    <rect x="159.09903" y="-46.923126" width="532.995" height="528.08154" id="rect465"/>
    <rect x="159.09903" y="-46.923126" width="532.995" height="528.08154" id="rect648"/>
    <rect x="159.09903" y="-46.923126" width="532.995" height="528.08154" id="rect649"/>
    <rect x="159.09903" y="-46.923126" width="532.995" height="528.08154" id="rect650"/>
    <rect x="159.09903" y="-46.923126" width="532.995" height="528.08154" id="rect655"/>
    <rect x="159.09903" y="-46.923126" width="532.995" height="528.08154" id="rect844"/>
    <rect x="159.09903" y="-46.923126" width="532.995" height="528.08154" id="rect845"/>
    <rect x="159.09903" y="-46.923126" width="532.995" height="528.08154" id="rect846"/>
    <rect x="159.09903" y="-46.923126" width="532.995" height="528.08154" id="rect847"/>
    <rect x="159.09903" y="-46.923126" width="532.995" height="528.08154" id="rect859"/>
    <rect x="159.09903" y="-46.923126" width="532.995" height="528.08154" id="rect482"/>
    <rect x="159.09903" y="-46.923126" width="532.995" height="528.08154" id="rect484"/>
    <rect x="159.09903" y="-46.923126" width="532.995" height="528.08154" id="rect595"/>
    <rect x="159.09903" y="-46.923126" width="532.995" height="528.08154" id="rect596"/>
    <rect x="159.09903" y="-46.923126" width="532.995" height="528.08154" id="rect598"/>
    <rect x="159.09903" y="-46.923126" width="532.995" height="528.08154" id="rect600"/>
    <rect x="159.09903" y="-46.923126" width="532.995" height="528.08154" id="rect602"/>
    <rect x="159.09903" y="-46.923126" width="532.995" height="528.08154" id="rect610"/>
    <rect x="159.09903" y="-46.923126" width="532.995" height="528.08154" id="rect612"/>
    <rect x="159.09903" y="-46.923126" width="532.995" height="528.08154" id="rect614"/>
    <rect x="159.09903" y="-46.923126" width="532.995" height="528.08154" id="rect616"/>
    <rect x="159.09903" y="-46.923126" width="532.995" height="528.08154" id="rect618"/>
    <rect x="159.09903" y="-46.923126" width="532.995" height="528.08154" id="rect620"/>
    <rect x="159.09903" y="-46.923126" width="532.995" height="528.08154" id="rect623"/>
  </defs>
  <g id="floor_2" transform="matrix(40.336064,0,0,40.336064,9.0369973,-8773.6905)" style="display:inline;opacity:1">
    <path id="path111" style="font-variation-settings:'wdth' 70,'wght' 600;display:inline;opacity:1;fill:#4c5a5f;fill-opacity:1;stroke:none;stroke-width:.487874" d="m 1.1212466,218.47789 v 28.06577 H 11.338482 v 9.91397 H 1.6791085 L 1.1212466,281.07502 H 19.614216 v 37.24436 h 5.760199 v -37.24431 h 15.226807 l 1.3e-5,1.49999 h 32.239229 l -0.02024,-26.21915 H 66.278509 V 245.9719 h 6.541719 l -0.02103,-27.49399 -32.637254,-2e-5 z m 39.0406894,27.62804 19.042365,-0.004 v 6.2307 l -0.820403,0.004 v 4.12099 l 0.91158,10e-6 -19.133542,-10e-6 z m -25.523493,0.43387 h 20.108748 v 9.48394 l -20.108748,-0.12393 z"/>
    <g id="rooms_2" style="display:inline;opacity:1" transform="matrix(0.02439371,0,0,0.02439371,-0.02443957,255.98706)">
      <rect style="font-variation-settings:'wdth' 70,'wght' 600;display:inline;opacity:1;fill:#1b2022;fill-opacity:1;stroke-width:169.608;stroke-dasharray:none" id="rect112" width="188.1904" height="195.61456" x="1041.2047" y="1173.8719" transform="translate(-4.1005817e-8,-3.5908303e-5)"/>
      <rect style="font-variation-settings:'wdth' 70,'wght' 600;display:inline;opacity:1;fill:#1b2022;fill-opacity:1;stroke:none;stroke-width:13.8214;stroke-linecap:butt;stroke-linejoin:miter;stroke-dasharray:none;stroke-opacity:1" id="rect137" width="268.17389" height="425.68652" x="2718.0337" y="-410.56421"/>
      <path style="font-variation-settings:'wdth' 70,'wght' 600;display:inline;opacity:1;fill:#454c7f;fill-opacity:1;stroke:none;stroke-width:14.819;stroke-dasharray:none" d="M 1229.3951,1173.8719 H 1041.2047 V 1028.46 h 525.5788 v 358.812 h -337.3884 z" id="HB204" transform="translate(-4.1005817e-8,-3.5908303e-5)"/>
      <rect style="font-variation-settings:'wdth' 70,'wght' 600;display:inline;opacity:1;fill:#454c7f;fill-opacity:1;stroke-width:825.464;stroke-dasharray:none" id="HB206" width="758.10327" height="1150.2028" x="46.967369" y="1405.0575"/>
      <rect style="font-variation-settings:'wdth' 70,'wght' 600;display:inline;opacity:1;fill:#454c7f;fill-opacity:1;stroke-width:407.479;stroke-dasharray:none" id="HB207" width="628.10822" height="338.28543" x="1041.2047" y="1405.0575"/>
      <rect style="font-variation-settings:'wdth' 70,'wght' 600;display:inline;opacity:1;fill:#454c7f;fill-opacity:1;stroke-width:409.497;stroke-dasharray:none" id="HB208" width="628.10822" height="341.64407" x="1041.2047" y="1743.343"/>
      <rect style="font-variation-settings:'wdth' 70,'wght' 600;display:inline;opacity:1;fill:#454c7f;fill-opacity:1;stroke-width:468.614;stroke-dasharray:none" id="HB209" width="628.10822" height="447.40811" x="1041.2047" y="2084.9871"/>
      <rect style="font-variation-settings:'wdth' 70,'wght' 600;display:inline;opacity:1;fill:#454c7f;fill-opacity:1;stroke-width:198.035;stroke-dasharray:none" id="HB27" width="179.53833" height="279.53342" x="1683.2014" y="1089.9531"/>
      <rect style="font-variation-settings:'wdth' 70,'wght' 600;display:inline;opacity:1;fill:#454c7f;fill-opacity:1;stroke-width:200.714;stroke-dasharray:none" id="HB26" width="184.42914" height="279.53342" x="1862.7397" y="1089.9531"/>
      <rect style="font-variation-settings:'wdth' 70,'wght' 600;display:inline;opacity:1;fill:#454c7f;fill-opacity:1;stroke-width:200.714;stroke-dasharray:none" id="HB25" width="184.42914" height="279.53342" x="2047.1688" y="1089.9531"/>
      <rect style="font-variation-settings:'wdth' 70,'wght' 600;display:inline;opacity:1;fill:#454c7f;fill-opacity:1;stroke-width:200.714;stroke-dasharray:none" id="HB24" width="184.42914" height="279.53342" x="2231.5979" y="1089.9531"/>
      <rect style="font-variation-settings:'wdth' 70,'wght' 600;display:inline;opacity:1;fill:#454c7f;fill-opacity:1;stroke-width:200.714;stroke-dasharray:none" id="HB23" width="184.42914" height="279.53342" x="2416.0271" y="1089.9531"/>
      <rect style="font-variation-settings:'wdth' 70,'wght' 600;display:inline;opacity:1;fill:#454c7f;fill-opacity:1;stroke-width:200.714;stroke-dasharray:none" id="HB22" width="184.42914" height="279.53342" x="2600.4563" y="1089.9531"/>
      <rect style="font-variation-settings:'wdth' 70,'wght' 600;display:inline;opacity:1;fill:#454c7f;fill-opacity:1;stroke-width:197.945;stroke-dasharray:none" id="HB21" width="179.37535" height="279.53342" x="2784.8855" y="1089.9531"/>
    </g>
    <g id="g221" transform="matrix(-0.02439371,0,0,-0.02439371,69.699341,295.13724)" style="display:inline">
      <path style="font-variation-settings:'wdth' 70,'wght' 600;display:inline;opacity:1;fill:#4c5a5f;fill-opacity:1;stroke:none;stroke-width:15.2447;stroke-dasharray:none;stroke-opacity:1" d="m 2053.1982,576.4691 h 296.646 l -1e-4,-154.55217 h -46.1584 v -49.70747 h 63.4358 V 217.65729 h -313.9233 z" id="path151" transform="translate(-2.3747411e-5)"/>
      <rect style="font-variation-settings:'wdth' 70,'wght' 600;display:inline;fill:#4f5e63;fill-opacity:1;stroke-width:5.71979;stroke-dasharray:none" id="rect152" width="136.76709" height="29.178997" x="-558.68402" y="2349.8442" transform="rotate(-90)"/>
      <rect style="font-variation-settings:'wdth' 70,'wght' 600;display:inline;fill:#516166;fill-opacity:1;stroke-width:5.71979;stroke-dasharray:none" id="rect153" width="136.76709" height="29.178997" x="-558.68402" y="2379.0232" transform="rotate(-90)"/>
      <rect style="font-variation-settings:'wdth' 70,'wght' 600;display:inline;fill:#546469;fill-opacity:1;stroke-width:5.71979;stroke-dasharray:none" id="rect154" width="136.76709" height="29.178997" x="-558.68402" y="2408.2021" transform="rotate(-90)"/>
      <rect style="font-variation-settings:'wdth' 70,'wght' 600;display:inline;fill:#56676c;fill-opacity:1;stroke-width:5.71979;stroke-dasharray:none" id="rect155" width="136.76709" height="29.178997" x="-558.68402" y="2437.3811" transform="rotate(-90)"/>
      <rect style="font-variation-settings:'wdth' 70,'wght' 600;display:inline;fill:#586a6f;fill-opacity:1;stroke-width:5.71979;stroke-dasharray:none" id="rect156" width="136.76709" height="29.178997" x="-558.68402" y="2466.5601" transform="rotate(-90)"/>
      <rect style="font-variation-settings:'wdth' 70,'wght' 600;display:inline;fill:#5a6d72;fill-opacity:1;stroke-width:5.71979;stroke-dasharray:none" id="rect157" width="136.76709" height="29.178997" x="-558.68402" y="2495.739" transform="rotate(-90)"/>
      <rect style="font-variation-settings:'wdth' 70,'wght' 600;display:inline;fill:#5c7075;fill-opacity:1;stroke-width:5.71979;stroke-dasharray:none" id="rect158" width="136.76709" height="29.178997" x="-558.68402" y="2524.9182" transform="rotate(-90)"/>
      <rect style="font-variation-settings:'wdth' 70,'wght' 600;display:inline;fill:#5e7378;fill-opacity:1;stroke-width:5.71979;stroke-dasharray:none" id="rect165" width="136.76709" height="29.178997" x="-558.68402" y="2554.0972" transform="rotate(-90)"/>
      <rect style="font-variation-settings:'wdth' 70,'wght' 600;display:inline;fill:#60767b;fill-opacity:1;stroke-width:5.71979;stroke-dasharray:none" id="rect166" width="136.76709" height="29.178997" x="-558.68402" y="2583.2761" transform="rotate(-90)"/>
      <rect style="font-variation-settings:'wdth' 70,'wght' 600;display:inline;fill:#000;fill-opacity:1;stroke-width:1.06746;stroke-dasharray:none" id="rect167" width="136.76709" height="1.0163157" x="-558.68402" y="2612.4551" transform="rotate(-90)"/>
      <rect style="font-variation-settings:'wdth' 70,'wght' 600;display:inline;fill:#000;fill-opacity:1;stroke-width:1.06746;stroke-dasharray:none" id="rect187" width="136.76709" height="1.0163157" x="-558.68402" y="2582.2598" transform="rotate(-90)"/>
      <rect style="font-variation-settings:'wdth' 70,'wght' 600;display:inline;fill:#000;fill-opacity:1;stroke-width:1.06746;stroke-dasharray:none" id="rect194" width="136.76709" height="1.0163157" x="-558.68402" y="2553.0808" transform="rotate(-90)"/>
      <rect style="font-variation-settings:'wdth' 70,'wght' 600;display:inline;fill:#000;fill-opacity:1;stroke-width:1.06746;stroke-dasharray:none" id="rect195" width="136.76709" height="1.0163157" x="-558.68402" y="2523.9016" transform="rotate(-90)"/>
      <rect style="font-variation-settings:'wdth' 70,'wght' 600;display:inline;fill:#000;fill-opacity:1;stroke-width:1.06746;stroke-dasharray:none" id="rect196" width="136.76709" height="1.0163157" x="-558.68402" y="2494.7227" transform="rotate(-90)"/>
      <rect style="font-variation-settings:'wdth' 70,'wght' 600;display:inline;fill:#000;fill-opacity:1;stroke-width:1.06746;stroke-dasharray:none" id="rect197" width="136.76709" height="1.0163157" x="-558.68402" y="2465.5437" transform="rotate(-90)"/>
      <rect style="font-variation-settings:'wdth' 70,'wght' 600;display:inline;fill:#000;fill-opacity:1;stroke-width:1.06746;stroke-dasharray:none" id="rect198" width="136.76709" height="1.0163157" x="-558.68402" y="2436.3647" transform="rotate(-90)"/>
      <rect style="font-variation-settings:'wdth' 70,'wght' 600;display:inline;fill:#000;fill-opacity:1;stroke-width:1.06746;stroke-dasharray:none" id="rect199" width="136.76709" height="1.0163157" x="-558.68402" y="2407.1858" transform="rotate(-90)"/>
      <rect style="font-variation-settings:'wdth' 70,'wght' 600;display:inline;fill:#000;fill-opacity:1;stroke-width:1.06746;stroke-dasharray:none" id="rect200" width="136.76709" height="1.0163157" x="-558.68402" y="2378.0068" transform="rotate(-90)"/>
      <rect style="font-variation-settings:'wdth' 70,'wght' 600;display:inline;fill:#000;fill-opacity:1;stroke-width:1.06746;stroke-dasharray:none" id="rect201" width="136.76709" height="1.0163157" x="-558.68402" y="2348.8279" transform="rotate(-90)"/>
      <path style="font-variation-settings:'wdth' 70,'wght' 600;display:inline;opacity:1;fill:none;fill-opacity:1;stroke:#bec3c6;stroke-width:5.30299;stroke-dasharray:none;stroke-opacity:1;marker-end:url(#Triangle)" d="m 2364.4336,486.74114 217.8262,-6e-5" id="path201"/>
      <rect style="font-variation-settings:'wdth' 70,'wght' 600;display:inline;fill:#3a4146;fill-opacity:1;stroke-width:5.71978;stroke-dasharray:none" id="rect202" width="136.76671" height="29.178997" x="235.44276" y="-2630.7488" transform="rotate(90)"/>
      <rect style="font-variation-settings:'wdth' 70,'wght' 600;display:inline;fill:#3c4449;fill-opacity:1;stroke-width:5.71978;stroke-dasharray:none" id="rect203" width="136.76671" height="29.178997" x="235.44276" y="-2601.5698" transform="rotate(90)"/>
      <rect style="font-variation-settings:'wdth' 70,'wght' 600;display:inline;fill:#3e474c;fill-opacity:1;stroke-width:5.71978;stroke-dasharray:none" id="rect204" width="136.76671" height="29.178997" x="235.44276" y="-2572.3909" transform="rotate(90)"/>
      <rect style="font-variation-settings:'wdth' 70,'wght' 600;display:inline;fill:#404a4f;fill-opacity:1;stroke-width:5.71978;stroke-dasharray:none" id="rect205" width="136.76671" height="29.178997" x="235.44276" y="-2543.2119" transform="rotate(90)"/>
      <rect style="font-variation-settings:'wdth' 70,'wght' 600;display:inline;fill:#424d52;fill-opacity:1;stroke-width:5.71978;stroke-dasharray:none" id="rect206" width="136.76671" height="29.178997" x="235.44276" y="-2514.033" transform="rotate(90)"/>
      <rect style="font-variation-settings:'wdth' 70,'wght' 600;display:inline;fill:#445055;fill-opacity:1;stroke-width:5.71978;stroke-dasharray:none" id="rect207" width="136.76671" height="29.178997" x="235.44276" y="-2484.854" transform="rotate(90)"/>
      <rect style="font-variation-settings:'wdth' 70,'wght' 600;display:inline;fill:#465358;fill-opacity:1;stroke-width:5.71978;stroke-dasharray:none" id="rect208" width="136.76671" height="29.178997" x="235.44276" y="-2455.6748" transform="rotate(90)"/>
      <rect style="font-variation-settings:'wdth' 70,'wght' 600;display:inline;fill:#48565b;fill-opacity:1;stroke-width:5.71978;stroke-dasharray:none" id="rect209" width="136.76671" height="29.178997" x="235.44276" y="-2426.4958" transform="rotate(90)"/>
      <rect style="font-variation-settings:'wdth' 70,'wght' 600;display:inline;fill:#4b595e;fill-opacity:1;stroke-width:5.71978;stroke-dasharray:none" id="rect210" width="136.76671" height="29.178997" x="235.44276" y="-2397.3169" transform="rotate(90)"/>
      <rect style="font-variation-settings:'wdth' 70,'wght' 600;display:inline;fill:#000;fill-opacity:1;stroke-width:1.06746;stroke-dasharray:none" id="rect211" width="136.76671" height="1.0163157" x="235.44276" y="-2368.1379" transform="rotate(90)"/>
      <rect style="font-variation-settings:'wdth' 70,'wght' 600;display:inline;fill:#000;fill-opacity:1;stroke-width:1.06746;stroke-dasharray:none" id="rect212" width="136.76671" height="1.0163157" x="235.44276" y="-2398.3333" transform="rotate(90)"/>
      <rect style="font-variation-settings:'wdth' 70,'wght' 600;display:inline;fill:#000;fill-opacity:1;stroke-width:1.06746;stroke-dasharray:none" id="rect213" width="136.76671" height="1.0163157" x="235.44276" y="-2427.5122" transform="rotate(90)"/>
      <rect style="font-variation-settings:'wdth' 70,'wght' 600;display:inline;fill:#000;fill-opacity:1;stroke-width:1.06746;stroke-dasharray:none" id="rect214" width="136.76671" height="1.0163157" x="235.44276" y="-2456.6914" transform="rotate(90)"/>
      <rect style="font-variation-settings:'wdth' 70,'wght' 600;display:inline;fill:#000;fill-opacity:1;stroke-width:1.06746;stroke-dasharray:none" id="rect215" width="136.76671" height="1.0163157" x="235.44276" y="-2485.8704" transform="rotate(90)"/>
      <rect style="font-variation-settings:'wdth' 70,'wght' 600;display:inline;fill:#000;fill-opacity:1;stroke-width:1.06746;stroke-dasharray:none" id="rect216" width="136.76671" height="1.0163157" x="235.44276" y="-2515.0493" transform="rotate(90)"/>
      <rect style="font-variation-settings:'wdth' 70,'wght' 600;display:inline;fill:#000;fill-opacity:1;stroke-width:1.06746;stroke-dasharray:none" id="rect217" width="136.76671" height="1.0163157" x="235.44276" y="-2544.2283" transform="rotate(90)"/>
      <rect style="font-variation-settings:'wdth' 70,'wght' 600;display:inline;fill:#000;fill-opacity:1;stroke-width:1.06746;stroke-dasharray:none" id="rect218" width="136.76671" height="1.0163157" x="235.44276" y="-2573.4072" transform="rotate(90)"/>
      <rect style="font-variation-settings:'wdth' 70,'wght' 600;display:inline;fill:#000;fill-opacity:1;stroke-width:1.06746;stroke-dasharray:none" id="rect219" width="136.76671" height="1.0163157" x="235.44276" y="-2602.5862" transform="rotate(90)"/>
      <rect style="font-variation-settings:'wdth' 70,'wght' 600;display:inline;fill:#000;fill-opacity:1;stroke-width:1.06746;stroke-dasharray:none" id="rect220" width="136.76671" height="1.0163157" x="235.44276" y="-2631.7651" transform="rotate(90)"/>
      <path style="font-variation-settings:'wdth' 70,'wght' 600;display:inline;opacity:1;fill:none;fill-opacity:1;stroke:#bec3c6;stroke-width:5.30299;stroke-dasharray:none;stroke-opacity:1;marker-end:url(#Triangle)" d="m 2616.1595,301.28527 -217.8262,6e-5" id="path220"/>
      <path style="font-variation-settings:'wdth' 70,'wght' 600;display:inline;opacity:1;fill:#62797e;fill-opacity:1;stroke:none;stroke-width:15.2447;stroke-dasharray:none;stroke-opacity:1" d="m 2811.3014,576.46929 -197.83,-1.9e-4 V 421.91693 h 17.2774 V 372.20947 212.51219 h 180.5526 z" id="path221"/>
      <rect style="font-variation-settings:'wght' 700;display:inline;fill:none;fill-opacity:1;stroke:#bec3c6;stroke-width:10.1632;stroke-dasharray:none;stroke-opacity:1" id="rect221" width="324.85214" height="49.70747" x="-2628.5378" y="-421.91693" transform="rotate(180,-1.1873705e-5,7.232918e-7)"/>
    </g>
    <g id="g380" transform="matrix(-0.02439371,0,0,-0.02439371,131.19323,222.78866)" style="display:inline">
      <rect style="font-variation-settings:'wdth' 70,'wght' 600;display:inline;fill:#242629;fill-opacity:1;stroke-width:5.91443;stroke-dasharray:none" id="rect222" width="146.23373" height="29.178997" x="978.7392" y="3606.905" transform="rotate(-90)"/>
      <rect style="font-variation-settings:'wdth' 70,'wght' 600;display:inline;fill:#26282b;fill-opacity:1;stroke-width:5.91443;stroke-dasharray:none" id="rect223" width="146.23373" height="29.178997" x="978.7392" y="3577.7258" transform="rotate(-90)"/>
      <rect style="font-variation-settings:'wdth' 70,'wght' 600;display:inline;fill:#292b2e;fill-opacity:1;stroke-width:5.91443;stroke-dasharray:none" id="rect224" width="146.23373" height="29.178997" x="978.7392" y="3548.5469" transform="rotate(-90)"/>
      <rect style="font-variation-settings:'wdth' 70,'wght' 600;display:inline;fill:#2b2e31;fill-opacity:1;stroke-width:5.91443;stroke-dasharray:none" id="rect225" width="146.23373" height="29.178997" x="978.7392" y="3519.3679" transform="rotate(-90)"/>
      <rect style="font-variation-settings:'wdth' 70,'wght' 600;display:inline;fill:#2d3134;fill-opacity:1;stroke-width:5.91443;stroke-dasharray:none" id="rect226" width="146.23373" height="29.178997" x="978.7392" y="3490.189" transform="rotate(-90)"/>
      <rect style="font-variation-settings:'wdth' 70,'wght' 600;display:inline;fill:#2f3437;fill-opacity:1;stroke-width:5.91443;stroke-dasharray:none" id="rect227" width="146.23373" height="29.178997" x="978.7392" y="3461.0098" transform="rotate(-90)"/>
      <rect style="font-variation-settings:'wdth' 70,'wght' 600;display:inline;fill:#31373a;fill-opacity:1;stroke-width:5.91443;stroke-dasharray:none" id="rect228" width="146.23373" height="29.178997" x="978.7392" y="3431.8308" transform="rotate(-90)"/>
      <rect style="font-variation-settings:'wdth' 70,'wght' 600;display:inline;fill:#333a3d;fill-opacity:1;stroke-width:5.91443;stroke-dasharray:none" id="rect229" width="146.23373" height="29.178997" x="978.7392" y="3402.6519" transform="rotate(-90)"/>
      <rect style="font-variation-settings:'wdth' 70,'wght' 600;display:inline;fill:#353c40;fill-opacity:1;stroke-width:5.91443;stroke-dasharray:none" id="rect230" width="146.23373" height="29.178997" x="978.7392" y="3373.4729" transform="rotate(-90)"/>
      <rect style="font-variation-settings:'wdth' 70,'wght' 600;display:inline;fill:#373e43;fill-opacity:1;stroke-width:12.5106;stroke-dasharray:none" id="rect231" width="146.23373" height="130.55656" x="978.7392" y="3242.9163" transform="rotate(-90)"/>
      <rect style="font-variation-settings:'wdth' 70,'wght' 600;display:inline;fill:#3a4146;fill-opacity:1;stroke-width:5.91443;stroke-dasharray:none" id="rect232" width="146.23373" height="29.178997" x="978.7392" y="3213.7373" transform="rotate(-90)"/>
      <rect style="font-variation-settings:'wdth' 70,'wght' 600;display:inline;fill:#000;fill-opacity:1;stroke-width:1.1038;stroke-dasharray:none" id="rect233" width="146.23373" height="1.0163157" x="978.7392" y="3213.7373" transform="rotate(-90)"/>
      <rect style="font-variation-settings:'wdth' 70,'wght' 600;display:inline;fill:#000;fill-opacity:1;stroke-width:1.1038;stroke-dasharray:none" id="rect234" width="146.23373" height="1.0163157" x="978.7392" y="3242.9163" transform="rotate(-90)"/>
      <rect style="font-variation-settings:'wdth' 70,'wght' 600;display:inline;fill:#000;fill-opacity:1;stroke-width:1.1038;stroke-dasharray:none" id="rect235" width="146.23373" height="1.0163157" x="978.7392" y="3373.4729" transform="rotate(-90)"/>
      <rect style="font-variation-settings:'wdth' 70,'wght' 600;display:inline;fill:#000;fill-opacity:1;stroke-width:1.1038;stroke-dasharray:none" id="rect236" width="146.23373" height="1.0163157" x="978.7392" y="3402.6519" transform="rotate(-90)"/>
      <rect style="font-variation-settings:'wdth' 70,'wght' 600;display:inline;fill:#000;fill-opacity:1;stroke-width:1.1038;stroke-dasharray:none" id="rect237" width="146.23373" height="1.0163157" x="978.7392" y="3431.8308" transform="rotate(-90)"/>
      <rect style="font-variation-settings:'wdth' 70,'wght' 600;display:inline;fill:#000;fill-opacity:1;stroke-width:1.1038;stroke-dasharray:none" id="rect238" width="146.23373" height="1.0163157" x="978.7392" y="3461.0098" transform="rotate(-90)"/>
      <rect style="font-variation-settings:'wdth' 70,'wght' 600;display:inline;fill:#000;fill-opacity:1;stroke-width:1.1038;stroke-dasharray:none" id="rect246" width="146.23373" height="1.0163157" x="978.7392" y="3490.189" transform="rotate(-90)"/>
      <rect style="font-variation-settings:'wdth' 70,'wght' 600;display:inline;fill:#000;fill-opacity:1;stroke-width:1.1038;stroke-dasharray:none" id="rect247" width="146.23373" height="1.0163157" x="978.7392" y="3519.3682" transform="rotate(-90)"/>
      <rect style="font-variation-settings:'wdth' 70,'wght' 600;display:inline;fill:#000;fill-opacity:1;stroke-width:1.1038;stroke-dasharray:none" id="rect248" width="146.23373" height="1.0163157" x="978.7392" y="3548.5469" transform="rotate(-90)"/>
      <rect style="font-variation-settings:'wdth' 70,'wght' 600;display:inline;fill:#000;fill-opacity:1;stroke-width:1.1038;stroke-dasharray:none" id="rect249" width="146.23373" height="1.0163157" x="978.7392" y="3577.7258" transform="rotate(-90)"/>
      <rect style="font-variation-settings:'wdth' 70,'wght' 600;display:inline;fill:#000;fill-opacity:1;stroke-width:1.1038;stroke-dasharray:none" id="rect257" width="146.23373" height="1.0163157" x="978.7392" y="3606.9048" transform="rotate(-90)"/>
      <rect style="font-variation-settings:'wdth' 70,'wght' 600;display:inline;fill:#000;fill-opacity:1;stroke-width:1.1038;stroke-dasharray:none" id="rect258" width="146.23373" height="1.0163157" x="978.7392" y="3636.084" transform="rotate(-90)"/>
      <rect style="font-variation-settings:'wdth' 70,'wght' 600;display:inline;fill:#3c4449;fill-opacity:1;stroke-width:5.91443;stroke-dasharray:none" id="rect259" width="146.23373" height="29.178997" x="978.7392" y="3184.5583" transform="rotate(-90)"/>
      <rect style="font-variation-settings:'wdth' 70,'wght' 600;display:inline;fill:#3e474c;fill-opacity:1;stroke-width:5.91443;stroke-dasharray:none" id="rect260" width="146.23373" height="29.178997" x="978.7392" y="3155.3794" transform="rotate(-90)"/>
      <rect style="font-variation-settings:'wdth' 70,'wght' 600;display:inline;fill:#404a4f;fill-opacity:1;stroke-width:5.91443;stroke-dasharray:none" id="rect261" width="146.23373" height="29.178997" x="978.7392" y="3126.2004" transform="rotate(-90)"/>
      <rect style="font-variation-settings:'wdth' 70,'wght' 600;display:inline;fill:#424d52;fill-opacity:1;stroke-width:5.91443;stroke-dasharray:none" id="rect262" width="146.23373" height="29.178997" x="978.7392" y="3097.0215" transform="rotate(-90)"/>
      <rect style="font-variation-settings:'wdth' 70,'wght' 600;display:inline;fill:#445055;fill-opacity:1;stroke-width:5.91443;stroke-dasharray:none" id="rect264" width="146.23373" height="29.178997" x="978.7392" y="3067.8425" transform="rotate(-90)"/>
      <rect style="font-variation-settings:'wdth' 70,'wght' 600;display:inline;fill:#465358;fill-opacity:1;stroke-width:5.91443;stroke-dasharray:none" id="rect265" width="146.23373" height="29.178997" x="978.7392" y="3038.6636" transform="rotate(-90)"/>
      <rect style="font-variation-settings:'wdth' 70,'wght' 600;display:inline;fill:#48565b;fill-opacity:1;stroke-width:5.91443;stroke-dasharray:none" id="rect266" width="146.23373" height="29.178997" x="978.7392" y="3009.4846" transform="rotate(-90)"/>
      <rect style="font-variation-settings:'wdth' 70,'wght' 600;display:inline;fill:#4b595e;fill-opacity:1;stroke-width:5.91443;stroke-dasharray:none" id="rect267" width="146.23373" height="29.178997" x="978.7392" y="2980.3057" transform="rotate(-90)"/>
      <rect style="font-variation-settings:'wdth' 70,'wght' 600;display:inline;fill:#4c5a5f;fill-opacity:1;stroke-width:5.91443;stroke-dasharray:none" id="rect268" width="146.23373" height="29.178997" x="978.7392" y="2951.1267" transform="rotate(-90)"/>
      <rect style="font-variation-settings:'wdth' 70,'wght' 600;display:inline;fill:#000;fill-opacity:1;stroke-width:1.1038;stroke-dasharray:none" id="rect269" width="146.23373" height="1.0163157" x="978.7392" y="3184.5583" transform="rotate(-90)"/>
      <rect style="font-variation-settings:'wdth' 70,'wght' 600;display:inline;fill:#000;fill-opacity:1;stroke-width:1.1038;stroke-dasharray:none" id="rect270" width="146.23373" height="1.0163157" x="978.7392" y="3155.3794" transform="rotate(-90)"/>
      <rect style="font-variation-settings:'wdth' 70,'wght' 600;display:inline;fill:#000;fill-opacity:1;stroke-width:1.1038;stroke-dasharray:none" id="rect271" width="146.23373" height="1.0163157" x="978.7392" y="3126.2004" transform="rotate(-90)"/>
      <rect style="font-variation-settings:'wdth' 70,'wght' 600;display:inline;fill:#000;fill-opacity:1;stroke-width:1.1038;stroke-dasharray:none" id="rect272" width="146.23373" height="1.0163157" x="978.7392" y="3097.0215" transform="rotate(-90)"/>
      <rect style="font-variation-settings:'wdth' 70,'wght' 600;display:inline;fill:#000;fill-opacity:1;stroke-width:1.1038;stroke-dasharray:none" id="rect279" width="146.23373" height="1.0163157" x="978.7392" y="3067.8425" transform="rotate(-90)"/>
      <rect style="font-variation-settings:'wdth' 70,'wght' 600;display:inline;fill:#000;fill-opacity:1;stroke-width:1.1038;stroke-dasharray:none" id="rect280" width="146.23373" height="1.0163157" x="978.7392" y="3038.6636" transform="rotate(-90)"/>
      <rect style="font-variation-settings:'wdth' 70,'wght' 600;display:inline;fill:#000;fill-opacity:1;stroke-width:1.1038;stroke-dasharray:none" id="rect294" width="146.23373" height="1.0163157" x="978.7392" y="3009.4846" transform="rotate(-90)"/>
      <rect style="font-variation-settings:'wdth' 70,'wght' 600;display:inline;fill:#000;fill-opacity:1;stroke-width:1.1038;stroke-dasharray:none" id="rect309" width="146.23373" height="1.0163157" x="978.7392" y="2980.3057" transform="rotate(-90)"/>
      <rect style="font-variation-settings:'wdth' 70,'wght' 600;display:inline;fill:#7b9398;fill-opacity:1;stroke-width:5.91443;stroke-dasharray:none" id="rect310" width="146.23373" height="29.178997" x="1211.1305" y="3635.0679" transform="rotate(-90)"/>
      <rect style="font-variation-settings:'wdth' 70,'wght' 600;display:inline;fill:#789196;fill-opacity:1;stroke-width:5.91443;stroke-dasharray:none" id="rect311" width="146.23373" height="29.178997" x="1211.1305" y="3605.8887" transform="rotate(-90)"/>
      <rect style="font-variation-settings:'wdth' 70,'wght' 600;display:inline;fill:#758f94;fill-opacity:1;stroke-width:5.91443;stroke-dasharray:none" id="rect312" width="146.23373" height="29.178997" x="1211.1305" y="3576.7097" transform="rotate(-90)"/>
      <rect style="font-variation-settings:'wdth' 70,'wght' 600;display:inline;fill:#728d92;fill-opacity:1;stroke-width:5.91443;stroke-dasharray:none" id="rect313" width="146.23373" height="29.178997" x="1211.1305" y="3547.5308" transform="rotate(-90)"/>
      <rect style="font-variation-settings:'wdth' 70,'wght' 600;display:inline;fill:#6f8b90;fill-opacity:1;stroke-width:5.91443;stroke-dasharray:none" id="rect314" width="146.23373" height="29.178997" x="1211.1305" y="3518.3518" transform="rotate(-90)"/>
      <rect style="font-variation-settings:'wdth' 70,'wght' 600;display:inline;fill:#6d888d;fill-opacity:1;stroke-width:5.91443;stroke-dasharray:none" id="rect316" width="146.23373" height="29.178997" x="1211.1305" y="3489.1726" transform="rotate(-90)"/>
      <rect style="font-variation-settings:'wdth' 70,'wght' 600;display:inline;fill:#6b858a;fill-opacity:1;stroke-width:5.91443;stroke-dasharray:none" id="rect317" width="146.23373" height="29.178997" x="1211.1305" y="3459.9937" transform="rotate(-90)"/>
      <rect style="font-variation-settings:'wdth' 70,'wght' 600;display:inline;fill:#688287;fill-opacity:1;stroke-width:5.91443;stroke-dasharray:none" id="rect318" width="146.23373" height="29.178997" x="1211.1305" y="3430.8147" transform="rotate(-90)"/>
      <rect style="font-variation-settings:'wdth' 70,'wght' 600;display:inline;fill:#667f84;fill-opacity:1;stroke-width:5.91443;stroke-dasharray:none" id="rect319" width="146.23373" height="29.178997" x="1211.1305" y="3401.6357" transform="rotate(-90)"/>
      <rect style="font-variation-settings:'wdth' 70,'wght' 600;display:inline;fill:#546469;fill-opacity:1;stroke-width:12.5106;stroke-dasharray:none" id="rect320" width="146.23373" height="130.55656" x="1211.1305" y="3037.6475" transform="rotate(-90)"/>
      <rect style="font-variation-settings:'wdth' 70,'wght' 600;display:inline;fill:#000;fill-opacity:1;stroke-width:1.1038;stroke-dasharray:none" id="rect321" width="146.23373" height="1.0163157" x="1211.1305" y="3401.6357" transform="rotate(-90)"/>
      <rect style="font-variation-settings:'wdth' 70,'wght' 600;display:inline;fill:#000;fill-opacity:1;stroke-width:1.1038;stroke-dasharray:none" id="rect323" width="146.23373" height="1.0163157" x="1211.1305" y="3430.8147" transform="rotate(-90)"/>
      <rect style="font-variation-settings:'wdth' 70,'wght' 600;display:inline;fill:#000;fill-opacity:1;stroke-width:1.1038;stroke-dasharray:none" id="rect324" width="146.23373" height="1.0163157" x="1211.1305" y="3459.9937" transform="rotate(-90)"/>
      <rect style="font-variation-settings:'wdth' 70,'wght' 600;display:inline;fill:#000;fill-opacity:1;stroke-width:1.1038;stroke-dasharray:none" id="rect325" width="146.23373" height="1.0163157" x="1211.1305" y="3489.1726" transform="rotate(-90)"/>
      <rect style="font-variation-settings:'wdth' 70,'wght' 600;display:inline;fill:#000;fill-opacity:1;stroke-width:1.1038;stroke-dasharray:none" id="rect326" width="146.23373" height="1.0163157" x="1211.1305" y="3518.3518" transform="rotate(-90)"/>
      <path style="font-variation-settings:'wght' 700;display:inline;opacity:1;fill:#212326;fill-opacity:1;stroke:none;stroke-width:6.61012;stroke-dasharray:none;stroke-opacity:1" d="m 3636.6277,-955.85225 94.5569,-0.0199 v -424.35915 l -65.9214,-10e-5 -10e-5,169.1007 4.8004,10e-5 v 86.1576 h -32.9632 z" id="path483" transform="translate(1.9255848e-5)"/>
      <rect style="font-variation-settings:'wdth' 70,'wght' 600;display:inline;fill:#000;fill-opacity:1;stroke-width:1.1038;stroke-dasharray:none" id="rect327" width="146.23373" height="1.0163157" x="1211.1305" y="3547.531" transform="rotate(-90)"/>
      <rect style="font-variation-settings:'wdth' 70,'wght' 600;display:inline;fill:#000;fill-opacity:1;stroke-width:1.1038;stroke-dasharray:none" id="rect328" width="146.23373" height="1.0163157" x="1211.1305" y="3576.7097" transform="rotate(-90)"/>
      <rect style="font-variation-settings:'wdth' 70,'wght' 600;display:inline;fill:#000;fill-opacity:1;stroke-width:1.1038;stroke-dasharray:none" id="rect331" width="146.23373" height="1.0163157" x="1211.1305" y="3605.8887" transform="rotate(-90)"/>
      <rect style="font-variation-settings:'wdth' 70,'wght' 600;display:inline;fill:#000;fill-opacity:1;stroke-width:1.1038;stroke-dasharray:none" id="rect332" width="146.23373" height="1.0163157" x="1211.1305" y="3635.0676" transform="rotate(-90)"/>
      <rect style="font-variation-settings:'wdth' 70,'wght' 600;display:inline;fill:#000;fill-opacity:1;stroke-width:1.1038;stroke-dasharray:none" id="rect333" width="146.23373" height="1.0163157" x="1211.1305" y="3664.2468" transform="rotate(-90)"/>
      <rect style="font-variation-settings:'wdth' 70,'wght' 600;display:inline;fill:#647c81;fill-opacity:1;stroke-width:5.91443;stroke-dasharray:none" id="rect334" width="146.23373" height="29.178997" x="1211.1305" y="3372.4568" transform="rotate(-90)"/>
      <rect style="font-variation-settings:'wdth' 70,'wght' 600;display:inline;fill:#62797e;fill-opacity:1;stroke-width:5.91443;stroke-dasharray:none" id="rect335" width="146.23373" height="29.178997" x="1211.1305" y="3343.2778" transform="rotate(-90)"/>
      <rect style="font-variation-settings:'wdth' 70,'wght' 600;display:inline;fill:#60767b;fill-opacity:1;stroke-width:5.91443;stroke-dasharray:none" id="rect336" width="146.23373" height="29.178997" x="1211.1305" y="3314.0989" transform="rotate(-90)"/>
      <rect style="font-variation-settings:'wdth' 70,'wght' 600;display:inline;fill:#5e7378;fill-opacity:1;stroke-width:5.91443;stroke-dasharray:none" id="rect337" width="146.23373" height="29.178997" x="1211.1305" y="3284.9199" transform="rotate(-90)"/>
      <rect style="font-variation-settings:'wdth' 70,'wght' 600;display:inline;fill:#5c7075;fill-opacity:1;stroke-width:5.91443;stroke-dasharray:none" id="rect338" width="146.23373" height="29.178997" x="1211.1305" y="3255.741" transform="rotate(-90)"/>
      <rect style="font-variation-settings:'wdth' 70,'wght' 600;display:inline;fill:#5a6d72;fill-opacity:1;stroke-width:5.91443;stroke-dasharray:none" id="rect339" width="146.23373" height="29.178997" x="1211.1305" y="3226.562" transform="rotate(-90)"/>
      <rect style="font-variation-settings:'wdth' 70,'wght' 600;display:inline;fill:#586a6f;fill-opacity:1;stroke-width:5.91443;stroke-dasharray:none" id="rect340" width="146.23373" height="29.178997" x="1211.1305" y="3197.3831" transform="rotate(-90)"/>
      <rect style="font-variation-settings:'wdth' 70,'wght' 600;display:inline;fill:#56676c;fill-opacity:1;stroke-width:5.91443;stroke-dasharray:none" id="rect341" width="146.23373" height="29.178997" x="1211.1305" y="3168.2041" transform="rotate(-90)"/>
      <rect style="font-variation-settings:'wdth' 70,'wght' 600;display:inline;fill:#516166;fill-opacity:1;stroke-width:5.91443;stroke-dasharray:none" id="rect342" width="146.23373" height="29.178997" x="1211.1305" y="3008.4685" transform="rotate(-90)"/>
      <rect style="font-variation-settings:'wdth' 70,'wght' 600;display:inline;fill:#4f5e63;fill-opacity:1;stroke-width:5.91443;stroke-dasharray:none" id="rect343" width="146.23373" height="29.178997" x="1211.1305" y="2979.2896" transform="rotate(-90)"/>
      <rect style="font-variation-settings:'wdth' 70,'wght' 600;display:inline;fill:#000;fill-opacity:1;stroke-width:1.1038;stroke-dasharray:none" id="rect350" width="146.23373" height="1.0163157" x="1211.1305" y="3372.4568" transform="rotate(-90)"/>
      <rect style="font-variation-settings:'wdth' 70,'wght' 600;display:inline;fill:#000;fill-opacity:1;stroke-width:1.1038;stroke-dasharray:none" id="rect351" width="146.23373" height="1.0163157" x="1211.1305" y="3343.2778" transform="rotate(-90)"/>
      <rect style="font-variation-settings:'wdth' 70,'wght' 600;display:inline;fill:#000;fill-opacity:1;stroke-width:1.1038;stroke-dasharray:none" id="rect352" width="146.23373" height="1.0163157" x="1211.1305" y="3314.0989" transform="rotate(-90)"/>
      <rect style="font-variation-settings:'wdth' 70,'wght' 600;display:inline;fill:#000;fill-opacity:1;stroke-width:1.1038;stroke-dasharray:none" id="rect365" width="146.23373" height="1.0163157" x="1211.1305" y="3284.9199" transform="rotate(-90)"/>
      <rect style="font-variation-settings:'wdth' 70,'wght' 600;display:inline;fill:#000;fill-opacity:1;stroke-width:1.1038;stroke-dasharray:none" id="rect366" width="146.23373" height="1.0163157" x="1211.1305" y="3255.741" transform="rotate(-90)"/>
      <rect style="font-variation-settings:'wdth' 70,'wght' 600;display:inline;fill:#000;fill-opacity:1;stroke-width:1.1038;stroke-dasharray:none" id="rect367" width="146.23373" height="1.0163157" x="1211.1305" y="3226.562" transform="rotate(-90)"/>
      <rect style="font-variation-settings:'wdth' 70,'wght' 600;display:inline;fill:#000;fill-opacity:1;stroke-width:1.1038;stroke-dasharray:none" id="rect368" width="146.23373" height="1.0163157" x="1211.1305" y="3197.3831" transform="rotate(-90)"/>
      <rect style="font-variation-settings:'wdth' 70,'wght' 600;display:inline;fill:#000;fill-opacity:1;stroke-width:1.1038;stroke-dasharray:none" id="rect369" width="146.23373" height="1.0163157" x="1211.1305" y="3168.2041" transform="rotate(-90)"/>
      <rect style="font-variation-settings:'wdth' 70,'wght' 600;display:inline;fill:#000;fill-opacity:1;stroke-width:1.1038;stroke-dasharray:none" id="rect370" width="146.23373" height="1.0163157" x="1211.1305" y="3037.6475" transform="rotate(-90)"/>
      <rect style="font-variation-settings:'wdth' 70,'wght' 600;display:inline;fill:#000;fill-opacity:1;stroke-width:1.1038;stroke-dasharray:none" id="rect371" width="146.23373" height="1.0163157" x="1211.1305" y="3008.4685" transform="rotate(-90)"/>
      <rect style="font-variation-settings:'wdth' 70,'wght' 600;display:inline;fill:#000;fill-opacity:1;stroke-width:1.1038;stroke-dasharray:none" id="rect372" width="146.23373" height="1.0163157" x="1211.1305" y="2979.2896" transform="rotate(-90)"/>
      <path style="font-variation-settings:'wdth' 70,'wght' 600;display:inline;opacity:1;fill:none;fill-opacity:1;stroke:#bec3c6;stroke-width:5.5382;stroke-dasharray:none;stroke-opacity:1;marker-end:url(#Triangle)" d="m 2993.879,-1286.7881 h 613.026" id="path372"/>
      <path style="font-variation-settings:'wdth' 70,'wght' 600;display:inline;opacity:1;fill:none;fill-opacity:1;stroke:#bec3c6;stroke-width:5.5382;stroke-dasharray:none;stroke-opacity:1;marker-end:url(#Triangle)" d="M 3621.4945,-1049.3153 H 3009.4846" id="path373"/>
      <rect style="font-variation-settings:'wdth' 70,'wght' 600;display:inline;fill:#000;fill-opacity:1;stroke-width:1.1038;stroke-dasharray:none" id="rect483" width="146.23373" height="1.0163157" x="978.7392" y="2951.1267" transform="rotate(-90)"/>
      <rect style="font-variation-settings:'wght' 700;display:inline;opacity:1;fill:none;fill-opacity:1;stroke:#bec3c6;stroke-width:10.1632;stroke-dasharray:none;stroke-opacity:1" id="rect380" width="722.6748" height="86.157593" x="-3670.0635" y="1124.9729" transform="rotate(180,9.6279241e-6,-8.9728556e-7)"/>
    </g>
    <g id="walls_2" transform="matrix(0.02439371,0,0,0.02439371,-0.07402299,244.39786)" style="display:inline">
      <path style="font-variation-settings:'wdth' 70,'wght' 600;fill:none;stroke:#bec3c6;stroke-width:35.571;stroke-linecap:butt;stroke-dasharray:none;stroke-opacity:1" d="M 2720.0663,173.75927 V 1.0258843" id="path380"/>
      <path style="font-variation-settings:'wdth' 70,'wght' 600;fill:none;stroke:#bec3c6;stroke-width:35.571;stroke-linecap:butt;stroke-dasharray:none;stroke-opacity:1" d="M 1427.4669,517.24701 V 47.1537" id="path381"/>
      <path style="font-variation-settings:'wdth' 70,'wght' 600;fill:none;stroke:#bec3c6;stroke-width:45.7342;stroke-linecap:butt;stroke-dasharray:none;stroke-opacity:1" d="M 49.000001,-1062.5668 H 2987.3775 l 1.8864,2930.0736 H 1672.5467 l -1.8864,1162.8434 H 49.000001 Z" id="path383"/>
      <path style="font-variation-settings:'wdth' 70,'wght' 600;fill:none;stroke:#bec3c6;stroke-width:45.7342;stroke-linecap:butt;stroke-dasharray:none;stroke-opacity:1" d="M 1649.4399,-207.12195 V -1062.5668" id="path384"/>
      <path style="font-variation-settings:'wdth' 70,'wght' 600;fill:none;stroke:#bec3c6;stroke-width:45.7342;stroke-linecap:butt;stroke-dasharray:none;stroke-opacity:1" d="m 1649.4399,-590.47167 h -209.361" id="path385"/>
      <path style="font-variation-settings:'wdth' 70,'wght' 600;fill:none;stroke:#bec3c6;stroke-width:45.7342;stroke-linecap:butt;stroke-dasharray:none;stroke-opacity:1" d="M 2438.8345,-590.47167 H 2195.1742" id="path386"/>
      <path style="font-variation-settings:'wdth' 70,'wght' 600;fill:none;stroke:#bec3c6;stroke-width:45.7342;stroke-linecap:butt;stroke-dasharray:none;stroke-opacity:1" d="M 472.92752,70.0208 H 49.000001" id="path388"/>
      <path style="font-variation-settings:'wdth' 70,'wght' 600;fill:none;stroke:#bec3c6;stroke-width:45.7342;stroke-linecap:butt;stroke-dasharray:none;stroke-opacity:1" d="M 472.92752,494.37991 H 49.000001" id="path389"/>
      <path style="font-variation-settings:'wdth' 70,'wght' 600;fill:none;stroke:#bec3c6;stroke-width:45.7342;stroke-linecap:butt;stroke-dasharray:none;stroke-opacity:1" d="M 1427.4669,70.0208 H 994.17358" id="path390"/>
      <path style="font-variation-settings:'wdth' 70,'wght' 600;fill:none;stroke:#bec3c6;stroke-width:45.7342;stroke-linecap:butt;stroke-dasharray:none;stroke-opacity:1" d="M 1427.4669,494.37991 H 1221.265" id="path391"/>
      <path style="font-variation-settings:'wdth' 70,'wght' 600;fill:none;stroke:#bec3c6;stroke-width:45.7342;stroke-linecap:butt;stroke-dasharray:none;stroke-opacity:1" d="m 1649.4399,70.0208 h 875.8324" id="path392"/>
      <path style="font-variation-settings:'wdth' 70,'wght' 600;fill:none;stroke:#bec3c6;stroke-width:35.571;stroke-linecap:butt;stroke-dasharray:none;stroke-opacity:1" d="M 2720.0663,560.38959 V 338.06978" id="path393"/>
      <path style="font-variation-settings:'wdth' 70,'wght' 600;fill:none;stroke:#bec3c6;stroke-width:45.7342;stroke-linecap:butt;stroke-dasharray:none;stroke-opacity:1" d="m 2720.0663,64.525477 h 267.3112" id="path394"/>
      <path style="font-variation-settings:'wdth' 70,'wght' 600;fill:none;stroke:#bec3c6;stroke-width:45.7342;stroke-linecap:butt;stroke-dasharray:none;stroke-opacity:1" d="m 2720.0663,490.212 h 267.3112" id="path395"/>
      <path style="font-variation-settings:'wdth' 70,'wght' 600;fill:none;stroke:#bec3c6;stroke-width:35.571;stroke-linecap:butt;stroke-dasharray:none;stroke-opacity:1" d="M 49.000001,1503.5497 H 807.10325 v 32.0215" id="path397"/>
      <path style="font-variation-settings:'wdth' 70,'wght' 600;fill:none;stroke:#bec3c6;stroke-width:35.571;stroke-linecap:butt;stroke-dasharray:none;stroke-opacity:1" d="M 49.000001,1862.3617 H 840.8795" id="path398"/>
      <path style="font-variation-settings:'wdth' 70,'wght' 600;fill:none;stroke:#bec3c6;stroke-width:35.571;stroke-linecap:butt;stroke-dasharray:none;stroke-opacity:1" d="m 807.10325,1637.2027 v 650.6282" id="path399"/>
      <path style="font-variation-settings:'wdth' 70,'wght' 600;fill:none;stroke:#bec3c6;stroke-width:35.571;stroke-linecap:butt;stroke-dasharray:none;stroke-opacity:1" d="m 807.10325,2389.4625 v 640.8877" id="path401"/>
      <path style="font-variation-settings:'wdth' 70,'wght' 600;fill:none;stroke:#bec3c6;stroke-width:35.571;stroke-linecap:butt;stroke-dasharray:none;stroke-opacity:1" d="m 1043.2373,2490.8862 v 145.0532" id="path402"/>
      <path style="font-variation-settings:'wdth' 70,'wght' 600;fill:none;stroke:#bec3c6;stroke-width:35.571;stroke-linecap:butt;stroke-dasharray:none;stroke-opacity:1" d="m 1043.2373,2737.571 v 292.7792" id="path403"/>
      <path style="font-variation-settings:'wdth' 70,'wght' 600;fill:none;stroke:#bec3c6;stroke-width:35.571;stroke-linecap:butt;stroke-dasharray:none;stroke-opacity:1" d="m 1043.2373,2048.2668 v 340.9879" id="path404"/>
      <path style="font-variation-settings:'wdth' 70,'wght' 600;fill:none;stroke:#bec3c6;stroke-width:35.571;stroke-linecap:butt;stroke-dasharray:none;stroke-opacity:1" d="m 1043.2373,1816.926 v 129.7093" id="path405"/>
      <path style="font-variation-settings:'wdth' 70,'wght' 600;fill:none;stroke:#bec3c6;stroke-width:35.571;stroke-linecap:butt;stroke-dasharray:none;stroke-opacity:1" d="m 1008.7418,1862.3617 h 661.9185" id="path406"/>
      <path style="font-variation-settings:'wdth' 70,'wght' 600;fill:none;stroke:#bec3c6;stroke-width:35.571;stroke-linecap:butt;stroke-dasharray:none;stroke-opacity:1" d="m 1667.4486,1862.3617 v -358.812 h -624.2113 v 32.0215" id="path407"/>
      <path style="font-variation-settings:'wdth' 70,'wght' 600;fill:none;stroke:#bec3c6;stroke-width:10.1632;stroke-linecap:butt;stroke-dasharray:none;stroke-opacity:1" d="m 1043.2373,2560.5052 h 628.1083" id="path409"/>
      <path style="font-variation-settings:'wdth' 70,'wght' 600;fill:none;stroke:#bec3c6;stroke-width:10.1632;stroke-linecap:butt;stroke-dasharray:none;stroke-opacity:1" d="m 1043.2373,2218.4327 h 628.1083" id="path410"/>
      <path style="font-variation-settings:'wdth' 70,'wght' 600;fill:none;stroke:#bec3c6;stroke-width:45.7342;stroke-linecap:butt;stroke-dasharray:none;stroke-opacity:1" d="M 924.4086,-590.47167 H 608.82345" id="path411"/>
      <path style="font-variation-settings:'wdth' 70,'wght' 600;fill:none;stroke:#bec3c6;stroke-width:10.1632;stroke-linecap:butt;stroke-dasharray:none;stroke-opacity:1" d="m 1043.2373,1648.9616 h 188.1904 v 213.4001" id="path412"/>
      <rect style="font-variation-settings:'wght' 700;fill:#bec3c6;fill-opacity:1;stroke-width:37.6881;stroke-dasharray:none" id="rect412" width="98.632408" height="358.81204" x="1568.8162" y="1503.5497"/>
      <path style="font-variation-settings:'wdth' 70,'wght' 600;fill:none;stroke:#bec3c6;stroke-width:35.571;stroke-linecap:butt;stroke-dasharray:none;stroke-opacity:1" d="m 1043.2373,1637.2027 v 39.8084" id="path413"/>
      <path style="font-variation-settings:'wdth' 70,'wght' 600;fill:none;stroke:#bec3c6;stroke-width:10.1632;stroke-linecap:butt;stroke-dasharray:none;stroke-opacity:1" d="M 467.84592,70.0208 V 494.37991" id="path415"/>
      <path style="font-variation-settings:'wdth' 70,'wght' 600;fill:none;stroke:#bec3c6;stroke-width:10.1632;stroke-linecap:butt;stroke-dasharray:none;stroke-opacity:1" d="M 603.1254,481.67507 V 87.807232 h 398.9533" id="path416"/>
      <path style="font-variation-settings:'wdth' 70,'wght' 600;fill:none;stroke:#bec3c6;stroke-width:10.1632;stroke-linecap:butt;stroke-dasharray:none;stroke-opacity:1" d="M 1230.248,476.59347 H 681.27151" id="path417"/>
      <rect style="font-variation-settings:'wght' 700;fill:#bec3c6;fill-opacity:1;stroke-width:8.90893;stroke-dasharray:none" id="rect421" width="91.468414" height="91.468414" x="2433.804" y="471.51282"/>
      <rect style="font-variation-settings:'wght' 700;fill:#bec3c6;fill-opacity:1;stroke-width:8.90893;stroke-dasharray:none" id="rect422" width="91.468414" height="91.468414" x="2433.804" y="1.4194931"/>
      <path style="font-variation-settings:'wdth' 70,'wght' 600;fill:none;stroke:#bec3c6;stroke-width:45.7342;stroke-linecap:butt;stroke-dasharray:none;stroke-opacity:1" d="M 1649.4399,1.6870766 V 494.37991 h 875.8324" id="path467"/>
      <path style="font-variation-settings:'wdth' 70,'wght' 600;fill:none;stroke:#bec3c6;stroke-width:45.7342;stroke-linecap:butt;stroke-dasharray:none;stroke-opacity:1" d="M 694.48361,494.37991 H 598.0438" id="path468"/>
      <path style="font-variation-settings:'wdth' 70,'wght' 600;fill:none;stroke:#bec3c6;stroke-width:10.1632;stroke-linecap:butt;stroke-dasharray:none;stroke-opacity:1" d="M 1667.2271,-41.264269 V 12.10741" id="path469"/>
      <path style="font-variation-settings:'wdth' 70,'wght' 600;fill:none;stroke:#bec3c6;stroke-width:10.1632;stroke-linecap:butt;stroke-dasharray:none;stroke-opacity:1" d="m 1667.2271,-212.8711 v 69.97525" id="path470"/>
      <path style="font-variation-settings:'wdth' 70,'wght' 600;display:inline;fill:none;stroke:#bec3c6;stroke-width:10.1632;stroke-linecap:butt;stroke-dasharray:none;stroke-opacity:1" d="m 2049.2015,1867.5068 v -302.4639 h -77.7159" id="path631-7"/>
      <path style="font-variation-settings:'wdth' 70,'wght' 600;display:inline;fill:none;stroke:#bec3c6;stroke-width:10.1632;stroke-linecap:butt;stroke-dasharray:none;stroke-opacity:1" d="m 2989.2599,1565.0429 h -95.6286" id="path632-7"/>
      <path style="font-variation-settings:'wdth' 70,'wght' 600;display:inline;fill:none;stroke:#bec3c6;stroke-width:10.1632;stroke-linecap:butt;stroke-dasharray:none;stroke-opacity:1" d="m 1864.7724,1867.5068 v -302.4639 h -77.716" id="path633-4"/>
      <path style="font-variation-settings:'wdth' 70,'wght' 600;display:inline;fill:none;stroke:#bec3c6;stroke-width:10.1632;stroke-linecap:butt;stroke-dasharray:none;stroke-opacity:1" d="m 2233.6307,1867.5068 v -302.4639 h -77.716" id="path634-4"/>
      <path style="font-variation-settings:'wdth' 70,'wght' 600;display:inline;fill:none;stroke:#bec3c6;stroke-width:10.1632;stroke-linecap:butt;stroke-dasharray:none;stroke-opacity:1" d="m 2418.0598,1867.5068 v -302.4639 h -77.716" id="path635-0"/>
      <path style="font-variation-settings:'wdth' 70,'wght' 600;display:inline;fill:none;stroke:#bec3c6;stroke-width:10.1632;stroke-linecap:butt;stroke-dasharray:none;stroke-opacity:1" d="m 2602.489,1867.5068 v -302.4639 h -77.716" id="path636-7"/>
      <path style="font-variation-settings:'wdth' 70,'wght' 600;display:inline;fill:none;stroke:#bec3c6;stroke-width:10.1632;stroke-linecap:butt;stroke-dasharray:none;stroke-opacity:1" d="m 2786.9181,1867.5068 v -302.4639 h -77.7159" id="path637-6"/>
    </g>
    <g id="icons_2" transform="matrix(0.02439371,0,0,0.02439371,10.159623,263.62762)" style="display:inline">
      <g id="g443" style="filter:url(#filter65)" transform="translate(-18.039317,-1538.3503)">
        <rect style="font-variation-settings:'wdth' 70,'wght' 600;fill:none;fill-opacity:1;stroke:#d6d7de;stroke-width:4.78791;stroke-linejoin:miter;stroke-dasharray:none;stroke-opacity:1" id="rect443" width="95.212135" height="95.212151" x="2405.0667" y="979.80487" ry="9.1410179"/>
        <path d="m 2427.7505,1062.6135 h 12.6169 v -23.8318 h 6.2306 v -17.757 c 0,-2.6337 -0.8992,-4.8497 -2.6976,-6.6481 -1.7985,-1.7985 -4.0665,-2.6977 -6.804,-2.6977 h -6.2306 c -2.7375,0 -4.9794,0.8992 -6.7258,2.6977 -1.7466,1.7984 -2.6199,4.0144 -2.6199,6.6481 v 17.757 h 6.2304 z m 6.1958,-54.9845 c 2.1478,0 3.9626,-0.7033 5.4445,-2.1098 1.4819,-1.4064 2.2228,-3.2356 2.2228,-5.4875 0,-2.148 -0.7292,-3.93697 -2.1877,-5.3669 -1.4583,-1.42987 -3.2615,-2.1448 -5.4096,-2.1448 -2.1481,0 -3.937,0.70327 -5.3669,2.1098 -1.4299,1.4064 -2.1449,3.18367 -2.1449,5.3318 0,2.2518 0.7033,4.0926 2.11,5.5225 1.4064,1.4299 3.1837,2.1449 5.3318,2.1449 z m 28.3838,9.9689 h 20.0934 l -9.9688,-16.1994 z m 10.1246,35.6697 9.9688,-16.1993 h -20.0934 z" id="path443" style="fill:#d5d6dd;fill-opacity:1;stroke-width:0;stroke-dasharray:none"/>
      </g>
      <path d="m 2449.2988,284.88611 v -31.86527 h -10.1036 v -32.25391 q 0,-3.56217 2.5583,-6.12046 2.5583,-2.55829 6.1205,-2.55829 h 19.9482 q 3.5621,0 6.1204,2.55829 2.5583,2.55829 2.5583,6.12046 v 32.25391 h -10.1036 v 31.86527 z m 8.5596,-82.6425 q -3.6891,0 -6.1891,-2.5544 -2.5,-2.55454 -2.5,-6.11399 0,-3.68912 2.4896,-6.18912 2.4899,-2.5 6.1788,-2.5 3.6891,0 6.1891,2.48964 2.5,2.48976 2.5,6.17875 0,3.55959 -2.4896,6.12436 -2.4897,2.56476 -6.1788,2.56476 z" id="path444" style="display:inline;fill:#fff;fill-opacity:.798742;stroke-width:.129534;filter:url(#filter17-2)" transform="matrix(1.0163157,0,0,1.0163157,-1546.3472,655.92911)"/>
      <path d="m 2145.7669,282.41971 v -30.05182 h -14.7668 l 14.2098,-39.44586 q 1.121,-2.89831 3.8366,-4.58886 2.7155,-1.69067 5.7878,-1.69067 3.0723,0 5.7878,1.69067 2.7156,1.69055 3.8542,4.57785 l 14.1922,39.45687 h -14.7668 v 30.05182 z m 9.0778,-82.6425 q -3.6892,0 -6.1892,-2.55039 -2.5,-2.55039 -2.5,-6.118 0,-3.68912 2.4897,-6.18912 2.4899,-2.5 6.1787,-2.5 3.6892,0 6.1892,2.48963 2.5,2.48977 2.5,6.114 0,3.62435 -2.4897,6.18912 -2.4896,2.56476 -6.1787,2.56476 z" id="path445" style="display:inline;fill:#fff;fill-opacity:.803459;stroke-width:.129534;filter:url(#filter15-2)" transform="matrix(1.0163157,0,0,1.0163157,-1180.5744,658.43575)"/>
    </g>
    <g id="g757" transform="translate(-0.00103178)" style="display:inline;opacity:1">
      <rect style="font-variation-settings:'wght' 700;fill:#798387;fill-opacity:1;stroke-width:.212111" id="rect727" width="1.2395855" height="15.37086" x="5.9481091" y="261.83975"/>
      <rect style="font-variation-settings:'wght' 700;fill:#798387;fill-opacity:1;stroke-width:.0602356" id="rect729" width="1.2395855" height="1.2395855" x="5.2698603" y="220.5986"/>
      <rect style="font-variation-settings:'wght' 700;fill:#798387;fill-opacity:1;stroke-width:.212111" id="rect743" width="1.2395855" height="15.37086" x="9.7686949" y="261.83975"/>
      <rect style="font-variation-settings:'wght' 700;fill:#798387;fill-opacity:1;stroke-width:.212111" id="rect744" width="1.2395855" height="15.37086" x="13.58928" y="261.83975"/>
      <rect style="font-variation-settings:'wght' 700;fill:#798387;fill-opacity:1;stroke-width:.212111" id="rect745" width="1.2395855" height="15.37086" x="17.409866" y="261.83975"/>
      <rect style="font-variation-settings:'wght' 700;fill:#798387;fill-opacity:1;stroke-width:.212111" id="rect746" width="1.2395855" height="15.37086" x="28.871622" y="261.83975"/>
      <rect style="font-variation-settings:'wght' 700;fill:#798387;fill-opacity:1;stroke-width:.212111" id="rect747" width="1.2395855" height="15.37086" x="21.230452" y="261.83975"/>
      <rect style="font-variation-settings:'wght' 700;fill:#798387;fill-opacity:1;stroke-width:.212111" id="rect748" width="1.2395855" height="15.37086" x="25.051037" y="261.83975"/>
      <rect style="font-variation-settings:'wght' 700;fill:#798387;fill-opacity:1;stroke-width:.212111" id="rect749" width="1.2395855" height="15.37086" x="40.316051" y="261.83975"/>
      <rect style="font-variation-settings:'wght' 700;fill:#798387;fill-opacity:1;stroke-width:.212111" id="rect750" width="1.2395855" height="15.37086" x="44.130863" y="261.83975"/>
      <rect style="font-variation-settings:'wght' 700;fill:#798387;fill-opacity:1;stroke-width:.212111" id="rect751" width="1.2395855" height="15.37086" x="47.945671" y="261.83975"/>
      <rect style="font-variation-settings:'wght' 700;fill:#798387;fill-opacity:1;stroke-width:.212111" id="rect752" width="1.2395855" height="15.37086" x="51.760483" y="261.83975"/>
      <rect style="font-variation-settings:'wght' 700;fill:#798387;fill-opacity:1;stroke-width:.212111" id="rect753" width="1.2395855" height="15.37086" x="55.575291" y="261.83975"/>
      <rect style="font-variation-settings:'wght' 700;fill:#798387;fill-opacity:1;stroke-width:.212111" id="rect754" width="1.2395855" height="15.37086" x="59.390102" y="261.83975"/>
      <rect style="font-variation-settings:'wght' 700;fill:#798387;fill-opacity:1;stroke-width:.212111" id="rect755" width="1.2395855" height="15.37086" x="63.20491" y="261.83975"/>
      <rect style="font-variation-settings:'wght' 700;fill:#798387;fill-opacity:1;stroke-width:.212111" id="rect756" width="1.2395855" height="15.37086" x="67.019722" y="261.83975"/>
      <rect style="font-variation-settings:'wght' 700;fill:#798387;fill-opacity:1;stroke-width:.240941" id="rect757" width="1.9833368" height="12.395855" x="33.950809" y="263.72394"/>
      <rect style="font-variation-settings:'wght' 700;fill:#798387;fill-opacity:1;stroke-width:.118038" id="rect758" width="1.9833368" height="2.9750051" x="2.9229152" y="219.7309"/>
      <rect style="font-variation-settings:'wght' 700;fill:#798387;fill-opacity:1;stroke-width:.0602356" id="rect759" width="1.2395855" height="1.2395855" x="9.7576389" y="220.5986"/>
      <rect style="font-variation-settings:'wght' 700;fill:#798387;fill-opacity:1;stroke-width:.118038" id="rect802" width="1.9833368" height="2.9750051" x="7.4106941" y="219.7309"/>
      <rect style="font-variation-settings:'wght' 700;fill:#798387;fill-opacity:1;stroke-width:.0602356" id="rect803" width="1.2395855" height="1.2395855" x="14.245418" y="220.5986"/>
      <rect style="font-variation-settings:'wght' 700;fill:#798387;fill-opacity:1;stroke-width:.118038" id="rect804" width="1.9833368" height="2.9750051" x="11.898473" y="219.7309"/>
      <rect style="font-variation-settings:'wght' 700;fill:#798387;fill-opacity:1;stroke-width:.0602356" id="rect805" width="1.2395855" height="1.2395855" x="18.733196" y="220.5986"/>
      <rect style="font-variation-settings:'wght' 700;fill:#798387;fill-opacity:1;stroke-width:.118038" id="rect806" width="1.9833368" height="2.9750051" x="16.386251" y="219.7309"/>
      <rect style="font-variation-settings:'wght' 700;fill:#798387;fill-opacity:1;stroke-width:.0602356" id="rect807" width="1.2395855" height="1.2395855" x="23.220974" y="220.5986"/>
      <rect style="font-variation-settings:'wght' 700;fill:#798387;fill-opacity:1;stroke-width:.118038" id="rect808" width="1.9833368" height="2.9750051" x="20.874029" y="219.7309"/>
      <rect style="font-variation-settings:'wght' 700;fill:#798387;fill-opacity:1;stroke-width:.0602356" id="rect809" width="1.2395855" height="1.2395855" x="27.708752" y="220.5986"/>
      <rect style="font-variation-settings:'wght' 700;fill:#798387;fill-opacity:1;stroke-width:.118038" id="rect810" width="1.9833368" height="2.9750051" x="25.361807" y="219.7309"/>
      <rect style="font-variation-settings:'wght' 700;fill:#798387;fill-opacity:1;stroke-width:.0602356" id="rect811" width="1.2395855" height="1.2395855" x="32.196529" y="220.5986"/>
      <rect style="font-variation-settings:'wght' 700;fill:#798387;fill-opacity:1;stroke-width:.118038" id="rect812" width="1.9833368" height="2.9750051" x="29.849585" y="219.7309"/>
      <rect style="font-variation-settings:'wght' 700;fill:#798387;fill-opacity:1;stroke-width:.0602356" id="rect813" width="1.2395855" height="1.2395855" x="36.684307" y="220.5986"/>
      <rect style="font-variation-settings:'wght' 700;fill:#798387;fill-opacity:1;stroke-width:.118038" id="rect814" width="1.9833368" height="2.9750051" x="34.33736" y="219.7309"/>
      <rect style="font-variation-settings:'wght' 700;fill:#798387;fill-opacity:1;stroke-width:.0602356" id="rect815" width="1.2395855" height="1.2395855" x="9.7576389" y="226.88988"/>
      <rect style="font-variation-settings:'wght' 700;fill:#798387;fill-opacity:1;stroke-width:.118038" id="rect816" width="1.9833368" height="2.9750051" x="7.4106941" y="226.02217"/>
      <rect style="font-variation-settings:'wght' 700;fill:#798387;fill-opacity:1;stroke-width:.0602356" id="rect817" width="1.2395855" height="1.2395855" x="14.245418" y="226.88988"/>
      <rect style="font-variation-settings:'wght' 700;fill:#798387;fill-opacity:1;stroke-width:.118038" id="rect818" width="1.9833368" height="2.9750051" x="11.898473" y="226.02217"/>
      <rect style="font-variation-settings:'wght' 700;fill:#798387;fill-opacity:1;stroke-width:.0602356" id="rect819" width="1.2395855" height="1.2395855" x="18.733196" y="226.88988"/>
      <rect style="font-variation-settings:'wght' 700;fill:#798387;fill-opacity:1;stroke-width:.118038" id="rect820" width="1.9833368" height="2.9750051" x="16.386251" y="226.02217"/>
      <rect style="font-variation-settings:'wght' 700;fill:#798387;fill-opacity:1;stroke-width:.0602356" id="rect823" width="1.2395855" height="1.2395855" x="23.220974" y="226.88988"/>
      <rect style="font-variation-settings:'wght' 700;fill:#798387;fill-opacity:1;stroke-width:.118038" id="rect824" width="1.9833368" height="2.9750051" x="20.874029" y="226.02217"/>
      <rect style="font-variation-settings:'wght' 700;fill:#798387;fill-opacity:1;stroke-width:.0602356" id="rect825" width="1.2395855" height="1.2395855" x="27.708752" y="226.88988"/>
      <rect style="font-variation-settings:'wght' 700;fill:#798387;fill-opacity:1;stroke-width:.118038" id="rect826" width="1.9833368" height="2.9750051" x="25.361807" y="226.02217"/>
      <rect style="font-variation-settings:'wght' 700;fill:#798387;fill-opacity:1;stroke-width:.0602356" id="rect827" width="1.2395855" height="1.2395855" x="32.196529" y="226.88988"/>
      <rect style="font-variation-settings:'wght' 700;fill:#798387;fill-opacity:1;stroke-width:.118038" id="rect828" width="1.9833368" height="2.9750051" x="29.849585" y="226.02217"/>
      <rect style="font-variation-settings:'wght' 700;fill:#798387;fill-opacity:1;stroke-width:.0602356" id="rect829" width="1.2395855" height="1.2395855" x="36.684307" y="226.88988"/>
      <rect style="font-variation-settings:'wght' 700;fill:#798387;fill-opacity:1;stroke-width:.118038" id="rect831" width="1.9833368" height="2.9750051" x="34.33736" y="226.02217"/>
      <rect style="font-variation-settings:'wght' 700;fill:#798387;fill-opacity:1;stroke-width:.17261" id="rect871" width="1.2395855" height="10.178991" x="5.9481091" y="231.04498"/>
      <rect style="font-variation-settings:'wght' 700;fill:#798387;fill-opacity:1;stroke-width:.17261" id="rect872" width="1.2395855" height="10.178991" x="9.7686949" y="231.04498"/>
      <rect style="font-variation-settings:'wght' 700;fill:#798387;fill-opacity:1;stroke-width:.17261" id="rect873" width="1.2395855" height="10.178991" x="13.58928" y="231.04498"/>
      <rect style="font-variation-settings:'wght' 700;fill:#798387;fill-opacity:1;stroke-width:.17261" id="rect874" width="1.2395855" height="10.178991" x="17.409866" y="231.04498"/>
      <rect style="font-variation-settings:'wght' 700;fill:#798387;fill-opacity:1;stroke-width:.17261" id="rect875" width="1.2395855" height="10.178991" x="28.871622" y="231.04498"/>
      <rect style="font-variation-settings:'wght' 700;fill:#798387;fill-opacity:1;stroke-width:.17261" id="rect876" width="1.2395855" height="10.178991" x="21.230452" y="231.04498"/>
      <rect style="font-variation-settings:'wght' 700;fill:#798387;fill-opacity:1;stroke-width:.17261" id="rect877" width="1.2395855" height="10.178991" x="25.051037" y="231.04498"/>
      <rect style="font-variation-settings:'wght' 700;fill:#798387;fill-opacity:1;stroke-width:.17261" id="rect878" width="1.2395855" height="10.178991" x="36.148682" y="231.04498"/>
      <rect style="font-variation-settings:'wght' 700;fill:#798387;fill-opacity:1;stroke-width:.17261" id="rect879" width="1.2395855" height="10.178991" x="32.328094" y="231.04498"/>
      <rect style="font-variation-settings:'wght' 700;fill:#798387;fill-opacity:1;stroke-width:.17261" id="rect880" width="1.2395855" height="10.178991" x="51.795135" y="231.04498"/>
      <rect style="font-variation-settings:'wght' 700;fill:#798387;fill-opacity:1;stroke-width:.17261" id="rect881" width="1.2395855" height="10.178991" x="44.153965" y="231.04498"/>
      <rect style="font-variation-settings:'wght' 700;fill:#798387;fill-opacity:1;stroke-width:.17261" id="rect882" width="1.2395855" height="10.178991" x="47.974548" y="231.04498"/>
      <rect style="font-variation-settings:'wght' 700;fill:#798387;fill-opacity:1;stroke-width:.17261" id="rect883" width="1.2395855" height="10.178991" x="59.072193" y="231.04498"/>
      <rect style="font-variation-settings:'wght' 700;fill:#798387;fill-opacity:1;stroke-width:.17261" id="rect884" width="1.2395855" height="10.178991" x="55.251606" y="231.04498"/>
      <rect style="font-variation-settings:'wght' 700;fill:#798387;fill-opacity:1;stroke-width:.17261" id="rect885" width="1.2395855" height="10.178991" x="68.177231" y="231.04498"/>
      <rect style="font-variation-settings:'wght' 700;fill:#798387;fill-opacity:1;stroke-width:.17261" id="rect886" width="1.2395855" height="10.178991" x="64.356644" y="231.04498"/>
      <rect style="font-variation-settings:'wght' 700;display:inline;opacity:1;fill:#798387;fill-opacity:1;stroke-width:.340814" id="rect832" width="12.172729" height="4.0410485" x="-29.878288" y="273.87863" transform="translate(74.275964,-51.566769)"/>
      <rect style="font-variation-settings:'wght' 700;display:inline;opacity:1;fill:#798387;fill-opacity:1;stroke-width:.295454" id="rect835" width="9.14814" height="4.0410485" x="-14.937878" y="273.87863" transform="translate(74.275964,-51.566769)"/>
      <rect style="font-variation-settings:'wght' 700;display:inline;opacity:1;fill:#798387;fill-opacity:1;stroke-width:.0602356" id="rect836" width="1.2395855" height="1.2395855" x="-28.980574" y="272.25806" transform="translate(74.275964,-51.566769)"/>
      <rect style="font-variation-settings:'wght' 700;display:inline;opacity:1;fill:#798387;fill-opacity:1;stroke-width:.0602356" id="rect837" width="1.2395855" height="1.2395855" x="-25.934669" y="272.25806" transform="translate(74.275964,-51.566769)"/>
      <rect style="font-variation-settings:'wght' 700;display:inline;opacity:1;fill:#798387;fill-opacity:1;stroke-width:.0602356" id="rect838" width="1.2395855" height="1.2395855" x="-22.888763" y="272.25806" transform="translate(74.275964,-51.566769)"/>
      <rect style="font-variation-settings:'wght' 700;display:inline;opacity:1;fill:#798387;fill-opacity:1;stroke-width:.0602356" id="rect839" width="1.2395855" height="1.2395855" x="-19.842859" y="272.25806" transform="translate(74.275964,-51.566769)"/>
      <rect style="font-variation-settings:'wght' 700;display:inline;opacity:1;fill:#798387;fill-opacity:1;stroke-width:.0602356" id="rect840" width="1.2395855" height="1.2395855" x="-28.980574" y="278.30066" transform="translate(74.275964,-51.566769)"/>
      <rect style="font-variation-settings:'wght' 700;display:inline;opacity:1;fill:#798387;fill-opacity:1;stroke-width:.0602356" id="rect841" width="1.2395855" height="1.2395855" x="-25.934669" y="278.30066" transform="translate(74.275964,-51.566769)"/>
      <rect style="font-variation-settings:'wght' 700;display:inline;opacity:1;fill:#798387;fill-opacity:1;stroke-width:.0602356" id="rect842" width="1.2395855" height="1.2395855" x="-22.888763" y="278.30066" transform="translate(74.275964,-51.566769)"/>
      <rect style="font-variation-settings:'wght' 700;display:inline;opacity:1;fill:#798387;fill-opacity:1;stroke-width:.0602356" id="rect843" width="1.2395855" height="1.2395855" x="-19.842859" y="278.30066" transform="translate(74.275964,-51.566769)"/>
      <rect style="font-variation-settings:'wght' 700;display:inline;opacity:1;fill:#798387;fill-opacity:1;stroke-width:.0602356" id="rect849" width="1.2395855" height="1.2395855" x="-14.029505" y="272.25806" transform="translate(74.275964,-51.566769)"/>
      <rect style="font-variation-settings:'wght' 700;display:inline;opacity:1;fill:#798387;fill-opacity:1;stroke-width:.0602356" id="rect850" width="1.2395855" height="1.2395855" x="-10.983601" y="272.25806" transform="translate(74.275964,-51.566769)"/>
      <rect style="font-variation-settings:'wght' 700;display:inline;opacity:1;fill:#798387;fill-opacity:1;stroke-width:.0602356" id="rect851" width="1.2395855" height="1.2395855" x="-7.9376965" y="272.25806" transform="translate(74.275964,-51.566769)"/>
      <rect style="font-variation-settings:'wght' 700;display:inline;opacity:1;fill:#798387;fill-opacity:1;stroke-width:.0602356" id="rect852" width="1.2395855" height="1.2395855" x="-14.029505" y="278.30066" transform="translate(74.275964,-51.566769)"/>
      <rect style="font-variation-settings:'wght' 700;display:inline;opacity:1;fill:#798387;fill-opacity:1;stroke-width:.0602356" id="rect853" width="1.2395855" height="1.2395855" x="-10.983601" y="278.30066" transform="translate(74.275964,-51.566769)"/>
      <rect style="font-variation-settings:'wght' 700;display:inline;opacity:1;fill:#798387;fill-opacity:1;stroke-width:.0602356" id="rect854" width="1.2395855" height="1.2395855" x="-7.9376965" y="278.30066" transform="translate(74.275964,-51.566769)"/>
    </g>
    <path id="roomNames_2" d="m 394.17269,87.098644 v -5.824 q 5.12,-4.544 9.088,-8.512 4.032,-3.968 6.272,-7.36 2.304,-3.392 2.304,-6.208 0,-3.008 -1.536,-4.544 -1.536,-1.6 -4.224,-1.6 -2.176,0 -3.968,1.28 -1.728,1.216 -3.264,2.88 l -4.928,-4.864 q 2.944,-3.328 6.016,-4.992 3.136,-1.664 7.424,-1.664 3.968,0 6.976,1.6 3.072,1.6 4.736,4.48 1.728,2.88 1.728,6.784 0,3.648 -1.984,7.168 -1.92,3.456 -5.12,6.912 -3.2,3.456 -6.784,7.04 1.536,-0.192 3.456,-0.32 1.92,-0.192 3.328,-0.192 h 9.088 v 7.936 z m 35.90399,0 v -7.616 h 8.832 v -23.488 h -7.616 v -5.824 q 3.328,-0.64 5.632,-1.536 2.368,-0.896 4.48,-2.176 h 6.912 v 33.024 h 7.616 v 7.616 z M 389.5967,7.0986438 V -34.629356 h 9.408 v 16.064 h 14.4 v -16.064 h 9.472 V 7.0986438 h -9.472 V -10.309356 h -14.4 V 7.0986438 Z m 43.13599,0 V -34.629356 h 14.272 q 4.352,0 7.808,0.96 3.52,0.896 5.504,3.2 2.048,2.24 2.048,6.208 0,3.136 -1.408,5.632 -1.408,2.432 -4.032,3.392 v 0.256 q 3.52,0.768 5.504,3.072 1.984,2.2399998 1.984,6.2719998 0,4.416 -2.176,7.232 -2.176,2.816 -5.888,4.16 -3.648,1.344 -8.128,1.344 z m 9.408,-25.0239998 h 4.416 q 3.456,0 4.992,-1.344 1.6,-1.344 1.6,-3.584 0,-2.432 -1.6,-3.456 -1.6,-1.024 -4.928,-1.024 h -4.48 z m 0,17.72799979 h 5.312 q 3.84,0 5.76,-1.34399999 1.984,-1.408 1.984,-4.288 0,-2.688 -1.984,-3.904 -1.92,-1.2159998 -5.76,-1.2159998 h -5.312 z M 215.19059,87.098644 v -5.824 q 5.12,-4.544 9.088,-8.512 4.032,-3.968 6.272,-7.36 2.304,-3.392 2.304,-6.208 0,-3.008 -1.536,-4.544 -1.536,-1.6 -4.224,-1.6 -2.176,0 -3.968,1.28 -1.728,1.216 -3.264,2.88 l -4.928,-4.864 q 2.944,-3.328 6.016,-4.992 3.136,-1.664 7.424,-1.664 3.968,0 6.976,1.6 3.072,1.6 4.736,4.48 1.728,2.88 1.728,6.784 0,3.648 -1.984,7.168 -1.92,3.456 -5.12,6.912 -3.2,3.456 -6.784,7.04 1.536,-0.192 3.456,-0.32 1.92,-0.192 3.328,-0.192 h 9.088 v 7.936 z m 33.79199,0 v -5.824 q 5.12,-4.544 9.088,-8.512 4.032,-3.968 6.272,-7.36 2.304,-3.392 2.304,-6.208 0,-3.008 -1.536,-4.544 -1.536,-1.6 -4.224,-1.6 -2.176,0 -3.968,1.28 -1.728,1.216 -3.264,2.88 l -4.928,-4.864 q 2.944,-3.328 6.016,-4.992 3.136,-1.664 7.424,-1.664 3.968,0 6.976,1.6 3.072,1.6 4.736,4.48 1.728,2.88 1.728,6.784 0,3.648 -1.984,7.168 -1.92,3.456 -5.12,6.912 -3.2,3.456 -6.784,7.04 1.536,-0.192 3.456,-0.32 1.92,-0.192 3.328,-0.192 h 9.088 v 7.936 z M 210.6146,7.0986438 V -34.629356 h 9.408 v 16.064 h 14.4 v -16.064 h 9.472 V 7.0986438 h -9.472 V -10.309356 h -14.4 V 7.0986438 Z m 43.13599,0 V -34.629356 h 14.272 q 4.352,0 7.808,0.96 3.52,0.896 5.504,3.2 2.048,2.24 2.048,6.208 0,3.136 -1.408,5.632 -1.408,2.432 -4.032,3.392 v 0.256 q 3.52,0.768 5.504,3.072 1.984,2.2399998 1.984,6.2719998 0,4.416 -2.176,7.232 -2.176,2.816 -5.888,4.16 -3.648,1.344 -8.128,1.344 z m 9.408,-25.0239998 h 4.416 q 3.456,0 4.992,-1.344 1.6,-1.344 1.6,-3.584 0,-2.432 -1.6,-3.456 -1.6,-1.024 -4.928,-1.024 h -4.48 z m 0,17.72799979 h 5.312 q 3.84,0 5.76,-1.34399999 1.984,-1.408 1.984,-4.288 0,-2.688 -1.984,-3.904 -1.92,-1.2159998 -5.76,-1.2159998 h -5.312 z M 33.72219,86.714644 v -5.824 q 5.12,-4.544 9.088,-8.512 4.032,-3.968 6.272,-7.36 2.304,-3.392 2.304,-6.208 0,-3.008 -1.536,-4.544 -1.536,-1.6 -4.224,-1.6 -2.176,0 -3.968,1.28 -1.728,1.216 -3.264,2.88 l -4.928,-4.864 q 2.944,-3.328 6.016,-4.992 3.136,-1.664 7.424,-1.664 3.968,0 6.976,1.6 3.072,1.6 4.736,4.48 1.728,2.88 1.728,6.784 0,3.648 -1.984,7.168 -1.92,3.456 -5.12,6.912 -3.2,3.456 -6.784,7.04 1.536,-0.192 3.456,-0.32 1.92,-0.192 3.328,-0.192 h 9.088 v 7.936 z m 46.97599,0.768 q -3.264,0 -5.952,-0.768 -2.624,-0.704 -4.672,-1.984 -2.048,-1.28 -3.52,-3.008 l 4.352,-5.952 q 1.856,1.792 4.096,2.944 2.24,1.152 4.8,1.152 2.944,0 4.736,-1.216 1.856,-1.28 1.856,-3.584 0,-1.792 -0.896,-3.072 -0.896,-1.344 -3.264,-2.048 -2.304,-0.704 -6.784,-0.704 v -6.656 q 3.648,0 5.76,-0.704 2.112,-0.704 2.944,-1.92 0.896,-1.216 0.896,-2.816 0,-2.176 -1.344,-3.328 -1.28,-1.152 -3.648,-1.152 -2.176,0 -3.968,0.96 -1.728,0.896 -3.648,2.624 l -4.736,-5.76 q 2.816,-2.432 5.952,-3.776 3.136,-1.408 6.848,-1.408 4.16,0 7.296,1.344 3.2,1.28 4.928,3.776 1.792,2.432 1.792,6.016 0,3.136 -1.792,5.376 -1.728,2.24 -4.992,3.648 v 0.256 q 2.304,0.704 4.16,2.048 1.856,1.28 2.88,3.264 1.024,1.984 1.024,4.608 0,3.776 -2.112,6.464 -2.048,2.624 -5.504,4.032 -3.392,1.344 -7.488,1.344 z M 29.1462,6.7146438 V -35.013356 h 9.408 v 16.064 h 14.4 v -16.064 h 9.472 V 6.7146438 h -9.472 V -10.693356 h -14.4 V 6.7146438 Z m 43.13599,0 V -35.013356 h 14.272 q 4.352,0 7.808,0.96 3.52,0.896 5.504,3.2 2.048,2.24 2.048,6.208 0,3.136 -1.408,5.632 -1.408,2.432 -4.032,3.392 v 0.256 q 3.52,0.768 5.504,3.072 1.984,2.24 1.984,6.2719998 0,4.416 -2.176,7.232 -2.176,2.816 -5.888,4.16 -3.648,1.344 -8.128,1.344 z m 9.408,-25.0239998 h 4.416 q 3.456,0 4.992,-1.344 1.6,-1.344 1.6,-3.584 0,-2.432 -1.6,-3.456 -1.6,-1.024 -4.928,-1.024 h -4.48 z m 0,17.72799979 h 5.312 q 3.84,0 5.76,-1.34399999 1.984,-1.408 1.984,-4.288 0,-2.688 -1.984,-3.9039998 -1.92,-1.216 -5.76,-1.216 h -5.312 z M -147.74621,87.098644 v -5.824 q 5.12,-4.544 9.088,-8.512 4.032,-3.968 6.272,-7.36 2.304,-3.392 2.304,-6.208 0,-3.008 -1.536,-4.544 -1.536,-1.6 -4.224,-1.6 -2.176,0 -3.968,1.28 -1.728,1.216 -3.264,2.88 l -4.928,-4.864 q 2.944,-3.328 6.016,-4.992 3.136,-1.664 7.424,-1.664 3.968,0 6.976,1.6 3.072,1.6 4.736,4.48 1.728,2.88 1.728,6.784 0,3.648 -1.984,7.168 -1.92,3.456 -5.12,6.912 -3.2,3.456 -6.784,7.04 1.536,-0.192 3.456,-0.32 1.92,-0.192 3.328,-0.192 h 9.088 v 7.936 z m 50.23999,0 v -23.488 q 0,-1.92 0.128,-4.544 0.192,-2.624 0.256,-4.544 h -0.256 q -0.768,1.664 -1.6,3.392 -0.832,1.664 -1.728,3.456 l -5.376,8.832 h 22.016 v 7.168 h -31.04 v -6.464 l 14.848,-24.448 h 11.52 v 40.64 z M -152.3222,7.0986438 V -34.629356 h 9.408 v 16.064 h 14.4 v -16.064 h 9.472 V 7.0986438 h -9.472 V -10.309356 h -14.4 V 7.0986438 Z m 43.13599,0 V -34.629356 h 14.272 q 4.352,0 7.808,0.96 3.52,0.896 5.504,3.2 2.048,2.24 2.048,6.208 0,3.136 -1.408,5.632 -1.408,2.432 -4.032,3.392 v 0.256 q 3.52,0.768 5.504,3.072 1.984,2.2399998 1.984,6.2719998 0,4.416 -2.176,7.232 -2.176,2.816 -5.888,4.16 -3.648,1.344 -8.128,1.344 z m 9.408,-25.0239998 h 4.416 q 3.456,0 4.992,-1.344 1.6,-1.344 1.6,-3.584 0,-2.432 -1.6,-3.456 -1.6,-1.024 -4.928,-1.024 h -4.48 z m 0,17.72799979 h 5.312 q 3.84,0 5.76,-1.34399999 1.984,-1.408 1.984,-4.288 0,-2.688 -1.984,-3.904 -1.92,-1.2159998 -5.76,-1.2159998 h -5.312 z M -329.21451,86.714644 v -5.824 q 5.12,-4.544 9.088,-8.512 4.032,-3.968 6.272,-7.36 2.304,-3.392 2.304,-6.208 0,-3.008 -1.536,-4.544 -1.536,-1.6 -4.224,-1.6 -2.176,0 -3.968,1.28 -1.728,1.216 -3.264,2.88 l -4.928,-4.864 q 2.944,-3.328 6.016,-4.992 3.136,-1.664 7.424,-1.664 3.968,0 6.976,1.6 3.072,1.6 4.736,4.48 1.728,2.88 1.728,6.784 0,3.648 -1.984,7.168 -1.92,3.456 -5.12,6.912 -3.2,3.456 -6.784,7.04 1.536,-0.192 3.456,-0.32 1.92,-0.192 3.328,-0.192 h 9.088 v 7.936 z m 47.23199,0.768 q -3.328,0 -6.016,-0.768 -2.624,-0.768 -4.672,-2.048 -2.048,-1.28 -3.648,-2.88 l 4.224,-5.952 q 1.856,1.664 4.032,2.88 2.176,1.152 4.736,1.152 2.048,0 3.584,-0.704 1.536,-0.768 2.368,-2.176 0.896,-1.408 0.896,-3.456 0,-3.072 -1.792,-4.672 -1.792,-1.6 -4.608,-1.6 -1.728,0 -2.944,0.448 -1.216,0.448 -3.072,1.6 l -4.224,-2.688 1.152,-20.544 h 23.04 v 7.936 h -14.912 l -0.704,7.616 q 1.216,-0.512 2.24,-0.704 1.024,-0.256 2.304,-0.256 3.52,0 6.464,1.344 2.944,1.344 4.672,4.16 1.792,2.816 1.792,7.104 0,4.544 -2.112,7.744 -2.048,3.136 -5.44,4.8 -3.392,1.664 -7.36,1.664 z M -333.7905,6.7146438 V -35.013356 h 9.408 v 16.064 h 14.4 v -16.064 h 9.472 V 6.7146438 h -9.472 V -10.693356 h -14.4 V 6.7146438 Z m 43.13599,0 V -35.013356 h 14.272 q 4.352,0 7.808,0.96 3.52,0.896 5.504,3.2 2.048,2.24 2.048,6.208 0,3.136 -1.408,5.632 -1.408,2.432 -4.032,3.392 v 0.256 q 3.52,0.768 5.504,3.072 1.984,2.24 1.984,6.2719998 0,4.416 -2.176,7.232 -2.176,2.816 -5.888,4.16 -3.648,1.344 -8.128,1.344 z m 9.408,-25.0239998 h 4.416 q 3.456,0 4.992,-1.344 1.6,-1.344 1.6,-3.584 0,-2.432 -1.6,-3.456 -1.6,-1.024 -4.928,-1.024 h -4.48 z m 0,17.72799979 h 5.312 q 3.84,0 5.76,-1.34399999 1.984,-1.408 1.984,-4.288 0,-2.688 -1.984,-3.9039998 -1.92,-1.216 -5.76,-1.216 h -5.312 z M -510.68281,86.714644 v -5.824 q 5.12,-4.544 9.088,-8.512 4.032,-3.968 6.272,-7.36 2.304,-3.392 2.304,-6.208 0,-3.008 -1.536,-4.544 -1.536,-1.6 -4.224,-1.6 -2.176,0 -3.968,1.28 -1.728,1.216 -3.264,2.88 l -4.928,-4.864 q 2.944,-3.328 6.016,-4.992 3.136,-1.664 7.424,-1.664 3.968,0 6.976,1.6 3.072,1.6 4.736,4.48 1.728,2.88 1.728,6.784 0,3.648 -1.984,7.168 -1.92,3.456 -5.12,6.912 -3.2,3.456 -6.784,7.04 1.536,-0.192 3.456,-0.32 1.92,-0.192 3.328,-0.192 h 9.088 v 7.936 z m 49.40799,0.768 q -2.944,0 -5.696,-1.152 -2.752,-1.152 -4.928,-3.584 -2.176,-2.432 -3.456,-6.208 -1.28,-3.84 -1.28,-9.216 0,-5.696 1.344,-9.856 1.344,-4.16 3.648,-6.848 2.304,-2.688 5.248,-3.968 2.944,-1.344 6.208,-1.344 4.032,0 6.976,1.472 2.944,1.408 4.864,3.392 l -4.928,5.632 q -1.088,-1.152 -2.816,-1.984 -1.728,-0.896 -3.52,-0.896 -2.304,0 -4.288,1.344 -1.92,1.344 -3.072,4.544 -1.088,3.136 -1.088,8.512 0,5.056 0.896,7.936 0.96,2.816 2.496,4.032 1.536,1.152 3.2,1.152 1.408,0 2.56,-0.704 1.152,-0.704 1.856,-2.112 0.704,-1.472 0.704,-3.776 0,-2.176 -0.704,-3.456 -0.704,-1.28 -1.92,-1.856 -1.152,-0.576 -2.688,-0.576 -1.6,0 -3.328,0.96 -1.664,0.96 -3.008,3.392 l -0.448,-6.144 q 1.6,-2.368 4.096,-3.584 2.496,-1.28 4.48,-1.28 3.456,0 6.208,1.344 2.752,1.344 4.288,4.16 1.6,2.752 1.6,7.04 0,4.224 -1.856,7.296 -1.792,3.072 -4.864,4.736 -3.072,1.6 -6.784,1.6 z M -515.2588,6.7146438 V -35.013356 h 9.408 v 16.064 h 14.4 v -16.064 h 9.472 V 6.7146438 h -9.472 V -10.693356 h -14.4 V 6.7146438 Z m 43.13599,0 V -35.013356 h 14.272 q 4.352,0 7.808,0.96 3.52,0.896 5.504,3.2 2.048,2.24 2.048,6.208 0,3.136 -1.408,5.632 -1.408,2.432 -4.032,3.392 v 0.256 q 3.52,0.768 5.504,3.072 1.984,2.24 1.984,6.2719998 0,4.416 -2.176,7.232 -2.176,2.816 -5.888,4.16 -3.648,1.344 -8.128,1.344 z m 9.408,-25.0239998 h 4.416 q 3.456,0 4.992,-1.344 1.6,-1.344 1.6,-3.584 0,-2.432 -1.6,-3.456 -1.6,-1.024 -4.928,-1.024 h -4.48 z m 0,17.72799979 h 5.312 q 3.84,0 5.76,-1.34399999 1.984,-1.408 1.984,-4.288 0,-2.688 -1.984,-3.9039998 -1.92,-1.216 -5.76,-1.216 h -5.312 z M -689.74511,87.098644 v -5.824 q 5.12,-4.544 9.088,-8.512 4.032,-3.968 6.272,-7.36 2.304,-3.392 2.304,-6.208 0,-3.008 -1.536,-4.544 -1.536,-1.6 -4.224,-1.6 -2.176,0 -3.968,1.28 -1.728,1.216 -3.264,2.88 l -4.928,-4.864 q 2.944,-3.328 6.016,-4.992 3.136,-1.664 7.424,-1.664 3.968,0 6.976,1.6 3.072,1.6 4.736,4.48 1.728,2.88 1.728,6.784 0,3.648 -1.984,7.168 -1.92,3.456 -5.12,6.912 -3.2,3.456 -6.784,7.04 1.536,-0.192 3.456,-0.32 1.92,-0.192 3.328,-0.192 h 9.088 v 7.936 z m 41.02399,0 q 0.32,-5.056 1.024,-9.28 0.704,-4.288 1.984,-8.128 1.344,-3.84 3.392,-7.552 2.048,-3.712 5.056,-7.744 h -18.24 v -7.936 h 28.288 v 5.76 q -3.584,4.352 -5.888,8.128 -2.24,3.776 -3.456,7.68 -1.216,3.904 -1.792,8.512 -0.576,4.608 -0.896,10.56 z M -694.3211,7.0986438 V -34.629356 h 9.408 v 16.064 h 14.4 v -16.064 h 9.472 V 7.0986438 h -9.472 V -10.309356 h -14.4 V 7.0986438 Z m 43.13599,0 V -34.629356 h 14.272 q 4.352,0 7.808,0.96 3.52,0.896 5.504,3.2 2.048,2.24 2.048,6.208 0,3.136 -1.408,5.632 -1.408,2.432 -4.032,3.392 v 0.256 q 3.52,0.768 5.504,3.072 1.984,2.2399998 1.984,6.2719998 0,4.416 -2.176,7.232 -2.176,2.816 -5.888,4.16 -3.648,1.344 -8.128,1.344 z m 9.408,-25.0239998 h 4.416 q 3.456,0 4.992,-1.344 1.6,-1.344 1.6,-3.584 0,-2.432 -1.6,-3.456 -1.6,-1.024 -4.928,-1.024 h -4.48 z m 0,17.72799979 h 5.312 q 3.84,0 5.76,-1.34399999 1.984,-1.408 1.984,-4.288 0,-2.688 -1.984,-3.904 -1.92,-1.2159998 -5.76,-1.2159998 h -5.312 z M -1139.439,1178.6044 v -8.736 q 7.68,-6.816 13.632,-12.768 6.048,-5.952 9.408,-11.04 3.456,-5.088 3.456,-9.312 0,-4.512 -2.304,-6.816 -2.304,-2.4 -6.336,-2.4 -3.264,0 -5.952,1.92 -2.592,1.824 -4.896,4.32 l -7.392,-7.296 q 4.416,-4.992 9.024,-7.488 4.704,-2.496 11.136,-2.496 5.952,0 10.464,2.4 4.608,2.4 7.104,6.72 2.592,4.32 2.592,10.176 0,5.472 -2.976,10.752 -2.88,5.184 -7.68,10.368 -4.8,5.184 -10.176,10.56 2.304,-0.288 5.184,-0.48 2.88,-0.288 4.992,-0.288 h 13.632 v 11.904 z m 72.48,1.152 q -9.792,0 -15.84,-8.16 -5.952,-8.16 -5.952,-23.712 0,-15.648 5.952,-23.52 6.048,-7.872 15.84,-7.872 9.792,0 15.744,7.968 6.048,7.872 6.048,23.424 0,15.552 -6.048,23.712 -5.952,8.16 -15.744,8.16 z m 0,-10.944 q 2.4,0 4.32,-1.728 1.92,-1.824 2.976,-6.336 1.152,-4.608 1.152,-12.864 0,-8.352 -1.152,-12.768 -1.056,-4.416 -2.976,-6.048 -1.92,-1.632 -4.32,-1.632 -2.4,0 -4.32,1.632 -1.92,1.632 -3.072,6.048 -1.056,4.416 -1.056,12.768 0,8.256 1.056,12.864 1.152,4.512 3.072,6.336 1.92,1.728 4.32,1.728 z m 47.328,10.944 q -6.048,0 -10.464,-2.208 -4.416,-2.208 -7.392,-5.088 l 7.488,-8.448 q 1.536,1.728 4.128,3.072 2.688,1.248 5.28,1.248 3.648,0 6.432,-2.016 2.88,-2.016 4.512,-6.72 1.728,-4.8 1.728,-12.864 0,-7.584 -1.44,-11.808 -1.344,-4.32 -3.648,-6.048 -2.208,-1.824 -4.8,-1.824 -2.016,0 -3.84,1.056 -1.728,1.056 -2.784,3.168 -1.056,2.112 -1.056,5.664 0,3.168 1.056,5.184 1.056,1.92 2.88,2.784 1.824,0.864 4.128,0.864 2.4,0 4.896,-1.44 2.496,-1.536 4.512,-5.088 l 0.672,9.216 q -2.304,3.36 -6.048,5.376 -3.744,1.92 -6.816,1.92 -5.184,0 -9.312,-2.016 -4.128,-2.016 -6.528,-6.144 -2.304,-4.224 -2.304,-10.656 0,-6.336 2.784,-10.944 2.784,-4.608 7.392,-7.008 4.608,-2.496 10.08,-2.496 4.512,0 8.64,1.728 4.128,1.728 7.296,5.376 3.26397,3.648 5.18397,9.408 2.016,5.664 2.016,13.728 0,8.544 -2.112,14.784 -2.016,6.24 -5.47197,10.272 -3.456,4.032 -7.872,6.048 -4.416,1.92 -9.216,1.92 z m -101.328,-121.152 v -62.59202 h 14.112 v 24.09602 h 21.6 v -24.09602 h 14.208 v 62.59202 h -14.208 v -26.112 h -21.6 v 26.112 z m 64.704,0 v -62.59202 h 21.408 q 6.528,0 11.712,1.44 5.28,1.344 8.256,4.80002 3.072,3.36 3.072,9.312 0,4.704 -2.112,8.448 -2.112,3.648 -6.048,5.088 v 0.384 q 5.28,1.152 8.256,4.608 2.976,3.36 2.976,9.408 0,6.624 -3.264,10.848 -3.264,4.224 -8.832,6.24 -5.472,2.016 -12.192,2.016 z m 14.112,-37.536 h 6.624 q 5.184,0 7.488,-2.016 2.4,-2.016 2.4,-5.376 0,-3.648 -2.4,-5.184 -2.4,-1.536 -7.392,-1.536 h -6.72 z m 0,26.592 h 7.968 q 5.76,0 8.64,-2.016 2.976,-2.112 2.976,-6.432 0,-4.032 -2.976,-5.856 -2.88,-1.824 -8.64,-1.824 h -7.968 z m -97.392,-257.24842 v -8.736 q 7.68,-6.816 13.632,-12.768 6.048,-5.952 9.408,-11.04 3.456,-5.088 3.456,-9.312 0,-4.512 -2.304,-6.816 -2.304,-2.4 -6.336,-2.4 -3.264,0 -5.952,1.92 -2.592,1.824 -4.896,4.32 l -7.392,-7.296 q 4.416,-4.992 9.024,-7.488 4.704,-2.496 11.136,-2.496 5.952,0 10.464,2.4 4.608,2.4 7.104,6.72 2.592,4.32 2.592,10.176 0,5.472 -2.976,10.752 -2.88,5.184 -7.68,10.368 -4.8,5.184 -10.176,10.56 2.304,-0.288 5.184,-0.48 2.88,-0.288 4.992,-0.288 h 13.632 v 11.904 z m 72.48,1.152 q -9.792,0 -15.84,-8.16 -5.952,-8.16 -5.952,-23.712 0,-15.648 5.952,-23.52 6.048,-7.872 15.84,-7.872 9.792,0 15.744,7.968 6.048,7.872 6.048,23.424 0,15.552 -6.048,23.712 -5.952,8.16 -15.744,8.16 z m 0,-10.944 q 2.4,0 4.32,-1.728 1.92,-1.824 2.976,-6.336 1.152,-4.608 1.152,-12.864 0,-8.352 -1.152,-12.768 -1.056,-4.416 -2.976,-6.048 -1.92,-1.632 -4.32,-1.632 -2.4,0 -4.32,1.632 -1.92,1.632 -3.072,6.048 -1.056,4.416 -1.056,12.768 0,8.256 1.056,12.864 1.152,4.512 3.072,6.336 1.92,1.728 4.32,1.728 z m 50.592,10.944 q -6.048,0 -10.944,-2.112 -4.8,-2.112 -7.584,-5.856 -2.688,-3.84 -2.688,-8.736 0,-3.744 1.344,-6.432 1.44,-2.784 3.744,-4.896 2.4,-2.112 5.28,-3.648 v -0.384 q -3.456,-2.688 -5.856,-6.144 -2.304,-3.456 -2.304,-8.256 0,-5.184 2.496,-8.928 2.496,-3.84 6.912,-5.856 4.416,-2.016 10.08,-2.016 8.448,0 13.44,4.608 5.08797,4.512 5.08797,12.096 0,2.88 -1.152,5.472 -1.056,2.496 -2.87997,4.512 -1.824,1.92 -3.936,3.36 v 0.384 q 2.88,1.536 5.28,3.744 2.39997,2.112 3.83997,5.184 1.44,2.976 1.44,7.008 0,4.8 -2.688,8.64 -2.68797,3.744 -7.58397,6.048 -4.8,2.208 -11.328,2.208 z m 3.84,-36.672 q 1.824,-2.112 2.784,-4.32 0.96,-2.208 0.96,-4.608 0,-2.4 -0.864,-4.128 -0.864,-1.728 -2.592,-2.688 -1.632,-1.056 -3.936,-1.056 -2.784,0 -4.8,1.824 -2.016,1.728 -2.016,5.184 0,2.496 1.344,4.224 1.344,1.728 3.648,3.072 2.4,1.344 5.472,2.496 z m -3.552,26.88 q 2.304,0 4.128,-0.768 1.92,-0.864 2.976,-2.496 1.056,-1.728 1.056,-4.32 0,-2.688 -1.632,-4.416 -1.536,-1.824 -4.512,-3.168 -2.88,-1.44 -6.72,-3.072 -2.016,1.824 -3.36,4.416 -1.344,2.496 -1.344,5.28 0,2.688 1.248,4.608 1.344,1.92 3.456,2.976 2.208,0.96 4.704,0.96 z m -104.88,-111.36 v -62.592 h 14.112 v 24.096 h 21.6 v -24.096 h 14.208 v 62.592 h -14.208 v -26.112 h -21.6 v 26.112 z m 64.704,0 v -62.592 h 21.408 q 6.528,0 11.712,1.44 5.28,1.344 8.256,4.8 3.072,3.36 3.072,9.312 0,4.704 -2.112,8.448 -2.112,3.648 -6.048,5.088 v 0.384 q 5.28,1.152 8.256,4.608 2.976,3.36 2.976,9.408 0,6.624 -3.264,10.848 -3.264,4.224 -8.832,6.24 -5.472,2.016 -12.192,2.016 z m 14.112,-37.536 h 6.624 q 5.184,0 7.488,-2.016 2.4,-2.016 2.4,-5.376 0,-3.648 -2.4,-5.184 -2.4,-1.536 -7.392,-1.536 h -6.72 z m 0,26.592 h 7.968 q 5.76,0 8.64,-2.016 2.976,-2.112 2.976,-6.432 0,-4.032 -2.976,-5.856 -2.88,-1.824 -8.64,-1.824 h -7.968 z m -97.2,-203.5632 v -8.736 q 7.68,-6.816 13.632,-12.768 6.048,-5.952 9.408,-11.04 3.456,-5.088 3.456,-9.312 0,-4.512 -2.304,-6.816 -2.304,-2.4 -6.336,-2.4 -3.264,0 -5.952,1.92 -2.592,1.824 -4.896,4.32 l -7.392,-7.296 q 4.416,-4.992 9.024,-7.488 4.704,-2.496 11.136,-2.496 5.952,0 10.464,2.4 4.608,2.4 7.104,6.72 2.592,4.32 2.592,10.176 0,5.472 -2.976,10.752 -2.88,5.184 -7.68,10.368 -4.8,5.184 -10.176,10.56 2.304,-0.288 5.184,-0.48 2.88,-0.288 4.992,-0.288 h 13.632 v 11.904 z m 72.48,1.152 q -9.792,0 -15.84,-8.16 -5.952,-8.16 -5.952,-23.712 0,-15.648 5.952,-23.52 6.048,-7.872 15.84,-7.872 9.792,0 15.744,7.968 6.048,7.872 6.048,23.424 0,15.552 -6.048,23.712 -5.952,8.16 -15.744,8.16 z m 0,-10.944 q 2.4,0 4.32,-1.728 1.92,-1.824 2.976,-6.336 1.152,-4.608 1.152,-12.864 0,-8.352 -1.152,-12.768 -1.056,-4.416 -2.976,-6.048 -1.92,-1.632 -4.32,-1.632 -2.4,0 -4.32,1.632 -1.92,1.632 -3.072,6.048 -1.056,4.416 -1.056,12.768 0,8.256 1.056,12.864 1.152,4.512 3.072,6.336 1.92,1.728 4.32,1.728 z m 39.744,9.792 q 0.48,-7.584 1.536,-13.92 1.056,-6.432 2.976,-12.192 2.016,-5.76 5.088,-11.328 3.072,-5.568 7.584,-11.616 h -27.36 v -11.904 h 42.43197 v 8.64 q -5.37597,6.528 -8.83197,12.192 -3.36,5.664 -5.184,11.52 -1.824,5.856 -2.688,12.768 -0.864,6.912 -1.344,15.84 z m -93.744,-120 v -62.592 h 14.112 v 24.096 h 21.6 v -24.096 h 14.208 v 62.592 h -14.208 v -26.112 h -21.6 v 26.112 z m 64.704,0 v -62.592 h 21.408 q 6.528,0 11.712,1.44 5.28,1.344 8.256,4.8 3.072,3.36 3.072,9.312 0,4.704 -2.112,8.448 -2.112,3.648 -6.048,5.088 v 0.384 q 5.28,1.152 8.256,4.608 2.976,3.36 2.976,9.408 0,6.624 -3.264,10.848 -3.264,4.224 -8.832,6.24 -5.472,2.016 -12.192,2.016 z m 14.112,-37.536 h 6.624 q 5.184,0 7.488,-2.016 2.4,-2.016 2.4,-5.376 0,-3.648 -2.4,-5.184 -2.4,-1.536 -7.392,-1.536 h -6.72 z m 0,26.592 h 7.968 q 5.76,0 8.64,-2.016 2.976,-2.112 2.976,-6.432 0,-4.032 -2.976,-5.856 -2.88,-1.824 -8.64,-1.824 h -7.968 z m -1083.714,621.10551 v -17.472 q 15.36,-13.632 27.264,-25.536 12.096,-11.904 18.816,-22.08 6.912,-10.176 6.912,-18.624 0,-9.024 -4.608,-13.632 -4.608,-4.8 -12.672,-4.8 -6.528,0 -11.904,3.84 -5.184,3.648 -9.792,8.64 l -14.784,-14.592 q 8.832,-9.984 18.048,-14.976 9.408,-4.992 22.272,-4.992 11.904,0 20.928,4.8 9.216,4.8 14.208,13.44 5.184,8.64 5.184,20.352 0,10.944 -5.952,21.504 -5.76,10.368 -15.36,20.736 -9.6,10.368 -20.352,21.12 4.608,-0.576 10.368,-0.96 5.76,-0.576 9.984,-0.576 h 27.264 v 23.808 z m 144.96,2.304 q -19.584,0 -31.68,-16.32 -11.904,-16.32 -11.904,-47.424 0,-31.296 11.904,-47.04 12.096,-15.744 31.68,-15.744 19.584,0 31.488,15.936 12.096,15.744 12.096,46.848 0,31.104 -12.096,47.424 -11.904,16.32 -31.488,16.32 z m 0,-21.888 q 4.8,0 8.64,-3.456 3.84,-3.648 5.952,-12.672 2.304,-9.216 2.304,-25.728 0,-16.704 -2.304,-25.536 -2.112,-8.832 -5.952,-12.096 -3.84,-3.264 -8.64,-3.264 -4.8,0 -8.64,3.264 -3.84,3.264 -6.144,12.096 -2.112,8.832 -2.112,25.536 0,16.512 2.112,25.728 2.304,9.024 6.144,12.672 3.84,3.456 8.64,3.456 z m 104.64,21.888 q -8.832,0 -17.088,-3.456 -8.256,-3.456 -14.784,-10.752 -6.528,-7.296 -10.368,-18.624 -3.84,-11.52 -3.84,-27.648 0,-17.088 4.032,-29.568 4.032,-12.48 10.944,-20.544 6.912,-8.064 15.744,-11.904 8.832,-4.032 18.624,-4.032 12.096,0 20.928,4.416 8.832,4.224 14.592,10.176 l -14.784,16.896 q -3.264,-3.456 -8.448,-5.952 -5.184,-2.688 -10.56,-2.688 -6.912,0 -12.864,4.032 -5.76,4.032 -9.216,13.632 -3.264,9.408 -3.264,25.536 0,15.168 2.688,23.808 2.88,8.448 7.488,12.096 4.608,3.456 9.6,3.456 4.224,0 7.68,-2.112 3.456,-2.112 5.568,-6.336 2.112,-4.416 2.112,-11.328 0,-6.528 -2.112,-10.368 -2.112,-3.84 -5.76,-5.568 -3.456,-1.728 -8.064,-1.728 -4.8,0 -9.984,2.88 -4.992,2.88 -9.024,10.176 l -1.344,-18.432 q 4.8,-7.104 12.288,-10.752 7.488,-3.84 13.44,-3.84 10.368,0 18.624,4.032 8.256,4.032 12.864,12.48 4.8,8.256 4.8,21.12 0,12.672 -5.568,21.888 -5.376,9.216 -14.592,14.208 -9.216,4.8 -20.352,4.8 z m -212.64,-242.304 v -125.184 h 28.224 v 48.192 h 43.2 v -48.192 h 28.416 v 125.184 h -28.416 v -52.224 h -43.2 v 52.224 z m 129.408,0 v -125.184 h 42.816 q 13.056,0 23.424,2.88 10.56,2.688 16.512,9.6 6.144,6.72 6.144,18.624 0,9.408 -4.224,16.896 -4.224,7.296 -12.096,10.176 v 0.768 q 10.56,2.304 16.512,9.216 5.952,6.72 5.952,18.816 0,13.248 -6.528,21.696 -6.528,8.448 -17.664,12.48 -10.944,4.032 -24.384,4.032 z m 28.224,-75.072 h 13.248 q 10.368,0 14.976,-4.032 4.8,-4.032 4.8,-10.752 0,-7.296 -4.8,-10.368 -4.8,-3.072 -14.784,-3.072 h -13.44 z m 0,53.184 h 15.936 q 11.52,0 17.28,-4.032 5.952,-4.224 5.952,-12.864 0,-8.064 -5.952,-11.712 -5.76,-3.648 -17.28,-3.648 h -15.936 z" style="font-size:64px;font-family:'Source Sans 3';-inkscape-font-specification:'Source Sans 3, @wght=700';font-variation-settings:'wght' 700;text-align:center;white-space:pre;display:inline;opacity:1;fill:#bec3c6;stroke-width:55" transform="matrix(0.02479171,0,0,0.02479171,59.510888,285.33409)"/>
  </g>
</svg>
